<svg id="svg" version="1.1" xmlns="http://www.w3.org/2000/svg"  width="400" height="400" viewBox="0, 0, 400,400"><g id="svgg"><path id="path0" d="M9.913 200.297 L 9.911 225.570 39.841 225.570 L 69.772 225.570 69.772 200.312 L 69.772 175.054 62.710 182.076 C 57.538 187.219,55.397 189.098,54.708 189.098 C 54.018 189.098,51.876 187.218,46.700 182.071 L 39.633 175.043 32.597 182.071 C 27.725 186.938,25.292 189.098,24.685 189.098 C 24.074 189.098,21.703 186.965,16.862 182.061 L 9.916 175.025 9.913 200.297 M31.412 197.716 C 40.405 206.693,40.229 206.938,24.777 206.938 C 9.376 206.938,9.219 206.722,18.045 197.721 C 25.195 190.429,24.114 190.430,31.412 197.716 M61.287 197.522 C 67.447 203.690,67.829 204.294,66.579 205.884 L 65.750 206.938 54.965 206.938 C 39.351 206.938,39.062 206.544,48.062 197.527 C 55.181 190.396,54.170 190.396,61.287 197.522 " stroke="none" fill="#fc0413" fill-rule="evenodd"></path><path id="path1" d="M2.529 166.275 C -0.158 167.451,0.000 165.345,0.000 199.928 C -0.000 234.133,-0.090 232.788,2.265 233.861 C 3.913 234.612,75.846 234.451,77.312 233.693 C 79.334 232.647,79.286 233.464,79.286 200.032 L 79.286 168.496 78.130 167.201 L 76.973 165.907 40.370 165.820 C 10.143 165.748,3.551 165.828,2.529 166.275 M75.488 169.121 C 76.052 169.337,76.115 172.449,76.115 200.243 L 76.115 231.124 39.742 231.023 L 3.370 230.922 3.268 200.223 C 3.188 175.927,3.270 169.459,3.665 169.208 C 4.239 168.844,74.542 168.758,75.488 169.121 M100.694 180.178 L 100.694 185.530 110.803 185.530 L 120.912 185.530 120.912 205.550 L 120.912 225.570 128.242 225.570 L 135.572 225.570 135.675 205.649 L 135.778 185.728 145.193 185.622 L 154.609 185.516 154.609 180.171 L 154.609 174.827 127.651 174.827 L 100.694 174.827 100.694 180.178 M161.737 175.124 C 161.733 175.287,161.730 186.660,161.730 200.396 L 161.731 225.372 185.920 225.474 L 210.109 225.576 210.109 220.618 L 210.109 215.659 192.270 215.659 L 174.430 215.659 174.430 210.704 L 174.430 205.748 191.873 205.748 L 209.316 205.748 209.316 200.793 L 209.316 195.837 191.873 195.837 L 174.430 195.837 174.430 190.882 L 174.430 185.927 192.270 185.927 L 210.109 185.927 210.109 180.377 L 210.109 174.827 185.927 174.827 C 172.626 174.827,161.741 174.960,161.737 175.124 M219.623 200.173 L 219.623 225.570 226.363 225.570 L 233.102 225.570 233.102 215.956 L 233.101 206.343 239.643 206.461 L 246.184 206.578 253.419 216.072 L 260.654 225.566 268.484 225.568 C 272.790 225.569,276.313 225.468,276.313 225.343 C 276.313 225.218,273.267 221.095,269.544 216.180 C 261.652 205.761,261.979 206.338,263.897 206.208 C 274.575 205.489,279.898 189.005,272.203 180.487 C 267.704 175.507,265.374 175.097,240.535 174.923 L 219.623 174.776 219.623 200.173 M283.449 200.195 L 283.449 225.570 307.830 225.570 L 332.210 225.570 332.210 220.614 L 332.210 215.659 314.393 215.659 L 296.577 215.659 296.455 210.703 L 296.333 205.747 313.875 205.748 L 331.417 205.748 331.417 200.793 L 331.417 195.837 313.974 195.837 L 296.531 195.837 296.531 190.882 L 296.531 185.927 314.382 185.927 L 332.232 185.927 332.122 180.476 L 332.012 175.025 307.730 174.923 L 283.449 174.820 283.449 200.195 M338.157 175.066 C 338.157 175.197,339.464 176.758,341.062 178.535 C 347.864 186.094,358.771 198.665,358.771 198.944 C 358.771 199.282,358.775 199.277,345.371 214.366 C 340.095 220.305,335.778 225.255,335.778 225.367 C 335.778 225.478,339.747 225.562,344.599 225.552 L 353.419 225.535 360.524 217.425 C 364.431 212.965,367.747 209.316,367.891 209.316 C 368.036 209.316,371.350 212.967,375.257 217.430 L 382.359 225.543 391.179 225.556 C 396.031 225.564,400.000 225.503,400.000 225.422 C 400.000 225.340,394.827 219.409,388.505 212.240 C 382.183 205.072,377.010 199.095,377.009 198.957 C 377.008 198.820,381.639 193.468,387.301 187.064 C 392.964 180.661,397.602 175.287,397.609 175.124 C 397.616 174.960,393.741 174.829,388.999 174.831 L 380.377 174.836 374.275 181.769 C 370.920 185.582,368.064 188.702,367.929 188.702 C 367.794 188.702,364.947 185.580,361.602 181.764 L 355.521 174.827 346.839 174.827 C 342.064 174.827,338.157 174.934,338.157 175.066 M259.799 186.047 C 262.301 187.688,263.122 190.872,261.655 193.245 C 260.212 195.579,259.907 195.628,245.887 195.759 L 233.102 195.878 233.102 190.481 L 233.102 185.084 245.905 185.208 C 257.451 185.320,258.816 185.402,259.799 186.047 " stroke="none" fill="#040404" fill-rule="evenodd"></path></g></svg>