<svg id="svg" xmlns="http://www.w3.org/2000/svg"  width="400" height="400" viewBox="0, 0, 400,400"><g id="svgg"><path id="path0" d="M12.757 28.857 C -0.799 34.793,0.000 24.165,0.000 198.636 C -0.000 371.199,-0.453 364.418,11.425 369.830 C 19.741 373.619,382.645 372.804,390.040 368.979 C 400.242 363.704,400.000 367.826,400.000 199.163 L 400.000 40.063 394.164 33.532 L 388.329 27.000 203.664 26.562 C 51.171 26.200,17.912 26.600,12.757 28.857 M380.836 43.214 C 383.684 44.307,384.000 60.003,384.000 200.224 L 384.000 356.021 200.500 355.510 L 17.000 355.000 16.488 200.126 C 16.082 77.549,16.499 44.919,18.488 43.656 C 21.386 41.816,376.066 41.383,380.836 43.214 M50.000 201.334 L 50.000 328.000 201.000 328.000 L 352.000 328.000 352.000 200.573 L 352.000 73.146 316.374 108.573 C 290.279 134.522,279.478 144.000,276.000 144.000 C 272.522 144.000,261.715 134.516,235.600 108.547 L 199.948 73.094 164.454 108.547 C 137.548 135.421,127.759 144.000,123.997 144.000 C 120.233 144.000,110.704 135.633,84.517 109.334 L 50.000 74.668 50.000 201.334 M158.452 187.151 C 203.370 233.017,202.650 234.000,124.113 234.000 C 46.513 234.000,45.149 232.071,90.610 186.610 C 127.181 150.039,122.068 149.999,158.452 187.151 M309.192 186.500 C 340.271 217.618,342.199 220.664,335.890 228.686 L 331.710 234.000 277.076 234.000 C 198.335 234.000,196.953 232.128,242.224 186.775 C 278.423 150.512,273.270 150.533,309.192 186.500 " stroke="none" fill-rule="evenodd"></path></g></svg>