<svg id="svg" xmlns="http://www.w3.org/2000/svg"  width="400" height="400" viewBox="0, 0, 400,400"><g id="svgg"><path id="path0" d="M189.492 82.249 C 89.578 88.941,27.726 138.264,59.621 185.814 C 102.184 249.269,275.460 255.374,338.356 195.635 C 387.636 148.829,334.026 92.587,230.847 82.848 C 225.260 82.320,194.973 81.882,189.492 82.249 M231.864 94.043 C 255.751 96.653,283.812 103.566,286.585 107.525 C 287.988 109.528,286.676 111.518,282.081 114.357 C 248.887 134.867,210.045 149.918,190.339 149.906 C 175.462 149.897,170.296 142.793,173.551 126.820 C 177.467 107.605,188.461 95.054,202.675 93.572 C 207.114 93.109,226.123 93.416,231.864 94.043 M152.878 100.437 C 154.640 101.329,153.295 103.765,146.281 112.381 C 127.604 135.323,111.813 162.006,102.551 186.271 C 96.664 201.696,92.869 202.580,81.005 191.290 C 47.981 159.863,65.284 127.293,126.441 105.762 C 136.502 102.220,140.893 100.939,145.424 100.226 C 147.459 99.905,152.086 100.036,152.878 100.437 M318.505 122.326 C 335.723 130.771,346.261 150.975,342.045 167.458 C 336.854 187.748,308.933 207.122,271.220 216.601 C 253.959 220.940,253.590 220.617,262.435 208.902 C 275.683 191.353,292.860 161.980,303.422 138.814 C 311.968 120.069,312.567 119.414,318.505 122.326 M223.586 171.011 C 236.824 173.544,240.011 185.849,231.863 202.969 C 225.914 215.470,217.642 223.403,208.983 224.914 C 193.241 227.661,150.164 222.452,127.458 215.057 C 119.208 212.370,119.042 211.598,125.593 206.372 C 147.231 189.112,181.514 174.900,211.186 170.890 C 214.751 170.408,220.740 170.467,223.586 171.011 M0.000 288.644 L 0.000 317.966 8.305 317.966 L 16.610 317.966 16.610 306.441 L 16.610 294.915 27.797 294.915 L 38.983 294.915 38.983 306.441 L 38.983 317.966 47.798 317.966 L 56.614 317.966 56.527 288.729 L 56.441 259.492 47.542 259.401 L 38.644 259.311 38.644 269.825 L 38.644 280.339 27.627 280.339 L 16.610 280.339 16.610 269.831 L 16.610 259.322 8.305 259.322 L 0.000 259.322 0.000 288.644 M58.983 259.489 C 58.983 259.586,64.322 267.672,70.847 277.458 L 82.712 295.249 82.712 306.608 L 82.712 317.966 91.525 317.966 L 100.339 317.966 100.339 306.348 L 100.339 294.730 112.558 277.111 L 124.777 259.492 115.711 259.401 C 108.740 259.332,106.551 259.410,106.237 259.740 C 106.012 259.976,102.757 264.517,99.004 269.831 C 95.250 275.144,92.030 279.492,91.848 279.492 C 91.666 279.492,88.569 274.992,84.967 269.492 L 78.418 259.492 68.700 259.402 C 63.356 259.352,58.983 259.391,58.983 259.489 M125.989 259.548 C 125.864 259.672,125.763 272.867,125.763 288.870 L 125.763 317.966 150.108 317.966 C 178.595 317.966,178.626 317.962,181.164 314.184 C 183.270 311.050,183.196 312.071,183.312 284.492 L 183.418 259.322 174.421 259.322 L 165.424 259.322 165.424 280.490 L 165.424 301.657 164.606 302.608 L 163.788 303.559 153.589 303.663 L 143.390 303.766 143.390 281.544 L 143.390 259.322 134.802 259.322 C 130.079 259.322,126.113 259.424,125.989 259.548 M190.508 288.627 L 190.508 317.966 199.153 317.966 L 207.797 317.966 207.797 295.748 L 207.797 273.531 217.957 273.630 C 228.015 273.728,228.125 273.737,228.889 274.501 L 229.661 275.273 229.753 296.619 L 229.845 317.966 238.834 317.966 L 247.822 317.966 247.718 293.475 C 247.603 266.544,247.664 267.347,245.494 264.116 C 242.442 259.572,242.127 259.525,214.153 259.396 L 190.508 259.288 190.508 288.627 M255.480 259.548 C 255.356 259.672,255.254 272.867,255.254 288.870 L 255.254 317.966 279.261 317.966 C 308.564 317.966,307.995 318.067,310.847 312.381 L 312.034 310.016 312.034 289.330 C 312.034 257.051,314.635 259.340,277.938 259.329 C 265.710 259.325,255.605 259.424,255.480 259.548 M330.847 259.701 C 326.749 260.361,323.219 262.784,321.519 266.102 C 319.877 269.308,319.882 269.229,319.749 294.322 L 319.623 317.966 328.117 317.966 L 336.610 317.966 336.610 311.525 L 336.610 305.085 347.797 305.085 L 358.983 305.085 358.983 311.525 L 358.983 317.966 367.458 317.966 L 375.932 317.966 375.932 288.644 L 375.932 259.322 354.322 259.362 C 342.436 259.383,331.873 259.536,330.847 259.701 M383.729 288.644 L 383.729 317.966 391.864 317.966 L 400.000 317.966 400.000 288.644 L 400.000 259.322 391.864 259.322 L 383.729 259.322 383.729 288.644 M292.571 274.182 C 294.625 275.242,294.735 275.837,294.862 286.610 C 295.009 299.010,294.842 301.048,293.556 302.488 L 292.599 303.559 282.571 303.663 L 272.542 303.766 272.542 288.644 L 272.542 273.521 282.119 273.625 C 289.269 273.703,291.917 273.844,292.571 274.182 M358.983 282.203 L 358.983 290.508 347.772 290.508 L 336.560 290.508 336.670 283.628 C 336.832 273.441,336.182 273.930,349.576 273.912 L 358.983 273.898 358.983 282.203 " stroke="none" fill="#003082" fill-rule="evenodd"></path></g></svg>