<svg id="svg" version="1.1" xmlns="http://www.w3.org/2000/svg"  width="400" height="400" viewBox="0, 0, 400,400"><g id="svgg"><path id="path0" d="M301.305 322.978 C 291.958 324.444,285.189 330.391,283.363 338.741 C 282.748 341.552,282.907 356.955,283.577 359.491 C 284.807 364.147,287.398 367.883,291.218 370.512 L 292.197 371.185 326.763 371.185 L 361.328 371.185 363.180 369.721 C 366.823 366.840,368.941 363.372,369.949 358.635 C 370.429 356.379,370.422 341.005,369.939 338.674 C 368.218 330.357,361.390 324.390,351.969 322.970 C 348.861 322.501,304.299 322.509,301.305 322.978 M30.226 324.120 L 29.722 324.473 29.722 347.594 C 29.722 370.222,29.731 370.721,30.161 370.951 C 30.828 371.308,54.049 371.272,54.407 370.913 C 54.604 370.716,54.680 369.099,54.681 365.071 C 54.682 358.028,54.996 356.869,57.205 355.742 C 58.423 355.120,83.025 355.055,84.243 355.670 C 86.718 356.921,86.897 357.522,86.897 364.581 C 86.897 369.634,86.948 370.523,87.254 370.829 C 87.795 371.370,111.184 371.370,111.725 370.829 C 112.045 370.510,112.082 368.079,112.082 347.473 L 112.082 324.473 111.577 324.120 C 110.897 323.643,88.513 323.587,87.578 324.060 L 87.011 324.346 86.897 329.672 C 86.776 335.374,86.666 335.927,85.451 336.973 C 83.993 338.228,84.658 338.174,70.902 338.174 L 58.196 338.174 57.245 337.665 C 55.005 336.468,54.680 335.390,54.680 329.172 L 54.680 324.209 54.098 323.988 C 53.019 323.578,30.825 323.700,30.226 324.120 M133.863 323.920 C 132.939 324.261,132.955 323.848,132.955 347.519 C 132.955 369.975,132.961 370.284,133.409 370.732 C 133.931 371.254,156.750 371.460,157.701 370.951 C 158.193 370.687,158.405 324.991,157.918 324.220 C 157.701 323.877,134.755 323.590,133.863 323.920 M180.147 323.969 L 179.580 324.127 179.522 347.373 C 179.467 369.025,179.489 370.638,179.849 370.902 C 180.494 371.377,203.816 371.307,204.295 370.829 C 204.608 370.516,204.651 369.287,204.651 360.763 C 204.651 349.673,204.515 350.419,206.739 349.311 C 209.748 347.811,211.623 348.598,225.525 357.195 C 236.204 363.800,239.089 366.298,239.352 369.166 C 239.445 370.184,239.618 370.836,239.829 370.970 C 240.470 371.375,263.781 371.241,264.193 370.829 C 264.707 370.315,264.740 325.022,264.227 324.320 C 263.816 323.758,241.112 323.511,240.045 324.057 L 239.478 324.347 239.418 332.087 L 239.359 339.826 238.590 340.191 C 236.502 341.182,234.486 340.539,228.588 337.002 C 226.716 335.880,223.398 333.960,221.214 332.736 C 219.030 331.512,216.222 329.924,214.974 329.207 C 210.621 326.708,206.310 324.637,204.311 324.085 C 203.091 323.748,181.317 323.644,180.147 323.969 M340.407 336.213 C 345.025 338.075,346.458 341.008,346.449 348.578 C 346.442 355.104,346.004 356.645,343.475 359.058 C 340.597 361.803,339.776 361.933,325.922 361.836 C 312.357 361.741,311.280 361.482,308.682 357.676 C 305.550 353.088,306.048 342.320,309.566 338.559 C 312.270 335.668,312.816 335.577,327.170 335.632 L 339.081 335.678 340.407 336.213 " stroke="none" fill="#343434" fill-rule="evenodd"></path><path id="path1" d="M230.516 28.848 C 223.966 29.527,218.491 33.205,218.491 36.926 C 218.491 39.797,221.051 42.526,224.841 43.697 C 266.139 56.452,288.326 67.421,308.087 84.851 C 310.724 87.177,317.889 96.120,320.511 100.359 C 326.886 110.665,327.918 120.533,323.215 126.201 C 318.115 132.349,310.565 135.120,296.200 136.118 C 286.995 136.758,282.919 137.082,281.661 137.277 C 280.902 137.394,274.828 137.643,268.161 137.831 C 250.837 138.319,241.158 138.588,231.310 138.857 C 226.568 138.987,217.584 139.240,211.344 139.420 C 190.844 140.012,186.662 140.036,166.988 139.678 C 156.319 139.483,137.226 139.168,124.560 138.978 C 106.895 138.712,100.765 138.547,98.242 138.268 C 83.425 136.634,74.331 131.169,72.828 122.998 C 71.669 116.698,74.799 107.276,80.561 99.716 C 81.131 98.968,81.958 97.882,82.398 97.305 C 90.212 87.050,102.720 76.324,116.279 68.249 C 126.617 62.092,140.521 55.755,155.191 50.514 C 159.519 48.967,168.243 45.962,171.753 44.808 C 179.912 42.125,180.877 34.565,173.499 31.131 C 169.288 29.171,165.759 29.001,153.942 30.187 C 75.984 38.015,7.308 91.806,0.576 150.312 C -3.552 186.181,19.051 225.359,59.331 252.151 C 61.327 253.479,63.165 254.702,63.415 254.868 C 83.206 268.089,118.759 281.317,141.804 284.032 C 143.988 284.289,148.020 284.823,150.766 285.219 C 163.835 287.100,176.143 285.570,179.097 281.697 C 182.444 277.310,180.063 272.901,173.206 270.788 C 136.134 259.365,114.774 248.886,94.838 232.343 C 86.473 225.402,77.997 214.070,75.454 206.430 C 73.671 201.072,73.375 194.158,74.809 191.378 C 76.927 187.274,80.747 183.675,84.238 182.493 C 94.313 179.082,101.235 178.313,129.892 177.422 C 134.010 177.294,139.166 177.090,141.350 176.968 C 143.534 176.847,149.251 176.646,154.056 176.522 C 158.860 176.397,173.971 175.976,187.635 175.586 C 212.265 174.882,212.633 174.879,230.403 175.134 C 266.462 175.652,275.141 175.836,279.410 176.176 C 281.781 176.364,288.111 176.620,293.477 176.744 C 305.321 177.018,308.688 177.406,313.299 179.031 C 333.220 186.050,331.040 204.696,307.557 228.140 C 290.344 245.324,270.461 255.901,229.055 269.900 C 223.507 271.775,222.624 272.372,221.446 275.034 C 220.219 277.807,220.732 279.666,223.335 281.884 C 227.671 285.579,232.923 286.160,245.978 284.390 C 248.181 284.091,251.101 283.742,252.467 283.613 C 264.697 282.460,287.063 276.474,302.645 270.184 C 346.795 252.361,378.924 222.750,394.552 185.479 C 405.205 160.074,400.042 127.155,381.527 102.439 C 352.806 64.097,312.475 40.546,259.558 31.215 C 248.009 29.179,236.429 28.235,230.516 28.848 M242.541 36.196 C 275.313 38.639,305.092 49.126,334.657 68.635 C 340.085 72.217,350.772 80.340,352.127 81.915 C 352.189 81.987,352.904 82.643,353.715 83.372 C 374.408 101.964,386.690 122.839,390.020 145.073 C 390.870 150.746,391.182 161.997,390.490 161.997 C 389.719 161.997,389.132 160.666,388.888 158.366 C 386.578 136.639,379.190 119.101,365.933 103.878 C 361.719 99.038,359.599 97.107,358.500 97.107 C 357.015 97.107,357.089 97.615,359.003 100.563 C 362.291 105.628,365.117 110.567,367.548 115.499 C 386.205 153.344,379.952 190.533,349.504 222.802 C 330.660 242.775,303.083 259.698,273.965 269.160 C 265.566 271.889,250.126 275.625,243.902 276.434 C 235.956 277.466,236.694 277.115,252.638 272.271 C 257.127 270.908,260.311 269.840,263.642 268.581 C 264.952 268.086,267.300 267.241,268.860 266.703 C 317.794 249.838,353.515 218.515,364.236 183.070 C 368.740 168.179,362.867 160.085,346.115 158.096 C 341.484 157.546,250.550 157.694,214.407 158.311 C 161.387 159.215,157.345 159.266,118.888 159.516 C 87.336 159.722,80.519 159.821,78.729 160.100 C 77.274 160.327,73.332 160.503,66.591 160.642 C 49.040 161.003,44.187 162.166,38.858 167.283 C 34.766 171.213,34.052 174.334,35.295 182.864 C 37.999 201.412,56.217 225.819,79.532 242.131 C 100.336 256.686,122.506 266.154,160.522 276.719 C 163.465 277.537,163.254 277.423,162.786 277.940 C 162.235 278.549,161.877 278.524,156.182 277.474 C 114.171 269.725,77.537 252.201,53.757 228.478 C 27.415 202.198,17.026 171.459,23.933 140.233 C 26.600 128.173,34.419 110.943,40.825 103.006 C 42.078 101.454,40.926 100.338,39.073 101.308 C 36.841 102.477,30.913 108.995,28.243 113.216 C 18.185 129.122,10.213 152.115,10.210 165.230 C 10.210 166.753,9.224 166.872,8.985 165.378 C 7.616 156.815,10.154 140.562,14.634 129.212 C 32.831 83.106,95.470 42.206,155.530 37.213 C 162.732 36.615,162.685 36.995,155.293 39.150 C 152.179 40.057,148.746 41.061,147.664 41.381 C 140.574 43.474,126.814 48.324,119.917 51.160 C 106.147 56.824,91.220 64.942,80.145 72.789 C 56.910 89.254,40.371 111.226,34.692 133.173 C 31.865 144.098,38.802 150.860,54.820 152.793 C 65.671 154.103,114.021 154.298,207.601 153.409 C 284.496 152.678,290.558 152.568,316.393 151.438 C 329.634 150.858,341.477 149.908,349.064 148.817 C 355.332 147.915,361.787 143.806,363.992 139.315 C 366.303 134.609,363.809 123.794,358.083 113.687 C 354.529 107.414,350.788 101.642,348.148 98.355 C 324.672 69.126,292.690 51.050,242.144 38.442 C 236.997 37.158,235.961 36.833,235.961 36.503 C 235.961 36.125,236.372 35.951,237.436 35.879 C 237.686 35.862,239.983 36.005,242.541 36.196 M337.535 133.425 C 337.886 133.558,338.735 134.034,339.421 134.482 C 345.322 138.337,345.368 138.378,344.733 139.229 C 343.452 140.944,339.854 141.707,326.716 143.049 C 299.803 145.797,302.307 145.609,289.053 145.879 C 282.377 146.016,270.329 146.274,262.280 146.454 C 237.717 147.004,224.679 147.229,209.983 147.359 C 202.246 147.427,185.451 147.600,172.660 147.743 C 114.272 148.397,93.176 147.996,68.520 145.761 C 56.697 144.690,52.620 142.990,55.871 140.488 C 60.554 136.884,63.293 136.070,66.102 137.450 C 76.313 142.463,83.399 143.250,136.358 145.256 C 146.554 145.642,246.976 144.766,258.763 144.188 C 262.507 144.004,268.174 143.747,271.356 143.617 C 295.227 142.641,309.413 141.109,321.838 138.166 C 326.988 136.946,330.008 135.970,331.401 135.076 C 334.019 133.396,336.032 132.854,337.535 133.425 " stroke="none" fill="#ec343c" fill-rule="evenodd"></path></g></svg>