<?xml version="1.0" encoding="UTF-8" standalone="no"?>
<svg
   xmlns="http://www.w3.org/2000/svg"
   viewBox="0, 0, 400,400"
   height="400"
   width="400"
   version="1.1"
   id="svg">
  <g
     id="svgg">
    <path
       style="fill-rule:evenodd;stroke:none"
       d="m 230.516,71.505892 c -6.55,0.679 -12.025,4.357 -12.025,8.078 0,2.871 2.56,5.6 6.35,6.771 41.298,12.755 63.485,23.723998 83.246,41.153998 2.637,2.326 9.802,11.269 12.424,15.508 6.375,10.306 7.407,20.174 2.704,25.842 -5.1,6.148 -12.65,8.919 -27.015,9.917 -9.205,0.64 -13.281,0.964 -14.539,1.159 -0.759,0.117 -6.833,0.366 -13.5,0.554 -17.324,0.488 -27.003,0.757 -36.851,1.026 -4.742,0.13 -13.726,0.383 -19.966,0.563 -20.5,0.592 -24.682,0.616 -44.356,0.258 -10.669,-0.195 -29.762,-0.51 -42.428,-0.7 -17.665,-0.266 -23.795,-0.431 -26.318,-0.71 -14.817,-1.634 -23.911,-7.099 -25.414,-15.27 -1.159,-6.3 1.971,-15.722 7.733,-23.282 0.57,-0.748 1.397,-1.834 1.837,-2.411 7.814,-10.255 20.322,-20.981 33.881,-29.056 10.338,-6.157 24.242,-12.493998 38.912,-17.734998 4.328,-1.547 13.052,-4.552 16.562,-5.706 8.159,-2.683 9.124,-10.243 1.746,-13.677 -4.211,-1.96 -7.74,-2.13 -19.557,-0.944 -77.958,7.828 -146.634,61.618998 -153.366,120.124998 -4.128,35.869 18.475,75.047 58.755,101.839 1.996,1.328 3.834,2.551 4.084,2.717 19.791,13.221 55.344,26.449 78.389,29.164 2.184,0.257 6.216,0.791 8.962,1.187 13.069,1.881 25.377,0.351 28.331,-3.522 3.347,-4.387 0.966,-8.796 -5.891,-10.909 -37.072,-11.423 -58.432,-21.902 -78.368,-38.445 -8.365,-6.941 -16.841,-18.273 -19.384,-25.913 -1.783,-5.358 -2.079,-12.272 -0.645,-15.052 2.118,-4.104 5.938,-7.703 9.429,-8.885 10.075,-3.411 16.997,-4.18 45.654,-5.071 4.118,-0.128 9.274,-0.332 11.458,-0.454 2.184,-0.121 7.901,-0.322 12.706,-0.446 4.804,-0.125 19.915,-0.546 33.579,-0.936 24.63,-0.704 24.998,-0.707 42.768,-0.452 36.059,0.518 44.738,0.702 49.007,1.042 2.371,0.188 8.701,0.444 14.067,0.568 11.844,0.274 15.211,0.662 19.822,2.287 19.921,7.019 17.741,25.665 -5.742,49.109 -17.213,17.184 -37.096,27.761 -78.502,41.76 -5.548,1.875 -6.431,2.472 -7.609,5.134 -1.227,2.773 -0.714,4.632 1.889,6.85 4.336,3.695 9.588,4.276 22.643,2.506 2.203,-0.299 5.123,-0.648 6.489,-0.777 12.23,-1.153 34.596,-7.139 50.178,-13.429 44.15,-17.823 76.279,-47.434 91.907,-84.705 10.653,-25.405 5.49,-58.324 -13.025,-83.04 -28.721,-38.342 -69.052,-61.892998 -121.969,-71.223998 -11.549,-2.036 -23.129,-2.98 -29.042,-2.367"
       id="path1" />
  </g>
</svg>
