<svg id="svg" xmlns="http://www.w3.org/2000/svg"  width="400" height="400" viewBox="0, 0, 400,400"><g id="svgg"><path id="path0" d="M39.662 184.527 L 36.422 188.131 41.423 203.016 L 46.424 217.901 60.249 217.901 C 67.853 217.901,74.074 217.693,74.074 217.438 C 74.073 217.184,73.547 215.586,72.905 213.889 C 71.577 210.381,72.212 210.595,62.407 210.356 L 55.370 210.185 54.625 208.025 C 52.727 202.519,52.057 203.086,60.452 203.086 C 64.813 203.086,67.901 202.840,67.901 202.492 C 67.901 202.166,67.326 200.360,66.622 198.480 L 65.343 195.062 57.769 195.062 L 50.195 195.062 49.440 192.747 C 49.025 191.474,48.541 190.085,48.365 189.660 C 48.119 189.066,49.898 188.889,56.103 188.889 L 64.161 188.889 62.786 185.031 L 61.412 181.173 52.156 181.048 L 42.901 180.922 39.662 184.527 M377.971 188.918 C 369.191 191.610,373.533 201.972,385.354 206.540 C 389.826 208.268,391.082 209.330,390.488 210.879 C 389.981 212.200,385.522 211.745,381.327 209.944 C 379.715 209.252,378.395 208.860,378.395 209.073 C 378.395 212.428,380.650 216.071,383.285 216.974 C 401.560 223.236,407.122 209.406,389.774 200.840 C 379.829 195.930,380.756 192.381,390.895 196.551 C 392.847 197.353,394.444 197.857,394.444 197.671 C 394.444 194.336,392.173 190.701,389.552 189.841 C 385.783 188.605,380.395 188.175,377.971 188.918 M69.125 189.352 C 69.118 189.606,71.254 196.134,73.870 203.858 L 78.628 217.901 89.689 217.901 L 100.751 217.901 100.334 216.238 C 100.104 215.323,99.533 213.656,99.064 212.534 L 98.211 210.494 91.743 210.494 L 85.275 210.494 81.694 199.691 L 78.113 188.889 73.624 188.889 C 71.156 188.889,69.131 189.097,69.125 189.352 M94.747 189.942 C 94.997 190.551,97.207 197.022,99.658 204.321 L 104.115 217.593 108.808 217.772 L 113.501 217.952 108.705 203.575 L 103.910 189.198 99.101 189.016 C 94.681 188.849,94.328 188.924,94.747 189.942 M107.763 190.278 C 108.004 191.042,108.536 192.639,108.945 193.827 L 109.689 195.988 114.955 196.165 L 120.222 196.342 121.812 200.795 C 122.686 203.243,124.351 208.025,125.510 211.420 L 127.618 217.593 132.019 217.774 C 137.377 217.995,137.296 218.897,133.025 206.509 C 131.157 201.095,129.630 196.581,129.630 196.480 C 129.630 196.379,131.973 196.296,134.836 196.296 L 140.043 196.296 138.792 192.593 L 137.541 188.889 122.433 188.889 L 107.324 188.889 107.763 190.278 M141.053 189.969 C 141.298 190.563,143.504 197.022,145.956 204.321 L 150.414 217.593 161.621 217.761 L 172.828 217.929 171.735 214.983 L 170.643 212.037 164.117 211.863 L 157.591 211.688 156.882 209.322 C 156.492 208.020,156.173 206.779,156.173 206.564 C 156.173 206.349,158.673 206.173,161.728 206.173 C 167.782 206.173,167.718 206.223,166.569 202.386 L 165.854 200.000 159.878 200.000 C 154.073 200.000,153.881 199.955,153.186 198.428 C 151.722 195.215,151.968 195.062,158.585 195.062 L 164.701 195.062 163.714 191.975 L 162.727 188.889 151.668 188.889 C 141.377 188.889,140.640 188.964,141.053 189.969 M177.863 192.559 L 179.110 196.250 184.410 196.427 L 189.709 196.605 192.376 204.630 C 193.843 209.043,195.487 213.835,196.030 215.278 L 197.016 217.901 201.549 217.901 L 206.083 217.901 202.469 207.099 L 198.856 196.296 204.099 196.296 C 209.981 196.296,209.602 196.813,207.720 191.358 L 206.975 189.198 191.796 189.033 L 176.617 188.867 177.863 192.559 M210.684 190.586 C 210.874 191.520,213.024 198.048,215.462 205.093 L 219.894 217.901 224.453 217.901 C 226.961 217.901,229.012 217.794,229.012 217.663 C 229.012 217.532,228.180 215.102,227.164 212.262 C 224.975 206.151,225.066 206.790,226.389 206.792 C 228.384 206.797,231.323 209.129,234.879 213.531 L 238.411 217.901 247.254 217.901 L 256.097 217.901 256.514 215.123 L 256.930 212.346 262.928 212.346 L 268.927 212.346 270.921 215.123 L 272.916 217.901 277.529 217.901 C 283.138 217.901,283.894 219.571,270.539 202.469 L 260.174 189.198 255.141 189.019 L 250.109 188.841 249.763 190.562 C 249.573 191.509,248.986 197.006,248.458 202.778 C 247.099 217.635,247.509 216.885,243.472 211.911 C 241.601 209.604,239.278 207.154,238.311 206.467 C 236.561 205.223,236.558 205.210,237.721 203.775 C 240.825 199.941,237.394 193.136,230.864 190.175 C 228.487 189.098,226.807 188.914,219.213 188.902 L 210.340 188.889 210.684 190.586 M275.309 189.737 C 275.309 190.233,277.392 196.685,279.938 204.074 C 282.485 211.462,284.568 217.596,284.568 217.705 C 284.568 217.813,286.651 217.901,289.198 217.901 C 291.744 217.901,293.815 217.832,293.800 217.747 C 293.785 217.662,291.602 211.204,288.948 203.395 L 284.122 189.198 279.715 189.016 C 276.178 188.871,275.309 189.013,275.309 189.737 M290.111 189.352 C 290.105 189.606,292.258 196.134,294.895 203.857 L 299.691 217.899 310.715 217.900 L 321.739 217.901 321.321 216.238 C 321.092 215.323,320.520 213.656,320.051 212.534 L 319.199 210.494 312.731 210.494 L 306.263 210.494 302.682 199.691 L 299.100 188.889 294.612 188.889 C 292.143 188.889,290.118 189.097,290.111 189.352 M315.745 189.969 C 315.989 190.563,318.196 197.022,320.647 204.321 L 325.105 217.593 336.312 217.761 L 347.519 217.929 346.427 214.983 L 345.334 212.037 338.808 211.863 L 332.282 211.688 331.573 209.322 C 331.183 208.020,330.864 206.779,330.864 206.564 C 330.864 206.349,333.364 206.173,336.420 206.173 C 342.474 206.173,342.410 206.223,341.260 202.386 L 340.545 200.000 334.531 200.000 L 328.516 200.000 327.838 198.056 C 327.465 196.987,327.160 195.876,327.160 195.587 C 327.160 195.298,329.913 195.062,333.277 195.062 L 339.393 195.062 338.406 191.975 L 337.419 188.889 326.359 188.889 C 316.069 188.889,315.331 188.964,315.745 189.969 M342.130 189.660 C 342.287 190.085,344.465 196.613,346.969 204.167 L 351.522 217.901 356.008 217.901 C 358.475 217.901,360.494 217.672,360.494 217.392 C 360.494 217.112,359.799 214.841,358.951 212.346 C 357.131 206.996,357.110 206.790,358.392 206.790 C 360.305 206.790,362.853 208.870,366.437 213.356 L 370.062 217.892 374.882 217.897 C 378.571 217.900,379.595 217.720,379.246 217.130 C 378.170 215.311,371.401 207.311,370.120 206.345 C 368.721 205.290,368.720 205.284,369.888 203.304 C 372.132 199.502,368.398 192.657,362.654 190.041 C 359.557 188.630,341.624 188.298,342.130 189.660 M27.512 197.488 L 22.662 202.366 25.719 209.979 L 28.775 217.593 35.125 217.769 C 40.106 217.908,41.408 217.774,41.160 217.152 C 40.986 216.715,39.119 211.219,37.011 204.938 C 34.904 198.657,32.995 193.314,32.771 193.064 C 32.546 192.814,30.180 194.804,27.512 197.488 M227.231 195.717 C 230.691 197.569,229.764 201.235,225.835 201.235 C 223.319 201.235,222.896 200.740,221.852 196.578 C 221.424 194.874,224.682 194.353,227.231 195.717 M359.485 196.341 C 362.577 198.773,361.410 201.235,357.166 201.235 C 355.319 201.235,355.102 201.010,354.187 198.148 L 353.200 195.062 355.529 195.062 C 356.951 195.062,358.492 195.560,359.485 196.341 M261.062 201.842 C 264.902 207.123,264.930 206.790,260.648 206.792 L 257.099 206.793 257.302 202.162 C 257.547 196.568,257.244 196.594,261.062 201.842 M14.019 211.838 C 11.108 214.993,8.826 217.674,8.948 217.796 C 9.119 217.967,22.064 218.082,24.203 217.932 C 24.643 217.901,20.567 207.530,19.750 206.600 C 19.509 206.326,16.930 208.683,14.019 211.838 " stroke="none" fill="#6C6C6C" fill-rule="evenodd"></path></g></svg>