<?xml version="1.0" encoding="UTF-8" standalone="no"?>
<svg
   xmlns="http://www.w3.org/2000/svg"
   version="1.1"
   viewBox="0, 0, 400,400"
   height="400"
   width="400"
   id="svg">
  <g
     id="svgg">
    <path
       style="fill-rule:evenodd;stroke:none;stroke-width:6.0603447"
       d="m 188.80859,108.95213 -19.63552,21.84149 30.30778,90.20823 30.30779,90.20823 h 83.78427 c 46.08286,0 83.78426,-1.26055 83.78426,-2.80594 -0.006,-1.53932 -3.1938,-11.22375 -7.08454,-21.50816 -8.04814,-21.25969 -4.19982,-19.96278 -63.6215,-21.4112 l -42.64665,-1.03632 -4.51495,-13.09034 c -11.50254,-33.36826 -15.56297,-29.93205 35.31363,-29.93205 26.42916,0 45.14351,-1.49084 45.14351,-3.59984 0,-1.97567 -3.4847,-12.92066 -7.75119,-24.3141 L 344.4443,172.79787 H 298.54325 252.6422 l -4.57556,-14.0297 c -2.51505,-7.71482 -5.44825,-16.13264 -6.51487,-18.70829 -1.49085,-3.59984 9.29051,-4.67252 46.89495,-4.67252 h 48.83426 L 328.948,112.00655 320.62109,88.625736 264.52653,87.868193 208.43804,87.10459 188.80859,108.95213 m -73.6332,78.54813 -29.392668,29.56237 18.526478,46.1374 18.52041,46.14347 38.48319,1.06662 c 30.18658,0.84239 38.07715,0.0303 36.57418,-3.73923 -1.0545,-2.64837 -12.36916,-35.95603 -25.14437,-74.02106 -12.76915,-38.06502 -24.33834,-70.44545 -25.69586,-71.96053 -1.36358,-1.51509 -15.70235,10.545 -31.87136,26.81096 M 33.403161,274.46621 C 15.761497,293.5866 1.9317898,309.83439 2.6711519,310.57375 c 1.036319,1.03632 79.4874841,1.73326 92.4505621,0.82421 2.666551,-0.18788 -22.035415,-63.03971 -26.986716,-68.67583 -1.460543,-1.66054 -17.090173,12.62369 -34.731837,31.74408"
       id="path0" />
  </g>
</svg>
