<svg id="svg" xmlns="http://www.w3.org/2000/svg"  width="400" height="400" viewBox="0, 0, 400,400"><g id="svgg"><path id="path0" d="M203.443 126.796 L 203.443 180.028 206.001 182.502 C 207.408 183.863,223.815 200.434,242.462 219.327 L 276.364 253.678 240.060 253.443 L 203.756 253.208 203.594 289.984 L 203.433 326.761 223.156 326.761 L 242.879 326.761 242.879 324.075 C 242.879 316.873,246.918 307.768,252.658 302.028 C 272.413 282.273,305.928 294.538,308.936 322.624 L 309.379 326.761 329.594 326.761 L 349.809 326.761 374.748 300.415 C 388.464 285.924,399.764 273.862,399.858 273.610 C 399.988 273.261,306.319 177.852,207.142 77.315 L 203.443 73.565 203.443 126.796 M12.648 253.422 C 2.058 257.185,-2.179 268.534,2.957 279.377 C 5.018 283.730,8.373 287.444,19.468 297.656 C 27.715 305.247,29.312 313.502,22.846 315.125 C 18.600 316.190,16.275 312.673,16.275 305.184 L 16.275 300.469 8.138 300.469 L 0.000 300.469 0.000 306.317 C 0.000 321.800,5.157 326.745,21.317 326.755 C 36.906 326.764,43.174 320.941,42.448 307.125 C 42.002 298.626,39.322 294.743,23.994 280.391 C 16.258 273.148,14.572 268.530,18.584 265.571 C 22.849 262.425,26.917 267.101,26.917 275.148 L 26.917 277.308 34.834 277.308 L 42.750 277.308 42.399 271.416 C 41.851 262.224,39.296 257.632,32.864 254.274 C 28.594 252.046,17.802 251.590,12.648 253.422 M159.681 253.262 C 151.623 256.180,147.698 261.580,147.620 269.857 C 147.539 278.531,150.441 283.276,162.515 294.210 C 173.960 304.574,176.595 311.626,170.172 314.706 C 165.915 316.747,163.332 313.648,162.895 305.974 L 162.581 300.469 154.449 300.469 L 146.318 300.469 146.603 307.199 C 147.242 322.262,152.108 326.761,167.762 326.761 C 181.796 326.761,187.050 323.132,189.103 312.024 C 190.795 302.873,187.944 297.343,174.917 284.507 C 162.497 272.269,161.490 270.491,164.678 266.438 C 168.287 261.849,173.396 266.189,173.396 273.845 L 173.396 277.308 181.293 277.308 L 189.191 277.308 188.927 271.205 C 188.528 262.003,185.666 257.009,179.030 253.938 C 175.216 252.173,163.791 251.774,159.681 253.262 M47.574 260.094 L 47.574 266.667 54.454 266.667 L 61.334 266.667 61.496 296.557 L 61.659 326.448 69.953 326.622 L 78.247 326.797 78.247 296.732 L 78.247 266.667 85.133 266.667 L 92.019 266.667 92.019 260.094 L 92.019 253.521 69.797 253.521 L 47.574 253.521 47.574 260.094 M99.899 289.047 C 96.143 308.584,92.941 325.063,92.784 325.665 C 92.523 326.668,93.210 326.761,100.955 326.761 C 110.602 326.761,109.704 327.380,110.490 320.188 C 111.180 313.882,110.784 314.241,117.030 314.241 L 122.551 314.241 123.348 320.501 L 124.146 326.761 132.496 326.761 C 139.203 326.761,140.845 326.590,140.845 325.891 C 140.845 325.108,128.169 258.313,127.379 254.930 C 127.054 253.540,126.912 253.521,116.889 253.522 L 106.729 253.523 99.899 289.047 M118.891 287.637 C 119.664 293.834,120.432 299.397,120.597 300.000 C 120.860 300.956,120.415 301.095,117.100 301.095 C 115.011 301.095,113.294 300.884,113.285 300.626 C 113.216 298.703,116.782 275.545,117.091 275.907 C 117.308 276.161,118.118 281.440,118.891 287.637 " stroke="none" fill="#182D56" fill-rule="evenodd"></path></g></svg>