<?xml version="1.0" encoding="UTF-8" standalone="no"?>
<svg
   xmlns="http://www.w3.org/2000/svg"
   version="1.1"
   viewBox="0, 0, 400,400"
   height="400"
   width="400"
   id="svg">
  <g
     id="svgg">
    <path
       style="fill-rule:evenodd;stroke:none"
       d="m 329.545,55.664 c -31.604,3.401 -73.919,21.199 -120.115,50.522 -8.962,5.688 -21.232,13.926 -26.8,17.993 -1.25,0.913 -2.806,1.985 -3.458,2.383 -1.777,1.085 -1.856,1.685 -0.224,1.685 1.149,0 2.172,-0.544 7.538,-4.007 3.415,-2.204 7.962,-5.075 10.105,-6.379 8.338,-5.075 9.478,-5.767 11.364,-6.89 1.071,-0.638 2.459,-1.45 3.084,-1.805 0.625,-0.355 2.086,-1.189 3.247,-1.855 1.16,-0.665 3.06,-1.726 4.22,-2.357 1.161,-0.631 3.499,-1.91 5.195,-2.843 17.411,-9.568 34.265,-17.422 52.598,-24.51 21.921,-8.476 44.943,-13.142 59.036,-11.966 36.605,3.054 32.341,37.986 -11.063,90.643 -3.755,4.555 -3.726,4.436 -1.08,4.436 h 2.088 l 2.052,-2.361 C 349.986,132.282 366.476,106.254 370.611,90.041 376.75,65.966 360.469,52.336 329.545,55.664 M 26.206,165.724 c -0.255,0.255 -1.359,4.017 -2.452,8.36 -1.094,4.343 -4.767,18.893 -8.163,32.334 -3.397,13.441 -6.175,24.508 -6.175,24.594 0,0.086 6.624,0.157 14.72,0.157 h 14.721 l 1.724,-6.737 c 0.948,-3.706 1.841,-7.057 1.984,-7.448 l 0.261,-0.711 16.006,-0.114 c 17.835,-0.127 17.568,-0.095 21.98,-2.603 8.665,-4.927 15.401,-18.93 14.874,-30.926 -0.386,-8.812 -5.014,-14.765 -13.103,-16.855 -2.86,-0.739 -55.642,-0.787 -56.377,-0.051 m 82.953,-0.059 c -0.329,0.396 -16.627,64.226 -16.627,65.116 0,0.305 3.331,0.375 14.677,0.31 l 14.677,-0.085 2.297,-9.253 2.297,-9.253 h 1.59 1.59 l 3.433,9.33 3.433,9.33 16.153,0.005 c 8.884,0.002 16.152,-0.051 16.152,-0.118 0,-0.066 -0.352,-0.76 -0.783,-1.542 -1.919,-3.483 -13.827,-26.373 -13.827,-26.579 0,-0.127 1.79,-0.319 3.977,-0.428 10.807,-0.54 16.74,-4.968 19.523,-14.572 3.31,-11.422 0.506,-18.319 -8.783,-21.605 l -2.542,-0.899 -28.441,-0.093 c -23.259,-0.076 -28.505,-0.014 -28.796,0.336 m 99.348,0.975 c -0.517,0.759 -3.059,4.886 -5.649,9.172 -2.59,4.285 -9.282,15.316 -14.872,24.513 -5.589,9.196 -11.837,19.496 -13.883,22.889 -2.047,3.393 -4.007,6.571 -4.356,7.062 l -0.635,0.893 h 15.363 l 15.363,-0.001 2.11,-3.814 2.11,-3.815 h 9.741 9.74 l 0.091,3.815 0.092,3.815 h 15.574 15.574 V 198.214 165.26 h -22.712 -22.711 l -0.94,1.38 m 60.857,-0.65 c -0.344,0.55 -5.227,19.022 -5.514,20.861 -0.033,0.207 2.966,0.356 8.309,0.411 4.598,0.048 8.36,0.162 8.36,0.255 0,0.093 -0.72,2.976 -1.6,6.407 -0.88,3.431 -3.299,12.959 -5.376,21.173 -2.077,8.215 -3.85,15.191 -3.941,15.504 -0.156,0.535 0.697,0.568 14.719,0.568 h 14.885 l 1.202,-4.789 c 0.662,-2.634 3.154,-12.46 5.539,-21.835 l 4.336,-17.045 8.727,-0.087 c 4.801,-0.047 8.847,-0.205 8.991,-0.349 0.145,-0.145 1.487,-5.11 2.982,-11.034 l 2.718,-10.77 H 301.76 269.82 l -0.456,0.73 m 66.536,-0.22 c -0.281,0.281 -0.512,0.609 -0.515,0.73 -0.002,0.122 -1.164,4.739 -2.582,10.261 -1.417,5.522 -2.502,10.16 -2.411,10.308 0.091,0.148 3.867,0.269 8.391,0.269 h 8.225 l -1.886,7.386 c -5.585,21.87 -9.083,35.767 -9.083,36.086 0,0.257 4.194,0.359 14.75,0.359 h 14.749 l 0.488,-1.705 c 0.5,-1.75 10.242,-40.087 10.518,-41.391 l 0.153,-0.725 8.944,-0.086 8.944,-0.087 2.505,-9.902 c 1.378,-5.447 2.608,-10.378 2.734,-10.958 l 0.228,-1.055 h -31.821 c -28.495,0 -31.874,0.053 -32.331,0.51 m -185.226,19.919 c 1.959,1.959 0.93,6.491 -1.77,7.798 -1.854,0.897 -17.41,1.05 -17.41,0.171 0,-0.273 0.45,-2.392 1,-4.708 l 1.001,-4.21 h 8.115 8.115 l 0.949,0.949 m 76.198,10.009 -0.086,9.984 -5.715,0.088 c -8.247,0.128 -8.07,1.299 -1.553,-10.239 5.289,-9.365 5.587,-9.817 6.491,-9.817 h 0.948 l -0.085,9.984 M 66.29,187.724 c 4.17,1.867 2.389,9.258 -2.564,10.633 -1.467,0.407 -16.323,0.469 -16.323,0.067 0,-0.298 1.672,-6.889 2.47,-9.733 l 0.485,-1.731 7.37,0.115 c 5.957,0.093 7.598,0.217 8.562,0.649 m -1.11,34.615 c -4.594,0.295 -34.282,33.378 -46.383,51.687 -36.712,55.547 -17.879,82.76 45.489,65.73 3.695,-0.993 20.136,-6.333 22.889,-7.434 1.072,-0.429 4.505,-1.799 7.63,-3.045 4.88,-1.945 8.744,-3.578 12.825,-5.418 0.536,-0.242 2.596,-1.171 4.578,-2.066 20.965,-9.463 48.598,-24.813 73.019,-40.562 12.793,-8.25 12.578,-8.059 8.685,-7.696 -2.944,0.274 -2.477,0.058 -8.685,4.003 -85.078,54.059 -162.718,73.348 -172.319,42.811 -5.864,-18.648 15.262,-57.182 52.317,-95.426 2.316,-2.39 2.31,-2.735 -0.045,-2.584"
       id="path0" />
  </g>
</svg>
