<svg id="svg" xmlns="http://www.w3.org/2000/svg"  width="400" height="400" viewBox="0, 0, 400,400"><g id="svgg"><path id="path0" d="M151.852 167.008 C 151.724 167.342,151.012 167.974,150.271 168.411 C 142.013 173.283,152.044 181.252,162.579 178.189 C 167.484 176.763,168.686 170.864,164.567 168.434 C 163.805 167.984,163.076 167.342,162.948 167.008 C 162.755 166.506,161.785 166.400,157.400 166.400 C 153.015 166.400,152.045 166.506,151.852 167.008 M275.800 167.263 C 275.360 167.693,274.134 168.754,273.076 169.622 L 271.151 171.200 264.076 171.206 C 254.790 171.214,255.777 170.456,249.231 182.600 C 243.123 193.932,242.240 195.243,241.164 194.578 C 240.960 194.452,240.800 189.647,240.800 183.653 C 240.800 175.051,240.689 172.801,240.233 172.176 C 239.568 171.266,227.193 170.766,225.092 171.565 L 224.000 171.980 224.000 201.110 C 224.000 223.233,224.115 230.355,224.480 230.720 C 225.069 231.309,239.080 231.389,240.000 230.809 C 240.499 230.494,240.634 228.689,240.800 220.035 C 241.079 205.522,240.916 205.536,248.719 219.362 C 251.865 224.937,254.847 229.880,255.345 230.349 C 256.571 231.500,288.236 231.707,289.371 230.571 C 290.216 229.727,290.341 182.740,289.500 182.144 C 289.225 181.949,285.580 181.802,281.400 181.818 L 273.800 181.846 273.600 203.903 C 273.364 229.912,273.415 229.683,269.367 223.076 C 268.533 221.714,266.926 219.160,265.797 217.400 C 255.887 201.960,255.622 201.466,256.428 199.928 C 257.062 198.718,268.211 181.126,269.792 178.841 C 271.626 176.190,271.918 176.105,274.625 177.430 C 284.063 182.047,296.816 175.066,289.647 169.207 C 288.851 168.557,287.821 167.659,287.358 167.212 C 286.118 166.016,277.036 166.056,275.800 167.263 M369.400 170.242 C 363.524 171.694,356.924 175.755,354.137 179.634 C 352.776 181.529,351.599 182.294,350.804 181.802 C 350.570 181.658,350.400 179.626,350.400 176.986 C 350.400 170.927,350.644 171.098,342.211 171.271 C 337.198 171.375,335.895 171.518,335.591 172.000 C 335.370 172.350,335.210 178.961,335.206 187.850 C 335.198 208.795,334.722 209.896,330.381 199.025 C 329.684 197.279,328.966 195.569,328.785 195.225 C 328.346 194.387,327.394 192.238,323.992 184.400 C 319.180 173.313,318.514 172.024,317.377 171.591 C 315.169 170.752,296.097 171.103,295.200 172.000 C 294.002 173.198,293.936 229.456,295.131 230.538 C 296.166 231.475,308.428 231.530,309.198 230.602 C 309.573 230.150,309.722 225.639,309.805 212.164 C 309.913 194.855,310.041 193.083,311.135 193.760 C 311.494 193.982,317.398 205.730,326.281 223.900 C 330.134 231.780,329.047 231.201,339.989 231.194 C 350.962 231.186,350.150 231.613,350.400 225.720 C 350.630 220.312,351.123 219.646,353.108 222.069 C 357.075 226.910,361.585 230.182,365.731 231.225 C 366.793 231.492,367.872 232.046,368.127 232.455 C 368.551 233.134,369.194 233.200,375.400 233.200 C 381.606 233.200,382.249 233.134,382.673 232.455 C 382.928 232.046,384.007 231.492,385.069 231.225 C 389.464 230.119,394.633 226.342,397.347 222.253 C 398.136 221.065,399.055 219.988,399.391 219.859 C 399.912 219.659,400.000 218.281,400.000 210.267 L 400.000 200.909 398.144 200.654 C 397.123 200.514,393.605 200.400,390.326 200.400 C 381.998 200.400,382.350 199.989,382.429 209.617 C 382.502 218.602,382.117 219.191,376.173 219.198 C 369.391 219.205,365.419 215.080,364.171 206.736 C 363.579 202.776,363.626 201.237,364.474 196.800 C 366.875 184.232,382.718 181.026,393.765 190.872 C 397.104 193.848,397.200 193.707,397.200 185.800 C 397.200 177.037,396.739 176.134,390.600 172.875 C 386.295 170.589,374.116 169.077,369.400 170.242 M0.000 179.400 L 0.000 187.600 7.400 187.600 C 17.597 187.600,16.425 184.726,16.389 209.644 C 16.367 224.721,16.482 230.217,16.829 230.635 C 17.456 231.390,31.572 231.468,32.320 230.720 C 32.681 230.359,32.800 225.166,32.800 209.809 C 32.800 184.930,31.929 187.600,40.049 187.600 C 48.592 187.600,47.599 184.825,47.606 208.714 C 47.610 224.257,47.730 229.234,48.117 230.000 L 48.623 231.000 55.623 231.109 C 65.043 231.255,64.152 232.315,64.400 220.665 C 64.510 215.495,64.727 211.138,64.883 210.983 C 65.461 210.407,66.320 211.195,67.592 213.465 C 71.787 220.952,77.016 229.523,77.863 230.300 C 78.937 231.285,105.029 231.748,106.775 230.813 C 107.429 230.463,108.488 227.579,109.955 222.154 C 110.199 221.249,110.773 220.034,111.229 219.454 L 112.058 218.400 120.959 218.400 C 132.070 218.400,130.815 217.510,133.479 227.278 C 134.620 231.464,133.513 231.200,149.939 231.200 C 160.756 231.200,164.413 231.078,164.928 230.700 C 165.558 230.237,165.601 228.397,165.504 206.018 L 165.400 181.836 157.461 181.818 C 150.415 181.802,149.481 181.876,149.161 182.474 C 148.962 182.844,148.800 189.257,148.800 196.725 C 148.800 207.720,148.696 210.388,148.253 210.756 C 147.556 211.335,146.849 210.554,146.404 208.711 C 146.104 207.471,142.861 196.435,141.140 190.800 C 140.704 189.370,140.020 187.120,139.620 185.800 C 139.221 184.480,138.402 181.780,137.799 179.800 C 137.197 177.820,136.522 175.480,136.300 174.600 C 135.467 171.304,135.942 171.415,122.113 171.283 C 108.353 171.152,107.897 171.221,107.192 173.541 C 106.948 174.344,106.514 175.630,106.227 176.400 C 105.707 177.795,105.100 179.750,102.003 190.000 C 101.105 192.970,100.030 196.480,99.614 197.800 C 96.991 206.108,93.632 217.189,93.416 218.246 C 93.131 219.635,91.862 221.200,91.020 221.200 C 90.717 221.200,89.526 219.805,88.371 218.100 C 87.217 216.395,85.154 213.380,83.787 211.400 C 80.108 206.072,80.044 205.124,83.323 204.589 C 94.708 202.734,100.066 184.371,91.662 176.010 C 86.824 171.196,86.940 171.207,38.900 171.203 L 0.000 171.200 0.000 179.400 M170.489 171.823 L 169.600 172.445 169.600 201.409 C 169.600 229.634,169.620 230.382,170.374 230.786 C 170.873 231.053,177.334 231.200,188.600 231.200 C 199.866 231.200,206.327 231.053,206.826 230.786 C 207.543 230.403,207.600 229.889,207.600 223.850 L 207.600 217.328 206.581 216.864 C 205.903 216.555,202.500 216.400,196.395 216.400 C 187.741 216.400,187.205 216.357,186.814 215.626 C 186.544 215.121,186.400 207.555,186.400 193.826 C 186.400 173.333,186.380 172.780,185.600 172.000 C 184.518 170.918,171.990 170.771,170.489 171.823 M75.363 185.982 C 80.562 187.187,80.456 195.347,75.223 196.800 C 72.463 197.567,65.708 197.308,64.800 196.400 C 63.135 194.735,63.759 186.536,65.600 185.878 C 66.602 185.519,73.696 185.595,75.363 185.982 M121.957 186.148 C 122.208 186.450,122.775 188.205,123.217 190.048 C 123.660 191.892,124.283 194.390,124.603 195.600 C 126.959 204.514,127.006 204.400,121.000 204.400 C 115.153 204.400,115.115 204.333,117.032 197.375 C 117.816 194.529,118.714 191.521,119.029 190.692 C 119.343 189.862,119.600 188.839,119.600 188.418 C 119.600 186.208,120.938 184.920,121.957 186.148 " stroke="none" fill-rule="evenodd"></path></g></svg>