<svg id="svg" xmlns="http://www.w3.org/2000/svg"  width="400" height="400" viewBox="0, 0, 400,400"><g id="svgg"><path id="path0" d="M13.615 174.724 C 13.583 174.829,13.277 175.941,12.935 177.195 C 12.593 178.449,12.218 179.818,12.102 180.236 C 11.986 180.654,11.714 181.646,11.499 182.440 C 11.284 183.235,10.280 186.929,9.269 190.650 C 6.888 199.410,7.021 198.921,6.693 200.152 C 6.537 200.737,6.090 202.379,5.700 203.801 C 5.310 205.222,4.854 206.899,4.686 207.526 C 4.518 208.153,4.326 208.871,4.258 209.122 C 4.191 209.373,3.816 210.741,3.425 212.163 C 3.033 213.584,2.587 215.226,2.433 215.811 C 2.056 217.246,1.682 218.631,0.769 221.968 C 0.346 223.514,0.000 224.900,0.000 225.048 C 0.000 225.301,0.445 225.314,8.084 225.277 L 16.169 225.238 16.353 224.477 C 16.455 224.059,16.678 223.204,16.850 222.577 C 17.022 221.950,17.275 221.026,17.412 220.525 C 17.550 220.023,17.822 218.997,18.016 218.244 C 18.210 217.491,18.653 215.815,18.999 214.519 C 19.346 213.223,19.731 211.752,19.854 211.250 C 19.978 210.749,20.147 210.133,20.228 209.882 C 20.310 209.631,21.273 206.040,22.368 201.900 C 23.463 197.761,24.406 194.287,24.464 194.181 C 24.564 193.998,25.202 195.324,28.359 202.281 C 29.004 203.702,29.797 205.436,30.121 206.134 C 30.445 206.833,30.711 207.426,30.711 207.452 C 30.711 207.479,31.009 208.139,31.374 208.920 C 31.739 209.700,32.332 210.988,32.691 211.783 C 33.049 212.577,33.674 213.936,34.079 214.802 C 34.484 215.669,34.816 216.398,34.816 216.423 C 34.816 216.447,35.131 217.141,35.515 217.964 C 35.900 218.787,36.655 220.442,37.193 221.643 C 37.731 222.843,38.341 224.160,38.549 224.569 L 38.926 225.314 46.722 225.314 L 54.519 225.314 54.694 224.819 C 54.791 224.548,55.110 223.402,55.403 222.273 C 55.697 221.144,56.118 219.571,56.340 218.776 C 56.562 217.982,56.936 216.613,57.171 215.735 C 57.406 214.857,57.919 212.976,58.309 211.555 C 58.700 210.133,59.152 208.457,59.314 207.830 C 59.475 207.203,59.701 206.347,59.815 205.929 C 59.929 205.511,60.373 203.869,60.802 202.281 C 61.231 200.692,61.680 199.050,61.801 198.632 C 62.288 196.940,63.111 193.955,63.625 192.018 C 63.924 190.889,64.309 189.453,64.480 188.826 C 64.651 188.198,64.881 187.343,64.993 186.925 C 65.184 186.203,66.508 181.340,67.000 179.552 C 67.126 179.092,67.320 178.373,67.430 177.955 C 67.541 177.537,67.772 176.682,67.945 176.055 C 68.117 175.428,68.259 174.828,68.260 174.723 C 68.262 174.571,66.643 174.540,60.412 174.571 L 52.561 174.610 52.351 175.295 C 52.235 175.671,52.009 176.492,51.849 177.119 C 51.595 178.115,49.038 187.623,48.169 190.802 C 47.998 191.429,47.767 192.284,47.657 192.702 C 47.546 193.120,47.037 195.002,46.526 196.883 C 46.016 198.765,45.423 200.954,45.210 201.748 C 44.997 202.543,44.726 203.535,44.608 203.953 C 44.491 204.371,44.314 205.038,44.216 205.435 C 43.976 206.407,43.978 206.409,43.032 204.291 C 42.576 203.269,41.712 201.372,41.112 200.076 C 40.512 198.780,39.458 196.488,38.769 194.983 C 38.080 193.478,36.764 190.604,35.845 188.597 C 34.926 186.591,33.660 183.820,33.031 182.440 C 32.403 181.060,31.601 179.316,31.250 178.563 C 30.899 177.811,30.382 176.682,30.101 176.055 C 29.819 175.428,29.525 174.829,29.447 174.724 C 29.337 174.577,27.565 174.534,21.489 174.534 C 15.369 174.534,13.661 174.576,13.615 174.724 M92.518 176.777 C 91.639 178.010,89.645 180.798,88.085 182.972 C 86.526 185.146,85.009 187.267,84.713 187.685 C 83.598 189.262,72.085 205.351,69.646 208.742 C 68.894 209.787,66.159 213.618,63.570 217.256 C 60.980 220.893,58.684 224.103,58.469 224.388 C 57.725 225.373,57.136 225.314,67.707 225.314 C 76.693 225.314,77.353 225.296,77.562 225.048 C 77.685 224.901,78.256 224.029,78.830 223.109 C 79.854 221.468,82.422 217.392,83.093 216.344 C 83.280 216.051,84.490 214.135,85.783 212.087 C 87.076 210.038,88.309 208.088,88.522 207.754 C 88.735 207.419,90.792 204.170,93.093 200.532 C 95.393 196.895,97.373 193.786,97.492 193.624 C 97.729 193.300,98.059 195.421,98.064 197.307 C 98.065 197.785,98.117 198.255,98.178 198.351 C 98.316 198.568,113.936 198.828,114.059 198.615 C 114.133 198.486,113.987 197.404,113.484 194.375 C 113.359 193.622,113.157 192.322,113.035 191.486 C 112.913 190.650,112.709 189.316,112.582 188.521 C 112.455 187.727,112.212 186.188,112.043 185.101 C 111.873 184.014,111.600 182.269,111.437 181.224 C 111.274 180.179,111.036 178.605,110.909 177.727 C 110.782 176.849,110.599 175.772,110.503 175.333 L 110.328 174.534 102.222 174.534 L 94.115 174.534 92.518 176.777 M213.683 174.849 C 213.265 175.011,212.786 175.188,212.619 175.244 C 209.906 176.144,206.062 179.133,204.323 181.695 C 200.202 187.762,201.194 196.582,206.364 199.840 C 206.840 200.140,241.779 200.792,242.105 200.508 C 242.515 200.149,240.206 198.424,238.016 197.452 C 235.189 196.197,233.746 195.703,226.150 193.389 C 219.624 191.402,218.016 190.358,218.016 188.111 C 218.016 182.902,232.823 183.057,233.192 188.270 C 233.278 189.477,232.422 189.368,241.148 189.282 L 248.803 189.206 248.850 188.454 C 248.919 187.373,248.318 183.134,247.945 182.060 C 246.938 179.166,244.738 176.957,241.156 175.243 L 239.833 174.610 227.138 174.583 C 214.920 174.556,214.415 174.566,213.683 174.849 M254.121 174.724 C 253.979 175.117,253.271 177.645,252.444 180.712 C 251.207 185.304,251.052 185.931,251.135 186.014 C 251.176 186.055,254.524 186.089,258.575 186.089 L 265.940 186.089 265.842 186.612 C 265.741 187.150,264.407 192.012,264.024 193.235 C 263.907 193.611,263.663 194.466,263.483 195.135 C 263.043 196.767,262.810 197.606,262.328 199.293 C 262.105 200.074,261.981 200.769,262.052 200.836 C 262.123 200.903,266.150 201.006,271.000 201.065 L 279.818 201.173 280.254 199.522 C 280.494 198.614,281.049 196.606,281.487 195.059 C 281.925 193.512,282.462 191.596,282.681 190.802 C 282.900 190.008,283.277 188.639,283.519 187.761 L 283.960 186.165 290.809 186.125 L 297.659 186.086 297.812 185.593 C 297.895 185.322,298.313 183.835,298.740 182.288 C 299.166 180.741,299.584 179.236,299.667 178.943 C 300.507 176.014,300.834 174.745,300.775 174.649 C 300.643 174.435,254.199 174.510,254.121 174.724 M313.602 175.029 C 313.403 175.300,311.987 177.336,310.455 179.552 C 308.923 181.767,307.489 183.820,307.267 184.113 C 307.046 184.405,305.910 186.033,304.744 187.729 C 302.446 191.070,300.555 193.792,296.042 200.257 C 295.683 200.770,295.445 201.245,295.513 201.313 C 295.580 201.380,299.385 201.455,303.968 201.478 L 312.300 201.520 314.126 198.556 C 315.130 196.925,316.269 195.078,316.657 194.452 L 317.362 193.312 317.464 193.920 C 317.520 194.254,317.643 195.758,317.737 197.263 C 317.832 198.769,318.009 201.231,318.132 202.737 C 318.254 204.242,318.427 206.465,318.515 207.678 C 318.603 208.890,318.808 211.695,318.971 213.911 C 319.134 216.127,319.371 219.445,319.499 221.285 C 319.626 223.124,319.765 224.783,319.807 224.971 L 319.884 225.314 328.547 225.314 C 337.402 225.314,337.278 225.321,337.234 224.781 C 337.220 224.610,336.702 221.123,336.365 218.928 C 336.243 218.134,336.011 216.560,335.849 215.431 C 335.687 214.303,335.412 212.455,335.237 211.326 C 335.062 210.198,334.785 208.350,334.623 207.222 C 334.461 206.093,334.188 204.263,334.018 203.155 C 333.453 199.484,333.100 197.129,332.882 195.591 C 332.764 194.755,332.490 192.908,332.273 191.486 C 332.056 190.065,331.782 188.252,331.665 187.457 C 331.547 186.663,331.274 184.850,331.058 183.428 C 330.841 182.007,330.566 180.125,330.446 179.247 C 330.326 178.369,330.162 177.275,330.081 176.815 C 330.001 176.355,329.892 175.654,329.838 175.257 L 329.742 174.534 321.853 174.534 L 313.965 174.534 313.602 175.029 M353.428 174.648 C 353.391 174.711,353.010 176.097,352.583 177.727 C 351.788 180.760,351.475 181.938,351.106 183.276 C 350.991 183.694,350.451 185.747,349.907 187.837 C 349.362 189.928,348.782 192.117,348.617 192.702 C 348.452 193.288,348.150 194.417,347.945 195.211 C 347.741 196.005,347.425 197.203,347.244 197.872 C 347.063 198.540,346.712 199.875,346.463 200.836 C 346.214 201.798,345.506 204.466,344.889 206.765 C 343.713 211.154,342.934 214.081,342.604 215.355 C 342.495 215.773,342.235 216.765,342.026 217.560 C 341.816 218.354,341.395 219.962,341.089 221.133 C 340.784 222.303,340.436 223.599,340.316 224.011 C 339.897 225.458,339.013 225.314,348.290 225.314 L 356.482 225.314 356.648 224.895 C 356.740 224.666,356.878 224.204,356.954 223.869 C 357.030 223.535,357.373 222.201,357.716 220.905 C 358.059 219.609,358.619 217.488,358.961 216.192 C 359.985 212.311,360.128 211.772,360.557 210.186 C 360.784 209.350,361.002 208.476,361.042 208.244 C 361.163 207.545,361.369 207.519,366.502 207.562 L 371.329 207.602 371.608 208.514 C 371.762 209.016,372.187 210.452,372.552 211.707 C 373.460 214.819,375.040 220.124,375.610 221.969 C 375.726 222.345,376.000 223.252,376.218 223.983 L 376.614 225.314 384.967 225.314 C 391.671 225.314,393.335 225.275,393.396 225.116 C 393.437 225.008,392.691 222.562,391.738 219.681 C 388.209 209.022,387.071 205.493,387.116 205.357 C 387.141 205.281,387.871 204.915,388.737 204.545 C 396.065 201.410,399.911 195.737,399.909 188.065 C 399.907 182.024,397.636 178.202,392.912 176.290 C 392.337 176.058,391.729 175.810,391.562 175.741 C 390.749 175.402,388.780 174.987,386.969 174.772 C 384.811 174.517,353.575 174.401,353.428 174.648 M119.402 175.634 C 119.456 176.155,119.572 176.959,119.658 177.421 C 119.824 178.305,120.636 183.493,121.777 190.954 C 121.937 191.999,122.168 193.470,122.290 194.223 C 122.412 194.975,122.622 196.306,122.758 197.179 C 122.894 198.053,123.019 198.782,123.038 198.800 C 123.056 198.817,126.287 198.878,130.217 198.934 C 134.147 198.990,137.726 199.058,138.171 199.084 C 139.324 199.152,139.286 200.196,138.500 190.194 C 138.333 188.062,138.095 184.949,137.972 183.276 C 137.848 181.604,137.681 179.517,137.599 178.639 C 137.518 177.761,137.408 176.513,137.356 175.865 L 137.260 174.686 128.282 174.686 L 119.303 174.686 119.402 175.634 M159.541 175.561 C 158.365 177.396,153.141 185.648,151.913 187.609 C 151.206 188.738,150.272 190.209,149.838 190.878 C 149.403 191.547,148.619 192.778,148.096 193.615 C 147.573 194.451,146.603 195.977,145.941 197.006 C 145.278 198.036,144.736 198.933,144.736 199.000 C 144.736 199.240,161.918 199.549,162.108 199.312 C 162.140 199.272,162.751 198.419,163.465 197.415 C 168.845 189.863,173.405 183.482,174.384 182.136 C 175.455 180.665,176.013 179.882,177.147 178.259 C 177.380 177.925,178.017 177.036,178.562 176.284 C 179.106 175.532,179.552 174.865,179.552 174.801 C 179.552 174.738,175.175 174.686,169.826 174.686 L 160.101 174.686 159.541 175.561 M182.219 174.876 C 181.916 175.842,181.760 176.388,181.524 177.323 C 181.236 178.462,180.837 179.961,180.242 182.136 C 180.048 182.847,179.466 185.002,178.950 186.925 C 178.433 188.848,177.885 190.867,177.733 191.410 C 177.474 192.332,177.276 193.065,176.530 195.858 C 176.368 196.464,176.080 197.523,175.890 198.211 C 175.699 198.900,175.578 199.498,175.621 199.541 C 175.706 199.626,181.783 199.752,188.669 199.811 L 192.997 199.848 193.175 199.088 C 193.273 198.670,193.458 197.951,193.585 197.491 C 193.712 197.032,194.409 194.466,195.132 191.790 C 196.847 185.447,197.040 184.732,197.186 184.189 C 197.253 183.938,197.828 181.803,198.464 179.445 C 199.100 177.087,199.620 175.052,199.620 174.922 C 199.620 174.603,182.319 174.558,182.219 174.876 M380.394 186.167 C 383.663 187.320,384.062 190.896,381.242 193.762 C 379.545 195.488,378.520 195.664,370.178 195.666 L 364.453 195.667 364.973 193.729 C 366.024 189.812,366.745 187.068,366.820 186.697 C 366.980 185.914,366.777 185.937,373.470 185.937 C 378.684 185.937,379.851 185.976,380.394 186.167 M306.043 204.652 C 304.664 204.706,301.118 204.802,298.164 204.865 L 292.792 204.979 292.158 205.861 C 291.509 206.763,287.395 212.671,286.079 214.591 C 285.676 215.179,284.957 216.213,284.482 216.889 C 283.568 218.190,279.771 223.666,279.182 224.533 C 278.990 224.815,278.871 225.106,278.916 225.180 C 278.963 225.255,283.109 225.314,288.328 225.314 L 297.657 225.314 299.320 222.615 C 302.847 216.891,303.561 215.736,305.007 213.412 C 305.828 212.093,306.499 210.978,306.499 210.936 C 306.499 210.893,306.629 210.673,306.787 210.446 C 307.704 209.132,310.148 205.001,310.148 204.766 C 310.148 204.526,310.035 204.491,309.350 204.520 C 308.911 204.538,307.423 204.597,306.043 204.652 M273.888 205.496 C 268.476 205.607,260.643 205.903,260.539 206.000 C 260.472 206.062,260.186 206.961,259.904 207.998 C 259.622 209.034,258.908 211.627,258.316 213.759 C 257.725 215.891,256.957 218.662,256.610 219.916 C 256.264 221.171,255.788 222.842,255.554 223.630 C 255.319 224.418,255.162 225.120,255.205 225.188 C 255.247 225.257,259.278 225.314,264.163 225.314 L 273.043 225.314 273.346 224.287 C 273.636 223.307,276.350 213.556,276.510 212.923 C 276.552 212.756,276.811 211.832,277.086 210.870 C 277.685 208.777,278.525 205.640,278.525 205.499 C 278.525 205.443,277.858 205.412,277.043 205.429 C 276.228 205.447,274.808 205.477,273.888 205.496 M241.809 206.406 C 241.307 206.427,237.476 206.522,233.295 206.618 C 225.363 206.799,225.033 206.832,226.102 207.336 C 227.577 208.032,228.123 208.862,228.120 210.405 C 228.115 213.757,225.169 215.583,219.688 215.631 C 214.040 215.680,211.161 213.958,210.669 210.234 L 210.512 209.046 204.154 209.012 C 200.657 208.993,197.163 208.976,196.389 208.974 L 194.983 208.970 195.012 210.903 C 195.119 218.120,197.738 222.173,203.953 224.736 L 205.169 225.238 218.049 225.278 L 230.928 225.319 232.318 224.769 C 234.715 223.821,238.239 221.588,239.617 220.144 C 243.249 216.338,245.389 210.989,244.849 207.067 L 244.745 206.309 243.733 206.339 C 243.177 206.355,242.311 206.385,241.809 206.406 M188.902 207.780 C 188.149 207.802,184.831 207.892,181.528 207.980 C 173.988 208.181,173.015 208.249,173.013 208.574 C 173.012 208.708,172.503 210.699,171.883 212.999 C 171.263 215.298,170.272 218.974,169.680 221.166 C 169.089 223.359,168.605 225.189,168.605 225.233 C 168.605 225.277,172.528 225.314,177.323 225.314 L 186.041 225.314 186.287 224.439 C 186.423 223.959,186.671 223.052,186.838 222.425 C 187.298 220.698,187.839 218.710,188.287 217.104 C 188.509 216.309,188.965 214.633,189.301 213.379 C 189.638 212.125,190.053 210.585,190.223 209.958 C 190.657 208.366,190.735 207.670,190.476 207.709 C 190.363 207.726,189.654 207.758,188.902 207.780 M150.437 208.842 C 149.768 208.864,146.005 208.959,142.075 209.053 C 138.145 209.148,134.348 209.247,133.637 209.274 C 132.927 209.300,130.650 209.372,128.578 209.433 C 124.372 209.556,124.613 209.482,124.825 210.588 C 124.910 211.036,125.082 212.087,125.206 212.923 C 125.331 213.759,125.562 215.264,125.720 216.268 C 125.878 217.271,126.182 219.255,126.396 220.677 C 126.610 222.098,126.818 223.466,126.860 223.717 C 126.901 223.968,126.975 224.430,127.024 224.743 L 127.114 225.314 135.304 225.314 L 143.494 225.314 144.381 224.067 C 144.869 223.382,145.473 222.532,145.724 222.178 C 147.378 219.848,151.866 213.565,152.281 212.999 C 154.270 210.289,155.186 208.954,155.126 208.856 C 155.061 208.751,153.440 208.746,150.437 208.842 M115.381 209.711 C 115.317 209.768,111.916 209.870,103.788 210.057 C 98.821 210.172,98.954 210.137,99.144 211.276 C 99.258 211.957,99.377 213.445,99.971 221.589 C 100.093 223.261,100.227 224.783,100.270 224.971 L 100.348 225.314 109.223 225.314 C 118.594 225.314,118.438 225.325,118.205 224.667 C 118.168 224.563,117.996 223.520,117.823 222.349 C 117.649 221.178,117.405 219.571,117.280 218.776 C 116.840 215.965,116.466 213.510,116.217 211.783 C 115.951 209.938,115.732 209.396,115.381 209.711 " stroke="none" fill="#3377AB" fill-rule="evenodd"></path></g></svg>