<?xml version="1.0" encoding="UTF-8" standalone="no"?>
<svg
   xmlns="http://www.w3.org/2000/svg"
   version="1.1"
   viewBox="0, 0, 400,400"
   height="400"
   width="400"
   id="svg">
  <g
     id="svgg">
    <path
       style="fill-rule:evenodd;stroke:none;stroke-width:1.29941237"
       d="M 181.11316,99.470707 C 51.283672,108.16637 -29.087579,172.25729 12.357177,234.04434 67.664063,316.49855 292.82104,324.43146 374.54887,246.80587 438.58391,185.98558 368.92242,112.90403 234.85035,100.24906 227.59054,99.562966 188.23524,98.993823 181.11316,99.470707 m 55.0587,15.325273 c 31.03906,3.39146 67.50187,12.3743 71.10514,17.51867 1.82307,2.60273 0.11824,5.18856 -5.85256,8.87759 -43.13269,26.65094 -93.60446,46.2084 -119.21068,46.19281 -19.33136,-0.0117 -26.04412,-9.24272 -21.81453,-29.99824 5.0885,-24.9682 19.37423,-41.27713 37.84408,-43.20286 5.76809,-0.60162 30.46862,-0.20271 37.92855,0.61203 m -102.63538,8.30844 c 2.28956,1.15907 0.54185,4.32444 -8.57223,15.52018 -24.26912,29.81112 -44.78814,64.48334 -56.823302,96.01357 -7.649641,20.04344 -12.58091,21.19212 -27.997138,6.52176 -42.9117922,-40.83664 -20.428061,-83.15849 59.040103,-111.13614 13.073387,-4.60252 18.779107,-6.26707 24.666747,-7.19355 2.6443,-0.41711 8.65668,-0.24689 9.68582,0.27418 m 215.21776,28.44283 c 22.37328,10.97354 36.06649,37.22687 30.58816,58.64508 -6.74524,26.36508 -43.02614,51.53989 -92.03087,63.85702 -22.42916,5.63815 -22.90864,5.21844 -11.41534,-10.00418 17.21461,-22.80338 39.53462,-60.97102 53.25901,-91.07321 11.10478,-24.35748 11.88313,-25.20859 19.59904,-21.42471 m -123.33892,63.26189 c 17.20162,3.29141 21.34285,19.28068 10.75524,41.52662 -7.73021,16.24395 -18.47894,26.55219 -29.73056,28.5156 -20.45534,3.56949 -76.43013,-3.19915 -105.93458,-12.8083 -10.720156,-3.49152 -10.935859,-4.49467 -2.423409,-11.2854 28.116679,-22.42785 72.664439,-40.8951 111.220599,-46.10575 4.6324,-0.62631 12.41458,-0.54965 16.11271,0.15723"
       id="path0" />
  </g>
</svg>
