<svg id="svg" version="1.1" xmlns="http://www.w3.org/2000/svg"  width="400" height="400" viewBox="0, 0, 400,400"><g id="svgg"><path id="path0" d="M48.083 184.529 C 47.721 184.930,47.405 185.683,47.383 186.203 C 47.360 186.723,47.107 187.430,46.822 187.774 C 46.414 188.265,46.406 188.525,46.785 188.982 C 47.051 189.303,47.163 189.737,47.033 189.946 C 46.256 191.204,47.275 191.600,51.286 191.600 L 55.287 191.600 55.014 192.700 C 54.864 193.305,54.394 194.172,53.970 194.626 C 53.547 195.080,53.200 195.924,53.200 196.502 C 53.200 197.080,53.020 197.664,52.800 197.800 C 52.580 197.936,52.400 198.487,52.400 199.024 C 52.400 199.561,52.243 200.000,52.051 200.000 C 51.859 200.000,51.559 200.765,51.384 201.700 C 51.209 202.635,51.002 203.670,50.923 204.000 C 49.783 208.776,50.193 209.200,55.944 209.200 C 59.791 209.200,60.372 209.112,60.553 208.500 C 60.895 207.340,62.316 201.169,62.855 198.500 C 63.133 197.125,63.481 196.000,63.629 196.000 C 63.777 196.000,64.019 195.244,64.166 194.320 C 64.581 191.729,64.818 191.600,69.159 191.600 L 73.020 191.600 73.682 188.721 C 74.800 183.854,75.395 184.062,59.871 183.909 C 49.533 183.808,48.696 183.852,48.083 184.529 M160.323 184.135 C 159.978 184.479,159.507 186.312,159.208 188.466 C 158.924 190.520,158.535 192.371,158.345 192.580 C 158.155 192.789,158.000 193.344,158.000 193.813 C 158.000 194.283,157.865 194.802,157.700 194.967 C 157.535 195.132,157.364 195.747,157.320 196.333 C 157.190 198.085,156.966 199.167,156.675 199.459 C 156.524 199.610,156.400 200.184,156.400 200.735 C 156.400 201.286,156.136 202.029,155.813 202.385 C 155.491 202.742,155.105 204.064,154.957 205.324 C 154.548 208.808,155.067 209.200,160.091 209.200 C 164.806 209.200,164.874 209.152,165.543 205.384 C 166.395 200.583,166.338 200.633,171.210 200.400 C 176.733 200.136,179.478 198.881,181.237 195.814 C 183.631 191.641,182.460 187.341,178.546 185.926 C 177.806 185.658,177.200 185.306,177.200 185.144 C 177.200 184.681,174.276 184.378,168.200 184.212 C 165.120 184.127,162.222 183.941,161.760 183.798 C 161.244 183.639,160.688 183.769,160.323 184.135 M253.073 184.098 C 252.253 184.699,251.366 189.012,251.749 190.538 C 252.015 191.599,252.020 191.600,256.008 191.600 C 258.567 191.600,260.000 191.753,260.000 192.026 C 260.000 192.695,259.139 194.167,258.542 194.520 C 258.244 194.696,258.000 195.335,258.000 195.940 C 258.000 196.545,257.848 197.211,257.663 197.420 C 256.884 198.299,255.495 205.991,256.004 206.605 C 256.407 207.090,256.378 207.200,255.849 207.200 C 254.935 207.200,255.040 207.895,256.000 208.200 C 256.440 208.340,256.800 208.622,256.800 208.827 C 256.800 209.409,263.966 209.292,264.553 208.700 C 264.826 208.425,265.354 206.681,265.725 204.823 C 266.097 202.966,266.558 201.346,266.751 201.223 C 266.944 201.101,267.227 200.190,267.379 199.200 C 267.531 198.210,267.813 196.860,268.005 196.200 C 268.198 195.540,268.552 194.235,268.793 193.300 L 269.231 191.600 273.370 191.600 L 277.509 191.600 277.779 189.800 C 277.928 188.810,278.218 188.000,278.425 188.000 C 278.631 188.000,278.800 187.537,278.800 186.971 C 278.800 184.905,278.349 184.801,269.329 184.788 C 261.939 184.777,256.301 184.403,254.396 183.799 C 254.045 183.687,253.450 183.822,253.073 184.098 M319.649 184.141 C 319.402 184.438,319.116 185.832,319.012 187.238 C 318.901 188.747,318.599 189.959,318.275 190.197 C 317.622 190.676,316.866 192.837,316.585 195.025 C 316.216 197.901,315.903 199.396,315.585 199.800 C 315.413 200.020,315.054 201.687,314.789 203.505 C 314.523 205.323,314.147 206.909,313.953 207.029 C 313.287 207.441,313.600 208.400,314.400 208.400 C 314.840 208.400,315.200 208.580,315.200 208.800 C 315.200 209.038,316.728 209.200,318.985 209.200 L 322.769 209.200 323.159 207.700 C 323.374 206.875,323.741 205.130,323.975 203.823 C 324.210 202.516,324.546 201.346,324.722 201.223 C 325.083 200.972,326.800 193.702,326.800 192.425 C 326.800 191.665,326.563 191.600,323.800 191.600 C 320.804 191.600,319.016 190.445,321.900 190.372 C 322.505 190.357,323.981 190.312,325.181 190.272 L 327.362 190.200 327.892 188.400 C 328.521 186.264,328.269 184.800,327.272 184.800 C 326.881 184.800,326.352 184.592,326.097 184.337 C 325.746 183.986,325.477 184.004,324.986 184.411 C 324.453 184.854,324.282 184.856,324.014 184.423 C 323.836 184.134,323.502 184.014,323.272 184.155 C 323.043 184.297,322.742 184.230,322.604 184.007 C 322.238 183.415,320.174 183.509,319.649 184.141 M331.535 184.272 C 331.183 184.672,330.773 186.020,330.623 187.267 C 330.473 188.513,330.123 189.621,329.846 189.727 C 329.549 189.841,329.136 191.382,328.845 193.460 C 328.573 195.407,328.190 197.360,327.996 197.800 C 327.668 198.541,326.658 202.890,326.603 203.800 C 326.590 204.020,326.435 204.429,326.260 204.710 C 325.896 205.291,326.284 207.426,326.947 208.487 C 327.318 209.080,327.964 209.200,330.800 209.200 C 334.796 209.200,334.808 209.189,335.619 205.000 C 335.918 203.460,336.278 202.110,336.419 202.000 C 336.561 201.890,337.251 199.280,337.953 196.200 C 338.656 193.120,339.496 189.588,339.822 188.350 C 340.632 185.268,340.428 184.954,337.271 184.421 C 335.802 184.173,334.054 183.874,333.387 183.757 C 332.522 183.605,331.992 183.752,331.535 184.272 M233.300 184.682 C 232.805 184.778,232.400 185.023,232.400 185.228 C 232.400 185.433,232.140 185.600,231.821 185.600 C 231.503 185.600,230.448 186.022,229.477 186.539 C 228.505 187.055,227.326 187.578,226.855 187.701 C 226.345 187.835,226.000 188.244,226.000 188.716 C 226.000 189.716,225.008 189.988,221.333 189.995 C 217.961 190.001,217.200 190.227,217.200 191.219 C 217.200 191.623,217.020 192.064,216.800 192.200 C 216.580 192.336,216.400 192.257,216.400 192.024 C 216.400 191.791,215.725 191.594,214.900 191.587 C 213.574 191.576,213.480 191.514,214.094 191.048 C 215.182 190.221,214.518 190.000,210.949 190.000 L 207.631 190.000 207.218 191.700 C 206.991 192.635,206.645 193.879,206.451 194.464 C 206.256 195.049,206.182 195.972,206.286 196.517 C 206.390 197.061,206.278 197.628,206.038 197.777 C 205.797 197.925,205.600 198.727,205.600 199.558 C 205.600 200.388,205.236 202.176,204.792 203.531 C 203.312 208.036,204.167 209.200,208.956 209.200 L 212.369 209.200 212.994 207.100 C 213.338 205.945,213.735 204.282,213.876 203.405 C 214.017 202.528,214.373 201.570,214.666 201.277 C 214.960 200.983,215.200 200.502,215.200 200.207 C 215.200 199.912,215.785 199.202,216.500 198.630 C 217.215 198.057,218.017 197.411,218.283 197.194 C 218.549 196.977,219.392 196.800,220.156 196.800 C 221.124 196.800,221.617 196.588,221.780 196.100 C 222.447 194.100,223.431 193.497,223.270 195.187 C 223.126 196.698,223.182 196.800,224.158 196.800 C 224.731 196.800,225.200 196.892,225.200 197.005 C 225.200 197.308,224.282 198.898,223.653 199.684 C 223.351 200.060,223.081 201.365,223.053 202.583 C 223.024 203.802,222.865 204.799,222.700 204.799 C 222.535 204.800,222.400 205.070,222.400 205.400 C 222.400 205.730,222.674 206.000,223.009 206.000 C 223.343 206.000,223.821 206.447,224.069 206.992 C 224.318 207.538,224.899 208.102,225.361 208.246 C 225.822 208.390,226.318 208.692,226.463 208.918 C 226.811 209.460,230.701 209.766,232.954 209.428 C 234.721 209.163,234.748 209.135,235.171 207.160 C 235.831 204.082,235.801 204.000,234.000 204.000 C 232.103 204.000,232.052 203.757,233.065 199.557 L 233.731 196.800 235.177 196.800 C 237.023 196.800,237.950 195.753,238.092 193.504 L 238.200 191.800 236.498 191.677 C 234.619 191.541,234.672 191.764,235.637 188.000 C 236.166 185.936,235.604 184.227,234.471 184.454 C 234.322 184.484,233.795 184.587,233.300 184.682 M96.609 189.947 C 95.814 190.276,95.180 192.316,94.419 197.000 C 94.240 198.100,93.893 199.629,93.647 200.397 C 93.401 201.166,93.200 202.372,93.200 203.077 C 93.200 203.783,92.955 204.504,92.656 204.680 C 91.638 205.280,91.423 208.029,92.376 208.278 C 92.829 208.396,93.200 208.652,93.200 208.847 C 93.200 209.041,94.988 209.200,97.173 209.200 C 101.641 209.200,101.217 209.534,101.998 205.400 C 103.103 199.555,104.552 197.600,107.784 197.600 C 109.681 197.600,111.998 194.224,111.894 191.612 L 111.830 190.000 106.015 189.996 C 102.817 189.993,99.570 189.908,98.800 189.805 C 98.030 189.703,97.044 189.767,96.609 189.947 M76.018 190.292 C 75.319 190.568,75.079 190.747,72.917 192.611 C 69.821 195.281,70.231 196.800,74.049 196.800 C 75.350 196.800,76.400 196.979,76.400 197.200 C 76.400 197.420,76.985 197.611,77.700 197.625 C 78.762 197.646,78.853 197.709,78.200 197.971 C 77.760 198.147,76.410 198.148,75.200 197.975 C 71.862 197.495,71.607 197.529,71.235 198.508 C 71.045 199.008,70.461 199.646,69.937 199.927 C 68.029 200.948,67.562 206.000,69.376 206.000 C 69.915 206.000,70.476 206.394,70.800 207.000 C 71.094 207.550,71.472 208.000,71.639 208.000 C 71.806 208.000,72.258 208.315,72.643 208.700 C 73.491 209.548,80.218 209.741,80.719 208.932 C 81.226 208.111,83.200 207.812,83.200 208.557 C 83.200 209.794,90.316 209.474,90.630 208.223 C 90.765 207.685,90.769 207.073,90.639 206.862 C 90.508 206.652,90.761 204.732,91.201 202.596 C 92.569 195.947,92.115 192.937,89.612 192.064 C 88.794 191.779,88.400 191.375,88.400 190.821 C 88.400 190.005,77.888 189.556,76.018 190.292 M115.675 190.273 C 114.711 190.659,112.066 193.683,111.814 194.686 C 111.453 196.124,112.232 196.800,114.249 196.800 C 115.212 196.800,116.000 196.968,116.000 197.173 C 116.000 197.379,116.495 197.637,117.100 197.747 C 117.705 197.856,116.899 197.868,115.309 197.771 C 112.655 197.610,112.327 197.679,111.309 198.602 C 110.699 199.155,109.871 199.838,109.470 200.121 C 108.376 200.889,107.979 205.600,109.008 205.600 C 109.404 205.600,110.512 206.455,111.472 207.500 L 113.216 209.400 116.875 209.400 C 119.446 209.400,120.583 209.251,120.700 208.900 C 120.792 208.625,121.176 208.400,121.553 208.400 C 121.931 208.400,122.438 208.202,122.680 207.960 C 123.001 207.639,123.193 207.748,123.387 208.360 C 123.632 209.130,123.949 209.200,127.184 209.200 C 131.100 209.200,131.320 209.051,130.934 206.668 C 130.806 205.884,131.094 203.527,131.601 201.195 C 132.890 195.272,132.427 193.171,129.571 191.988 C 128.864 191.695,128.400 191.205,128.400 190.751 C 128.400 190.012,117.363 189.598,115.675 190.273 M139.700 190.265 C 139.425 190.376,139.200 190.678,139.200 190.936 C 139.200 191.194,138.649 191.648,137.977 191.946 C 135.530 193.029,133.428 198.078,135.163 198.703 C 135.513 198.829,136.250 199.419,136.800 200.013 C 137.883 201.182,141.273 202.400,143.446 202.400 C 144.191 202.400,144.800 202.559,144.800 202.753 C 144.800 202.948,145.197 203.211,145.683 203.337 C 146.629 203.585,146.422 204.077,145.292 204.264 C 144.911 204.328,144.046 204.490,143.369 204.625 C 142.343 204.830,142.025 204.698,141.460 203.835 C 141.032 203.183,140.415 202.800,139.791 202.800 C 139.246 202.800,138.800 202.620,138.800 202.400 C 138.800 202.180,138.350 202.000,137.800 202.000 C 137.250 202.000,136.800 202.180,136.800 202.400 C 136.800 202.979,135.304 202.893,135.064 202.300 C 134.911 201.924,134.756 201.948,134.437 202.400 C 134.149 202.807,134.010 202.839,134.006 202.500 C 133.997 201.731,132.477 201.907,132.278 202.700 C 131.842 204.430,131.980 206.093,132.542 205.878 C 132.859 205.756,133.682 206.259,134.430 207.031 C 135.160 207.784,135.977 208.400,136.245 208.400 C 136.514 208.400,136.808 208.625,136.900 208.900 C 137.128 209.586,147.894 209.616,148.318 208.932 C 148.477 208.674,149.131 208.332,149.770 208.172 C 157.415 206.253,154.171 197.637,145.788 197.594 C 144.245 197.586,143.421 197.044,143.729 196.240 C 144.040 195.430,146.112 195.394,147.314 196.178 C 148.221 196.770,153.759 196.644,154.789 196.007 C 156.121 195.184,152.682 191.600,150.559 191.600 C 150.128 191.600,150.021 191.363,150.200 190.800 C 150.448 190.019,141.446 189.561,139.700 190.265 M188.900 190.282 C 188.405 190.378,188.000 190.601,188.000 190.779 C 188.000 190.956,187.124 191.478,186.054 191.939 C 184.984 192.399,183.773 193.276,183.363 193.888 C 180.937 197.513,179.722 201.200,180.955 201.200 C 181.397 201.200,181.600 201.558,181.600 202.339 C 181.600 204.565,183.850 207.566,186.000 208.209 C 186.550 208.373,187.128 208.709,187.285 208.954 C 187.670 209.555,195.924 209.562,196.315 208.962 C 196.472 208.720,197.059 208.411,197.619 208.274 C 201.221 207.395,203.800 203.587,203.800 199.150 L 203.800 195.700 202.097 194.048 C 201.027 193.009,199.737 192.220,198.624 191.922 C 197.514 191.625,196.783 191.178,196.664 190.724 C 196.477 190.009,191.724 189.738,188.900 190.282 M287.467 190.267 C 287.320 190.413,287.200 190.841,287.200 191.218 C 287.200 192.227,286.161 192.996,285.859 192.210 C 285.234 190.582,276.970 191.753,277.374 193.413 C 277.502 193.939,277.295 194.398,276.786 194.716 C 275.823 195.317,275.752 196.400,276.675 196.400 C 277.237 196.400,277.199 196.541,276.448 197.241 C 275.952 197.703,275.645 198.340,275.766 198.657 C 275.888 198.973,275.832 199.540,275.643 199.916 C 274.289 202.605,273.676 207.733,274.597 208.654 C 274.972 209.029,276.198 209.200,278.504 209.200 C 282.395 209.200,282.439 209.160,283.236 204.900 C 283.494 203.525,283.832 202.400,283.989 202.400 C 284.145 202.400,284.486 201.690,284.746 200.821 C 285.006 199.953,285.710 198.875,286.310 198.426 C 286.909 197.976,287.617 197.427,287.883 197.204 C 288.535 196.659,290.000 196.690,290.000 197.249 C 290.000 198.030,291.103 196.852,292.187 194.911 C 293.319 192.887,293.490 191.600,292.627 191.600 C 292.312 191.600,291.940 191.240,291.800 190.800 C 291.545 189.997,288.153 189.580,287.467 190.267 M297.541 190.283 C 296.916 190.379,296.398 190.764,296.278 191.223 C 296.164 191.661,295.731 192.000,295.286 192.000 C 294.137 192.000,293.569 192.901,293.479 194.866 L 293.400 196.600 295.700 196.720 C 296.965 196.786,298.000 197.011,298.000 197.220 C 298.000 198.011,300.378 197.582,301.438 196.600 C 302.031 196.050,302.926 195.600,303.426 195.600 C 306.024 195.600,306.418 197.025,303.900 197.316 C 302.965 197.424,301.480 197.711,300.600 197.954 C 299.693 198.204,297.874 198.292,296.400 198.156 C 293.842 197.920,293.776 197.939,292.311 199.321 C 290.791 200.755,289.707 204.000,290.749 204.000 C 290.997 204.000,291.200 204.305,291.200 204.678 C 291.200 205.591,293.179 208.400,293.821 208.400 C 294.103 208.400,294.408 208.625,294.500 208.900 C 294.826 209.877,301.157 209.527,302.923 208.435 L 304.447 207.493 304.670 208.347 C 304.877 209.136,305.157 209.200,308.404 209.200 C 312.184 209.200,312.486 209.028,312.115 207.090 C 311.857 205.741,312.723 200.695,313.270 200.357 C 314.327 199.704,314.164 194.855,313.049 193.740 C 311.783 192.474,310.193 191.600,309.154 191.600 C 308.667 191.600,308.400 191.317,308.400 190.800 C 308.400 190.014,301.448 189.682,297.541 190.283 M346.300 190.276 C 345.915 190.376,345.600 190.629,345.600 190.838 C 345.600 191.046,345.105 191.431,344.500 191.692 C 342.528 192.544,339.600 195.211,339.600 196.157 C 339.600 196.643,339.441 197.211,339.247 197.420 C 338.514 198.209,338.270 201.735,338.967 201.468 C 339.455 201.281,339.600 201.492,339.600 202.394 C 339.600 204.950,340.831 206.545,344.000 208.095 C 344.550 208.364,345.129 208.767,345.286 208.992 C 345.826 209.764,355.349 209.508,356.157 208.700 C 356.542 208.315,357.039 208.000,357.261 208.000 C 357.914 208.000,361.240 205.119,361.093 204.680 C 360.618 203.253,352.786 202.635,351.581 203.928 C 350.354 205.245,347.600 204.501,347.600 202.853 C 347.600 202.317,347.322 202.338,355.315 202.261 C 362.513 202.191,362.384 202.253,362.394 198.887 C 362.405 195.157,360.859 192.929,357.578 191.946 C 356.688 191.680,355.985 191.186,355.870 190.746 C 355.679 190.017,348.618 189.670,346.300 190.276 M365.600 190.971 C 365.600 191.506,365.330 192.213,365.000 192.543 C 364.294 193.249,364.214 194.000,364.844 194.000 C 365.089 194.000,364.870 194.339,364.357 194.754 C 363.554 195.405,363.501 195.598,363.968 196.162 C 364.430 196.718,364.407 196.929,363.816 197.582 C 363.434 198.004,363.239 198.540,363.383 198.773 C 363.527 199.006,363.275 200.683,362.822 202.498 C 361.332 208.468,361.745 209.200,366.600 209.200 C 370.511 209.200,370.800 209.060,370.800 207.167 C 370.800 206.745,370.955 206.400,371.145 206.400 C 371.335 206.400,371.721 205.275,372.003 203.900 C 372.770 200.154,373.380 198.933,374.868 198.171 C 375.601 197.795,376.292 197.348,376.403 197.177 C 376.515 197.005,377.235 196.805,378.003 196.733 C 379.829 196.559,382.242 192.658,381.059 191.794 C 380.696 191.529,380.400 191.017,380.400 190.656 C 380.400 190.123,379.967 190.001,378.100 190.006 C 375.399 190.013,375.031 190.202,374.598 191.800 C 374.365 192.656,374.225 192.799,374.107 192.300 C 374.016 191.915,373.582 191.600,373.144 191.600 C 372.528 191.600,372.404 191.417,372.600 190.800 C 372.841 190.040,372.672 190.000,369.227 190.000 C 365.653 190.000,365.600 190.014,365.600 190.971 M386.300 190.276 C 385.915 190.376,385.600 190.603,385.600 190.780 C 385.600 190.957,384.743 191.470,383.696 191.920 C 381.731 192.766,381.456 193.242,380.651 197.200 C 380.223 199.304,383.849 201.783,388.088 202.285 C 391.053 202.636,392.238 203.770,390.432 204.530 C 388.842 205.198,387.312 204.956,386.774 203.951 C 386.553 203.538,385.963 203.200,385.462 203.200 C 384.962 203.200,384.204 202.936,383.776 202.613 C 382.883 201.937,381.600 201.811,381.600 202.400 C 381.600 202.620,381.240 202.800,380.800 202.800 C 380.360 202.800,380.000 202.620,380.000 202.400 C 380.000 201.818,379.232 201.910,378.571 202.571 C 377.011 204.131,378.154 206.279,381.769 208.585 C 383.280 209.548,393.193 209.815,393.499 208.900 C 393.591 208.625,393.970 208.400,394.340 208.400 C 395.512 208.400,398.052 206.374,398.637 204.973 C 400.324 200.936,397.944 198.358,391.951 197.732 C 390.265 197.556,389.455 197.277,389.190 196.781 C 388.528 195.544,390.926 195.140,392.562 196.212 C 394.034 197.177,399.753 196.527,399.918 195.377 C 400.088 194.184,398.620 192.533,396.894 191.976 C 396.072 191.711,395.078 191.158,394.684 190.747 C 393.988 190.020,388.467 189.709,386.300 190.276 M171.950 190.650 C 172.638 190.788,173.200 191.133,173.200 191.417 C 173.200 191.701,173.425 192.009,173.700 192.102 C 173.975 192.194,173.517 192.399,172.682 192.557 C 171.620 192.757,171.029 193.137,170.717 193.822 C 169.871 195.680,168.338 195.145,168.650 193.100 C 169.055 190.441,169.448 190.150,171.950 190.650 M83.600 196.000 C 84.054 196.293,83.876 196.389,82.871 196.394 C 82.141 196.397,81.273 196.670,80.943 197.000 C 80.274 197.669,79.200 197.806,79.200 197.223 C 79.200 196.032,82.311 195.167,83.600 196.000 M123.367 195.843 C 123.715 195.976,123.986 196.381,123.968 196.743 C 123.948 197.158,123.862 197.216,123.735 196.900 C 123.507 196.336,121.738 196.213,121.533 196.747 C 121.332 197.272,119.600 197.722,119.600 197.250 C 119.600 196.188,121.965 195.305,123.367 195.843 M353.374 195.990 C 355.048 196.627,354.631 197.459,352.500 197.734 C 351.455 197.869,350.207 198.092,349.727 198.229 C 348.456 198.593,348.959 196.959,350.350 196.202 C 351.618 195.514,352.042 195.484,353.374 195.990 M195.226 196.814 C 196.313 197.396,196.294 199.598,195.200 199.884 C 194.760 199.999,194.400 200.398,194.400 200.771 C 194.400 201.144,194.040 201.836,193.600 202.308 C 193.160 202.780,192.800 203.464,192.800 203.827 C 192.800 204.665,190.852 204.286,190.100 203.302 C 187.798 200.289,191.936 195.053,195.226 196.814 M82.945 202.200 C 82.818 202.530,82.472 202.800,82.176 202.800 C 81.211 202.800,79.600 203.715,79.600 204.264 C 79.600 204.990,78.431 204.947,78.149 204.210 C 77.823 203.362,79.048 202.306,80.741 201.976 C 83.004 201.535,83.192 201.554,82.945 202.200 M123.093 202.164 C 122.783 202.474,122.096 202.789,121.565 202.864 C 121.029 202.939,120.422 203.407,120.200 203.914 C 119.947 204.492,119.517 204.787,119.031 204.714 C 117.086 204.425,118.487 202.370,120.897 201.977 C 123.688 201.523,123.730 201.527,123.093 202.164 M304.545 202.200 C 304.418 202.530,304.077 202.800,303.786 202.800 C 303.496 202.800,302.829 203.348,302.304 204.019 C 301.457 205.101,301.230 205.192,300.275 204.829 C 299.059 204.366,298.989 204.112,299.790 203.054 C 300.713 201.836,304.978 201.070,304.545 202.200 " stroke="none" fill="#0c0c9c" fill-rule="evenodd"></path><path id="path1" d="M18.174 167.000 C 17.852 167.770,17.445 168.400,17.268 168.400 C 17.091 168.400,15.710 170.560,14.200 173.200 C 12.690 175.840,11.302 178.000,11.117 178.000 C 10.932 178.000,10.612 178.443,10.406 178.985 C 10.200 179.527,9.304 181.122,8.416 182.528 C 7.527 183.935,6.800 185.281,6.800 185.519 C 6.800 185.756,6.263 186.538,5.607 187.257 C 4.951 187.975,4.113 189.202,3.745 189.982 C 3.377 190.762,2.384 192.499,1.538 193.843 C 0.692 195.187,0.000 196.652,0.000 197.098 C -0.000 197.884,4.922 207.947,5.520 208.384 C 5.683 208.503,6.518 210.130,7.375 212.000 C 8.232 213.870,9.264 215.878,9.667 216.462 C 10.070 217.046,10.400 217.714,10.400 217.948 C 10.400 218.181,10.760 218.565,11.200 218.800 C 11.640 219.035,12.000 219.420,12.000 219.654 C 12.000 220.402,17.152 230.800,17.523 230.800 C 17.718 230.800,18.161 231.520,18.507 232.400 C 18.862 233.303,19.404 234.000,19.752 234.000 C 20.133 234.000,20.534 233.389,20.800 232.400 C 21.037 231.520,21.404 230.800,21.615 230.800 C 21.827 230.800,22.000 230.497,22.000 230.126 C 22.000 229.755,22.345 229.080,22.767 228.626 C 23.658 227.665,27.200 220.944,27.200 220.213 C 27.200 219.940,27.634 219.248,28.165 218.676 C 28.695 218.104,30.143 215.557,31.383 213.018 C 32.622 210.478,33.808 208.400,34.018 208.400 C 34.228 208.400,34.400 208.040,34.400 207.600 C 34.400 207.160,34.582 206.800,34.804 206.800 C 35.144 206.800,36.543 204.190,37.377 202.000 C 37.503 201.670,38.046 200.680,38.585 199.800 C 40.017 197.462,39.779 196.411,36.952 192.600 C 36.463 191.940,35.939 190.905,35.788 190.300 C 35.637 189.695,35.273 189.200,34.978 189.200 C 34.422 189.200,34.264 188.957,32.073 184.749 C 31.343 183.347,30.128 181.405,29.373 180.434 C 28.618 179.463,28.000 178.397,28.000 178.066 C 28.000 177.734,27.701 177.133,27.336 176.729 C 26.595 175.911,25.908 174.793,25.042 173.000 C 24.723 172.340,24.124 171.440,23.711 171.000 C 23.298 170.560,22.852 169.930,22.721 169.600 C 21.375 166.211,19.058 164.886,18.174 167.000 M24.098 179.800 C 23.930 180.676,23.700 180.800,22.238 180.800 L 20.570 180.800 19.785 184.700 C 19.004 188.581,18.994 188.601,17.751 188.722 C 16.537 188.840,16.142 187.120,17.218 186.400 C 17.382 186.290,17.646 184.985,17.805 183.500 L 18.093 180.800 16.647 180.800 C 15.511 180.800,15.200 180.643,15.200 180.067 C 15.200 178.884,15.519 178.800,20.011 178.800 L 24.289 178.800 24.098 179.800 M22.147 194.849 C 23.050 195.260,23.581 196.232,23.595 197.497 C 23.607 198.669,21.210 200.297,19.184 200.492 C 16.750 200.726,16.756 200.721,16.501 202.980 C 16.322 204.570,16.176 204.800,15.348 204.800 C 14.169 204.800,14.166 204.611,15.255 198.900 L 16.112 194.400 18.637 194.400 C 20.026 194.400,21.606 194.602,22.147 194.849 M18.285 195.848 C 17.275 196.858,18.016 199.249,19.300 199.125 C 20.529 199.007,20.600 198.913,20.600 197.400 C 20.600 195.825,19.228 194.905,18.285 195.848 M23.928 210.500 C 23.822 211.246,23.513 211.421,22.121 211.522 C 20.449 211.643,20.441 211.652,20.174 213.522 C 19.511 218.158,19.000 219.400,17.754 219.400 C 16.604 219.400,16.228 217.808,17.231 217.183 C 17.422 217.063,17.698 215.685,17.844 214.119 L 18.108 211.272 16.831 211.361 C 15.451 211.456,15.001 211.097,15.352 210.181 C 15.784 209.054,24.089 209.363,23.928 210.500 " stroke="none" fill="#343434" fill-rule="evenodd"></path></g></svg>