<?xml version="1.0" encoding="UTF-8" standalone="no"?>
<svg
   xmlns="http://www.w3.org/2000/svg"
   version="1.1"
   viewBox="0, 0, 400,400"
   height="400"
   width="400"
   id="svg">
  <g
     id="svgg">
    <path
       style="fill-rule:evenodd;stroke:none;stroke-width:8.37153244"
       d="m 350.15391,109.00038 c -11.05042,6.13633 -29.63522,16.19892 -41.29677,22.36036 -26.37033,13.92186 -38.1993,20.61909 -52.46439,29.7022 -6.13634,3.90951 -24.72114,14.46601 -41.29678,23.45704 -16.57563,8.99103 -34.15585,19.05361 -39.06994,22.36873 -4.91409,3.31513 -11.44389,6.79769 -14.50787,7.7353 -3.07235,0.94598 -8.46362,3.75045 -11.98803,6.22842 -3.52442,2.48635 -24.62068,14.54973 -46.88059,26.80565 -22.259902,12.2643 -48.044223,26.46242 -57.294767,31.56068 -17.797879,9.81144 -30.342872,23.53815 -30.460074,25.7315 -0.04186,0.73669 13.567911,-0.0168 29.842171,0.7752 l 38.641405,-0.51318 c 5.13175,1.60734 56.951535,2.87144 150.779675,3.68348 154.42408,-0.0666 150.92967,2.83591 151.2691,-7.26197 3.5153,-59.51321 0.0237,-189.4488 0.0237,-189.4488 -0.0586,-16.098461 -12.39235,-15.901052 -35.29687,-3.18469"
       id="path0" />
  </g>
</svg>
