<svg id="svg" xmlns="http://www.w3.org/2000/svg" xmlns:xlink="http://www.w3.org/1999/xlink" width="400" height="400" viewBox="0, 0, 400,400"><g id="svgg"><path id="path0" d="M94.314 73.892 C 91.696 74.275,85.440 76.488,83.483 77.723 C 82.843 78.127,81.587 78.734,80.693 79.072 C 75.718 80.949,75.043 81.281,73.067 82.816 C 72.260 83.443,70.757 84.363,69.727 84.861 C 67.661 85.858,65.219 87.450,63.383 88.995 C 62.727 89.548,61.433 90.600,60.509 91.333 C 59.585 92.067,58.573 92.907,58.262 93.200 C 57.950 93.493,56.455 94.873,54.940 96.267 C 51.969 98.997,48.670 102.568,45.804 106.153 C 41.786 111.180,41.333 111.782,41.333 112.100 C 41.333 112.282,40.476 113.624,39.428 115.082 C 38.380 116.540,36.924 118.993,36.192 120.533 C 35.460 122.073,34.450 123.977,33.947 124.764 C 32.962 126.308,30.916 131.362,30.274 133.838 C 30.057 134.678,29.505 136.258,29.048 137.349 C 28.115 139.579,27.136 142.807,26.667 145.200 C 26.494 146.080,26.244 147.340,26.110 148.000 C 23.471 161.022,24.782 183.824,28.712 193.283 C 29.242 194.557,30.024 196.860,30.452 198.400 C 31.000 200.376,32.048 202.865,34.014 206.857 C 35.546 209.969,36.800 212.597,36.800 212.697 C 36.800 212.797,37.918 214.571,39.285 216.639 C 40.651 218.708,41.993 220.760,42.266 221.200 C 42.865 222.165,45.427 225.336,48.452 228.855 C 51.513 232.418,59.188 239.583,61.897 241.408 C 63.127 242.237,64.937 243.549,65.919 244.324 C 66.900 245.099,68.280 246.062,68.985 246.464 C 72.302 248.355,74.001 249.399,74.647 249.942 C 75.033 250.267,75.886 250.761,76.541 251.039 C 77.197 251.318,78.873 252.057,80.267 252.683 C 81.660 253.309,83.160 253.895,83.600 253.985 C 84.040 254.076,85.295 254.686,86.388 255.342 C 87.481 255.997,88.536 256.533,88.733 256.533 C 88.929 256.533,90.554 257.009,92.345 257.591 C 95.870 258.736,98.351 259.304,101.067 259.587 C 102.020 259.687,104.478 260.122,106.529 260.555 C 112.651 261.847,113.312 261.862,163.333 261.863 C 216.603 261.864,212.984 262.030,214.042 259.529 C 214.496 258.456,214.591 148.549,214.141 146.172 C 213.408 142.310,216.856 142.638,177.268 142.672 L 143.333 142.702 141.931 143.396 C 140.072 144.316,136.681 148.032,135.370 150.588 C 135.129 151.058,134.202 152.258,133.310 153.255 C 132.419 154.251,131.321 155.607,130.871 156.267 C 130.421 156.927,129.370 158.307,128.535 159.333 C 127.701 160.360,126.081 162.520,124.937 164.133 C 123.792 165.747,122.332 167.667,121.693 168.400 C 120.422 169.856,116.853 174.633,115.629 176.516 C 115.206 177.167,114.106 178.502,113.184 179.484 C 110.595 182.240,110.270 184.375,112.283 185.401 C 113.137 185.836,114.810 185.868,136.470 185.862 C 160.742 185.856,160.802 185.858,161.459 186.922 C 161.547 187.064,161.655 192.615,161.698 199.257 C 161.785 212.485,161.764 212.693,160.244 213.478 C 159.358 213.936,118.147 214.048,114.800 213.601 C 109.001 212.827,107.352 212.483,105.880 211.740 C 105.037 211.315,103.519 210.706,102.507 210.388 C 100.199 209.663,95.177 206.986,93.457 205.565 C 92.741 204.974,91.851 204.329,91.478 204.133 C 90.640 203.692,84.847 197.559,83.186 195.354 C 82.515 194.463,81.362 192.942,80.625 191.975 C 79.888 191.008,78.891 189.268,78.409 188.108 C 77.928 186.949,77.315 185.689,77.046 185.309 C 76.442 184.455,75.611 181.769,75.240 179.467 C 75.086 178.513,74.711 176.473,74.408 174.933 C 73.338 169.509,73.394 161.855,74.548 155.733 C 74.755 154.633,75.111 152.593,75.338 151.200 C 75.862 147.984,80.037 139.258,82.547 136.133 C 83.372 135.107,84.641 133.411,85.368 132.364 C 86.261 131.079,87.426 129.886,88.958 128.686 C 90.206 127.708,91.290 126.743,91.368 126.540 C 91.583 125.979,95.072 123.650,101.254 119.941 C 101.724 119.659,103.330 119.077,104.822 118.648 L 107.536 117.867 172.234 117.875 C 222.686 117.882,237.021 117.955,237.333 118.208 C 238.611 119.246,238.524 114.607,238.667 189.174 C 238.815 266.754,238.618 259.848,240.715 261.005 L 241.827 261.618 269.769 261.605 C 295.723 261.592,297.777 261.559,298.655 261.129 C 300.552 260.201,300.393 266.502,300.465 189.523 C 300.537 113.391,300.419 118.734,302.030 118.122 C 302.436 117.968,310.498 117.867,322.387 117.867 L 342.072 117.867 343.493 117.124 C 344.519 116.588,345.309 115.866,346.336 114.524 C 347.119 113.503,348.297 112.118,348.955 111.448 C 349.613 110.778,350.537 109.677,351.009 109.002 C 352.162 107.351,358.228 99.984,359.760 98.375 C 360.435 97.666,361.623 96.151,362.401 95.009 C 363.179 93.868,364.018 92.753,364.266 92.533 C 364.664 92.179,370.397 85.272,372.749 82.311 C 373.235 81.700,374.331 80.480,375.186 79.600 C 377.823 76.885,378.121 74.995,376.084 73.910 C 375.384 73.537,96.863 73.519,94.314 73.892 M166.558 269.878 C 164.137 270.602,162.246 274.444,163.310 276.480 C 164.662 279.070,167.666 280.220,170.041 279.058 C 173.588 277.323,174.061 273.394,171.010 271.002 C 169.162 269.553,168.338 269.345,166.558 269.878 M259.467 270.073 C 257.325 271.233,255.921 274.327,256.679 276.219 C 258.350 280.396,263.825 280.737,265.789 276.785 C 267.743 272.854,263.212 268.044,259.467 270.073 M273.931 271.598 C 272.369 272.277,272.400 271.889,272.400 290.933 C 272.400 300.540,272.295 309.126,272.168 310.014 C 271.811 312.489,272.406 313.052,275.757 313.416 C 278.580 313.722,279.392 313.601,280.410 312.725 L 281.113 312.121 281.079 292.826 C 281.043 272.198,281.064 272.537,279.759 271.542 C 279.158 271.083,275.025 271.123,273.931 271.598 M180.127 276.906 C 178.646 277.551,178.604 277.880,178.651 288.400 C 178.735 307.337,178.996 308.520,183.693 311.293 C 189.191 314.540,194.942 314.105,194.927 310.443 C 194.913 307.027,193.966 305.557,191.574 305.238 C 188.289 304.801,187.638 303.654,187.616 298.267 C 187.595 292.952,188.319 291.735,191.507 291.732 C 193.970 291.730,195.129 290.145,194.858 287.152 C 194.626 284.597,193.979 284.027,190.823 283.599 C 189.055 283.359,188.108 282.411,187.868 280.643 C 187.384 277.074,186.785 276.529,183.364 276.544 C 181.962 276.550,180.592 276.703,180.127 276.906 M123.733 283.452 C 117.235 284.659,113.583 291.141,113.959 300.800 C 114.041 302.927,113.986 306.217,113.835 308.111 C 113.467 312.751,114.085 313.514,118.267 313.577 C 122.528 313.641,122.509 313.688,122.522 303.384 C 122.533 295.214,122.560 294.755,123.082 293.867 C 124.786 290.966,129.259 291.127,130.872 294.147 C 131.505 295.333,131.505 295.335,131.427 303.668 L 131.349 312.003 132.081 312.735 C 132.774 313.427,132.947 313.467,135.273 313.467 C 139.575 313.467,140.525 312.570,139.976 309.031 C 139.429 305.505,139.770 296.400,140.511 294.731 C 142.245 290.828,146.120 290.573,148.078 294.234 C 148.648 295.298,148.667 295.600,148.682 303.656 C 148.701 313.665,148.670 313.600,153.488 313.600 C 157.263 313.600,157.301 313.478,157.099 302.000 L 156.931 292.400 156.200 290.908 C 152.632 283.632,145.813 281.354,138.443 284.975 C 135.886 286.231,134.565 286.143,131.609 284.521 C 129.389 283.302,126.587 282.922,123.733 283.452 M232.933 283.458 C 230.979 283.683,228.584 284.555,227.104 285.578 C 226.007 286.337,225.518 286.929,223.446 290.000 C 222.852 290.880,222.083 291.994,221.737 292.476 C 220.961 293.556,220.717 295.534,220.842 299.738 L 220.933 302.800 222.386 305.333 C 226.363 312.266,231.928 314.948,238.479 313.089 C 240.420 312.538,240.641 312.525,241.812 312.897 C 244.988 313.906,248.607 313.759,249.876 312.570 L 250.625 311.867 250.399 303.467 C 250.092 292.033,249.767 290.795,246.191 287.428 C 242.414 283.871,238.779 282.783,232.933 283.458 M322.607 283.616 C 321.199 284.379,321.216 284.201,321.204 298.667 L 321.193 312.133 321.948 312.906 C 322.703 313.677,322.705 313.678,325.208 313.513 C 330.094 313.193,330.123 313.150,329.935 306.411 C 329.646 296.014,330.930 293.740,338.079 291.987 C 339.843 291.554,340.313 290.605,340.213 287.672 C 340.078 283.728,338.679 283.007,334.323 284.639 C 331.133 285.833,330.244 285.855,328.711 284.775 C 326.908 283.504,323.874 282.928,322.607 283.616 M90.814 283.908 C 82.374 285.435,77.473 294.344,80.070 303.442 C 82.574 312.218,93.973 316.562,101.733 311.699 C 104.779 309.790,105.285 309.369,107.033 307.289 C 110.417 303.264,109.704 301.006,104.851 300.377 L 103.435 300.194 101.918 301.808 C 97.789 306.199,93.665 306.837,90.178 303.623 C 86.158 299.918,87.404 292.098,92.373 289.842 C 96.942 287.767,98.450 292.447,93.986 294.847 C 91.223 296.332,90.728 297.715,92.373 299.360 C 93.632 300.619,96.578 300.371,97.467 298.932 C 97.561 298.781,98.217 298.363,98.926 298.004 C 99.634 297.645,100.776 296.864,101.464 296.269 C 102.152 295.673,103.214 294.937,103.824 294.631 C 107.523 292.782,107.834 291.083,105.018 288.118 C 101.323 284.229,96.669 282.849,90.814 283.908 M169.031 283.590 C 168.977 283.644,168.033 283.812,166.933 283.964 C 165.264 284.194,164.828 284.362,164.296 284.979 L 163.658 285.718 163.850 296.264 C 163.982 303.524,163.950 307.482,163.747 308.967 C 163.262 312.506,163.849 313.163,167.780 313.482 C 170.366 313.692,171.824 313.360,172.310 312.452 C 172.707 311.711,172.644 286.680,172.242 285.422 C 171.896 284.336,169.599 283.026,169.031 283.590 M298.753 283.747 C 289.200 285.004,283.556 296.763,288.280 305.566 C 290.014 308.796,294.497 312.613,297.422 313.350 C 300.830 314.208,307.027 313.399,308.859 311.858 C 309.306 311.482,310.165 310.928,310.769 310.626 C 314.573 308.724,317.598 303.344,315.742 301.781 C 313.328 299.750,311.318 299.924,308.655 302.394 C 303.386 307.279,298.494 306.614,295.495 300.606 C 294.025 297.661,294.049 296.998,295.727 294.133 C 298.253 289.821,301.954 288.065,303.738 290.333 C 304.942 291.863,304.329 293.028,301.296 294.973 C 298.662 296.663,298.386 297.207,299.336 298.828 C 300.053 300.052,300.682 300.533,301.566 300.533 C 302.149 300.533,308.036 297.106,308.993 296.209 C 309.319 295.903,310.577 294.981,311.787 294.158 C 315.289 291.781,315.242 290.871,311.444 287.504 C 307.662 284.151,303.974 283.060,298.753 283.747 M59.228 284.148 C 54.872 285.342,52.718 288.326,53.160 292.554 C 53.536 296.154,54.923 297.539,60.841 300.227 C 63.386 301.382,64.053 302.089,64.053 303.626 C 64.053 305.531,63.536 305.733,58.680 305.733 C 53.771 305.733,53.395 305.898,52.662 308.366 C 51.298 312.958,52.103 313.405,61.504 313.287 L 68.400 313.200 69.729 312.419 C 77.743 307.709,75.589 298.645,65.675 295.357 C 63.208 294.539,62.297 292.770,63.576 291.282 C 64.214 290.540,64.255 290.532,68.043 290.400 C 70.146 290.327,72.018 290.169,72.202 290.050 C 73.554 289.175,73.698 285.844,72.438 284.583 L 71.722 283.867 66.195 283.810 C 61.999 283.767,60.320 283.849,59.228 284.148 M201.591 284.333 C 200.289 285.213,200.274 285.390,200.308 299.256 C 200.345 314.222,200.058 312.966,203.555 313.436 C 207.844 314.013,208.501 313.055,208.332 306.473 C 208.078 296.589,209.222 294.030,214.649 292.343 C 217.728 291.386,218.402 290.716,218.394 288.621 C 218.374 283.840,217.177 283.038,212.496 284.667 C 211.022 285.180,209.524 285.600,209.168 285.600 C 208.812 285.600,207.910 285.180,207.164 284.667 C 205.434 283.477,203.068 283.335,201.591 284.333 M259.319 284.018 C 258.871 284.148,258.218 284.559,257.869 284.930 L 257.235 285.606 257.267 298.845 C 257.297 311.508,257.321 312.106,257.809 312.594 C 259.173 313.958,263.955 313.909,265.214 312.518 C 265.901 311.759,265.855 286.168,265.165 285.111 C 264.369 283.893,261.559 283.367,259.319 284.018 M239.398 293.243 C 241.937 295.283,242.815 300.575,241.241 304.343 C 240.634 305.795,238.584 305.884,234.395 304.640 C 229.038 303.050,228.228 294.901,233.200 292.622 C 234.702 291.933,238.206 292.284,239.398 293.243 " stroke="none" fill-rule="evenodd"></path></g></svg>