<svg id="svg" xmlns="http://www.w3.org/2000/svg"  width="400" height="400" viewBox="0, 0, 400,400"><g id="svgg"><path id="path0" d="M44.554 83.720 L 44.554 167.915 48.601 171.829 C 50.826 173.981,76.777 200.192,106.270 230.074 L 159.893 284.406 102.471 284.035 L 45.050 283.663 44.794 341.832 L 44.539 400.000 75.735 400.000 L 106.931 400.000 106.931 395.753 C 106.931 384.361,113.318 369.961,122.397 360.881 C 153.644 329.634,206.654 349.034,211.411 393.457 L 212.112 400.000 244.086 400.000 L 276.059 400.000 315.505 358.329 C 337.200 335.410,355.072 316.332,355.221 315.933 C 355.427 315.381,207.273 164.474,50.405 5.455 L 44.554 -0.475 44.554 83.720 " stroke="none" fill-rule="evenodd"></path></g></svg>