<svg id="svg" version="1.1" xmlns="http://www.w3.org/2000/svg"  width="400" height="400" viewBox="0, 0, 400,400"><g id="svgg"><path id="path0" d="M127.442 127.292 C 127.373 127.405,147.933 127.404,176.500 127.290 C 182.412 127.267,173.811 127.229,157.385 127.207 C 140.959 127.185,127.485 127.223,127.442 127.292 M341.394 128.917 C 341.395 129.833,341.423 130.187,341.456 129.703 C 341.490 129.218,341.490 128.468,341.456 128.036 C 341.421 127.604,341.394 128.000,341.394 128.917 M381.723 128.500 C 381.723 129.188,381.752 129.469,381.788 129.125 C 381.824 128.781,381.824 128.219,381.788 127.875 C 381.752 127.531,381.723 127.813,381.723 128.500 M359.779 145.000 C 359.718 146.054,359.679 147.854,359.693 149.000 C 359.713 150.624,359.749 150.238,359.856 147.250 C 360.005 143.143,359.960 141.852,359.779 145.000 M41.595 149.833 C 41.633 150.979,41.712 153.248,41.772 154.875 L 41.881 157.833 50.940 157.833 L 60.000 157.833 60.000 156.167 L 60.000 154.500 50.917 154.500 L 41.833 154.500 41.817 152.542 C 41.808 151.465,41.739 149.946,41.663 149.167 C 41.541 147.893,41.534 147.960,41.595 149.833 M59.902 151.083 C 59.902 152.733,59.927 153.386,59.958 152.533 C 59.988 151.681,59.988 150.331,59.957 149.533 C 59.927 148.736,59.902 149.433,59.902 151.083 M212.204 150.515 C 212.184 151.761,212.216 153.917,212.276 155.307 L 212.385 157.833 221.359 157.833 L 230.333 157.833 230.333 156.167 L 230.333 154.500 221.337 154.500 L 212.341 154.500 212.291 151.375 C 212.248 148.640,212.237 148.533,212.204 150.515 M158.248 149.336 C 158.191 149.429,158.079 149.465,158.000 149.417 C 157.921 149.368,157.809 149.404,157.752 149.497 C 157.681 149.612,162.482 149.653,172.532 149.626 L 187.417 149.585 172.866 149.542 C 163.272 149.513,158.350 149.442,158.417 149.332 C 158.474 149.241,158.482 149.167,158.436 149.167 C 158.391 149.167,158.306 149.243,158.248 149.336 M38.749 150.668 C 38.583 150.852,38.486 151.041,38.534 151.090 C 38.582 151.138,38.746 150.987,38.898 150.755 C 39.230 150.248,39.164 150.209,38.749 150.668 M253.703 151.515 C 253.683 152.211,253.716 153.917,253.776 155.307 L 253.885 157.833 262.943 157.833 L 272.000 157.833 272.000 156.167 L 272.000 154.500 262.922 154.500 L 253.843 154.500 253.791 152.375 C 253.760 151.109,253.724 150.761,253.703 151.515 M330.838 150.886 C 330.828 151.157,331.183 151.667,331.381 151.664 C 331.520 151.662,331.527 151.623,331.402 151.539 C 331.303 151.472,331.136 151.267,331.032 151.083 C 330.929 150.900,330.841 150.811,330.838 150.886 M233.826 151.468 C 234.034 151.771,234.247 151.975,234.301 151.921 C 234.355 151.867,234.185 151.619,233.924 151.370 L 233.450 150.917 233.826 151.468 M341.535 154.625 L 341.500 157.833 350.583 157.833 L 359.667 157.833 359.667 156.167 L 359.667 154.500 350.673 154.500 L 341.679 154.500 341.624 152.958 C 341.594 152.110,341.554 152.860,341.535 154.625 M248.529 153.083 C 248.060 153.587,247.730 153.999,247.796 153.998 C 247.921 153.996,249.574 152.167,249.452 152.167 C 249.414 152.167,248.998 152.579,248.529 153.083 M370.833 152.750 C 371.144 153.071,371.436 153.333,371.482 153.333 C 371.528 153.333,371.311 153.071,371.000 152.750 C 370.689 152.429,370.397 152.167,370.351 152.167 C 370.305 152.167,370.522 152.429,370.833 152.750 M23.479 153.282 C 23.583 153.484,23.748 153.697,23.845 153.757 C 24.177 153.962,24.102 153.751,23.695 153.333 C 23.327 152.956,23.307 152.951,23.479 153.282 M235.487 153.310 C 235.579 153.480,235.862 153.753,236.118 153.915 C 236.545 154.186,236.535 154.161,236.009 153.606 C 235.364 152.925,235.246 152.858,235.487 153.310 M278.533 154.458 C 278.363 154.802,277.874 155.671,277.445 156.389 C 277.017 157.107,276.667 157.726,276.667 157.764 C 276.667 157.802,289.792 157.833,305.833 157.833 C 321.875 157.833,335.000 157.783,335.000 157.721 C 335.000 157.660,334.893 157.491,334.763 157.346 C 334.633 157.202,334.502 156.971,334.471 156.833 C 334.441 156.696,334.379 156.546,334.333 156.500 C 334.071 156.237,333.000 154.529,333.000 154.373 C 333.000 154.270,332.926 154.141,332.835 154.085 C 332.741 154.026,332.713 154.093,332.770 154.241 C 332.859 154.474,330.192 154.500,305.762 154.500 C 278.707 154.500,278.655 154.499,278.833 154.167 C 278.931 153.983,278.973 153.833,278.926 153.833 C 278.880 153.833,278.702 154.115,278.533 154.458 M93.705 154.458 L 66.492 154.501 66.303 154.917 C 66.198 155.146,66.046 155.333,65.963 155.333 C 65.881 155.333,65.860 155.408,65.917 155.500 C 65.973 155.592,65.940 155.667,65.843 155.667 C 65.746 155.667,65.667 155.749,65.667 155.849 C 65.667 155.950,65.519 156.240,65.337 156.494 C 65.156 156.748,64.933 157.154,64.842 157.395 L 64.675 157.833 93.824 157.833 L 122.972 157.833 122.572 157.125 C 122.351 156.735,122.078 156.229,121.964 156.000 C 121.850 155.771,121.709 155.546,121.652 155.500 C 121.594 155.454,121.422 155.173,121.269 154.875 C 121.116 154.577,120.975 154.352,120.954 154.374 C 120.933 154.397,108.671 154.435,93.705 154.458 M0.167 156.167 L 0.167 157.833 9.167 157.833 L 18.167 157.833 18.167 156.167 L 18.167 154.500 9.167 154.500 L 0.167 154.500 0.167 156.167 M24.833 154.672 C 24.833 154.767,25.323 155.303,25.921 155.862 C 26.519 156.422,26.974 156.915,26.930 156.959 C 26.458 157.430,27.894 157.833,30.047 157.833 L 32.296 157.833 33.023 157.113 C 33.423 156.717,33.899 156.192,34.081 155.946 C 34.263 155.701,34.502 155.500,34.611 155.500 C 34.720 155.500,34.921 155.275,35.058 155.000 L 35.308 154.500 30.071 154.500 C 26.575 154.500,24.833 154.557,24.833 154.672 M237.194 154.958 C 237.409 155.210,238.105 155.960,238.740 156.625 L 239.894 157.833 242.113 157.833 L 244.332 157.833 245.166 156.968 C 245.625 156.492,246.000 156.046,246.000 155.975 C 246.000 155.905,246.262 155.638,246.583 155.382 C 247.676 154.510,247.625 154.500,241.985 154.500 L 236.804 154.500 237.194 154.958 M373.352 154.895 C 373.571 155.112,374.419 155.862,375.238 156.561 L 376.725 157.833 388.363 157.833 L 400.000 157.833 400.000 156.167 L 400.000 154.500 386.477 154.500 L 372.955 154.500 373.352 154.895 M127.500 156.070 C 127.500 156.841,127.454 157.591,127.399 157.736 C 127.307 157.976,130.012 158.000,157.316 158.000 L 187.333 158.000 187.333 156.333 L 187.333 154.667 157.417 154.667 L 127.500 154.667 127.500 156.070 M144.539 239.000 C 144.539 239.321,144.573 239.452,144.615 239.292 C 144.657 239.131,144.657 238.869,144.615 238.708 C 144.573 238.548,144.539 238.679,144.539 239.000 M220.072 247.685 C 220.014 247.779,220.012 247.901,220.067 247.956 C 220.122 248.011,220.167 247.959,220.167 247.841 C 220.167 247.669,220.216 247.667,220.417 247.833 C 220.561 247.953,220.667 247.969,220.667 247.872 C 220.667 247.629,220.197 247.482,220.072 247.685 M233.258 248.212 C 233.303 248.328,233.507 248.526,233.712 248.650 C 234.066 248.867,234.065 248.857,233.679 248.439 C 233.228 247.949,233.139 247.901,233.258 248.212 M218.824 248.760 C 218.508 249.087,218.362 249.307,218.500 249.249 C 218.730 249.152,219.606 248.167,219.462 248.167 C 219.427 248.167,219.140 248.434,218.824 248.760 M215.531 249.751 C 215.635 249.980,215.743 250.146,215.770 250.118 C 215.872 250.017,215.623 249.333,215.484 249.333 C 215.405 249.333,215.426 249.521,215.531 249.751 M234.784 249.745 C 234.949 249.971,235.153 250.159,235.237 250.161 C 235.322 250.164,235.215 249.979,235.000 249.750 C 234.500 249.218,234.399 249.216,234.784 249.745 M228.895 251.500 C 228.895 252.463,228.923 252.856,228.956 252.375 C 228.990 251.894,228.990 251.106,228.956 250.625 C 228.923 250.144,228.895 250.537,228.895 251.500 M207.292 250.615 C 207.131 250.657,207.000 250.763,207.000 250.851 C 207.000 250.944,207.159 250.929,207.375 250.817 C 208.000 250.491,207.977 250.436,207.292 250.615 M170.686 251.998 C 170.891 252.364,171.092 252.630,171.132 252.590 C 171.213 252.510,170.520 251.333,170.392 251.333 C 170.348 251.333,170.480 251.632,170.686 251.998 M239.088 253.031 C 239.162 253.223,240.000 253.726,240.000 253.579 C 240.000 253.548,239.776 253.363,239.501 253.168 C 239.222 252.969,239.040 252.909,239.088 253.031 M175.678 253.417 C 175.580 254.368,175.505 254.729,175.384 254.818 C 175.310 254.872,175.229 255.016,175.204 255.137 C 175.136 255.467,174.496 256.336,173.792 257.054 C 173.448 257.405,173.166 257.743,173.165 257.804 C 173.164 257.866,172.921 258.179,172.624 258.501 C 172.326 258.822,171.713 259.526,171.260 260.065 C 170.784 260.631,170.150 261.175,169.760 261.352 C 169.084 261.659,169.087 261.659,173.917 261.659 C 178.460 261.659,178.775 261.640,179.167 261.333 C 179.396 261.154,179.645 261.006,179.719 261.004 C 179.847 261.000,180.859 260.289,181.266 259.917 C 181.366 259.825,181.795 259.432,182.219 259.043 C 182.643 258.654,183.107 258.110,183.249 257.834 C 183.392 257.559,183.594 257.333,183.699 257.333 C 183.803 257.333,183.847 257.292,183.796 257.241 C 183.688 257.132,184.988 255.663,185.146 255.715 C 185.204 255.734,185.517 255.461,185.841 255.108 C 186.408 254.489,187.833 254.061,187.833 254.508 C 187.833 254.590,187.946 254.613,188.083 254.560 C 188.221 254.507,188.333 254.555,188.333 254.667 C 188.333 254.778,188.439 254.828,188.569 254.779 C 188.698 254.729,189.260 254.827,189.818 254.995 C 190.376 255.164,190.982 255.263,191.166 255.215 C 191.363 255.164,191.500 255.210,191.500 255.327 C 191.500 255.460,191.660 255.491,191.984 255.420 C 192.263 255.359,192.515 255.389,192.578 255.491 C 192.638 255.588,192.862 255.624,193.075 255.570 C 193.289 255.517,193.508 255.544,193.561 255.631 C 193.615 255.718,193.848 255.752,194.079 255.708 C 194.338 255.659,194.500 255.704,194.500 255.825 C 194.500 255.947,194.628 255.982,194.833 255.917 C 195.121 255.825,195.167 255.887,195.167 256.368 C 195.167 256.927,194.752 257.156,193.333 257.378 C 193.196 257.399,192.938 257.548,192.760 257.708 C 192.583 257.869,192.348 258.000,192.238 258.000 C 191.692 258.000,190.700 260.240,190.670 261.542 C 190.668 261.610,192.635 261.664,195.042 261.661 L 199.417 261.656 200.167 260.901 C 200.951 260.111,202.605 259.042,203.223 258.926 C 203.421 258.889,203.621 258.844,203.667 258.826 C 203.713 258.808,203.806 258.803,203.875 258.814 C 203.944 258.824,204.000 258.758,204.000 258.667 C 204.000 258.575,204.113 258.500,204.251 258.500 C 204.388 258.500,204.775 258.353,205.111 258.173 C 205.446 257.994,205.783 257.886,205.860 257.933 C 205.937 257.981,206.000 257.940,206.000 257.843 C 206.000 257.746,206.112 257.667,206.250 257.667 C 206.389 257.667,206.500 257.519,206.500 257.333 C 206.500 257.150,206.416 257.000,206.313 257.000 C 206.193 257.000,206.161 256.819,206.225 256.500 C 206.287 256.191,206.256 256.000,206.145 256.000 C 206.045 256.000,205.999 255.906,206.041 255.792 C 206.083 255.677,205.991 255.208,205.836 254.750 L 205.555 253.917 190.705 253.874 L 175.856 253.832 175.784 253.457 C 175.720 253.125,175.708 253.120,175.678 253.417 M229.025 253.542 C 229.002 253.812,228.662 253.833,224.430 253.833 C 219.751 253.833,219.333 253.869,219.333 254.264 C 219.333 254.390,219.146 254.615,218.918 254.764 C 218.690 254.914,218.542 255.099,218.589 255.176 C 218.637 255.253,218.449 255.484,218.171 255.690 C 217.894 255.895,217.667 256.142,217.667 256.238 C 217.667 256.334,217.485 256.601,217.262 256.832 C 217.040 257.062,216.523 257.606,216.114 258.042 C 215.705 258.477,215.293 258.833,215.199 258.833 C 215.105 258.833,215.003 258.899,214.972 258.979 C 214.942 259.060,214.392 259.464,213.750 259.879 C 213.108 260.293,212.292 260.865,211.935 261.150 L 211.287 261.667 215.935 261.664 L 220.583 261.661 221.436 260.872 C 222.606 259.789,223.612 259.000,223.824 259.000 C 223.921 259.000,224.000 258.941,224.000 258.869 C 224.000 258.722,224.834 258.197,225.068 258.197 C 225.152 258.197,225.287 258.077,225.368 257.932 C 225.450 257.786,225.619 257.667,225.744 257.667 C 225.870 257.667,225.997 257.610,226.028 257.542 C 226.124 257.325,227.446 256.668,227.559 256.781 C 227.618 256.840,227.667 256.789,227.667 256.667 C 227.667 256.544,227.713 256.490,227.769 256.547 C 227.926 256.704,228.873 255.748,228.908 255.396 C 228.925 255.224,228.996 254.886,229.066 254.645 C 229.136 254.404,229.161 253.992,229.121 253.728 C 229.082 253.465,229.039 253.381,229.025 253.542 M136.000 257.750 L 136.000 261.667 139.500 261.667 L 143.000 261.667 143.000 257.750 L 143.000 253.833 139.500 253.833 L 136.000 253.833 136.000 257.750 M240.533 254.059 C 240.689 254.177,240.850 254.456,240.891 254.679 C 240.932 254.901,241.117 255.531,241.303 256.079 C 241.488 256.627,241.599 257.141,241.549 257.223 C 241.498 257.304,241.540 257.422,241.641 257.484 C 241.742 257.547,241.848 257.745,241.876 257.924 C 241.903 258.103,241.966 258.325,242.014 258.417 C 242.402 259.152,242.190 259.617,241.001 260.643 L 239.814 261.667 243.321 261.667 C 247.238 261.667,246.856 261.785,247.072 260.500 C 247.110 260.271,247.159 260.046,247.180 260.000 C 247.200 259.954,247.235 259.842,247.256 259.750 C 247.277 259.658,247.309 259.546,247.327 259.500 C 247.344 259.454,247.382 259.296,247.411 259.149 C 247.440 259.001,247.634 258.514,247.842 258.065 C 248.050 257.617,248.236 257.194,248.256 257.125 C 248.276 257.056,248.310 256.944,248.332 256.875 C 248.355 256.806,248.364 256.694,248.353 256.625 C 248.342 256.556,248.398 256.500,248.477 256.500 C 248.780 256.500,248.527 255.133,248.178 254.889 C 247.988 254.756,247.833 254.542,247.833 254.412 C 247.833 254.272,247.733 254.216,247.585 254.273 C 247.443 254.327,247.292 254.253,247.234 254.101 C 247.144 253.867,246.697 253.834,243.691 253.839 C 240.845 253.843,240.299 253.881,240.533 254.059 M256.000 257.750 L 256.000 261.667 259.500 261.667 L 263.000 261.667 263.000 257.750 L 263.000 253.833 259.500 253.833 L 256.000 253.833 256.000 257.750 " stroke="none" fill="#4c544c" fill-rule="evenodd"></path><path id="path1" d="M127.390 138.917 C 127.391 139.650,127.420 139.929,127.456 139.537 C 127.491 139.145,127.490 138.545,127.454 138.204 C 127.419 137.863,127.390 138.183,127.390 138.917 M59.904 144.667 C 59.904 146.637,59.928 147.444,59.958 146.458 C 59.987 145.473,59.987 143.860,59.958 142.875 C 59.928 141.890,59.904 142.696,59.904 144.667 M359.725 144.333 C 359.725 145.112,359.754 145.431,359.789 145.042 C 359.824 144.652,359.824 144.015,359.789 143.625 C 359.754 143.235,359.725 143.554,359.725 144.333 M380.667 145.885 C 380.667 145.914,380.910 146.158,381.208 146.427 L 381.750 146.917 381.260 146.375 C 380.804 145.870,380.667 145.757,380.667 145.885 M212.217 147.500 C 212.217 148.004,212.248 148.210,212.286 147.958 C 212.324 147.706,212.324 147.294,212.286 147.042 C 212.248 146.790,212.217 146.996,212.217 147.500 M40.996 148.087 C 40.690 148.403,40.480 148.702,40.530 148.752 C 40.580 148.802,40.837 148.559,41.102 148.213 L 41.583 147.583 41.678 148.917 L 41.772 150.250 41.803 148.968 C 41.839 147.446,41.732 147.328,40.996 148.087 M230.833 148.084 C 231.153 148.450,231.481 148.825,231.562 148.917 C 231.642 149.008,231.630 148.933,231.535 148.750 C 231.440 148.567,231.112 148.192,230.806 147.917 L 230.250 147.417 230.833 148.084 M253.725 149.000 C 253.725 149.779,253.754 150.098,253.789 149.708 C 253.824 149.319,253.824 148.681,253.789 148.292 C 253.754 147.902,253.725 148.221,253.725 149.000 M132.083 148.089 C 131.665 148.291,131.651 148.314,132.000 148.230 C 132.229 148.174,132.488 148.063,132.575 147.981 C 132.791 147.779,132.672 147.805,132.083 148.089 M341.605 150.917 C 341.638 151.925,341.665 153.144,341.666 153.625 L 341.667 154.500 350.667 154.500 L 359.667 154.500 359.667 153.000 L 359.667 151.500 350.674 151.500 L 341.681 151.500 341.613 150.292 C 341.576 149.627,341.573 149.908,341.605 150.917 M39.487 149.773 C 39.116 150.177,39.112 150.197,39.439 150.027 C 39.634 149.926,39.838 149.728,39.892 149.588 C 40.028 149.233,39.952 149.267,39.487 149.773 M232.758 150.212 C 232.803 150.328,233.007 150.526,233.212 150.650 C 233.566 150.867,233.565 150.857,233.179 150.439 C 232.728 149.949,232.639 149.901,232.758 150.212 M38.170 151.246 C 37.987 151.467,36.933 151.500,30.051 151.500 L 22.142 151.500 22.488 151.939 C 22.678 152.181,23.258 152.856,23.776 153.439 L 24.719 154.500 30.023 154.500 L 35.326 154.500 36.038 153.714 C 36.430 153.281,37.143 152.518,37.624 152.018 C 38.105 151.518,38.472 151.083,38.440 151.051 C 38.407 151.018,38.286 151.106,38.170 151.246 M280.549 151.292 C 280.490 151.452,280.267 151.815,280.054 152.099 C 279.841 152.383,279.667 152.698,279.667 152.799 C 279.667 152.900,279.547 153.050,279.402 153.132 C 279.256 153.213,279.145 153.330,279.155 153.392 C 279.165 153.453,279.057 153.728,278.916 154.002 L 278.658 154.500 305.746 154.500 C 320.644 154.500,332.833 154.450,332.833 154.390 C 332.833 154.329,332.591 153.901,332.294 153.439 C 331.998 152.977,331.632 152.370,331.483 152.091 L 331.210 151.583 305.921 151.541 C 283.546 151.504,280.642 151.470,280.727 151.249 C 280.780 151.112,280.785 151.000,280.740 151.000 C 280.694 151.000,280.608 151.131,280.549 151.292 M-0.000 152.958 L 0.000 154.500 9.083 154.500 L 18.167 154.500 18.167 153.003 L 18.167 151.506 9.083 151.461 L -0.000 151.417 -0.000 152.958 M157.375 151.458 L 127.500 151.501 127.500 153.084 L 127.500 154.667 157.417 154.667 L 187.333 154.667 187.333 153.000 C 187.333 152.083,187.315 151.352,187.292 151.375 C 187.269 151.397,173.806 151.435,157.375 151.458 M234.230 151.689 C 234.335 151.839,234.964 152.533,235.627 153.231 L 236.832 154.500 242.021 154.500 L 247.210 154.500 248.480 153.160 C 249.178 152.423,249.768 151.749,249.791 151.663 C 249.815 151.567,246.753 151.489,241.935 151.462 C 234.655 151.420,234.054 151.438,234.230 151.689 M384.787 151.499 L 369.658 151.583 371.314 153.042 L 372.970 154.500 386.485 154.500 L 400.000 154.500 400.000 152.917 C 400.000 152.046,399.981 151.351,399.958 151.374 C 399.935 151.396,393.108 151.452,384.787 151.499 M41.833 153.000 L 41.833 154.500 50.936 154.500 L 60.039 154.500 59.938 154.125 C 59.883 153.919,59.837 153.244,59.836 152.625 L 59.833 151.500 50.833 151.500 L 41.833 151.500 41.833 153.000 M67.809 152.459 C 67.475 152.986,67.080 153.660,66.930 153.958 L 66.658 154.500 93.746 154.500 C 108.644 154.500,120.832 154.444,120.830 154.375 C 120.828 154.306,120.461 153.650,120.015 152.917 L 119.203 151.583 93.810 151.543 L 68.417 151.502 67.809 152.459 M212.333 153.000 L 212.333 154.500 221.333 154.500 L 230.333 154.500 230.333 153.000 L 230.333 151.500 221.333 151.500 L 212.333 151.500 212.333 153.000 M253.833 153.000 L 253.833 154.500 262.917 154.500 L 272.000 154.500 272.000 153.000 L 272.000 151.500 262.917 151.500 L 253.833 151.500 253.833 153.000 M144.608 240.500 C 144.739 241.219,144.834 241.354,144.831 240.819 C 144.829 240.598,144.754 240.304,144.664 240.167 C 144.549 239.991,144.532 240.090,144.608 240.500 M241.083 244.000 C 241.249 244.183,241.448 244.333,241.526 244.333 C 241.603 244.333,241.517 244.183,241.333 244.000 C 241.150 243.817,240.951 243.667,240.891 243.667 C 240.831 243.667,240.917 243.817,241.083 244.000 M150.756 246.514 C 150.797 247.577,151.020 248.098,151.500 248.250 C 151.683 248.308,151.833 248.410,151.833 248.476 C 151.833 248.542,151.965 248.608,152.125 248.622 C 152.285 248.637,152.900 248.840,153.490 249.074 C 154.080 249.308,154.699 249.500,154.865 249.500 C 155.031 249.500,155.167 249.575,155.167 249.667 C 155.167 249.758,155.223 249.819,155.292 249.802 C 155.560 249.733,156.500 250.035,156.500 250.190 C 156.500 250.280,156.573 250.308,156.663 250.252 C 156.753 250.197,156.966 250.226,157.137 250.318 C 157.308 250.409,157.631 250.517,157.854 250.558 C 158.686 250.708,159.667 251.058,159.667 251.203 C 159.667 251.285,159.734 251.312,159.816 251.261 C 159.897 251.210,160.282 251.281,160.670 251.418 C 162.602 252.100,164.122 251.502,164.912 249.750 C 165.627 248.163,167.508 246.499,168.500 246.575 C 168.927 246.608,169.916 248.765,169.745 249.292 C 169.708 249.406,169.750 249.500,169.839 249.500 C 169.927 249.500,170.000 249.655,170.000 249.844 C 170.000 251.348,171.718 253.418,172.833 253.259 C 173.963 253.097,174.075 253.075,174.253 252.979 C 174.533 252.828,175.843 252.800,175.818 252.945 C 175.805 253.021,175.803 253.252,175.814 253.458 L 175.833 253.833 190.639 253.833 L 205.444 253.833 205.369 252.930 C 205.279 251.841,205.768 251.230,207.111 250.751 C 208.763 250.162,212.749 247.872,213.206 247.250 C 213.273 247.158,213.329 247.142,213.331 247.213 C 213.332 247.284,213.559 247.225,213.835 247.083 C 214.581 246.697,215.508 247.352,215.232 248.071 C 215.174 248.222,215.218 248.333,215.336 248.333 C 215.476 248.333,215.509 248.494,215.442 248.833 C 215.387 249.108,215.409 249.333,215.491 249.333 C 215.573 249.333,215.690 249.559,215.750 249.835 C 216.006 250.998,216.536 250.816,218.827 248.780 C 220.304 247.466,220.419 247.433,221.049 248.128 C 221.386 248.501,221.472 248.845,221.580 250.254 C 221.664 251.338,221.645 251.385,220.459 252.989 L 219.834 253.833 224.375 253.833 L 228.917 253.833 228.939 251.708 C 228.971 248.659,228.982 248.500,229.170 248.500 C 229.268 248.500,229.295 248.323,229.235 248.081 C 229.177 247.851,229.214 247.560,229.318 247.436 C 229.421 247.311,229.454 247.074,229.391 246.909 C 229.301 246.675,229.337 246.633,229.554 246.716 C 229.708 246.775,229.833 246.752,229.833 246.664 C 229.833 246.577,230.227 246.513,230.708 246.523 C 231.618 246.540,232.500 246.916,232.500 247.286 C 232.500 247.404,232.612 247.500,232.750 247.500 C 232.887 247.500,233.000 247.563,233.000 247.640 C 233.000 247.890,235.349 250.152,236.440 250.952 C 237.023 251.381,237.500 251.791,237.500 251.865 C 237.500 251.939,237.571 252.000,237.659 252.000 C 237.847 252.000,239.950 253.451,240.090 253.677 C 240.145 253.766,241.626 253.833,243.515 253.833 L 246.844 253.833 246.281 253.270 C 245.592 252.581,244.928 251.668,245.114 251.664 C 245.189 251.663,245.170 251.606,245.072 251.539 C 244.804 251.355,243.970 249.153,244.069 248.893 C 244.117 248.769,244.079 248.667,243.984 248.667 C 243.889 248.667,243.856 248.523,243.912 248.347 C 243.968 248.172,243.936 247.980,243.840 247.921 C 243.745 247.862,243.667 247.599,243.667 247.337 C 243.667 247.075,243.621 246.742,243.566 246.597 C 243.474 246.357,239.230 246.333,197.160 246.333 L 150.857 246.333 150.788 245.958 C 150.750 245.752,150.736 246.002,150.756 246.514 M136.000 250.083 L 136.000 253.833 139.500 253.833 L 143.000 253.833 143.000 250.083 L 143.000 246.333 139.500 246.333 L 136.000 246.333 136.000 250.083 M256.000 250.083 L 256.000 253.833 259.500 253.833 L 263.000 253.833 263.000 250.083 L 263.000 246.333 259.500 246.333 L 256.000 246.333 256.000 250.083 " stroke="none" fill="#646464" fill-rule="evenodd"></path><path id="path2" d="M212.073 131.667 C 212.073 134.096,212.096 135.090,212.125 133.875 C 212.153 132.660,212.153 130.673,212.125 129.458 C 212.096 128.244,212.073 129.237,212.073 131.667 M399.894 128.917 C 399.895 129.833,399.923 130.187,399.956 129.703 C 399.990 129.218,399.990 128.468,399.956 128.036 C 399.921 127.604,399.894 128.000,399.894 128.917 M127.236 130.500 C 127.236 132.196,127.261 132.890,127.291 132.042 C 127.321 131.194,127.321 129.806,127.291 128.958 C 127.261 128.110,127.236 128.804,127.236 130.500 M381.740 134.250 C 381.740 136.817,381.763 137.843,381.791 136.532 C 381.820 135.220,381.819 133.120,381.791 131.865 C 381.763 130.610,381.740 131.683,381.740 134.250 M341.406 135.000 C 341.406 137.521,341.430 138.552,341.458 137.292 C 341.486 136.031,341.486 133.969,341.458 132.708 C 341.430 131.448,341.406 132.479,341.406 135.000 M359.749 151.056 C 359.682 154.030,359.662 156.565,359.705 156.690 C 359.748 156.815,359.839 154.418,359.909 151.365 C 359.978 148.311,359.998 145.776,359.954 145.731 C 359.909 145.687,359.817 148.083,359.749 151.056 M127.401 152.083 C 127.401 153.550,127.427 154.128,127.457 153.367 C 127.488 152.606,127.488 151.406,127.457 150.700 C 127.426 149.994,127.401 150.617,127.401 152.083 M41.607 154.167 C 41.644 156.321,41.720 158.665,41.776 159.376 L 41.877 160.670 50.897 160.626 L 59.917 160.583 59.965 159.208 L 60.013 157.833 50.923 157.833 L 41.833 157.833 41.812 156.458 C 41.800 155.702,41.734 153.996,41.665 152.667 C 41.564 150.720,41.552 151.012,41.607 154.167 M302.375 150.625 C 304.277 150.652,307.390 150.652,309.292 150.625 C 311.194 150.598,309.637 150.576,305.833 150.576 C 302.029 150.576,300.473 150.598,302.375 150.625 M21.167 150.885 C 21.167 150.914,21.410 151.158,21.708 151.427 L 22.250 151.917 21.760 151.375 C 21.304 150.870,21.167 150.757,21.167 150.885 M333.000 154.450 C 333.000 154.673,333.458 155.264,333.555 155.166 C 333.601 155.121,333.494 154.906,333.319 154.690 C 333.144 154.473,333.000 154.365,333.000 154.450 M0.036 155.417 C 0.017 155.967,0.050 157.373,0.110 158.542 L 0.218 160.667 9.192 160.667 L 18.167 160.667 18.167 159.250 L 18.167 157.833 9.172 157.833 L 0.178 157.833 0.124 156.125 C 0.095 155.185,0.055 154.867,0.036 155.417 M212.220 157.542 L 212.199 160.667 221.266 160.667 L 230.333 160.667 230.333 159.250 L 230.333 157.833 221.339 157.833 L 212.345 157.833 212.293 156.125 C 212.265 155.185,212.232 155.823,212.220 157.542 M253.703 155.667 C 253.684 156.354,253.717 157.760,253.776 158.792 L 253.884 160.667 262.942 160.667 L 272.000 160.667 272.000 159.250 L 272.000 157.833 262.922 157.833 L 253.845 157.833 253.791 156.125 C 253.745 154.669,253.732 154.601,253.703 155.667 M278.117 154.933 C 277.953 155.153,277.878 155.333,277.952 155.333 C 278.097 155.333,278.557 154.667,278.470 154.583 C 278.441 154.555,278.282 154.713,278.117 154.933 M373.653 155.391 C 373.891 155.688,374.500 156.078,374.500 155.934 C 374.500 155.891,374.256 155.685,373.958 155.476 C 373.574 155.207,373.485 155.182,373.653 155.391 M246.167 155.750 C 246.049 155.892,245.990 156.046,246.036 156.091 C 246.082 156.137,246.216 156.059,246.333 155.917 C 246.451 155.775,246.510 155.621,246.464 155.575 C 246.418 155.529,246.284 155.608,246.167 155.750 M277.617 155.792 C 277.579 155.860,277.337 156.292,277.080 156.750 C 276.822 157.208,276.689 157.508,276.784 157.417 C 277.025 157.183,277.884 155.667,277.776 155.667 C 277.727 155.667,277.655 155.723,277.617 155.792 M25.833 155.874 C 25.833 156.056,26.820 157.069,26.910 156.979 C 26.957 156.932,26.734 156.641,26.414 156.331 C 26.095 156.021,25.833 155.816,25.833 155.874 M375.083 156.666 C 375.139 156.757,375.350 156.918,375.551 157.023 C 375.914 157.214,375.914 157.213,375.599 156.858 C 375.281 156.499,374.890 156.354,375.083 156.666 M244.987 157.106 C 244.765 157.348,244.689 157.513,244.819 157.472 C 245.039 157.403,245.631 156.667,245.466 156.667 C 245.425 156.667,245.210 156.864,244.987 157.106 M32.776 157.333 L 32.355 157.833 30.060 157.833 L 27.766 157.833 28.386 158.469 C 28.728 158.818,28.964 159.147,28.911 159.200 C 28.859 159.252,29.095 159.525,29.437 159.806 L 30.057 160.318 30.654 159.797 C 30.982 159.511,31.463 158.989,31.723 158.638 C 31.983 158.287,32.255 158.000,32.328 158.000 C 32.401 158.000,32.661 157.737,32.905 157.417 C 33.449 156.703,33.356 156.644,32.776 157.333 M64.529 157.625 C 64.371 157.969,64.021 158.587,63.751 159.000 C 63.482 159.412,63.256 159.787,63.250 159.833 C 63.243 159.879,63.144 160.085,63.030 160.292 L 62.822 160.667 71.801 160.667 L 80.780 160.667 81.234 159.833 L 81.687 159.000 93.885 159.000 L 106.083 159.000 106.551 159.834 L 107.019 160.667 115.843 160.667 C 120.696 160.667,124.664 160.610,124.661 160.542 C 124.658 160.473,124.548 160.274,124.417 160.100 C 124.285 159.927,124.217 159.720,124.266 159.641 C 124.315 159.562,124.253 159.459,124.129 159.411 C 124.006 159.364,123.757 158.990,123.577 158.581 L 123.250 157.836 93.962 157.835 L 64.675 157.833 64.833 157.417 C 65.079 156.770,64.851 156.926,64.529 157.625 M239.005 157.125 C 239.008 157.194,239.214 157.394,239.464 157.570 L 239.917 157.890 239.513 157.445 C 239.088 156.977,238.997 156.920,239.005 157.125 M376.333 157.629 C 376.333 157.737,376.540 157.956,376.792 158.114 C 377.044 158.273,377.475 158.612,377.750 158.867 C 378.025 159.123,378.611 159.632,379.053 160.000 L 379.857 160.669 389.887 160.626 L 399.917 160.583 399.965 159.208 L 400.013 157.833 388.373 157.833 C 379.542 157.833,376.685 157.785,376.533 157.633 C 376.382 157.482,376.333 157.481,376.333 157.629 M276.275 158.115 C 276.124 158.315,276.000 158.559,276.000 158.656 C 276.000 158.754,275.912 158.833,275.806 158.833 C 275.699 158.833,275.659 158.881,275.717 158.940 C 275.776 158.998,275.686 159.242,275.517 159.481 C 275.348 159.721,275.158 160.085,275.094 160.292 L 274.978 160.667 283.909 160.667 L 292.840 160.667 293.030 160.250 C 293.135 160.021,293.275 159.833,293.342 159.833 C 293.409 159.833,293.511 159.646,293.568 159.417 L 293.673 159.000 305.920 159.000 C 314.132 159.000,318.167 159.056,318.167 159.170 C 318.167 159.263,318.355 159.638,318.585 160.003 L 319.004 160.667 327.847 160.667 L 336.689 160.667 336.572 160.292 C 336.507 160.085,336.315 159.739,336.146 159.522 C 335.977 159.305,335.879 159.061,335.929 158.980 C 335.979 158.900,335.942 158.833,335.847 158.833 C 335.752 158.833,335.542 158.590,335.379 158.292 L 335.083 157.750 305.817 157.750 L 276.550 157.750 276.275 158.115 M240.363 158.375 C 241.558 160.054,242.964 160.685,242.995 159.556 C 242.998 159.450,243.244 159.159,243.542 158.910 C 244.709 157.932,244.581 157.833,242.150 157.833 L 239.977 157.833 240.363 158.375 M341.500 159.250 L 341.500 160.667 350.583 160.667 L 359.667 160.667 359.667 159.250 L 359.667 157.833 350.583 157.833 L 341.500 157.833 341.500 159.250 M127.368 159.292 L 127.417 160.583 157.333 160.583 L 187.250 160.583 187.299 159.292 L 187.347 158.000 157.333 158.000 L 127.319 158.000 127.368 159.292 M263.073 199.167 C 263.073 201.688,263.096 202.719,263.125 201.458 C 263.153 200.198,263.153 198.135,263.125 196.875 C 263.096 195.615,263.073 196.646,263.073 199.167 M151.292 196.458 C 155.806 196.483,163.194 196.483,167.708 196.458 C 172.223 196.434,168.529 196.413,159.500 196.413 C 150.471 196.413,146.777 196.434,151.292 196.458 M188.875 196.458 C 193.069 196.483,199.931 196.483,204.125 196.458 C 208.319 196.434,204.887 196.413,196.500 196.413 C 188.112 196.413,184.681 196.434,188.875 196.458 M230.208 196.458 C 234.952 196.483,242.715 196.483,247.458 196.458 C 252.202 196.434,248.321 196.414,238.833 196.414 C 229.346 196.414,225.465 196.434,230.208 196.458 M155.075 215.708 L 154.417 216.417 155.125 215.758 C 155.784 215.145,155.910 215.000,155.784 215.000 C 155.757 215.000,155.438 215.319,155.075 215.708 M220.857 252.024 C 220.740 252.212,220.680 252.402,220.725 252.447 C 220.770 252.492,220.893 252.366,221.000 252.167 C 221.252 251.696,221.135 251.579,220.857 252.024 M206.169 256.625 C 206.168 256.831,206.242 257.000,206.333 257.000 C 206.542 257.000,206.542 256.823,206.333 256.500 C 206.203 256.298,206.171 256.322,206.169 256.625 M216.333 257.708 C 216.087 258.044,216.047 258.160,216.227 258.014 C 216.501 257.792,216.914 257.167,216.787 257.167 C 216.755 257.167,216.551 257.410,216.333 257.708 M172.833 257.917 C 172.716 258.059,172.657 258.212,172.702 258.258 C 172.748 258.304,172.882 258.225,173.000 258.083 C 173.118 257.941,173.177 257.788,173.131 257.742 C 173.085 257.696,172.951 257.775,172.833 257.917 M182.158 259.125 L 181.583 259.750 182.208 259.176 C 182.552 258.860,182.833 258.578,182.833 258.551 C 182.833 258.423,182.692 258.543,182.158 259.125 M202.892 258.999 C 202.695 259.078,202.481 259.230,202.415 259.335 C 202.350 259.442,202.528 259.408,202.815 259.259 C 203.100 259.112,203.333 258.956,203.333 258.912 C 203.333 258.818,203.345 258.816,202.892 258.999 M171.716 259.204 C 171.338 259.692,171.315 259.890,171.676 259.546 C 171.890 259.343,172.023 259.135,171.973 259.084 C 171.922 259.033,171.807 259.088,171.716 259.204 M214.292 259.307 C 214.040 259.459,213.834 259.645,213.834 259.720 C 213.833 259.826,214.452 259.469,214.986 259.054 C 215.209 258.881,214.676 259.075,214.292 259.307 M201.417 259.833 C 201.142 260.015,200.992 260.163,201.083 260.162 C 201.250 260.159,202.157 259.510,202.000 259.505 C 201.954 259.503,201.692 259.651,201.417 259.833 M241.794 259.679 C 241.634 259.772,241.418 260.013,241.314 260.215 C 241.157 260.518,241.216 260.497,241.645 260.094 C 242.303 259.477,242.345 259.357,241.794 259.679 M222.458 259.899 C 222.298 260.020,222.167 260.166,222.167 260.221 C 222.167 260.409,222.640 260.143,222.732 259.904 C 222.842 259.618,222.829 259.617,222.458 259.899 M170.600 260.525 C 170.335 260.790,170.153 261.041,170.195 261.084 C 170.238 261.127,170.526 260.900,170.836 260.581 C 171.145 260.261,171.328 260.010,171.241 260.021 C 171.154 260.033,170.866 260.260,170.600 260.525 M221.166 261.084 C 220.951 261.313,220.852 261.500,220.945 261.500 C 221.158 261.500,221.749 260.860,221.639 260.750 C 221.594 260.705,221.381 260.855,221.166 261.084 M179.410 261.178 C 179.233 261.464,179.391 261.492,179.740 261.236 C 180.011 261.039,180.019 261.000,179.792 261.000 C 179.642 261.000,179.470 261.080,179.410 261.178 M239.518 261.765 C 239.050 262.186,238.667 262.633,238.667 262.757 C 238.667 262.882,238.555 263.046,238.419 263.122 C 238.147 263.274,237.144 264.785,237.096 265.116 C 237.079 265.230,237.018 265.371,236.960 265.429 C 236.818 265.571,222.817 265.676,222.593 265.537 C 222.496 265.476,221.690 265.412,220.802 265.394 C 217.990 265.339,217.662 264.403,219.810 262.565 C 220.863 261.664,220.876 261.667,215.833 261.667 C 212.833 261.667,211.167 261.726,211.167 261.833 C 211.167 261.925,211.050 262.000,210.907 262.000 C 210.764 262.000,210.687 262.065,210.736 262.144 C 210.785 262.224,210.597 262.710,210.318 263.225 C 210.039 263.741,209.858 264.238,209.915 264.331 C 209.973 264.424,209.943 264.500,209.848 264.500 C 209.754 264.500,209.720 264.612,209.773 264.750 C 209.826 264.888,209.778 265.000,209.667 265.000 C 209.555 265.000,209.506 265.109,209.557 265.242 C 209.659 265.508,200.645 265.722,200.527 265.457 C 200.497 265.388,200.417 265.365,200.350 265.406 C 200.283 265.448,199.844 265.369,199.374 265.231 C 198.539 264.986,198.311 264.481,198.669 263.667 C 198.690 263.621,198.695 263.522,198.682 263.446 C 198.652 263.271,199.376 261.935,199.542 261.861 C 200.049 261.636,199.099 261.594,195.137 261.667 L 190.607 261.750 190.477 262.236 C 190.406 262.503,190.383 262.779,190.426 262.849 C 190.470 262.919,190.428 263.025,190.333 263.083 C 190.239 263.142,190.204 263.260,190.257 263.345 C 190.310 263.430,190.293 263.594,190.221 263.708 C 190.148 263.823,190.078 263.973,190.065 264.042 C 190.052 264.110,190.026 264.185,190.007 264.208 C 189.988 264.231,189.953 264.423,189.930 264.633 C 189.833 265.513,189.869 265.509,183.341 265.509 C 177.903 265.509,177.254 265.480,176.976 265.228 C 176.638 264.922,176.562 264.500,176.845 264.500 C 176.943 264.500,176.978 264.360,176.923 264.188 C 176.822 263.869,178.092 262.114,178.539 261.954 C 179.147 261.737,178.132 261.675,173.760 261.662 L 168.955 261.647 167.975 262.252 C 167.436 262.585,167.035 262.921,167.084 263.000 C 167.132 263.079,167.038 263.243,166.875 263.364 C 166.711 263.484,166.454 263.771,166.304 264.000 C 166.153 264.229,165.802 264.660,165.524 264.958 L 165.019 265.500 154.009 265.500 L 143.000 265.500 143.000 263.583 L 143.000 261.667 139.479 261.667 L 135.957 261.667 136.048 264.458 C 136.097 265.994,136.191 267.419,136.255 267.625 L 136.372 268.000 199.432 268.000 L 262.491 268.000 262.746 267.508 C 262.943 267.127,263.000 266.413,263.000 264.342 L 263.000 261.667 259.500 261.667 L 256.000 261.667 256.000 263.583 L 256.000 265.500 251.313 265.500 L 246.627 265.500 246.741 263.708 C 246.804 262.723,246.887 261.767,246.926 261.583 C 246.965 261.400,246.954 261.344,246.901 261.458 C 246.829 261.615,245.942 261.667,243.301 261.667 L 239.796 261.667 240.190 261.339 C 240.406 261.159,240.535 261.009,240.476 261.006 C 240.418 261.002,239.986 261.344,239.518 261.765 " stroke="none" fill="#3c3c3c" fill-rule="evenodd"></path><path id="path3" d="M0.167 130.583 L 0.167 133.833 11.362 133.833 L 22.558 133.833 22.155 133.375 C 21.933 133.123,21.264 132.386,20.668 131.738 C 20.071 131.089,18.921 129.833,18.111 128.946 L 16.638 127.333 8.402 127.333 L 0.167 127.333 0.167 130.583 M42.450 127.917 C 42.120 128.237,41.771 128.500,41.675 128.500 C 41.579 128.500,41.500 128.586,41.500 128.690 C 41.500 128.795,41.144 129.296,40.708 129.803 C 40.273 130.310,39.475 131.255,38.935 131.904 C 38.394 132.553,37.800 133.252,37.614 133.458 L 37.275 133.833 48.554 133.833 L 59.833 133.833 59.833 130.583 L 59.833 127.333 51.442 127.333 L 43.051 127.333 42.450 127.917 M83.404 127.461 C 83.305 127.528,82.714 128.446,82.090 129.500 C 81.467 130.554,80.712 131.792,80.414 132.250 C 80.115 132.708,79.785 133.252,79.680 133.458 L 79.488 133.833 93.744 133.833 C 101.585 133.833,108.000 133.773,108.000 133.699 C 108.000 133.624,107.727 133.118,107.392 132.574 C 107.058 132.029,106.605 131.283,106.386 130.917 C 106.166 130.550,105.896 130.100,105.785 129.917 C 105.674 129.733,105.186 129.077,104.701 128.458 L 103.819 127.333 93.701 127.336 C 88.136 127.337,83.503 127.394,83.404 127.461 M212.333 130.583 L 212.333 133.833 223.592 133.833 L 234.851 133.833 232.717 131.486 C 231.543 130.194,230.398 128.892,230.172 128.592 C 229.173 127.269,229.666 127.333,220.502 127.333 L 212.333 127.333 212.333 130.583 M253.980 128.458 C 253.378 129.077,252.080 130.540,251.096 131.708 L 249.308 133.833 260.654 133.833 L 272.000 133.833 272.000 130.583 L 272.000 127.333 263.537 127.333 L 255.074 127.333 253.980 128.458 M295.001 128.025 C 294.725 128.405,294.500 128.788,294.500 128.874 C 294.500 128.961,294.359 129.231,294.186 129.474 C 294.014 129.718,293.724 130.179,293.542 130.500 C 293.360 130.821,292.830 131.702,292.363 132.458 L 291.515 133.833 305.758 133.833 C 313.591 133.833,320.000 133.800,320.000 133.759 C 320.000 133.445,317.065 128.764,316.302 127.863 L 315.855 127.333 305.678 127.333 L 295.502 127.333 295.001 128.025 M341.557 129.708 C 341.617 131.015,341.666 132.477,341.666 132.958 L 341.667 133.833 354.357 133.833 L 367.048 133.833 365.982 132.858 C 365.396 132.322,363.792 130.863,362.417 129.616 L 359.917 127.348 350.682 127.341 L 341.448 127.333 341.557 129.708 M381.833 130.583 L 381.833 133.833 390.833 133.833 L 399.833 133.833 399.833 135.694 C 399.833 136.718,399.880 137.509,399.937 137.452 C 399.994 137.395,399.985 135.095,399.917 132.341 L 399.794 127.333 390.814 127.333 L 381.833 127.333 381.833 130.583 M127.500 130.750 L 127.500 134.000 157.327 134.000 L 187.154 134.000 187.209 135.458 C 187.240 136.260,187.280 134.798,187.299 132.208 L 187.333 127.500 157.417 127.500 L 127.500 127.500 127.500 130.750 M0.062 135.750 C 0.063 136.758,0.090 137.149,0.123 136.619 C 0.157 136.088,0.156 135.263,0.123 134.786 C 0.089 134.308,0.062 134.742,0.062 135.750 M141.000 189.195 C 141.000 189.257,140.779 189.355,140.508 189.415 C 139.308 189.678,136.966 191.663,136.726 192.621 C 136.673 192.829,136.566 193.000,136.487 193.000 C 136.408 193.000,136.387 193.112,136.440 193.250 C 136.492 193.387,136.460 193.500,136.367 193.500 C 136.274 193.500,136.237 193.650,136.285 193.833 C 136.333 194.017,136.300 194.167,136.211 194.167 C 136.111 194.167,136.036 196.227,136.014 199.583 L 135.978 205.000 139.489 205.000 L 143.000 205.000 143.000 200.583 L 143.000 196.167 159.604 196.167 L 176.207 196.167 175.964 196.533 C 175.691 196.944,173.843 198.026,173.635 197.897 C 173.561 197.851,173.500 197.886,173.500 197.975 C 173.500 198.064,172.694 198.567,171.708 199.092 C 168.696 200.698,166.245 202.448,164.507 204.236 L 163.764 205.000 177.904 205.000 L 192.044 205.000 190.435 203.916 C 187.643 202.037,183.000 198.323,183.000 197.969 C 183.000 197.884,182.938 197.852,182.863 197.899 C 182.705 197.996,181.000 196.552,181.000 196.320 C 181.000 196.228,187.101 196.167,196.383 196.167 L 211.766 196.167 212.001 196.792 C 212.130 197.135,212.239 197.454,212.243 197.500 C 212.290 197.978,213.404 199.746,214.045 200.361 C 215.954 202.191,220.623 203.427,227.500 203.923 C 228.188 203.972,228.769 204.068,228.793 204.136 C 228.817 204.203,229.136 204.230,229.501 204.195 C 229.933 204.154,230.167 204.200,230.167 204.326 C 230.167 204.432,230.230 204.481,230.306 204.433 C 230.529 204.296,237.304 204.622,238.500 204.827 C 239.134 204.936,241.002 204.993,243.000 204.965 C 246.794 204.911,246.927 204.791,244.000 204.062 C 243.313 203.890,242.725 203.693,242.694 203.624 C 242.663 203.555,242.569 203.541,242.483 203.594 C 242.398 203.646,241.936 203.609,241.456 203.511 C 240.592 203.335,240.259 203.292,238.177 203.087 C 237.587 203.029,237.025 202.932,236.927 202.871 C 236.830 202.810,236.583 202.782,236.378 202.808 C 236.173 202.835,235.911 202.798,235.795 202.726 C 235.678 202.654,235.377 202.617,235.125 202.644 C 234.873 202.670,234.667 202.613,234.667 202.518 C 234.667 202.422,234.559 202.385,234.428 202.435 C 233.841 202.661,225.167 200.830,225.167 200.481 C 225.167 200.406,225.064 200.383,224.938 200.431 C 224.812 200.480,224.596 200.406,224.458 200.268 C 224.320 200.129,224.173 200.050,224.131 200.091 C 223.937 200.285,222.398 199.556,221.797 198.984 C 221.112 198.333,221.004 197.552,221.441 196.415 C 221.524 196.197,223.667 196.167,238.768 196.167 L 256.000 196.167 256.000 200.583 L 256.000 205.000 259.506 205.000 L 263.013 205.000 262.965 199.458 L 262.917 193.917 262.355 192.719 C 261.728 191.380,261.361 190.967,260.468 190.594 C 260.132 190.454,259.458 190.094,258.970 189.795 L 258.083 189.250 199.542 189.167 C 167.344 189.121,141.000 189.134,141.000 189.195 " stroke="none" fill="#dfe1df" fill-rule="evenodd"></path><path id="path4" d="M127.403 130.500 C 127.403 132.196,127.427 132.890,127.458 132.042 C 127.488 131.194,127.488 129.806,127.458 128.958 C 127.427 128.110,127.403 128.804,127.403 130.500 M59.897 135.750 C 59.897 136.850,59.924 137.278,59.957 136.702 C 59.990 136.125,59.989 135.225,59.956 134.702 C 59.923 134.178,59.897 134.650,59.897 135.750 M247.000 136.167 C 246.804 136.442,246.681 136.667,246.727 136.667 C 246.773 136.667,246.971 136.442,247.167 136.167 C 247.362 135.892,247.485 135.667,247.439 135.667 C 247.394 135.667,247.196 135.892,247.000 136.167 M212.230 139.333 C 212.230 140.387,212.257 140.819,212.290 140.292 C 212.323 139.765,212.323 138.902,212.290 138.375 C 212.257 137.848,212.230 138.279,212.230 139.333 M27.500 139.047 C 27.500 139.079,27.725 139.320,28.000 139.583 C 28.275 139.847,28.500 139.987,28.500 139.896 C 28.500 139.804,28.275 139.563,28.000 139.360 C 27.725 139.156,27.500 139.016,27.500 139.047 M134.708 140.458 C 138.719 140.483,145.281 140.483,149.292 140.458 C 153.302 140.433,150.021 140.413,142.000 140.413 C 133.979 140.413,130.698 140.433,134.708 140.458 M241.583 141.333 C 241.847 141.608,242.117 141.833,242.183 141.833 C 242.249 141.833,242.106 141.608,241.865 141.333 C 241.623 141.058,241.353 140.833,241.265 140.833 C 241.177 140.833,241.320 141.058,241.583 141.333 M341.606 143.833 C 341.639 145.254,341.666 146.810,341.666 147.292 L 341.667 148.167 350.667 148.167 L 359.667 148.167 359.667 146.333 L 359.667 144.500 350.672 144.500 L 341.678 144.500 341.613 142.875 C 341.576 141.981,341.574 142.412,341.606 143.833 M378.570 144.133 L 378.890 144.506 370.192 144.461 C 363.624 144.428,361.558 144.463,361.755 144.608 C 362.017 144.799,363.029 145.661,364.907 147.292 L 365.914 148.167 382.957 148.167 L 400.000 148.167 400.000 146.333 L 400.000 144.500 390.924 144.500 L 381.847 144.500 381.799 145.747 L 381.750 146.994 380.000 145.377 C 379.037 144.488,378.394 143.928,378.570 144.133 M72.667 144.583 C 72.580 144.813,72.431 145.000,72.337 145.000 C 72.244 145.000,72.180 145.056,72.196 145.125 C 72.247 145.345,71.786 146.167,71.612 146.167 C 71.520 146.167,71.489 146.211,71.543 146.265 C 71.596 146.319,71.421 146.708,71.154 147.131 C 70.886 147.553,70.667 147.959,70.667 148.033 C 70.667 148.106,74.624 148.167,79.461 148.167 L 88.255 148.167 88.919 147.062 C 89.284 146.454,89.749 145.779,89.951 145.562 C 90.153 145.344,90.275 145.167,90.223 145.167 C 90.171 145.167,90.239 144.998,90.374 144.792 L 90.620 144.417 81.715 144.461 C 75.709 144.491,72.844 144.451,72.915 144.336 C 72.973 144.243,72.976 144.167,72.922 144.167 C 72.869 144.167,72.754 144.354,72.667 144.583 M96.788 144.708 C 96.933 144.869,96.996 145.000,96.928 145.000 C 96.861 145.000,97.023 145.281,97.289 145.625 C 97.555 145.969,97.969 146.593,98.210 147.013 C 98.922 148.255,98.205 148.174,108.068 148.126 L 117.016 148.083 116.233 146.833 C 115.802 146.146,115.293 145.341,115.100 145.045 L 114.750 144.506 105.637 144.462 C 96.967 144.419,96.536 144.431,96.788 144.708 M143.626 144.624 C 143.354 144.738,143.065 144.790,142.983 144.739 C 142.901 144.689,142.833 144.722,142.833 144.813 C 142.833 144.905,142.702 144.975,142.542 144.969 C 142.381 144.964,141.923 145.080,141.524 145.228 C 141.125 145.377,140.731 145.456,140.649 145.406 C 140.567 145.355,140.500 145.401,140.500 145.508 C 140.500 145.615,140.387 145.659,140.250 145.606 C 140.112 145.554,140.000 145.577,140.000 145.659 C 140.000 145.778,139.131 146.071,138.961 146.009 C 138.937 146.000,138.293 146.221,137.530 146.499 C 136.767 146.777,136.080 146.966,136.002 146.918 C 135.925 146.870,135.837 146.893,135.806 146.968 C 135.775 147.043,135.037 147.336,134.167 147.619 L 132.583 148.133 147.119 148.150 C 159.004 148.164,161.785 148.125,162.369 147.938 C 162.762 147.813,164.021 147.427,165.167 147.081 C 166.313 146.736,167.813 146.265,168.500 146.034 C 169.188 145.804,169.900 145.596,170.083 145.572 C 170.267 145.548,170.417 145.516,170.417 145.501 C 170.417 145.486,170.529 145.449,170.667 145.418 C 170.804 145.387,171.243 145.244,171.643 145.099 C 172.042 144.954,172.436 144.877,172.518 144.928 C 172.600 144.978,172.667 144.946,172.667 144.855 C 172.667 144.765,172.798 144.657,172.958 144.616 C 173.119 144.574,166.696 144.513,158.685 144.479 C 147.323 144.430,144.011 144.462,143.626 144.624 M284.454 145.083 C 284.229 145.450,283.734 146.255,283.355 146.872 C 282.977 147.489,282.667 148.033,282.667 148.080 C 282.667 148.128,286.632 148.167,291.478 148.167 L 300.290 148.167 301.207 146.708 C 301.711 145.906,302.211 145.083,302.316 144.878 L 302.509 144.506 293.686 144.461 L 284.864 144.417 284.454 145.083 M317.815 144.500 L 309.046 144.583 309.931 146.000 C 310.418 146.779,310.936 147.585,311.082 147.792 L 311.349 148.167 320.172 148.167 L 328.994 148.167 327.806 146.292 C 327.153 145.260,326.611 144.417,326.601 144.417 C 326.591 144.417,322.638 144.454,317.815 144.500 M0.000 146.333 L 0.000 148.167 9.083 148.167 C 18.056 148.167,18.167 148.163,18.167 147.833 C 18.167 147.650,18.230 147.500,18.308 147.500 C 18.385 147.500,18.584 147.650,18.750 147.833 C 19.046 148.160,19.263 148.167,30.000 148.167 C 40.737 148.167,40.954 148.160,41.250 147.833 C 41.416 147.650,41.615 147.500,41.692 147.500 C 41.770 147.500,41.833 147.650,41.833 147.833 C 41.833 148.163,41.944 148.167,50.833 148.167 L 59.833 148.167 59.833 146.333 L 59.833 144.500 29.917 144.500 L 0.000 144.500 0.000 146.333 M212.333 146.333 L 212.333 148.167 221.353 148.167 C 230.290 148.167,230.371 148.164,230.285 147.833 C 230.237 147.650,230.254 147.500,230.323 147.500 C 230.392 147.500,230.584 147.650,230.750 147.833 C 231.046 148.160,231.263 148.167,242.000 148.167 C 252.737 148.167,252.954 148.160,253.250 147.833 C 253.416 147.650,253.615 147.500,253.692 147.500 C 253.770 147.500,253.833 147.650,253.833 147.833 C 253.833 148.163,253.944 148.167,262.917 148.167 L 272.000 148.167 272.000 146.333 L 272.000 144.500 242.167 144.500 L 212.333 144.500 212.333 146.333 M170.708 188.958 C 186.635 188.982,212.698 188.982,228.625 188.958 C 244.552 188.935,231.521 188.916,199.667 188.916 C 167.813 188.916,154.781 188.935,170.708 188.958 M245.209 209.583 C 245.211 209.950,245.245 210.080,245.285 209.873 C 245.324 209.666,245.323 209.366,245.281 209.206 C 245.239 209.047,245.207 209.217,245.209 209.583 M245.875 216.736 C 245.233 217.387,245.141 217.738,245.765 217.154 C 246.135 216.808,246.609 216.146,246.464 216.177 C 246.438 216.182,246.173 216.434,245.875 216.736 M230.877 219.120 C 231.131 219.158,231.506 219.157,231.711 219.117 C 231.916 219.078,231.708 219.046,231.250 219.048 C 230.792 219.049,230.624 219.081,230.877 219.120 M136.000 234.417 L 136.000 238.667 139.500 238.667 L 143.000 238.667 143.000 234.417 L 143.000 230.167 139.500 230.167 L 136.000 230.167 136.000 234.417 M148.298 230.458 C 146.672 232.321,145.059 235.413,144.885 236.998 C 144.839 237.410,144.744 237.860,144.674 237.998 C 144.418 238.498,144.670 238.667,145.668 238.667 L 146.642 238.667 147.368 237.471 C 147.766 236.813,148.166 236.253,148.255 236.227 C 148.437 236.174,149.269 237.419,149.553 238.172 L 149.740 238.667 194.370 238.667 C 234.346 238.667,239.000 238.640,239.000 238.411 C 239.000 238.271,238.881 237.877,238.737 237.536 C 238.448 236.857,237.001 232.599,236.917 232.179 C 236.887 232.035,236.723 231.542,236.552 231.083 L 236.240 230.250 192.396 230.208 C 150.800 230.168,148.539 230.181,148.298 230.458 M256.000 234.417 L 256.000 238.667 259.500 238.667 L 263.000 238.667 263.000 234.417 L 263.000 230.167 259.500 230.167 L 256.000 230.167 256.000 234.417 " stroke="none" fill="#8c8c8c" fill-rule="evenodd"></path><path id="path5" d="M127.398 135.583 C 127.398 136.775,127.425 137.241,127.457 136.618 C 127.489 135.996,127.489 135.021,127.457 134.451 C 127.424 133.882,127.398 134.392,127.398 135.583 M59.896 139.417 C 59.896 140.425,59.924 140.816,59.957 140.286 C 59.990 139.755,59.990 138.930,59.956 138.452 C 59.922 137.974,59.895 138.408,59.896 139.417 M212.235 143.917 C 212.235 145.475,212.260 146.135,212.291 145.383 C 212.321 144.631,212.321 143.356,212.291 142.550 C 212.260 141.743,212.235 142.358,212.235 143.917 M341.536 146.167 C 341.517 147.037,341.550 148.594,341.610 149.625 L 341.718 151.500 350.692 151.500 L 359.667 151.500 359.667 149.833 L 359.667 148.167 350.672 148.167 L 341.678 148.167 341.624 146.375 L 341.571 144.583 341.536 146.167 M380.037 145.422 C 380.286 145.684,380.520 145.865,380.556 145.824 C 380.593 145.784,380.389 145.569,380.103 145.348 L 379.583 144.945 380.037 145.422 M135.083 147.167 C 134.873 147.257,134.842 147.310,135.000 147.310 C 135.137 147.310,135.400 147.245,135.583 147.167 C 135.793 147.076,135.824 147.023,135.667 147.023 C 135.529 147.023,135.267 147.088,135.083 147.167 M70.500 148.083 C 70.413 148.313,70.260 148.500,70.161 148.500 C 70.062 148.500,70.017 148.559,70.061 148.631 C 70.106 148.703,69.772 149.359,69.319 150.089 L 68.497 151.417 93.692 151.459 C 107.550 151.482,118.920 151.469,118.959 151.430 C 118.998 151.391,118.594 150.641,118.061 149.763 L 117.092 148.167 108.079 148.167 C 101.107 148.167,99.013 148.120,98.829 147.958 C 98.699 147.844,98.733 147.919,98.905 148.125 C 99.077 148.331,99.150 148.501,99.067 148.503 C 98.985 148.504,99.000 148.560,99.103 148.628 C 99.294 148.753,100.500 150.578,100.500 150.742 C 100.500 150.792,97.425 150.833,93.667 150.833 C 89.908 150.833,86.833 150.805,86.833 150.771 C 86.833 150.628,87.759 149.043,88.138 148.537 C 88.363 148.237,88.499 147.943,88.440 147.884 C 88.381 147.826,88.333 147.865,88.333 147.972 C 88.333 148.118,86.115 148.167,79.482 148.167 C 71.683 148.167,70.642 148.137,70.727 147.917 C 70.780 147.779,70.786 147.667,70.741 147.667 C 70.695 147.667,70.587 147.854,70.500 148.083 M366.167 148.452 C 366.671 148.920,367.655 149.798,368.354 150.403 L 369.625 151.502 384.771 151.459 L 399.917 151.417 399.964 149.792 L 400.012 148.167 382.977 148.167 C 367.192 148.167,365.918 148.146,365.596 147.883 C 365.406 147.727,365.662 147.983,366.167 148.452 M132.145 148.207 C 131.961 148.275,131.647 148.364,131.447 148.404 C 131.247 148.444,130.427 148.703,129.625 148.978 C 128.823 149.254,128.167 149.443,128.167 149.400 C 128.167 149.357,128.017 149.402,127.833 149.500 C 127.562 149.645,127.500 149.849,127.500 150.590 L 127.500 151.501 157.375 151.459 L 187.250 151.417 187.300 150.543 L 187.351 149.668 172.384 149.626 C 159.671 149.590,157.492 149.549,157.917 149.359 C 158.192 149.235,158.585 149.123,158.792 149.109 C 158.998 149.095,159.166 149.039,159.167 148.985 C 159.167 148.874,160.970 148.415,161.292 148.444 C 161.406 148.454,161.500 148.397,161.500 148.317 C 161.500 148.139,132.622 148.031,132.145 148.207 M282.288 148.542 C 282.177 148.794,282.029 149.000,281.959 149.000 C 281.890 149.000,281.833 149.066,281.833 149.146 C 281.833 149.227,281.571 149.729,281.250 150.262 C 280.929 150.794,280.667 151.291,280.667 151.365 C 280.667 151.439,291.992 151.500,305.833 151.500 C 319.675 151.500,331.000 151.460,331.000 151.411 C 331.000 151.310,330.862 151.083,329.767 149.378 L 328.992 148.172 320.101 148.128 L 311.210 148.083 311.796 149.000 C 312.118 149.504,312.492 150.085,312.627 150.292 L 312.872 150.667 305.853 150.667 C 301.992 150.667,298.833 150.624,298.833 150.572 C 298.833 150.520,299.021 150.232,299.250 149.931 C 299.479 149.631,299.667 149.302,299.667 149.201 C 299.667 149.100,299.798 148.940,299.958 148.847 C 300.119 148.753,300.185 148.675,300.105 148.672 C 300.025 148.669,300.051 148.555,300.164 148.420 C 300.345 148.202,299.308 148.167,291.430 148.128 L 282.491 148.083 282.288 148.542 M0.036 149.792 L 0.083 151.417 9.125 151.460 L 18.167 151.503 18.167 149.835 L 18.167 148.167 9.077 148.167 L -0.012 148.167 0.036 149.792 M19.194 148.314 C 19.225 148.394,19.878 149.144,20.645 149.980 L 22.039 151.500 29.999 151.500 L 37.959 151.500 39.190 150.125 C 39.868 149.369,40.523 148.619,40.648 148.458 C 40.863 148.181,40.332 148.167,30.007 148.167 C 23.807 148.167,19.163 148.230,19.194 148.314 M41.833 149.833 L 41.833 151.500 50.833 151.500 L 59.833 151.500 59.833 149.833 L 59.833 148.167 50.833 148.167 L 41.833 148.167 41.833 149.833 M212.333 149.833 L 212.333 151.500 221.333 151.500 L 230.333 151.500 230.333 149.833 L 230.333 148.167 221.333 148.167 L 212.333 148.167 212.333 149.833 M231.373 148.488 C 231.496 148.664,232.172 149.414,232.875 150.154 L 234.152 151.500 242.051 151.500 L 249.950 151.500 250.685 150.703 C 251.088 150.264,251.785 149.514,252.232 149.036 L 253.046 148.167 242.097 148.167 C 231.320 148.167,231.151 148.172,231.373 148.488 M253.833 149.833 L 253.833 151.500 262.917 151.500 L 272.000 151.500 272.000 149.833 L 272.000 148.167 262.917 148.167 L 253.833 148.167 253.833 149.833 M151.208 196.292 C 155.769 196.316,163.231 196.316,167.792 196.292 C 172.352 196.267,168.621 196.247,159.500 196.247 C 150.379 196.247,146.648 196.267,151.208 196.292 M186.583 196.289 C 200.995 196.404,211.794 196.405,211.724 196.292 C 211.682 196.223,204.770 196.184,196.365 196.206 C 187.960 196.228,183.558 196.265,186.583 196.289 M230.208 196.292 C 234.952 196.316,242.715 196.316,247.458 196.292 C 252.202 196.267,248.321 196.247,238.833 196.247 C 229.346 196.247,225.465 196.267,230.208 196.292 M234.127 204.618 C 234.334 204.658,234.634 204.656,234.794 204.615 C 234.953 204.573,234.783 204.540,234.417 204.542 C 234.050 204.544,233.920 204.578,234.127 204.618 M194.384 238.625 L 149.684 238.667 149.936 239.270 C 150.074 239.601,150.149 239.971,150.103 240.092 C 150.057 240.213,150.091 240.336,150.180 240.366 C 150.269 240.395,150.373 240.719,150.411 241.085 C 150.450 241.451,150.497 241.787,150.516 241.833 C 150.592 242.009,150.654 242.960,150.659 244.000 C 150.662 244.596,150.709 245.365,150.764 245.708 L 150.863 246.333 197.109 246.333 L 243.356 246.333 243.242 245.958 C 243.100 245.489,242.510 244.504,242.361 244.488 C 241.263 244.365,240.654 243.804,240.442 242.717 C 240.410 242.552,240.339 242.304,240.284 242.167 C 240.230 242.029,240.112 241.654,240.024 241.333 C 239.936 241.012,239.688 240.262,239.473 239.667 L 239.083 238.583 194.384 238.625 M136.000 242.500 L 136.000 246.333 139.500 246.333 L 143.000 246.333 143.000 242.500 L 143.000 238.667 139.500 238.667 L 136.000 238.667 136.000 242.500 M144.612 239.273 C 144.558 239.607,144.594 240.030,144.692 240.214 C 144.790 240.398,144.832 240.837,144.785 241.191 C 144.737 241.544,144.755 241.833,144.823 241.833 C 145.023 241.833,145.521 241.222,145.565 240.924 C 145.587 240.775,145.713 240.524,145.844 240.368 C 145.976 240.211,146.091 240.008,146.101 239.917 C 146.145 239.515,146.385 239.000,146.529 239.000 C 146.616 239.000,146.640 238.925,146.583 238.833 C 146.527 238.742,146.082 238.667,145.595 238.667 L 144.710 238.667 144.612 239.273 M256.000 242.500 L 256.000 246.333 259.500 246.333 L 263.000 246.333 263.000 242.500 L 263.000 238.667 259.500 238.667 L 256.000 238.667 256.000 242.500 " stroke="none" fill="#747474" fill-rule="evenodd"></path><path id="path6" d="M59.903 130.583 C 59.903 132.417,59.928 133.189,59.957 132.301 C 59.987 131.412,59.988 129.912,59.958 128.967 C 59.928 128.023,59.904 128.750,59.903 130.583 M142.375 127.458 C 150.602 127.482,164.065 127.482,172.292 127.458 C 180.519 127.434,173.787 127.415,157.333 127.415 C 140.879 127.415,134.148 127.434,142.375 127.458 M212.230 135.667 C 212.230 136.721,212.257 137.152,212.290 136.625 C 212.323 136.098,212.323 135.235,212.290 134.708 C 212.257 134.181,212.230 134.612,212.230 135.667 M341.535 138.515 C 341.516 139.028,341.549 140.584,341.609 141.974 L 341.719 144.500 350.693 144.500 L 359.667 144.500 359.667 143.662 L 359.667 142.825 360.125 143.070 C 360.377 143.206,360.838 143.583,361.148 143.908 L 361.713 144.500 370.315 144.496 L 378.917 144.492 377.750 143.403 C 377.108 142.804,376.274 142.054,375.896 141.737 L 375.208 141.160 358.443 141.165 L 341.678 141.170 341.624 139.377 C 341.595 138.390,341.555 138.003,341.535 138.515 M28.083 139.833 C 28.441 140.200,28.772 140.500,28.818 140.500 C 28.863 140.500,28.608 140.200,28.250 139.833 C 27.892 139.467,27.562 139.167,27.516 139.167 C 27.470 139.167,27.725 139.467,28.083 139.833 M240.167 139.885 C 240.167 139.914,240.410 140.158,240.708 140.427 L 241.250 140.917 240.760 140.375 C 240.304 139.870,240.167 139.757,240.167 139.885 M132.667 140.289 C 146.395 140.404,157.000 140.405,157.000 140.292 C 157.000 140.223,150.344 140.184,142.208 140.206 C 134.073 140.227,129.779 140.265,132.667 140.289 M29.061 140.960 C 29.163 141.129,26.302 141.162,14.594 141.127 L -0.000 141.083 -0.000 142.792 L 0.000 144.500 29.917 144.500 L 59.833 144.500 59.833 142.835 L 59.833 141.170 45.325 141.127 L 30.817 141.083 30.571 141.458 C 30.248 141.952,30.127 141.934,29.480 141.292 C 29.180 140.994,28.992 140.845,29.061 140.960 M112.501 140.958 C 112.500 141.122,110.605 141.167,103.583 141.167 C 98.679 141.167,94.667 141.209,94.667 141.262 C 94.667 141.314,94.895 141.689,95.175 142.095 C 95.454 142.501,95.623 142.834,95.550 142.836 C 95.477 142.837,95.499 142.894,95.600 142.961 C 95.701 143.028,95.983 143.402,96.227 143.792 L 96.671 144.500 105.675 144.500 L 114.678 144.500 114.482 144.125 C 114.374 143.919,114.155 143.563,113.996 143.333 C 113.715 142.930,113.183 142.023,112.725 141.167 C 112.602 140.938,112.502 140.844,112.501 140.958 M154.570 141.217 C 154.438 141.291,154.256 141.305,154.165 141.249 C 154.074 141.193,154.000 141.223,154.000 141.316 C 154.000 141.409,153.719 141.536,153.375 141.599 C 153.031 141.662,152.166 141.927,151.452 142.188 C 150.739 142.449,150.101 142.652,150.036 142.638 C 149.970 142.625,149.804 142.659,149.667 142.715 C 149.529 142.771,148.254 143.190,146.833 143.647 L 144.250 144.477 158.784 144.488 C 174.294 144.501,173.646 144.531,176.061 143.682 C 176.599 143.493,177.105 143.379,177.186 143.429 C 177.267 143.479,177.333 143.444,177.333 143.351 C 177.333 143.258,177.615 143.130,177.958 143.066 C 178.302 143.002,178.986 142.812,179.478 142.644 C 179.970 142.476,180.439 142.379,180.520 142.429 C 180.600 142.479,180.667 142.450,180.667 142.365 C 180.667 142.280,181.135 142.082,181.708 141.924 C 184.530 141.149,185.131 141.188,169.446 141.134 C 161.396 141.106,154.702 141.144,154.570 141.217 M226.792 141.126 L 212.333 141.169 212.333 142.834 L 212.333 144.500 242.167 144.500 L 272.000 144.500 272.000 142.833 L 272.000 141.167 257.469 141.167 L 242.938 141.167 242.551 141.530 L 242.164 141.894 241.707 141.488 L 241.250 141.083 226.792 141.126 M74.096 142.422 C 73.677 143.112,73.213 143.862,73.065 144.089 L 72.795 144.500 81.630 144.500 L 90.465 144.500 91.006 143.625 C 91.304 143.144,91.762 142.438,92.024 142.056 C 92.286 141.674,92.500 141.318,92.500 141.264 C 92.500 141.211,88.531 141.167,83.679 141.167 L 74.858 141.167 74.096 142.422 M286.648 141.626 C 286.501 141.878,286.070 142.588,285.690 143.205 C 285.311 143.822,285.000 144.366,285.000 144.414 C 285.000 144.461,288.959 144.500,293.797 144.500 L 302.594 144.500 303.505 142.971 C 304.006 142.131,304.442 141.381,304.472 141.305 C 304.503 141.229,300.565 141.167,295.722 141.168 L 286.917 141.169 286.648 141.626 M307.092 141.319 C 307.040 141.403,307.062 141.497,307.139 141.527 C 307.217 141.558,307.674 142.240,308.155 143.042 L 309.029 144.500 317.764 144.500 C 322.569 144.500,326.500 144.467,326.500 144.427 C 326.500 144.386,326.077 143.636,325.559 142.760 L 324.618 141.167 315.902 141.167 C 310.814 141.167,307.147 141.230,307.092 141.319 M381.833 142.833 L 381.833 144.500 390.917 144.500 L 400.000 144.500 400.000 142.833 L 400.000 141.167 390.917 141.167 L 381.833 141.167 381.833 142.833 M150.186 223.095 C 149.898 223.651,149.572 224.532,149.463 225.053 C 149.354 225.574,149.218 226.000,149.161 226.000 C 149.104 226.000,149.091 226.225,149.131 226.500 C 149.179 226.829,149.133 227.000,148.995 227.000 C 148.837 227.000,148.808 227.304,148.878 228.233 C 148.949 229.168,148.912 229.551,148.726 229.816 L 148.481 230.167 192.306 230.167 L 236.131 230.167 235.484 228.125 C 234.820 226.027,234.702 225.333,235.010 225.333 C 235.107 225.333,235.138 225.254,235.078 225.158 C 234.852 224.792,235.723 222.794,236.249 222.474 C 236.736 222.177,235.517 222.167,193.730 222.126 L 150.710 222.083 150.186 223.095 M136.000 226.167 L 136.000 230.167 139.500 230.167 L 143.000 230.167 143.000 226.167 L 143.000 222.167 139.500 222.167 L 136.000 222.167 136.000 226.167 M256.000 226.167 L 256.000 230.167 259.500 230.167 L 263.000 230.167 263.000 226.167 L 263.000 222.167 259.500 222.167 L 256.000 222.167 256.000 226.167 " stroke="none" fill="#9ca49c" fill-rule="evenodd"></path><path id="path7" d="M0.167 127.167 C 0.167 127.276,3.000 127.333,8.333 127.333 C 13.667 127.333,16.500 127.276,16.500 127.167 C 16.500 127.058,13.667 127.000,8.333 127.000 C 3.000 127.000,0.167 127.058,0.167 127.167 M43.250 127.167 C 43.182 127.277,45.970 127.333,51.490 127.333 C 56.941 127.333,59.833 127.276,59.833 127.167 C 59.833 127.058,56.976 127.000,51.593 127.000 C 46.280 127.000,43.316 127.059,43.250 127.167 M83.750 127.167 C 83.682 127.277,87.026 127.333,93.657 127.333 C 100.219 127.333,103.667 127.276,103.667 127.167 C 103.667 127.057,100.253 127.000,93.760 127.000 C 87.335 127.000,83.817 127.059,83.750 127.167 M212.245 127.348 C 212.185 127.539,212.190 130.726,212.257 134.431 L 212.380 141.167 226.773 141.167 C 234.690 141.167,241.167 141.124,241.167 141.071 C 241.167 140.962,237.027 136.174,235.814 134.882 C 235.366 134.405,235.000 133.955,235.000 133.882 C 235.000 133.810,229.900 133.770,223.667 133.794 L 212.333 133.838 212.333 130.586 L 212.333 127.333 220.500 127.333 C 225.833 127.333,228.667 127.276,228.667 127.167 C 228.667 126.778,212.369 126.957,212.245 127.348 M255.333 127.167 C 255.333 127.276,258.222 127.333,263.667 127.333 C 269.111 127.333,272.000 127.276,272.000 127.167 C 272.000 127.058,269.111 127.000,263.667 127.000 C 258.222 127.000,255.333 127.058,255.333 127.167 M295.750 127.167 C 295.682 127.277,299.057 127.333,305.750 127.333 C 312.443 127.333,315.818 127.277,315.750 127.167 C 315.683 127.059,312.168 127.000,305.750 127.000 C 299.332 127.000,295.817 127.059,295.750 127.167 M341.585 127.164 C 341.519 127.270,344.757 127.343,350.828 127.372 C 358.336 127.408,360.117 127.376,359.888 127.208 C 359.527 126.944,341.747 126.901,341.585 127.164 M381.833 127.167 C 381.833 127.276,384.941 127.333,390.823 127.333 C 396.637 127.333,399.850 127.274,399.917 127.167 C 399.985 127.056,396.946 127.000,390.927 127.000 C 384.976 127.000,381.833 127.058,381.833 127.167 M230.166 128.625 C 230.384 128.923,230.589 129.167,230.621 129.167 C 230.747 129.167,230.334 128.542,230.061 128.320 C 229.881 128.173,229.921 128.290,230.166 128.625 M251.833 130.529 C 251.833 130.636,251.702 130.878,251.542 131.067 C 251.262 131.396,251.263 131.401,251.551 131.178 C 251.948 130.869,252.237 130.333,252.006 130.333 C 251.911 130.333,251.833 130.421,251.833 130.529 M341.536 133.167 C 341.517 134.679,341.550 137.098,341.610 138.542 L 341.719 141.167 358.373 141.167 C 367.533 141.167,375.003 141.104,374.972 141.027 C 374.907 140.862,371.531 137.749,368.922 135.447 L 367.093 133.833 354.386 133.833 L 341.678 133.833 341.624 132.125 C 341.585 130.880,341.561 131.163,341.536 133.167 M20.250 131.333 C 20.608 131.700,20.938 132.000,20.984 132.000 C 21.030 132.000,20.775 131.700,20.417 131.333 C 20.059 130.967,19.728 130.667,19.682 130.667 C 19.637 130.667,19.892 130.967,20.250 131.333 M93.747 133.792 L 79.411 133.835 78.267 135.709 C 77.637 136.740,76.982 137.787,76.811 138.035 C 76.640 138.283,76.500 138.525,76.500 138.571 C 76.500 138.618,76.162 139.178,75.750 139.816 C 75.338 140.453,75.000 141.018,75.000 141.071 C 75.000 141.124,78.967 141.167,83.815 141.167 L 92.630 141.167 92.897 140.500 C 93.262 139.588,93.775 139.588,94.297 140.501 L 94.677 141.167 103.588 141.167 C 108.490 141.167,112.500 141.127,112.500 141.079 C 112.500 141.030,111.739 139.736,110.809 138.204 C 109.878 136.671,108.970 135.154,108.791 134.833 C 108.611 134.512,108.398 134.168,108.317 134.068 C 108.236 133.968,108.219 133.837,108.279 133.776 C 108.340 133.716,108.320 133.685,108.236 133.707 C 108.152 133.730,101.632 133.768,93.747 133.792 M305.743 133.793 L 291.403 133.835 290.743 134.943 C 290.380 135.552,289.903 136.358,289.682 136.734 C 289.461 137.109,288.775 138.242,288.158 139.250 L 287.036 141.083 295.808 141.126 L 304.580 141.170 304.874 140.793 C 305.035 140.586,305.212 140.253,305.266 140.054 C 305.488 139.228,306.128 139.444,306.682 140.531 L 307.007 141.167 315.766 141.167 L 324.524 141.167 323.984 140.208 C 323.687 139.681,323.309 139.054,323.144 138.815 C 322.978 138.575,322.891 138.331,322.949 138.273 C 323.008 138.214,322.974 138.167,322.873 138.167 C 322.773 138.167,322.583 137.960,322.451 137.708 C 322.319 137.456,321.920 136.769,321.564 136.180 C 321.208 135.592,320.942 135.074,320.973 135.029 C 321.004 134.984,320.911 134.880,320.765 134.798 C 320.619 134.717,320.498 134.560,320.495 134.450 C 320.476 133.728,320.908 133.748,305.743 133.793 M0.087 137.348 C 0.014 139.426,0.027 140.927,0.116 141.016 C 0.206 141.106,6.181 141.151,14.755 141.126 L 29.242 141.083 25.987 137.500 L 22.731 133.917 11.470 133.874 L 0.209 133.831 0.087 137.348 M36.625 134.423 C 36.281 134.743,36.000 135.046,36.000 135.096 C 36.000 135.147,34.875 136.488,33.500 138.078 C 32.125 139.667,31.000 141.013,31.000 141.067 C 31.000 141.122,37.487 141.167,45.417 141.167 L 59.833 141.167 59.833 137.500 L 59.833 133.833 48.542 133.838 L 37.250 133.842 36.625 134.423 M248.435 134.708 C 246.838 136.564,243.406 140.599,243.188 140.876 C 242.971 141.152,243.689 141.167,257.480 141.167 L 272.000 141.167 272.000 137.500 L 272.000 133.833 260.594 133.833 L 249.188 133.833 248.435 134.708 M381.833 137.500 L 381.833 141.167 390.917 141.167 L 400.000 141.167 400.000 140.277 C 400.000 139.787,399.951 138.137,399.890 136.610 L 399.781 133.833 390.807 133.833 L 381.833 133.833 381.833 137.500 M127.500 137.083 L 127.500 140.167 142.250 140.167 C 150.362 140.167,157.000 140.223,157.000 140.292 C 157.000 140.360,156.531 140.567,155.958 140.750 L 154.917 141.083 169.417 141.128 C 188.800 141.187,187.443 141.505,187.254 136.948 L 187.131 134.000 157.315 134.000 L 127.500 134.000 127.500 137.083 M170.639 189.125 C 186.619 189.148,212.719 189.148,228.639 189.125 C 244.558 189.102,231.483 189.082,199.583 189.082 C 167.683 189.082,154.658 189.102,170.639 189.125 M221.278 197.278 C 221.126 197.430,221.137 198.295,221.292 198.391 C 221.360 198.433,221.417 198.175,221.417 197.817 C 221.417 197.460,221.410 197.167,221.403 197.167 C 221.395 197.167,221.339 197.217,221.278 197.278 M172.790 198.319 C 172.064 198.785,172.029 198.891,172.708 198.568 C 173.052 198.405,173.333 198.210,173.333 198.136 C 173.333 197.967,173.346 197.963,172.790 198.319 M224.960 203.785 C 225.168 203.824,225.468 203.823,225.627 203.781 C 225.786 203.739,225.617 203.707,225.250 203.709 C 224.883 203.711,224.753 203.745,224.960 203.785 M136.000 213.583 L 136.000 222.167 139.500 222.167 L 143.000 222.167 143.000 213.583 L 143.000 205.000 139.500 205.000 L 136.000 205.000 136.000 213.583 M162.780 206.070 C 161.687 207.358,160.306 209.435,159.335 211.250 C 158.177 213.415,157.604 214.143,156.592 214.736 C 155.165 215.572,150.833 221.034,150.833 221.996 C 150.833 222.286,236.616 222.228,237.439 221.938 C 242.079 220.301,247.607 215.873,248.260 213.269 C 248.320 213.030,248.449 212.833,248.546 212.833 C 248.643 212.833,248.681 212.792,248.631 212.742 C 248.581 212.692,248.719 212.089,248.937 211.403 C 249.684 209.051,249.224 207.305,247.450 205.753 L 246.589 205.000 243.128 205.000 C 240.803 205.000,239.667 205.058,239.667 205.177 C 239.667 205.274,239.732 205.313,239.811 205.264 C 240.002 205.146,243.067 206.141,243.139 206.344 C 243.170 206.431,243.260 206.462,243.340 206.413 C 243.551 206.282,245.054 207.777,244.924 207.988 C 244.863 208.086,244.901 208.167,245.008 208.167 C 245.115 208.167,245.160 208.277,245.108 208.411 C 245.057 208.546,245.096 208.706,245.196 208.768 C 245.389 208.888,245.278 210.852,245.058 211.208 C 244.992 211.315,244.920 211.566,244.899 211.765 C 244.793 212.758,242.574 215.449,241.167 216.290 C 239.239 217.443,233.881 219.182,232.981 218.947 C 232.808 218.902,232.625 218.933,232.574 219.016 C 232.449 219.218,230.213 219.210,230.088 219.007 C 230.034 218.920,229.892 218.885,229.772 218.931 C 229.653 218.977,229.036 218.821,228.403 218.584 C 227.769 218.347,227.135 218.127,226.995 218.094 C 226.855 218.060,226.255 217.807,225.662 217.530 C 224.571 217.021,221.987 215.926,221.833 215.908 C 221.404 215.857,220.667 215.617,220.667 215.528 C 220.666 215.467,220.463 215.405,220.213 215.390 C 219.964 215.376,219.733 215.282,219.699 215.181 C 219.666 215.080,219.576 215.036,219.500 215.084 C 219.424 215.131,218.999 215.092,218.556 214.997 C 217.773 214.830,217.482 214.789,215.765 214.607 C 214.954 214.520,210.981 213.716,210.500 213.541 C 210.362 213.491,210.100 213.423,209.917 213.390 C 209.733 213.357,209.471 213.283,209.333 213.226 C 209.196 213.169,208.897 213.098,208.669 213.068 C 208.441 213.039,208.229 212.936,208.196 212.839 C 208.164 212.743,208.073 212.705,207.993 212.754 C 207.913 212.804,207.573 212.729,207.237 212.589 C 206.901 212.448,206.485 212.333,206.313 212.333 C 206.141 212.333,206.000 212.246,206.000 212.139 C 206.000 212.032,205.956 211.988,205.902 212.042 C 205.763 212.181,204.833 211.832,204.833 211.641 C 204.833 211.552,204.763 211.524,204.678 211.577 C 204.592 211.630,204.161 211.514,203.719 211.320 C 201.202 210.214,198.144 208.695,197.916 208.438 C 197.824 208.335,197.659 208.233,197.550 208.211 C 197.312 208.165,194.291 206.372,193.100 205.569 L 192.254 205.000 177.971 205.000 L 163.688 205.000 162.780 206.070 M256.000 213.583 L 256.000 222.167 259.500 222.167 L 263.000 222.167 263.000 213.583 L 263.000 205.000 259.500 205.000 L 256.000 205.000 256.000 213.583 " stroke="none" fill="#b4b4b4" fill-rule="evenodd"></path><path id="path8" d="M60.080 140.583 C 60.080 148.100,60.100 151.151,60.125 147.363 C 60.150 143.574,60.150 137.424,60.125 133.696 C 60.100 129.967,60.079 133.067,60.080 140.583 M0.070 130.667 C 0.070 132.546,0.095 133.315,0.124 132.375 C 0.154 131.435,0.154 129.898,0.124 128.958 C 0.095 128.019,0.070 128.787,0.070 130.667 M399.883 131.333 C 399.883 131.837,399.915 132.044,399.953 131.792 C 399.991 131.540,399.991 131.127,399.953 130.875 C 399.915 130.623,399.883 130.829,399.883 131.333 M127.237 137.000 C 127.237 138.971,127.262 139.777,127.291 138.792 C 127.321 137.806,127.321 136.194,127.291 135.208 C 127.262 134.223,127.237 135.029,127.237 137.000 M212.038 147.325 C 212.017 153.600,212.056 158.662,212.125 158.575 C 212.194 158.488,212.211 153.354,212.163 147.167 L 212.076 135.917 212.038 147.325 M381.631 142.683 C 381.605 144.800,381.640 146.567,381.708 146.609 C 381.777 146.652,381.833 144.919,381.833 142.760 C 381.833 140.600,381.799 138.833,381.756 138.833 C 381.713 138.833,381.657 140.566,381.631 142.683 M341.412 149.667 C 341.412 155.304,341.433 157.610,341.458 154.792 C 341.484 151.973,341.484 147.360,341.458 144.542 C 341.433 141.723,341.412 144.029,341.412 149.667 M18.167 154.167 L 18.167 160.667 9.173 160.667 L 0.180 160.667 0.124 159.208 C 0.084 158.160,0.059 158.418,0.034 160.125 L 0.000 162.500 9.163 162.500 L 18.327 162.500 18.372 155.083 C 18.396 151.004,18.360 147.667,18.292 147.667 C 18.223 147.667,18.167 150.592,18.167 154.167 M19.537 149.194 C 19.572 149.301,19.785 149.504,20.009 149.645 L 20.417 149.901 20.013 149.451 C 19.576 148.964,19.435 148.888,19.537 149.194 M127.167 153.556 C 127.167 156.274,127.225 157.667,127.339 157.667 C 127.498 157.667,127.389 149.700,127.227 149.514 C 127.194 149.476,127.167 151.294,127.167 153.556 M93.583 150.667 L 86.917 150.756 93.625 150.795 C 98.012 150.820,100.333 150.776,100.333 150.667 C 100.333 150.575,100.315 150.517,100.292 150.539 C 100.269 150.560,97.250 150.618,93.583 150.667 M233.000 150.626 C 233.000 150.718,233.112 150.886,233.250 151.000 C 233.389 151.116,233.500 151.134,233.500 151.041 C 233.500 150.949,233.387 150.781,233.250 150.667 C 233.111 150.551,233.000 150.533,233.000 150.626 M359.833 152.958 C 359.833 154.035,359.783 156.210,359.723 157.792 L 359.614 160.667 350.557 160.667 L 341.500 160.667 341.500 161.583 L 341.500 162.500 350.750 162.500 L 360.000 162.500 360.000 156.750 C 360.000 153.587,359.962 151.000,359.917 151.000 C 359.871 151.000,359.833 151.881,359.833 152.958 M369.167 151.500 C 369.265 151.683,369.429 151.833,369.532 151.833 C 369.634 151.833,369.583 151.683,369.417 151.500 C 369.251 151.317,369.086 151.167,369.052 151.167 C 369.017 151.167,369.069 151.317,369.167 151.500 M250.053 151.566 C 249.974 151.708,249.573 152.177,249.163 152.609 C 248.752 153.040,248.533 153.324,248.676 153.239 C 249.083 152.994,250.392 151.503,250.290 151.401 C 250.239 151.350,250.132 151.424,250.053 151.566 M234.333 152.131 C 234.333 152.214,234.494 152.425,234.691 152.599 C 235.046 152.914,235.047 152.914,234.857 152.551 C 234.644 152.146,234.333 151.896,234.333 152.131 M370.333 152.459 C 370.333 152.551,370.446 152.719,370.583 152.833 C 370.723 152.949,370.833 152.967,370.833 152.874 C 370.833 152.782,370.721 152.614,370.583 152.500 C 370.444 152.384,370.333 152.366,370.333 152.459 M236.000 153.898 C 236.000 153.968,236.225 154.251,236.500 154.526 C 236.775 154.801,237.000 154.959,237.000 154.877 C 237.000 154.796,236.775 154.513,236.500 154.250 C 236.225 153.987,236.000 153.828,236.000 153.898 M35.610 154.304 C 35.210 154.745,35.269 154.898,35.681 154.486 C 35.872 154.295,35.996 154.107,35.957 154.068 C 35.919 154.030,35.762 154.136,35.610 154.304 M41.530 158.458 L 41.500 162.500 50.750 162.500 L 60.000 162.500 60.000 161.542 L 60.000 160.583 50.917 160.628 L 41.833 160.672 41.811 160.211 C 41.798 159.958,41.737 158.550,41.674 157.083 L 41.560 154.417 41.530 158.458 M373.067 154.976 C 373.420 155.373,373.500 155.409,373.500 155.173 C 373.500 155.084,373.331 154.923,373.125 154.815 C 372.752 154.619,372.752 154.620,373.067 154.976 M25.167 155.284 C 25.167 155.371,25.364 155.624,25.606 155.846 C 25.998 156.206,26.026 156.213,25.865 155.903 C 25.650 155.489,25.167 155.060,25.167 155.284 M121.818 155.637 C 121.919 155.827,122.084 156.032,122.184 156.094 C 122.315 156.175,122.314 156.109,122.182 155.863 C 122.081 155.673,121.916 155.468,121.816 155.406 C 121.685 155.325,121.686 155.391,121.818 155.637 M374.401 156.142 C 374.575 156.339,374.786 156.500,374.869 156.500 C 375.104 156.500,374.854 156.189,374.449 155.977 C 374.086 155.786,374.086 155.787,374.401 156.142 M237.833 156.064 C 237.833 156.099,238.115 156.336,238.458 156.591 L 239.083 157.055 238.594 156.528 C 238.166 156.067,237.833 155.864,237.833 156.064 M276.898 156.755 C 276.746 156.987,276.652 157.207,276.689 157.244 C 276.726 157.281,276.883 157.092,277.037 156.823 C 277.381 156.223,277.279 156.174,276.898 156.755 M122.688 157.125 C 122.897 157.469,123.129 157.775,123.201 157.806 C 123.274 157.836,123.333 157.953,123.333 158.065 C 123.333 158.178,123.446 158.415,123.583 158.593 C 123.987 159.118,123.512 158.069,122.954 157.208 C 122.389 156.334,122.162 156.264,122.688 157.125 M33.082 157.168 C 32.916 157.352,32.819 157.541,32.867 157.590 C 32.915 157.638,33.079 157.487,33.231 157.255 C 33.563 156.748,33.497 156.709,33.082 157.168 M375.734 157.309 C 375.909 157.506,376.119 157.667,376.202 157.667 C 376.437 157.667,376.188 157.356,375.782 157.143 C 375.419 156.953,375.419 156.954,375.734 157.309 M27.002 157.255 C 27.005 157.459,28.816 159.240,28.917 159.139 C 28.958 159.098,28.543 158.621,27.996 158.079 C 27.448 157.537,27.001 157.166,27.002 157.255 M244.416 157.834 C 244.249 158.018,244.153 158.208,244.201 158.256 C 244.249 158.304,244.413 158.154,244.565 157.922 C 244.897 157.415,244.831 157.376,244.416 157.834 M64.213 157.875 C 63.906 158.271,63.796 158.738,64.062 158.518 C 64.191 158.410,64.336 158.175,64.383 157.995 C 64.482 157.615,64.438 157.584,64.213 157.875 M239.924 158.238 C 240.070 158.461,240.383 158.770,240.618 158.924 C 241.008 159.180,240.997 159.144,240.495 158.519 C 239.900 157.778,239.491 157.577,239.924 158.238 M335.417 158.333 C 335.559 158.608,335.745 158.833,335.830 158.833 C 335.915 158.833,335.857 158.609,335.701 158.334 C 335.330 157.683,335.080 157.683,335.417 158.333 M31.755 158.592 C 31.405 159.050,31.374 159.144,31.624 158.988 C 31.980 158.766,32.400 158.178,32.285 158.063 C 32.245 158.023,32.007 158.261,31.755 158.592 M253.700 160.292 L 253.667 162.500 262.833 162.500 L 272.000 162.500 272.000 161.583 L 272.000 160.667 262.924 160.667 L 253.847 160.667 253.791 159.375 C 253.752 158.509,253.723 158.811,253.700 160.292 M377.032 158.490 C 377.150 158.679,377.346 158.833,377.467 158.833 C 377.750 158.833,377.575 158.552,377.150 158.324 C 376.845 158.161,376.836 158.175,377.032 158.490 M243.334 159.083 C 243.119 159.311,242.985 159.541,243.037 159.592 C 243.088 159.644,243.294 159.457,243.493 159.176 C 243.933 158.559,243.864 158.519,243.334 159.083 M63.546 159.042 C 63.221 159.463,63.109 159.722,63.307 159.600 C 63.504 159.478,63.899 158.833,63.776 158.833 C 63.738 158.833,63.635 158.927,63.546 159.042 M81.413 159.542 L 81.151 160.083 81.540 159.625 L 81.929 159.167 93.967 159.167 L 106.004 159.167 106.431 160.042 C 106.665 160.523,107.047 161.273,107.280 161.708 L 107.702 162.500 116.779 162.500 C 125.776 162.500,125.855 162.497,125.761 162.167 C 125.709 161.983,125.624 161.683,125.572 161.500 C 125.520 161.317,125.425 161.167,125.360 161.167 C 125.296 161.167,125.059 160.829,124.833 160.417 C 124.608 160.004,124.357 159.667,124.276 159.667 C 124.195 159.667,124.249 159.852,124.397 160.077 C 124.546 160.303,124.667 160.528,124.667 160.577 C 124.667 160.627,120.696 160.667,115.843 160.667 L 107.019 160.667 106.551 159.834 L 106.083 159.000 93.879 159.000 L 81.675 159.000 81.413 159.542 M275.364 159.417 C 275.259 159.646,275.201 159.833,275.234 159.833 C 275.268 159.833,275.418 159.646,275.568 159.417 C 275.718 159.188,275.776 159.000,275.697 159.000 C 275.618 159.000,275.468 159.188,275.364 159.417 M297.917 159.122 C 309.177 159.237,318.167 159.238,318.167 159.125 C 318.167 159.056,312.635 159.017,305.875 159.039 C 299.115 159.060,295.533 159.097,297.917 159.122 M335.984 159.304 C 336.086 159.493,336.251 159.699,336.351 159.761 C 336.482 159.842,336.481 159.776,336.349 159.529 C 336.248 159.340,336.083 159.135,335.982 159.073 C 335.852 158.992,335.852 159.057,335.984 159.304 M378.240 159.542 C 378.404 159.794,378.638 160.000,378.761 160.000 C 378.883 160.000,379.183 160.262,379.428 160.583 C 379.673 160.904,379.958 161.167,380.061 161.167 C 380.165 161.167,380.486 161.448,380.775 161.792 L 381.299 162.417 390.650 162.462 L 400.000 162.508 400.000 161.546 L 400.000 160.583 389.920 160.628 L 379.840 160.672 379.212 160.123 C 378.027 159.089,377.893 159.009,378.240 159.542 M293.513 159.542 C 293.506 159.702,293.437 159.833,293.360 159.833 C 293.283 159.833,293.135 160.021,293.030 160.250 L 292.840 160.667 283.909 160.667 C 275.053 160.667,274.978 160.664,275.083 160.333 C 275.402 159.330,274.201 161.082,273.694 162.360 C 273.664 162.437,277.809 162.500,282.906 162.500 L 292.174 162.500 292.355 162.042 C 292.544 161.561,292.562 161.528,293.248 160.346 C 293.483 159.941,293.642 159.528,293.601 159.430 C 293.560 159.331,293.520 159.381,293.513 159.542 M30.501 159.915 C 30.201 160.235,30.061 160.287,29.886 160.141 C 29.707 159.993,29.681 160.011,29.764 160.226 C 29.822 160.377,29.960 160.500,30.072 160.500 C 30.312 160.500,31.095 159.706,30.974 159.585 C 30.928 159.539,30.715 159.688,30.501 159.915 M241.261 159.704 C 241.516 160.330,242.183 160.559,242.558 160.152 C 242.907 159.773,242.907 159.770,242.566 160.052 C 242.247 160.315,242.194 160.318,241.996 160.078 C 241.683 159.701,241.148 159.429,241.261 159.704 M62.479 160.795 C 62.147 161.320,61.823 161.919,61.760 162.125 L 61.644 162.500 70.810 162.500 L 79.976 162.500 80.571 161.520 C 81.152 160.564,81.411 159.748,80.935 160.375 C 80.729 160.646,80.091 160.667,71.754 160.667 L 62.795 160.667 63.068 160.250 C 63.218 160.021,63.283 159.835,63.212 159.837 C 63.141 159.839,62.812 160.270,62.479 160.795 M336.583 160.333 C 336.715 160.749,319.276 160.872,318.854 160.458 C 318.571 160.181,318.918 160.999,319.455 161.875 L 319.838 162.500 328.919 162.500 C 333.913 162.500,338.000 162.442,338.000 162.372 C 338.000 162.302,337.826 161.983,337.614 161.664 C 337.402 161.344,337.130 160.840,337.011 160.542 C 336.777 159.960,336.408 159.780,336.583 160.333 M127.333 161.542 L 127.333 162.500 157.333 162.500 L 187.333 162.500 187.333 161.542 L 187.333 160.583 157.333 160.583 L 127.333 160.583 127.333 161.542 M212.167 161.583 L 212.167 162.500 221.250 162.500 L 230.333 162.500 230.333 161.583 L 230.333 160.667 221.250 160.667 L 212.167 160.667 212.167 161.583 M135.914 217.917 C 135.914 230.292,135.934 235.379,135.958 229.221 C 135.983 223.064,135.983 212.939,135.958 206.721 C 135.934 200.504,135.914 205.542,135.914 217.917 M143.081 215.250 C 143.081 225.700,143.101 230.000,143.125 224.805 C 143.149 219.609,143.149 211.059,143.125 205.805 C 143.101 200.550,143.081 204.800,143.081 215.250 M263.081 232.500 C 263.081 248.404,263.101 254.910,263.125 246.958 C 263.149 239.006,263.149 225.994,263.125 218.042 C 263.101 210.090,263.081 216.596,263.081 232.500 M144.375 238.917 C 144.377 239.283,144.411 239.414,144.451 239.206 C 144.491 238.999,144.490 238.699,144.448 238.540 C 144.406 238.380,144.374 238.550,144.375 238.917 M144.958 241.899 C 144.636 242.143,144.579 242.333,144.827 242.333 C 144.916 242.333,145.069 242.183,145.167 242.000 C 145.375 241.612,145.351 241.600,144.958 241.899 M150.545 246.333 C 150.545 246.746,150.578 246.915,150.618 246.708 C 150.657 246.502,150.657 246.165,150.618 245.958 C 150.578 245.752,150.545 245.921,150.545 246.333 M230.167 246.667 C 229.973 246.792,230.021 246.829,230.385 246.831 C 230.655 246.832,230.809 246.763,230.750 246.667 C 230.622 246.460,230.487 246.460,230.167 246.667 M231.000 246.667 C 231.000 246.758,231.112 246.833,231.250 246.833 C 231.387 246.833,231.500 246.758,231.500 246.667 C 231.500 246.575,231.387 246.500,231.250 246.500 C 231.112 246.500,231.000 246.575,231.000 246.667 M150.667 247.607 C 150.667 247.792,151.290 248.500,151.452 248.500 C 151.510 248.500,151.376 248.294,151.154 248.042 C 150.932 247.790,150.731 247.552,150.708 247.514 C 150.685 247.476,150.667 247.518,150.667 247.607 M219.276 248.471 C 218.972 248.807,218.905 249.078,219.166 248.917 C 219.340 248.810,219.725 248.167,219.615 248.167 C 219.580 248.167,219.428 248.304,219.276 248.471 M234.016 249.233 C 234.420 249.636,234.786 249.931,234.829 249.890 C 234.914 249.808,233.553 248.500,233.384 248.500 C 233.328 248.500,233.613 248.830,234.016 249.233 M164.917 250.000 C 164.774 250.275,164.696 250.500,164.741 250.500 C 164.787 250.500,164.941 250.275,165.083 250.000 C 165.226 249.725,165.304 249.500,165.259 249.500 C 165.213 249.500,165.059 249.725,164.917 250.000 M229.059 251.250 C 229.059 252.075,229.087 252.434,229.122 252.047 C 229.157 251.660,229.157 250.985,229.123 250.547 C 229.088 250.109,229.060 250.425,229.059 251.250 M245.273 251.750 C 245.658 252.408,245.667 252.418,245.667 252.213 C 245.667 252.116,245.512 251.860,245.323 251.643 L 244.980 251.250 245.273 251.750 M205.425 252.375 C 205.355 252.535,205.355 252.798,205.425 252.958 C 205.546 253.236,205.555 253.236,205.621 252.958 C 205.739 252.466,205.584 252.008,205.425 252.375 M246.167 253.083 C 246.382 253.313,246.633 253.500,246.725 253.500 C 246.816 253.500,246.715 253.313,246.500 253.083 C 246.285 252.854,246.034 252.667,245.942 252.667 C 245.850 252.667,245.951 252.854,246.167 253.083 M185.930 255.021 C 185.754 255.192,185.648 255.370,185.695 255.417 C 185.742 255.464,185.916 255.351,186.083 255.167 C 186.475 254.733,186.349 254.613,185.930 255.021 M184.502 256.326 C 184.275 256.501,184.131 256.686,184.182 256.738 C 184.234 256.790,184.452 256.645,184.667 256.416 C 185.132 255.921,185.072 255.888,184.502 256.326 M217.380 256.208 C 217.054 256.630,216.943 256.888,217.140 256.766 C 217.337 256.644,217.732 256.000,217.610 256.000 C 217.572 256.000,217.468 256.094,217.380 256.208 M173.611 257.042 C 173.443 257.217,173.337 257.393,173.376 257.432 C 173.415 257.470,173.583 257.351,173.750 257.167 C 174.141 256.734,174.014 256.620,173.611 257.042 M216.301 257.458 C 215.854 257.979,215.719 258.291,216.060 258.014 C 216.340 257.787,216.746 257.167,216.615 257.167 C 216.580 257.167,216.439 257.298,216.301 257.458 M225.875 257.624 C 225.577 257.772,225.333 257.958,225.333 258.036 C 225.333 258.191,225.726 258.005,226.250 257.601 C 226.672 257.276,226.562 257.282,225.875 257.624 M191.898 258.014 C 191.542 258.297,191.181 258.653,191.097 258.806 C 191.013 258.958,191.313 258.752,191.764 258.347 C 192.214 257.941,192.615 257.585,192.653 257.555 C 192.691 257.525,192.683 257.500,192.634 257.500 C 192.586 257.500,192.254 257.731,191.898 258.014 M205.132 258.192 C 204.982 258.287,205.028 258.329,205.282 258.331 C 205.483 258.332,205.686 258.271,205.733 258.194 C 205.843 258.016,205.412 258.014,205.132 258.192 M172.083 258.667 C 171.917 258.850,171.852 259.000,171.937 259.000 C 172.023 259.000,172.221 258.850,172.378 258.667 C 172.535 258.483,172.601 258.333,172.524 258.333 C 172.448 258.333,172.249 258.483,172.083 258.667 M182.417 259.000 C 182.153 259.275,182.015 259.500,182.110 259.500 C 182.281 259.500,182.675 259.106,182.901 258.708 C 183.096 258.367,182.925 258.469,182.417 259.000 M223.667 259.167 C 223.438 259.346,223.332 259.494,223.433 259.496 C 223.533 259.498,223.751 259.350,223.917 259.167 C 224.297 258.747,224.204 258.747,223.667 259.167 M213.331 259.841 C 213.103 260.016,212.992 260.159,213.083 260.158 C 213.304 260.156,213.913 259.691,213.819 259.596 C 213.778 259.556,213.559 259.666,213.331 259.841 M211.416 261.286 C 210.643 262.129,210.794 262.167,211.623 261.337 C 211.992 260.969,212.224 260.667,212.139 260.667 C 212.053 260.667,211.728 260.945,211.416 261.286 M240.200 260.867 C 239.881 261.185,239.968 261.356,240.333 261.128 C 240.670 260.918,240.779 260.667,240.533 260.667 C 240.460 260.667,240.310 260.757,240.200 260.867 M169.625 261.095 C 169.021 261.423,169.042 261.526,169.667 261.308 C 169.942 261.212,170.167 261.066,170.167 260.984 C 170.167 260.797,170.179 260.795,169.625 261.095 M168.178 261.887 C 167.772 262.095,167.409 262.356,167.372 262.468 C 167.335 262.580,167.686 262.434,168.152 262.144 C 168.618 261.854,169.000 261.591,169.000 261.558 C 169.000 261.470,168.972 261.481,168.178 261.887 M177.987 262.440 C 177.765 262.681,177.689 262.846,177.819 262.805 C 178.039 262.737,178.631 262.000,178.466 262.000 C 178.425 262.000,178.210 262.198,177.987 262.440 M210.367 262.625 C 210.275 262.877,210.148 263.233,210.084 263.417 C 210.020 263.600,210.163 263.424,210.401 263.025 C 210.881 262.219,210.898 262.167,210.683 262.167 C 210.600 262.167,210.458 262.373,210.367 262.625 M238.195 263.053 C 237.685 263.596,237.744 263.733,238.276 263.240 C 238.520 263.015,238.682 262.794,238.638 262.749 C 238.593 262.704,238.394 262.841,238.195 263.053 M219.065 263.277 C 218.903 263.537,218.700 263.844,218.615 263.958 C 218.529 264.073,218.525 264.166,218.605 264.165 C 218.789 264.162,219.552 262.997,219.442 262.886 C 219.397 262.841,219.227 263.017,219.065 263.277 M177.093 263.537 C 176.808 263.943,176.762 264.167,176.963 264.167 C 177.035 264.167,177.179 263.942,177.282 263.667 C 177.507 263.072,177.447 263.031,177.093 263.537 M166.125 263.899 C 165.965 264.020,165.833 264.196,165.833 264.290 C 165.833 264.383,165.719 264.554,165.579 264.670 C 165.440 264.786,165.363 264.918,165.408 264.964 C 165.497 265.052,166.057 264.449,166.342 263.958 C 166.543 263.613,166.512 263.605,166.125 263.899 M246.718 264.583 C 246.719 265.133,246.750 265.338,246.787 265.039 C 246.825 264.739,246.824 264.289,246.786 264.039 C 246.748 263.788,246.717 264.033,246.718 264.583 M176.667 264.721 C 176.667 264.842,176.854 265.118,177.083 265.333 C 177.313 265.549,177.500 265.646,177.500 265.549 C 177.500 265.453,177.387 265.281,177.250 265.167 C 177.112 265.053,177.000 264.856,177.000 264.730 C 177.000 264.603,176.925 264.500,176.833 264.500 C 176.742 264.500,176.667 264.599,176.667 264.721 M198.505 264.697 C 198.500 264.977,199.103 265.285,199.290 265.099 C 199.345 265.044,199.268 265.000,199.119 265.000 C 198.971 265.000,198.773 264.869,198.680 264.708 C 198.525 264.442,198.510 264.441,198.505 264.697 M199.750 265.333 C 200.205 265.529,200.333 265.529,200.333 265.333 C 200.333 265.242,200.127 265.172,199.875 265.178 C 199.469 265.189,199.455 265.206,199.750 265.333 M218.847 265.229 C 219.040 265.400,221.667 265.509,221.667 265.345 C 221.667 265.232,221.136 265.167,220.222 265.167 C 219.428 265.167,218.809 265.195,218.847 265.229 M200.500 265.500 C 200.500 265.592,200.612 265.667,200.750 265.667 C 200.887 265.667,201.000 265.592,201.000 265.500 C 201.000 265.408,200.887 265.333,200.750 265.333 C 200.612 265.333,200.500 265.408,200.500 265.500 M222.583 265.500 C 222.640 265.592,223.094 265.667,223.593 265.667 C 224.092 265.667,224.500 265.592,224.500 265.500 C 224.500 265.407,224.052 265.333,223.490 265.333 C 222.859 265.333,222.519 265.396,222.583 265.500 M228.125 265.624 C 228.973 265.654,230.360 265.654,231.208 265.624 C 232.056 265.594,231.362 265.569,229.667 265.569 C 227.971 265.569,227.277 265.594,228.125 265.624 M136.067 267.250 C 136.164 269.130,137.585 271.322,139.180 272.051 C 141.256 273.002,135.329 272.912,199.500 272.960 L 257.917 273.003 258.937 272.502 C 259.498 272.226,260.027 272.000,260.112 272.000 C 260.383 272.000,261.667 270.665,261.667 270.383 C 261.667 270.233,261.917 269.655,262.223 269.097 C 262.528 268.540,262.829 267.858,262.890 267.583 L 263.001 267.083 262.745 267.542 L 262.489 268.000 199.419 268.000 L 136.348 268.000 136.246 267.375 C 136.065 266.264,136.014 266.229,136.067 267.250 " stroke="none" fill="#2b2b2a" fill-rule="evenodd"></path></g></svg>