<svg id="svg" xmlns="http://www.w3.org/2000/svg"  width="400" height="400" viewBox="0, 0, 400,400"><g id="svgg"><path id="path0" d="M0.049 136.836 C 0.102 142.176,0.145 150.162,0.145 154.582 L 0.145 162.618 9.142 162.618 L 18.139 162.618 18.232 161.418 C 18.283 160.758,18.326 157.415,18.326 153.988 C 18.327 150.561,18.382 147.779,18.449 147.806 C 18.516 147.833,18.964 148.315,19.446 148.877 C 19.927 149.439,20.936 150.555,21.688 151.358 C 22.440 152.160,23.782 153.631,24.672 154.627 C 26.634 156.823,29.946 160.348,30.100 160.405 C 30.162 160.428,32.759 157.592,35.870 154.102 L 41.527 147.757 41.600 155.151 L 41.673 162.545 50.776 162.583 L 59.880 162.620 59.976 158.014 C 60.029 155.480,60.073 147.494,60.073 140.267 L 60.073 127.127 51.622 127.127 C 41.712 127.127,43.146 126.791,40.629 129.703 C 39.683 130.797,38.320 132.339,37.600 133.130 C 36.880 133.920,36.029 134.884,35.709 135.271 C 34.744 136.438,30.215 141.597,30.122 141.635 C 30.075 141.654,27.025 138.400,23.345 134.402 L 16.655 127.135 8.303 127.131 L -0.048 127.127 0.049 136.836 M83.285 127.354 C 83.161 127.478,82.839 127.953,82.571 128.408 C 81.680 129.923,78.546 134.984,74.764 141.018 C 68.521 150.977,61.673 162.190,61.673 162.452 C 61.673 162.578,63.975 162.611,70.789 162.583 L 79.905 162.545 80.806 160.873 L 81.708 159.200 93.859 159.163 L 106.010 159.126 106.932 160.836 L 107.855 162.545 116.792 162.583 C 121.707 162.604,125.774 162.571,125.830 162.510 C 125.985 162.343,121.022 154.158,114.032 143.055 C 112.219 140.175,109.670 136.051,108.367 133.891 C 105.956 129.894,105.401 129.045,104.394 127.818 L 103.827 127.127 93.670 127.127 C 84.669 127.127,83.486 127.153,83.285 127.354 M212.073 143.236 C 212.074 152.096,212.116 160.082,212.168 160.982 L 212.263 162.618 221.257 162.618 L 230.252 162.618 230.290 155.096 L 230.327 147.574 232.959 150.478 C 237.730 155.742,242.045 160.364,242.188 160.364 C 242.266 160.364,243.687 158.819,245.346 156.930 C 247.006 155.042,249.542 152.198,250.982 150.611 L 253.600 147.725 253.673 155.135 L 253.745 162.545 262.873 162.583 L 272.000 162.620 272.000 144.874 L 272.000 127.127 263.555 127.127 L 255.110 127.127 254.355 127.842 C 253.940 128.235,252.945 129.323,252.145 130.260 C 251.345 131.197,250.036 132.700,249.236 133.599 C 248.436 134.499,246.538 136.679,245.018 138.443 C 243.498 140.208,242.220 141.657,242.177 141.662 C 242.135 141.668,241.082 140.544,239.839 139.164 C 232.621 131.153,230.907 129.272,229.902 128.255 L 228.788 127.127 220.431 127.127 L 212.073 127.127 212.073 143.236 M295.280 127.410 C 295.125 127.566,294.888 127.905,294.755 128.162 C 294.471 128.712,288.111 138.996,284.556 144.655 C 278.600 154.136,273.745 162.118,273.745 162.433 C 273.745 162.584,275.496 162.613,282.852 162.583 L 291.958 162.545 292.852 160.839 L 293.745 159.133 305.911 159.130 L 318.077 159.127 318.699 160.327 C 319.041 160.987,319.474 161.773,319.662 162.073 L 320.004 162.618 328.947 162.618 C 336.196 162.618,337.891 162.582,337.891 162.429 C 337.891 162.230,334.896 157.233,332.773 153.891 C 332.087 152.811,330.952 151.011,330.251 149.891 C 329.550 148.771,327.886 146.120,326.554 144.000 C 325.222 141.880,322.768 137.887,321.100 135.127 C 317.442 129.074,317.204 128.697,316.474 127.818 L 315.900 127.127 305.732 127.127 C 295.850 127.127,295.556 127.135,295.280 127.410 M341.383 143.891 C 341.383 153.111,341.426 161.097,341.477 161.637 L 341.570 162.620 350.676 162.583 L 359.782 162.545 359.855 152.811 L 359.927 143.077 364.073 146.782 C 366.353 148.819,371.285 153.216,375.033 156.552 L 381.848 162.618 390.827 162.618 L 399.807 162.618 399.902 145.002 C 399.954 135.312,399.961 127.327,399.917 127.256 C 399.872 127.184,395.875 127.127,390.756 127.127 L 381.675 127.127 381.637 136.860 L 381.600 146.592 370.717 136.860 L 359.833 127.127 350.608 127.127 L 341.382 127.127 341.383 143.891 M127.273 133.817 L 127.273 140.362 141.855 140.399 L 156.436 140.436 142.764 144.714 C 135.244 147.067,128.682 149.115,128.182 149.266 L 127.273 149.541 127.273 153.875 C 127.273 156.258,127.316 159.201,127.368 160.413 L 127.464 162.618 157.332 162.618 L 187.200 162.618 187.200 156.073 L 187.200 149.529 172.630 149.492 L 158.060 149.455 172.593 144.936 L 187.127 140.418 187.165 133.845 L 187.203 127.273 157.238 127.273 L 127.273 127.273 127.273 133.817 M306.255 140.074 C 306.365 140.420,309.032 144.866,311.097 148.145 L 312.562 150.473 309.237 150.512 C 307.407 150.533,304.372 150.533,302.491 150.512 L 299.072 150.473 301.909 145.891 C 303.469 143.371,304.944 140.965,305.187 140.545 C 305.653 139.738,306.087 139.546,306.255 140.074 M94.585 141.360 C 95.027 142.148,96.475 144.539,97.803 146.673 C 99.131 148.808,100.218 150.585,100.218 150.622 C 100.218 150.660,97.242 150.691,93.605 150.691 L 86.991 150.691 87.521 149.782 C 87.812 149.282,89.162 147.046,90.519 144.814 C 91.877 142.581,93.058 140.568,93.144 140.341 C 93.418 139.615,93.730 139.836,94.585 141.360 M140.580 189.207 C 138.311 189.992,136.790 191.573,136.179 193.782 C 135.857 194.945,135.824 265.999,136.144 267.576 C 136.688 270.251,138.581 272.164,141.236 272.720 C 141.835 272.846,156.673 272.877,200.145 272.844 L 258.255 272.800 258.948 272.477 C 260.815 271.607,261.050 271.364,262.093 269.236 L 263.055 267.273 263.055 230.618 L 263.055 193.964 262.725 193.148 C 262.020 191.406,261.700 191.088,259.518 189.966 L 257.533 188.945 199.421 188.950 C 144.672 188.955,141.267 188.970,140.580 189.207 M175.649 196.641 C 175.511 196.793,174.503 197.392,173.408 197.972 C 165.925 201.938,162.994 204.633,159.446 210.807 C 158.082 213.181,157.381 214.089,156.586 214.505 C 153.424 216.163,148.956 223.802,148.948 227.565 C 148.945 229.159,148.852 229.398,147.569 231.135 C 144.974 234.649,144.162 237.490,144.647 241.368 C 144.783 242.459,145.013 242.279,145.952 240.349 C 147.172 237.841,148.226 236.271,148.470 236.596 C 149.829 238.412,150.548 241.302,150.602 245.164 C 150.648 248.451,150.329 248.161,155.927 250.007 C 163.104 252.375,163.712 252.365,165.016 249.870 C 165.778 248.412,166.121 247.990,167.093 247.311 C 168.497 246.332,168.854 246.382,169.167 247.607 C 170.479 252.738,171.391 253.862,173.741 253.247 C 175.588 252.763,175.690 252.789,175.547 253.698 C 175.361 254.872,174.804 255.828,173.346 257.468 C 172.606 258.302,171.649 259.394,171.220 259.894 C 170.584 260.636,170.182 260.936,169.038 261.524 C 167.682 262.221,167.588 262.302,166.265 263.923 L 164.895 265.600 153.914 265.600 L 142.934 265.600 143.031 248.776 C 143.084 239.523,143.127 223.944,143.127 214.158 L 143.127 196.364 159.513 196.364 C 175.617 196.364,175.895 196.368,175.649 196.641 M212.264 197.859 C 213.517 200.972,215.662 202.333,220.694 203.203 C 224.339 203.834,230.585 204.504,234.182 204.650 C 240.216 204.896,244.299 206.258,244.955 208.246 C 246.553 213.090,240.061 218.398,231.971 218.863 C 230.125 218.968,229.067 218.758,226.918 217.857 C 220.547 215.188,220.555 215.190,215.782 214.400 C 206.568 212.875,201.621 210.869,192.000 204.756 C 189.273 203.024,181.236 196.811,181.236 196.435 C 181.236 196.395,188.089 196.379,196.464 196.399 L 211.691 196.436 212.264 197.859 M256.000 230.982 L 256.000 265.600 251.396 265.600 L 246.792 265.600 246.882 263.455 C 246.981 261.069,247.289 259.545,247.976 258.036 C 248.989 255.809,248.919 255.245,247.486 254.105 C 245.432 252.470,244.781 251.342,243.930 247.940 C 243.185 244.959,242.976 244.585,241.849 244.224 C 241.067 243.972,241.026 243.883,239.174 238.442 C 234.549 224.854,234.846 225.985,235.425 224.152 C 235.847 222.815,235.855 222.807,237.816 221.957 C 244.641 218.997,247.958 215.814,249.175 211.061 C 249.733 208.881,249.230 207.125,247.646 205.724 C 245.792 204.084,244.552 203.742,236.655 202.693 C 230.125 201.826,225.152 200.661,222.698 199.422 C 221.429 198.781,221.233 198.377,221.475 196.909 L 221.565 196.364 238.783 196.364 L 256.000 196.364 256.000 230.982 M232.158 247.019 C 232.365 247.199,232.888 247.766,233.321 248.281 C 234.248 249.381,235.908 250.791,238.328 252.532 C 240.662 254.212,240.583 254.102,241.421 256.873 C 242.239 259.576,242.247 259.475,241.130 260.359 C 239.240 261.853,237.673 263.653,237.145 264.937 L 236.873 265.599 231.200 265.598 C 226.079 265.597,222.868 265.493,219.593 265.219 L 218.458 265.125 218.554 264.671 C 218.942 262.832,223.109 259.123,227.196 256.978 C 229.077 255.991,229.001 256.190,229.112 251.953 C 229.164 249.979,229.242 248.233,229.286 248.073 C 229.330 247.913,229.405 247.536,229.453 247.236 L 229.540 246.691 230.661 246.692 C 231.613 246.692,231.838 246.741,232.158 247.019 M214.911 247.328 C 215.036 247.518,215.203 248.091,215.282 248.601 C 215.690 251.229,216.198 251.283,218.793 248.968 C 220.464 247.477,220.590 247.462,221.216 248.677 C 222.011 250.221,221.628 251.309,219.276 254.182 C 216.440 257.646,215.570 258.506,213.527 259.861 C 210.929 261.583,210.239 262.483,209.601 264.982 L 209.443 265.600 205.194 265.589 C 201.242 265.579,200.864 265.555,199.782 265.249 L 198.618 264.920 198.652 264.261 C 198.749 262.335,200.640 260.062,202.855 259.211 C 203.325 259.030,204.298 258.631,205.018 258.324 L 206.327 257.766 206.372 257.180 C 206.397 256.847,206.224 255.877,205.972 254.939 C 205.192 252.037,205.345 251.610,207.463 250.773 C 209.103 250.124,209.726 249.784,211.982 248.305 C 214.114 246.907,214.542 246.764,214.911 247.328 M188.803 254.830 C 189.721 255.067,191.389 255.397,192.509 255.563 C 195.358 255.986,195.226 255.945,195.173 256.384 C 195.133 256.712,194.991 256.801,194.014 257.108 C 191.782 257.810,190.997 258.680,190.686 260.800 C 190.404 262.719,189.819 264.963,189.513 265.291 C 189.055 265.782,177.733 265.776,177.209 265.284 C 176.300 264.429,177.299 262.824,179.800 261.121 C 181.515 259.954,182.764 258.845,183.216 258.086 C 183.709 257.259,186.570 254.400,186.904 254.400 C 187.030 254.400,187.885 254.594,188.803 254.830 " stroke="none" fill-rule="evenodd"></path></g></svg>