<svg id="svg" version="1.1" xmlns="http://www.w3.org/2000/svg"  width="400" height="400" viewBox="0, 0, 400,400"><g id="svgg"><path id="path0" d="M7.089 171.995 C 7.089 172.048,6.747 173.714,6.329 175.696 C 5.911 177.679,5.570 179.344,5.570 179.397 C 5.570 179.450,93.946 179.465,201.962 179.431 L 398.354 179.367 399.040 176.329 C 399.416 174.658,399.730 172.978,399.736 172.595 L 399.747 171.899 203.418 171.899 C 95.437 171.899,7.089 171.942,7.089 171.995 M16.871 186.602 C 5.256 189.455,-1.981 201.080,0.657 212.646 C 1.699 217.218,5.834 223.043,9.309 224.833 C 9.689 225.029,10.057 225.259,10.127 225.345 C 10.416 225.703,12.417 226.568,14.430 227.206 C 26.379 230.994,39.664 222.658,41.882 209.981 C 44.454 195.273,31.368 183.040,16.871 186.602 M61.371 186.583 C 42.077 191.573,38.425 217.486,55.823 225.950 C 69.068 232.394,84.809 223.498,86.567 208.575 C 88.211 194.621,74.972 183.066,61.371 186.583 " stroke="none" fill="#e33414" fill-rule="evenodd"></path><path id="path1" d="M362.532 185.681 C 348.758 187.659,340.011 194.524,337.228 205.541 C 333.310 221.043,341.340 228.422,361.699 228.031 C 373.180 227.811,379.777 225.543,385.426 219.877 C 387.636 217.659,391.392 211.924,391.392 210.766 C 391.392 210.693,387.750 210.633,383.298 210.633 L 375.203 210.633 374.787 211.456 C 370.875 219.200,357.271 220.726,353.747 213.816 C 351.852 210.101,353.505 202.961,357.091 199.376 C 363.416 193.051,376.709 194.620,376.709 201.692 L 376.709 202.278 384.684 202.278 L 392.658 202.278 392.658 200.266 C 392.658 192.605,388.357 188.080,379.241 186.149 C 375.560 185.369,366.474 185.114,362.532 185.681 M124.177 185.976 C 119.223 186.710,115.541 188.249,111.266 191.375 C 109.184 192.897,109.153 192.858,109.863 189.609 C 110.147 188.305,110.380 187.148,110.380 187.037 C 110.380 186.926,107.021 186.835,102.916 186.835 L 95.453 186.835 95.317 187.405 C 94.937 188.995,87.089 226.136,87.089 226.342 C 87.089 226.488,90.105 226.582,94.810 226.582 C 99.057 226.582,102.532 226.489,102.532 226.376 C 102.532 225.189,107.480 203.255,107.963 202.302 C 109.952 198.376,116.528 196.274,120.845 198.183 C 123.705 199.449,123.691 200.249,120.543 215.000 L 118.071 226.582 125.808 226.581 L 133.544 226.580 136.027 214.896 C 137.392 208.469,138.686 202.870,138.902 202.452 C 142.131 196.208,154.177 195.689,154.177 201.794 C 154.177 202.721,149.768 224.360,149.216 226.143 C 149.085 226.564,149.523 226.586,156.861 226.523 L 164.645 226.456 167.636 212.405 C 171.379 194.821,171.416 194.447,169.737 191.123 C 166.178 184.078,151.303 184.088,141.789 191.142 C 140.638 191.995,139.673 192.657,139.643 192.612 C 139.614 192.568,139.218 191.940,138.764 191.216 C 136.261 187.225,130.270 185.073,124.177 185.976 M197.722 185.981 C 185.977 186.826,179.310 190.625,176.117 198.291 L 175.722 199.241 183.527 199.241 L 191.331 199.241 191.643 198.487 C 192.899 195.454,198.152 193.766,204.346 194.405 C 209.861 194.974,211.819 196.720,210.279 199.697 C 209.320 201.551,208.854 201.649,197.468 202.403 C 178.210 203.678,174.133 205.183,170.733 212.278 C 165.947 222.263,171.082 227.764,185.443 228.039 C 195.078 228.224,200.049 227.175,204.772 223.960 C 205.517 223.453,206.144 223.038,206.165 223.038 C 206.185 223.038,206.203 223.807,206.203 224.747 L 206.203 226.456 213.975 226.523 L 221.748 226.590 221.477 225.813 C 220.885 224.112,221.374 220.690,223.813 209.494 C 226.983 194.934,226.979 193.157,223.759 190.249 C 220.110 186.952,209.162 185.157,197.722 185.981 M262.405 186.090 C 258.021 186.682,253.360 188.544,250.083 191.014 C 248.740 192.026,248.205 192.307,248.147 192.032 C 248.077 191.709,248.633 188.707,249.026 187.278 C 249.140 186.864,248.667 186.836,241.599 186.837 L 234.051 186.838 230.657 202.849 C 228.791 211.656,226.897 220.600,226.448 222.725 L 225.632 226.590 233.371 226.523 L 241.111 226.456 243.211 216.582 C 245.994 203.498,246.362 202.488,249.188 200.180 C 253.580 196.593,261.345 196.621,263.218 200.230 C 264.166 202.055,264.011 203.374,261.439 215.443 L 259.091 226.456 266.681 226.523 C 270.856 226.560,274.351 226.503,274.449 226.396 C 274.800 226.014,280.333 199.325,280.448 197.462 C 280.949 189.301,273.483 184.595,262.405 186.090 M306.389 186.107 C 297.932 186.803,291.889 189.467,288.440 194.021 C 287.364 195.441,285.823 198.362,285.823 198.982 C 285.823 199.152,288.445 199.241,293.514 199.241 L 301.204 199.241 301.523 198.472 C 302.677 195.685,307.797 193.870,313.291 194.300 C 319.012 194.747,320.713 195.739,320.450 198.476 C 320.166 201.423,319.622 201.585,307.342 202.400 C 287.185 203.737,282.625 205.710,279.830 214.304 C 276.871 223.400,281.831 227.775,295.399 228.036 C 304.888 228.218,310.056 227.147,314.520 224.076 C 316.003 223.056,316.182 223.081,316.021 224.289 C 315.947 224.837,315.960 225.578,316.049 225.934 L 316.212 226.582 323.908 226.582 L 331.605 226.582 331.342 225.633 C 330.837 223.814,331.319 220.539,333.778 209.063 C 336.689 195.476,336.750 194.286,334.686 191.437 C 331.477 187.007,320.525 184.944,306.389 186.107 M208.698 209.810 C 207.546 215.363,203.471 218.378,195.935 219.254 C 189.785 219.969,186.582 218.670,186.582 215.459 C 186.582 211.538,187.817 210.902,197.705 209.731 C 201.682 209.260,205.734 208.714,206.709 208.517 C 207.684 208.321,208.610 208.147,208.767 208.131 C 208.971 208.110,208.951 208.588,208.698 209.810 M318.900 208.544 C 318.833 208.788,318.639 209.614,318.468 210.380 C 317.326 215.514,312.943 218.502,305.403 219.288 C 298.311 220.027,294.768 217.465,296.955 213.178 C 298.074 210.985,299.017 210.691,308.354 209.622 C 312.184 209.183,316.000 208.674,316.835 208.489 C 318.921 208.028,319.041 208.031,318.900 208.544 " stroke="none" fill="#1c1c1c" fill-rule="evenodd"></path></g></svg>