<?xml version="1.0" encoding="UTF-8" standalone="no"?>
<svg
   xmlns="http://www.w3.org/2000/svg"
   id="svg"
   version="1.1"
   width="400"
   height="400"
   viewBox="0, 0, 400,400">
  <g
     id="svgg">
    <path
       style="fill-rule:evenodd;stroke:none"
       id="path0"
       d="m 196.704,113.821 c -8.087,0.561 -18.786,2.65 -22.554,4.404 -0.226,0.106 -1.524,0.623 -2.883,1.149 -12.797,4.955 -25.275,14.309 -34.262,25.683 l -1.098,1.39 H 67.953 0 l 0.003,1.493 c 0.028,12.842 2.711,18.253 11.169,22.523 3.895,1.966 10.445,3.743 14.094,3.823 l 0.858,0.019 0.136,1.261 c 0.075,0.694 0.177,1.633 0.227,2.086 0.163,1.488 0.856,4.509 1.304,5.694 2.826,7.46 14.496,13.152 26.968,13.153 h 1.781 l 0.365,2.609 c 1.712,12.244 12.004,18.186 31.506,18.192 l 5.919,0.002 0.33,0.772 c 0.739,1.731 0.931,2.054 2.177,3.668 4.388,5.682 10.346,8.355 19.95,8.951 2.096,0.13 4.539,0.299 5.43,0.374 l 1.619,0.138 0.814,2.06 c 2.452,6.204 6.68,13.745 10.912,19.464 17.25,23.306 46.278,36.107 74.119,32.685 10.998,-1.352 21.171,-4.722 30.607,-10.142 1.791,-1.028 7.219,-4.526 7.498,-4.831 0.056,-0.062 0.937,-0.758 1.957,-1.546 11.598,-8.968 21.643,-22.4 26.897,-35.966 l 0.688,-1.778 3.612,-0.241 c 5.852,-0.392 8.044,-0.624 9.802,-1.038 6.685,-1.575 12.278,-5.754 14.935,-11.159 l 0.673,-1.37 6.609,-0.093 c 9.19,-0.13 13.71,-1.005 19.173,-3.711 6.934,-3.436 9.985,-7.637 10.86,-14.954 l 0.243,-2.026 3.099,-0.125 c 8.977,-0.362 17.429,-3.361 21.96,-7.792 3.315,-3.241 4.315,-5.535 5.073,-11.632 l 0.336,-2.701 1.562,-0.122 c 10.109,-0.787 19.363,-5.796 22.357,-12.1 1.685,-3.549 2.633,-10.366 2.041,-14.684 l -0.131,-0.956 h -67.199 -67.198 l -0.345,-0.526 c -7.418,-11.322 -28.631,-26.011 -41.927,-29.032 -0.17,-0.039 -1.634,-0.399 -3.253,-0.799 -7.039,-1.743 -16.697,-2.7 -22.906,-2.269 m 12.056,5.749 c 19.222,2.229 37.019,11.743 49.406,26.41 l 0.388,0.46 -19.685,0.005 c -10.827,0.002 -19.828,0.059 -20.002,0.125 -0.173,0.067 -1.176,-0.163 -2.228,-0.511 -9.928,-3.286 -22.069,-3.317 -31.937,-0.081 -1.867,0.612 -2.543,0.748 -3.167,0.636 -0.436,-0.078 -9.344,-0.149 -19.795,-0.158 -12.734,-0.01 -19.001,-0.084 -19.001,-0.225 0,-0.437 8.248,-8.453 10.711,-10.41 15.958,-12.682 35.807,-18.514 55.31,-16.251 m -34.524,31.076 c -0.047,0.043 -1.198,0.824 -2.557,1.735 -6.284,4.209 -10.917,8.854 -15.294,15.333 l -1.774,2.626 H 90.498 c -68.304,0 -66.051,0.03 -70.223,-0.938 C 13.012,167.718 7.407,164.081 5.6,159.879 5.103,158.724 4.429,154.973 4.233,152.266 l -0.123,-1.7 h 85.106 c 46.808,0 85.067,0.036 85.02,0.08 m 221.385,2.135 c -0.456,8.984 -4.763,13.651 -15.077,16.335 -4.97,1.294 -0.945,1.224 -70.62,1.224 h -63.485 l -0.899,-1.456 c -3.818,-6.188 -9.772,-12.299 -16.06,-16.484 l -2.754,-1.834 h 84.503 84.504 l -0.112,2.215 m -188.397,-1.596 c 38.266,5.618 54.097,54.895 26.762,83.296 -27.912,29 -75.526,11.887 -80.25,-28.844 -3.702,-31.909 22.859,-58.949 53.488,-54.452 m -54.872,23.532 c -0.062,0.141 -0.49,1.119 -0.951,2.171 -1.728,3.942 -3.278,9.361 -3.946,13.792 l -0.255,1.699 H 99.662 c -54.48,0 -51.258,0.121 -57.643,-2.174 -7.733,-2.779 -10.874,-6.655 -11.636,-14.355 l -0.138,-1.391 h 61.11 c 48.81,0 61.087,0.052 60.997,0.258 m 217.16,0.206 c -0.071,8.745 -5.356,14.189 -16.04,16.524 -4.349,0.95 -2.893,0.924 -52.587,0.928 l -46.901,0.004 -0.131,-0.772 c -0.962,-5.679 -2.409,-10.848 -4.134,-14.773 -0.497,-1.13 -0.903,-2.126 -0.903,-2.214 0,-0.089 27.157,-0.161 60.35,-0.161 h 60.35 l -0.004,0.464 m -168.609,10.556 c 0,1.359 0.033,1.889 0.074,1.176 0.04,-0.712 0.04,-1.825 -0.001,-2.472 -0.041,-0.646 -0.074,-0.064 -0.073,1.296 m -54.141,12.616 c -0.276,3.171 0.422,10.353 1.443,14.837 l 0.107,0.472 -33.219,-0.069 c -30.551,-0.062 -33.392,-0.097 -35.381,-0.43 -12.388,-2.076 -18.95,-7.5 -18.95,-15.667 v -0.74 h 43.07 43.07 l -0.14,1.597 m 192.143,0.309 c -1.024,7.246 -5.406,11.326 -14.648,13.636 -5.138,1.284 -3.23,1.22 -38.857,1.295 l -32.52,0.069 0.14,-0.677 c 0.913,-4.452 1.355,-8.714 1.356,-13.087 l 0.001,-3.142 h 42.399 42.398 l -0.269,1.906 m -178.816,-0.258 c 0,0.397 0.042,0.559 0.094,0.361 0.052,-0.199 0.052,-0.523 0,-0.721 -0.052,-0.198 -0.094,-0.036 -0.094,0.36 m 0,3.296 c 0,0.396 0.042,0.559 0.094,0.36 0.052,-0.198 0.052,-0.522 0,-0.721 -0.052,-0.198 -0.094,-0.036 -0.094,0.361 m -9.947,18.125 c 0.986,2.785 1.836,4.722 3.272,7.455 0.637,1.212 1.114,2.24 1.06,2.285 -0.104,0.088 -36.946,-2.578 -40.611,-2.938 -6.14,-0.605 -12.205,-4.031 -14.546,-8.216 l -0.477,-0.853 25.268,0.052 25.268,0.053 0.766,2.162 m 151.609,-2.146 c 0,0.405 -1.686,2.532 -2.982,3.763 -3.524,3.348 -7.817,4.987 -14.104,5.386 -1.777,0.113 -11.046,0.808 -20.598,1.545 -9.551,0.736 -17.436,1.339 -17.521,1.339 -0.086,0 0.34,-0.897 0.946,-1.993 1.226,-2.219 2.831,-5.873 3.718,-8.46 l 0.582,-1.699 h 24.979 c 13.739,0 24.98,0.054 24.98,0.119 m -161.895,14.995 c 3.795,0.292 7.502,0.579 8.239,0.637 0.736,0.058 2.683,0.2 4.325,0.316 5.506,0.389 4.921,0.203 6.333,2.019 21.771,28.008 64.106,27.436 84.529,-1.143 0.255,-0.357 1.077,-0.456 8.829,-1.054 9.573,-0.74 10.067,-0.779 13.388,-1.072 1.303,-0.115 3.228,-0.266 4.277,-0.335 l 1.907,-0.125 -0.332,0.803 c -6.166,14.914 -18.062,28.78 -31.873,37.152 -36.062,21.861 -82.274,9.967 -104.414,-26.875 -2.136,-3.554 -5.507,-10.258 -5.507,-10.951 0,-0.144 1.315,-0.064 10.299,0.628 m 59.681,44.358 c 0.594,0.041 1.568,0.041 2.162,0 0.595,-0.042 0.108,-0.076 -1.081,-0.076 -1.19,0 -1.676,0.034 -1.081,0.076" />
    <path
       id="path2"
       d="m 194.851,123.175 c -17.219,1.607 -32.003,8.453 -44.643,20.673 -1.276,1.234 -2.319,2.321 -2.319,2.416 0,0.096 7.392,0.182 16.426,0.191 9.035,0.01 16.784,0.081 17.22,0.159 0.623,0.112 1.302,-0.025 3.167,-0.636 9.868,-3.236 22.009,-3.205 31.937,0.081 1.052,0.348 2.054,0.579 2.226,0.512 0.172,-0.066 8.024,-0.125 17.449,-0.13 l 17.136,-0.011 -2.987,-2.931 c -14.744,-14.472 -35.812,-22.171 -55.612,-20.324 m 6.306,5.198 c 0.896,1.786 0.823,1.732 2.587,1.909 1.821,0.183 1.839,0.256 0.381,1.606 l -1.228,1.137 0.305,1.593 c 0.381,1.99 0.37,1.998 -1.362,1.051 l -1.429,-0.781 -1.544,0.809 c -1.728,0.906 -1.667,0.963 -1.306,-1.221 l 0.238,-1.443 -1.186,-1.198 c -1.324,-1.338 -1.322,-1.344 0.4,-1.552 1.669,-0.202 1.756,-0.268 2.566,-1.943 0.852,-1.761 0.675,-1.765 1.578,0.033 m -4.21,29.212 c -12.05,1.163 -22.925,7.858 -29.736,18.305 -0.771,1.184 -1.403,2.227 -1.403,2.317 0,0.091 2.27,0.166 5.045,0.166 h 5.044 l 0.053,8.881 0.054,8.882 7.474,-8.882 7.473,-8.881 h 22.25 22.25 l -0.578,-1.033 c -7.297,-13.034 -22.972,-21.198 -37.926,-19.755 m -0.963,31.552 c -2.606,3.16 -5.186,6.292 -5.735,6.959 l -0.996,1.213 8.978,10.608 c 4.938,5.833 8.978,10.656 8.978,10.717 0,0.06 -3.473,0.11 -7.718,0.11 h -7.718 l -7.884,-9.315 -7.885,-9.314 -0.053,9.314 -0.054,9.315 h -5.784 -5.783 l 1.064,1.991 c 12.93,24.199 44.712,28.855 63.552,9.31 10.254,-10.638 14.504,-26.884 10.744,-41.065 l -0.273,-1.029 -6.423,-0.055 -6.423,-0.054 v 15.554 15.554 h -6.386 -6.385 v -15.551 -15.551 h -6.481 -6.482 l -0.058,-2.229 -0.058,-2.229 -4.737,5.747 m -33.745,-2.783 c -2.864,9.145 -2.682,20.773 0.446,28.373 l 0.423,1.03 0.012,-15.911 c 0.006,-8.752 -0.019,-15.912 -0.056,-15.912 -0.037,0 -0.408,1.089 -0.825,2.42 m -28.355,45.739 c 0.001,0.261 2.388,5.065 3.396,6.836 17.01,29.9 50.884,44.201 82.905,35 19.544,-5.616 36.12,-19.662 45.538,-38.587 0.897,-1.803 1.608,-3.294 1.579,-3.314 -0.028,-0.02 -0.932,0.035 -2.008,0.123 -1.077,0.087 -2.56,0.208 -3.296,0.268 -0.736,0.059 -5.185,0.406 -9.887,0.77 -7.751,0.6 -8.574,0.699 -8.829,1.056 -20.423,28.579 -62.758,29.151 -84.529,1.143 -1.414,-1.819 -0.825,-1.634 -6.436,-2.024 -1.699,-0.118 -3.599,-0.258 -4.222,-0.311 -0.623,-0.053 -3.775,-0.282 -7.003,-0.509 -3.229,-0.227 -6.172,-0.453 -6.54,-0.502 -0.368,-0.05 -0.669,-0.027 -0.668,0.051 m 22.021,12.981 0.698,1.442 1.741,0.247 1.74,0.248 -1.256,1.267 -1.257,1.268 0.311,1.623 c 0.383,2.001 0.462,1.942 -1.396,1.023 l -1.544,-0.764 -1.388,0.763 c -1.681,0.924 -1.666,0.935 -1.35,-1.028 l 0.255,-1.577 -1.272,-1.283 -1.273,-1.284 1.099,-0.138 c 2.531,-0.321 2.396,-0.241 3.212,-1.889 0.871,-1.761 0.787,-1.765 1.68,0.082 m 91.098,1.956 c 0.374,0.064 1.12,0.179 1.658,0.254 1.216,0.17 1.219,0.144 -0.168,1.545 l -1.146,1.159 0.307,1.626 c 0.378,2.002 0.46,1.942 -1.37,1 l -1.52,-0.782 -1.355,0.757 c -1.805,1.01 -1.787,1.021 -1.451,-0.923 l 0.29,-1.682 -1.145,-1.156 c -1.404,-1.42 -1.405,-1.375 0.04,-1.549 2.124,-0.254 2.098,-0.237 2.878,-1.942 l 0.717,-1.568 0.793,1.572 c 0.704,1.395 0.869,1.584 1.472,1.689"
       style="fill-rule:evenodd;stroke:none" />
  </g>
</svg>
