<?xml version="1.0" encoding="UTF-8" standalone="no"?>
<svg
   xmlns="http://www.w3.org/2000/svg"
   version="1.1"
   viewBox="0, 0, 400,400"
   height="400"
   width="400"
   id="svg">
  <g
     id="svgg">
    <path
       style="fill-rule:evenodd;stroke:none;stroke-width:2.78502655"
       d="m 222.97687,7.2258375 c -5.76501,3.3587425 -7.80365,9.7977235 -7.97632,25.2072755 -0.38433,33.687682 -16.72408,46.983398 -38.23563,31.114317 -3.88233,-2.865792 -8.5751,-4.469968 -13.07848,-4.469968 -11.34899,0 -12.42679,3.347602 -12.23741,38.062959 0.17824,33.294989 -0.47903,36.013179 -11.67762,48.161469 -7.50007,8.13784 -7.60312,8.43584 -6.35821,18.39788 2.22245,17.7824 -8.77562,27.19579 -37.129978,31.78551 -28.741474,4.65378 -33.824147,12.60224 -23.903883,37.3862 7.605908,18.99945 22.115896,22.73695 45.206551,11.64419 6.63672,-3.18885 20.84035,-8.95107 31.56271,-12.80555 10.72235,-3.85169 25.34374,-9.27135 32.4929,-12.04246 7.14917,-2.76831 16.75751,-6.15769 21.3528,-7.52792 4.59529,-1.37302 11.78345,-3.74308 15.97491,-5.26649 4.19425,-1.52341 14.22035,-3.26683 22.28022,-3.87675 25.58325,-1.92724 49.53169,-6.81218 54.57816,-11.12897 13.98084,-11.9589 15.55159,7.87048 2.56223,32.34251 -6.64229,12.51034 -41.52197,53.95711 -45.40986,53.95711 -2.50653,0 -21.5756,26.42712 -27.54949,38.18271 -14.96951,29.45723 -17.64592,72.04864 -4.83202,76.91965 11.87814,4.51453 16.2562,-2.83237 22.15211,-37.17732 5.32218,-30.99177 17.69884,-52.67321 48.75189,-85.39448 20.57577,-21.68144 30.26488,-34.40065 31.25078,-41.02066 0.36205,-2.43411 2.0637,-8.18519 3.78485,-12.78049 16.20328,-43.2988 -4.15526,-75.32661 -33.7768,-53.13552 -12.85012,9.62784 -48.72683,22.0602 -70.40269,24.39405 -14.31782,1.5429 -42.90612,6.46405 -60.06467,10.3408 -16.52913,3.73194 -19.06907,3.45901 -15.3622,-1.64873 6.2858,-8.66422 8.2019,-16.18101 7.03497,-27.57734 l -1.17249,-11.46038 6.87623,-5.66753 6.87901,-5.67031 6.66736,7.22436 c 8.11278,8.78675 14.37073,10.69728 22.03791,6.73419 18.0052,-9.31313 14.99458,-32.14478 -4.53681,-34.40622 l -9.0764,-1.04995 0.38991,-8.34673 c 0.67119,-14.44315 1.78798,-16.701803 8.24924,-16.701803 16.75472,0 33.79073,-12.173351 44.09533,-31.50422 l 6.02958,-11.315563 6.82332,1.450998 c 25.07081,5.330541 41.08471,-2.473103 33.63755,-16.389881 -1.55683,-2.910353 -3.63446,-3.584329 -10.02331,-3.255696 -10.57753,0.54865 -16.30633,-3.378237 -23.48335,-16.097454 C 238.70391,7.4764899 231.00053,2.5525629 222.97687,7.2258375 M 106.45414,222.45269 c -2.31993,4.33629 -6.472402,5.804 -9.065262,3.21114 -4.818096,-4.8181 -0.272933,-9.1516 7.619832,-7.26614 2.43968,0.58207 2.78503,1.55126 1.44543,4.055"
       id="path0" />
  </g>
</svg>
