<svg id="svg" xmlns="http://www.w3.org/2000/svg"  width="400" height="400" viewBox="0, 0, 400,400"><g id="svgg"><path id="path0" d="M177.640 1.435 C 43.071 20.745,-12.066 186.141,83.968 282.424 C 169.318 367.995,316.188 334.109,355.864 219.692 C 396.089 103.694,298.433 -15.898,177.640 1.435 M220.741 24.584 C 235.275 26.981,250.039 31.175,256.573 34.764 C 258.355 35.742,260.209 36.543,260.693 36.543 C 262.054 36.543,278.970 46.476,279.342 47.494 C 279.523 47.989,280.113 48.395,280.654 48.395 C 284.268 48.395,306.907 70.119,314.105 80.494 C 315.989 83.210,317.754 85.654,318.028 85.926 C 321.457 89.334,331.090 109.095,334.638 120.000 C 336.483 125.673,337.101 128.040,339.919 140.247 C 342.294 150.533,341.650 185.484,338.882 196.543 C 314.117 295.485,203.755 338.884,119.947 282.638 C 95.543 266.259,76.748 242.015,66.129 213.214 C 61.768 201.387,58.359 180.529,58.306 165.346 C 58.255 150.755,61.726 130.534,66.428 118.025 C 67.244 115.852,68.482 112.519,69.178 110.617 C 70.772 106.260,79.805 88.994,81.062 87.901 C 81.374 87.630,83.484 84.656,85.750 81.293 C 90.936 73.597,103.947 59.830,111.367 54.184 C 114.481 51.815,117.893 49.099,118.948 48.148 C 120.003 47.198,121.449 46.420,122.162 46.420 C 122.874 46.420,123.457 45.975,123.457 45.432 C 123.457 44.889,123.856 44.444,124.344 44.444 C 124.831 44.444,128.156 42.667,131.733 40.494 C 135.310 38.321,138.675 36.543,139.211 36.543 C 139.748 36.543,141.645 35.742,143.427 34.764 C 150.093 31.103,162.824 27.516,180.741 24.251 C 188.914 22.761,210.791 22.944,220.741 24.584 M121.022 68.248 C 107.403 79.204,85.926 107.473,85.926 114.443 C 85.926 115.250,96.787 115.556,125.432 115.556 C 147.160 115.556,164.938 115.823,164.938 116.150 C 164.938 116.477,159.196 132.588,152.179 151.952 C 108.198 273.309,112.908 256.924,120.291 262.891 C 134.879 274.680,165.464 290.173,168.385 287.253 C 168.619 287.018,174.653 270.846,181.793 251.314 C 188.933 231.783,201.206 198.247,209.066 176.790 C 216.926 155.333,225.148 132.778,227.337 126.667 L 231.317 115.556 274.177 115.556 C 297.750 115.556,317.037 115.290,317.037 114.966 C 317.037 107.458,294.231 77.800,279.664 66.363 L 274.391 62.222 201.451 62.222 L 128.512 62.222 121.022 68.248 M234.701 142.995 C 233.799 144.453,216.296 193.595,216.296 194.668 C 216.296 195.421,224.436 195.632,243.704 195.379 L 271.111 195.019 277.748 176.769 C 281.398 166.731,285.715 154.852,287.341 150.370 L 290.297 142.222 262.738 142.222 C 247.580 142.222,234.963 142.570,234.701 142.995 M196.390 248.393 C 191.221 262.787,187.215 274.787,187.488 275.060 C 187.760 275.332,205.386 275.556,226.655 275.556 L 265.327 275.556 272.664 270.510 C 288.277 259.773,300.500 246.665,310.355 230.088 L 315.032 222.222 260.410 222.222 L 205.789 222.222 196.390 248.393 M39.187 355.309 C 38.947 355.716,38.443 357.605,38.067 359.506 C 37.691 361.407,37.164 363.741,36.897 364.691 C 36.472 366.201,37.169 366.420,42.403 366.420 C 49.537 366.420,49.275 364.971,45.432 383.210 C 41.562 401.578,41.192 400.000,49.364 400.000 C 55.700 400.000,56.301 399.820,56.784 397.778 C 57.697 393.916,63.210 367.441,63.210 366.919 C 63.210 366.644,66.049 366.420,69.520 366.420 L 75.830 366.420 76.501 362.716 C 76.870 360.679,77.412 358.012,77.705 356.790 L 78.239 354.568 58.931 354.568 C 48.311 354.568,39.427 354.901,39.187 355.309 M81.975 354.875 C 81.975 355.044,79.975 364.832,77.531 376.627 C 75.086 388.422,73.086 398.507,73.086 399.036 C 73.086 399.570,76.148 400.000,79.952 400.000 L 86.817 400.000 88.515 392.099 L 90.213 384.198 94.292 384.198 C 99.872 384.198,100.741 385.421,100.741 393.284 L 100.741 400.000 107.407 400.000 L 114.074 400.000 113.742 391.358 C 113.555 386.507,112.843 381.827,112.118 380.689 C 110.960 378.870,111.098 378.541,113.463 377.494 C 121.869 373.773,121.555 359.524,112.989 355.945 C 110.125 354.749,81.975 353.777,81.975 354.875 M130.692 376.482 C 123.725 388.536,117.877 398.758,117.695 399.199 C 117.514 399.639,120.654 400.000,124.673 400.000 L 131.980 400.000 133.628 396.543 L 135.277 393.086 142.161 393.086 L 149.046 393.086 149.695 396.543 L 150.343 400.000 157.147 400.000 C 162.082 400.000,163.951 399.646,163.951 398.712 C 163.951 397.122,158.232 359.860,157.517 356.790 C 157.042 354.750,156.440 354.568,150.179 354.568 L 143.359 354.568 130.692 376.482 M176.790 354.875 C 176.790 355.044,174.790 364.832,172.346 376.627 C 169.901 388.422,167.901 398.507,167.901 399.036 C 167.901 400.933,181.534 400.200,182.127 398.272 C 183.137 394.984,190.612 358.018,190.615 356.296 C 190.617 354.815,189.631 354.568,183.704 354.568 C 179.901 354.568,176.790 354.706,176.790 354.875 M194.659 359.259 C 192.775 367.337,186.687 397.470,186.677 398.765 C 186.669 399.705,190.674 400.000,203.438 400.000 L 220.209 400.000 220.818 397.284 C 221.152 395.790,221.792 393.123,222.238 391.358 L 223.051 388.148 213.254 388.148 C 207.679 388.148,203.457 387.741,203.457 387.204 C 203.457 386.684,204.790 379.848,206.420 372.011 C 210.365 353.042,210.702 354.568,202.568 354.568 L 195.753 354.568 194.659 359.259 M240.505 356.790 C 238.859 363.829,232.099 397.466,232.099 398.622 C 232.099 399.752,235.457 400.000,250.782 400.000 L 269.466 400.000 270.535 395.013 C 271.124 392.270,271.605 389.604,271.605 389.087 C 271.605 388.548,266.768 388.148,260.247 388.148 L 248.889 388.148 248.889 385.679 L 248.889 383.210 259.695 383.210 C 271.778 383.210,271.236 383.502,272.167 376.486 L 272.847 371.358 262.244 371.358 C 252.981 371.358,251.716 371.161,252.240 369.796 C 252.570 368.937,252.840 367.825,252.840 367.327 C 252.840 366.827,258.108 366.420,264.579 366.420 L 276.319 366.420 277.004 361.849 C 277.381 359.335,277.924 356.668,278.210 355.923 C 278.639 354.804,275.449 354.568,259.878 354.568 C 241.140 354.568,241.022 354.581,240.505 356.790 M283.005 358.272 C 282.636 360.309,282.099 362.958,281.810 364.159 C 281.302 366.278,281.557 366.351,290.427 366.628 L 299.567 366.914 287.808 377.183 C 275.213 388.182,275.197 388.203,274.147 395.329 L 273.453 400.041 293.517 399.774 L 313.580 399.506 314.624 394.074 L 315.668 388.642 305.312 388.148 L 294.957 387.654 307.056 377.408 C 319.507 366.863,320.247 365.897,321.350 358.765 L 321.999 354.568 302.838 354.568 L 283.677 354.568 283.005 358.272 M325.138 359.753 C 320.456 381.781,317.037 398.399,317.037 399.130 C 317.037 399.609,325.464 400.000,335.764 400.000 L 354.492 400.000 355.413 396.296 C 357.680 387.184,358.843 388.148,345.587 388.148 C 339.104 388.148,333.827 387.741,333.827 387.241 C 333.827 383.599,334.936 383.210,345.315 383.210 C 356.790 383.210,356.396 383.465,357.931 375.062 L 358.608 371.358 347.836 371.358 L 337.064 371.358 337.536 368.889 C 338.008 366.421,338.015 366.420,349.663 366.420 L 361.318 366.420 362.387 361.433 C 362.976 358.690,363.457 356.023,363.457 355.507 C 363.457 354.947,355.953 354.568,344.849 354.568 L 326.240 354.568 325.138 359.753 M104.782 367.519 C 106.968 370.972,103.276 374.321,97.284 374.321 C 92.507 374.321,91.946 373.317,93.491 367.543 C 94.211 364.854,103.082 364.836,104.782 367.519 M148.091 380.988 C 148.140 382.880,147.635 383.210,144.691 383.210 C 140.547 383.210,140.590 383.583,143.951 376.721 L 146.667 371.176 147.350 374.971 C 147.727 377.058,148.060 379.765,148.091 380.988 M210.860 372.593 C 207.226 382.869,207.713 383.382,220.742 383.001 C 231.557 382.685,230.685 383.315,232.406 374.568 L 233.037 371.358 222.167 371.358 C 214.361 371.358,211.173 371.706,210.860 372.593 " stroke="none" fill-rule="evenodd"></path></g></svg>