<svg id="svg" xmlns="http://www.w3.org/2000/svg"  width="400" height="400" viewBox="0, 0, 400,400"><g id="svgg"><path id="path0" d="M171.774 1.735 C 9.086 25.080,-57.572 225.036,58.529 341.438 C 161.712 444.889,339.272 403.923,387.239 265.598 C 435.869 125.362,317.807 -19.219,171.774 1.735 M223.881 29.722 C 241.452 32.619,259.301 37.689,267.200 42.028 C 269.355 43.211,271.596 44.179,272.181 44.179 C 273.826 44.179,294.277 56.188,294.726 57.418 C 294.945 58.017,295.659 58.507,296.313 58.507 C 300.682 58.507,328.052 84.771,336.754 97.313 C 339.032 100.597,341.166 103.552,341.496 103.881 C 345.642 108.001,357.288 131.891,361.577 145.075 C 363.808 151.933,364.554 154.794,367.962 169.552 C 370.833 181.988,370.054 224.241,366.708 237.612 C 336.768 357.229,203.346 409.696,102.026 341.697 C 72.522 321.896,49.800 292.585,36.962 257.767 C 31.690 243.467,27.569 218.251,27.505 199.896 C 27.443 182.256,31.639 157.810,37.323 142.687 C 38.310 140.060,39.806 136.030,40.648 133.731 C 42.575 128.463,53.496 107.590,55.015 106.269 C 55.393 105.940,57.943 102.345,60.683 98.279 C 66.953 88.976,82.682 72.331,91.653 65.507 C 95.418 62.642,99.542 59.358,100.818 58.209 C 102.093 57.060,103.842 56.119,104.703 56.119 C 105.564 56.119,106.269 55.582,106.269 54.925 C 106.269 54.269,106.751 53.731,107.341 53.731 C 107.930 53.731,111.950 51.582,116.274 48.955 C 120.598 46.328,124.667 44.179,125.315 44.179 C 125.964 44.179,128.257 43.211,130.411 42.028 C 138.471 37.602,153.862 33.265,175.522 29.318 C 185.403 27.518,211.852 27.738,223.881 29.722 M103.325 82.509 C 86.860 95.754,60.896 129.930,60.896 138.356 C 60.896 139.332,74.027 139.701,108.657 139.701 C 134.925 139.701,156.418 140.025,156.418 140.420 C 156.418 140.815,149.476 160.293,140.992 183.704 C 87.821 330.418,93.515 310.609,102.441 317.823 C 120.078 332.076,157.054 350.807,160.584 347.276 C 160.868 346.992,168.163 327.441,176.795 303.828 C 185.427 280.215,200.264 239.672,209.766 213.731 C 219.269 187.791,229.209 160.522,231.855 153.134 L 236.666 139.701 288.482 139.701 C 316.981 139.701,340.299 139.381,340.299 138.988 C 340.299 129.912,312.727 94.056,295.117 80.230 L 288.741 75.224 200.561 75.224 L 112.380 75.224 103.325 82.509 M240.758 172.875 C 239.668 174.638,218.507 234.048,218.507 235.344 C 218.507 236.255,228.348 236.511,251.642 236.205 L 284.776 235.769 292.800 213.706 C 297.213 201.570,302.432 187.209,304.398 181.791 L 307.971 171.940 274.653 171.940 C 256.328 171.940,241.075 172.361,240.758 172.875 M194.442 300.296 C 188.193 317.698,183.349 332.205,183.679 332.535 C 184.009 332.865,205.317 333.134,231.031 333.134 L 277.784 333.134 286.653 327.035 C 305.529 314.054,320.306 298.207,332.221 278.166 L 337.874 268.657 271.839 268.657 L 205.804 268.657 194.442 300.296 " stroke="none" fill-rule="evenodd"></path></g></svg>