<svg id="svg" version="1.1" xmlns="http://www.w3.org/2000/svg"  width="400" height="400" viewBox="0, 0, 400,400"><g id="svgg"><path id="path0" d="M65.367 138.645 C 49.762 146.718,36.502 160.254,31.649 173.065 C 30.246 176.769,28.785 180.610,28.402 181.600 C 28.019 182.590,25.948 187.990,23.800 193.600 C 21.652 199.210,19.545 204.700,19.117 205.800 C 18.690 206.900,18.195 208.250,18.017 208.800 C 17.840 209.350,17.471 210.340,17.198 211.000 C 16.924 211.660,16.564 212.560,16.398 213.000 C 16.232 213.440,15.825 214.520,15.493 215.400 C 15.161 216.280,14.580 217.810,14.200 218.800 C 13.820 219.790,13.260 221.275,12.955 222.100 C 12.650 222.925,12.141 224.275,11.825 225.100 C 6.034 240.208,5.678 241.511,6.555 244.400 C 10.130 256.173,21.639 262.134,44.830 264.223 C 54.279 265.075,89.449 265.239,98.600 264.474 C 113.331 263.243,119.058 262.708,125.600 261.951 C 140.648 260.211,149.666 259.004,162.600 256.999 C 164.800 256.658,167.770 256.204,169.200 255.990 C 170.630 255.776,173.510 255.329,175.600 254.996 C 177.690 254.663,181.110 254.129,183.200 253.810 C 185.290 253.490,188.710 252.952,190.800 252.614 C 192.890 252.276,195.860 251.817,197.400 251.596 C 200.637 251.130,211.969 249.356,215.200 248.809 C 216.410 248.605,220.190 248.067,223.600 247.615 C 227.010 247.162,230.340 246.695,231.000 246.576 C 236.159 245.645,260.578 243.039,274.600 241.922 C 283.382 241.222,316.070 241.225,323.000 241.926 C 325.860 242.215,331.710 242.794,336.000 243.213 C 344.218 244.015,346.400 244.338,346.400 244.753 C 346.400 248.039,336.206 262.864,328.720 270.466 C 325.462 273.774,323.179 275.747,317.047 280.554 C 315.317 281.911,315.428 282.353,317.286 281.504 C 318.009 281.174,319.950 280.405,321.600 279.796 C 330.961 276.341,342.775 269.671,348.800 264.439 C 353.389 260.453,360.221 252.284,361.475 249.281 C 361.779 248.555,362.556 246.806,363.203 245.394 C 363.850 243.982,364.834 241.745,365.390 240.423 C 366.364 238.111,367.640 235.211,369.196 231.777 C 369.601 230.885,371.129 227.285,372.592 223.777 C 375.104 217.756,375.985 215.670,376.805 213.800 C 376.998 213.360,378.259 210.300,379.607 207.000 C 380.955 203.700,382.294 200.460,382.581 199.800 C 382.868 199.140,384.124 195.990,385.373 192.800 C 386.621 189.610,387.812 186.640,388.019 186.200 C 388.457 185.270,392.590 174.239,393.478 171.626 C 395.702 165.091,387.001 157.492,373.600 154.264 C 357.081 150.285,319.054 149.468,287.600 152.417 C 279.890 153.140,267.961 154.398,265.000 154.800 C 263.460 155.009,260.130 155.457,257.600 155.797 C 255.070 156.136,250.390 156.785,247.200 157.241 C 244.010 157.696,240.230 158.230,238.800 158.427 C 237.370 158.625,235.120 158.961,233.800 159.174 C 229.196 159.917,223.770 160.771,219.600 161.409 C 217.290 161.762,212.700 162.484,209.400 163.012 C 197.945 164.847,185.375 166.773,180.800 167.395 C 178.270 167.739,175.120 168.193,173.800 168.404 C 167.120 169.472,151.679 171.348,137.600 172.802 C 118.370 174.789,90.857 175.165,74.400 173.666 C 69.230 173.195,62.076 172.549,58.503 172.230 C 54.930 171.912,51.825 171.539,51.603 171.402 C 49.682 170.215,58.464 152.135,66.613 140.500 C 68.038 138.465,69.143 136.800,69.069 136.800 C 68.995 136.800,67.329 137.630,65.367 138.645 M331.932 164.656 C 334.966 164.973,334.535 163.553,336.615 180.069 C 337.561 187.583,336.847 187.861,344.992 176.811 C 353.566 165.179,352.769 166.028,354.892 166.261 C 362.395 167.084,373.412 168.879,373.890 169.357 C 374.078 169.545,369.868 174.516,364.016 181.017 C 363.017 182.126,361.765 183.566,361.234 184.217 C 360.702 184.868,358.532 187.380,356.411 189.800 C 341.824 206.442,342.894 204.861,340.427 213.400 C 339.096 218.003,338.661 219.507,337.473 223.600 L 336.137 228.200 334.769 228.175 C 330.608 228.099,316.554 227.078,316.292 226.832 C 316.122 226.673,316.259 225.656,316.596 224.572 C 316.933 223.487,317.855 220.350,318.645 217.600 C 319.436 214.850,320.347 211.700,320.671 210.600 C 320.995 209.500,321.534 207.430,321.869 206.000 L 322.477 203.400 320.470 195.400 C 319.366 191.000,317.531 183.800,316.393 179.400 C 315.255 175.000,314.177 170.801,313.997 170.068 C 313.335 167.372,313.273 167.454,311.625 173.200 C 310.900 175.730,310.079 178.430,309.800 179.200 L 309.294 180.600 302.488 180.957 L 295.682 181.314 293.586 188.357 C 292.434 192.231,290.777 197.830,289.904 200.800 C 287.521 208.914,287.249 209.837,286.633 211.900 C 286.320 212.945,285.681 215.150,285.211 216.800 C 284.741 218.450,283.823 221.543,283.170 223.672 L 281.983 227.545 279.891 227.748 C 278.741 227.860,275.010 228.151,271.600 228.395 C 268.190 228.640,264.455 228.941,263.300 229.066 C 260.846 229.330,260.857 229.360,261.986 225.611 C 262.419 224.175,263.334 221.110,264.019 218.800 C 264.705 216.490,265.418 214.150,265.603 213.600 C 265.789 213.050,266.327 211.250,266.800 209.600 C 267.273 207.950,267.812 206.150,267.999 205.600 C 268.185 205.050,268.811 202.980,269.390 201.000 C 269.969 199.020,270.683 196.590,270.977 195.600 C 271.271 194.610,271.910 192.450,272.397 190.800 C 272.884 189.150,273.534 187.029,273.841 186.086 C 274.841 183.020,274.902 183.069,270.500 183.383 C 268.355 183.536,265.432 183.820,264.003 184.014 C 261.114 184.407,260.579 184.172,261.150 182.761 C 261.364 182.232,262.393 178.920,263.437 175.400 C 265.756 167.583,265.012 168.328,271.106 167.715 C 295.145 165.294,324.103 163.838,331.932 164.656 M259.449 171.665 C 258.567 174.831,257.908 177.033,255.400 185.200 C 254.150 189.270,252.873 193.455,252.564 194.500 C 252.254 195.545,251.746 197.255,251.437 198.300 C 251.127 199.345,249.580 204.430,247.999 209.600 C 246.418 214.770,244.977 219.600,244.797 220.334 C 244.616 221.068,244.286 222.148,244.062 222.734 C 243.838 223.320,243.160 225.463,242.556 227.496 C 241.300 231.722,241.786 231.396,235.585 232.179 C 233.063 232.497,228.930 233.036,226.400 233.376 C 220.335 234.190,219.841 234.184,220.192 233.300 C 220.344 232.915,221.731 228.460,223.273 223.400 C 224.815 218.340,226.770 211.950,227.618 209.200 C 228.466 206.450,230.262 200.600,231.610 196.200 C 232.958 191.800,235.056 184.960,236.273 181.000 C 237.490 177.040,238.577 173.401,238.687 172.913 C 238.798 172.425,239.263 171.907,239.722 171.761 C 241.240 171.279,259.798 168.978,259.922 169.257 C 259.989 169.407,259.776 170.491,259.449 171.665 M211.599 176.500 C 211.598 177.000,210.303 181.254,205.604 196.200 C 204.912 198.400,204.109 201.010,203.819 202.000 C 203.360 203.566,201.957 208.062,198.829 218.000 C 197.728 221.496,197.745 222.151,198.929 221.854 C 199.440 221.725,203.535 221.084,208.029 220.427 C 212.523 219.771,216.785 219.114,217.500 218.967 C 218.346 218.793,218.800 218.855,218.800 219.144 C 218.800 219.983,214.424 234.494,214.051 234.892 C 213.807 235.151,209.809 235.800,196.200 237.793 C 194.000 238.115,188.510 238.936,184.000 239.617 C 174.160 241.102,171.200 241.419,171.200 240.985 C 171.200 240.806,171.936 238.306,172.835 235.430 C 176.074 225.072,179.260 214.981,179.601 214.000 C 179.792 213.450,180.778 210.300,181.792 207.000 C 182.806 203.700,183.884 200.280,184.188 199.400 C 184.492 198.520,185.495 195.370,186.417 192.400 C 187.339 189.430,188.671 185.201,189.376 183.002 L 190.659 179.004 192.229 178.730 C 193.093 178.579,195.870 178.148,198.400 177.774 C 200.930 177.399,204.350 176.872,206.000 176.602 C 210.140 175.925,211.600 175.898,211.599 176.500 M184.000 180.555 C 184.000 181.122,183.261 183.524,178.329 199.000 C 176.786 203.840,175.014 209.420,174.390 211.400 C 173.766 213.380,171.999 218.960,170.463 223.800 C 168.927 228.640,167.014 234.675,166.214 237.211 C 165.413 239.747,164.632 242.017,164.479 242.256 C 164.223 242.655,162.217 242.966,149.389 244.596 C 146.963 244.905,144.686 245.269,144.329 245.406 C 143.253 245.819,143.138 244.962,143.942 242.520 C 144.363 241.244,146.089 235.880,147.779 230.600 C 154.070 210.947,160.294 191.560,161.969 186.400 C 163.273 182.386,161.996 182.924,174.200 181.248 C 184.422 179.845,184.000 179.875,184.000 180.555 M157.600 184.091 C 157.600 184.607,154.372 195.020,153.338 197.842 L 152.736 199.484 148.868 199.941 C 146.741 200.193,143.689 200.515,142.087 200.658 C 138.463 200.981,139.340 199.485,135.085 212.600 C 126.097 240.302,123.863 247.045,123.566 247.366 C 122.978 248.003,102.800 249.552,102.800 248.961 C 102.800 248.638,105.957 238.942,114.866 211.899 C 116.442 207.114,117.621 203.088,117.486 202.953 C 117.351 202.818,114.486 202.890,111.120 203.113 C 107.571 203.348,104.843 203.369,104.625 203.164 C 104.395 202.947,105.246 199.830,106.825 195.105 L 109.400 187.400 116.000 187.131 C 119.630 186.983,125.030 186.661,128.000 186.415 C 135.761 185.772,153.728 183.987,154.200 183.812 C 155.209 183.437,157.600 183.633,157.600 184.091 M54.766 184.614 C 57.024 184.952,61.772 185.587,65.315 186.026 C 68.859 186.466,71.815 186.881,71.883 186.950 C 71.952 187.019,70.644 189.938,68.976 193.438 C 63.739 204.425,61.200 209.898,61.200 210.200 C 61.200 210.279,60.649 211.572,59.975 213.072 C 57.255 219.127,56.704 220.461,54.886 225.400 C 52.785 231.106,52.684 231.484,52.961 232.588 C 53.284 233.876,55.733 234.389,62.043 234.491 C 69.885 234.618,70.661 234.066,72.569 227.000 C 74.548 219.671,75.667 215.358,75.994 213.800 C 76.178 212.920,76.597 211.030,76.925 209.600 C 78.702 201.846,80.229 194.104,80.635 190.800 C 81.087 187.115,80.102 187.382,92.672 187.542 C 98.792 187.621,103.840 187.721,103.889 187.765 C 104.054 187.913,88.944 232.981,87.985 235.200 C 82.458 247.988,74.137 251.992,55.950 250.614 C 41.180 249.494,37.746 248.073,34.769 241.845 C 32.139 236.341,32.355 235.099,39.600 214.000 C 41.828 207.510,44.076 200.940,44.595 199.400 C 46.148 194.789,49.101 186.278,49.556 185.100 C 50.055 183.805,49.626 183.845,54.766 184.614 " stroke="none" fill="#dc3d4d" fill-rule="evenodd"></path><path id="path1" d="M191.500 78.682 C 191.995 78.778,192.805 78.778,193.300 78.682 C 193.795 78.587,193.390 78.509,192.400 78.509 C 191.410 78.509,191.005 78.587,191.500 78.682 M212.400 78.814 C 213.219 79.009,213.958 78.992,214.180 78.773 C 214.416 78.541,213.886 78.415,212.780 78.441 L 211.000 78.482 212.400 78.814 M182.800 79.200 C 182.800 79.420,183.070 79.600,183.400 79.600 C 183.730 79.600,184.000 79.420,184.000 79.200 C 184.000 78.980,183.730 78.800,183.400 78.800 C 183.070 78.800,182.800 78.980,182.800 79.200 M220.800 79.200 C 220.800 79.420,221.160 79.600,221.600 79.600 C 222.040 79.600,222.400 79.420,222.400 79.200 C 222.400 78.980,222.040 78.800,221.600 78.800 C 221.160 78.800,220.800 78.980,220.800 79.200 M176.720 80.080 C 177.093 80.453,177.307 80.453,177.680 80.080 C 178.053 79.707,177.947 79.600,177.200 79.600 C 176.453 79.600,176.347 79.707,176.720 80.080 M172.400 80.400 C 172.400 80.620,172.670 80.800,173.000 80.800 C 173.330 80.800,173.600 80.620,173.600 80.400 C 173.600 80.180,173.330 80.000,173.000 80.000 C 172.670 80.000,172.400 80.180,172.400 80.400 M194.815 83.898 C 193.394 83.978,192.044 84.188,191.815 84.367 C 191.587 84.545,190.627 84.809,189.683 84.953 C 188.738 85.097,187.658 85.376,187.283 85.572 C 186.907 85.768,185.700 86.241,184.600 86.623 C 181.911 87.556,174.432 91.390,172.941 92.600 C 172.670 92.820,171.790 93.450,170.986 94.000 C 166.972 96.746,156.362 106.986,154.551 109.863 C 154.157 110.488,153.326 111.630,152.704 112.400 C 152.081 113.170,151.407 114.008,151.206 114.262 C 150.289 115.419,155.900 115.836,191.127 117.228 C 200.014 117.579,205.633 117.579,214.327 117.228 C 256.617 115.520,255.312 115.670,253.125 112.768 C 252.392 111.796,251.503 110.550,251.149 110.000 C 249.235 107.021,238.586 96.717,234.614 94.000 C 233.810 93.450,232.930 92.820,232.659 92.600 C 231.191 91.409,223.811 87.628,221.000 86.627 C 219.900 86.236,218.640 85.765,218.200 85.581 C 214.384 83.986,205.150 83.322,194.815 83.898 M168.317 86.616 C 168.198 86.735,167.223 86.998,166.151 87.200 C 164.102 87.585,159.974 88.446,156.600 89.191 C 155.500 89.434,154.323 89.783,153.985 89.967 C 153.646 90.151,152.566 90.434,151.585 90.596 C 150.603 90.758,149.620 91.029,149.400 91.199 C 149.180 91.369,148.370 91.629,147.600 91.777 C 146.830 91.925,145.840 92.197,145.400 92.381 C 144.960 92.565,143.700 93.021,142.600 93.395 C 141.500 93.769,140.033 94.328,139.340 94.638 C 138.646 94.947,137.802 95.200,137.463 95.200 C 137.124 95.200,136.736 95.380,136.600 95.600 C 136.464 95.820,136.076 96.000,135.737 96.000 C 135.398 96.000,134.554 96.257,133.860 96.571 C 132.763 97.069,130.499 98.043,127.800 99.181 C 127.360 99.366,124.524 100.751,121.497 102.259 C 118.471 103.767,115.636 105.178,115.197 105.395 C 114.759 105.612,114.400 105.927,114.400 106.095 C 114.400 106.263,114.199 106.400,113.952 106.400 C 113.316 106.400,108.800 109.192,108.800 109.585 C 108.800 109.929,109.241 110.016,116.000 111.010 C 121.331 111.794,127.867 112.625,135.000 113.427 C 138.080 113.773,141.344 114.150,142.254 114.264 C 143.880 114.470,143.934 114.436,145.381 112.337 C 152.453 102.070,160.864 93.369,168.700 88.212 C 169.635 87.597,170.400 86.938,170.400 86.747 C 170.400 86.371,168.671 86.262,168.317 86.616 M235.200 86.655 C 235.200 87.011,237.774 89.200,238.193 89.200 C 238.779 89.200,246.480 95.811,249.000 98.478 C 252.109 101.767,257.200 107.804,257.200 108.201 C 257.200 108.342,257.920 109.310,258.800 110.354 C 259.680 111.398,260.400 112.437,260.400 112.664 C 260.400 113.732,261.962 114.488,263.680 114.251 C 264.626 114.120,267.830 113.740,270.800 113.405 C 279.755 112.397,288.666 111.214,295.300 110.153 C 296.125 110.021,296.800 109.761,296.800 109.575 C 296.800 109.217,292.197 106.400,291.612 106.400 C 291.422 106.400,291.207 106.265,291.133 106.100 C 290.987 105.771,289.995 105.216,284.599 102.448 C 281.224 100.716,279.156 99.762,274.800 97.929 C 273.810 97.513,272.724 97.021,272.387 96.837 C 272.050 96.653,271.197 96.375,270.491 96.220 C 269.786 96.065,269.106 95.772,268.981 95.569 C 268.855 95.366,268.476 95.200,268.137 95.200 C 267.798 95.200,266.954 94.947,266.260 94.638 C 265.567 94.328,264.100 93.769,263.000 93.395 C 261.900 93.021,260.640 92.565,260.200 92.381 C 259.760 92.197,258.770 91.925,258.000 91.777 C 257.230 91.629,256.420 91.369,256.200 91.199 C 255.980 91.029,254.990 90.760,254.000 90.600 C 253.010 90.440,252.020 90.173,251.800 90.005 C 251.580 89.838,250.519 89.573,249.441 89.417 C 248.364 89.261,247.194 88.977,246.841 88.785 C 246.489 88.593,245.120 88.239,243.800 87.997 C 242.480 87.756,240.590 87.394,239.600 87.194 C 238.610 86.994,237.215 86.713,236.500 86.570 C 235.785 86.426,235.200 86.465,235.200 86.655 M115.900 97.876 C 115.045 98.099,114.969 98.800,115.800 98.800 C 116.130 98.800,116.400 98.609,116.400 98.376 C 116.400 98.143,116.568 98.056,116.772 98.183 C 116.977 98.309,117.258 98.230,117.396 98.007 C 117.652 97.592,117.153 97.548,115.900 97.876 M97.761 116.924 C 95.979 118.286,93.549 120.207,92.361 121.193 C 89.570 123.508,78.536 134.534,76.989 136.553 C 76.335 137.407,75.344 138.667,74.787 139.353 C 69.194 146.241,60.000 162.021,60.000 164.733 C 60.000 167.248,120.818 169.675,123.708 167.276 C 124.089 166.960,124.428 165.710,124.602 163.982 C 124.756 162.450,125.022 161.110,125.194 161.004 C 125.366 160.897,125.635 159.773,125.792 158.505 C 125.949 157.237,126.219 156.020,126.393 155.800 C 126.567 155.580,126.842 154.597,127.004 153.615 C 127.166 152.634,127.434 151.554,127.600 151.215 C 127.765 150.877,128.211 149.520,128.590 148.200 C 128.969 146.880,129.419 145.524,129.589 145.187 C 129.759 144.850,130.025 143.997,130.180 143.291 C 130.335 142.586,130.628 141.906,130.831 141.781 C 131.034 141.655,131.201 141.248,131.202 140.876 C 131.204 140.504,131.474 139.684,131.802 139.054 C 132.131 138.424,132.401 137.704,132.402 137.454 C 132.404 137.204,132.657 136.517,132.965 135.927 C 133.273 135.337,133.646 134.302,133.794 133.627 C 133.942 132.952,134.229 132.400,134.432 132.400 C 134.634 132.400,134.800 132.138,134.800 131.819 C 134.800 131.129,139.652 121.460,140.095 121.267 C 141.173 120.796,140.151 120.069,138.100 119.849 C 129.327 118.908,119.955 117.705,113.000 116.629 C 104.750 115.352,102.183 114.914,101.600 114.684 C 101.232 114.539,99.748 115.405,97.761 116.924 M303.895 114.638 C 303.323 115.210,281.171 118.382,267.500 119.849 C 264.906 120.128,264.845 120.235,266.111 122.308 C 267.018 123.792,269.773 129.329,270.934 132.000 C 271.268 132.770,271.915 134.245,272.371 135.278 C 272.827 136.311,273.200 137.325,273.200 137.532 C 273.200 137.739,273.469 138.424,273.798 139.054 C 274.126 139.684,274.396 140.504,274.398 140.876 C 274.399 141.248,274.564 141.654,274.765 141.778 C 274.966 141.903,275.252 142.722,275.400 143.600 C 275.548 144.478,275.834 145.297,276.035 145.422 C 276.236 145.546,276.400 146.014,276.400 146.462 C 276.400 147.197,276.586 147.257,278.300 147.068 C 279.345 146.953,282.900 146.664,286.200 146.426 C 289.500 146.189,293.460 145.796,295.000 145.553 C 296.569 145.305,305.847 145.019,316.100 144.902 C 326.165 144.788,334.400 144.573,334.400 144.426 C 334.400 144.112,332.340 141.209,330.693 139.200 C 330.061 138.430,328.882 136.990,328.072 136.000 C 325.963 133.421,315.728 123.214,313.614 121.580 C 312.632 120.821,311.192 119.654,310.414 118.987 C 308.830 117.628,304.516 114.400,304.284 114.400 C 304.201 114.400,304.026 114.507,303.895 114.638 M315.200 115.600 C 315.200 115.820,315.470 116.000,315.800 116.000 C 316.130 116.000,316.400 115.820,316.400 115.600 C 316.400 115.380,316.130 115.200,315.800 115.200 C 315.470 115.200,315.200 115.380,315.200 115.600 M146.976 121.130 C 146.769 121.279,146.260 122.030,145.844 122.800 C 144.235 125.781,140.573 133.125,140.046 134.430 C 139.742 135.183,139.263 136.340,138.982 137.000 C 136.626 142.534,132.400 155.293,132.400 156.873 C 132.400 157.279,132.228 157.923,132.018 158.305 C 131.653 158.971,130.982 162.122,130.530 165.300 L 130.316 166.800 132.258 166.775 C 136.657 166.717,157.722 164.496,166.000 163.216 C 168.515 162.828,172.831 162.210,181.600 160.984 C 183.910 160.661,187.510 160.138,189.600 159.822 C 204.610 157.549,208.646 156.919,211.400 156.416 C 217.239 155.350,240.100 151.917,250.400 150.558 C 252.930 150.225,256.080 149.782,257.400 149.574 C 258.720 149.366,262.006 148.962,264.702 148.676 C 270.979 148.009,271.016 147.963,268.960 143.340 C 268.652 142.646,268.400 141.827,268.400 141.520 C 268.400 141.212,268.248 140.789,268.062 140.580 C 267.876 140.371,267.303 139.030,266.787 137.600 C 266.272 136.170,265.748 134.910,265.622 134.800 C 265.496 134.690,264.955 133.520,264.420 132.200 C 263.886 130.880,262.849 128.720,262.116 127.400 C 261.383 126.080,260.383 124.151,259.892 123.113 C 258.781 120.763,259.032 120.842,254.000 121.243 C 251.690 121.427,246.290 121.765,242.000 121.995 C 237.710 122.225,231.950 122.596,229.200 122.820 C 224.131 123.233,179.430 123.389,178.794 122.996 C 178.604 122.879,174.073 122.610,168.724 122.398 C 163.376 122.187,157.650 121.838,156.000 121.624 C 151.584 121.050,147.404 120.821,146.976 121.130 M80.446 122.619 C 79.021 124.121,79.821 124.363,81.305 122.879 C 82.118 122.066,82.369 121.603,81.992 121.607 C 81.667 121.611,80.971 122.066,80.446 122.619 M335.878 135.856 C 335.558 136.175,335.919 136.800,336.424 136.800 C 336.631 136.800,336.800 136.530,336.800 136.200 C 336.800 135.581,336.328 135.405,335.878 135.856 M353.700 145.476 C 354.085 145.576,354.715 145.576,355.100 145.476 C 355.485 145.375,355.170 145.293,354.400 145.293 C 353.630 145.293,353.315 145.375,353.700 145.476 M43.443 146.233 C 43.067 147.211,43.149 147.341,43.800 146.800 C 44.465 146.248,44.596 145.600,44.043 145.600 C 43.846 145.600,43.576 145.885,43.443 146.233 M361.200 146.000 C 361.200 146.220,361.470 146.400,361.800 146.400 C 362.130 146.400,362.400 146.220,362.400 146.000 C 362.400 145.780,362.130 145.600,361.800 145.600 C 361.470 145.600,361.200 145.780,361.200 146.000 M370.000 147.200 C 370.000 147.420,370.270 147.600,370.600 147.600 C 370.930 147.600,371.200 147.420,371.200 147.200 C 371.200 146.980,370.930 146.800,370.600 146.800 C 370.270 146.800,370.000 146.980,370.000 147.200 M383.260 150.780 C 383.432 151.296,383.981 151.388,384.030 150.910 C 384.047 150.751,383.844 150.548,383.580 150.460 C 383.316 150.372,383.172 150.516,383.260 150.780 M37.467 152.067 C 37.063 152.507,36.837 152.971,36.964 153.098 C 37.234 153.367,38.800 152.036,38.800 151.538 C 38.800 150.992,38.254 151.208,37.467 152.067 M20.000 185.000 C 20.000 185.330,20.180 185.600,20.400 185.600 C 20.620 185.600,20.800 185.330,20.800 185.000 C 20.800 184.670,20.620 184.400,20.400 184.400 C 20.180 184.400,20.000 184.670,20.000 185.000 M285.600 247.617 C 284.390 247.784,282.095 247.939,280.500 247.960 C 278.377 247.989,277.600 248.142,277.600 248.531 C 277.600 249.162,275.318 256.331,274.836 257.213 C 274.652 257.550,274.366 258.444,274.200 259.200 C 274.034 259.956,273.747 260.850,273.563 261.187 C 273.379 261.524,272.849 262.700,272.385 263.800 C 270.799 267.564,270.313 268.607,267.775 273.689 L 265.235 278.778 266.717 279.165 C 267.533 279.377,270.180 279.741,272.600 279.973 C 277.656 280.458,284.429 281.303,290.200 282.168 C 292.400 282.499,295.550 282.962,297.200 283.198 C 298.850 283.434,300.830 283.801,301.600 284.012 C 304.656 284.850,304.803 284.776,312.355 278.600 C 317.388 274.485,326.439 265.352,330.200 260.593 C 330.860 259.758,331.805 258.582,332.300 257.980 C 332.795 257.377,333.200 256.700,333.200 256.476 C 333.200 256.251,333.350 256.007,333.534 255.933 C 333.718 255.860,334.710 254.540,335.739 253.000 L 337.610 250.200 336.105 249.889 C 333.246 249.298,328.980 248.793,323.600 248.408 C 320.630 248.196,316.040 247.836,313.400 247.608 C 308.015 247.143,288.985 247.149,285.600 247.617 M266.688 248.645 C 266.554 248.780,264.769 249.039,262.722 249.221 C 247.985 250.530,218.931 254.199,209.200 255.979 C 206.036 256.557,193.199 258.535,187.200 259.368 C 185.110 259.658,183.400 259.943,183.400 260.000 C 183.400 260.057,181.690 260.342,179.600 260.632 C 175.029 261.267,168.151 262.319,165.400 262.805 C 163.061 263.218,156.361 264.201,150.400 265.006 C 141.680 266.184,141.200 266.278,141.200 266.819 C 141.200 267.544,145.876 276.608,146.942 277.948 C 147.273 278.365,147.999 278.430,149.989 278.221 C 156.490 277.538,160.820 277.223,169.200 276.825 C 174.150 276.590,181.980 276.216,186.600 275.994 C 191.220 275.772,198.510 275.591,202.800 275.591 C 207.090 275.591,214.380 275.772,219.000 275.994 C 223.620 276.216,231.450 276.590,236.400 276.825 C 244.780 277.223,249.110 277.538,255.611 278.221 C 257.640 278.434,258.329 278.368,258.697 277.924 C 259.387 277.093,264.545 266.977,265.593 264.400 C 266.085 263.190,266.719 261.660,267.002 261.000 C 268.494 257.518,270.652 251.419,271.000 249.700 L 271.264 248.400 269.098 248.400 C 267.908 248.400,266.823 248.510,266.688 248.645 M5.200 255.757 C 5.200 256.326,6.352 256.981,6.714 256.619 C 6.970 256.364,6.016 255.200,5.551 255.200 C 5.358 255.200,5.200 255.451,5.200 255.757 M356.198 265.602 C 355.798 266.044,355.573 266.507,355.698 266.631 C 355.958 266.891,357.600 265.579,357.600 265.111 C 357.600 264.552,356.939 264.784,356.198 265.602 M129.600 267.641 C 127.203 267.931,120.191 268.665,110.800 269.608 C 104.725 270.218,95.761 270.750,91.000 270.782 C 84.916 270.824,84.760 271.014,88.200 274.214 C 89.740 275.646,91.630 277.306,92.400 277.902 C 93.170 278.497,94.196 279.393,94.681 279.892 C 95.165 280.392,95.728 280.800,95.932 280.800 C 96.135 280.800,96.530 281.075,96.809 281.411 C 98.734 283.730,101.447 284.712,104.000 284.012 C 104.770 283.801,106.750 283.434,108.400 283.198 C 110.050 282.962,113.200 282.499,115.400 282.168 C 121.410 281.267,127.997 280.431,133.800 279.834 C 141.120 279.081,140.773 279.735,137.445 272.980 C 134.231 266.454,135.012 266.985,129.600 267.641 M41.200 270.000 C 41.200 270.220,41.695 270.397,42.300 270.394 C 43.157 270.389,43.268 270.302,42.800 270.000 C 42.017 269.494,41.200 269.494,41.200 270.000 M50.000 270.800 C 50.000 271.020,50.720 271.200,51.600 271.200 C 52.480 271.200,53.200 271.020,53.200 270.800 C 53.200 270.580,52.480 270.400,51.600 270.400 C 50.720 270.400,50.000 270.580,50.000 270.800 M75.482 271.068 C 75.195 271.531,75.863 272.670,76.215 272.318 C 76.357 272.176,76.302 271.753,76.092 271.379 C 75.882 271.004,75.608 270.864,75.482 271.068 M80.228 275.955 C 79.952 276.402,81.337 278.000,82.000 278.000 C 82.670 278.000,82.451 277.387,81.442 276.440 C 80.855 275.888,80.385 275.701,80.228 275.955 M175.200 282.444 C 168.529 282.707,165.585 282.905,154.500 283.837 C 150.745 284.153,150.839 284.046,152.352 286.278 C 156.094 291.798,163.404 299.425,169.373 304.039 C 173.276 307.055,183.684 312.800,185.246 312.800 C 185.635 312.800,186.054 312.964,186.178 313.165 C 186.303 313.366,187.168 313.656,188.102 313.810 C 189.036 313.964,190.053 314.295,190.361 314.545 C 191.180 315.208,214.458 315.182,215.258 314.518 C 215.578 314.252,216.600 313.914,217.529 313.765 C 218.458 313.616,219.314 313.339,219.432 313.147 C 219.551 312.956,219.965 312.800,220.354 312.800 C 222.160 312.800,232.866 306.739,237.100 303.320 C 239.115 301.692,245.084 296.124,245.975 295.040 C 246.319 294.622,246.870 293.987,247.200 293.628 C 250.363 290.195,254.400 284.984,254.400 284.336 C 254.400 283.940,240.817 282.904,229.400 282.429 C 219.228 282.006,186.051 282.015,175.200 282.444 M137.600 285.447 C 134.630 285.744,130.130 286.256,127.600 286.584 C 125.070 286.913,121.078 287.410,118.730 287.691 C 116.381 287.971,114.326 288.335,114.163 288.500 C 114.000 288.665,113.188 288.800,112.359 288.800 C 109.274 288.800,108.044 289.919,110.139 290.820 C 110.612 291.023,112.080 291.834,113.400 292.621 C 114.720 293.408,116.295 294.259,116.900 294.513 C 117.505 294.768,118.000 295.116,118.000 295.288 C 118.000 295.459,118.225 295.601,118.500 295.602 C 118.775 295.604,119.450 295.849,120.000 296.148 C 122.480 297.496,125.159 298.815,127.000 299.596 C 128.100 300.062,129.360 300.604,129.800 300.800 C 130.240 300.996,131.500 301.536,132.600 302.000 C 133.700 302.464,134.960 302.999,135.400 303.188 C 135.840 303.377,137.190 303.854,138.400 304.249 C 139.610 304.643,140.780 305.084,141.000 305.230 C 141.220 305.376,142.750 305.888,144.400 306.369 C 146.050 306.849,147.677 307.390,148.015 307.572 C 148.354 307.753,149.434 308.034,150.415 308.196 C 151.397 308.358,152.380 308.627,152.600 308.793 C 152.820 308.960,153.720 309.216,154.600 309.364 C 155.480 309.512,156.650 309.782,157.200 309.965 C 157.750 310.147,159.640 310.602,161.400 310.974 C 163.160 311.347,165.140 311.804,165.800 311.989 C 166.460 312.175,167.900 312.450,169.000 312.601 L 171.000 312.874 170.030 311.837 C 169.497 311.267,168.905 310.800,168.716 310.800 C 168.225 310.800,163.576 307.187,160.346 304.295 C 156.630 300.968,148.027 291.245,147.200 289.437 C 146.639 288.210,143.864 284.807,143.462 284.853 C 143.208 284.882,140.570 285.149,137.600 285.447 M260.789 285.705 C 260.373 286.665,258.748 288.948,255.132 293.650 C 251.123 298.865,238.399 310.800,236.849 310.800 C 236.679 310.800,236.103 311.267,235.570 311.837 L 234.600 312.874 236.600 312.601 C 237.700 312.450,239.140 312.175,239.800 311.989 C 240.460 311.804,242.440 311.347,244.200 310.974 C 245.960 310.602,247.850 310.147,248.400 309.965 C 248.950 309.782,250.120 309.512,251.000 309.364 C 251.880 309.216,252.780 308.960,253.000 308.793 C 253.220 308.627,254.203 308.358,255.185 308.196 C 256.166 308.034,257.246 307.753,257.585 307.572 C 257.923 307.390,259.550 306.845,261.200 306.359 C 262.850 305.873,264.470 305.335,264.800 305.163 C 265.130 304.991,266.750 304.364,268.400 303.770 C 271.066 302.810,273.291 301.917,275.800 300.800 C 276.240 300.604,277.500 300.063,278.600 299.597 C 279.700 299.132,281.433 298.313,282.451 297.777 C 283.469 297.242,284.819 296.534,285.451 296.204 C 286.083 295.875,286.825 295.604,287.100 295.602 C 287.375 295.601,287.600 295.459,287.600 295.288 C 287.600 295.116,288.095 294.765,288.700 294.507 C 289.774 294.050,291.011 293.360,294.926 291.036 C 297.172 289.704,296.982 289.197,294.135 288.923 C 293.071 288.821,291.930 288.625,291.600 288.489 C 291.270 288.352,289.110 288.002,286.800 287.711 C 284.490 287.420,280.530 286.918,278.000 286.596 C 273.579 286.033,268.382 285.469,263.488 285.021 C 261.375 284.828,261.143 284.887,260.789 285.705 M323.200 285.600 C 323.200 285.820,323.470 286.000,323.800 286.000 C 324.130 286.000,324.400 285.820,324.400 285.600 C 324.400 285.380,324.130 285.200,323.800 285.200 C 323.470 285.200,323.200 285.380,323.200 285.600 M263.200 311.600 C 263.200 311.820,263.470 312.000,263.800 312.000 C 264.130 312.000,264.400 311.820,264.400 311.600 C 264.400 311.380,264.130 311.200,263.800 311.200 C 263.470 311.200,263.200 311.380,263.200 311.600 M238.800 317.600 C 238.800 317.820,239.070 318.000,239.400 318.000 C 239.730 318.000,240.000 317.820,240.000 317.600 C 240.000 317.380,239.730 317.200,239.400 317.200 C 239.070 317.200,238.800 317.380,238.800 317.600 M231.600 318.800 C 231.600 319.020,231.870 319.200,232.200 319.200 C 232.530 319.200,232.800 319.020,232.800 318.800 C 232.800 318.580,232.530 318.400,232.200 318.400 C 231.870 318.400,231.600 318.580,231.600 318.800 M176.400 319.600 C 176.400 319.820,176.760 320.000,177.200 320.000 C 177.640 320.000,178.000 319.820,178.000 319.600 C 178.000 319.380,177.640 319.200,177.200 319.200 C 176.760 319.200,176.400 319.380,176.400 319.600 M226.400 319.600 C 226.400 319.820,226.760 320.000,227.200 320.000 C 227.640 320.000,228.000 319.820,228.000 319.600 C 228.000 319.380,227.640 319.200,227.200 319.200 C 226.760 319.200,226.400 319.380,226.400 319.600 M182.200 320.000 C 182.057 320.231,182.428 320.397,183.076 320.394 C 183.949 320.389,184.066 320.301,183.600 320.000 C 182.831 319.503,182.507 319.503,182.200 320.000 M190.000 320.800 C 190.000 321.020,190.720 321.200,191.600 321.200 C 192.480 321.200,193.200 321.020,193.200 320.800 C 193.200 320.580,192.480 320.400,191.600 320.400 C 190.720 320.400,190.000 320.580,190.000 320.800 M211.200 320.800 C 211.200 321.020,211.920 321.200,212.800 321.200 C 213.680 321.200,214.400 321.020,214.400 320.800 C 214.400 320.580,213.680 320.400,212.800 320.400 C 211.920 320.400,211.200 320.580,211.200 320.800 " stroke="none" fill="#1464a4" fill-rule="evenodd"></path><path id="path2" d="M189.100 78.683 C 186.168 78.764,184.000 78.989,184.000 79.212 C 184.000 79.428,182.680 79.600,181.024 79.600 C 179.387 79.600,177.952 79.754,177.836 79.942 C 177.719 80.131,176.719 80.198,175.612 80.092 C 174.410 79.976,173.600 80.059,173.600 80.298 C 173.600 80.518,171.806 80.824,169.600 80.981 C 167.400 81.137,165.600 81.430,165.600 81.632 C 165.600 81.834,164.880 82.000,164.000 82.000 C 163.120 82.000,162.400 82.169,162.400 82.375 C 162.400 82.581,161.770 82.647,161.000 82.523 C 160.091 82.375,159.600 82.454,159.600 82.748 C 159.600 82.998,158.975 83.200,158.200 83.200 C 157.430 83.200,156.800 83.362,156.800 83.561 C 156.800 83.759,155.720 84.047,154.400 84.200 C 153.080 84.353,152.000 84.641,152.000 84.839 C 152.000 85.038,151.460 85.200,150.800 85.200 C 150.140 85.200,149.600 85.369,149.600 85.575 C 149.600 85.781,148.970 85.847,148.200 85.723 C 147.291 85.575,146.800 85.654,146.800 85.948 C 146.800 86.196,146.440 86.400,146.000 86.400 C 145.560 86.400,145.200 86.583,145.200 86.808 C 145.200 87.043,144.777 87.109,144.200 86.964 C 143.584 86.810,143.200 86.883,143.200 87.157 C 143.200 87.400,142.840 87.600,142.400 87.600 C 141.960 87.600,141.600 87.783,141.600 88.008 C 141.600 88.243,141.177 88.309,140.600 88.164 C 139.984 88.010,139.600 88.083,139.600 88.357 C 139.600 88.600,139.240 88.800,138.800 88.800 C 138.360 88.800,138.000 88.983,138.000 89.208 C 138.000 89.443,137.577 89.509,137.000 89.364 C 136.273 89.182,136.000 89.274,136.000 89.701 C 136.000 90.113,135.700 90.232,135.000 90.098 C 134.416 89.986,134.000 90.093,134.000 90.353 C 134.000 90.599,133.730 90.800,133.400 90.800 C 133.070 90.800,132.800 90.955,132.800 91.145 C 132.800 91.334,132.350 91.403,131.800 91.298 C 131.237 91.190,130.800 91.294,130.800 91.535 C 130.800 91.771,130.125 92.089,129.300 92.242 C 128.475 92.396,127.507 92.856,127.148 93.266 C 126.763 93.707,126.231 93.910,125.848 93.763 C 125.492 93.626,125.200 93.690,125.200 93.905 C 125.200 94.120,124.554 94.400,123.764 94.528 C 122.974 94.657,121.993 95.147,121.585 95.617 C 121.177 96.088,120.653 96.356,120.421 96.213 C 120.190 96.070,120.000 96.143,120.000 96.376 C 120.000 96.609,119.730 96.800,119.400 96.800 C 119.070 96.800,118.800 96.959,118.800 97.153 C 118.800 97.497,117.304 98.130,116.700 98.043 C 116.535 98.019,116.400 98.180,116.400 98.400 C 116.400 98.620,116.040 98.800,115.600 98.800 C 115.160 98.800,114.800 98.974,114.800 99.187 C 114.800 99.401,114.530 99.471,114.200 99.345 C 113.870 99.218,113.600 99.299,113.600 99.525 C 113.600 99.751,113.060 100.055,112.400 100.200 C 111.740 100.345,111.200 100.629,111.200 100.832 C 111.200 101.034,110.834 101.200,110.387 101.200 C 109.941 101.200,109.478 101.454,109.359 101.764 C 109.239 102.074,108.671 102.446,108.095 102.591 C 107.519 102.735,106.756 103.189,106.400 103.600 C 106.044 104.011,105.275 104.466,104.691 104.613 C 104.107 104.760,103.523 105.212,103.394 105.619 C 103.244 106.091,102.931 106.272,102.530 106.118 C 102.162 105.977,101.747 106.151,101.531 106.538 C 101.327 106.902,100.899 107.200,100.580 107.200 C 100.261 107.200,100.000 107.377,100.000 107.592 C 100.000 107.808,99.556 108.096,99.014 108.232 C 98.472 108.368,97.916 108.835,97.778 109.269 C 97.633 109.727,97.296 109.969,96.975 109.846 C 96.671 109.729,96.192 109.960,95.911 110.359 C 95.630 110.759,95.004 111.210,94.520 111.363 C 94.037 111.516,93.526 112.002,93.387 112.442 C 93.247 112.883,92.923 113.174,92.668 113.089 C 92.413 113.004,91.694 113.444,91.071 114.067 C 90.448 114.690,89.748 115.200,89.515 115.200 C 89.004 115.200,87.200 117.087,87.200 117.621 C 87.200 117.829,86.903 118.000,86.540 118.000 C 86.178 118.000,85.269 118.630,84.521 119.400 C 83.773 120.170,82.990 120.800,82.781 120.800 C 82.571 120.800,82.400 121.036,82.400 121.325 C 82.400 121.981,80.331 124.000,79.659 124.000 C 79.120 124.000,77.200 125.910,77.200 126.446 C 77.200 126.627,76.930 126.671,76.600 126.545 C 76.270 126.418,76.000 126.494,76.000 126.713 C 76.000 126.932,75.370 127.229,74.600 127.374 C 73.830 127.518,73.200 127.788,73.200 127.974 C 73.200 128.159,72.570 128.429,71.800 128.574 C 71.030 128.718,70.400 128.986,70.400 129.168 C 70.400 129.351,69.836 129.613,69.146 129.751 C 68.457 129.889,67.602 130.329,67.246 130.729 C 66.586 131.471,65.239 132.178,64.700 132.064 C 64.535 132.029,64.400 132.159,64.400 132.353 C 64.400 132.745,62.882 133.321,62.100 133.226 C 61.825 133.192,61.600 133.333,61.600 133.539 C 61.600 133.745,61.113 134.035,60.518 134.185 C 59.923 134.334,59.198 134.796,58.907 135.211 C 58.613 135.631,58.116 135.866,57.789 135.740 C 57.465 135.616,57.200 135.693,57.200 135.911 C 57.200 136.128,56.885 136.412,56.500 136.542 C 55.504 136.876,54.255 137.715,53.880 138.300 C 53.704 138.575,53.365 138.800,53.126 138.800 C 52.887 138.800,52.294 139.229,51.808 139.753 C 51.322 140.277,50.546 140.827,50.083 140.974 C 49.620 141.121,49.125 141.605,48.984 142.049 C 48.826 142.549,48.504 142.772,48.141 142.633 C 47.559 142.409,46.914 142.985,44.641 145.760 C 44.004 146.538,43.329 147.080,43.142 146.964 C 42.679 146.678,38.800 150.543,38.800 151.290 C 38.800 151.619,38.070 152.498,37.177 153.244 C 34.015 155.887,33.605 156.347,33.847 156.977 C 33.978 157.320,33.913 157.600,33.701 157.600 C 32.984 157.600,31.207 159.552,31.419 160.106 C 31.546 160.435,31.221 160.844,30.615 161.120 C 30.057 161.375,29.600 161.857,29.600 162.191 C 29.600 162.526,29.399 162.800,29.153 162.800 C 28.904 162.800,28.799 163.153,28.916 163.600 C 29.049 164.111,28.928 164.400,28.581 164.400 C 28.275 164.400,27.921 165.014,27.774 165.800 C 27.629 166.570,27.330 167.200,27.109 167.200 C 26.888 167.200,26.793 167.650,26.898 168.200 C 27.003 168.750,26.934 169.200,26.745 169.200 C 26.555 169.200,26.400 169.470,26.400 169.800 C 26.400 170.130,26.200 170.400,25.957 170.400 C 25.683 170.400,25.610 170.784,25.764 171.400 C 25.909 171.977,25.843 172.400,25.608 172.400 C 25.383 172.400,25.200 172.670,25.200 173.000 C 25.200 173.330,25.031 173.600,24.825 173.600 C 24.618 173.600,24.328 174.410,24.179 175.400 C 24.031 176.390,23.752 177.200,23.559 177.200 C 23.367 177.200,23.094 177.920,22.954 178.800 C 22.813 179.680,22.541 180.400,22.349 180.400 C 22.157 180.400,22.000 180.745,22.000 181.167 C 22.000 181.588,21.816 181.995,21.591 182.070 C 21.365 182.145,21.065 182.923,20.923 183.800 C 20.780 184.676,20.425 185.633,20.132 185.925 C 19.839 186.218,19.600 186.894,19.600 187.429 C 19.600 187.963,19.399 188.400,19.153 188.400 C 18.892 188.400,18.801 188.760,18.934 189.270 C 19.087 189.855,18.890 190.375,18.331 190.859 C 17.816 191.307,17.579 191.876,17.706 192.362 C 17.823 192.808,17.599 193.479,17.188 193.921 C 16.790 194.348,16.339 195.531,16.187 196.549 C 16.034 197.567,15.750 198.400,15.555 198.400 C 15.360 198.400,15.200 198.670,15.200 199.000 C 15.200 199.330,15.000 199.600,14.757 199.600 C 14.483 199.600,14.410 199.984,14.564 200.600 C 14.709 201.177,14.643 201.600,14.408 201.600 C 14.183 201.600,14.000 201.960,14.000 202.400 C 14.000 202.840,13.822 203.200,13.605 203.200 C 13.387 203.200,13.094 203.920,12.954 204.800 C 12.813 205.680,12.549 206.400,12.367 206.400 C 12.185 206.400,11.918 207.030,11.774 207.800 C 11.629 208.570,11.374 209.200,11.207 209.200 C 11.039 209.200,10.787 209.920,10.646 210.800 C 10.506 211.680,10.236 212.400,10.046 212.400 C 9.857 212.400,9.587 213.120,9.446 214.000 C 9.306 214.880,9.013 215.600,8.795 215.600 C 8.578 215.600,8.400 215.960,8.400 216.400 C 8.400 216.840,8.243 217.200,8.051 217.200 C 7.859 217.200,7.587 217.920,7.446 218.800 C 7.306 219.680,7.033 220.400,6.841 220.400 C 6.648 220.400,6.369 221.210,6.221 222.200 C 6.072 223.190,5.802 224.000,5.620 224.000 C 5.438 224.000,5.162 224.675,5.008 225.499 C 4.853 226.324,4.568 227.096,4.374 227.216 C 4.181 227.336,3.909 228.146,3.771 229.017 C 3.633 229.888,3.344 230.709,3.130 230.842 C 2.915 230.976,2.639 231.831,2.517 232.742 C 2.395 233.654,2.138 234.400,1.947 234.400 C 1.756 234.400,1.600 234.760,1.600 235.200 C 1.600 235.640,1.438 236.000,1.240 236.000 C 1.042 236.000,0.662 236.910,0.395 238.021 C -0.133 240.224,0.190 246.000,0.842 246.000 C 1.047 246.000,1.102 246.450,0.964 247.000 C 0.779 247.737,0.873 248.000,1.319 248.000 C 1.728 248.000,1.857 248.260,1.716 248.800 C 1.599 249.247,1.704 249.600,1.953 249.600 C 2.199 249.600,2.400 249.947,2.400 250.371 C 2.400 250.796,2.646 251.389,2.947 251.690 C 3.248 251.991,3.632 252.671,3.800 253.200 C 4.128 254.232,4.577 254.734,5.817 255.455 C 6.248 255.706,6.572 256.218,6.538 256.593 C 6.456 257.498,7.830 258.840,8.555 258.562 C 8.904 258.428,9.230 258.665,9.391 259.170 C 9.535 259.626,10.085 260.106,10.612 260.239 C 11.140 260.371,11.674 260.804,11.800 261.200 C 11.926 261.596,12.472 262.032,13.014 262.168 C 13.556 262.304,14.000 262.578,14.000 262.776 C 14.000 262.974,14.540 263.255,15.200 263.400 C 15.860 263.545,16.400 263.827,16.400 264.027 C 16.400 264.227,17.120 264.506,18.000 264.646 C 18.880 264.787,19.600 265.051,19.600 265.233 C 19.600 265.415,20.275 265.688,21.100 265.840 C 21.925 265.991,22.704 266.274,22.830 266.468 C 22.957 266.662,23.992 266.931,25.130 267.066 C 26.269 267.201,27.200 267.466,27.200 267.656 C 27.200 267.845,27.830 268.000,28.600 268.000 C 29.370 268.000,30.000 268.199,30.000 268.442 C 30.000 268.716,30.607 268.826,31.600 268.731 C 32.480 268.648,33.200 268.719,33.200 268.889 C 33.200 269.060,34.010 269.200,35.000 269.200 C 36.016 269.200,36.800 269.387,36.800 269.630 C 36.800 269.897,37.896 270.057,39.700 270.053 C 45.944 270.039,53.200 270.459,53.200 270.834 C 53.200 271.081,57.392 271.183,64.605 271.112 C 75.635 271.004,76.018 271.026,76.259 271.785 C 76.396 272.216,77.008 273.069,77.619 273.681 C 78.231 274.292,78.800 275.001,78.886 275.257 C 78.971 275.513,79.430 275.751,79.906 275.786 C 80.796 275.851,82.400 277.060,82.400 277.664 C 82.400 278.235,86.034 281.626,86.402 281.399 C 86.592 281.282,87.067 281.729,87.460 282.393 C 87.852 283.058,88.532 283.715,88.971 283.854 C 89.410 283.994,90.285 284.623,90.915 285.254 C 91.546 285.884,92.236 286.400,92.450 286.400 C 92.663 286.400,93.255 286.850,93.765 287.400 C 94.275 287.950,94.877 288.400,95.103 288.400 C 95.329 288.400,95.618 288.670,95.745 289.000 C 95.871 289.330,96.321 289.600,96.745 289.600 C 97.168 289.600,97.618 289.870,97.745 290.200 C 97.871 290.530,98.251 290.800,98.587 290.800 C 98.924 290.800,99.200 290.977,99.200 291.192 C 99.200 291.408,99.637 291.694,100.171 291.828 C 100.705 291.963,101.239 292.326,101.359 292.636 C 101.478 292.946,101.921 293.200,102.345 293.200 C 102.768 293.200,103.218 293.470,103.345 293.800 C 103.471 294.130,103.851 294.400,104.187 294.400 C 104.524 294.400,104.800 294.580,104.800 294.800 C 104.800 295.020,105.070 295.200,105.400 295.200 C 105.730 295.200,106.000 295.377,106.000 295.592 C 106.000 295.808,106.450 296.098,107.000 296.236 C 107.550 296.374,108.000 296.647,108.000 296.843 C 108.000 297.040,108.276 297.200,108.613 297.200 C 108.949 297.200,109.322 297.452,109.440 297.761 C 109.559 298.069,110.273 298.437,111.028 298.579 C 111.782 298.720,112.400 299.027,112.400 299.261 C 112.400 299.494,112.670 299.582,113.000 299.455 C 113.330 299.329,113.600 299.399,113.600 299.613 C 113.600 299.826,113.870 300.000,114.200 300.000 C 114.530 300.000,114.800 300.166,114.800 300.368 C 114.800 300.571,115.340 300.855,116.000 301.000 C 116.660 301.145,117.200 301.429,117.200 301.632 C 117.200 301.834,117.470 302.000,117.800 302.000 C 118.130 302.000,118.400 302.192,118.400 302.427 C 118.400 302.672,118.741 302.746,119.200 302.600 C 119.659 302.454,120.000 302.528,120.000 302.773 C 120.000 303.008,120.270 303.200,120.600 303.200 C 120.930 303.200,121.200 303.377,121.200 303.592 C 121.200 303.808,121.650 304.098,122.200 304.236 C 122.750 304.374,123.200 304.631,123.200 304.808 C 123.200 304.985,123.955 305.257,124.877 305.413 C 125.799 305.569,126.802 305.945,127.105 306.248 C 127.409 306.552,128.094 306.800,128.629 306.800 C 129.163 306.800,129.600 306.978,129.600 307.195 C 129.600 307.413,130.320 307.706,131.200 307.846 C 132.080 307.987,132.800 308.259,132.800 308.451 C 132.800 308.643,133.070 308.800,133.400 308.800 C 133.730 308.800,134.000 309.000,134.000 309.243 C 134.000 309.517,134.384 309.590,135.000 309.436 C 135.577 309.291,136.000 309.357,136.000 309.592 C 136.000 309.817,136.360 310.000,136.800 310.000 C 137.240 310.000,137.600 310.200,137.600 310.443 C 137.600 310.717,137.984 310.790,138.600 310.636 C 139.177 310.491,139.600 310.557,139.600 310.792 C 139.600 311.017,140.050 311.200,140.600 311.200 C 141.150 311.200,141.600 311.401,141.600 311.647 C 141.600 311.896,141.953 312.001,142.400 311.884 C 142.840 311.769,143.200 311.838,143.200 312.037 C 143.200 312.237,143.635 312.400,144.167 312.400 C 144.698 312.400,145.194 312.583,145.269 312.807 C 145.344 313.031,146.349 313.326,147.502 313.463 C 148.656 313.600,149.600 313.849,149.600 314.016 C 149.600 314.184,150.680 314.447,152.000 314.600 C 153.320 314.753,154.400 315.041,154.400 315.239 C 154.400 315.438,154.940 315.600,155.600 315.600 C 156.260 315.600,156.800 315.804,156.800 316.052 C 156.800 316.346,157.291 316.425,158.200 316.277 C 158.970 316.153,159.600 316.219,159.600 316.425 C 159.600 316.631,160.230 316.800,161.000 316.800 C 161.775 316.800,162.400 317.002,162.400 317.253 C 162.400 317.550,162.949 317.632,164.000 317.491 C 164.880 317.373,165.600 317.439,165.600 317.638 C 165.600 317.837,166.410 318.000,167.400 318.000 C 168.469 318.000,169.200 318.183,169.200 318.451 C 169.200 318.751,169.869 318.837,171.200 318.710 C 172.300 318.604,173.200 318.671,173.200 318.859 C 173.200 319.046,174.280 319.200,175.600 319.200 C 177.033 319.200,178.000 319.372,178.000 319.627 C 178.000 319.886,179.057 320.055,180.700 320.058 C 186.678 320.070,193.200 320.469,193.200 320.824 C 193.200 321.048,196.842 321.200,202.200 321.200 C 207.150 321.200,211.200 321.048,211.200 320.863 C 211.200 320.677,214.575 320.404,218.700 320.256 C 222.996 320.101,226.257 319.818,226.333 319.593 C 226.407 319.377,227.622 319.200,229.033 319.200 C 230.445 319.200,231.600 319.028,231.600 318.819 C 231.600 318.597,232.434 318.536,233.600 318.675 C 234.968 318.837,235.600 318.767,235.600 318.456 C 235.600 318.191,236.270 318.000,237.200 318.000 C 238.080 318.000,238.800 317.823,238.800 317.608 C 238.800 317.373,239.522 317.314,240.600 317.462 C 241.822 317.629,242.400 317.563,242.400 317.254 C 242.400 317.002,243.022 316.800,243.800 316.800 C 244.570 316.800,245.200 316.656,245.200 316.480 C 245.200 316.304,245.830 316.234,246.600 316.324 C 247.626 316.444,248.000 316.334,248.000 315.913 C 248.000 315.502,248.342 315.389,249.200 315.515 C 249.920 315.620,250.400 315.513,250.400 315.245 C 250.400 315.000,250.929 314.800,251.576 314.800 C 252.223 314.800,252.849 314.644,252.967 314.454 C 253.085 314.263,253.654 314.198,254.233 314.308 C 254.814 314.419,255.414 314.301,255.573 314.044 C 255.731 313.788,256.792 313.469,257.930 313.334 C 259.069 313.199,260.000 312.957,260.000 312.795 C 260.000 312.634,260.720 312.387,261.600 312.246 C 262.480 312.106,263.200 311.813,263.200 311.595 C 263.200 311.378,263.650 311.200,264.200 311.200 C 264.750 311.200,265.200 311.017,265.200 310.792 C 265.200 310.557,265.623 310.491,266.200 310.636 C 266.757 310.776,267.200 310.713,267.200 310.494 C 267.200 310.279,267.920 309.987,268.800 309.846 C 269.680 309.706,270.400 309.413,270.400 309.195 C 270.400 308.978,270.760 308.800,271.200 308.800 C 271.640 308.800,272.000 308.643,272.000 308.451 C 272.000 308.259,272.720 307.987,273.600 307.846 C 274.480 307.706,275.200 307.436,275.200 307.246 C 275.200 307.057,275.920 306.787,276.800 306.646 C 277.680 306.506,278.400 306.213,278.400 305.995 C 278.400 305.778,278.670 305.600,279.000 305.600 C 279.330 305.600,279.600 305.401,279.600 305.157 C 279.600 304.914,279.870 304.818,280.200 304.945 C 280.530 305.071,280.800 305.024,280.800 304.839 C 280.800 304.654,281.520 304.387,282.400 304.246 C 283.280 304.106,284.000 303.827,284.000 303.627 C 284.000 303.427,284.540 303.145,285.200 303.000 C 285.860 302.855,286.400 302.571,286.400 302.368 C 286.400 302.166,286.670 302.000,287.000 302.000 C 287.330 302.000,287.600 301.840,287.600 301.645 C 287.600 301.449,288.230 301.171,289.000 301.026 C 289.770 300.882,290.400 300.606,290.400 300.414 C 290.400 300.221,290.925 299.948,291.567 299.807 C 292.208 299.666,292.833 299.292,292.954 298.976 C 293.076 298.659,293.451 298.400,293.787 298.400 C 294.124 298.400,294.400 298.240,294.400 298.045 C 294.400 297.849,295.020 297.573,295.777 297.431 C 296.635 297.270,297.247 296.883,297.398 296.407 C 297.544 295.946,297.872 295.729,298.220 295.863 C 298.539 295.986,298.800 295.886,298.800 295.643 C 298.800 295.399,299.070 295.200,299.400 295.200 C 299.730 295.200,300.000 295.032,300.000 294.827 C 300.000 294.622,300.391 294.330,300.869 294.178 C 301.347 294.026,302.080 293.584,302.497 293.196 C 302.919 292.802,303.597 292.579,304.028 292.691 C 304.452 292.802,304.800 292.709,304.800 292.484 C 304.800 292.259,305.700 291.951,306.800 291.800 C 307.900 291.649,308.800 291.362,308.800 291.162 C 308.800 290.963,309.070 290.800,309.400 290.800 C 309.730 290.800,310.000 290.637,310.000 290.437 C 310.000 290.238,310.360 290.169,310.800 290.284 C 311.247 290.401,311.600 290.296,311.600 290.047 C 311.600 289.801,312.050 289.600,312.600 289.600 C 313.150 289.600,313.600 289.417,313.600 289.192 C 313.600 288.957,314.023 288.891,314.600 289.036 C 315.216 289.190,315.600 289.117,315.600 288.843 C 315.600 288.600,315.973 288.400,316.429 288.400 C 316.884 288.400,317.527 288.130,317.857 287.800 C 318.187 287.470,318.894 287.200,319.429 287.200 C 319.963 287.200,320.400 287.020,320.400 286.800 C 320.400 286.580,320.837 286.400,321.371 286.400 C 321.906 286.400,322.613 286.130,322.943 285.800 C 323.273 285.470,323.993 285.200,324.543 285.200 C 325.093 285.200,325.808 284.935,326.132 284.611 C 326.456 284.287,327.459 283.904,328.360 283.760 C 329.262 283.616,330.000 283.360,330.000 283.192 C 330.000 283.024,330.450 282.774,331.000 282.636 C 331.550 282.498,332.000 282.208,332.000 281.992 C 332.000 281.777,332.270 281.600,332.600 281.600 C 332.930 281.600,333.200 281.440,333.200 281.245 C 333.200 281.049,333.830 280.771,334.600 280.626 C 335.370 280.482,336.000 280.192,336.000 279.982 C 336.000 279.772,336.270 279.600,336.600 279.600 C 336.930 279.600,337.200 279.426,337.200 279.213 C 337.200 278.999,337.470 278.929,337.800 279.055 C 338.130 279.182,338.400 279.101,338.400 278.875 C 338.400 278.649,338.940 278.345,339.600 278.200 C 340.260 278.055,340.800 277.774,340.800 277.576 C 340.800 277.378,341.250 277.102,341.800 276.964 C 342.350 276.826,342.800 276.574,342.800 276.403 C 342.800 276.233,343.115 275.988,343.500 275.858 C 344.496 275.524,345.745 274.685,346.120 274.100 C 346.296 273.825,346.658 273.600,346.924 273.600 C 347.190 273.600,347.637 273.233,347.917 272.784 C 348.197 272.336,348.602 272.078,348.818 272.211 C 349.033 272.344,349.761 271.901,350.435 271.226 C 351.110 270.552,351.873 269.992,352.131 269.982 C 352.389 269.971,352.960 269.506,353.400 268.948 C 354.392 267.690,356.956 265.082,359.145 263.106 C 360.055 262.285,360.800 261.377,360.800 261.088 C 360.800 260.799,361.332 260.121,361.983 259.581 C 362.634 259.042,363.174 258.375,363.183 258.100 C 363.192 257.825,363.377 257.600,363.592 257.600 C 363.808 257.600,364.094 257.163,364.228 256.629 C 364.363 256.095,364.726 255.561,365.036 255.441 C 365.346 255.322,365.600 254.879,365.600 254.455 C 365.600 254.032,365.870 253.582,366.200 253.455 C 366.530 253.329,366.800 252.769,366.800 252.213 C 366.800 251.656,366.999 251.200,367.243 251.200 C 367.486 251.200,367.582 250.930,367.455 250.600 C 367.329 250.270,367.399 250.000,367.613 250.000 C 367.826 250.000,368.000 249.730,368.000 249.400 C 368.000 249.070,368.178 248.800,368.395 248.800 C 368.613 248.800,368.906 248.080,369.046 247.200 C 369.187 246.320,369.478 245.600,369.694 245.600 C 369.909 245.600,369.982 245.330,369.855 245.000 C 369.719 244.644,369.851 244.400,370.181 244.400 C 370.486 244.400,370.855 243.860,371.000 243.200 C 371.145 242.540,371.449 242.000,371.675 242.000 C 371.914 242.000,371.982 241.581,371.836 241.000 C 371.691 240.423,371.757 240.000,371.992 240.000 C 372.217 240.000,372.400 239.730,372.400 239.400 C 372.400 239.070,372.572 238.800,372.782 238.800 C 372.992 238.800,373.282 238.170,373.426 237.400 C 373.571 236.630,373.861 236.000,374.071 236.000 C 374.282 236.000,374.340 235.640,374.200 235.200 C 374.054 234.741,374.128 234.400,374.373 234.400 C 374.608 234.400,374.800 234.130,374.800 233.800 C 374.800 233.470,374.960 233.200,375.155 233.200 C 375.351 233.200,375.636 232.533,375.789 231.718 C 375.942 230.903,376.385 229.958,376.773 229.618 C 377.161 229.278,377.604 228.325,377.758 227.500 C 377.911 226.675,378.200 226.000,378.400 226.000 C 378.600 226.000,378.882 225.372,379.026 224.604 C 379.170 223.835,379.452 223.309,379.654 223.433 C 379.855 223.558,379.981 223.511,379.934 223.330 C 379.779 222.738,380.455 220.400,380.781 220.400 C 380.955 220.400,381.213 219.680,381.354 218.800 C 381.494 217.920,381.773 217.200,381.973 217.200 C 382.173 217.200,382.455 216.660,382.600 216.000 C 382.745 215.340,383.029 214.800,383.232 214.800 C 383.434 214.800,383.600 214.350,383.600 213.800 C 383.600 213.250,383.760 212.800,383.955 212.800 C 384.151 212.800,384.429 212.170,384.574 211.400 C 384.718 210.630,384.992 210.000,385.183 210.000 C 385.374 210.000,385.651 209.280,385.800 208.400 C 385.949 207.520,386.232 206.800,386.430 206.800 C 386.628 206.800,386.906 206.080,387.046 205.200 C 387.187 204.320,387.459 203.600,387.651 203.600 C 387.843 203.600,388.001 203.375,388.002 203.100 C 388.004 202.825,388.267 202.097,388.588 201.483 C 388.908 200.869,389.287 199.744,389.430 198.983 C 389.572 198.222,389.849 197.600,390.045 197.600 C 390.240 197.600,390.400 197.330,390.400 197.000 C 390.400 196.670,390.564 196.400,390.765 196.400 C 390.966 196.400,391.251 195.680,391.400 194.800 C 391.549 193.920,391.819 193.200,392.000 193.200 C 392.181 193.200,392.451 192.480,392.600 191.600 C 392.749 190.720,393.014 190.000,393.191 190.000 C 393.367 190.000,393.629 189.370,393.774 188.600 C 393.918 187.830,394.185 187.200,394.367 187.200 C 394.549 187.200,394.813 186.480,394.954 185.600 C 395.094 184.720,395.364 184.000,395.554 184.000 C 395.743 184.000,396.013 183.280,396.154 182.400 C 396.294 181.520,396.587 180.800,396.805 180.800 C 397.022 180.800,397.200 180.350,397.200 179.800 C 397.200 179.250,397.369 178.800,397.575 178.800 C 397.782 178.800,398.072 177.990,398.221 177.000 C 398.369 176.010,398.630 175.200,398.800 175.200 C 398.970 175.200,399.333 174.016,399.606 172.569 C 400.111 169.894,399.539 164.000,398.775 164.000 C 398.604 164.000,398.345 163.460,398.200 162.800 C 398.055 162.140,397.771 161.600,397.568 161.600 C 397.366 161.600,397.200 161.411,397.200 161.181 C 397.200 160.950,396.775 160.365,396.256 159.881 C 395.736 159.396,395.198 158.639,395.059 158.197 C 394.921 157.755,394.090 156.950,393.212 156.408 C 392.335 155.865,391.529 155.192,391.421 154.911 C 391.313 154.630,390.859 154.400,390.413 154.400 C 389.966 154.400,389.600 154.220,389.600 154.000 C 389.600 153.780,389.324 153.600,388.987 153.600 C 388.651 153.600,388.276 153.341,388.154 153.024 C 388.033 152.708,387.408 152.334,386.767 152.193 C 386.125 152.052,385.600 151.758,385.600 151.540 C 385.600 151.321,385.179 151.198,384.665 151.265 C 384.151 151.333,383.418 151.075,383.037 150.694 C 382.655 150.312,381.921 150.000,381.405 150.000 C 380.889 150.000,380.407 149.822,380.333 149.605 C 380.260 149.389,379.300 149.091,378.200 148.944 C 377.100 148.797,376.102 148.529,375.983 148.349 C 375.863 148.169,374.468 147.900,372.883 147.753 C 371.297 147.606,370.000 147.308,370.000 147.091 C 370.000 146.859,369.254 146.780,368.200 146.899 C 367.210 147.010,366.400 146.944,366.400 146.751 C 366.400 146.558,365.245 146.400,363.833 146.400 C 362.422 146.400,361.207 146.231,361.133 146.023 C 361.059 145.813,356.799 145.521,351.500 145.363 C 342.570 145.096,342.000 145.034,342.000 144.327 C 342.000 143.913,341.746 143.478,341.436 143.359 C 341.126 143.239,340.763 142.705,340.628 142.171 C 340.494 141.637,340.208 141.200,339.992 141.200 C 339.777 141.200,339.600 140.951,339.600 140.646 C 339.600 140.341,339.144 139.793,338.587 139.428 C 338.030 139.063,337.682 138.591,337.813 138.379 C 338.090 137.930,337.316 137.075,336.275 136.680 C 335.876 136.529,335.663 136.222,335.801 135.998 C 335.940 135.774,335.231 134.768,334.227 133.763 C 333.222 132.759,332.400 131.763,332.400 131.550 C 332.400 131.038,320.478 119.200,319.962 119.200 C 319.615 119.200,318.797 118.404,317.190 116.500 C 316.958 116.225,316.446 116.000,316.052 116.000 C 315.658 116.000,315.096 115.553,314.804 115.007 C 314.511 114.460,313.913 113.899,313.474 113.760 C 313.034 113.620,312.278 113.077,311.792 112.553 C 311.306 112.029,310.698 111.600,310.442 111.600 C 310.185 111.600,309.871 111.330,309.745 111.000 C 309.618 110.670,309.255 110.400,308.938 110.400 C 308.621 110.400,307.945 109.950,307.435 109.400 C 306.925 108.850,306.298 108.400,306.042 108.400 C 305.785 108.400,305.478 108.146,305.359 107.836 C 305.239 107.526,304.705 107.163,304.171 107.028 C 303.637 106.894,303.200 106.622,303.200 106.424 C 303.200 106.226,302.660 105.945,302.000 105.800 C 301.340 105.655,300.800 105.374,300.800 105.176 C 300.800 104.978,300.350 104.702,299.800 104.564 C 299.250 104.426,298.800 104.153,298.800 103.957 C 298.800 103.760,298.549 103.600,298.243 103.600 C 297.936 103.600,297.582 103.330,297.455 103.000 C 297.329 102.670,296.949 102.400,296.613 102.400 C 296.276 102.400,296.000 102.208,296.000 101.973 C 296.000 101.728,295.659 101.654,295.200 101.800 C 294.741 101.946,294.400 101.872,294.400 101.627 C 294.400 101.392,294.149 101.200,293.843 101.200 C 293.536 101.200,293.182 100.930,293.055 100.600 C 292.929 100.270,292.549 100.000,292.213 100.000 C 291.876 100.000,291.600 99.834,291.600 99.632 C 291.600 99.429,291.060 99.145,290.400 99.000 C 289.740 98.855,289.200 98.591,289.200 98.413 C 289.200 98.235,288.570 97.971,287.800 97.826 C 287.030 97.682,286.400 97.392,286.400 97.182 C 286.400 96.972,286.130 96.800,285.800 96.800 C 285.470 96.800,285.200 96.634,285.200 96.432 C 285.200 96.229,284.660 95.945,284.000 95.800 C 283.340 95.655,282.800 95.394,282.800 95.219 C 282.800 95.045,282.080 94.787,281.200 94.646 C 280.320 94.506,279.600 94.221,279.600 94.013 C 279.600 93.806,278.970 93.518,278.200 93.374 C 277.430 93.229,276.800 92.939,276.800 92.729 C 276.800 92.518,276.440 92.460,276.000 92.600 C 275.541 92.746,275.200 92.672,275.200 92.427 C 275.200 92.192,274.930 92.000,274.600 92.000 C 274.270 92.000,274.000 91.799,274.000 91.553 C 274.000 91.304,273.647 91.199,273.200 91.316 C 272.761 91.431,272.300 91.362,272.177 91.162 C 272.054 90.963,271.603 90.800,271.176 90.800 C 270.749 90.800,270.400 90.620,270.400 90.400 C 270.400 90.180,270.130 90.000,269.800 90.000 C 269.470 90.000,269.200 89.840,269.200 89.645 C 269.200 89.450,268.390 89.169,267.400 89.021 C 266.410 88.872,265.600 88.561,265.600 88.329 C 265.600 88.097,265.240 88.001,264.800 88.116 C 263.991 88.327,262.009 87.628,262.003 87.129 C 262.001 86.980,260.965 86.730,259.700 86.575 C 258.435 86.419,257.296 86.131,257.170 85.935 C 257.043 85.739,256.008 85.469,254.870 85.334 C 253.731 85.199,252.800 84.911,252.800 84.694 C 252.800 84.470,252.284 84.403,251.600 84.540 C 250.923 84.675,250.400 84.610,250.400 84.390 C 250.400 84.175,249.860 84.000,249.200 84.000 C 248.540 84.000,248.000 83.820,248.000 83.600 C 248.000 83.380,247.370 83.200,246.600 83.200 C 245.825 83.200,245.200 82.998,245.200 82.748 C 245.200 82.454,244.709 82.375,243.800 82.523 C 243.030 82.647,242.400 82.581,242.400 82.375 C 242.400 82.169,241.590 82.000,240.600 82.000 C 239.527 82.000,238.800 81.817,238.800 81.547 C 238.800 81.250,238.251 81.168,237.200 81.309 C 236.320 81.427,235.600 81.361,235.600 81.162 C 235.600 80.963,234.700 80.800,233.600 80.800 C 232.500 80.800,231.600 80.638,231.600 80.441 C 231.600 80.244,229.170 79.952,226.200 79.793 C 223.230 79.634,220.800 79.333,220.800 79.125 C 220.800 78.913,219.084 78.745,216.900 78.744 C 214.755 78.743,208.770 78.697,203.600 78.642 C 198.430 78.588,191.905 78.606,189.100 78.683 M210.400 83.992 C 213.548 84.344,216.849 85.016,218.200 85.581 C 218.640 85.765,219.900 86.236,221.000 86.627 C 223.811 87.628,231.191 91.409,232.659 92.600 C 232.930 92.820,233.810 93.450,234.614 94.000 C 238.586 96.717,249.235 107.021,251.149 110.000 C 251.503 110.550,252.392 111.796,253.125 112.768 C 255.312 115.670,256.617 115.520,214.327 117.228 C 205.633 117.579,200.014 117.579,191.127 117.228 C 155.900 115.836,150.289 115.419,151.206 114.262 C 151.407 114.008,152.081 113.170,152.704 112.400 C 153.326 111.630,154.157 110.488,154.551 109.863 C 156.362 106.986,166.972 96.746,170.986 94.000 C 171.790 93.450,172.670 92.820,172.941 92.600 C 174.432 91.390,181.911 87.556,184.600 86.623 C 185.700 86.241,186.907 85.768,187.283 85.572 C 187.658 85.376,188.738 85.097,189.683 84.953 C 190.627 84.809,191.587 84.545,191.815 84.367 C 192.653 83.713,205.573 83.453,210.400 83.992 M170.400 86.747 C 170.400 86.938,169.635 87.597,168.700 88.212 C 160.864 93.369,152.453 102.070,145.381 112.337 C 143.934 114.436,143.880 114.470,142.254 114.264 C 141.344 114.150,138.080 113.773,135.000 113.427 C 127.867 112.625,121.331 111.794,116.000 111.010 C 109.241 110.016,108.800 109.929,108.800 109.585 C 108.800 109.192,113.316 106.400,113.952 106.400 C 114.199 106.400,114.400 106.263,114.400 106.095 C 114.400 105.927,114.759 105.612,115.197 105.395 C 115.636 105.178,118.471 103.767,121.497 102.259 C 124.524 100.751,127.360 99.366,127.800 99.181 C 130.499 98.043,132.763 97.069,133.860 96.571 C 134.554 96.257,135.398 96.000,135.737 96.000 C 136.076 96.000,136.464 95.820,136.600 95.600 C 136.736 95.380,137.124 95.200,137.463 95.200 C 137.802 95.200,138.646 94.947,139.340 94.638 C 140.033 94.328,141.500 93.769,142.600 93.395 C 143.700 93.021,144.960 92.565,145.400 92.381 C 145.840 92.197,146.830 91.925,147.600 91.777 C 148.370 91.629,149.180 91.369,149.400 91.199 C 149.620 91.029,150.603 90.758,151.585 90.596 C 152.566 90.434,153.646 90.151,153.985 89.967 C 154.323 89.783,155.500 89.434,156.600 89.191 C 159.974 88.446,164.102 87.585,166.151 87.200 C 167.223 86.998,168.198 86.735,168.317 86.616 C 168.671 86.262,170.400 86.371,170.400 86.747 M239.600 87.194 C 240.590 87.394,242.480 87.756,243.800 87.997 C 245.120 88.239,246.489 88.593,246.841 88.785 C 247.194 88.977,248.364 89.261,249.441 89.417 C 250.519 89.573,251.580 89.838,251.800 90.005 C 252.020 90.173,253.010 90.440,254.000 90.600 C 254.990 90.760,255.980 91.029,256.200 91.199 C 256.420 91.369,257.230 91.629,258.000 91.777 C 258.770 91.925,259.760 92.197,260.200 92.381 C 260.640 92.565,261.900 93.021,263.000 93.395 C 264.100 93.769,265.567 94.328,266.260 94.638 C 266.954 94.947,267.798 95.200,268.137 95.200 C 268.476 95.200,268.855 95.366,268.981 95.569 C 269.106 95.772,269.786 96.065,270.491 96.220 C 271.197 96.375,272.050 96.653,272.387 96.837 C 272.724 97.021,273.810 97.513,274.800 97.929 C 279.156 99.762,281.224 100.716,284.599 102.448 C 289.995 105.216,290.987 105.771,291.133 106.100 C 291.207 106.265,291.422 106.400,291.612 106.400 C 292.197 106.400,296.800 109.217,296.800 109.575 C 296.800 109.761,296.125 110.021,295.300 110.153 C 288.666 111.214,279.755 112.397,270.800 113.405 C 267.830 113.740,264.626 114.120,263.680 114.251 C 261.962 114.488,260.400 113.732,260.400 112.664 C 260.400 112.437,259.680 111.398,258.800 110.354 C 257.920 109.310,257.200 108.342,257.200 108.201 C 257.200 107.804,252.109 101.767,249.000 98.478 C 246.480 95.811,238.779 89.200,238.193 89.200 C 237.774 89.200,235.200 87.011,235.200 86.655 C 235.200 86.465,235.785 86.426,236.500 86.570 C 237.215 86.713,238.610 86.994,239.600 87.194 M105.600 115.465 C 118.178 117.479,126.578 118.612,138.100 119.849 C 140.151 120.069,141.173 120.796,140.095 121.267 C 139.652 121.460,134.800 131.129,134.800 131.819 C 134.800 132.138,134.634 132.400,134.432 132.400 C 134.229 132.400,133.942 132.952,133.794 133.627 C 133.646 134.302,133.273 135.337,132.965 135.927 C 132.657 136.517,132.404 137.204,132.402 137.454 C 132.401 137.704,132.131 138.424,131.802 139.054 C 131.474 139.684,131.204 140.504,131.202 140.876 C 131.201 141.248,131.034 141.655,130.831 141.781 C 130.628 141.906,130.335 142.586,130.180 143.291 C 130.025 143.997,129.759 144.850,129.589 145.187 C 129.419 145.524,128.969 146.880,128.590 148.200 C 128.211 149.520,127.765 150.877,127.600 151.215 C 127.434 151.554,127.166 152.634,127.004 153.615 C 126.842 154.597,126.567 155.580,126.393 155.800 C 126.219 156.020,125.949 157.237,125.792 158.505 C 125.635 159.773,125.366 160.897,125.194 161.004 C 125.022 161.110,124.756 162.450,124.602 163.982 C 124.428 165.710,124.089 166.960,123.708 167.276 C 122.110 168.603,81.017 168.113,68.000 166.612 C 60.454 165.742,60.000 165.635,60.000 164.733 C 60.000 162.021,69.194 146.241,74.787 139.353 C 75.344 138.667,76.335 137.407,76.989 136.553 C 78.536 134.534,89.570 123.508,92.361 121.193 C 97.430 116.987,101.023 114.457,101.600 114.684 C 101.930 114.814,103.730 115.166,105.600 115.465 M306.717 116.087 C 307.973 117.014,309.636 118.319,310.414 118.987 C 311.192 119.654,312.632 120.821,313.614 121.580 C 315.728 123.214,325.963 133.421,328.072 136.000 C 328.882 136.990,330.061 138.430,330.693 139.200 C 332.340 141.209,334.400 144.112,334.400 144.426 C 334.400 144.573,326.165 144.788,316.100 144.902 C 305.847 145.019,296.569 145.305,295.000 145.553 C 293.460 145.796,289.500 146.189,286.200 146.426 C 282.900 146.664,279.345 146.953,278.300 147.068 C 276.586 147.257,276.400 147.197,276.400 146.462 C 276.400 146.014,276.236 145.546,276.035 145.422 C 275.834 145.297,275.548 144.478,275.400 143.600 C 275.252 142.722,274.966 141.903,274.765 141.778 C 274.564 141.654,274.399 141.248,274.398 140.876 C 274.396 140.504,274.126 139.684,273.798 139.054 C 273.469 138.424,273.200 137.739,273.200 137.532 C 273.200 137.325,272.827 136.311,272.371 135.278 C 271.915 134.245,271.268 132.770,270.934 132.000 C 269.773 129.329,267.018 123.792,266.111 122.308 C 264.845 120.235,264.906 120.128,267.500 119.849 C 276.316 118.903,284.045 117.902,292.400 116.626 C 301.570 115.226,303.671 114.862,303.895 114.638 C 304.259 114.275,304.279 114.285,306.717 116.087 M156.000 121.624 C 157.650 121.838,163.376 122.187,168.724 122.398 C 174.073 122.610,178.604 122.879,178.794 122.996 C 179.430 123.389,224.131 123.233,229.200 122.820 C 231.950 122.596,237.710 122.225,242.000 121.995 C 246.290 121.765,251.690 121.427,254.000 121.243 C 259.032 120.842,258.781 120.763,259.892 123.113 C 260.383 124.151,261.383 126.080,262.116 127.400 C 262.849 128.720,263.886 130.880,264.420 132.200 C 264.955 133.520,265.496 134.690,265.622 134.800 C 265.748 134.910,266.272 136.170,266.787 137.600 C 267.303 139.030,267.876 140.371,268.062 140.580 C 268.248 140.789,268.400 141.212,268.400 141.520 C 268.400 141.827,268.652 142.646,268.960 143.340 C 271.016 147.963,270.979 148.009,264.702 148.676 C 262.006 148.962,258.720 149.366,257.400 149.574 C 256.080 149.782,252.930 150.225,250.400 150.558 C 240.100 151.917,217.239 155.350,211.400 156.416 C 208.646 156.919,204.610 157.549,189.600 159.822 C 187.510 160.138,183.910 160.661,181.600 160.984 C 172.831 162.210,168.515 162.828,166.000 163.216 C 157.722 164.496,136.657 166.717,132.258 166.775 L 130.316 166.800 130.530 165.300 C 130.982 162.122,131.653 158.971,132.018 158.305 C 132.228 157.923,132.400 157.279,132.400 156.873 C 132.400 155.293,136.626 142.534,138.982 137.000 C 139.263 136.340,139.742 135.183,140.046 134.430 C 140.573 133.125,144.235 125.781,145.844 122.800 C 147.008 120.646,147.783 120.556,156.000 121.624 M66.613 140.500 C 58.464 152.135,49.682 170.215,51.603 171.402 C 51.825 171.539,54.930 171.912,58.503 172.230 C 62.076 172.549,69.230 173.195,74.400 173.666 C 90.857 175.165,118.370 174.789,137.600 172.802 C 151.679 171.348,167.120 169.472,173.800 168.404 C 175.120 168.193,178.270 167.739,180.800 167.395 C 185.375 166.773,197.945 164.847,209.400 163.012 C 212.700 162.484,217.290 161.762,219.600 161.409 C 223.770 160.771,229.196 159.917,233.800 159.174 C 235.120 158.961,237.370 158.625,238.800 158.427 C 240.230 158.230,244.010 157.696,247.200 157.241 C 250.390 156.785,255.070 156.136,257.600 155.797 C 260.130 155.457,263.460 155.009,265.000 154.800 C 267.961 154.398,279.890 153.140,287.600 152.417 C 319.054 149.468,357.081 150.285,373.600 154.264 C 387.001 157.492,395.702 165.091,393.478 171.626 C 392.590 174.239,388.457 185.270,388.019 186.200 C 387.812 186.640,386.621 189.610,385.373 192.800 C 384.124 195.990,382.868 199.140,382.581 199.800 C 382.294 200.460,380.955 203.700,379.607 207.000 C 378.259 210.300,376.998 213.360,376.805 213.800 C 375.985 215.670,375.104 217.756,372.592 223.777 C 371.129 227.285,369.601 230.885,369.196 231.777 C 367.640 235.211,366.364 238.111,365.390 240.423 C 364.834 241.745,363.850 243.982,363.203 245.394 C 362.556 246.806,361.779 248.555,361.475 249.281 C 360.221 252.284,353.389 260.453,348.800 264.439 C 342.775 269.671,330.961 276.341,321.600 279.796 C 319.950 280.405,318.009 281.174,317.286 281.504 C 315.428 282.353,315.317 281.911,317.047 280.554 C 323.179 275.747,325.462 273.774,328.720 270.466 C 336.206 262.864,346.400 248.039,346.400 244.753 C 346.400 244.338,344.218 244.015,336.000 243.213 C 331.710 242.794,325.860 242.215,323.000 241.926 C 316.070 241.225,283.382 241.222,274.600 241.922 C 260.578 243.039,236.159 245.645,231.000 246.576 C 230.340 246.695,227.010 247.162,223.600 247.615 C 220.190 248.067,216.410 248.605,215.200 248.809 C 211.969 249.356,200.637 251.130,197.400 251.596 C 195.860 251.817,192.890 252.276,190.800 252.614 C 188.710 252.952,185.290 253.490,183.200 253.810 C 181.110 254.129,177.690 254.663,175.600 254.996 C 173.510 255.329,170.630 255.776,169.200 255.990 C 167.770 256.204,164.800 256.658,162.600 256.999 C 149.666 259.004,140.648 260.211,125.600 261.951 C 119.058 262.708,113.331 263.243,98.600 264.474 C 89.449 265.239,54.279 265.075,44.830 264.223 C 21.639 262.134,10.130 256.173,6.555 244.400 C 5.678 241.511,6.034 240.208,11.825 225.100 C 12.141 224.275,12.650 222.925,12.955 222.100 C 13.260 221.275,13.820 219.790,14.200 218.800 C 14.580 217.810,15.161 216.280,15.493 215.400 C 15.825 214.520,16.232 213.440,16.398 213.000 C 16.564 212.560,16.924 211.660,17.198 211.000 C 17.471 210.340,17.840 209.350,18.017 208.800 C 18.195 208.250,18.690 206.900,19.117 205.800 C 19.545 204.700,21.652 199.210,23.800 193.600 C 25.948 187.990,28.019 182.590,28.402 181.600 C 28.785 180.610,30.246 176.769,31.649 173.065 C 35.715 162.331,45.267 151.435,58.000 143.006 C 61.083 140.966,68.512 136.800,69.069 136.800 C 69.143 136.800,68.038 138.465,66.613 140.500 M310.400 164.841 C 294.195 165.472,266.370 167.819,265.674 168.614 C 265.488 168.826,264.481 171.880,263.437 175.400 C 262.393 178.920,261.364 182.232,261.150 182.761 C 260.579 184.172,261.114 184.407,264.003 184.014 C 265.432 183.820,268.355 183.536,270.500 183.383 C 274.902 183.069,274.841 183.020,273.841 186.086 C 273.534 187.029,272.884 189.150,272.397 190.800 C 271.910 192.450,271.271 194.610,270.977 195.600 C 270.683 196.590,269.969 199.020,269.390 201.000 C 268.811 202.980,268.185 205.050,267.999 205.600 C 267.812 206.150,267.273 207.950,266.800 209.600 C 266.327 211.250,265.789 213.050,265.603 213.600 C 265.418 214.150,264.705 216.490,264.019 218.800 C 263.334 221.110,262.419 224.175,261.986 225.611 C 260.857 229.360,260.846 229.330,263.300 229.066 C 264.455 228.941,268.190 228.640,271.600 228.395 C 275.010 228.151,278.741 227.860,279.891 227.748 L 281.983 227.545 283.170 223.672 C 283.823 221.543,284.741 218.450,285.211 216.800 C 285.681 215.150,286.320 212.945,286.633 211.900 C 287.249 209.837,287.521 208.914,289.904 200.800 C 290.777 197.830,292.434 192.231,293.586 188.357 L 295.682 181.314 302.488 180.957 L 309.294 180.600 309.800 179.200 C 310.079 178.430,310.900 175.730,311.625 173.200 C 313.273 167.454,313.335 167.372,313.997 170.068 C 314.177 170.801,315.255 175.000,316.393 179.400 C 317.531 183.800,319.366 191.000,320.470 195.400 L 322.477 203.400 321.869 206.000 C 321.534 207.430,320.995 209.500,320.671 210.600 C 320.347 211.700,319.436 214.850,318.645 217.600 C 317.855 220.350,316.933 223.487,316.596 224.572 C 316.259 225.656,316.122 226.673,316.292 226.832 C 316.554 227.078,330.608 228.099,334.769 228.175 L 336.137 228.200 337.473 223.600 C 338.661 219.507,339.096 218.003,340.427 213.400 C 342.894 204.861,341.824 206.442,356.411 189.800 C 358.532 187.380,360.702 184.868,361.234 184.217 C 361.765 183.566,363.017 182.126,364.016 181.017 C 369.868 174.516,374.078 169.545,373.890 169.357 C 373.412 168.879,362.395 167.084,354.892 166.261 C 352.769 166.028,353.566 165.179,344.992 176.811 C 336.847 187.861,337.561 187.583,336.615 180.069 C 335.541 171.546,334.798 166.223,334.588 165.564 C 334.205 164.355,327.794 164.163,310.400 164.841 M250.177 170.240 C 239.133 171.683,238.957 171.724,238.687 172.913 C 238.577 173.401,237.490 177.040,236.273 181.000 C 235.056 184.960,232.958 191.800,231.610 196.200 C 230.262 200.600,228.466 206.450,227.618 209.200 C 226.770 211.950,224.815 218.340,223.273 223.400 C 221.731 228.460,220.344 232.915,220.192 233.300 C 219.841 234.184,220.335 234.190,226.400 233.376 C 228.930 233.036,233.063 232.497,235.585 232.179 C 241.786 231.396,241.300 231.722,242.556 227.496 C 243.160 225.463,243.838 223.320,244.062 222.734 C 244.286 222.148,244.616 221.068,244.797 220.334 C 244.977 219.600,246.418 214.770,247.999 209.600 C 249.580 204.430,251.127 199.345,251.437 198.300 C 251.746 197.255,252.254 195.545,252.564 194.500 C 252.873 193.455,254.150 189.270,255.400 185.200 C 259.171 172.924,260.098 169.653,259.922 169.257 C 259.855 169.106,255.470 169.549,250.177 170.240 M206.000 176.602 C 204.350 176.872,200.930 177.399,198.400 177.774 C 195.870 178.148,193.093 178.579,192.229 178.730 L 190.659 179.004 189.376 183.002 C 188.671 185.201,187.339 189.430,186.417 192.400 C 185.495 195.370,184.492 198.520,184.188 199.400 C 183.884 200.280,182.806 203.700,181.792 207.000 C 180.778 210.300,179.792 213.450,179.601 214.000 C 179.260 214.981,176.074 225.072,172.835 235.430 C 171.936 238.306,171.200 240.806,171.200 240.985 C 171.200 241.419,174.160 241.102,184.000 239.617 C 188.510 238.936,194.000 238.115,196.200 237.793 C 209.809 235.800,213.807 235.151,214.051 234.892 C 214.424 234.494,218.800 219.983,218.800 219.144 C 218.800 218.855,218.346 218.793,217.500 218.967 C 216.785 219.114,212.523 219.771,208.029 220.427 C 203.535 221.084,199.440 221.725,198.929 221.854 C 197.745 222.151,197.728 221.496,198.829 218.000 C 201.957 208.062,203.360 203.566,203.819 202.000 C 204.109 201.010,204.912 198.400,205.604 196.200 C 210.303 181.254,211.598 177.000,211.599 176.500 C 211.600 175.898,210.140 175.925,206.000 176.602 M174.200 181.248 C 161.996 182.924,163.273 182.386,161.969 186.400 C 160.294 191.560,154.070 210.947,147.779 230.600 C 146.089 235.880,144.363 241.244,143.942 242.520 C 143.138 244.962,143.253 245.819,144.329 245.406 C 144.686 245.269,146.963 244.905,149.389 244.596 C 162.217 242.966,164.223 242.655,164.479 242.256 C 164.632 242.017,165.413 239.747,166.214 237.211 C 167.014 234.675,168.927 228.640,170.463 223.800 C 171.999 218.960,173.766 213.380,174.390 211.400 C 175.014 209.420,176.786 203.840,178.329 199.000 C 184.760 178.824,184.459 179.969,183.300 180.048 C 182.915 180.074,178.820 180.614,174.200 181.248 M154.200 183.812 C 153.728 183.987,135.761 185.772,128.000 186.415 C 125.030 186.661,119.630 186.983,116.000 187.131 L 109.400 187.400 106.825 195.105 C 105.246 199.830,104.395 202.947,104.625 203.164 C 104.843 203.369,107.571 203.348,111.120 203.113 C 114.486 202.890,117.351 202.818,117.486 202.953 C 117.621 203.088,116.442 207.114,114.866 211.899 C 105.957 238.942,102.800 248.638,102.800 248.961 C 102.800 249.552,122.978 248.003,123.566 247.366 C 123.863 247.045,126.097 240.302,135.085 212.600 C 139.340 199.485,138.463 200.981,142.087 200.658 C 143.689 200.515,146.741 200.193,148.868 199.941 L 152.736 199.484 153.338 197.842 C 154.372 195.020,157.600 184.607,157.600 184.091 C 157.600 183.633,155.209 183.437,154.200 183.812 M49.556 185.100 C 49.101 186.278,46.148 194.789,44.595 199.400 C 44.076 200.940,41.828 207.510,39.600 214.000 C 32.355 235.099,32.139 236.341,34.769 241.845 C 37.746 248.073,41.180 249.494,55.950 250.614 C 74.137 251.992,82.458 247.988,87.985 235.200 C 88.944 232.981,104.054 187.913,103.889 187.765 C 103.840 187.721,98.792 187.621,92.672 187.542 C 80.102 187.382,81.087 187.115,80.635 190.800 C 80.229 194.104,78.702 201.846,76.925 209.600 C 76.597 211.030,76.178 212.920,75.994 213.800 C 75.667 215.358,74.548 219.671,72.569 227.000 C 70.661 234.066,69.885 234.618,62.043 234.491 C 55.733 234.389,53.284 233.876,52.961 232.588 C 52.684 231.484,52.785 231.106,54.886 225.400 C 56.704 220.461,57.255 219.127,59.975 213.072 C 60.649 211.572,61.200 210.279,61.200 210.200 C 61.200 209.898,63.739 204.425,68.976 193.438 C 70.644 189.938,71.952 187.019,71.883 186.950 C 71.815 186.881,68.859 186.466,65.315 186.026 C 61.772 185.587,57.024 184.952,54.766 184.614 C 49.626 183.845,50.055 183.805,49.556 185.100 M313.400 247.608 C 316.040 247.836,320.630 248.196,323.600 248.408 C 328.980 248.793,333.246 249.298,336.105 249.889 L 337.610 250.200 335.739 253.000 C 334.710 254.540,333.718 255.860,333.534 255.933 C 333.350 256.007,333.200 256.251,333.200 256.476 C 333.200 256.700,332.795 257.377,332.300 257.980 C 331.805 258.582,330.860 259.758,330.200 260.593 C 326.439 265.352,317.388 274.485,312.355 278.600 C 304.803 284.776,304.656 284.850,301.600 284.012 C 300.830 283.801,298.850 283.434,297.200 283.198 C 295.550 282.962,292.400 282.499,290.200 282.168 C 284.429 281.303,277.656 280.458,272.600 279.973 C 270.180 279.741,267.533 279.377,266.717 279.165 L 265.235 278.778 267.775 273.689 C 270.313 268.607,270.799 267.564,272.385 263.800 C 272.849 262.700,273.379 261.524,273.563 261.187 C 273.747 260.850,274.034 259.956,274.200 259.200 C 274.366 258.444,274.652 257.550,274.836 257.213 C 275.318 256.331,277.600 249.162,277.600 248.531 C 277.600 248.142,278.377 247.989,280.500 247.960 C 282.095 247.939,284.390 247.784,285.600 247.617 C 288.985 247.149,308.015 247.143,313.400 247.608 M271.000 249.700 C 270.652 251.419,268.494 257.518,267.002 261.000 C 266.719 261.660,266.085 263.190,265.593 264.400 C 264.545 266.977,259.387 277.093,258.697 277.924 C 258.329 278.368,257.640 278.434,255.611 278.221 C 249.110 277.538,244.780 277.223,236.400 276.825 C 231.450 276.590,223.620 276.216,219.000 275.994 C 214.380 275.772,207.090 275.591,202.800 275.591 C 198.510 275.591,191.220 275.772,186.600 275.994 C 181.980 276.216,174.150 276.590,169.200 276.825 C 160.820 277.223,156.490 277.538,149.989 278.221 C 147.999 278.430,147.273 278.365,146.942 277.948 C 145.876 276.608,141.200 267.544,141.200 266.819 C 141.200 266.278,141.680 266.184,150.400 265.006 C 156.361 264.201,163.061 263.218,165.400 262.805 C 168.151 262.319,175.029 261.267,179.600 260.632 C 181.690 260.342,183.400 260.057,183.400 260.000 C 183.400 259.943,185.110 259.658,187.200 259.368 C 193.199 258.535,206.036 256.557,209.200 255.979 C 218.931 254.199,247.985 250.530,262.722 249.221 C 264.769 249.039,266.554 248.780,266.688 248.645 C 266.823 248.510,267.908 248.400,269.098 248.400 L 271.264 248.400 271.000 249.700 M137.445 272.980 C 140.773 279.735,141.120 279.081,133.800 279.834 C 127.997 280.431,121.410 281.267,115.400 282.168 C 113.200 282.499,110.050 282.962,108.400 283.198 C 106.750 283.434,104.770 283.801,104.000 284.012 C 101.447 284.712,98.734 283.730,96.809 281.411 C 96.530 281.075,96.135 280.800,95.932 280.800 C 95.728 280.800,95.165 280.392,94.681 279.892 C 94.196 279.393,93.170 278.497,92.400 277.902 C 91.630 277.306,89.740 275.646,88.200 274.214 C 84.760 271.014,84.916 270.824,91.000 270.782 C 95.761 270.750,104.725 270.218,110.800 269.608 C 120.191 268.665,127.203 267.931,129.600 267.641 C 135.012 266.985,134.231 266.454,137.445 272.980 M229.400 282.429 C 240.817 282.904,254.400 283.940,254.400 284.336 C 254.400 284.984,250.363 290.195,247.200 293.628 C 246.870 293.987,246.319 294.622,245.975 295.040 C 245.084 296.124,239.115 301.692,237.100 303.320 C 232.866 306.739,222.160 312.800,220.354 312.800 C 219.965 312.800,219.551 312.956,219.432 313.147 C 219.314 313.339,218.458 313.616,217.529 313.765 C 216.600 313.914,215.578 314.252,215.258 314.518 C 214.458 315.182,191.180 315.208,190.361 314.545 C 190.053 314.295,189.036 313.964,188.102 313.810 C 187.168 313.656,186.303 313.366,186.178 313.165 C 186.054 312.964,185.635 312.800,185.246 312.800 C 183.684 312.800,173.276 307.055,169.373 304.039 C 163.404 299.425,156.094 291.798,152.352 286.278 C 150.839 284.046,150.745 284.153,154.500 283.837 C 165.585 282.905,168.529 282.707,175.200 282.444 C 186.051 282.015,219.228 282.006,229.400 282.429 M145.462 286.900 C 146.308 288.055,147.090 289.197,147.200 289.437 C 148.027 291.245,156.630 300.968,160.346 304.295 C 163.576 307.187,168.225 310.800,168.716 310.800 C 168.905 310.800,169.497 311.267,170.030 311.837 L 171.000 312.874 169.000 312.601 C 167.900 312.450,166.460 312.175,165.800 311.989 C 165.140 311.804,163.160 311.347,161.400 310.974 C 159.640 310.602,157.750 310.147,157.200 309.965 C 156.650 309.782,155.480 309.512,154.600 309.364 C 153.720 309.216,152.820 308.960,152.600 308.793 C 152.380 308.627,151.397 308.358,150.415 308.196 C 149.434 308.034,148.354 307.753,148.015 307.572 C 147.677 307.390,146.050 306.849,144.400 306.369 C 142.750 305.888,141.220 305.376,141.000 305.230 C 140.780 305.084,139.610 304.643,138.400 304.249 C 137.190 303.854,135.840 303.377,135.400 303.188 C 134.960 302.999,133.700 302.464,132.600 302.000 C 131.500 301.536,130.240 300.996,129.800 300.800 C 129.360 300.604,128.100 300.062,127.000 299.596 C 125.159 298.815,122.480 297.496,120.000 296.148 C 119.450 295.849,118.775 295.604,118.500 295.602 C 118.225 295.601,118.000 295.459,118.000 295.288 C 118.000 295.116,117.505 294.768,116.900 294.513 C 116.295 294.259,114.720 293.408,113.400 292.621 C 112.080 291.834,110.612 291.023,110.139 290.820 C 108.044 289.919,109.274 288.800,112.359 288.800 C 113.188 288.800,114.000 288.665,114.163 288.500 C 114.326 288.335,116.381 287.971,118.730 287.691 C 121.078 287.410,125.070 286.913,127.600 286.584 C 130.130 286.256,134.630 285.744,137.600 285.447 C 140.570 285.149,143.208 284.882,143.462 284.853 C 143.717 284.824,144.617 285.745,145.462 286.900 M269.600 285.621 C 271.690 285.835,275.470 286.274,278.000 286.596 C 280.530 286.918,284.490 287.420,286.800 287.711 C 289.110 288.002,291.270 288.352,291.600 288.489 C 291.930 288.625,293.071 288.821,294.135 288.923 C 296.982 289.197,297.172 289.704,294.926 291.036 C 291.011 293.360,289.774 294.050,288.700 294.507 C 288.095 294.765,287.600 295.116,287.600 295.288 C 287.600 295.459,287.375 295.601,287.100 295.602 C 286.825 295.604,286.083 295.875,285.451 296.204 C 284.819 296.534,283.469 297.242,282.451 297.777 C 281.433 298.313,279.700 299.132,278.600 299.597 C 277.500 300.063,276.240 300.604,275.800 300.800 C 273.291 301.917,271.066 302.810,268.400 303.770 C 266.750 304.364,265.130 304.991,264.800 305.163 C 264.470 305.335,262.850 305.873,261.200 306.359 C 259.550 306.845,257.923 307.390,257.585 307.572 C 257.246 307.753,256.166 308.034,255.185 308.196 C 254.203 308.358,253.220 308.627,253.000 308.793 C 252.780 308.960,251.880 309.216,251.000 309.364 C 250.120 309.512,248.950 309.782,248.400 309.965 C 247.850 310.147,245.960 310.602,244.200 310.974 C 242.440 311.347,240.460 311.804,239.800 311.989 C 239.140 312.175,237.700 312.450,236.600 312.601 L 234.600 312.874 235.570 311.837 C 236.103 311.267,236.679 310.800,236.849 310.800 C 238.399 310.800,251.123 298.865,255.132 293.650 C 258.748 288.948,260.373 286.665,260.789 285.705 C 261.216 284.718,260.805 284.722,269.600 285.621 " stroke="none" fill="#fbfbfb" fill-rule="evenodd"></path></g></svg>