<?xml version="1.0" encoding="UTF-8" standalone="no"?>
<svg
   
   
   xmlns="http://www.w3.org/2000/svg"
   height="296.26999"
   width="296.26999"
   id="svg14"
   version="1.1"
   viewBox="0 0 296.27 296.26998">
  <metadata
     id="metadata20">
      
  </metadata>
  <defs
     id="defs18" />
  <title
     id="title2">logo_astra</title>
  <g
     transform="translate(0,-110.945)"
     id="g27">
    <path
       d="m 278.1,268.17999 a 0.71,0.71 0 0 1 0.75,0.67 l 0.71,2.64 a 0.72,0.72 0 0 0 0.77,0.66 h 15.17 a 0.79,0.79 0 0 0 0.76,-0.6 c 0,0 0,-0.07 0,-0.11 l -5.24,-25 a 1.21,1.21 0 0 0 -1.28,-1 h -24.58 a 1.88,1.88 0 0 0 -1.65,1 l -13.95,25 a 0.22,0.22 0 0 0 0,0.11 0.51,0.51 0 0 0 0.54,0.6 h 15.23 a 1.12,1.12 0 0 0 1,-0.66 l 1.6,-2.64 a 1.09,1.09 0 0 1 1,-0.67 z m -2.39,-12.94 h -0.17 a 0.65,0.65 0 0 0 -0.61,0.45 l -3,5.35 a 0.41,0.41 0 0 0 0.4,0.51 h 4.41 a 0.62,0.62 0 0 0 0.58,-0.45 c 0,0 0,0 0,-0.07 l -1.13,-5.34 a 0.42,0.42 0 0 0 -0.48,-0.45 z m -105.69,11.13 v 0.18 0.25 a 7.1,7.1 0 0 1 -6.7,5.7 h -2.37 -23.12 a 3.62,3.62 0 0 1 -3.65,-4.44 4.28,4.28 0 0 1 0,-0.49 l 0.21,-1.17 a 1,1 0 0 1 0.94,-0.72 h 12.66 a 0.63,0.63 0 0 1 0.69,0.72 v 0.23 c -0.12,0.68 0.54,1.24 1.32,1.24 h 3.75 a 1.82,1.82 0 0 0 1.76,-1.24 l 0.48,-2.73 c 0.11,-0.62 -0.48,-1.15 -1.4,-1.38 h -13.76 a 6.3,6.3 0 0 1 -0.75,-0.05 4.59,4.59 0 0 1 -4,-5.6 l -0.06,0.4 1,-5.78 v -0.18 -0.25 a 7.1,7.1 0 0 1 6.7,-5.7 h 2.36 23 a 3.63,3.63 0 0 1 3.66,4.44 4.28,4.28 0 0 1 -0.05,0.49 l -0.21,1.17 a 1,1 0 0 1 -0.94,0.72 h -12.5 a 0.63,0.63 0 0 1 -0.7,-0.72 v -0.23 c 0.12,-0.68 -0.53,-1.24 -1.31,-1.24 h -3.75 a 1.84,1.84 0 0 0 -1.77,1.24 l -0.48,2.73 c -0.11,0.62 0.49,1.15 1.41,1.38 h 13.79 a 6.44,6.44 0 0 1 0.75,0.05 4.59,4.59 0 0 1 3.95,5.6 z m 59.92,-15.84 h 4.5 a 2.94,2.94 0 0 1 3.16,3.42 4.49,4.49 0 0 1 -4.37,3.37 h -5.29 a 0.66,0.66 0 0 1 -0.67,-0.81 l 0.91,-5.18 a 1,1 0 0 1 0.95,-0.81 h 0.81 z m -4.11,14.52 -1.07,6.27 a 1,1 0 0 1 -1,0.83 h -12.53 a 0.68,0.68 0 0 1 -0.69,-0.83 l 4.43,-25.06 a 1,1 0 0 1 1,-0.82 h 27.6 a 7.78,7.78 0 0 1 1.09,0.07 5.61,5.61 0 0 1 5.06,6.87 8.6,8.6 0 0 1 -8,6.9 l 4.52,12.04 a 1,1 0 0 1 -1,0.83 h -14.66 a 0.7,0.7 0 0 1 -0.63,-0.37 l -2,-5.34 -0.66,-1.63 a 0.55,0.55 0 0 0 -0.57,-0.44 0.84,0.84 0 0 0 -0.89,0.68 z m -43.52,7.1 a 0.68,0.68 0 0 1 -0.69,-0.83 l 3.21,-17.92 a 1.15,1.15 0 0 0 -1.09,-1.41 h -8 a 0.64,0.64 0 0 1 -0.65,-0.79 l 0.89,-5.05 a 1,1 0 0 1 0.93,-0.79 h 33.92 a 0.64,0.64 0 0 1 0.65,0.79 l -0.89,5.05 a 1,1 0 0 1 -0.93,0.79 h -8.56 a 1.76,1.76 0 0 0 -1.58,1.41 l -3.17,17.92 a 1,1 0 0 1 -1,0.83 z m 1.38,-20.16 z m 23.52,0 z m -93.34,16.19 a 0.69,0.69 0 0 1 0.74,0.67 l 0.72,2.64 a 0.72,0.72 0 0 0 0.76,0.66 h 15.17 a 0.78,0.78 0 0 0 0.76,-0.6 0.43,0.43 0 0 0 0,-0.11 l -5.24,-25 a 1.21,1.21 0 0 0 -1.28,-1 h -24.53 a 1.87,1.87 0 0 0 -1.65,1 l -14,25 c 0,0 0,0.07 0,0.11 a 0.51,0.51 0 0 0 0.55,0.6 h 15.23 a 1.11,1.11 0 0 0 1,-0.66 l 1.61,-2.64 a 1.08,1.08 0 0 1 1,-0.67 z m -2.4,-12.94 h -0.16 a 0.65,0.65 0 0 0 -0.61,0.45 l -3,5.35 a 0.4,0.4 0 0 0 0.39,0.51 h 4.41 a 0.63,0.63 0 0 0 0.59,-0.45 v -0.07 l -1.13,-5.34 a 0.42,0.42 0 0 0 -0.45,-0.45 z"
       id="path4"
       style="fill:#1a171b;fill-rule:evenodd" />
    <path
       d="m 71.07,274.57999 a 37.23,37.23 0 1 1 0,-31 h -8.63 a 29.59,29.59 0 1 0 0,31 z"
       id="path6"
       style="fill:#1a171b;fill-rule:evenodd" />
    <path
       d="m 50.21,272.60999 h 20.28 a 7.06,7.06 0 0 0 6,-3.31 l 2.13,-3.72 H 46.08 Z"
       id="path8"
       style="fill:#1a171b;fill-rule:evenodd" />
    <path
       d="m 44.41,262.51999 h 31.93 a 7.09,7.09 0 0 0 6,-3.31 l 2.13,-3.72 H 40.28 Z"
       id="path10"
       style="fill:#1a171b;fill-rule:evenodd" />
    <path
       d="m 31.6,245.31999 a 7,7 0 0 0 -6.13,3.56 l -13.64,23.68 h 14.25 l 10.84,-18.75 a 2.76,2.76 0 0 1 2.43,-1.44 h 42.88 a 6.93,6.93 0 0 0 6,-3.34 l 2.1,-3.66 z"
       id="path12"
       style="fill:#1a171b;fill-rule:evenodd" />
  </g>
</svg>
