<svg id="svg" xmlns="http://www.w3.org/2000/svg"  width="400" height="400" viewBox="0, 0, 400,400"><g id="svgg"><path id="path0" d="M193.771 4.891 C 193.729 5.162,192.715 11.615,191.518 19.231 C 182.022 79.606,202.577 125.805,261.302 176.080 C 318.332 224.902,340.054 263.024,338.047 310.769 C 337.228 330.270,334.472 340.123,325.368 356.098 C 321.569 362.764,318.462 368.489,318.462 368.820 C 318.462 374.211,354.860 337.331,365.673 320.983 C 442.270 205.184,380.503 41.380,249.231 12.180 C 245.423 11.333,237.462 9.559,231.538 8.238 C 221.957 6.100,193.965 3.620,193.771 4.891 M157.360 25.236 C 132.133 46.499,130.305 49.529,141.538 51.451 C 148.476 52.639,148.362 52.741,160.441 34.432 C 176.645 9.869,176.414 9.177,157.360 25.236 M135.304 24.339 C 108.122 41.181,102.133 47.692,113.827 47.692 C 119.373 47.692,121.137 46.568,132.194 35.980 C 138.921 29.539,145.853 23.269,147.597 22.047 C 151.129 19.574,151.803 16.865,148.846 17.031 C 147.788 17.091,141.694 20.380,135.304 24.339 M96.889 35.170 C 86.031 41.735,83.859 44.615,89.764 44.615 C 92.276 44.615,96.501 41.939,101.816 36.982 C 111.684 27.778,110.086 27.190,96.889 35.170 M64.746 59.476 C 51.298 70.987,23.077 110.296,23.077 117.516 C 23.077 119.493,24.759 120.000,31.321 120.000 L 39.564 120.000 46.062 107.308 C 54.233 91.350,67.480 71.531,74.570 64.659 C 85.872 53.705,76.973 49.010,64.746 59.476 M85.896 65.769 C 73.089 78.908,52.308 110.906,52.308 117.487 C 52.308 120.574,57.312 121.867,66.867 121.250 C 74.995 120.724,74.519 121.217,81.434 106.154 C 88.593 90.560,97.148 76.296,105.726 65.651 C 116.278 52.558,98.672 52.662,85.896 65.769 M123.621 60.100 C 116.064 62.895,86.154 110.516,86.154 119.752 C 86.154 122.926,93.604 124.615,107.595 124.615 L 114.760 124.615 121.455 108.313 C 125.137 99.347,131.525 85.402,135.650 77.324 C 139.775 69.247,142.875 62.362,142.539 62.026 C 141.103 60.590,126.355 59.088,123.621 60.100 M16.346 132.615 C 13.471 137.063,8.576 151.996,6.362 163.077 C 5.432 167.731,3.916 175.000,2.993 179.231 C -0.379 194.691,-0.451 195.693,1.723 197.070 C 4.132 198.596,14.495 198.865,19.468 197.530 C 22.393 196.746,22.910 195.169,23.876 184.090 C 25.035 170.805,27.279 158.985,31.517 143.846 C 35.500 129.620,35.650 130.060,26.625 129.538 C 19.701 129.138,18.328 129.549,16.346 132.615 M47.380 131.172 C 43.743 134.072,39.348 148.114,34.735 171.574 C 29.867 196.327,31.247 198.920,48.875 198.147 L 59.231 197.692 60.244 183.846 C 60.801 176.231,62.295 165.500,63.564 160.000 C 68.946 136.680,69.485 133.491,68.236 132.356 C 65.711 130.060,49.900 129.163,47.380 131.172 M80.884 135.763 C 75.698 143.677,70.286 170.142,70.106 188.462 L 70.000 199.231 81.538 200.276 C 94.852 201.482,95.541 201.078,97.040 191.190 C 98.997 178.278,101.399 167.210,104.644 156.154 C 106.383 150.231,108.217 142.788,108.720 139.615 L 109.636 133.846 101.164 133.846 C 96.505 133.846,90.593 133.426,88.027 132.913 C 84.203 132.148,82.916 132.662,80.884 135.763 M4.864 208.815 L -0.272 209.446 0.458 217.415 C 0.860 221.798,1.972 228.846,2.929 233.077 C 3.887 237.308,5.437 244.577,6.373 249.231 C 7.309 253.885,9.467 262.019,11.168 267.308 L 14.261 276.923 22.425 276.923 C 32.514 276.923,33.300 275.718,30.309 264.834 C 25.317 246.663,24.739 243.408,23.719 227.692 C 22.352 206.641,22.376 206.665,4.864 208.815 M33.975 209.844 C 30.543 213.981,33.182 238.638,39.996 266.093 C 42.521 276.264,43.516 276.923,56.342 276.923 C 68.952 276.923,68.784 277.113,66.189 265.791 C 65.361 262.183,63.631 254.588,62.342 248.915 C 61.054 243.241,60.000 232.378,60.000 224.775 C 60.000 217.172,59.481 210.642,58.846 210.265 C 54.886 207.913,35.846 207.590,33.975 209.844 M70.256 210.256 C 68.651 211.862,69.054 232.728,70.866 241.806 C 77.759 276.348,77.676 276.167,87.112 277.333 C 97.433 278.608,97.770 277.915,95.666 259.730 C 94.656 250.994,93.833 236.478,93.837 227.472 C 93.845 213.955,93.422 210.935,91.413 210.165 C 88.123 208.902,71.539 208.974,70.256 210.256 M20.650 288.216 C 17.423 296.627,57.864 352.164,68.776 354.304 C 76.386 355.797,76.074 352.864,67.387 341.252 C 57.638 328.221,48.499 312.987,41.255 297.692 L 36.154 286.923 28.830 286.454 C 23.524 286.113,21.271 286.599,20.650 288.216 M49.231 288.875 C 49.231 301.228,84.502 352.388,95.034 355.313 C 106.763 358.570,113.341 356.095,106.981 350.818 C 102.818 347.363,89.083 324.588,82.087 309.541 C 78.271 301.332,74.312 292.885,73.290 290.769 C 70.779 285.569,49.231 283.873,49.231 288.875 M84.615 290.942 C 84.615 302.408,118.151 354.768,127.308 357.599 C 132.183 359.106,131.782 356.032,125.904 346.840 C 119.518 336.853,108.819 313.978,104.782 301.678 C 100.594 288.921,99.413 287.692,91.350 287.692 C 85.522 287.692,84.615 288.130,84.615 290.942 M83.125 367.308 C 83.192 368.893,89.073 373.033,97.949 377.741 L 105.385 381.685 97.750 373.920 C 91.001 367.055,82.962 363.420,83.125 367.308 M107.013 367.546 C 105.432 370.105,140.530 393.846,145.894 393.846 C 148.892 393.846,147.911 391.366,144.231 389.639 C 142.327 388.745,135.467 383.096,128.986 377.084 C 117.469 366.402,109.783 363.065,107.013 367.546 M138.462 371.342 C 138.462 372.405,159.270 388.622,161.956 389.652 C 167.128 391.637,164.526 387.932,158.077 384.130 C 154.481 382.009,149.505 378.136,147.020 375.522 C 143.237 371.543,138.462 369.211,138.462 371.342 " stroke="none" fill-rule="evenodd"></path></g></svg>