<svg id="svg" xmlns="http://www.w3.org/2000/svg"  width="400" height="400" viewBox="0, 0, 400,400"><g id="svgg"><path id="path0" d="M122.844 163.564 C 121.487 164.249,121.313 164.749,121.152 168.422 C 120.948 173.081,120.285 173.676,115.305 173.676 C 112.372 173.676,111.952 174.204,111.952 177.888 C 111.952 180.801,113.073 181.741,117.026 182.139 L 120.121 182.451 120.424 200.303 C 120.769 220.705,120.837 221.008,125.570 223.299 C 129.486 225.195,136.755 224.894,139.952 222.703 C 146.209 218.416,146.767 205.965,140.734 205.250 C 138.246 204.955,136.762 206.635,136.762 209.748 C 136.762 213.291,135.709 215.431,133.963 215.431 C 131.499 215.431,131.286 213.927,131.457 197.751 L 131.619 182.451 265.809 182.298 L 400.000 182.146 400.000 177.911 C 400.000 175.582,399.932 173.610,399.849 173.528 C 399.766 173.447,339.380 173.243,265.658 173.074 L 131.619 172.769 131.316 168.547 C 130.926 163.104,127.617 161.158,122.844 163.564 M99.427 171.980 C 96.005 173.633,95.356 180.001,98.344 182.598 C 104.060 187.564,111.908 181.592,108.660 174.748 C 107.141 171.545,102.936 170.285,99.427 171.980 M2.408 174.790 C 1.143 175.211,-0.111 178.642,0.265 180.648 C 0.769 183.333,2.087 184.266,5.375 184.266 C 8.129 184.266,8.145 184.279,8.575 186.687 C 9.141 189.855,9.134 208.386,8.566 211.498 L 8.124 213.918 5.383 213.748 C 0.544 213.448,-1.815 219.161,1.847 222.311 C 4.058 224.213,27.183 224.240,29.030 222.343 C 32.366 218.916,29.928 213.267,25.423 213.987 C 21.708 214.581,19.825 206.456,23.171 204.264 C 28.190 200.975,35.339 210.184,36.538 221.483 C 37.417 229.759,39.257 234.047,42.612 235.639 C 44.479 236.525,60.423 236.611,222.330 236.611 L 400.000 236.611 400.000 232.375 L 400.000 228.139 226.740 228.139 L 53.481 228.139 52.119 226.871 C 50.377 225.247,49.622 223.231,49.622 220.201 C 49.622 211.522,44.788 200.650,40.049 198.670 L 37.898 197.771 41.166 196.465 C 50.209 192.850,49.837 180.110,40.565 175.868 C 38.056 174.720,5.386 173.797,2.408 174.790 M33.529 185.325 C 38.274 189.565,30.672 197.388,24.840 194.267 C 23.390 193.490,22.990 186.027,24.327 184.690 C 25.656 183.360,31.805 183.785,33.529 185.325 M64.127 186.709 C 51.724 190.532,48.368 211.591,58.745 220.474 C 67.738 228.171,87.003 224.348,87.274 214.813 C 87.412 209.960,81.637 208.944,77.194 213.040 C 71.931 217.892,63.654 215.375,64.267 209.109 L 64.448 207.262 75.626 206.959 C 89.510 206.583,90.163 205.903,86.769 195.344 C 84.278 187.595,73.985 183.670,64.127 186.709 M169.743 186.926 C 168.411 187.543,166.505 188.920,165.507 189.986 L 163.691 191.924 163.389 189.608 L 163.086 187.292 155.940 187.195 C 148.855 187.099,148.789 187.111,148.225 188.596 C 146.642 192.758,148.190 195.662,151.821 195.348 L 154.009 195.159 154.009 205.144 L 154.009 215.129 151.788 214.957 C 148.246 214.684,146.522 218.312,148.420 222.044 C 149.320 223.813,167.568 224.479,169.243 222.804 C 171.459 220.587,169.699 214.278,167.094 215.105 C 165.551 215.595,165.420 214.655,165.809 205.911 C 166.154 198.173,167.141 196.364,171.395 195.673 C 175.844 194.951,176.767 196.937,176.568 206.798 L 176.399 215.129 174.758 215.156 C 172.169 215.200,170.976 218.998,172.594 222.043 C 173.596 223.931,190.958 224.501,193.159 222.719 C 196.154 220.294,194.101 214.364,190.538 215.147 C 188.122 215.677,187.926 214.908,187.595 203.584 C 187.299 193.498,187.251 193.188,185.588 190.677 C 182.542 186.079,175.284 184.361,169.743 186.926 M206.615 186.845 C 192.392 191.922,191.163 215.754,204.760 222.832 C 214.882 228.100,228.550 222.834,231.552 212.508 C 236.634 195.026,223.001 180.995,206.615 186.845 M292.818 186.615 C 278.080 191.881,276.187 214.951,289.885 222.364 C 298.855 227.218,314.002 223.486,315.488 216.056 C 316.636 210.315,310.323 208.440,305.333 213.040 C 300.083 217.879,292.852 215.885,292.657 209.545 L 292.587 207.262 303.885 206.959 C 316.893 206.611,316.219 206.917,316.083 201.410 C 315.795 189.697,304.426 182.467,292.818 186.615 M344.024 186.050 C 343.691 186.175,342.691 186.438,341.802 186.634 C 339.609 187.115,336.662 189.692,335.253 192.358 L 334.093 194.554 334.066 190.822 L 334.039 187.090 327.535 187.090 C 320.397 187.090,319.730 187.353,319.161 190.381 C 318.567 193.551,320.167 195.603,323.037 195.353 L 325.265 195.159 325.265 205.144 L 325.265 215.129 322.947 215.129 C 320.531 215.129,318.911 216.475,318.911 218.482 C 318.911 219.818,320.136 223.283,320.634 223.356 C 324.248 223.890,341.646 223.472,342.282 222.836 C 345.112 220.006,343.313 214.427,339.784 215.090 C 337.130 215.587,336.941 215.162,337.009 208.850 C 337.081 202.140,338.308 197.867,340.752 195.809 C 343.591 193.421,344.891 193.696,344.502 196.601 C 343.892 201.149,349.359 203.372,353.145 200.116 C 358.904 195.162,351.228 183.325,344.024 186.050 M92.472 188.035 C 89.974 191.046,91.935 195.595,95.613 195.318 L 97.731 195.159 98.033 203.029 C 98.469 214.356,98.301 215.129,95.413 215.129 C 91.588 215.129,89.999 219.760,92.847 222.607 C 94.231 223.991,113.449 224.052,115.145 222.679 C 118.204 220.202,116.127 214.344,112.475 215.147 C 110.110 215.666,110.047 215.322,110.110 202.125 C 110.189 185.534,111.104 187.103,101.346 187.090 C 94.713 187.082,93.123 187.251,92.472 188.035 M234.513 187.964 C 231.907 190.570,233.905 195.912,237.237 195.245 C 239.868 194.719,240.242 196.223,240.242 207.321 C 240.242 218.011,240.706 219.785,244.196 222.447 C 248.682 225.868,257.494 225.042,262.393 220.740 L 264.448 218.937 264.448 220.741 C 264.448 223.370,265.295 223.685,272.168 223.613 C 279.403 223.537,280.457 222.959,280.457 219.071 C 280.457 216.087,279.536 215.129,276.671 215.129 L 274.433 215.129 274.101 201.210 C 273.919 193.555,273.715 187.261,273.648 187.223 C 271.995 186.295,257.655 187.282,256.888 188.377 C 254.551 191.714,256.398 195.672,260.142 195.348 L 262.330 195.159 262.502 202.093 C 262.777 213.170,258.505 218.587,253.135 213.972 L 251.437 212.513 251.135 199.902 L 250.832 187.292 243.136 187.164 C 236.907 187.060,235.264 187.213,234.513 187.964 M74.763 195.131 C 77.873 198.241,76.957 199.092,70.499 199.092 C 65.337 199.092,64.750 198.980,64.750 197.987 C 64.750 194.300,71.893 192.262,74.763 195.131 M302.793 194.900 C 306.421 197.754,305.095 199.092,298.638 199.092 C 293.476 199.092,292.890 198.980,292.890 197.987 C 292.890 194.472,299.592 192.383,302.793 194.900 M218.277 196.182 C 222.596 200.239,221.371 212.997,216.439 215.338 C 210.890 217.971,206.424 212.305,207.122 203.517 C 207.747 195.636,213.600 191.788,218.277 196.182 " stroke="none" fill-rule="evenodd"></path></g></svg>