<svg id="svg" xmlns="http://www.w3.org/2000/svg"  width="400" height="400" viewBox="0, 0, 400,400"><g id="svgg"><path id="path0" d="M350.005 174.983 C 349.896 175.092,349.906 186.541,350.015 186.541 C 350.130 186.541,361.563 175.107,361.563 174.992 C 361.563 174.884,350.113 174.874,350.005 174.983 M360.405 185.381 L 349.927 195.857 349.927 202.512 L 349.927 209.168 366.970 192.125 C 376.344 182.751,384.014 175.041,384.014 174.993 C 384.014 174.944,381.060 174.904,377.449 174.904 L 370.884 174.904 360.405 185.381 M371.701 196.562 C 359.790 208.474,350.044 218.259,350.044 218.307 C 350.044 218.356,351.524 218.396,353.333 218.396 L 356.623 218.396 356.654 221.633 L 356.685 224.871 378.313 203.238 L 399.941 181.604 399.972 178.254 L 400.004 174.904 396.681 174.904 L 393.359 174.904 371.701 196.562 M12.695 184.487 C 9.713 185.099,7.721 186.735,6.705 189.408 C 6.566 189.773,5.917 192.741,5.582 194.537 C 4.943 197.974,6.537 199.937,11.378 201.672 C 15.575 203.176,15.898 203.561,15.236 206.289 C 14.729 208.381,15.101 208.285,7.463 208.286 L 1.468 208.287 1.137 209.727 C 0.955 210.519,0.651 211.819,0.462 212.616 C 0.273 213.412,0.118 214.113,0.118 214.173 C 0.118 214.374,13.948 214.311,14.950 214.105 C 18.665 213.344,20.303 211.295,21.387 206.053 C 22.187 202.184,21.975 200.873,20.283 199.207 C 19.268 198.208,18.899 198.035,13.988 196.264 C 11.915 195.516,11.583 194.846,12.104 192.459 C 12.414 191.040,12.411 191.046,13.002 190.700 L 13.516 190.399 18.091 190.380 C 20.607 190.370,22.698 190.330,22.737 190.291 C 22.806 190.222,23.140 188.880,23.802 186.012 C 23.981 185.237,24.152 184.536,24.183 184.455 C 24.266 184.237,13.772 184.266,12.695 184.487 M37.438 184.392 C 33.649 184.916,29.969 187.645,28.335 191.144 C 27.899 192.077,27.692 192.838,26.677 197.238 C 26.490 198.046,26.154 199.500,25.929 200.470 C 25.254 203.381,25.154 203.993,25.154 205.211 C 25.154 209.698,28.134 213.269,32.573 214.100 C 33.390 214.253,34.422 214.279,38.608 214.254 L 43.658 214.223 44.276 211.519 C 44.615 210.032,44.922 208.699,44.957 208.557 L 45.021 208.299 39.231 208.264 L 33.441 208.228 32.874 207.949 C 31.114 207.083,30.836 205.874,31.630 202.546 C 31.825 201.727,32.059 200.714,32.150 200.294 C 33.627 193.476,33.977 192.629,35.839 191.371 C 37.236 190.426,37.279 190.420,42.431 190.420 C 44.946 190.420,47.032 190.375,47.066 190.319 C 47.146 190.190,48.329 185.197,48.400 184.690 L 48.454 184.308 43.122 184.326 C 40.189 184.335,37.632 184.365,37.438 184.392 M54.030 184.514 C 53.961 184.770,53.487 186.804,53.009 188.892 C 52.809 189.765,52.466 191.246,52.246 192.183 C 52.027 193.121,51.685 194.602,51.487 195.475 C 51.289 196.347,50.996 197.617,50.836 198.296 C 50.522 199.628,49.678 203.298,49.120 205.760 C 48.930 206.600,48.697 207.605,48.604 207.993 C 48.510 208.381,48.167 209.862,47.841 211.284 C 47.515 212.706,47.219 213.963,47.184 214.076 C 47.123 214.268,47.318 214.282,50.173 214.282 L 53.226 214.282 53.308 213.782 C 53.353 213.507,53.571 212.515,53.793 211.578 C 54.015 210.641,54.330 209.292,54.493 208.581 C 55.142 205.750,55.509 204.168,55.829 202.821 C 56.013 202.045,56.200 201.186,56.244 200.912 C 56.288 200.637,56.369 200.384,56.425 200.350 C 56.524 200.289,66.412 200.206,66.412 200.266 C 66.412 200.283,66.335 200.601,66.241 200.972 C 66.147 201.342,65.912 202.333,65.719 203.174 C 64.685 207.682,64.168 209.918,63.598 212.346 C 63.400 213.188,63.238 213.968,63.238 214.079 C 63.238 214.265,63.478 214.282,66.213 214.282 L 69.187 214.282 69.454 213.135 C 69.602 212.505,69.879 211.302,70.071 210.461 C 70.263 209.621,70.576 208.259,70.767 207.435 C 71.319 205.049,71.778 203.060,72.169 201.352 C 72.370 200.479,72.690 199.091,72.881 198.266 C 73.073 197.442,73.388 196.080,73.582 195.239 C 73.776 194.399,74.090 193.037,74.281 192.213 C 74.471 191.388,74.784 190.026,74.978 189.186 C 75.171 188.346,75.491 186.969,75.690 186.126 C 75.888 185.284,76.051 184.530,76.051 184.451 C 76.051 184.342,75.336 184.308,73.063 184.308 L 70.076 184.308 69.782 185.572 C 69.621 186.267,69.187 188.158,68.817 189.774 C 68.447 191.390,68.006 193.294,67.837 194.005 L 67.528 195.298 62.562 195.329 C 58.313 195.355,57.596 195.335,57.596 195.191 C 57.596 195.098,57.757 194.344,57.953 193.515 C 58.343 191.864,58.811 189.858,59.366 187.452 C 59.564 186.596,59.802 185.567,59.895 185.165 C 59.988 184.764,60.065 184.407,60.065 184.372 C 60.065 184.173,54.084 184.313,54.030 184.514 M79.557 184.425 C 79.536 184.490,79.532 191.235,79.548 199.414 L 79.579 214.285 83.296 214.254 L 87.013 214.223 87.741 212.636 C 88.142 211.763,88.605 210.758,88.770 210.403 C 89.046 209.810,95.384 196.073,95.631 195.533 C 95.698 195.388,95.751 198.930,95.769 204.791 L 95.799 214.285 99.933 214.254 L 104.067 214.223 104.531 213.165 C 104.787 212.583,105.445 211.128,105.994 209.932 C 106.543 208.736,107.164 207.361,107.374 206.876 C 107.584 206.391,108.535 204.276,109.488 202.175 C 110.441 200.073,111.816 197.032,112.545 195.416 C 113.274 193.800,113.979 192.239,114.112 191.948 C 114.245 191.657,114.866 190.282,115.491 188.892 C 116.116 187.502,116.736 186.127,116.867 185.836 C 116.999 185.545,117.203 185.082,117.321 184.808 L 117.535 184.308 114.571 184.311 L 111.607 184.313 111.085 185.515 C 110.797 186.177,110.354 187.167,110.099 187.717 C 109.845 188.266,109.308 189.456,108.906 190.361 C 108.503 191.267,107.659 193.144,107.029 194.534 C 106.399 195.924,105.789 197.273,105.674 197.532 C 105.559 197.790,105.092 198.822,104.637 199.824 C 104.181 200.826,103.356 202.651,102.802 203.879 L 101.796 206.112 101.794 195.210 L 101.793 184.308 98.752 184.308 L 95.712 184.308 95.386 185.043 C 94.984 185.945,95.219 185.436,89.995 196.737 C 87.627 201.860,85.689 206.105,85.689 206.170 C 85.689 206.235,85.649 206.289,85.601 206.289 C 85.552 206.289,85.527 201.343,85.543 195.298 L 85.574 184.308 82.585 184.308 C 80.698 184.308,79.582 184.351,79.557 184.425 M125.466 184.683 C 125.359 184.890,125.165 185.247,125.034 185.477 C 124.904 185.707,124.230 186.926,123.537 188.187 C 122.845 189.448,122.013 190.955,121.689 191.537 C 121.365 192.119,120.961 192.846,120.791 193.153 C 120.621 193.460,120.343 193.963,120.172 194.270 C 120.002 194.577,119.322 195.807,118.661 197.003 C 117.217 199.616,113.250 206.769,112.924 207.346 C 112.797 207.573,112.548 208.022,112.371 208.346 C 111.657 209.653,109.510 213.542,109.306 213.900 L 109.088 214.282 112.111 214.279 L 115.134 214.276 116.309 212.142 C 116.956 210.968,117.738 209.554,118.047 209.000 C 118.356 208.446,118.724 207.768,118.864 207.493 L 119.118 206.994 123.845 206.994 L 128.572 206.994 128.635 207.435 C 128.670 207.677,128.729 209.013,128.766 210.403 C 128.803 211.793,128.863 213.234,128.900 213.606 L 128.968 214.282 131.954 214.282 C 134.719 214.282,134.940 214.266,134.940 214.076 C 134.941 213.963,134.809 210.379,134.648 206.112 C 134.121 192.144,134.000 188.862,133.931 186.718 C 133.893 185.554,133.842 184.536,133.817 184.455 C 133.782 184.341,132.858 184.308,129.716 184.308 L 125.660 184.308 125.466 184.683 M145.246 184.396 C 145.217 184.445,145.157 184.669,145.113 184.896 C 145.068 185.122,144.878 185.968,144.690 186.776 C 144.502 187.584,143.022 194.011,141.402 201.058 C 139.781 208.105,138.428 213.964,138.393 214.078 C 138.335 214.273,138.511 214.284,141.358 214.254 L 144.385 214.223 144.713 212.812 C 144.893 212.036,145.206 210.688,145.409 209.815 C 145.611 208.942,145.900 207.699,146.051 207.053 C 146.423 205.461,147.131 202.322,147.224 201.851 L 147.300 201.469 148.975 201.469 L 150.650 201.469 150.786 202.028 C 150.941 202.662,150.950 202.697,152.550 208.522 C 153.927 213.537,153.858 213.333,154.328 213.729 C 154.891 214.203,155.385 214.280,157.868 214.281 L 160.168 214.282 160.439 213.077 C 160.588 212.414,160.836 211.360,160.990 210.734 C 161.371 209.183,161.397 209.270,160.518 209.199 C 158.917 209.071,158.665 208.771,157.926 206.112 C 157.620 205.013,157.199 203.503,156.991 202.755 L 156.613 201.397 157.666 201.138 C 160.496 200.445,162.561 198.543,163.307 195.945 C 165.525 188.218,163.974 185.159,157.475 184.434 C 156.196 184.292,145.327 184.258,145.246 184.396 M171.440 185.278 C 171.324 185.811,171.077 186.866,170.892 187.622 C 170.707 188.378,170.555 189.053,170.555 189.122 C 170.555 189.211,172.144 189.239,175.894 189.217 C 179.440 189.197,181.201 189.225,181.139 189.304 C 180.323 190.337,172.954 199.720,172.563 200.224 C 172.267 200.605,171.390 201.723,170.614 202.706 C 169.838 203.690,168.463 205.437,167.558 206.588 C 166.653 207.739,165.641 209.022,165.310 209.440 C 164.674 210.242,164.732 210.073,164.078 212.987 C 163.954 213.536,163.824 214.079,163.788 214.192 C 163.725 214.389,164.239 214.399,173.869 214.399 L 184.015 214.399 184.530 212.136 C 184.814 210.892,185.070 209.808,185.100 209.728 C 185.143 209.613,183.824 209.575,178.914 209.551 L 172.673 209.521 173.759 208.157 C 174.357 207.406,175.163 206.381,175.551 205.879 C 175.939 205.377,176.473 204.695,176.737 204.364 C 177.166 203.827,179.833 200.437,182.657 196.840 C 183.209 196.136,184.191 194.893,184.837 194.077 C 185.484 193.262,186.866 191.508,187.910 190.180 L 189.807 187.764 190.172 186.167 C 190.373 185.288,190.538 184.510,190.538 184.439 C 190.538 184.344,187.943 184.308,181.095 184.308 L 171.652 184.308 171.440 185.278 M198.065 184.591 C 198.005 184.747,197.322 186.665,196.547 188.852 C 195.772 191.040,194.918 193.438,194.651 194.182 C 194.383 194.925,194.015 195.957,193.833 196.474 C 193.652 196.991,193.201 198.260,192.832 199.295 C 192.462 200.329,191.878 201.969,191.534 202.939 C 191.190 203.908,190.662 205.389,190.360 206.230 C 190.058 207.070,189.768 207.890,189.714 208.052 C 189.661 208.213,189.398 208.954,189.129 209.697 C 188.861 210.441,188.383 211.776,188.068 212.665 L 187.495 214.282 190.362 214.282 L 193.230 214.282 193.342 213.900 C 193.403 213.689,193.674 212.909,193.944 212.166 C 194.213 211.422,194.876 209.571,195.415 208.052 C 196.282 205.610,196.707 204.420,197.762 201.469 C 199.009 197.979,200.145 194.788,200.419 194.005 L 200.748 193.065 200.756 203.673 L 200.764 214.282 204.208 214.282 L 207.652 214.282 208.455 212.019 C 208.896 210.774,209.466 209.174,209.721 208.463 C 209.976 207.752,210.627 205.927,211.168 204.408 C 211.708 202.889,212.344 201.117,212.580 200.470 C 212.816 199.824,213.079 199.083,213.164 198.825 C 213.249 198.566,213.556 197.693,213.847 196.885 C 214.138 196.077,214.545 194.940,214.752 194.358 C 214.959 193.776,215.175 193.221,215.231 193.124 C 215.288 193.023,215.334 197.551,215.336 203.614 L 215.339 214.282 218.337 214.282 L 221.334 214.282 221.334 199.295 L 221.334 184.308 217.295 184.308 L 213.256 184.308 212.343 186.865 C 211.840 188.271,211.195 190.082,210.908 190.890 C 210.621 191.699,210.264 192.703,210.114 193.124 C 209.964 193.544,209.407 195.104,208.876 196.591 C 208.346 198.078,207.679 199.951,207.396 200.752 C 207.112 201.554,206.853 202.237,206.819 202.271 C 206.786 202.304,206.759 198.276,206.759 193.320 L 206.759 184.308 202.466 184.308 L 198.172 184.308 198.065 184.591 M230.236 187.167 C 229.873 188.740,229.560 190.102,229.540 190.194 C 229.499 190.382,235.274 190.515,235.458 190.331 C 235.553 190.236,236.850 184.779,236.850 184.474 C 236.850 184.335,236.359 184.308,233.873 184.308 L 230.896 184.308 230.236 187.167 M245.847 184.572 C 245.687 185.303,244.929 188.594,244.734 189.400 C 244.462 190.531,244.167 190.431,247.662 190.393 L 250.535 190.361 250.627 190.009 C 250.797 189.363,251.895 184.511,251.895 184.409 C 251.895 184.353,250.548 184.308,248.900 184.308 L 245.905 184.308 245.847 184.572 M257.379 185.101 C 257.278 185.538,257.037 186.582,256.844 187.423 C 256.650 188.263,256.302 189.771,256.070 190.773 C 255.838 191.775,255.518 193.163,255.359 193.858 C 255.199 194.553,254.938 195.691,254.778 196.386 C 254.618 197.081,254.299 198.469,254.070 199.471 C 253.619 201.442,253.080 203.759,252.702 205.348 C 252.571 205.898,252.365 206.797,252.245 207.346 C 252.125 207.896,251.732 209.613,251.373 211.161 C 251.014 212.710,250.720 214.046,250.720 214.129 C 250.720 214.401,267.258 214.348,267.339 214.076 C 267.456 213.685,268.351 209.716,268.351 209.589 C 268.351 209.500,266.767 209.462,263.054 209.462 C 258.064 209.462,257.760 209.450,257.819 209.257 C 257.853 209.143,258.124 207.993,258.421 206.700 C 259.080 203.828,259.191 203.346,259.644 201.411 C 259.840 200.570,260.188 199.063,260.418 198.061 C 260.647 197.058,260.990 195.577,261.180 194.769 C 261.369 193.961,261.686 192.586,261.884 191.713 C 262.082 190.840,262.374 189.571,262.533 188.892 C 263.171 186.175,263.532 184.565,263.532 184.440 C 263.532 184.346,262.674 184.308,260.547 184.308 L 257.563 184.308 257.379 185.101 M277.302 185.454 C 277.157 186.084,276.882 187.274,276.691 188.099 C 276.316 189.721,275.839 191.787,275.294 194.152 C 275.104 194.976,274.814 196.233,274.650 196.944 C 274.486 197.655,274.164 199.057,273.935 200.059 C 273.706 201.061,273.387 202.436,273.228 203.115 C 272.486 206.270,270.702 214.083,270.702 214.177 C 270.702 214.237,274.205 214.282,278.985 214.282 L 287.267 214.282 287.385 213.841 C 287.621 212.955,288.334 209.796,288.334 209.631 C 288.334 209.487,287.574 209.462,283.103 209.462 C 278.437 209.462,277.872 209.442,277.872 209.278 C 277.872 209.113,278.712 205.382,279.637 201.440 C 279.830 200.616,280.147 199.254,280.341 198.413 C 280.535 197.573,280.851 196.211,281.044 195.386 C 281.237 194.562,281.551 193.200,281.741 192.360 C 282.624 188.457,282.965 186.986,283.229 185.932 C 283.684 184.116,284.001 184.308,280.540 184.308 L 277.566 184.308 277.302 185.454 M298.054 184.396 C 298.027 184.445,297.921 184.855,297.819 185.307 C 297.716 185.760,297.448 186.923,297.222 187.893 C 296.506 190.969,296.230 192.165,295.499 195.357 C 295.106 197.070,294.606 199.239,294.388 200.176 C 293.930 202.143,293.546 203.810,293.034 206.053 C 292.834 206.926,292.515 208.315,292.325 209.139 C 292.134 209.963,291.815 211.339,291.617 212.195 C 291.419 213.052,291.233 213.872,291.204 214.017 L 291.150 214.282 300.305 214.282 L 309.459 214.282 309.705 213.135 C 309.840 212.505,310.078 211.449,310.235 210.789 C 310.392 210.129,310.491 209.561,310.456 209.526 C 310.421 209.491,307.678 209.462,304.359 209.462 C 299.858 209.462,298.325 209.428,298.325 209.326 C 298.325 209.251,298.506 208.418,298.728 207.475 C 298.949 206.531,299.351 204.808,299.621 203.644 C 299.890 202.480,300.172 201.489,300.247 201.442 C 300.321 201.394,302.775 201.355,305.701 201.354 C 308.626 201.353,311.020 201.317,311.020 201.276 C 311.020 201.234,311.226 200.321,311.479 199.248 C 311.731 198.175,311.974 197.125,312.017 196.914 L 312.096 196.532 306.680 196.532 C 303.701 196.532,301.264 196.504,301.264 196.470 C 301.264 196.436,301.395 195.867,301.556 195.207 C 301.717 194.546,302.089 192.950,302.382 191.661 C 302.676 190.372,302.934 189.299,302.955 189.277 C 302.977 189.255,305.590 189.226,308.761 189.212 C 311.932 189.198,314.559 189.154,314.599 189.114 C 314.700 189.012,315.721 184.727,315.721 184.402 C 315.721 184.283,298.121 184.277,298.054 184.396 M321.390 185.395 C 321.250 185.993,320.974 187.197,320.777 188.069 C 320.580 188.942,320.261 190.331,320.069 191.155 C 319.237 194.711,318.995 195.753,318.601 197.473 C 317.845 200.779,317.731 201.275,317.262 203.291 C 317.007 204.390,316.660 205.898,316.492 206.641 C 316.323 207.385,316.005 208.760,315.785 209.697 C 314.983 213.114,314.781 214.007,314.781 214.143 C 314.781 214.246,315.551 214.282,317.766 214.282 L 320.750 214.282 320.935 213.488 C 321.037 213.052,321.284 211.981,321.483 211.108 C 321.682 210.235,321.999 208.860,322.186 208.052 C 322.994 204.572,323.352 203.016,323.485 202.410 C 323.710 201.388,323.604 201.441,325.368 201.463 C 326.232 201.473,326.958 201.500,326.981 201.523 C 327.004 201.546,327.498 203.302,328.078 205.425 C 328.658 207.549,329.321 209.974,329.551 210.814 C 329.781 211.654,330.025 212.547,330.092 212.797 C 330.249 213.378,330.828 213.957,331.436 214.139 C 332.260 214.386,336.495 214.334,336.571 214.076 C 336.604 213.963,336.848 212.918,337.113 211.754 C 337.377 210.591,337.622 209.546,337.656 209.433 C 337.708 209.259,337.639 209.227,337.202 209.227 C 336.447 209.227,335.561 208.927,335.218 208.554 C 334.853 208.157,334.794 207.995,334.177 205.701 C 333.907 204.699,333.613 203.641,333.524 203.350 C 333.434 203.059,333.308 202.579,333.243 202.283 C 333.179 201.987,333.093 201.659,333.053 201.555 C 332.997 201.408,333.081 201.349,333.431 201.288 C 335.603 200.912,337.559 199.722,338.719 198.070 C 340.000 196.246,341.034 190.739,340.476 188.716 C 339.937 186.766,338.620 185.546,336.350 184.895 C 334.625 184.399,333.212 184.308,327.258 184.308 L 321.645 184.308 321.390 185.395 M156.356 189.258 C 157.916 189.585,158.375 190.626,157.906 192.771 C 157.063 196.630,157.322 196.460,152.203 196.509 L 148.484 196.545 148.634 195.863 C 149.031 194.054,150.091 189.489,150.163 189.274 C 150.229 189.081,155.449 189.068,156.356 189.258 M333.378 189.459 C 334.538 190.030,334.713 190.842,334.183 193.188 C 333.410 196.612,333.549 196.531,328.387 196.532 C 326.052 196.532,324.890 196.492,324.890 196.411 C 324.890 196.344,324.995 195.854,325.124 195.323 C 325.412 194.137,326.535 189.231,326.535 189.159 C 326.535 188.930,332.866 189.206,333.378 189.459 M382.867 207.855 C 373.542 217.186,365.912 224.856,365.912 224.899 C 365.912 224.942,368.888 224.978,372.524 224.978 L 379.137 224.978 389.568 214.546 L 400.000 204.114 400.000 197.502 C 400.000 193.866,399.960 190.890,399.911 190.890 C 399.862 190.890,392.193 198.525,382.867 207.855 M128.095 192.037 C 128.112 192.602,128.205 195.048,128.300 197.473 C 128.396 199.897,128.474 201.947,128.474 202.028 C 128.475 202.142,127.739 202.175,125.184 202.175 C 123.373 202.175,121.892 202.145,121.892 202.109 C 121.892 202.074,122.045 201.769,122.231 201.434 C 122.417 201.098,123.549 199.051,124.745 196.885 C 125.942 194.719,127.089 192.656,127.294 192.301 C 127.499 191.945,127.728 191.509,127.803 191.331 C 128.016 190.825,128.061 190.935,128.095 192.037 M228.395 194.270 C 228.272 194.728,227.170 199.439,226.683 201.587 C 226.529 202.266,226.236 203.535,226.032 204.408 C 225.161 208.136,225.569 210.299,227.512 212.253 C 229.246 213.997,230.318 214.277,235.285 214.279 C 240.719 214.283,242.464 213.668,244.859 210.905 C 246.187 209.373,246.416 208.759,247.652 203.409 C 247.986 201.962,248.192 201.067,249.081 197.179 C 249.288 196.274,249.551 195.150,249.665 194.681 L 249.873 193.829 246.784 193.829 L 243.695 193.829 243.621 194.093 C 243.557 194.321,243.080 196.381,242.252 200.000 C 240.600 207.232,240.830 206.463,240.101 207.173 C 239.102 208.145,238.856 208.222,236.615 208.266 C 232.212 208.354,231.602 207.715,232.508 203.961 C 232.706 203.140,232.968 202.019,233.090 201.469 C 233.212 200.920,233.659 198.996,234.082 197.194 C 234.505 195.392,234.852 193.898,234.852 193.873 C 234.852 193.849,233.425 193.829,231.682 193.829 L 228.513 193.829 228.395 194.270 M394.148 219.130 L 388.356 224.919 394.138 224.950 C 397.318 224.966,399.938 224.962,399.961 224.939 C 399.984 224.916,399.989 222.297,399.972 219.119 L 399.941 213.341 394.148 219.130 " stroke="none" fill-rule="evenodd"></path></g></svg>