<svg id="svg" xmlns="http://www.w3.org/2000/svg"  width="400" height="400" viewBox="0, 0, 400,400"><g id="svgg"><path id="path0" d="M333.772 110.994 C 323.277 114.157,321.531 118.725,321.531 143.024 L 321.531 162.679 327.751 162.679 L 333.971 162.679 333.971 154.545 L 333.971 146.411 336.842 146.411 L 339.713 146.411 339.713 140.670 L 339.713 134.928 336.842 134.928 C 334.123 134.928,333.971 134.723,333.971 131.038 C 333.971 126.043,335.391 123.445,338.120 123.445 C 342.315 123.445,342.584 124.694,342.584 144.211 L 342.584 162.679 349.282 162.679 L 355.981 162.679 355.908 143.780 C 355.862 131.861,355.420 123.756,354.712 121.835 C 351.605 113.412,342.091 108.486,333.772 110.994 M69.853 172.010 C 69.849 230.789,69.781 233.126,67.985 236.072 C 62.209 245.545,47.127 239.384,49.188 228.394 C 50.144 223.301,54.459 220.096,60.361 220.096 L 65.072 220.096 65.072 208.953 L 65.072 197.810 57.974 198.347 C 17.571 201.402,17.498 260.047,57.895 261.997 C 71.777 262.667,82.156 256.591,88.242 244.230 L 91.388 237.842 91.659 174.423 L 91.931 111.005 80.894 111.005 L 69.856 111.005 69.853 172.010 M96.627 172.488 C 96.613 211.202,96.239 235.566,95.617 238.278 C 87.855 272.157,41.943 277.866,26.441 246.879 C 14.409 222.830,30.613 195.050,57.582 193.489 L 65.072 193.056 65.072 182.033 L 65.072 171.011 56.220 171.549 C 5.748 174.617,-17.777 234.292,17.036 270.950 C 46.918 302.416,100.501 291.245,114.798 250.567 C 118.349 240.464,118.646 234.417,118.653 172.010 L 118.660 111.005 107.656 111.005 L 96.651 111.005 96.627 172.488 M127.273 136.842 L 127.273 162.679 133.493 162.679 L 139.713 162.679 139.713 143.062 L 139.713 123.445 143.604 123.445 C 159.208 123.445,163.139 145.293,148.256 149.301 L 144.498 150.313 144.498 156.496 C 144.498 163.494,144.426 163.450,152.070 161.180 C 167.213 156.683,174.690 138.391,167.034 124.571 C 161.388 114.377,154.234 111.005,138.258 111.005 L 127.273 111.005 127.273 136.842 M186.117 113.255 C 166.216 122.522,166.514 151.608,186.603 160.690 C 192.775 163.481,201.881 163.356,208.134 160.395 C 233.144 148.552,224.779 111.023,197.129 111.023 C 192.622 111.023,189.590 111.638,186.117 113.255 M240.841 112.481 C 219.808 120.197,218.531 150.434,238.819 160.360 C 260.287 170.863,283.792 147.994,273.963 126.166 C 268.505 114.043,253.492 107.840,240.841 112.481 M286.472 114.115 C 278.368 119.531,277.512 122.407,277.512 144.222 L 277.512 162.679 283.732 162.679 L 289.952 162.679 289.952 145.143 C 289.952 125.761,290.691 123.445,296.873 123.445 C 304.282 123.445,305.263 126.125,305.263 146.364 L 305.263 162.679 311.483 162.679 L 317.703 162.679 317.703 146.937 C 317.703 138.279,317.230 128.986,316.651 126.287 C 313.783 112.916,297.870 106.497,286.472 114.115 M370.813 112.595 C 361.021 117.757,359.809 121.215,359.809 143.981 L 359.809 162.679 365.550 162.679 L 371.292 162.679 371.292 146.146 C 371.292 126.711,372.399 123.498,379.108 123.460 C 386.576 123.417,387.560 126.082,387.560 146.364 L 387.560 162.679 393.301 162.679 L 399.043 162.679 399.043 143.972 C 399.043 124.086,398.674 122.138,393.907 116.893 C 388.807 111.280,377.351 109.148,370.813 112.595 M204.445 125.444 C 209.560 128.606,211.958 134.563,210.395 140.224 C 206.188 155.461,183.749 152.776,183.736 137.034 C 183.726 126.102,195.158 119.705,204.445 125.444 M258.807 126.405 C 268.679 135.072,263.134 150.239,250.093 150.239 C 241.397 150.239,235.214 142.793,236.816 134.252 C 238.677 124.334,251.313 119.825,258.807 126.405 M122.967 182.297 L 122.967 193.301 128.947 193.301 C 134.689 193.301,134.928 193.397,134.928 195.694 C 134.928 197.980,134.673 198.086,129.187 198.086 L 123.445 198.086 123.445 209.091 L 123.445 220.096 261.244 220.096 L 399.043 220.096 399.043 209.091 L 399.043 198.086 392.823 198.086 C 386.826 198.086,386.603 198.000,386.603 195.694 C 386.603 193.387,386.826 193.301,392.823 193.301 L 399.043 193.301 399.043 182.297 L 399.043 171.292 261.005 171.292 L 122.967 171.292 122.967 182.297 M155.867 180.965 C 158.943 182.037,162.308 186.796,161.227 188.545 C 160.260 190.109,155.024 189.664,155.024 188.018 C 155.024 185.762,151.140 184.394,148.059 185.565 C 143.568 187.273,144.902 189.228,152.000 191.342 C 166.710 195.723,165.337 210.665,150.239 210.500 C 145.364 210.447,136.430 202.656,138.866 200.582 C 141.038 198.734,144.170 199.367,145.655 201.954 C 148.235 206.449,155.981 205.624,155.981 200.853 C 155.981 199.704,154.227 198.626,150.066 197.221 C 143.247 194.919,139.713 192.032,139.713 188.765 C 139.713 181.970,147.695 178.116,155.867 180.965 M233.928 181.260 C 237.505 182.754,240.989 187.172,239.616 188.473 C 237.747 190.244,234.888 189.957,233.184 187.827 C 227.752 181.034,219.771 188.595,221.982 198.439 C 223.677 205.982,232.251 207.076,234.593 200.047 C 235.108 198.503,240.191 199.791,240.191 201.466 C 240.191 207.577,229.972 211.829,223.270 208.506 C 207.139 200.508,217.374 174.343,233.928 181.260 M185.211 183.210 C 191.781 189.780,185.895 199.043,175.150 199.043 L 171.292 199.043 171.292 204.306 C 171.292 209.516,171.263 209.569,168.421 209.569 L 165.550 209.569 165.550 195.215 L 165.550 180.861 174.206 180.861 C 182.121 180.861,183.063 181.062,185.211 183.210 M212.440 183.254 C 212.440 185.618,212.344 185.646,204.306 185.646 L 196.172 185.646 196.172 188.476 L 196.172 191.307 203.589 191.587 C 210.787 191.858,211.005 191.936,211.005 194.258 C 211.005 196.582,210.790 196.659,203.533 196.931 L 196.062 197.212 196.356 200.759 L 196.651 204.306 204.545 204.584 C 212.219 204.854,212.440 204.928,212.440 207.216 L 212.440 209.569 201.435 209.569 L 190.431 209.569 190.431 195.215 L 190.431 180.861 201.435 180.861 L 212.440 180.861 212.440 183.254 M249.761 195.276 L 249.761 209.691 246.651 209.391 L 243.541 209.091 243.276 194.976 L 243.011 180.861 246.386 180.861 L 249.761 180.861 249.761 195.276 M272.721 195.147 L 277.990 208.954 278.255 194.908 L 278.520 180.861 281.844 180.861 L 285.167 180.861 285.167 192.823 L 285.167 204.785 292.344 204.785 C 299.362 204.785,299.522 204.838,299.522 207.177 L 299.522 209.569 285.708 209.569 L 271.894 209.569 270.683 206.220 C 269.495 202.935,269.369 202.871,264.115 202.871 C 258.861 202.871,258.734 202.935,257.547 206.220 C 256.537 209.012,255.868 209.569,253.527 209.569 C 250.022 209.569,249.903 210.544,255.153 196.269 C 261.040 180.265,260.780 180.692,264.412 181.045 C 267.391 181.334,267.560 181.621,272.721 195.147 M306.220 195.215 L 306.220 209.569 303.349 209.569 L 300.478 209.569 300.478 195.215 L 300.478 180.861 303.349 180.861 L 306.220 180.861 306.220 195.215 M331.100 183.156 C 331.100 184.604,328.267 188.930,323.422 194.879 L 315.744 204.306 323.901 204.583 C 331.854 204.852,332.057 204.918,332.057 207.214 L 332.057 209.569 320.096 209.569 L 308.134 209.569 308.134 206.895 C 308.134 204.989,310.195 201.689,315.311 195.403 C 323.940 184.802,323.857 185.646,316.268 185.646 C 310.271 185.646,310.048 185.560,310.048 183.254 L 310.048 180.861 320.574 180.861 C 331.045 180.861,331.100 180.873,331.100 183.156 M355.024 183.254 C 355.024 185.606,354.896 185.646,347.368 185.646 L 339.713 185.646 339.713 188.517 L 339.713 191.388 346.890 191.388 L 354.067 191.388 354.067 194.258 L 354.067 197.129 346.890 197.129 L 339.713 197.129 339.713 200.957 L 339.713 204.785 347.847 204.785 C 355.912 204.785,355.981 204.805,355.981 207.207 L 355.981 209.630 344.737 209.361 L 333.493 209.091 333.228 194.976 L 332.963 180.861 343.994 180.861 L 355.024 180.861 355.024 183.254 M378.271 182.790 C 383.960 187.265,384.442 200.688,379.105 206.027 C 376.183 208.949,375.645 209.106,367.447 209.425 L 358.852 209.760 358.852 195.311 L 358.852 180.861 367.335 180.861 C 374.391 180.861,376.231 181.186,378.271 182.790 M171.292 189.474 L 171.292 193.301 175.407 193.301 C 181.405 193.301,184.357 188.986,179.967 186.637 C 175.180 184.074,171.292 185.346,171.292 189.474 M364.593 195.215 L 364.593 204.785 368.315 204.785 C 374.416 204.785,376.523 202.328,376.523 195.215 C 376.523 188.103,374.416 185.646,368.315 185.646 L 364.593 185.646 364.593 195.215 M262.054 193.385 L 260.472 198.086 264.115 198.086 L 267.758 198.086 266.140 193.824 C 263.943 188.037,263.857 188.028,262.054 193.385 M165.550 233.391 C 165.550 234.740,166.302 235.366,168.182 235.582 C 170.789 235.882,170.816 235.957,171.091 243.780 C 171.336 250.727,171.582 251.675,173.142 251.675 C 175.496 251.675,176.077 249.857,176.077 242.482 C 176.077 236.375,176.105 236.310,178.993 235.733 C 180.993 235.333,181.816 234.664,181.614 233.603 C 181.117 231.002,165.550 230.796,165.550 233.391 M183.732 241.627 C 183.732 250.959,183.865 251.675,185.603 251.675 C 186.984 251.675,187.638 250.796,188.103 248.315 C 189.029 243.381,190.336 243.251,194.172 247.711 C 198.244 252.444,205.096 253.503,207.433 249.761 C 208.257 248.442,209.665 247.847,211.962 247.847 C 214.258 247.847,215.666 248.442,216.490 249.761 C 218.446 252.893,222.069 252.329,221.098 249.043 C 215.160 228.946,211.056 226.703,205.781 240.670 C 203.210 247.475,201.186 250.761,200.588 249.095 C 200.248 248.145,199.376 246.354,198.650 245.115 C 197.483 243.122,197.541 242.651,199.144 241.048 C 203.800 236.392,199.336 231.579,190.361 231.579 L 183.732 231.579 183.732 241.627 M223.433 234.689 C 222.087 241.945,223.275 251.172,225.598 251.502 C 227.443 251.764,227.766 251.354,227.858 248.631 C 227.916 246.884,228.063 243.732,228.183 241.627 C 228.562 235.018,227.737 231.579,225.774 231.579 C 224.540 231.579,223.837 232.514,223.433 234.689 M232.250 232.184 C 231.881 232.553,231.579 237.089,231.579 242.265 L 231.579 251.675 238.654 251.675 C 243.840 251.675,245.866 251.317,246.243 250.333 C 247.020 248.308,246.053 247.847,241.028 247.847 L 236.441 247.847 236.163 239.963 C 235.893 232.311,234.631 229.803,232.250 232.184 M248.704 232.775 C 248.623 233.759,248.680 248.366,248.776 250.997 C 248.832 252.541,263.636 251.309,263.636 249.761 C 263.636 248.717,262.201 248.195,258.373 247.847 C 251.686 247.239,250.945 244.787,257.196 243.952 C 264.624 242.961,265.213 239.234,257.941 239.234 C 255.265 239.234,253.611 238.758,253.278 237.893 C 252.500 235.865,253.469 235.407,258.533 235.407 C 262.520 235.407,263.158 235.143,263.158 233.493 C 263.158 231.174,248.896 230.466,248.704 232.775 M267.191 241.388 C 267.444 250.467,267.606 251.196,269.378 251.196 C 270.899 251.196,271.353 250.459,271.589 247.608 C 271.967 243.034,273.180 243.086,277.255 247.847 C 282.502 253.977,286.029 252.953,282.174 246.419 L 280.138 242.968 282.174 240.800 C 286.778 235.899,282.752 231.579,273.581 231.579 L 266.919 231.579 267.191 241.388 M295.375 232.217 C 295.024 232.568,294.737 237.089,294.737 242.265 L 294.737 251.675 301.914 251.675 C 308.453 251.675,309.091 251.505,309.091 249.761 C 309.091 248.134,308.453 247.847,304.841 247.847 C 299.736 247.847,299.692 247.789,299.415 240.614 C 299.088 232.159,297.901 229.691,295.375 232.217 M312.153 232.727 C 310.841 234.039,310.572 248.553,311.823 250.526 C 313.016 252.408,325.837 251.708,325.837 249.761 C 325.837 248.777,324.637 248.228,322.022 248.015 C 316.391 247.557,315.789 246.651,315.789 238.639 C 315.789 231.466,314.885 229.995,312.153 232.727 M328.793 234.523 C 321.937 242.672,329.580 255.292,338.990 251.360 C 342.316 249.970,344.265 246.923,343.067 244.985 C 342.086 243.397,339.850 243.888,338.756 245.933 C 336.182 250.742,330.085 245.637,331.696 240.022 C 333.104 235.112,335.525 234.380,339.926 237.532 C 342.665 239.494,344.238 237.092,342.225 234.020 C 339.715 230.189,332.204 230.470,328.793 234.523 M195.015 237.439 C 195.177 238.294,194.582 239.273,193.692 239.614 C 191.200 240.571,188.517 239.317,188.517 237.195 C 188.517 234.730,194.545 234.956,195.015 237.439 M278.139 236.883 C 278.797 238.599,278.643 238.801,276.077 239.572 C 273.558 240.330,271.339 238.868,272.079 236.939 C 272.832 234.976,277.391 234.935,278.139 236.883 M212.046 242.818 C 211.001 243.863,210.284 242.201,211.035 240.472 C 211.746 238.832,211.798 238.834,212.194 240.506 C 212.423 241.468,212.356 242.508,212.046 242.818 " stroke="none" fill="#CF2221" fill-rule="evenodd"></path></g></svg>