<?xml version="1.0" encoding="UTF-8" standalone="no"?>
<svg
   xmlns="http://www.w3.org/2000/svg"
   version="1.1"
   viewBox="0, 0, 400,400"
   height="400"
   width="400"
   id="svg">
  <g
     id="svgg">
    <path
       style="fill-rule:evenodd;stroke:none;stroke-width:2.18016624"
       d="m 222.39586,138.92129 c -0.009,128.14798 -0.15697,133.24303 -4.07255,139.6658 -12.59264,20.65272 -45.4739,7.22071 -40.98058,-16.73931 2.08424,-11.10359 11.49166,-18.09102 24.359,-18.09102 h 10.27076 v -24.29359 -24.29359 l -15.47482,1.17074 c -88.08525,6.66041 -88.2444,134.51626 -0.17223,138.76758 30.26506,1.46071 52.89301,-11.78598 66.1615,-38.73501 l 6.8588,-13.9269 0.59083,-138.26396 0.593,-138.2617758 H 246.46708 222.4024 l -0.007,133.0010358 m 58.37177,1.04212 c -0.0305,84.40295 -0.8459,137.52052 -2.20197,143.43313 -16.92245,73.86185 -117.01823,86.30842 -150.81517,18.75161 -26.23176,-52.43082 9.09565,-112.99583 67.89255,-116.39907 l 16.32945,-0.94401 V 160.77309 136.7433 l -19.29883,1.17293 c -110.037347,6.68875 -161.325755,136.79017 -85.42763,216.7107 65.14772,68.6011 181.96757,44.24647 213.1374,-44.43833 7.74177,-22.02622 8.38928,-35.20968 8.40454,-171.26731 l 0.0153,-133.0010358 h -23.99055 -23.99272 l -0.0523,134.0431558"
       id="path0" />
  </g>
</svg>
