<?xml version="1.0" encoding="UTF-8" standalone="no"?>
<svg
   
   
   
   
   xmlns="http://www.w3.org/2000/svg"
   viewBox="0, 0, 400,400"
   height="400"
   width="400"
   version="1.1"
   id="svg">
  <metadata
     id="metadata11">
    
  </metadata>
  <defs
     id="defs9" />
  <g
     id="svgg">
    <path
       fill-rule="evenodd"
       fill="#264573"
       stroke="none"
       d="M20.028 161.300 C 19.832 161.795,18.739 164.810,17.599 168.000 C 16.458 171.190,15.282 174.430,14.985 175.200 C 14.688 175.970,13.613 178.940,12.596 181.800 C 11.579 184.660,10.498 187.630,10.194 188.400 C 9.514 190.124,6.425 198.630,5.982 200.000 C 5.804 200.550,5.195 202.241,4.629 203.759 C 4.063 205.276,3.600 206.581,3.600 206.659 C 3.600 206.736,13.748 206.800,26.151 206.800 C 50.237 206.800,49.195 206.888,49.785 204.800 C 50.091 203.716,52.476 197.087,52.640 196.863 C 52.695 196.788,53.779 197.028,55.048 197.397 C 56.730 197.886,58.663 198.047,62.178 197.992 C 64.830 197.951,70.451 197.936,74.668 197.959 L 82.336 198.000 82.616 199.300 C 83.947 205.479,89.478 207.607,102.800 207.063 C 114.415 206.590,120.165 203.613,123.951 196.113 L 124.803 194.426 126.272 195.423 C 127.080 195.972,128.205 196.531,128.771 196.665 C 131.544 197.326,131.982 195.224,125.233 213.638 C 123.895 217.289,122.800 220.412,122.800 220.578 C 122.800 220.743,122.551 221.446,122.247 222.140 C 121.739 223.300,119.332 229.835,117.176 235.910 C 116.687 237.290,116.359 238.492,116.448 238.582 C 116.538 238.671,123.808 238.873,132.605 239.030 C 154.148 239.416,158.104 238.920,163.721 235.131 L 166.043 233.564 166.808 234.482 C 167.229 234.987,167.579 235.506,167.587 235.636 C 167.623 236.286,171.865 238.064,174.648 238.597 C 182.983 240.192,193.972 238.839,199.086 235.588 C 199.891 235.077,200.077 235.121,201.086 236.063 C 204.274 239.037,205.631 239.224,221.892 238.927 L 235.983 238.671 236.649 236.926 C 237.433 234.874,237.722 234.971,237.767 237.301 L 237.800 239.000 249.234 239.106 L 260.668 239.212 263.787 234.606 C 267.247 229.498,267.395 229.380,267.731 231.455 C 268.860 238.408,282.897 241.424,297.261 237.800 C 298.132 237.581,298.311 237.665,298.261 238.266 C 298.203 238.959,298.733 239.000,307.757 239.000 L 317.313 239.000 319.014 234.400 C 319.950 231.870,321.209 228.405,321.811 226.700 L 322.907 223.600 331.205 223.600 C 340.731 223.600,339.770 224.026,341.583 219.000 C 344.036 212.197,343.356 207.815,339.452 205.274 L 337.800 204.200 324.244 204.200 C 309.390 204.200,310.585 203.997,309.590 206.687 L 309.113 207.975 307.780 206.958 C 304.438 204.408,295.251 203.215,287.400 204.310 C 285.817 204.530,284.542 204.548,284.467 204.350 C 284.393 204.158,279.713 204.001,274.067 204.003 L 263.800 204.005 262.940 205.303 C 262.466 206.016,261.253 207.905,260.242 209.500 C 257.934 213.144,257.713 213.124,258.061 209.300 C 258.216 207.595,258.356 205.705,258.372 205.100 L 258.400 204.000 249.020 204.000 C 240.598 204.000,239.601 204.070,239.258 204.682 C 238.932 205.265,238.721 205.292,237.803 204.874 C 234.745 203.481,218.889 203.521,214.961 204.933 C 212.355 205.869,210.277 207.039,209.230 208.161 C 207.979 209.502,207.887 209.487,206.046 207.646 C 202.410 204.010,188.571 202.665,180.800 205.194 C 176.870 206.472,177.020 206.517,177.148 204.094 C 177.278 201.647,176.359 198.536,175.110 197.195 L 174.241 196.263 175.361 193.031 C 175.977 191.254,177.120 188.045,177.902 185.900 L 179.323 182.000 188.171 182.000 L 197.019 182.000 198.172 178.900 C 201.202 170.753,201.015 166.930,197.452 164.213 C 194.811 162.198,193.742 162.085,179.511 162.309 L 166.422 162.514 165.757 164.257 C 165.008 166.218,164.812 166.318,163.833 165.237 C 160.651 161.721,146.652 160.990,136.900 163.831 C 136.168 164.044,136.000 163.936,136.000 163.247 C 136.000 162.335,117.513 161.873,116.580 162.762 C 116.352 162.979,115.158 162.902,113.600 162.570 C 107.508 161.273,99.452 162.832,95.102 166.149 L 93.794 167.147 92.510 165.798 C 89.301 162.426,73.911 160.594,65.838 162.625 C 64.708 162.909,64.683 162.883,64.928 161.658 L 65.180 160.400 42.781 160.400 L 20.383 160.400 20.028 161.300 M59.432 165.688 C 59.284 166.616,59.036 167.471,58.881 167.588 C 58.727 167.705,58.227 168.880,57.771 170.200 L 56.941 172.600 45.658 172.706 L 34.375 172.813 33.979 173.906 C 33.762 174.508,33.422 175.360,33.225 175.800 C 33.027 176.240,32.680 177.185,32.454 177.900 L 32.042 179.200 42.354 179.200 C 53.001 179.200,53.376 179.241,52.823 180.343 C 52.517 180.955,51.178 184.509,50.655 186.100 C 50.444 186.743,49.569 186.800,39.890 186.800 L 29.354 186.800 28.683 188.321 C 28.313 189.158,27.896 190.422,27.754 191.130 C 27.612 191.838,27.340 192.514,27.148 192.632 C 25.859 193.429,27.815 193.600,38.200 193.600 C 49.218 193.600,49.600 193.626,49.600 194.376 C 49.600 194.803,49.434 195.255,49.231 195.381 C 49.028 195.506,48.736 196.192,48.583 196.905 C 48.429 197.617,47.856 199.325,47.309 200.700 L 46.315 203.200 27.781 203.200 C 9.976 203.200,7.535 203.050,9.099 202.055 C 9.319 201.915,9.629 201.203,9.787 200.473 C 9.946 199.743,10.327 198.663,10.635 198.073 C 10.943 197.483,11.196 196.696,11.198 196.324 C 11.199 195.952,11.360 195.549,11.555 195.428 C 11.750 195.307,12.024 194.595,12.165 193.845 C 12.394 192.624,13.044 190.952,13.975 189.187 C 14.153 188.850,14.428 187.983,14.587 187.260 C 14.746 186.537,15.127 185.463,15.435 184.873 C 15.743 184.283,15.996 183.496,15.998 183.124 C 15.999 182.752,16.164 182.346,16.365 182.222 C 16.566 182.097,16.852 181.277,17.000 180.398 C 17.149 179.519,17.414 178.800,17.591 178.800 C 17.767 178.800,18.028 178.178,18.170 177.417 C 18.313 176.656,18.692 175.531,19.012 174.917 C 19.333 174.303,19.596 173.590,19.598 173.334 C 19.600 172.940,20.582 170.135,22.482 165.100 L 22.897 164.000 41.300 164.000 L 59.702 164.000 59.432 165.688 M84.200 166.000 C 84.336 166.220,84.896 166.400,85.446 166.400 C 90.936 166.400,92.339 171.111,89.197 179.000 C 89.022 179.440,88.471 180.970,87.974 182.400 C 87.477 183.830,86.940 185.180,86.781 185.400 C 86.622 185.620,86.365 186.397,86.208 187.127 C 86.052 187.857,85.673 188.937,85.365 189.527 C 85.057 190.117,84.804 190.797,84.802 191.039 C 84.801 191.280,84.514 192.050,84.165 192.750 L 83.530 194.022 78.065 193.911 C 72.175 193.791,72.320 193.857,72.966 191.600 C 73.124 191.050,73.106 190.802,72.926 191.050 C 72.470 191.679,69.541 193.200,68.786 193.200 C 68.442 193.200,67.938 193.422,67.667 193.693 C 66.851 194.509,56.565 194.375,54.794 193.526 C 47.849 190.196,52.058 180.239,61.684 177.224 C 65.263 176.104,74.212 176.786,76.075 178.322 C 76.979 179.068,77.515 178.658,77.830 176.982 C 77.973 176.217,78.250 175.493,78.445 175.372 C 78.640 175.251,78.799 174.578,78.797 173.876 C 78.789 170.796,71.839 170.745,69.831 173.809 C 69.048 175.003,58.206 175.401,57.765 174.252 C 56.880 171.947,62.248 167.094,66.311 166.527 C 67.252 166.396,68.118 166.133,68.235 165.944 C 68.540 165.451,83.894 165.504,84.200 166.000 M112.168 165.947 C 112.286 166.139,113.092 166.408,113.960 166.547 C 114.828 166.686,116.100 167.272,116.786 167.850 C 117.472 168.427,118.085 168.832,118.148 168.750 C 118.211 168.667,118.496 168.013,118.782 167.295 C 119.366 165.828,120.874 165.204,122.055 165.941 C 122.480 166.207,124.477 166.400,126.795 166.400 C 128.998 166.400,130.800 166.558,130.800 166.751 C 130.800 167.154,129.746 169.899,129.241 170.813 C 129.054 171.150,128.766 172.044,128.600 172.800 C 128.434 173.556,128.156 174.450,127.981 174.787 C 127.807 175.124,127.269 176.570,126.787 178.000 C 126.304 179.430,125.659 181.167,125.354 181.860 C 125.050 182.554,124.800 183.298,124.800 183.515 C 124.800 183.731,124.531 184.424,124.202 185.054 C 123.874 185.684,123.604 186.504,123.602 186.876 C 123.601 187.248,123.420 187.664,123.200 187.800 C 122.980 187.936,122.799 188.352,122.798 188.724 C 122.796 189.096,122.526 189.916,122.198 190.546 C 121.869 191.176,121.594 191.896,121.586 192.146 C 121.498 195.104,115.959 201.118,112.677 201.819 C 111.975 201.970,111.148 202.297,110.839 202.546 C 110.455 202.857,107.231 203.000,100.639 203.000 C 88.015 203.000,86.400 202.390,86.400 197.626 L 86.400 195.600 92.056 195.600 C 96.981 195.600,97.778 195.690,98.224 196.300 C 98.850 197.156,105.629 197.312,105.908 196.476 C 105.995 196.214,106.313 196.000,106.613 196.000 C 107.354 196.000,109.071 193.678,109.424 192.200 C 109.581 191.540,109.910 190.746,110.155 190.435 C 110.657 189.798,110.592 189.817,107.796 191.154 C 106.698 191.679,105.374 192.306,104.854 192.547 C 101.059 194.303,92.060 192.514,90.100 189.614 C 85.956 183.481,95.226 167.420,103.445 166.494 C 104.421 166.384,105.315 166.138,105.433 165.947 C 105.713 165.494,111.888 165.494,112.168 165.947 M155.365 165.943 C 155.481 166.131,156.572 166.388,157.788 166.514 C 161.588 166.906,163.600 169.216,163.600 173.186 C 163.600 174.488,163.440 175.651,163.245 175.772 C 163.050 175.893,162.768 176.645,162.618 177.445 C 162.468 178.244,162.150 179.281,161.910 179.749 C 161.671 180.217,161.349 180.870,161.194 181.200 C 160.956 181.709,159.202 181.816,149.680 181.906 L 138.447 182.012 138.170 183.864 C 137.566 187.887,145.965 188.688,148.303 184.831 C 148.977 183.719,159.445 183.530,159.864 184.622 C 160.741 186.907,155.780 191.716,150.800 193.408 C 148.048 194.343,132.420 194.580,131.540 193.700 C 131.265 193.425,130.632 193.200,130.134 193.200 C 129.101 193.200,126.400 191.000,126.400 190.159 C 126.400 189.851,126.202 189.600,125.960 189.600 C 125.264 189.600,126.402 182.272,127.231 181.420 C 127.434 181.211,127.600 180.788,127.600 180.480 C 127.600 179.932,128.049 178.801,129.697 175.200 C 131.947 170.284,136.471 166.972,141.567 166.510 C 142.917 166.387,144.118 166.132,144.235 165.943 C 144.512 165.495,155.088 165.495,155.365 165.943 M193.918 166.406 C 196.474 167.641,197.923 173.012,196.017 174.189 C 195.838 174.300,195.567 175.049,195.416 175.853 C 194.964 178.265,194.625 178.400,189.029 178.400 L 184.000 178.400 184.000 177.224 C 184.000 176.577,184.180 175.936,184.400 175.800 C 185.259 175.269,184.817 173.704,183.674 173.231 C 181.188 172.201,178.056 174.585,176.619 178.600 C 176.225 179.700,175.654 181.167,175.351 181.860 C 175.048 182.554,174.800 183.313,174.800 183.547 C 174.800 183.932,173.969 186.048,173.202 187.613 C 173.037 187.950,172.776 188.798,172.623 189.496 C 172.469 190.194,171.992 191.493,171.563 192.383 L 170.781 194.000 164.946 194.000 L 159.111 194.000 159.389 192.500 C 159.542 191.675,159.832 190.940,160.033 190.867 C 160.235 190.793,160.401 190.433,160.402 190.067 C 160.404 189.700,160.657 188.917,160.965 188.327 C 161.273 187.737,161.649 186.690,161.800 186.000 C 161.951 185.310,162.327 184.263,162.635 183.673 C 162.943 183.083,163.196 182.296,163.198 181.924 C 163.199 181.552,163.380 181.136,163.600 181.000 C 163.820 180.864,164.001 180.448,164.002 180.076 C 164.004 179.704,164.274 178.884,164.602 178.254 C 164.931 177.624,165.201 176.904,165.202 176.654 C 165.204 176.404,165.457 175.717,165.765 175.127 C 166.073 174.537,166.449 173.490,166.600 172.800 C 166.751 172.110,167.127 171.063,167.435 170.473 C 167.743 169.883,167.996 169.085,167.998 168.700 C 167.999 168.315,168.180 168.000,168.400 168.000 C 168.620 168.000,168.800 167.640,168.800 167.200 C 168.800 166.436,169.067 166.400,174.800 166.400 C 179.710 166.400,180.800 166.503,180.800 166.967 C 180.800 167.278,180.575 167.614,180.300 167.712 C 180.025 167.810,179.940 168.040,180.111 168.223 C 180.282 168.406,181.380 168.071,182.551 167.478 C 183.722 166.885,185.056 166.400,185.516 166.400 C 185.976 166.400,186.464 166.220,186.600 166.000 C 187.061 165.255,192.115 165.535,193.918 166.406 M106.912 173.519 C 105.503 174.192,103.446 177.682,102.973 180.203 C 102.828 180.976,102.550 181.707,102.355 181.828 C 101.297 182.481,102.006 184.792,103.449 185.395 C 105.088 186.079,108.226 186.204,108.600 185.600 C 108.736 185.380,109.304 185.200,109.863 185.200 C 111.314 185.200,112.933 183.278,113.977 180.317 C 114.465 178.932,115.030 177.487,115.232 177.105 C 115.838 175.961,115.659 173.933,114.900 173.357 C 113.926 172.617,108.573 172.726,106.912 173.519 M143.400 173.339 C 139.248 175.731,139.903 176.400,146.400 176.400 L 152.000 176.400 152.000 175.144 C 152.000 174.417,151.705 173.664,151.300 173.357 C 150.426 172.693,144.544 172.680,143.400 173.339 M111.309 176.643 C 111.625 176.958,109.716 181.279,109.084 181.680 C 107.866 182.454,106.302 182.044,106.560 181.018 C 107.447 177.481,109.894 175.228,111.309 176.643 M68.600 182.800 C 68.464 183.020,67.815 183.200,67.158 183.200 C 64.739 183.200,62.788 186.782,64.900 187.348 C 66.857 187.872,72.056 187.612,73.207 186.932 C 75.414 185.629,75.823 183.200,73.836 183.200 C 73.292 183.200,72.736 183.020,72.600 182.800 C 72.464 182.580,71.564 182.400,70.600 182.400 C 69.636 182.400,68.736 182.580,68.600 182.800 M170.477 197.926 C 172.697 199.317,174.597 204.136,173.254 204.967 C 173.064 205.084,172.807 205.803,172.683 206.563 C 172.196 209.568,168.115 214.354,165.476 215.017 C 164.164 215.346,164.106 215.815,165.300 216.451 C 172.718 220.403,164.363 234.011,154.091 234.709 C 152.491 234.817,151.085 235.062,150.967 235.253 C 150.661 235.748,136.107 235.697,135.800 235.200 C 135.650 234.958,132.796 234.800,128.576 234.800 C 121.039 234.800,121.077 234.813,122.202 232.654 C 122.531 232.024,122.800 231.331,122.800 231.115 C 122.800 230.898,123.050 230.154,123.354 229.460 C 123.659 228.767,124.304 227.030,124.787 225.600 C 125.269 224.170,125.807 222.724,125.981 222.387 C 126.156 222.050,126.425 221.197,126.580 220.491 C 126.735 219.786,127.028 219.106,127.231 218.981 C 127.434 218.855,127.601 218.448,127.602 218.076 C 127.604 217.704,127.857 216.917,128.165 216.327 C 128.473 215.737,128.849 214.690,129.000 214.000 C 129.151 213.310,129.527 212.263,129.835 211.673 C 130.143 211.083,130.396 210.285,130.398 209.900 C 130.399 209.515,130.560 209.200,130.755 209.200 C 130.951 209.200,131.228 208.578,131.370 207.817 C 131.513 207.056,131.892 205.931,132.212 205.317 C 132.533 204.703,132.796 203.973,132.798 203.695 C 132.799 203.417,132.966 202.877,133.168 202.495 C 133.370 202.113,133.935 200.666,134.424 199.280 L 135.312 196.760 152.156 196.880 C 168.972 197.000,169.002 197.002,170.477 197.926 M145.600 206.600 C 145.600 207.150,145.436 207.600,145.235 207.600 C 145.034 207.600,144.749 208.319,144.600 209.198 C 144.452 210.077,144.166 210.897,143.965 211.022 C 142.812 211.734,144.102 212.000,148.700 211.998 C 156.168 211.995,158.400 211.104,158.400 208.129 C 158.400 205.844,157.788 205.627,151.300 205.613 L 145.600 205.600 145.600 206.600 M196.400 207.767 C 201.823 208.466,203.121 209.136,204.524 211.961 C 205.247 213.417,205.421 215.416,204.856 215.765 C 204.667 215.882,204.401 216.789,204.265 217.780 C 204.129 218.772,203.853 219.901,203.652 220.291 C 203.451 220.681,203.091 221.495,202.852 222.100 L 202.417 223.200 191.799 223.200 L 181.180 223.200 180.938 224.408 C 180.805 225.073,180.540 225.714,180.348 225.832 C 179.813 226.162,179.926 226.570,180.816 227.525 C 182.205 229.016,187.474 228.812,189.200 227.200 L 190.485 226.000 196.042 226.000 C 202.138 226.000,202.140 226.001,200.737 228.353 C 198.581 231.969,195.460 234.057,191.000 234.868 C 187.705 235.468,177.625 235.738,176.615 235.254 C 176.167 235.039,174.940 234.762,173.890 234.638 C 172.839 234.514,171.759 234.230,171.490 234.006 C 171.220 233.783,170.550 233.254,170.000 232.833 C 168.909 231.995,168.576 226.674,169.491 224.678 C 169.712 224.195,170.292 222.720,170.779 221.400 C 174.757 210.625,178.434 208.129,191.600 207.265 C 191.930 207.244,194.090 207.470,196.400 207.767 M234.800 207.874 C 239.129 208.762,240.400 210.155,240.400 214.009 C 240.400 215.298,240.220 216.464,240.000 216.600 C 239.780 216.736,239.599 217.242,239.598 217.724 C 239.596 218.206,239.343 219.083,239.035 219.673 C 238.727 220.263,238.346 221.337,238.187 222.060 C 238.028 222.783,237.753 223.650,237.575 223.987 C 236.705 225.636,236.039 227.315,235.786 228.496 C 235.633 229.213,235.369 229.980,235.200 230.200 C 235.031 230.420,234.767 231.185,234.614 231.900 C 234.462 232.615,234.193 233.200,234.018 233.200 C 233.843 233.200,233.591 233.745,233.458 234.412 L 233.215 235.623 227.908 235.512 L 222.600 235.400 222.734 234.041 L 222.867 232.681 221.413 233.539 C 220.614 234.011,219.244 234.511,218.371 234.651 C 217.497 234.791,216.686 235.061,216.568 235.253 C 216.287 235.707,207.713 235.706,207.432 235.252 C 207.314 235.060,206.679 234.796,206.021 234.664 C 203.728 234.206,202.997 232.974,203.026 229.625 C 203.043 227.709,203.222 226.593,203.526 226.491 C 203.787 226.404,204.000 226.014,204.000 225.624 C 204.000 224.675,206.685 221.200,207.418 221.200 C 207.738 221.200,208.000 221.053,208.000 220.874 C 208.000 219.341,219.456 217.227,221.763 218.334 C 222.223 218.555,223.277 218.830,224.104 218.944 C 224.931 219.058,225.891 219.434,226.236 219.779 C 226.963 220.506,227.600 220.262,227.600 219.256 C 227.600 218.873,227.778 218.382,227.996 218.164 C 228.214 217.946,228.507 216.932,228.647 215.911 L 228.901 214.055 227.432 213.780 C 223.926 213.122,220.000 214.295,220.000 216.000 C 220.000 216.248,217.867 216.400,214.400 216.400 C 210.086 216.400,208.800 216.281,208.800 215.883 C 208.800 214.725,211.074 211.009,212.200 210.326 C 214.618 208.859,216.629 208.017,217.800 207.981 C 218.460 207.960,219.360 207.783,219.800 207.586 C 220.785 207.146,232.328 207.368,234.800 207.874 M298.800 207.758 C 303.148 208.287,305.351 209.142,306.166 210.615 C 306.405 211.047,306.764 211.519,306.965 211.664 C 307.457 212.020,307.386 216.684,306.872 217.749 C 306.646 218.217,306.154 219.632,305.778 220.894 L 305.094 223.187 294.247 223.294 L 283.400 223.400 283.036 225.282 C 282.502 228.048,282.947 228.400,286.977 228.400 C 290.055 228.400,290.338 228.326,291.600 227.200 L 292.944 226.000 298.472 226.000 C 301.512 226.000,304.000 226.080,304.000 226.179 C 304.000 226.580,301.929 230.217,301.288 230.940 C 299.565 232.886,296.329 234.498,293.729 234.707 C 292.326 234.819,291.083 235.066,290.966 235.256 C 290.663 235.746,279.305 235.693,279.000 235.200 C 278.864 234.980,278.124 234.800,277.354 234.800 C 275.497 234.800,272.569 233.430,271.748 232.176 C 271.026 231.075,271.145 225.256,271.908 224.285 C 272.118 224.018,272.419 223.260,272.577 222.600 C 273.600 218.335,278.612 210.400,280.283 210.400 C 280.567 210.400,280.800 210.262,280.800 210.094 C 280.800 209.456,285.160 208.262,289.200 207.794 C 294.617 207.166,293.951 207.169,298.800 207.758 M335.701 207.735 C 339.440 209.037,340.225 211.975,338.242 217.251 L 337.285 219.800 332.242 219.912 C 326.652 220.036,326.768 220.100,327.564 217.325 C 328.132 215.345,327.381 214.622,325.111 214.962 C 322.409 215.368,321.302 217.026,318.813 224.400 C 318.331 225.830,317.770 227.313,317.568 227.695 C 317.366 228.077,317.194 228.617,317.186 228.895 C 317.179 229.173,316.825 230.120,316.400 231.000 C 315.975 231.880,315.621 232.789,315.614 233.020 C 315.606 233.251,315.375 233.925,315.100 234.517 L 314.600 235.594 309.087 235.597 C 303.431 235.600,302.214 235.226,303.547 233.893 C 303.796 233.644,304.001 233.161,304.002 232.820 C 304.004 232.479,304.257 231.717,304.565 231.127 C 304.873 230.537,305.245 229.504,305.393 228.832 C 305.541 228.159,305.828 227.506,306.031 227.381 C 306.234 227.255,306.401 226.848,306.402 226.476 C 306.404 226.104,306.657 225.317,306.965 224.727 C 307.273 224.137,307.649 223.090,307.800 222.400 C 307.951 221.710,308.327 220.663,308.635 220.073 C 308.943 219.483,309.196 218.696,309.198 218.324 C 309.199 217.952,309.364 217.546,309.565 217.422 C 309.766 217.297,310.052 216.477,310.200 215.598 C 310.349 214.719,310.634 214.000,310.835 214.000 C 311.036 214.000,311.201 213.685,311.202 213.300 C 311.204 212.915,311.457 212.117,311.765 211.527 C 312.073 210.937,312.446 209.902,312.594 209.227 L 312.864 208.000 318.664 208.000 L 324.464 208.000 324.200 209.200 L 323.937 210.399 325.268 209.700 C 326.000 209.315,326.699 208.867,326.820 208.705 C 326.942 208.542,328.008 208.226,329.190 208.002 C 330.372 207.778,331.428 207.506,331.536 207.397 C 331.907 207.026,334.199 207.212,335.701 207.735 M254.657 208.605 C 254.785 208.938,254.710 209.433,254.491 209.705 C 254.272 209.977,253.963 212.856,253.804 216.102 C 253.646 219.348,253.355 222.104,253.158 222.226 C 252.961 222.348,252.800 223.631,252.800 225.078 L 252.800 227.708 253.600 226.691 C 254.040 226.131,254.400 225.548,254.400 225.394 C 254.400 225.241,254.940 224.433,255.600 223.600 C 256.260 222.767,256.800 221.959,256.800 221.804 C 256.800 221.650,257.205 220.959,257.700 220.270 C 258.195 219.581,258.780 218.709,259.000 218.334 C 259.553 217.390,261.892 213.569,262.500 212.617 C 262.775 212.186,263.180 211.633,263.400 211.387 C 263.620 211.142,264.156 210.279,264.591 209.471 L 265.382 208.000 271.291 208.000 C 274.541 208.000,277.200 208.109,277.200 208.242 C 277.200 208.376,276.705 209.141,276.100 209.944 C 275.495 210.747,274.820 211.706,274.600 212.077 C 274.380 212.447,272.760 214.846,271.000 217.407 C 269.240 219.968,267.620 222.363,267.400 222.730 C 267.180 223.097,266.505 224.053,265.900 224.856 C 265.295 225.659,264.800 226.499,264.800 226.724 C 264.800 226.949,264.665 227.193,264.500 227.267 C 264.130 227.431,262.400 229.870,262.400 230.226 C 262.400 230.368,261.860 231.167,261.200 232.000 C 260.540 232.833,260.000 233.674,260.000 233.869 C 260.000 235.337,258.517 235.600,250.244 235.600 C 240.769 235.600,240.990 235.687,241.372 232.113 C 241.508 230.841,241.806 225.120,242.034 219.400 C 242.261 213.680,242.521 208.775,242.611 208.500 C 242.875 207.694,254.346 207.794,254.657 208.605 M189.033 214.347 C 188.915 214.538,188.018 214.784,187.039 214.894 C 185.364 215.083,183.200 216.641,183.200 217.658 C 183.200 217.846,185.551 218.000,188.424 218.000 L 193.648 218.000 193.524 216.500 C 193.409 215.105,193.302 214.991,192.000 214.871 C 191.230 214.801,190.429 214.576,190.220 214.371 C 189.744 213.906,189.311 213.897,189.033 214.347 M291.400 214.400 C 291.264 214.620,290.540 214.800,289.790 214.800 C 288.470 214.800,285.600 216.746,285.600 217.641 C 285.600 217.839,287.951 218.000,290.824 218.000 L 296.048 218.000 295.924 216.500 C 295.809 215.105,295.702 214.991,294.400 214.871 C 293.630 214.801,292.829 214.576,292.620 214.371 C 292.128 213.891,291.709 213.900,291.400 214.400 M140.318 221.266 C 139.943 222.220,139.518 223.497,139.374 224.104 C 139.229 224.711,138.951 225.306,138.756 225.427 C 137.612 226.134,138.914 226.400,143.500 226.396 C 151.497 226.389,154.400 225.228,154.400 222.036 C 154.400 220.055,153.648 219.813,147.039 219.666 L 141.000 219.532 140.318 221.266 M216.890 224.684 C 214.511 225.140,214.101 228.515,216.398 228.733 C 217.168 228.806,218.023 229.053,218.298 229.282 C 218.632 229.558,218.968 229.565,219.300 229.301 C 219.575 229.083,220.674 228.811,221.741 228.697 C 224.648 228.386,226.647 225.280,224.339 224.662 C 223.316 224.389,218.353 224.403,216.890 224.684 M324.083 227.500 C 322.710 231.522,322.686 231.200,324.361 231.200 C 326.488 231.200,326.495 231.248,324.923 235.536 C 324.144 237.661,323.416 239.715,323.307 240.100 C 323.128 240.726,323.453 240.800,326.374 240.800 L 329.641 240.800 330.184 239.500 C 330.482 238.785,331.235 236.693,331.856 234.852 C 332.863 231.868,333.639 230.706,334.231 231.297 C 334.338 231.405,333.791 233.272,333.013 235.447 C 331.070 240.884,331.052 240.800,334.151 240.800 C 337.005 240.800,337.277 240.610,338.023 238.095 C 339.030 234.704,342.111 234.419,342.322 237.698 C 342.489 240.307,343.036 240.528,349.600 240.644 C 358.843 240.806,363.938 240.426,364.215 239.553 C 364.439 238.846,364.500 238.850,365.583 239.651 C 367.021 240.714,369.685 241.020,372.412 240.435 C 373.925 240.110,374.616 240.103,374.806 240.409 C 374.966 240.668,376.153 240.792,377.793 240.720 L 380.514 240.600 381.336 238.400 C 382.286 235.855,382.541 235.614,384.300 235.606 C 385.551 235.600,385.600 235.660,385.600 237.200 C 385.600 242.063,395.527 242.179,397.667 237.342 C 398.851 234.664,399.100 231.394,398.195 230.394 C 397.265 229.367,391.297 229.242,389.440 230.210 C 388.404 230.750,388.208 230.750,387.608 230.208 C 386.465 229.173,378.394 229.337,378.116 230.400 C 378.001 230.840,377.821 231.200,377.716 231.200 C 377.612 231.200,377.069 230.840,376.509 230.400 C 375.365 229.500,370.214 229.243,368.774 230.014 C 367.798 230.537,367.741 229.794,368.600 227.738 C 368.930 226.949,369.200 226.234,369.200 226.151 C 369.200 226.068,366.627 226.000,363.483 226.000 L 357.766 226.000 357.011 228.221 C 356.119 230.844,355.887 231.046,354.712 230.223 C 353.405 229.308,347.532 229.359,345.935 230.300 C 344.803 230.967,344.727 230.967,344.353 230.300 C 344.034 229.731,343.402 229.600,340.980 229.600 C 337.721 229.600,337.496 229.376,338.390 227.026 L 338.780 226.000 331.688 226.000 L 324.596 226.000 324.083 227.500 M336.779 228.473 C 336.289 230.183,336.086 230.329,334.011 230.475 C 332.349 230.591,332.192 230.700,331.811 232.000 C 331.585 232.770,331.290 233.580,331.155 233.800 C 331.021 234.020,330.785 234.740,330.631 235.400 C 329.809 238.925,329.213 239.600,326.923 239.600 C 324.700 239.600,324.367 239.242,325.153 237.695 C 325.708 236.603,327.100 232.714,327.370 231.500 C 327.607 230.439,327.557 230.400,325.976 230.400 L 324.336 230.400 324.618 229.100 C 325.018 227.257,325.177 227.213,331.472 227.206 L 337.144 227.200 336.779 228.473 M362.038 228.300 C 361.776 229.287,357.600 230.367,357.600 229.447 C 357.600 227.911,358.472 227.200,360.356 227.200 C 362.315 227.200,362.328 227.209,362.038 228.300 M367.077 229.000 C 366.851 229.990,366.531 230.800,366.368 230.800 C 366.204 230.800,365.949 231.519,365.800 232.398 C 365.652 233.277,365.366 234.097,365.165 234.222 C 364.964 234.346,364.800 234.724,364.800 235.063 C 364.800 235.402,364.549 236.246,364.243 236.940 C 363.936 237.633,363.578 238.525,363.447 238.922 C 363.183 239.719,359.323 239.795,359.478 239.000 C 359.589 238.428,361.560 232.753,361.978 231.800 C 362.171 231.360,362.660 230.146,363.064 229.101 C 363.794 227.218,363.815 227.203,365.645 227.201 L 367.489 227.200 367.077 229.000 M343.180 230.771 C 344.713 231.950,343.980 234.544,342.062 234.728 C 340.151 234.911,339.371 234.558,340.004 233.795 C 340.403 233.314,340.385 233.200,339.911 233.200 C 339.063 233.200,338.132 234.399,337.812 235.904 C 337.194 238.809,336.501 239.600,334.571 239.600 C 333.597 239.600,332.800 239.486,332.800 239.346 C 332.800 238.843,333.747 235.791,334.024 235.400 C 334.180 235.180,334.441 234.376,334.605 233.613 C 335.151 231.062,335.511 230.800,338.473 230.800 C 339.947 230.800,341.264 230.620,341.400 230.400 C 341.745 229.842,342.055 229.906,343.180 230.771 M353.200 230.692 L 354.600 231.047 354.551 233.368 C 354.524 234.645,354.335 235.805,354.131 235.945 C 353.928 236.085,353.542 236.950,353.274 237.867 L 352.788 239.533 348.495 239.533 C 346.113 239.533,343.979 239.348,343.701 239.118 C 342.501 238.122,343.730 235.041,345.628 234.288 C 346.123 234.091,346.122 234.007,345.623 233.659 C 344.617 232.959,345.703 231.379,347.670 230.682 C 349.433 230.057,350.706 230.059,353.200 230.692 M387.600 231.966 C 387.600 232.137,387.317 232.845,386.971 233.539 C 386.184 235.115,383.200 235.480,383.200 234.000 C 383.200 232.698,382.405 233.085,381.762 234.700 C 381.433 235.525,381.004 236.560,380.807 237.000 C 380.611 237.440,380.337 238.205,380.198 238.700 C 379.980 239.478,379.678 239.600,377.973 239.600 C 376.091 239.600,375.271 238.898,376.365 238.222 C 376.566 238.097,376.852 237.277,377.000 236.398 C 377.149 235.519,377.414 234.800,377.591 234.800 C 377.767 234.800,378.037 234.125,378.191 233.300 C 378.606 231.082,379.005 230.801,381.749 230.794 C 383.097 230.791,384.460 230.623,384.778 230.422 C 385.356 230.056,387.600 231.284,387.600 231.966 M360.925 231.500 C 360.788 231.885,360.545 232.380,360.384 232.600 C 360.224 232.820,359.960 233.630,359.799 234.400 C 359.638 235.170,359.392 235.980,359.253 236.200 C 359.114 236.420,358.815 237.230,358.589 238.000 C 358.124 239.583,354.000 240.501,354.000 239.021 C 354.000 238.679,354.160 238.400,354.355 238.400 C 354.551 238.400,354.828 237.778,354.970 237.017 C 355.113 236.256,355.492 235.131,355.812 234.517 C 356.133 233.903,356.396 233.173,356.398 232.895 C 356.404 231.519,357.394 230.800,359.284 230.800 C 360.913 230.800,361.140 230.897,360.925 231.500 M376.320 231.280 C 376.963 231.923,376.929 234.033,376.260 235.011 C 375.963 235.445,375.603 236.280,375.460 236.867 C 374.843 239.409,368.262 240.762,366.011 238.810 L 365.100 238.019 365.850 235.599 C 367.120 231.502,368.063 230.800,372.297 230.800 C 374.519 230.800,376.019 230.979,376.320 231.280 M398.014 231.626 C 398.522 232.576,397.930 233.600,396.871 233.600 C 396.380 233.600,396.347 233.707,396.720 234.080 C 399.638 236.998,393.305 240.817,387.828 239.443 C 385.967 238.976,386.209 236.036,388.114 235.968 C 388.601 235.951,388.775 235.846,388.500 235.735 C 387.540 235.348,387.910 232.703,389.062 231.713 C 390.598 230.393,397.319 230.328,398.014 231.626 M349.073 233.060 C 348.930 233.204,349.114 233.542,349.484 233.812 C 350.120 234.277,351.200 233.784,351.200 233.029 C 351.200 232.713,349.394 232.740,349.073 233.060 M392.000 233.200 C 391.555 233.488,391.793 233.589,392.924 233.594 C 393.839 233.598,394.348 233.440,394.200 233.200 C 393.888 232.694,392.782 232.694,392.000 233.200 M371.300 233.476 C 371.685 233.576,372.315 233.576,372.700 233.476 C 373.085 233.375,372.770 233.293,372.000 233.293 C 371.230 233.293,370.915 233.375,371.300 233.476 M347.572 236.634 C 347.110 237.191,347.185 237.252,348.192 237.134 C 348.822 237.060,349.412 236.775,349.502 236.500 C 349.741 235.774,348.197 235.881,347.572 236.634 M369.867 236.267 C 369.321 236.813,369.628 237.252,370.469 237.128 C 371.568 236.966,371.937 236.000,370.900 236.000 C 370.478 236.000,370.013 236.120,369.867 236.267 M390.667 236.267 C 390.055 236.878,390.481 237.243,391.669 237.125 C 393.324 236.962,393.693 236.000,392.100 236.000 C 391.458 236.000,390.813 236.120,390.667 236.267 "
       id="path0" />
    <path
       fill-rule="evenodd"
       fill="#c9b266"
       stroke="none"
       d="M18.400 157.800 C 18.400 158.130,18.231 158.400,18.025 158.400 C 17.818 158.400,17.528 159.210,17.379 160.200 C 17.231 161.190,16.958 162.000,16.773 162.000 C 16.588 162.000,16.318 162.630,16.174 163.400 C 16.029 164.170,15.771 164.800,15.601 164.800 C 15.430 164.800,15.169 165.610,15.021 166.600 C 14.872 167.590,14.584 168.400,14.380 168.400 C 14.176 168.400,13.894 169.120,13.754 170.000 C 13.613 170.880,13.357 171.600,13.184 171.600 C 13.011 171.600,12.749 172.320,12.600 173.200 C 12.451 174.080,12.168 174.800,11.970 174.800 C 11.772 174.800,11.494 175.520,11.354 176.400 C 11.213 177.280,10.952 178.000,10.773 178.000 C 10.595 178.000,10.328 178.810,10.179 179.800 C 10.031 180.790,9.758 181.600,9.573 181.600 C 9.388 181.600,9.118 182.230,8.974 183.000 C 8.829 183.770,8.571 184.400,8.401 184.400 C 8.230 184.400,7.969 185.210,7.821 186.200 C 7.672 187.190,7.384 188.000,7.180 188.000 C 6.976 188.000,6.694 188.720,6.554 189.600 C 6.413 190.480,6.152 191.200,5.973 191.200 C 5.795 191.200,5.528 192.010,5.379 193.000 C 5.231 193.990,4.958 194.800,4.773 194.800 C 4.588 194.800,4.318 195.430,4.174 196.200 C 4.029 196.970,3.771 197.600,3.601 197.600 C 3.430 197.600,3.169 198.410,3.021 199.400 C 2.872 200.390,2.584 201.200,2.380 201.200 C 2.176 201.200,1.894 201.920,1.754 202.800 C 1.613 203.680,1.372 204.400,1.218 204.400 C 0.937 204.400,0.000 207.962,0.000 209.031 C 0.000 209.517,3.671 209.600,25.229 209.600 C 52.698 209.600,51.245 209.727,51.783 207.277 C 51.937 206.575,52.209 206.000,52.386 206.000 C 52.564 206.000,52.831 205.190,52.979 204.200 C 53.128 203.210,53.418 202.400,53.625 202.400 C 53.831 202.400,54.000 201.950,54.000 201.400 C 54.000 200.444,54.107 200.400,56.400 200.400 C 57.733 200.400,58.800 200.578,58.800 200.800 C 58.800 201.026,59.933 201.200,61.400 201.200 C 62.867 201.200,64.000 201.026,64.000 200.800 C 64.000 200.547,66.810 200.400,71.629 200.400 C 79.813 200.400,80.025 200.450,80.540 202.504 C 80.691 203.107,80.992 203.600,81.208 203.600 C 81.423 203.600,81.603 203.825,81.607 204.100 C 81.611 204.375,82.061 205.024,82.607 205.542 C 83.153 206.060,83.600 206.626,83.600 206.799 C 83.600 206.972,84.093 207.237,84.696 207.388 C 85.299 207.540,85.898 207.836,86.028 208.046 C 86.158 208.256,86.970 208.540,87.832 208.676 C 88.695 208.812,89.528 209.121,89.685 209.362 C 90.084 209.974,109.916 209.973,110.315 209.361 C 110.472 209.120,111.576 208.810,112.770 208.672 C 113.963 208.534,115.045 208.251,115.174 208.042 C 115.303 207.834,115.901 207.540,116.504 207.388 C 117.107 207.237,117.600 206.972,117.600 206.800 C 117.600 206.628,118.050 206.374,118.600 206.236 C 119.150 206.098,119.600 205.808,119.600 205.592 C 119.600 205.377,119.804 205.200,120.053 205.200 C 120.625 205.200,124.150 201.639,124.508 200.700 C 124.655 200.315,124.961 200.000,125.187 200.000 C 125.414 200.000,125.600 199.717,125.600 199.371 C 125.600 198.984,125.870 198.796,126.300 198.883 C 127.021 199.028,127.111 201.550,126.411 202.000 C 126.240 202.110,125.974 202.785,125.818 203.500 C 125.663 204.215,125.382 204.800,125.193 204.800 C 125.004 204.800,124.728 205.610,124.579 206.600 C 124.431 207.590,124.150 208.400,123.955 208.400 C 123.760 208.400,123.599 208.715,123.598 209.100 C 123.596 209.485,123.333 210.303,123.012 210.917 C 122.692 211.531,122.313 212.656,122.170 213.417 C 122.028 214.178,121.774 214.800,121.607 214.800 C 121.439 214.800,121.187 215.520,121.046 216.400 C 120.906 217.280,120.624 218.000,120.420 218.000 C 120.216 218.000,119.928 218.810,119.779 219.800 C 119.631 220.790,119.350 221.600,119.155 221.600 C 118.960 221.600,118.799 221.915,118.798 222.300 C 118.796 222.685,118.533 223.503,118.212 224.117 C 117.892 224.731,117.513 225.856,117.370 226.617 C 117.228 227.378,116.974 228.000,116.807 228.000 C 116.639 228.000,116.387 228.720,116.246 229.600 C 116.106 230.480,115.824 231.200,115.620 231.200 C 115.416 231.200,115.128 232.010,114.979 233.000 C 114.831 233.990,114.578 234.800,114.418 234.800 C 114.259 234.800,113.890 235.790,113.600 237.000 C 113.310 238.210,112.921 239.200,112.736 239.200 C 112.551 239.200,112.400 239.751,112.400 240.424 L 112.400 241.648 135.215 241.524 C 152.447 241.430,158.102 241.282,158.327 240.919 C 158.490 240.654,159.384 240.316,160.312 240.168 C 161.240 240.019,162.000 239.755,162.000 239.581 C 162.000 239.406,162.525 239.148,163.167 239.007 C 163.808 238.866,164.437 238.480,164.565 238.148 C 164.836 237.441,166.409 237.778,166.920 238.652 C 167.096 238.954,167.501 239.200,167.820 239.200 C 168.139 239.200,168.400 239.372,168.400 239.582 C 168.400 239.792,169.075 240.088,169.900 240.240 C 170.725 240.391,171.507 240.679,171.637 240.880 C 171.768 241.080,173.523 241.351,175.537 241.481 C 177.552 241.612,179.200 241.872,179.200 242.059 C 179.200 242.247,180.550 242.400,182.200 242.400 C 183.850 242.400,185.200 242.247,185.200 242.060 C 185.200 241.873,187.192 241.615,189.627 241.486 C 192.062 241.358,194.267 241.086,194.527 240.882 C 194.787 240.677,195.538 240.381,196.196 240.223 C 196.854 240.066,197.486 239.785,197.600 239.600 C 198.023 238.916,199.876 238.733,200.461 239.318 C 200.778 239.635,201.479 240.032,202.019 240.201 C 202.558 240.370,203.110 240.678,203.244 240.887 C 203.378 241.095,204.593 241.366,205.944 241.488 C 207.295 241.611,208.400 241.866,208.400 242.056 C 208.400 242.245,210.020 242.400,212.000 242.400 C 214.133 242.400,215.600 242.237,215.600 242.000 C 215.600 241.738,223.657 241.600,238.971 241.600 C 263.737 241.600,263.600 241.610,263.600 239.814 C 263.600 239.523,263.870 239.182,264.200 239.055 C 264.530 238.929,264.800 238.549,264.800 238.213 C 264.800 237.876,264.977 237.600,265.192 237.600 C 265.408 237.600,265.700 237.141,265.841 236.580 L 266.097 235.560 266.724 236.456 C 267.705 237.857,268.648 238.698,269.561 238.987 C 270.022 239.134,270.400 239.407,270.400 239.595 C 270.400 239.783,270.985 240.063,271.700 240.218 C 272.415 240.374,273.110 240.674,273.245 240.885 C 273.380 241.096,275.315 241.370,277.545 241.493 C 279.775 241.616,281.600 241.870,281.600 242.058 C 281.600 242.559,287.506 242.483,287.673 241.980 C 287.768 241.695,292.991 241.568,303.881 241.586 L 319.949 241.612 320.220 239.806 C 320.369 238.813,320.642 238.000,320.827 238.000 C 321.012 238.000,321.282 237.370,321.426 236.600 C 321.571 235.830,321.826 235.200,321.993 235.200 C 322.161 235.200,322.413 234.480,322.554 233.600 C 322.783 232.168,322.929 232.000,323.949 232.000 C 324.949 232.000,325.066 232.123,324.898 233.000 C 324.793 233.550,324.571 234.000,324.404 234.000 C 324.238 234.000,323.981 234.760,323.832 235.688 C 323.684 236.616,323.371 237.494,323.138 237.639 C 322.904 237.783,322.619 238.733,322.504 239.751 L 322.296 241.600 329.715 241.600 C 337.732 241.600,338.400 241.504,338.400 240.357 C 338.400 239.454,337.781 239.351,337.455 240.200 C 337.208 240.844,331.200 241.120,331.200 240.487 C 331.200 240.314,331.830 238.321,332.600 236.056 C 333.370 233.792,334.000 231.863,334.000 231.770 C 334.000 231.365,333.160 231.647,333.015 232.100 C 332.927 232.375,332.185 234.445,331.366 236.700 L 329.877 240.800 326.539 240.800 C 322.584 240.800,322.679 241.034,324.600 236.000 C 326.291 231.568,326.290 231.600,324.833 231.600 C 322.686 231.600,322.372 231.304,322.990 229.866 C 323.289 229.170,323.750 228.015,324.015 227.300 L 324.497 226.000 331.695 226.000 L 338.893 226.000 338.621 226.900 C 338.470 227.395,338.248 228.115,338.127 228.500 C 337.934 229.114,338.205 229.200,340.335 229.200 C 342.663 229.200,344.800 229.790,344.800 230.434 C 344.800 230.601,345.385 230.442,346.100 230.080 C 348.136 229.049,352.665 228.976,354.524 229.944 C 355.579 230.494,356.092 230.594,356.191 230.269 C 356.269 230.011,356.643 228.945,357.021 227.900 L 357.709 226.000 363.454 226.000 C 366.614 226.000,369.200 226.158,369.200 226.351 C 369.200 226.544,368.919 227.374,368.577 228.194 C 367.795 230.064,367.885 230.141,370.169 229.566 C 372.341 229.019,375.325 229.328,376.724 230.245 C 377.676 230.868,378.372 230.557,378.394 229.500 C 378.407 228.859,386.579 229.170,387.547 229.848 C 388.294 230.371,388.665 230.408,389.478 230.037 C 390.929 229.376,394.738 229.081,396.600 229.486 C 399.403 230.095,399.753 232.657,397.717 237.648 C 395.867 242.181,385.351 241.976,385.481 237.409 C 385.536 235.465,382.692 235.216,381.949 237.100 C 381.711 237.705,381.273 238.773,380.977 239.472 L 380.439 240.745 373.720 240.742 C 367.986 240.739,366.819 240.633,365.764 240.021 C 364.570 239.327,364.513 239.328,364.061 240.051 C 363.625 240.750,362.937 240.800,353.851 240.800 C 342.574 240.800,342.000 240.644,342.000 237.571 C 342.000 235.319,339.275 235.132,338.480 237.328 C 337.896 238.944,337.885 239.200,338.400 239.200 C 338.620 239.200,338.800 238.930,338.800 238.600 C 338.800 238.270,338.980 238.000,339.200 238.000 C 339.420 238.000,339.600 237.730,339.600 237.400 C 339.600 237.067,339.956 236.800,340.400 236.800 C 341.048 236.800,341.200 237.067,341.200 238.200 C 341.200 239.119,341.510 239.910,342.100 240.500 L 343.000 241.400 362.100 241.474 C 378.464 241.538,381.200 241.466,381.200 240.974 C 381.200 240.658,381.366 240.400,381.568 240.400 C 381.771 240.400,382.063 239.825,382.217 239.123 C 382.762 236.643,384.175 236.058,384.518 238.170 C 384.957 240.877,386.010 241.400,391.016 241.400 L 395.433 241.400 396.916 239.960 C 397.732 239.167,398.400 238.312,398.400 238.060 C 398.400 237.807,398.548 237.600,398.729 237.600 C 399.307 237.600,399.961 232.093,399.557 230.629 C 399.054 228.808,399.417 228.849,383.457 228.848 C 370.281 228.847,368.412 228.744,369.461 228.078 C 369.702 227.925,370.026 227.215,370.182 226.500 L 370.464 225.200 363.650 225.200 L 356.836 225.200 356.574 226.600 C 356.429 227.370,356.151 228.000,355.955 228.000 C 355.760 228.000,355.600 228.248,355.600 228.551 C 355.600 229.166,352.122 229.000,351.420 228.351 C 350.898 227.868,349.697 227.909,349.528 228.416 C 349.322 229.034,342.701 229.102,342.496 228.487 C 342.301 227.904,341.200 227.829,341.200 228.400 C 341.200 228.620,340.660 228.800,340.000 228.800 C 339.340 228.800,338.800 228.620,338.800 228.400 C 338.800 228.180,338.980 228.000,339.200 228.000 C 339.420 228.000,339.600 227.640,339.600 227.200 C 339.600 226.576,339.867 226.400,340.810 226.400 C 341.834 226.400,342.057 226.216,342.260 225.200 C 342.392 224.540,342.655 224.000,342.845 224.000 C 343.035 224.000,343.306 223.280,343.446 222.400 C 343.587 221.520,343.843 220.800,344.016 220.800 C 344.189 220.800,344.458 220.035,344.614 219.100 C 344.770 218.165,345.101 217.272,345.349 217.115 C 346.013 216.695,345.967 207.522,345.300 207.300 C 345.025 207.208,344.800 206.944,344.800 206.713 C 344.800 205.951,340.904 202.441,339.741 202.156 C 339.113 202.003,338.497 201.721,338.372 201.532 C 338.078 201.087,333.250 200.976,319.508 201.100 L 308.415 201.200 308.164 202.200 C 307.919 203.179,306.000 203.732,306.000 202.825 C 306.000 202.618,305.145 202.323,304.100 202.169 C 303.055 202.015,302.100 201.735,301.977 201.546 C 301.641 201.028,216.411 200.940,216.073 201.458 C 215.923 201.688,215.095 201.988,214.232 202.124 C 213.370 202.260,212.560 202.530,212.432 202.724 C 212.305 202.918,211.683 203.203,211.052 203.358 C 210.420 203.513,209.642 203.901,209.323 204.220 C 208.581 204.962,207.419 204.962,206.677 204.220 C 206.358 203.901,205.625 203.521,205.048 203.376 C 204.472 203.232,204.000 202.964,204.000 202.781 C 204.000 202.598,203.145 202.323,202.100 202.169 C 201.055 202.015,200.083 201.708,199.940 201.486 C 199.600 200.958,183.596 200.968,183.251 201.496 C 183.113 201.707,182.256 201.977,181.346 202.096 L 179.692 202.312 179.510 200.119 C 179.403 198.835,179.094 197.781,178.764 197.576 C 178.065 197.142,178.032 191.923,178.727 191.691 C 178.973 191.609,179.290 190.925,179.432 190.171 C 179.573 189.417,179.829 188.800,179.999 188.800 C 180.170 188.800,180.431 187.990,180.579 187.000 L 180.849 185.200 189.641 185.200 C 199.664 185.200,199.339 185.303,200.068 181.900 C 200.339 180.635,200.690 179.600,200.848 179.600 C 201.007 179.600,201.263 179.015,201.418 178.300 C 201.574 177.585,201.903 176.872,202.150 176.715 C 202.979 176.189,202.749 165.227,201.900 164.752 C 201.515 164.537,201.200 164.191,201.200 163.985 C 201.200 163.414,199.885 162.000,199.354 162.000 C 199.096 162.000,198.782 161.730,198.655 161.400 C 198.529 161.070,198.149 160.800,197.813 160.800 C 197.476 160.800,197.200 160.633,197.200 160.429 C 197.200 160.225,196.210 159.934,195.000 159.783 C 193.790 159.632,192.800 159.349,192.800 159.154 C 192.800 158.959,191.450 158.800,189.800 158.800 C 188.067 158.800,186.800 158.969,186.800 159.200 C 186.800 159.457,182.800 159.600,175.600 159.600 C 166.293 159.600,164.400 159.694,164.400 160.157 C 164.400 161.256,161.841 161.377,161.155 160.311 C 161.020 160.102,159.085 159.830,156.855 159.707 C 154.625 159.584,152.800 159.330,152.800 159.142 C 152.800 158.645,147.693 158.720,147.527 159.218 C 147.340 159.780,111.457 159.757,111.267 159.195 C 111.104 158.713,107.600 158.662,107.600 159.141 C 107.600 159.328,105.952 159.588,103.937 159.719 C 101.923 159.849,100.168 160.120,100.037 160.320 C 99.907 160.521,99.125 160.809,98.300 160.960 C 97.475 161.112,96.800 161.394,96.800 161.586 C 96.800 161.779,96.260 162.055,95.600 162.200 C 94.940 162.345,94.400 162.642,94.400 162.860 C 94.400 163.079,94.117 162.974,93.771 162.629 C 93.426 162.283,92.886 162.000,92.571 162.000 C 92.257 162.000,92.000 161.834,92.000 161.632 C 92.000 161.429,91.415 161.137,90.700 160.982 C 89.985 160.826,89.294 160.534,89.165 160.332 C 89.036 160.130,87.641 159.856,86.065 159.724 C 84.489 159.592,83.200 159.330,83.200 159.142 C 83.200 158.560,69.697 158.716,69.488 159.300 C 69.390 159.575,69.157 159.657,68.970 159.482 C 68.783 159.307,68.848 158.814,69.115 158.387 C 69.382 157.960,69.600 157.518,69.600 157.405 C 69.600 157.292,58.080 157.200,44.000 157.200 C 21.511 157.200,18.400 157.273,18.400 157.800 M64.944 160.234 C 65.401 160.409,65.466 160.701,65.203 161.393 C 64.728 162.641,64.994 162.797,66.727 162.288 C 67.552 162.046,71.630 161.851,76.000 161.844 C 86.254 161.827,89.217 162.519,92.691 165.742 C 93.871 166.837,94.043 166.887,94.691 166.325 C 98.652 162.892,108.624 160.901,114.160 162.438 C 115.293 162.752,115.950 162.749,116.560 162.425 C 118.302 161.500,136.215 162.049,136.118 163.025 L 136.036 163.849 138.918 163.073 C 146.942 160.913,162.350 162.206,164.196 165.194 C 164.673 165.966,165.094 165.593,165.784 163.786 L 166.477 161.971 180.571 162.086 L 194.664 162.200 196.632 163.405 C 200.802 165.957,201.478 170.296,198.843 177.600 L 197.328 181.800 188.378 182.000 L 179.428 182.200 178.339 185.200 C 177.740 186.850,176.622 189.910,175.856 192.000 C 174.603 195.416,174.521 195.881,175.043 196.600 C 176.573 198.708,177.183 200.651,177.191 203.450 L 177.200 206.301 179.894 205.323 C 187.959 202.395,202.517 203.728,206.364 207.746 L 207.728 209.170 209.152 207.920 C 212.218 205.228,214.861 204.465,224.805 203.402 C 226.761 203.193,234.364 203.908,237.900 204.633 C 238.754 204.809,239.200 204.746,239.200 204.450 C 239.200 204.129,242.021 204.000,249.052 204.000 L 258.903 204.000 258.630 206.500 C 258.480 207.875,258.254 209.675,258.128 210.500 C 257.977 211.483,258.053 212.000,258.349 212.000 C 258.597 212.000,258.800 211.860,258.800 211.688 C 258.800 211.517,259.875 209.714,261.190 207.682 L 263.580 203.986 278.890 203.974 C 298.602 203.957,299.040 203.963,301.351 204.248 C 303.565 204.522,307.168 205.998,307.965 206.958 C 308.778 207.937,309.083 207.751,309.699 205.900 L 310.265 204.200 322.233 203.952 C 336.963 203.648,338.190 203.807,340.834 206.366 C 343.816 209.252,343.944 213.464,341.262 220.400 L 340.101 223.400 331.597 223.600 L 323.092 223.800 321.976 226.800 C 321.363 228.450,320.103 231.915,319.176 234.500 L 317.491 239.200 307.746 239.200 C 298.489 239.200,298.000 239.162,298.000 238.451 C 298.000 237.721,297.924 237.721,294.900 238.438 C 290.655 239.444,279.570 239.499,275.682 238.534 C 270.890 237.343,267.600 234.447,267.600 231.420 C 267.600 229.631,266.873 230.295,263.902 234.795 L 261.000 239.189 249.200 239.095 L 237.400 239.000 237.200 237.633 L 237.000 236.267 236.474 237.733 L 235.948 239.200 224.874 239.300 C 206.248 239.468,204.056 239.194,201.205 236.344 L 200.004 235.143 198.902 235.893 C 191.627 240.846,171.452 240.418,167.076 235.218 C 165.871 233.785,165.712 233.756,164.626 234.773 C 163.173 236.132,159.096 237.891,155.857 238.555 C 152.374 239.270,116.659 239.542,116.235 238.857 C 116.119 238.669,116.448 237.364,116.967 235.957 C 118.038 233.053,121.692 222.996,124.798 214.400 C 125.951 211.210,127.601 206.682,128.464 204.338 C 130.951 197.587,130.943 197.634,129.677 197.153 C 129.085 196.928,127.757 196.313,126.726 195.787 L 124.852 194.829 123.423 197.386 C 119.922 203.646,114.790 206.323,104.605 207.200 C 91.090 208.363,82.471 205.147,82.409 198.915 L 82.400 198.030 68.700 197.862 C 61.165 197.769,54.472 197.627,53.826 197.547 C 52.709 197.407,52.604 197.528,51.696 200.000 C 51.170 201.430,50.499 203.230,50.204 204.000 C 49.909 204.770,49.568 205.715,49.446 206.100 C 49.207 206.858,3.600 207.228,3.600 206.472 C 3.600 206.053,8.601 192.103,14.524 176.000 C 14.646 175.670,15.579 173.060,16.599 170.200 C 17.619 167.340,18.731 164.280,19.070 163.400 C 19.410 162.520,19.844 161.395,20.035 160.900 L 20.383 160.000 42.359 160.000 C 54.445 160.000,64.609 160.105,64.944 160.234 M109.400 176.843 C 108.118 177.198,106.047 181.124,106.870 181.640 C 107.991 182.343,109.318 181.439,110.293 179.309 C 111.396 176.901,111.195 176.346,109.400 176.843 "
       id="path1" />
    <path
       style="fill:#ffffff;fill-rule:evenodd;stroke:none"
       d="m 20.262,160.3 c -0.169,0.272 16.105,0.268 36.738,-0.01 4.4,-0.059 -2.024,-0.149 -14.276,-0.199 -12.252,-0.05 -22.36,0.044 -22.462,0.209 m 53.853,1.596 c 1.273,0.08 3.253,0.079 4.4,-0.002 1.147,-0.08 0.105,-0.145 -2.315,-0.144 -2.42,0.001 -3.358,0.066 -2.085,0.146 m 42.109,0.713 c -0.428,0.325 -0.573,0.591 -0.324,0.591 0.249,0 0.564,-0.18 0.7,-0.4 0.341,-0.552 19.263,-0.542 19.537,0.01 0.112,0.226 0.157,0.18 0.1,-0.1 -0.165,-0.813 -18.954,-0.908 -20.013,-0.101 m 55.052,-0.31 c 2.792,0.068 7.472,0.069 10.4,0 2.928,-0.068 0.644,-0.124 -5.076,-0.125 -5.72,0 -8.116,0.056 -5.324,0.125 M 22.482,165.1 c -1.9,5.035 -2.882,7.84 -2.884,8.234 -0.002,0.256 -0.265,0.969 -0.586,1.583 -0.32,0.614 -0.699,1.739 -0.842,2.5 -0.142,0.761 -0.403,1.383 -0.579,1.383 -0.177,0 -0.442,0.719 -0.591,1.598 -0.148,0.879 -0.434,1.699 -0.635,1.824 -0.201,0.124 -0.366,0.53 -0.367,0.902 -0.002,0.372 -0.255,1.159 -0.563,1.749 -0.308,0.59 -0.689,1.664 -0.848,2.387 -0.159,0.723 -0.434,1.59 -0.612,1.927 -0.931,1.765 -1.581,3.437 -1.81,4.658 -0.141,0.75 -0.415,1.462 -0.61,1.583 -0.195,0.121 -0.356,0.524 -0.357,0.896 -0.002,0.372 -0.255,1.159 -0.563,1.749 -0.308,0.59 -0.689,1.67 -0.848,2.4 -0.158,0.73 -0.468,1.442 -0.688,1.582 -1.564,0.995 0.877,1.145 18.682,1.145 h 18.534 l 0.994,-2.5 c 0.547,-1.375 1.12,-3.083 1.274,-3.795 0.153,-0.713 0.445,-1.399 0.648,-1.524 0.203,-0.126 0.369,-0.578 0.369,-1.005 0,-0.75 -0.382,-0.776 -11.4,-0.776 -10.385,0 -12.341,-0.171 -11.052,-0.968 0.192,-0.118 0.464,-0.794 0.606,-1.502 0.142,-0.708 0.559,-1.972 0.929,-2.809 L 29.354,186.8 H 39.89 c 9.679,0 10.554,-0.057 10.765,-0.7 0.523,-1.591 1.862,-5.145 2.168,-5.757 0.553,-1.102 0.178,-1.143 -10.469,-1.143 H 32.042 l 0.412,-1.3 c 0.226,-0.715 0.573,-1.66 0.771,-2.1 0.197,-0.44 0.537,-1.292 0.754,-1.894 l 0.396,-1.093 11.283,-0.107 11.283,-0.106 0.83,-2.4 c 0.456,-1.32 0.956,-2.495 1.11,-2.612 0.155,-0.117 0.403,-0.972 0.551,-1.9 L 59.702,164 H 41.3 22.897 l -0.415,1.1 m 45.753,0.844 c -0.117,0.189 -0.983,0.452 -1.924,0.583 -4.063,0.567 -9.431,5.42 -8.546,7.725 0.441,1.149 11.283,0.751 12.066,-0.443 2.008,-3.064 8.958,-3.013 8.966,0.067 0.002,0.702 -0.157,1.375 -0.352,1.496 -0.195,0.121 -0.472,0.845 -0.615,1.61 -0.315,1.676 -0.851,2.086 -1.755,1.34 -1.863,-1.536 -10.812,-2.218 -14.391,-1.098 -9.626,3.015 -13.835,12.972 -6.89,16.302 1.771,0.849 12.057,0.983 12.873,0.167 0.271,-0.271 0.775,-0.493 1.119,-0.493 0.755,0 3.684,-1.521 4.14,-2.15 0.18,-0.248 0.198,0 0.04,0.55 -0.646,2.257 -0.791,2.191 5.099,2.311 l 5.465,0.111 0.635,-1.272 c 0.349,-0.7 0.636,-1.47 0.637,-1.711 0.002,-0.242 0.255,-0.922 0.563,-1.512 0.308,-0.59 0.687,-1.67 0.843,-2.4 0.157,-0.73 0.414,-1.507 0.573,-1.727 0.159,-0.22 0.696,-1.57 1.193,-3 0.497,-1.43 1.048,-2.96 1.223,-3.4 3.142,-7.889 1.739,-12.6 -3.751,-12.6 -0.55,0 -1.11,-0.18 -1.246,-0.4 -0.306,-0.496 -15.66,-0.549 -15.965,-0.056 m 37.198,0.003 c -0.118,0.191 -1.012,0.437 -1.988,0.547 -5.961,0.672 -10.643,6.102 -13.609,15.781 -2.196,7.167 0.961,10.679 9.618,10.699 2.449,0.006 4.879,-0.186 5.4,-0.427 0.52,-0.241 1.844,-0.868 2.942,-1.393 2.796,-1.337 2.861,-1.356 2.359,-0.719 -0.245,0.311 -0.574,1.105 -0.731,1.765 -0.353,1.478 -2.07,3.8 -2.811,3.8 -0.3,0 -0.618,0.214 -0.705,0.476 -0.279,0.836 -7.058,0.68 -7.684,-0.176 -0.446,-0.61 -1.243,-0.7 -6.168,-0.7 H 86.4 v 2.026 c 0,4.764 1.615,5.374 14.239,5.374 6.592,0 9.816,-0.143 10.2,-0.454 0.309,-0.249 1.136,-0.576 1.838,-0.727 3.282,-0.701 8.821,-6.715 8.909,-9.673 0.008,-0.25 0.283,-0.97 0.612,-1.6 0.328,-0.63 0.598,-1.45 0.6,-1.822 0.001,-0.372 0.182,-0.788 0.402,-0.924 0.22,-0.136 0.401,-0.552 0.402,-0.924 0.002,-0.372 0.272,-1.192 0.6,-1.822 0.329,-0.63 0.598,-1.323 0.598,-1.539 0,-0.217 0.25,-0.961 0.554,-1.655 0.305,-0.693 0.95,-2.43 1.433,-3.86 0.482,-1.43 1.02,-2.876 1.194,-3.213 0.175,-0.337 0.453,-1.231 0.619,-1.987 0.166,-0.756 0.454,-1.65 0.641,-1.987 0.505,-0.914 1.559,-3.659 1.559,-4.062 0,-0.193 -1.802,-0.351 -4.005,-0.351 -2.318,0 -4.315,-0.193 -4.74,-0.459 -1.181,-0.737 -2.689,-0.113 -3.273,1.354 -0.286,0.718 -0.571,1.372 -0.634,1.455 -0.063,0.082 -0.676,-0.323 -1.362,-0.9 -0.686,-0.578 -1.958,-1.164 -2.826,-1.303 -0.868,-0.139 -1.674,-0.408 -1.792,-0.6 -0.28,-0.453 -6.455,-0.453 -6.735,0 m 38.802,-0.004 c -0.117,0.189 -1.318,0.444 -2.668,0.567 -5.096,0.462 -9.62,3.774 -11.87,8.69 -1.648,3.601 -2.097,4.732 -2.097,5.28 0,0.308 -0.166,0.731 -0.369,0.94 -0.829,0.852 -1.967,8.18 -1.271,8.18 0.242,0 0.44,0.251 0.44,0.559 0,0.841 2.701,3.041 3.734,3.041 0.498,0 1.131,0.225 1.406,0.5 0.88,0.88 16.508,0.643 19.26,-0.292 4.98,-1.692 9.941,-6.501 9.064,-8.786 -0.419,-1.092 -10.887,-0.903 -11.561,0.209 -2.338,3.857 -10.737,3.056 -10.133,-0.967 l 0.277,-1.852 11.233,-0.106 c 9.522,-0.09 11.276,-0.197 11.514,-0.706 0.155,-0.33 0.477,-0.983 0.716,-1.451 0.24,-0.468 0.558,-1.505 0.708,-2.304 0.15,-0.8 0.432,-1.552 0.627,-1.673 0.195,-0.121 0.355,-1.284 0.355,-2.586 0,-3.97 -2.012,-6.28 -5.812,-6.672 -1.216,-0.126 -2.307,-0.383 -2.423,-0.571 -0.277,-0.448 -10.853,-0.448 -11.13,0 M 186.6,166 c -0.136,0.22 -0.624,0.4 -1.084,0.4 -0.46,0 -1.794,0.485 -2.965,1.078 -1.171,0.593 -2.269,0.928 -2.44,0.745 -0.171,-0.183 -0.086,-0.413 0.189,-0.511 0.275,-0.098 0.5,-0.434 0.5,-0.745 0,-0.464 -1.09,-0.567 -6,-0.567 -5.733,0 -6,0.036 -6,0.8 0,0.44 -0.18,0.8 -0.4,0.8 -0.22,0 -0.401,0.315 -0.402,0.7 -0.002,0.385 -0.255,1.183 -0.563,1.773 -0.308,0.59 -0.684,1.637 -0.835,2.327 -0.151,0.69 -0.527,1.737 -0.835,2.327 -0.308,0.59 -0.561,1.277 -0.563,1.527 -0.001,0.25 -0.271,0.97 -0.6,1.6 -0.328,0.63 -0.598,1.45 -0.6,1.822 -0.001,0.372 -0.182,0.788 -0.402,0.924 -0.22,0.136 -0.401,0.552 -0.402,0.924 -0.002,0.372 -0.255,1.159 -0.563,1.749 -0.308,0.59 -0.684,1.637 -0.835,2.327 -0.151,0.69 -0.527,1.737 -0.835,2.327 -0.308,0.59 -0.561,1.373 -0.563,1.74 -10e-4,0.366 -0.167,0.726 -0.369,0.8 -0.201,0.073 -0.491,0.808 -0.644,1.633 l -0.278,1.5 h 5.835 5.835 l 0.782,-1.617 c 0.429,-0.89 0.906,-2.189 1.06,-2.887 0.153,-0.698 0.414,-1.546 0.579,-1.883 0.767,-1.565 1.598,-3.681 1.598,-4.066 0,-0.234 0.248,-0.993 0.551,-1.687 0.303,-0.693 0.874,-2.16 1.268,-3.26 1.437,-4.015 4.569,-6.399 7.055,-5.369 1.143,0.473 1.585,2.038 0.726,2.569 -0.22,0.136 -0.4,0.777 -0.4,1.424 v 1.176 h 5.029 c 5.596,0 5.935,-0.135 6.387,-2.547 0.151,-0.804 0.422,-1.553 0.601,-1.664 0.728,-0.45 0.878,-4.445 0.215,-5.727 -1.165,-2.252 -8.589,-4.15 -9.632,-2.462 m -71.7,7.357 c 0.759,0.576 0.938,2.604 0.332,3.748 -0.202,0.382 -0.767,1.827 -1.255,3.212 -1.044,2.961 -2.663,4.883 -4.114,4.883 -0.559,0 -1.127,0.18 -1.263,0.4 -0.374,0.604 -3.512,0.479 -5.151,-0.205 -1.443,-0.603 -2.152,-2.914 -1.094,-3.567 0.195,-0.121 0.473,-0.852 0.618,-1.625 0.473,-2.521 2.53,-6.011 3.939,-6.684 1.661,-0.793 7.014,-0.902 7.988,-0.162 m 36.4,0 c 0.405,0.307 0.7,1.06 0.7,1.787 v 1.256 h -5.6 c -6.497,0 -7.152,-0.669 -3,-3.061 1.144,-0.659 7.026,-0.646 7.9,0.018 M 72.6,182.8 c 0.136,0.22 0.692,0.4 1.236,0.4 1.987,0 1.578,2.429 -0.629,3.732 -1.151,0.68 -6.35,0.94 -8.307,0.416 -2.112,-0.566 -0.161,-4.148 2.258,-4.148 0.657,0 1.306,-0.18 1.442,-0.4 0.136,-0.22 1.036,-0.4 2,-0.4 0.964,0 1.864,0.18 2,0.4 m 61.824,16.48 c -0.489,1.386 -1.054,2.833 -1.256,3.215 -0.202,0.382 -0.369,0.922 -0.37,1.2 -0.002,0.278 -0.265,1.008 -0.586,1.622 -0.32,0.614 -0.699,1.739 -0.842,2.5 -0.142,0.761 -0.419,1.383 -0.615,1.383 -0.195,0 -0.356,0.315 -0.357,0.7 -0.002,0.385 -0.255,1.183 -0.563,1.773 -0.308,0.59 -0.684,1.637 -0.835,2.327 -0.151,0.69 -0.527,1.737 -0.835,2.327 -0.308,0.59 -0.561,1.377 -0.563,1.749 -0.001,0.372 -0.168,0.779 -0.371,0.905 -0.203,0.125 -0.496,0.805 -0.651,1.51 -0.155,0.706 -0.424,1.559 -0.599,1.896 -0.174,0.337 -0.712,1.783 -1.194,3.213 -0.483,1.43 -1.128,3.167 -1.433,3.86 -0.304,0.694 -0.554,1.438 -0.554,1.655 0,0.216 -0.269,0.909 -0.598,1.539 -1.125,2.159 -1.163,2.146 6.374,2.146 4.22,0 7.074,0.158 7.224,0.4 0.307,0.497 14.861,0.548 15.167,0.053 0.118,-0.191 1.524,-0.436 3.124,-0.544 10.272,-0.698 18.627,-14.306 11.209,-18.258 -1.194,-0.636 -1.136,-1.105 0.176,-1.434 2.639,-0.663 6.72,-5.449 7.207,-8.454 0.124,-0.76 0.381,-1.479 0.571,-1.596 1.343,-0.831 -0.557,-5.65 -2.777,-7.041 -1.475,-0.924 -1.505,-0.926 -18.321,-1.046 l -16.844,-0.12 -0.888,2.52 m 91.681,4.207 c 0.609,0.092 1.509,0.09 2,-0.005 0.492,-0.095 -0.005,-0.171 -1.105,-0.168 -1.1,0.003 -1.503,0.081 -0.895,0.173 m -4.4,0.4 c 0.609,0.092 1.509,0.09 2,-0.005 0.492,-0.095 -0.005,-0.171 -1.105,-0.168 -1.1,0.003 -1.503,0.081 -0.895,0.173 m 8.2,-0.004 c 0.497,0.096 1.217,0.092 1.6,-0.008 0.382,-0.1 -0.025,-0.179 -0.905,-0.174 -0.88,0.004 -1.193,0.086 -0.695,0.182 m 102.195,0.004 c 0.605,0.091 1.595,0.091 2.2,0 0.605,-0.092 0.11,-0.167 -1.1,-0.167 -1.21,0 -1.705,0.075 -1.1,0.167 m -73.599,1.513 c 0.004,0.88 0.086,1.193 0.182,0.695 0.096,-0.497 0.092,-1.217 -0.008,-1.6 -0.1,-0.382 -0.179,0.025 -0.174,0.905 M 157.7,206.157 c 1.026,0.779 0.924,3.203 -0.179,4.23 -1.349,1.258 -3.27,1.608 -8.821,1.611 -4.598,0.002 -5.888,-0.264 -4.735,-0.976 0.201,-0.125 0.487,-0.945 0.635,-1.824 0.149,-0.879 0.434,-1.598 0.635,-1.598 0.201,0 0.365,-0.45 0.365,-1 v -1 l 5.7,0.013 c 4.105,0.009 5.896,0.161 6.4,0.544 m -58.993,1.333 c 0.719,0.089 1.799,0.087 2.4,-0.004 0.601,-0.091 0.013,-0.164 -1.307,-0.162 -1.32,0.002 -1.812,0.077 -1.093,0.166 m 87.844,0.326 c -8.836,1.017 -12.203,3.917 -15.772,13.584 -0.487,1.32 -1.067,2.795 -1.288,3.278 -0.915,1.996 -0.582,7.317 0.509,8.155 0.55,0.421 1.22,0.95 1.49,1.173 0.269,0.224 1.349,0.508 2.4,0.632 1.05,0.124 2.277,0.401 2.725,0.616 1.01,0.484 11.09,0.214 14.385,-0.386 4.46,-0.811 7.581,-2.899 9.737,-6.515 1.403,-2.352 1.401,-2.353 -4.695,-2.353 h -5.557 l -1.285,1.2 c -1.726,1.612 -6.995,1.816 -8.384,0.325 -0.89,-0.955 -1.003,-1.363 -0.468,-1.693 0.192,-0.118 0.457,-0.759 0.59,-1.424 l 0.242,-1.208 h 10.619 10.618 l 0.435,-1.1 c 0.239,-0.605 0.599,-1.419 0.8,-1.809 0.201,-0.39 0.477,-1.519 0.613,-2.511 0.136,-0.991 0.402,-1.898 0.591,-2.015 0.92,-0.568 -0.098,-4.247 -1.592,-5.754 -1.339,-1.35 -8.226,-2.971 -11.664,-2.746 -0.33,0.022 -2.602,0.27 -5.049,0.551 m 33.249,-0.23 c -0.44,0.197 -1.34,0.374 -2,0.395 -1.171,0.036 -3.182,0.878 -5.6,2.345 -1.126,0.683 -3.4,4.399 -3.4,5.557 0,0.398 1.286,0.517 5.6,0.517 3.467,0 5.6,-0.152 5.6,-0.4 0,-1.705 3.926,-2.878 7.432,-2.22 l 1.469,0.275 -0.254,1.856 c -0.14,1.021 -0.433,2.035 -0.651,2.253 -0.218,0.218 -0.396,0.709 -0.396,1.092 0,1.006 -0.637,1.25 -1.364,0.523 -0.345,-0.345 -1.305,-0.721 -2.132,-0.835 -0.827,-0.114 -1.881,-0.389 -2.341,-0.61 -2.307,-1.107 -13.763,1.007 -13.763,2.54 0,0.179 -0.262,0.326 -0.582,0.326 -0.733,0 -3.418,3.475 -3.418,4.424 0,0.39 -0.213,0.78 -0.474,0.867 -0.304,0.102 -0.483,1.218 -0.5,3.134 -0.029,3.349 0.702,4.581 2.995,5.039 0.658,0.132 1.293,0.396 1.411,0.588 0.281,0.454 8.855,0.455 9.136,10e-4 0.118,-0.192 0.929,-0.462 1.803,-0.602 0.873,-0.14 2.243,-0.64 3.042,-1.112 l 1.454,-0.858 -0.133,1.36 -0.134,1.359 5.308,0.112 5.307,0.111 0.243,-1.211 c 0.133,-0.667 0.385,-1.212 0.56,-1.212 0.175,0 0.444,-0.585 0.596,-1.3 0.153,-0.715 0.417,-1.48 0.586,-1.7 0.169,-0.22 0.433,-0.987 0.586,-1.704 0.253,-1.181 0.919,-2.86 1.789,-4.509 0.178,-0.337 0.453,-1.204 0.612,-1.927 0.159,-0.723 0.54,-1.797 0.848,-2.387 0.308,-0.59 0.561,-1.467 0.563,-1.949 10e-4,-0.482 0.182,-0.988 0.402,-1.124 1.591,-0.984 -0.043,-6.869 -2.169,-7.811 -2.753,-1.22 -16.014,-2.104 -18.031,-1.203 m 38.301,1.014 c 0.004,0.88 0.086,1.193 0.182,0.695 0.096,-0.497 0.092,-1.217 -0.008,-1.6 -0.1,-0.382 -0.179,0.025 -0.174,0.905 m 31.099,-0.806 c -4.04,0.468 -8.4,1.662 -8.4,2.3 0,0.168 -0.233,0.306 -0.517,0.306 -1.671,0 -6.683,7.935 -7.706,12.2 -0.158,0.66 -0.459,1.418 -0.669,1.685 -0.763,0.971 -0.882,6.79 -0.16,7.891 0.821,1.254 3.749,2.624 5.606,2.624 0.77,0 1.51,0.18 1.646,0.4 0.305,0.493 11.663,0.546 11.966,0.056 0.117,-0.19 1.36,-0.437 2.763,-0.549 2.6,-0.209 5.836,-1.821 7.559,-3.767 0.641,-0.723 2.712,-4.36 2.712,-4.761 0,-0.099 -2.488,-0.179 -5.528,-0.179 h -5.528 l -1.344,1.2 c -1.262,1.126 -1.545,1.2 -4.623,1.2 -4.03,0 -4.475,-0.352 -3.941,-3.118 l 0.364,-1.882 10.847,-0.106 10.847,-0.107 0.684,-2.293 c 0.376,-1.262 0.868,-2.677 1.094,-3.145 0.514,-1.065 0.585,-5.729 0.093,-6.085 -0.201,-0.145 -0.56,-0.617 -0.799,-1.049 -0.815,-1.473 -3.018,-2.328 -7.366,-2.857 -4.849,-0.589 -4.183,-0.592 -9.6,0.036 m 42.336,-0.397 c -0.108,0.109 -1.164,0.381 -2.346,0.605 -1.182,0.224 -2.248,0.54 -2.37,0.703 -0.121,0.162 -0.82,0.61 -1.552,0.995 l -1.331,0.699 0.263,-1.199 0.264,-1.2 h -5.8 -5.8 l -0.27,1.227 c -0.148,0.675 -0.521,1.71 -0.829,2.3 -0.308,0.59 -0.561,1.388 -0.563,1.773 -10e-4,0.385 -0.166,0.7 -0.367,0.7 -0.201,0 -0.486,0.719 -0.635,1.598 -0.148,0.879 -0.434,1.699 -0.635,1.824 -0.201,0.124 -0.366,0.53 -0.367,0.902 -0.002,0.372 -0.255,1.159 -0.563,1.749 -0.308,0.59 -0.684,1.637 -0.835,2.327 -0.151,0.69 -0.527,1.737 -0.835,2.327 -0.308,0.59 -0.561,1.377 -0.563,1.749 -10e-4,0.372 -0.168,0.779 -0.371,0.905 -0.203,0.125 -0.49,0.778 -0.638,1.451 -0.148,0.672 -0.52,1.705 -0.828,2.295 -0.308,0.59 -0.561,1.352 -0.563,1.693 -0.001,0.341 -0.206,0.824 -0.455,1.073 -1.333,1.333 -0.116,1.707 5.54,1.704 l 5.513,-0.003 0.5,-1.077 c 0.275,-0.592 0.506,-1.266 0.514,-1.497 0.007,-0.231 0.361,-1.14 0.786,-2.02 0.425,-0.88 0.779,-1.827 0.786,-2.105 0.008,-0.278 0.18,-0.818 0.382,-1.2 0.202,-0.382 0.763,-1.865 1.245,-3.295 2.489,-7.374 3.596,-9.032 6.298,-9.438 2.27,-0.34 3.021,0.383 2.453,2.363 -0.796,2.775 -0.912,2.711 4.678,2.587 l 5.043,-0.112 0.957,-2.549 c 1.344,-3.577 1.327,-6.935 -0.041,-8.125 -1.616,-1.405 -5.882,-2.512 -6.665,-1.729 m -88.925,1.103 c -0.09,0.275 -0.35,5.18 -0.577,10.9 -0.228,5.72 -0.526,11.441 -0.662,12.713 -0.382,3.574 -0.603,3.487 8.872,3.487 8.273,0 9.756,-0.263 9.756,-1.731 0,-0.195 0.54,-1.036 1.2,-1.869 0.66,-0.833 1.2,-1.632 1.2,-1.774 0,-0.356 1.73,-2.795 2.1,-2.959 0.165,-0.074 0.3,-0.318 0.3,-0.543 0,-0.225 0.495,-1.065 1.1,-1.868 0.605,-0.803 1.28,-1.759 1.5,-2.126 0.22,-0.367 1.84,-2.762 3.6,-5.323 1.76,-2.561 3.38,-4.96 3.6,-5.33 0.22,-0.371 0.895,-1.33 1.5,-2.133 0.605,-0.803 1.1,-1.568 1.1,-1.702 0,-0.133 -2.659,-0.242 -5.909,-0.242 h -5.909 l -0.791,1.471 c -0.435,0.808 -0.971,1.671 -1.191,1.916 -0.22,0.246 -0.625,0.799 -0.9,1.23 -0.608,0.952 -2.947,4.773 -3.5,5.717 -0.22,0.375 -0.805,1.247 -1.3,1.936 -0.495,0.689 -0.9,1.38 -0.9,1.534 0,0.155 -0.54,0.963 -1.2,1.796 -0.66,0.833 -1.2,1.641 -1.2,1.794 0,0.154 -0.36,0.737 -0.8,1.297 l -0.8,1.017 v -2.63 c 0,-1.447 0.161,-2.73 0.358,-2.852 0.197,-0.122 0.488,-2.878 0.646,-6.124 0.159,-3.246 0.468,-6.125 0.687,-6.397 0.219,-0.272 0.294,-0.767 0.166,-1.1 -0.311,-0.811 -11.782,-0.911 -12.046,-0.105 m -52.391,5.871 c 0.209,0.205 1.01,0.43 1.78,0.5 1.302,0.12 1.409,0.234 1.524,1.629 l 0.124,1.5 h -5.224 c -2.873,0 -5.224,-0.154 -5.224,-0.342 0,-1.017 2.164,-2.575 3.839,-2.764 0.979,-0.11 1.876,-0.356 1.994,-0.547 0.278,-0.45 0.711,-0.441 1.187,0.024 m 102.4,0 c 0.209,0.205 1.01,0.43 1.78,0.5 1.302,0.12 1.409,0.234 1.524,1.629 l 0.124,1.5 h -5.224 c -2.873,0 -5.224,-0.161 -5.224,-0.359 0,-0.895 2.87,-2.841 4.19,-2.841 0.75,0 1.474,-0.18 1.61,-0.4 0.309,-0.5 0.728,-0.509 1.22,-0.029 m -138.881,5.978 c 1.825,1.515 -0.511,5.278 -3.592,5.787 -2.426,0.4 -11.747,0.312 -11.747,-0.112 0,-0.207 0.16,-0.476 0.356,-0.597 0.195,-0.121 0.473,-0.716 0.618,-1.323 0.144,-0.607 0.569,-1.884 0.944,-2.838 l 0.682,-1.734 6.039,0.134 c 4.367,0.097 6.221,0.286 6.7,0.683 m 70.6,4.313 c 2.308,0.618 0.309,3.724 -2.598,4.035 -1.067,0.114 -2.166,0.386 -2.441,0.604 -0.332,0.264 -0.668,0.257 -1.002,-0.019 -0.275,-0.229 -1.13,-0.476 -1.9,-0.549 -2.297,-0.218 -1.887,-3.593 0.492,-4.049 1.463,-0.281 6.426,-0.295 7.449,-0.022 m 101.011,2.844 c -0.247,0.162 -0.576,0.879 -0.732,1.594 l -0.282,1.3 h 1.64 c 1.581,0 1.631,0.039 1.394,1.1 -0.27,1.214 -1.662,5.103 -2.217,6.195 -0.786,1.547 -0.453,1.905 1.77,1.905 2.29,0 2.886,-0.675 3.708,-4.2 0.154,-0.66 0.39,-1.38 0.524,-1.6 0.135,-0.22 0.43,-1.03 0.656,-1.8 0.381,-1.3 0.538,-1.409 2.2,-1.525 2.075,-0.146 2.278,-0.292 2.768,-2.002 l 0.365,-1.273 -5.672,0.006 c -3.12,0.003 -5.874,0.138 -6.122,0.3 m 32.64,0.72 c -0.214,0.564 -0.39,1.114 -0.39,1.221 0,0.92 4.176,-0.16 4.438,-1.147 0.439,-1.648 -3.423,-1.719 -4.048,-0.074 m 5.074,0.875 c -0.404,1.045 -0.893,2.259 -1.086,2.699 -0.418,0.953 -2.389,6.628 -2.5,7.2 -0.155,0.795 3.705,0.719 3.969,-0.078 0.131,-0.397 0.489,-1.289 0.796,-1.982 0.306,-0.694 0.557,-1.538 0.557,-1.877 0,-0.339 0.164,-0.717 0.365,-0.841 0.201,-0.125 0.487,-0.945 0.635,-1.824 0.149,-0.879 0.404,-1.598 0.568,-1.598 0.163,0 0.483,-0.81 0.709,-1.8 l 0.412,-1.8 -1.844,0.001 c -1.83,0.002 -1.851,0.017 -2.581,1.9 m -23.973,0.388 c 0.71,0.088 1.97,0.09 2.8,0.003 0.83,-0.087 0.249,-0.159 -1.291,-0.161 -1.54,-0.002 -2.219,0.069 -1.509,0.158 m 10,0 c 0.71,0.088 1.97,0.09 2.8,0.003 0.83,-0.087 0.249,-0.159 -1.291,-0.161 -1.54,-0.002 -2.219,0.069 -1.509,0.158 m 22.614,-0.002 c 0.609,0.092 1.509,0.09 2,-0.005 0.492,-0.095 -0.005,-0.171 -1.105,-0.168 -1.1,0.003 -1.503,0.081 -0.895,0.173 m 8.81,0.009 c 1.273,0.08 3.253,0.079 4.4,-0.002 1.147,-0.08 0.105,-0.145 -2.315,-0.144 -2.42,0.001 -3.358,0.066 -2.085,0.146 m 12.385,-0.009 c 0.605,0.091 1.595,0.091 2.2,0 0.605,-0.092 0.11,-0.167 -1.1,-0.167 -1.21,0 -1.705,0.075 -1.1,0.167 m -51.5,0.913 c -0.136,0.22 -1.453,0.4 -2.927,0.4 -2.962,0 -3.322,0.262 -3.868,2.813 -0.164,0.763 -0.425,1.567 -0.581,1.787 -0.277,0.391 -1.224,3.443 -1.224,3.946 0,0.14 0.797,0.254 1.771,0.254 1.93,0 2.623,-0.791 3.241,-3.696 0.32,-1.505 1.251,-2.704 2.099,-2.704 0.474,0 0.492,0.114 0.093,0.595 -0.633,0.763 0.147,1.116 2.058,0.933 1.918,-0.184 2.651,-2.778 1.118,-3.957 -1.125,-0.865 -1.435,-0.929 -1.78,-0.371 m 6.27,0.282 c -1.967,0.697 -3.053,2.277 -2.047,2.977 0.499,0.348 0.5,0.432 0.005,0.629 -1.898,0.753 -3.127,3.834 -1.927,4.83 0.278,0.23 2.412,0.415 4.794,0.415 h 4.293 l 0.486,-1.666 c 0.268,-0.917 0.654,-1.782 0.857,-1.922 0.204,-0.14 0.393,-1.3 0.42,-2.577 l 0.049,-2.321 -1.4,-0.355 c -2.494,-0.633 -3.767,-0.635 -5.53,-0.01 m 37.108,-0.26 c -0.318,0.201 -1.681,0.369 -3.029,0.372 -2.744,0.007 -3.143,0.288 -3.558,2.506 -0.154,0.825 -0.424,1.5 -0.6,1.5 -0.177,0 -0.442,0.719 -0.591,1.598 -0.148,0.879 -0.434,1.699 -0.635,1.824 -1.094,0.676 -0.274,1.378 1.608,1.378 1.705,0 2.007,-0.122 2.225,-0.9 0.139,-0.495 0.413,-1.26 0.609,-1.7 0.197,-0.44 0.626,-1.475 0.955,-2.3 0.643,-1.615 1.438,-2.002 1.438,-0.7 0,1.48 2.984,1.115 3.771,-0.461 0.83,-1.665 0.814,-1.753 -0.493,-2.684 -0.764,-0.544 -1.307,-0.682 -1.7,-0.433 m -27.882,1.173 c -0.273,0.437 -0.497,1.022 -0.498,1.3 -0.002,0.278 -0.265,1.008 -0.586,1.622 -0.32,0.614 -0.699,1.739 -0.842,2.5 -0.142,0.761 -0.419,1.383 -0.615,1.383 -0.195,0 -0.355,0.279 -0.355,0.621 0,1.48 4.124,0.562 4.589,-1.021 0.226,-0.77 0.525,-1.58 0.664,-1.8 0.139,-0.22 0.385,-1.03 0.546,-1.8 0.161,-0.77 0.425,-1.58 0.585,-1.8 1.043,-1.43 0.816,-1.8 -1.1,-1.8 -1.454,0 -2.006,0.184 -2.388,0.795 m 10.781,0.395 c -0.592,0.654 -1.415,2.279 -1.827,3.609 l -0.75,2.42 0.911,0.791 c 2.251,1.952 8.832,0.599 9.449,-1.943 0.143,-0.587 0.503,-1.422 0.8,-1.856 0.669,-0.978 0.703,-3.088 0.06,-3.731 -1.126,-1.126 -7.451,-0.606 -8.643,0.71 m 21.385,-0.277 c -1.152,0.99 -1.522,3.635 -0.562,4.022 0.275,0.111 0.101,0.216 -0.386,0.233 -1.905,0.068 -2.147,3.008 -0.286,3.475 5.477,1.374 11.81,-2.445 8.892,-5.363 -0.373,-0.373 -0.34,-0.48 0.151,-0.48 1.059,0 1.651,-1.024 1.143,-1.974 -0.695,-1.298 -7.416,-1.233 -8.952,0.087 M 323.2,231.358 c 0,0.087 0.705,0.225 1.566,0.307 0.862,0.083 1.481,0.011 1.377,-0.158 -0.19,-0.307 -2.943,-0.447 -2.943,-0.149 m 28,1.671 c 0,0.755 -1.08,1.248 -1.716,0.783 -0.37,-0.27 -0.554,-0.608 -0.411,-0.752 0.321,-0.32 2.127,-0.347 2.127,-0.031 m 43,0.171 c 0.148,0.24 -0.361,0.398 -1.276,0.394 -1.131,-0.005 -1.369,-0.106 -0.924,-0.394 0.782,-0.506 1.888,-0.506 2.2,0 m -21.5,0.276 c -0.385,0.1 -1.015,0.1 -1.4,0 -0.385,-0.101 -0.07,-0.183 0.7,-0.183 0.77,0 1.085,0.082 0.7,0.183 m -135.542,2.157 c -0.089,1.18 0.12,2.978 0.376,3.248 0.146,0.154 0.244,-0.528 0.218,-1.515 -0.045,-1.672 -0.5,-2.998 -0.594,-1.733 m 103.32,0.242 c 1.409,0.163 1.486,0.249 1.644,1.848 l 0.166,1.677 -0.044,-1.8 -0.044,-1.8 -1.6,-0.048 -1.6,-0.047 1.478,0.17 m 43.027,0.008 c 0.497,0.096 1.217,0.092 1.6,-0.008 0.382,-0.1 -0.025,-0.179 -0.905,-0.174 -0.88,0.004 -1.193,0.086 -0.695,0.182 m -34.003,0.617 c -0.09,0.275 -0.68,0.56 -1.31,0.634 -1.007,0.118 -1.082,0.057 -0.62,-0.5 0.625,-0.753 2.169,-0.86 1.93,-0.134 m 22,0 c -0.191,0.579 -1.902,0.934 -1.902,0.394 0,-0.571 0.47,-0.894 1.3,-0.894 0.434,0 0.695,0.217 0.602,0.5 m 21.601,0 c -0.188,0.572 -2.703,0.937 -2.703,0.392 0,-0.629 0.502,-0.892 1.7,-0.892 0.754,0 1.109,0.177 1.003,0.5 m -277.001,1.9 c 0.138,0.503 1.286,0.602 7.131,0.615 l 6.967,0.016 -6.783,-0.126 c -4.771,-0.088 -6.885,-0.27 -7.13,-0.615 -0.252,-0.354 -0.303,-0.324 -0.185,0.11 m 35.598,0.676 c 0.385,0.1 1.015,0.1 1.4,0 0.385,-0.101 0.07,-0.183 -0.7,-0.183 -0.77,0 -1.085,0.082 -0.7,0.183 m 69.8,0.023 c 2.695,0.069 7.105,0.069 9.8,0 2.695,-0.069 0.49,-0.126 -4.9,-0.126 -5.39,0 -7.595,0.057 -4.9,0.126 m -10.6,0.388 c 0.605,0.091 1.595,0.091 2.2,0 0.605,-0.092 0.11,-0.167 -1.1,-0.167 -1.21,0 -1.705,0.075 -1.1,0.167 m 137.8,1.202 c 0.715,0.089 1.885,0.089 2.6,0 0.715,-0.088 0.13,-0.161 -1.3,-0.161 -1.43,0 -2.015,0.073 -1.3,0.161 m 11.2,0 c 0.715,0.089 1.885,0.089 2.6,0 0.715,-0.088 0.13,-0.161 -1.3,-0.161 -1.43,0 -2.015,0.073 -1.3,0.161"
       id="path2" />
  </g>
</svg>
