<svg id="svg" version="1.1" xmlns="http://www.w3.org/2000/svg"  width="400" height="400" viewBox="0, 0, 400,400"><g id="svgg"><path id="path0" d="M22.932 164.680 C 22.779 165.089,19.602 173.808,15.873 184.054 L 9.093 202.683 27.715 202.683 L 46.338 202.683 47.691 198.957 C 48.436 196.908,49.171 194.896,49.325 194.486 C 49.544 193.906,47.067 193.741,38.151 193.741 L 26.696 193.741 27.100 192.134 C 27.321 191.251,27.873 189.641,28.326 188.558 L 29.149 186.587 39.604 186.587 L 50.059 186.587 50.978 184.387 C 51.484 183.176,52.051 181.573,52.239 180.824 L 52.581 179.462 42.154 179.299 L 31.726 179.136 32.894 176.006 L 34.062 172.876 45.295 172.876 L 56.528 172.876 58.070 168.840 C 58.918 166.620,59.613 164.608,59.613 164.369 C 59.613 163.544,23.242 163.853,22.932 164.680 M67.194 166.374 C 62.881 167.389,59.053 170.330,58.149 173.323 C 57.488 175.510,68.054 175.378,70.097 173.174 C 71.243 171.938,72.028 171.684,74.712 171.684 C 78.975 171.684,79.524 172.382,78.291 176.237 L 77.336 179.223 75.204 178.136 C 65.963 173.425,51.863 179.901,51.863 188.856 C 51.863 194.238,61.935 196.091,70.251 192.238 L 73.334 190.810 72.960 192.299 L 72.586 193.787 78.109 193.615 L 83.633 193.443 86.868 184.799 C 92.130 170.744,91.767 167.669,84.686 166.326 C 80.874 165.603,70.345 165.631,67.194 166.374 M104.871 166.325 C 92.673 168.390,84.009 187.983,93.547 191.934 C 96.447 193.135,104.688 192.527,107.821 190.881 L 110.426 189.512 110.030 191.179 C 108.832 196.214,101.274 199.549,98.148 196.423 C 97.484 195.760,95.858 195.529,91.846 195.529 L 86.438 195.529 86.438 197.512 C 86.438 205.884,112.855 205.455,118.771 196.987 C 120.002 195.225,130.551 167.980,130.551 166.563 C 130.551 165.258,119.210 166.469,118.874 167.809 C 118.424 169.602,118.324 169.617,116.738 168.140 C 115.548 167.031,110.751 165.645,108.614 165.793 C 108.057 165.831,106.372 166.071,104.871 166.325 M143.579 166.307 C 135.623 167.306,132.077 170.076,128.858 177.808 C 123.202 191.393,125.258 193.974,141.461 193.633 C 152.899 193.393,159.762 190.158,159.762 185.007 C 159.762 183.325,149.354 183.934,147.567 185.721 C 144.350 188.938,136.982 187.164,137.927 183.401 L 138.324 181.818 149.584 181.818 L 160.844 181.818 162.091 178.126 C 165.490 168.060,159.596 164.297,143.579 166.307 M186.183 166.265 C 185.140 166.530,183.314 167.321,182.125 168.023 C 179.405 169.628,179.341 169.621,180.038 167.788 L 180.613 166.276 174.813 166.446 L 169.013 166.617 166.417 173.770 C 164.989 177.705,162.781 183.808,161.511 187.332 L 159.201 193.741 165.071 193.741 L 170.941 193.741 173.496 186.438 C 177.591 174.733,179.100 172.555,182.823 172.982 C 184.390 173.162,184.493 173.341,184.388 175.708 L 184.275 178.241 189.241 178.241 L 194.207 178.241 195.166 175.845 C 198.135 168.425,194.198 164.226,186.183 166.265 M115.269 173.322 C 116.948 174.316,113.373 183.807,110.823 185.126 C 107.166 187.017,101.937 186.117,101.937 183.596 C 101.937 175.823,109.567 169.943,115.269 173.322 M150.483 172.862 C 151.567 173.274,152.012 173.881,152.012 174.948 C 152.012 176.452,152.007 176.453,146.349 176.453 C 140.472 176.453,139.724 176.077,141.891 174.212 C 144.006 172.392,147.714 171.809,150.483 172.862 M74.169 182.776 C 75.550 183.306,75.319 185.779,73.787 186.851 C 72.250 187.928,64.687 188.159,64.063 187.149 C 62.186 184.113,69.455 180.967,74.169 182.776 M130.277 211.177 C 127.396 219.128,124.268 227.727,123.327 230.286 L 121.615 234.940 139.049 234.757 L 156.483 234.575 159.552 232.956 C 167.028 229.014,170.655 218.446,165.133 216.694 C 163.587 216.203,163.602 215.387,165.166 214.891 C 171.155 212.990,175.281 203.029,171.603 199.350 C 169.353 197.100,166.692 196.777,150.172 196.747 L 135.515 196.721 130.277 211.177 M158.617 206.614 C 159.628 207.832,158.354 210.351,156.167 211.458 C 154.530 212.286,143.666 212.523,143.666 211.731 C 143.666 211.461,144.094 209.986,144.616 208.452 L 145.567 205.663 151.697 205.663 C 156.582 205.663,157.988 205.856,158.617 206.614 M186.576 208.073 C 176.857 208.954,169.593 217.590,169.146 228.795 C 168.773 238.155,194.993 237.856,200.194 228.441 L 201.580 225.931 196.170 225.931 C 191.607 225.931,190.579 226.113,189.601 227.090 C 185.937 230.755,178.974 228.787,180.587 224.543 L 181.193 222.951 191.868 222.951 C 203.991 222.951,202.374 223.722,204.171 217.079 C 206.210 209.537,200.824 206.780,186.576 208.073 M218.376 208.034 C 213.652 209.045,209.240 212.528,209.240 215.247 C 209.240 217.223,218.655 216.937,220.566 214.903 C 222.266 213.094,228.074 212.684,228.704 214.328 C 228.992 215.077,227.876 220.566,227.436 220.566 C 227.365 220.566,226.451 220.139,225.404 219.617 C 215.837 214.844,200.344 223.313,203.139 231.788 C 204.376 235.540,214.388 236.608,220.407 233.629 L 223.521 232.088 223.165 233.505 L 222.809 234.922 228.047 234.749 L 233.284 234.575 236.472 225.931 C 241.127 213.311,241.218 210.990,237.140 208.881 C 234.939 207.743,222.383 207.176,218.376 208.034 M289.017 208.056 C 280.491 208.871,277.097 211.647,273.627 220.646 C 268.974 232.710,270.820 235.130,284.650 235.097 C 294.464 235.073,296.918 234.400,300.595 230.723 C 304.841 226.476,304.551 225.931,298.044 225.931 C 293.823 225.931,292.586 226.123,292.319 226.820 C 291.555 228.812,283.951 229.483,282.823 227.658 C 282.615 227.322,282.618 226.125,282.829 224.999 L 283.213 222.951 294.117 222.951 L 305.021 222.951 306.013 219.383 C 307.515 213.980,307.340 212.013,305.199 210.211 C 302.666 208.080,296.861 207.307,289.017 208.056 M329.955 208.011 C 328.972 208.251,327.032 209.031,325.646 209.744 L 323.125 211.040 323.694 209.544 L 324.263 208.048 318.751 208.048 L 313.239 208.048 308.447 221.311 L 303.656 234.575 309.006 234.748 C 315.299 234.951,314.439 235.829,318.071 225.494 C 321.081 216.927,322.785 214.605,326.062 214.605 C 328.022 214.605,328.668 215.781,327.867 217.889 L 327.302 219.374 332.299 219.374 L 337.295 219.374 338.245 216.585 C 340.634 209.575,337.369 206.198,329.955 208.011 M242.997 209.687 C 242.823 210.589,242.518 215.887,242.320 221.461 C 242.122 227.034,241.820 232.332,241.648 233.234 L 241.336 234.873 250.176 234.849 L 259.016 234.824 267.660 221.986 C 272.414 214.925,276.393 208.901,276.503 208.598 C 276.616 208.286,274.295 208.059,271.138 208.074 L 265.574 208.100 259.037 218.477 C 255.442 224.184,252.451 228.800,252.391 228.734 C 252.331 228.668,252.732 223.987,253.283 218.331 L 254.285 208.048 248.799 208.048 L 243.314 208.048 242.997 209.687 M192.588 214.626 C 196.037 216.472,194.012 218.182,188.376 218.182 C 182.799 218.182,182.068 217.788,184.216 215.941 C 186.325 214.125,190.444 213.479,192.588 214.626 M295.121 214.626 C 298.663 216.522,296.548 218.182,290.590 218.182 C 285.017 218.182,284.919 218.158,285.570 216.941 C 286.849 214.552,292.447 213.195,295.121 214.626 M153.243 219.991 C 155.318 221.102,154.600 224.295,151.969 225.655 C 150.468 226.432,138.301 227.010,138.301 226.304 C 138.301 226.115,139.479 222.606,140.379 220.119 C 140.717 219.185,151.536 219.077,153.243 219.991 M225.213 225.666 C 225.583 228.257,221.224 230.100,216.725 229.256 C 214.166 228.776,213.762 226.594,215.946 225.052 C 218.067 223.555,224.976 224.013,225.213 225.666 M324.997 228.614 C 324.355 230.022,324.416 230.104,326.093 230.104 C 328.187 230.104,328.192 230.135,326.750 233.979 C 324.561 239.811,324.557 239.642,326.886 239.642 C 328.953 239.642,328.971 239.619,330.551 234.873 C 332.110 230.192,332.176 230.104,334.113 230.104 C 335.946 230.104,336.811 229.324,336.811 227.671 C 336.811 226.187,325.699 227.074,324.997 228.614 M358.669 227.521 C 357.654 228.535,358.342 229.579,359.905 229.399 C 362.052 229.151,362.583 227.124,360.501 227.124 C 359.712 227.124,358.887 227.303,358.669 227.521 M361.783 233.071 C 359.506 239.361,359.498 239.642,361.583 239.642 C 362.716 239.642,363.219 238.794,365.060 233.782 C 367.637 226.768,367.609 227.123,365.574 227.125 C 364.039 227.126,363.797 227.506,361.783 233.071 M334.560 234.575 C 332.872 239.413,332.891 239.762,334.826 239.533 C 336.149 239.376,336.585 238.842,337.410 236.364 C 338.290 233.723,340.387 231.802,340.387 233.637 C 340.387 234.824,343.267 234.343,343.664 233.090 C 344.271 231.179,343.565 230.775,339.615 230.775 L 335.887 230.775 334.560 234.575 M346.061 231.881 C 345.026 233.025,345.038 233.081,346.416 233.632 C 347.801 234.186,347.804 234.203,346.532 234.239 C 345.108 234.281,343.368 236.320,343.368 237.946 C 343.368 239.239,344.572 239.559,348.982 239.440 L 352.509 239.344 353.658 235.897 C 355.218 231.215,354.919 230.700,350.633 230.700 C 347.898 230.700,346.895 230.959,346.061 231.881 M356.030 234.426 C 354.299 239.255,354.324 239.766,356.281 239.533 C 357.595 239.377,358.040 238.833,358.876 236.364 C 360.925 230.313,360.913 230.700,359.051 230.700 C 357.524 230.700,357.241 231.050,356.030 234.426 M368.449 231.744 C 365.241 234.357,365.073 238.814,368.161 239.394 C 371.442 240.009,376.166 238.126,375.212 236.582 C 374.753 235.841,372.341 235.945,371.545 236.741 C 370.748 237.538,368.757 236.944,369.297 236.070 C 369.501 235.740,371.098 235.469,372.847 235.469 C 376.256 235.469,377.813 233.592,376.108 231.538 C 375.093 230.314,370.037 230.450,368.449 231.744 M377.794 234.762 C 376.157 239.175,376.196 239.642,378.202 239.642 C 379.327 239.642,379.790 239.064,380.705 236.520 C 381.431 234.500,382.219 233.322,382.937 233.184 C 383.625 233.051,383.893 233.218,383.642 233.624 C 383.383 234.043,383.891 234.277,385.062 234.277 C 386.682 234.277,386.885 234.082,386.885 232.526 L 386.885 230.775 383.079 230.775 L 379.273 230.775 377.794 234.762 M389.299 231.864 C 386.920 234.242,387.964 236.066,391.703 236.066 C 392.660 236.066,393.443 236.353,393.443 236.705 C 393.443 237.131,392.354 237.208,390.164 236.934 C 387.147 236.557,386.885 236.619,386.885 237.716 C 386.885 239.710,391.561 240.338,394.622 238.755 C 398.037 236.989,397.414 233.681,393.668 233.681 C 392.560 233.681,391.654 233.404,391.654 233.064 C 391.654 232.668,392.738 232.591,394.695 232.851 C 397.466 233.219,397.717 233.154,397.521 232.126 C 397.186 230.371,390.989 230.173,389.299 231.864 M351.118 233.383 C 351.118 233.875,350.597 234.277,349.961 234.277 C 348.574 234.277,347.823 233.311,348.879 232.885 C 350.302 232.311,351.118 232.492,351.118 233.383 M349.925 236.662 C 349.925 236.990,349.255 237.258,348.435 237.258 C 347.615 237.258,346.945 236.990,346.945 236.662 C 346.945 236.334,347.615 236.066,348.435 236.066 C 349.255 236.066,349.925 236.334,349.925 236.662 " stroke="none" fill-rule="evenodd"></path></g></svg>