<?xml version="1.0" encoding="UTF-8" standalone="no"?>
<svg
   xmlns="http://www.w3.org/2000/svg"
   viewBox="0, 0, 400,400"
   height="400"
   width="400"
   version="1.1"
   id="svg">
  <g
     id="svgg">
    <path
       style="fill-rule:evenodd;stroke:none;stroke-width:3.70461059"
       d="m 4.9530261,200 v 161.35061 l 88.5809439,-0.0185 c 100.78023,-0.0259 90.84076,0.66683 90.84076,-6.30525 0,-2.51543 0.28896,-4.74931 0.6446,-4.97159 0.37416,-0.22968 0.6446,-3.75647 0.6446,-8.38724 0,-4.63446 0.27044,-8.16125 0.6446,-8.39094 0.36306,-0.22598 0.64831,-3.30081 0.64831,-7.00912 0,-3.63423 0.27044,-6.88687 0.60385,-7.22399 0.33342,-0.33712 0.69647,-1.91899 0.80761,-3.51568 l 0.20005,-2.90441 h 10.00615 10.00245 l 0.18523,6.76832 c 0.10373,3.72313 0.46678,7.04987 0.8076,7.3907 0.34083,0.34082 0.61867,4.17509 0.61867,8.5206 0,4.57149 0.27414,8.06864 0.64831,8.29833 0.37046,0.22969 0.6446,3.6935 0.6446,8.1983 0,6.6683 0.16301,7.92046 1.12991,8.65397 0.92615,0.70018 17.29312,0.85947 91.00005,0.878 l 89.87386,0.0185 V 201.74487 c 0,-120.033087 0.18523,-159.794672 0.74462,-160.357773 2.65621,-2.652501 1.31514,-2.737707 -43.26244,-2.737707 h -42.36222 l -0.89281,2.09681 c -0.49272,1.155838 -1.65226,3.100759 -2.57841,4.326985 -2.04865,2.711775 -7.57593,10.70262 -16.31881,23.587255 -3.612,5.323526 -7.91675,11.425019 -9.56531,13.55517 -1.64855,2.130152 -5.36798,7.357357 -8.26869,11.617659 -2.90071,4.256598 -6.73127,9.776471 -8.51319,12.262261 -1.78192,2.48209 -5.26796,7.42034 -7.75005,10.96935 -2.47838,3.55272 -6.54604,9.36155 -9.03184,12.91057 -2.48579,3.54902 -6.5942,9.50233 -9.13186,13.22916 -2.53396,3.72684 -6.23857,8.94293 -8.22794,11.58432 -1.98567,2.64509 -5.35687,7.33143 -7.48702,10.41366 -7.93157,11.47318 -13.31437,19.06022 -15.34079,21.62011 -1.14843,1.4485 -3.02297,3.98987 -4.16769,5.64583 -2.86366,4.14175 -3.78241,3.91577 -7.94639,-1.9264 -1.93751,-2.71919 -4.43442,-6.16447 -5.54951,-7.65743 -1.11138,-1.48925 -4.37885,-6.16447 -7.25733,-10.38402 -4.70115,-6.89058 -7.09803,-10.34328 -16.69668,-24.0244 -1.50778,-2.14868 -2.74141,-4.1751 -2.74141,-4.50111 0,-0.3223 -1.11138,-1.86342 -2.46727,-3.42306 -1.35959,-1.55593 -3.67127,-4.57519 -5.1383,-6.70534 -1.46702,-2.13015 -3.25264,-4.59742 -3.97134,-5.48653 -0.71499,-0.8854 -1.31514,-1.90417 -1.32995,-2.25981 -0.0185,-0.35194 -0.61867,-1.37071 -1.33737,-2.25611 -1.37441,-1.69671 -6.1052,-8.45763 -17.38203,-24.850528 C 125.78631,93.577651 120.5591,86.027655 117.89919,82.211906 99.542849,55.927694 88.855047,40.138643 88.855047,39.312515 c 0,-0.444553 -13.762628,-0.663125 -41.95101,-0.663125 H 4.9530261 V 200 m 194.5179939,6.61643 c 0.31859,2.63028 1.04099,11.59914 1.25586,15.65198 0.10002,1.8412 -0.0333,1.94492 -2.68584,2.13386 l -2.79328,0.20375 0.45937,-7.62408 c 0.25562,-4.19362 0.54458,-8.05753 0.64831,-8.591 0.10002,-0.53346 0.20375,-1.7671 0.23339,-2.74141 0.0852,-3.17115 2.47838,-2.36725 2.88219,0.9669 m 1.97455,24.79496 c 0.2408,0.94838 0.69647,5.3791 1.02248,9.84315 0.3223,4.46776 0.77796,9.78758 1.01506,11.82883 l 0.43344,3.71202 h -5.57544 -5.57544 l 0.0185,-1.77451 c 0.0296,-2.78217 1.18548,-18.18594 1.64855,-21.94241 l 0.41492,-3.38972 h 3.08594 c 2.80069,0 3.11928,0.15559 3.51197,1.72264 m 3.06001,36.67935 c 0.24451,1.77451 0.76315,7.58334 1.15213,12.90687 0.38899,5.32723 0.8817,11.64359 1.08916,14.03677 l 0.38158,4.35662 h -9.05778 -9.05777 l 0.2445,-2.41911 c 0.36676,-3.70461 1.48185,-17.86364 1.91158,-24.36523 0.58163,-8.72065 0.0741,-8.14273 6.97208,-7.92786 l 5.91626,0.18523 0.44826,3.22671"
       id="path0" />
    <path
       style="fill-rule:evenodd;stroke:none"
       d="m 144.859,160.54 c 0,23.955 0.02,33.729 0.045,21.72 0.025,-12.009 0.025,-31.609 0,-43.554 -0.025,-11.946 -0.045,-2.121 -0.045,21.834 m 105.053,0.436 c 0,23.715 0.02,33.416 0.044,21.559 0.025,-11.858 0.025,-31.261 0,-43.119 -0.024,-11.857 -0.044,-2.156 -0.044,21.56 m -55.418,30.211 c -0.054,0.141 -0.062,0.398 -0.017,0.571 0.054,0.206 0.089,0.15 0.102,-0.164 l 0.02,-0.479 h 2.607 2.606 l 0.062,1.524 0.062,1.525 -0.012,-1.568 -0.011,-1.568 -2.661,-0.048 c -2.209,-0.04 -2.677,-0.005 -2.758,0.207 m -0.356,3.151 c 0,0.862 0.029,1.237 0.066,0.833 0.036,-0.405 0.037,-1.11 0.001,-1.568 -0.036,-0.458 -0.066,-0.127 -0.067,0.735 m 6.101,2.439 c 0.001,1.054 0.029,1.463 0.064,0.908 0.035,-0.554 0.035,-1.417 -0.001,-1.916 -0.035,-0.5 -0.063,-0.046 -0.063,1.008 m -6.446,1.742 c 0.001,1.054 0.029,1.463 0.064,0.908 0.035,-0.554 0.035,-1.416 -0.001,-1.916 -0.035,-0.499 -0.063,-0.046 -0.063,1.008 m 6.795,2.788 c 0,1.054 0.029,1.462 0.064,0.908 0.034,-0.555 0.034,-1.417 -10e-4,-1.916 -0.035,-0.5 -0.064,-0.046 -0.063,1.008 m -7.154,0.871 c 0.001,0.575 0.033,0.789 0.072,0.476 0.039,-0.313 0.038,-0.784 -0.002,-1.046 -0.039,-0.261 -0.071,-0.005 -0.07,0.57 m -36.509,2.134 c 6.54,0.025 17.241,0.025 23.781,0 6.539,-0.025 1.189,-0.046 -11.891,-0.046 -13.079,0 -18.43,0.021 -11.89,0.046 m 56.62,0 c 6.636,0.025 17.494,0.025 24.129,0 6.636,-0.025 1.207,-0.046 -12.064,-0.046 -13.271,0 -18.7,0.021 -12.065,0.046"
       id="path1" />
  </g>
</svg>
