<?xml version="1.0" encoding="UTF-8" standalone="no"?>
<svg
   xmlns="http://www.w3.org/2000/svg"
   version="1.1"
   viewBox="0, 0, 400,400"
   height="400"
   width="400"
   id="svg">
  <g
     id="svgg">
    <path
       style="fill-rule:evenodd;stroke:none;stroke-width:3.15697217"
       d="M 162.08747,51.30654 C 14.694757,72.344602 -46.69888,217.4643 55.969011,302.15007 157.24152,385.68671 336.79431,356.28583 384.37304,248.38052 432.39058,139.48077 309.24341,30.303204 162.08747,51.30654 m 74.94968,9.931834 C 398.58572,87.532795 439.26962,248.9109 301.7677,318.00123 189.64784,374.3374 36.59783,322.89138 15.802854,221.87459 -4.1934071,124.74718 111.4307,40.793822 237.03715,61.238374 M 128.58568,84.375823 c -4.2114,2.219351 -6.24449,5.09851 -6.24449,8.845835 0,3.324292 -1.3133,5.553114 -3.27693,5.553114 -1.80579,0 -5.08904,3.059108 -7.29577,6.800118 -2.74025,4.63759 -6.45285,7.25788 -11.66817,8.23654 -9.391988,1.76159 -10.945218,5.21532 -6.339196,14.12114 4.224029,8.16708 9.868696,10.40853 18.206256,7.23893 19.53219,-7.42519 23.53523,1.77422 15.75645,36.21679 -2.92336,12.94358 -3.17276,18.1589 -1.18386,24.7917 1.38275,4.61865 3.20117,24.33078 4.04092,43.79983 l 1.52797,35.40229 -7.29892,6.5223 c -10.33277,9.23099 -1.72686,21.27799 15.19767,21.27799 6.82537,0 15.62385,-18.72084 16.01216,-34.06688 0.65665,-26.12395 10.41485,-49.9654 20.44771,-49.96856 3.33376,0 11.43771,-2.04572 18.01053,-4.54288 12.68155,-4.8207 27.79713,-6.05507 27.79713,-2.26986 0,1.25016 1.78685,2.29827 3.97463,2.32984 2.40246,0.0347 5.65414,3.69997 8.22392,9.27203 2.45296,5.31634 8.21128,11.95545 13.62864,15.70594 20.79182,14.40842 21.86835,15.64595 21.86835,25.12634 0,6.12137 -1.43011,10.15598 -4.54288,12.82362 -5.1364,4.39766 -5.84356,9.75504 -1.81842,13.78018 7.381,7.381 19.98679,-3.64315 19.98679,-17.477 0,-11.13464 3.86729,-14.06115 9.45198,-7.16001 5.60678,6.92008 5.26583,15.69015 -0.8587,22.2093 -6.04876,6.44022 -3.52318,12.7005 5.5689,13.79597 9.36989,1.13019 16.17632,-9.41725 14.37054,-22.26928 -0.78925,-5.62257 -2.06151,-14.65783 -2.82865,-20.0815 -1.32277,-9.36043 -1.11757,-9.83397 4.05355,-9.40147 16.15738,1.36066 14.99562,-4.83648 -2.07413,-11.06203 -19.24806,-7.01795 -23.01748,-12.02806 -25.22736,-33.54914 -4.04409,-39.3485 -10.72424,-44.3523 -62.28391,-46.65373 -43.57884,-1.9447 -51.14926,-5.13955 -55.78369,-23.54154 -4.90594,-19.48168 -28.19177,-58.741785 -32.82304,-55.335412 -0.17995,0.132593 -3.13803,1.72055 -6.57598,3.529495"
       id="path0" />
  </g>
</svg>
