<svg id="svg" xmlns="http://www.w3.org/2000/svg"  width="400" height="400" viewBox="0, 0, 400,400"><g id="svgg"><path id="path0" d="M168.987 66.660 C 96.746 75.374,40.215 105.223,14.018 148.484 C 10.062 155.017,10.042 155.014,29.259 150.758 C 89.124 137.499,175.887 128.444,185.128 134.490 C 191.316 138.539,191.394 140.112,190.406 240.036 L 189.488 332.911 199.777 332.911 L 210.066 332.911 209.368 237.658 C 208.601 132.836,208.251 137.937,216.485 133.899 C 226.812 128.833,303.008 136.865,363.842 149.432 C 377.025 152.155,387.999 154.195,388.228 153.966 C 389.535 152.659,374.132 132.152,365.244 123.364 C 323.669 82.254,240.036 58.090,168.987 66.660 M116.456 160.782 C 69.718 164.286,9.037 173.397,2.991 177.818 C -0.665 180.492,-1.042 206.247,2.365 220.533 C 11.960 260.758,48.521 295.887,101.266 315.562 C 113.490 320.121,134.064 325.852,134.967 324.949 C 136.518 323.398,150.351 258.966,157.595 219.552 C 168.528 160.067,166.407 157.037,116.456 160.782 M248.540 160.945 C 236.663 163.612,233.940 171.450,237.321 193.236 C 242.632 227.460,262.237 322.021,264.528 324.463 C 265.931 325.959,290.700 318.552,306.333 311.961 C 370.081 285.085,406.831 234.840,398.765 185.587 C 397.288 176.565,398.166 177.449,388.420 175.175 C 347.409 165.606,265.082 157.231,248.540 160.945 " stroke="none" fill-rule="evenodd"></path></g></svg>