<svg id="svg" xmlns="http://www.w3.org/2000/svg"  width="400" height="400" viewBox="0, 0, 400,400"><g id="svgg"><path id="path0" d="M183.707 128.405 C 93.253 131.271,21.147 157.185,9.874 190.878 C -2.547 228.005,62.812 262.487,160.293 270.234 C 279.215 279.686,391.669 245.550,391.669 200.000 C 391.669 157.975,295.488 124.863,183.707 128.405 M213.951 134.635 C 322.536 137.817,399.194 172.881,381.070 211.075 C 364.365 246.276,270.918 270.257,171.805 264.776 C 71.895 259.252,3.219 225.779,18.487 190.049 C 32.910 156.297,119.121 131.856,213.951 134.635 M183.024 140.100 C 84.215 143.701,13.880 172.906,23.732 206.244 C 30.952 230.675,83.531 251.651,153.561 258.039 C 266.421 268.333,377.173 239.595,377.228 200.000 C 377.271 169.591,312.824 144.805,221.951 140.279 C 216.587 140.012,188.930 139.884,183.024 140.100 M160.780 152.982 C 167.993 153.484,173.228 154.175,187.317 156.483 C 217.902 161.494,232.435 161.899,250.356 158.239 C 254.400 157.413,255.254 157.511,255.826 158.869 C 257.976 163.966,247.681 171.001,235.902 172.482 C 226.533 173.661,216.886 172.323,199.317 167.408 C 196.956 166.747,192.654 165.605,189.756 164.870 L 184.488 163.534 184.381 164.404 C 184.309 164.991,184.137 165.369,183.854 165.568 C 178.185 169.539,171.023 175.961,167.587 180.154 C 165.755 182.389,162.927 186.496,162.927 186.920 C 162.927 187.189,164.361 187.157,172.098 186.718 C 176.847 186.448,176.390 186.680,176.393 184.533 C 176.400 178.740,180.924 173.950,185.558 174.829 C 192.344 176.116,191.023 185.799,183.652 188.795 C 181.979 189.475,182.039 189.598,185.242 192.057 C 186.391 192.940,185.964 194.476,184.466 194.852 C 183.465 195.103,179.553 192.646,178.363 191.019 L 177.897 190.382 175.436 190.507 C 171.312 190.718,160.260 191.838,159.525 192.120 C 159.366 192.181,158.077 194.132,156.659 196.457 C 136.406 229.672,125.780 239.280,109.268 239.308 C 95.077 239.332,86.287 229.432,88.482 215.898 C 90.008 206.491,99.045 197.468,107.024 197.384 C 110.322 197.350,112.118 200.357,109.694 201.854 C 105.318 204.554,103.184 206.280,101.543 208.446 C 95.196 216.821,100.504 226.909,110.923 226.276 C 118.652 225.807,125.882 221.025,135.607 209.951 C 140.465 204.420,148.140 194.306,147.765 193.931 C 146.891 193.057,140.506 194.946,137.228 197.048 C 134.698 198.671,133.464 198.784,132.777 197.457 C 131.127 194.266,137.681 190.811,149.073 188.865 C 153.392 188.128,152.469 188.829,156.888 182.927 C 163.824 173.662,170.074 167.810,177.268 163.844 C 179.189 162.785,179.681 162.280,178.987 162.077 C 177.318 161.588,164.283 159.372,160.247 158.890 C 140.754 156.564,124.905 162.866,122.901 173.738 C 121.060 183.731,134.438 183.447,142.424 173.324 C 144.828 170.277,144.764 170.341,145.390 170.341 C 150.176 170.341,143.532 182.946,135.918 188.311 C 125.023 195.987,112.185 191.565,111.474 179.892 C 110.620 165.876,125.369 154.619,146.829 152.908 C 148.766 152.754,158.226 152.804,160.780 152.982 M183.080 178.725 C 180.928 180.038,179.496 185.171,181.283 185.171 C 182.413 185.171,184.713 183.335,185.481 181.819 C 186.761 179.293,185.280 177.384,183.080 178.725 M312.357 178.664 C 313.043 178.847,313.269 178.463,303.961 192.888 C 280.821 228.750,279.888 230.377,281.380 232.268 C 283.709 235.219,288.229 232.669,298.368 222.683 C 301.119 219.973,303.490 217.757,303.636 217.758 C 303.993 217.761,306.732 220.257,306.732 220.580 C 306.732 221.971,294.962 233.675,290.397 236.824 C 281.179 243.182,272.304 242.306,271.307 234.940 C 271.038 232.950,270.927 232.936,269.031 234.650 C 259.263 243.481,247.993 242.047,245.129 231.610 C 244.849 230.590,244.783 229.623,244.795 226.683 C 244.812 222.572,244.838 222.632,243.450 223.584 C 234.930 229.430,226.422 227.334,225.012 219.043 C 224.837 218.013,224.603 217.171,224.493 217.171 C 224.279 217.172,221.663 221.161,214.766 232.000 C 212.410 235.702,210.304 238.929,210.085 239.171 C 209.559 239.752,199.558 239.875,199.338 239.302 C 199.188 238.910,199.368 238.605,204.848 229.951 C 217.562 209.874,219.108 206.589,216.373 205.456 C 213.103 204.102,203.102 213.249,194.926 225.073 C 189.963 232.250,184.706 236.929,179.220 239.052 C 170.427 242.456,161.723 239.051,158.902 231.105 C 158.189 229.095,158.178 229.097,155.649 231.547 C 151.806 235.270,150.414 236.037,149.428 234.976 C 147.268 232.654,147.097 231.650,148.634 230.331 C 153.577 226.091,155.066 224.121,157.155 219.056 C 162.182 206.866,172.088 198.637,182.380 198.102 L 184.370 197.999 184.932 198.560 C 185.515 199.144,186.599 201.952,186.421 202.417 C 186.368 202.554,185.378 203.078,184.221 203.581 C 177.052 206.696,171.838 211.438,169.556 216.919 C 164.487 229.095,174.436 235.937,183.818 226.726 C 189.511 221.137,191.804 212.151,189.656 203.849 C 189.059 201.541,189.355 201.036,192.244 199.441 C 194.791 198.036,195.892 198.401,197.181 201.081 C 198.035 202.857,198.762 205.663,198.942 207.878 C 199.147 210.410,199.152 210.408,202.411 206.860 C 209.564 199.070,213.812 196.319,218.774 196.261 C 223.214 196.209,225.305 198.319,225.816 203.366 C 225.933 204.520,226.077 205.462,226.136 205.460 C 226.363 205.454,226.677 205.128,227.668 203.869 C 232.851 197.282,240.811 195.318,245.056 199.577 C 247.390 201.919,247.787 205.254,246.126 208.573 C 242.953 214.916,234.543 213.898,234.538 207.171 C 234.536 205.410,234.143 205.387,232.866 207.073 C 227.898 213.640,230.731 220.923,237.621 219.296 C 240.849 218.534,244.314 216.143,251.606 209.648 C 263.399 199.144,269.881 196.465,277.036 199.141 C 279.850 200.193,282.719 203.198,282.730 205.106 C 282.733 205.679,282.959 206.049,283.306 206.049 C 283.639 206.049,296.835 186.236,300.817 179.758 L 301.438 178.747 303.256 178.682 C 306.848 178.555,311.911 178.544,312.357 178.664 M271.024 205.581 C 265.906 206.951,258.880 214.910,256.712 221.793 C 253.883 230.776,258.646 234.470,266.299 229.227 C 270.943 226.045,278.345 215.854,276.045 215.808 C 275.588 215.799,275.487 214.864,275.862 214.126 C 278.696 208.555,276.225 204.190,271.024 205.581 " stroke="none" fill-rule="evenodd"></path></g></svg>