<?xml version="1.0" encoding="UTF-8" standalone="no"?>
<svg
   xmlns="http://www.w3.org/2000/svg"
   version="1.1"
   viewBox="0, 0, 400,400"
   height="400"
   width="400"
   id="svg">
  <g
     id="svgg">
    <path
       style="fill-rule:evenodd;stroke:none"
       d="m 183.707,128.405 c -90.454,2.866 -162.56,28.78 -173.833,62.473 -12.421,37.127 52.938,71.609 150.419,79.356 118.922,9.452 231.376,-24.684 231.376,-70.234 0,-42.025 -96.181,-75.137 -207.962,-71.595 m 30.244,6.23 c 108.585,3.182 185.243,38.246 167.119,76.44 -16.705,35.201 -110.152,59.182 -209.265,53.701 C 71.895,259.252 3.219,225.779 18.487,190.049 32.91,156.297 119.121,131.856 213.951,134.635 m -30.927,5.465 c -98.809,3.601 -169.144,32.806 -159.292,66.144 7.22,24.431 59.799,45.407 129.829,51.795 112.86,10.294 223.612,-18.444 223.667,-58.039 0.043,-30.409 -64.404,-55.195 -155.277,-59.721 -5.364,-0.267 -33.021,-0.395 -38.927,-0.179"
       id="path0" />
  </g>
</svg>
