<svg id="svg" xmlns="http://www.w3.org/2000/svg"  width="400" height="400" viewBox="0, 0, 400,400"><g id="svgg"><path id="path0" d="M187.140 0.425 C 44.043 10.381,-42.935 162.554,21.531 290.169 C 82.449 410.761,243.007 437.467,339.821 343.110 C 410.302 274.419,420.198 161.590,362.594 83.471 L 360.530 80.672 365.197 75.992 C 367.764 73.418,369.979 71.311,370.120 71.311 C 370.672 71.311,379.109 83.767,383.434 90.966 L 387.999 98.566 392.667 98.566 L 397.336 98.566 397.440 50.717 L 397.544 2.869 349.579 2.869 L 301.613 2.869 301.729 7.653 L 301.844 12.437 305.803 14.723 C 313.541 19.190,322.263 24.922,328.119 29.386 L 329.303 30.289 324.561 35.049 L 319.818 39.809 315.135 36.470 C 279.126 10.805,231.346 -2.651,187.140 0.425 M218.033 59.191 C 274.742 66.643,322.008 107.413,336.867 161.694 C 337.358 163.490,337.853 165.282,337.965 165.676 C 338.160 166.358,331.404 166.393,200.187 166.393 L 62.204 166.393 62.478 164.935 C 63.024 162.023,65.697 153.764,67.909 148.156 C 87.145 99.380,132.434 64.562,183.811 59.049 C 186.066 58.807,188.555 58.535,189.344 58.444 C 192.960 58.028,213.188 58.555,218.033 59.191 M161.475 183.000 C 183.389 187.985,183.497 212.658,161.629 218.111 C 148.544 221.374,133.812 217.043,129.544 208.678 C 121.057 192.041,138.734 177.826,161.475 183.000 M319.793 183.160 C 332.875 186.568,338.903 197.296,333.687 207.890 C 326.222 223.053,293.947 223.060,286.766 207.900 C 283.976 202.009,284.955 194.168,289.063 189.500 C 294.797 182.986,308.372 180.185,319.793 183.160 M255.568 187.557 C 255.408 187.974,254.366 188.115,251.447 188.115 C 249.299 188.115,247.541 188.236,247.541 188.384 C 247.541 188.532,249.958 193.064,252.913 198.456 C 255.867 203.848,258.407 208.717,258.556 209.276 C 258.776 210.098,268.856 192.705,270.799 188.150 C 270.856 188.018,269.288 187.973,267.316 188.050 L 263.730 188.190 263.867 185.489 L 264.004 182.787 276.060 182.787 L 288.115 182.787 288.115 185.451 L 288.115 188.115 284.055 188.115 L 279.995 188.115 271.923 203.074 L 263.852 218.033 254.365 218.017 L 244.877 218.001 236.659 202.978 L 228.440 187.956 224.261 188.068 L 220.082 188.180 220.082 185.488 L 220.082 182.796 237.807 182.689 L 255.533 182.582 255.657 184.790 C 255.726 186.005,255.686 187.250,255.568 187.557 M97.951 185.451 L 97.951 188.115 93.852 188.115 C 91.598 188.115,89.754 188.183,89.754 188.267 C 89.754 188.351,92.244 192.955,95.287 198.498 C 98.330 204.041,100.820 208.988,100.820 209.493 C 100.820 210.059,100.964 210.261,101.196 210.020 C 101.586 209.618,112.485 189.575,112.894 188.510 C 113.087 188.005,112.569 187.933,109.636 188.054 L 106.148 188.199 106.148 185.493 L 106.148 182.787 118.462 182.787 L 130.777 182.787 130.655 185.348 L 130.533 187.910 126.434 188.028 L 122.336 188.147 114.312 202.987 L 106.287 217.828 96.835 217.938 L 87.382 218.048 79.099 202.979 L 70.815 187.910 66.760 188.051 L 62.705 188.192 62.705 185.489 L 62.705 182.787 80.328 182.787 L 97.951 182.787 97.951 185.451 M212.622 185.348 L 212.500 187.910 208.504 188.027 L 204.508 188.144 204.508 199.776 C 204.508 206.174,204.396 211.700,204.259 212.057 C 203.913 212.960,213.223 212.994,216.234 212.099 C 220.074 210.959,223.085 207.451,223.629 203.485 L 223.882 201.639 226.490 201.639 L 229.098 201.639 229.098 209.836 L 229.098 218.033 204.508 218.033 L 179.918 218.033 179.918 215.369 L 179.918 212.705 184.016 212.705 L 188.115 212.705 188.115 200.307 L 188.116 187.910 184.017 188.051 L 179.918 188.192 179.918 185.489 L 179.918 182.787 196.331 182.787 L 212.744 182.787 212.622 185.348 M149.385 188.183 C 141.592 192.493,142.225 211.850,150.208 213.347 C 157.162 214.652,162.068 208.145,161.352 198.566 C 160.746 190.448,154.728 185.228,149.385 188.183 M307.172 188.091 C 299.768 191.112,299.512 209.907,306.832 212.966 C 313.714 215.841,319.264 209.354,318.748 199.038 C 318.317 190.405,313.249 185.612,307.172 188.091 M337.432 236.373 C 324.469 286.885,282.548 327.232,231.148 338.669 C 160.444 354.401,89.164 314.518,65.726 246.111 C 64.180 241.600,62.295 235.086,62.295 234.255 C 62.295 234.124,124.337 234.016,200.166 234.016 L 338.037 234.016 337.432 236.373 " stroke="none" fill-rule="evenodd"></path></g></svg>