<svg id="svg" xmlns="http://www.w3.org/2000/svg"  width="400" height="400" viewBox="0, 0, 400,400"><g id="svgg"><path id="path0" d="M187.140 0.425 C 44.043 10.381,-42.935 162.554,21.531 290.169 C 82.449 410.761,243.007 437.467,339.821 343.110 C 410.302 274.419,420.198 161.590,362.594 83.471 L 360.530 80.672 365.197 75.992 C 367.764 73.418,369.979 71.311,370.120 71.311 C 370.672 71.311,379.109 83.767,383.434 90.966 L 387.999 98.566 392.667 98.566 L 397.336 98.566 397.440 50.717 L 397.544 2.869 349.579 2.869 L 301.613 2.869 301.729 7.653 L 301.844 12.437 305.803 14.723 C 313.541 19.190,322.263 24.922,328.119 29.386 L 329.303 30.289 324.561 35.049 L 319.818 39.809 315.135 36.470 C 279.126 10.805,231.346 -2.651,187.140 0.425 M218.033 59.191 C 274.742 66.643,322.008 107.413,336.867 161.694 C 337.358 163.490,337.853 165.282,337.965 165.676 C 338.160 166.358,331.404 166.393,200.187 166.393 L 62.204 166.393 62.478 164.935 C 63.024 162.023,65.697 153.764,67.909 148.156 C 87.145 99.380,132.434 64.562,183.811 59.049 C 186.066 58.807,188.555 58.535,189.344 58.444 C 192.960 58.028,213.188 58.555,218.033 59.191 M337.432 236.373 C 324.469 286.885,282.548 327.232,231.148 338.669 C 160.444 354.401,89.164 314.518,65.726 246.111 C 64.180 241.600,62.295 235.086,62.295 234.255 C 62.295 234.124,124.337 234.016,200.166 234.016 L 338.037 234.016 337.432 236.373 " stroke="none" fill-rule="evenodd"></path></g></svg>