<svg id="svg" xmlns="http://www.w3.org/2000/svg"  width="400" height="400" viewBox="0, 0, 400,400"><g id="svgg"><path id="path0" d="M191.654 78.880 C 172.740 80.513,161.466 82.419,148.068 86.248 C 122.446 93.571,98.975 106.387,82.192 122.220 C 78.853 125.370,76.542 126.814,69.515 130.145 C 57.354 135.910,49.944 141.025,41.361 149.578 C 29.208 161.688,30.159 159.674,5.747 225.020 L -0.136 240.767 0.614 244.185 C 4.569 262.205,21.446 269.637,60.587 270.593 L 75.734 270.963 80.989 275.988 C 133.609 326.306,228.352 335.387,296.160 296.613 C 300.577 294.086,306.544 291.385,312.004 289.438 C 342.518 278.560,358.552 267.543,366.396 252.065 C 370.997 242.983,393.378 188.962,397.730 176.431 C 404.064 158.194,387.494 147.398,350.232 145.482 L 342.195 145.069 337.878 139.241 C 308.728 99.889,246.385 74.154,191.654 78.880 M217.271 85.349 C 230.169 89.333,243.969 99.732,252.702 112.048 L 254.708 114.877 251.774 115.240 C 233.195 117.539,172.378 117.539,153.796 115.241 L 150.869 114.879 152.844 111.999 C 167.968 89.953,195.416 78.599,217.271 85.349 M170.582 86.804 C 170.440 86.942,168.516 88.381,166.306 90.002 C 160.786 94.051,153.199 101.847,148.138 108.671 C 145.811 111.807,143.576 114.374,143.170 114.374 C 142.021 114.374,117.679 111.362,115.512 110.951 C 114.948 110.845,113.209 110.566,111.648 110.332 C 110.087 110.097,108.810 109.699,108.810 109.446 C 108.810 107.816,131.282 97.233,143.565 93.079 C 153.867 89.594,172.056 85.370,170.582 86.804 M245.243 88.347 C 260.605 91.824,275.131 97.313,289.181 104.950 C 298.145 109.823,298.091 109.709,291.844 110.622 C 289.144 111.017,286.431 111.431,285.817 111.542 C 285.202 111.654,283.071 111.943,281.081 112.185 C 279.091 112.426,276.865 112.718,276.135 112.834 C 269.377 113.902,261.228 114.442,261.026 113.835 C 259.764 110.051,246.875 95.915,239.835 90.595 C 237.647 88.942,235.594 87.357,235.270 87.072 C 234.215 86.140,237.150 86.516,245.243 88.347 M112.828 116.530 C 115.889 117.021,123.261 118.034,129.212 118.781 C 135.162 119.529,140.109 120.197,140.205 120.265 C 140.301 120.333,139.283 122.444,137.944 124.955 C 132.960 134.302,126.470 153.226,124.789 163.313 L 124.103 167.431 116.920 167.880 C 110.038 168.310,77.115 167.865,73.261 167.289 C 72.241 167.137,68.720 166.686,65.436 166.288 L 59.466 165.563 60.407 163.307 C 67.089 147.283,82.252 128.236,96.762 117.638 C 100.900 114.615,100.972 114.591,104.103 115.112 C 105.842 115.402,109.768 116.040,112.828 116.530 M311.283 119.657 C 319.327 126.097,335.471 143.371,334.354 144.343 C 334.246 144.437,325.811 144.669,315.611 144.859 C 305.410 145.048,292.500 145.643,286.922 146.180 C 281.345 146.718,276.732 147.084,276.672 146.994 C 276.612 146.905,275.498 143.910,274.197 140.340 C 272.895 136.770,270.338 130.817,268.515 127.112 C 266.691 123.407,265.274 120.325,265.366 120.263 C 265.458 120.201,270.541 119.523,276.662 118.756 C 282.782 117.989,291.546 116.739,296.136 115.979 C 300.726 115.219,304.760 114.733,305.100 114.899 C 305.440 115.066,308.223 117.207,311.283 119.657 M155.178 121.456 C 159.088 121.691,163.679 122.028,165.379 122.205 C 175.986 123.310,229.434 123.308,240.185 122.201 C 241.886 122.026,246.476 121.693,250.386 121.461 C 254.297 121.229,257.760 121.000,258.082 120.952 C 258.897 120.832,265.276 133.544,268.215 141.147 C 271.000 148.352,271.206 147.925,264.606 148.632 C 262.396 148.868,255.719 149.749,249.768 150.588 C 238.111 152.233,237.578 152.312,228.748 153.694 C 225.518 154.200,221.901 154.755,220.711 154.927 C 219.521 155.100,217.017 155.500,215.147 155.817 C 213.277 156.133,210.634 156.556,209.274 156.755 C 207.034 157.084,193.589 159.187,189.799 159.801 C 188.360 160.034,167.659 162.987,163.524 163.549 C 159.640 164.077,139.817 166.249,135.157 166.658 L 130.284 167.085 130.723 164.157 C 132.571 151.830,145.241 119.375,147.653 120.787 C 147.881 120.920,151.267 121.221,155.178 121.456 M69.140 137.094 C 69.026 137.349,66.888 140.618,64.388 144.359 C 58.407 153.305,50.414 169.940,51.550 171.076 C 52.849 172.375,80.241 173.984,100.773 173.967 C 130.114 173.943,149.564 172.092,194.702 165.028 C 267.298 153.667,285.515 151.479,315.611 150.504 C 372.140 148.674,398.659 157.115,392.440 174.961 C 386.107 193.138,363.051 247.659,359.403 253.083 C 352.367 263.547,338.897 273.125,321.425 280.085 C 313.569 283.215,313.406 283.018,319.755 278.053 C 329.368 270.534,337.668 260.898,343.054 251.005 C 346.486 244.699,346.441 244.460,341.731 243.987 C 339.606 243.773,333.277 243.137,327.666 242.572 C 313.790 241.177,285.847 241.189,268.934 242.597 C 246.597 244.457,229.567 246.765,172.847 255.618 C 122.665 263.450,107.447 264.855,72.643 264.872 C 27.901 264.893,14.530 261.345,7.584 247.604 C 4.743 241.985,3.884 244.802,26.214 186.518 C 34.894 163.864,35.341 163.079,45.141 153.323 C 52.844 145.654,70.703 133.578,69.140 137.094 M296.445 165.741 C 281.490 166.733,266.751 168.315,266.059 169.001 C 265.489 169.567,260.807 183.769,261.120 183.986 C 261.167 184.018,264.335 183.730,268.161 183.345 C 274.340 182.722,275.082 182.750,274.815 183.594 C 271.435 194.282,261.520 228.341,261.728 228.550 C 262.561 229.382,281.831 227.289,282.092 226.337 C 284.242 218.510,295.203 181.946,295.505 181.594 C 295.730 181.332,298.923 180.915,302.599 180.667 L 309.283 180.216 311.147 173.847 C 313.480 165.874,313.069 165.177,318.370 186.090 L 322.837 203.709 319.687 214.644 C 317.955 220.658,316.538 225.825,316.538 226.127 C 316.538 226.593,335.720 228.413,336.013 227.975 C 336.070 227.890,337.442 223.091,339.062 217.311 C 342.712 204.287,340.774 207.069,366.801 177.496 C 374.695 168.525,375.002 169.310,362.915 167.544 C 352.047 165.956,353.966 164.952,345.311 176.756 C 341.297 182.230,337.836 186.708,337.618 186.708 C 337.400 186.708,336.724 182.883,336.115 178.207 C 335.506 173.532,334.850 168.663,334.658 167.388 L 334.309 165.070 319.086 165.159 C 310.714 165.208,300.526 165.470,296.445 165.741 M247.955 170.705 C 243.388 171.336,239.487 172.118,239.287 172.441 C 238.465 173.771,220.555 233.125,220.878 233.449 C 221.341 233.912,240.637 231.345,241.144 230.753 C 241.523 230.309,259.660 170.599,259.660 169.794 C 259.660 169.226,257.356 169.405,247.955 170.705 M199.843 177.713 C 194.996 178.469,190.933 179.203,190.815 179.343 C 190.434 179.795,171.370 240.797,171.550 240.988 C 171.646 241.090,181.102 239.768,192.564 238.052 C 204.026 236.335,213.502 234.930,213.623 234.930 C 213.743 234.930,214.845 231.662,216.072 227.666 C 217.299 223.671,218.401 220.100,218.521 219.730 C 218.663 219.294,215.356 219.567,209.061 220.513 C 203.737 221.313,198.941 221.894,198.403 221.803 C 197.598 221.667,198.665 217.650,204.431 199.097 C 208.285 186.700,211.437 176.476,211.437 176.377 C 211.437 176.022,208.509 176.360,199.843 177.713 M171.609 181.842 C 167.215 182.482,163.503 183.123,163.360 183.266 C 163.134 183.492,143.431 244.553,143.431 245.027 C 143.431 245.249,163.959 242.429,164.217 242.171 C 164.484 241.904,183.617 181.576,183.617 181.001 C 183.617 180.316,180.667 180.522,171.609 181.842 M148.995 184.602 C 138.385 185.831,119.193 187.326,114.021 187.326 L 109.471 187.326 107.205 194.590 C 105.959 198.586,104.831 202.138,104.700 202.483 C 104.543 202.894,106.849 203.030,111.366 202.875 C 117.255 202.674,118.219 202.773,117.921 203.549 C 116.136 208.201,103.129 248.621,103.347 248.839 C 103.706 249.198,122.987 247.544,123.413 247.117 C 123.585 246.945,127.029 236.593,131.066 224.111 C 139.639 197.607,137.777 200.925,144.478 200.212 C 153.174 199.286,152.309 199.957,154.908 192.119 C 156.176 188.293,157.342 184.815,157.499 184.389 C 157.655 183.964,157.405 183.653,156.944 183.698 C 156.483 183.742,152.906 184.149,148.995 184.602 M49.791 184.932 C 38.871 215.218,33.033 234.409,33.685 237.882 C 35.328 246.641,39.985 249.230,56.150 250.371 C 80.214 252.071,83.369 248.950,96.126 210.824 L 103.782 187.944 95.563 187.944 C 91.043 187.944,86.059 187.768,84.488 187.553 C 81.134 187.093,81.579 186.215,79.748 196.909 C 77.581 209.568,71.950 231.200,70.391 232.861 C 68.009 235.396,54.514 235.445,52.929 232.924 C 51.843 231.195,57.432 216.928,67.074 196.817 C 69.630 191.486,71.650 187.078,71.564 187.019 C 71.477 186.961,67.399 186.434,62.502 185.849 C 57.604 185.263,52.810 184.627,51.847 184.434 C 50.671 184.199,49.996 184.362,49.791 184.932 M322.720 248.161 C 323.570 248.282,326.352 248.571,328.903 248.804 C 331.453 249.036,334.465 249.420,335.595 249.655 L 337.651 250.084 334.754 254.408 C 328.512 263.727,318.839 273.849,309.265 281.080 L 304.775 284.471 296.901 283.228 C 287.050 281.673,286.391 281.579,276.971 280.379 C 272.720 279.838,268.341 279.255,267.240 279.083 L 265.237 278.772 267.772 273.730 C 270.459 268.387,274.882 257.376,276.705 251.492 L 277.800 247.960 282.795 247.708 C 288.180 247.436,320.174 247.800,322.720 248.161 M271.406 248.810 C 271.406 250.172,266.244 262.902,262.911 269.758 L 258.754 278.310 253.797 277.914 C 243.685 277.106,241.145 276.948,228.748 276.359 C 206.208 275.287,178.156 275.768,155.538 277.614 C 146.255 278.371,147.098 278.784,143.486 271.716 C 140.458 265.792,139.700 266.395,152.396 264.626 C 163.539 263.072,159.429 263.694,193.199 258.455 C 236.681 251.710,271.406 247.428,271.406 248.810 M137.393 272.909 L 140.289 278.738 138.614 279.052 C 137.693 279.225,135.312 279.547,133.322 279.767 C 131.332 279.987,129.107 280.257,128.376 280.368 C 127.646 280.479,125.657 280.754,123.957 280.979 C 118.253 281.733,116.574 281.980,108.603 283.238 L 100.669 284.490 96.857 281.544 C 83.214 271.000,83.220 271.103,96.220 270.569 C 104.080 270.246,130.460 267.892,130.875 267.476 C 132.655 265.696,134.626 267.340,137.393 272.909 M238.022 282.782 C 238.872 282.880,242.767 283.175,246.677 283.436 C 255.542 284.028,255.210 283.713,251.790 288.276 C 230.366 316.865,198.187 323.701,171.225 305.391 C 165.028 301.183,150.850 286.447,150.850 284.215 C 150.850 283.856,160.336 283.206,172.179 282.753 C 177.620 282.545,182.210 282.236,182.380 282.066 C 182.686 281.762,235.036 282.435,238.022 282.782 M148.377 290.627 C 152.788 296.747,163.147 307.165,168.287 310.650 L 171.561 312.871 168.779 312.465 C 153.385 310.221,132.372 302.887,116.229 294.123 C 108.247 289.790,107.809 289.191,112.210 288.637 C 113.910 288.423,116.343 288.077,117.615 287.869 C 118.888 287.660,121.391 287.311,123.179 287.094 C 124.967 286.876,128.794 286.374,131.685 285.978 C 134.575 285.581,138.609 285.211,140.649 285.155 L 144.359 285.052 148.377 290.627 M275.734 286.201 C 277.944 286.518,281.144 286.947,282.844 287.156 C 284.544 287.364,286.491 287.635,287.172 287.757 C 288.542 288.002,294.972 288.945,295.621 288.995 C 300.763 289.391,273.338 302.870,258.433 307.273 C 249.274 309.978,234.312 313.291,234.312 312.614 C 234.312 312.488,235.862 311.356,237.756 310.098 C 244.206 305.816,256.508 292.964,260.129 286.725 L 261.206 284.871 266.461 285.248 C 269.351 285.456,273.524 285.884,275.734 286.201 " stroke="none" fill-rule="evenodd"></path></g></svg>