<svg id="svg" xmlns="http://www.w3.org/2000/svg"  width="400" height="400" viewBox="0, 0, 400,400"><g id="svgg"><path id="path0" d="M1.845 170.340 C 1.279 171.256,2.075 172.706,3.760 173.824 C 8.247 176.803,8.247 221.868,3.760 224.847 C -1.740 228.499,2.031 229.900,17.354 229.900 C 32.344 229.900,36.061 228.237,29.236 224.585 C 26.711 223.233,26.578 221.802,26.578 195.967 L 26.578 168.771 14.696 168.771 C 6.996 168.771,2.473 169.323,1.845 170.340 M30.565 171.363 C 30.565 172.788,31.597 174.532,32.859 175.238 C 36.679 177.376,37.059 195.500,33.361 199.197 C 27.865 204.693,29.553 207.799,37.523 206.855 C 62.783 203.863,61.576 168.782,36.213 168.773 C 31.498 168.771,30.565 169.199,30.565 171.363 M61.646 170.340 C 61.079 171.256,61.876 172.706,63.561 173.824 C 68.047 176.803,68.047 221.868,63.561 224.847 C 58.061 228.499,61.831 229.900,77.155 229.900 C 90.508 229.900,91.694 229.696,91.694 227.398 C 91.694 226.012,90.508 224.584,89.037 224.200 C 86.487 223.533,86.379 222.387,86.379 196.138 L 86.379 168.771 74.497 168.771 C 66.797 168.771,62.274 169.323,61.646 170.340 M90.365 170.887 C 90.365 172.051,91.561 174.523,93.023 176.382 C 94.854 178.709,95.681 181.773,95.681 186.226 C 95.681 190.919,94.953 193.419,93.023 195.349 C 91.561 196.811,90.365 198.660,90.365 199.458 C 90.365 200.257,91.561 202.430,93.023 204.289 C 95.053 206.869,95.681 209.680,95.681 216.186 C 95.681 227.281,99.005 231.229,108.347 231.229 C 114.890 231.229,122.259 225.982,122.259 221.323 C 122.259 218.467,118.308 217.073,116.830 219.408 C 116.064 220.618,115.648 218.802,115.635 214.183 C 115.613 206.541,110.714 199.397,105.418 199.284 C 103.877 199.251,104.536 198.559,107.223 197.390 C 117.872 192.759,118.160 176.203,107.685 170.787 C 102.253 167.978,90.365 168.046,90.365 170.887 M124.104 170.340 C 123.538 171.256,124.334 172.706,126.019 173.824 C 128.799 175.670,128.904 176.595,128.904 199.336 C 128.904 222.076,128.799 223.001,126.019 224.847 C 120.816 228.302,124.275 229.900,136.956 229.900 L 148.837 229.900 148.837 199.336 L 148.837 168.771 136.956 168.771 C 129.256 168.771,124.733 169.323,124.104 170.340 M151.495 171.403 C 151.495 173.104,152.673 174.331,154.821 174.871 C 158.483 175.790,164.784 182.502,164.784 185.484 C 164.784 186.524,165.980 187.375,167.442 187.375 C 169.847 187.375,170.100 186.489,170.100 178.073 L 170.100 168.771 160.797 168.771 C 152.411 168.771,151.495 169.030,151.495 171.403 M176.744 170.334 C 176.744 171.246,178.180 173.212,179.935 174.701 C 182.095 176.535,184.728 182.340,188.091 192.691 C 197.114 220.456,200.843 229.900,202.783 229.900 C 203.811 229.900,204.651 229.698,204.651 229.451 C 204.651 229.204,206.744 221.888,209.302 213.195 C 212.844 201.158,213.915 195.164,213.794 188.063 C 213.635 178.793,213.626 178.771,212.276 184.385 C 210.415 192.125,209.685 191.597,205.839 179.734 L 202.501 169.435 189.622 169.055 C 180.010 168.771,176.744 169.095,176.744 170.334 M217.940 195.967 C 217.940 221.802,217.807 223.233,215.282 224.585 C 208.457 228.237,212.175 229.900,227.164 229.900 C 242.488 229.900,246.258 228.499,240.758 224.847 C 237.978 223.001,237.874 222.076,237.874 199.336 C 237.874 176.595,237.978 175.670,240.758 173.824 C 245.962 170.369,242.502 168.771,229.822 168.771 L 217.940 168.771 217.940 195.967 M247.692 170.340 C 247.126 171.256,247.922 172.706,249.607 173.824 C 252.387 175.670,252.492 176.595,252.492 199.336 C 252.492 222.076,252.387 223.001,249.607 224.847 C 244.183 228.448,247.876 229.900,262.458 229.900 C 277.041 229.900,280.734 228.448,275.310 224.847 C 272.530 223.001,272.425 222.076,272.425 199.336 C 272.425 176.595,272.530 175.670,275.310 173.824 C 280.734 170.223,277.041 168.771,262.458 168.771 C 253.287 168.771,248.337 169.297,247.692 170.340 M284.901 170.340 C 284.335 171.256,285.132 172.706,286.816 173.824 C 289.596 175.670,289.701 176.595,289.701 199.336 C 289.701 222.076,289.596 223.001,286.816 224.847 C 281.613 228.302,285.072 229.900,297.753 229.900 L 309.635 229.900 309.635 199.336 L 309.635 168.771 297.753 168.771 C 290.053 168.771,285.530 169.323,284.901 170.340 M312.292 171.403 C 312.292 173.104,313.470 174.331,315.619 174.871 C 319.281 175.790,325.581 182.502,325.581 185.484 C 325.581 186.524,326.777 187.375,328.239 187.375 C 330.644 187.375,330.897 186.489,330.897 178.073 L 330.897 168.771 321.595 168.771 C 313.208 168.771,312.292 169.030,312.292 171.403 M338.058 170.340 C 337.491 171.256,338.288 172.706,339.973 173.824 C 342.753 175.670,342.857 176.595,342.857 199.336 C 342.857 222.076,342.753 223.001,339.973 224.847 C 334.473 228.499,338.243 229.900,353.567 229.900 C 366.920 229.900,368.106 229.696,368.106 227.398 C 368.106 226.012,366.919 224.584,365.449 224.200 C 362.899 223.533,362.791 222.387,362.791 196.138 L 362.791 168.771 350.909 168.771 C 343.209 168.771,338.686 169.323,338.058 170.340 M366.777 170.887 C 366.777 172.051,367.973 174.523,369.435 176.382 C 371.266 178.709,372.093 181.773,372.093 186.226 C 372.093 190.919,371.365 193.419,369.435 195.349 C 367.973 196.811,366.777 198.660,366.777 199.458 C 366.777 200.257,367.973 202.430,369.435 204.289 C 371.465 206.869,372.093 209.680,372.093 216.186 C 372.093 227.281,375.417 231.229,384.759 231.229 C 391.302 231.229,398.671 225.982,398.671 221.323 C 398.671 218.467,394.720 217.073,393.242 219.408 C 392.476 220.618,392.060 218.802,392.047 214.183 C 392.025 206.541,387.126 199.397,381.830 199.284 C 380.289 199.251,380.948 198.559,383.635 197.390 C 394.284 192.759,394.572 176.203,384.097 170.787 C 378.665 167.978,366.777 168.046,366.777 170.887 M156.916 189.091 C 156.280 190.766,154.799 192.932,153.627 193.905 C 150.888 196.178,150.888 201.164,153.627 203.437 C 154.799 204.410,156.280 206.576,156.916 208.251 C 159.828 215.910,162.126 211.685,162.126 198.671 C 162.126 185.657,159.828 181.432,156.916 189.091 M317.714 189.091 C 317.077 190.766,315.597 192.932,314.424 193.905 C 313.252 194.878,312.292 197.023,312.292 198.671 C 312.292 200.319,313.252 202.464,314.424 203.437 C 315.597 204.410,317.077 206.576,317.714 208.251 C 320.626 215.910,322.924 211.685,322.924 198.671 C 322.924 185.657,320.626 181.432,317.714 189.091 M183.497 204.382 C 183.392 220.195,183.277 220.828,179.946 223.916 C 175.131 228.378,176.872 229.900,186.789 229.900 C 196.238 229.900,198.024 227.841,192.473 223.347 C 190.071 221.402,189.448 219.067,188.689 209.180 C 187.042 187.718,183.629 184.564,183.497 204.382 M163.432 215.328 C 161.718 218.687,158.979 221.508,156.096 222.883 C 147.817 226.831,149.873 229.900,160.797 229.900 L 170.100 229.900 170.100 219.934 C 170.100 208.188,167.863 206.643,163.432 215.328 M324.229 215.328 C 322.516 218.687,319.776 221.508,316.893 222.883 C 308.614 226.831,310.670 229.900,321.595 229.900 L 330.897 229.900 330.897 219.934 C 330.897 208.188,328.660 206.643,324.229 215.328 " stroke="none" fill="#000000" fill-rule="evenodd"></path></g></svg>