<?xml version="1.0" encoding="UTF-8" standalone="no"?>
<svg
   
   
   
   xmlns="http://www.w3.org/2000/svg"
   id="svg"
   width="400"
   height="400"
   viewBox="0 0 400 400"
   version="1.1">
  <metadata
     id="metadata9">
    
  </metadata>
  <defs
     id="defs7" />
  <g
     id="svgg"
     transform="translate(0,117.18769)">
    <path
       id="path0"
       d="m 307.6,0.54 c -1.083,0.671 -3.681,1.056 -7.144,1.058 -4.078,0.003 -7.753,0.465 -9.923,1.247 -1.026,0.37 -3.366,1.185 -5.2,1.812 -1.833,0.627 -3.873,1.456 -4.533,1.842 -0.66,0.387 -2.04,0.957 -3.067,1.266 -1.026,0.31 -2.646,0.955 -3.6,1.435 -0.953,0.479 -2.9,1.182 -4.325,1.561 -1.426,0.379 -3.174,0.983 -3.884,1.343 -0.71,0.36 -2.536,0.962 -4.057,1.337 -4.074,1.006 -7.773,3.361 -14.267,9.085 -1.173,1.034 -2.613,2.232 -3.2,2.662 -0.587,0.43 -1.387,1.072 -1.778,1.426 -1.711,1.548 -11.154,6.681 -13.391,7.277 -0.604,0.162 -2.178,0.751 -3.498,1.311 -1.538,0.652 -3.53,1.223 -5.548,1.589 -1.732,0.315 -4.252,0.91 -5.6,1.324 -3.128,0.959 -3.24,0.981 -8.293,1.622 -2.332,0.296 -5.752,0.885 -7.6,1.311 -3.425,0.788 -6.442,1.199 -10.959,1.493 -1.393,0.091 -5.049,0.396 -8.123,0.679 -6.696,0.615 -10.105,0.643 -14.851,0.123 -1.958,-0.214 -6.12,-0.579 -9.25,-0.811 -6.191,-0.459 -7.233,-0.612 -10.854,-1.596 -1.326,-0.361 -4.146,-0.957 -6.266,-1.326 -2.121,-0.368 -5.088,-1.028 -6.593,-1.465 -6.124,-1.777 -12.568,-1.66 -20.863,0.38 -1.98,0.487 -4.649,1.071 -5.93,1.298 -1.346,0.237 -3.243,0.823 -4.487,1.385 -1.186,0.535 -2.221,0.91 -2.299,0.831 -0.668,-0.668 -7.143,2.912 -11.284,6.24 -2.475,1.989 -6.673,4.825 -9.329,6.302 -4.629,2.575 -15.454,7.754 -17.471,8.358 -0.586,0.176 -1.786,0.714 -2.666,1.195 -0.88,0.481 -2.549,1.139 -3.708,1.463 -1.159,0.323 -2.976,0.983 -4.037,1.467 -1.061,0.483 -3.076,1.14 -4.476,1.459 -1.401,0.319 -3.673,0.983 -5.049,1.475 -3.749,1.339 -6.117,1.514 -21.173,1.561 C 5.766,71.6 5.729,71.602 4.133,72.225 3.253,72.568 1.965,73.048 1.27,73.291 L 0.007,73.733 0.004,78.208 C 0,82.24 0.046,82.697 0.467,82.825 c 0.256,0.078 1.223,0.496 2.148,0.93 3.454,1.619 10.641,1.594 18.718,-0.064 1.394,-0.287 4.154,-0.747 6.134,-1.024 5.397,-0.756 8.116,-1.282 11.066,-2.142 1.467,-0.428 4.287,-1.011 6.267,-1.296 2.241,-0.323 4.455,-0.831 5.865,-1.346 1.246,-0.455 3.661,-1.115 5.367,-1.468 1.706,-0.353 4.106,-1.053 5.335,-1.555 1.228,-0.503 3.073,-1.12 4.1,-1.372 1.026,-0.252 2.766,-0.926 3.866,-1.497 1.1,-0.572 2.78,-1.396 3.734,-1.833 0.953,-0.437 2.393,-1.205 3.2,-1.706 3.175,-1.975 5.52,-3.282 7.057,-3.936 0.885,-0.376 2.089,-0.986 2.676,-1.356 0.587,-0.369 1.967,-1.009 3.067,-1.422 1.1,-0.412 2.535,-1.058 3.188,-1.435 0.654,-0.377 2.274,-1.063 3.6,-1.525 1.327,-0.462 3.095,-1.095 3.93,-1.406 2.689,-1.003 2.951,-0.426 1.022,2.253 -0.73,1.013 -1.671,2.322 -2.093,2.908 -1.668,2.321 -3.513,5.393 -3.902,6.499 -0.226,0.64 -0.83,2.094 -1.343,3.229 -0.513,1.136 -1.127,3.012 -1.365,4.169 -0.65,3.165 -2.205,5.162 -5.754,7.39 -3.352,2.104 -4.312,2.345 -11.24,2.82 l -3.424,0.235 -4.71,2.29 c -4.684,2.277 -4.727,2.292 -8.043,2.712 -1.833,0.232 -5.253,0.726 -7.6,1.097 -2.916,0.462 -6.123,0.746 -10.133,0.898 -10.345,0.391 -12.306,1.387 -18.263,9.279 -4.439,5.882 -3.881,12.275 1.196,13.685 3.419,0.95 9.993,-1.903 14.326,-6.217 3.831,-3.815 5.332,-4.786 9.707,-6.285 l 3.701,-1.267 11.685,-0.085 c 13.101,-0.094 14.058,-0.014 18.121,1.523 2.081,0.787 3.296,1.074 5.127,1.214 1.32,0.1 3.96,0.368 5.867,0.594 8.78,1.041 21.05,-0.01 24.437,-2.095 0.726,-0.446 1.927,-1.042 2.671,-1.325 0.743,-0.282 2.067,-1 2.943,-1.594 0.875,-0.595 2.152,-1.324 2.837,-1.621 0.685,-0.297 1.576,-0.849 1.98,-1.227 2.538,-2.373 13.046,-9.575 15.708,-10.766 0.562,-0.252 1.568,-0.834 2.237,-1.294 1.134,-0.781 4.653,-2.207 7.72,-3.129 5.341,-1.607 26.63,0.058 31.333,2.449 0.66,0.336 2.1,1.066 3.2,1.624 1.1,0.558 2.685,1.421 3.521,1.918 0.836,0.497 2.336,1.181 3.333,1.52 0.997,0.339 2.418,0.924 3.158,1.298 6.144,3.115 36.041,3.247 43.728,0.193 1.114,-0.442 3.384,-1.092 5.044,-1.444 1.661,-0.352 3.851,-1.005 4.869,-1.451 1.017,-0.447 3.004,-1.112 4.416,-1.479 1.412,-0.367 3.295,-1.034 4.183,-1.483 0.889,-0.448 2.246,-1.063 3.015,-1.365 1.587,-0.624 3.177,-1.769 6.067,-4.37 4.24,-3.817 9.241,-7.696 11.6,-8.998 1.701,-0.938 9.105,-1.047 10.715,-0.157 0.614,0.339 1.994,1.079 3.067,1.645 1.073,0.566 2.551,1.48 3.284,2.03 3.191,2.394 11.708,6.251 15.332,6.941 1.761,0.336 3.287,0.837 4.704,1.544 1.154,0.577 2.758,1.262 3.564,1.523 0.807,0.261 2.247,0.863 3.2,1.337 0.954,0.475 2.814,1.127 4.134,1.45 1.32,0.323 3.21,0.943 4.201,1.377 0.99,0.434 3.001,1.086 4.468,1.449 1.467,0.363 3.557,1.014 4.645,1.446 1.088,0.432 2.977,1.039 4.198,1.348 2.378,0.603 4.203,1.635 7.375,4.173 2.501,2.001 4.041,2.539 7.646,2.669 2.18,0.078 3.481,0.28 5.067,0.783 8.016,2.546 16.41,-0.179 19.399,-6.299 2.561,-5.242 -1.611,-8.072 -10.026,-6.8 -5.204,0.787 -8.061,0.526 -10.862,-0.99 -1.235,-0.668 -2.942,-1.414 -3.793,-1.657 -0.852,-0.244 -2.136,-0.804 -2.853,-1.246 -0.718,-0.441 -2.02,-1.083 -2.895,-1.425 -0.874,-0.343 -2.11,-0.981 -2.747,-1.417 -0.636,-0.437 -1.877,-1.158 -2.757,-1.604 -0.88,-0.445 -2.313,-1.241 -3.184,-1.769 -0.871,-0.527 -1.771,-0.954 -2,-0.949 -0.229,0.005 -1.736,-0.648 -3.349,-1.451 -1.613,-0.804 -3.566,-1.651 -4.34,-1.884 -0.774,-0.233 -2.034,-0.823 -2.8,-1.312 -0.766,-0.488 -1.693,-0.978 -2.06,-1.088 -0.603,-0.18 -4.129,-1.804 -7.6,-3.499 -1.82,-0.889 -4.489,-3.106 -6.116,-5.081 -1.809,-2.194 -2.43,-3.266 -6.926,-11.945 -0.831,-1.605 -1.736,-3.285 -2.012,-3.734 -0.276,-0.448 -0.706,-1.355 -0.955,-2.015 -0.249,-0.66 -1.044,-2.476 -1.767,-4.035 -2.913,-6.285 -1.408,-8.415 4.453,-6.305 2.226,0.802 2.628,0.861 5.87,0.867 l 3.481,0.006 2.253,-1.197 c 3.045,-1.617 5.395,-1.698 8.517,-0.293 3.866,1.74 6.509,0.963 8.539,-2.51 0.343,-0.587 1.127,-1.614 1.741,-2.284 4.103,-4.47 4.121,-6.287 0.108,-10.783 -1.286,-1.44 -2.083,-2.729 -3.492,-5.648 -2.028,-4.203 -3.613,-5.887 -7.294,-7.755 -0.88,-0.447 -2.305,-1.239 -3.167,-1.761 -0.861,-0.521 -2.314,-1.197 -3.228,-1.501 -0.915,-0.304 -1.94,-0.849 -2.28,-1.21 L 321.507,0 314.954,0.022 c -5.9,0.02 -6.634,0.072 -7.354,0.518 m 25.047,62.684 c -5.417,0.693 -4.673,5.827 1.1,7.588 1.185,0.361 2.849,1.075 3.697,1.586 0.849,0.511 2.341,1.168 3.316,1.459 0.975,0.292 2.387,0.946 3.137,1.453 0.75,0.507 1.95,1.114 2.667,1.349 0.716,0.235 1.783,0.72 2.369,1.078 0.587,0.359 2.068,1.134 3.291,1.723 1.223,0.589 2.584,1.328 3.025,1.642 0.442,0.314 1.704,0.908 2.806,1.319 1.102,0.411 2.473,1.058 3.047,1.438 3.807,2.519 7.029,-0.561 4.831,-4.618 -1.545,-2.852 -7.322,-6.676 -11.752,-7.778 -1.167,-0.291 -3.006,-0.905 -4.085,-1.365 -1.08,-0.46 -3.028,-1.122 -4.331,-1.471 -1.999,-0.536 -2.81,-0.94 -5.2,-2.589 -4.147,-2.862 -5.046,-3.182 -7.918,-2.814 m -47.447,8.49 c -5.954,1.426 -11.155,6.302 -10.655,9.989 0.831,6.127 6.053,7.37 19.188,4.564 1.614,-0.344 3.954,-0.758 5.2,-0.919 7.053,-0.912 8.165,-3.027 3.067,-5.832 -2.361,-1.3 -4.389,-2.53 -6.301,-3.823 -0.825,-0.558 -1.845,-1.142 -2.267,-1.297 -0.421,-0.155 -1.845,-0.809 -3.165,-1.452 -2.549,-1.243 -3.772,-1.54 -5.067,-1.23 M 128.453,99.847 c -0.704,0.189 -2.084,0.884 -3.067,1.544 -2.81,1.887 -7.224,4.121 -9.1,4.606 -0.943,0.243 -2.295,0.736 -3.004,1.096 -2.818,1.428 -3.914,1.557 -13.149,1.552 -9.474,-0.005 -10.631,-0.136 -14.185,-1.607 -2.522,-1.044 -7.608,-1.617 -12.143,-1.367 -4.214,0.232 -6.881,2.207 -7.975,5.906 -0.308,1.039 -0.96,2.794 -1.45,3.899 -0.49,1.105 -1.142,3.085 -1.447,4.4 -1.446,6.214 -7.791,14.151 -12.58,15.734 -4.014,1.327 -5.411,3.404 -5.738,8.527 -0.409,6.435 6.765,6.503 15.518,0.148 0.734,-0.532 1.694,-1.195 2.134,-1.473 3.455,-2.184 4.986,-4.26 5.856,-7.943 1.528,-6.465 5.899,-13.202 9.558,-14.731 2.317,-0.968 7.718,-0.386 10.788,1.162 0.842,0.425 2.491,1.078 3.664,1.45 1.174,0.373 2.914,1.016 3.867,1.43 1.684,0.732 1.866,0.753 6.4,0.753 5.125,0 4.037,0.213 12.936,-2.527 5.745,-1.769 10.84,-6.856 13.076,-13.054 0.359,-0.997 1.127,-2.638 1.705,-3.649 2.889,-5.041 2.351,-6.936 -1.664,-5.856 M 99.6,140.96 c -2.691,0.208 -4.591,0.702 -7.067,1.838 -1.393,0.639 -2.953,1.336 -3.466,1.548 -7.821,3.232 -9.034,11.948 -2.269,16.312 3.18,2.051 3.302,2.103 7.602,3.212 8.378,2.16 12.408,2.292 17.758,0.582 1.627,-0.52 3.382,-1.025 3.9,-1.122 2.175,-0.408 5.809,-3.887 5.809,-5.56 0,-2.081 -1.983,-2.568 -3.989,-0.979 -3.352,2.655 -14.559,3.244 -18.945,0.995 -4.266,-2.187 -3.299,-8.96 1.6,-11.214 2.046,-0.94 10.293,-0.844 12.134,0.142 3.321,1.78 4.24,2.146 5.715,2.28 2.355,0.214 3.473,-1.401 2.717,-3.924 -0.406,-1.354 -1.149,-1.778 -3.74,-2.133 -1.2,-0.164 -2.709,-0.525 -3.354,-0.801 -2.213,-0.949 -9.575,-1.55 -14.405,-1.176 m 172.103,0.414 c -3.619,0.358 -5.303,2.292 -5.303,6.09 0,3.828 1.722,3.993 6.705,0.644 4.806,-3.231 6.555,-2.432 6.828,3.118 0.233,4.757 0.029,5.608 -1.823,7.599 -2.108,2.266 -2.171,3.835 -0.187,4.672 1.324,0.558 14.688,0.533 15.801,-0.03 1.927,-0.976 1.878,-2.525 -0.146,-4.666 -1.657,-1.751 -1.846,-2.41 -1.839,-6.399 0.012,-6.691 1.912,-7.703 7.26,-3.869 4.377,3.139 6.07,2.678 6.066,-1.653 -0.003,-3.138 -0.9,-4.733 -2.977,-5.292 -1.171,-0.316 -27.487,-0.5 -30.385,-0.214 m -142.998,0.234 c -2.125,0.636 -2.324,2.014 -0.54,3.736 2.079,2.008 2.496,3.239 2.499,7.372 0.003,4.032 -0.12,4.482 -1.707,6.248 -1.813,2.016 -1.847,3.47 -0.102,4.423 0.78,0.426 1.637,0.48 7.678,0.48 6.042,0 6.898,-0.054 7.678,-0.48 1.617,-0.882 1.722,-2.368 0.303,-4.298 -1.994,-2.711 -0.714,-3.756 4.6,-3.756 4.637,0 5.631,0.985 3.968,3.932 -2.261,4.007 -0.605,4.852 9.198,4.692 8.22,-0.135 9.774,-1.409 6.256,-5.129 -1.727,-1.826 -1.87,-2.296 -1.863,-6.112 0.007,-3.929 0.374,-4.948 2.511,-6.963 2.173,-2.048 2.059,-3.479 -0.329,-4.142 -2.161,-0.6 -14.467,-0.349 -15.798,0.322 -1.57,0.792 -1.711,1.718 -0.515,3.37 2.192,3.027 1.357,3.897 -3.743,3.897 -5.054,0 -5.917,-0.829 -3.866,-3.714 1.344,-1.89 1.175,-3.056 -0.546,-3.775 -1.029,-0.43 -14.301,-0.517 -15.682,-0.103 m 51.65,-0.089 c -2.269,0.442 -2.432,2.189 -0.386,4.121 1.891,1.784 2.164,2.703 2.164,7.273 0,4.007 -0.111,4.426 -1.632,6.165 -1.994,2.278 -1.702,4.055 0.751,4.574 2.348,0.497 34.578,0.254 35.373,-0.266 2.847,-1.866 2.258,-8.453 -0.756,-8.453 -0.519,0 -1.493,0.411 -2.554,1.077 -3.407,2.139 -3.281,2.11 -10.069,2.301 -7.631,0.215 -9.105,-0.254 -7.672,-2.442 0.831,-1.269 5.741,-1.312 8.463,-0.074 3.691,1.677 4.896,0.95 4.896,-2.954 0,-3.849 -0.861,-4.525 -4.667,-3.659 -4.762,1.083 -9.066,0.395 -9.066,-1.449 0,-1.628 0.799,-1.866 6.265,-1.866 6.271,0 6.995,0.111 9.017,1.381 3.013,1.894 4.964,2.729 5.742,2.455 2.745,-0.965 2.585,-6.489 -0.229,-7.903 -0.878,-0.44 -33.501,-0.698 -35.64,-0.281 m 45.245,0.408 c -1.855,0.937 -1.825,1.885 0.115,3.559 2.145,1.852 2.342,2.537 2.237,7.773 l -0.085,4.283 -1.4,1.48 c -1.929,2.038 -1.933,3.664 -0.011,4.475 1.656,0.698 35.422,0.531 36.375,-0.18 1.736,-1.296 2.331,-3.362 1.713,-5.94 -0.716,-2.984 -2.257,-3.391 -5.36,-1.414 -3.476,2.216 -3.251,2.164 -10.34,2.352 l -6.385,0.169 -0.696,-0.697 c -2.45,-2.449 2.912,-3.988 7.501,-2.152 3.732,1.494 5.669,0.562 5.669,-2.728 0,-2.746 -1.205,-3.979 -3.658,-3.741 -0.848,0.082 -3.182,0.228 -5.187,0.325 l -3.645,0.176 -0.688,-0.688 c -2.229,-2.229 -0.549,-3.114 5.9,-3.106 5.973,0.007 6.789,0.134 8.708,1.357 5.517,3.516 8.142,3.003 7.853,-1.535 -0.121,-1.905 -0.653,-2.837 -2.111,-3.695 -0.876,-0.516 -1.454,-0.536 -18.105,-0.606 l -17.2,-0.073 -1.2,0.606 m 93.2,-0.355 c -2.079,0.526 -2.568,1.379 -2.018,3.525 0.408,1.592 0.286,1.975 -1.478,4.629 -2.946,4.433 -4.15,6.026 -5.889,7.791 -4.916,4.992 -3.35,6.889 5.281,6.395 4.079,-0.233 5.037,-0.87 5.037,-3.348 0,-2.42 0.804,-2.965 4.373,-2.963 3.963,0.003 4.694,0.475 4.694,3.033 0,3.055 1.265,3.464 10.261,3.324 6.89,-0.107 7.667,-0.325 7.823,-2.191 0.107,-1.282 -0.366,-1.998 -2.021,-3.06 -1.338,-0.858 -3.028,-2.817 -5.073,-5.876 -0.629,-0.941 -1.446,-2.07 -1.815,-2.509 -1.484,-1.764 -2.044,-3.326 -1.848,-5.158 0.387,-3.614 0.218,-3.684 -9.194,-3.746 -4.033,-0.027 -7.693,0.042 -8.133,0.154 m 36.305,0.036 c -2.174,0.651 -2.351,2.113 -0.476,3.934 2.21,2.146 2.559,3.097 2.566,6.991 0.006,4.115 -0.088,4.455 -1.728,6.267 -2.002,2.211 -2.042,3.696 -0.124,4.667 1.111,0.562 13.68,0.587 15.001,0.03 1.705,-0.72 1.851,-2.268 0.431,-4.569 -1.105,-1.79 -1.056,-2.424 0.244,-3.124 1.904,-1.027 9.248,-0.46 9.248,0.714 0,0.131 0.061,0.399 0.137,0.596 0.076,0.197 -0.284,1.013 -0.8,1.813 -1.611,2.501 -1.184,4.165 1.234,4.817 1.733,0.466 13.182,0.241 14.219,-0.28 1.919,-0.964 1.878,-2.522 -0.121,-4.636 -2.995,-3.167 -2.668,-10.423 0.588,-13.039 2.176,-1.749 2.145,-3.327 -0.082,-4.107 -1.517,-0.532 -14.345,-0.463 -15.711,0.083 -1.868,0.748 -2.051,1.771 -0.664,3.721 2.051,2.885 1.188,3.714 -3.867,3.714 -5.055,0 -5.918,-0.829 -3.867,-3.714 1.374,-1.933 1.171,-2.947 -0.752,-3.75 -1.085,-0.453 -14.033,-0.561 -15.476,-0.128 m -30.194,9.676 c 0.737,0.539 0.44,1.383 -0.486,1.383 -0.956,0 -1.481,-0.704 -0.977,-1.311 0.427,-0.515 0.831,-0.534 1.463,-0.072"
       style="fill:#0087e6;fill-rule:evenodd;stroke:none" />
  </g>
</svg>
