<?xml version="1.0" encoding="UTF-8" standalone="no"?>
<svg
   xmlns="http://www.w3.org/2000/svg"
   version="1.1"
   viewBox="0 0 400 400"
   height="400"
   width="400"
   id="svg">
  <g
     transform="translate(0,117.18769)"
     id="svgg">
    <path
       style="fill-rule:evenodd;stroke:none;stroke-width:1.03101587"
       d="m 317.9387,6.554442 c -1.11659,0.6918116 -3.79517,1.0887527 -7.36558,1.0908147 -4.20448,0.00309 -7.99347,0.4794224 -10.23077,1.2856768 -1.05782,0.3814759 -3.4704,1.2217545 -5.36128,1.8682015 -1.88986,0.646447 -3.99313,1.501159 -4.6736,1.899131 -0.68047,0.399003 -2.10327,0.986682 -3.16212,1.305266 -1.05783,0.319615 -2.72807,0.98462 -3.71166,1.479508 -0.98256,0.493856 -2.98995,1.21866 -4.45914,1.609415 -1.47023,0.390755 -3.27245,1.013489 -4.00447,1.384655 -0.73202,0.371165 -2.61466,0.991837 -4.18283,1.378468 -4.20036,1.037202 -8.01409,3.465244 -14.7095,9.366779 -1.20939,1.06607 -2.69405,2.301227 -3.29926,2.744564 -0.6052,0.443337 -1.43001,1.105249 -1.83314,1.470229 -1.76407,1.596012 -11.49995,6.888216 -13.80633,7.502702 -0.62274,0.167024 -2.24556,0.774293 -3.6065,1.351662 -1.5857,0.672222 -3.63948,1.260932 -5.72007,1.638284 -1.78572,0.32477 -4.38388,0.938224 -5.77369,1.365065 -3.22502,0.988744 -3.34049,1.011426 -8.55022,1.672308 -2.40433,0.30518 -5.9304,0.912449 -7.83572,1.351661 -3.53123,0.812441 -6.6418,1.236188 -11.2989,1.539307 -1.43621,0.09382 -5.2056,0.408282 -8.37494,0.70006 -6.90368,0.634074 -10.41842,0.662943 -15.31162,0.126815 -2.01873,-0.220638 -6.30981,-0.596959 -9.53689,-0.836154 -6.38302,-0.473236 -7.45734,-0.630982 -11.19065,-1.645501 -1.36713,-0.372197 -4.27459,-0.986683 -6.46035,-1.367127 -2.18678,-0.379414 -5.2458,-1.059885 -6.79748,-1.510439 -6.31394,-1.832115 -12.95781,-1.711486 -21.51009,0.391786 -2.04141,0.502105 -4.79319,1.104218 -6.11392,1.338259 -1.38775,0.244351 -3.34359,0.848526 -4.62617,1.427957 -1.22279,0.551593 -2.28989,0.938224 -2.37031,0.856774 -0.68872,-0.688719 -7.364544,3.002318 -11.633981,6.433539 -2.551764,2.05069 -6.879969,4.974651 -9.618347,6.497462 -4.772572,2.654866 -15.933319,7.994497 -18.012878,8.61723 -0.604175,0.181459 -1.841394,0.736145 -2.748688,1.232064 -0.907294,0.495919 -2.628059,1.174327 -3.823007,1.508376 -1.194947,0.333018 -3.068303,1.013489 -4.162211,1.512501 -1.093908,0.49798 -3.171404,1.175358 -4.614827,1.504252 -1.444453,0.328894 -3.786921,1.013488 -5.205599,1.520748 -3.865278,1.38053 -6.306724,1.560958 -21.829698,1.609416 -13.6692085,0.04227 -13.7073561,0.04433 -15.3528573,0.686656 -0.907294,0.353639 -2.2352424,0.848526 -2.9517984,1.099063 l -1.30217304,0.455709 -0.00309,4.613796 c -0.00412,4.157056 0.043303,4.62823 0.47736044,4.7602 0.26394,0.08042 1.2609324,0.511384 2.214622,0.958845 3.5611287,1.669215 10.9710393,1.643439 19.2985543,-0.06598 1.437237,-0.295902 4.28284,-0.770169 6.324252,-1.05576 5.564392,-0.779448 8.367724,-1.321763 11.409221,-2.208436 1.5125,-0.441275 4.419965,-1.042357 6.461376,-1.336197 2.310507,-0.333018 4.593176,-0.856774 6.046908,-1.387747 1.284646,-0.469112 3.774549,-1.149583 5.533462,-1.513531 1.758913,-0.363949 4.233351,-1.08566 5.50047,-1.60323 1.266087,-0.518601 3.168312,-1.154738 4.227165,-1.414554 1.057822,-0.259816 2.85179,-0.95472 3.985907,-1.54343 1.134117,-0.589741 2.866224,-1.439299 3.849813,-1.889852 0.982558,-0.450554 2.467221,-1.242375 3.299251,-1.758914 3.273475,-2.036256 5.691207,-3.383794 7.275879,-4.058078 0.912449,-0.387662 2.153792,-1.016581 2.758998,-1.398057 0.605206,-0.380445 2.028008,-1.040295 3.162126,-1.466105 1.134117,-0.424778 2.613625,-1.090815 3.286878,-1.479508 0.674285,-0.388693 2.34453,-1.095969 3.711657,-1.572299 1.368155,-0.476329 3.190995,-1.128962 4.051895,-1.449608 2.7724,-1.034109 3.04252,-0.439213 1.0537,2.322879 -0.75265,1.044419 -1.72283,2.394018 -2.15792,2.998194 -1.71974,2.392987 -3.621959,5.560268 -4.023024,6.700572 -0.23301,0.65985 -0.855743,2.158947 -1.384655,3.32915 -0.528911,1.171234 -1.161954,3.10542 -1.407336,4.298305 -0.67016,3.263165 -2.27339,5.322104 -5.932465,7.619207 -3.455965,2.169257 -4.445741,2.417732 -11.588618,2.907465 l -3.530199,0.242288 -4.856084,2.361027 c -4.829279,2.347623 -4.873612,2.363083 -8.292461,2.796103 -1.889852,0.2392 -5.415926,0.74852 -7.83572,1.13103 -3.006442,0.47633 -6.31291,0.76914 -10.447284,0.92585 -10.665859,0.40313 -12.687681,1.43002 -18.829442,9.5668 -4.576679,6.06443 -4.001373,12.65572 1.233095,14.10945 3.525043,0.97946 10.302941,-1.96202 14.770333,-6.40983 3.949822,-3.93332 5.497376,-4.93444 10.008071,-6.47993 l 3.815789,-1.3063 12.04742,-0.0876 c 13.507339,-0.0969 14.494021,-0.0144 18.683039,1.57023 2.145544,0.81141 3.398228,1.10731 5.286018,1.25166 1.360941,0.1031 4.082823,0.37941 6.04897,0.61242 9.052323,1.07329 21.702883,-0.0103 25.194933,-2.15998 0.74852,-0.45983 1.98677,-1.07432 2.75385,-1.36609 0.76604,-0.29075 2.13111,-1.03102 3.03427,-1.64344 0.90214,-0.61346 2.21875,-1.36507 2.925,-1.67128 0.70624,-0.30621 1.62488,-0.87533 2.04141,-1.26506 2.61672,-2.4466 13.45063,-9.871967 16.1952,-11.099907 0.57943,-0.259816 1.61663,-0.859867 2.30638,-1.334134 1.16917,-0.805224 4.79731,-2.275452 7.95944,-3.226049 5.50666,-1.656842 27.45595,0.0598 32.30482,2.524958 0.68047,0.346421 2.16513,1.099063 3.29925,1.67437 1.13412,0.575307 2.76828,1.465073 3.63021,1.977488 0.86193,0.512415 2.40845,1.21763 3.43637,1.567144 1.02793,0.349515 2.493,0.95265 3.25595,1.33825 6.33456,3.21162 37.15884,3.34771 45.08426,0.19899 1.14855,-0.45571 3.48896,-1.125865 5.20045,-1.488782 1.71251,-0.362918 3.97044,-1.036171 5.02001,-1.496004 1.04854,-0.460864 3.09717,-1.14649 4.55297,-1.524873 1.45579,-0.378382 3.39719,-1.06607 4.31274,-1.528996 0.91657,-0.461895 2.31566,-1.09597 3.10851,-1.407337 1.63622,-0.643354 3.27554,-1.823867 6.25517,-4.505539 4.37151,-3.935387 9.52762,-7.934698 11.95979,-9.27708 1.75375,-0.967093 9.3874,-1.079474 11.04733,-0.16187 0.63305,0.349514 2.05585,1.112466 3.16213,1.696021 1.10628,0.583555 2.63012,1.525904 3.38585,2.092962 3.28997,2.468252 12.07114,6.44488 15.80754,7.156281 1.81562,0.346422 3.38895,0.862961 4.8499,1.591889 1.18979,0.594896 2.84354,1.301142 3.67454,1.570237 0.83203,0.269095 2.31669,0.889767 3.29925,1.378468 0.98359,0.489733 2.90128,1.161955 4.26222,1.494973 1.36094,0.333018 3.30956,0.972248 4.33129,1.419709 1.02071,0.447461 3.09408,1.119683 4.60658,1.493942 1.5125,0.374259 3.66733,1.045439 4.78907,1.490839 1.12175,0.4454 3.06934,1.07123 4.32821,1.38981 2.45175,0.6217 4.33336,1.68571 7.60374,4.30243 2.57857,2.06306 4.16633,2.61775 7.88315,2.75178 2.24761,0.0804 3.58896,0.28869 5.22415,0.80729 8.26463,2.62496 16.91897,-0.18455 20.00068,-6.49437 2.64043,-5.404579 -1.66097,-8.322354 -10.33697,-7.010902 -5.3654,0.81141 -8.31101,0.542315 -11.19889,-1.020705 -1.2733,-0.688719 -3.03325,-1.457857 -3.91064,-1.708394 -0.87843,-0.251567 -2.20225,-0.828936 -2.94149,-1.284645 -0.74027,-0.454678 -2.08265,-1.116591 -2.98479,-1.469198 -0.90111,-0.353638 -2.17545,-1.011426 -2.8322,-1.460949 -0.65573,-0.450554 -1.93522,-1.193917 -2.84251,-1.65375 -0.9073,-0.458802 -2.38474,-1.27949 -3.28276,-1.823867 -0.89801,-0.543345 -1.82593,-0.983589 -2.06203,-0.978434 -0.2361,0.0052 -1.78984,-0.668098 -3.45287,-1.496004 -1.66303,-0.828937 -3.6766,-1.702207 -4.47461,-1.942434 -0.79801,-0.240226 -2.09709,-0.848526 -2.88684,-1.352692 -0.78976,-0.503136 -1.74551,-1.008334 -2.1239,-1.121746 -0.6217,-0.185583 -4.25706,-1.859952 -7.83572,-3.607524 -1.87645,-0.916573 -4.62823,-3.202335 -6.30569,-5.238592 -1.86511,-2.262048 -2.50537,-3.367297 -7.14082,-12.315484 -0.85677,-1.65478 -1.78984,-3.386887 -2.0744,-3.849813 -0.28456,-0.461895 -0.7279,-1.397027 -0.98462,-2.077497 -0.25672,-0.68047 -1.07638,-2.552795 -1.82181,-4.160149 -3.00334,-6.479935 -1.45167,-8.675998 4.59112,-6.500555 2.29504,0.826875 2.70951,0.887705 6.05206,0.893891 l 3.58897,0.0062 2.32288,-1.234126 c 3.13944,-1.667153 5.56233,-1.750665 8.78116,-0.302088 3.98591,1.793968 6.71088,0.992869 8.80384,-2.587849 0.35364,-0.605207 1.16196,-1.66406 1.795,-2.354841 4.23026,-4.60864 4.24882,-6.481996 0.11135,-11.117443 -1.32589,-1.484663 -2.14761,-2.813643 -3.60031,-5.823178 -2.0909,-4.33336 -3.72506,-6.06959 -7.52023,-7.995528 -0.90729,-0.460864 -2.37649,-1.277428 -3.26522,-1.8156192 -0.88771,-0.5371593 -2.38577,-1.234126 -3.32812,-1.5475548 -0.94338,-0.3134288 -2.00017,-0.8753324 -2.35072,-1.2475292 l -0.63717,-0.6784084 -6.75624,0.022682 c -6.083,0.02062 -6.83976,0.074233 -7.58209,0.5340662 m 25.82385,64.6281984 c -5.58501,0.714494 -4.81794,6.007729 1.13412,7.823348 1.22175,0.372197 2.93736,1.108342 3.81166,1.635191 0.87534,0.526849 2.41361,1.204227 3.41885,1.504252 1.00524,0.301057 2.46104,0.975341 3.2343,1.498066 0.77326,0.522725 2.01048,1.148552 2.74972,1.390841 0.7382,0.242288 1.8383,0.742331 2.44247,1.111435 0.60521,0.370134 2.13214,1.169172 3.39308,1.77644 1.26093,0.607268 2.66414,1.369189 3.11882,1.692928 0.45571,0.323739 1.75685,0.936162 2.89303,1.35991 1.13618,0.423747 2.5497,1.090815 3.14151,1.482601 3.92507,2.597129 7.24701,-0.5784 4.98083,-4.761232 -1.59292,-2.940457 -7.54909,-6.883061 -12.11649,-8.019241 -1.2032,-0.300025 -3.09924,-0.933069 -4.2117,-1.407336 -1.1135,-0.474268 -3.12192,-1.1568 -4.46533,-1.516625 -2.061,-0.552624 -2.89716,-0.969155 -5.36129,-2.6693 -4.27562,-2.950767 -5.2025,-3.280692 -8.16358,-2.901278 m -48.91861,8.753324 c -6.13867,1.470229 -11.50098,6.497462 -10.98547,10.298817 0.85677,6.317035 6.24074,7.598587 19.78313,4.705557 1.66406,-0.35467 4.07664,-0.78151 5.36128,-0.947504 7.27176,-0.940286 8.41825,-3.120885 3.16213,-6.012884 -2.43423,-1.340321 -4.52513,-2.60847 -6.49643,-3.941574 -0.85059,-0.575307 -1.90223,-1.17742 -2.33732,-1.337227 -0.43405,-0.159808 -1.90222,-0.834092 -3.26316,-1.497035 -2.62806,-1.281553 -3.88899,-1.587765 -5.22416,-1.26815 M 133.2353,108.94153 c -0.72583,0.19486 -2.14864,0.91142 -3.16212,1.59189 -2.89716,1.94553 -7.44806,4.24882 -9.38225,4.74886 -0.97225,0.25054 -2.36618,0.75883 -3.09717,1.12999 -2.9054,1.47229 -4.0354,1.60529 -13.55683,1.60014 -9.767846,-0.005 -10.960731,-0.14022 -14.624962,-1.65684 -2.600222,-1.07638 -7.843968,-1.66716 -12.519625,-1.4094 -4.344701,0.23919 -7.09442,2.27545 -8.222351,6.08918 -0.317553,1.07122 -0.989776,2.88065 -1.494973,4.01993 -0.505198,1.13927 -1.177421,3.18068 -1.49188,4.53647 -1.490849,6.40673 -8.032645,14.5899 -12.97018,16.222 -4.138497,1.36816 -5.578826,3.50958 -5.915969,8.79147 -0.421685,6.63459 6.974823,6.7047 15.999304,0.15259 0.756766,-0.5485 1.746541,-1.23206 2.200188,-1.51868 3.56216,-2.25174 5.140645,-4.39213 6.037629,-8.18936 1.575392,-6.66552 6.081962,-13.61147 9.854449,-15.1879 2.388864,-0.99802 7.957381,-0.39797 11.122599,1.19804 0.868116,0.43819 2.568261,1.11144 3.777642,1.49498 1.210413,0.38457 3.00438,1.04751 3.986939,1.47435 1.73623,0.7547 1.92387,0.77635 6.5985,0.77635 5.28396,0 4.16222,0.21961 13.33723,-2.60537 5.92318,-1.82387 11.17621,-7.06865 13.48156,-13.45888 0.37013,-1.02793 1.16195,-2.71982 1.75788,-3.76218 2.97861,-5.19735 2.42392,-7.15113 -1.71561,-6.03763"
       id="path0" />
  </g>
</svg>
