<svg id="svg" version="1.1" xmlns="http://www.w3.org/2000/svg"  width="400" height="400" viewBox="0, 0, 400,400"><g id="svgg"><path id="path0" d="M106.985 156.669 C 89.878 176.104,75.616 191.842,75.292 191.641 C 74.969 191.441,72.820 187.695,70.519 183.316 L 66.333 175.355 49.472 175.344 L 32.610 175.333 34.227 178.167 C 45.977 198.766,54.717 216.177,53.829 217.217 C 53.305 217.831,41.341 231.533,27.242 247.667 C 13.144 263.800,1.379 277.375,1.099 277.833 C 0.697 278.489,3.125 278.657,12.461 278.620 L 24.333 278.574 44.000 255.993 C 54.817 243.574,63.817 233.399,64.000 233.382 C 64.183 233.366,66.439 237.173,69.013 241.843 L 73.692 250.333 90.179 250.512 C 99.486 250.612,106.667 250.432,106.667 250.097 C 106.667 249.669,86.907 213.111,84.963 209.943 C 84.831 209.728,101.961 189.945,123.028 165.979 C 144.096 142.014,161.333 122.165,161.333 121.870 C 161.333 121.575,156.103 121.333,149.711 121.333 L 138.089 121.333 106.985 156.669 M134.236 159.263 L 119.497 175.773 114.747 212.053 C 112.135 232.007,109.998 248.861,109.999 249.505 C 110.000 250.612,112.209 250.668,149.833 250.505 L 189.667 250.333 190.790 243.000 C 191.408 238.967,191.933 235.142,191.957 234.500 C 191.997 233.408,190.318 233.333,165.667 233.333 C 143.330 233.333,139.333 233.189,139.333 232.384 C 139.333 231.862,141.572 211.551,144.308 187.248 C 147.044 162.945,149.213 142.991,149.129 142.906 C 149.044 142.822,142.342 150.182,134.236 159.263 M158.889 197.398 C 151.899 199.422,151.457 207.569,158.078 212.325 C 165.427 217.606,161.933 222.376,153.771 218.204 C 151.505 217.045,151.426 217.101,151.187 220.035 C 151.004 222.287,151.078 222.359,154.825 223.576 C 167.371 227.652,173.191 215.470,162.283 207.965 C 158.798 205.568,158.245 203.048,160.975 202.009 C 162.595 201.394,166.058 202.128,167.755 203.447 C 168.235 203.820,168.661 203.643,168.922 202.962 C 169.886 200.451,169.320 199.492,166.043 198.082 C 162.451 196.537,162.010 196.495,158.889 197.398 M231.142 197.573 C 215.002 202.123,216.573 225.207,233.000 224.869 C 240.133 224.722,242.296 223.579,242.537 219.833 C 242.725 216.902,242.000 215.715,241.005 217.325 C 239.142 220.340,229.168 220.226,227.024 217.165 C 222.224 210.312,229.498 201.291,239.002 202.309 L 243.169 202.755 243.513 200.544 C 243.702 199.328,243.643 198.102,243.381 197.819 C 242.461 196.825,234.373 196.663,231.142 197.573 M264.535 210.636 L 258.112 224.667 261.334 224.667 C 264.539 224.667,264.563 224.650,265.702 221.667 L 266.848 218.667 270.686 218.667 C 274.847 218.667,275.333 219.091,275.333 222.721 C 275.333 224.586,275.459 224.667,278.374 224.667 L 281.415 224.667 280.951 221.500 C 280.696 219.758,279.693 213.533,278.723 207.667 L 276.959 197.000 273.959 196.803 L 270.958 196.606 264.535 210.636 M176.354 198.833 C 176.169 199.658,175.317 205.808,174.462 212.500 L 172.907 224.667 175.712 224.667 C 178.805 224.667,178.491 225.233,179.681 217.500 C 180.103 214.761,180.198 214.667,182.563 214.667 C 192.681 214.667,197.643 204.973,190.571 199.022 C 187.658 196.571,176.896 196.428,176.354 198.833 M199.331 197.500 C 199.329 197.592,198.579 203.174,197.664 209.905 C 196.749 216.636,196.000 222.861,196.000 223.738 L 196.000 225.333 205.268 225.333 L 214.536 225.333 215.268 223.234 C 215.671 222.079,216.000 220.879,216.000 220.567 C 216.000 220.255,212.815 220.000,208.922 220.000 C 201.908 220.000,201.848 219.987,202.246 218.500 C 202.468 217.675,202.653 216.175,202.658 215.167 L 202.667 213.333 207.667 213.333 L 212.667 213.333 212.667 211.000 L 212.667 208.667 208.295 208.667 L 203.923 208.667 204.128 205.833 L 204.333 203.000 210.212 202.807 L 216.090 202.613 217.045 200.328 C 217.570 199.071,218.000 197.883,218.000 197.688 C 218.000 197.493,213.800 197.333,208.667 197.333 C 203.533 197.333,199.332 197.408,199.331 197.500 M251.331 197.833 C 251.329 198.108,250.579 203.840,249.664 210.571 C 247.548 226.133,247.437 224.784,250.810 224.538 L 253.620 224.333 255.106 213.000 C 255.924 206.767,256.740 200.692,256.921 199.500 L 257.250 197.333 254.291 197.333 C 252.664 197.333,251.332 197.558,251.331 197.833 M287.422 208.833 C 286.601 215.158,285.762 221.308,285.557 222.500 L 285.185 224.667 293.527 224.667 L 301.870 224.667 302.601 222.567 C 303.004 221.412,303.333 220.362,303.333 220.234 C 303.333 220.105,300.783 220.000,297.667 220.000 C 290.992 220.000,291.476 221.380,293.333 207.667 C 294.067 202.251,294.667 197.711,294.667 197.577 C 294.667 197.443,293.373 197.333,291.791 197.333 L 288.916 197.333 287.422 208.833 M308.713 208.500 C 307.902 214.642,307.071 220.792,306.867 222.167 L 306.496 224.667 309.433 224.667 L 312.371 224.667 313.915 212.500 C 314.765 205.808,315.614 199.658,315.802 198.833 C 316.118 197.451,315.912 197.333,313.166 197.333 L 310.187 197.333 308.713 208.500 M323.132 197.833 C 322.977 198.108,322.657 199.147,322.419 200.142 L 321.987 201.950 327.953 202.142 L 333.919 202.333 325.668 213.333 L 317.417 224.333 328.826 224.516 C 340.898 224.710,340.986 224.692,341.692 221.833 L 342.145 220.000 335.057 220.000 L 327.969 220.000 335.857 209.500 C 340.196 203.725,343.971 198.625,344.246 198.167 C 344.637 197.514,342.434 197.333,334.079 197.333 C 328.212 197.333,323.286 197.558,323.132 197.833 M351.022 198.167 C 350.873 198.625,350.126 203.950,349.361 210.000 C 348.595 216.050,347.802 221.825,347.598 222.833 L 347.227 224.667 356.928 224.667 L 366.629 224.667 367.191 222.500 L 367.754 220.333 360.877 220.144 C 353.312 219.936,353.487 220.064,354.417 215.417 L 354.833 213.333 359.339 213.333 C 363.448 213.333,363.880 213.201,364.246 211.833 C 365.224 208.187,365.013 208.000,359.922 208.000 C 355.327 208.000,355.191 207.953,355.580 206.500 C 355.801 205.675,355.986 204.325,355.991 203.500 C 356.000 202.052,356.215 202.000,362.256 202.000 C 368.179 202.000,368.532 201.920,368.913 200.500 C 369.768 197.311,369.829 197.333,360.312 197.333 C 353.684 197.333,351.220 197.554,351.022 198.167 M375.306 197.500 C 375.290 197.592,374.447 203.742,373.432 211.167 L 371.587 224.667 379.417 224.667 C 387.941 224.667,390.008 224.175,392.917 221.458 C 400.109 214.740,398.398 201.939,389.830 198.359 C 387.801 197.511,375.426 196.779,375.306 197.500 M186.962 203.482 C 188.978 206.359,186.549 210.000,182.614 210.000 C 180.602 210.000,180.520 209.900,180.917 207.917 C 181.146 206.771,181.333 204.971,181.333 203.917 C 181.333 201.378,185.275 201.073,186.962 203.482 M386.977 202.947 C 395.756 206.616,391.294 220.000,381.292 220.000 L 377.852 220.000 378.235 217.833 C 378.446 216.642,378.948 212.967,379.351 209.667 C 379.753 206.367,380.205 203.292,380.354 202.833 C 380.717 201.717,384.176 201.777,386.977 202.947 M273.942 212.500 C 273.998 214.593,273.909 214.667,271.333 214.667 C 269.867 214.667,268.667 214.568,268.667 214.448 C 268.667 214.254,270.875 208.588,272.350 205.000 C 272.927 203.595,273.814 207.777,273.942 212.500 M200.470 233.752 C 199.317 234.905,200.106 236.000,202.091 236.000 C 204.167 236.000,204.179 236.020,203.793 238.833 C 202.501 248.258,202.457 250.667,203.575 250.667 C 204.175 250.667,204.667 250.499,204.667 250.294 C 204.667 249.877,205.852 241.483,206.373 238.207 C 206.663 236.386,207.020 236.051,208.856 235.874 C 210.225 235.742,211.000 235.305,211.000 234.667 C 211.000 233.601,201.451 232.771,200.470 233.752 M216.380 234.081 C 215.638 236.276,214.287 250.099,214.785 250.406 C 215.895 251.092,216.639 249.864,217.067 246.639 C 217.669 242.095,219.175 242.217,221.521 247.000 C 224.412 252.895,226.300 252.224,223.654 246.242 L 221.975 242.445 223.321 241.013 C 226.134 238.019,224.166 234.164,219.505 233.539 C 217.448 233.263,216.607 233.409,216.380 234.081 M235.563 234.131 C 234.046 236.487,228.909 250.071,229.417 250.385 C 230.376 250.977,231.191 250.117,232.003 247.657 C 233.064 244.444,237.993 244.041,238.010 247.167 C 238.023 249.524,239.051 251.220,239.926 250.328 C 240.772 249.466,237.959 233.867,236.894 233.517 C 236.470 233.377,235.870 233.654,235.563 234.131 M247.028 234.833 C 246.465 237.381,245.333 246.657,245.333 248.715 C 245.333 250.408,247.285 251.810,247.354 250.167 C 247.366 249.892,247.807 246.517,248.333 242.667 C 248.860 238.817,249.301 235.142,249.312 234.500 C 249.343 232.792,247.416 233.074,247.028 234.833 M256.646 233.833 C 256.634 234.108,256.190 237.333,255.658 241.000 C 254.161 251.337,253.992 250.768,258.494 250.533 C 263.434 250.275,264.746 248.000,259.954 248.000 L 257.143 248.000 257.564 244.167 C 257.795 242.058,258.179 238.758,258.418 236.833 C 258.787 233.858,258.689 233.333,257.760 233.333 C 257.158 233.333,256.657 233.558,256.646 233.833 M269.008 234.167 C 268.431 235.860,266.776 249.637,267.088 250.143 C 267.657 251.064,275.770 250.747,276.579 249.772 C 277.697 248.425,276.811 248.000,272.889 248.000 C 269.187 248.000,268.965 247.776,269.754 244.833 C 270.083 243.604,270.623 243.333,272.744 243.333 C 274.889 243.333,275.333 243.104,275.333 242.000 C 275.333 240.921,274.889 240.667,273.000 240.667 C 270.778 240.667,270.667 240.556,270.667 238.333 L 270.667 236.000 273.929 236.000 C 276.968 236.000,278.688 234.910,277.510 233.732 C 276.713 232.935,269.298 233.314,269.008 234.167 M283.739 234.750 C 282.051 242.904,281.649 250.667,282.917 250.667 C 283.831 250.667,284.667 247.920,284.667 244.917 C 284.667 241.855,287.025 243.012,288.913 247.000 C 289.890 249.064,291.090 250.667,291.658 250.667 C 293.052 250.667,292.930 249.809,290.993 245.985 L 289.318 242.682 290.659 241.341 C 293.584 238.416,291.513 234.166,286.860 233.541 C 284.319 233.201,284.038 233.309,283.739 234.750 M299.011 234.928 C 296.692 237.247,296.899 238.751,300.039 242.378 C 301.604 244.186,302.587 245.912,302.372 246.473 C 302.167 247.006,302.000 247.568,302.000 247.721 C 302.000 248.280,299.210 247.981,297.903 247.281 C 296.725 246.651,296.587 246.747,296.780 248.063 C 297.081 250.117,300.015 251.051,302.476 249.876 C 305.507 248.430,305.453 244.357,302.364 241.363 C 298.876 237.982,299.632 234.714,303.669 235.727 C 305.186 236.108,305.428 235.982,305.227 234.922 C 304.839 232.874,301.061 232.878,299.011 234.928 M313.767 236.500 C 313.544 238.242,313.163 242.142,312.919 245.167 L 312.475 250.667 351.531 250.667 C 377.650 250.667,390.729 250.439,391.013 249.979 C 391.527 249.148,393.305 237.740,393.321 235.167 L 393.333 233.333 353.753 233.333 L 314.172 233.333 313.767 236.500 M221.667 238.333 C 221.667 240.020,221.379 240.366,219.833 240.544 C 218.011 240.754,217.050 237.839,218.473 236.416 C 219.702 235.187,221.667 236.366,221.667 238.333 M289.000 238.333 C 289.000 240.020,288.712 240.366,287.167 240.544 C 285.241 240.766,285.013 240.265,285.763 237.465 C 286.411 235.044,289.000 235.738,289.000 238.333 M236.864 240.833 C 237.220 243.144,237.126 243.333,235.625 243.333 C 233.710 243.333,233.708 243.322,235.009 240.210 C 236.179 237.408,236.344 237.463,236.864 240.833 " stroke="none" fill-rule="evenodd"></path></g></svg>