<svg id="svg" version="1.1" xmlns="http://www.w3.org/2000/svg"  width="400" height="400" viewBox="0, 0, 400,400"><g id="svgg"><path id="path0" d="M196.704 113.821 C 188.617 114.382,177.918 116.471,174.150 118.225 C 173.924 118.331,172.626 118.848,171.267 119.374 C 158.470 124.329,145.992 133.683,137.005 145.057 L 135.907 146.447 67.953 146.447 L 0.000 146.447 0.003 147.940 C 0.031 160.782,2.714 166.193,11.172 170.463 C 15.067 172.429,21.617 174.206,25.266 174.286 L 26.124 174.305 26.260 175.566 C 26.335 176.260,26.437 177.199,26.487 177.652 C 26.650 179.140,27.343 182.161,27.791 183.346 C 30.617 190.806,42.287 196.498,54.759 196.499 L 56.540 196.499 56.905 199.108 C 58.617 211.352,68.909 217.294,88.411 217.300 L 94.330 217.302 94.660 218.074 C 95.399 219.805,95.591 220.128,96.837 221.742 C 101.225 227.424,107.183 230.097,116.787 230.693 C 118.883 230.823,121.326 230.992,122.217 231.067 L 123.836 231.205 124.650 233.265 C 127.102 239.469,131.330 247.010,135.562 252.729 C 152.812 276.035,181.840 288.836,209.681 285.414 C 220.679 284.062,230.852 280.692,240.288 275.272 C 242.079 274.244,247.507 270.746,247.786 270.441 C 247.842 270.379,248.723 269.683,249.743 268.895 C 261.341 259.927,271.386 246.495,276.640 232.929 L 277.328 231.151 280.940 230.910 C 286.792 230.518,288.984 230.286,290.742 229.872 C 297.427 228.297,303.020 224.118,305.677 218.713 L 306.350 217.343 312.959 217.250 C 322.149 217.120,326.669 216.245,332.132 213.539 C 339.066 210.103,342.117 205.902,342.992 198.585 L 343.235 196.559 346.334 196.434 C 355.311 196.072,363.763 193.073,368.294 188.642 C 371.609 185.401,372.609 183.107,373.367 177.010 L 373.703 174.309 375.265 174.187 C 385.374 173.400,394.628 168.391,397.622 162.087 C 399.307 158.538,400.255 151.721,399.663 147.403 L 399.532 146.447 332.333 146.447 L 265.135 146.447 264.790 145.921 C 257.372 134.599,236.159 119.910,222.863 116.889 C 222.693 116.850,221.229 116.490,219.610 116.090 C 212.571 114.347,202.913 113.390,196.704 113.821 M208.760 119.570 C 227.982 121.799,245.779 131.313,258.166 145.980 L 258.554 146.440 238.869 146.445 C 228.042 146.447,219.041 146.504,218.867 146.570 C 218.694 146.637,217.691 146.407,216.639 146.059 C 206.711 142.773,194.570 142.742,184.702 145.978 C 182.835 146.590,182.159 146.726,181.535 146.614 C 181.099 146.536,172.191 146.465,161.740 146.456 C 149.006 146.446,142.739 146.372,142.739 146.231 C 142.739 145.794,150.987 137.778,153.450 135.821 C 169.408 123.139,189.257 117.307,208.760 119.570 M174.236 150.646 C 174.189 150.689,173.038 151.470,171.679 152.381 C 165.395 156.590,160.762 161.235,156.385 167.714 L 154.611 170.340 90.498 170.340 C 22.194 170.340,24.447 170.370,20.275 169.402 C 13.012 167.718,7.407 164.081,5.600 159.879 C 5.103 158.724,4.429 154.973,4.233 152.266 L 4.110 150.566 89.216 150.566 C 136.024 150.566,174.283 150.602,174.236 150.646 M395.621 152.781 C 395.165 161.765,390.858 166.432,380.544 169.116 C 375.574 170.410,379.599 170.340,309.924 170.340 L 246.439 170.340 245.540 168.884 C 241.722 162.696,235.768 156.585,229.480 152.400 L 226.726 150.566 311.229 150.566 L 395.733 150.566 395.621 152.781 M207.224 151.185 C 245.490 156.803,261.321 206.080,233.986 234.481 C 206.074 263.481,158.460 246.368,153.736 205.637 C 150.034 173.728,176.595 146.688,207.224 151.185 M152.352 174.717 C 152.290 174.858,151.862 175.836,151.401 176.888 C 149.673 180.830,148.123 186.249,147.455 190.680 L 147.200 192.379 99.662 192.379 C 45.182 192.379,48.404 192.500,42.019 190.205 C 34.286 187.426,31.145 183.550,30.383 175.850 L 30.245 174.459 91.355 174.459 C 140.165 174.459,152.442 174.511,152.352 174.717 M369.512 174.923 C 369.441 183.668,364.156 189.112,353.472 191.447 C 349.123 192.397,350.579 192.371,300.885 192.375 L 253.984 192.379 253.853 191.607 C 252.891 185.928,251.444 180.759,249.719 176.834 C 249.222 175.704,248.816 174.708,248.816 174.620 C 248.816 174.531,275.973 174.459,309.166 174.459 L 369.516 174.459 369.512 174.923 M200.903 185.479 C 200.903 186.838,200.936 187.368,200.977 186.655 C 201.017 185.943,201.017 184.830,200.976 184.183 C 200.935 183.537,200.902 184.119,200.903 185.479 M146.762 198.095 C 146.486 201.266,147.184 208.448,148.205 212.932 L 148.312 213.404 115.093 213.335 C 84.542 213.273,81.701 213.238,79.712 212.905 C 67.324 210.829,60.762 205.405,60.762 197.238 L 60.762 196.498 103.832 196.498 L 146.902 196.498 146.762 198.095 M338.905 198.404 C 337.881 205.650,333.499 209.730,324.257 212.040 C 319.119 213.324,321.027 213.260,285.400 213.335 L 252.880 213.404 253.020 212.727 C 253.933 208.275,254.375 204.013,254.376 199.640 L 254.377 196.498 296.776 196.498 L 339.174 196.498 338.905 198.404 M160.089 198.146 C 160.089 198.543,160.131 198.705,160.183 198.507 C 160.235 198.308,160.235 197.984,160.183 197.786 C 160.131 197.588,160.089 197.750,160.089 198.146 M160.089 201.442 C 160.089 201.838,160.131 202.001,160.183 201.802 C 160.235 201.604,160.235 201.280,160.183 201.081 C 160.131 200.883,160.089 201.045,160.089 201.442 M150.142 219.567 C 151.128 222.352,151.978 224.289,153.414 227.022 C 154.051 228.234,154.528 229.262,154.474 229.307 C 154.370 229.395,117.528 226.729,113.863 226.369 C 107.723 225.764,101.658 222.338,99.317 218.153 L 98.840 217.300 124.108 217.352 L 149.376 217.405 150.142 219.567 M301.751 217.421 C 301.751 217.826,300.065 219.953,298.769 221.184 C 295.245 224.532,290.952 226.171,284.665 226.570 C 282.888 226.683,273.619 227.378,264.067 228.115 C 254.516 228.851,246.631 229.454,246.546 229.454 C 246.460 229.454,246.886 228.557,247.492 227.461 C 248.718 225.242,250.323 221.588,251.210 219.001 L 251.792 217.302 276.771 217.302 C 290.510 217.302,301.751 217.356,301.751 217.421 M139.856 232.416 C 143.651 232.708,147.358 232.995,148.095 233.053 C 148.831 233.111,150.778 233.253,152.420 233.369 C 157.926 233.758,157.341 233.572,158.753 235.388 C 180.524 263.396,222.859 262.824,243.282 234.245 C 243.537 233.888,244.359 233.789,252.111 233.191 C 261.684 232.451,262.178 232.412,265.499 232.119 C 266.802 232.004,268.727 231.853,269.776 231.784 L 271.683 231.659 271.351 232.462 C 265.185 247.376,253.289 261.242,239.478 269.614 C 203.416 291.475,157.204 279.581,135.064 242.739 C 132.928 239.185,129.557 232.481,129.557 231.788 C 129.557 231.644,130.872 231.724,139.856 232.416 M199.537 276.774 C 200.131 276.815,201.105 276.815,201.699 276.774 C 202.294 276.732,201.807 276.698,200.618 276.698 C 199.428 276.698,198.942 276.732,199.537 276.774 " stroke="none" fill="#838384" fill-rule="evenodd"></path><path id="path1" d="M192.641 119.567 C 174.379 121.648,157.190 130.391,145.012 143.792 C 142.474 146.585,142.462 146.447,145.244 146.447 L 147.542 146.447 150.548 143.512 C 178.946 115.775,222.483 115.995,251.201 144.019 L 253.689 146.447 255.990 146.447 C 257.255 146.447,258.290 146.362,258.290 146.259 C 258.290 145.449,249.553 137.259,245.324 134.104 C 230.337 122.926,210.703 117.509,192.641 119.567 M199.539 128.615 L 198.795 130.120 197.196 130.358 C 196.316 130.489,195.570 130.623,195.538 130.655 C 195.506 130.687,196.019 131.247,196.678 131.899 L 197.876 133.085 197.603 134.655 C 197.270 136.574,197.150 136.491,198.928 135.574 L 200.411 134.809 201.853 135.594 C 203.487 136.483,203.445 136.526,203.065 134.342 L 202.834 133.018 204.010 131.829 C 205.339 130.487,205.377 130.550,203.068 130.273 L 201.914 130.135 201.218 128.696 C 200.326 126.853,200.409 126.857,199.539 128.615 M4.406 152.781 C 4.750 158.152,5.716 160.819,8.222 163.311 C 11.407 166.478,16.080 168.557,22.760 169.779 L 25.232 170.231 89.907 170.284 L 154.583 170.337 155.711 168.536 C 159.532 162.436,165.559 156.278,171.587 152.319 C 172.770 151.541,173.826 150.829,173.934 150.736 C 174.042 150.643,135.910 150.566,89.197 150.566 L 4.265 150.566 4.406 152.781 M229.053 151.975 C 235.466 156.174,240.932 161.647,245.123 168.068 L 246.605 170.340 309.142 170.340 C 371.711 170.340,373.822 170.317,377.800 169.623 C 389.924 167.506,395.675 161.577,395.675 151.192 L 395.675 150.566 311.288 150.566 L 226.901 150.566 229.053 151.975 M195.469 151.001 C 156.290 155.446,139.407 205.625,167.347 234.582 C 193.448 261.633,238.068 248.357,246.436 211.051 C 253.800 178.214,227.609 147.355,195.469 151.001 M205.649 157.675 C 217.208 159.190,227.566 165.883,234.167 176.101 C 234.860 177.174,235.427 178.186,235.427 178.349 C 235.427 178.607,232.497 178.629,213.228 178.515 L 191.029 178.384 183.517 187.317 L 176.004 196.250 175.950 187.315 L 175.897 178.380 170.746 178.325 L 165.596 178.270 166.557 176.725 C 172.916 166.502,183.452 159.400,194.645 157.793 C 195.494 157.671,196.421 157.537,196.704 157.495 C 198.109 157.289,203.538 157.398,205.649 157.675 M30.485 175.438 C 30.493 183.398,35.203 188.391,45.211 191.051 C 50.058 192.340,46.471 192.255,99.114 192.324 L 147.045 192.387 147.155 191.714 C 147.616 188.908,147.779 188.078,148.302 185.891 C 149.028 182.856,150.101 179.603,151.206 177.083 C 151.666 176.037,152.090 175.064,152.150 174.923 C 152.236 174.717,140.001 174.665,91.371 174.665 L 30.484 174.665 30.485 175.438 M249.216 175.466 C 251.092 179.143,253.954 189.000,253.963 191.813 L 253.965 192.379 299.964 192.379 C 352.622 192.379,350.428 192.456,356.810 190.392 C 365.122 187.705,368.604 183.731,369.240 176.203 L 369.370 174.665 309.089 174.665 L 248.807 174.665 249.216 175.466 M207.422 187.848 L 213.800 187.848 213.800 203.402 L 213.800 218.955 220.134 218.901 L 226.468 218.847 226.520 203.347 L 226.573 187.848 233.043 187.848 L 239.513 187.848 239.945 189.690 C 242.667 201.285,240.440 214.070,233.992 223.861 C 217.790 248.462,183.415 248.478,167.191 223.893 C 165.957 222.023,164.367 219.184,164.367 218.852 C 164.367 218.792,166.961 218.744,170.132 218.744 L 175.897 218.744 175.951 209.371 L 176.004 199.998 183.929 209.371 L 191.853 218.744 199.563 218.744 C 206.886 218.744,207.257 218.725,206.965 218.383 C 202.694 213.381,189.683 197.905,189.494 197.603 C 189.258 197.225,189.749 196.567,195.081 190.123 L 200.927 183.058 200.985 185.453 L 201.043 187.848 207.422 187.848 M163.082 207.878 L 163.028 215.963 162.367 214.006 C 159.314 204.959,159.273 194.938,162.253 185.959 L 163.028 183.625 163.082 191.710 C 163.111 196.156,163.111 203.432,163.082 207.878 M60.873 197.683 C 61.811 204.433,64.259 207.508,71.005 210.411 C 77.378 213.154,75.632 213.045,114.493 213.125 L 148.142 213.194 148.013 212.679 C 147.254 209.656,146.655 203.948,146.654 199.743 L 146.653 196.704 103.695 196.704 L 60.737 196.704 60.873 197.683 M254.492 198.198 C 254.745 201.051,253.666 211.960,253.030 212.990 C 252.856 213.270,315.807 213.246,318.391 212.964 C 326.472 212.084,333.081 209.179,336.475 205.014 C 337.703 203.506,338.406 201.402,338.921 197.683 L 339.057 196.704 296.708 196.704 L 254.360 196.704 254.492 198.198 M99.422 218.163 C 101.556 221.919,107.559 225.476,112.910 226.154 C 114.203 226.318,153.625 229.268,154.303 229.251 C 154.375 229.250,153.714 227.819,152.834 226.073 C 151.954 224.327,150.791 221.685,150.248 220.203 L 149.262 217.508 124.156 217.508 L 99.050 217.508 99.422 218.163 M251.585 218.177 C 251.309 219.437,249.209 224.406,247.908 226.880 L 246.607 229.353 264.447 227.975 C 274.259 227.218,283.630 226.503,285.273 226.387 C 291.184 225.971,295.632 224.175,299.022 220.838 C 300.109 219.767,301.545 217.939,301.545 217.625 C 301.545 217.561,290.337 217.508,276.638 217.508 L 251.732 217.508 251.585 218.177 M130.257 233.316 C 138.334 252.154,154.370 267.837,173.120 275.239 C 210.297 289.913,251.777 273.024,269.634 235.942 C 270.507 234.130,271.287 232.429,271.367 232.163 L 271.514 231.678 269.485 231.828 C 268.369 231.910,267.422 232.068,267.381 232.178 C 263.347 242.904,251.722 256.850,240.474 264.456 C 203.814 289.247,154.434 275.239,134.890 234.505 L 133.682 231.987 132.104 231.853 C 131.235 231.780,130.311 231.720,130.049 231.720 L 129.573 231.720 130.257 233.316 M154.276 245.104 C 153.491 246.726,153.579 246.665,151.732 246.863 C 149.964 247.052,149.946 247.116,151.321 248.302 L 152.472 249.296 152.350 250.446 C 152.283 251.079,152.165 251.908,152.088 252.290 L 151.947 252.983 153.455 252.150 L 154.963 251.318 156.390 252.037 C 158.109 252.902,158.085 252.918,157.774 251.072 L 157.525 249.594 158.720 248.386 C 160.118 246.973,160.151 247.069,158.187 246.836 L 156.643 246.653 155.920 245.278 C 155.522 244.522,155.145 243.851,155.082 243.788 C 155.019 243.725,154.657 244.317,154.276 245.104 M244.005 245.547 L 243.269 247.118 241.887 247.266 C 239.780 247.492,239.780 247.491,241.104 248.828 L 242.282 250.019 242.139 251.094 C 242.061 251.685,241.941 252.449,241.872 252.790 L 241.748 253.411 243.280 252.566 L 244.813 251.720 246.299 252.527 C 247.117 252.970,247.786 253.238,247.786 253.122 C 247.786 253.006,247.679 252.262,247.548 251.469 L 247.309 250.026 248.491 248.831 C 249.818 247.490,249.819 247.492,247.709 247.266 L 246.324 247.118 245.533 245.546 L 244.741 243.975 244.005 245.547 " stroke="none" fill="#dedede" fill-rule="evenodd"></path><path id="path2" d="M194.851 123.175 C 177.632 124.782,162.848 131.628,150.208 143.848 C 148.932 145.082,147.889 146.169,147.889 146.264 C 147.889 146.360,155.281 146.446,164.315 146.455 C 173.350 146.465,181.099 146.536,181.535 146.614 C 182.158 146.726,182.837 146.589,184.702 145.978 C 194.570 142.742,206.711 142.773,216.639 146.059 C 217.691 146.407,218.693 146.638,218.865 146.571 C 219.037 146.505,226.889 146.446,236.314 146.441 L 253.450 146.430 250.463 143.499 C 235.719 129.027,214.651 121.328,194.851 123.175 M201.157 128.373 C 202.053 130.159,201.980 130.105,203.744 130.282 C 205.565 130.465,205.583 130.538,204.125 131.888 L 202.897 133.025 203.202 134.618 C 203.583 136.608,203.572 136.616,201.840 135.669 L 200.411 134.888 198.867 135.697 C 197.139 136.603,197.200 136.660,197.561 134.476 L 197.799 133.033 196.613 131.835 C 195.289 130.497,195.291 130.491,197.013 130.283 C 198.682 130.081,198.769 130.015,199.579 128.340 C 200.431 126.579,200.254 126.575,201.157 128.373 M196.947 157.585 C 184.897 158.748,174.022 165.443,167.211 175.890 C 166.440 177.074,165.808 178.117,165.808 178.207 C 165.808 178.298,168.078 178.373,170.853 178.373 L 175.897 178.373 175.950 187.254 L 176.004 196.136 183.478 187.254 L 190.951 178.373 213.201 178.373 L 235.451 178.373 234.873 177.340 C 227.576 164.306,211.901 156.142,196.947 157.585 M195.984 189.137 C 193.378 192.297,190.798 195.429,190.249 196.096 L 189.253 197.309 198.231 207.917 C 203.169 213.750,207.209 218.573,207.209 218.634 C 207.209 218.694,203.736 218.744,199.491 218.744 L 191.773 218.744 183.889 209.429 L 176.004 200.115 175.951 209.429 L 175.897 218.744 170.113 218.744 L 164.330 218.744 165.394 220.735 C 178.324 244.934,210.106 249.590,228.946 230.045 C 239.200 219.407,243.450 203.161,239.690 188.980 L 239.417 187.951 232.994 187.896 L 226.571 187.842 226.571 203.396 L 226.571 218.950 220.185 218.950 L 213.800 218.950 213.800 203.399 L 213.800 187.848 207.319 187.848 L 200.837 187.848 200.779 185.619 L 200.721 183.390 195.984 189.137 M162.239 186.354 C 159.375 195.499,159.557 207.127,162.685 214.727 L 163.108 215.757 163.120 199.846 C 163.126 191.094,163.101 183.934,163.064 183.934 C 163.027 183.934,162.656 185.023,162.239 186.354 M133.884 232.093 C 133.885 232.354,136.272 237.158,137.280 238.929 C 154.290 268.829,188.164 283.130,220.185 273.929 C 239.729 268.313,256.305 254.267,265.723 235.342 C 266.620 233.539,267.331 232.048,267.302 232.028 C 267.274 232.008,266.370 232.063,265.294 232.151 C 264.217 232.238,262.734 232.359,261.998 232.419 C 261.262 232.478,256.813 232.825,252.111 233.189 C 244.360 233.789,243.537 233.888,243.282 234.245 C 222.859 262.824,180.524 263.396,158.753 235.388 C 157.339 233.569,157.928 233.754,152.317 233.364 C 150.618 233.246,148.718 233.106,148.095 233.053 C 147.472 233.000,144.320 232.771,141.092 232.544 C 137.863 232.317,134.920 232.091,134.552 232.042 C 134.184 231.992,133.883 232.015,133.884 232.093 M155.905 245.074 L 156.603 246.516 158.344 246.763 L 160.084 247.011 158.828 248.278 L 157.571 249.546 157.882 251.169 C 158.265 253.170,158.344 253.111,156.486 252.192 L 154.942 251.428 153.554 252.191 C 151.873 253.115,151.888 253.126,152.204 251.163 L 152.459 249.586 151.187 248.303 L 149.914 247.019 151.013 246.881 C 153.544 246.560,153.409 246.640,154.225 244.992 C 155.096 243.231,155.012 243.227,155.905 245.074 M247.003 247.030 C 247.377 247.094,248.123 247.209,248.661 247.284 C 249.877 247.454,249.880 247.428,248.493 248.829 L 247.347 249.988 247.654 251.614 C 248.032 253.616,248.114 253.556,246.284 252.614 L 244.764 251.832 243.409 252.589 C 241.604 253.599,241.622 253.610,241.958 251.666 L 242.248 249.984 241.103 248.828 C 239.699 247.408,239.698 247.453,241.143 247.279 C 243.267 247.025,243.241 247.042,244.021 245.337 L 244.738 243.769 245.531 245.341 C 246.235 246.736,246.400 246.925,247.003 247.030 " stroke="none" fill="#04447c" fill-rule="evenodd"></path><path id="path3" d="M196.756 113.839 C 196.954 113.891,197.279 113.891,197.477 113.839 C 197.675 113.787,197.513 113.745,197.116 113.745 C 196.720 113.745,196.558 113.787,196.756 113.839 M203.759 113.839 C 203.957 113.891,204.282 113.891,204.480 113.839 C 204.678 113.787,204.516 113.745,204.119 113.745 C 203.723 113.745,203.561 113.787,203.759 113.839 M199.228 119.205 C 199.992 119.245,201.244 119.245,202.008 119.205 C 202.773 119.166,202.147 119.133,200.618 119.133 C 199.089 119.133,198.463 119.166,199.228 119.205 M204.325 131.514 C 203.825 132.024,203.462 132.441,203.519 132.441 C 203.575 132.441,204.031 132.024,204.531 131.514 C 205.032 131.004,205.395 130.587,205.338 130.587 C 205.281 130.587,204.826 131.004,204.325 131.514 M255.407 135.633 C 255.791 136.030,256.152 136.354,256.209 136.354 C 256.265 136.354,255.997 136.030,255.613 135.633 C 255.228 135.237,254.868 134.912,254.811 134.912 C 254.754 134.912,255.022 135.237,255.407 135.633 M143.451 137.642 L 142.636 138.517 143.512 137.703 C 144.326 136.946,144.482 136.766,144.326 136.766 C 144.292 136.766,143.898 137.160,143.451 137.642 M259.320 139.547 C 259.705 139.943,260.065 140.268,260.122 140.268 C 260.179 140.268,259.911 139.943,259.526 139.547 C 259.142 139.150,258.781 138.826,258.725 138.826 C 258.668 138.826,258.936 139.150,259.320 139.547 M253.965 141.607 C 255.037 142.683,255.960 143.563,256.017 143.563 C 256.073 143.563,255.243 142.683,254.171 141.607 C 253.099 140.530,252.176 139.650,252.119 139.650 C 252.063 139.650,252.893 140.530,253.965 141.607 M251.184 144.181 C 252.427 145.427,253.489 146.447,253.546 146.447 C 253.603 146.447,252.633 145.427,251.390 144.181 C 250.148 142.935,249.085 141.916,249.029 141.916 C 248.972 141.916,249.942 142.935,251.184 144.181 M0.052 151.287 C 0.054 151.740,0.096 151.902,0.146 151.645 C 0.195 151.389,0.193 151.018,0.142 150.821 C 0.090 150.625,0.050 150.834,0.052 151.287 M4.167 151.184 C 4.167 151.581,4.210 151.743,4.261 151.545 C 4.313 151.347,4.313 151.022,4.261 150.824 C 4.210 150.626,4.167 150.788,4.167 151.184 M395.521 153.347 C 395.523 153.800,395.565 153.961,395.614 153.705 C 395.664 153.449,395.662 153.078,395.610 152.881 C 395.559 152.684,395.518 152.894,395.521 153.347 M4.373 153.862 C 4.373 154.258,4.416 154.421,4.467 154.222 C 4.519 154.024,4.519 153.700,4.467 153.502 C 4.416 153.303,4.373 153.465,4.373 153.862 M165.385 157.106 L 164.676 157.878 165.448 157.169 C 165.873 156.778,166.220 156.431,166.220 156.396 C 166.220 156.239,166.046 156.387,165.385 157.106 M237.693 159.114 C 238.765 160.191,239.688 161.071,239.745 161.071 C 239.801 161.071,238.971 160.191,237.899 159.114 C 236.827 158.038,235.904 157.158,235.847 157.158 C 235.791 157.158,236.621 158.038,237.693 159.114 M161.266 161.226 L 160.556 161.998 161.329 161.288 C 162.047 160.627,162.196 160.453,162.038 160.453 C 162.004 160.453,161.656 160.801,161.266 161.226 M233.162 164.470 C 234.120 165.433,234.950 166.220,235.006 166.220 C 235.063 166.220,234.326 165.433,233.368 164.470 C 232.410 163.507,231.580 162.719,231.523 162.719 C 231.466 162.719,232.204 163.507,233.162 164.470 M172.496 169.156 L 171.267 170.443 172.554 169.213 C 173.262 168.537,173.841 167.958,173.841 167.926 C 173.841 167.774,173.638 167.960,172.496 169.156 M26.110 170.280 C 26.366 170.329,26.736 170.327,26.933 170.275 C 27.130 170.224,26.921 170.184,26.468 170.186 C 26.014 170.188,25.853 170.230,26.110 170.280 M372.968 170.280 C 373.225 170.329,373.595 170.327,373.792 170.275 C 373.989 170.224,373.780 170.184,373.326 170.186 C 372.873 170.188,372.712 170.230,372.968 170.280 M30.309 175.129 C 30.338 175.753,30.346 175.760,30.426 175.231 L 30.512 174.664 91.466 174.716 C 124.991 174.745,152.420 174.699,152.420 174.614 C 152.420 174.529,124.938 174.459,91.349 174.459 L 30.278 174.459 30.309 175.129 M308.998 174.614 L 369.284 174.666 369.367 175.335 C 369.449 175.993,369.451 175.992,369.483 175.232 L 369.516 174.459 309.114 174.510 L 248.713 174.562 308.998 174.614 M212.425 178.527 C 216.710 178.558,223.662 178.558,227.873 178.527 C 232.085 178.496,228.579 178.471,220.082 178.471 C 211.586 178.471,208.140 178.496,212.425 178.527 M51.856 192.319 C 52.112 192.368,52.483 192.366,52.680 192.315 C 52.877 192.263,52.667 192.223,52.214 192.225 C 51.761 192.227,51.600 192.269,51.856 192.319 M347.222 192.319 C 347.478 192.368,347.849 192.366,348.046 192.315 C 348.243 192.263,348.033 192.223,347.580 192.225 C 347.127 192.227,346.966 192.269,347.222 192.319 M103.644 196.653 L 146.628 196.705 146.709 197.477 L 146.790 198.249 146.824 197.374 L 146.859 196.498 103.759 196.549 L 60.659 196.600 103.644 196.653 M275.541 196.653 C 287.237 196.682,306.377 196.682,318.074 196.653 C 329.771 196.624,320.201 196.599,296.807 196.599 C 273.414 196.599,263.844 196.624,275.541 196.653 M247.628 197.734 C 247.628 198.131,247.670 198.293,247.722 198.095 C 247.774 197.896,247.774 197.572,247.722 197.374 C 247.670 197.176,247.628 197.338,247.628 197.734 M254.451 199.794 C 254.451 200.870,254.486 201.311,254.528 200.772 C 254.571 200.234,254.571 199.354,254.528 198.816 C 254.486 198.278,254.451 198.718,254.451 199.794 M241.058 199.794 C 241.058 200.644,241.094 200.991,241.139 200.566 C 241.183 200.142,241.183 199.446,241.139 199.022 C 241.094 198.597,241.058 198.944,241.058 199.794 M247.632 201.957 C 247.634 202.410,247.676 202.571,247.725 202.315 C 247.775 202.059,247.773 201.688,247.721 201.491 C 247.670 201.294,247.629 201.504,247.632 201.957 M146.717 202.575 C 146.718 203.254,146.756 203.508,146.802 203.137 C 146.848 202.767,146.847 202.211,146.800 201.902 C 146.753 201.592,146.716 201.895,146.717 202.575 M254.223 204.428 C 254.225 204.882,254.267 205.043,254.317 204.786 C 254.366 204.530,254.364 204.160,254.312 203.963 C 254.261 203.766,254.221 203.975,254.223 204.428 M146.907 205.561 C 146.907 205.958,146.949 206.120,147.001 205.922 C 147.053 205.723,147.053 205.399,147.001 205.201 C 146.949 205.003,146.907 205.165,146.907 205.561 M335.418 206.231 L 334.604 207.106 335.479 206.292 C 336.293 205.535,336.449 205.355,336.293 205.355 C 336.259 205.355,335.866 205.749,335.418 206.231 M64.264 206.282 C 64.648 206.679,65.009 207.003,65.065 207.003 C 65.122 207.003,64.854 206.679,64.470 206.282 C 64.085 205.886,63.725 205.561,63.668 205.561 C 63.611 205.561,63.879 205.886,64.264 206.282 M81.617 213.118 C 81.815 213.170,82.140 213.170,82.338 213.118 C 82.536 213.066,82.374 213.024,81.977 213.024 C 81.581 213.024,81.419 213.066,81.617 213.118 M116.169 213.182 L 84.140 213.287 116.220 213.338 C 137.504 213.371,148.301 213.319,148.301 213.182 C 148.301 213.069,148.278 212.999,148.249 213.027 C 148.221 213.055,133.785 213.125,116.169 213.182 M317.456 213.118 C 317.654 213.170,317.979 213.170,318.177 213.118 C 318.375 213.066,318.213 213.024,317.817 213.024 C 317.420 213.024,317.258 213.066,317.456 213.118 M268.538 213.337 C 277.176 213.366,291.311 213.366,299.949 213.337 C 308.587 213.307,301.519 213.283,284.243 213.283 C 266.967 213.283,259.900 213.307,268.538 213.337 M85.891 217.446 C 90.218 217.592,94.495 217.597,94.407 217.456 C 94.355 217.371,92.023 217.321,89.226 217.344 C 86.429 217.367,84.928 217.413,85.891 217.446 M123.984 217.456 C 143.833 217.498,149.243 217.564,149.386 217.766 C 149.520 217.955,149.546 217.942,149.484 217.714 C 149.409 217.441,146.411 217.405,124.082 217.404 L 98.764 217.402 123.984 217.456 M260.556 217.454 C 284.185 217.595,301.751 217.596,301.751 217.456 C 301.751 217.371,290.466 217.324,276.674 217.351 C 262.881 217.378,255.628 217.424,260.556 217.454 M308.611 217.456 C 309.948 217.492,312.080 217.491,313.348 217.455 C 314.616 217.419,313.522 217.390,310.917 217.390 C 308.311 217.390,307.274 217.420,308.611 217.456 M101.442 220.803 C 102.114 221.483,102.711 222.039,102.768 222.039 C 102.824 222.039,102.320 221.483,101.648 220.803 C 100.975 220.124,100.378 219.567,100.322 219.567 C 100.265 219.567,100.769 220.124,101.442 220.803 M301.950 223.841 L 300.824 225.026 302.008 223.900 C 302.660 223.281,303.193 222.748,303.193 222.716 C 303.193 222.563,302.996 222.741,301.950 223.841 M98.455 223.790 C 98.840 224.186,99.200 224.511,99.257 224.511 C 99.314 224.511,99.045 224.186,98.661 223.790 C 98.277 223.393,97.916 223.069,97.859 223.069 C 97.803 223.069,98.071 223.393,98.455 223.790 M105.458 223.788 C 105.458 223.929,106.719 224.554,106.814 224.460 C 106.858 224.415,106.572 224.225,106.177 224.036 C 105.782 223.848,105.458 223.736,105.458 223.788 M114.882 226.514 C 115.250 226.559,115.852 226.559,116.220 226.514 C 116.589 226.468,116.287 226.430,115.551 226.430 C 114.815 226.430,114.513 226.468,114.882 226.514 M284.604 226.514 C 284.972 226.559,285.574 226.559,285.942 226.514 C 286.311 226.468,286.009 226.430,285.273 226.430 C 284.537 226.430,284.235 226.468,284.604 226.514 M118.386 226.716 C 118.642 226.765,119.012 226.764,119.209 226.712 C 119.406 226.661,119.197 226.620,118.744 226.622 C 118.290 226.625,118.129 226.667,118.386 226.716 M281.722 226.716 C 281.978 226.765,282.349 226.764,282.546 226.712 C 282.743 226.661,282.533 226.620,282.080 226.622 C 281.627 226.625,281.466 226.667,281.722 226.716 M121.063 226.922 C 121.319 226.971,121.690 226.970,121.887 226.918 C 122.084 226.866,121.874 226.826,121.421 226.828 C 120.968 226.831,120.807 226.873,121.063 226.922 M279.045 226.922 C 279.301 226.971,279.672 226.970,279.869 226.918 C 280.065 226.866,279.856 226.826,279.403 226.828 C 278.950 226.831,278.788 226.873,279.045 226.922 M123.947 227.128 C 124.203 227.177,124.574 227.176,124.771 227.124 C 124.968 227.072,124.758 227.032,124.305 227.034 C 123.852 227.037,123.691 227.079,123.947 227.128 M276.367 227.128 C 276.623 227.177,276.994 227.176,277.191 227.124 C 277.388 227.072,277.178 227.032,276.725 227.034 C 276.272 227.037,276.111 227.079,276.367 227.128 M126.624 227.334 C 126.881 227.383,127.251 227.382,127.448 227.330 C 127.645 227.278,127.436 227.238,126.982 227.240 C 126.529 227.243,126.368 227.285,126.624 227.334 M273.689 227.334 C 273.946 227.383,274.316 227.382,274.513 227.330 C 274.710 227.278,274.501 227.238,274.047 227.240 C 273.594 227.243,273.433 227.285,273.689 227.334 M129.508 227.540 C 129.764 227.589,130.135 227.588,130.332 227.536 C 130.529 227.484,130.319 227.444,129.866 227.446 C 129.413 227.449,129.252 227.491,129.508 227.540 M271.012 227.540 C 271.268 227.589,271.639 227.588,271.836 227.536 C 272.032 227.484,271.823 227.444,271.370 227.446 C 270.917 227.449,270.755 227.491,271.012 227.540 M132.186 227.746 C 132.442 227.795,132.813 227.793,133.010 227.742 C 133.207 227.690,132.997 227.650,132.544 227.652 C 132.091 227.655,131.930 227.697,132.186 227.746 M268.334 227.746 C 268.590 227.795,268.961 227.793,269.158 227.742 C 269.355 227.690,269.145 227.650,268.692 227.652 C 268.239 227.655,268.078 227.697,268.334 227.746 M135.069 227.952 C 135.326 228.001,135.696 227.999,135.893 227.948 C 136.090 227.896,135.881 227.856,135.427 227.858 C 134.974 227.861,134.813 227.903,135.069 227.952 M265.656 227.952 C 265.913 228.001,266.283 227.999,266.480 227.948 C 266.677 227.896,266.468 227.856,266.014 227.858 C 265.561 227.861,265.400 227.903,265.656 227.952 M137.747 228.158 C 138.003 228.207,138.374 228.205,138.571 228.154 C 138.768 228.102,138.558 228.062,138.105 228.064 C 137.652 228.067,137.491 228.109,137.747 228.158 M262.979 228.158 C 263.235 228.207,263.606 228.205,263.803 228.154 C 264.000 228.102,263.790 228.062,263.337 228.064 C 262.884 228.067,262.723 228.109,262.979 228.158 M140.525 228.360 C 140.723 228.412,141.048 228.412,141.246 228.360 C 141.444 228.309,141.282 228.266,140.886 228.266 C 140.489 228.266,140.327 228.309,140.525 228.360 M260.301 228.364 C 260.557 228.413,260.928 228.411,261.125 228.360 C 261.322 228.308,261.112 228.268,260.659 228.270 C 260.206 228.273,260.045 228.315,260.301 228.364 M143.308 228.570 C 143.564 228.619,143.935 228.617,144.132 228.566 C 144.329 228.514,144.119 228.474,143.666 228.476 C 143.213 228.479,143.052 228.521,143.308 228.570 M257.623 228.570 C 257.880 228.619,258.250 228.617,258.447 228.566 C 258.644 228.514,258.435 228.474,257.981 228.476 C 257.528 228.479,257.367 228.521,257.623 228.570 M146.087 228.772 C 146.285 228.824,146.609 228.824,146.807 228.772 C 147.006 228.720,146.843 228.678,146.447 228.678 C 146.050 228.678,145.888 228.720,146.087 228.772 M254.946 228.776 C 255.202 228.825,255.573 228.823,255.770 228.772 C 255.967 228.720,255.757 228.680,255.304 228.682 C 254.851 228.685,254.690 228.727,254.946 228.776 M148.870 228.982 C 149.126 229.031,149.497 229.029,149.693 228.978 C 149.890 228.926,149.681 228.886,149.228 228.888 C 148.774 228.890,148.613 228.933,148.870 228.982 M252.268 228.982 C 252.524 229.031,252.895 229.029,253.092 228.978 C 253.289 228.926,253.079 228.886,252.626 228.888 C 252.173 228.890,252.012 228.933,252.268 228.982 M151.547 229.188 C 151.803 229.237,152.174 229.235,152.371 229.184 C 152.568 229.132,152.358 229.092,151.905 229.094 C 151.452 229.096,151.291 229.139,151.547 229.188 M246.447 229.249 C 246.404 229.318,246.734 229.397,247.180 229.423 C 247.627 229.449,247.992 229.431,247.992 229.382 C 247.992 229.237,246.532 229.111,246.447 229.249 M249.691 229.184 C 249.889 229.236,250.214 229.236,250.412 229.184 C 250.610 229.132,250.448 229.090,250.051 229.090 C 249.655 229.090,249.493 229.132,249.691 229.184 M228.417 230.639 L 227.291 231.823 228.476 230.697 C 229.576 229.651,229.754 229.454,229.602 229.454 C 229.569 229.454,229.036 229.987,228.417 230.639 M166.426 233.836 C 166.426 233.867,167.145 234.586,168.023 235.433 L 169.619 236.972 168.079 235.376 C 166.649 233.893,166.426 233.686,166.426 233.836 M199.748 242.376 C 200.232 242.419,200.974 242.418,201.396 242.374 C 201.818 242.330,201.421 242.294,200.515 242.295 C 199.609 242.296,199.264 242.332,199.748 242.376 M151.596 248.713 C 151.981 249.109,152.341 249.434,152.398 249.434 C 152.455 249.434,152.187 249.109,151.802 248.713 C 151.418 248.316,151.057 247.992,151.001 247.992 C 150.944 247.992,151.212 248.316,151.596 248.713 M197.992 248.958 C 198.190 249.009,198.514 249.009,198.713 248.958 C 198.911 248.906,198.749 248.863,198.352 248.863 C 197.956 248.863,197.794 248.906,197.992 248.958 M202.317 248.958 C 202.515 249.009,202.840 249.009,203.038 248.958 C 203.236 248.906,203.074 248.863,202.678 248.863 C 202.281 248.863,202.119 248.906,202.317 248.958 M149.743 255.510 C 150.814 256.586,151.737 257.467,151.794 257.467 C 151.851 257.467,151.020 256.586,149.949 255.510 C 148.877 254.434,147.954 253.553,147.897 253.553 C 147.840 253.553,148.671 254.434,149.743 255.510 M146.962 258.084 C 147.863 258.991,148.646 259.732,148.703 259.732 C 148.760 259.732,148.069 258.991,147.168 258.084 C 146.267 257.178,145.483 256.437,145.427 256.437 C 145.370 256.437,146.061 257.178,146.962 258.084 M143.460 261.998 C 144.703 263.244,145.765 264.264,145.822 264.264 C 145.879 264.264,144.909 263.244,143.666 261.998 C 142.424 260.752,141.361 259.732,141.305 259.732 C 141.248 259.732,142.218 260.752,143.460 261.998 M251.583 260.402 L 250.978 261.071 251.648 260.466 C 252.272 259.902,252.412 259.732,252.253 259.732 C 252.217 259.732,251.916 260.033,251.583 260.402 M197.479 276.768 C 197.735 276.817,198.106 276.815,198.303 276.764 C 198.500 276.712,198.290 276.672,197.837 276.674 C 197.384 276.676,197.223 276.718,197.479 276.768 M203.041 276.768 C 203.297 276.817,203.667 276.815,203.864 276.764 C 204.061 276.712,203.852 276.672,203.399 276.674 C 202.945 276.676,202.784 276.718,203.041 276.768 " stroke="none" fill="#8e949c" fill-rule="evenodd"></path></g></svg>