<svg id="svg" xmlns="http://www.w3.org/2000/svg"  width="400" height="400" viewBox="0, 0, 400,400"><g id="svgg"><path id="path0" d="M50.380 147.672 C 50.370 147.742,50.106 149.420,49.795 151.400 C 47.326 167.097,52.670 179.109,67.939 192.181 C 82.766 204.874,88.414 214.786,87.892 227.200 C 87.679 232.270,86.963 234.832,84.596 238.986 C 83.608 240.719,82.800 242.207,82.800 242.293 C 82.800 243.695,92.264 234.106,95.075 229.856 C 114.990 199.748,98.931 157.159,64.800 149.567 C 63.810 149.347,61.740 148.885,60.200 148.542 C 57.709 147.986,50.431 147.341,50.380 147.672 M40.914 152.961 C 34.355 158.490,33.879 159.277,36.800 159.777 C 38.604 160.086,38.574 160.113,41.715 155.352 C 45.928 148.966,45.868 148.786,40.914 152.961 M35.179 152.728 C 28.112 157.107,26.555 158.800,29.595 158.800 C 31.037 158.800,31.496 158.508,34.370 155.755 C 36.120 154.080,37.922 152.450,38.375 152.132 C 39.294 151.489,39.469 150.785,38.700 150.828 C 38.425 150.844,36.841 151.699,35.179 152.728 M25.191 155.544 C 22.368 157.251,21.803 158.000,23.339 158.000 C 23.992 158.000,25.090 157.304,26.472 156.015 C 29.038 153.622,28.622 153.469,25.191 155.544 M16.834 161.864 C 13.338 164.857,6.000 175.077,6.000 176.954 C 6.000 177.468,6.437 177.600,8.143 177.600 L 10.287 177.600 11.976 174.300 C 14.100 170.151,17.545 164.998,19.388 163.211 C 22.327 160.363,20.013 159.143,16.834 161.864 M22.333 163.500 C 19.003 166.916,13.600 175.235,13.600 176.947 C 13.600 177.749,14.901 178.086,17.386 177.925 C 19.499 177.788,19.375 177.916,21.173 174.000 C 23.034 169.946,25.259 166.237,27.489 163.469 C 30.232 160.065,25.655 160.092,22.333 163.500 M32.142 162.026 C 30.177 162.753,22.400 175.134,22.400 177.536 C 22.400 178.361,24.337 178.800,27.975 178.800 L 29.838 178.800 31.578 174.561 C 32.536 172.230,34.196 168.605,35.269 166.504 C 36.342 164.404,37.148 162.614,37.060 162.527 C 36.687 162.153,32.852 161.763,32.142 162.026 M228.088 168.872 C 227.530 169.430,227.397 178.661,227.935 179.509 C 228.183 179.899,230.159 179.992,236.429 179.909 L 244.600 179.800 244.600 174.200 L 244.600 168.600 236.588 168.492 C 230.693 168.413,228.447 168.513,228.088 168.872 M118.000 200.208 L 118.000 230.815 127.100 230.708 L 136.200 230.600 136.400 219.000 L 136.600 207.400 139.747 207.400 L 142.894 207.400 143.658 209.400 C 144.077 210.500,144.577 211.760,144.767 212.200 C 144.958 212.640,145.862 214.980,146.778 217.400 C 147.693 219.820,149.215 223.780,150.159 226.200 L 151.876 230.600 161.938 230.707 C 170.219 230.795,172.000 230.717,172.000 230.268 C 172.000 229.968,169.660 224.129,166.801 217.293 C 161.169 203.830,161.228 204.128,163.886 202.571 C 175.624 195.692,174.989 177.774,162.800 171.939 C 158.081 169.680,157.186 169.600,136.768 169.600 L 118.000 169.600 118.000 200.208 M303.046 170.225 C 302.727 171.057,302.724 229.336,303.043 230.167 C 303.409 231.122,319.791 231.122,320.157 230.167 C 320.291 229.819,320.400 226.955,320.400 223.803 L 320.400 218.072 322.054 215.936 C 325.125 211.969,325.076 211.958,327.498 217.157 C 328.482 219.271,330.339 223.205,331.622 225.900 L 333.957 230.800 342.778 230.800 C 348.272 230.800,351.600 230.652,351.600 230.408 C 351.600 230.037,350.093 227.054,340.752 208.935 C 336.046 199.807,336.163 201.120,339.700 197.152 C 345.510 190.635,349.514 185.793,349.335 185.500 C 349.235 185.335,346.091 185.200,342.348 185.200 L 335.544 185.200 333.028 187.900 C 330.247 190.883,324.410 197.761,322.673 200.100 C 320.417 203.139,320.419 203.155,320.305 185.700 L 320.200 169.800 311.746 169.692 C 304.299 169.597,303.262 169.661,303.046 170.225 M4.250 180.880 C 3.502 182.037,2.230 185.919,1.654 188.800 C 1.412 190.010,1.018 191.900,0.778 193.000 C -0.099 197.020,-0.117 197.280,0.448 197.638 C 1.074 198.035,3.769 198.105,5.062 197.758 C 5.822 197.554,5.957 197.144,6.208 194.263 C 6.509 190.809,7.093 187.736,8.194 183.800 C 9.230 180.101,9.269 180.216,6.922 180.080 C 5.122 179.976,4.765 180.083,4.250 180.880 M12.319 180.505 C 11.373 181.259,10.230 184.910,9.031 191.009 C 7.766 197.445,8.124 198.119,12.708 197.918 L 15.400 197.800 15.663 194.200 C 15.808 192.220,16.197 189.430,16.527 188.000 C 17.926 181.937,18.066 181.108,17.741 180.812 C 17.085 180.216,12.974 179.982,12.319 180.505 M21.030 181.698 C 19.682 183.756,18.274 190.637,18.227 195.400 L 18.200 198.200 21.200 198.472 C 24.661 198.785,24.841 198.680,25.230 196.110 C 25.739 192.752,26.364 189.875,27.207 187.000 C 27.659 185.460,28.136 183.525,28.267 182.700 L 28.505 181.200 26.303 181.200 C 25.091 181.200,23.554 181.091,22.887 180.957 C 21.893 180.759,21.558 180.892,21.030 181.698 M149.610 182.805 C 154.694 185.399,153.786 192.338,148.154 193.934 C 145.931 194.563,137.513 194.553,136.880 193.920 C 136.214 193.254,136.214 183.146,136.880 182.480 C 137.771 181.589,147.725 181.843,149.610 182.805 M192.000 184.848 C 188.468 185.850,187.650 186.153,185.400 187.293 C 169.609 195.296,169.198 220.702,184.732 228.566 C 190.959 231.719,202.131 232.546,208.334 230.313 C 214.354 228.146,218.638 224.531,220.897 219.713 C 222.734 215.795,222.796 215.845,215.795 215.530 C 212.498 215.382,209.045 215.147,208.121 215.009 C 206.524 214.770,206.410 214.821,205.775 216.079 C 202.279 222.991,192.915 221.503,191.432 213.800 C 190.960 211.346,190.520 211.419,207.085 211.200 L 222.200 211.000 222.320 208.245 C 222.779 197.664,215.312 187.375,205.523 185.101 C 203.125 184.543,193.696 184.367,192.000 184.848 M276.944 185.001 C 274.553 185.756,273.243 186.642,271.122 188.942 C 268.942 191.306,268.670 191.199,268.400 187.867 L 268.200 185.400 261.200 185.286 C 257.350 185.223,253.794 185.272,253.297 185.395 L 252.393 185.617 252.497 208.108 L 252.600 230.600 261.000 230.600 L 269.400 230.600 269.600 215.600 C 269.841 197.548,269.857 197.477,274.061 196.353 C 275.694 195.916,276.038 195.948,277.246 196.651 C 279.465 197.943,279.552 198.628,279.584 215.000 C 279.599 223.140,279.757 230.029,279.935 230.309 C 280.183 230.699,282.159 230.792,288.429 230.709 L 296.600 230.600 296.704 213.814 C 296.837 192.509,296.377 189.943,291.886 186.927 C 288.311 184.527,281.310 183.624,276.944 185.001 M369.200 184.863 C 365.985 185.740,364.876 186.139,362.514 187.266 C 349.348 193.551,346.195 214.215,356.789 224.784 C 361.562 229.545,366.734 231.335,375.800 231.361 C 387.019 231.393,394.152 227.699,397.958 219.885 C 399.952 215.793,400.010 215.847,393.195 215.534 C 390.008 215.388,386.526 215.208,385.457 215.134 C 383.613 215.007,383.478 215.067,382.791 216.332 C 379.107 223.106,368.833 221.057,368.807 213.543 C 368.798 211.066,367.883 211.200,384.833 211.200 L 399.600 211.200 399.600 208.500 C 399.600 196.577,392.653 187.504,381.494 184.853 C 379.229 184.315,371.187 184.322,369.200 184.863 M227.799 186.092 C 227.678 186.591,227.628 196.810,227.689 208.800 L 227.800 230.600 236.200 230.600 L 244.600 230.600 244.600 208.000 L 244.600 185.400 236.310 185.292 L 228.019 185.184 227.799 186.092 M201.768 195.180 C 203.590 196.306,204.875 198.792,204.723 200.896 L 204.600 202.600 198.357 202.710 C 190.458 202.849,189.714 202.072,192.841 196.949 C 194.360 194.461,199.089 193.524,201.768 195.180 M379.012 195.208 C 380.652 196.221,382.088 199.149,381.922 201.142 L 381.800 202.600 375.400 202.600 L 369.000 202.600 368.871 201.245 C 368.379 196.103,374.534 192.440,379.012 195.208 M1.265 200.692 L -0.071 200.856 0.119 202.928 C 0.224 204.068,0.513 205.900,0.762 207.000 C 1.011 208.100,1.414 209.990,1.657 211.200 C 1.900 212.410,2.461 214.525,2.904 215.900 L 3.708 218.400 5.830 218.400 C 8.454 218.400,8.658 218.087,7.880 215.257 C 6.582 210.532,6.432 209.686,6.167 205.600 C 5.812 200.127,5.818 200.133,1.265 200.692 M8.834 200.959 C 7.941 202.035,8.627 208.446,10.399 215.584 C 11.055 218.229,11.314 218.400,14.649 218.400 C 17.928 218.400,17.884 218.450,17.209 215.506 C 16.994 214.568,16.544 212.593,16.209 211.118 C 15.874 209.643,15.600 206.818,15.600 204.841 C 15.600 202.865,15.465 201.167,15.300 201.069 C 14.270 200.457,9.320 200.373,8.834 200.959 M18.267 201.067 C 17.849 201.484,17.954 206.909,18.425 209.269 C 20.217 218.250,20.196 218.203,22.649 218.506 C 25.333 218.838,25.420 218.658,24.873 213.930 C 24.610 211.658,24.396 207.884,24.398 205.543 C 24.400 202.028,24.290 201.243,23.767 201.043 C 22.912 200.715,18.600 200.733,18.267 201.067 M5.369 221.336 C 4.530 223.523,15.045 237.963,17.882 238.519 C 19.860 238.907,19.779 238.145,17.521 235.125 C 14.986 231.737,12.610 227.777,10.726 223.800 L 9.400 221.000 7.496 220.878 C 6.116 220.789,5.530 220.916,5.369 221.336 M12.800 221.508 C 12.800 224.719,21.970 238.021,24.709 238.781 C 27.758 239.628,29.469 238.985,27.815 237.613 C 26.733 236.714,23.161 230.793,21.343 226.881 C 20.350 224.746,19.321 222.550,19.055 222.000 C 18.402 220.648,12.800 220.207,12.800 221.508 M22.000 222.045 C 22.000 225.026,30.719 238.640,33.100 239.376 C 34.368 239.768,34.263 238.968,32.735 236.578 C 31.075 233.982,28.293 228.034,27.243 224.836 C 26.154 221.520,25.847 221.200,23.751 221.200 C 22.236 221.200,22.000 221.314,22.000 222.045 M21.613 241.900 C 21.630 242.312,23.159 243.389,25.467 244.613 L 27.400 245.638 25.415 243.619 C 23.660 241.834,21.570 240.889,21.613 241.900 M27.823 241.962 C 27.412 242.627,36.538 248.800,37.932 248.800 C 38.712 248.800,38.457 248.155,37.500 247.706 C 37.005 247.474,35.221 246.005,33.536 244.442 C 30.542 241.665,28.544 240.797,27.823 241.962 M36.000 242.949 C 36.000 243.225,41.410 247.442,42.109 247.710 C 43.453 248.226,42.777 247.262,41.100 246.274 C 40.165 245.722,38.871 244.715,38.225 244.036 C 37.242 243.001,36.000 242.395,36.000 242.949 " stroke="none" fill="#222222" fill-rule="evenodd"></path></g></svg>