<svg id="svg" version="1.1" xmlns="http://www.w3.org/2000/svg"  width="400" height="400" viewBox="0, 0, 400,400"><g id="svgg"><path id="path0" d="M199.839 89.621 C 199.823 89.731,199.784 90.000,199.751 90.220 C 199.719 90.439,199.671 91.248,199.646 92.016 C 199.608 93.186,199.520 93.413,199.105 93.413 C 198.602 93.413,198.270 94.698,198.270 96.644 C 198.270 97.228,198.146 97.405,197.738 97.405 C 197.313 97.405,197.199 97.594,197.172 98.337 C 197.154 98.849,197.109 99.388,197.073 99.534 C 197.036 99.681,196.991 100.160,196.973 100.599 C 196.947 101.209,196.814 101.397,196.407 101.397 C 196.026 101.397,195.865 101.586,195.842 102.063 C 195.823 102.428,195.778 102.848,195.742 102.994 C 195.705 103.140,195.660 103.739,195.642 104.325 C 195.615 105.201,195.515 105.389,195.077 105.389 C 194.668 105.389,194.544 105.567,194.544 106.150 C 194.544 108.096,194.212 109.381,193.710 109.381 C 193.314 109.381,193.213 109.584,193.211 110.379 C 193.205 112.324,192.914 113.373,192.380 113.373 C 191.983 113.373,191.882 113.575,191.880 114.371 C 191.874 116.316,191.583 117.365,191.050 117.365 C 190.630 117.365,190.552 117.574,190.552 118.696 L 190.552 120.027 173.919 120.027 L 157.285 120.027 157.285 121.199 L 157.285 122.372 158.616 122.555 C 159.684 122.702,159.947 122.838,159.947 123.245 C 159.947 123.605,160.135 123.752,160.593 123.752 C 160.949 123.752,161.428 123.941,161.658 124.171 C 161.975 124.488,162.082 124.504,162.102 124.237 C 162.117 124.044,162.212 124.185,162.313 124.551 C 162.441 125.018,162.712 125.241,163.217 125.300 C 163.714 125.358,163.939 125.539,163.939 125.881 C 163.939 126.193,164.161 126.408,164.538 126.462 C 164.907 126.514,165.167 126.761,165.216 127.104 C 165.278 127.535,165.576 127.714,166.547 127.902 C 167.458 128.078,167.789 128.263,167.765 128.583 C 167.744 128.866,168.005 129.077,168.497 129.175 C 169.037 129.283,169.261 129.486,169.261 129.867 C 169.261 130.261,169.436 130.406,169.912 130.406 C 170.282 130.406,170.740 130.661,170.976 130.997 C 171.261 131.403,171.396 131.466,171.409 131.197 C 171.421 130.954,171.507 131.007,171.636 131.337 C 171.750 131.630,171.981 131.885,172.149 131.903 C 172.317 131.921,172.635 131.951,172.854 131.969 C 173.074 131.988,173.253 132.242,173.253 132.535 C 173.253 132.919,173.431 133.067,173.890 133.067 C 174.341 133.067,174.573 133.254,174.688 133.709 C 174.812 134.205,175.085 134.391,175.888 134.526 C 176.580 134.643,176.970 134.866,177.056 135.193 C 177.126 135.463,177.467 135.724,177.813 135.773 C 178.229 135.831,178.472 136.065,178.528 136.460 C 178.589 136.888,178.793 137.059,179.241 137.059 C 179.586 137.059,180.047 137.238,180.266 137.456 C 180.566 137.757,180.695 137.773,180.796 137.523 C 180.869 137.341,180.939 137.454,180.950 137.773 C 180.966 138.203,181.162 138.376,181.703 138.439 C 182.106 138.485,182.450 138.673,182.468 138.856 C 182.487 139.039,182.517 139.308,182.535 139.454 C 182.553 139.601,182.794 139.721,183.069 139.721 C 183.876 139.721,183.987 140.765,183.212 141.059 C 182.614 141.287,182.568 141.439,182.568 143.199 C 182.568 144.873,182.506 145.109,182.033 145.233 C 181.460 145.383,181.332 145.754,181.132 147.838 C 181.062 148.570,180.997 149.205,180.988 149.251 C 180.979 149.296,180.876 149.274,180.759 149.202 C 180.267 148.897,179.935 149.539,179.880 150.904 C 179.806 152.750,179.701 153.027,179.080 153.027 C 178.653 153.027,178.572 153.241,178.548 154.424 C 178.500 156.804,178.478 156.881,177.844 156.971 C 177.348 157.042,177.245 157.224,177.243 158.036 C 177.237 159.963,176.944 161.011,176.412 161.011 C 176.015 161.011,175.914 161.213,175.912 162.009 C 175.906 163.869,175.611 165.016,175.157 164.940 C 174.707 164.865,174.704 164.875,174.448 167.199 C 174.308 168.474,174.194 168.729,173.767 168.729 C 173.322 168.729,173.253 168.925,173.253 170.193 C 173.253 171.763,173.292 171.795,174.795 171.495 C 175.357 171.382,175.655 171.137,175.765 170.696 C 175.880 170.239,176.111 170.060,176.585 170.060 C 177.112 170.060,177.246 169.925,177.246 169.395 C 177.246 169.029,177.335 168.743,177.445 168.761 C 178.126 168.868,178.576 168.667,178.576 168.254 C 178.576 167.965,178.791 167.762,179.122 167.737 C 179.422 167.714,180.085 167.329,180.595 166.882 C 181.105 166.434,181.758 166.068,182.045 166.068 C 182.391 166.068,182.568 165.887,182.568 165.536 C 182.568 165.149,182.746 165.003,183.215 165.003 C 183.683 165.003,183.885 164.838,183.947 164.405 C 184.013 163.939,184.282 163.754,185.163 163.569 C 186.003 163.392,186.294 163.203,186.294 162.836 C 186.294 162.564,186.474 162.327,186.693 162.309 C 186.913 162.290,187.242 162.260,187.425 162.242 C 187.608 162.224,187.796 161.939,187.843 161.610 C 187.901 161.202,188.112 161.009,188.508 161.003 C 189.183 160.993,190.362 160.222,189.738 160.198 C 189.527 160.190,189.894 159.977,190.552 159.725 C 191.221 159.469,191.750 159.093,191.750 158.875 C 191.750 158.659,192.026 158.444,192.363 158.396 C 192.706 158.348,193.078 158.041,193.207 157.702 C 193.410 157.169,194.701 156.591,195.409 156.718 C 195.519 156.737,195.609 156.514,195.609 156.221 C 195.609 155.832,195.786 155.689,196.269 155.689 C 196.751 155.689,196.974 155.509,197.096 155.023 C 197.216 154.546,197.443 154.358,197.900 154.358 C 198.250 154.358,198.536 154.230,198.536 154.073 C 198.536 153.446,199.281 153.121,200.865 153.057 C 202.387 152.995,202.528 153.036,202.528 153.536 C 202.528 153.896,202.754 154.138,203.194 154.249 C 203.560 154.341,203.859 154.522,203.859 154.653 C 203.859 154.783,204.086 154.890,204.363 154.890 C 204.640 154.890,204.935 155.070,205.020 155.289 C 205.104 155.509,205.397 155.689,205.671 155.689 C 205.945 155.689,206.305 155.988,206.472 156.354 C 206.650 156.744,206.997 157.019,207.313 157.019 C 207.665 157.019,207.851 157.195,207.851 157.528 C 207.851 157.916,208.109 158.081,208.932 158.220 C 209.737 158.356,210.075 158.566,210.256 159.041 C 210.424 159.483,210.707 159.681,211.171 159.681 C 211.666 159.681,211.843 159.821,211.843 160.213 C 211.843 160.506,211.963 160.760,212.109 160.778 C 212.255 160.797,212.474 160.827,212.594 160.845 C 212.714 160.863,213.009 161.058,213.250 161.277 C 214.243 162.184,214.507 162.342,215.025 162.342 C 215.369 162.342,215.569 162.516,215.569 162.816 C 215.569 163.098,215.892 163.412,216.367 163.591 C 216.806 163.757,217.166 164.072,217.166 164.291 C 217.166 164.551,217.545 164.754,218.247 164.873 C 219.052 165.009,219.390 165.219,219.571 165.695 C 219.717 166.079,220.029 166.334,220.353 166.334 C 220.704 166.334,220.892 166.509,220.892 166.837 C 220.892 167.199,221.148 167.387,221.811 167.512 C 222.520 167.645,222.692 167.784,222.563 168.120 C 222.436 168.451,222.506 168.513,222.855 168.379 C 223.108 168.282,223.249 168.309,223.169 168.438 C 223.004 168.705,223.621 168.995,224.355 168.995 C 224.662 168.995,224.878 169.220,224.932 169.594 C 224.986 169.974,225.231 170.223,225.603 170.276 C 225.925 170.322,226.263 170.592,226.353 170.875 C 226.545 171.480,227.420 171.553,227.963 171.010 C 228.383 170.591,228.479 170.211,228.107 170.440 C 227.978 170.521,227.786 169.899,227.681 169.059 C 227.577 168.219,227.410 167.472,227.312 167.399 C 226.724 166.961,226.214 165.667,226.214 164.613 C 226.214 163.483,226.052 163.257,225.332 163.381 C 225.212 163.401,225.136 163.206,225.163 162.947 C 225.189 162.687,225.182 162.385,225.147 162.275 C 225.051 161.975,224.954 161.108,224.917 160.213 C 224.899 159.774,224.794 159.429,224.684 159.446 C 224.015 159.552,223.857 159.255,223.688 157.576 C 223.545 156.144,223.401 155.711,223.036 155.616 C 222.529 155.483,222.222 154.395,222.222 152.728 C 222.222 151.898,222.125 151.697,221.725 151.697 C 221.191 151.697,220.900 150.647,220.894 148.703 C 220.892 147.906,220.791 147.705,220.394 147.705 C 219.860 147.705,219.570 146.655,219.564 144.711 C 219.561 143.914,219.460 143.713,219.063 143.713 C 218.083 143.713,217.857 139.811,218.829 139.673 C 219.214 139.618,219.458 139.374,219.513 138.989 C 219.574 138.555,219.777 138.390,220.245 138.390 C 220.822 138.390,221.020 138.138,220.923 137.525 C 220.906 137.415,221.041 137.307,221.224 137.285 C 221.407 137.263,221.677 137.216,221.823 137.182 C 221.969 137.148,222.302 137.107,222.561 137.090 C 222.821 137.073,223.148 136.760,223.287 136.394 C 223.462 135.934,223.741 135.729,224.193 135.729 C 224.668 135.729,224.870 135.565,224.932 135.130 C 224.992 134.701,225.224 134.507,225.749 134.447 C 226.256 134.388,226.480 134.210,226.480 133.864 C 226.480 133.478,226.749 133.326,227.678 133.186 C 228.713 133.031,228.876 132.920,228.876 132.372 C 228.876 131.876,229.018 131.737,229.523 131.737 C 229.910 131.737,230.231 131.546,230.321 131.263 C 230.487 130.738,231.994 130.062,232.415 130.322 C 232.568 130.417,232.602 130.355,232.493 130.179 C 232.237 129.765,232.959 129.075,233.647 129.075 C 234.021 129.075,234.198 128.904,234.198 128.543 C 234.198 128.154,234.376 128.011,234.859 128.011 C 235.336 128.011,235.564 127.831,235.681 127.365 C 235.807 126.862,236.077 126.679,236.900 126.540 C 237.681 126.408,238.021 126.195,238.200 125.722 C 238.346 125.338,238.658 125.083,238.982 125.083 C 239.335 125.083,239.521 124.908,239.521 124.576 C 239.521 124.169,239.784 124.032,240.852 123.886 C 241.896 123.742,242.182 123.598,242.182 123.216 C 242.182 122.897,242.446 122.672,242.952 122.561 C 243.528 122.435,243.690 122.271,243.595 121.909 C 243.504 121.558,243.660 121.378,244.166 121.251 C 244.630 121.135,244.838 120.923,244.787 120.618 C 244.716 120.192,243.530 120.150,227.767 120.027 C 218.447 119.953,210.750 119.821,210.661 119.732 C 210.572 119.643,210.425 118.777,210.335 117.808 C 210.204 116.412,210.068 116.014,209.676 115.889 C 209.388 115.798,209.168 115.462,209.148 115.085 C 209.130 114.729,209.085 114.318,209.049 114.172 C 209.012 114.025,208.967 113.494,208.949 112.992 C 208.925 112.351,208.767 112.031,208.417 111.920 C 208.018 111.794,207.882 111.390,207.735 109.906 C 207.567 108.195,207.413 107.910,206.720 108.019 C 206.610 108.036,206.511 107.601,206.500 107.053 C 206.489 106.504,206.433 105.815,206.376 105.522 C 206.318 105.230,206.242 104.583,206.206 104.085 C 206.163 103.495,205.983 103.139,205.688 103.062 C 205.358 102.976,205.188 102.533,205.059 101.421 C 204.885 99.920,204.427 98.653,204.377 99.534 C 204.327 100.405,203.899 98.799,203.712 97.038 C 203.556 95.574,203.418 95.181,203.023 95.077 C 202.622 94.972,202.520 94.663,202.483 93.449 C 202.458 92.624,202.426 91.710,202.412 91.417 C 202.396 91.072,202.169 90.854,201.767 90.797 C 201.312 90.732,201.181 90.577,201.276 90.215 C 201.350 89.930,201.239 89.658,201.013 89.571 C 200.462 89.360,199.872 89.385,199.839 89.621 M116.107 281.038 C 116.107 281.697,116.159 281.966,116.222 281.637 C 116.286 281.307,116.286 280.768,116.222 280.439 C 116.159 280.110,116.107 280.379,116.107 281.038 " stroke="none" fill="#cc2c54" fill-rule="evenodd"></path><path id="path1" d="M19.065 71.760 C 17.870 72.954,18.030 73.488,22.856 84.427 C 25.327 90.028,31.202 103.353,35.913 114.039 C 40.624 124.724,45.242 135.143,46.175 137.192 C 47.108 139.242,48.225 141.756,48.657 142.781 C 49.089 143.806,52.284 151.111,55.756 159.015 C 59.229 166.919,62.823 175.123,63.743 177.246 C 64.664 179.368,67.296 185.416,69.593 190.685 C 73.608 199.896,83.034 222.117,83.034 222.371 C 83.034 223.134,84.325 225.006,85.066 225.315 C 86.455 225.895,165.486 225.859,166.611 225.277 C 167.550 224.792,167.398 225.084,172.395 214.105 C 174.593 209.275,176.693 204.664,177.061 203.859 C 177.429 203.054,180.804 195.636,184.561 187.375 C 192.716 169.440,192.200 170.480,193.152 170.085 C 194.625 169.475,207.982 169.805,208.644 170.468 C 208.942 170.766,211.226 175.496,213.720 180.980 C 216.215 186.464,219.080 192.748,220.087 194.943 C 221.095 197.139,224.336 204.265,227.290 210.778 C 234.184 225.981,233.705 225.062,234.929 225.417 C 235.634 225.621,247.747 225.683,276.042 225.627 L 316.156 225.549 316.808 224.884 C 317.176 224.509,318.270 222.185,319.315 219.561 C 321.228 214.756,329.031 196.494,335.463 181.770 C 337.477 177.159,339.751 171.949,340.516 170.193 C 343.505 163.326,351.446 145.246,355.419 136.261 C 359.993 125.915,362.676 119.839,367.405 109.115 C 369.116 105.236,371.388 100.086,372.455 97.671 C 384.180 71.121,383.191 73.593,382.571 72.394 C 381.858 71.016,382.734 71.058,354.944 71.058 C 324.910 71.058,328.018 70.759,326.693 73.771 C 326.287 74.694,325.559 76.347,325.076 77.445 C 324.593 78.543,321.085 86.567,317.280 95.276 C 313.475 103.985,307.550 117.518,304.113 125.349 C 300.677 133.180,295.870 144.138,293.433 149.701 C 290.545 156.290,288.767 160.022,288.331 160.413 C 287.280 161.353,270.807 161.353,269.747 160.413 C 269.111 159.848,267.909 157.282,255.564 130.140 C 253.734 126.114,252.207 122.789,252.171 122.749 C 252.136 122.710,249.485 124.556,246.280 126.852 C 243.075 129.148,237.009 133.478,232.801 136.474 C 228.593 139.469,225.151 142.054,225.152 142.218 C 225.153 142.381,225.391 143.293,225.682 144.245 C 225.972 145.196,226.213 146.454,226.216 147.039 C 226.221 147.941,226.714 149.413,226.751 148.636 C 226.792 147.753,227.546 149.623,227.549 150.616 C 227.553 152.052,227.790 153.072,228.077 152.894 C 228.458 152.659,228.847 153.438,228.914 154.568 C 228.950 155.184,229.074 155.689,229.190 155.689 C 229.514 155.689,230.239 157.587,230.258 158.483 C 230.267 158.922,230.454 159.487,230.673 159.738 C 230.892 159.990,231.286 160.948,231.549 161.867 C 231.812 162.787,232.515 164.908,233.112 166.581 C 233.710 168.254,234.198 170.014,234.198 170.491 C 234.198 170.968,234.320 171.434,234.468 171.526 C 234.879 171.780,235.529 173.491,235.529 174.317 C 235.529 174.720,235.822 175.574,236.180 176.214 C 236.538 176.855,236.876 177.821,236.932 178.360 C 236.987 178.899,237.153 179.498,237.301 179.690 C 237.658 180.156,238.151 181.477,238.276 182.302 C 238.331 182.668,238.579 183.423,238.825 183.980 C 239.899 186.404,239.717 186.949,238.190 185.873 C 237.678 185.512,236.870 184.968,236.394 184.664 C 235.918 184.361,235.529 183.945,235.529 183.740 C 235.529 183.534,235.348 183.367,235.127 183.367 C 234.655 183.367,231.537 181.291,231.537 180.977 C 231.537 180.859,231.238 180.688,230.872 180.596 C 230.442 180.488,230.206 180.242,230.206 179.902 C 230.206 179.612,230.116 179.389,230.007 179.406 C 229.354 179.509,228.780 179.303,228.252 178.776 C 227.922 178.446,227.317 178.024,226.907 177.838 C 226.423 177.618,226.215 177.361,226.313 177.106 C 226.421 176.824,226.276 176.713,225.798 176.713 C 225.432 176.713,225.064 176.534,224.980 176.316 C 224.896 176.097,224.722 175.983,224.593 176.063 C 224.463 176.143,224.423 176.038,224.503 175.829 C 224.608 175.557,224.441 175.449,223.916 175.449 C 223.444 175.449,222.985 175.201,222.626 174.750 C 222.320 174.366,221.861 174.052,221.607 174.052 C 221.353 174.052,221.026 173.740,220.881 173.360 C 220.714 172.919,220.479 172.720,220.236 172.814 C 220.025 172.895,219.478 172.609,219.014 172.175 C 218.552 171.744,218.022 171.391,217.835 171.391 C 217.367 171.391,216.817 170.675,217.025 170.338 C 217.126 170.176,216.941 170.058,216.583 170.056 C 215.715 170.050,215.196 169.657,215.390 169.152 C 215.519 168.815,215.427 168.754,214.963 168.866 C 214.523 168.973,213.731 168.547,211.880 167.206 C 210.510 166.214,209.098 165.244,208.743 165.051 C 208.388 164.857,207.953 164.468,207.777 164.186 C 207.601 163.904,207.325 163.673,207.165 163.673 C 206.662 163.673,203.842 161.520,204.003 161.259 C 204.146 161.029,203.761 160.894,203.232 160.989 C 202.842 161.059,202.232 160.410,202.363 160.067 C 202.439 159.869,202.168 159.675,201.679 159.577 C 201.031 159.448,200.897 159.309,201.008 158.883 C 201.119 158.459,201.017 158.350,200.507 158.350 C 200.155 158.350,199.852 158.470,199.834 158.616 C 199.815 158.762,199.785 159.032,199.767 159.215 C 199.747 159.417,199.237 159.579,198.470 159.629 C 197.774 159.673,197.206 159.812,197.206 159.936 C 197.206 160.061,197.445 160.100,197.738 160.024 C 198.089 159.932,198.270 160.016,198.270 160.271 C 198.270 160.483,198.120 160.671,197.937 160.688 C 196.481 160.826,195.746 161.198,195.825 161.757 C 195.892 162.225,195.776 162.342,195.245 162.342 C 194.769 162.342,194.557 162.504,194.496 162.917 C 194.449 163.233,194.201 163.522,193.944 163.559 C 193.687 163.596,193.545 163.517,193.627 163.383 C 193.710 163.250,193.647 163.140,193.487 163.140 C 193.327 163.140,193.132 163.350,193.053 163.606 C 192.803 164.416,192.500 164.869,192.187 164.904 C 192.020 164.922,191.763 164.952,191.617 164.970 C 191.470 164.988,191.381 165.138,191.417 165.303 C 191.454 165.467,191.321 165.661,191.123 165.733 C 190.856 165.831,190.812 165.709,190.952 165.268 C 191.081 164.861,191.047 164.729,190.847 164.853 C 190.685 164.953,190.552 165.314,190.552 165.656 C 190.552 166.346,189.969 166.709,189.543 166.283 C 189.384 166.124,189.118 166.103,188.912 166.233 C 188.716 166.357,188.446 166.461,188.312 166.463 C 188.178 166.465,188.010 166.643,187.938 166.857 C 187.833 167.172,187.944 167.159,188.505 166.791 C 189.354 166.235,189.488 166.225,189.488 166.718 C 189.488 167.368,188.400 167.975,187.926 167.591 C 187.595 167.323,187.554 167.342,187.687 167.699 C 187.841 168.111,187.467 168.729,187.063 168.729 C 186.822 168.729,186.902 168.183,187.218 167.665 C 187.427 167.321,187.399 167.316,187.013 167.628 C 186.767 167.828,186.627 168.089,186.701 168.209 C 186.835 168.426,186.346 168.851,185.953 168.858 C 185.838 168.860,185.595 169.162,185.412 169.528 C 185.193 169.968,184.859 170.193,184.423 170.193 C 184.062 170.193,183.751 170.343,183.733 170.526 C 183.714 170.709,183.684 170.978,183.666 171.124 C 183.648 171.271,183.347 171.391,182.998 171.391 C 182.588 171.391,182.315 171.578,182.225 171.921 C 182.149 172.213,181.882 172.531,181.633 172.626 C 181.384 172.722,180.880 173.078,180.513 173.418 C 180.147 173.757,179.591 174.116,179.278 174.215 C 178.965 174.313,178.553 174.617,178.361 174.888 C 178.170 175.160,177.851 175.383,177.652 175.383 C 177.453 175.383,177.250 175.495,177.201 175.633 C 177.128 175.838,174.444 177.812,167.665 182.645 C 167.299 182.906,166.219 183.684,165.266 184.374 C 162.070 186.688,161.201 187.201,161.535 186.576 C 161.697 186.274,161.976 186.028,162.156 186.028 C 162.370 186.028,162.507 185.496,162.551 184.498 C 162.638 182.498,162.802 182.036,163.424 182.036 C 163.878 182.036,163.939 181.838,163.943 180.373 C 163.947 178.615,164.078 178.234,164.761 177.983 C 165.065 177.871,165.197 177.431,165.232 176.405 C 165.294 174.569,165.467 174.042,165.948 174.227 C 166.160 174.308,166.339 174.332,166.346 174.280 C 166.353 174.228,166.416 173.526,166.488 172.721 C 166.681 170.541,166.841 169.993,167.242 170.147 C 167.508 170.249,167.628 169.840,167.724 168.508 C 167.797 167.498,168.090 166.241,168.405 165.591 C 168.709 164.962,169.036 164.064,169.132 163.595 C 169.445 162.054,169.895 161.011,170.246 161.011 C 170.485 161.011,170.592 160.590,170.592 159.656 C 170.592 158.550,170.685 158.276,171.096 158.168 C 171.641 158.026,171.923 157.080,171.923 155.389 C 171.923 154.548,172.017 154.358,172.436 154.358 C 172.864 154.358,172.977 154.103,173.118 152.828 C 173.374 150.502,173.376 150.496,173.862 150.536 C 174.113 150.556,174.324 150.556,174.330 150.536 C 174.337 150.516,174.408 149.721,174.488 148.769 C 174.567 147.818,174.921 146.105,175.274 144.963 C 176.231 141.863,176.288 141.995,173.040 139.742 C 171.474 138.656,165.522 134.438,159.814 130.368 C 154.105 126.299,149.326 122.936,149.194 122.895 C 149.062 122.854,147.292 126.474,145.261 130.938 C 143.230 135.403,140.358 141.690,138.877 144.910 C 134.989 153.368,134.356 154.756,133.186 157.383 C 132.609 158.681,131.872 160.028,131.550 160.377 L 130.964 161.011 122.198 161.011 C 114.242 161.011,113.380 160.968,112.868 160.546 C 112.555 160.288,110.814 156.698,108.962 152.495 C 104.807 143.066,94.971 120.633,89.416 107.917 C 87.114 102.648,82.694 92.528,79.593 85.429 C 75.401 75.832,73.753 72.334,73.167 71.790 L 72.380 71.058 46.073 71.058 L 19.767 71.058 19.065 71.760 M172.540 71.790 C 172.181 72.192,170.449 75.695,168.689 79.574 C 166.930 83.453,162.746 92.645,159.392 100.000 C 156.038 107.355,153.293 113.489,153.293 113.631 C 153.293 113.795,159.177 113.894,169.395 113.901 C 178.250 113.908,185.496 113.873,185.496 113.824 C 185.496 113.774,188.669 104.246,192.548 92.650 C 196.427 81.053,199.601 71.451,199.601 71.312 C 199.601 71.154,194.596 71.058,186.396 71.058 L 173.192 71.058 172.540 71.790 M201.532 71.391 C 201.739 71.940,210.021 96.973,210.139 97.405 C 210.397 98.354,214.076 109.322,214.378 110.047 C 214.793 111.042,215.034 111.832,215.201 112.754 C 215.272 113.147,215.391 113.567,215.465 113.687 C 215.705 114.074,248.116 113.960,247.960 113.573 C 247.600 112.677,229.868 73.822,229.411 72.926 C 228.407 70.959,229.196 71.058,214.550 71.058 C 204.146 71.058,201.433 71.127,201.532 71.391 M193.214 162.608 C 193.214 162.942,193.496 162.942,194.012 162.608 C 194.335 162.400,194.297 162.349,193.812 162.346 C 193.483 162.344,193.214 162.462,193.214 162.608 M98.662 272.920 C 91.865 274.649,87.752 280.614,87.741 288.756 C 87.732 296.071,90.324 300.195,98.470 305.828 C 103.554 309.343,104.449 310.592,104.281 313.931 C 103.990 319.681,97.696 321.509,91.128 317.751 L 89.687 316.927 89.687 322.115 L 89.687 327.304 91.327 328.123 L 92.966 328.942 99.061 328.942 C 106.452 328.942,106.900 328.804,110.205 325.504 C 113.644 322.071,114.828 318.833,114.833 312.841 C 114.840 305.546,112.941 302.628,103.858 295.973 C 99.271 292.613,97.542 289.417,98.481 286.036 C 99.630 281.902,105.093 281.120,109.959 284.395 C 110.712 284.902,111.429 285.379,111.552 285.455 C 111.675 285.531,111.776 283.270,111.776 280.431 L 111.776 275.268 110.512 274.586 C 107.289 272.847,101.916 272.092,98.662 272.920 M283.566 272.897 C 271.958 275.244,268.138 292.316,277.233 301.195 C 278.666 302.595,280.422 303.957,284.631 306.936 C 294.253 313.747,286.902 323.562,276.314 318.041 L 274.385 317.035 274.385 322.202 L 274.385 327.368 276.048 328.155 L 277.711 328.942 283.773 328.942 L 289.836 328.942 291.369 328.168 C 296.150 325.754,299.146 320.566,299.550 314.001 C 299.991 306.842,297.692 302.927,289.352 296.630 C 284.037 292.617,282.701 290.631,282.955 287.119 C 283.317 282.121,289.096 280.746,294.503 284.372 C 295.479 285.027,296.322 285.562,296.376 285.562 C 296.430 285.562,296.474 283.246,296.474 280.415 L 296.474 275.267 294.411 274.309 C 290.884 272.672,287.110 272.180,283.566 272.897 M0.001 273.719 C 0.002 273.866,1.622 282.009,3.601 291.816 C 5.579 301.623,8.064 313.987,9.121 319.291 L 11.045 328.935 15.902 328.939 C 20.214 328.942,20.758 328.894,20.758 328.508 C 20.758 328.270,21.052 326.743,21.410 325.115 C 24.544 310.887,27.501 296.800,27.954 293.945 C 28.617 289.757,28.733 289.190,28.891 289.348 C 29.011 289.468,30.120 296.110,30.459 298.736 C 30.553 299.468,31.159 302.761,31.804 306.055 C 32.450 309.348,33.647 315.516,34.463 319.760 C 35.280 324.005,36.013 327.808,36.092 328.210 L 36.237 328.942 40.967 328.942 L 45.697 328.942 46.785 323.553 C 47.383 320.589,49.444 310.619,51.365 301.397 C 53.285 292.176,55.364 282.150,55.983 279.118 L 57.110 273.606 51.550 273.530 C 48.492 273.488,45.939 273.535,45.877 273.636 C 45.747 273.848,45.561 274.941,43.251 289.084 C 41.322 300.892,40.829 304.545,40.571 308.916 C 40.371 312.296,40.129 312.673,39.716 310.246 C 38.981 305.930,32.940 273.706,32.848 273.613 C 32.748 273.511,24.414 273.564,24.317 273.668 C 24.291 273.696,23.840 275.815,23.314 278.377 C 22.788 280.938,22.168 283.932,21.936 285.030 C 18.818 299.764,18.307 302.502,17.675 307.851 C 17.258 311.381,16.766 313.225,16.766 311.259 C 16.766 309.754,16.152 303.560,15.708 300.599 C 15.020 296.001,11.204 274.605,10.973 274.051 C 10.747 273.508,-0.002 273.184,0.001 273.719 M60.945 301.198 L 60.945 328.942 71.989 328.942 L 83.034 328.942 83.034 323.886 L 83.034 318.829 77.445 318.829 L 71.856 318.829 71.856 312.442 L 71.856 306.055 76.780 306.055 L 81.703 306.055 81.703 300.998 L 81.703 295.941 76.780 295.941 L 71.856 295.941 71.856 289.820 L 71.856 283.699 77.451 283.699 L 83.045 283.699 82.973 278.637 L 82.901 273.574 71.923 273.513 L 60.945 273.453 60.945 301.198 M116.301 278.576 L 116.301 283.699 120.559 283.699 L 124.817 283.699 124.817 306.321 L 124.817 328.942 130.273 328.942 L 135.729 328.942 135.729 306.321 L 135.729 283.699 140.120 283.699 L 144.511 283.699 144.511 278.647 L 144.511 273.595 130.406 273.524 L 116.301 273.453 116.301 278.576 M148.769 301.198 L 148.769 328.942 159.814 328.942 L 170.858 328.942 170.858 323.886 L 170.858 318.829 165.269 318.829 L 159.681 318.829 159.681 312.442 L 159.681 306.055 164.604 306.055 L 169.528 306.055 169.528 300.998 L 169.528 295.941 164.604 295.941 L 159.681 295.941 159.681 289.826 L 159.681 283.710 165.203 283.638 L 170.725 283.566 170.725 278.574 L 170.725 273.582 159.747 273.518 L 148.769 273.453 148.769 301.198 M177.242 273.542 C 177.071 273.599,176.979 283.308,176.979 301.286 L 176.979 328.942 182.302 328.942 L 187.625 328.942 187.625 316.168 C 187.625 309.142,187.717 303.393,187.829 303.393 C 187.941 303.393,190.187 309.140,192.819 316.163 L 197.605 328.933 203.260 328.938 C 206.371 328.940,208.916 328.844,208.916 328.725 C 208.916 328.605,208.039 326.240,206.968 323.469 C 205.897 320.697,204.201 316.274,203.200 313.639 C 202.199 311.005,200.936 307.719,200.394 306.339 L 199.407 303.829 200.902 302.729 C 205.413 299.408,207.193 295.555,207.175 289.155 C 207.152 281.019,204.118 276.648,196.974 274.458 C 194.873 273.814,178.667 273.061,177.242 273.542 M215.147 273.564 C 215.086 273.625,215.037 286.110,215.037 301.308 L 215.037 328.942 220.513 328.942 L 225.989 328.942 225.850 313.440 C 225.774 304.914,225.634 297.339,225.538 296.607 C 225.300 294.782,225.642 295.254,226.986 298.603 C 228.712 302.904,237.809 325.413,238.549 327.212 L 239.206 328.809 244.420 328.881 L 249.634 328.953 249.634 301.281 L 249.634 273.608 244.511 273.531 C 241.693 273.488,239.238 273.496,239.055 273.548 C 238.515 273.703,238.586 300.409,239.137 304.120 C 239.365 305.655,239.502 306.960,239.442 307.021 C 239.382 307.081,238.066 304.044,236.517 300.272 C 234.968 296.499,231.867 288.947,229.625 283.488 L 225.549 273.564 220.403 273.508 C 217.573 273.478,215.208 273.503,215.147 273.564 M300.466 273.542 C 300.301 273.597,300.200 275.545,300.200 278.665 L 300.200 283.699 304.591 283.699 L 308.982 283.699 308.982 306.321 L 308.982 328.942 314.441 328.942 L 319.899 328.942 319.890 306.387 L 319.881 283.832 324.146 283.759 L 328.410 283.686 328.410 278.570 L 328.410 273.453 314.571 273.453 C 306.959 273.453,300.612 273.493,300.466 273.542 M339.322 273.513 C 339.322 273.546,338.193 278.397,336.813 284.292 C 335.434 290.187,333.642 297.884,332.830 301.397 C 332.019 304.910,330.273 312.421,328.951 318.088 C 327.629 323.755,326.547 328.515,326.547 328.667 C 326.547 328.847,328.374 328.942,331.848 328.942 L 337.149 328.942 337.691 326.480 C 337.989 325.126,338.447 323.031,338.708 321.823 L 339.183 319.627 344.813 319.627 C 349.074 319.627,350.471 319.708,350.563 319.960 C 350.630 320.143,351.091 322.239,351.589 324.617 L 352.493 328.942 358.287 328.942 L 364.082 328.942 363.946 328.343 C 363.687 327.204,360.680 314.684,357.700 302.329 C 356.976 299.328,355.715 294.059,354.899 290.619 C 353.427 284.419,351.456 276.193,351.006 274.368 L 350.772 273.420 345.047 273.437 C 341.899 273.446,339.323 273.480,339.322 273.513 M367.798 301.243 L 367.798 328.942 373.253 328.942 L 378.709 328.942 378.709 316.152 C 378.709 309.117,378.806 303.422,378.925 303.495 C 379.043 303.568,381.281 309.324,383.897 316.285 L 388.654 328.942 394.327 328.942 C 397.447 328.942,400.000 328.887,400.000 328.819 C 400.000 328.751,399.749 328.063,399.442 327.289 C 398.675 325.357,391.243 305.894,390.801 304.658 C 390.452 303.685,390.461 303.651,391.180 303.280 C 399.146 299.160,400.897 284.528,394.215 277.913 C 390.684 274.416,388.121 273.790,376.780 273.652 L 367.798 273.543 367.798 301.243 M192.487 282.736 C 195.409 283.616,196.686 285.631,196.700 289.387 C 196.720 294.754,193.926 297.759,189.170 297.486 L 187.758 297.405 187.687 289.887 L 187.616 282.369 189.441 282.369 C 190.445 282.369,191.815 282.534,192.487 282.736 M383.699 282.773 C 386.357 283.562,387.758 285.933,387.758 289.642 C 387.758 294.631,385.377 297.307,380.880 297.375 L 378.842 297.405 378.772 289.887 L 378.701 282.369 380.520 282.369 C 381.520 282.369,382.951 282.550,383.699 282.773 M345.414 291.750 C 345.745 293.982,346.603 298.922,347.320 302.728 C 348.037 306.534,348.684 309.977,348.756 310.379 L 348.889 311.111 344.882 311.111 L 340.876 311.111 341.016 310.379 C 341.093 309.977,341.399 308.090,341.697 306.188 C 341.995 304.285,342.532 300.872,342.890 298.603 C 343.248 296.334,343.748 292.951,344.000 291.084 C 344.583 286.777,344.683 286.824,345.414 291.750 " stroke="none" fill="#2e2e34" fill-rule="evenodd"></path><path id="path2" d="M197.383 160.124 C 197.046 160.462,197.208 160.712,197.738 160.672 C 198.031 160.650,198.270 160.478,198.270 160.289 C 198.270 159.929,197.686 159.821,197.383 160.124 M194.456 162.253 C 194.358 162.351,194.270 162.680,194.259 162.985 C 194.241 163.517,194.232 163.518,194.038 163.022 C 193.842 162.520,193.831 162.521,193.690 163.060 C 193.584 163.464,193.659 163.599,193.965 163.554 C 194.196 163.520,194.471 163.174,194.575 162.784 C 194.772 162.046,194.752 161.957,194.456 162.253 M192.548 163.881 C 191.901 164.346,191.571 164.963,192.004 164.899 C 192.233 164.866,192.553 164.706,192.714 164.545 C 193.069 164.190,192.924 163.611,192.548 163.881 M190.943 165.283 C 190.690 165.692,191.037 165.956,191.378 165.614 C 191.569 165.423,191.574 165.274,191.392 165.162 C 191.243 165.070,191.041 165.124,190.943 165.283 M190.307 165.677 C 190.296 165.828,189.912 166.092,189.455 166.265 C 188.875 166.484,188.672 166.702,188.781 166.989 C 188.868 167.214,188.823 167.399,188.681 167.399 C 188.539 167.399,188.423 167.255,188.423 167.079 C 188.423 166.831,188.352 166.831,188.104 167.079 C 187.893 167.290,187.874 167.488,188.048 167.662 C 188.385 167.999,189.488 167.263,189.488 166.702 C 189.488 166.483,189.583 166.362,189.700 166.434 C 190.053 166.652,190.627 166.155,190.473 165.766 C 190.393 165.566,190.319 165.526,190.307 165.677 M186.673 168.110 C 186.700 168.296,186.803 168.528,186.901 168.626 C 187.136 168.861,187.925 168.202,187.750 167.918 C 187.536 167.572,186.618 167.736,186.673 168.110 M80.572 237.059 C 82.658 237.104,86.071 237.104,88.157 237.059 C 90.243 237.014,88.536 236.977,84.365 236.977 C 80.193 236.977,78.486 237.014,80.572 237.059 M3.805 273.518 C 5.093 273.567,7.129 273.567,8.330 273.518 C 9.530 273.469,8.476 273.429,5.988 273.429 C 3.500 273.429,2.518 273.469,3.805 273.518 M25.870 273.517 C 26.852 273.568,28.528 273.569,29.596 273.518 C 30.663 273.467,29.860 273.425,27.811 273.425 C 25.762 273.425,24.888 273.466,25.870 273.517 M49.050 273.519 C 50.631 273.566,53.146 273.566,54.639 273.518 C 56.131 273.471,54.837 273.432,51.763 273.433 C 48.689 273.433,47.468 273.472,49.050 273.519 M66.467 273.519 C 69.431 273.562,74.281 273.562,77.246 273.519 C 80.210 273.476,77.784 273.441,71.856 273.441 C 65.928 273.441,63.503 273.476,66.467 273.519 M123.572 273.519 C 127.497 273.561,133.845 273.561,137.677 273.519 C 141.509 273.478,138.297 273.444,130.539 273.444 C 122.781 273.444,119.646 273.478,123.572 273.519 M155.373 273.519 C 158.201 273.562,162.752 273.562,165.487 273.519 C 168.221 273.476,165.908 273.441,160.346 273.441 C 154.784 273.441,152.546 273.476,155.373 273.519 M176.836 273.653 C 176.766 273.836,176.741 286.381,176.779 301.530 L 176.849 329.075 176.914 301.353 C 176.966 279.473,177.049 273.602,177.312 273.496 C 177.573 273.391,177.571 273.357,177.304 273.341 C 177.116 273.329,176.906 273.470,176.836 273.653 M181.038 273.519 C 182.904 273.565,185.958 273.565,187.824 273.519 C 189.691 273.473,188.164 273.436,184.431 273.436 C 180.699 273.436,179.172 273.473,181.038 273.519 M218.696 273.518 C 219.904 273.567,221.880 273.567,223.087 273.518 C 224.295 273.469,223.307 273.428,220.892 273.428 C 218.476 273.428,217.488 273.469,218.696 273.518 M242.263 273.519 C 243.697 273.567,245.973 273.566,247.319 273.518 C 248.666 273.470,247.492 273.431,244.711 273.431 C 241.929 273.431,240.828 273.471,242.263 273.519 M307.718 273.519 C 311.487 273.561,317.655 273.561,321.424 273.519 C 325.193 273.478,322.109 273.444,314.571 273.444 C 307.033 273.444,303.949 273.478,307.718 273.519 M341.251 273.517 C 342.239 273.569,343.856 273.569,344.844 273.517 C 345.832 273.466,345.023 273.424,343.047 273.424 C 341.071 273.424,340.263 273.466,341.251 273.517 M371.340 273.519 C 373.361 273.564,376.595 273.564,378.526 273.519 C 380.456 273.473,378.802 273.436,374.850 273.437 C 370.898 273.437,369.319 273.474,371.340 273.519 M328.521 278.643 C 328.521 281.497,328.560 282.665,328.608 281.238 C 328.656 279.810,328.656 277.475,328.608 276.048 C 328.560 274.621,328.521 275.788,328.521 278.643 M188.224 297.456 C 188.480 297.523,188.899 297.523,189.155 297.456 C 189.411 297.389,189.202 297.334,188.689 297.334 C 188.177 297.334,187.967 297.389,188.224 297.456 M202.911 301.065 L 202.129 301.929 202.994 301.148 C 203.470 300.718,203.859 300.329,203.859 300.283 C 203.859 300.077,203.639 300.258,202.911 301.065 M274.230 322.023 C 274.230 324.877,274.269 326.045,274.317 324.617 C 274.365 323.190,274.365 320.855,274.317 319.428 C 274.269 318.001,274.230 319.168,274.230 322.023 M110.165 325.682 L 109.248 326.680 110.246 325.763 C 111.175 324.909,111.367 324.684,111.163 324.684 C 111.119 324.684,110.670 325.133,110.165 325.682 " stroke="none" fill="#4e4e4e" fill-rule="evenodd"></path></g></svg>