<svg id="svg" version="1.1" xmlns="http://www.w3.org/2000/svg"  width="400" height="400" viewBox="0, 0, 400,400"><g id="svgg"><path id="path0" d="M19.065 71.760 C 17.870 72.954,18.030 73.488,22.856 84.427 C 31.268 103.497,44.493 133.447,47.565 140.386 C 51.014 148.177,61.192 171.366,63.743 177.246 C 64.663 179.368,67.296 185.416,69.593 190.685 C 73.608 199.896,83.034 222.117,83.034 222.371 C 83.034 223.134,84.325 225.006,85.066 225.315 C 86.455 225.895,165.486 225.859,166.611 225.277 C 167.550 224.792,167.398 225.084,172.395 214.105 C 174.593 209.275,176.693 204.664,177.061 203.859 C 177.429 203.054,180.804 195.636,184.561 187.375 C 192.716 169.440,192.200 170.480,193.152 170.085 C 194.625 169.475,207.982 169.805,208.644 170.468 C 208.942 170.766,211.226 175.496,213.720 180.980 C 216.215 186.464,219.080 192.748,220.087 194.943 C 221.095 197.139,224.336 204.265,227.290 210.778 C 234.184 225.981,233.705 225.062,234.929 225.417 C 235.634 225.621,247.747 225.683,276.042 225.627 L 316.156 225.549 316.808 224.884 C 317.176 224.509,318.270 222.185,319.315 219.561 C 321.228 214.756,329.031 196.494,335.463 181.770 C 337.477 177.159,339.751 171.949,340.516 170.193 C 343.505 163.326,351.446 145.246,355.419 136.261 C 359.993 125.915,362.676 119.839,367.405 109.115 C 369.116 105.236,371.388 100.086,372.455 97.671 C 384.180 71.121,383.191 73.593,382.571 72.394 C 381.858 71.016,382.734 71.058,354.944 71.058 C 324.910 71.058,328.018 70.759,326.693 73.771 C 326.287 74.694,325.559 76.347,325.076 77.445 C 324.593 78.543,321.085 86.567,317.280 95.276 C 313.475 103.985,307.550 117.518,304.113 125.349 C 300.677 133.180,295.870 144.138,293.433 149.701 C 290.545 156.290,288.767 160.022,288.331 160.413 C 287.280 161.353,270.807 161.353,269.747 160.413 C 269.111 159.848,267.909 157.282,255.564 130.140 C 253.734 126.114,252.207 122.789,252.171 122.749 C 252.136 122.710,249.485 124.556,246.280 126.852 C 243.075 129.148,237.009 133.478,232.801 136.474 C 228.593 139.469,225.151 142.054,225.152 142.218 C 225.153 142.381,225.391 143.293,225.682 144.245 C 225.972 145.196,226.213 146.394,226.216 146.906 C 226.224 148.302,226.473 148.971,227.037 149.119 C 227.455 149.228,227.551 149.516,227.578 150.740 C 227.624 152.788,227.642 152.894,227.944 152.898 C 228.588 152.908,228.876 153.404,228.876 154.507 C 228.876 155.157,228.994 155.689,229.138 155.689 C 229.504 155.689,230.237 157.519,230.258 158.483 C 230.267 158.922,230.454 159.487,230.673 159.738 C 230.892 159.990,231.286 160.948,231.549 161.867 C 231.812 162.787,232.515 164.908,233.112 166.581 C 233.710 168.254,234.198 170.014,234.198 170.491 C 234.198 170.968,234.320 171.434,234.468 171.526 C 234.879 171.780,235.529 173.491,235.529 174.317 C 235.529 174.720,235.822 175.574,236.180 176.214 C 236.538 176.855,236.876 177.821,236.932 178.360 C 236.987 178.899,237.153 179.498,237.301 179.690 C 237.673 180.176,238.160 181.506,238.256 182.302 C 238.301 182.668,238.431 183.117,238.545 183.300 C 238.660 183.483,238.669 183.771,238.564 183.940 C 238.455 184.117,238.490 184.175,238.648 184.078 C 238.935 183.901,239.709 186.195,239.449 186.454 C 239.370 186.534,238.844 186.288,238.282 185.908 C 237.719 185.528,236.870 184.969,236.394 184.665 C 235.918 184.361,235.529 183.945,235.529 183.740 C 235.529 183.534,235.348 183.367,235.127 183.367 C 234.655 183.367,231.537 181.291,231.537 180.977 C 231.537 180.859,231.238 180.688,230.872 180.596 C 230.442 180.488,230.206 180.242,230.206 179.902 C 230.206 179.612,230.116 179.389,230.007 179.406 C 229.354 179.509,228.780 179.303,228.252 178.776 C 227.922 178.446,227.317 178.024,226.907 177.838 C 226.423 177.618,226.215 177.361,226.313 177.106 C 226.421 176.824,226.276 176.713,225.800 176.713 C 225.346 176.713,225.060 176.513,224.896 176.081 C 224.723 175.626,224.450 175.449,223.920 175.449 C 223.444 175.449,222.986 175.202,222.626 174.750 C 222.320 174.366,221.861 174.052,221.607 174.052 C 221.353 174.052,221.026 173.740,220.881 173.360 C 220.714 172.919,220.479 172.720,220.236 172.814 C 220.025 172.895,219.478 172.609,219.014 172.175 C 218.552 171.744,218.031 171.391,217.856 171.391 C 217.379 171.391,216.923 170.840,217.074 170.446 C 217.161 170.221,216.943 170.069,216.455 170.013 C 216.041 169.966,215.687 169.777,215.669 169.594 C 215.650 169.411,215.620 169.162,215.602 169.040 C 215.584 168.918,215.221 168.818,214.795 168.818 C 214.369 168.818,213.652 168.528,213.201 168.175 C 212.750 167.821,211.522 166.933,210.473 166.201 C 209.424 165.469,208.280 164.601,207.930 164.271 C 207.581 163.942,207.200 163.673,207.084 163.673 C 206.488 163.673,203.827 161.461,204.164 161.247 C 204.507 161.031,203.915 160.867,203.232 160.989 C 202.835 161.060,202.233 160.408,202.368 160.054 C 202.445 159.853,202.260 159.680,201.915 159.631 C 201.545 159.578,201.300 159.328,201.246 158.949 C 201.177 158.464,200.991 158.350,200.273 158.350 C 199.527 158.350,199.406 158.432,199.518 158.862 C 199.632 159.296,199.465 159.402,198.429 159.558 C 197.368 159.717,197.206 159.826,197.206 160.376 C 197.206 160.906,197.072 161.011,196.396 161.011 C 195.902 161.011,195.602 161.141,195.629 161.344 C 195.718 162.036,195.594 162.273,195.143 162.271 C 193.517 162.265,193.249 162.355,193.166 162.941 C 193.112 163.320,192.867 163.570,192.498 163.622 C 192.135 163.674,191.884 163.925,191.833 164.288 C 191.779 164.662,191.577 164.856,191.266 164.830 C 190.989 164.807,190.658 165.063,190.492 165.429 C 190.308 165.832,189.976 166.068,189.594 166.068 C 189.260 166.068,188.912 166.190,188.820 166.338 C 188.728 166.487,188.541 166.540,188.404 166.455 C 188.268 166.371,188.039 166.609,187.896 166.985 C 187.753 167.361,187.544 167.654,187.431 167.635 C 186.853 167.541,186.589 167.721,186.512 168.263 C 186.465 168.593,186.277 168.877,186.094 168.896 C 185.912 168.914,185.650 168.944,185.514 168.962 C 185.378 168.980,185.228 169.263,185.182 169.590 C 185.120 170.023,184.915 170.186,184.432 170.189 C 184.067 170.191,183.753 170.343,183.734 170.526 C 183.715 170.709,183.684 170.978,183.666 171.124 C 183.648 171.271,183.347 171.391,182.998 171.391 C 182.588 171.391,182.315 171.578,182.225 171.921 C 182.149 172.213,181.882 172.531,181.633 172.626 C 181.384 172.722,180.880 173.078,180.513 173.418 C 180.147 173.757,179.591 174.116,179.278 174.215 C 178.965 174.313,178.553 174.617,178.361 174.888 C 178.170 175.160,177.851 175.383,177.652 175.383 C 177.453 175.383,177.250 175.495,177.201 175.633 C 177.128 175.838,174.444 177.812,167.665 182.645 C 167.299 182.906,166.219 183.684,165.266 184.374 C 162.070 186.688,161.201 187.201,161.535 186.576 C 161.697 186.274,161.976 186.028,162.156 186.028 C 162.370 186.028,162.507 185.496,162.551 184.498 C 162.638 182.498,162.802 182.036,163.424 182.036 C 163.878 182.036,163.939 181.838,163.943 180.373 C 163.947 178.615,164.078 178.234,164.761 177.983 C 165.065 177.871,165.197 177.431,165.232 176.405 C 165.294 174.569,165.467 174.042,165.948 174.227 C 166.160 174.308,166.339 174.332,166.346 174.280 C 166.353 174.228,166.416 173.526,166.488 172.721 C 166.681 170.541,166.841 169.993,167.242 170.147 C 167.508 170.249,167.628 169.840,167.724 168.508 C 167.797 167.498,168.090 166.241,168.405 165.591 C 168.709 164.962,169.036 164.064,169.132 163.595 C 169.445 162.054,169.895 161.011,170.246 161.011 C 170.485 161.011,170.592 160.590,170.592 159.656 C 170.592 158.550,170.685 158.276,171.096 158.168 C 171.641 158.026,171.923 157.080,171.923 155.389 C 171.923 154.548,172.017 154.358,172.436 154.358 C 172.864 154.358,172.977 154.103,173.118 152.828 C 173.374 150.502,173.376 150.496,173.862 150.536 C 174.113 150.556,174.324 150.556,174.330 150.536 C 174.337 150.516,174.408 149.721,174.488 148.769 C 174.567 147.818,174.921 146.105,175.274 144.963 C 176.231 141.863,176.288 141.995,173.040 139.742 C 171.474 138.656,165.522 134.438,159.814 130.368 C 154.105 126.299,149.326 122.936,149.194 122.895 C 149.062 122.854,147.292 126.474,145.261 130.938 C 143.230 135.403,140.358 141.690,138.877 144.910 C 134.989 153.368,134.356 154.756,133.186 157.383 C 132.609 158.681,131.872 160.028,131.550 160.377 L 130.964 161.011 122.198 161.011 C 114.242 161.011,113.380 160.968,112.868 160.546 C 112.555 160.288,110.814 156.698,108.962 152.495 C 104.807 143.066,94.971 120.633,89.416 107.917 C 87.114 102.648,82.694 92.528,79.593 85.429 C 75.401 75.832,73.753 72.334,73.167 71.790 L 72.380 71.058 46.073 71.058 L 19.767 71.058 19.065 71.760 M172.540 71.790 C 172.181 72.192,170.449 75.695,168.689 79.574 C 166.930 83.453,162.746 92.645,159.392 100.000 C 156.038 107.355,153.293 113.489,153.293 113.631 C 153.293 113.795,159.177 113.894,169.395 113.901 C 178.250 113.908,185.496 113.873,185.496 113.824 C 185.496 113.774,188.669 104.246,192.548 92.650 C 196.427 81.053,199.601 71.451,199.601 71.312 C 199.601 71.154,194.596 71.058,186.396 71.058 L 173.192 71.058 172.540 71.790 M201.533 71.391 C 201.603 71.574,203.546 77.472,205.852 84.498 C 208.157 91.524,210.261 97.871,210.527 98.603 C 210.793 99.335,211.201 100.532,211.434 101.264 C 212.850 105.708,214.059 109.324,214.294 109.820 C 214.443 110.135,214.764 111.153,215.007 112.082 L 215.449 113.772 231.773 113.841 C 244.800 113.896,248.069 113.842,247.961 113.575 C 247.600 112.679,229.869 73.824,229.411 72.926 C 228.407 70.959,229.196 71.058,214.550 71.058 C 204.145 71.058,201.433 71.127,201.533 71.391 M199.839 89.621 C 199.823 89.731,199.784 90.000,199.751 90.220 C 199.719 90.439,199.671 91.248,199.646 92.016 C 199.608 93.186,199.520 93.413,199.105 93.413 C 198.602 93.413,198.270 94.698,198.270 96.644 C 198.270 97.228,198.146 97.405,197.738 97.405 C 197.313 97.405,197.199 97.594,197.172 98.337 C 197.154 98.849,197.109 99.388,197.073 99.534 C 197.036 99.681,196.991 100.160,196.973 100.599 C 196.947 101.209,196.814 101.397,196.407 101.397 C 196.026 101.397,195.865 101.586,195.842 102.063 C 195.823 102.428,195.778 102.848,195.742 102.994 C 195.705 103.140,195.660 103.739,195.642 104.325 C 195.615 105.201,195.515 105.389,195.077 105.389 C 194.668 105.389,194.544 105.567,194.544 106.150 C 194.544 108.096,194.212 109.381,193.710 109.381 C 193.314 109.381,193.213 109.584,193.211 110.379 C 193.205 112.324,192.914 113.373,192.380 113.373 C 191.983 113.373,191.882 113.575,191.880 114.371 C 191.874 116.316,191.583 117.365,191.050 117.365 C 190.630 117.365,190.552 117.574,190.552 118.696 L 190.552 120.027 173.919 120.027 L 157.285 120.027 157.285 121.199 L 157.285 122.372 158.616 122.555 C 159.684 122.702,159.947 122.838,159.947 123.245 C 159.947 123.605,160.135 123.752,160.593 123.752 C 160.949 123.752,161.428 123.941,161.658 124.171 C 161.975 124.488,162.082 124.504,162.102 124.237 C 162.117 124.044,162.212 124.185,162.313 124.551 C 162.441 125.018,162.712 125.241,163.217 125.300 C 163.714 125.358,163.939 125.539,163.939 125.881 C 163.939 126.193,164.161 126.408,164.538 126.462 C 164.907 126.514,165.167 126.761,165.216 127.104 C 165.278 127.535,165.576 127.714,166.547 127.902 C 167.458 128.078,167.789 128.263,167.765 128.583 C 167.744 128.866,168.005 129.077,168.497 129.175 C 169.037 129.283,169.261 129.486,169.261 129.867 C 169.261 130.261,169.436 130.406,169.912 130.406 C 170.282 130.406,170.740 130.661,170.976 130.997 C 171.261 131.403,171.396 131.466,171.409 131.197 C 171.421 130.954,171.507 131.007,171.636 131.337 C 171.750 131.630,171.981 131.885,172.149 131.903 C 172.317 131.921,172.635 131.951,172.854 131.969 C 173.074 131.988,173.253 132.242,173.253 132.535 C 173.253 132.919,173.431 133.067,173.890 133.067 C 174.341 133.067,174.573 133.254,174.688 133.709 C 174.812 134.205,175.085 134.391,175.888 134.526 C 176.580 134.643,176.970 134.866,177.056 135.193 C 177.126 135.463,177.467 135.724,177.813 135.773 C 178.229 135.831,178.472 136.065,178.528 136.460 C 178.589 136.888,178.793 137.059,179.241 137.059 C 179.586 137.059,180.047 137.238,180.266 137.456 C 180.566 137.757,180.695 137.773,180.796 137.523 C 180.869 137.341,180.939 137.454,180.950 137.773 C 180.966 138.203,181.162 138.376,181.703 138.439 C 182.106 138.485,182.450 138.673,182.468 138.856 C 182.487 139.039,182.517 139.308,182.535 139.454 C 182.553 139.601,182.794 139.721,183.069 139.721 C 183.876 139.721,183.987 140.765,183.212 141.059 C 182.614 141.287,182.568 141.439,182.568 143.199 C 182.568 144.873,182.506 145.109,182.033 145.233 C 181.460 145.383,181.332 145.754,181.132 147.838 C 181.062 148.570,180.997 149.205,180.988 149.251 C 180.979 149.296,180.876 149.274,180.759 149.202 C 180.267 148.897,179.935 149.539,179.880 150.904 C 179.806 152.750,179.701 153.027,179.080 153.027 C 178.653 153.027,178.572 153.241,178.548 154.424 C 178.500 156.804,178.478 156.881,177.844 156.971 C 177.348 157.042,177.245 157.224,177.243 158.036 C 177.237 159.963,176.944 161.011,176.412 161.011 C 176.015 161.011,175.914 161.213,175.912 162.009 C 175.906 163.869,175.611 165.016,175.157 164.940 C 174.707 164.865,174.704 164.875,174.448 167.199 C 174.308 168.474,174.194 168.729,173.767 168.729 C 173.322 168.729,173.253 168.925,173.253 170.193 C 173.253 171.763,173.292 171.795,174.795 171.495 C 175.357 171.382,175.655 171.137,175.765 170.696 C 175.880 170.239,176.111 170.060,176.585 170.060 C 177.112 170.060,177.246 169.925,177.246 169.395 C 177.246 169.029,177.335 168.743,177.445 168.761 C 178.126 168.868,178.576 168.667,178.576 168.254 C 178.576 167.965,178.791 167.762,179.122 167.737 C 179.422 167.714,180.085 167.329,180.595 166.882 C 181.105 166.434,181.758 166.068,182.045 166.068 C 182.391 166.068,182.568 165.887,182.568 165.536 C 182.568 165.149,182.746 165.003,183.215 165.003 C 183.683 165.003,183.885 164.838,183.947 164.405 C 184.013 163.939,184.282 163.754,185.163 163.569 C 186.003 163.392,186.294 163.203,186.294 162.836 C 186.294 162.564,186.474 162.327,186.693 162.309 C 186.913 162.290,187.242 162.260,187.425 162.242 C 187.608 162.224,187.796 161.939,187.843 161.610 C 187.901 161.202,188.112 161.009,188.508 161.003 C 189.183 160.993,190.362 160.222,189.738 160.198 C 189.527 160.190,189.894 159.977,190.552 159.725 C 191.221 159.469,191.750 159.093,191.750 158.875 C 191.750 158.659,192.026 158.444,192.363 158.396 C 192.706 158.348,193.078 158.041,193.207 157.702 C 193.410 157.169,194.701 156.591,195.409 156.718 C 195.519 156.737,195.609 156.514,195.609 156.221 C 195.609 155.832,195.786 155.689,196.269 155.689 C 196.751 155.689,196.974 155.509,197.096 155.023 C 197.216 154.546,197.443 154.358,197.900 154.358 C 198.250 154.358,198.536 154.230,198.536 154.073 C 198.536 153.446,199.281 153.121,200.865 153.057 C 202.387 152.995,202.528 153.036,202.528 153.536 C 202.528 153.896,202.754 154.138,203.194 154.249 C 203.560 154.341,203.859 154.522,203.859 154.653 C 203.859 154.783,204.086 154.890,204.363 154.890 C 204.640 154.890,204.935 155.070,205.020 155.289 C 205.104 155.509,205.397 155.689,205.671 155.689 C 205.945 155.689,206.305 155.988,206.472 156.354 C 206.650 156.744,206.997 157.019,207.313 157.019 C 207.665 157.019,207.851 157.195,207.851 157.528 C 207.851 157.916,208.109 158.081,208.932 158.220 C 209.737 158.356,210.075 158.566,210.256 159.041 C 210.424 159.483,210.707 159.681,211.171 159.681 C 211.666 159.681,211.843 159.821,211.843 160.213 C 211.843 160.506,211.963 160.760,212.109 160.778 C 212.255 160.797,212.474 160.827,212.594 160.845 C 212.714 160.863,213.009 161.058,213.250 161.277 C 214.243 162.184,214.507 162.342,215.025 162.342 C 215.369 162.342,215.569 162.516,215.569 162.816 C 215.569 163.098,215.892 163.412,216.367 163.591 C 216.806 163.757,217.166 164.072,217.166 164.291 C 217.166 164.551,217.545 164.754,218.247 164.873 C 219.052 165.009,219.390 165.219,219.571 165.695 C 219.717 166.079,220.029 166.334,220.353 166.334 C 220.704 166.334,220.892 166.509,220.892 166.837 C 220.892 167.199,221.148 167.387,221.811 167.512 C 222.520 167.645,222.692 167.784,222.563 168.120 C 222.436 168.451,222.506 168.513,222.855 168.379 C 223.108 168.282,223.249 168.309,223.169 168.438 C 223.004 168.705,223.621 168.995,224.355 168.995 C 224.662 168.995,224.878 169.220,224.932 169.594 C 224.986 169.974,225.231 170.223,225.603 170.276 C 225.925 170.322,226.263 170.592,226.353 170.875 C 226.545 171.480,227.420 171.553,227.963 171.010 C 228.383 170.591,228.479 170.211,228.107 170.440 C 227.978 170.521,227.786 169.899,227.681 169.059 C 227.577 168.219,227.410 167.472,227.312 167.399 C 226.724 166.961,226.214 165.667,226.214 164.613 C 226.214 163.483,226.052 163.257,225.332 163.381 C 225.212 163.401,225.136 163.206,225.163 162.947 C 225.189 162.687,225.182 162.385,225.147 162.275 C 225.051 161.975,224.954 161.108,224.917 160.213 C 224.899 159.774,224.794 159.429,224.684 159.446 C 224.015 159.552,223.857 159.255,223.688 157.576 C 223.545 156.144,223.401 155.711,223.036 155.616 C 222.529 155.483,222.222 154.395,222.222 152.728 C 222.222 151.898,222.125 151.697,221.725 151.697 C 221.191 151.697,220.900 150.647,220.894 148.703 C 220.892 147.906,220.791 147.705,220.394 147.705 C 219.860 147.705,219.570 146.655,219.564 144.711 C 219.561 143.914,219.460 143.713,219.063 143.713 C 218.083 143.713,217.857 139.811,218.829 139.673 C 219.214 139.618,219.458 139.374,219.513 138.989 C 219.574 138.555,219.777 138.390,220.245 138.390 C 220.822 138.390,221.020 138.138,220.923 137.525 C 220.906 137.415,221.041 137.307,221.224 137.285 C 221.407 137.263,221.677 137.216,221.823 137.182 C 221.969 137.148,222.302 137.107,222.561 137.090 C 222.821 137.073,223.148 136.760,223.287 136.394 C 223.462 135.934,223.741 135.729,224.193 135.729 C 224.668 135.729,224.870 135.565,224.932 135.130 C 224.992 134.701,225.224 134.507,225.749 134.447 C 226.256 134.388,226.480 134.210,226.480 133.864 C 226.480 133.478,226.749 133.326,227.678 133.186 C 228.713 133.031,228.876 132.920,228.876 132.372 C 228.876 131.876,229.018 131.737,229.523 131.737 C 229.925 131.737,230.231 131.545,230.331 131.231 C 230.419 130.953,230.782 130.652,231.138 130.563 C 231.493 130.473,232.082 130.102,232.447 129.738 C 232.811 129.373,233.355 129.075,233.654 129.075 C 234.021 129.075,234.198 128.902,234.198 128.543 C 234.198 128.154,234.376 128.011,234.859 128.011 C 235.336 128.011,235.564 127.831,235.681 127.365 C 235.807 126.862,236.077 126.679,236.900 126.540 C 237.681 126.408,238.021 126.195,238.200 125.722 C 238.346 125.338,238.658 125.083,238.982 125.083 C 239.335 125.083,239.521 124.908,239.521 124.576 C 239.521 124.169,239.784 124.032,240.852 123.886 C 241.896 123.742,242.182 123.598,242.182 123.216 C 242.182 122.897,242.446 122.672,242.952 122.561 C 243.528 122.435,243.690 122.271,243.595 121.909 C 243.504 121.558,243.660 121.378,244.166 121.251 C 244.630 121.135,244.838 120.923,244.787 120.618 C 244.716 120.192,243.530 120.150,227.767 120.027 C 218.447 119.953,210.750 119.821,210.661 119.732 C 210.572 119.643,210.425 118.777,210.335 117.808 C 210.204 116.412,210.068 116.014,209.676 115.889 C 209.388 115.798,209.168 115.462,209.148 115.085 C 209.130 114.729,209.085 114.318,209.049 114.172 C 209.012 114.025,208.967 113.494,208.949 112.992 C 208.925 112.351,208.767 112.031,208.417 111.920 C 208.018 111.794,207.882 111.390,207.735 109.906 C 207.567 108.195,207.413 107.910,206.720 108.019 C 206.610 108.036,206.511 107.601,206.500 107.053 C 206.489 106.504,206.433 105.815,206.376 105.522 C 206.318 105.230,206.242 104.583,206.206 104.085 C 206.163 103.495,205.983 103.139,205.688 103.062 C 205.358 102.976,205.188 102.533,205.059 101.421 C 204.885 99.920,204.427 98.653,204.377 99.534 C 204.327 100.405,203.899 98.799,203.712 97.038 C 203.556 95.574,203.418 95.181,203.023 95.077 C 202.622 94.972,202.520 94.663,202.483 93.449 C 202.458 92.624,202.426 91.710,202.412 91.417 C 202.396 91.072,202.169 90.854,201.767 90.797 C 201.312 90.732,201.181 90.577,201.276 90.215 C 201.350 89.930,201.239 89.658,201.013 89.571 C 200.462 89.360,199.872 89.385,199.839 89.621 M80.572 237.059 C 82.658 237.104,86.071 237.104,88.157 237.059 C 90.243 237.014,88.536 236.977,84.365 236.977 C 80.193 236.977,78.486 237.014,80.572 237.059 M98.470 272.943 C 91.489 274.784,87.150 281.600,87.642 289.949 C 88.054 296.923,90.260 300.078,99.074 306.291 C 103.243 309.231,104.286 310.671,104.313 313.533 C 104.369 319.388,97.694 321.544,91.258 317.749 C 90.528 317.318,89.875 316.966,89.809 316.966 C 89.742 316.966,89.687 319.292,89.687 322.135 L 89.687 327.304 91.327 328.123 L 92.966 328.942 99.207 328.942 L 105.448 328.942 107.058 328.084 C 112.281 325.300,114.831 320.297,114.828 312.841 C 114.825 305.609,113.282 303.079,105.062 296.823 C 98.689 291.974,97.043 288.820,98.951 285.119 C 100.864 281.408,107.508 281.598,111.383 285.473 C 111.745 285.835,111.780 285.307,111.716 280.481 L 111.643 275.085 110.180 274.351 C 106.918 272.715,101.707 272.089,98.470 272.943 M282.901 272.928 C 275.924 274.865,271.958 281.249,272.323 289.953 C 272.599 296.536,274.926 300.104,282.378 305.370 C 288.570 309.745,289.795 311.737,288.611 315.504 C 287.203 319.978,281.495 320.977,275.816 317.742 C 275.066 317.315,274.394 316.966,274.322 316.966 C 274.250 316.966,274.209 319.266,274.232 322.077 L 274.272 327.187 275.593 327.998 L 276.913 328.809 283.365 328.889 C 290.622 328.978,290.767 328.950,293.460 326.910 C 297.532 323.827,299.543 319.159,299.522 312.841 C 299.498 305.921,297.692 302.918,290.085 297.153 C 284.632 293.020,282.897 290.776,282.902 287.860 C 282.912 282.203,289.005 280.632,294.983 284.745 C 295.636 285.195,296.239 285.562,296.322 285.562 C 296.405 285.562,296.474 283.229,296.474 280.377 L 296.474 275.192 295.210 274.552 C 291.693 272.773,286.111 272.037,282.901 272.928 M-0.000 273.796 C -0.000 274.064,1.982 284.096,4.404 296.090 C 6.826 308.084,9.298 320.383,9.899 323.420 L 10.990 328.942 15.829 328.942 L 20.668 328.942 21.132 326.747 C 21.388 325.539,22.000 322.695,22.494 320.426 C 25.968 304.453,27.686 296.211,28.071 293.679 C 28.552 290.510,28.759 289.482,28.891 289.614 C 29.013 289.736,30.072 296.016,30.339 298.204 C 30.464 299.228,31.418 304.438,32.458 309.780 C 33.499 315.123,34.705 321.351,35.138 323.619 C 35.570 325.888,35.988 328.014,36.064 328.343 C 36.197 328.912,45.775 329.360,45.775 328.798 C 45.775 328.719,46.741 324.018,47.922 318.352 C 49.103 312.686,50.894 304.039,51.901 299.135 C 53.937 289.222,55.206 283.081,56.410 277.312 C 56.852 275.190,57.216 273.423,57.217 273.387 C 57.218 273.350,54.654 273.320,51.518 273.320 L 45.817 273.320 45.667 274.052 C 45.584 274.454,45.039 277.718,44.457 281.304 C 43.875 284.890,42.922 290.758,42.339 294.345 C 41.049 302.287,40.808 304.198,40.566 308.383 C 40.355 312.024,40.134 312.440,39.717 309.980 C 39.562 309.065,38.878 305.323,38.198 301.663 C 37.517 298.004,36.378 291.836,35.666 287.957 C 34.954 284.079,34.048 279.198,33.653 277.112 L 32.933 273.320 28.612 273.320 L 24.291 273.320 23.977 274.850 C 23.805 275.692,22.539 281.770,21.164 288.357 C 18.512 301.058,18.065 303.536,17.531 308.516 C 17.191 311.681,16.771 312.698,16.761 310.379 C 16.758 309.684,16.579 307.379,16.364 305.258 C 16.021 301.886,15.328 297.729,11.749 277.578 L 11.016 273.453 5.508 273.381 C 0.323 273.313,-0.000 273.338,-0.000 273.796 M60.945 301.131 L 60.945 328.942 72.056 328.942 L 83.167 328.942 83.113 323.952 L 83.059 318.962 77.453 318.890 L 71.847 318.818 71.918 312.503 L 71.989 306.188 76.846 306.115 L 81.703 306.043 81.703 300.992 L 81.703 295.941 76.780 295.941 L 71.856 295.941 71.856 289.820 L 71.856 283.699 77.445 283.699 L 83.034 283.699 83.034 278.510 L 83.034 273.320 71.989 273.320 L 60.945 273.320 60.945 301.131 M116.294 273.387 C 116.291 273.423,116.261 275.759,116.228 278.576 L 116.168 283.700 120.492 283.699 L 124.817 283.699 124.817 306.321 L 124.817 328.942 130.273 328.942 L 135.729 328.942 135.729 306.321 L 135.729 283.699 140.120 283.699 L 144.511 283.699 144.511 278.510 L 144.511 273.320 130.406 273.320 C 122.648 273.320,116.298 273.350,116.294 273.387 M148.769 301.131 L 148.769 328.942 159.802 328.942 L 170.835 328.942 170.913 324.323 C 170.956 321.783,170.953 319.507,170.905 319.267 C 170.829 318.877,170.205 318.829,165.250 318.829 L 159.681 318.829 159.681 312.442 L 159.681 306.055 164.604 306.055 L 169.528 306.055 169.528 300.998 L 169.528 295.941 164.604 295.941 L 159.681 295.941 159.681 289.820 L 159.681 283.699 165.269 283.699 L 170.858 283.699 170.858 278.510 L 170.858 273.320 159.814 273.320 L 148.769 273.320 148.769 301.131 M176.891 273.497 C 176.793 273.595,176.713 286.110,176.713 301.308 L 176.713 328.942 182.169 328.942 L 187.625 328.942 187.625 316.152 C 187.625 309.071,187.727 303.425,187.854 303.503 C 187.980 303.581,190.217 309.337,192.824 316.294 L 197.566 328.942 203.389 328.942 C 206.592 328.942,209.160 328.852,209.094 328.743 C 208.884 328.389,199.884 304.900,199.681 304.173 C 199.606 303.905,199.962 303.491,200.674 303.020 C 205.017 300.146,207.324 295.383,207.314 289.312 C 207.298 279.674,202.666 274.743,192.548 273.596 C 189.902 273.296,177.172 273.216,176.891 273.497 M215.037 301.131 L 215.037 328.942 220.513 328.942 L 225.988 328.942 225.869 313.041 C 225.803 304.295,225.659 296.780,225.549 296.341 C 224.846 293.534,226.159 296.646,236.108 321.357 C 237.287 324.285,238.470 327.189,238.738 327.811 L 239.225 328.942 244.429 328.942 L 249.634 328.942 249.634 301.131 L 249.634 273.320 244.178 273.320 L 238.723 273.320 238.737 287.758 C 238.748 298.245,238.847 302.815,239.099 304.458 C 239.462 306.817,239.440 307.368,239.025 306.291 C 238.891 305.941,238.065 303.919,237.192 301.796 C 236.318 299.674,233.343 292.399,230.581 285.629 L 225.560 273.320 220.298 273.320 L 215.037 273.320 215.037 301.131 M300.200 278.507 L 300.200 283.699 304.591 283.699 L 308.982 283.699 308.982 306.321 L 308.982 328.942 314.438 328.942 L 319.894 328.942 319.894 306.321 L 319.894 283.699 324.291 283.699 L 328.687 283.699 328.615 278.576 L 328.543 273.453 314.371 273.384 L 300.200 273.315 300.200 278.507 M339.205 273.647 C 339.147 273.833,338.482 276.680,337.726 279.973 C 336.970 283.267,336.126 286.919,335.850 288.090 C 334.809 292.520,329.147 316.980,328.396 320.293 C 327.964 322.196,327.329 324.920,326.983 326.347 L 326.355 328.942 331.768 328.942 L 337.182 328.942 337.369 328.210 C 337.472 327.808,337.925 325.742,338.375 323.619 L 339.194 319.760 344.817 319.689 L 350.439 319.617 350.839 321.419 C 351.059 322.410,351.507 324.508,351.835 326.081 L 352.431 328.942 358.252 328.942 C 361.453 328.942,364.071 328.852,364.070 328.743 C 364.067 328.533,362.399 321.524,358.764 306.454 C 356.381 296.575,355.630 293.439,353.154 283.034 C 352.249 279.228,351.363 275.516,351.187 274.784 L 350.865 273.453 345.087 273.381 C 340.599 273.326,339.285 273.385,339.205 273.647 M367.798 301.097 L 367.798 328.942 373.253 328.942 L 378.709 328.942 378.709 316.114 C 378.709 309.036,378.811 303.400,378.936 303.540 C 379.060 303.679,381.113 309.002,383.497 315.369 C 385.881 321.737,388.008 327.395,388.223 327.944 L 388.614 328.942 394.338 328.942 C 399.663 328.942,400.053 328.910,399.929 328.476 C 399.856 328.220,397.747 322.648,395.241 316.094 C 389.987 302.349,390.387 303.891,391.816 302.905 C 399.568 297.562,400.805 283.920,394.101 277.713 C 390.447 274.330,387.388 273.597,376.114 273.398 L 367.798 273.252 367.798 301.097 M193.392 283.122 C 195.687 284.293,196.673 286.299,196.673 289.795 C 196.673 294.997,193.924 297.566,188.623 297.319 L 187.625 297.272 187.625 289.783 L 187.625 282.295 189.958 282.428 C 191.601 282.521,192.617 282.727,193.392 283.122 M383.455 282.779 C 386.264 283.613,387.758 285.954,387.758 289.523 C 387.758 294.948,384.885 297.639,379.441 297.316 L 378.709 297.272 378.709 289.820 L 378.709 282.369 380.391 282.369 C 381.316 282.369,382.695 282.553,383.455 282.779 M345.372 291.883 C 345.869 295.163,346.878 300.746,348.359 308.420 C 348.512 309.208,348.636 310.136,348.636 310.482 L 348.636 311.111 344.772 311.111 L 340.908 311.111 341.050 310.512 C 341.263 309.610,342.966 298.610,343.769 292.947 C 344.158 290.203,344.544 287.957,344.626 287.958 C 344.709 287.958,345.045 289.724,345.372 291.883 " stroke="none" fill-rule="evenodd"></path></g></svg>