<svg id="svg" xmlns="http://www.w3.org/2000/svg"  width="400" height="400" viewBox="0, 0, 400,400"><g id="svgg"><path id="path0" d="M0.770 115.806 C -0.541 117.117,-0.366 117.702,4.929 129.704 C 14.158 150.625,28.667 183.483,32.037 191.095 C 35.821 199.642,46.986 225.082,49.785 231.533 C 50.795 233.861,53.683 240.496,56.203 246.277 C 60.608 256.383,70.949 280.760,70.949 281.039 C 70.949 281.877,72.366 283.929,73.178 284.269 C 74.702 284.906,161.405 284.866,162.639 284.228 C 163.669 283.695,163.503 284.016,168.985 271.971 C 171.397 266.672,173.701 261.613,174.104 260.730 C 174.508 259.847,178.210 251.709,182.332 242.645 C 191.279 222.970,190.713 224.110,191.757 223.678 C 193.373 223.008,208.027 223.370,208.753 224.098 C 209.080 224.424,211.586 229.614,214.322 235.630 C 217.059 241.647,220.202 248.540,221.307 250.949 C 222.413 253.358,225.968 261.175,229.209 268.321 C 236.772 284.999,236.247 283.992,237.590 284.381 C 238.363 284.604,251.652 284.672,282.694 284.612 L 326.702 284.526 327.418 283.796 C 327.821 283.384,329.022 280.835,330.168 277.956 C 332.267 272.685,340.828 252.650,347.884 236.496 C 350.094 231.438,352.588 225.723,353.427 223.796 C 356.707 216.262,365.418 196.427,369.777 186.569 C 374.796 175.219,377.739 168.554,382.927 156.788 C 384.804 152.533,387.297 146.883,388.467 144.234 C 401.331 115.105,400.245 117.817,399.565 116.502 C 398.783 114.990,399.744 115.036,369.256 115.036 C 336.307 115.036,339.716 114.709,338.262 118.013 C 337.817 119.026,337.019 120.839,336.489 122.044 C 335.959 123.248,332.110 132.051,327.935 141.606 C 323.761 151.161,317.261 166.007,313.491 174.599 C 309.720 183.190,304.447 195.212,301.773 201.314 C 298.605 208.543,296.655 212.638,296.176 213.066 C 295.023 214.097,276.951 214.097,275.789 213.066 C 275.091 212.446,273.772 209.631,260.229 179.854 C 258.220 175.438,256.545 171.789,256.506 171.746 C 256.468 171.703,253.559 173.728,250.043 176.247 C 246.527 178.766,239.872 183.516,235.255 186.803 C 230.639 190.089,226.862 192.925,226.864 193.104 C 226.865 193.284,227.127 194.285,227.445 195.328 C 227.764 196.372,228.028 197.686,228.031 198.248 C 228.040 199.780,228.313 200.514,228.932 200.676 C 229.390 200.795,229.496 201.111,229.526 202.454 C 229.576 204.701,229.595 204.817,229.927 204.822 C 230.634 204.833,230.949 205.377,230.949 206.587 C 230.949 207.300,231.079 207.883,231.237 207.883 C 231.638 207.883,232.443 209.891,232.465 210.949 C 232.475 211.431,232.680 212.050,232.921 212.326 C 233.161 212.602,233.594 213.653,233.882 214.662 C 234.170 215.671,234.942 217.998,235.597 219.833 C 236.252 221.669,236.788 223.599,236.788 224.123 C 236.788 224.646,236.922 225.157,237.085 225.258 C 237.535 225.536,238.248 227.414,238.248 228.320 C 238.248 228.762,238.570 229.699,238.962 230.402 C 239.355 231.104,239.726 232.164,239.787 232.755 C 239.848 233.347,240.030 234.004,240.192 234.215 C 240.600 234.747,241.134 236.207,241.240 237.080 C 241.289 237.482,241.432 237.974,241.557 238.175 C 241.683 238.376,241.693 238.692,241.578 238.877 C 241.458 239.071,241.497 239.136,241.670 239.029 C 241.985 238.834,242.834 241.351,242.549 241.636 C 242.462 241.723,241.885 241.454,241.268 241.037 C 240.651 240.620,239.719 240.006,239.197 239.672 C 238.675 239.339,238.248 238.882,238.248 238.657 C 238.248 238.432,238.050 238.248,237.807 238.248 C 237.290 238.248,233.869 235.971,233.869 235.626 C 233.869 235.497,233.540 235.309,233.139 235.209 C 232.667 235.090,232.409 234.820,232.409 234.447 C 232.409 234.129,232.310 233.884,232.190 233.903 C 231.474 234.016,230.844 233.790,230.265 233.212 C 229.903 232.850,229.239 232.387,228.790 232.183 C 228.259 231.942,228.030 231.660,228.137 231.380 C 228.256 231.071,228.097 230.949,227.575 230.949 C 227.077 230.949,226.763 230.730,226.583 230.255 C 226.393 229.756,226.093 229.562,225.512 229.562 C 224.990 229.562,224.488 229.291,224.093 228.796 C 223.757 228.374,223.253 228.029,222.975 228.029 C 222.696 228.029,222.337 227.687,222.178 227.270 C 221.995 226.787,221.737 226.569,221.471 226.671 C 221.239 226.760,220.640 226.446,220.130 225.971 C 219.623 225.497,219.051 225.109,218.860 225.109 C 218.336 225.109,217.836 224.506,218.002 224.074 C 218.097 223.827,217.858 223.660,217.322 223.598 C 216.868 223.546,216.480 223.339,216.460 223.139 C 216.440 222.938,216.407 222.664,216.387 222.530 C 216.367 222.397,215.968 222.287,215.501 222.287 C 215.035 222.287,214.248 221.970,213.753 221.582 C 213.258 221.193,211.911 220.219,210.760 219.416 C 209.609 218.613,208.354 217.661,207.970 217.299 C 207.587 216.938,207.169 216.642,207.042 216.642 C 206.388 216.642,203.468 214.216,203.839 213.982 C 204.214 213.744,203.565 213.564,202.816 213.698 C 202.381 213.776,201.719 213.060,201.868 212.672 C 201.953 212.452,201.749 212.262,201.371 212.208 C 200.965 212.150,200.696 211.876,200.637 211.460 C 200.561 210.928,200.357 210.803,199.569 210.803 C 198.751 210.803,198.618 210.893,198.742 211.365 C 198.866 211.841,198.683 211.957,197.547 212.128 C 196.383 212.302,196.204 212.422,196.204 213.026 C 196.204 213.608,196.058 213.723,195.316 213.723 C 194.774 213.723,194.445 213.865,194.474 214.088 C 194.573 214.847,194.437 215.106,193.942 215.104 C 192.158 215.097,191.863 215.197,191.772 215.839 C 191.713 216.255,191.444 216.530,191.040 216.587 C 190.642 216.644,190.367 216.919,190.310 217.317 C 190.251 217.728,190.029 217.941,189.688 217.912 C 189.384 217.887,189.022 218.168,188.839 218.569 C 188.638 219.011,188.273 219.270,187.854 219.270 C 187.487 219.270,187.105 219.404,187.004 219.567 C 186.903 219.730,186.698 219.788,186.549 219.695 C 186.399 219.603,186.148 219.864,185.991 220.277 C 185.835 220.689,185.605 221.010,185.481 220.989 C 184.847 220.886,184.557 221.084,184.473 221.679 C 184.422 222.040,184.215 222.352,184.015 222.372 C 183.814 222.392,183.527 222.425,183.378 222.445 C 183.229 222.465,183.064 222.775,183.013 223.134 C 182.945 223.609,182.721 223.788,182.191 223.791 C 181.790 223.794,181.445 223.960,181.425 224.161 C 181.404 224.361,181.370 224.657,181.350 224.818 C 181.330 224.978,181.001 225.109,180.618 225.109 C 180.168 225.109,179.868 225.316,179.770 225.692 C 179.686 226.012,179.394 226.360,179.120 226.465 C 178.846 226.570,178.294 226.961,177.892 227.333 C 177.490 227.706,176.880 228.099,176.537 228.208 C 176.193 228.316,175.741 228.649,175.531 228.947 C 175.321 229.245,174.971 229.489,174.752 229.489 C 174.534 229.489,174.311 229.613,174.258 229.763 C 174.178 229.989,171.233 232.154,163.796 237.456 C 163.394 237.742,162.210 238.596,161.164 239.353 C 157.658 241.892,156.704 242.455,157.071 241.769 C 157.248 241.438,157.555 241.168,157.752 241.168 C 157.987 241.168,158.137 240.585,158.185 239.489 C 158.281 237.296,158.461 236.788,159.144 236.788 C 159.641 236.788,159.709 236.571,159.713 234.964 C 159.717 233.035,159.860 232.617,160.610 232.342 C 160.944 232.219,161.088 231.736,161.126 230.611 C 161.195 228.596,161.385 228.019,161.913 228.221 C 162.145 228.311,162.342 228.337,162.349 228.279 C 162.356 228.222,162.426 227.453,162.504 226.569 C 162.716 224.177,162.892 223.577,163.332 223.746 C 163.624 223.857,163.756 223.408,163.861 221.947 C 163.941 220.839,164.262 219.460,164.608 218.747 C 164.942 218.057,165.300 217.072,165.405 216.557 C 165.749 214.866,166.242 213.723,166.628 213.723 C 166.889 213.723,167.007 213.261,167.007 212.235 C 167.007 211.022,167.109 210.722,167.560 210.604 C 168.159 210.447,168.467 209.410,168.467 207.555 C 168.467 206.632,168.571 206.423,169.030 206.423 C 169.499 206.423,169.624 206.144,169.778 204.745 C 170.059 202.193,170.061 202.187,170.595 202.230 C 170.870 202.253,171.101 202.253,171.109 202.230 C 171.116 202.208,171.194 201.336,171.281 200.292 C 171.368 199.248,171.756 197.369,172.143 196.116 C 173.194 192.715,173.256 192.860,169.692 190.388 C 167.975 189.197,161.445 184.569,155.182 180.105 C 148.920 175.640,143.677 171.951,143.532 171.906 C 143.387 171.861,141.446 175.832,139.217 180.730 C 136.989 185.628,133.838 192.526,132.214 196.058 C 127.948 205.338,127.254 206.860,125.970 209.742 C 125.336 211.166,124.528 212.644,124.175 213.027 L 123.532 213.723 113.915 213.723 C 105.187 213.723,104.241 213.675,103.679 213.212 C 103.336 212.929,101.425 208.990,99.394 204.380 C 94.835 194.035,84.045 169.425,77.951 155.474 C 75.425 149.693,70.576 138.591,67.174 130.803 C 62.575 120.274,60.767 116.436,60.125 115.839 L 59.261 115.036 30.400 115.036 L 1.539 115.036 0.770 115.806 M169.144 115.839 C 168.751 116.281,166.850 120.124,164.920 124.380 C 162.990 128.635,158.400 138.719,154.720 146.788 C 151.040 154.858,148.029 161.587,148.029 161.743 C 148.029 161.923,154.484 162.031,165.693 162.039 C 175.409 162.046,183.358 162.008,183.358 161.954 C 183.358 161.900,186.839 151.447,191.095 138.725 C 195.350 126.002,198.832 115.468,198.832 115.315 C 198.832 115.142,193.341 115.036,184.346 115.036 L 169.860 115.036 169.144 115.839 M200.952 115.401 C 201.028 115.602,203.160 122.073,205.690 129.781 C 208.219 137.489,210.528 144.453,210.819 145.255 C 211.111 146.058,211.559 147.372,211.815 148.175 C 213.368 153.051,214.694 157.018,214.952 157.562 C 215.116 157.907,215.468 159.024,215.734 160.044 L 216.219 161.898 234.127 161.973 C 248.419 162.033,252.005 161.974,251.887 161.681 C 251.492 160.698,232.038 118.071,231.536 117.086 C 230.435 114.928,231.300 115.036,215.232 115.036 C 203.818 115.036,200.842 115.113,200.952 115.401 M199.093 135.401 C 199.076 135.522,199.033 135.818,198.997 136.058 C 198.961 136.299,198.910 137.186,198.882 138.029 C 198.840 139.312,198.743 139.562,198.288 139.562 C 197.736 139.562,197.372 140.972,197.372 143.106 C 197.372 143.747,197.236 143.942,196.788 143.942 C 196.323 143.942,196.197 144.148,196.168 144.964 C 196.148 145.526,196.099 146.117,196.058 146.277 C 196.018 146.438,195.969 146.964,195.949 147.445 C 195.921 148.114,195.775 148.321,195.328 148.321 C 194.910 148.321,194.734 148.528,194.708 149.051 C 194.688 149.453,194.639 149.912,194.599 150.073 C 194.558 150.234,194.509 150.891,194.489 151.533 C 194.459 152.494,194.349 152.701,193.869 152.701 C 193.421 152.701,193.285 152.895,193.285 153.536 C 193.285 155.671,192.921 157.080,192.369 157.080 C 191.935 157.080,191.824 157.303,191.822 158.175 C 191.815 160.309,191.496 161.460,190.911 161.460 C 190.475 161.460,190.364 161.681,190.362 162.555 C 190.355 164.688,190.036 165.839,189.451 165.839 C 188.991 165.839,188.905 166.068,188.905 167.299 L 188.905 168.759 170.657 168.759 L 152.409 168.759 152.409 170.046 L 152.409 171.332 153.869 171.533 C 155.040 171.694,155.328 171.844,155.328 172.290 C 155.328 172.685,155.535 172.847,156.038 172.847 C 156.428 172.847,156.953 173.053,157.205 173.306 C 157.554 173.654,157.671 173.672,157.693 173.379 C 157.709 173.166,157.813 173.321,157.924 173.723 C 158.065 174.235,158.362 174.480,158.917 174.545 C 159.461 174.608,159.708 174.807,159.708 175.182 C 159.708 175.524,159.952 175.760,160.365 175.819 C 160.770 175.877,161.055 176.147,161.109 176.523 C 161.177 176.997,161.504 177.193,162.569 177.399 C 163.569 177.592,163.932 177.795,163.906 178.146 C 163.883 178.456,164.169 178.688,164.709 178.796 C 165.301 178.914,165.547 179.137,165.547 179.555 C 165.547 179.987,165.739 180.146,166.261 180.146 C 166.667 180.146,167.170 180.425,167.429 180.795 C 167.741 181.240,167.890 181.309,167.904 181.014 C 167.916 180.747,168.011 180.805,168.152 181.168 C 168.277 181.489,168.531 181.768,168.716 181.788 C 168.900 181.808,169.248 181.841,169.489 181.861 C 169.730 181.881,169.927 182.161,169.927 182.482 C 169.927 182.903,170.122 183.066,170.625 183.066 C 171.120 183.066,171.375 183.271,171.500 183.770 C 171.637 184.314,171.936 184.518,172.817 184.667 C 173.576 184.795,174.004 185.039,174.098 185.398 C 174.176 185.694,174.550 185.980,174.930 186.034 C 175.385 186.098,175.652 186.355,175.714 186.788 C 175.780 187.258,176.004 187.445,176.496 187.445 C 176.875 187.445,177.380 187.641,177.620 187.881 C 177.950 188.211,178.091 188.228,178.202 187.954 C 178.282 187.754,178.358 187.878,178.371 188.229 C 178.388 188.700,178.604 188.890,179.197 188.959 C 179.639 189.010,180.016 189.215,180.036 189.416 C 180.057 189.617,180.089 189.912,180.109 190.073 C 180.130 190.234,180.393 190.365,180.696 190.365 C 181.580 190.365,181.703 191.510,180.853 191.834 C 180.196 192.083,180.146 192.251,180.146 194.181 C 180.146 196.017,180.078 196.277,179.559 196.413 C 178.930 196.577,178.790 196.984,178.571 199.270 C 178.494 200.073,178.422 200.771,178.412 200.820 C 178.402 200.870,178.289 200.846,178.161 200.766 C 177.621 200.432,177.257 201.137,177.197 202.634 C 177.115 204.659,177.000 204.964,176.319 204.964 C 175.851 204.964,175.762 205.198,175.735 206.496 C 175.683 209.107,175.659 209.192,174.964 209.290 C 174.419 209.368,174.306 209.567,174.303 210.458 C 174.297 212.572,173.976 213.723,173.392 213.723 C 172.957 213.723,172.846 213.944,172.844 214.818 C 172.838 216.858,172.513 218.116,172.016 218.033 C 171.522 217.951,171.519 217.961,171.238 220.511 C 171.084 221.910,170.959 222.190,170.490 222.190 C 170.002 222.190,169.927 222.404,169.927 223.796 C 169.927 225.518,169.969 225.554,171.619 225.224 C 172.234 225.101,172.561 224.831,172.683 224.348 C 172.808 223.846,173.062 223.650,173.582 223.650 C 174.160 223.650,174.307 223.502,174.307 222.920 C 174.307 222.518,174.405 222.205,174.526 222.224 C 175.273 222.342,175.766 222.121,175.766 221.668 C 175.766 221.351,176.002 221.128,176.365 221.101 C 176.695 221.076,177.422 220.654,177.981 220.163 C 178.541 219.672,179.257 219.270,179.572 219.270 C 179.951 219.270,180.146 219.072,180.146 218.686 C 180.146 218.262,180.341 218.102,180.856 218.102 C 181.369 218.102,181.591 217.921,181.659 217.446 C 181.731 216.934,182.026 216.731,182.993 216.528 C 183.914 216.335,184.234 216.128,184.234 215.725 C 184.234 215.427,184.431 215.166,184.672 215.146 C 184.912 215.126,185.274 215.093,185.474 215.073 C 185.675 215.053,185.881 214.741,185.933 214.380 C 185.996 213.931,186.228 213.720,186.663 213.713 C 187.403 213.703,188.696 212.857,188.012 212.831 C 187.781 212.822,188.182 212.588,188.905 212.312 C 189.639 212.030,190.219 211.619,190.219 211.379 C 190.219 211.142,190.522 210.906,190.892 210.854 C 191.267 210.800,191.676 210.464,191.818 210.092 C 192.040 209.507,193.457 208.874,194.234 209.012 C 194.354 209.034,194.453 208.788,194.453 208.467 C 194.453 208.040,194.647 207.883,195.177 207.883 C 195.706 207.883,195.951 207.687,196.084 207.153 C 196.216 206.629,196.465 206.423,196.966 206.423 C 197.350 206.423,197.664 206.283,197.664 206.111 C 197.664 205.423,198.481 205.066,200.219 204.996 C 201.888 204.928,202.044 204.973,202.044 205.521 C 202.044 205.917,202.292 206.183,202.774 206.303 C 203.175 206.404,203.504 206.604,203.504 206.747 C 203.504 206.890,203.752 207.007,204.056 207.007 C 204.360 207.007,204.685 207.204,204.777 207.445 C 204.870 207.686,205.191 207.883,205.491 207.883 C 205.792 207.883,206.187 208.212,206.370 208.613 C 206.565 209.041,206.947 209.343,207.293 209.343 C 207.680 209.343,207.883 209.536,207.883 209.901 C 207.883 210.327,208.166 210.507,209.069 210.660 C 209.952 210.809,210.323 211.040,210.522 211.562 C 210.706 212.046,211.016 212.263,211.526 212.263 C 212.068 212.263,212.263 212.417,212.263 212.847 C 212.263 213.168,212.394 213.447,212.555 213.467 C 212.715 213.487,212.955 213.520,213.087 213.540 C 213.218 213.560,213.542 213.774,213.806 214.015 C 214.896 215.009,215.186 215.182,215.754 215.182 C 216.131 215.182,216.350 215.374,216.350 215.702 C 216.350 216.012,216.705 216.356,217.226 216.553 C 217.708 216.735,218.102 217.081,218.102 217.321 C 218.102 217.605,218.518 217.829,219.288 217.959 C 220.171 218.108,220.542 218.339,220.741 218.861 C 220.901 219.282,221.243 219.562,221.599 219.562 C 221.984 219.562,222.190 219.754,222.190 220.113 C 222.190 220.511,222.471 220.718,223.198 220.854 C 223.976 221.000,224.165 221.153,224.024 221.521 C 223.884 221.884,223.961 221.953,224.344 221.806 C 224.621 221.700,224.776 221.729,224.688 221.871 C 224.507 222.164,225.184 222.482,225.989 222.482 C 226.326 222.482,226.564 222.728,226.622 223.139 C 226.681 223.556,226.950 223.829,227.358 223.887 C 227.712 223.937,228.082 224.233,228.181 224.544 C 228.392 225.208,229.352 225.288,229.948 224.692 C 230.408 224.232,230.514 223.815,230.106 224.067 C 229.964 224.155,229.753 223.473,229.639 222.551 C 229.524 221.630,229.342 220.810,229.234 220.730 C 228.589 220.250,228.029 218.830,228.029 217.675 C 228.029 216.435,227.851 216.186,227.061 216.322 C 226.930 216.345,226.846 216.130,226.875 215.846 C 226.905 215.561,226.897 215.230,226.858 215.109 C 226.753 214.780,226.647 213.828,226.606 212.847 C 226.586 212.365,226.471 211.986,226.350 212.005 C 225.617 212.121,225.443 211.796,225.258 209.954 C 225.100 208.382,224.942 207.908,224.543 207.803 C 223.986 207.658,223.650 206.464,223.650 204.635 C 223.650 203.725,223.543 203.504,223.104 203.504 C 222.518 203.504,222.199 202.353,222.193 200.219 C 222.190 199.345,222.079 199.124,221.644 199.124 C 221.059 199.124,220.739 197.973,220.733 195.839 C 220.731 194.966,220.620 194.745,220.184 194.745 C 219.109 194.745,218.860 190.464,219.927 190.312 C 220.349 190.252,220.617 189.984,220.677 189.562 C 220.745 189.087,220.967 188.905,221.480 188.905 C 222.114 188.905,222.331 188.628,222.224 187.956 C 222.205 187.836,222.354 187.717,222.555 187.693 C 222.755 187.668,223.051 187.618,223.212 187.580 C 223.372 187.543,223.737 187.497,224.022 187.479 C 224.307 187.460,224.665 187.117,224.818 186.715 C 225.010 186.210,225.316 185.985,225.812 185.985 C 226.333 185.985,226.554 185.806,226.622 185.328 C 226.689 184.858,226.943 184.645,227.518 184.579 C 228.075 184.515,228.321 184.319,228.321 183.940 C 228.321 183.516,228.616 183.349,229.635 183.196 C 230.770 183.026,230.949 182.905,230.949 182.303 C 230.949 181.759,231.105 181.606,231.659 181.606 C 232.101 181.606,232.436 181.396,232.546 181.051 C 232.642 180.746,233.041 180.416,233.431 180.318 C 233.821 180.220,234.467 179.813,234.867 179.413 C 235.267 179.013,235.863 178.686,236.191 178.686 C 236.594 178.686,236.788 178.496,236.788 178.102 C 236.788 177.675,236.983 177.518,237.513 177.518 C 238.036 177.518,238.286 177.322,238.415 176.810 C 238.553 176.258,238.849 176.057,239.753 175.905 C 240.610 175.760,240.982 175.526,241.179 175.008 C 241.339 174.586,241.681 174.307,242.037 174.307 C 242.423 174.307,242.628 174.114,242.628 173.750 C 242.628 173.304,242.917 173.154,244.088 172.993 C 245.233 172.835,245.547 172.677,245.547 172.259 C 245.547 171.908,245.836 171.662,246.392 171.540 C 247.024 171.401,247.201 171.221,247.098 170.824 C 246.997 170.440,247.169 170.242,247.724 170.102 C 248.233 169.975,248.461 169.742,248.405 169.408 C 248.327 168.940,247.026 168.895,229.732 168.759 C 219.508 168.679,211.063 168.533,210.966 168.436 C 210.868 168.338,210.707 167.388,210.608 166.325 C 210.465 164.794,210.315 164.357,209.885 164.220 C 209.569 164.120,209.328 163.752,209.307 163.338 C 209.286 162.947,209.237 162.496,209.197 162.336 C 209.157 162.175,209.108 161.593,209.088 161.042 C 209.062 160.339,208.888 159.988,208.504 159.866 C 208.067 159.727,207.917 159.285,207.756 157.656 C 207.572 155.779,207.403 155.466,206.642 155.586 C 206.522 155.605,206.413 155.128,206.401 154.526 C 206.389 153.923,206.327 153.168,206.265 152.847 C 206.202 152.526,206.118 151.816,206.078 151.270 C 206.031 150.623,205.834 150.232,205.510 150.148 C 205.148 150.053,204.962 149.567,204.821 148.348 C 204.629 146.700,204.127 145.311,204.072 146.277 C 204.017 147.233,203.548 145.471,203.342 143.538 C 203.172 141.933,203.020 141.501,202.586 141.388 C 202.147 141.273,202.034 140.934,201.994 139.601 C 201.966 138.696,201.932 137.693,201.916 137.372 C 201.898 136.994,201.650 136.754,201.209 136.691 C 200.710 136.620,200.566 136.450,200.670 136.053 C 200.752 135.741,200.630 135.442,200.382 135.347 C 199.777 135.115,199.130 135.142,199.093 135.401 " stroke="none" fill-rule="evenodd"></path></g></svg>