<svg id="svg" xmlns="http://www.w3.org/2000/svg"  width="400" height="400" viewBox="0, 0, 400,400"><g id="svgg"><path id="path0" d="M189.333 9.065 C 145.722 47.243,59.486 99.345,8.591 118.265 L -0.151 121.515 4.147 124.650 C 6.510 126.374,64.844 167.272,133.778 215.533 C 202.711 263.795,259.431 303.584,259.822 303.952 C 260.213 304.321,257.964 306.296,254.824 308.342 L 249.115 312.061 229.224 298.399 C 136.877 234.969,141.331 237.717,123.162 232.958 C 93.385 225.159,59.055 230.245,24.039 247.643 C 9.274 254.979,-0.607 261.101,0.547 262.195 C 1.139 262.757,171.488 380.549,195.779 397.193 L 200.001 400.086 208.667 392.427 C 250.752 355.228,333.933 304.244,386.933 283.162 C 397.449 278.979,399.856 277.711,398.933 276.843 C 398.298 276.246,356.178 246.633,305.333 211.037 C 254.489 175.441,196.689 134.971,176.889 121.104 C 157.089 107.236,140.769 95.556,140.623 95.147 C 140.374 94.451,150.192 88.000,151.501 88.000 C 151.831 88.000,174.179 103.148,201.162 121.662 C 228.145 140.176,253.422 156.923,257.333 158.878 C 291.206 175.811,331.661 173.596,375.556 152.407 C 386.893 146.934,400.220 138.872,399.827 137.725 C 399.447 136.617,201.592 -0.013,200.471 0.058 C 199.967 0.091,194.956 4.144,189.333 9.065 " stroke="none" fill-rule="evenodd"></path></g></svg>