<svg id="svg" xmlns="http://www.w3.org/2000/svg"  width="400" height="400" viewBox="0, 0, 400,400"><g id="svgg"><path id="path0" d="M64.942 175.978 C 49.763 215.244,51.111 211.914,50.911 210.642 C 50.816 210.039,50.348 198.221,49.871 184.379 L 49.004 159.212 36.631 159.418 C 29.825 159.531,20.736 159.630,16.432 159.638 L 8.607 159.652 4.482 166.051 L 0.357 172.451 14.654 172.532 L 28.951 172.613 30.509 211.033 L 32.067 249.452 44.460 249.452 L 56.852 249.452 73.097 208.138 L 89.342 166.823 242.772 166.823 C 388.625 166.823,396.210 166.796,396.365 166.275 C 396.655 165.300,400.000 150.790,400.000 150.508 C 400.000 150.353,329.879 150.235,237.447 150.235 L 74.893 150.235 64.942 175.978 M189.202 179.383 C 179.464 180.600,179.317 180.867,172.289 210.016 C 166.017 236.029,165.826 237.563,168.516 240.253 C 171.935 243.672,185.233 243.342,190.812 239.700 L 193.123 238.191 194.130 240.232 L 195.136 242.272 198.715 242.185 L 202.295 242.097 205.985 226.761 C 208.015 218.326,209.755 211.105,209.853 210.715 L 210.030 210.007 200.277 210.089 L 190.524 210.172 189.357 215.023 L 188.190 219.875 189.740 219.970 C 190.783 220.035,191.244 220.188,191.148 220.440 C 191.070 220.645,190.469 223.064,189.814 225.813 C 188.458 231.496,188.017 232.238,185.992 232.238 C 183.309 232.238,183.213 233.018,188.684 210.272 C 193.951 188.372,194.003 188.237,196.803 189.235 C 198.399 189.804,198.282 191.445,196.043 199.927 L 195.855 200.637 204.073 200.553 L 212.291 200.469 213.531 195.462 C 215.834 186.156,215.539 182.209,212.422 180.641 C 209.525 179.183,196.464 178.475,189.202 179.383 M87.637 210.376 C 80.837 227.440,75.228 241.593,75.173 241.828 C 75.089 242.178,76.423 242.254,82.690 242.254 L 90.309 242.254 92.360 236.072 L 94.411 229.890 97.753 229.802 C 100.422 229.731,101.095 229.799,101.095 230.143 C 101.095 230.379,100.743 233.095,100.313 236.178 C 99.883 239.261,99.531 241.890,99.531 242.019 C 99.531 242.148,102.975 242.254,107.185 242.254 L 114.839 242.254 115.003 241.236 C 115.184 240.115,119.877 181.176,119.876 180.047 L 119.875 179.343 109.937 179.347 L 100.000 179.351 87.637 210.376 M135.055 179.734 C 134.834 180.369,120.188 241.697,120.188 241.988 C 120.188 242.134,123.357 242.254,127.230 242.254 C 131.103 242.254,134.272 242.173,134.272 242.075 C 134.272 241.667,141.193 212.938,141.427 212.372 C 141.700 211.714,141.950 217.652,142.301 233.104 L 142.509 242.264 150.196 242.181 L 157.882 242.097 165.148 211.894 C 169.144 195.282,172.506 181.162,172.619 180.516 L 172.825 179.343 165.776 179.343 C 159.333 179.343,158.714 179.390,158.568 179.890 C 158.481 180.192,156.777 187.261,154.783 195.601 C 152.788 203.940,151.113 210.807,151.059 210.861 C 150.884 211.036,150.549 195.664,150.548 187.402 L 150.548 179.343 142.870 179.343 C 137.009 179.343,135.159 179.435,135.055 179.734 M223.623 179.734 C 223.471 180.148,213.155 222.970,211.729 229.108 C 209.110 240.380,210.867 242.120,225.220 242.474 C 244.480 242.950,246.404 241.589,250.534 224.570 C 254.457 208.402,261.346 179.693,261.346 179.513 C 261.346 179.414,257.656 179.370,253.146 179.416 L 244.947 179.499 238.746 205.300 C 232.396 231.717,232.305 232.021,230.657 232.351 C 227.150 233.052,227.081 233.625,233.945 205.051 C 237.310 191.044,240.063 179.530,240.063 179.464 C 240.063 179.102,223.757 179.370,223.623 179.734 M275.765 180.047 C 275.613 180.434,270.036 194.413,263.372 211.111 C 256.708 227.809,251.187 241.647,251.103 241.862 C 250.983 242.169,252.613 242.254,258.626 242.254 L 266.302 242.254 268.388 235.994 L 270.475 229.734 273.735 229.734 L 276.995 229.734 276.995 230.603 C 276.995 231.395,275.968 239.339,275.600 241.393 L 275.446 242.254 283.263 242.254 L 291.080 242.254 291.080 241.517 C 291.080 240.572,295.698 182.443,295.914 180.673 L 296.076 179.343 286.058 179.343 L 276.041 179.343 275.765 180.047 M310.963 180.019 C 310.621 181.460,296.414 240.860,296.247 241.549 L 296.076 242.254 304.298 242.251 L 312.520 242.248 315.503 229.809 L 318.487 217.371 320.086 217.382 C 321.974 217.396,322.692 217.887,322.692 219.164 C 322.692 219.883,318.285 238.974,317.488 241.706 C 317.339 242.218,317.870 242.254,325.588 242.254 L 333.848 242.254 336.470 231.377 C 340.349 215.286,340.225 213.871,334.749 211.881 L 333.818 211.542 335.636 210.803 C 338.003 209.841,339.665 208.725,340.647 207.438 C 344.471 202.424,347.876 185.549,345.664 182.576 C 343.673 179.900,341.688 179.598,324.974 179.428 L 311.137 179.287 310.963 180.019 M355.288 180.802 C 354.773 183.152,340.859 241.084,340.652 241.741 C 340.437 242.420,364.810 242.349,369.171 241.658 C 378.991 240.102,378.840 240.380,385.900 210.898 C 393.896 177.506,395.024 179.683,369.594 179.428 L 355.619 179.288 355.288 180.802 M373.160 189.559 C 374.504 189.938,374.701 188.958,366.133 224.517 C 364.618 230.802,364.526 231.060,363.580 231.637 C 362.366 232.377,359.624 232.480,359.624 231.785 C 359.624 231.158,369.573 189.721,369.819 189.323 C 370.001 189.028,371.707 189.148,373.160 189.559 M328.915 189.869 C 329.809 190.495,329.792 190.638,327.853 198.514 C 326.220 205.153,326.079 205.373,323.330 205.572 C 321.043 205.738,321.076 206.506,323.020 198.341 C 325.425 188.248,324.970 189.358,326.703 189.358 C 327.568 189.358,328.490 189.571,328.915 189.869 M104.536 207.810 C 103.677 214.059,102.973 219.295,102.973 219.445 C 102.973 219.595,101.847 219.718,100.469 219.718 C 99.092 219.718,97.966 219.589,97.966 219.430 C 97.966 219.272,99.461 214.800,101.288 209.493 C 103.116 204.186,104.892 199.026,105.235 198.026 C 106.234 195.118,106.183 195.835,104.536 207.810 M280.598 207.531 C 279.813 213.287,279.092 218.384,278.997 218.858 C 278.825 219.711,278.801 219.718,276.311 219.718 C 274.438 219.718,273.833 219.619,273.933 219.327 C 274.007 219.112,275.818 213.824,277.957 207.576 C 280.096 201.329,281.887 196.408,281.936 196.641 C 281.986 196.874,281.384 201.774,280.598 207.531 " stroke="none" fill-rule="evenodd"></path></g></svg>