<svg id="svg" xmlns="http://www.w3.org/2000/svg"  width="400" height="400" viewBox="0, 0, 400,400"><g id="svgg"><path id="path0" d="M41.485 161.312 C 33.695 161.603,8.332 163.995,3.312 164.911 L 0.074 165.502 1.741 169.214 L 3.408 172.926 8.473 172.990 C 19.191 173.127,40.158 174.364,40.685 174.892 C 40.990 175.196,37.137 183.426,32.123 193.181 C 24.237 208.527,20.287 215.611,14.837 224.180 C 13.500 226.284,15.598 232.066,19.373 236.681 L 21.159 238.865 24.603 234.984 C 38.916 218.859,58.067 184.060,56.119 177.716 C 55.606 176.042,55.423 174.672,55.713 174.672 C 57.431 174.672,93.894 171.026,94.085 170.835 C 94.213 170.707,93.730 168.626,93.013 166.209 L 91.708 161.816 87.120 161.265 C 82.722 160.737,56.116 160.764,41.485 161.312 M362.009 181.559 C 355.500 183.253,349.891 188.428,344.690 197.540 C 342.949 200.590,342.483 200.860,338.961 200.867 L 335.128 200.873 335.670 205.453 C 335.969 207.972,336.618 210.168,337.113 210.333 C 337.608 210.498,335.667 215.171,332.799 220.717 L 327.584 230.800 330.710 234.614 C 332.428 236.712,334.082 238.413,334.385 238.395 C 335.439 238.331,347.637 220.105,350.316 214.591 L 352.313 210.480 357.915 210.480 L 363.517 210.480 362.922 206.332 C 362.594 204.050,361.724 201.718,360.988 201.149 C 357.274 198.281,364.058 192.120,372.047 191.106 C 374.027 190.855,376.795 183.491,375.425 182.120 C 374.666 181.362,364.414 180.933,362.009 181.559 M381.927 192.112 C 378.421 197.195,377.297 198.224,375.109 198.359 C 370.834 198.621,370.454 198.687,369.873 199.268 C 369.081 200.060,371.023 206.789,372.152 207.166 C 372.726 207.357,372.158 209.388,370.696 212.368 L 368.299 217.256 371.190 221.282 C 374.664 226.120,374.422 226.259,381.711 215.205 L 387.201 206.879 392.946 207.066 C 399.701 207.285,399.456 207.448,398.669 203.251 C 398.027 199.829,396.233 198.253,392.977 198.253 C 391.512 198.253,391.223 197.905,391.709 196.725 C 393.106 193.330,392.896 192.444,389.948 189.301 C 386.117 185.217,386.864 184.955,381.927 192.112 M55.836 202.739 L 47.857 218.677 50.785 221.150 C 56.037 225.588,56.341 225.622,58.726 222.029 C 63.815 214.363,72.625 207.369,80.476 204.761 L 84.716 203.353 84.716 196.436 C 84.716 192.632,84.512 189.520,84.262 189.520 C 84.012 189.520,81.390 190.502,78.435 191.703 C 71.988 194.323,72.240 194.301,72.916 192.172 C 73.345 190.817,72.837 190.197,70.497 189.219 C 63.457 186.278,64.607 185.217,55.836 202.739 M111.220 188.617 C 95.719 192.721,86.364 201.937,86.193 213.272 C 86.062 221.939,96.277 225.415,106.446 220.165 L 110.271 218.189 109.732 220.336 C 109.253 222.245,118.806 226.734,120.032 225.176 C 122.156 222.479,131.758 203.920,131.259 203.477 C 130.879 203.140,129.045 201.856,127.185 200.624 L 123.802 198.383 119.325 201.939 C 112.627 207.259,103.930 210.648,103.930 207.938 C 103.930 205.747,114.880 199.024,122.434 196.577 L 125.655 195.534 123.252 191.435 C 120.424 186.612,119.561 186.410,111.220 188.617 M138.295 201.092 C 129.122 217.940,129.402 215.833,135.768 220.061 L 140.969 223.515 146.391 218.307 C 152.857 212.099,156.578 211.238,153.700 216.617 C 152.876 218.156,158.850 223.129,163.808 225.032 C 165.049 225.508,171.531 215.430,175.635 206.645 C 182.890 191.113,178.116 185.802,162.935 192.516 C 156.971 195.154,157.205 195.115,157.205 193.462 C 157.205 192.447,148.071 186.900,146.398 186.900 C 146.192 186.900,142.545 193.286,138.295 201.092 M194.177 187.858 C 186.896 189.966,184.846 198.548,189.826 206.073 C 192.972 210.827,193.001 210.799,185.590 210.128 L 179.039 209.534 179.039 216.585 C 179.039 225.139,178.661 224.891,191.703 224.891 C 202.715 224.891,205.320 223.829,207.032 218.640 C 208.327 214.717,207.419 208.645,205.096 205.692 C 202.831 202.812,203.233 202.439,208.925 202.140 L 213.537 201.898 214.316 195.687 C 214.744 192.271,214.873 189.255,214.603 188.985 C 212.706 187.087,199.379 186.352,194.177 187.858 M239.396 187.844 C 210.242 193.570,205.615 224.981,233.975 224.645 C 242.794 224.541,243.061 224.319,244.502 215.883 C 245.824 208.143,245.971 208.315,239.490 209.995 C 232.253 211.870,229.694 211.784,229.694 209.666 C 229.694 206.253,239.205 201.747,246.410 201.747 C 250.135 201.747,250.021 201.963,251.360 192.358 L 252.120 186.900 247.676 186.995 C 245.231 187.048,241.505 187.430,239.396 187.844 M256.842 202.230 C 252.479 210.662,248.908 217.886,248.908 218.282 C 248.908 219.568,256.876 225.573,257.534 224.783 C 257.884 224.362,259.871 221.754,261.949 218.987 C 266.384 213.083,272.462 208.386,279.222 205.639 C 281.887 204.555,284.404 203.138,284.815 202.490 C 285.534 201.355,285.937 189.520,285.257 189.520 C 285.074 189.520,282.294 190.510,279.079 191.720 C 273.646 193.765,273.271 193.804,273.757 192.273 C 274.206 190.858,267.901 186.900,265.196 186.900 C 264.965 186.900,261.206 193.798,256.842 202.230 M311.700 188.233 C 296.601 191.898,286.993 200.628,285.848 211.721 C 284.796 221.915,294.157 225.750,306.059 220.002 C 307.951 219.088,309.567 218.341,309.650 218.341 C 309.733 218.341,309.621 219.284,309.401 220.437 C 309.044 222.302,315.013 225.328,319.050 225.328 C 319.516 225.328,329.647 207.562,330.573 205.121 C 330.961 204.098,330.014 202.949,327.242 201.078 L 323.370 198.465 319.545 201.503 C 312.553 207.057,303.057 210.723,303.057 207.869 C 303.057 206.302,311.237 200.959,317.904 198.172 C 321.507 196.665,324.571 195.328,324.714 195.201 C 324.857 195.073,323.877 193.153,322.537 190.934 C 319.838 186.466,319.415 186.360,311.700 188.233 " stroke="none" fill="#B20837" fill-rule="evenodd"></path></g></svg>