<svg id="svg" xmlns="http://www.w3.org/2000/svg"  width="400" height="400" viewBox="0, 0, 400,400"><g id="svgg"><path id="path0" d="M150.961 1.316 C 148.145 3.435,144.541 7.181,144.128 8.417 C 141.252 17.029,135.496 22.763,120.089 32.365 C 119.184 32.929,119.174 32.995,119.668 35.334 C 120.530 39.418,119.774 41.021,113.724 47.944 C 110.386 51.763,108.658 54.037,107.635 55.957 C 106.661 57.786,106.622 57.624,108.216 58.412 C 112.703 60.633,112.764 62.761,108.524 69.142 L 106.656 71.953 106.307 80.213 C 106.115 84.755,105.917 89.254,105.867 90.210 C 105.817 91.167,105.728 92.978,105.669 94.236 C 105.010 108.431,104.267 112.441,100.094 124.321 L 98.276 129.495 97.909 133.503 C 95.111 164.034,97.766 183.938,105.162 187.880 C 105.918 188.283,106.323 188.636,106.531 189.072 C 107.290 190.662,109.988 193.262,115.758 197.961 C 120.071 201.474,121.822 205.276,122.972 213.632 L 123.198 215.279 124.317 216.435 C 126.793 218.995,130.676 221.923,135.912 225.176 C 140.401 227.966,141.337 229.101,146.273 237.742 C 147.639 240.133,149.178 242.715,149.693 243.479 L 150.631 244.867 162.003 250.524 C 174.707 256.842,173.814 256.343,174.382 257.457 C 178.030 264.614,184.888 268.366,190.657 266.360 C 194.878 264.892,199.676 259.087,199.356 255.835 C 198.478 246.891,194.082 242.807,185.127 242.615 C 183.352 242.577,183.413 242.490,183.865 244.411 C 184.354 246.485,184.470 247.518,184.301 248.286 L 184.166 248.906 183.086 247.646 C 180.921 245.118,179.234 242.204,176.849 236.871 C 173.455 229.283,171.568 226.599,168.937 225.616 C 168.058 225.288,166.300 224.617,165.032 224.127 L 162.727 223.235 160.412 219.761 C 159.139 217.850,158.097 216.246,158.097 216.195 C 158.097 215.574,163.093 217.019,167.861 219.017 C 169.984 219.907,171.227 220.296,173.533 220.791 C 184.388 223.119,185.870 224.062,191.137 231.993 C 192.283 233.720,192.491 233.935,193.498 234.441 C 197.356 236.381,199.834 238.798,202.647 243.367 C 206.833 250.167,206.922 250.275,210.100 252.428 L 212.719 254.202 216.089 262.068 C 218.044 266.634,219.579 269.983,219.747 270.050 C 219.906 270.114,221.478 270.166,223.239 270.167 C 227.173 270.167,228.383 269.877,231.939 268.078 L 234.326 266.871 234.755 267.842 C 236.518 271.838,241.438 273.036,249.050 271.324 C 249.544 271.213,250.365 274.804,251.362 281.427 L 251.513 282.434 259.700 282.481 C 264.984 282.512,267.887 282.465,267.887 282.349 C 267.887 281.566,273.516 276.630,275.096 276.026 L 275.938 275.705 275.938 274.762 C 275.938 273.339,275.487 271.869,274.307 269.442 C 273.268 267.304,272.621 266.235,268.212 259.378 C 265.717 255.498,264.292 252.866,263.434 250.558 C 262.821 248.912,261.624 246.915,255.163 236.770 L 253.117 233.558 252.163 229.359 C 249.264 216.611,248.357 213.827,246.061 210.635 C 240.712 203.200,239.388 200.370,238.519 194.511 C 236.725 182.411,233.750 172.680,228.450 161.574 L 226.747 158.005 226.634 154.254 C 225.999 133.257,223.455 118.767,219.083 111.247 C 219.052 111.194,219.870 110.873,220.901 110.535 C 223.272 109.758,224.691 109.792,232.388 110.809 C 232.841 110.869,235.077 111.198,237.356 111.540 C 253.163 113.911,260.969 113.605,268.952 110.299 C 270.466 109.672,270.459 109.622,268.777 109.072 C 268.109 108.854,267.187 108.408,266.727 108.082 L 265.891 107.487 266.361 106.700 C 267.304 105.117,269.847 103.957,274.565 102.957 C 275.773 102.701,277.996 102.232,279.506 101.914 C 285.673 100.617,288.553 99.167,289.784 96.737 C 290.304 95.710,290.309 95.718,288.838 95.151 C 287.698 94.712,286.551 93.975,286.551 93.683 C 286.551 93.590,288.136 93.012,290.073 92.397 C 298.971 89.573,298.507 89.759,299.515 88.596 C 301.392 86.429,303.316 83.127,302.927 82.738 C 302.870 82.681,299.141 82.572,294.641 82.497 C 290.141 82.421,282.778 82.192,278.279 81.988 C 265.141 81.391,262.988 81.335,253.156 81.343 C 239.029 81.354,230.943 82.117,221.226 84.355 C 217.423 85.231,208.646 89.255,202.653 92.870 L 199.726 94.637 196.523 93.885 C 189.985 92.351,183.227 91.908,177.951 92.667 C 176.252 92.911,172.157 93.352,172.108 93.296 C 171.736 92.877,171.390 69.532,171.686 64.867 C 171.836 62.496,172.157 59.438,172.267 59.328 C 172.304 59.291,173.711 59.182,175.393 59.087 C 184.123 58.592,189.234 56.866,191.335 53.702 C 191.697 53.156,192.128 52.669,192.291 52.620 C 194.179 52.056,199.344 51.405,204.682 51.057 L 207.626 50.865 208.708 51.412 C 214.147 54.160,219.762 50.059,219.762 43.339 C 219.762 41.344,220.366 41.538,213.773 41.414 C 207.389 41.294,207.932 41.425,207.770 39.970 L 207.646 38.860 208.992 38.469 C 211.622 37.705,216.192 37.152,219.905 37.147 C 222.158 37.144,224.258 35.781,225.209 33.705 C 226.635 30.591,223.820 26.853,219.259 25.802 L 218.298 25.581 218.297 24.730 C 218.293 22.373,217.398 19.720,216.292 18.789 C 214.815 17.546,205.853 16.884,198.628 17.483 C 189.905 18.207,182.723 17.822,178.058 16.381 C 176.799 15.992,171.374 15.235,167.157 14.860 C 165.956 14.753,165.684 14.671,165.632 14.401 C 165.518 13.804,166.303 11.642,167.142 10.247 L 167.967 8.875 167.448 8.819 C 167.163 8.789,163.989 9.344,160.395 10.054 C 156.801 10.764,153.734 11.345,153.580 11.345 C 153.340 11.345,153.316 11.089,153.410 9.561 C 153.471 8.580,153.606 6.212,153.710 4.300 C 153.814 2.388,153.939 0.638,153.989 0.412 C 154.192 -0.521,152.880 -0.129,150.961 1.316 M178.521 22.491 C 179.998 23.162,181.139 25.416,180.361 26.127 C 178.505 27.822,174.402 27.539,172.646 25.595 C 171.816 24.677,171.833 24.540,172.873 23.758 C 174.941 22.201,176.910 21.759,178.521 22.491 M213.980 24.525 C 218.123 25.690,218.042 25.639,216.633 26.182 C 216.002 26.425,215.233 26.722,214.925 26.842 C 213.648 27.340,211.735 26.942,210.902 26.007 C 210.536 25.594,210.241 23.605,210.547 23.605 C 210.636 23.605,212.181 24.019,213.980 24.525 M160.438 58.661 C 161.873 58.955,163.914 59.806,164.300 60.270 C 164.462 60.466,164.425 61.362,164.143 64.069 C 162.923 75.797,162.319 88.698,162.298 103.477 L 162.287 110.979 161.554 109.166 C 157.393 98.868,156.331 85.541,157.921 63.586 C 158.118 60.869,158.279 58.584,158.279 58.509 C 158.280 58.300,158.886 58.343,160.438 58.661 M178.683 100.999 C 183.382 101.777,188.893 103.666,192.660 105.789 C 193.442 106.230,193.679 106.294,193.803 106.100 C 194.160 105.544,194.326 104.470,194.327 102.699 C 194.327 101.667,194.362 100.823,194.404 100.823 C 194.447 100.823,195.208 101.078,196.097 101.390 C 216.669 108.603,223.415 124.215,215.857 147.118 C 213.666 153.758,213.115 154.454,208.966 155.809 C 205.622 156.902,204.700 157.877,204.226 160.824 C 203.992 162.273,204.013 162.306,205.187 162.306 C 208.725 162.306,210.950 163.965,213.960 168.849 C 215.333 171.077,215.305 171.769,213.787 173.102 C 212.790 173.977,210.000 175.114,208.849 175.114 C 208.726 175.114,208.025 174.312,207.290 173.330 C 202.796 167.325,199.207 165.963,194.829 168.600 C 192.835 169.800,191.765 168.920,192.591 166.760 C 192.956 165.804,193.558 165.349,195.196 164.792 C 196.963 164.191,197.848 163.702,198.489 162.972 L 199.047 162.336 198.781 160.925 C 197.274 152.948,192.325 145.153,179.027 129.815 C 177.015 127.493,175.138 125.293,174.857 124.924 C 173.647 123.338,172.352 115.686,171.832 107.045 C 171.726 105.284,171.589 103.068,171.528 102.121 L 171.416 100.399 173.951 100.517 C 175.346 100.582,177.475 100.799,178.683 100.999 M175.980 147.681 C 181.593 148.307,184.746 150.983,186.884 156.936 C 187.705 159.222,186.514 161.642,182.034 166.789 C 180.461 168.596,180.016 169.244,179.520 170.448 C 177.519 175.314,176.152 176.502,171.835 177.127 C 170.297 177.349,170.384 177.403,169.809 175.885 C 169.137 174.112,169.321 173.203,170.505 172.457 C 177.438 168.086,176.377 161.933,167.798 156.751 L 166.458 155.941 165.388 153.614 C 164.111 150.835,164.118 150.562,165.539 148.131 C 165.860 147.581,172.515 147.295,175.980 147.681 M131.496 161.522 C 138.462 166.578,144.307 172.146,146.497 175.812 C 146.623 176.022,149.350 176.796,150.787 177.030 C 155.546 177.806,156.380 178.047,158.463 179.250 C 159.315 179.743,159.721 179.850,161.113 179.948 C 163.706 180.131,164.065 180.273,164.210 181.178 C 164.276 181.594,164.307 181.956,164.279 181.984 C 163.255 182.990,156.964 186.356,156.364 186.219 C 150.652 184.922,146.203 184.283,141.903 184.141 L 138.792 184.038 136.597 183.129 C 126.599 178.990,123.542 175.379,122.679 166.697 L 122.561 165.508 123.738 164.471 C 125.561 162.866,129.234 160.502,129.940 160.479 C 130.003 160.477,130.703 160.946,131.496 161.522 M220.815 188.039 C 226.131 189.142,228.409 192.317,231.467 202.885 C 232.009 204.759,235.956 212.473,241.060 221.633 L 245.416 229.450 245.260 231.603 L 245.105 233.756 243.507 234.200 C 241.624 234.723,241.242 234.613,239.725 233.109 C 237.844 231.244,237.328 229.369,237.328 224.389 L 237.328 221.181 235.740 218.230 C 230.927 209.286,228.076 205.956,223.273 203.663 L 221.938 203.026 220.046 200.186 C 216.472 194.824,215.464 191.793,216.384 189.184 C 217.011 187.407,217.348 187.320,220.815 188.039 M202.754 194.190 C 205.413 200.880,208.751 204.850,215.375 209.203 C 219.535 211.938,221.663 215.535,224.924 225.343 C 228.001 234.596,229.488 237.689,232.390 240.864 C 234.312 242.967,236.444 249.819,235.478 250.786 C 235.244 251.019,234.401 250.548,228.682 246.981 L 222.153 242.909 221.956 241.973 C 221.303 238.870,219.145 236.201,212.992 230.889 L 210.522 228.756 206.983 221.651 C 202.672 212.998,202.555 212.856,196.249 208.742 C 190.202 204.796,189.884 202.786,194.412 197.123 C 195.449 195.827,195.506 195.788,197.414 195.037 C 201.271 193.521,202.415 193.339,202.754 194.190 M143.673 201.300 C 146.073 203.861,147.688 206.875,150.132 213.358 C 153.268 221.671,155.877 225.635,159.888 228.179 L 161.186 229.003 161.197 230.055 C 161.203 230.634,161.187 231.107,161.162 231.108 C 161.137 231.108,159.913 231.426,158.443 231.813 L 155.771 232.518 155.178 231.309 C 153.768 228.431,150.888 223.541,147.947 219.030 C 146.355 216.589,145.616 215.839,141.812 212.807 C 135.880 208.080,134.926 205.489,137.562 201.272 L 138.242 200.183 140.435 200.183 L 142.627 200.183 143.673 201.300 M250.208 249.423 C 251.500 251.894,251.172 252.087,246.723 251.477 L 245.899 251.364 246.027 250.248 C 246.097 249.633,246.278 248.822,246.428 248.445 L 246.700 247.758 248.019 247.758 L 249.338 247.758 250.208 249.423 M252.714 253.705 C 257.231 261.160,258.094 263.999,256.221 265.236 C 255.643 265.618,254.687 266.300,254.098 266.751 C 252.917 267.655,252.946 267.662,252.346 266.326 C 250.963 263.248,249.996 250.038,251.250 251.368 C 251.324 251.446,251.982 252.498,252.714 253.705 M58.737 302.562 L 58.737 308.326 199.909 308.326 L 341.080 308.326 341.080 302.562 L 341.080 296.798 199.909 296.798 L 58.737 296.798 58.737 302.562 M64.044 366.697 L 64.044 400.000 74.108 400.000 L 84.172 400.000 84.172 386.960 L 84.172 373.921 86.963 371.134 L 89.754 368.347 95.903 384.128 L 102.051 399.909 115.468 399.909 L 128.884 399.909 130.084 396.295 L 131.283 392.681 141.202 392.681 L 151.120 392.681 152.314 396.295 L 153.507 399.909 167.512 399.955 L 181.517 400.002 181.564 382.171 L 181.610 364.339 187.286 382.124 L 192.962 399.909 201.139 399.956 L 209.315 400.004 209.687 398.767 C 209.892 398.086,212.362 390.037,215.176 380.878 L 220.294 364.227 220.302 382.115 L 220.311 400.002 234.890 399.955 L 249.470 399.909 250.669 396.295 L 251.869 392.681 261.794 392.681 L 271.718 392.681 272.881 396.295 L 274.043 399.909 296.262 399.966 C 326.574 400.043,335.383 399.913,335.491 399.384 C 335.535 399.169,335.624 396.626,335.689 393.733 L 335.808 388.472 324.609 388.472 C 315.722 388.472,313.429 388.425,313.503 388.243 C 313.554 388.118,318.586 375.767,324.685 360.799 C 330.783 345.830,335.773 333.540,335.773 333.489 C 335.773 333.437,325.522 333.394,312.992 333.394 L 290.210 333.394 290.210 339.158 L 290.210 344.922 299.471 344.922 C 306.805 344.922,308.712 344.970,308.641 345.151 C 307.973 346.848,290.682 387.869,290.593 387.967 C 290.525 388.042,286.438 375.795,281.511 360.752 L 272.553 333.402 264.952 333.398 L 257.352 333.394 248.915 358.783 L 240.477 384.172 240.458 358.783 L 240.439 333.394 228.744 333.394 L 217.048 333.394 210.884 351.887 C 207.493 362.058,204.699 370.354,204.675 370.323 C 204.650 370.291,202.131 361.969,199.078 351.830 L 193.525 333.394 181.301 333.394 L 169.076 333.394 169.061 358.875 L 169.047 384.355 160.538 358.875 L 152.028 333.394 144.465 333.394 L 136.901 333.394 134.519 340.576 C 133.208 344.527,129.323 356.281,125.885 366.697 C 122.447 377.113,119.575 385.699,119.503 385.776 C 119.431 385.853,116.404 378.483,112.777 369.399 L 106.183 352.882 115.899 343.138 L 125.616 333.394 116.102 333.409 L 106.587 333.423 95.547 344.662 C 89.475 350.844,84.430 355.901,84.337 355.901 C 84.233 355.901,84.185 351.500,84.215 344.648 L 84.263 333.394 74.154 333.394 L 64.044 333.394 64.044 366.697 M144.266 371.773 C 145.935 376.830,147.301 381.009,147.301 381.060 C 147.301 381.111,144.534 381.153,141.152 381.153 C 135.649 381.153,135.014 381.123,135.112 380.867 C 135.172 380.709,136.557 376.513,138.188 371.542 C 139.820 366.570,141.172 362.520,141.193 362.542 C 141.214 362.563,142.597 366.717,144.266 371.773 M264.764 371.549 C 266.382 376.479,267.752 380.656,267.809 380.833 C 267.905 381.133,267.540 381.153,261.860 381.153 C 257.447 381.153,255.810 381.096,255.810 380.944 C 255.810 380.697,261.721 362.483,261.781 362.544 C 261.804 362.566,263.146 366.619,264.764 371.549 " stroke="none" fill-rule="evenodd"></path></g></svg>