<?xml version="1.0" encoding="UTF-8" standalone="no"?>
<svg
   xmlns="http://www.w3.org/2000/svg"
   version="1.1"
   viewBox="0, 0, 400,400"
   height="400"
   width="400"
   id="svg">
  <g
     id="svgg">
    <path
       style="fill-rule:evenodd;stroke:none;stroke-width:1.39018798"
       d="m 131.96736,5.5370216 c -3.91477,2.9458082 -8.92501,8.1534524 -9.49916,9.8717244 -3.99818,11.972299 -12.0001,19.943637 -33.418726,33.292221 -1.25812,0.784066 -1.272022,0.875819 -0.585269,4.127468 1.198342,5.677528 0.14736,7.905999 -8.263277,17.530269 -4.640447,5.309128 -7.042692,8.470415 -8.464854,11.139576 -1.354044,2.542654 -1.408261,2.317443 0.807699,3.412911 6.237773,3.087608 6.322575,6.045928 0.428178,14.916717 l -2.596871,3.907822 -0.485176,11.48295 c -0.266916,6.31423 -0.542173,12.56869 -0.611683,13.89771 -0.06951,1.33041 -0.193236,3.84804 -0.275257,5.59689 -0.916134,19.73372 -1.949043,25.30838 -7.750298,41.82381 l -2.527367,7.19283 -0.510199,5.57187 c -3.889746,42.44383 -0.198797,70.11413 10.083039,75.59426 1.050982,0.56024 1.614008,1.05098 1.903167,1.6571 1.055153,2.2104 4.80588,5.82489 12.827264,12.35738 5.995881,4.88373 8.4301,10.16922 10.028816,21.78564 l 0.314183,2.28963 1.55562,1.60706 c 3.442105,3.55888 8.840201,7.62935 16.119231,12.15164 6.24055,3.87862 7.54177,5.45648 14.40374,17.4691 1.89899,3.32394 4.03849,6.9134 4.75444,7.97551 l 1.30399,1.92958 15.80922,7.86429 c 17.66095,8.78321 16.41951,8.0895 17.20914,9.63817 5.0714,9.94958 14.60531,15.16556 22.62531,12.37685 5.86798,-2.0408 12.5381,-10.11084 12.09324,-14.63173 -1.22058,-12.43384 -7.33185,-18.11137 -19.78098,-18.37829 -2.46759,-0.0528 -2.38278,-0.17377 -1.75442,2.49678 0.6798,2.88325 0.84106,4.31931 0.60612,5.38698 l -0.18767,0.86192 -1.50141,-1.75164 c -3.00975,-3.5144 -5.355,-7.5654 -8.6706,-14.97928 -4.7183,-10.54874 -7.34158,-14.28001 -10.99916,-15.64656 -1.22198,-0.45598 -3.66593,-1.3888 -5.42869,-2.06999 l -3.20438,-1.24005 -3.21829,-4.82951 c -1.76971,-2.65665 -3.21828,-4.88651 -3.21828,-4.95741 0,-0.86331 6.94538,1.14551 13.57379,3.92311 2.95137,1.23726 4.67938,1.77805 7.88515,2.46619 15.09049,3.23636 17.15075,4.54731 24.47287,15.57289 1.59315,2.40085 1.88231,2.69974 3.28223,3.40318 5.36335,2.69696 8.80823,6.05705 12.71883,12.40881 5.81933,9.45328 5.94305,9.60342 10.36107,12.5965 l 3.6409,2.46619 4.68494,10.93522 c 2.71782,6.3476 4.85175,11.00334 5.08531,11.09648 0.22104,0.089 2.40641,0.16126 4.85453,0.16265 5.469,0 7.15113,-0.40315 12.09464,-2.9041 l 3.31838,-1.67796 0.59639,1.34987 c 2.4509,5.5552 9.29062,7.22064 19.87273,4.84064 0.68676,-0.15431 1.8281,4.83785 3.21412,14.04507 l 0.20992,1.39992 11.38146,0.0653 c 7.34576,0.0431 11.38147,-0.0222 11.38147,-0.18351 0,-1.08852 7.82537,-7.95048 10.02187,-8.79016 l 1.17054,-0.44625 v -1.31095 c 0,-1.97823 -0.62698,-4.02181 -2.2674,-7.3958 -1.44441,-2.97222 -2.34386,-4.45833 -8.4732,-13.99085 -3.46851,-5.39393 -5.44953,-9.0529 -6.64231,-12.26145 -0.85219,-2.28825 -2.51624,-5.06446 -11.49825,-19.16792 l -2.84432,-4.46528 -1.32624,-5.8374 c -4.03016,-17.72211 -5.29106,-21.5924 -8.48293,-26.02988 -7.43611,-10.33605 -9.27672,-14.27028 -10.4848,-22.41539 -2.49399,-16.82127 -6.6298,-30.34919 -13.9978,-45.78862 l -2.36749,-4.96158 -0.15709,-5.21459 c -0.88277,-29.18978 -4.41941,-49.3336 -10.49731,-59.78782 -0.0431,-0.0737 1.09408,-0.51993 2.52736,-0.98981 3.29614,-1.08018 5.26881,-1.03291 15.96909,0.38091 0.62976,0.0834 3.73822,0.54078 6.90645,1.01623 21.97471,3.29613 32.82651,2.87074 43.92438,-1.72523 2.10475,-0.87164 2.09502,-0.94115 -0.24328,-1.70576 -0.92865,-0.30306 -2.2104,-0.92308 -2.84988,-1.37628 l -1.1622,-0.82716 0.65339,-1.09408 c 1.31094,-2.20067 4.84619,-3.81329 11.4051,-5.20348 1.67935,-0.35588 4.76973,-1.00788 6.86892,-1.44996 8.57329,-1.80308 12.57703,-3.81885 14.28835,-7.19701 0.7229,-1.42772 0.72985,-1.4166 -1.31512,-2.20483 -1.58481,-0.6103 -3.17936,-1.63486 -3.17936,-2.0408 0,-0.12929 2.20345,-0.93282 4.89624,-1.78778 12.3699,-3.92589 11.72485,-3.66732 13.12616,-5.28411 2.60938,-3.01253 5.2841,-7.60293 4.74332,-8.14372 -0.0792,-0.0792 -5.26325,-0.23077 -11.5191,-0.33503 -6.25584,-0.10566 -16.4918,-0.42401 -22.74625,-0.70761 -18.26429,-0.82994 -21.25737,-0.90779 -34.9257,-0.89667 -19.63918,0.0153 -30.88024,1.07601 -44.3887,4.18725 -5.28688,1.2178 -17.48856,6.81192 -25.81996,11.83745 l -4.06908,2.45646 -4.45277,-1.04542 c -9.08905,-2.13255 -18.48394,-2.7484 -25.81857,-1.69325 -2.36193,0.33921 -8.05475,0.95228 -8.12287,0.87443 -0.51715,-0.58249 -0.99815,-33.03643 -0.58666,-39.521655 0.20853,-3.296136 0.65478,-7.547331 0.8077,-7.700251 0.0514,-0.05144 2.00743,-0.202968 4.34573,-0.335036 12.13634,-0.688143 19.24159,-3.087607 22.16238,-7.486162 0.50324,-0.759042 1.10241,-1.436064 1.32901,-1.504183 2.62468,-0.784066 9.805,-1.689079 17.22582,-2.172864 l 4.09272,-0.266916 1.50418,0.760433 c 7.56123,3.820236 15.36714,-1.880924 15.36714,-11.222988 0,-2.773424 0.83967,-2.503728 -8.32584,-2.676111 -8.87496,-0.166823 -8.12009,0.01529 -8.3453,-2.00743 l -0.17238,-1.543109 1.87119,-0.543563 c 3.6562,-1.062104 10.00936,-1.830878 15.17112,-1.837829 3.1321,-0.0042 6.05149,-1.898997 7.37356,-4.785027 1.98241,-4.329045 -1.93097,-9.525568 -8.27162,-10.986655 l -1.33597,-0.307232 -0.001,-1.18305 c -0.006,-3.276673 -1.24978,-6.964841 -2.78732,-8.259106 -2.05331,-1.728004 -14.51218,-2.648308 -24.55628,-1.815586 -12.12661,1.006496 -22.11094,0.471274 -28.59617,-1.531987 -1.75025,-0.540783 -9.29202,-1.593155 -15.15444,-2.114476 -1.66961,-0.14875 -2.04775,-0.262745 -2.12004,-0.638096 -0.15848,-0.829942 0.93282,-3.835529 2.09919,-5.774841 l 1.1469,-1.907338 -0.7215,-0.07785 c -0.39621,-0.04171 -4.80866,0.729848 -9.805,1.716882 -4.99634,0.987033 -9.26004,1.794733 -9.47413,1.794733 -0.33365,0 -0.36701,-0.355889 -0.23633,-2.480096 0.0848,-1.363774 0.27247,-4.655739 0.41705,-7.3137786 0.14458,-2.6580394 0.31836,-5.0908683 0.38787,-5.4050508 0.2822,-1.2970453 -1.54172,-0.7520916 -4.20949,1.25673 m 38.31358,29.4372294 c 2.0533,0.932817 3.63951,4.0663 2.55794,5.054724 -2.58019,2.356368 -8.28413,1.962945 -10.7253,-0.73958 -1.15385,-1.276193 -1.13022,-1.466648 0.31558,-2.553775 2.8749,-2.164523 5.61218,-2.778986 7.85178,-1.761369 m 49.29467,2.827643 c 5.75955,1.619569 5.64694,1.548669 3.68817,2.303541 -0.87721,0.337816 -1.94626,0.750702 -2.37444,0.917524 -1.77527,0.692314 -4.4347,0.139019 -5.59273,-1.160807 -0.50881,-0.574147 -0.91891,-3.339231 -0.49351,-3.339231 0.12372,0 2.27156,0.575538 4.77251,1.278973 m -74.43344,47.455454 c 1.99492,0.408716 4.83229,1.591765 5.3689,2.236813 0.22521,0.272477 0.17378,1.518085 -0.21826,5.281324 -1.69602,16.304125 -2.5357,34.238935 -2.56489,54.784525 l -0.0153,10.42919 -1.01901,-2.52041 c -5.78457,-14.31615 -7.26095,-32.84319 -5.05056,-63.364766 0.27387,-3.777141 0.49769,-6.95372 0.49769,-7.057984 0.001,-0.29055 0.84385,-0.230771 3.00142,0.211308 m 25.36398,58.857782 c 6.53249,1.08156 14.19382,3.70763 19.43065,6.659 1.08713,0.61307 1.41661,0.70204 1.58899,0.43234 0.4963,-0.77294 0.72707,-2.266 0.72846,-4.72802 0,-1.43468 0.0486,-2.608 0.10704,-2.608 0.0598,0 1.11771,0.3545 2.35359,0.78824 28.59895,10.02742 37.97715,31.73104 27.47011,63.57051 -3.0459,9.23085 -3.81189,10.19842 -9.57978,12.08213 -4.64879,1.51947 -5.93054,2.87491 -6.58949,6.97179 -0.32531,2.01438 -0.29611,2.06026 1.33597,2.06026 4.91848,0 8.01165,2.30632 12.19612,9.096 1.90873,3.09734 1.8698,4.05935 -0.2405,5.91247 -1.38602,1.21641 -5.26465,2.79706 -6.86475,2.79706 -0.171,0 -1.14552,-1.11493 -2.16731,-2.4801 -6.2475,-8.34808 -11.23689,-10.24151 -17.32313,-6.57559 -2.77203,1.66823 -4.25953,0.44486 -3.11124,-2.55794 0.50742,-1.32902 1.34431,-1.96156 3.62144,-2.73589 2.45646,-0.83551 3.68678,-1.51531 4.57789,-2.53015 l 0.77572,-0.88416 -0.36979,-1.96155 c -2.09501,-11.08953 -8.97505,-21.92605 -27.46177,-43.24875 -2.79706,-3.22801 -5.40644,-6.28643 -5.79708,-6.79941 -1.68213,-2.20484 -3.48242,-12.84255 -4.20532,-24.85517 -0.14736,-2.44812 -0.33782,-5.52878 -0.42262,-6.84528 l -0.1557,-2.39391 3.52413,0.16405 c 1.93931,0.0904 4.89902,0.39203 6.57837,0.67007 m -3.75768,64.89675 c 7.80312,0.87026 12.18639,4.5904 15.15861,12.86619 1.14134,3.17797 -0.51437,6.54222 -6.74241,13.69752 -2.18677,2.51207 -2.8054,3.41291 -3.49494,5.0867 -2.78176,6.76465 -4.68215,8.4162 -10.68359,9.28506 -2.13811,0.30863 -2.01716,0.3837 -2.81652,-1.72661 -0.93421,-2.4648 -0.67841,-3.72848 0.96757,-4.76556 9.63817,-6.07652 8.16318,-14.63034 -3.76324,-21.8343 l -1.86285,-1.12605 -1.4875,-3.23497 c -1.77527,-3.86333 -1.76554,-4.24285 0.20992,-7.6224 0.44625,-0.7646 9.69795,-1.16219 14.51495,-0.62558 m -61.84112,19.24159 c 9.68405,7.02879 17.8097,14.76936 20.85421,19.86579 0.17516,0.29194 3.9662,1.36794 5.9639,1.69325 6.61591,1.07878 7.77533,1.41382 10.67109,3.08621 1.18444,0.68537 1.74885,0.83412 3.68399,0.97035 3.60476,0.25441 4.10384,0.45182 4.30542,1.70994 0.0917,0.57831 0.13485,1.08156 0.0959,1.12049 -1.42355,1.39853 -10.16922,6.0779 -11.00334,5.88744 -7.94075,-1.80307 -14.1257,-2.6914 -20.10351,-2.88881 l -4.32487,-0.14319 -3.05146,-1.26368 C 98.099598,252.53727 93.849793,247.51731 92.650061,235.44769 l -0.164042,-1.65293 1.636251,-1.44162 c 2.534313,-2.23126 7.64047,-5.51766 8.62195,-5.54963 0.0876,-0.003 1.06071,0.64921 2.16313,1.44996 m 124.1702,36.86362 c 7.39024,1.53337 10.55708,5.94722 14.80828,20.63873 0.75348,2.60521 6.24055,13.32912 13.33607,26.06324 l 6.05566,10.8671 -0.21687,2.99307 -0.21548,2.99308 -2.22152,0.61724 c -2.61772,0.72707 -3.14877,0.57415 -5.25769,-1.51669 -2.61494,-2.5927 -3.33228,-5.19931 -3.33228,-12.12244 v -4.45973 l -2.20762,-4.10244 c -6.69097,-12.43384 -10.6544,-17.06317 -17.33147,-20.25087 l -1.8559,-0.88555 -2.63024,-3.94813 c -4.96853,-7.45419 -6.36984,-11.66785 -5.09087,-15.29485 0.87165,-2.47036 1.34014,-2.59131 6.15993,-1.59176 m -25.10819,8.55104 c 3.69651,9.30036 8.33696,14.8194 17.54556,20.87089 5.78319,3.80217 8.74151,8.80267 13.27491,22.43764 4.27761,12.86341 6.34482,17.16326 10.37914,21.5771 2.67194,2.92357 5.63582,12.44914 4.2929,13.79345 -0.3253,0.32391 -1.49723,-0.33087 -9.44772,-5.28967 l -9.07653,-5.66084 -0.27387,-1.30122 c -0.90779,-4.31375 -3.90782,-8.02416 -12.46164,-15.40884 l -3.43377,-2.96527 -4.91987,-9.87729 c -5.9931,-12.02929 -6.15576,-12.2267 -14.92228,-17.94593 -8.40647,-5.48569 -8.84855,-8.27996 -2.55378,-16.1526 1.44163,-1.80168 1.52087,-1.8559 4.17335,-2.89993 5.36195,-2.10752 6.95233,-2.36054 7.4236,-1.17749 m -82.13369,9.88424 c 3.33645,3.56027 5.5816,7.7503 8.97922,16.76288 4.35963,11.55664 7.98663,17.06734 13.56267,20.60398 l 1.80447,1.14551 0.0153,1.46248 c 0.008,0.80492 -0.0139,1.46248 -0.0487,1.46387 -0.0348,0 -1.73634,0.44208 -3.77992,0.98008 l -3.71458,0.98009 -0.82438,-1.68074 c -1.96017,-4.00096 -5.96391,-10.79898 -10.05245,-17.07012 -2.21318,-3.39345 -3.24053,-4.43609 -8.5288,-8.65114 -8.2466,-6.57142 -9.57284,-10.1734 -5.9083,-16.03582 l 0.94533,-1.51391 h 3.04868 3.04729 l 1.45414,1.55284 m 148.10367,66.90001 c 1.79612,3.43516 1.34014,3.70346 -4.8448,2.85545 l -1.14552,-0.15709 0.17794,-1.55145 c 0.0973,-0.85497 0.34894,-1.98241 0.55747,-2.50651 l 0.37813,-0.95506 h 1.83366 1.83366 l 1.20946,2.31466 m 3.48381,5.95279 c 6.27948,10.36385 7.47921,14.31059 4.87539,16.03025 -0.80353,0.53106 -2.13255,1.47916 -2.95137,2.10614 -1.64181,1.25673 -1.60149,1.26646 -2.43561,-0.59083 -1.92263,-4.279 -3.26694,-22.64338 -1.52364,-20.79443 0.10287,0.10843 1.01761,1.57091 2.03523,3.24887"
       id="path0" />
  </g>
</svg>
