<svg id="svg" xmlns="http://www.w3.org/2000/svg"  width="400" height="400" viewBox="0, 0, 400,400"><g id="svgg"><path id="path0" d="M66.266 122.836 C 65.587 123.225,64.652 123.757,64.189 124.018 C 63.726 124.278,62.719 124.868,61.950 125.330 C 61.181 125.791,60.527 126.168,60.496 126.168 C 60.465 126.168,59.732 126.589,58.866 127.103 C 58.000 127.617,57.265 128.037,57.231 128.037 C 57.198 128.037,56.731 128.306,56.194 128.633 C 55.657 128.961,54.377 129.710,53.349 130.297 C 52.321 130.884,49.973 132.238,48.131 133.305 C 46.289 134.373,44.572 135.366,44.315 135.512 C 44.058 135.658,42.481 136.567,40.810 137.532 C 39.139 138.496,36.371 140.092,34.657 141.077 C 29.961 143.777,29.411 144.097,28.781 144.494 C 28.461 144.695,28.165 144.860,28.123 144.860 C 28.081 144.860,27.467 145.202,26.757 145.621 C 26.048 146.039,25.222 146.521,24.922 146.692 C 24.622 146.863,23.501 147.513,22.430 148.136 C 21.359 148.759,18.695 150.298,16.511 151.556 C 14.326 152.814,11.673 154.346,10.614 154.959 C 9.556 155.573,8.671 156.075,8.649 156.075 C 8.627 156.075,7.789 156.565,6.787 157.165 C 5.785 157.765,4.933 158.255,4.893 158.255 C 4.854 158.255,4.140 158.665,3.307 159.166 C 2.473 159.667,1.388 160.303,0.895 160.580 L -0.001 161.083 0.001 199.828 C 0.002 230.462,0.043 238.623,0.196 238.810 C 0.302 238.940,0.950 239.366,1.636 239.756 C 3.055 240.564,9.303 244.172,9.657 244.388 C 9.786 244.467,11.293 245.335,13.006 246.317 C 16.674 248.421,19.078 249.806,21.963 251.481 C 23.119 252.152,24.942 253.204,26.012 253.817 C 27.083 254.431,30.238 256.250,33.022 257.859 C 35.806 259.469,39.661 261.696,41.589 262.809 C 43.516 263.922,45.479 265.061,45.950 265.340 C 46.421 265.618,47.157 266.039,47.586 266.274 C 48.014 266.509,48.995 267.072,49.766 267.526 C 51.519 268.557,59.074 272.924,63.683 275.571 C 67.742 277.902,67.350 277.832,69.454 276.613 C 70.362 276.087,72.157 275.046,73.442 274.301 C 74.727 273.555,77.847 271.756,80.374 270.301 C 82.901 268.847,85.449 267.364,86.036 267.006 C 86.623 266.648,87.127 266.355,87.156 266.355 C 87.202 266.355,92.562 263.300,93.146 262.941 C 93.275 262.862,94.957 261.887,96.885 260.775 C 98.812 259.663,101.686 258.000,103.271 257.079 C 104.856 256.158,106.398 255.267,106.698 255.099 C 106.998 254.931,109.065 253.737,111.293 252.445 C 113.520 251.153,115.798 249.841,116.355 249.529 C 116.912 249.217,117.718 248.766,118.146 248.526 C 118.575 248.286,119.036 247.994,119.171 247.877 C 119.306 247.760,119.459 247.664,119.511 247.664 C 119.562 247.664,120.643 247.060,121.913 246.323 C 123.182 245.586,125.202 244.420,126.402 243.732 C 127.601 243.043,129.073 242.190,129.673 241.836 C 130.273 241.481,130.938 241.102,131.153 240.992 C 131.367 240.883,132.278 240.356,133.178 239.822 L 134.813 238.852 134.813 199.933 C 134.813 161.428,134.810 161.013,134.507 160.843 C 134.339 160.748,133.954 160.523,133.651 160.344 C 132.694 159.778,126.458 156.176,117.783 151.179 C 117.326 150.916,116.834 150.631,116.690 150.545 C 116.545 150.460,115.832 150.046,115.106 149.627 C 114.379 149.207,112.979 148.395,111.994 147.821 C 111.009 147.248,109.887 146.603,109.502 146.388 C 109.116 146.173,107.434 145.205,105.763 144.237 C 104.093 143.269,101.990 142.058,101.090 141.546 C 100.191 141.033,98.948 140.308,98.328 139.933 C 97.709 139.559,97.168 139.252,97.127 139.252 C 97.086 139.252,96.410 138.867,95.625 138.396 C 94.839 137.924,94.180 137.539,94.159 137.539 C 94.138 137.539,93.324 137.075,92.349 136.508 C 91.374 135.940,88.929 134.529,86.916 133.371 C 84.903 132.212,82.748 130.959,82.129 130.586 C 81.509 130.212,80.965 129.907,80.919 129.907 C 80.873 129.907,80.573 129.742,80.254 129.540 C 79.661 129.167,77.117 127.689,71.573 124.497 C 69.860 123.511,68.243 122.574,67.979 122.416 L 67.501 122.127 66.266 122.836 M68.302 126.919 C 68.731 127.158,70.238 128.023,71.651 128.842 C 76.267 131.516,81.676 134.628,82.710 135.203 C 83.267 135.513,84.203 136.060,84.790 136.419 C 85.377 136.778,85.882 137.072,85.912 137.072 C 85.943 137.072,86.339 137.292,86.792 137.561 C 87.842 138.185,90.642 139.812,93.925 141.707 C 95.339 142.523,97.407 143.717,98.520 144.361 C 99.634 145.005,100.839 145.696,101.198 145.897 C 101.557 146.097,102.643 146.726,103.612 147.295 C 104.581 147.864,105.654 148.488,105.997 148.682 C 106.340 148.876,107.461 149.519,108.489 150.112 C 109.517 150.704,112.286 152.297,114.642 153.652 C 116.998 155.007,119.977 156.727,121.262 157.476 C 122.547 158.224,125.035 159.658,126.791 160.663 C 128.548 161.667,130.247 162.659,130.569 162.866 L 131.153 163.244 131.153 200.006 L 131.153 236.768 130.802 236.919 C 130.609 237.003,130.314 237.159,130.146 237.266 C 129.603 237.613,128.818 238.069,123.988 240.844 C 121.375 242.346,118.115 244.222,116.745 245.015 C 115.374 245.807,114.042 246.577,113.785 246.725 C 113.221 247.050,107.090 250.595,103.738 252.535 C 102.410 253.304,101.109 254.055,100.847 254.206 C 100.584 254.356,99.428 255.025,98.277 255.692 C 93.868 258.246,92.284 259.159,87.150 262.110 C 84.237 263.784,81.408 265.424,80.864 265.755 C 80.320 266.085,79.846 266.355,79.810 266.355 C 79.775 266.355,79.238 266.659,78.619 267.031 C 77.999 267.403,75.775 268.694,73.676 269.900 C 71.577 271.106,69.370 272.379,68.772 272.729 C 67.381 273.541,67.685 273.606,64.670 271.862 C 63.241 271.035,61.861 270.238,61.604 270.090 C 61.347 269.942,59.525 268.891,57.555 267.754 C 55.584 266.616,53.762 265.565,53.505 265.418 C 51.957 264.530,44.626 260.297,42.991 259.346 C 41.920 258.723,40.132 257.688,39.019 257.046 C 37.905 256.404,36.783 255.758,36.526 255.609 C 36.269 255.461,34.412 254.392,32.399 253.234 C 28.539 251.013,23.816 248.288,21.340 246.851 C 20.526 246.379,18.078 244.959,15.899 243.695 C 13.721 242.431,10.392 240.507,8.501 239.419 C 6.610 238.331,4.764 237.252,4.400 237.021 L 3.738 236.600 3.777 199.886 L 3.816 163.172 6.075 161.867 C 11.152 158.935,12.789 157.991,14.720 156.883 C 15.833 156.244,17.328 155.380,18.041 154.963 C 18.755 154.546,19.397 154.206,19.469 154.206 C 19.541 154.206,19.624 154.149,19.652 154.079 C 19.681 154.009,20.090 153.740,20.561 153.481 C 21.476 152.977,25.563 150.615,27.692 149.359 C 28.401 148.941,29.009 148.598,29.042 148.598 C 29.075 148.598,29.861 148.154,30.789 147.610 C 33.041 146.292,38.220 143.290,39.097 142.795 C 39.482 142.577,40.639 141.913,41.667 141.318 C 42.695 140.724,45.183 139.287,47.196 138.125 C 49.210 136.963,52.153 135.261,53.738 134.342 C 55.323 133.423,57.426 132.214,58.411 131.654 C 59.396 131.095,60.639 130.368,61.172 130.038 C 61.706 129.709,62.173 129.439,62.212 129.439 C 62.250 129.439,63.425 128.773,64.822 127.960 C 66.219 127.146,67.399 126.481,67.443 126.483 C 67.487 126.484,67.874 126.681,68.302 126.919 M93.299 151.519 C 93.297 151.583,93.299 163.320,93.302 177.602 C 93.305 191.883,93.262 203.859,93.205 204.215 L 93.101 204.861 66.729 178.489 L 40.356 152.117 39.843 152.377 C 39.561 152.520,38.980 152.840,38.551 153.088 C 38.123 153.337,36.651 154.191,35.280 154.986 C 33.910 155.782,32.473 156.609,32.087 156.824 C 31.702 157.039,31.141 157.366,30.841 157.552 C 30.541 157.737,30.191 157.937,30.062 157.996 C 29.934 158.054,29.613 158.234,29.349 158.395 C 28.834 158.708,24.260 161.353,22.586 162.305 C 22.029 162.622,20.697 163.392,19.626 164.016 C 18.555 164.640,16.506 165.825,15.072 166.649 L 12.465 168.146 12.463 199.926 L 12.461 231.706 14.836 233.088 C 16.143 233.849,17.773 234.801,18.458 235.203 C 19.143 235.606,20.019 236.113,20.405 236.329 C 21.045 236.688,22.674 237.629,30.452 242.130 C 31.908 242.973,33.415 243.836,33.801 244.048 C 34.186 244.261,34.572 244.486,34.657 244.549 C 35.113 244.885,41.435 248.442,41.577 248.442 C 41.695 248.442,41.755 240.607,41.783 221.725 L 41.822 195.008 68.146 221.335 C 82.625 235.815,94.569 247.663,94.688 247.663 C 94.875 247.663,103.251 242.904,106.656 240.862 C 107.276 240.491,107.812 240.187,107.847 240.187 C 107.883 240.187,108.357 239.917,108.902 239.586 C 109.446 239.256,111.293 238.180,113.006 237.195 C 114.720 236.210,117.068 234.856,118.224 234.186 C 119.381 233.516,120.783 232.715,121.340 232.407 L 122.352 231.847 122.391 199.983 L 122.431 168.120 119.977 166.707 C 118.628 165.929,116.227 164.543,114.642 163.625 C 113.057 162.708,111.550 161.836,111.293 161.687 C 111.036 161.538,108.758 160.225,106.231 158.769 C 103.703 157.314,99.798 155.060,97.552 153.762 C 93.404 151.365,93.305 151.313,93.299 151.519 M145.080 165.096 C 145.045 165.132,145.016 173.982,145.016 184.764 L 145.016 204.367 148.715 204.325 L 152.414 204.283 152.492 189.985 L 152.570 175.686 155.598 178.847 C 158.325 181.694,162.031 185.562,167.135 190.887 C 168.120 191.916,169.172 193.017,169.471 193.335 C 169.771 193.653,172.259 196.262,175.000 199.133 L 179.984 204.352 183.840 204.357 L 187.696 204.361 187.656 184.696 L 187.617 165.031 186.994 165.054 C 186.651 165.067,184.986 165.084,183.294 165.093 L 180.218 165.109 180.218 179.128 C 180.218 186.838,180.159 193.146,180.086 193.146 C 180.013 193.146,179.022 192.148,177.882 190.927 C 176.742 189.706,175.169 188.041,174.386 187.227 C 173.603 186.414,171.041 183.715,168.691 181.231 C 166.342 178.746,163.816 176.083,163.077 175.312 C 162.339 174.540,161.110 173.246,160.346 172.435 C 157.565 169.485,155.970 167.809,154.673 166.476 L 153.349 165.115 149.247 165.073 C 146.991 165.050,145.116 165.060,145.080 165.096 M194.613 165.096 C 194.577 165.132,194.548 173.982,194.548 184.764 L 194.548 204.367 198.403 204.325 L 202.259 204.283 202.298 184.769 C 202.331 168.644,202.302 165.242,202.130 165.176 C 201.880 165.080,194.705 165.004,194.613 165.096 M209.332 165.204 C 209.246 165.307,209.205 173.161,209.228 184.830 L 209.268 204.283 213.201 204.325 L 217.134 204.367 217.134 201.964 L 217.134 199.562 220.678 196.372 C 222.627 194.618,224.361 193.052,224.533 192.892 C 225.500 191.989,228.701 189.170,228.790 189.142 C 228.847 189.124,232.364 192.540,236.604 196.733 L 244.315 204.356 249.727 204.359 C 252.704 204.360,255.140 204.301,255.140 204.228 C 255.140 204.083,254.906 203.856,247.351 196.659 C 244.567 194.008,240.783 190.391,238.941 188.622 C 237.099 186.853,235.329 185.177,235.008 184.898 C 234.277 184.264,234.279 184.106,235.022 183.462 C 235.351 183.177,239.255 179.685,243.698 175.701 C 248.141 171.717,252.551 167.769,253.497 166.926 C 254.444 166.084,255.218 165.327,255.218 165.244 C 255.218 165.151,253.145 165.092,249.733 165.089 L 244.248 165.084 239.141 169.726 C 236.332 172.279,233.298 175.034,232.399 175.848 C 231.499 176.662,230.728 177.366,230.685 177.412 C 230.643 177.458,229.521 178.478,228.193 179.680 C 226.865 180.882,223.874 183.597,221.547 185.715 C 219.219 187.832,217.274 189.564,217.225 189.564 C 217.176 189.564,217.118 184.057,217.096 177.326 L 217.056 165.088 213.266 165.059 C 210.652 165.040,209.431 165.085,209.332 165.204 M309.254 165.111 L 308.801 165.190 308.801 184.737 L 308.801 204.283 327.414 204.283 L 346.028 204.283 346.028 200.467 L 346.028 196.651 331.308 196.573 L 316.589 196.495 316.549 180.808 L 316.509 165.121 313.109 165.076 C 311.238 165.051,309.504 165.067,309.254 165.111 M370.327 165.187 C 370.152 165.332,369.891 165.788,368.498 168.380 C 368.198 168.937,367.184 170.794,366.244 172.508 C 365.304 174.221,364.269 176.114,363.942 176.713 C 363.616 177.313,362.844 178.715,362.226 179.829 C 361.609 180.942,360.857 182.309,360.555 182.866 C 360.254 183.423,358.585 186.472,356.847 189.642 C 350.142 201.868,348.911 204.132,348.911 204.245 C 348.910 204.309,350.893 204.361,353.316 204.361 L 357.723 204.361 358.140 203.544 C 358.369 203.094,358.896 202.095,359.312 201.324 C 359.727 200.553,360.493 199.116,361.013 198.131 C 362.723 194.892,363.199 193.995,365.768 189.174 C 366.407 187.975,367.300 186.293,367.752 185.436 C 368.203 184.579,368.837 183.388,369.160 182.788 C 369.974 181.275,370.559 180.176,372.577 176.363 C 373.540 174.542,374.384 173.087,374.453 173.129 C 374.521 173.172,375.382 174.731,376.367 176.595 C 378.951 181.488,379.399 182.334,380.140 183.723 C 381.404 186.095,382.048 187.313,382.943 189.019 C 383.436 189.961,384.033 191.083,384.267 191.511 C 384.701 192.304,385.382 193.587,386.996 196.651 C 387.493 197.593,388.122 198.785,388.396 199.299 C 388.669 199.813,389.335 201.075,389.875 202.103 C 390.416 203.131,390.926 204.060,391.009 204.167 C 391.186 204.395,399.844 204.455,399.844 204.228 C 399.844 204.154,399.309 203.121,398.655 201.930 C 398.001 200.740,397.186 199.241,396.844 198.598 C 396.502 197.956,396.097 197.220,395.944 196.963 C 395.792 196.706,395.497 196.180,395.289 195.794 C 395.081 195.409,394.295 193.972,393.542 192.601 C 392.789 191.231,391.928 189.653,391.627 189.097 C 391.327 188.540,390.818 187.629,390.496 187.072 C 389.635 185.584,387.383 181.466,387.383 181.379 C 387.383 181.338,386.866 180.377,386.234 179.243 C 385.157 177.309,382.241 171.991,380.918 169.548 C 380.058 167.959,378.827 165.745,378.617 165.409 C 378.408 165.074,370.709 164.867,370.327 165.187 M264.330 165.420 C 260.497 166.148,258.352 167.957,257.405 171.262 C 256.666 173.840,256.336 190.625,256.931 195.426 C 257.645 201.198,259.968 203.565,265.548 204.204 C 267.387 204.415,291.139 204.411,293.114 204.200 C 298.863 203.585,301.350 200.844,301.872 194.548 C 302.064 192.223,302.064 177.247,301.872 174.922 C 301.370 168.870,299.199 166.243,293.964 165.354 C 291.654 164.961,266.448 165.017,264.330 165.420 M291.975 173.190 C 294.113 173.909,294.159 174.156,294.159 184.891 L 294.159 193.847 293.787 194.671 C 292.931 196.566,292.601 196.605,278.317 196.534 C 266.371 196.475,266.630 196.495,265.593 195.557 C 264.511 194.580,264.486 194.334,264.488 184.776 C 264.490 174.114,264.553 173.830,267.066 173.134 C 268.176 172.827,291.047 172.878,291.975 173.190 M287.536 213.947 C 278.599 215.376,278.032 232.201,286.843 234.496 C 292.649 236.009,297.134 231.520,297.110 224.221 C 297.087 217.205,293.206 213.040,287.536 213.947 M174.707 214.036 C 166.640 215.930,165.988 231.002,173.832 234.257 C 179.995 236.813,185.792 230.728,184.910 222.626 C 184.239 216.456,179.913 212.814,174.707 214.036 M215.576 213.962 C 206.782 215.663,206.655 232.547,215.421 234.566 C 221.131 235.881,225.545 231.371,225.545 224.221 C 225.545 217.257,221.273 212.860,215.576 213.962 M267.913 213.962 C 260.228 215.448,258.437 229.106,265.343 233.563 C 268.189 235.400,272.302 235.034,274.754 232.726 L 275.599 231.931 275.233 231.542 C 274.775 231.053,274.710 231.056,274.184 231.584 C 271.122 234.660,265.913 233.885,263.868 230.048 C 262.205 226.927,262.145 221.944,263.733 218.795 C 265.589 215.115,270.228 213.971,273.405 216.409 C 274.283 217.083,274.292 217.085,274.678 216.556 L 274.978 216.144 274.307 215.549 C 272.779 214.193,270.125 213.534,267.913 213.962 M145.087 214.369 C 145.046 214.476,145.031 219.015,145.053 224.455 L 145.093 234.346 145.685 234.346 L 146.276 234.346 146.265 225.082 C 146.255 216.112,146.298 215.283,146.704 216.667 C 146.792 216.967,147.109 217.878,147.407 218.692 C 147.706 219.505,148.239 220.977,148.591 221.963 C 148.943 222.948,149.913 225.646,150.746 227.960 L 152.262 232.165 152.879 232.165 L 153.496 232.165 154.007 230.763 C 154.288 229.992,154.651 229.011,154.813 228.583 C 154.976 228.154,155.534 226.612,156.052 225.156 C 156.571 223.699,157.177 222.017,157.398 221.417 C 157.619 220.818,158.105 219.451,158.479 218.380 C 158.852 217.309,159.221 216.270,159.298 216.071 C 159.385 215.849,159.436 219.319,159.431 225.027 L 159.424 234.346 160.086 234.394 L 160.748 234.442 160.748 224.308 L 160.748 214.174 159.755 214.174 L 158.763 214.174 158.340 215.382 C 158.107 216.046,157.506 217.745,157.003 219.159 C 156.501 220.572,155.693 222.850,155.208 224.221 C 154.204 227.062,153.148 230.037,153.031 230.357 C 152.912 230.684,152.877 230.609,152.047 228.265 C 151.624 227.069,150.948 225.179,150.545 224.065 C 150.142 222.952,149.718 221.760,149.604 221.417 C 149.318 220.564,148.238 217.533,147.563 215.693 L 147.006 214.174 146.084 214.174 C 145.490 214.174,145.135 214.244,145.087 214.369 M189.807 214.314 C 189.760 214.391,189.765 214.671,189.818 214.937 L 189.914 215.421 193.088 215.421 L 196.262 215.421 196.262 224.922 L 196.262 234.424 196.963 234.424 L 197.664 234.424 197.664 224.922 L 197.664 215.421 200.845 215.421 C 204.311 215.421,204.241 215.440,204.077 214.525 L 204.014 214.174 196.954 214.174 C 192.954 214.174,189.856 214.235,189.807 214.314 M233.178 224.293 L 233.178 234.442 233.840 234.394 L 234.502 234.346 234.543 229.712 L 234.584 225.078 236.660 225.078 C 238.731 225.078,239.252 225.216,239.252 225.763 C 239.252 225.827,239.463 226.184,239.720 226.558 C 239.977 226.931,240.187 227.272,240.187 227.314 C 240.187 227.356,241.028 228.806,242.056 230.536 C 243.084 232.266,243.925 233.732,243.925 233.794 C 243.925 234.101,244.551 234.424,245.145 234.424 C 245.967 234.424,245.963 234.385,244.963 232.748 C 242.538 228.780,240.493 225.178,240.605 225.074 C 240.675 225.010,241.153 224.839,241.667 224.695 C 246.776 223.262,247.010 216.160,242.002 214.541 C 241.367 214.336,240.362 214.267,237.188 214.213 L 233.178 214.144 233.178 224.293 M304.747 214.369 C 304.707 214.476,304.692 219.015,304.713 224.455 L 304.751 234.346 305.374 234.346 L 305.997 234.346 305.997 225.028 C 305.997 216.989,306.026 215.781,306.210 216.227 C 306.328 216.512,306.702 217.516,307.042 218.458 C 308.041 221.229,309.209 224.502,309.349 224.922 C 309.486 225.334,310.182 227.244,311.136 229.829 C 311.452 230.685,311.761 231.562,311.824 231.776 C 311.917 232.097,312.048 232.173,312.571 232.212 L 313.206 232.259 313.519 231.355 C 313.692 230.858,314.113 229.681,314.456 228.738 C 315.913 224.732,317.978 218.969,318.469 217.539 C 318.760 216.690,319.036 215.959,319.081 215.914 C 319.126 215.868,319.162 219.927,319.159 224.933 C 319.156 229.939,319.155 234.122,319.156 234.229 C 319.158 234.352,319.389 234.424,319.782 234.424 L 320.405 234.424 320.428 227.298 C 320.449 220.953,320.445 217.614,320.415 214.985 L 320.405 214.160 319.438 214.206 L 318.472 214.252 318.124 215.187 C 317.933 215.701,317.344 217.348,316.817 218.847 C 316.290 220.347,315.346 223.010,314.719 224.766 C 314.093 226.523,313.409 228.482,313.199 229.120 C 312.706 230.623,312.592 230.628,312.082 229.172 C 311.848 228.505,311.560 227.714,311.442 227.414 C 311.324 227.114,310.797 225.643,310.272 224.143 C 308.750 219.803,307.008 214.906,306.850 214.525 C 306.681 214.117,304.889 213.985,304.747 214.369 M329.355 214.369 C 329.314 214.476,329.299 219.015,329.321 224.455 L 329.361 234.346 330.021 234.394 L 330.680 234.441 330.722 230.110 L 330.763 225.779 333.879 225.686 C 337.793 225.569,338.716 225.348,340.158 224.182 C 343.057 221.839,342.586 216.500,339.346 214.977 C 337.766 214.234,329.597 213.737,329.355 214.369 M352.045 214.516 C 351.971 214.714,351.509 216.032,351.018 217.445 C 349.938 220.556,349.001 223.223,348.691 224.065 C 348.346 225.007,346.632 229.881,345.857 232.126 C 345.019 234.554,345.020 234.453,345.833 234.394 C 346.435 234.350,346.512 234.296,346.679 233.801 C 346.779 233.501,347.430 231.608,348.125 229.595 C 350.209 223.555,352.648 216.210,352.648 215.973 C 352.648 215.672,352.945 215.506,353.027 215.761 C 353.064 215.874,353.352 216.807,353.668 217.835 C 354.371 220.124,354.914 221.759,356.540 226.480 C 357.233 228.493,358.051 230.911,358.358 231.854 C 359.160 234.319,359.226 234.424,359.973 234.424 C 360.824 234.424,360.915 234.864,358.874 229.128 C 358.432 227.886,358.013 226.694,357.944 226.480 C 357.874 226.266,357.490 225.179,357.089 224.065 C 356.689 222.952,356.267 221.760,356.152 221.417 C 355.790 220.336,354.549 216.795,354.079 215.498 L 353.627 214.252 352.903 214.205 C 352.268 214.163,352.163 214.201,352.045 214.516 M366.860 224.260 L 366.900 234.346 367.523 234.346 L 368.146 234.346 368.187 228.410 C 368.210 225.145,368.168 221.115,368.095 219.453 C 367.937 215.854,367.954 215.815,368.929 217.560 C 369.348 218.311,370.842 220.853,372.249 223.209 C 373.656 225.565,374.977 227.792,375.184 228.158 C 375.777 229.210,378.469 233.685,378.741 234.073 C 378.933 234.347,379.137 234.424,379.680 234.424 L 380.374 234.424 380.374 224.299 L 380.374 214.174 379.742 214.174 L 379.110 214.174 379.128 223.170 C 379.138 228.117,379.141 232.235,379.134 232.321 C 379.128 232.407,378.923 232.126,378.681 231.698 C 377.527 229.663,376.411 227.743,375.579 226.360 C 374.544 224.641,372.999 222.047,370.314 217.523 C 368.228 214.008,368.374 214.180,367.483 214.177 L 366.820 214.174 366.860 224.260 M386.449 214.317 C 386.449 214.396,387.141 215.815,387.987 217.472 C 388.833 219.128,390.148 221.710,390.908 223.209 L 392.290 225.935 392.368 230.140 L 392.445 234.346 393.107 234.394 L 393.769 234.442 393.769 230.371 L 393.769 226.300 396.729 220.429 C 400.038 213.866,399.922 214.174,399.066 214.174 L 398.444 214.174 397.687 215.771 C 395.793 219.768,393.255 224.766,393.120 224.766 C 392.987 224.766,390.470 219.734,388.580 215.690 L 387.872 214.174 387.160 214.174 C 386.769 214.174,386.449 214.239,386.449 214.317 M179.204 215.633 C 183.223 217.473,184.812 224.619,182.327 229.673 C 180.655 233.071,177.269 234.388,174.062 232.887 C 168.634 230.347,168.261 218.994,173.504 215.921 C 175.080 214.998,177.544 214.873,179.204 215.633 M218.723 215.284 C 225.347 216.688,226.154 229.779,219.808 232.903 C 216.839 234.365,213.113 232.935,211.563 229.740 C 209.613 225.718,210.225 219.585,212.839 216.965 C 214.438 215.363,216.422 214.796,218.723 215.284 M290.833 215.418 C 297.070 217.365,297.561 229.899,291.516 232.875 C 286.529 235.330,282.165 231.256,282.165 224.143 C 282.165 217.553,285.835 213.858,290.833 215.418 M241.300 215.673 C 243.214 216.210,243.991 217.303,243.998 219.470 C 244.009 222.809,242.535 223.801,237.344 223.952 L 234.579 224.032 234.579 219.726 L 234.579 215.421 237.490 215.421 C 239.699 215.421,240.617 215.481,241.300 215.673 M338.192 215.864 C 341.623 217.221,341.434 222.650,337.906 224.055 C 337.266 224.310,336.650 224.366,333.917 224.419 L 330.685 224.482 330.685 220.055 C 330.685 217.620,330.738 215.576,330.802 215.511 C 331.105 215.209,337.279 215.503,338.192 215.864 " stroke="none" fill-rule="evenodd"></path></g></svg>