<?xml version="1.0" encoding="UTF-8" standalone="no"?>
<svg
   
   
   
   
   xmlns="http://www.w3.org/2000/svg"
   version="1.1"
   viewBox="0, 0, 400,400"
   height="400"
   width="400"
   id="svg">
  <metadata
     id="metadata9">
    
  </metadata>
  <defs
     id="defs7" />
  <g
     id="svgg">
    <path
       style="fill-rule:evenodd;stroke:none;stroke-width:2.55866385"
       d="m 197.08315,3.1061839 c -1.73733,0.9953287 -4.12969,2.3565387 -5.31435,3.0243421 -1.18466,0.6652593 -3.76123,2.17487 -5.72885,3.3569663 -1.96761,1.1795517 -3.64097,2.1441677 -3.7203,2.1441677 -0.0793,0 -1.95482,1.077194 -4.17062,2.392351 -2.2158,1.315146 -4.09642,2.389785 -4.18341,2.389785 -0.0844,0 -1.27934,0.688286 -2.65333,1.524972 -1.37401,0.839242 -4.6491,2.755677 -7.2794,4.257612 -2.63032,1.501936 -8.63806,4.96637 -13.35111,7.696466 -4.71306,2.73265 -9.10629,5.273401 -9.76387,5.646969 -0.65757,0.373557 -4.69258,2.699382 -8.9681,5.168499 -4.27553,2.466551 -11.35791,6.550181 -15.74346,9.070461 -12.01549,6.908397 -13.42276,7.727167 -15.03472,8.742956 -0.81877,0.514293 -1.576132,0.936469 -1.6836,0.936469 -0.107479,0 -1.678483,0.875064 -3.495126,1.947148 -1.814098,1.069518 -3.92755,2.302789 -4.695149,2.740326 -0.767599,0.437527 -3.635861,2.100659 -6.37619,3.694711 -2.74033,1.594042 -9.55661,5.531826 -15.144732,8.750633 -5.59068,3.218796 -12.378815,7.138663 -15.08844,8.707134 -2.707066,1.571015 -4.971484,2.855459 -5.027774,2.855459 -0.05629,0 -2.200452,1.253752 -4.764233,2.788944 -2.563781,1.535204 -4.743762,2.788946 -4.846109,2.788946 -0.09979,0 -1.926673,1.049058 -4.05804,2.330946 -2.133926,1.281889 -4.910077,2.909199 -6.171497,3.617946 l -2.292564,1.287007 0.0051,99.13543 c 0.0026,78.38212 0.107468,99.26337 0.49894,99.74184 0.271218,0.33263 1.929232,1.42262 3.684476,2.42049 3.630744,2.0674 19.617275,11.29906 20.523042,11.85173 0.330068,0.20214 4.185974,2.42306 8.568965,4.93567 9.385179,5.38342 15.536206,8.92718 22.917952,13.21294 2.957815,1.71686 7.62226,4.40858 10.360027,5.97704 2.740326,1.57101 10.812912,6.22523 17.936222,10.34212 7.12332,4.11945 16.98697,9.81759 21.92007,12.66538 4.93055,2.8478 9.95321,5.76212 11.15834,6.47597 1.20512,0.71132 3.0883,1.78851 4.18597,2.3898 1.09511,0.60129 3.60516,2.04182 5.57789,3.20345 4.48534,2.63798 23.81604,13.81167 35.60892,20.58445 10.38562,5.96424 9.38263,5.78514 14.76605,2.66613 2.32327,-1.34586 6.91606,-4.00943 10.20395,-5.91564 3.28789,-1.90876 11.27091,-6.51179 17.73666,-10.23465 6.46574,-3.72029 12.98522,-7.5148 14.48716,-8.43079 1.50193,-0.91601 2.7915,-1.6657 2.8657,-1.6657 0.11769,0 13.83213,-7.81672 15.32639,-8.73527 0.33007,-0.20214 4.63375,-2.69684 9.56685,-5.54207 4.93055,-2.84524 12.28414,-7.10029 16.33963,-9.45682 4.05548,-2.35653 8.00094,-4.6363 8.76854,-5.06615 0.76759,-0.42986 6.05636,-3.48491 11.75705,-6.7907 5.69815,-3.30579 11.52678,-6.66276 12.95196,-7.46106 1.42517,-0.79831 3.48747,-1.95227 4.58257,-2.56634 1.09767,-0.61409 2.27721,-1.36121 2.62263,-1.66058 0.34542,-0.29936 0.7369,-0.54499 0.86995,-0.54499 0.13049,0 2.8964,-1.54544 6.14591,-3.43117 3.24694,-1.88573 8.41544,-4.86913 11.48584,-6.6295 3.06784,-1.76292 6.83419,-3.94546 8.36939,-4.85123 1.5352,-0.90832 3.23671,-1.87806 3.78682,-2.15951 0.54755,-0.27889 2.8785,-1.62731 5.1813,-2.99364 l 4.18341,-2.4819 V 200.3715 c 0,-98.52136 -0.008,-99.5832 -0.78295,-100.01817 -0.42986,-0.24308 -1.41495,-0.818772 -2.19022,-1.276782 -2.44864,-1.448195 -18.40446,-10.664503 -40.60088,-23.450146 -1.16931,-0.672935 -2.42817,-1.402153 -2.79662,-1.6222 -0.371,-0.21748 -2.19533,-1.276768 -4.05291,-2.348852 -1.86016,-1.074639 -5.44229,-3.152271 -7.96257,-4.620949 -2.52028,-1.466113 -5.3911,-3.116449 -6.37619,-3.666564 -0.98764,-0.550116 -5.29132,-3.026897 -9.56684,-5.503679 -4.27297,-2.476792 -9.65384,-5.575334 -11.95664,-6.88537 -2.30024,-1.312592 -5.48066,-3.167623 -7.06703,-4.127129 -1.58382,-0.95694 -2.96805,-1.742442 -3.07296,-1.742442 -0.10489,0 -1.83456,-0.985087 -3.84311,-2.190221 -2.01111,-1.207689 -3.69726,-2.192776 -3.751,-2.192776 -0.0537,0 -2.13649,-1.187217 -4.63118,-2.637978 -2.4947,-1.453327 -8.75064,-5.063597 -13.90122,-8.026535 -5.15059,-2.965482 -10.66451,-6.171492 -12.24832,-7.125878 -1.58638,-0.95694 -2.97829,-1.737332 -3.09599,-1.737332 -0.1177,0 -0.88529,-0.422176 -1.70151,-0.939024 C 231.35642,19.305088 224.84719,15.52338 210.66194,7.3561313 206.27896,4.833286 202.1416,2.4358148 201.46611,2.0315451 l -1.22304,-0.7394489 -3.15995,1.8140877 m 5.20944,10.4470321 c 1.09767,0.61152 4.95357,2.824757 8.56897,4.920306 11.81079,6.841872 25.6506,14.804426 28.29626,16.275659 1.42517,0.793189 3.82009,2.192776 5.32202,3.111339 1.50194,0.918563 2.79406,1.670808 2.87082,1.670808 0.0794,0 1.09255,0.562901 2.25163,1.251186 2.6866,1.596608 9.85085,5.759548 18.25094,10.608219 3.61796,2.087873 8.90927,5.142918 11.75706,6.790699 2.85036,1.64777 5.93354,3.415815 6.8521,3.930108 0.91857,0.511727 3.69728,2.121131 6.17662,3.577013 2.47934,1.455871 5.22479,3.052478 6.10241,3.548865 0.87763,0.496376 3.74588,2.141602 6.3762,3.658888 2.6303,1.514721 9.71523,5.590675 15.74345,9.057665 6.02821,3.466989 13.65047,7.867892 16.93836,9.784328 3.28788,1.913881 9.65383,5.583011 14.14684,8.154464 4.49558,2.568897 8.84275,5.107097 9.66664,5.636737 l 1.49426,0.96717 v 94.06161 94.0616 l -0.89809,0.38635 c -0.49382,0.21493 -1.24863,0.61409 -1.67848,0.88786 -1.38936,0.88785 -3.39791,2.05461 -15.75626,9.15491 -6.68578,3.84311 -15.02702,8.64316 -18.5324,10.67217 -3.50792,2.02647 -6.91606,3.99664 -7.57364,4.37532 -1.44309,0.83157 -17.13026,9.90203 -25.7069,14.86584 -3.3979,1.96761 -6.72673,3.88917 -7.3971,4.27552 -0.67292,0.3838 -3.63074,2.09555 -6.57576,3.80218 -11.28115,6.53483 -15.33407,8.87089 -28.47025,16.42151 -7.45339,4.2832 -14.69185,8.47941 -16.08377,9.32633 -1.39191,0.84435 -2.60472,1.53519 -2.69682,1.53519 -0.0896,0 -1.46356,0.77784 -3.04737,1.72966 -1.58638,0.95183 -7.27685,4.25505 -12.64749,7.34081 -5.37062,3.08575 -11.01759,6.34292 -12.54768,7.23846 -3.5591,2.07763 -2.78126,2.24395 -10.49564,-2.21836 -3.65633,-2.11602 -7.18728,-4.15528 -7.84486,-4.53395 -0.65757,-0.37869 -5.31946,-3.06784 -10.36003,-5.97704 -5.04312,-2.91177 -9.70501,-5.60092 -10.36259,-5.97704 -3.96081,-2.2721 -22.71837,-13.10292 -26.90179,-15.53621 -2.74033,-1.59405 -7.31521,-4.24226 -10.16301,-5.88493 -2.85035,-1.64266 -5.72117,-3.29555 -6.37875,-3.6768 -0.65757,-0.37867 -5.40901,-3.11389 -10.5596,-6.07683 -9.87645,-5.68279 -21.961005,-12.65515 -28.296257,-16.33194 -2.082752,-1.20769 -8.346361,-4.841 -13.921689,-8.07514 -5.57277,-3.23416 -14.090562,-8.15703 -18.928996,-10.94086 -4.838433,-2.78382 -9.561726,-5.54462 -10.49308,-6.13567 l -1.693835,-1.0772 0.09979,-93.93879 0.09979,-93.93878 5.780021,-3.33905 c 12.990337,-7.502001 17.17887,-9.917389 22.11965,-12.752388 2.847793,-1.634985 6.672995,-3.845666 8.497322,-4.91263 1.826887,-1.066963 3.469548,-1.936907 3.653773,-1.936907 0.184223,0 0.396592,-0.145846 0.468235,-0.324949 0.0742,-0.179113 1.120694,-0.867388 2.325825,-1.530082 2.341177,-1.289564 12.798436,-7.333128 18.245831,-10.546814 1.81409,-1.069518 3.36976,-1.947148 3.45419,-1.947148 0.0844,0 2.09555,-1.136044 4.46999,-2.527956 5.76211,-3.372317 19.01343,-11.053431 21.25738,-12.319969 0.98509,-0.55778 3.94546,-2.256735 6.57577,-3.779142 2.63029,-1.519852 8.99625,-5.196646 14.14684,-8.169815 5.15315,-2.973168 12.6833,-7.328018 16.73878,-9.679425 4.05548,-2.351407 9.43635,-5.44484 11.95663,-6.877685 2.52029,-1.4303 5.70071,-3.290441 7.06448,-4.134803 1.36633,-0.841797 2.56122,-1.532638 2.66101,-1.532638 0.0972,0 3.10366,-1.704075 6.67811,-3.784262 3.57445,-2.082753 6.59368,-3.784274 6.70626,-3.779153 0.11258,0.0022 1.10279,0.506617 2.19789,1.115582 m 63.95893,62.94313 c -0.005,0.163751 0,30.194794 0.008,66.737624 0.008,36.54029 -0.1023,67.18283 -0.24819,68.09372 l -0.2661,1.6529 -67.47708,-67.47708 -67.47964,-67.477082 -1.31259,0.665248 c -0.72155,0.365893 -2.20813,1.184662 -3.3058,1.819209 -1.0951,0.637112 -4.86146,2.822212 -8.36939,4.856346 -3.50537,2.0367 -7.18216,4.15271 -8.16982,4.702826 -0.98507,0.550115 -2.42048,1.386791 -3.18809,1.862706 -0.7676,0.473351 -1.66313,0.985089 -1.99319,1.136045 -0.32752,0.1484 -1.14884,0.608964 -1.82433,1.02091 -1.31771,0.800864 -13.021043,7.568522 -17.304246,10.004372 -1.425176,0.8111 -4.833316,2.78127 -7.573645,4.37788 -2.740328,1.59661 -7.983031,4.62862 -11.652155,6.73696 l -6.670437,3.83031 -0.0051,81.31434 -0.0051,81.31434 6.076827,3.53608 c 3.344173,1.94714 7.514795,4.38299 9.26748,5.41157 1.752684,1.03114 3.994074,2.32838 4.981718,2.88105 1.637546,0.91856 5.805608,3.32627 25.706898,14.84282 3.72541,2.15695 7.58132,4.36508 8.56896,4.90751 0.98509,0.54499 1.97273,1.1207 2.19021,1.28189 1.16676,0.85971 17.34262,9.96088 17.70596,9.96088 0.30192,0 0.45545,-20.04713 0.52708,-68.35982 l 0.0998,-68.35982 67.35426,67.36194 c 37.04689,37.04945 67.60758,67.3645 67.91205,67.3645 0.47847,0 21.90985,-12.17668 30.62209,-17.40147 1.58638,-0.94927 2.95782,-1.7271 3.04737,-1.7271 0.0922,0 1.30492,-0.69084 2.69939,-1.53776 1.39191,-0.84435 6.11777,-3.59747 10.50076,-6.11777 4.38555,-2.52028 10.3933,-5.98471 13.35111,-7.69902 2.96037,-1.7143 6.54762,-3.76379 7.9728,-4.55185 l 2.58936,-1.43286 0.0998,-81.52926 0.10231,-81.52671 -6.27896,-3.61539 c -3.45164,-1.99064 -9.595,-5.53695 -13.65048,-7.8858 -4.05548,-2.3463 -7.91138,-4.57745 -8.56897,-4.95869 -0.65757,-0.38125 -6.48621,-3.740769 -12.95195,-7.466182 -6.4683,-3.72286 -16.45988,-9.490082 -22.20664,-12.811237 -10.61334,-6.133115 -10.86664,-6.266164 -10.88199,-5.739075"
       id="path0" />
  </g>
</svg>
