<svg id="svg" version="1.1" xmlns="http://www.w3.org/2000/svg"  width="400" height="400" viewBox="0, 0, 400,400"><g id="svgg"><path id="path0" d="M375.579 212.808 C 371.743 213.274,370.842 214.248,370.601 218.191 C 370.433 220.950,370.928 223.105,371.969 224.147 L 372.796 224.973 371.718 225.833 C 370.590 226.732,370.343 228.197,370.931 230.493 C 371.461 232.559,372.654 232.800,382.358 232.800 C 393.376 232.800,393.324 232.824,393.530 227.535 C 393.789 220.870,392.704 219.919,384.888 219.961 C 379.155 219.993,377.145 219.519,378.250 218.397 C 379.172 217.461,385.415 217.690,386.492 218.700 C 387.525 219.669,392.081 220.040,392.601 219.198 C 393.602 217.578,392.409 213.879,390.679 213.239 C 389.477 212.794,378.320 212.476,375.579 212.808 M219.029 213.429 C 216.964 215.493,218.674 218.400,221.952 218.400 C 225.751 218.400,225.800 218.493,225.800 225.668 C 225.800 233.012,225.700 232.800,229.181 232.800 C 232.554 232.800,232.400 233.144,232.400 225.616 C 232.400 218.294,232.166 218.588,238.118 218.420 C 238.513 218.409,239.267 217.970,239.792 217.444 C 241.130 216.107,241.200 216.473,241.200 224.753 C 241.200 232.956,241.133 232.800,244.656 232.800 C 247.431 232.800,247.662 232.620,247.986 230.200 L 248.200 228.600 251.800 228.340 C 256.150 228.026,256.911 228.367,257.437 230.867 L 257.801 232.600 260.638 232.716 C 264.308 232.867,264.505 232.642,263.911 228.981 C 263.435 226.054,263.428 225.451,263.805 220.000 C 264.266 213.329,263.452 212.876,250.912 212.831 L 242.424 212.800 241.526 214.014 C 240.675 215.166,240.613 215.186,240.325 214.409 C 239.810 213.016,238.262 212.800,228.803 212.800 C 221.022 212.800,219.563 212.894,219.029 213.429 M275.122 213.071 C 274.750 213.170,274.210 213.809,273.922 214.492 C 273.635 215.175,273.009 216.468,272.530 217.367 C 272.052 218.265,270.570 221.160,269.237 223.800 C 267.905 226.440,266.630 228.818,266.405 229.085 C 264.257 231.633,264.896 232.800,268.439 232.800 C 271.150 232.800,271.386 232.725,272.853 231.400 L 274.402 230.000 278.621 230.000 L 282.840 230.000 284.298 231.416 C 286.042 233.110,291.232 233.433,291.531 231.867 C 291.710 230.932,283.731 214.899,282.490 213.700 C 281.582 212.822,277.415 212.467,275.122 213.071 M294.093 213.215 L 293.185 213.580 293.293 223.090 L 293.400 232.600 296.288 232.717 C 299.893 232.864,299.682 233.545,299.523 222.267 C 299.421 215.065,299.297 213.505,298.800 213.191 C 298.049 212.717,295.298 212.731,294.093 213.215 M303.600 213.600 C 302.612 214.588,302.349 230.831,303.301 232.132 C 303.751 232.747,304.669 232.806,312.401 232.708 L 321.000 232.600 321.125 230.621 C 321.316 227.602,320.599 227.220,314.724 227.209 C 309.041 227.198,309.440 227.728,309.418 220.168 C 309.405 215.656,309.261 213.957,308.851 213.462 C 308.030 212.472,304.639 212.561,303.600 213.600 M323.469 213.300 C 322.851 213.752,322.795 214.717,322.892 223.200 L 323.000 232.600 332.772 232.707 C 343.595 232.826,343.184 232.927,343.194 230.146 C 343.201 228.140,341.959 227.106,339.671 227.210 C 333.712 227.483,329.544 227.188,329.676 226.503 C 329.857 225.560,331.328 225.303,336.886 225.247 C 342.118 225.194,342.739 224.855,342.190 222.353 C 341.823 220.684,340.781 220.400,335.023 220.400 C 331.271 220.400,329.986 220.266,329.630 219.836 C 328.865 218.914,329.634 218.754,336.013 218.509 C 342.687 218.252,342.982 218.129,342.982 215.600 C 342.982 212.805,342.964 212.800,333.027 212.800 C 326.557 212.800,323.968 212.936,323.469 213.300 M346.229 213.429 C 345.504 214.153,345.453 215.043,345.562 225.000 C 345.653 233.308,345.458 232.875,349.040 232.720 L 351.800 232.600 352.035 230.843 C 352.379 228.260,353.105 227.877,357.139 228.145 C 360.772 228.386,361.600 228.782,361.600 230.275 C 361.600 232.330,362.221 232.800,364.934 232.800 C 368.533 232.800,369.239 231.315,367.843 226.675 C 367.359 225.069,367.365 224.597,367.885 223.112 C 368.474 221.429,368.426 216.716,367.804 215.137 C 366.937 212.935,348.205 211.452,346.229 213.429 M256.174 218.790 C 258.648 219.731,257.267 222.288,254.081 222.665 C 249.681 223.186,247.214 222.025,247.995 219.800 C 248.397 218.654,253.997 217.962,256.174 218.790 M360.400 218.916 C 361.581 219.512,361.855 220.698,361.061 221.784 C 360.424 222.655,353.616 223.000,352.865 222.200 C 350.298 219.464,356.299 216.848,360.400 218.916 M279.586 221.174 C 280.672 223.203,279.601 224.835,277.600 224.200 C 276.603 223.883,276.525 222.166,277.462 221.131 C 278.316 220.188,279.066 220.203,279.586 221.174 M0.665 222.868 C -0.107 223.300,-0.223 225.217,0.480 225.920 C 1.431 226.871,210.107 226.587,210.970 225.633 C 211.681 224.848,211.338 223.428,210.270 222.733 C 209.616 222.308,1.426 222.442,0.665 222.868 M386.237 225.870 C 386.547 225.988,386.800 226.300,386.800 226.563 C 386.800 228.452,379.307 228.736,377.358 226.921 L 376.200 225.842 377.200 225.537 C 378.225 225.224,385.226 225.482,386.237 225.870 " stroke="none" fill="#e4242c" fill-rule="evenodd"></path><path id="path1" d="M0.480 167.280 C -0.465 168.225,-0.182 207.075,0.774 207.586 C 1.754 208.111,10.008 208.129,11.374 207.610 L 12.400 207.220 12.428 196.510 C 12.461 183.859,12.562 183.334,14.331 186.599 C 15.029 187.887,15.600 189.077,15.600 189.242 C 15.600 189.408,15.873 189.816,16.207 190.149 C 16.738 190.681,18.785 194.510,23.893 204.526 C 25.472 207.621,26.092 208.000,29.576 208.000 C 33.901 208.000,34.287 207.804,35.766 204.846 C 37.517 201.344,38.548 199.445,38.832 199.200 C 39.083 198.983,40.224 196.777,42.646 191.822 C 43.501 190.074,44.341 188.454,44.514 188.222 C 44.687 187.990,45.407 186.900,46.114 185.800 L 47.400 183.800 47.600 195.281 C 47.838 208.964,47.248 207.758,53.787 207.932 C 61.124 208.128,60.400 210.380,60.400 187.374 C 60.400 175.023,60.255 168.076,59.986 167.574 C 59.597 166.847,59.068 166.800,51.214 166.800 C 41.528 166.800,42.228 166.524,40.075 171.200 C 39.315 172.850,38.549 174.293,38.373 174.407 C 38.197 174.521,36.941 176.861,35.582 179.607 C 34.223 182.353,32.975 184.690,32.808 184.800 C 32.641 184.910,32.028 185.945,31.446 187.100 C 30.164 189.642,29.863 189.686,28.754 187.500 C 28.280 186.565,27.752 185.709,27.581 185.598 C 27.410 185.487,26.248 183.163,24.999 180.434 C 23.750 177.705,22.446 175.188,22.099 174.842 C 21.753 174.496,21.019 173.220,20.468 172.006 C 19.917 170.793,19.044 169.125,18.528 168.300 L 17.590 166.800 9.275 166.800 C 3.341 166.800,0.823 166.937,0.480 167.280 M112.000 167.772 C 108.208 169.392,106.355 172.020,105.785 176.585 C 105.632 177.809,105.348 178.909,105.153 179.029 C 104.581 179.383,104.749 188.796,105.433 194.697 C 106.328 202.419,107.664 204.772,112.400 206.971 L 114.600 207.992 129.227 207.996 C 149.695 208.002,151.873 207.127,153.234 198.354 C 154.316 191.381,153.824 190.800,146.831 190.800 C 140.815 190.800,140.400 190.946,140.400 193.064 C 140.400 195.962,138.248 196.613,128.788 196.575 C 118.870 196.535,118.415 196.123,118.406 187.159 C 118.399 180.225,118.905 178.921,121.882 178.197 C 122.794 177.975,123.673 177.660,123.836 177.497 C 124.448 176.886,135.394 177.162,136.839 177.825 C 139.251 178.933,139.388 179.047,140.226 180.635 L 141.052 182.200 146.487 182.311 C 152.995 182.444,153.200 182.338,153.200 178.844 C 153.200 173.011,151.350 169.413,147.400 167.566 C 144.641 166.275,115.100 166.448,112.000 167.772 M174.259 167.535 C 173.557 168.311,157.600 199.906,157.600 200.521 C 157.600 200.710,156.970 201.940,156.200 203.254 C 153.705 207.512,154.211 207.972,161.400 207.981 C 167.627 207.990,168.216 207.761,169.644 204.782 C 171.199 201.539,170.625 201.691,181.935 201.537 L 192.070 201.400 192.831 202.400 C 193.249 202.950,193.862 203.684,194.192 204.030 C 194.523 204.377,194.997 205.245,195.246 205.959 C 195.867 207.741,196.825 208.000,202.793 208.000 C 208.869 208.000,209.200 207.911,209.200 206.288 C 209.200 205.133,206.149 198.355,205.500 198.067 C 205.335 197.993,205.200 197.772,205.200 197.574 C 205.200 197.181,200.479 187.456,199.194 185.200 C 198.755 184.430,197.581 181.941,196.585 179.670 C 195.590 177.398,194.584 175.328,194.350 175.070 C 194.116 174.811,193.086 172.890,192.062 170.800 L 190.200 167.000 182.570 166.892 C 175.531 166.792,174.886 166.842,174.259 167.535 M212.428 167.366 C 211.581 168.387,212.027 199.803,212.915 201.710 C 215.528 207.316,218.055 208.008,235.778 207.969 C 259.268 207.917,259.237 207.953,259.078 180.885 C 258.986 165.241,259.713 166.814,252.580 166.806 C 245.774 166.798,246.400 165.503,246.398 179.580 C 246.394 197.232,246.485 197.107,234.139 196.719 C 224.416 196.414,224.805 197.112,224.802 179.980 C 224.801 171.011,224.672 167.632,224.320 167.280 C 223.581 166.541,213.050 166.617,212.428 167.366 M265.629 167.545 C 264.720 169.244,265.066 206.266,266.000 207.200 C 267.053 208.253,300.404 208.470,301.824 207.433 C 302.917 206.635,303.227 198.911,302.228 197.386 L 301.582 196.400 290.381 196.400 L 279.180 196.400 278.784 195.357 C 278.543 194.725,278.423 189.058,278.478 180.975 C 278.528 173.639,278.427 167.493,278.252 167.318 C 277.439 166.501,266.078 166.706,265.629 167.545 M306.199 167.106 C 305.108 167.907,304.715 169.565,304.979 172.258 C 305.409 176.644,305.550 194.783,305.157 195.027 C 304.636 195.349,304.720 197.907,305.257 198.086 C 305.587 198.196,305.597 198.459,305.293 199.026 C 304.761 200.021,304.699 205.090,305.215 205.409 C 305.427 205.540,305.600 205.990,305.600 206.410 C 305.600 206.829,305.948 207.358,306.374 207.586 C 307.549 208.215,345.688 208.152,346.320 207.520 C 346.984 206.856,346.984 197.544,346.320 196.880 C 345.966 196.526,342.320 196.400,332.400 196.400 C 317.849 196.400,318.000 196.423,318.000 194.200 C 318.000 191.989,317.933 192.000,331.306 192.000 C 346.276 192.000,345.200 192.371,345.200 187.214 C 345.200 181.556,346.371 182.000,331.451 182.000 C 318.104 182.000,318.000 181.985,318.000 180.000 C 318.000 178.007,318.052 178.000,332.218 178.000 C 344.554 178.000,345.522 177.949,346.138 177.269 C 346.966 176.354,347.116 168.076,346.320 167.280 C 345.780 166.740,306.928 166.571,306.199 167.106 M349.067 167.067 C 348.438 167.695,348.923 169.097,350.213 170.381 C 350.976 171.140,351.600 171.925,351.600 172.125 C 351.600 172.430,353.038 174.287,355.524 177.189 C 355.811 177.525,356.947 178.970,358.047 180.400 C 359.147 181.830,360.660 183.728,361.409 184.617 C 362.158 185.506,363.272 186.919,363.885 187.757 C 364.498 188.595,365.720 190.096,366.600 191.093 L 368.200 192.904 368.327 199.943 C 368.483 208.605,368.017 208.001,374.549 207.994 C 381.514 207.986,380.961 208.662,381.200 199.861 L 381.400 192.490 383.128 190.545 C 385.821 187.515,393.200 178.060,393.200 177.641 C 393.200 177.434,393.836 176.665,394.614 175.932 C 395.392 175.200,396.512 173.880,397.103 173.000 C 397.694 172.120,398.597 170.880,399.110 170.244 C 399.681 169.536,399.995 168.683,399.921 168.044 L 399.800 167.000 393.257 166.890 L 386.714 166.780 385.457 168.132 C 383.900 169.806,382.541 171.453,379.955 174.800 C 374.196 182.252,374.991 182.221,369.856 175.200 C 367.712 172.269,366.575 170.833,364.259 168.131 L 363.117 166.800 356.225 166.800 C 352.435 166.800,349.213 166.920,349.067 167.067 M71.736 178.383 C 69.691 178.870,67.894 180.120,66.606 181.952 L 65.400 183.666 65.277 192.315 C 65.127 202.929,64.954 202.138,68.182 205.628 C 70.400 208.028,87.988 209.189,94.304 207.352 C 98.140 206.237,100.800 202.251,100.800 197.616 C 100.800 194.556,100.348 194.326,94.641 194.487 L 90.604 194.600 89.886 196.127 C 88.466 199.148,79.675 200.007,76.867 197.400 C 75.429 196.066,75.848 188.780,77.422 187.749 C 79.792 186.196,88.458 187.010,89.224 188.857 C 90.130 191.044,90.512 191.200,94.967 191.200 C 99.883 191.200,100.400 190.872,100.400 187.749 C 100.400 186.655,100.250 185.589,100.067 185.380 C 99.885 185.171,99.522 184.252,99.262 183.337 C 98.658 181.211,96.636 179.420,93.933 178.617 C 91.693 177.952,74.315 177.769,71.736 178.383 M182.843 180.500 C 183.736 181.249,186.929 188.687,186.659 189.390 C 186.415 190.026,180.121 190.290,178.100 189.748 C 177.226 189.514,176.830 188.208,177.549 187.933 C 177.986 187.767,179.999 183.809,180.001 183.113 C 180.007 181.370,181.855 179.671,182.843 180.500 " stroke="none" fill="#040404" fill-rule="evenodd"></path></g></svg>