<svg id="svg" version="1.1" xmlns="http://www.w3.org/2000/svg"  width="400" height="400" viewBox="0, 0, 400,400"><g id="svgg"><path id="path0" d="M0.517 167.328 C 0.130 167.715,-0.000 172.755,-0.000 187.356 C -0.000 210.109,-0.695 207.759,6.034 207.759 C 12.583 207.759,12.068 208.725,12.075 196.429 C 12.081 186.268,12.236 184.052,12.944 184.052 C 13.279 184.052,16.778 190.345,22.588 201.398 C 25.820 207.545,26.058 207.759,29.685 207.759 C 33.124 207.759,34.135 207.308,35.144 205.326 C 35.610 204.412,36.399 202.985,36.896 202.155 C 37.394 201.325,39.507 197.349,41.591 193.319 C 45.573 185.622,46.780 183.621,47.443 183.621 C 47.681 183.621,47.845 188.263,47.845 195.019 C 47.845 208.729,47.361 207.759,54.191 207.759 C 60.945 207.759,60.345 209.759,60.345 187.256 C 60.345 175.136,60.187 168.182,59.899 167.644 C 59.314 166.551,43.633 166.343,42.562 167.413 C 42.230 167.745,39.576 172.546,36.663 178.081 C 29.391 191.901,30.316 191.617,25.232 181.591 C 21.451 174.133,18.962 169.473,17.855 167.780 C 17.108 166.637,1.612 166.233,0.517 167.328 M112.173 167.874 C 106.710 170.418,105.174 174.504,105.173 186.499 C 105.172 199.955,106.610 203.911,112.500 206.648 L 114.871 207.750 129.341 207.754 C 150.153 207.760,152.986 206.357,153.170 195.947 C 153.258 190.940,153.269 190.948,146.801 190.948 C 141.117 190.948,140.517 191.161,140.517 193.173 C 140.517 196.044,138.192 196.773,129.095 196.754 C 118.758 196.732,118.120 196.167,118.110 187.025 C 118.100 177.769,119.044 177.030,130.603 177.251 C 137.803 177.389,138.966 177.765,140.329 180.393 L 141.220 182.112 146.428 182.233 C 153.023 182.386,153.238 182.239,152.888 177.823 C 152.076 167.561,150.555 166.831,129.957 166.824 L 114.440 166.819 112.173 167.874 M174.475 167.555 C 172.688 169.575,154.991 206.082,155.448 206.807 C 155.836 207.424,156.767 207.563,161.200 207.665 C 167.360 207.806,167.960 207.571,169.575 204.383 C 171.116 201.342,170.822 201.422,181.250 201.203 C 192.929 200.958,192.484 200.854,194.501 204.323 C 196.468 207.706,196.433 207.691,202.659 207.728 C 208.358 207.763,209.057 207.608,209.040 206.312 C 209.033 205.804,204.718 196.756,199.449 186.207 L 189.871 167.026 182.511 166.908 C 175.918 166.803,175.081 166.870,174.475 167.555 M212.586 167.328 C 211.690 168.224,211.870 197.560,212.788 200.405 C 214.861 206.823,217.784 207.759,235.752 207.758 C 252.901 207.758,255.002 207.143,257.687 201.342 L 258.807 198.922 258.822 183.282 C 258.839 165.002,259.536 166.826,252.531 166.817 C 246.066 166.808,246.625 165.527,246.468 180.695 C 246.297 197.298,246.570 196.883,235.746 196.950 C 224.379 197.019,224.569 197.303,224.569 180.272 C 224.569 165.513,225.171 166.810,218.319 166.810 C 214.837 166.810,212.932 166.982,212.586 167.328 M265.963 167.644 C 265.160 169.145,265.370 205.632,266.188 206.801 L 266.859 207.759 283.778 207.759 C 297.706 207.759,300.845 207.651,301.534 207.147 C 302.711 206.287,303.035 199.241,301.973 197.620 L 301.273 196.552 290.066 196.552 L 278.858 196.552 278.434 195.436 C 278.181 194.772,278.047 188.920,278.102 180.969 C 278.179 169.685,278.096 167.555,277.567 167.220 C 276.219 166.368,266.456 166.725,265.963 167.644 M306.034 167.232 C 304.897 167.951,305.080 206.310,306.225 207.147 C 307.358 207.976,345.210 208.066,346.034 207.241 C 346.744 206.532,346.744 197.778,346.034 197.069 C 345.654 196.689,341.964 196.552,332.112 196.552 C 317.593 196.552,317.672 196.565,317.672 194.181 C 317.672 191.808,317.659 191.810,331.250 191.810 C 345.861 191.810,344.828 192.171,344.828 187.069 C 344.828 181.967,345.861 182.328,331.250 182.328 C 317.659 182.328,317.672 182.330,317.672 179.957 C 317.672 177.573,317.593 177.586,332.112 177.586 C 341.964 177.586,345.654 177.449,346.034 177.069 C 346.742 176.362,346.742 168.035,346.034 167.328 C 345.387 166.680,307.052 166.589,306.034 167.232 M349.272 167.514 C 348.907 168.466,348.807 168.326,359.177 181.381 L 368.319 192.888 368.458 199.778 C 368.628 208.245,368.261 207.760,374.514 207.752 C 381.242 207.743,380.778 208.317,381.034 199.694 L 381.250 192.457 387.400 184.698 C 390.782 180.431,395.010 175.114,396.795 172.882 C 401.380 167.150,401.337 167.059,393.966 166.902 C 386.205 166.736,387.042 166.275,380.820 174.137 C 377.668 178.119,375.056 181.034,374.641 181.033 C 374.225 181.031,372.108 178.633,369.612 175.334 C 367.241 172.201,364.748 169.002,364.072 168.224 L 362.842 166.810 356.192 166.810 C 350.439 166.810,349.506 166.905,349.272 167.514 M71.361 178.646 C 66.250 180.510,65.517 182.309,65.517 192.996 C 65.517 206.813,66.625 207.759,82.797 207.759 C 97.049 207.759,100.431 205.808,100.431 197.590 C 100.431 194.613,99.907 194.327,94.746 194.488 L 90.788 194.612 89.898 196.325 C 87.735 200.488,77.234 200.332,76.163 196.121 C 74.492 189.550,76.276 186.963,82.466 186.979 C 87.945 186.993,88.383 187.114,89.422 188.900 C 90.573 190.880,90.723 190.934,95.065 190.942 C 99.595 190.949,100.001 190.703,99.998 187.953 C 99.992 183.769,98.425 180.964,95.097 179.184 C 92.799 177.954,74.400 177.538,71.361 178.646 M185.318 184.757 C 187.797 189.949,187.727 190.086,182.592 190.086 C 176.280 190.086,176.357 190.200,178.934 184.650 C 181.990 178.070,182.125 178.072,185.318 184.757 M377.136 212.980 C 372.056 213.393,370.970 214.542,371.087 219.373 C 371.189 223.561,372.221 224.996,375.143 225.011 C 384.232 225.058,386.183 225.221,386.947 225.998 C 389.449 228.543,379.840 229.671,377.086 227.155 C 375.293 225.518,371.802 225.256,371.336 226.723 C 370.717 228.674,370.987 230.234,372.142 231.389 L 373.295 232.543 382.094 232.543 L 390.892 232.543 392.143 231.344 C 393.771 229.784,394.042 226.056,392.741 223.114 C 391.647 220.642,390.358 220.222,383.763 220.189 C 378.562 220.163,377.586 219.896,377.586 218.501 C 377.586 216.855,385.034 216.825,386.779 218.465 C 388.253 219.849,391.762 219.671,392.505 218.174 C 393.166 216.842,392.102 213.992,390.790 213.575 C 389.227 213.079,380.560 212.702,377.136 212.980 M219.811 213.451 C 218.633 213.889,218.290 215.727,219.143 217.029 C 219.873 218.143,220.218 218.239,222.995 218.109 C 225.832 217.976,226.133 218.678,226.200 225.590 C 226.267 232.477,226.390 232.759,229.338 232.759 C 232.059 232.759,232.078 232.711,232.096 225.605 C 232.115 218.343,232.236 218.086,235.600 218.163 C 239.371 218.250,241.435 216.007,239.332 214.108 C 238.520 213.374,221.554 212.804,219.811 213.451 M241.939 214.052 C 241.402 214.549,241.079 215.074,241.222 215.217 C 241.365 215.360,241.523 219.136,241.572 223.608 C 241.675 232.931,241.623 232.759,244.336 232.759 C 246.742 232.759,247.414 232.227,247.414 230.326 C 247.414 228.224,248.641 227.586,252.682 227.586 C 256.474 227.586,257.759 228.328,257.759 230.517 C 257.759 232.215,258.491 232.759,260.776 232.759 C 263.913 232.759,264.555 231.153,263.114 226.908 C 262.535 225.204,262.519 224.705,263.006 223.552 C 263.320 222.808,263.569 220.769,263.559 219.022 C 263.531 214.093,262.538 213.387,255.489 213.287 C 242.532 213.102,242.992 213.076,241.939 214.052 M294.449 213.664 C 293.482 214.447,293.467 214.599,293.516 223.045 C 293.573 232.888,293.562 232.856,296.729 232.671 L 298.922 232.543 299.138 223.346 C 299.276 217.472,299.198 214.021,298.922 213.794 C 297.877 212.934,295.439 212.863,294.449 213.664 M304.741 213.471 L 303.664 214.033 303.547 222.802 C 303.400 233.836,302.449 232.805,312.640 232.660 L 320.849 232.543 321.007 231.156 C 321.321 228.404,320.836 228.129,315.377 227.955 C 309.425 227.766,309.101 227.573,309.113 224.215 C 309.138 217.639,309.008 214.392,308.700 213.907 C 308.181 213.090,305.944 212.843,304.741 213.471 M323.312 213.895 C 322.632 214.985,322.677 231.556,323.362 232.241 C 323.732 232.611,326.496 232.759,333.070 232.759 L 342.260 232.759 342.759 231.664 C 343.097 230.922,343.126 230.192,342.848 229.401 L 342.439 228.233 336.198 228.016 C 329.877 227.796,328.879 227.589,328.879 226.498 C 328.879 225.400,330.324 225.090,335.753 225.027 C 341.417 224.961,342.296 224.693,341.919 223.152 C 341.462 221.281,341.031 221.123,336.262 221.070 C 330.318 221.004,329.109 220.742,329.046 219.510 C 328.992 218.427,329.900 218.000,332.014 218.115 C 336.831 218.378,341.356 218.065,341.995 217.426 C 342.843 216.578,342.875 214.498,342.051 213.814 C 340.933 212.886,323.896 212.959,323.312 213.895 M274.576 214.116 C 270.800 220.721,265.632 231.697,266.052 232.220 C 267.053 233.465,270.874 232.877,272.355 231.250 L 273.728 229.741 278.595 229.741 L 283.462 229.741 284.798 231.250 C 286.025 232.637,286.329 232.759,288.554 232.759 C 291.921 232.759,291.908 232.586,287.929 224.528 C 286.009 220.639,284.108 216.778,283.706 215.948 C 282.600 213.669,282.021 213.391,278.344 213.376 C 275.609 213.365,274.930 213.498,274.576 214.116 M346.123 214.220 C 345.630 215.141,345.472 230.827,345.943 232.056 C 346.145 232.581,346.779 232.759,348.451 232.759 C 351.049 232.759,351.724 232.258,351.724 230.333 C 351.724 227.968,352.570 227.541,356.979 227.684 C 361.200 227.821,362.319 228.455,361.938 230.495 C 361.617 232.221,362.491 232.824,365.099 232.677 L 367.457 232.543 367.423 229.526 C 367.404 227.866,367.254 225.971,367.089 225.314 C 366.925 224.657,366.993 223.739,367.242 223.275 C 368.838 220.293,367.376 214.100,364.963 213.618 C 361.261 212.877,346.591 213.346,346.123 214.220 M256.970 218.817 C 259.493 221.099,257.084 222.994,251.932 222.782 C 248.044 222.621,247.434 222.298,247.420 220.397 C 247.404 218.116,254.837 216.886,256.970 218.817 M361.185 218.944 C 363.440 221.198,361.637 222.766,356.790 222.766 C 352.236 222.766,350.230 220.952,352.393 218.789 C 353.421 217.761,360.120 217.879,361.185 218.944 M280.104 221.657 C 280.844 223.601,280.294 224.569,278.448 224.569 C 276.239 224.569,275.761 222.548,277.503 220.566 C 278.490 219.443,279.408 219.828,280.104 221.657 M0.616 222.974 C -0.059 223.352,-0.227 225.240,0.381 225.615 C 0.915 225.945,209.806 225.980,210.340 225.650 C 210.903 225.302,210.906 223.407,210.345 223.060 C 209.698 222.660,1.330 222.575,0.616 222.974 " stroke="none" fill-rule="evenodd"></path></g></svg>