<?xml version="1.0" encoding="UTF-8" standalone="no"?>
<svg
   
   
   xmlns="http://www.w3.org/2000/svg"
   height="680.09998"
   width="680.09998"
   version="1.1"
   viewBox="0 0 680.1 680.09999"
   id="Layer_1">
  <metadata
     id="metadata13">
    
  </metadata>
  <defs
     id="defs11" />
  <style
     id="style2">.st1{fill:#00529b}</style>
  <g
     transform="translate(0,-247.19999)"
     id="g824">
    <path
       id="XMLID_141_"
       d="m 0,636.29998 h 678 v 43.8 H 0 Z"
       style="fill:#ec1c2e" />
    <path
       id="XMLID_136_"
       class="st1"
       d="m 0.1,609.49998 v -114.6 h 141.4 c 45.9,0 78.6,20.9 78.6,56.5 0,33.9 -25.9,58.1 -79.9,58.1 z m 113.6,-29.3 c 17.6,0 27.9,-15 27.9,-26.5 0,-11.7 -9.2,-25.4 -27.4,-25.4 H 75.7 v 51.9 z"
       style="fill:#00529b" />
    <path
       id="XMLID_135_"
       class="st1"
       d="m 344,523.29998 -51.9,86.4 h -72.2 l 68.4,-115.3 h 111.2 l 68.7,115.3 h -152 l 18.1,-30 h 43.5 z"
       style="fill:#00529b" />
    <path
       id="XMLID_134_"
       class="st1"
       d="m 556.8,609.39998 h -74.9 v -115 h 198.2 v 33.5 H 556.8 v 20.5 H 678 v 32.5 H 556.8 Z"
       style="fill:#00529b" />
  </g>
</svg>
