<?xml version="1.0" encoding="UTF-8" standalone="no"?>
<svg
   
   
   
   
   xmlns="http://www.w3.org/2000/svg"
   viewBox="0, 0, 400,400"
   height="400"
   width="400"
   version="1.1"
   id="svg">
  <metadata
     id="metadata9">
    
  </metadata>
  <defs
     id="defs7" />
  <g
     id="svgg">
    <path
       style="fill-rule:evenodd;stroke:none"
       d="m 0.165,198.233 c 0.001,26.265 -0.049,24.957 1.005,26.101 1.332,1.445 -1.373,1.313 27.026,1.313 H 53.35 l 0.657,-0.355 c 0.861,-0.464 1.465,-1.116 1.878,-2.029 0.332,-0.733 0.335,-0.948 0.338,-24.948 l 0.004,-24.209 h -2.55 -2.551 l -0.388,0.863 c -1.36,3.029 -5.352,3.003 -6.662,-0.042 l -0.353,-0.821 h -2.704 -2.703 l -0.353,0.821 c -1.315,3.056 -5.396,3.056 -6.711,0 l -0.353,-0.821 h -2.916 -2.916 l -0.285,0.803 c -1.089,3.066 -5.393,3.028 -6.421,-0.057 l -0.222,-0.664 h -2.846 -2.847 l -0.21,0.607 c -1.096,3.164 -5.713,3.149 -6.663,-0.021 l -0.2,-0.668 H 2.769 0.164 l 0.001,24.127 m 4.354,-21.799 c 2.095,3.165 6.741,3.233 8.672,0.127 l 0.504,-0.811 h 1.595 1.595 l 0.504,0.811 c 1.911,3.074 6.265,3.072 8.411,-0.003 l 0.564,-0.808 h 1.656 1.656 l 0.575,0.774 c 2.318,3.12 6.703,3.075 8.798,-0.09 l 0.452,-0.684 h 1.514 1.515 l 0.56,0.83 c 2.069,3.065 7.541,2.854 8.865,-0.343 0.198,-0.478 0.225,-0.487 1.417,-0.487 h 1.215 l -0.043,23.387 -0.043,23.387 -0.372,0.521 c -0.798,1.118 0.88,1.054 -26.269,1.004 C 0.513,223.998 2.874,224.105 2.13,222.885 1.817,222.37 1.81,221.864 1.809,199.055 L 1.808,175.75 h 1.129 1.129 l 0.453,0.684 m 250.886,7.067 c -8.884,1.128 -13.423,8.45 -12.582,20.296 0.753,10.6 5.743,15.28 16.281,15.271 12.299,-0.011 18.18,-6.583 17.354,-19.397 -0.802,-12.463 -7.818,-17.852 -21.053,-16.17 m -182.738,4.004 v 3.699 h 4.85 4.85 v 13.399 13.399 h 4.439 4.439 v -13.399 -13.399 h 4.85 4.85 v -3.699 -3.699 H 86.806 72.667 v 3.699 m 32.224,13.399 v 17.098 h 4.439 4.439 v -6.822 -6.823 h 5.179 5.179 v 6.823 6.822 h 4.521 4.521 v -17.098 -17.098 h -4.521 -4.521 v 6.658 6.659 h -5.179 -5.179 v -6.659 -6.658 h -4.439 -4.439 v 17.098 m 36.498,-16.873 c -1.899,0.414 -3.138,1.38 -3.931,3.063 l -0.426,0.904 v 12.742 12.741 l 0.393,0.973 c 1.345,3.34 2.195,3.536 15.349,3.543 l 9.495,0.005 v -3.694 -3.694 l -7.724,-0.046 -7.723,-0.046 -0.456,-0.455 c -0.453,-0.453 -0.456,-0.469 -0.508,-3.001 l -0.053,-2.545 h 8.15 8.149 v -3.617 -3.617 h -8.138 -8.138 v -2.134 c 0,-4.114 -0.596,-3.847 8.796,-3.949 l 7.563,-0.082 0.044,-3.658 0.044,-3.658 -9.991,0.014 c -7.11,0.01 -10.251,0.07 -10.895,0.211 m 24.99,16.873 v 17.098 h 4.439 4.439 v -6.598 -6.598 l 2.918,0.088 c 6.411,0.194 7.604,1.649 7.604,9.279 v 3.829 h 4.446 4.447 l -0.049,-6.041 -0.048,-6.042 -0.434,-1.186 c -0.494,-1.352 -1.143,-2.251 -2.107,-2.919 l -0.668,-0.463 0.798,-0.765 c 3.222,-3.09 3.365,-10.348 0.27,-13.789 -2.455,-2.731 -3.9,-2.991 -16.614,-2.991 h -9.441 v 17.098 m 32.552,-0.002 v 17.1 h 4.439 4.439 l 0.013,-11.302 0.013,-11.303 3.413,10.193 c 4.396,13.126 3.967,12.412 7.464,12.412 3.584,0 3.17,0.686 7.534,-12.494 l 3.347,-10.111 0.042,11.303 0.043,11.302 h 4.437 4.438 v -17.098 -17.098 h -6.788 -6.788 l -0.543,1.685 c -0.299,0.927 -1.695,5.2 -3.101,9.495 l -2.557,7.809 -3.154,-9.453 -3.154,-9.454 -6.769,-0.043 -6.768,-0.043 v 17.1 m 90.588,0.002 v 17.098 h 4.439 4.439 v -8.158 c 0,-6.508 0.042,-8.123 0.206,-7.987 0.113,0.095 2.609,3.763 5.548,8.152 l 5.343,7.98 4.983,0.007 c 3.943,0.005 4.958,-0.036 4.864,-0.199 -0.066,-0.113 -2.549,-3.881 -5.518,-8.372 -2.969,-4.492 -5.441,-8.28 -5.494,-8.417 -0.06,-0.156 1.908,-3.268 5.283,-8.356 2.959,-4.458 5.489,-8.273 5.623,-8.476 l 0.244,-0.37 h -4.924 -4.924 l -5.576,8.344 -5.576,8.343 -0.042,-8.343 -0.043,-8.344 h -4.437 -4.438 v 17.098 m 32.881,0 v 17.098 h 4.439 4.439 v -17.098 -17.098 h -4.439 -4.439 v 17.098 m 13.153,-0.002 v 17.1 h 4.439 4.439 v -9.371 c 0,-5.154 0.055,-9.367 0.123,-9.362 0.068,0.005 2.306,3.674 4.973,8.154 6.658,11.181 5.812,10.431 11.879,10.537 l 3.904,0.069 v -17.112 -17.111 h -4.521 -4.521 v 7.933 7.932 l -4.735,-7.891 -4.735,-7.892 -5.623,-0.043 -5.622,-0.043 v 17.1 m 46.445,-16.916 c -7.982,0.949 -12.113,6.152 -12.517,15.767 -0.482,11.448 4.158,17.351 14.217,18.088 1.144,0.083 5.244,0.154 9.109,0.157 l 7.029,0.004 v -10.193 -10.193 h -7.316 -7.317 v 3.535 3.535 h 2.878 2.877 v 2.959 2.959 h -3.049 c -7.541,0 -9.139,-1.591 -9.397,-9.353 -0.155,-4.663 0.398,-6.851 2.182,-8.635 1.422,-1.422 1.344,-1.412 10.845,-1.412 h 8.297 v -3.699 -3.699 l -8.344,0.021 c -4.589,0.012 -8.862,0.083 -9.494,0.159 M 5.754,188.081 v 4.11 h 7.639 c 7.385,0 7.645,0.01 7.81,0.318 0.113,0.211 0.17,4.594 0.17,13.07 v 12.752 h 6.987 6.987 v -12.978 c 0,-8.678 0.056,-13.013 0.169,-13.083 0.092,-0.057 3.643,-0.096 7.891,-0.086 l 7.723,0.018 v -4.116 -4.116 H 28.442 5.754 v 4.111 m 256.354,2.805 c 3.587,0.695 5.268,4.125 5.275,10.758 0.008,6.772 -1.851,9.58 -6.697,10.118 -5.737,0.637 -8.603,-2.348 -8.92,-9.293 -0.419,-9.175 3.002,-13.006 10.342,-11.583 m -77.463,0.691 c 1.59,1.063 1.56,4.789 -0.045,5.655 -0.478,0.258 -1.102,0.302 -4.945,0.355 l -4.398,0.061 v -3.222 -3.222 h 4.415 c 4.316,0 4.427,0.009 4.973,0.373"
       id="path0" />
    <path
       d="m 5.8289054,206.04947 v 12.248 h 5.8339996 5.833 l 0.044,-4.069 0.044,-4.069 1.439,-0.047 1.438,-0.048 v -4.021 -4.022 h -1.397 -1.398 v -4.11 -4.11 h -5.918 -5.9189996 v 12.248 m 35.0599996,-12.12 -1.357,0.049 -0.011,2.83 c -0.018,4.653 -0.229,5.135 -2.223,5.083 l -0.889,-0.024 v 4.105 4.105 h 0.633 c 2.089,0 2.392,0.602 2.464,4.891 l 0.056,3.329 h 5.657 5.657 v -1.736 c 0,-7.17 -2.116,-9.455 -9.001,-9.722 l -2.507,-0.097 v -0.714 -0.715 l 1.192,0.101 c 1.869,0.157 4.536,-0.176 6.088,-0.761 2.358,-0.888 3.405,-2.391 3.986,-5.722 0.213,-1.225 0.367,-4.749 0.212,-4.878 -0.086,-0.072 -8.503,-0.176 -9.957,-0.124"
       id="path0-4"
       style="fill:#0097d5;fill-rule:evenodd;stroke:none" />
  </g>
</svg>
