<svg id="svg" xmlns="http://www.w3.org/2000/svg"  width="400" height="368.3284457478006" viewBox="0, 0, 400,368.3284457478006"><g id="svgg"><path id="path0" d="M0.007 172.141 C 0.014 359.545,-0.346 350.212,7.174 358.369 C 16.678 368.680,-2.622 367.742,200.000 367.742 L 379.472 367.742 384.164 365.210 C 390.307 361.896,394.613 357.241,397.559 350.733 C 399.928 345.500,399.949 343.963,399.974 172.727 L 400.000 0.000 381.803 0.000 L 363.607 0.000 360.841 6.158 C 351.135 27.766,322.652 27.585,313.304 5.855 L 310.785 -0.000 291.496 0.000 L 272.206 0.000 269.687 5.855 C 260.307 27.659,231.188 27.659,221.809 5.855 L 219.290 0.000 198.483 -0.000 L 177.677 -0.000 175.642 5.728 C 167.872 27.605,137.166 27.333,129.829 5.322 L 128.250 0.587 107.938 0.587 L 87.626 0.587 86.126 4.918 C 78.312 27.491,45.370 27.384,38.593 4.765 L 37.165 0.000 18.583 0.000 L 0.000 0.000 0.007 172.141 M31.068 16.607 C 46.014 39.192,79.164 39.680,92.940 17.518 L 96.538 11.730 107.918 11.730 L 119.297 11.730 122.895 17.518 C 136.528 39.449,167.593 39.437,182.910 17.495 L 186.935 11.730 198.748 11.730 L 210.562 11.730 214.665 17.254 C 231.203 39.515,262.490 39.193,277.436 16.607 L 280.664 11.730 291.468 11.730 L 302.272 11.730 306.268 17.650 C 321.032 39.522,360.073 38.012,369.520 15.205 C 370.931 11.797,371.126 11.730,379.630 11.730 L 388.301 11.730 387.992 178.592 L 387.683 345.455 385.029 349.176 C 379.340 357.151,391.311 356.694,197.602 356.335 C 2.490 355.974,19.333 356.736,14.025 348.030 C 11.788 344.361,11.739 340.749,11.735 178.006 L 11.730 11.730 19.785 11.730 L 27.841 11.730 31.068 16.607 M39.883 99.707 L 39.883 129.032 94.387 129.032 C 147.073 129.032,148.932 129.108,150.105 131.301 C 150.912 132.809,151.320 164.080,151.320 224.556 L 151.320 315.543 201.173 315.543 L 251.026 315.543 251.026 222.943 C 251.026 161.025,251.424 130.098,252.228 129.601 C 252.888 129.193,278.226 128.916,308.533 128.986 L 363.636 129.114 363.636 99.748 L 363.636 70.381 201.760 70.381 L 39.883 70.381 39.883 99.707 M39.883 228.152 L 39.883 315.543 81.504 315.543 L 123.126 315.543 123.440 286.510 L 123.754 257.478 134.018 257.139 L 144.282 256.800 144.282 228.107 L 144.282 199.413 134.311 199.413 L 124.340 199.413 124.340 170.088 L 124.340 140.762 82.111 140.762 L 39.883 140.762 39.883 228.152 M290.029 141.681 L 280.352 142.030 280.273 162.218 C 280.143 195.414,278.637 198.857,264.410 198.482 L 258.065 198.315 258.065 227.603 L 258.065 256.891 262.582 256.891 C 277.488 256.891,279.651 261.184,280.163 291.789 L 280.560 315.543 320.925 315.543 L 361.290 315.543 361.290 303.157 C 361.290 251.999,346.193 235.692,297.067 233.788 L 279.179 233.094 279.179 227.999 L 279.179 222.904 287.683 223.619 C 301.016 224.740,320.046 222.363,331.123 218.193 C 347.943 211.860,355.414 201.134,359.558 177.367 C 361.082 168.629,362.175 143.480,361.071 142.559 C 360.459 142.049,300.402 141.305,290.029 141.681 " stroke="none" fill-rule="evenodd"></path></g></svg>