<svg id="svg" xmlns="http://www.w3.org/2000/svg"  width="400" height="400" viewBox="0, 0, 400,400"><g id="svgg"><path id="path0" d="M83.468 160.642 C 83.234 160.790,67.754 160.889,44.292 160.891 C 2.224 160.896,4.429 160.819,3.753 162.303 C 3.487 162.886,1.317 172.664,1.317 173.278 C 1.317 173.425,1.587 173.419,1.992 173.265 C 2.572 173.045,19.487 172.868,19.487 173.083 C 19.487 173.123,16.812 185.714,13.544 201.062 C 9.697 219.123,7.595 229.530,7.586 230.563 C 7.544 235.017,10.502 239.113,14.708 240.426 C 16.371 240.945,17.646 240.948,205.914 240.948 L 395.446 240.948 396.133 240.312 C 396.510 239.962,396.883 239.400,396.961 239.061 C 398.654 231.726,398.860 230.302,398.174 230.669 C 397.824 230.856,338.919 230.941,210.195 230.941 L 22.724 230.941 21.830 230.340 C 19.812 228.985,19.553 230.854,25.914 200.922 C 29.038 186.221,31.657 173.927,31.734 173.601 L 31.873 173.009 55.844 173.009 C 81.697 173.009,80.857 173.053,81.567 171.649 C 81.908 170.974,84.118 160.659,83.956 160.498 C 83.901 160.442,83.681 160.508,83.468 160.642 M159.469 179.789 C 159.361 179.898,152.438 180.046,144.086 180.118 L 128.901 180.250 128.060 184.187 C 127.598 186.352,127.153 188.390,127.071 188.717 C 126.925 189.298,126.940 189.302,127.837 188.927 C 128.814 188.519,135.473 188.363,135.705 188.743 C 135.772 188.851,134.122 196.939,132.040 206.715 C 129.957 216.491,128.251 224.638,128.248 224.819 C 128.244 225.075,129.920 225.148,135.769 225.148 C 139.909 225.148,143.250 225.059,143.194 224.951 C 143.138 224.842,142.879 224.281,142.617 223.705 L 142.141 222.656 145.484 206.851 C 147.322 198.159,148.969 190.513,149.142 189.862 L 149.458 188.677 153.794 188.604 L 158.130 188.532 159.066 184.062 C 159.933 179.920,159.995 179.263,159.469 179.789 M47.929 180.974 C 48.717 182.266,48.758 182.021,44.108 203.930 C 41.718 215.190,39.763 224.572,39.763 224.780 C 39.763 225.099,40.816 225.146,46.651 225.087 L 53.538 225.016 55.466 215.932 C 56.527 210.935,57.524 206.224,57.682 205.464 C 58.048 203.706,59.257 203.397,59.741 204.937 C 63.475 216.829,64.929 221.435,65.476 223.112 L 66.143 225.158 72.107 225.087 L 78.072 225.016 78.917 221.198 C 79.382 219.098,79.769 217.237,79.776 217.062 C 79.785 216.846,79.136 216.719,77.757 216.667 L 75.724 216.590 73.823 210.665 C 71.528 203.512,71.565 204.214,73.455 203.842 C 80.903 202.377,85.859 188.882,81.353 182.333 C 79.775 180.040,80.434 180.118,62.857 180.118 L 47.407 180.118 47.929 180.974 M91.911 180.316 C 91.916 180.425,92.093 180.744,92.306 181.025 C 93.012 181.958,92.723 183.651,88.348 204.249 C 85.958 215.499,84.003 224.803,84.003 224.926 C 84.003 225.048,87.390 225.148,91.530 225.148 C 95.669 225.148,99.011 225.059,98.955 224.951 C 98.899 224.842,98.642 224.290,98.385 223.724 L 97.917 222.694 102.304 201.999 C 104.717 190.616,106.753 181.037,106.830 180.711 L 106.970 180.118 99.436 180.118 C 95.293 180.118,91.906 180.207,91.911 180.316 M166.746 180.316 C 168.148 183.040,168.842 181.109,158.555 203.133 C 149.335 222.873,149.372 222.777,150.603 224.156 L 151.371 225.016 156.923 225.101 C 159.977 225.148,162.475 225.121,162.475 225.042 C 162.475 224.962,162.239 224.510,161.950 224.035 C 161.183 222.777,161.251 222.418,163.161 217.644 L 164.900 213.298 170.139 213.298 L 175.379 213.298 175.380 217.051 C 175.381 219.115,175.458 221.781,175.551 222.976 L 175.720 225.148 182.528 225.148 C 186.272 225.148,189.335 225.069,189.335 224.971 C 189.335 224.874,189.130 224.568,188.879 224.291 C 188.499 223.870,188.391 222.979,188.227 218.872 C 188.009 213.443,187.217 184.034,187.224 181.633 L 187.228 180.118 176.937 180.118 C 171.276 180.118,166.690 180.207,166.746 180.316 M201.711 181.102 C 202.001 181.643,202.238 182.274,202.238 182.505 C 202.238 182.853,193.838 222.716,193.376 224.556 L 193.228 225.148 199.598 225.148 C 203.102 225.148,205.923 225.059,205.867 224.951 C 205.811 224.842,205.557 224.294,205.301 223.732 L 204.837 222.712 207.062 212.277 C 208.629 204.932,209.352 201.999,209.506 202.370 C 209.626 202.660,211.576 207.874,213.840 213.957 L 217.957 225.016 223.588 225.016 L 229.219 225.016 233.892 203.028 C 236.462 190.935,238.568 180.833,238.572 180.579 C 238.578 180.153,238.104 180.118,232.262 180.118 L 225.946 180.118 226.468 180.974 C 227.230 182.224,227.178 182.641,225.016 192.776 C 223.930 197.868,223.041 202.080,223.041 202.136 C 223.041 202.192,222.877 202.238,222.675 202.238 C 222.242 202.238,222.506 202.886,217.780 190.191 L 214.031 180.118 207.608 180.118 L 201.184 180.118 201.711 181.102 M244.374 180.974 C 245.156 182.256,245.216 181.898,240.553 203.842 C 238.163 215.089,236.208 224.484,236.208 224.720 C 236.208 225.105,236.936 225.148,243.446 225.148 L 250.684 225.148 250.162 224.292 C 249.875 223.822,249.639 223.036,249.639 222.546 C 249.638 221.707,252.973 205.491,253.234 205.069 C 253.669 204.363,256.987 205.118,257.886 206.128 C 258.243 206.528,263.068 224.186,263.068 225.090 C 263.068 225.143,265.554 225.148,268.592 225.101 L 274.117 225.016 274.805 224.327 C 275.386 223.746,277.197 217.166,277.279 215.339 C 277.284 215.230,276.488 215.140,275.510 215.138 C 274.533 215.135,273.596 215.046,273.429 214.940 C 273.052 214.700,268.334 196.407,268.334 195.187 C 268.334 193.825,268.534 193.579,275.211 186.702 L 281.474 180.250 272.889 180.181 C 263.073 180.101,263.983 179.969,264.678 181.374 C 265.433 182.901,265.211 183.605,262.884 187.064 C 260.081 191.230,259.532 191.705,257.524 191.705 C 256.121 191.705,255.940 191.648,256.062 191.244 C 256.288 190.500,258.328 180.756,258.328 180.423 C 258.328 180.200,256.389 180.118,251.090 180.118 L 243.852 180.118 244.374 180.974 M69.108 189.319 C 71.103 191.195,70.236 195.901,67.600 197.508 C 66.380 198.252,59.134 198.301,59.348 197.564 C 59.422 197.311,59.850 195.326,60.300 193.153 C 60.750 190.981,61.171 189.046,61.237 188.854 C 61.478 188.142,68.285 188.545,69.108 189.319 M174.689 192.561 C 174.767 193.466,174.896 197.317,174.975 201.119 L 175.119 208.032 171.167 208.032 C 168.994 208.032,167.214 207.943,167.212 207.834 C 167.203 207.216,173.960 190.915,174.226 190.915 C 174.429 190.915,174.599 191.521,174.689 192.561 M300.266 200.158 C 293.309 203.602,290.626 221.093,296.464 224.943 C 297.537 225.651,308.249 225.631,309.809 224.919 C 311.994 223.921,313.224 222.038,314.004 218.499 C 314.195 217.635,314.254 217.646,312.969 218.302 C 311.110 219.249,306.029 219.076,304.831 218.025 C 302.498 215.976,302.967 209.408,305.642 206.668 L 306.624 205.662 311.261 205.662 C 316.932 205.662,316.661 205.810,317.435 202.286 L 318.024 199.605 309.703 199.605 C 301.782 199.605,301.329 199.632,300.266 200.158 M324.991 200.008 C 318.503 202.826,315.252 219.212,320.200 224.160 L 321.452 225.411 327.595 225.411 C 334.815 225.411,334.952 225.374,337.559 222.659 C 340.712 219.375,342.141 215.133,342.176 208.949 L 342.199 204.994 341.277 203.155 C 340.637 201.879,340.007 201.055,339.216 200.461 L 338.076 199.605 331.974 199.615 C 327.235 199.623,325.675 199.711,324.991 200.008 M349.699 200.123 C 349.928 200.550,346.664 217.107,344.831 224.819 L 344.690 225.411 348.627 225.411 L 352.563 225.411 352.872 223.897 C 355.633 210.368,355.423 210.554,358.149 219.211 L 360.101 225.411 363.558 225.411 L 367.015 225.411 367.332 223.766 C 367.506 222.860,367.712 221.853,367.789 221.527 C 367.920 220.978,367.842 220.935,366.717 220.935 C 366.050 220.935,365.504 220.884,365.504 220.822 C 365.504 220.760,364.970 219.020,364.319 216.956 C 363.667 214.891,363.134 213.165,363.134 213.119 C 363.134 213.073,363.525 213.035,364.004 213.035 C 368.430 213.035,371.701 203.720,368.466 200.329 L 367.775 199.605 358.598 199.605 C 349.554 199.605,349.426 199.612,349.699 200.123 M376.030 200.120 C 376.257 200.543,372.088 221.678,371.133 224.951 C 371.009 225.375,371.311 225.411,374.966 225.411 C 377.148 225.411,378.934 225.363,378.934 225.304 C 378.934 225.107,380.791 216.334,380.926 215.892 C 381.038 215.525,381.578 215.442,384.407 215.361 C 388.443 215.245,389.968 214.675,392.187 212.455 C 395.798 208.841,396.516 202.458,393.581 200.072 C 392.657 199.320,375.627 199.366,376.030 200.120 M333.752 205.070 C 335.616 206.375,336.086 207.674,335.920 211.060 C 335.617 217.256,333.678 220.675,330.350 220.887 C 326.081 221.159,324.363 219.431,324.400 214.902 C 324.462 207.122,329.347 201.986,333.752 205.070 M361.992 204.760 C 363.212 205.979,362.484 208.908,360.738 209.805 C 360.117 210.124,356.251 210.277,355.967 209.994 C 355.848 209.874,356.194 208.003,356.952 204.674 C 357.170 203.718,361.016 203.783,361.992 204.760 M387.093 204.343 C 388.681 205.193,388.114 210.224,386.323 211.183 C 385.378 211.688,381.772 211.534,381.928 210.994 C 382.001 210.741,382.306 209.348,382.606 207.900 C 382.905 206.452,383.211 205.000,383.285 204.674 C 383.435 204.018,386.059 203.789,387.093 204.343 M391.478 219.816 C 391.406 220.069,391.150 221.224,390.911 222.383 C 390.671 223.542,390.417 224.701,390.345 224.959 C 390.226 225.393,390.456 225.422,393.450 225.354 L 396.683 225.280 397.270 222.526 C 397.593 221.011,397.799 219.678,397.728 219.563 C 397.435 219.089,391.618 219.324,391.478 219.816 " stroke="none" fill-rule="evenodd"></path></g></svg>