<?xml version="1.0" encoding="UTF-8" standalone="no"?>
<svg
   
   
   
   
   xmlns="http://www.w3.org/2000/svg"
   
   id="svg48"
   version="1.1"
   viewBox="0 0 1741.556 1741.556"
   height="1741.556"
   width="1741.556">
  <defs
     id="defs16">
    <linearGradient
       gradientUnits="objectBoundingBox"
       y2="1"
       x2="0.5"
       x1="0.5"
       id="a">
      <stop
         id="stop2"
         stop-color="#8c1c10"
         offset="0" />
      <stop
         id="stop4"
         stop-color="#d9271b"
         offset="0.477" />
      <stop
         id="stop6"
         stop-color="#9a1107"
         offset="1" />
    </linearGradient>
    <linearGradient
       y1="-308.45374"
       gradientTransform="scale(1.6599599,0.6024242)"
       gradientUnits="userSpaceOnUse"
       y2="473.12177"
       x2="371.14392"
       x1="371.14392"
       id="n">
      <stop
         id="stop9"
         stop-color="#424242"
         offset="0" />
      <stop
         id="stop11"
         stop-color="#4c4c4c"
         offset="0.469" />
      <stop
         id="stop13"
         stop-color="#1f1f1f"
         offset="1" />
    </linearGradient>
    <linearGradient
       y1="-9.1460962"
       gradientTransform="scale(0.96845575,1.0325717)"
       y2="170.26324"
       x2="53.189835"
       x1="53.189835"
       gradientUnits="userSpaceOnUse"
       id="linearGradient862"
       xlink:href="#a" />
    <linearGradient
       y1="-7.5564384"
       gradientTransform="scale(0.77382881,1.2922755)"
       y2="150.20714"
       x2="78.88179"
       x1="78.88179"
       gradientUnits="userSpaceOnUse"
       id="linearGradient864"
       xlink:href="#a" />
    <linearGradient
       y1="-18.489271"
       gradientTransform="scale(0.99106299,1.0090176)"
       y2="109.61157"
       x2="-37.220642"
       x1="-37.220642"
       gradientUnits="userSpaceOnUse"
       id="linearGradient866"
       xlink:href="#a" />
    <linearGradient
       y1="-97.281807"
       gradientTransform="scale(0.96371103,1.0376554)"
       y2="26.405682"
       x2="32.003887"
       x1="32.003887"
       gradientUnits="userSpaceOnUse"
       id="linearGradient868"
       xlink:href="#a" />
    <linearGradient
       y1="-97.281807"
       gradientTransform="scale(0.96371103,1.0376554)"
       y2="26.405682"
       x2="32.003887"
       x1="32.003887"
       gradientUnits="userSpaceOnUse"
       id="linearGradient870"
       xlink:href="#a" />
    <linearGradient
       y1="-97.281807"
       gradientTransform="scale(0.96371103,1.0376554)"
       y2="26.405682"
       x2="32.003887"
       x1="32.003887"
       gradientUnits="userSpaceOnUse"
       id="linearGradient872"
       xlink:href="#a" />
    <linearGradient
       y1="-25.518578"
       gradientTransform="scale(0.6173003,1.6199571)"
       y2="54.220573"
       x2="25.149023"
       x1="25.149023"
       gradientUnits="userSpaceOnUse"
       id="linearGradient874"
       xlink:href="#a" />
    <linearGradient
       y1="-25.518578"
       gradientTransform="scale(0.6173003,1.6199571)"
       y2="54.220573"
       x2="25.149023"
       x1="25.149023"
       gradientUnits="userSpaceOnUse"
       id="linearGradient876"
       xlink:href="#a" />
    <linearGradient
       y1="-18.927988"
       gradientTransform="scale(1.0271877,0.97353191)"
       y2="26.621622"
       x2="16.40012"
       x1="16.40012"
       gradientUnits="userSpaceOnUse"
       id="linearGradient878"
       xlink:href="#a" />
    <linearGradient
       y1="-18.927988"
       gradientTransform="scale(1.0271877,0.97353191)"
       y2="26.621622"
       x2="16.40012"
       x1="16.40012"
       gradientUnits="userSpaceOnUse"
       id="linearGradient880"
       xlink:href="#a" />
    <linearGradient
       y1="-48.921753"
       gradientTransform="scale(0.98771965,1.012433)"
       y2="130.00958"
       x2="77.060326"
       x1="77.060326"
       gradientUnits="userSpaceOnUse"
       id="linearGradient882"
       xlink:href="#a" />
    <linearGradient
       y1="-42.242805"
       gradientTransform="scale(0.88932218,1.1244519)"
       y2="106.12637"
       x2="74.184586"
       x1="74.184586"
       gradientUnits="userSpaceOnUse"
       id="linearGradient884"
       xlink:href="#a" />
    <linearGradient
       y1="-94.907234"
       gradientTransform="scale(1.0114052,0.98872339)"
       y2="35.196903"
       x2="58.443439"
       x1="58.443439"
       gradientUnits="userSpaceOnUse"
       id="linearGradient886"
       xlink:href="#a" />
  </defs>
  <g
     id="g46"
     transform="translate(-29.392,79.178015)">
    <path
       style="fill:url(#linearGradient862)"
       id="path18"
       transform="translate(195,716)"
       d="M 1.458,2.446 49,0 77.019,-9.444 H 94.662 L 113.456,5.9 138.387,19 v 8.761 L 87.375,56.527 H 62.443 V 43.1 L 81.237,38.114 49,19 l -21.843,8.761 -8.822,46.794 6.137,53.7 14.958,19.558 18.027,11.123 H 74.333 L 98.5,142.06 V 124.8 l -3.835,-18.411 h 23.4 l 8.438,4.6 v 36.82 l -41.423,28 H 39.43 L -2.377,162 -19.637,147.809 -35.363,117.9 V 62.664 Z" />
    <path
       style="fill:url(#linearGradient864)"
       id="path20"
       transform="translate(348,716)"
       d="m 0,0 h 21 l 16.4,-9.765 h 14.167 v 60.189 l 14.457,-8.261 h 32.75 l 23.308,26.849 v 59.3 l -5.605,11.507 -7.077,14.459 -28.624,30.685 -12.687,9.146 -9.736,-7.376 L 71.04,170.211 88.152,147.2 86.087,101.763 71.04,78.158 H 45.666 v 98.248 L 0,175.521 Z" />
    <path
       style="fill:url(#linearGradient866)"
       id="path22"
       transform="translate(596,777)"
       d="M 2.81,-11.753 16,0 v 87.971 l 10.59,8.821 -19.945,7.288 -9.589,6.52 h -15.342 l -9.589,-13.809 1.918,-14.575 V 40.794 l -27.232,13.04 -8.054,9.973 5.752,14.193 14.575,9.973 14.958,-5.754 -1.918,14.575 -19.561,9.973 -29.916,3.833 -23.013,-24.548 V 58.82 l 11.123,-19.944 9.589,-3.452 7.671,5.37 L -39,29.671 -25.959,26.985 -27.875,15.1 -43.984,7.808 -63.929,15.1 h -21.479 l -3.835,-4.986 V -5.232 l 3.835,-6.521 h 13.424 l 18.795,3.453 19.562,-10.356 h 17.643 z" />
    <path
       style="fill:url(#linearGradient868)"
       id="path24"
       transform="translate(662,860)"
       d="M -20.234,-13.059 5.288,-13.6 25.969,-7.288 44.118,-0.041 56.51,-5.941 41.758,-16.268 -24.332,-44.3 -26.4,-74.1 -9.583,-86.2 15.2,-95.634 29.952,-100.945 74.212,-79.406 69.2,-60.819 56.51,-56.1 42.938,-60.819 24.351,-69.08 3.7,-76.456 v 7.376 l 51.335,22.718 17.407,5.605 18,14.457 V -2.106 L 58.575,15.6 44.118,27.4 18.45,25.333 3.7,20.317 -22.266,15.6 l -6.491,-5.312 8.523,-7.966 z" />
    <path
       style="fill:url(#linearGradient870)"
       id="path26"
       transform="translate(796,860)"
       d="M -20.234,-13.059 5.288,-13.6 25.969,-7.288 44.118,-0.041 56.51,-5.941 41.758,-16.268 -24.332,-44.3 -26.4,-74.1 -9.583,-86.2 15.2,-95.634 29.952,-100.945 74.212,-79.406 69.2,-60.819 56.51,-56.1 42.938,-60.819 24.351,-69.08 3.7,-76.456 v 7.376 l 51.335,22.718 17.407,5.605 18,14.457 V -2.106 L 58.575,15.6 44.118,27.4 18.45,25.333 3.7,20.317 -22.266,15.6 l -6.491,-5.312 8.523,-7.966 z" />
    <path
       style="fill:url(#linearGradient872)"
       id="path28"
       transform="translate(1016,860)"
       d="M -20.234,-13.059 5.288,-13.6 25.969,-7.288 44.118,-0.041 56.51,-5.941 41.758,-16.268 -24.332,-44.3 -26.4,-74.1 -9.583,-86.2 15.2,-95.634 29.952,-100.945 74.212,-79.406 69.2,-60.819 56.51,-56.1 42.938,-60.819 24.351,-69.08 3.7,-76.456 v 7.376 l 51.335,22.718 17.407,5.605 18,14.457 V -2.106 L 58.575,15.6 44.118,27.4 18.45,25.333 3.7,20.317 -22.266,15.6 l -6.491,-5.312 8.523,-7.966 z" />
    <path
       style="fill:url(#linearGradient874)"
       id="path30"
       transform="translate(915,799)"
       d="m -5.512,-18.408 -3.575,-3.552 17.807,-9.6 6.98,-9.779 11.522,2.1 9.078,4.884 v 89.588 l 3.836,19.562 v 13.04 H -8.725 l 5.131,-9.972 z" />
    <path
       style="fill:url(#linearGradient876)"
       id="path32"
       transform="translate(1425,799)"
       d="m -5.512,-18.408 -3.575,-3.552 17.807,-9.6 6.98,-9.779 11.522,2.1 9.078,4.884 v 89.588 l 3.836,19.562 v 13.04 H -8.725 l 5.131,-9.972 z" />
    <path
       style="fill:url(#linearGradient878)"
       id="path34"
       transform="translate(917,719)"
       d="m -6.548,-2.016 9.078,-5.935 11.7,-10.476 h 7.681 L 40.24,0.079 V 7 L 21.909,25.917 H 11.958 L -6.548,7 Z" />
    <path
       style="fill:url(#linearGradient880)"
       id="path36"
       transform="translate(1427,719)"
       d="m -6.548,-2.016 9.078,-5.935 11.7,-10.476 h 7.681 L 40.24,0.079 V 7 L 21.909,25.917 H 11.958 L -6.548,7 Z" />
    <path
       style="fill:url(#linearGradient882)"
       id="path38"
       transform="translate(1222,754)"
       d="m 0,0 -4.873,-18.845 -6.2,-19.178 -1.18,-11.507 59.008,1.476 L 44.989,8.889 58.561,3.873 85.41,-10.288 100.162,-25.631 V -48.054 H 163.3 L 150.909,-29.171 128.781,-16.484 104.292,0 l 12.1,29.247 20.355,42.753 19.178,36.612 8.556,23.014 H 104.292 L 100.162,113.333 88.95,85.01 76.85,67.31 64.458,31.61 58.561,20.4 h -11.8 l -4.722,11.207 -1.77,72.875 4.721,11.8 v 15.342 H -11.069 V 120.119 L -4.869,95.336 0,72 Z" />
    <path
       style="fill:url(#linearGradient884)"
       id="path40"
       transform="translate(1639,807)"
       d="M 0,0 10.746,-14.9 28.389,-37.146 45.649,-47.5 H 64.06 l 14.958,13.038 6.137,5.369 11.89,-14.958 h 12.274 L 131.948,-29.093 119.674,0 131.948,63.728 v 20.711 l -4.548,18.1 -12.709,10.667 -34.724,-1.362 -38.355,-2.27 -15.887,5.447 -14.979,4.313 v -13.159 l 6.128,-8.4 5.9,-5.22 17.7,-5.9 74.214,-2.218 L 104.333,67.563 85.155,56.057 75.183,34.193 V -19.5 l -20.712,-14.962 -16.877,17.644 -2.3,36.438 16.106,29.916 12.66,9.972 21.1,-3.451 3.906,2.137 -23.089,9.369 -18.027,9.588 H 24.55 L 14.2,63.728 0,34.193 Z" />
    <path
       style="fill:url(#linearGradient886)"
       id="path42"
       transform="translate(1492,852)"
       d="m 0,0 v -65.218 l -6.684,-5.9 31.865,-22.719 12.982,8.261 4.426,6.491 24.488,-7.966 10.623,-6.786 h 28.914 l 15.933,19.473 -1.183,102.674 3.54,5.016 H 77.7 L 82.42,23.59 V -50.17 L 60.881,-65.218 46.424,-57.842 V 34.8 H -2.848 L 0,25 Z" />
    <path
       style="fill:url(#n)"
       id="path44"
       transform="translate(62,742)"
       d="m 0,0 22.836,-23.951 57.533,-38.739 96.656,-42.19 122.731,-34.146 127.723,-23.014 124.655,-15.726 110.847,-4.986 92.82,-3.068 110.847,3.068 101.642,5.369 68.272,8.822 96.655,12.273 54.465,12.273 77.094,21.1 -77.094,-11.507 -67.122,-9.589 -131.174,-10.358 -193.694,-1.918 -113.148,7.671 -134.244,19.178 -101.643,18.027 -146.901,46.411 -55.615,23.012 -17.26,-6.137 h -14.959 l -22.24,8.831 -57.533,1.918 L 101.089,8.665 91.5,33 l -5.37,34.349 5.37,38.738 11.89,18.794 29.918,25.319 23.013,8.438 51.78,40.273 49.035,29.544 54.644,23.22 39.63,13.617 33.17,11.348 27.06,8.38 -33.17,-4.714 -44.693,-8.9 -66.992,-15.342 -83.614,-23.78 L 91.5,194.3 28.981,152.113 0,124.881 -22.552,103.3 -32.608,72.372 -20.292,29.591 Z" />
  </g>
</svg>
