<svg id="svg" version="1.1" xmlns="http://www.w3.org/2000/svg"  width="400" height="400" viewBox="0, 0, 400,400"><g id="svgg"><path id="path0" d="M322.732 78.392 C 292.492 82.630,271.988 100.355,265.293 128.045 C 264.239 132.408,263.799 132.407,263.794 128.042 C 263.776 113.926,256.867 99.439,246.412 91.592 C 239.084 86.093,232.817 83.898,219.832 82.284 C 214.912 81.673,98.041 81.342,96.930 81.937 C 96.381 82.230,80.075 108.829,80.075 109.431 C 80.075 109.500,78.896 111.540,77.456 113.965 C 76.015 116.390,74.836 118.596,74.836 118.869 C 74.836 119.637,73.418 119.452,73.163 118.650 C 73.039 118.257,72.017 116.471,70.893 114.681 C 69.769 112.890,68.849 111.365,68.849 111.291 C 68.849 111.126,58.555 95.716,55.369 91.113 C 50.059 83.440,48.995 82.017,48.395 81.787 C 48.049 81.654,37.344 81.564,24.608 81.588 C -1.434 81.636,0.020 81.446,2.520 84.467 C 3.331 85.447,5.496 88.266,7.330 90.731 C 9.164 93.197,10.867 95.470,11.115 95.783 C 11.798 96.644,27.379 117.243,37.726 130.964 C 42.770 137.652,47.474 143.835,48.179 144.703 C 48.885 145.571,49.404 146.428,49.334 146.608 C 49.181 146.997,32.852 171.478,32.565 171.749 C 32.456 171.852,27.315 179.507,21.141 188.759 C 14.967 198.012,7.931 208.525,5.506 212.122 C 3.081 215.719,1.180 218.881,1.283 219.148 C 1.612 220.006,49.475 219.845,50.229 218.984 C 50.810 218.321,52.147 215.826,58.096 204.303 C 59.955 200.702,61.602 197.587,61.755 197.381 C 62.809 195.967,68.218 185.873,69.781 182.401 C 71.718 178.100,72.965 176.776,72.965 179.020 C 72.965 180.511,77.452 189.501,81.617 196.354 C 83.650 199.700,85.313 202.501,85.313 202.579 C 85.313 202.657,86.408 204.508,87.746 206.693 C 89.083 208.878,90.178 210.742,90.178 210.835 C 90.178 211.256,94.840 218.761,95.364 219.184 C 96.318 219.953,144.388 219.827,144.684 219.054 C 144.851 218.620,127.944 192.589,126.841 191.581 C 126.728 191.478,122.314 184.911,117.031 176.988 C 111.748 169.065,105.061 159.063,102.170 154.763 C 99.278 150.462,96.913 146.748,96.913 146.509 C 96.913 146.138,100.479 141.365,108.423 131.104 C 109.398 129.844,111.079 127.655,112.158 126.240 C 118.539 117.868,120.446 115.378,127.316 106.455 C 134.786 96.751,139.463 90.603,142.317 86.736 C 143.790 84.740,145.205 83.098,145.462 83.087 C 145.833 83.072,145.948 97.111,146.023 151.450 L 146.118 219.832 167.015 220.019 C 178.508 220.122,188.087 220.097,188.303 219.964 C 188.567 219.800,188.707 212.979,188.734 199.010 L 188.775 178.297 204.303 178.067 C 226.533 177.737,232.607 176.805,240.860 172.458 C 250.664 167.295,259.391 156.291,261.720 146.157 C 262.266 143.781,262.606 146.099,262.786 153.414 C 263.820 195.568,290.733 222.451,331.899 222.451 C 340.428 222.451,342.306 222.259,349.111 220.693 C 373.870 214.993,391.960 196.441,397.563 171.001 C 397.903 169.457,398.334 167.521,398.521 166.698 C 401.393 154.054,399.527 133.156,394.246 118.803 C 384.084 91.185,353.750 74.044,322.732 78.392 M336.877 113.237 C 350.979 116.422,358.166 132.546,356.251 156.703 C 354.736 175.817,348.477 186.126,336.811 188.722 C 325.881 191.154,315.711 186.372,310.665 176.427 C 305.240 165.736,304.411 143.455,308.945 130.215 C 313.413 117.169,324.485 110.439,336.877 113.237 M211.272 116.472 C 219.257 118.333,222.526 122.801,222.207 131.416 C 221.979 137.577,219.573 141.336,214.563 143.355 C 212.392 144.229,212.114 144.247,200.561 144.247 L 188.775 144.247 188.708 130.408 C 188.663 121.102,188.772 116.412,189.039 116.090 C 189.607 115.405,208.054 115.723,211.272 116.472 " stroke="none" fill="#d40404" fill-rule="evenodd"></path><path id="path1" d="M0.255 234.481 C -0.106 234.843,-0.052 303.922,0.310 304.493 C 0.546 304.865,5.940 304.943,26.029 304.867 L 51.450 304.771 51.532 297.661 C 51.577 293.751,51.628 290.047,51.645 289.429 C 51.671 288.483,51.926 288.810,53.270 291.514 C 57.688 300.401,63.707 304.591,74.275 306.139 C 77.169 306.563,83.631 306.292,85.682 305.661 C 94.966 302.805,100.185 298.649,103.247 291.674 C 103.698 290.645,104.291 289.298,104.565 288.681 C 105.464 286.649,105.893 284.909,105.893 283.300 C 105.893 280.867,106.502 281.795,106.776 284.647 C 107.558 292.772,112.313 298.472,120.841 301.507 C 126.524 303.530,135.256 301.835,139.538 297.879 C 141.595 295.979,141.615 296.002,141.482 300.194 C 141.203 309.008,139.534 311.319,133.446 311.319 C 129.070 311.319,127.132 309.931,126.315 306.212 C 126.139 305.409,125.798 304.988,125.236 304.883 C 124.608 304.766,111.419 304.807,108.567 304.935 C 107.669 304.976,108.766 310.761,110.187 313.478 C 111.155 315.329,114.812 319.177,115.604 319.177 C 115.824 319.177,116.718 319.501,117.591 319.898 C 120.441 321.193,138.669 322.011,143.312 321.053 C 151.873 319.285,156.367 315.385,158.953 307.481 L 159.963 304.397 159.963 279.326 L 159.963 254.256 150.465 254.156 L 140.968 254.056 141.223 256.308 C 141.363 257.546,141.425 258.559,141.360 258.559 C 141.295 258.559,140.216 257.591,138.963 256.408 C 135.383 253.028,133.159 252.198,127.680 252.198 C 125.595 252.198,123.503 252.349,123.030 252.534 C 122.557 252.718,121.413 253.094,120.486 253.370 C 113.726 255.380,107.567 263.908,106.783 272.345 C 106.551 274.845,105.893 276.514,105.893 274.604 C 105.893 273.191,104.133 268.332,102.452 265.108 C 100.653 261.655,94.312 255.273,92.610 255.203 C 92.404 255.194,91.811 254.965,91.291 254.694 C 81.482 249.575,65.487 252.288,57.998 260.342 C 52.298 266.472,51.076 269.875,51.076 279.611 L 51.076 286.258 36.483 286.160 L 21.890 286.062 21.703 260.243 L 21.515 234.425 11.013 234.325 C 5.236 234.271,0.396 234.341,0.255 234.481 M249.392 238.989 C 246.922 241.391,242.587 245.640,239.758 248.432 L 234.614 253.508 234.676 267.819 C 234.735 281.279,234.622 283.621,233.997 281.906 C 233.718 281.139,231.831 278.550,230.891 277.643 C 228.528 275.363,224.659 273.718,217.587 271.985 C 216.763 271.784,215.332 271.389,214.406 271.110 C 213.480 270.830,211.841 270.486,210.765 270.346 C 205.957 269.720,203.387 267.881,204.286 265.711 C 205.820 262.006,213.850 262.515,215.206 266.404 L 215.592 267.512 223.886 267.620 C 233.882 267.749,233.206 267.891,232.918 265.716 C 232.132 259.769,226.913 253.995,221.515 253.103 C 220.795 252.983,219.869 252.749,219.457 252.582 C 214.335 250.499,199.863 251.290,193.826 253.983 C 190.062 255.662,186.150 259.766,185.706 262.503 C 185.592 263.208,185.267 263.978,184.985 264.212 C 184.269 264.806,184.286 270.262,185.008 271.598 C 185.303 272.144,185.638 273.034,185.752 273.575 C 186.621 277.694,193.048 281.379,202.993 283.462 C 204.640 283.807,206.660 284.305,207.484 284.569 C 208.307 284.833,209.738 285.254,210.664 285.505 C 214.613 286.575,215.529 287.314,215.529 289.429 C 215.529 292.033,213.353 293.359,209.086 293.357 C 205.312 293.355,202.806 291.619,202.806 289.007 C 202.806 288.651,202.605 287.804,202.359 287.124 L 201.912 285.888 193.098 285.788 L 184.284 285.688 184.187 269.504 L 184.089 253.321 174.405 253.321 C 165.919 253.321,164.692 253.394,164.493 253.913 C 164.024 255.133,164.239 303.659,164.715 304.135 C 165.189 304.609,182.319 304.812,183.505 304.357 C 184.013 304.162,184.097 303.220,184.097 297.725 C 184.097 290.986,184.358 290.400,185.675 294.178 C 187.148 298.404,192.457 303.066,197.194 304.293 C 201.059 305.294,202.471 305.432,209.167 305.465 C 217.428 305.506,220.406 305.023,225.157 302.871 C 227.717 301.712,231.993 298.265,231.993 297.362 C 231.993 297.154,232.387 296.463,232.869 295.826 C 233.351 295.189,233.861 294.198,234.002 293.624 C 234.271 292.532,234.986 292.563,234.986 293.666 C 234.986 295.890,237.542 300.559,239.631 302.153 C 243.045 304.757,245.308 305.146,256.965 305.136 C 269.807 305.125,268.514 305.984,268.358 297.568 L 268.239 291.113 263.493 291.105 C 254.627 291.090,254.504 290.907,254.578 277.830 L 254.630 268.475 261.479 268.288 L 268.328 268.101 268.325 261.214 C 268.324 257.427,268.184 254.190,268.015 254.021 C 267.846 253.852,264.765 253.667,261.169 253.611 L 254.630 253.508 254.556 244.160 C 254.515 239.018,254.347 234.769,254.182 234.716 C 254.017 234.664,251.862 236.586,249.392 238.989 M365.201 252.070 C 353.850 253.166,347.586 258.580,347.304 267.540 C 347.005 277.030,352.460 281.719,366.324 283.888 C 367.044 284.000,367.808 284.232,368.022 284.403 C 368.236 284.573,369.078 284.875,369.893 285.074 C 377.372 286.897,378.323 287.556,377.764 290.533 C 377.213 293.471,372.709 294.872,368.618 293.376 C 365.948 292.400,365.130 291.168,364.756 287.558 L 364.640 286.436 346.477 286.339 L 328.313 286.242 327.019 288.210 C 323.916 292.928,317.144 293.234,313.933 288.802 C 313.319 287.953,312.816 286.981,312.816 286.642 C 312.816 286.302,312.618 285.827,312.376 285.585 C 311.756 284.964,311.780 275.301,312.408 273.340 C 314.201 267.731,317.554 265.275,321.839 266.429 C 323.398 266.849,326.286 269.434,326.286 270.410 C 326.286 270.704,326.545 271.444,326.861 272.055 L 327.435 273.166 336.496 273.066 L 345.557 272.965 345.681 271.872 C 345.750 271.271,345.515 269.840,345.160 268.692 C 341.515 256.906,329.987 250.866,314.937 252.857 C 310.463 253.449,309.192 253.889,303.932 256.670 C 300.836 258.307,294.519 266.282,294.468 268.618 C 294.460 268.951,294.214 269.645,293.920 270.159 C 293.625 270.674,293.379 271.558,293.372 272.123 C 293.357 273.231,292.620 273.586,292.595 272.498 C 292.586 272.138,292.544 267.717,292.501 262.675 L 292.423 253.508 282.694 253.508 L 272.965 253.508 272.862 278.204 C 272.805 291.787,272.851 303.279,272.963 303.742 L 273.167 304.584 282.296 304.584 C 287.318 304.584,291.698 304.479,292.030 304.352 C 292.563 304.148,292.631 303.100,292.609 295.465 C 292.596 290.705,292.590 286.600,292.597 286.342 C 292.618 285.560,293.358 285.821,293.358 286.610 C 293.358 288.569,296.213 294.041,299.458 298.300 C 303.800 304.001,317.272 307.329,328.157 305.389 C 337.021 303.810,343.125 298.654,345.403 290.822 C 345.991 288.799,346.605 288.978,346.933 291.270 C 347.551 295.586,350.284 299.634,354.419 302.354 C 361.923 307.292,380.163 307.247,389.018 302.270 C 399.278 296.503,399.358 279.899,389.149 275.153 C 386.074 273.724,385.754 273.606,383.723 273.153 C 382.694 272.924,381.179 272.576,380.355 272.381 C 379.532 272.186,377.865 271.851,376.650 271.637 C 375.435 271.422,374.173 271.110,373.844 270.942 C 373.515 270.774,372.443 270.532,371.462 270.404 C 365.882 269.676,364.454 265.403,369.261 263.816 C 372.683 262.687,376.187 263.841,377.466 266.518 L 378.318 268.302 386.821 268.202 L 395.323 268.101 395.204 266.263 C 394.904 261.622,391.876 256.956,387.839 254.914 C 384.284 253.116,383.598 252.932,377.736 252.198 C 375.216 251.883,367.916 251.808,365.201 252.070 M82.846 267.467 C 88.016 271.033,88.871 284.850,84.248 290.137 C 81.925 292.794,75.797 292.916,73.409 290.353 C 69.948 286.638,69.690 272.928,73.002 268.718 C 75.227 265.889,79.729 265.317,82.846 267.467 M136.314 267.020 C 141.476 269.617,143.814 278.932,140.808 284.923 C 137.836 290.849,128.213 289.813,125.979 283.327 C 122.801 274.104,129.473 263.578,136.314 267.020 " stroke="none" fill="#040404" fill-rule="evenodd"></path></g></svg>