<svg id="svg" xmlns="http://www.w3.org/2000/svg"  width="400" height="400" viewBox="0, 0, 400,400"><g id="svgg"><path id="path0" d="M191.167 0.099 C 190.754 0.132,188.992 0.241,187.250 0.341 C 91.300 5.842,11.974 81.333,1.178 177.417 C -12.900 302.717,90.559 409.465,216.333 399.410 C 312.960 391.685,390.339 315.114,399.237 218.417 C 399.842 211.844,399.917 209.817,399.917 200.000 C 399.917 190.180,399.841 188.138,399.236 181.583 C 396.450 151.391,387.129 122.895,371.569 97.000 C 368.602 92.063,369.080 92.574,366.572 91.663 C 365.386 91.233,364.399 90.894,364.377 90.910 C 364.036 91.165,367.714 100.522,368.992 102.649 C 394.007 144.291,401.922 217.189,385.796 257.417 C 385.245 258.792,383.721 262.129,382.410 264.833 C 381.099 267.537,379.564 270.911,378.999 272.329 C 376.540 278.503,369.463 293.184,365.603 300.115 C 362.060 306.479,358.035 312.176,353.113 317.796 C 352.172 318.871,350.581 320.762,349.577 322.000 C 301.538 381.213,222.225 406.445,148.333 386.023 C 76.328 366.121,17.839 303.092,8.265 235.077 C 6.337 221.388,6.298 195.276,8.179 178.333 C 10.076 161.243,14.321 144.554,21.993 124.017 C 27.141 110.238,33.919 97.179,40.714 87.950 C 42.322 85.767,42.380 85.780,41.400 88.098 C 37.555 97.196,29.478 120.160,27.278 128.250 C 20.457 153.333,19.856 186.053,25.428 229.000 C 27.297 243.405,32.467 263.002,36.995 272.847 C 37.413 273.756,37.381 273.618,36.331 270.000 C 32.681 257.419,28.219 236.170,26.427 222.833 C 23.947 204.378,23.358 182.770,24.743 161.029 C 25.001 156.978,25.075 156.666,25.233 158.954 C 25.653 165.008,26.650 174.420,27.507 180.417 C 28.049 184.208,29.185 190.704,29.288 190.601 C 29.323 190.566,29.275 189.348,29.181 187.894 C 26.667 148.916,32.160 116.071,43.162 104.289 C 44.686 102.657,44.836 102.665,43.840 104.322 C 42.046 107.308,40.225 112.242,38.580 118.583 C 34.412 134.643,30.981 183.515,32.935 198.991 C 33.617 204.389,34.468 205.782,36.781 205.281 C 43.286 203.869,47.406 197.032,48.902 185.167 C 49.971 176.693,49.926 167.397,48.723 148.250 C 47.656 131.267,47.884 125.839,49.703 124.898 C 51.045 124.204,52.853 125.567,53.435 127.713 C 54.031 129.909,53.957 132.136,52.918 143.250 C 50.190 172.435,51.189 188.372,57.836 221.667 C 61.389 239.463,65.212 254.411,69.262 266.341 C 70.920 271.222,71.304 272.168,71.322 271.409 C 71.352 270.092,69.833 255.320,69.094 249.750 C 68.960 248.742,68.437 246.079,67.932 243.833 C 62.194 218.325,59.443 195.983,57.999 163.167 C 57.452 150.742,57.719 135.395,58.593 128.917 L 58.683 128.250 55.454 126.147 C 52.341 124.121,52.168 124.032,50.654 123.697 C 48.560 123.234,47.122 122.784,47.051 122.569 C 47.019 122.472,48.179 120.524,49.629 118.238 C 51.180 115.795,54.074 110.787,56.655 106.083 C 62.282 95.826,61.912 96.474,62.407 96.009 C 63.105 95.354,62.895 95.320,61.889 95.926 C 59.199 97.546,59.669 96.302,63.497 91.667 C 65.387 89.378,65.490 89.145,63.939 90.662 C 62.507 92.064,62.419 92.062,63.250 90.644 C 63.967 89.421,63.967 89.459,63.224 89.105 L 62.615 88.814 61.855 89.699 C 59.650 92.265,56.279 95.409,53.999 97.026 C 48.038 101.256,48.282 97.609,54.608 87.943 C 55.380 86.763,56.028 85.728,56.047 85.641 C 56.067 85.555,54.905 84.864,53.464 84.107 L 50.846 82.730 53.083 80.216 C 65.377 66.401,88.618 53.971,116.583 46.253 C 118.142 45.823,121.067 44.921,123.083 44.249 C 133.567 40.756,144.523 37.652,154.232 35.424 C 154.998 35.249,153.933 35.746,149.225 37.764 C 146.461 38.948,144.221 39.939,144.247 39.966 C 144.273 39.994,145.896 39.754,147.855 39.434 C 186.506 33.116,233.437 32.504,262.907 37.934 C 292.750 43.432,311.674 55.481,314.675 70.895 L 314.865 71.874 323.640 76.201 L 332.414 80.528 334.915 80.411 C 336.291 80.347,337.691 80.247,338.026 80.189 L 338.635 80.083 336.782 77.917 C 316.003 53.626,280.970 36.194,240.667 30.093 C 200.649 24.036,146.239 28.423,109.667 40.656 C 84.294 49.142,67.077 60.165,51.467 77.917 C 46.428 83.647,44.909 84.898,48.583 80.290 C 50.690 77.649,51.048 77.119,50.274 77.792 C 49.844 78.165,50.592 77.105,52.410 74.764 C 56.923 68.952,63.254 62.558,69.333 57.673 C 70.296 56.900,72.321 55.206,73.833 53.909 C 156.565 -17.035,281.086 -6.221,349.457 77.845 L 351.161 79.940 353.996 80.725 C 355.556 81.157,356.928 81.547,357.045 81.592 C 357.192 81.648,357.457 81.070,357.893 79.745 L 358.528 77.817 356.222 74.952 C 320.906 31.062,270.811 4.772,214.167 0.399 C 211.005 0.154,193.363 -0.075,191.167 0.099 M179.750 49.778 C 176.328 49.913,171.390 50.193,170.000 50.331 C 169.129 50.417,166.917 50.607,165.083 50.753 C 149.212 52.016,130.189 55.985,115.583 61.081 C 107.484 63.907,105.317 64.905,100.681 67.947 C 98.522 69.365,91.958 73.891,91.083 74.566 C 90.900 74.708,92.813 73.789,95.333 72.526 C 125.612 57.344,161.735 50.711,203.500 52.663 C 267.425 55.650,306.046 68.205,323.744 91.750 C 330.051 100.141,331.435 103.752,333.661 117.624 C 335.231 127.411,337.629 130.318,343.778 129.892 C 348.486 129.566,349.894 134.071,351.837 155.667 C 353.223 171.061,353.266 171.287,356.010 177.195 C 359.702 185.144,359.663 185.076,360.834 185.667 C 361.384 185.944,361.833 186.137,361.833 186.094 C 361.833 186.051,362.208 179.672,362.667 171.917 C 363.678 154.808,363.703 151.566,362.908 141.333 C 361.803 127.118,359.167 115.208,355.479 107.774 C 354.776 106.358,353.434 104.000,353.333 104.005 C 353.287 104.008,351.526 108.090,349.419 113.077 C 347.312 118.064,345.564 122.120,345.534 122.090 C 345.505 122.060,346.910 117.569,348.657 112.110 C 350.404 106.650,351.833 102.096,351.833 101.988 C 351.833 101.061,344.135 93.536,342.667 93.028 C 342.047 92.814,338.692 94.249,338.445 94.833 C 338.185 95.451,338.244 99.852,338.555 103.000 C 338.704 104.513,338.877 106.707,338.939 107.876 L 339.051 110.002 338.526 109.897 C 336.850 109.562,335.821 111.741,336.079 115.083 C 336.152 116.035,336.047 115.706,335.509 113.303 C 334.081 106.917,332.453 101.285,331.267 98.629 L 330.841 97.675 330.064 98.008 C 329.047 98.444,328.954 98.326,329.914 97.817 C 330.835 97.328,330.850 97.510,329.741 95.742 C 311.606 66.857,271.412 52.625,200.083 49.833 C 196.411 49.689,182.919 49.653,179.750 49.778 M189.917 62.780 C 162.075 63.422,137.958 66.516,117.425 72.079 C 85.720 80.669,75.725 88.359,70.751 107.994 C 67.148 122.218,66.178 150.982,68.430 176.833 C 70.367 199.068,72.598 212.991,79.021 242.917 C 83.981 266.022,87.105 277.767,93.166 296.083 C 94.349 299.658,95.592 303.521,95.928 304.667 C 100.311 319.627,106.165 325.485,125.565 334.323 C 135.121 338.677,152.905 343.024,168.167 344.736 C 181.715 346.256,205.754 347.112,215.333 346.416 C 241.886 344.486,258.470 340.874,276.927 332.998 C 292.747 326.248,297.974 321.283,302.545 308.667 C 308.943 291.009,314.950 271.284,318.585 256.000 C 322.236 240.648,326.489 218.584,328.816 202.917 C 332.737 176.526,333.633 156.475,332.079 129.917 C 330.235 98.395,324.092 87.537,303.333 79.111 C 275.773 67.925,233.121 61.783,189.917 62.780 M338.893 83.769 C 340.805 84.732,342.398 85.491,342.433 85.456 C 342.589 85.299,340.600 82.657,340.273 82.588 C 339.831 82.494,335.795 81.997,335.576 82.009 C 335.488 82.014,336.981 82.806,338.893 83.769 M342.160 107.890 C 342.353 109.830,342.555 111.717,342.611 112.083 L 342.711 112.750 342.214 112.285 L 341.717 111.819 341.615 108.701 C 341.559 106.986,341.391 104.308,341.242 102.750 C 340.929 99.488,340.847 96.068,341.069 95.583 C 341.173 95.357,341.316 96.709,341.517 99.807 C 341.678 102.313,341.968 105.951,342.160 107.890 M362.833 102.583 C 364.888 105.746,367.753 112.207,369.966 118.667 C 372.376 125.698,375.066 134.845,374.918 135.500 C 374.842 135.833,374.860 135.866,375.008 135.667 C 375.156 135.467,375.178 135.508,375.120 135.870 C 375.076 136.146,375.113 136.283,375.215 136.220 C 375.321 136.155,375.340 136.284,375.268 136.572 C 375.184 136.905,375.207 136.995,375.353 136.905 C 375.494 136.817,375.524 136.891,375.454 137.157 C 375.400 137.364,375.407 137.481,375.470 137.418 C 375.532 137.355,376.196 139.766,376.945 142.776 C 377.695 145.787,378.313 148.084,378.320 147.880 C 378.343 147.221,377.510 140.999,376.986 137.917 C 374.405 122.740,369.891 111.045,363.559 103.123 C 362.005 101.179,361.842 101.058,362.833 102.583 M149.895 127.708 C 149.950 127.915,149.996 132.396,149.998 137.667 L 150.000 147.250 139.000 147.193 L 128.000 147.136 128.000 171.818 L 128.000 196.500 136.417 196.500 L 144.833 196.500 144.833 206.417 L 144.833 216.333 136.417 216.333 L 128.000 216.333 127.998 220.625 C 127.996 222.985,128.082 237.088,128.187 251.963 C 128.293 266.838,128.339 279.050,128.290 279.099 C 128.196 279.193,108.309 279.198,108.216 279.104 C 108.186 279.075,107.977 272.383,107.750 264.234 C 107.165 243.250,105.621 186.519,104.841 157.417 C 104.478 143.850,104.132 131.531,104.073 130.042 L 103.965 127.333 126.879 127.333 L 149.794 127.333 149.895 127.708 M181.577 154.958 C 181.245 256.278,181.152 279.055,181.071 279.186 C 180.944 279.393,160.548 279.379,160.420 279.172 C 160.365 279.083,160.099 265.977,159.829 250.047 C 158.661 181.261,157.833 131.184,157.833 129.330 L 157.833 127.333 169.751 127.333 L 181.668 127.333 181.577 154.958 M239.831 128.792 C 253.477 156.996,259.087 198.637,258.181 264.997 C 258.075 272.742,257.931 279.136,257.860 279.207 C 257.789 279.278,253.572 279.317,248.490 279.293 L 239.250 279.250 239.138 270.500 C 238.782 242.623,237.913 221.821,236.902 216.958 L 236.807 216.500 225.346 216.500 L 213.885 216.500 213.764 247.785 C 213.697 264.992,213.606 279.130,213.561 279.202 C 213.446 279.389,194.541 279.368,194.426 279.182 C 194.329 279.024,194.016 254.010,193.177 179.417 C 192.906 155.308,192.645 133.727,192.595 131.458 L 192.506 127.333 215.815 127.333 L 239.125 127.333 239.831 128.792 M311.833 136.917 L 311.833 146.500 303.764 146.500 L 295.695 146.500 295.604 147.708 C 295.555 148.373,295.324 155.142,295.092 162.750 C 294.301 188.653,291.507 275.576,291.406 277.417 L 291.305 279.250 281.333 279.250 C 275.849 279.250,271.312 279.201,271.251 279.140 C 271.143 279.032,271.396 191.188,271.590 161.625 L 271.689 146.500 263.428 146.500 L 255.167 146.500 255.167 136.917 L 255.167 127.333 283.500 127.333 L 311.833 127.333 311.833 136.917 M353.818 139.136 C 354.357 140.193,354.414 141.221,354.074 143.750 C 353.731 146.305,353.633 146.316,353.345 143.833 C 353.234 142.871,352.961 141.001,352.738 139.679 C 352.515 138.356,352.333 137.202,352.333 137.113 C 352.333 136.866,353.405 138.326,353.818 139.136 M213.111 164.194 C 213.050 174.109,213.000 185.678,213.000 189.903 L 213.000 197.583 224.508 197.586 L 236.016 197.590 235.929 197.003 C 235.881 196.681,235.761 195.667,235.662 194.750 C 233.509 174.818,230.137 158.962,225.915 148.917 C 225.491 147.908,225.067 146.877,224.973 146.625 L 224.801 146.167 219.011 146.167 L 213.222 146.167 213.111 164.194 M378.918 152.917 C 378.964 153.650,379.090 155.637,379.198 157.333 C 379.419 160.812,379.438 176.309,379.222 177.549 L 379.083 178.348 374.250 172.740 C 371.592 169.656,369.283 166.971,369.121 166.774 L 368.825 166.417 368.906 166.833 C 368.950 167.063,369.068 168.712,369.168 170.500 C 369.267 172.287,369.530 176.600,369.753 180.083 C 371.724 210.992,369.806 225.450,361.131 245.083 C 357.882 252.437,355.489 258.348,354.889 260.500 C 349.384 280.262,343.136 295.292,335.006 308.333 C 334.120 309.754,332.772 312.004,332.010 313.333 C 329.520 317.680,326.893 321.099,325.080 322.351 C 324.895 322.479,324.040 323.397,323.179 324.391 C 322.319 325.386,321.026 326.821,320.307 327.581 C 319.304 328.641,319.000 329.073,318.998 329.439 C 318.993 330.919,316.116 334.916,312.643 338.267 C 299.298 351.147,277.064 360.752,250.578 365.077 C 248.564 365.406,245.454 365.936,243.667 366.254 C 209.134 372.409,164.409 371.200,132.025 363.239 C 85.069 351.694,56.356 326.551,40.585 283.167 C 40.068 281.746,39.135 279.608,38.511 278.417 C 34.063 269.919,27.514 255.076,24.666 247.038 C 23.899 244.873,23.917 245.106,24.832 249.168 C 28.396 264.991,33.244 279.929,38.625 291.667 C 39.403 293.362,40.355 295.614,40.741 296.670 C 42.428 301.282,50.833 313.836,57.420 321.583 C 63.196 328.377,65.962 330.858,70.167 333.019 C 73.982 334.981,73.557 334.644,74.262 336.266 C 75.786 339.772,79.041 343.906,81.651 345.650 C 109.042 363.959,146.060 373.322,191.083 373.330 C 242.344 373.339,283.680 362.233,312.460 340.720 C 327.661 329.358,339.798 314.166,344.593 300.501 C 345.065 299.156,344.960 298.695,345.934 306.417 C 346.362 309.808,346.758 312.631,346.814 312.689 C 347.064 312.945,353.109 306.009,355.983 302.167 C 371.464 281.476,380.353 251.945,384.503 207.417 C 385.618 195.458,385.744 189.809,385.011 184.750 C 383.759 176.115,381.711 164.652,379.914 156.223 C 378.865 151.301,378.802 151.092,378.918 152.917 M357.811 173.961 C 360.426 180.566,360.982 183.970,358.702 179.415 C 357.969 177.951,356.167 171.430,356.167 170.243 C 356.167 169.898,356.506 170.666,357.811 173.961 M45.086 257.019 C 47.447 267.949,56.374 292.767,60.395 299.583 C 62.299 302.811,63.244 303.021,64.073 300.399 C 65.625 295.485,69.581 295.895,75.667 301.601 C 76.446 302.331,77.571 303.313,78.167 303.782 C 80.608 305.704,83.153 308.722,84.950 311.826 C 89.404 319.520,91.996 323.295,96.244 328.275 C 104.489 337.942,117.527 347.561,126.333 350.474 C 134.607 353.211,144.180 355.114,154.500 356.073 C 158.799 356.473,167.330 356.951,167.167 356.782 C 167.121 356.735,165.454 356.428,163.462 356.100 C 132.950 351.073,109.751 341.289,100.591 329.583 C 97.039 325.044,91.397 314.596,87.135 304.667 C 86.683 303.612,86.111 302.536,85.865 302.275 C 84.589 300.924,80.012 298.322,77.420 297.475 L 76.256 297.094 76.836 296.972 C 77.156 296.905,78.043 296.730,78.808 296.584 C 81.468 296.073,83.178 295.156,82.929 294.372 C 82.863 294.165,82.097 293.542,81.116 292.900 C 80.181 292.287,77.939 290.745,76.133 289.472 L 72.850 287.158 73.203 286.537 C 73.698 285.666,74.288 285.059,74.876 284.816 L 75.379 284.607 73.542 283.741 L 71.705 282.875 71.642 278.307 L 71.578 273.739 69.893 271.328 C 65.886 265.593,59.045 256.399,58.896 256.548 C 58.636 256.809,59.733 263.357,60.269 264.742 C 60.342 264.932,59.876 264.628,59.156 264.018 C 56.331 261.623,51.574 258.895,47.400 257.274 C 45.011 256.347,44.939 256.339,45.086 257.019 M105.629 329.608 C 106.255 330.496,109.053 333.035,110.437 333.971 C 111.736 334.850,111.741 334.852,110.920 334.138 C 110.463 333.741,109.421 332.817,108.604 332.083 C 107.787 331.350,106.700 330.375,106.188 329.917 C 105.449 329.254,105.334 329.190,105.629 329.608 " stroke="none" fill-rule="evenodd"></path></g></svg>