<svg id="svg" xmlns="http://www.w3.org/2000/svg"  width="400" height="400" viewBox="0, 0, 400,400"><g id="svgg"><path id="path0" d="M81.157 169.361 C 77.782 171.193,78.224 178.615,81.783 179.867 C 82.889 180.256,92.289 175.860,95.170 173.607 C 96.503 172.565,95.943 170.268,94.127 169.329 C 92.540 168.508,82.684 168.533,81.157 169.361 M145.659 169.336 C 144.387 170.027,143.455 172.092,144.006 172.995 C 144.516 173.830,156.199 180.061,157.272 180.071 C 161.094 180.105,162.368 171.650,158.863 169.512 C 157.259 168.534,147.377 168.402,145.659 169.336 M112.738 172.653 C 75.149 177.401,64.691 211.470,96.241 226.391 C 123.878 239.462,161.677 225.344,161.714 201.938 C 161.743 183.856,137.726 169.496,112.738 172.653 M204.535 172.681 C 181.091 175.401,165.131 191.823,170.202 208.008 C 176.470 228.013,210.565 237.363,233.789 225.445 C 235.723 224.452,237.437 223.580,237.598 223.506 C 237.759 223.433,237.891 223.651,237.891 223.992 C 237.891 224.333,238.726 225.474,239.746 226.527 C 242.731 229.609,246.324 230.085,248.943 227.746 L 250.195 226.627 250.308 213.897 L 250.421 201.167 249.447 200.193 L 248.473 199.219 233.319 199.231 C 222.022 199.240,218.006 199.365,217.544 199.719 C 216.411 200.590,216.016 201.875,216.016 204.688 C 216.016 209.409,216.774 210.127,221.777 210.144 C 225.876 210.158,226.032 210.328,223.745 212.285 C 215.401 219.427,199.625 217.219,195.231 208.293 C 187.417 192.420,210.810 179.108,223.958 191.945 L 226.097 194.033 236.258 194.319 C 249.404 194.689,250.429 194.257,247.812 189.450 C 241.479 177.814,222.771 170.565,204.535 172.681 M268.084 173.870 C 265.508 174.615,265.625 173.305,265.625 201.480 C 265.625 228.550,265.592 228.074,267.570 229.098 C 269.567 230.130,325.650 229.970,327.696 228.926 C 331.428 227.022,331.634 218.992,328.008 216.781 C 326.814 216.053,325.916 216.018,308.105 216.017 L 289.453 216.016 289.453 211.914 L 289.453 207.813 303.502 207.813 C 321.344 207.813,321.484 207.762,321.484 201.385 C 321.484 194.878,321.605 194.922,303.730 194.922 L 289.453 194.922 289.453 191.016 L 289.453 187.109 306.934 187.101 C 323.101 187.093,324.534 187.038,326.006 186.369 C 330.590 184.287,329.875 175.176,325.022 173.828 C 323.228 173.329,269.817 173.369,268.084 173.870 M347.023 173.999 C 344.400 175.140,344.531 173.696,344.531 201.474 C 344.531 229.148,344.467 228.399,346.921 229.255 C 348.919 229.951,395.332 229.853,397.017 229.149 C 399.449 228.133,400.000 226.940,400.000 222.690 C 400.000 215.872,400.377 216.016,382.441 216.016 L 368.359 216.016 368.359 196.181 C 368.359 174.186,368.466 175.104,365.782 173.982 C 363.952 173.218,348.786 173.231,347.023 173.999 M1.029 174.638 L 0.000 175.447 0.000 201.559 C 0.000 215.920,0.109 227.955,0.243 228.303 C 0.832 229.838,2.332 230.078,11.339 230.078 L 19.982 230.078 21.124 228.936 L 22.266 227.794 22.266 221.513 L 22.266 215.232 27.389 211.155 L 32.512 207.079 41.715 217.601 C 53.439 231.005,51.816 230.078,63.553 230.078 C 71.745 230.078,72.312 230.031,73.047 229.297 C 74.550 227.794,75.762 229.426,58.279 209.409 L 46.539 195.966 54.002 190.073 C 70.341 177.172,71.680 176.030,71.680 174.995 L 71.680 174.023 60.547 174.023 C 46.695 174.023,48.813 173.155,33.957 184.924 L 22.461 194.031 22.266 184.676 C 22.015 172.665,23.207 173.828,11.142 173.828 C 2.544 173.828,2.003 173.871,1.029 174.638 M124.339 188.083 C 135.958 191.109,140.289 202.688,132.798 210.696 C 123.020 221.148,103.652 215.904,102.829 202.580 C 102.221 192.738,113.368 185.225,124.339 188.083 " stroke="none" fill="#E3051C" fill-rule="evenodd"></path></g></svg>