<?xml version="1.0" encoding="UTF-8" standalone="no"?>
<svg
   xmlns="http://www.w3.org/2000/svg"
   version="1.1"
   viewBox="0, 0, 400,400"
   height="400"
   width="400"
   id="svg">
  <g
     id="svgg">
    <path
       style="fill-rule:evenodd;stroke:none;stroke-width:4.56618547"
       d="M 24.22342,59.890888 C 8.8125439,68.25614 10.830798,102.14637 27.081852,107.86323 32.132053,109.63948 75.054197,89.566527 88.209378,79.278911 94.296103,74.520946 91.739039,64.032418 83.446846,59.74477 76.20031,55.995931 31.195985,56.110086 24.22342,59.890888 m 294.5281,-0.114155 c -5.80819,3.155234 -10.06387,12.584407 -7.54791,16.707673 2.32876,3.812765 55.6755,32.264664 60.57502,32.310324 17.45196,0.15525 23.26928,-38.451844 7.2648,-48.214348 -7.32416,-4.46573 -52.44721,-5.068466 -60.29191,-0.803649 M 168.42812,74.92277 C -3.2102226,96.603019 -50.963391,252.16839 93.099762,320.30045 219.29543,379.98506 391.89268,315.51965 392.06163,208.64351 392.19405,126.07775 282.52797,60.507323 168.42812,74.92277 m 52.97232,70.45624 c 53.05451,13.81728 72.83066,66.68914 38.62537,103.25516 -44.64817,47.72577 -133.08605,23.78069 -136.84402,-37.05917 -2.77624,-44.94039 48.12303,-79.24615 98.21865,-66.19599"
       id="path0" />
  </g>
</svg>
