<svg id="svg" xmlns="http://www.w3.org/2000/svg"  width="400" height="400" viewBox="0, 0, 400,400"><g id="svgg"><path id="path0" d="M187.200 42.148 C 158.005 43.975,126.048 56.528,101.923 75.647 C 74.494 97.384,56.431 124.902,46.711 159.760 L 45.663 163.520 38.243 163.520 C 34.162 163.520,27.558 163.615,23.567 163.731 L 16.310 163.942 13.969 167.011 C 8.679 173.945,-0.556 189.387,0.193 190.047 C 0.351 190.186,3.216 190.477,6.560 190.693 C 9.904 190.909,16.456 191.354,21.120 191.683 C 25.784 192.011,32.281 192.459,35.558 192.678 L 41.515 193.077 41.694 202.058 C 43.330 284.347,105.212 350.801,186.400 357.457 C 193.108 358.007,215.029 357.702,220.000 356.990 C 284.453 347.753,335.850 302.070,352.344 239.360 C 352.922 237.160,353.481 235.256,353.586 235.128 C 353.765 234.910,375.293 233.920,379.870 233.920 L 381.980 233.920 384.871 230.320 C 389.914 224.038,400.000 209.423,400.000 208.397 C 400.000 208.228,397.898 207.994,395.280 207.871 C 388.109 207.533,369.172 206.452,362.960 206.026 L 357.440 205.648 357.439 199.064 C 357.430 156.863,339.839 116.142,308.417 85.587 C 276.775 54.819,233.361 39.261,187.200 42.148 M213.687 46.259 C 278.095 52.359,330.072 96.194,348.365 159.840 C 348.485 160.260,347.958 159.916,346.834 158.842 C 345.891 157.941,343.392 155.862,341.280 154.223 C 332.546 147.445,331.515 146.229,322.721 132.320 C 314.902 119.954,302.080 104.147,302.080 106.874 C 302.080 107.047,303.303 108.708,304.797 110.566 C 324.058 134.509,333.957 157.667,337.349 186.720 C 337.750 190.158,337.957 211.590,337.592 211.955 C 337.431 212.115,332.921 211.931,291.680 210.083 C 281.824 209.641,260.728 208.700,244.800 207.993 C 228.872 207.286,215.726 206.672,215.586 206.629 C 215.447 206.586,220.199 205.276,226.146 203.717 L 236.960 200.883 240.480 201.086 C 242.416 201.198,252.424 201.787,262.720 202.396 C 273.016 203.004,291.376 204.077,303.520 204.779 C 315.664 205.481,326.591 206.136,327.801 206.234 L 330.003 206.412 329.823 196.566 C 328.340 115.634,253.133 55.856,173.100 71.994 C 127.905 81.107,92.252 112.832,75.815 158.560 L 73.974 163.680 69.867 165.458 C 67.608 166.435,65.521 167.326,65.228 167.437 C 64.771 167.610,64.831 167.133,65.655 164.059 C 69.586 149.385,76.251 134.899,85.012 121.988 C 87.595 118.181,87.985 117.440,87.406 117.440 C 86.765 117.440,81.524 123.349,78.891 127.040 C 73.243 134.957,71.375 136.868,65.440 140.803 C 62.123 143.001,58.274 145.894,55.760 148.077 C 54.660 149.033,53.760 149.718,53.760 149.601 C 53.760 148.204,61.026 131.795,64.358 125.666 C 93.503 72.067,152.869 40.499,213.687 46.259 M170.243 52.422 C 165.730 53.328,164.304 53.730,164.229 54.117 C 164.153 54.514,166.059 64.959,166.899 68.743 C 167.076 69.540,167.267 69.541,170.363 68.750 L 171.606 68.432 171.406 66.616 C 171.295 65.617,171.122 64.503,171.021 64.139 C 170.848 63.521,171.102 63.431,174.938 62.746 C 182.322 61.427,184.536 59.406,183.363 55.050 C 182.264 50.969,179.868 50.489,170.243 52.422 M227.361 52.560 C 226.024 56.420,223.493 67.094,223.848 67.377 C 224.081 67.563,227.380 68.539,231.180 69.547 L 238.090 71.379 239.205 70.490 C 240.719 69.282,241.002 69.451,234.554 67.705 C 229.833 66.426,228.815 66.050,228.939 65.632 C 229.023 65.350,229.259 64.436,229.464 63.600 C 229.668 62.764,229.927 62.080,230.038 62.080 C 230.149 62.081,231.868 62.517,233.857 63.051 L 237.474 64.020 238.398 63.290 C 239.763 62.212,239.558 62.070,234.833 60.823 L 230.504 59.680 231.051 57.760 C 231.352 56.704,231.724 55.863,231.879 55.892 C 232.034 55.920,234.266 56.491,236.839 57.161 L 241.519 58.378 242.718 57.463 C 244.231 56.309,244.625 56.497,235.712 54.117 C 227.801 52.004,227.569 51.961,227.361 52.560 M177.426 54.279 C 179.138 54.936,179.334 58.709,177.689 59.345 C 177.005 59.609,171.301 60.800,170.719 60.800 C 170.361 60.800,169.138 55.716,169.427 55.427 C 169.890 54.962,176.670 53.989,177.426 54.279 M210.931 73.755 C 276.425 80.029,326.400 134.586,326.400 199.810 L 326.400 203.903 324.560 203.718 C 323.548 203.617,304.864 202.514,283.040 201.266 C 261.216 200.019,242.968 198.900,242.490 198.779 C 241.690 198.578,243.662 196.944,266.693 178.720 L 291.766 158.880 288.430 158.789 C 285.332 158.705,196.384 160.372,89.760 162.513 C 76.702 162.776,78.206 162.999,78.885 160.901 C 96.996 104.883,152.625 68.169,210.931 73.755 M114.598 75.206 C 107.283 78.667,104.145 83.862,106.526 88.569 C 109.936 95.308,115.388 95.778,122.438 89.941 C 127.411 85.823,127.716 80.979,123.281 76.544 C 120.700 73.963,118.080 73.559,114.598 75.206 M285.583 77.365 C 285.050 77.737,276.480 89.134,276.480 89.472 C 276.480 90.510,287.087 97.678,288.368 97.506 C 290.715 97.191,290.541 96.872,286.288 93.710 C 284.077 92.065,282.261 90.608,282.254 90.470 C 282.246 90.333,283.968 87.925,286.080 85.120 C 290.587 79.134,290.313 79.997,288.211 78.410 C 286.449 77.080,286.158 76.964,285.583 77.365 M118.910 79.422 C 122.936 83.133,123.047 86.060,119.268 88.842 C 116.522 90.864,114.743 90.714,112.432 88.267 C 109.659 85.331,109.353 82.827,111.515 80.755 C 114.670 77.733,116.683 77.369,118.910 79.422 M281.920 161.921 C 280.952 162.238,275.688 163.951,270.222 165.729 L 260.283 168.960 164.942 168.921 C 80.419 168.887,69.999 168.830,73.120 168.422 C 104.806 164.273,94.725 164.800,169.920 163.359 C 192.888 162.918,219.240 162.404,228.480 162.216 C 237.720 162.027,250.680 161.763,257.280 161.628 C 263.880 161.494,272.520 161.375,276.480 161.364 L 283.680 161.344 281.920 161.921 M53.426 167.280 L 60.299 168.800 41.276 168.883 L 22.253 168.965 20.650 167.363 L 19.048 165.760 32.800 165.760 L 46.552 165.760 53.426 167.280 M18.509 168.536 L 19.788 170.033 18.852 171.656 C 18.338 172.549,16.513 175.751,14.798 178.771 L 11.680 184.261 7.876 185.971 C 5.784 186.911,3.954 187.726,3.810 187.782 C 3.179 188.028,9.735 176.655,12.451 172.792 C 14.500 169.878,16.750 167.040,17.011 167.040 C 17.132 167.040,17.806 167.713,18.509 168.536 M256.293 171.314 C 256.220 171.377,246.944 178.460,235.680 187.055 C 224.416 195.649,213.508 203.973,211.439 205.553 C 209.371 207.133,207.721 208.468,207.773 208.519 C 207.824 208.571,213.045 208.837,219.373 209.110 C 252.694 210.549,269.327 211.282,284.960 211.999 C 294.464 212.435,307.064 213.010,312.960 213.276 C 318.856 213.543,329.872 214.048,337.440 214.398 C 358.459 215.369,371.786 215.970,377.534 216.207 C 381.233 216.359,382.720 216.529,382.654 216.792 C 382.602 216.995,381.120 219.421,379.361 222.181 L 376.161 227.200 259.361 227.188 L 142.560 227.177 143.520 226.378 C 144.048 225.938,154.617 217.779,167.008 208.245 C 179.398 198.712,189.406 190.875,189.248 190.830 C 189.089 190.785,183.272 190.524,176.320 190.249 C 159.746 189.593,141.838 188.871,132.480 188.480 C 128.344 188.308,117.760 187.878,108.960 187.526 C 100.160 187.173,87.632 186.667,81.120 186.401 C 53.872 185.287,37.680 184.640,28.640 184.303 C 23.360 184.106,18.072 183.849,16.889 183.733 L 14.738 183.520 18.329 177.373 L 21.920 171.226 139.173 171.213 C 203.663 171.206,256.367 171.251,256.293 171.314 M65.672 192.247 L 68.960 194.400 69.022 200.480 C 69.631 259.889,109.870 311.766,166.580 326.252 C 234.485 343.598,302.518 305.867,324.208 238.830 L 325.260 235.580 330.025 233.108 C 333.676 231.214,334.748 230.777,334.612 231.238 C 334.514 231.569,334.199 232.776,333.913 233.920 C 325.288 268.374,301.380 300.419,270.720 318.621 C 180.418 372.232,67.187 311.613,61.102 206.400 C 60.615 197.982,60.973 189.339,61.791 189.776 C 62.117 189.951,63.864 191.063,65.672 192.247 M97.760 196.970 C 109.376 197.757,121.976 198.613,125.760 198.873 C 129.544 199.133,135.952 199.570,140.000 199.843 C 144.048 200.116,149.225 200.480,151.504 200.650 C 153.783 200.821,156.015 200.965,156.464 200.972 L 157.280 200.983 156.447 201.692 C 154.158 203.638,138.571 216.055,127.200 224.989 C 109.462 238.927,109.158 239.170,109.138 239.440 C 109.115 239.742,109.322 239.741,133.440 239.365 C 144.440 239.194,163.448 238.905,175.680 238.723 C 242.486 237.731,295.342 236.685,315.440 235.960 C 319.715 235.806,321.280 235.847,321.280 236.113 C 321.280 236.313,320.475 238.740,319.492 241.505 C 294.833 310.839,218.054 345.261,150.920 317.079 C 103.830 297.312,74.431 253.857,72.742 201.524 L 72.536 195.138 74.588 195.339 C 75.717 195.449,86.144 196.183,97.760 196.970 M387.440 209.638 C 391.532 209.854,394.877 210.114,394.873 210.215 C 394.869 210.317,392.601 211.273,389.833 212.341 L 384.800 214.282 380.160 214.049 C 377.608 213.920,369.976 213.574,363.200 213.279 C 356.424 212.985,349.296 212.649,347.360 212.532 L 343.840 212.320 349.760 211.563 C 353.016 211.146,358.632 210.394,362.240 209.891 C 369.517 208.876,372.434 208.847,387.440 209.638 M344.057 253.160 C 327.933 295.997,294.275 329.622,252.160 344.966 C 181.399 370.748,103.138 341.713,65.158 275.589 C 62.908 271.670,60.184 266.503,60.568 266.880 C 60.658 266.968,61.840 268.408,63.196 270.080 C 77.887 288.201,102.984 309.675,123.680 321.831 C 170.079 349.084,221.648 350.524,270.363 325.926 C 302.902 309.496,332.034 280.197,344.121 251.744 C 345.515 248.462,345.473 249.398,344.057 253.160 " stroke="none" fill-rule="evenodd"></path></g></svg>