<?xml version="1.0" encoding="UTF-8" standalone="no"?>
<svg
   xmlns="http://www.w3.org/2000/svg"
   id="svg"
   width="400"
   height="400"
   viewBox="0, 0, 400,400"
   version="1.1">
  <g
     id="svgg">
    <path
       id="path0"
       d="m 187.2,42.148 c -29.195,1.827 -61.152,14.38 -85.277,33.499 -27.429,21.737 -45.492,49.255 -55.212,84.113 l -1.048,3.76 h -7.42 c -4.081,0 -10.685,0.095 -14.676,0.211 l -7.257,0.211 -2.341,3.069 c -5.29,6.934 -14.525,22.376 -13.776,23.036 0.158,0.139 3.023,0.43 6.367,0.646 3.344,0.216 9.896,0.661 14.56,0.99 4.664,0.328 11.161,0.776 14.438,0.995 l 5.957,0.399 0.179,8.981 c 1.636,82.289 63.518,148.743 144.706,155.399 6.708,0.55 28.629,0.245 33.6,-0.467 64.453,-9.237 115.85,-54.92 132.344,-117.63 0.578,-2.2 1.137,-4.104 1.242,-4.232 0.179,-0.218 21.707,-1.208 26.284,-1.208 h 2.11 l 2.891,-3.6 C 389.914,224.038 400,209.423 400,208.397 c 0,-0.169 -2.102,-0.403 -4.72,-0.526 -7.171,-0.338 -26.108,-1.419 -32.32,-1.845 l -5.52,-0.378 -10e-4,-6.584 C 357.43,156.863 339.839,116.142 308.417,85.587 276.775,54.819 233.361,39.261 187.2,42.148 m 23.731,31.607 C 276.425,80.029 326.4,134.586 326.4,199.81 v 4.093 l -1.84,-0.185 c -1.012,-0.101 -19.696,-1.204 -41.52,-2.452 -21.824,-1.247 -40.072,-2.366 -40.55,-2.487 -0.8,-0.201 1.172,-1.835 24.203,-20.059 l 25.073,-19.84 -3.336,-0.091 c -3.098,-0.084 -92.046,1.583 -198.67,3.724 -13.058,0.263 -11.554,0.486 -10.875,-1.612 18.111,-56.018 73.74,-92.732 132.046,-87.146 M 97.76,196.97 c 11.616,0.787 24.216,1.643 28,1.903 3.784,0.26 10.192,0.697 14.24,0.97 4.048,0.273 9.225,0.637 11.504,0.807 2.279,0.171 4.511,0.315 4.96,0.322 l 0.816,0.011 -0.833,0.709 c -2.289,1.946 -17.876,14.363 -29.247,23.297 -17.738,13.938 -18.042,14.181 -18.062,14.451 -0.023,0.302 0.184,0.301 24.302,-0.075 11,-0.171 30.008,-0.46 42.24,-0.642 66.806,-0.992 119.662,-2.038 139.76,-2.763 4.275,-0.154 5.84,-0.113 5.84,0.153 0,0.2 -0.805,2.627 -1.788,5.392 C 294.833,310.839 218.054,345.261 150.92,317.079 103.83,297.312 74.431,253.857 72.742,201.524 l -0.206,-6.386 2.052,0.201 c 1.129,0.11 11.556,0.844 23.172,1.631"
       style="fill-rule:evenodd;stroke:none" />
  </g>
</svg>
