<svg id="svg" xmlns="http://www.w3.org/2000/svg"  width="400" height="400" viewBox="0, 0, 400,400"><g id="svgg"><path id="path0" d="M137.146 182.400 C 130.368 182.494,127.401 182.625,127.185 182.841 C 126.841 183.185,126.042 186.949,125.750 189.600 C 125.645 190.553,125.329 192.293,125.048 193.467 C 124.767 194.640,124.536 196.159,124.535 196.843 C 124.533 198.382,123.945 201.519,123.215 203.880 C 122.913 204.860,122.542 206.758,122.392 208.098 C 122.243 209.437,121.943 211.398,121.727 212.455 C 121.045 215.787,121.145 216.481,122.333 216.658 C 122.883 216.739,123.813 216.932,124.400 217.085 C 127.308 217.844,142.954 218.058,149.549 217.428 C 152.839 217.114,155.282 214.129,156.937 208.400 C 157.929 204.969,158.667 201.229,158.667 199.637 C 158.667 198.883,158.931 197.006,159.254 195.466 C 160.587 189.107,159.465 184.891,155.979 183.166 C 154.211 182.291,151.888 182.196,137.146 182.400 M184.533 182.407 C 168.476 182.621,167.638 183.039,166.408 191.467 C 166.226 192.713,165.910 194.783,165.705 196.067 C 164.593 203.043,166.046 204.045,177.443 204.161 C 185.400 204.242,185.346 204.230,185.725 206.049 C 186.055 207.635,185.594 207.734,177.303 207.847 C 162.629 208.048,163.148 207.914,162.667 211.612 C 162.516 212.779,162.258 214.243,162.095 214.865 C 161.732 216.249,162.071 216.796,163.299 216.809 C 163.758 216.815,164.853 216.993,165.733 217.205 C 167.624 217.662,187.787 217.778,190.068 217.346 C 193.906 216.618,195.908 213.863,196.174 208.944 C 196.264 207.287,196.520 205.710,196.845 204.806 C 197.943 201.757,196.536 197.535,194.000 196.267 C 192.674 195.603,192.633 195.600,186.133 195.668 C 177.761 195.754,176.439 195.536,176.316 194.046 C 176.265 193.424,176.402 192.766,176.668 192.361 L 177.103 191.697 186.777 191.756 C 192.097 191.789,196.586 191.732,196.751 191.630 C 197.410 191.223,197.732 186.392,197.351 182.627 C 197.318 182.305,195.093 182.266,184.533 182.407 M289.026 182.341 C 286.761 182.391,285.571 182.523,285.405 182.741 C 284.976 183.306,284.012 188.115,283.616 191.657 C 283.227 195.149,282.892 196.974,282.403 198.258 C 282.251 198.658,281.884 200.744,281.587 202.893 C 281.290 205.042,280.877 207.340,280.671 208.000 C 280.338 209.062,279.745 213.422,279.639 215.587 C 279.604 216.284,279.706 216.395,280.533 216.559 C 288.027 218.041,290.133 217.548,290.133 214.312 C 290.133 213.961,290.434 212.728,290.801 211.572 C 291.168 210.415,291.578 208.582,291.713 207.499 C 292.048 204.799,292.080 204.778,296.167 204.613 C 300.987 204.419,301.564 204.439,302.008 204.806 C 302.562 205.266,302.548 212.004,301.988 214.379 C 301.766 215.321,301.681 216.188,301.799 216.305 C 302.460 216.967,309.470 217.836,311.126 217.461 C 312.048 217.252,312.293 216.471,312.544 212.928 C 312.672 211.118,312.970 208.528,313.205 207.172 C 313.708 204.271,313.531 201.579,312.765 200.492 C 311.994 199.398,312.527 197.600,313.622 197.600 C 314.288 197.600,315.512 194.848,315.719 192.885 C 315.841 191.738,316.068 190.476,316.225 190.080 C 316.529 189.312,316.298 187.295,315.712 185.600 C 315.282 184.355,315.099 184.151,313.644 183.279 L 312.400 182.533 302.400 182.400 C 296.900 182.327,290.882 182.300,289.026 182.341 M12.081 182.800 C 11.433 183.254,10.950 185.096,10.277 189.678 C 10.044 191.262,9.675 193.327,9.457 194.268 C 9.238 195.209,8.756 198.102,8.385 200.696 C 8.013 203.290,7.599 205.620,7.463 205.873 C 7.328 206.126,7.094 207.578,6.944 209.100 C 6.794 210.622,6.495 212.587,6.279 213.467 C 5.603 216.218,5.663 216.444,7.133 216.655 C 7.830 216.755,9.060 217.003,9.867 217.207 C 11.850 217.707,32.654 217.840,33.555 217.357 C 34.133 217.048,34.145 216.945,34.073 212.720 L 34.000 208.400 29.067 208.344 C 24.384 208.290,21.783 208.030,19.767 207.412 L 18.867 207.137 19.043 205.635 C 19.246 203.894,20.163 198.523,20.541 196.863 C 20.684 196.237,20.802 195.217,20.804 194.596 C 20.806 193.975,20.989 192.698,21.211 191.758 C 21.476 190.633,21.588 189.040,21.540 187.091 C 21.500 185.464,21.566 183.820,21.686 183.436 C 21.985 182.490,21.588 182.408,16.659 182.404 C 13.524 182.401,12.528 182.487,12.081 182.800 M50.667 182.759 C 47.590 183.865,45.628 185.942,45.075 188.678 C 44.660 190.737,44.053 193.586,43.602 195.600 C 43.405 196.480,43.164 198.040,43.066 199.067 C 42.969 200.093,42.663 201.833,42.386 202.933 C 42.109 204.033,41.755 206.013,41.598 207.333 C 41.442 208.653,41.019 210.973,40.657 212.488 C 39.829 215.961,39.821 216.487,40.600 216.644 C 44.621 217.456,49.534 217.978,50.043 217.647 C 50.658 217.247,51.026 216.020,51.370 213.222 C 51.835 209.444,52.817 204.229,53.144 203.800 C 53.525 203.301,63.284 203.326,63.700 203.827 C 64.107 204.317,63.895 209.756,63.331 213.281 C 62.814 216.518,62.877 216.665,64.902 216.918 C 65.683 217.015,66.869 217.260,67.538 217.461 C 69.063 217.920,72.598 217.650,73.221 217.027 C 73.884 216.364,76.070 205.784,75.815 204.473 C 75.673 203.745,76.137 200.944,77.063 196.933 C 78.844 189.215,78.123 184.706,74.848 183.074 L 73.495 182.400 62.548 182.412 C 54.450 182.420,51.357 182.511,50.667 182.759 M86.450 182.740 C 86.090 183.174,85.232 187.384,84.564 192.000 C 84.277 193.980,83.744 197.100,83.379 198.933 C 83.014 200.767,82.573 203.107,82.398 204.133 C 82.224 205.160,81.910 206.689,81.700 207.531 C 81.491 208.373,81.190 210.233,81.032 211.664 C 80.873 213.095,80.685 214.765,80.614 215.373 C 80.491 216.418,80.526 216.488,81.242 216.624 C 83.578 217.069,86.750 217.369,88.267 217.290 L 90.000 217.200 90.643 215.867 C 91.094 214.930,91.387 213.621,91.626 211.467 C 91.998 208.113,92.480 205.102,92.702 204.744 C 92.779 204.618,92.958 203.290,93.099 201.793 C 93.240 200.296,93.467 198.959,93.605 198.822 C 93.866 198.561,94.933 199.341,94.933 199.794 C 94.933 199.928,95.503 200.836,96.200 201.811 C 97.693 203.903,99.658 207.711,100.975 211.067 C 103.253 216.871,103.891 217.311,110.125 217.372 C 113.865 217.409,113.982 217.351,114.416 215.246 C 114.587 214.414,114.878 213.433,115.061 213.067 C 115.245 212.700,115.475 211.380,115.573 210.133 C 115.671 208.887,115.934 206.727,116.158 205.333 C 116.381 203.940,116.671 201.780,116.803 200.533 C 117.065 198.050,117.669 194.855,118.329 192.462 C 118.628 191.381,118.761 189.681,118.777 186.729 L 118.800 182.533 114.905 182.460 C 109.634 182.360,109.533 182.494,108.677 190.667 C 108.445 192.884,107.197 196.793,106.601 197.169 C 105.759 197.700,105.097 196.536,102.756 190.400 C 102.392 189.447,101.939 188.487,101.749 188.267 C 101.559 188.047,100.854 186.807,100.183 185.511 C 99.511 184.215,98.820 182.985,98.648 182.778 C 98.213 182.254,86.883 182.218,86.450 182.740 M207.733 182.933 C 207.440 183.227,207.200 183.815,207.200 184.241 C 207.200 184.667,206.951 186.197,206.647 187.641 C 206.343 189.085,205.994 191.227,205.872 192.400 C 205.750 193.573,205.287 195.973,204.844 197.733 C 204.401 199.493,203.908 202.271,203.748 203.907 C 203.588 205.542,203.280 207.462,203.063 208.173 C 202.617 209.635,201.867 214.312,201.867 215.631 C 201.867 216.466,201.917 216.508,203.133 216.675 C 203.830 216.770,204.820 216.948,205.333 217.070 C 210.749 218.354,211.705 217.756,212.800 212.400 C 212.979 211.520,213.293 210.182,213.497 209.426 C 213.700 208.670,213.867 207.748,213.867 207.378 C 213.867 205.940,213.936 205.929,223.392 205.819 C 233.276 205.704,232.873 205.785,234.998 203.513 C 236.255 202.169,236.366 201.917,236.663 199.733 C 236.753 199.073,237.049 197.753,237.321 196.800 C 239.145 190.403,238.407 184.170,235.678 182.931 C 233.874 182.112,208.552 182.114,207.733 182.933 M250.800 182.651 C 246.603 183.680,244.124 187.550,243.334 194.309 C 243.113 196.191,242.760 198.331,242.547 199.065 C 242.335 199.799,242.031 201.454,241.872 202.742 C 241.713 204.031,241.467 205.697,241.325 206.446 C 240.251 212.106,241.691 215.827,245.378 216.922 C 247.092 217.431,265.280 217.530,267.045 217.040 C 270.298 216.137,273.491 212.212,274.021 208.464 C 274.213 207.109,274.686 204.694,275.588 200.461 C 276.068 198.210,276.215 196.890,276.106 195.794 C 276.002 194.735,276.120 193.572,276.492 192.000 C 277.435 188.017,276.154 184.354,273.385 183.111 L 271.800 182.400 261.700 182.427 C 256.145 182.442,251.240 182.543,250.800 182.651 M323.832 182.603 C 323.667 182.711,323.330 183.880,323.083 185.200 C 322.837 186.520,322.511 188.164,322.361 188.854 C 322.015 190.433,322.127 190.599,323.673 190.800 C 328.563 191.436,330.846 191.839,331.142 192.116 C 331.883 192.810,331.652 198.675,330.734 202.533 C 330.280 204.440,329.771 207.140,329.604 208.533 C 329.436 209.927,329.133 211.667,328.930 212.400 C 328.011 215.720,328.237 216.516,330.195 216.853 C 334.632 217.618,338.338 217.651,338.934 216.932 C 339.459 216.300,340.260 213.516,340.419 211.771 C 340.508 210.797,340.695 209.621,340.836 209.158 C 340.977 208.695,341.323 206.895,341.606 205.158 C 342.432 200.082,343.132 196.101,343.294 195.565 C 343.377 195.291,343.506 194.535,343.580 193.885 C 343.794 192.020,343.945 191.957,348.473 191.857 C 355.420 191.704,355.340 191.775,355.006 186.061 L 354.800 182.533 339.467 182.470 C 331.033 182.434,323.998 182.494,323.832 182.603 M304.365 191.808 C 305.112 192.354,305.172 194.994,304.458 195.901 L 303.901 196.609 300.684 196.429 C 294.679 196.092,293.614 195.637,293.604 193.400 C 293.596 191.632,294.083 191.467,299.282 191.467 C 302.611 191.467,304.028 191.562,304.365 191.808 M147.098 192.352 C 148.095 193.404,148.201 195.388,147.490 199.704 C 147.210 201.407,146.828 203.791,146.642 205.003 C 146.170 208.073,146.111 208.112,141.811 208.222 C 134.987 208.396,133.697 207.694,134.277 204.124 C 134.490 202.809,134.667 201.193,134.670 200.533 C 134.672 199.873,134.861 198.553,135.089 197.600 C 135.317 196.647,135.612 195.221,135.744 194.433 C 135.875 193.644,136.180 192.698,136.422 192.329 L 136.860 191.660 141.830 191.848 C 145.078 191.971,146.903 192.146,147.098 192.352 M225.972 192.156 C 226.580 193.741,226.468 197.023,225.783 197.708 C 224.647 198.844,218.079 198.499,216.096 197.200 C 215.164 196.589,215.457 193.484,216.558 192.301 C 217.268 191.539,225.685 191.409,225.972 192.156 M264.533 192.441 C 265.089 192.965,265.060 197.969,264.480 201.467 C 264.237 202.933,263.956 204.783,263.855 205.576 C 263.531 208.122,263.067 208.364,258.845 208.189 C 255.588 208.054,252.774 207.547,252.222 206.996 C 252.091 206.864,252.386 204.747,252.902 202.115 C 253.404 199.559,253.899 196.513,254.001 195.348 C 254.169 193.449,254.273 193.150,254.999 192.472 L 255.809 191.715 259.971 191.890 C 262.998 192.016,264.242 192.167,264.533 192.441 M65.547 192.320 C 65.972 192.745,65.961 195.327,65.533 195.662 C 64.724 196.296,56.725 196.140,55.467 195.467 C 54.868 195.146,54.718 193.433,55.209 192.516 C 55.547 191.885,64.934 191.707,65.547 192.320 M390.800 193.381 C 389.480 194.114,387.260 195.316,385.867 196.052 C 382.717 197.715,381.304 198.515,379.600 199.600 C 378.867 200.067,376.647 201.328,374.667 202.402 C 372.687 203.476,370.587 204.678,370.000 205.074 C 369.413 205.470,368.633 205.886,368.267 205.998 C 367.900 206.111,367.256 206.446,366.835 206.742 C 366.414 207.039,363.894 208.480,361.235 209.944 C 358.576 211.409,355.496 213.105,354.391 213.714 C 352.265 214.886,350.956 215.763,350.942 216.025 C 350.937 216.113,352.523 216.261,354.467 216.356 C 356.410 216.450,358.420 216.659,358.933 216.819 C 359.546 217.011,365.736 217.162,376.944 217.259 C 396.643 217.430,395.147 217.623,394.811 214.949 C 394.709 214.134,394.639 210.407,394.656 206.667 C 394.679 201.688,394.578 199.224,394.281 197.467 C 394.058 196.147,393.874 194.511,393.871 193.833 C 393.864 191.910,393.536 191.862,390.800 193.381 " stroke="none" fill-rule="evenodd"></path></g></svg>