<svg id="svg" xmlns="http://www.w3.org/2000/svg"  width="400" height="400" viewBox="0, 0, 400,400"><g id="svgg"><path id="path0" d="M0.575 145.585 C 0.452 147.709,0.377 148.204,0.148 148.434 C -0.119 148.701,-0.024 157.644,0.252 158.152 C 0.391 158.408,0.579 159.622,0.671 160.851 C 0.763 162.080,0.935 164.186,1.053 165.532 C 1.171 166.878,1.330 169.080,1.407 170.426 C 1.484 171.771,1.646 172.997,1.767 173.150 C 1.967 173.403,2.159 174.681,2.475 177.872 C 2.538 178.516,2.678 179.134,2.785 179.245 C 2.891 179.356,2.982 179.882,2.985 180.415 C 2.989 180.947,3.133 181.569,3.305 181.796 C 3.476 182.023,3.617 182.616,3.617 183.113 C 3.617 183.611,3.713 184.077,3.830 184.149 C 3.947 184.221,4.043 184.652,4.043 185.106 C 4.043 185.561,4.138 185.992,4.255 186.064 C 4.372 186.136,4.471 186.549,4.475 186.981 C 4.479 187.413,4.622 187.952,4.794 188.179 C 4.966 188.406,5.106 188.855,5.106 189.177 C 5.106 189.499,5.202 189.821,5.319 189.894 C 5.436 189.966,5.532 190.349,5.532 190.745 C 5.532 191.140,5.628 191.523,5.745 191.596 C 5.862 191.668,5.960 191.985,5.964 192.300 C 5.968 192.615,6.112 193.058,6.283 193.285 C 6.455 193.513,6.596 193.914,6.596 194.177 C 6.596 194.440,6.691 194.715,6.809 194.787 C 6.926 194.860,7.021 195.200,7.021 195.544 C 7.021 195.889,7.117 196.170,7.234 196.170 C 7.351 196.170,7.447 196.446,7.447 196.782 C 7.447 197.119,7.590 197.514,7.766 197.660 C 7.941 197.805,8.085 198.146,8.085 198.418 C 8.085 198.689,8.181 198.970,8.298 199.043 C 8.415 199.115,8.511 199.408,8.511 199.693 C 8.511 199.979,8.606 200.213,8.723 200.213 C 8.840 200.213,8.936 200.440,8.936 200.719 C 8.936 200.997,9.080 201.344,9.255 201.489 C 9.431 201.635,9.574 201.928,9.574 202.141 C 9.574 202.354,9.670 202.587,9.787 202.660 C 9.904 202.732,10.000 203.019,10.000 203.298 C 10.000 203.577,10.096 203.864,10.213 203.936 C 10.330 204.008,10.426 204.242,10.426 204.455 C 10.426 204.667,10.569 204.961,10.745 205.106 C 10.920 205.252,11.064 205.551,11.064 205.771 C 11.064 205.990,11.160 206.170,11.277 206.170 C 11.394 206.170,11.487 206.290,11.485 206.436 C 11.479 206.766,14.089 211.995,14.309 212.092 C 14.396 212.131,14.468 212.347,14.468 212.571 C 14.468 212.795,14.564 212.979,14.681 212.979 C 14.798 212.979,14.894 213.173,14.894 213.411 C 14.894 213.649,15.037 213.898,15.213 213.966 C 15.388 214.033,15.532 214.269,15.532 214.491 C 15.532 214.712,15.610 214.894,15.705 214.894 C 15.800 214.894,16.010 215.229,16.170 215.638 C 16.331 216.048,16.533 216.383,16.620 216.383 C 16.706 216.383,16.915 216.646,17.083 216.968 C 17.700 218.149,17.989 218.637,18.457 219.291 C 18.721 219.659,18.936 220.064,18.936 220.192 C 18.936 220.321,19.017 220.426,19.115 220.426 C 19.214 220.426,19.475 220.761,19.696 221.170 C 19.916 221.580,20.160 221.915,20.237 221.915 C 20.314 221.915,20.536 222.226,20.731 222.606 C 20.926 222.987,21.470 223.777,21.941 224.362 C 22.411 224.947,23.190 225.952,23.671 226.596 C 24.153 227.239,24.701 227.910,24.891 228.085 C 25.080 228.261,25.514 228.787,25.855 229.255 C 27.155 231.041,35.555 239.441,37.340 240.741 C 37.809 241.082,38.335 241.516,38.511 241.705 C 38.686 241.895,39.356 242.443,40.000 242.925 C 40.644 243.406,41.649 244.185,42.234 244.655 C 42.819 245.125,43.609 245.670,43.989 245.864 C 44.370 246.059,44.681 246.283,44.681 246.363 C 44.681 246.442,45.160 246.786,45.745 247.128 C 46.330 247.469,46.809 247.825,46.809 247.917 C 46.809 248.009,46.911 248.085,47.035 248.085 C 47.160 248.085,47.576 248.324,47.960 248.617 C 48.343 248.910,48.768 249.149,48.903 249.149 C 49.038 249.149,49.149 249.221,49.149 249.310 C 49.149 249.398,49.438 249.599,49.792 249.755 C 50.146 249.912,50.553 250.151,50.696 250.286 C 50.992 250.564,52.268 251.287,53.457 251.850 C 53.896 252.058,54.255 252.301,54.255 252.391 C 54.255 252.480,54.387 252.553,54.548 252.553 C 54.710 252.553,54.961 252.697,55.106 252.872 C 55.252 253.048,55.551 253.191,55.771 253.191 C 55.990 253.191,56.170 253.287,56.170 253.404 C 56.170 253.521,56.299 253.617,56.457 253.617 C 56.823 253.617,58.038 254.220,58.200 254.482 C 58.268 254.591,58.509 254.681,58.736 254.681 C 58.963 254.681,59.149 254.777,59.149 254.894 C 59.149 255.011,59.296 255.106,59.476 255.106 C 59.655 255.106,60.034 255.258,60.317 255.443 C 60.777 255.745,60.894 255.747,61.426 255.462 C 61.753 255.286,63.027 254.647,64.255 254.042 C 66.858 252.760,68.531 251.869,69.574 251.208 C 69.984 250.949,70.606 250.597,70.957 250.426 C 71.309 250.255,71.892 249.898,72.254 249.632 C 72.616 249.366,72.979 249.149,73.061 249.149 C 73.143 249.149,73.325 249.051,73.466 248.932 C 74.132 248.369,77.470 246.170,77.659 246.170 C 77.776 246.170,77.873 246.098,77.874 246.011 C 77.875 245.923,78.207 245.625,78.613 245.349 C 79.018 245.073,79.616 244.618,79.941 244.339 C 80.266 244.059,80.591 243.830,80.663 243.830 C 80.735 243.830,81.118 243.538,81.514 243.181 C 81.910 242.825,82.641 242.246,83.137 241.895 C 83.634 241.544,84.352 240.948,84.733 240.569 C 85.114 240.190,86.048 239.358,86.809 238.719 C 88.578 237.234,92.833 232.975,93.927 231.594 C 94.390 231.010,95.063 230.245,95.423 229.894 C 95.782 229.543,96.361 228.872,96.708 228.404 C 97.056 227.936,97.518 227.362,97.736 227.128 C 97.954 226.894,98.522 226.176,98.999 225.532 C 99.477 224.888,99.945 224.330,100.040 224.291 C 100.135 224.252,100.213 224.108,100.213 223.972 C 100.214 223.835,100.504 223.388,100.859 222.979 C 101.214 222.569,101.621 222.030,101.763 221.781 C 101.905 221.532,102.380 220.788,102.819 220.128 C 103.258 219.468,103.617 218.834,103.617 218.719 C 103.617 218.605,103.697 218.511,103.796 218.511 C 103.894 218.511,104.083 218.295,104.216 218.032 C 104.350 217.769,104.698 217.170,104.990 216.702 C 105.283 216.234,105.736 215.468,105.998 215.000 C 106.260 214.532,106.589 213.957,106.730 213.723 C 107.378 212.642,110.638 206.029,110.638 205.795 C 110.638 205.650,110.734 205.532,110.851 205.532 C 110.968 205.532,111.064 205.346,111.064 205.119 C 111.064 204.892,111.160 204.647,111.277 204.574 C 111.394 204.502,111.489 204.269,111.489 204.056 C 111.489 203.843,111.633 203.550,111.809 203.404 C 111.984 203.259,112.128 202.912,112.128 202.634 C 112.128 202.355,112.223 202.128,112.340 202.128 C 112.457 202.128,112.553 201.894,112.553 201.608 C 112.553 201.323,112.649 201.030,112.766 200.957 C 112.883 200.885,112.979 200.647,112.979 200.428 C 112.979 200.209,113.122 199.887,113.298 199.711 C 113.473 199.536,113.617 199.152,113.617 198.858 C 113.617 198.564,113.713 198.264,113.830 198.191 C 113.947 198.119,114.043 197.873,114.043 197.644 C 114.043 197.227,114.093 197.093,114.751 195.781 C 114.947 195.391,115.106 194.846,115.106 194.570 C 115.106 194.294,115.202 194.008,115.319 193.936 C 115.436 193.864,115.532 193.529,115.532 193.191 C 115.532 192.854,115.628 192.519,115.745 192.447 C 115.862 192.374,115.957 192.100,115.957 191.837 C 115.957 191.573,116.098 191.172,116.270 190.945 C 116.442 190.718,116.585 190.226,116.589 189.853 C 116.593 189.480,116.691 189.115,116.809 189.043 C 116.926 188.970,117.021 188.539,117.021 188.085 C 117.021 187.631,117.117 187.200,117.234 187.128 C 117.351 187.055,117.447 186.739,117.448 186.424 C 117.449 186.109,117.592 185.577,117.767 185.242 C 117.942 184.906,118.085 184.266,118.085 183.818 C 118.085 183.370,118.181 182.945,118.298 182.872 C 118.415 182.800,118.511 182.321,118.511 181.809 C 118.511 181.296,118.606 180.817,118.723 180.745 C 118.840 180.672,118.936 180.233,118.936 179.768 C 118.936 179.303,119.080 178.579,119.255 178.159 C 119.431 177.739,119.574 176.899,119.574 176.293 C 119.574 175.687,119.663 175.101,119.771 174.989 C 119.879 174.878,120.017 174.069,120.077 173.191 C 120.282 170.201,120.624 167.217,120.791 166.959 C 121.228 166.284,121.563 148.159,121.193 145.160 L 121.003 143.617 60.846 143.617 L 0.689 143.617 0.575 145.585 M132.128 148.511 L 132.128 153.404 144.668 153.404 C 154.467 153.404,157.247 153.462,157.381 153.670 C 157.476 153.816,157.601 165.090,157.660 178.723 L 157.766 203.511 163.936 203.511 L 170.106 203.511 170.213 178.511 L 170.319 153.511 183.138 153.456 L 195.957 153.401 195.957 148.509 L 195.957 143.617 164.043 143.617 L 132.128 143.617 132.128 148.511 M203.830 148.511 L 203.830 153.404 209.043 153.404 L 214.255 153.404 214.255 148.511 L 214.255 143.617 209.043 143.617 L 203.830 143.617 203.830 148.511 M222.390 148.457 L 222.447 153.298 310.160 153.351 L 397.872 153.405 397.872 148.511 L 397.872 143.617 310.102 143.617 L 222.332 143.617 222.390 148.457 M117.240 147.560 C 118.078 148.570,117.174 167.048,115.954 173.862 C 115.821 174.605,115.619 175.739,115.505 176.383 C 115.239 177.894,114.953 179.317,114.544 181.170 C 113.983 183.712,113.779 184.534,113.085 187.021 C 112.938 187.548,112.700 188.410,112.555 188.936 C 112.410 189.463,112.221 190.085,112.135 190.319 C 111.580 191.827,111.429 192.299,111.334 192.822 C 111.275 193.145,111.143 193.462,111.039 193.526 C 110.936 193.590,110.851 193.829,110.851 194.058 C 110.851 194.287,110.765 194.640,110.660 194.843 C 110.555 195.047,110.304 195.644,110.103 196.170 C 109.318 198.220,108.882 199.303,108.131 201.064 C 107.817 201.799,104.327 208.850,103.760 209.894 C 102.640 211.954,97.972 219.222,97.369 219.842 C 97.228 219.988,96.828 220.489,96.482 220.957 C 92.388 226.481,86.474 232.517,80.194 237.578 C 78.016 239.333,70.645 244.468,70.304 244.468 C 70.231 244.468,69.918 244.648,69.607 244.868 C 68.324 245.778,61.363 249.362,60.880 249.362 C 60.369 249.362,55.398 246.819,53.217 245.442 C 52.739 245.140,52.296 244.894,52.232 244.894 C 52.168 244.894,51.137 244.251,49.941 243.465 C 48.745 242.680,47.612 241.938,47.424 241.817 C 46.107 240.966,45.197 240.342,45.106 240.227 C 45.048 240.153,44.473 239.713,43.830 239.249 C 42.382 238.205,42.473 238.277,39.894 236.144 C 29.864 227.848,21.370 216.976,15.562 205.000 C 13.984 201.747,13.191 200.004,13.191 199.787 C 13.191 199.667,13.107 199.402,13.004 199.199 C 12.900 198.996,12.715 198.590,12.592 198.298 C 12.470 198.005,12.227 197.431,12.053 197.021 C 11.657 196.086,10.417 192.590,10.280 192.021 C 10.223 191.787,10.101 191.404,10.008 191.170 C 9.916 190.936,9.597 189.931,9.300 188.936 C 8.806 187.279,8.629 186.636,8.071 184.468 C 7.965 184.059,7.767 183.293,7.631 182.766 C 7.389 181.836,7.194 180.913,6.821 178.936 C 6.722 178.410,6.480 177.165,6.284 176.170 C 4.789 168.589,3.544 148.456,4.511 147.489 C 4.945 147.055,116.879 147.125,117.240 147.560 M36.775 151.807 C 36.717 151.864,35.720 151.999,34.559 152.106 C 33.397 152.214,31.537 152.456,30.426 152.646 C 29.314 152.835,28.096 153.040,27.719 153.099 C 26.600 153.277,25.679 154.192,25.834 154.969 C 25.905 155.323,25.854 156.165,25.722 156.840 C 25.197 159.504,26.464 162.575,29.169 165.197 C 32.087 168.027,32.536 169.468,31.136 171.519 C 27.407 176.979,25.864 178.974,24.585 179.992 C 22.943 181.298,21.760 183.234,21.760 184.615 C 21.760 185.096,21.539 185.947,21.269 186.504 C 20.818 187.437,20.516 191.165,20.615 194.574 C 20.622 194.809,20.702 196.915,20.792 199.255 L 20.957 203.511 22.128 205.957 L 23.298 208.404 23.369 211.030 L 23.440 213.657 24.052 212.520 C 24.921 210.905,24.953 208.255,24.124 206.562 C 23.346 204.976,23.255 204.728,22.964 203.404 C 22.823 202.761,22.621 201.899,22.515 201.489 C 22.019 199.561,21.747 197.233,21.929 196.452 C 22.032 196.005,22.120 194.319,22.123 192.706 C 22.126 190.506,22.260 189.055,22.660 186.894 C 22.952 185.310,23.191 183.771,23.191 183.473 C 23.191 183.100,23.563 182.562,24.393 181.732 C 25.654 180.473,26.665 179.180,28.326 176.702 C 28.875 175.883,30.075 174.546,30.992 173.732 C 33.647 171.373,35.410 169.460,36.044 168.247 C 36.368 167.628,37.192 166.501,37.874 165.743 C 38.557 164.984,39.067 164.315,39.008 164.256 C 38.889 164.137,36.301 166.802,35.028 168.357 C 33.841 169.805,33.465 169.655,33.075 167.576 L 32.931 166.809 33.777 166.809 C 34.878 166.809,35.494 166.310,36.819 164.346 C 37.682 163.067,38.322 162.446,40.289 160.975 C 43.862 158.305,44.126 157.553,42.153 155.663 C 41.344 154.887,41.073 155.061,41.287 156.219 C 41.513 157.446,41.334 158.224,40.561 159.362 C 38.142 162.924,35.669 163.429,34.319 160.638 C 33.858 159.686,33.655 159.555,32.865 159.699 C 32.351 159.793,32.070 159.685,31.482 159.167 C 30.563 158.357,29.829 158.618,30.609 159.479 C 30.820 159.712,31.348 161.354,31.683 162.822 C 32.009 164.249,31.984 165.532,31.630 165.532 C 31.098 165.532,28.085 162.303,28.085 161.733 C 28.085 161.599,27.989 161.489,27.872 161.489 C 27.755 161.489,27.660 161.317,27.660 161.106 C 27.660 160.896,27.540 160.603,27.394 160.456 C 27.001 160.062,27.124 155.937,27.552 155.108 C 28.159 153.935,30.299 153.521,35.745 153.524 C 40.691 153.527,41.578 153.767,43.665 155.667 C 44.335 156.277,45.077 156.838,45.314 156.913 C 46.097 157.162,45.369 158.859,44.255 159.382 C 43.963 159.519,43.495 159.737,43.216 159.867 C 42.615 160.146,40.426 162.257,40.426 162.558 C 40.426 162.967,40.783 162.749,41.926 161.643 C 43.026 160.578,46.183 158.816,48.298 158.086 C 48.707 157.945,49.234 157.750,49.468 157.652 C 51.094 156.976,51.452 156.835,52.021 156.647 C 54.018 155.986,58.428 155.618,59.132 156.054 C 59.522 156.294,58.819 156.969,58.010 157.131 C 57.200 157.294,56.543 157.580,53.511 159.095 C 50.838 160.430,50.732 160.497,49.515 161.629 C 48.149 162.900,47.637 163.191,46.771 163.191 C 46.335 163.191,45.710 163.306,45.382 163.446 C 44.719 163.730,38.398 169.959,38.585 170.145 C 38.695 170.255,40.600 168.970,41.242 168.352 C 43.268 166.403,43.847 166.946,42.009 169.071 C 41.618 169.524,40.841 170.660,40.282 171.596 C 39.723 172.532,38.655 173.937,37.908 174.718 C 36.138 176.570,34.944 178.334,33.903 180.638 C 33.475 181.583,33.476 181.770,33.916 184.468 C 34.116 185.697,34.361 187.372,34.461 188.191 C 34.772 190.749,35.488 192.619,37.078 195.019 C 37.877 196.225,37.660 196.546,35.883 196.787 C 34.505 196.974,34.262 197.126,34.694 197.533 C 35.120 197.936,38.292 199.642,39.574 200.158 C 39.867 200.276,40.372 200.479,40.697 200.610 C 42.526 201.344,45.597 199.181,47.240 196.001 C 47.982 194.566,47.659 194.734,45.396 196.963 C 42.810 199.509,41.145 200.486,40.249 199.983 C 39.461 199.541,39.529 198.951,40.426 198.451 C 41.995 197.576,46.170 194.070,46.170 193.628 C 46.170 193.360,45.698 193.332,45.415 193.584 C 44.673 194.243,42.186 194.984,40.690 194.992 L 39.101 195.000 38.298 194.096 C 36.666 192.257,36.394 191.157,36.240 185.764 C 36.112 181.292,36.198 180.833,37.761 177.619 C 40.053 172.904,41.829 176.412,40.029 182.100 C 39.854 182.654,39.871 182.948,40.103 183.398 C 40.572 184.304,41.039 184.549,43.830 185.353 C 44.356 185.505,45.199 185.847,45.703 186.112 C 46.315 186.436,46.984 186.596,47.724 186.596 L 48.830 186.595 47.979 186.197 C 47.511 185.977,46.823 185.681,46.450 185.538 C 45.226 185.070,42.553 182.074,42.553 181.171 C 42.553 180.431,44.974 181.254,45.247 182.087 C 45.970 184.293,47.177 185.532,48.601 185.532 C 49.914 185.532,50.527 186.078,50.550 187.269 C 50.559 187.776,50.583 189.179,50.603 190.385 C 50.639 192.635,50.900 193.115,51.139 191.371 C 51.297 190.216,51.727 189.242,52.403 188.508 C 52.671 188.217,53.200 187.548,53.578 187.021 C 53.955 186.495,54.550 185.691,54.898 185.234 C 55.720 184.159,55.697 183.538,54.787 182.186 C 54.024 181.053,53.881 180.551,54.255 180.319 C 54.372 180.247,54.468 179.912,54.468 179.574 C 54.468 179.237,54.372 178.902,54.255 178.830 C 53.746 178.515,54.035 177.486,54.759 177.039 C 56.408 176.019,57.084 176.601,56.874 178.858 C 56.733 180.380,57.232 180.643,57.513 179.195 C 57.751 177.964,58.052 177.011,58.485 176.116 C 58.733 175.604,58.936 175.086,58.936 174.966 C 58.936 174.845,59.130 174.571,59.367 174.357 C 60.122 173.673,60.343 174.219,59.991 175.901 C 59.694 177.322,59.605 181.378,59.866 181.639 C 60.163 181.936,60.252 181.402,60.368 178.628 C 60.543 174.466,60.770 174.493,62.993 178.936 C 63.898 180.745,64.255 181.843,64.255 182.813 C 64.255 183.475,64.317 183.641,64.496 183.461 C 64.769 183.189,64.349 179.870,64.016 179.664 C 63.914 179.601,63.830 179.362,63.830 179.133 C 63.830 178.905,63.739 178.551,63.628 178.348 C 63.518 178.145,63.198 177.500,62.919 176.915 C 62.640 176.330,62.311 175.660,62.188 175.426 C 62.065 175.191,61.870 174.761,61.753 174.468 C 61.637 174.176,61.435 173.668,61.303 173.341 C 61.028 172.656,60.980 171.064,61.236 171.064 C 61.451 171.064,62.128 172.573,62.128 173.053 C 62.128 173.249,62.215 173.576,62.323 173.779 C 62.430 173.983,62.683 174.528,62.886 174.991 C 63.088 175.455,63.575 176.336,63.967 176.949 C 64.360 177.563,64.681 178.194,64.681 178.351 C 64.681 178.509,64.760 178.729,64.856 178.840 C 65.517 179.603,66.345 184.222,65.995 185.190 C 65.689 186.036,65.674 186.596,65.957 186.596 C 66.086 186.596,66.170 187.473,66.170 188.802 C 66.170 191.218,66.815 192.877,68.401 194.540 C 69.259 195.440,69.544 196.056,69.734 197.426 C 69.955 199.016,70.124 198.959,71.096 196.971 C 71.507 196.130,71.274 195.603,69.840 194.133 C 67.946 192.189,67.295 189.734,68.196 187.927 C 69.278 185.758,70.174 187.046,70.229 190.851 L 70.255 192.660 70.510 191.702 C 70.818 190.546,71.403 190.407,71.907 191.370 C 72.571 192.640,76.335 195.718,76.841 195.405 C 77.116 195.235,76.702 194.775,75.581 194.003 C 73.307 192.439,72.296 189.170,74.517 190.565 C 75.534 191.204,76.292 191.253,75.919 190.656 C 75.651 190.227,75.965 189.574,76.439 189.574 C 76.558 189.574,76.762 189.438,76.891 189.271 C 77.021 189.104,77.880 188.718,78.798 188.414 C 81.455 187.534,82.766 186.499,82.766 185.282 C 82.766 184.737,83.169 184.595,83.602 184.986 C 84.435 185.741,84.308 182.230,83.425 180.106 C 83.328 179.872,83.150 179.441,83.029 179.149 C 82.908 178.856,82.663 178.282,82.484 177.872 C 81.071 174.641,80.990 174.255,81.722 174.255 C 82.152 174.255,83.436 175.021,83.582 175.365 C 83.873 176.052,84.255 175.413,84.255 174.237 C 84.255 172.661,83.012 170.102,81.544 168.655 C 80.942 168.063,80.641 167.581,80.640 167.211 C 80.636 165.917,76.751 162.800,74.574 162.344 C 72.772 161.966,72.122 161.638,70.055 160.061 C 67.396 158.032,65.925 157.246,64.775 157.237 C 63.845 157.230,63.428 156.659,64.149 156.380 C 65.592 155.821,66.015 155.874,67.887 156.849 C 69.637 157.761,71.514 158.295,72.992 158.301 C 75.218 158.310,76.495 159.337,79.678 163.679 C 79.947 164.045,80.299 164.255,80.645 164.255 C 81.058 164.255,81.818 164.884,83.782 166.848 C 85.208 168.274,86.438 169.377,86.516 169.300 C 86.593 169.223,86.552 169.034,86.425 168.881 C 86.015 168.386,86.459 168.118,87.662 168.134 C 88.304 168.142,89.093 168.076,89.415 167.986 C 90.105 167.793,90.183 168.111,89.682 169.071 C 88.929 170.515,89.144 170.988,91.383 172.807 C 93.192 174.277,95.308 176.291,96.147 177.342 L 96.655 177.979 96.506 177.340 C 96.299 176.454,95.612 175.459,93.974 173.674 C 90.859 170.280,90.959 169.543,95.324 163.723 C 99.901 157.621,96.777 153.578,87.494 153.589 C 83.061 153.594,82.212 153.837,77.683 156.395 L 76.535 157.043 75.980 156.523 C 75.248 155.836,73.335 154.681,72.931 154.681 C 72.755 154.681,71.679 154.199,70.540 153.611 L 68.470 152.540 65.458 152.334 C 63.802 152.220,61.663 152.066,60.705 151.991 C 59.438 151.893,58.567 151.950,57.513 152.200 C 56.716 152.389,55.068 152.685,53.852 152.858 C 52.321 153.076,51.240 153.367,50.341 153.803 C 49.627 154.150,48.805 154.503,48.514 154.587 L 47.986 154.741 48.479 154.923 C 49.114 155.159,48.963 155.619,48.221 155.706 C 47.355 155.809,45.768 155.131,44.574 154.149 C 42.884 152.759,42.440 152.554,40.631 152.327 C 39.693 152.209,38.682 152.021,38.385 151.908 C 37.808 151.688,36.947 151.634,36.775 151.807 M62.422 153.218 C 63.246 153.443,65.250 154.257,65.957 154.654 C 66.748 155.097,66.464 155.586,65.499 155.444 C 63.429 155.138,61.260 155.071,60.623 155.293 C 60.088 155.479,59.721 155.442,58.711 155.102 C 58.023 154.870,57.170 154.681,56.815 154.681 C 55.939 154.681,55.966 154.123,56.862 153.741 C 58.566 153.013,60.877 152.796,62.422 153.218 M53.962 154.146 C 55.101 154.622,54.751 154.963,52.791 155.283 C 50.946 155.585,50.426 155.528,50.426 155.026 C 50.426 154.123,52.607 153.580,53.962 154.146 M88.140 154.815 C 88.753 155.123,89.422 155.458,89.625 155.560 C 89.828 155.661,90.138 155.745,90.314 155.745 C 90.995 155.745,93.374 156.860,93.930 157.441 C 95.176 158.741,94.401 162.814,92.419 165.382 C 90.810 167.465,90.478 167.627,90.174 166.475 C 90.077 166.106,89.744 165.701,89.358 165.484 C 88.731 165.130,88.712 165.079,88.849 164.048 C 88.989 162.992,88.980 162.970,88.059 162.121 C 87.143 161.277,84.727 159.787,84.274 159.787 C 84.002 159.787,83.959 160.357,84.223 160.461 C 84.322 160.500,84.657 160.990,84.968 161.550 C 86.484 164.287,83.686 165.341,81.552 162.837 C 81.211 162.437,81.000 162.324,80.927 162.500 C 80.545 163.414,79.883 162.591,78.489 159.468 C 78.066 158.521,78.165 157.996,78.830 157.661 C 79.181 157.484,79.755 157.139,80.106 156.893 C 80.457 156.648,81.463 156.186,82.340 155.866 C 84.173 155.199,84.509 155.066,85.532 154.602 C 86.547 154.143,86.849 154.167,88.140 154.815 M63.391 159.232 C 66.039 160.945,66.758 161.277,67.827 161.277 C 68.709 161.277,68.898 161.362,69.398 161.989 C 69.711 162.381,70.333 162.874,70.781 163.085 C 72.085 163.699,73.959 165.039,74.527 165.764 C 74.815 166.132,75.106 166.344,75.173 166.234 C 75.241 166.125,74.870 165.493,74.350 164.830 C 73.038 163.158,73.446 162.208,74.910 163.527 C 75.095 163.694,75.309 163.830,75.385 163.830 C 75.461 163.830,76.048 164.165,76.688 164.574 C 77.328 164.984,77.932 165.319,78.030 165.319 C 78.492 165.319,79.674 166.568,79.440 166.808 C 79.276 166.977,79.072 166.991,78.802 166.851 C 77.075 165.958,76.591 166.002,77.482 166.970 C 78.939 168.553,80.121 172.044,79.451 172.785 C 79.083 173.192,79.104 173.674,79.572 175.532 C 80.007 177.258,80.044 177.607,79.806 177.754 C 79.677 177.834,79.506 177.728,79.425 177.518 C 79.058 176.562,75.923 174.468,74.858 174.468 C 74.567 174.468,73.591 175.526,73.192 176.274 C 72.851 176.913,70.959 178.547,69.965 179.061 C 68.864 179.630,69.434 180.222,70.683 179.805 C 71.391 179.569,72.429 178.693,73.478 177.446 C 73.957 176.878,74.148 176.789,74.632 176.912 C 74.952 176.993,75.691 177.082,76.277 177.111 C 77.393 177.165,78.114 177.473,78.834 178.203 C 79.071 178.444,79.438 178.707,79.650 178.789 C 79.862 178.870,79.996 179.056,79.948 179.202 C 79.818 179.597,79.046 179.642,78.365 179.293 C 77.554 178.877,75.532 178.608,75.532 178.916 C 75.532 179.044,75.760 179.149,76.040 179.149 C 76.596 179.149,77.213 179.433,78.213 180.149 C 78.573 180.407,79.465 180.714,80.199 180.832 C 82.029 181.127,82.683 181.827,81.809 182.553 C 81.633 182.699,81.489 183.050,81.489 183.333 C 81.489 184.776,78.154 187.080,76.214 186.978 C 74.114 186.868,74.749 186.151,78.932 183.908 C 79.340 183.689,79.782 183.410,79.915 183.288 C 80.650 182.611,80.364 181.045,79.594 181.527 C 79.272 181.728,78.966 181.650,77.907 181.099 C 77.195 180.729,76.423 180.426,76.191 180.426 C 75.960 180.426,75.711 180.330,75.638 180.213 C 75.566 180.096,74.800 180.000,73.936 180.000 C 73.072 180.000,72.306 180.096,72.234 180.213 C 72.162 180.330,71.939 180.426,71.738 180.426 C 70.641 180.426,69.149 182.645,69.149 184.277 C 69.149 184.984,67.639 186.383,66.877 186.383 C 66.401 186.383,66.383 186.320,66.383 184.661 C 66.383 182.839,66.554 182.411,67.840 181.011 C 68.248 180.567,68.297 180.426,68.045 180.426 C 67.861 180.426,67.588 180.574,67.438 180.755 C 66.905 181.397,66.084 181.054,65.886 180.106 C 65.595 178.708,65.256 177.566,65.069 177.351 C 64.850 177.099,64.837 175.958,65.053 175.956 C 65.141 175.954,65.901 176.696,66.742 177.604 C 67.956 178.915,68.325 179.201,68.535 178.994 C 68.872 178.661,68.608 178.139,67.310 176.565 C 65.518 174.392,65.152 173.211,65.650 171.213 C 65.829 170.495,65.327 170.017,64.382 170.007 C 63.199 169.994,61.277 167.690,61.277 166.286 C 61.277 166.032,61.168 165.953,60.940 166.041 C 60.755 166.112,60.516 166.170,60.408 166.170 C 60.301 166.170,60.213 166.268,60.213 166.388 C 60.213 166.892,58.950 168.525,57.249 170.223 C 54.787 172.678,54.255 173.343,54.255 173.967 C 54.255 175.830,59.346 170.367,59.881 167.929 C 60.062 167.104,60.800 166.190,60.936 166.621 C 61.260 167.650,61.270 168.170,60.974 168.622 C 60.796 168.893,60.576 169.721,60.485 170.462 C 60.325 171.760,60.295 171.812,59.655 171.915 C 59.260 171.978,58.469 172.478,57.703 173.150 C 56.152 174.508,54.763 175.532,54.470 175.532 C 54.352 175.532,54.255 175.604,54.254 175.691 C 54.253 175.779,53.958 176.019,53.599 176.223 C 52.945 176.595,52.945 176.597,53.093 177.979 C 53.232 179.281,53.215 179.362,52.803 179.362 C 52.043 179.362,52.085 179.746,52.935 180.578 C 54.563 182.169,54.943 184.284,53.890 185.891 C 53.546 186.417,52.979 186.557,52.979 186.117 C 52.978 185.651,50.854 181.622,50.308 181.053 C 49.616 180.330,48.040 179.938,46.915 180.210 C 44.485 180.796,42.553 180.416,42.553 179.352 C 42.553 177.491,46.558 177.157,48.910 178.821 C 50.577 180.000,51.401 180.050,50.186 178.899 C 49.652 178.393,49.043 177.681,48.834 177.316 C 48.347 176.468,47.477 175.957,46.522 175.957 C 46.108 175.957,45.711 175.862,45.638 175.745 C 45.566 175.628,45.153 175.532,44.720 175.532 C 43.890 175.532,43.964 175.442,43.180 177.394 C 42.797 178.347,42.048 178.015,42.222 176.968 C 42.633 174.498,42.700 174.213,43.510 171.489 C 43.702 170.846,43.909 170.128,43.972 169.894 C 44.230 168.922,44.763 168.006,45.657 167.000 C 46.179 166.413,46.550 165.842,46.482 165.732 C 46.275 165.397,45.524 165.508,44.952 165.957 C 43.940 166.753,43.433 166.384,44.310 165.490 C 45.391 164.387,46.705 163.756,47.099 164.151 C 47.529 164.581,47.523 164.582,48.821 163.623 C 51.683 161.509,54.754 160.213,56.900 160.213 C 57.932 160.213,60.000 159.755,60.000 159.526 C 60.000 159.436,60.127 159.362,60.282 159.362 C 60.437 159.362,60.789 159.122,61.064 158.830 C 61.712 158.140,61.700 158.138,63.391 159.232 M203.928 158.564 C 203.872 158.710,203.851 168.883,203.881 181.170 L 203.936 203.511 209.096 203.568 L 214.255 203.625 214.255 180.961 L 214.255 158.298 209.142 158.298 C 205.248 158.298,204.005 158.361,203.928 158.564 M231.170 158.444 C 229.894 158.490,228.774 158.646,228.372 158.835 C 228.003 159.008,227.506 159.149,227.268 159.149 C 227.029 159.149,226.774 159.245,226.702 159.362 C 226.630 159.479,226.379 159.574,226.144 159.574 C 225.589 159.574,223.404 161.759,223.404 162.314 C 223.404 162.549,223.309 162.800,223.191 162.872 C 223.074 162.945,222.979 163.267,222.979 163.589 C 222.979 163.911,222.838 164.360,222.666 164.587 C 222.204 165.198,222.197 196.426,222.660 197.234 C 222.827 197.527,222.967 198.024,222.971 198.339 C 222.975 198.653,223.074 198.970,223.191 199.043 C 223.309 199.115,223.404 199.320,223.404 199.499 C 223.404 199.967,225.532 202.128,225.993 202.128 C 226.208 202.128,226.383 202.223,226.383 202.340 C 226.383 202.457,226.665 202.553,227.009 202.553 C 227.353 202.553,227.694 202.649,227.766 202.766 C 227.838 202.883,228.299 202.980,228.789 202.981 C 229.280 202.982,230.151 203.126,230.725 203.300 C 232.291 203.775,268.773 203.775,270.339 203.300 C 270.913 203.126,271.784 202.982,272.275 202.981 C 272.765 202.980,273.226 202.883,273.298 202.766 C 273.370 202.649,273.617 202.553,273.847 202.553 C 274.076 202.553,274.643 202.314,275.106 202.021 C 275.570 201.729,276.026 201.489,276.119 201.489 C 276.213 201.489,276.404 201.322,276.545 201.117 C 277.596 199.588,277.872 199.065,277.872 198.608 C 277.872 198.320,277.960 198.085,278.066 198.085 C 278.415 198.085,278.539 195.561,278.641 186.436 L 278.741 177.447 264.477 177.447 L 250.213 177.447 250.213 181.277 L 250.213 185.106 259.153 185.106 L 268.093 185.106 268.036 190.160 L 267.979 195.213 250.768 195.267 C 238.230 195.307,233.479 195.257,233.268 195.082 C 232.930 194.801,232.829 166.713,233.165 166.506 C 233.268 166.442,241.143 166.385,250.665 166.379 L 267.979 166.367 268.039 168.609 L 268.100 170.851 269.539 170.851 C 270.331 170.851,271.076 170.754,271.195 170.635 C 271.425 170.405,273.526 170.038,275.638 169.859 C 276.340 169.800,277.006 169.664,277.117 169.557 C 277.228 169.449,277.646 169.362,278.045 169.362 L 278.770 169.362 278.648 167.819 C 278.415 164.857,278.245 163.609,278.059 163.495 C 277.956 163.431,277.872 163.194,277.872 162.967 C 277.872 162.409,276.532 160.577,275.861 160.218 C 275.563 160.058,275.319 159.849,275.319 159.751 C 275.319 159.654,275.133 159.574,274.906 159.574 C 274.679 159.574,274.434 159.479,274.362 159.362 C 274.289 159.245,273.970 159.149,273.652 159.149 C 273.334 159.149,272.837 158.981,272.547 158.777 C 272.043 158.420,239.143 158.155,231.170 158.444 M285.417 158.564 C 285.362 158.710,285.341 168.883,285.371 181.170 L 285.426 203.511 309.894 203.511 L 334.362 203.511 334.419 199.415 L 334.477 195.319 315.443 195.319 C 301.897 195.319,296.367 195.252,296.264 195.086 C 296.090 194.804,296.108 184.102,296.284 183.818 C 296.359 183.696,300.669 183.617,307.252 183.617 L 318.095 183.617 318.037 180.053 L 317.979 176.489 307.074 176.434 C 296.879 176.383,296.170 176.355,296.160 176.009 C 296.093 173.640,296.183 166.108,296.280 165.951 C 296.361 165.820,303.251 165.745,315.119 165.745 L 333.830 165.745 333.830 162.021 L 333.830 158.298 309.674 158.298 C 290.546 158.298,285.497 158.353,285.417 158.564 M343.630 158.548 C 343.638 158.703,343.614 168.883,343.577 181.170 L 343.511 203.511 348.617 203.511 L 353.723 203.511 353.830 194.894 L 353.936 186.277 359.347 186.220 C 362.323 186.188,364.812 186.240,364.879 186.333 C 364.945 186.427,365.287 186.724,365.638 186.993 C 365.989 187.262,367.091 188.264,368.086 189.220 C 369.081 190.175,370.326 191.306,370.852 191.733 C 371.378 192.159,372.527 193.199,373.404 194.043 C 374.282 194.887,375.335 195.831,375.745 196.140 C 376.154 196.449,377.255 197.433,378.191 198.326 C 379.128 199.219,380.468 200.428,381.170 201.013 C 381.872 201.598,382.777 202.423,383.180 202.847 L 383.913 203.617 391.425 203.617 C 395.556 203.617,398.936 203.543,398.936 203.452 C 398.936 203.257,397.880 202.308,396.940 201.658 C 396.575 201.405,395.872 200.834,395.377 200.387 C 394.882 199.940,394.404 199.574,394.313 199.573 C 394.223 199.573,393.862 199.306,393.511 198.981 C 393.160 198.655,392.489 198.105,392.022 197.758 C 391.554 197.412,390.845 196.816,390.446 196.436 C 390.048 196.056,389.608 195.745,389.468 195.745 C 389.329 195.745,389.032 195.540,388.810 195.291 C 388.587 195.041,387.926 194.474,387.340 194.031 C 386.755 193.588,385.998 192.978,385.658 192.676 C 385.318 192.375,384.983 192.127,384.914 192.127 C 384.844 192.126,384.500 191.859,384.149 191.534 C 383.798 191.209,383.128 190.662,382.660 190.319 C 382.191 189.976,381.412 189.358,380.928 188.944 C 380.444 188.530,379.606 187.869,379.066 187.475 C 377.349 186.221,377.498 186.170,382.860 186.170 C 385.813 186.170,387.685 186.089,387.766 185.957 C 387.838 185.840,388.251 185.744,388.683 185.744 C 390.270 185.742,394.043 183.174,394.043 182.095 C 394.043 181.893,394.138 181.668,394.255 181.596 C 394.372 181.523,394.468 181.093,394.468 180.638 C 394.468 180.184,394.564 179.753,394.681 179.681 C 394.816 179.597,394.894 176.917,394.894 172.340 C 394.894 167.764,394.816 165.083,394.681 165.000 C 394.564 164.928,394.468 164.443,394.468 163.924 C 394.468 163.404,394.372 162.979,394.255 162.979 C 394.138 162.979,394.043 162.799,394.043 162.579 C 394.043 162.360,393.899 162.061,393.723 161.915 C 393.548 161.769,393.404 161.562,393.404 161.454 C 393.404 161.002,391.562 159.574,390.978 159.574 C 390.791 159.574,390.638 159.479,390.638 159.362 C 390.638 159.245,390.442 159.149,390.202 159.149 C 389.962 159.149,389.460 158.981,389.085 158.777 C 388.173 158.278,343.607 158.054,343.630 158.548 M49.056 160.039 C 48.104 160.592,46.423 161.064,45.407 161.064 C 44.062 161.064,43.136 161.643,42.420 162.931 C 41.616 164.379,41.832 164.660,43.046 163.745 C 43.887 163.111,45.260 162.340,45.548 162.340 C 45.919 162.340,48.797 160.845,49.468 160.304 C 50.124 159.775,49.833 159.588,49.056 160.039 M60.124 160.977 C 58.355 163.053,56.902 163.812,53.932 164.212 C 51.721 164.509,49.995 165.440,47.361 167.755 L 46.742 168.298 47.278 168.298 C 47.572 168.298,48.137 168.079,48.534 167.812 C 50.360 166.581,52.075 166.096,55.532 165.831 C 58.082 165.636,59.506 165.124,60.507 164.041 C 61.250 163.239,62.128 163.062,62.128 163.715 C 62.128 164.576,63.467 164.890,65.181 164.432 C 66.307 164.130,67.524 164.554,70.269 166.204 C 71.211 166.770,72.068 167.234,72.172 167.234 C 72.276 167.234,72.757 167.426,73.242 167.660 C 74.307 168.174,74.255 168.172,74.255 167.708 C 74.255 166.679,72.649 165.478,69.787 164.368 C 69.261 164.163,68.610 163.911,68.341 163.807 C 68.072 163.702,67.479 163.617,67.022 163.617 C 65.923 163.617,64.125 163.137,63.129 162.578 C 62.688 162.330,62.190 162.128,62.022 162.128 C 61.616 162.128,61.277 161.457,61.277 160.652 C 61.277 159.778,61.106 159.826,60.124 160.977 M382.936 166.173 C 384.758 167.122,384.787 167.216,384.787 172.037 C 384.787 176.431,384.519 177.872,383.701 177.872 C 383.566 177.872,383.337 178.016,383.191 178.191 C 383.046 178.367,382.657 178.511,382.327 178.511 C 381.997 178.511,381.668 178.606,381.596 178.723 C 381.391 179.054,354.417 179.012,354.085 178.681 C 353.808 178.404,353.699 166.159,353.972 165.887 C 354.392 165.466,382.107 165.741,382.936 166.173 M56.994 168.012 C 56.411 168.718,55.064 169.139,53.380 169.144 L 51.760 169.149 51.398 170.302 C 50.976 171.644,50.393 172.045,49.749 171.436 C 48.499 170.254,46.834 170.783,46.815 172.369 C 46.812 172.678,46.665 173.204,46.491 173.540 C 45.787 174.888,46.391 175.074,47.780 173.936 C 48.813 173.090,49.453 172.993,49.795 173.631 C 50.143 174.282,51.470 172.744,51.496 171.657 C 51.505 171.282,52.274 170.757,53.298 170.428 C 53.766 170.277,54.340 170.081,54.574 169.992 C 54.809 169.903,55.330 169.705,55.733 169.553 C 56.507 169.260,57.872 168.173,57.872 167.850 C 57.872 167.532,57.305 167.637,56.994 168.012 M72.165 170.007 C 70.438 171.060,69.237 171.255,68.422 170.614 C 67.106 169.579,68.013 171.728,70.025 174.412 C 70.823 175.477,71.017 176.596,70.402 176.596 C 70.298 176.596,70.213 176.739,70.213 176.915 C 70.213 177.475,71.123 177.114,72.221 176.119 C 72.448 175.913,72.711 175.745,72.806 175.745 C 73.213 175.745,72.934 175.141,72.474 175.026 C 71.893 174.880,70.426 173.448,70.426 173.027 C 70.426 172.747,71.637 172.128,72.186 172.128 C 72.342 172.128,72.845 172.471,73.303 172.891 C 74.260 173.767,74.508 173.545,73.819 172.430 C 73.393 171.741,73.374 171.589,73.615 170.856 C 74.052 169.533,73.486 169.202,72.165 170.007 M84.827 171.117 C 85.239 171.965,85.647 172.707,85.734 172.766 C 85.944 172.909,88.355 176.777,88.650 177.447 C 89.739 179.912,90.010 181.090,90.441 185.213 C 91.477 195.120,90.664 197.685,85.372 201.210 C 84.407 201.854,83.617 202.395,83.617 202.414 C 83.617 202.798,89.800 202.365,90.426 201.938 C 92.771 200.333,93.498 198.434,93.485 193.936 C 93.470 188.465,93.152 185.604,92.327 183.511 C 92.108 182.953,91.899 181.967,91.832 181.167 C 91.730 179.959,90.497 176.883,89.421 175.155 C 89.037 174.539,88.723 173.982,88.723 173.918 C 88.723 173.682,87.550 172.218,86.947 171.702 C 86.605 171.410,85.921 170.811,85.426 170.372 C 84.119 169.213,83.983 169.382,84.827 171.117 M37.340 172.128 C 37.129 172.362,36.827 172.553,36.669 172.553 C 36.512 172.553,36.382 172.625,36.382 172.713 C 36.381 172.801,36.070 173.053,35.690 173.274 C 34.886 173.742,32.518 175.031,31.598 175.502 C 29.191 176.732,28.239 178.876,27.756 184.149 C 27.442 187.588,27.314 188.085,26.440 189.275 C 25.885 190.032,25.825 190.426,26.264 190.426 C 26.710 190.426,26.860 190.783,26.610 191.250 C 26.432 191.583,26.524 191.802,27.110 192.442 C 28.106 193.529,28.360 194.302,29.160 198.670 C 29.631 201.240,30.583 204.089,31.933 206.968 C 33.024 209.294,33.246 209.465,34.056 208.603 C 34.338 208.302,35.288 207.719,36.168 207.307 C 37.047 206.894,38.041 206.423,38.377 206.260 C 39.100 205.910,39.362 206.021,39.362 206.678 C 39.362 207.512,38.300 208.221,34.415 209.979 C 31.799 211.162,34.255 210.425,37.553 209.036 C 37.904 208.889,38.718 208.547,39.362 208.278 C 40.005 208.009,40.580 207.723,40.638 207.643 C 40.697 207.564,41.247 207.321,41.862 207.104 C 42.845 206.756,42.979 206.638,42.979 206.120 C 42.979 205.797,43.064 205.532,43.169 205.532 C 43.568 205.532,43.632 204.813,43.253 204.589 C 41.946 203.816,38.900 203.824,37.096 204.604 C 35.892 205.124,35.531 204.861,36.055 203.847 C 36.591 202.809,36.457 202.383,35.156 200.992 C 33.865 199.614,32.553 197.844,32.553 197.483 C 32.553 197.366,32.472 197.238,32.373 197.199 C 31.167 196.725,30.674 190.293,31.576 186.809 C 31.986 185.223,32.291 183.113,32.528 180.213 C 32.751 177.499,32.981 177.076,35.722 174.365 C 37.022 173.080,38.085 171.955,38.085 171.865 C 38.085 171.570,37.732 171.695,37.340 172.128 M92.553 175.000 C 92.553 175.058,92.885 175.457,93.291 175.887 C 94.176 176.826,95.532 179.486,95.532 180.285 C 95.532 180.599,95.614 181.023,95.714 181.226 C 98.430 186.748,98.921 187.894,99.157 189.255 C 99.416 190.746,100.321 193.545,100.667 193.926 C 100.979 194.268,100.873 195.263,100.342 196.976 C 100.061 197.878,99.721 199.239,99.584 200.000 C 99.448 200.761,99.252 201.670,99.150 202.021 C 99.047 202.372,98.813 203.173,98.630 203.801 C 98.252 205.100,98.211 207.311,98.539 208.723 C 98.727 209.533,98.830 210.185,98.920 211.130 C 98.929 211.224,99.043 211.236,99.174 211.155 C 99.334 211.056,99.365 210.542,99.270 209.576 C 98.978 206.616,99.634 203.043,100.985 200.232 C 102.913 196.218,103.008 195.817,102.451 194.071 C 102.278 193.529,101.840 192.129,101.477 190.961 C 100.640 188.263,99.934 186.718,99.036 185.619 C 98.553 185.027,98.135 184.108,97.731 182.747 C 97.130 180.722,96.665 179.801,94.907 177.158 C 93.911 175.660,92.553 174.415,92.553 175.000 M84.681 177.437 C 84.681 177.548,84.789 177.907,84.920 178.235 C 85.052 178.562,85.236 179.021,85.329 179.255 C 85.883 180.647,86.043 187.368,85.564 189.149 C 85.423 189.676,85.227 190.735,85.129 191.502 C 84.854 193.664,84.414 194.198,83.419 193.577 C 83.102 193.379,82.816 193.390,82.092 193.630 C 80.725 194.084,78.949 194.017,78.183 193.484 C 77.425 192.957,76.188 192.340,75.888 192.340 C 75.264 192.340,78.180 194.720,79.630 195.395 C 81.288 196.166,81.613 197.778,80.106 197.751 C 79.070 197.733,75.870 196.354,74.309 195.253 C 72.299 193.836,72.945 195.047,75.733 197.926 C 77.587 199.840,77.805 200.000,78.559 200.000 C 79.150 200.000,79.407 200.102,79.490 200.372 C 79.554 200.577,79.682 200.891,79.776 201.071 C 80.285 202.046,80.234 202.680,79.583 203.500 C 78.967 204.275,78.936 204.408,78.936 206.296 C 78.936 208.127,78.836 208.650,78.240 209.938 C 77.552 211.426,72.939 213.617,70.495 213.617 C 69.224 213.617,67.872 213.939,67.872 214.242 C 67.872 214.328,68.710 214.273,69.734 214.119 C 73.735 213.517,75.006 213.915,72.606 215.018 C 70.035 216.199,67.630 216.530,66.643 215.839 C 65.690 215.171,66.136 216.091,67.178 216.942 C 67.733 217.395,68.547 218.125,68.987 218.564 C 69.901 219.475,70.000 219.514,70.000 218.962 C 70.000 218.398,70.499 218.052,71.205 218.127 C 71.709 218.181,71.821 218.103,71.883 217.660 C 71.986 216.923,72.239 216.816,73.869 216.812 C 75.536 216.808,77.761 215.981,77.939 215.300 C 78.179 214.381,78.880 214.711,81.393 216.932 C 83.510 218.802,83.857 219.003,83.032 217.879 C 82.652 217.361,82.340 216.780,82.340 216.588 C 82.340 216.178,81.051 214.964,79.994 214.378 C 78.764 213.696,78.681 213.385,79.481 212.447 C 81.244 210.380,81.256 210.370,81.865 210.534 C 82.847 210.799,84.741 210.770,84.836 210.490 C 84.899 210.303,84.750 210.284,84.282 210.418 C 83.322 210.693,81.829 210.200,81.737 209.576 C 81.593 208.602,82.923 208.536,85.388 209.395 C 86.070 209.632,86.672 209.781,86.727 209.727 C 86.850 209.604,85.385 208.723,85.056 208.723 C 84.811 208.723,83.676 208.387,82.807 208.057 C 82.384 207.896,82.325 207.745,82.381 206.967 L 82.447 206.064 83.408 206.001 C 84.247 205.946,84.481 206.034,85.250 206.692 C 86.576 207.828,87.134 207.766,89.574 206.213 C 90.810 205.427,90.699 205.003,89.326 205.259 C 88.613 205.392,86.750 204.785,85.653 204.062 C 84.967 203.609,84.566 203.511,83.419 203.511 C 81.657 203.511,81.652 203.238,83.372 201.318 C 85.429 199.022,85.430 199.021,85.385 197.755 C 85.349 196.745,85.411 196.554,85.902 196.168 C 86.893 195.388,87.121 194.872,87.153 193.332 C 87.169 192.531,87.277 191.669,87.392 191.417 C 88.773 188.378,88.925 185.160,87.855 181.581 C 87.747 181.221,87.660 180.810,87.660 180.666 C 87.660 180.344,86.387 178.363,85.763 177.713 C 85.294 177.226,84.681 177.069,84.681 177.437 M92.340 180.643 C 92.340 180.762,92.559 181.217,92.827 181.653 C 94.882 185.008,95.767 190.953,95.041 196.525 C 94.902 197.598,94.715 198.547,94.628 198.635 C 94.540 198.723,94.468 198.966,94.468 199.177 C 94.468 199.387,94.211 200.018,93.898 200.578 C 93.584 201.138,93.223 201.787,93.096 202.021 C 92.969 202.255,92.693 202.702,92.483 203.015 C 92.113 203.565,92.115 203.609,92.540 204.442 C 93.040 205.422,93.129 207.421,92.747 209.093 C 92.138 211.761,91.790 212.837,91.124 214.110 C 90.697 214.925,90.882 215.020,91.507 214.308 C 96.384 208.751,97.192 207.321,97.669 203.404 C 98.514 196.470,98.346 192.732,97.037 189.317 C 96.681 188.387,96.624 188.004,96.796 187.682 C 97.128 187.063,97.073 186.633,96.596 186.121 C 96.362 185.870,96.170 185.553,96.170 185.417 C 96.170 185.127,95.260 183.379,94.628 182.453 C 93.597 180.944,92.340 179.949,92.340 180.643 M47.766 181.657 C 47.766 182.628,48.053 182.970,48.870 182.975 C 49.127 182.977,49.396 182.883,49.468 182.766 C 49.716 182.364,50.582 182.529,50.706 183.002 C 51.029 184.236,50.029 185.063,48.740 184.628 C 46.177 183.761,44.825 180.456,47.127 180.682 C 47.728 180.741,47.766 180.799,47.766 181.657 M75.106 181.178 C 75.106 183.620,70.529 185.101,70.255 182.748 C 70.145 181.801,70.771 181.514,71.420 182.214 C 72.193 183.047,73.802 182.620,73.498 181.662 C 73.319 181.098,73.766 180.638,74.494 180.638 C 75.008 180.638,75.106 180.725,75.106 181.178 M77.612 181.395 C 78.313 181.886,78.225 182.082,76.602 183.655 C 75.112 185.098,73.772 185.957,73.013 185.957 C 72.155 185.957,72.095 186.481,72.867 187.229 C 73.685 188.022,73.614 188.573,72.647 188.941 C 72.361 189.050,72.128 189.290,72.128 189.476 C 72.128 189.735,71.944 189.798,71.330 189.747 L 70.532 189.681 70.468 188.575 C 70.343 186.410,71.530 184.681,73.143 184.681 C 73.923 184.681,75.397 183.443,75.884 182.380 C 76.539 180.949,76.780 180.812,77.612 181.395 M39.200 185.103 C 38.885 185.608,38.845 188.004,39.149 188.191 C 39.266 188.264,39.362 188.598,39.362 188.934 C 39.362 189.913,40.360 190.638,41.709 190.638 C 42.048 190.638,42.766 190.918,43.304 191.259 C 44.267 191.869,44.299 191.874,45.226 191.558 C 46.337 191.180,46.632 190.851,45.862 190.851 C 44.913 190.851,44.043 189.867,44.043 188.795 L 44.043 187.872 42.958 187.872 C 41.272 187.872,40.152 186.926,39.957 185.336 C 39.875 184.671,39.536 184.566,39.200 185.103 M24.481 192.979 C 24.382 196.437,24.477 200.056,24.698 201.277 C 26.181 209.451,28.136 214.157,31.595 217.872 C 31.976 218.282,32.587 219.038,32.952 219.553 C 33.737 220.659,33.837 220.241,33.106 218.910 C 32.824 218.398,32.526 217.548,32.443 217.021 C 32.228 215.668,32.029 215.388,31.166 215.226 C 30.629 215.125,30.348 214.931,30.208 214.563 C 30.100 214.277,29.912 214.043,29.793 214.043 C 29.335 214.043,29.605 212.797,30.319 211.611 C 31.462 209.713,31.085 208.070,28.981 205.768 C 27.971 204.662,27.472 203.101,27.127 199.957 C 27.022 199.004,26.903 198.715,26.574 198.610 C 25.518 198.275,24.980 196.664,24.695 192.979 L 24.538 190.957 24.481 192.979 M66.877 200.340 C 66.807 200.523,66.960 201.047,67.217 201.504 C 68.288 203.410,67.316 204.895,64.778 205.230 C 63.178 205.441,62.236 205.830,61.622 206.533 C 60.513 207.803,58.470 207.482,56.564 205.740 C 55.733 204.980,55.525 204.894,54.531 204.894 C 52.683 204.894,51.966 203.862,52.660 202.201 C 53.053 201.259,53.081 200.356,52.713 200.478 C 52.566 200.527,52.394 200.957,52.329 201.435 C 52.264 201.913,52.109 202.432,51.986 202.588 C 50.867 204.003,52.625 207.360,55.157 208.643 C 55.825 208.981,56.433 209.518,56.872 210.155 C 57.247 210.698,57.917 211.524,58.362 211.991 C 59.312 212.988,59.415 214.167,58.588 214.577 C 57.626 215.054,56.383 216.028,56.383 216.306 C 56.383 216.663,56.349 216.664,57.447 216.277 C 59.270 215.633,61.465 216.013,62.659 217.179 C 63.211 217.718,64.592 218.511,64.979 218.511 C 65.422 218.511,64.981 217.826,64.376 217.573 C 63.946 217.393,63.497 216.982,63.286 216.572 C 62.871 215.771,62.315 215.264,61.317 214.779 C 59.923 214.101,60.259 212.435,61.962 211.572 C 62.974 211.059,63.250 210.692,63.499 209.526 C 63.584 209.127,63.972 208.720,64.737 208.224 C 66.388 207.156,67.206 206.284,68.032 204.713 C 68.393 204.025,68.368 201.921,67.987 201.009 C 67.636 200.169,67.073 199.830,66.877 200.340 M44.468 201.489 C 44.293 201.603,43.831 201.697,43.443 201.699 C 42.206 201.705,41.370 202.512,42.251 202.850 C 43.380 203.283,45.532 202.453,45.532 201.585 C 45.532 201.234,44.944 201.182,44.468 201.489 M72.383 201.532 C 72.243 201.672,72.128 201.895,72.128 202.027 C 72.128 202.313,71.300 203.098,70.852 203.235 C 70.638 203.301,70.836 203.524,71.456 203.915 L 72.378 204.497 73.357 204.037 C 74.884 203.319,75.862 203.911,76.266 205.798 C 76.522 206.994,76.809 206.348,76.809 204.574 L 76.809 202.766 75.983 202.766 C 74.956 202.766,73.702 202.257,73.353 201.699 C 73.051 201.216,72.750 201.164,72.383 201.532 M39.196 202.033 C 38.642 202.421,38.592 202.729,39.053 202.906 C 39.374 203.029,40.426 202.242,40.426 201.878 C 40.426 201.588,39.702 201.679,39.196 202.033 M45.340 203.640 C 44.077 204.646,44.073 204.661,44.840 205.344 C 46.983 207.250,49.769 208.936,50.777 208.936 C 51.333 208.936,49.405 207.225,47.535 206.060 C 45.166 204.583,45.342 203.299,47.766 204.371 C 49.354 205.073,50.281 205.063,48.861 204.359 C 48.293 204.077,47.513 203.606,47.127 203.312 L 46.425 202.777 45.340 203.640 M56.809 206.657 C 59.293 208.140,60.200 208.142,62.384 206.673 C 63.758 205.748,65.000 205.711,65.000 206.596 C 65.000 207.039,64.886 207.139,64.315 207.194 C 63.500 207.273,61.702 208.899,61.702 209.557 C 61.702 210.697,60.936 211.451,60.185 211.049 C 59.952 210.925,59.477 210.885,59.128 210.962 C 58.280 211.148,57.872 210.771,57.872 209.802 C 57.872 209.115,57.754 208.935,56.915 208.343 C 56.388 207.972,55.957 207.571,55.957 207.451 C 55.957 207.332,55.781 207.234,55.565 207.234 C 55.081 207.234,54.375 206.492,54.566 206.184 C 54.817 205.777,55.617 205.946,56.809 206.657 M72.803 206.906 C 72.070 207.416,71.164 207.975,70.789 208.149 C 69.944 208.541,68.288 209.285,67.021 209.843 C 66.495 210.075,66.166 210.303,66.292 210.350 C 66.417 210.397,67.066 210.194,67.734 209.899 C 68.402 209.603,69.133 209.362,69.358 209.362 C 69.583 209.362,69.987 209.275,70.256 209.168 C 73.703 207.801,77.644 208.249,74.624 209.664 C 73.894 210.005,73.106 210.451,72.872 210.654 C 72.019 211.394,70.853 211.702,68.901 211.702 C 67.027 211.702,64.255 212.339,64.255 212.770 C 64.255 212.868,64.566 212.845,64.947 212.718 C 65.327 212.592,66.931 212.417,68.511 212.329 C 72.073 212.133,72.812 211.899,76.219 209.888 C 77.747 208.986,77.959 208.723,77.161 208.723 C 76.886 208.723,76.488 208.532,76.277 208.298 C 76.029 208.024,75.619 207.871,75.127 207.869 C 73.420 207.863,73.062 207.520,73.866 206.663 C 74.648 205.832,74.199 205.934,72.803 206.906 M44.405 206.943 C 44.331 207.017,44.353 207.232,44.455 207.422 C 44.556 207.611,44.706 208.216,44.789 208.767 C 44.956 209.883,45.266 210.168,46.809 210.625 C 47.335 210.781,48.452 211.135,49.291 211.412 C 51.090 212.005,53.944 212.148,52.979 211.596 C 52.686 211.429,52.321 211.288,52.167 211.284 C 52.013 211.280,51.582 211.049,51.209 210.770 C 50.550 210.277,50.065 210.137,48.085 209.866 C 46.996 209.716,46.513 209.341,45.501 207.857 C 44.784 206.804,44.653 206.695,44.405 206.943 M42.884 207.854 C 42.675 208.192,40.577 209.149,40.045 209.149 C 39.708 209.149,39.496 209.298,39.420 209.588 C 39.345 209.875,38.815 210.254,37.897 210.677 C 36.498 211.323,33.404 214.121,33.404 214.741 C 33.404 214.883,34.003 214.387,34.734 213.640 C 36.096 212.247,38.028 210.851,38.594 210.851 C 38.768 210.851,38.970 210.755,39.043 210.638 C 39.115 210.521,39.348 210.426,39.560 210.426 C 40.029 210.426,43.233 209.398,43.460 209.175 C 43.549 209.088,43.561 208.711,43.487 208.338 C 43.353 207.667,43.116 207.477,42.884 207.854 M87.949 210.165 C 88.123 210.446,89.988 211.359,90.120 211.228 C 90.293 211.054,89.136 210.297,88.440 210.129 C 88.108 210.049,87.887 210.065,87.949 210.165 M303.231 210.798 L 303.298 211.383 305.520 211.444 C 308.494 211.526,308.298 211.190,308.298 216.196 L 308.298 220.426 309.415 220.426 L 310.532 220.426 310.463 216.543 C 310.421 214.174,310.481 212.431,310.617 212.074 L 310.841 211.489 313.186 211.489 L 315.532 211.489 315.532 210.851 L 315.532 210.213 309.348 210.213 L 303.163 210.213 303.231 210.798 M42.447 212.907 C 40.482 214.258,39.642 214.894,39.821 214.894 C 40.058 214.894,42.232 213.826,43.085 213.291 C 43.553 212.997,44.056 212.701,44.202 212.632 C 44.485 212.500,44.579 211.690,44.309 211.719 C 44.221 211.729,43.383 212.263,42.447 212.907 M317.708 216.223 L 317.766 220.319 318.605 220.319 L 319.444 220.319 319.388 219.109 C 319.297 217.134,320.555 216.247,321.822 217.395 C 322.048 217.601,322.856 218.295,323.617 218.938 C 324.378 219.581,325.032 220.178,325.071 220.266 C 325.110 220.354,325.660 220.426,326.294 220.426 C 327.683 220.426,327.721 220.286,326.542 219.518 C 323.929 217.819,323.634 217.021,325.619 217.021 C 327.044 217.021,327.047 217.017,327.060 214.775 C 327.075 212.028,327.266 212.128,321.984 212.128 L 317.650 212.128 317.708 216.223 M334.043 212.553 C 334.043 212.787,333.971 212.980,333.883 212.981 C 333.795 212.983,333.540 213.365,333.317 213.832 C 333.093 214.299,332.830 214.681,332.732 214.681 C 332.634 214.681,332.553 214.872,332.553 215.106 C 332.553 215.340,332.475 215.532,332.380 215.532 C 332.284 215.532,332.046 215.843,331.849 216.223 C 331.653 216.604,331.372 217.104,331.225 217.335 C 329.359 220.270,329.308 220.426,330.217 220.426 C 330.737 220.426,330.989 220.243,331.535 219.468 L 332.210 218.511 335.069 218.511 C 338.169 218.511,338.437 218.609,338.953 219.947 C 339.213 220.617,340.851 220.663,340.851 220.000 C 340.851 219.766,340.773 219.574,340.678 219.574 C 340.582 219.574,340.342 219.263,340.144 218.883 C 339.946 218.503,339.544 217.809,339.250 217.340 C 338.956 216.872,338.622 216.298,338.507 216.064 C 338.264 215.567,337.813 214.834,337.658 214.681 C 337.598 214.622,337.361 214.215,337.130 213.777 C 336.900 213.338,336.638 212.979,336.547 212.979 C 336.457 212.979,336.383 212.787,336.383 212.553 C 336.383 212.179,336.241 212.128,335.213 212.128 C 334.184 212.128,334.043 212.179,334.043 212.553 M344.043 216.277 L 344.043 220.450 344.910 220.385 L 345.777 220.319 345.777 216.277 L 345.777 212.234 344.910 212.169 L 344.043 212.103 344.043 216.277 M350.000 216.277 L 350.000 220.426 354.377 220.426 L 358.753 220.426 358.685 219.947 C 358.618 219.478,358.552 219.467,355.440 219.409 C 351.412 219.334,351.702 219.637,351.702 215.506 L 351.702 212.128 350.851 212.128 L 350.000 212.128 350.000 216.277 M361.751 216.223 L 361.809 220.319 366.239 220.377 L 370.669 220.434 370.600 219.951 C 370.533 219.475,370.484 219.467,367.143 219.409 C 363.332 219.343,363.191 219.292,363.191 217.960 C 363.191 216.760,363.509 216.596,365.837 216.596 C 367.632 216.596,367.660 216.588,367.660 216.071 C 367.660 215.552,367.638 215.546,365.479 215.486 L 363.298 215.426 363.232 214.521 C 363.143 213.281,363.553 213.153,367.442 213.212 L 370.532 213.258 370.599 212.693 L 370.667 212.128 366.180 212.128 L 361.693 212.128 361.751 216.223 M374.255 216.289 L 374.255 220.450 375.160 220.385 L 376.064 220.319 376.170 218.723 L 376.277 217.128 377.128 217.067 C 378.031 217.003,378.839 217.526,381.003 219.576 C 381.805 220.336,382.014 220.426,382.971 220.426 C 384.354 220.426,384.321 220.317,382.548 219.043 C 380.596 217.640,380.493 217.021,382.210 217.021 C 384.082 217.021,384.929 214.136,383.482 212.689 L 382.921 212.128 378.588 212.128 L 374.255 212.128 374.255 216.289 M388.564 212.484 C 387.978 212.892,387.812 216.383,388.378 216.383 C 388.539 216.383,388.796 216.534,388.950 216.718 C 389.185 217.002,389.748 217.045,392.646 216.997 L 396.064 216.941 396.130 217.848 C 396.236 219.306,396.108 219.362,392.642 219.362 C 389.825 219.362,389.559 219.328,389.178 218.919 C 388.630 218.330,387.791 218.441,387.696 219.113 C 387.527 220.305,387.973 220.426,392.553 220.426 C 397.616 220.426,397.447 220.511,397.447 217.942 C 397.447 215.496,397.511 215.532,393.144 215.532 L 389.619 215.532 389.524 214.628 C 389.471 214.130,389.467 213.652,389.514 213.564 C 389.703 213.211,396.170 213.380,396.170 213.738 C 396.170 213.976,396.337 214.052,396.755 214.003 C 397.554 213.912,397.688 213.059,396.988 212.521 C 396.290 211.984,389.324 211.953,388.564 212.484 M325.333 213.412 C 325.644 213.578,325.745 213.860,325.745 214.567 C 325.745 216.091,325.519 216.192,322.266 216.123 L 319.468 216.064 319.403 214.919 C 319.301 213.135,319.208 213.191,322.241 213.191 C 323.715 213.191,325.107 213.291,325.333 213.412 M381.929 213.412 C 382.436 213.683,382.521 215.543,382.045 215.938 C 381.846 216.103,380.821 216.163,378.907 216.123 L 376.064 216.064 375.999 214.919 C 375.897 213.135,375.804 213.191,378.837 213.191 C 380.311 213.191,381.703 213.291,381.929 213.412 M335.838 214.260 C 336.021 214.608,336.320 215.179,336.503 215.528 C 336.686 215.876,336.925 216.217,337.035 216.285 C 338.065 216.921,337.029 217.660,335.106 217.660 C 332.723 217.660,332.589 217.488,333.617 215.745 C 333.968 215.149,334.255 214.571,334.255 214.459 C 334.255 213.472,335.352 213.334,335.838 214.260 M43.433 214.157 C 43.039 214.328,42.529 214.468,42.298 214.468 C 41.836 214.468,41.871 214.887,42.353 215.114 C 43.533 215.670,44.336 216.183,45.638 217.208 C 46.457 217.854,47.176 218.437,47.234 218.504 C 47.604 218.931,48.603 219.362,49.222 219.362 C 50.130 219.362,50.491 219.766,50.295 220.565 C 50.160 221.115,50.234 221.074,51.113 220.106 C 51.645 219.521,52.713 218.566,53.487 217.984 C 55.674 216.339,55.118 216.075,51.089 216.845 C 49.998 217.053,49.921 217.038,49.493 216.529 C 49.245 216.235,48.811 215.927,48.529 215.844 C 48.246 215.761,47.565 215.370,47.014 214.975 C 46.464 214.579,45.863 214.255,45.679 214.255 C 45.495 214.255,45.285 214.160,45.213 214.043 C 45.028 213.743,44.274 213.792,43.433 214.157 " stroke="none" fill-rule="evenodd"></path></g></svg>