<svg id="svg" xmlns="http://www.w3.org/2000/svg"  width="400" height="400" viewBox="0, 0, 400,400"><g id="svgg"><path id="path0" d="M1.893 21.891 C 1.487 28.883,1.243 30.514,0.487 31.270 C -0.393 32.150,-0.078 61.594,0.830 63.268 C 1.286 64.110,1.907 68.109,2.210 72.154 C 2.513 76.200,3.079 83.135,3.466 87.566 C 3.854 91.996,4.379 99.247,4.633 103.678 C 4.887 108.109,5.420 112.145,5.817 112.648 C 6.476 113.481,7.107 117.689,8.148 128.196 C 8.358 130.315,8.817 132.349,9.168 132.715 C 9.520 133.081,9.817 134.814,9.830 136.567 C 9.842 138.320,10.315 140.367,10.880 141.115 C 11.446 141.863,11.909 143.814,11.909 145.452 C 11.909 147.089,12.224 148.624,12.609 148.862 C 12.995 149.100,13.310 150.518,13.310 152.014 C 13.310 153.510,13.625 154.928,14.011 155.166 C 14.396 155.404,14.721 156.763,14.733 158.185 C 14.746 159.607,15.218 161.382,15.784 162.130 C 16.350 162.878,16.813 164.357,16.813 165.417 C 16.813 166.476,17.128 167.538,17.513 167.776 C 17.898 168.014,18.214 169.275,18.214 170.578 C 18.214 171.881,18.529 173.142,18.914 173.380 C 19.299 173.618,19.625 174.661,19.637 175.698 C 19.649 176.735,20.122 178.195,20.688 178.943 C 21.253 179.691,21.716 181.012,21.716 181.879 C 21.716 182.746,22.032 183.650,22.417 183.888 C 22.802 184.126,23.117 185.248,23.117 186.381 C 23.117 187.514,23.433 188.441,23.818 188.441 C 24.203 188.441,24.518 189.348,24.518 190.457 C 24.518 191.566,24.991 192.865,25.569 193.345 C 26.147 193.825,26.620 194.948,26.620 195.841 C 26.620 196.735,26.935 197.660,27.320 197.898 C 27.706 198.137,28.021 199.101,28.021 200.041 C 28.021 200.982,28.336 201.751,28.722 201.751 C 29.107 201.751,29.422 202.501,29.422 203.417 C 29.422 204.333,29.895 205.475,30.473 205.954 C 31.051 206.434,31.524 207.400,31.524 208.100 C 31.524 208.801,31.839 209.569,32.224 209.807 C 32.609 210.045,32.925 210.991,32.925 211.909 C 32.925 212.827,33.240 213.772,33.625 214.011 C 34.011 214.249,34.326 215.017,34.326 215.717 C 34.326 216.418,34.799 217.384,35.377 217.863 C 35.954 218.343,36.427 219.327,36.427 220.051 C 36.427 220.774,36.743 221.366,37.128 221.366 C 37.513 221.366,37.821 221.760,37.813 222.242 C 37.794 223.329,46.388 240.543,47.110 240.864 C 47.399 240.992,47.636 241.702,47.636 242.440 C 47.636 243.179,47.951 243.783,48.336 243.783 C 48.722 243.783,49.037 244.423,49.037 245.206 C 49.037 245.989,49.510 246.810,50.088 247.032 C 50.665 247.254,51.138 248.032,51.138 248.761 C 51.138 249.491,51.395 250.088,51.708 250.088 C 52.022 250.088,52.711 251.191,53.240 252.539 C 53.769 253.888,54.435 254.991,54.720 254.991 C 55.006 254.991,55.692 255.858,56.245 256.918 C 58.276 260.805,59.228 262.414,60.771 264.566 C 61.637 265.776,62.347 267.112,62.347 267.534 C 62.347 267.956,62.612 268.301,62.937 268.301 C 63.262 268.301,64.121 269.405,64.848 270.753 C 65.574 272.102,66.376 273.205,66.629 273.205 C 66.883 273.205,67.616 274.229,68.257 275.482 C 68.898 276.734,70.690 279.335,72.239 281.261 C 73.788 283.187,76.352 286.497,77.937 288.616 C 79.521 290.736,81.328 292.942,81.951 293.520 C 82.574 294.098,84.003 295.832,85.125 297.373 C 89.407 303.251,117.064 330.909,122.942 335.190 C 124.483 336.313,126.217 337.741,126.795 338.364 C 127.373 338.987,129.580 340.794,131.699 342.378 C 133.818 343.963,137.128 346.527,139.054 348.076 C 140.981 349.625,143.581 351.417,144.834 352.058 C 146.086 352.700,147.110 353.438,147.110 353.698 C 147.110 353.958,148.687 355.092,150.613 356.217 C 152.539 357.342,154.116 358.512,154.116 358.816 C 154.116 359.121,154.452 359.370,154.863 359.370 C 155.274 359.370,156.643 360.158,157.906 361.121 C 159.169 362.084,160.567 362.872,161.012 362.872 C 161.457 362.872,161.821 363.110,161.821 363.402 C 161.821 363.693,162.774 364.353,163.939 364.868 C 165.103 365.384,166.443 366.170,166.916 366.616 C 167.888 367.531,172.091 369.913,176.007 371.766 C 177.452 372.450,178.634 373.251,178.634 373.545 C 178.634 373.840,179.068 374.081,179.599 374.081 C 180.130 374.081,180.956 374.553,181.436 375.131 C 181.916 375.709,182.900 376.182,183.623 376.182 C 184.347 376.182,184.939 376.497,184.939 376.883 C 184.939 377.268,185.363 377.583,185.882 377.583 C 187.086 377.583,191.089 379.568,191.621 380.430 C 191.844 380.791,192.639 381.086,193.386 381.086 C 194.134 381.086,194.746 381.401,194.746 381.786 C 194.746 382.172,195.230 382.487,195.821 382.487 C 196.413 382.487,197.659 382.986,198.591 383.597 C 200.106 384.590,200.491 384.596,202.244 383.656 C 203.321 383.079,207.513 380.976,211.559 378.983 C 220.128 374.762,225.636 371.827,229.072 369.652 C 230.420 368.798,232.469 367.639,233.625 367.076 C 234.781 366.514,236.702 365.337,237.894 364.463 C 239.087 363.588,240.282 362.872,240.551 362.872 C 240.820 362.872,241.421 362.550,241.886 362.157 C 244.078 360.303,255.067 353.065,255.689 353.065 C 256.076 353.065,256.394 352.828,256.397 352.539 C 256.400 352.250,257.494 351.270,258.830 350.361 C 260.165 349.451,262.133 347.954,263.203 347.034 C 264.273 346.114,265.343 345.360,265.579 345.360 C 265.816 345.359,267.077 344.398,268.381 343.224 C 269.686 342.050,272.091 340.144,273.727 338.990 C 275.363 337.835,277.727 335.869,278.981 334.622 C 280.235 333.375,283.310 330.635,285.814 328.533 C 291.641 323.642,305.650 309.620,309.252 305.074 C 310.777 303.150,312.992 300.630,314.176 299.475 C 315.359 298.319,317.264 296.112,318.409 294.571 C 319.554 293.031,321.077 291.139,321.793 290.368 C 322.510 289.597,324.381 287.233,325.952 285.114 C 327.523 282.995,329.065 281.156,329.378 281.027 C 329.691 280.899,329.948 280.426,329.949 279.977 C 329.950 279.527,330.907 278.056,332.076 276.708 C 333.244 275.359,334.583 273.585,335.051 272.765 C 335.519 271.945,337.084 269.496,338.529 267.322 C 339.974 265.149,341.156 263.061,341.156 262.683 C 341.156 262.306,341.421 261.996,341.744 261.996 C 342.067 261.996,342.691 261.287,343.129 260.420 C 343.568 259.553,344.714 257.583,345.677 256.042 C 346.640 254.501,348.133 251.979,348.996 250.438 C 349.859 248.897,350.943 247.005,351.404 246.235 C 353.539 242.673,364.273 220.900,364.273 220.131 C 364.273 219.654,364.588 219.264,364.974 219.264 C 365.359 219.264,365.674 218.653,365.674 217.905 C 365.674 217.157,365.989 216.350,366.375 216.112 C 366.760 215.874,367.075 215.106,367.075 214.405 C 367.075 213.705,367.548 212.739,368.126 212.259 C 368.704 211.780,369.177 210.638,369.177 209.722 C 369.177 208.806,369.492 208.056,369.877 208.056 C 370.263 208.056,370.578 207.287,370.578 206.346 C 370.578 205.406,370.893 204.441,371.278 204.203 C 371.664 203.965,371.979 203.181,371.979 202.461 C 371.979 201.740,372.452 200.678,373.030 200.100 C 373.608 199.522,374.081 198.257,374.081 197.289 C 374.081 196.321,374.396 195.334,374.781 195.096 C 375.166 194.858,375.482 194.047,375.482 193.294 C 375.482 191.921,375.649 191.481,377.815 187.159 C 378.458 185.875,378.984 184.081,378.984 183.172 C 378.984 182.263,379.299 181.324,379.685 181.086 C 380.070 180.848,380.385 179.744,380.385 178.634 C 380.385 177.524,380.701 176.420,381.086 176.182 C 381.471 175.944,381.786 175.040,381.786 174.173 C 381.786 173.306,382.249 171.985,382.815 171.237 C 383.381 170.489,383.853 168.871,383.866 167.642 C 383.878 166.413,384.203 165.212,384.588 164.974 C 384.974 164.736,385.289 163.317,385.289 161.821 C 385.289 160.326,385.604 158.907,385.989 158.669 C 386.375 158.431,386.692 157.388,386.694 156.351 C 386.697 155.314,387.170 153.563,387.745 152.459 C 388.321 151.356,388.792 149.247,388.792 147.772 C 388.792 146.298,389.107 144.897,389.492 144.658 C 389.877 144.420,390.193 142.844,390.193 141.156 C 390.193 139.468,390.508 137.891,390.893 137.653 C 391.278 137.415,391.594 135.968,391.594 134.437 C 391.594 132.906,392.067 130.522,392.644 129.139 C 393.222 127.756,393.695 124.992,393.695 122.997 C 393.695 121.002,393.987 119.070,394.343 118.704 C 394.699 118.338,395.153 115.674,395.351 112.785 C 396.026 102.937,397.151 93.112,397.700 92.265 C 399.141 90.043,400.241 30.365,399.024 20.490 L 398.398 15.412 200.333 15.412 L 2.269 15.412 1.893 21.891 M386.009 28.395 C 388.767 31.717,385.791 92.558,381.774 114.992 C 381.336 117.438,380.672 121.173,380.298 123.292 C 379.419 128.268,378.479 132.952,377.133 139.054 C 375.287 147.424,374.612 150.130,372.329 158.319 C 371.846 160.053,371.061 162.890,370.584 164.623 C 370.108 166.357,369.486 168.406,369.202 169.177 C 367.373 174.142,366.876 175.694,366.564 177.417 C 366.371 178.481,365.934 179.524,365.593 179.735 C 365.253 179.945,364.974 180.734,364.974 181.487 C 364.974 182.240,364.691 183.404,364.345 184.073 C 363.999 184.742,363.174 186.708,362.510 188.441 C 359.927 195.190,358.490 198.755,356.017 204.553 C 354.984 206.975,343.493 230.189,341.626 233.625 C 337.940 240.410,322.569 264.338,320.583 266.382 C 320.119 266.859,318.805 268.511,317.663 270.052 C 304.185 288.240,284.713 308.111,264.035 324.776 C 256.867 330.553,232.598 347.461,231.474 347.461 C 231.235 347.461,230.203 348.054,229.180 348.779 C 224.956 351.774,202.037 363.573,200.444 363.573 C 198.764 363.573,182.398 355.200,175.215 350.666 C 173.643 349.674,172.184 348.862,171.973 348.862 C 171.761 348.862,168.366 346.746,164.428 344.159 C 160.490 341.573,156.761 339.130,156.142 338.730 C 151.807 335.931,148.810 333.876,148.511 333.497 C 148.319 333.253,146.427 331.804,144.308 330.276 C 139.540 326.839,139.840 327.076,131.349 320.052 C 98.328 292.740,70.361 256.944,51.237 217.513 C 46.043 206.804,43.433 201.064,43.433 200.349 C 43.433 199.954,43.154 199.083,42.814 198.414 C 42.473 197.745,41.864 196.410,41.460 195.447 C 41.056 194.483,40.257 192.592,39.685 191.243 C 38.380 188.166,34.296 176.655,33.845 174.781 C 33.660 174.011,33.258 172.750,32.952 171.979 C 32.647 171.208,31.598 167.898,30.621 164.623 C 28.995 159.168,28.412 157.050,26.573 149.912 C 26.226 148.564,25.573 146.042,25.123 144.308 C 24.328 141.246,23.686 138.207,22.458 131.699 C 22.131 129.965,21.335 125.867,20.689 122.592 C 15.768 97.631,11.670 31.343,14.851 28.161 C 16.283 26.730,384.820 26.962,386.009 28.395 M121.080 42.376 C 120.891 42.565,117.607 43.009,113.783 43.362 C 109.959 43.716,103.835 44.515,100.175 45.139 C 96.515 45.763,92.505 46.435,91.264 46.632 C 87.581 47.218,84.547 50.228,85.059 52.789 C 85.292 53.954,85.125 56.725,84.688 58.946 C 82.962 67.718,87.133 77.831,96.038 86.464 C 105.647 95.779,107.124 100.526,102.513 107.277 C 90.235 125.254,85.157 131.823,80.945 135.174 C 75.540 139.475,71.645 145.850,71.645 150.395 C 71.645 151.981,70.917 154.781,70.029 156.617 C 68.542 159.688,67.547 171.962,67.875 183.187 C 67.897 183.958,68.160 190.893,68.459 198.599 L 69.002 212.609 72.855 220.665 L 76.708 228.722 76.941 237.368 L 77.175 246.015 79.190 242.272 C 82.053 236.954,82.158 228.229,79.426 222.657 C 76.866 217.434,76.566 216.618,75.609 212.259 C 75.143 210.140,74.478 207.303,74.131 205.954 C 72.496 199.606,71.603 191.940,72.199 189.370 C 72.541 187.896,72.829 182.346,72.838 177.036 C 72.850 169.792,73.292 165.016,74.606 157.900 C 75.569 152.685,76.357 147.617,76.357 146.637 C 76.357 145.407,77.579 143.636,80.314 140.905 C 84.465 136.758,87.793 132.502,93.263 124.343 C 95.071 121.646,99.021 117.245,102.041 114.563 C 110.782 106.798,116.586 100.498,118.675 96.504 C 119.741 94.467,122.452 90.757,124.700 88.259 C 126.947 85.762,128.627 83.560,128.433 83.366 C 128.040 82.973,119.521 91.748,115.327 96.866 C 111.420 101.635,110.184 101.141,108.900 94.295 L 108.426 91.769 111.211 91.769 C 114.836 91.769,116.861 90.129,121.227 83.660 C 124.068 79.449,126.173 77.404,132.652 72.562 C 144.414 63.772,145.283 61.295,138.788 55.072 C 136.123 52.518,135.233 53.090,135.936 56.903 C 136.681 60.944,136.090 63.504,133.546 67.250 C 125.583 78.978,117.441 80.643,112.993 71.454 C 111.476 68.319,110.808 67.887,108.208 68.362 C 106.514 68.672,105.590 68.316,103.654 66.611 C 100.626 63.942,98.212 64.803,100.778 67.636 C 101.475 68.405,103.212 73.811,104.316 78.644 C 105.389 83.341,105.307 87.566,104.142 87.566 C 102.391 87.566,92.469 76.936,92.469 75.059 C 92.469 74.617,92.154 74.256,91.769 74.256 C 91.384 74.256,91.068 73.688,91.068 72.995 C 91.068 72.301,90.674 71.338,90.193 70.854 C 88.901 69.557,89.305 55.973,90.715 53.245 C 92.713 49.382,99.758 48.020,117.688 48.031 C 133.975 48.040,136.895 48.831,143.766 55.087 C 145.972 57.096,148.415 58.942,149.195 59.189 C 151.772 60.007,149.376 65.594,145.709 67.316 C 144.746 67.768,143.206 68.488,142.287 68.914 C 140.310 69.832,133.100 76.785,133.100 77.773 C 133.100 79.122,134.277 78.404,138.039 74.762 C 141.661 71.254,152.055 65.453,159.019 63.051 C 160.368 62.586,162.102 61.943,162.872 61.623 C 168.226 59.397,169.406 58.933,171.278 58.313 C 177.852 56.137,192.371 54.925,194.691 56.359 C 195.973 57.151,193.659 59.373,190.996 59.907 C 188.328 60.443,186.168 61.385,176.182 66.372 C 167.381 70.767,167.034 70.988,163.027 74.715 C 158.528 78.900,156.844 79.860,153.993 79.860 C 152.555 79.860,150.498 80.237,149.420 80.697 C 147.235 81.632,126.425 102.141,127.040 102.755 C 127.402 103.117,133.673 98.885,135.787 96.851 C 142.460 90.433,144.366 92.221,138.313 99.219 C 137.026 100.708,134.467 104.448,132.627 107.531 C 130.788 110.613,127.270 115.240,124.811 117.812 C 118.982 123.909,115.052 129.717,111.623 137.303 C 110.217 140.415,110.219 141.029,111.667 149.912 C 112.327 153.958,113.134 159.475,113.462 162.172 C 114.485 170.594,116.844 176.748,122.078 184.650 C 124.708 188.621,123.994 189.678,118.143 190.472 C 113.608 191.087,112.808 191.590,114.227 192.930 C 115.630 194.254,126.075 199.871,130.298 201.572 C 131.261 201.960,132.924 202.629,133.993 203.058 C 140.014 205.476,150.126 198.355,155.536 187.886 C 157.979 183.159,156.917 183.713,149.465 191.052 C 140.951 199.435,135.469 202.652,132.517 200.995 C 129.924 199.540,130.148 197.597,133.100 195.951 C 138.268 193.068,152.014 181.527,152.014 180.071 C 152.014 179.188,150.459 179.097,149.527 179.926 C 147.086 182.094,138.896 184.535,133.971 184.561 L 128.738 184.588 126.095 181.611 C 120.720 175.556,119.826 171.935,119.318 154.178 C 118.898 139.454,119.180 137.944,124.326 127.361 C 131.874 111.837,137.722 123.388,131.795 142.115 C 131.218 143.939,131.273 144.909,132.038 146.389 C 133.582 149.374,135.118 150.180,144.308 152.827 C 146.042 153.327,148.817 154.451,150.475 155.326 C 152.491 156.391,154.695 156.918,157.130 156.917 L 160.771 156.917 157.968 155.604 C 156.427 154.882,154.162 153.906,152.934 153.436 C 148.904 151.893,140.105 142.031,140.105 139.058 C 140.105 136.620,148.076 139.329,148.975 142.072 C 151.355 149.334,155.328 153.415,160.017 153.415 C 164.342 153.415,166.358 155.212,166.433 159.135 C 166.465 160.805,166.544 165.421,166.608 169.393 C 166.728 176.802,167.586 178.381,168.373 172.641 C 168.895 168.836,170.309 165.632,172.534 163.215 C 173.418 162.256,175.158 160.053,176.402 158.319 C 177.647 156.585,179.603 153.937,180.751 152.435 C 183.456 148.894,183.382 146.849,180.385 142.400 C 177.872 138.669,177.401 137.014,178.634 136.252 C 179.019 136.014,179.335 134.911,179.335 133.800 C 179.335 132.690,179.019 131.587,178.634 131.349 C 176.956 130.311,177.909 126.925,180.293 125.451 C 185.722 122.096,187.947 124.009,187.257 131.442 C 186.792 136.452,188.435 137.319,189.358 132.552 C 190.144 128.496,191.134 125.361,192.561 122.414 C 193.377 120.728,194.046 119.023,194.046 118.626 C 194.046 118.230,194.683 117.328,195.463 116.622 C 197.951 114.371,198.677 116.166,197.518 121.707 C 196.540 126.384,196.248 139.739,197.106 140.597 C 198.085 141.576,198.378 139.817,198.761 130.684 C 199.336 116.982,200.084 117.070,207.403 131.699 C 210.382 137.654,211.559 141.269,211.559 144.463 C 211.559 146.643,211.761 147.188,212.352 146.597 C 213.249 145.700,211.867 134.774,210.771 134.096 C 210.433 133.888,210.158 133.102,210.158 132.348 C 210.158 131.595,209.859 130.432,209.495 129.763 C 209.130 129.094,208.079 126.970,207.159 125.044 C 206.239 123.117,205.155 120.911,204.751 120.140 C 204.347 119.370,203.704 117.951,203.321 116.988 C 202.939 116.025,202.272 114.355,201.839 113.277 C 200.932 111.021,200.776 105.779,201.616 105.779 C 202.326 105.779,204.553 110.748,204.553 112.329 C 204.553 112.975,204.842 114.052,205.195 114.721 C 205.548 115.390,206.382 117.185,207.049 118.710 C 207.715 120.236,209.318 123.136,210.610 125.156 C 211.902 127.177,212.960 129.254,212.960 129.774 C 212.960 130.293,213.219 131.018,213.536 131.384 C 215.712 133.894,218.438 149.101,217.285 152.290 C 216.278 155.076,216.229 156.918,217.163 156.918 C 217.585 156.918,217.863 159.806,217.863 164.181 C 217.863 172.138,219.987 177.599,225.209 183.075 C 228.034 186.038,228.971 188.066,229.597 192.577 C 230.323 197.811,230.882 197.624,234.081 191.078 C 235.434 188.310,234.667 186.575,229.947 181.734 C 223.709 175.333,221.566 167.249,224.533 161.302 C 228.097 154.158,231.046 158.399,231.225 170.928 L 231.311 176.883 232.151 173.730 C 233.166 169.923,235.091 169.466,236.751 172.638 C 238.938 176.819,251.332 186.952,252.998 185.922 C 253.903 185.363,252.540 183.846,248.848 181.306 C 241.361 176.155,238.031 165.394,245.345 169.988 C 248.694 172.091,251.189 172.251,249.961 170.285 C 249.079 168.873,250.112 166.725,251.672 166.725 C 252.064 166.725,252.735 166.275,253.163 165.726 C 253.590 165.176,256.416 163.906,259.441 162.904 C 268.188 160.007,272.504 156.601,272.504 152.593 C 272.504 150.799,273.832 150.329,275.257 151.619 C 278.001 154.103,277.583 142.542,274.676 135.552 C 274.355 134.781,273.768 133.363,273.370 132.399 C 272.973 131.436,272.165 129.544,271.575 128.195 C 266.924 117.558,266.657 116.287,269.069 116.287 C 270.484 116.287,274.710 118.809,275.190 119.940 C 276.150 122.204,277.408 120.097,277.408 116.227 C 277.408 111.038,273.316 102.613,268.482 97.850 C 266.501 95.898,265.508 94.312,265.504 93.093 C 265.492 88.834,252.701 78.571,245.534 77.070 C 239.598 75.826,237.458 74.745,230.653 69.553 C 221.900 62.874,217.056 60.283,213.269 60.256 C 210.208 60.233,208.835 58.353,211.208 57.434 C 215.961 55.592,217.354 55.767,223.516 58.978 C 229.276 61.979,235.457 63.737,240.322 63.758 C 247.655 63.789,251.856 67.168,262.338 81.464 C 263.223 82.671,264.383 83.363,265.522 83.363 C 266.880 83.363,269.385 85.433,275.851 91.899 C 280.546 96.594,284.596 100.226,284.850 99.972 C 285.105 99.717,284.971 99.096,284.553 98.592 C 283.201 96.963,284.663 96.080,288.624 96.132 C 290.739 96.159,293.336 95.940,294.396 95.645 C 296.668 95.012,296.925 96.056,295.276 99.219 C 292.797 103.973,293.505 105.529,300.876 111.518 C 306.832 116.359,313.797 122.990,316.560 126.450 L 318.234 128.546 317.743 126.445 C 317.062 123.527,314.798 120.249,309.406 114.373 C 299.151 103.199,299.481 100.773,313.852 81.611 C 328.920 61.520,318.635 48.208,288.072 48.244 C 273.475 48.262,270.681 49.061,255.767 57.483 L 251.990 59.616 250.163 57.903 C 247.752 55.643,241.454 51.839,240.123 51.839 C 239.543 51.839,236.002 50.253,232.252 48.315 L 225.435 44.792 215.520 44.111 C 210.066 43.736,203.023 43.229,199.868 42.984 C 195.696 42.659,192.830 42.847,189.360 43.670 C 186.736 44.293,181.311 45.269,177.306 45.839 C 172.266 46.555,168.706 47.513,165.747 48.949 C 163.395 50.090,160.688 51.252,159.731 51.530 L 157.991 52.037 159.615 52.638 C 161.708 53.412,161.209 54.927,158.766 55.215 C 155.915 55.552,150.690 53.321,146.760 50.088 C 141.195 45.511,139.733 44.835,133.776 44.089 C 130.688 43.701,127.360 43.080,126.382 42.708 C 124.482 41.986,121.648 41.808,121.080 42.376 M205.523 47.022 C 208.235 47.763,214.834 50.443,217.163 51.750 C 219.766 53.210,218.831 54.821,215.653 54.351 C 208.838 53.344,201.695 53.122,199.600 53.853 C 197.839 54.467,196.628 54.346,193.303 53.226 C 191.039 52.463,188.230 51.839,187.062 51.839 C 184.177 51.839,184.268 50.001,187.215 48.743 C 192.826 46.349,200.437 45.633,205.523 47.022 M177.667 50.078 C 181.419 51.645,180.264 52.766,173.812 53.821 C 167.740 54.814,166.025 54.628,166.025 52.976 C 166.025 50.003,173.208 48.214,177.667 50.078 M290.198 52.281 C 292.218 53.295,294.418 54.398,295.087 54.733 C 295.756 55.068,296.777 55.342,297.356 55.342 C 299.600 55.342,307.432 59.015,309.263 60.925 C 313.364 65.207,310.811 78.618,304.286 87.071 C 298.990 93.930,297.896 94.463,296.895 90.670 C 296.574 89.454,295.479 88.123,294.210 87.408 C 292.143 86.242,292.083 86.074,292.533 82.681 C 292.994 79.203,292.964 79.129,289.932 76.337 C 286.914 73.556,278.960 68.651,277.469 68.651 C 276.575 68.651,276.433 70.528,277.302 70.870 C 277.629 70.998,278.732 72.612,279.754 74.456 C 284.747 83.466,275.534 86.938,268.508 78.694 C 267.385 77.376,266.692 77.002,266.449 77.583 C 265.191 80.592,263.012 77.883,258.422 67.601 C 257.030 64.482,257.356 62.754,259.545 61.651 C 260.701 61.069,262.592 59.932,263.748 59.124 C 264.904 58.316,268.214 56.794,271.103 55.742 C 277.138 53.544,278.244 53.106,281.611 51.580 C 284.952 50.067,285.948 50.148,290.198 52.281 M208.714 66.825 C 217.430 72.463,219.800 73.555,223.317 73.555 C 226.224 73.555,226.845 73.837,228.492 75.901 C 229.522 77.192,231.571 78.815,233.045 79.509 C 237.337 81.529,243.509 85.944,245.377 88.331 C 246.325 89.542,247.283 90.239,247.505 89.878 C 247.728 89.518,246.509 87.438,244.796 85.255 C 240.475 79.750,241.819 76.623,246.640 80.965 C 247.248 81.513,247.952 81.961,248.203 81.961 C 248.454 81.961,250.384 83.065,252.492 84.413 C 254.600 85.762,256.588 86.865,256.910 86.865 C 258.431 86.865,262.324 90.976,261.554 91.769 C 261.014 92.324,260.343 92.368,259.452 91.908 C 253.766 88.969,252.174 89.113,255.108 92.302 C 259.905 97.514,263.796 109.008,261.589 111.446 C 260.378 112.785,260.448 114.374,261.989 120.490 C 263.421 126.174,263.542 127.324,262.759 127.807 C 262.334 128.070,261.770 127.720,261.505 127.030 C 260.297 123.882,249.973 116.988,246.467 116.988 C 245.510 116.988,242.297 120.472,240.983 122.934 C 239.860 125.037,233.630 130.417,230.357 132.109 C 226.731 133.984,228.609 135.931,232.721 134.560 C 235.053 133.783,238.472 130.898,241.925 126.794 C 243.501 124.921,244.130 124.630,245.725 125.034 C 246.776 125.300,249.212 125.595,251.138 125.688 C 254.812 125.867,257.189 126.882,259.558 129.286 C 260.338 130.078,261.547 130.945,262.245 131.213 C 262.943 131.480,263.384 132.093,263.226 132.575 C 262.797 133.876,260.256 134.022,258.016 132.874 C 255.344 131.506,248.687 130.620,248.687 131.633 C 248.687 132.054,249.439 132.399,250.358 132.399 C 252.191 132.399,254.221 133.333,257.514 135.693 C 258.700 136.543,261.636 137.553,264.054 137.942 C 270.078 138.912,272.233 141.217,269.352 143.608 C 268.774 144.087,268.301 145.243,268.301 146.176 C 268.301 150.925,257.320 158.513,250.932 158.177 C 244.018 157.815,246.109 155.453,259.882 148.068 C 261.224 147.349,262.679 146.430,263.117 146.027 C 265.536 143.799,264.597 138.643,262.061 140.227 C 261.001 140.889,259.993 140.634,256.506 138.819 C 254.163 137.600,251.622 136.602,250.858 136.602 C 250.095 136.602,249.275 136.287,249.037 135.902 C 248.799 135.517,246.277 135.201,243.433 135.201 C 240.588 135.201,238.066 135.517,237.828 135.902 C 237.590 136.287,236.855 136.602,236.195 136.602 C 232.585 136.602,227.671 143.911,227.671 149.282 C 227.671 151.610,222.700 156.217,220.189 156.217 C 218.623 156.217,218.564 156.011,218.564 150.546 C 218.564 144.547,219.126 143.139,223.361 138.529 C 224.703 137.068,224.866 136.602,224.035 136.602 C 223.432 136.602,222.533 137.091,222.037 137.689 C 220.284 139.802,217.579 138.670,216.929 135.552 C 215.970 130.949,214.855 127.188,214.239 126.480 C 213.516 125.649,213.473 121.894,214.186 121.885 C 214.475 121.882,216.976 124.325,219.745 127.314 C 223.742 131.629,224.959 132.572,225.650 131.888 C 226.757 130.793,225.890 129.073,221.618 123.892 C 215.717 116.737,214.511 112.850,216.150 106.271 C 216.740 103.906,215.087 102.333,211.975 102.299 C 208.081 102.256,201.751 94.671,201.751 90.048 C 201.751 89.213,201.395 88.954,200.643 89.242 C 200.034 89.476,199.246 89.667,198.892 89.667 C 198.538 89.667,198.249 89.989,198.249 90.383 C 198.249 92.044,194.092 97.421,188.489 103.010 C 180.385 111.094,178.634 113.284,178.634 115.337 C 178.634 121.472,195.394 103.484,197.157 95.457 C 197.754 92.741,200.181 89.731,200.629 91.152 C 201.697 94.539,201.729 96.252,200.753 97.741 C 200.170 98.632,199.446 101.357,199.145 103.796 C 198.619 108.071,198.520 108.244,196.413 108.581 C 195.112 108.790,192.509 110.436,189.984 112.648 C 184.880 117.120,180.306 120.490,179.341 120.490 C 178.952 120.490,178.632 120.727,178.630 121.016 C 178.627 121.305,177.656 122.093,176.472 122.767 C 174.321 123.991,174.320 123.996,174.807 128.546 C 175.266 132.833,175.210 133.100,173.853 133.100 C 171.351 133.100,171.489 134.366,174.288 137.103 C 179.646 142.343,180.898 149.308,177.433 154.597 C 176.299 156.328,174.431 156.791,174.430 155.342 C 174.429 153.808,167.434 140.541,165.639 138.667 C 163.359 136.287,158.170 134.999,154.466 135.893 C 146.467 137.824,140.105 136.572,140.105 133.068 C 140.105 126.942,153.292 125.840,161.035 131.319 C 166.522 135.201,169.237 135.367,165.235 131.575 C 163.476 129.909,161.474 127.565,160.784 126.365 C 159.180 123.574,156.318 121.891,153.173 121.891 C 151.811 121.891,150.501 121.576,150.263 121.191 C 150.025 120.806,148.664 120.490,147.240 120.490 C 144.507 120.490,144.751 120.196,142.169 126.620 C 140.908 129.761,138.442 128.665,139.015 125.219 C 140.367 117.087,140.588 116.148,143.256 107.180 C 143.887 105.061,144.570 102.697,144.775 101.926 C 145.627 98.726,147.382 95.713,150.325 92.399 C 152.042 90.466,153.263 88.588,153.039 88.225 C 152.357 87.122,149.885 87.486,148.002 88.967 C 144.671 91.587,143.002 90.370,145.889 87.427 C 149.450 83.796,153.774 81.720,155.071 83.017 C 156.488 84.433,156.468 84.439,160.743 81.281 C 170.165 74.321,180.276 70.053,187.342 70.053 C 190.740 70.053,197.548 68.544,197.548 67.792 C 197.548 67.494,197.966 67.250,198.477 67.250 C 198.988 67.250,200.146 66.462,201.051 65.499 C 203.184 63.229,203.145 63.222,208.714 66.825 M161.514 69.482 C 158.380 71.301,152.845 72.855,149.501 72.855 C 145.071 72.855,142.023 74.761,139.667 79.003 C 137.020 83.769,137.732 84.694,141.728 81.681 C 144.496 79.594,149.016 77.058,149.966 77.058 C 151.186 77.058,160.663 72.134,162.872 70.353 C 165.032 68.612,164.074 67.997,161.514 69.482 M197.958 72.569 C 192.131 79.404,187.349 81.902,177.569 83.219 C 170.291 84.199,164.607 87.264,155.933 94.884 L 153.898 96.673 155.660 96.673 C 156.630 96.673,158.491 95.952,159.797 95.072 C 165.808 91.020,171.454 89.422,182.837 88.551 C 191.235 87.909,195.920 86.223,199.218 82.659 C 201.664 80.016,204.553 79.434,204.553 81.584 C 204.553 84.418,208.962 85.453,214.606 83.943 C 218.315 82.951,222.320 84.346,231.358 89.778 C 234.462 91.644,237.281 93.170,237.624 93.170 C 237.966 93.170,239.551 93.800,241.146 94.571 C 244.652 96.265,244.483 96.257,244.483 94.731 C 244.483 91.342,239.195 87.388,229.772 83.732 C 228.039 83.059,225.896 82.228,225.011 81.885 C 224.126 81.542,222.171 81.261,220.667 81.261 C 217.048 81.261,211.129 79.681,207.851 77.840 C 206.399 77.025,204.759 76.357,204.206 76.357 C 202.868 76.357,201.751 74.148,201.751 71.500 C 201.751 68.621,201.188 68.780,197.958 72.569 M187.651 95.733 C 185.730 98.054,181.295 99.443,175.753 99.459 L 170.419 99.475 169.225 103.271 C 167.835 107.690,165.917 109.010,163.798 107.005 C 159.682 103.112,154.201 104.856,154.138 110.078 C 154.126 111.093,153.645 112.827,153.069 113.930 C 150.754 118.370,152.742 118.982,157.314 115.236 C 160.714 112.450,162.823 112.130,163.947 114.231 C 165.095 116.376,169.462 111.311,169.549 107.734 C 169.579 106.499,172.112 104.771,175.482 103.685 C 177.023 103.189,178.914 102.543,179.685 102.250 C 180.455 101.957,182.172 101.307,183.500 100.805 C 186.047 99.841,190.543 96.263,190.543 95.199 C 190.543 94.151,188.675 94.496,187.651 95.733 M237.601 102.301 C 231.915 105.767,227.959 106.409,225.276 104.298 C 220.943 100.890,223.931 107.967,230.556 116.803 C 233.184 120.309,233.821 123.993,231.798 123.993 C 231.454 123.993,231.173 124.466,231.173 125.044 C 231.173 126.889,234.170 125.701,237.785 122.422 C 238.532 121.745,239.399 121.191,239.712 121.191 C 241.051 121.191,240.132 119.204,238.617 118.824 C 236.704 118.344,231.874 113.631,231.874 112.244 C 231.874 111.321,235.864 109.282,237.669 109.282 C 238.184 109.282,239.840 110.413,241.349 111.795 C 244.498 114.679,245.316 113.947,243.047 110.276 C 241.645 108.008,241.580 107.507,242.376 105.095 C 243.814 100.738,241.952 99.648,237.601 102.301 M279.290 105.954 C 280.648 108.748,281.991 111.191,282.275 111.384 C 282.970 111.855,290.906 124.590,291.879 126.795 C 295.462 134.912,296.356 138.792,297.775 152.364 C 301.186 184.984,298.510 193.430,281.086 205.036 C 277.907 207.153,275.306 208.937,275.306 209.000 C 275.306 210.264,295.664 208.838,297.723 207.430 C 305.447 202.148,307.838 195.895,307.797 181.086 C 307.746 163.071,306.700 153.651,303.985 146.760 C 303.262 144.924,302.575 141.678,302.353 139.045 C 302.018 135.067,297.958 124.939,294.417 119.251 C 293.153 117.221,292.119 115.387,292.119 115.176 C 292.119 114.400,288.254 109.579,286.270 107.881 C 285.145 106.918,282.891 104.947,281.263 103.503 C 276.959 99.684,276.511 100.240,279.290 105.954 M122.942 109.282 C 122.245 110.053,121.250 110.683,120.732 110.683 C 120.214 110.683,119.788 110.919,119.785 111.208 C 119.783 111.497,118.758 112.329,117.509 113.056 C 114.862 114.596,107.066 118.840,104.034 120.390 C 96.111 124.443,92.976 131.501,91.387 148.862 C 90.351 160.186,89.931 161.820,87.055 165.740 C 85.226 168.233,85.027 169.527,86.474 169.527 C 87.943 169.527,88.436 170.703,87.612 172.242 C 87.026 173.338,87.328 174.059,89.258 176.166 C 92.537 179.746,93.375 182.291,96.009 196.673 C 97.559 205.134,100.694 214.515,105.140 223.993 C 108.731 231.651,109.462 232.214,112.128 229.375 C 113.057 228.386,116.186 226.466,119.080 225.107 C 121.975 223.749,125.248 222.199,126.355 221.663 C 128.736 220.509,129.597 220.874,129.597 223.037 C 129.597 225.784,126.101 228.117,113.310 233.906 C 104.698 237.803,112.785 235.375,123.643 230.803 C 124.799 230.316,127.478 229.193,129.597 228.306 C 131.716 227.419,133.608 226.479,133.800 226.217 C 133.993 225.954,135.806 225.155,137.828 224.439 C 141.065 223.295,141.506 222.906,141.506 221.202 C 141.506 220.136,141.788 219.264,142.132 219.264 C 143.446 219.264,143.659 216.897,142.410 216.159 C 138.107 213.616,128.078 213.641,122.136 216.209 C 118.174 217.921,116.984 217.055,118.710 213.716 C 120.476 210.301,120.034 208.896,115.749 204.318 C 111.501 199.779,107.180 193.953,107.180 192.763 C 107.180 192.377,106.913 191.956,106.586 191.827 C 102.616 190.268,100.992 169.089,103.962 157.618 C 105.314 152.399,106.317 145.451,107.099 135.902 C 107.830 126.967,108.590 125.575,117.615 116.649 C 121.894 112.418,125.394 108.714,125.394 108.418 C 125.394 107.447,124.233 107.856,122.942 109.282 M304.729 118.737 C 304.729 118.929,305.821 120.244,307.157 121.660 C 310.072 124.751,314.536 133.510,314.536 136.139 C 314.536 137.175,314.805 138.570,315.134 139.239 C 324.077 157.420,325.695 161.192,326.472 165.674 C 327.323 170.583,330.302 179.799,331.443 181.051 C 332.471 182.180,332.122 185.454,330.372 191.093 C 329.449 194.065,328.327 198.546,327.878 201.051 C 327.429 203.555,326.785 206.550,326.447 207.706 C 326.109 208.862,325.340 211.499,324.738 213.566 C 323.492 217.842,323.356 225.123,324.436 229.772 C 325.055 232.439,325.394 234.583,325.690 237.695 C 325.720 238.006,326.096 238.044,326.526 237.778 C 327.054 237.452,327.157 235.761,326.844 232.579 C 325.883 222.833,328.042 211.071,332.489 201.814 C 338.838 188.598,339.152 187.278,337.318 181.530 C 336.748 179.745,335.305 175.137,334.111 171.291 C 331.354 162.406,329.030 157.320,326.073 153.702 C 324.481 151.753,323.106 148.726,321.776 144.245 C 319.798 137.578,318.266 134.545,312.478 125.843 C 309.198 120.911,304.729 116.813,304.729 118.737 M278.809 126.762 C 278.809 127.129,279.164 128.311,279.597 129.389 C 280.030 130.467,280.636 131.979,280.942 132.750 C 282.767 137.333,283.293 159.460,281.718 165.324 C 281.252 167.058,280.608 170.544,280.286 173.072 C 279.380 180.190,277.931 181.949,274.656 179.903 C 273.610 179.250,272.670 179.288,270.287 180.079 C 265.786 181.572,259.939 181.354,257.416 179.598 C 254.920 177.862,250.847 175.832,249.858 175.832 C 247.805 175.832,257.405 183.667,262.179 185.888 C 267.637 188.427,268.710 193.733,263.748 193.646 C 260.336 193.586,249.799 189.045,244.658 185.421 C 238.043 180.755,240.169 184.744,249.348 194.221 C 255.454 200.524,256.172 201.051,258.652 201.051 C 260.600 201.051,261.444 201.388,261.719 202.277 C 261.928 202.951,262.351 203.986,262.659 204.576 C 264.335 207.787,264.169 209.876,262.024 212.575 C 259.996 215.126,259.895 215.565,259.895 221.780 C 259.895 227.808,259.565 229.532,257.604 233.771 C 255.336 238.670,240.149 245.884,232.104 245.884 C 227.916 245.884,223.468 246.944,223.468 247.941 C 223.468 248.226,226.226 248.044,229.597 247.537 C 242.771 245.556,246.957 246.865,239.054 250.496 C 230.587 254.386,222.670 255.477,219.420 253.200 C 216.281 251.001,217.749 254.029,221.183 256.833 C 223.008 258.325,225.688 260.727,227.137 262.172 C 230.147 265.173,230.473 265.301,230.473 263.483 C 230.473 261.626,232.116 260.488,234.441 260.735 C 236.098 260.911,236.468 260.656,236.673 259.194 C 237.013 256.770,237.844 256.415,243.211 256.403 C 248.699 256.390,256.025 253.669,256.612 251.425 C 257.403 248.399,259.708 249.488,267.984 256.798 C 274.955 262.956,276.096 263.616,273.380 259.917 C 272.128 258.212,271.103 256.299,271.103 255.666 C 271.103 254.318,266.857 250.318,263.378 248.389 C 259.328 246.144,259.056 245.119,261.689 242.032 C 267.492 235.227,267.533 235.193,269.538 235.734 C 272.771 236.605,279.006 236.512,279.319 235.587 C 279.526 234.973,279.038 234.909,277.498 235.351 C 274.334 236.258,269.419 234.634,269.116 232.580 C 268.641 229.373,273.022 229.156,281.138 231.982 C 283.383 232.764,285.366 233.256,285.547 233.076 C 285.952 232.670,281.126 229.772,280.045 229.772 C 279.237 229.772,275.501 228.665,272.639 227.578 C 271.247 227.049,271.053 226.552,271.238 223.990 L 271.454 221.016 274.618 220.809 C 277.380 220.628,278.152 220.918,280.684 223.086 C 285.050 226.823,286.885 226.619,294.921 221.507 C 298.989 218.920,298.625 217.523,294.104 218.367 C 291.755 218.805,285.620 216.806,282.010 214.425 C 279.751 212.935,278.433 212.609,274.655 212.609 C 268.855 212.609,268.835 211.713,274.501 205.390 C 281.273 197.832,281.275 197.829,281.127 193.659 C 281.009 190.333,281.213 189.706,282.830 188.434 C 286.094 185.867,286.843 184.168,286.948 179.095 C 287.002 176.460,287.357 173.622,287.735 172.791 C 292.284 162.786,292.783 152.189,289.260 140.406 C 288.906 139.222,288.616 137.867,288.616 137.395 C 288.616 136.333,284.428 129.812,282.371 127.671 C 280.829 126.067,278.809 125.551,278.809 126.762 M304.028 137.317 C 304.028 137.710,304.748 139.207,305.629 140.644 C 312.397 151.690,315.311 171.262,312.921 189.610 C 312.461 193.142,311.848 196.268,311.559 196.557 C 311.270 196.845,311.033 197.648,311.033 198.341 C 311.033 199.033,310.188 201.109,309.156 202.952 C 308.123 204.796,306.935 206.935,306.516 207.706 C 306.098 208.476,305.189 209.948,304.498 210.976 C 303.280 212.787,303.286 212.935,304.685 215.677 C 306.331 218.903,306.624 225.484,305.368 230.988 C 303.362 239.775,302.215 243.318,300.022 247.509 C 298.618 250.191,299.227 250.505,301.285 248.160 C 317.340 229.864,320.000 225.156,321.572 212.259 C 324.354 189.428,323.802 177.120,319.492 165.878 C 318.318 162.815,318.132 161.554,318.699 160.495 C 319.791 158.455,319.609 157.041,318.039 155.355 C 317.268 154.528,316.637 153.485,316.637 153.037 C 316.637 152.083,313.642 146.325,311.560 143.277 C 308.165 138.309,304.028 135.035,304.028 137.317 M157.268 140.655 C 157.268 143.853,158.211 144.979,160.904 144.998 C 161.749 145.004,162.634 144.694,162.872 144.308 C 163.689 142.986,166.541 143.529,166.948 145.084 C 168.011 149.149,164.719 151.872,160.476 150.438 C 152.036 147.585,147.585 136.702,155.163 137.447 C 157.143 137.641,157.268 137.831,157.268 140.655 M247.285 139.079 C 247.285 147.119,232.214 151.997,231.313 144.248 C 230.951 141.131,233.013 140.187,235.149 142.491 C 237.694 145.235,242.991 143.827,241.989 140.673 C 241.400 138.816,242.873 137.303,245.270 137.303 C 246.960 137.303,247.285 137.589,247.285 139.079 M255.536 139.795 C 257.842 141.410,257.553 142.057,252.209 147.234 C 247.304 151.986,242.894 154.816,240.394 154.816 C 237.568 154.816,237.371 156.539,239.913 159.003 C 242.606 161.613,242.372 163.429,239.187 164.640 C 238.247 164.997,237.478 165.789,237.478 166.400 C 237.478 167.255,236.873 167.460,234.851 167.293 L 232.224 167.075 232.014 163.434 C 231.602 156.305,235.511 150.613,240.820 150.613 C 243.388 150.613,248.243 146.538,249.845 143.038 C 252.001 138.328,252.795 137.875,255.536 139.795 M129.066 152.003 C 128.029 153.664,127.897 161.554,128.897 162.172 C 129.282 162.410,129.597 163.509,129.597 164.615 C 129.597 167.841,132.883 170.228,137.324 170.228 C 138.442 170.228,140.806 171.147,142.578 172.271 C 145.747 174.281,145.852 174.297,148.906 173.256 C 152.562 172.011,153.535 170.928,150.999 170.928 C 147.875 170.928,145.009 167.689,145.009 164.157 L 145.009 161.121 141.439 161.121 C 135.887 161.121,132.199 158.004,131.557 152.769 C 131.288 150.579,130.170 150.235,129.066 152.003 M80.601 177.933 C 80.277 189.319,80.589 201.234,81.318 205.254 C 86.199 232.168,92.638 247.663,104.025 259.895 C 105.280 261.243,107.292 263.734,108.495 265.429 C 111.079 269.070,111.407 267.694,108.999 263.311 C 108.074 261.625,107.091 258.827,106.817 257.093 C 106.111 252.637,105.455 251.715,102.614 251.182 C 100.844 250.850,99.921 250.211,99.460 248.999 C 99.102 248.057,98.486 247.285,98.091 247.285 C 96.584 247.285,97.472 243.186,99.825 239.278 C 103.587 233.032,102.348 227.620,95.421 220.042 C 92.093 216.401,90.452 211.262,89.313 200.908 C 88.969 197.772,88.577 196.818,87.493 196.474 C 84.017 195.371,82.248 190.067,81.307 177.933 L 80.791 171.278 80.601 177.933 M220.192 202.171 C 219.960 202.773,220.464 204.499,221.310 206.004 C 224.837 212.280,221.637 217.167,213.278 218.271 C 208.011 218.966,204.912 220.246,202.888 222.562 C 199.237 226.740,192.511 225.685,186.236 219.949 C 183.500 217.448,182.814 217.163,179.542 217.163 C 173.456 217.163,171.095 213.767,173.380 208.298 C 174.676 205.197,174.768 202.223,173.555 202.626 C 173.074 202.785,172.504 204.203,172.290 205.776 C 172.076 207.348,171.568 209.057,171.161 209.572 C 167.479 214.230,173.268 225.283,181.602 229.506 C 183.800 230.620,185.805 232.387,187.251 234.485 C 188.484 236.274,190.690 238.995,192.154 240.531 C 195.284 243.815,195.623 247.696,192.898 249.046 C 189.731 250.615,185.639 253.823,185.639 254.736 C 185.639 255.913,185.527 255.917,189.142 254.641 C 195.146 252.523,202.370 253.774,206.304 257.613 C 208.121 259.386,212.669 261.996,213.941 261.996 C 215.399 261.996,213.949 259.742,211.955 258.909 C 210.539 258.317,209.063 256.962,208.366 255.614 C 207.002 252.976,205.170 251.307,201.884 249.709 C 197.296 247.477,198.399 241.993,204.009 239.150 C 207.341 237.462,208.248 236.255,209.068 232.415 C 209.348 231.102,210.625 229.760,213.144 228.130 C 218.581 224.611,221.274 221.741,223.993 216.567 C 225.183 214.303,225.098 207.376,223.844 204.374 C 222.688 201.607,220.837 200.490,220.192 202.171 M146.410 205.954 C 145.832 206.328,144.314 206.638,143.036 206.644 C 138.963 206.663,136.211 209.320,139.112 210.433 C 142.829 211.859,149.912 209.129,149.912 206.269 C 149.912 205.115,147.978 204.941,146.410 205.954 M238.319 206.095 C 237.856 206.557,237.478 207.290,237.478 207.724 C 237.478 208.668,234.752 211.249,233.278 211.702 C 232.573 211.918,233.225 212.652,235.266 213.941 L 238.303 215.858 241.526 214.343 C 246.555 211.979,249.774 213.928,251.103 220.140 C 251.946 224.079,252.890 221.951,252.890 216.112 L 252.890 210.158 250.173 210.158 C 246.789 210.158,242.660 208.483,241.513 206.646 C 240.520 205.056,239.529 204.885,238.319 206.095 M129.053 207.746 C 127.228 209.023,127.063 210.035,128.582 210.618 C 129.639 211.024,133.100 208.431,133.100 207.233 C 133.100 206.278,130.717 206.580,129.053 207.746 M149.282 213.037 C 145.123 216.348,145.109 216.397,147.636 218.646 C 154.689 224.922,163.862 230.473,167.182 230.473 C 169.013 230.473,162.663 224.838,156.509 221.002 C 148.708 216.140,149.286 211.911,157.268 215.441 C 162.498 217.754,165.549 217.722,160.874 215.403 C 159.004 214.476,156.435 212.924,155.164 211.955 L 152.854 210.192 149.282 213.037 M187.040 222.969 C 195.220 227.850,198.208 227.859,205.397 223.021 C 209.923 219.975,214.011 219.855,214.011 222.767 C 214.011 224.228,213.636 224.555,211.754 224.736 C 209.073 224.995,203.152 230.350,203.152 232.515 C 203.152 236.270,200.629 238.752,198.157 237.429 C 197.392 237.019,195.825 236.891,194.676 237.143 C 191.887 237.756,190.543 236.514,190.543 233.324 C 190.543 231.061,190.154 230.469,187.391 228.521 C 185.657 227.298,184.238 225.977,184.238 225.584 C 184.238 225.190,183.657 224.869,182.946 224.869 C 181.352 224.869,179.030 222.426,179.657 221.410 C 180.485 220.072,183.117 220.627,187.040 222.969 M239.701 223.788 C 237.288 225.466,234.304 227.309,233.069 227.882 C 230.288 229.172,224.838 231.622,220.665 233.458 C 218.932 234.221,217.851 234.972,218.264 235.128 C 218.677 235.283,220.814 234.614,223.012 233.642 C 225.211 232.670,227.617 231.874,228.358 231.874 C 229.100 231.874,230.431 231.587,231.316 231.236 C 242.665 226.737,255.641 228.209,245.696 232.868 C 243.295 233.993,240.701 235.460,239.930 236.128 C 237.120 238.566,233.281 239.580,226.856 239.580 C 220.684 239.580,211.559 241.676,211.559 243.094 C 211.559 243.419,212.583 243.343,213.835 242.926 C 215.088 242.508,220.368 241.932,225.569 241.645 C 237.299 240.997,239.731 240.227,250.950 233.606 C 255.978 230.638,256.678 229.772,254.049 229.772 C 253.146 229.772,251.836 229.142,251.138 228.371 C 250.323 227.470,248.972 226.967,247.352 226.961 C 241.734 226.939,240.553 225.810,243.202 222.990 C 245.775 220.251,244.299 220.588,239.701 223.788 M146.201 223.910 C 145.958 224.153,146.032 224.863,146.365 225.486 C 146.699 226.110,147.194 228.103,147.466 229.916 C 148.017 233.591,149.036 234.528,154.116 236.033 C 155.849 236.546,159.528 237.712,162.289 238.623 C 168.211 240.577,177.609 241.046,174.431 239.229 C 173.468 238.679,172.264 238.217,171.757 238.203 C 171.250 238.190,169.831 237.428,168.605 236.511 C 166.434 234.888,164.837 234.425,158.319 233.533 C 154.731 233.042,153.142 231.806,149.811 226.918 C 147.450 223.454,147.017 223.094,146.201 223.910 M141.193 226.909 C 140.506 228.022,133.597 231.173,131.846 231.173 C 130.738 231.173,130.038 231.666,129.788 232.619 C 129.542 233.562,127.797 234.810,124.775 236.205 C 120.167 238.332,109.982 247.544,109.982 249.585 C 109.982 250.053,111.953 248.421,114.361 245.959 C 118.844 241.375,125.208 236.778,127.070 236.778 C 127.644 236.778,128.308 236.462,128.546 236.077 C 128.785 235.692,129.551 235.377,130.250 235.377 C 131.793 235.377,142.343 231.994,143.091 231.260 C 143.385 230.972,143.424 229.731,143.179 228.503 C 142.737 226.294,141.959 225.670,141.193 226.909 M289.569 234.518 C 290.143 235.445,296.283 238.452,296.717 238.017 C 297.288 237.446,293.477 234.955,291.185 234.400 C 290.093 234.136,289.366 234.189,289.569 234.518 M139.755 243.547 C 133.284 247.996,130.520 250.088,131.109 250.088 C 131.889 250.088,139.048 246.572,141.856 244.810 C 143.398 243.844,145.053 242.868,145.534 242.642 C 146.464 242.206,146.775 239.540,145.884 239.637 C 145.595 239.668,142.837 241.428,139.755 243.547 M143.002 247.663 C 141.705 248.226,140.024 248.687,139.266 248.687 C 137.743 248.687,137.860 250.066,139.446 250.814 C 143.330 252.645,145.975 254.331,150.263 257.709 C 152.960 259.833,155.324 261.753,155.517 261.975 C 156.734 263.379,160.024 264.799,162.061 264.799 C 165.052 264.799,166.241 266.130,165.596 268.760 C 165.151 270.573,165.395 270.436,168.288 267.250 C 170.038 265.324,173.555 262.180,176.103 260.263 C 183.305 254.847,181.476 253.977,168.208 256.511 C 164.618 257.196,164.365 257.146,162.954 255.471 C 162.138 254.503,160.710 253.489,159.780 253.217 C 158.850 252.945,156.606 251.657,154.793 250.354 C 152.980 249.052,151.001 247.986,150.396 247.986 C 149.790 247.986,149.100 247.671,148.862 247.285 C 148.253 246.301,145.772 246.460,143.002 247.663 " stroke="none" fill-rule="evenodd"></path></g></svg>