<svg id="svg" xmlns="http://www.w3.org/2000/svg"  width="400" height="400" viewBox="0, 0, 400,400"><g id="svgg"><path id="path0" d="M15.920 169.392 C 15.729 169.422,15.122 169.495,14.572 169.555 L 13.571 169.664 13.571 171.630 L 13.571 173.596 12.282 174.053 C 11.573 174.305,10.949 174.511,10.896 174.511 C 10.842 174.511,10.776 173.544,10.749 172.362 L 10.700 170.214 9.091 170.715 L 7.482 171.215 7.482 173.811 L 7.482 176.406 5.524 178.373 C -2.090 186.023,-1.484 199.153,6.764 205.220 L 7.473 205.742 7.477 217.154 L 7.482 228.567 9.021 229.029 C 9.867 229.283,10.611 229.491,10.673 229.491 C 10.736 229.491,10.787 224.591,10.787 218.602 C 10.787 209.960,10.832 207.732,11.005 207.803 C 11.124 207.852,11.751 208.069,12.397 208.286 L 13.571 208.681 13.571 219.410 L 13.571 230.139 14.485 230.248 C 14.987 230.309,15.731 230.359,16.137 230.360 L 16.877 230.361 16.877 219.835 L 16.877 209.308 18.269 209.308 L 19.661 209.308 19.661 219.887 L 19.661 230.465 21.183 230.323 C 22.020 230.245,22.803 230.146,22.923 230.103 C 23.094 230.041,23.140 227.728,23.140 219.334 L 23.140 208.644 24.141 208.299 C 24.691 208.109,25.278 207.898,25.446 207.830 C 25.734 207.712,25.750 208.293,25.750 218.598 C 25.750 227.202,25.796 229.489,25.968 229.482 C 26.087 229.476,26.812 229.260,27.577 229.001 L 28.969 228.529 29.014 217.118 L 29.059 205.707 30.071 204.895 C 38.216 198.362,38.409 185.167,30.467 177.789 L 29.056 176.478 29.056 173.861 L 29.056 171.243 27.447 170.724 L 25.837 170.204 25.789 172.357 C 25.762 173.542,25.674 174.511,25.592 174.511 C 25.511 174.511,24.946 174.323,24.336 174.094 L 23.227 173.678 23.179 171.675 L 23.130 169.672 22.048 169.561 C 21.453 169.500,20.672 169.408,20.313 169.355 L 19.661 169.260 19.661 171.179 L 19.661 173.097 18.312 173.039 L 16.964 172.981 16.915 171.136 C 16.861 169.155,16.910 169.239,15.920 169.392 M264.028 175.564 C 250.291 176.903,240.207 190.450,242.793 204.089 C 246.427 223.255,270.006 230.687,283.731 216.993 C 300.007 200.754,286.963 173.327,264.028 175.564 M22.049 177.090 C 30.834 179.475,35.343 189.439,31.304 197.542 C 25.118 209.950,6.784 207.620,3.976 194.069 C 1.792 183.527,11.647 174.268,22.049 177.090 M67.508 200.084 L 67.508 222.532 72.901 222.532 L 78.295 222.532 78.295 211.906 L 78.295 201.281 78.680 201.336 C 78.972 201.378,80.822 203.960,86.292 211.960 L 93.519 222.529 99.835 222.530 L 106.151 222.532 105.728 221.966 C 105.495 221.655,101.775 216.409,97.462 210.309 L 89.619 199.217 96.484 188.508 C 100.260 182.618,103.349 177.764,103.349 177.721 C 103.349 177.678,100.997 177.642,98.123 177.642 L 92.896 177.642 90.129 181.862 C 88.608 184.182,85.448 189.017,83.108 192.605 C 80.767 196.194,78.728 199.155,78.575 199.186 C 78.324 199.237,78.293 198.225,78.253 188.486 L 78.208 177.729 72.858 177.683 L 67.508 177.637 67.508 200.084 M109.381 177.758 C 109.317 177.822,109.265 187.922,109.265 200.203 L 109.265 222.532 123.184 222.532 L 137.103 222.532 137.103 217.921 L 137.103 213.310 128.752 213.310 L 120.400 213.310 120.400 208.612 L 120.400 203.915 128.404 203.915 L 136.407 203.915 136.407 199.391 L 136.407 194.867 128.317 194.867 L 120.226 194.867 120.226 190.779 L 120.226 186.690 128.665 186.690 L 137.103 186.690 137.103 182.166 L 137.103 177.642 123.300 177.642 C 115.708 177.642,109.445 177.695,109.381 177.758 M143.309 177.758 C 143.245 177.822,143.193 187.922,143.193 200.203 L 143.193 222.532 148.238 222.532 L 153.284 222.532 153.284 207.293 C 153.284 197.169,153.343 192.074,153.459 192.113 C 153.555 192.145,156.953 198.983,161.009 207.308 L 168.385 222.445 174.841 222.490 L 181.298 222.536 181.253 200.133 L 181.209 177.729 175.990 177.729 L 170.770 177.729 170.683 191.966 L 170.596 206.203 163.475 191.923 L 156.354 177.642 149.890 177.642 C 146.334 177.642,143.372 177.695,143.309 177.758 M185.528 178.140 C 185.583 178.417,188.295 188.476,191.553 200.495 C 194.811 212.514,197.477 222.389,197.477 222.439 C 197.477 222.490,199.810 222.532,202.661 222.532 L 207.845 222.532 211.137 209.221 C 212.948 201.901,214.475 195.911,214.532 195.911 C 214.589 195.911,216.392 201.901,218.540 209.221 L 222.445 222.530 227.781 222.531 L 233.118 222.532 233.575 220.574 C 241.176 188.030,243.521 177.880,243.462 177.773 C 243.422 177.701,241.052 177.642,238.194 177.642 L 232.999 177.642 232.845 178.382 C 232.760 178.789,231.481 185.091,230.003 192.387 C 228.525 199.683,227.271 205.653,227.215 205.654 C 227.140 205.654,220.468 182.835,219.215 178.295 L 219.035 177.642 214.607 177.642 C 212.171 177.642,210.176 177.662,210.173 177.686 C 210.143 177.949,203.062 205.718,203.042 205.655 C 203.026 205.607,201.435 199.304,199.506 191.649 L 195.998 177.729 190.713 177.683 L 185.427 177.637 185.528 178.140 M294.041 200.087 L 294.041 222.532 299.000 222.532 L 303.958 222.532 303.958 212.527 C 303.958 204.636,304.004 202.524,304.176 202.530 C 304.295 202.534,307.294 207.016,310.840 212.491 L 317.286 222.445 323.584 222.490 C 327.048 222.515,329.883 222.492,329.883 222.438 C 329.883 222.385,327.256 218.342,324.045 213.455 C 320.835 208.568,318.231 204.556,318.260 204.538 C 318.289 204.520,318.782 204.363,319.356 204.189 C 324.414 202.657,327.193 198.141,327.179 191.475 C 327.166 184.638,324.276 180.558,318.072 178.613 C 315.454 177.792,313.151 177.642,303.133 177.642 L 294.041 177.642 294.041 200.087 M329.535 182.165 L 329.535 186.690 334.145 186.690 L 338.756 186.690 338.756 204.611 L 338.756 222.532 344.324 222.532 L 349.891 222.532 349.891 204.611 L 349.891 186.690 354.331 186.690 L 358.771 186.690 358.724 182.210 L 358.678 177.729 344.106 177.685 L 329.535 177.640 329.535 182.165 M363.752 177.758 C 363.689 177.822,363.636 187.922,363.636 200.203 L 363.636 222.532 368.943 222.532 L 374.250 222.532 374.250 213.223 L 374.250 203.915 381.557 203.915 L 388.865 203.915 388.865 213.223 L 388.865 222.532 394.433 222.532 L 400.001 222.532 399.957 200.130 L 399.913 177.729 394.389 177.684 L 388.865 177.638 388.865 186.252 L 388.865 194.867 381.557 194.867 L 374.250 194.867 374.250 186.255 L 374.250 177.642 369.059 177.642 C 366.204 177.642,363.816 177.695,363.752 177.758 M15.792 177.984 C 7.113 179.569,2.367 189.058,6.259 197.042 C 11.438 207.666,26.981 206.765,30.877 195.615 C 34.234 186.006,25.806 176.156,15.792 177.984 M16.219 182.989 L 16.268 185.205 17.701 182.989 L 19.134 180.774 20.269 180.774 L 21.405 180.774 20.993 181.427 C 20.766 181.786,20.133 182.772,19.586 183.619 C 19.040 184.465,18.628 185.250,18.671 185.363 C 18.714 185.475,19.468 186.583,20.347 187.825 L 21.944 190.083 20.672 190.137 C 19.209 190.200,19.553 190.488,17.489 187.479 L 16.181 185.572 16.181 187.871 L 16.181 190.170 15.050 190.170 L 13.919 190.170 13.919 185.472 L 13.919 180.774 15.045 180.774 L 16.171 180.774 16.219 182.989 M270.301 186.480 C 278.650 189.103,282.485 199.176,278.015 206.743 C 272.446 216.173,259.185 215.539,254.649 205.627 C 250.827 197.274,255.712 187.722,264.637 186.097 C 265.654 185.912,269.270 186.156,270.301 186.480 M313.717 188.103 C 316.892 189.592,316.714 195.232,313.441 196.868 L 312.397 197.390 308.177 197.447 L 303.958 197.504 303.958 192.519 L 303.958 187.533 308.351 187.590 C 312.672 187.646,312.761 187.654,313.717 188.103 M14.875 194.862 C 15.248 196.390,15.585 197.609,15.622 197.572 C 15.660 197.534,15.922 196.578,16.206 195.446 C 17.157 191.650,16.926 192.084,18.002 192.084 L 18.940 192.084 19.202 192.997 C 19.346 193.499,19.674 194.654,19.931 195.563 C 20.188 196.472,20.452 197.316,20.517 197.437 C 20.582 197.559,20.862 196.482,21.139 195.044 C 21.751 191.864,21.637 192.054,22.911 192.118 L 23.956 192.171 22.898 196.738 L 21.841 201.305 20.695 201.305 L 19.550 201.305 18.762 198.574 L 17.974 195.843 17.301 198.574 L 16.627 201.305 15.548 201.305 C 14.482 201.305,14.466 201.297,14.289 200.739 C 14.039 199.947,12.005 192.346,12.005 192.202 C 12.005 192.137,12.498 192.084,13.100 192.084 L 14.195 192.084 14.875 194.862 " stroke="none" fill-rule="evenodd"></path></g></svg>