<?xml version="1.0" encoding="UTF-8" standalone="no"?>
<svg
   
   
   
   
   xmlns="http://www.w3.org/2000/svg"
   id="svg6"
   version="1.1"
   viewBox="0 0 1377.143 1376.5288"
   height="2500"
   width="2500">
  <path
     id="path2"
     d="m 30.955,586.71662 h 71.453 c -35.904,9.077 -65.282,35.292 -82.262,67.726 4.181,-22.488 6.678,-45.235 10.809,-67.726 z m 125.512,0 h 81.191 c -5.202,35.445 -10.354,70.941 -15.962,106.335 -5.867,35.699 -29.325,67.422 -60.692,84.963 -13.82,7.806 -29.935,14.942 -46.002,10.354 22.288,-2.5 43.709,-11.319 60.742,-26.063 15.046,-13.666 31.771,-30.188 32.385,-51.813 -11.679,3.927 -23.563,7.548 -35.445,10.861 -1.274,-3.772 -3.875,-11.32 -5.149,-15.096 -12.087,8.009 -10.66,27.184 -25.5,32.742 -16.881,9.788 -34.987,-2.294 -42.331,-17.952 a 2941.45,2941.45 0 0 1 -30.294,0 c -2.958,15.965 -22.541,29.529 -36.057,15.863 -9.844,-18.974 -12.954,-48.756 7.345,-62.169 14.127,-1.531 28.405,-0.511 42.532,-0.358 6.887,-11.781 12.444,-24.327 20.351,-35.446 11.577,-4.435 26.367,-4.229 37.994,0.257 6.987,18.003 9.843,37.229 16.271,55.438 1.121,-1.786 3.365,-5.406 4.487,-7.192 -1.226,-18.001 -9.333,-34.78 -11.119,-52.784 3.213,-1.173 9.587,-3.467 12.802,-4.643 6.731,24.226 12.597,48.756 18.665,73.186 9.59,-2.244 19.125,-4.537 28.662,-6.887 l -4.438,11.833 c 5.765,-1.123 13.108,-3.877 9.792,-12.646 10.456,-44.78 -15.759,-95.012 -60.23,-108.783 m -41.412,68.595 c -6.733,11.934 -12.137,24.733 -20.248,35.803 -14.482,3.875 -29.986,0.354 -44.829,2.038 -1.479,2.244 -4.436,6.731 -5.864,8.976 19.635,0.307 39.271,0.257 58.956,0.053 7.293,-10.915 18.614,-17.85 31.824,-19.075 -2.602,-9.436 -5.151,-18.868 -7.956,-28.254 -2.958,0.102 -8.924,0.357 -11.883,0.459 m 4.589,62.168 c 2.652,11.68 20.146,6.375 21.218,-3.774 2.754,-6.119 -4.896,-8.976 -7.753,-13.106 -6.069,3.723 -16.37,7.903 -13.465,16.88 m -73.287,-1.479 c -8.873,1.683 -5.763,17.339 3.314,13.718 8.214,-2.499 6.02,-17.134 -3.314,-13.718 z m 232.559,-129.284 h 84.966 c -0.204,36.873 -1.328,73.745 -1.377,110.67 11.475,-36.925 22.542,-73.95 34.679,-110.67 h 85.221 c -9.588,64.157 -19.378,128.263 -28.916,192.424 -18.718,0.05 -37.434,0.05 -56.149,0.05 4.843,-31.774 9.179,-63.646 14.331,-95.37 1.275,-9.689 5.354,-19.228 3.621,-29.07 -13.211,41.361 -25.908,82.926 -38.862,124.391 -18.973,0.05 -37.996,0.05 -56.966,0 -0.511,-42.996 -0.969,-86.039 -1.071,-129.03 -7.548,42.89 -13.108,86.088 -19.892,129.08 -16.216,0 -32.383,0 -48.552,-0.05 9.588,-64.162 19.329,-128.268 28.967,-192.425 z m 267.136,0 h 79.306 c 5.66,64.157 11.116,128.316 16.523,192.473 -21.369,0 -42.787,0 -64.158,-0.05 0,-10.149 -0.05,-20.35 -0.05,-30.55 h -42.585 c -3.825,10.2 -7.7,20.35 -11.524,30.55 -19.941,0.05 -39.832,0.05 -59.772,0.05 27.435,-64.156 54.365,-128.519 82.26,-192.473 m 3.723,113.219 c 8.214,0.203 16.371,0.357 24.583,0.459 0.104,-22.542 0,-45.135 -0.102,-67.727 -7.853,22.542 -16.321,44.828 -24.481,67.268 z m 131.785,-113.219 h 73.183 c 5.101,37.383 9.945,74.816 14.996,112.199 6.17,-37.331 10.961,-74.868 17.336,-112.199 h 49.774 c -9.991,64.105 -19.375,128.316 -29.116,192.474 h -72.884 c -5.606,-37.995 -10.856,-76.041 -16.625,-114.037 -5.86,37.996 -11.475,76.042 -17.231,114.037 -16.273,0 -32.49,0 -48.708,-0.05 9.792,-64.107 19.022,-128.369 29.275,-192.424 z m 176.153,0 h 62.981 c -9.638,64.157 -19.379,128.263 -29.02,192.424 -21.107,0.05 -42.225,0.05 -63.287,0 9.897,-64.107 18.971,-128.369 29.326,-192.424 z m 76.443,0 h 224.249 c 16.117,1.327 33.15,7.752 41.259,22.643 12.343,21.268 3.366,45.952 0.816,68.543 -5.254,24.939 -3.218,53.296 -19.433,74.563 -21.825,28.199 -62.371,34.22 -95.316,26.466 -24.021,-5.453 -38.708,-30.6 -36.616,-54.312 2.649,-29.835 8.666,-59.21 12.541,-88.895 -13.463,0 -26.924,0 -40.392,-0.05 -7.137,47.837 -14.273,95.674 -21.316,143.514 h -62.017 c 6.988,-47.839 14.334,-95.626 21.267,-143.464 -10.911,0 -21.823,-0.05 -32.69,-0.05 2.549,-16.319 5.1,-32.637 7.648,-48.958 m 190.185,53.194 c -7.805,27.282 -10.817,56.201 -13.776,84.505 3.218,12.444 21.835,7.038 22.188,-4.283 4.643,-25.602 8.979,-51.46 11.32,-77.418 -2.141,-9.078 -14.433,-8.72 -19.732,-2.804 z m 106.994,-53.194 h 61.403 c -6.065,40.799 -12.292,81.547 -18.463,122.297 -0.152,7.192 -5.045,19.583 5.354,22.031 8.01,1.786 15.047,-4.079 15.76,-12.035 7.958,-43.86 12.854,-88.331 20.449,-132.293 h 61.304 c -7.496,46.002 -13.462,92.31 -20.963,138.312 -3.824,25.091 -24.225,45.238 -48.24,51.916 -24.225,6.529 -51.153,7.756 -74.717,-1.888 -17.7,-7.291 -26.267,-27.592 -23.153,-45.847 6.32,-47.632 13.87,-95.065 21.266,-142.493 z" fill="#F70000" />
</svg>
