<?xml version="1.0" encoding="UTF-8" standalone="no"?>
<svg
   
   
   
   
   xmlns="http://www.w3.org/2000/svg"
   width="2500"
   height="2500"
   viewBox="0 0 1377.143 1376.5288"
   version="1.1"
   id="svg6">
  <metadata
     id="metadata8">
    
  </metadata>
  <defs
     id="defs6" />
  <path
     style="stroke-width:6.14303684"
     d="M 86.879476,64.452643 H 525.81789 C 305.2583,120.21299 124.78816,281.2527 20.479391,480.49595 46.163423,342.35135 61.502589,202.61568 86.879476,64.452643 Z m 771.024844,0 h 498.75928 c -31.9561,217.739937 -63.605,435.793177 -98.0551,653.219817 -36.0413,219.30029 -180.1446,414.17584 -372.83322,521.93084 -84.89677,47.9526 -183.89181,91.7892 -282.59198,63.605 136.916,-15.3576 268.50599,-69.533 373.14034,-160.106 92.42816,-83.9507 195.17046,-185.44596 198.94226,-318.28913 -71.7446,24.12371 -144.7484,46.36765 -217.73995,66.71953 -7.82623,-23.17154 -23.80427,-69.53918 -31.6305,-92.73528 C 851.64456,847.997 860.41068,965.78972 769.24801,999.93277 665.5474,1060.0608 554.32158,985.84055 509.20712,889.65292 c -62.03198,0.31945 -124.06519,0.31945 -186.09716,0 -18.17111,98.0736 -138.47019,181.39778 -221.49948,97.44699 -60.472062,-116.55797 -79.576906,-299.50989 45.12061,-381.90645 86.78267,-9.40499 174.49295,-3.13909 261.27564,-2.19921 42.30709,-72.37111 76.44395,-149.44165 125.01695,-217.74608 71.11793,-27.24437 161.97345,-25.9789 233.39854,1.57877 42.92139,110.59309 60.46591,228.69911 99.95335,340.55767 6.88634,-10.97147 20.67132,-33.20926 27.5638,-44.18072 -7.53136,-110.58081 -57.33296,-213.65483 -68.30442,-324.25406 19.73758,-7.20578 58.89329,-21.2979 78.64315,-28.52212 41.34879,148.82122 77.38385,299.5099 114.6598,449.5843 58.9117,-13.78498 117.4856,-27.87096 176.0717,-42.3071 l -27.2628,72.69056 c 35.4146,-6.89863 80.5229,-23.81656 60.1526,-77.68484 C 1292.1311,457.62544 1131.0913,149.04841 857.90432,64.452643 M 603.50888,485.83425 c -41.36107,73.31101 -74.55804,151.93574 -124.38421,219.93916 -88.96346,23.80426 -184.20511,2.17463 -275.3862,12.5195 -9.08555,13.78498 -27.25051,41.34879 -36.02277,55.1399 120.61853,1.88592 241.2432,1.57876 362.16888,0.32559 C 574.68574,706.70715 644.23107,664.10519 725.38059,656.57997 709.3964,598.61427 693.7378,540.67315 676.50658,483.0146 c -18.1711,0.62659 -54.82046,2.19307 -72.9977,2.81965 m 28.19039,381.90032 c 16.29134,71.75067 123.75763,39.16186 130.34296,-23.18381 16.91792,-37.58925 -30.07631,-55.1399 -47.62696,-80.51065 -37.2821,22.87053 -100.56151,48.54842 -82.716,103.69446 m -450.20474,-9.08555 c -54.50717,10.33873 -35.40232,106.51411 20.35802,84.27018 50.45891,-15.35144 36.98108,-105.2548 -20.35802,-84.27018 z"
     id="path2" />
</svg>
