<?xml version="1.0" encoding="UTF-8" standalone="no"?>
<svg
   
   
   xmlns="http://www.w3.org/2000/svg"
   
   height="1047"
   width="1047"
   id="svg16"
   version="1.1"
   viewBox="0 0 1047 1047">
  <g
     transform="translate(0,752)"
     id="g14">
    <g
       transform="translate(0,-329.912)"
       id="g829">
      <path
         d="M 0.06,39.603 H 1046.18 V 0.428 H 0.06 Z m 760.272,93.39 c 0,-40.434 29.704,-69.403 70.551,-69.403 40.637,0 70.348,28.969 70.348,69.403 0,40.441 -29.711,69.403 -70.348,69.403 -40.847,0 -70.551,-28.962 -70.551,-69.403 m 111.39,0 c 0,-25.137 -15.965,-44.057 -40.839,-44.057 -25.069,0 -41.042,18.92 -41.042,44.057 0,24.956 15.973,44.057 41.042,44.057 24.874,0 40.839,-19.101 40.839,-44.057"
         id="path10" />
      <path
         d="M 53.211,65.799 H 0.051 v 134.186 h 53.37 c 42.054,0 71.361,-26.553 71.361,-67.198 0,-40.224 -29.307,-66.988 -71.571,-66.988 z m 0,109.035 H 28.765 V 90.951 h 24.656 c 27.491,0 42.054,18.305 42.054,41.836 0,22.939 -15.56,42.047 -42.264,42.047 z m 91.99,25.151 h 95.402 V 174.834 H 173.9 v -30.566 h 65.286 V 119.109 H 173.9 V 90.951 h 66.703 V 65.799 H 145.201 Z M 363.114,150.11 300.655,65.799 h -29.538 v 134.186 h 28.714 V 112.48 l 64.295,87.505 h 27.687 V 65.799 h -28.699 z m 159.496,0 -62.474,-84.311 H 430.62 v 134.186 h 28.714 V 112.48 l 64.288,87.505 h 27.687 V 65.799 H 522.61 Z m 63.457,49.875 H 614.78 V 65.799 h -28.713 z m 80.052,-97.576 c 0,-8.032 6.898,-13.266 19.009,-13.266 13.745,0 28.294,4.635 39.227,14.676 l 15.966,-21.32 C 726.98,70.223 709.185,63.782 687.768,63.782 c -31.743,0 -51.15,18.522 -51.15,40.847 0,50.498 77.614,34.21 77.614,57.532 0,7.852 -7.469,14.893 -23.435,14.893 -18.604,0 -33.355,-8.444 -42.848,-18.297 l -15.779,22.308 c 12.734,12.697 31.338,21.328 57.42,21.328 36.175,0 53.955,-18.501 53.955,-43.029 0,-50.108 -77.426,-35.815 -77.426,-56.955 z M 1017.46,65.799 V 150.11 L 954.995,65.799 h -29.517 v 134.186 h 28.698 V 112.48 l 64.304,87.505 h 27.69 V 65.799 Z"
         id="path12" />
    </g>
  </g>
</svg>
