<svg id="svg" xmlns="http://www.w3.org/2000/svg"  width="400" height="400" viewBox="0, 0, 400,400"><g id="svgg"><path id="path0" d="M72.305 4.429 C 71.923 4.652,71.427 5.177,71.202 5.595 C 70.928 6.109,70.794 69.114,70.791 199.278 L 70.787 392.200 71.816 393.100 L 72.845 394.000 123.953 394.000 L 175.061 394.000 175.930 393.074 L 176.800 392.148 176.806 316.374 C 176.812 235.157,176.700 239.494,178.842 237.904 C 179.784 237.204,180.637 237.127,187.789 237.091 C 194.330 237.058,195.826 236.943,196.453 236.426 C 197.359 235.678,197.706 144.892,196.809 143.216 C 196.273 142.216,196.973 142.290,187.600 142.233 C 179.385 142.182,178.492 142.010,177.509 140.291 C 176.868 139.169,176.890 141.558,176.818 67.639 C 176.754 2.957,176.811 4.950,174.982 4.248 C 173.834 3.808,73.067 3.985,72.305 4.429 M221.955 4.600 C 221.381 4.912,220.705 5.670,220.455 6.284 C 220.115 7.115,220.024 56.517,220.099 199.735 L 220.200 392.069 221.322 393.035 L 222.445 394.000 273.368 394.000 C 324.281 394.000,324.292 394.000,325.346 393.171 L 326.400 392.342 326.400 199.153 L 326.400 5.964 325.418 4.982 L 324.436 4.000 273.718 4.016 C 230.692 4.030,222.842 4.118,221.955 4.600 M170.051 9.427 C 172.510 10.698,172.400 8.369,172.400 59.090 C 172.400 92.662,172.525 105.790,172.856 106.803 C 173.160 107.737,173.360 114.293,173.458 126.571 C 173.589 142.948,173.676 145.021,174.264 145.671 C 174.861 146.331,175.697 146.400,183.080 146.400 C 192.249 146.400,192.836 146.586,193.389 149.655 C 193.522 150.395,193.579 169.151,193.516 191.335 L 193.400 231.671 192.456 232.435 C 191.601 233.128,190.799 233.200,183.982 233.200 C 176.687 233.200,174.580 233.477,173.914 234.525 C 173.748 234.786,173.603 244.180,173.593 255.400 C 173.577 271.954,173.451 276.667,172.925 280.400 C 172.362 284.403,172.262 291.618,172.156 335.982 C 172.021 392.484,172.215 388.509,169.564 389.251 C 167.708 389.770,78.938 389.646,77.789 389.122 C 77.212 388.859,76.485 388.151,76.174 387.549 C 75.162 385.594,75.319 12.170,76.331 10.805 C 77.871 8.730,75.914 8.812,123.920 8.806 C 163.920 8.801,168.972 8.869,170.051 9.427 M319.200 9.311 C 319.750 9.586,320.515 10.439,320.899 11.206 C 321.738 12.877,322.013 383.498,321.178 386.504 C 320.310 389.627,324.108 389.392,273.370 389.463 C 223.789 389.532,226.744 389.684,225.404 386.997 C 224.255 384.694,224.191 13.516,225.339 11.310 C 226.711 8.674,223.644 8.833,273.200 8.822 C 308.400 8.814,318.418 8.921,319.200 9.311 M82.800 189.200 L 82.800 206.400 86.800 206.400 L 90.800 206.400 90.800 199.000 L 90.800 191.600 97.000 191.600 L 103.200 191.600 103.200 199.000 L 103.200 206.400 107.000 206.400 L 110.800 206.400 110.800 189.200 L 110.800 172.000 107.000 172.000 L 103.200 172.000 103.200 178.600 L 103.200 185.200 97.000 185.200 L 90.800 185.200 90.800 178.600 L 90.800 172.000 86.800 172.000 L 82.800 172.000 82.800 189.200 M177.100 173.476 C 176.715 173.576,176.400 173.825,176.400 174.029 C 176.400 174.233,176.143 174.400,175.829 174.400 C 175.514 174.400,175.011 174.646,174.710 174.947 C 174.409 175.248,173.766 175.620,173.281 175.774 C 172.493 176.024,172.400 176.326,172.400 178.627 L 172.400 181.200 170.800 181.200 L 169.200 181.200 169.200 183.800 L 169.200 186.400 170.800 186.400 L 172.400 186.400 172.406 194.900 C 172.414 206.164,172.989 207.200,179.240 207.200 C 183.484 207.200,184.402 206.744,184.395 204.636 C 184.384 201.540,184.143 201.200,181.953 201.200 L 180.000 201.200 180.000 193.800 L 180.000 186.400 182.000 186.400 L 184.000 186.400 184.000 183.800 L 184.000 181.200 182.000 181.200 L 180.000 181.200 180.000 177.200 L 180.000 173.200 178.900 173.246 C 178.295 173.272,177.485 173.375,177.100 173.476 M123.500 181.070 C 122.895 181.171,122.400 181.402,122.400 181.583 C 122.400 181.765,121.966 182.022,121.435 182.155 C 120.295 182.441,117.453 185.553,116.483 187.576 C 115.662 189.287,115.468 199.418,116.246 199.915 C 116.491 200.072,116.821 200.614,116.979 201.120 C 117.586 203.064,121.754 206.400,123.575 206.400 C 124.003 206.400,124.464 206.580,124.600 206.800 C 125.291 207.919,135.200 206.709,135.200 205.506 C 135.200 205.338,135.461 205.200,135.781 205.200 C 136.544 205.200,139.039 202.613,139.686 201.151 C 139.966 200.518,140.311 200.000,140.453 200.000 C 141.576 200.000,141.517 190.263,140.379 187.718 C 139.430 185.596,136.659 182.661,135.164 182.193 C 134.634 182.028,134.072 181.691,133.915 181.446 C 133.626 180.994,125.688 180.707,123.500 181.070 M150.700 181.060 C 150.315 181.169,150.000 181.425,150.000 181.629 C 150.000 181.833,149.775 182.001,149.500 182.002 C 148.716 182.006,144.800 186.240,144.800 187.083 C 144.800 187.500,144.575 188.065,144.300 188.340 C 143.620 189.020,143.592 199.500,144.268 199.919 C 144.526 200.078,144.860 200.701,145.012 201.304 C 145.163 201.907,145.447 202.400,145.643 202.400 C 145.840 202.400,146.003 202.625,146.007 202.900 C 146.015 203.510,147.742 205.200,148.356 205.200 C 148.600 205.200,148.800 205.338,148.800 205.506 C 148.800 206.994,157.546 207.735,160.787 206.521 C 162.679 205.812,165.600 203.210,165.600 202.233 C 165.600 201.921,165.784 201.605,166.009 201.530 C 166.235 201.455,166.528 200.720,166.662 199.897 L 166.905 198.400 163.052 198.400 C 160.120 198.400,159.200 198.527,159.200 198.930 C 159.200 202.710,152.101 201.192,151.528 197.290 L 151.339 196.000 159.469 196.000 L 167.600 196.000 167.600 194.024 C 167.600 192.937,167.420 191.936,167.200 191.800 C 166.980 191.664,166.800 190.924,166.800 190.154 C 166.800 187.566,163.306 182.000,161.680 182.000 C 161.453 182.000,161.192 181.775,161.101 181.500 C 160.932 180.992,152.233 180.624,150.700 181.060 M130.743 187.093 C 133.242 188.527,134.988 197.604,132.899 198.300 C 132.624 198.392,132.400 198.707,132.400 199.001 C 132.400 199.902,129.834 201.200,128.053 201.200 C 127.144 201.200,126.400 201.049,126.400 200.864 C 126.400 200.680,125.950 200.323,125.400 200.073 C 124.850 199.822,124.400 199.358,124.400 199.042 C 124.400 198.726,124.175 198.392,123.900 198.300 C 123.046 198.015,123.219 190.325,124.100 189.443 C 124.485 189.058,124.800 188.498,124.800 188.198 C 124.800 187.899,125.160 187.540,125.600 187.400 C 126.040 187.260,126.400 186.978,126.400 186.773 C 126.400 186.137,129.471 186.363,130.743 187.093 M158.219 187.458 C 158.759 188.041,159.200 188.851,159.200 189.258 C 159.200 189.666,159.380 190.000,159.600 190.000 C 159.820 190.000,160.000 190.270,160.000 190.600 C 160.000 191.095,159.267 191.200,155.800 191.200 L 151.600 191.200 151.600 190.000 C 151.600 189.340,151.780 188.800,152.000 188.800 C 152.220 188.800,152.400 188.513,152.400 188.163 C 152.400 187.812,152.760 187.431,153.200 187.316 C 153.640 187.201,154.000 186.948,154.000 186.753 C 154.000 185.867,157.247 186.410,158.219 187.458 " stroke="none" fill-rule="evenodd"></path></g></svg>