<svg id="svg" xmlns="http://www.w3.org/2000/svg"  width="400" height="400" viewBox="0, 0, 400,400"><g id="svgg"><path id="path0" d="M192.337 156.194 C 192.180 158.716,192.649 159.600,194.144 159.600 C 194.725 159.600,195.200 159.791,195.200 160.024 C 195.200 160.257,195.371 160.342,195.580 160.212 C 196.614 159.573,196.821 161.910,196.712 173.008 L 196.600 184.424 198.145 184.839 C 199.866 185.302,202.633 184.982,203.098 184.265 C 203.264 184.009,203.490 178.490,203.600 172.000 C 203.755 162.858,203.913 160.223,204.300 160.300 C 204.575 160.355,204.800 160.220,204.800 160.000 C 204.800 159.780,205.321 159.600,205.957 159.600 C 207.345 159.600,207.600 159.067,207.600 156.167 L 207.600 154.000 200.037 154.000 L 192.474 154.000 192.337 156.194 M209.510 168.768 L 209.400 183.537 210.334 184.368 C 211.354 185.276,212.837 185.424,214.640 184.797 L 215.800 184.393 215.677 179.140 C 215.540 173.289,215.618 173.079,217.988 172.921 C 220.100 172.779,220.169 172.957,220.400 179.200 L 220.600 184.600 222.087 184.967 C 223.073 185.211,224.082 185.182,225.087 184.882 L 226.600 184.430 226.400 178.625 L 226.200 172.819 224.700 171.364 C 223.286 169.992,222.650 168.813,223.662 169.438 C 223.954 169.619,224.015 169.548,223.827 169.244 C 223.457 168.646,224.342 167.517,224.907 167.866 C 225.136 168.008,225.215 167.949,225.083 167.735 C 224.951 167.521,225.238 166.908,225.721 166.373 C 226.703 165.286,226.922 160.523,226.064 158.919 C 225.824 158.471,225.712 157.992,225.814 157.853 C 225.916 157.714,225.882 157.688,225.737 157.797 C 225.315 158.112,224.383 157.151,224.666 156.693 C 224.808 156.464,224.734 156.394,224.502 156.537 C 224.270 156.680,223.528 156.168,222.853 155.399 L 221.624 154.000 215.622 154.000 L 209.619 154.000 209.510 168.768 M228.884 167.026 L 229.000 180.051 231.051 182.008 C 232.180 183.084,233.035 184.062,232.951 184.182 C 232.868 184.302,232.918 184.312,233.063 184.203 C 233.208 184.095,233.541 184.185,233.804 184.403 C 236.017 186.240,241.157 185.259,244.047 182.449 L 246.400 180.161 246.400 167.080 L 246.400 154.000 243.200 154.000 L 240.000 154.000 240.000 165.574 C 240.000 178.881,239.950 179.158,237.569 179.065 L 235.892 179.000 235.971 166.500 L 236.049 154.000 232.409 154.000 L 228.769 154.000 228.884 167.026 M252.472 155.614 C 251.696 156.548,250.948 157.100,250.672 156.942 C 250.412 156.793,250.329 156.815,250.487 156.989 C 250.645 157.164,250.420 157.757,249.987 158.308 C 248.938 159.641,248.763 178.798,249.786 180.258 C 250.108 180.719,250.243 181.237,250.086 181.412 C 249.929 181.586,250.001 181.614,250.247 181.474 C 250.706 181.212,251.921 182.287,251.971 183.000 C 251.987 183.220,252.135 183.405,252.300 183.410 C 252.465 183.416,253.132 183.776,253.781 184.210 C 254.946 184.989,258.339 185.253,261.307 184.795 C 262.359 184.633,264.689 182.652,264.829 181.800 C 264.925 181.217,265.844 179.977,266.036 180.171 C 266.296 180.434,265.999 173.066,265.722 172.400 C 265.585 172.070,265.487 171.710,265.504 171.600 C 265.561 171.230,261.005 171.675,260.500 172.089 C 260.186 172.345,259.998 173.560,259.994 175.349 C 259.986 178.830,259.821 179.109,257.800 179.048 C 256.329 179.004,256.201 178.911,256.216 177.900 C 256.224 177.295,256.089 176.800,255.916 176.800 C 255.521 176.800,255.494 162.239,255.888 161.845 C 256.046 161.687,256.181 161.162,256.188 160.679 C 256.198 159.979,256.470 159.774,257.526 159.673 C 259.479 159.485,260.092 160.193,259.933 162.450 C 259.765 164.839,260.892 165.708,263.918 165.524 L 265.843 165.407 265.948 162.327 C 266.014 160.386,265.864 158.905,265.541 158.323 C 265.260 157.815,265.083 157.220,265.148 157.000 C 265.213 156.780,265.130 156.737,264.963 156.904 C 264.596 157.270,262.743 155.617,263.019 155.169 C 263.126 154.997,263.002 154.725,262.745 154.566 C 262.434 154.374,262.375 154.466,262.568 154.838 C 262.728 155.147,262.601 155.085,262.286 154.700 C 261.809 154.118,261.044 154.001,257.756 154.007 L 253.800 154.014 252.472 155.614 M269.206 168.900 C 269.213 185.472,269.135 185.007,271.883 184.961 C 275.658 184.898,275.400 185.294,275.400 179.554 C 275.400 172.374,276.008 172.230,278.576 178.800 C 279.393 180.890,280.219 182.995,280.412 183.478 C 281.280 185.651,286.664 185.668,287.239 183.500 C 287.417 182.828,287.372 182.400,287.123 182.400 C 286.898 182.400,286.814 182.142,286.935 181.826 C 287.056 181.510,286.973 181.191,286.750 181.117 C 286.235 180.945,283.926 175.243,284.195 174.808 C 284.305 174.630,284.108 174.373,283.756 174.239 C 283.405 174.104,283.216 173.736,283.336 173.422 C 283.456 173.109,283.430 172.795,283.278 172.726 C 282.181 172.229,281.011 166.800,282.000 166.800 C 282.220 166.800,282.370 166.665,282.334 166.500 C 282.206 165.914,282.892 164.000,283.231 164.000 C 283.420 164.000,283.478 163.748,283.360 163.440 C 283.242 163.133,283.333 162.765,283.562 162.624 C 283.791 162.482,284.172 161.648,284.408 160.771 C 284.676 159.776,285.004 159.279,285.280 159.450 C 285.547 159.614,285.611 159.541,285.441 159.266 C 285.286 159.015,285.528 157.974,285.979 156.954 C 287.284 154.005,287.279 154.000,283.173 154.000 C 279.685 154.000,279.556 154.032,279.809 154.829 C 280.098 155.739,279.327 158.000,278.728 158.000 C 278.522 158.000,278.466 158.184,278.605 158.408 C 278.988 159.028,278.006 161.651,277.506 161.342 C 277.270 161.196,277.187 161.256,277.323 161.476 C 277.710 162.101,276.823 164.800,276.231 164.800 C 275.486 164.800,275.200 162.958,275.200 158.150 L 275.200 154.000 272.200 154.000 L 269.200 154.000 269.206 168.900 M298.714 168.900 C 298.619 181.365,298.693 183.898,299.170 184.400 C 299.936 185.206,308.838 185.490,310.600 184.765 C 311.260 184.493,311.980 184.315,312.200 184.369 C 312.420 184.423,312.467 184.333,312.303 184.170 C 311.888 183.755,312.799 182.752,313.307 183.066 C 313.536 183.208,313.612 183.143,313.476 182.923 C 313.340 182.703,313.762 182.011,314.414 181.386 C 315.576 180.274,315.600 180.167,315.600 176.204 L 315.600 172.157 314.184 170.785 C 312.797 169.440,312.399 167.669,313.539 167.910 C 313.825 167.970,313.958 167.856,313.834 167.655 C 313.579 167.242,314.556 166.289,314.891 166.625 C 315.011 166.745,315.138 164.792,315.172 162.285 C 315.223 158.623,315.115 157.627,314.622 157.218 C 314.285 156.938,314.125 156.522,314.266 156.293 C 314.408 156.064,314.343 155.988,314.123 156.124 C 313.903 156.260,313.211 155.838,312.586 155.186 L 311.450 154.000 305.139 154.000 L 298.828 154.000 298.714 168.900 M322.800 154.424 C 322.800 154.657,322.592 154.719,322.338 154.562 C 322.076 154.400,321.984 154.451,322.126 154.680 C 322.408 155.136,320.688 156.919,320.270 156.604 C 320.122 156.492,320.090 156.520,320.201 156.668 C 320.311 156.815,320.086 157.283,319.701 157.709 C 318.530 159.001,318.263 179.408,319.400 180.732 C 319.840 181.245,320.200 181.830,320.200 182.032 C 320.200 182.234,320.325 182.355,320.478 182.300 C 320.631 182.245,321.380 182.805,322.144 183.545 C 325.981 187.265,334.187 184.444,335.576 178.928 C 336.402 175.649,336.077 159.645,335.159 158.400 C 333.874 156.655,332.721 155.378,332.993 156.000 C 333.137 156.330,332.734 156.015,332.098 155.300 L 330.942 154.000 326.871 154.000 C 324.272 154.000,322.800 154.153,322.800 154.424 M338.181 168.400 C 338.181 176.430,338.234 179.715,338.299 175.700 C 338.365 171.685,338.365 165.115,338.299 161.100 C 338.234 157.085,338.181 160.370,338.181 168.400 M338.709 169.323 C 338.602 184.368,338.614 184.648,339.400 184.808 C 343.022 185.544,350.381 184.970,351.537 183.861 C 352.191 183.235,352.877 182.740,353.063 182.761 C 353.248 182.782,353.408 182.575,353.418 182.300 C 353.428 182.025,353.653 181.845,353.918 181.900 C 354.183 181.955,354.355 181.775,354.300 181.500 C 354.245 181.225,354.425 181.045,354.700 181.100 C 354.975 181.155,355.179 181.065,355.153 180.900 C 354.998 179.921,355.258 178.788,355.590 178.994 C 355.839 179.148,355.974 175.697,355.963 169.417 C 355.953 163.625,355.793 159.600,355.573 159.600 C 355.368 159.600,355.200 159.358,355.200 159.062 C 355.200 158.766,354.844 158.202,354.409 157.809 C 353.975 157.415,353.732 156.909,353.871 156.685 C 354.010 156.460,353.934 156.394,353.702 156.537 C 353.470 156.680,352.728 156.168,352.053 155.399 L 350.824 154.000 344.821 154.000 L 338.818 154.000 338.709 169.323 M358.406 168.900 C 358.413 185.782,358.257 184.987,361.568 184.987 C 365.208 184.987,364.984 185.997,365.118 168.980 L 365.236 154.000 361.818 154.000 L 358.400 154.000 358.406 168.900 M368.000 168.724 C 368.000 180.797,368.102 183.587,368.567 184.224 C 369.235 185.139,378.833 185.639,380.332 184.836 C 381.062 184.446,381.872 179.630,381.200 179.680 C 380.423 179.738,379.988 179.543,380.185 179.225 C 380.323 179.002,379.237 178.880,377.508 178.925 L 374.600 179.000 374.600 175.400 L 374.600 171.800 376.788 171.676 C 379.644 171.514,380.000 171.164,380.000 168.514 C 380.000 166.662,379.877 166.293,379.200 166.116 C 378.760 166.001,378.400 165.733,378.400 165.520 C 378.400 165.307,377.547 165.194,376.500 165.267 L 374.600 165.400 374.479 162.836 C 374.336 159.799,374.518 159.615,377.667 159.606 C 381.100 159.597,381.200 159.510,381.200 156.557 L 381.200 154.000 374.600 154.000 L 368.000 154.000 368.000 168.724 M387.017 154.427 C 387.130 154.611,386.397 155.624,385.388 156.677 L 383.552 158.593 383.676 163.796 C 383.760 167.308,383.943 168.974,384.241 168.920 C 384.483 168.876,385.283 169.461,386.019 170.220 C 386.755 170.979,387.592 171.600,387.878 171.600 C 388.165 171.600,388.400 171.763,388.400 171.963 C 388.400 172.162,388.758 172.232,389.195 172.117 C 390.406 171.800,392.870 172.362,392.549 172.882 C 392.376 173.162,392.461 173.209,392.783 173.011 C 393.880 172.333,394.539 176.646,393.605 178.391 C 392.763 179.964,389.894 179.278,389.462 177.400 C 388.990 175.348,389.149 175.463,386.400 175.200 C 385.103 175.076,384.113 175.047,384.202 175.135 C 384.290 175.223,384.081 175.576,383.737 175.920 C 382.409 177.248,383.230 180.288,385.499 182.453 C 386.601 183.504,387.435 184.432,387.351 184.515 C 387.268 184.599,387.515 184.713,387.900 184.769 C 389.081 184.941,395.576 185.043,395.420 184.887 C 395.339 184.806,396.321 183.808,397.601 182.670 L 399.929 180.600 399.965 175.500 C 399.984 172.695,399.865 170.399,399.700 170.398 C 399.535 170.397,398.860 169.934,398.200 169.369 C 397.540 168.804,397.270 168.474,397.600 168.635 C 397.953 168.807,398.063 168.778,397.867 168.564 C 397.683 168.364,397.323 168.192,397.067 168.182 C 396.810 168.172,396.645 167.947,396.700 167.682 C 396.755 167.417,396.665 167.236,396.500 167.279 C 395.977 167.417,394.381 166.754,394.556 166.471 C 394.648 166.322,394.156 166.169,393.462 166.131 C 390.152 165.950,389.867 165.839,389.527 164.600 C 389.346 163.940,389.321 162.860,389.472 162.200 C 389.623 161.540,389.759 160.730,389.773 160.400 C 389.868 158.264,393.524 159.801,393.695 162.049 L 393.800 163.427 396.386 163.543 C 397.809 163.607,399.095 163.735,399.245 163.828 C 399.704 164.111,400.000 162.838,400.000 160.581 C 400.000 158.828,399.850 158.348,399.189 157.994 C 398.743 157.755,398.486 157.384,398.619 157.170 C 398.751 156.956,398.621 156.830,398.330 156.890 C 398.038 156.951,397.849 156.762,397.910 156.470 C 397.970 156.179,397.856 156.042,397.655 156.166 C 397.173 156.464,396.322 155.420,396.703 154.999 C 396.867 154.819,396.794 154.790,396.542 154.934 C 396.290 155.078,395.977 154.918,395.847 154.579 C 395.652 154.069,394.847 153.973,391.210 154.027 C 388.790 154.063,386.903 154.243,387.017 154.427 M62.819 154.780 C 62.500 154.982,62.097 155.060,61.924 154.953 C 61.751 154.846,61.716 155.038,61.847 155.379 C 61.978 155.721,61.931 156.000,61.743 156.000 C 61.554 156.000,61.461 159.060,61.535 162.800 C 61.609 166.540,61.519 169.600,61.335 169.599 C 61.151 169.599,61.057 171.417,61.127 173.640 C 61.198 175.862,61.108 177.590,60.927 177.479 C 60.555 177.248,60.478 180.720,60.469 198.143 C 60.465 206.787,60.335 210.407,60.036 210.222 C 59.787 210.068,59.696 210.186,59.819 210.505 C 60.113 211.271,58.118 213.331,57.364 213.042 C 56.972 212.891,56.859 212.972,57.045 213.273 C 57.236 213.582,57.110 213.651,56.666 213.481 C 56.297 213.339,56.000 213.419,56.000 213.659 C 56.000 213.898,55.640 213.999,55.200 213.884 C 54.760 213.769,54.400 213.838,54.400 214.037 C 54.400 214.251,43.515 214.400,28.000 214.400 C 9.686 214.400,1.600 214.530,1.600 214.824 C 1.600 215.057,1.465 215.163,1.300 215.061 C 1.135 214.958,1.056 217.035,1.124 219.676 C 1.192 222.316,1.102 224.387,0.924 224.276 C 0.746 224.166,0.567 225.453,0.528 227.138 C 0.488 228.822,0.335 233.582,0.189 237.716 L -0.077 245.232 31.862 245.045 C 65.357 244.849,67.248 244.808,67.648 244.261 C 67.784 244.074,68.352 243.894,68.909 243.861 C 69.467 243.827,69.840 243.665,69.738 243.500 C 69.636 243.335,69.878 243.199,70.276 243.198 C 70.674 243.196,71.514 242.927,72.142 242.600 C 72.770 242.272,73.429 242.094,73.607 242.205 C 73.786 242.315,73.992 242.262,74.066 242.087 C 74.258 241.632,78.506 239.075,79.078 239.070 C 79.341 239.068,79.522 238.962,79.481 238.833 C 79.338 238.384,83.478 234.811,83.801 235.104 C 83.981 235.267,84.008 235.189,83.860 234.932 C 83.712 234.672,84.049 234.105,84.617 233.658 C 85.180 233.215,85.677 232.706,85.721 232.526 C 85.764 232.347,85.905 232.235,86.033 232.278 C 86.162 232.321,86.270 232.141,86.274 231.878 C 86.279 231.615,86.812 230.500,87.461 229.400 C 88.109 228.300,88.877 226.815,89.168 226.100 C 90.052 223.926,90.800 224.441,90.800 227.224 C 90.800 228.557,90.665 229.564,90.500 229.462 C 90.335 229.360,90.178 230.744,90.152 232.538 C 90.126 234.332,90.031 237.479,89.942 239.532 C 89.853 241.585,89.932 243.358,90.117 243.472 C 90.303 243.587,90.354 243.942,90.232 244.261 C 90.109 244.580,90.175 244.739,90.377 244.614 C 90.579 244.489,90.862 244.577,91.005 244.809 C 91.365 245.390,154.400 245.308,154.400 244.726 C 154.400 244.489,155.074 244.380,155.997 244.468 C 156.875 244.552,157.645 244.464,157.709 244.273 C 157.773 244.082,158.297 243.898,158.874 243.863 C 159.451 243.828,159.840 243.665,159.738 243.500 C 159.636 243.335,159.878 243.199,160.276 243.198 C 160.674 243.196,161.514 242.927,162.142 242.600 C 162.770 242.272,163.445 242.104,163.642 242.226 C 163.839 242.348,164.000 242.269,164.000 242.051 C 164.000 241.641,165.546 240.973,166.130 241.131 C 166.311 241.180,166.353 241.048,166.224 240.839 C 165.993 240.465,167.482 239.755,168.130 239.931 C 168.311 239.980,168.357 239.854,168.232 239.652 C 167.988 239.257,169.138 238.610,169.800 238.770 C 170.020 238.823,170.075 238.742,169.922 238.589 C 169.596 238.263,171.998 236.148,172.511 236.310 C 172.703 236.370,172.758 236.256,172.634 236.055 C 172.342 235.583,173.380 234.714,173.770 235.103 C 173.933 235.267,174.009 235.220,173.939 235.000 C 173.779 234.496,175.632 231.973,175.997 232.198 C 176.145 232.290,176.268 232.148,176.270 231.882 C 176.271 231.617,176.879 230.329,177.619 229.021 C 179.410 225.856,180.671 222.003,180.997 218.700 C 181.144 217.215,181.384 216.000,181.532 216.000 C 181.833 216.000,181.876 213.684,181.921 195.262 C 181.938 188.146,182.098 182.413,182.276 182.524 C 182.454 182.634,182.539 180.671,182.464 178.162 C 182.389 175.653,182.479 173.600,182.664 173.601 C 182.849 173.601,182.941 172.142,182.868 170.358 C 182.796 168.573,182.893 167.210,183.083 167.328 C 183.274 167.446,183.398 166.970,183.358 166.271 C 183.318 165.572,183.266 162.898,183.242 160.329 C 183.183 153.802,184.746 154.400,167.745 154.400 C 153.472 154.400,152.000 154.534,152.000 155.838 C 152.000 156.173,151.865 156.364,151.700 156.262 C 151.535 156.160,151.463 158.219,151.540 160.838 C 151.616 163.457,151.526 165.600,151.340 165.599 C 151.153 165.599,151.058 167.327,151.128 169.440 C 151.199 171.553,151.109 173.191,150.928 173.079 C 150.748 172.967,150.577 178.394,150.550 185.138 C 150.522 191.882,150.489 200.253,150.476 203.740 C 150.461 207.738,150.309 209.991,150.064 209.839 C 149.846 209.705,149.757 209.914,149.862 210.315 C 150.106 211.250,148.179 213.354,147.364 213.042 C 147.030 212.913,146.865 212.981,146.996 213.193 C 147.281 213.654,145.423 214.185,144.823 213.814 C 144.590 213.670,144.400 213.743,144.400 213.976 C 144.400 214.438,94.579 214.598,92.877 214.142 C 92.313 213.991,92.036 213.682,92.165 213.347 C 92.280 213.046,92.181 212.800,91.944 212.800 C 91.644 212.800,91.586 210.479,91.752 205.100 C 91.883 200.865,91.988 195.060,91.984 192.200 C 91.981 189.340,92.281 182.680,92.649 177.400 C 93.628 163.398,93.621 156.458,92.628 155.300 L 91.856 154.400 77.628 154.406 C 69.682 154.410,63.144 154.575,62.819 154.780 M108.315 154.982 C 107.058 155.258,105.415 155.951,104.664 156.524 C 103.913 157.097,103.187 157.483,103.049 157.383 C 102.912 157.282,102.878 157.308,102.973 157.440 C 103.069 157.572,102.619 158.409,101.973 159.300 C 101.328 160.191,100.800 161.253,100.800 161.660 C 100.800 162.067,100.626 162.400,100.413 162.400 C 100.199 162.400,100.140 162.700,100.281 163.066 C 100.442 163.487,100.378 163.633,100.105 163.465 C 99.831 163.296,99.751 163.490,99.884 163.999 C 99.999 164.440,99.937 164.800,99.747 164.800 C 99.258 164.799,99.419 167.566,99.992 169.000 C 101.601 173.025,101.017 177.649,99.042 176.524 C 98.799 176.385,98.723 176.409,98.873 176.576 C 99.024 176.743,98.619 177.609,97.973 178.500 C 97.316 179.408,96.800 180.631,96.800 181.284 C 96.800 182.061,96.647 182.353,96.338 182.162 C 96.060 181.990,95.985 182.052,96.149 182.318 C 96.478 182.849,95.983 193.637,95.640 193.424 C 95.052 193.060,95.689 201.111,96.402 203.056 C 96.817 204.186,97.031 205.236,96.878 205.389 C 96.725 205.542,96.862 205.607,97.182 205.533 C 97.502 205.460,97.772 205.625,97.782 205.900 C 97.792 206.175,97.980 206.422,98.200 206.450 C 98.420 206.477,99.029 206.837,99.554 207.250 C 100.079 207.662,100.934 208.000,101.454 208.000 C 101.974 208.000,102.400 208.135,102.400 208.300 C 102.400 208.465,107.890 208.600,114.600 208.600 C 121.310 208.600,126.800 208.445,126.800 208.255 C 126.800 208.065,127.336 207.988,127.990 208.084 C 128.645 208.180,129.230 208.146,129.290 208.009 C 129.351 207.871,133.015 207.858,137.434 207.979 L 145.468 208.200 145.467 206.918 C 145.467 206.212,145.337 205.716,145.178 205.814 C 144.842 206.021,142.555 203.146,142.701 202.700 C 142.756 202.535,142.646 202.445,142.459 202.500 C 142.061 202.616,138.740 199.011,138.061 197.726 C 137.482 196.629,137.460 194.800,138.027 194.800 C 138.279 194.800,138.344 194.455,138.187 193.960 C 137.811 192.774,138.421 181.566,138.848 181.830 C 139.042 181.949,139.200 181.867,139.200 181.647 C 139.200 181.427,139.008 181.128,138.773 180.983 C 138.538 180.838,138.435 180.486,138.544 180.201 C 138.815 179.495,128.603 179.334,127.763 180.031 C 127.453 180.288,127.200 181.117,127.200 181.873 C 127.200 182.677,127.036 183.146,126.805 183.003 C 126.584 182.866,126.507 183.015,126.632 183.339 C 126.754 183.658,126.651 184.045,126.401 184.199 C 125.854 184.538,121.945 180.413,122.287 179.858 C 122.417 179.648,122.336 179.592,122.107 179.734 C 121.678 179.999,117.873 175.860,118.224 175.510 C 118.331 175.402,118.100 175.063,117.710 174.757 C 117.054 174.243,117.043 174.261,117.555 175.000 C 117.860 175.440,117.113 174.720,115.895 173.400 C 114.677 172.080,113.782 170.820,113.905 170.600 C 114.028 170.380,113.978 170.336,113.794 170.503 C 113.402 170.859,112.006 168.886,112.003 167.970 C 111.998 166.965,113.761 165.533,114.603 165.857 C 115.105 166.049,115.241 165.991,115.042 165.668 C 114.823 165.314,118.262 165.200,129.162 165.200 C 142.482 165.200,143.599 165.147,143.931 164.500 C 144.498 163.395,144.860 156.484,144.367 156.180 C 144.135 156.036,144.046 155.658,144.168 155.339 C 144.291 155.020,144.225 154.861,144.023 154.986 C 143.821 155.111,143.542 155.030,143.404 154.807 C 143.019 154.184,111.232 154.344,108.315 154.982 M219.558 159.966 C 219.875 160.166,220.007 160.606,219.863 160.980 C 219.714 161.368,219.773 161.541,220.005 161.397 C 220.674 160.983,220.463 164.932,219.762 165.933 C 219.052 166.946,216.102 167.089,216.300 166.100 C 216.355 165.825,216.220 165.600,216.000 165.600 C 215.472 165.600,215.484 161.365,216.014 160.374 C 216.456 159.547,218.522 159.310,219.558 159.966 M275.693 160.800 C 275.693 161.570,275.775 161.885,275.876 161.500 C 275.976 161.115,275.976 160.485,275.876 160.100 C 275.775 159.715,275.693 160.030,275.693 160.800 M309.520 162.590 C 309.619 164.873,309.514 165.474,308.944 165.890 C 308.174 166.453,306.634 166.593,306.957 166.070 C 307.069 165.889,306.764 165.754,306.280 165.770 C 305.475 165.797,305.390 165.585,305.280 163.265 C 305.131 160.126,305.553 159.518,307.765 159.680 L 309.400 159.800 309.520 162.590 M328.800 159.992 C 329.455 160.406,329.732 178.002,329.093 178.640 C 328.592 179.141,325.897 179.213,325.328 178.740 C 324.603 178.138,324.558 160.802,325.280 160.080 C 325.851 159.509,327.953 159.456,328.800 159.992 M348.720 160.080 C 349.419 160.779,349.400 178.143,348.700 178.701 C 347.975 179.279,345.377 179.116,345.500 178.500 C 345.555 178.225,345.420 178.000,345.200 178.000 C 344.650 178.000,344.663 161.403,345.214 160.374 C 345.689 159.487,347.938 159.298,348.720 160.080 M382.931 163.400 C 382.933 164.940,383.005 165.521,383.092 164.691 C 383.179 163.861,383.177 162.601,383.089 161.891 C 383.000 161.181,382.929 161.860,382.931 163.400 M328.968 169.400 C 328.968 173.800,329.026 175.655,329.098 173.521 C 329.170 171.388,329.170 167.788,329.099 165.521 C 329.027 163.255,328.968 165.000,328.968 169.400 M309.400 175.620 L 309.400 179.000 307.872 179.126 C 305.629 179.311,305.200 178.749,305.200 175.631 C 305.200 172.486,305.569 171.984,307.769 172.131 L 309.400 172.240 309.400 175.620 M316.124 176.200 C 316.126 177.520,316.201 178.012,316.290 177.293 C 316.379 176.574,316.377 175.494,316.286 174.893 C 316.195 174.292,316.122 174.880,316.124 176.200 M264.400 182.125 C 264.400 182.194,263.815 182.779,263.100 183.425 L 261.800 184.600 262.975 183.300 C 264.070 182.088,264.400 181.816,264.400 182.125 M113.225 187.255 C 114.484 188.655,115.416 189.963,115.295 190.162 C 115.175 190.361,115.264 190.408,115.493 190.266 C 115.938 189.991,119.075 193.551,118.890 194.121 C 118.830 194.307,118.945 194.358,119.146 194.233 C 119.348 194.109,119.802 194.449,120.156 194.989 C 120.877 196.089,121.011 196.978,120.400 196.600 C 120.180 196.464,120.000 196.543,120.000 196.776 C 120.000 197.052,118.260 197.200,115.026 197.200 C 110.111 197.200,107.718 196.780,108.200 196.001 C 108.336 195.780,108.236 195.600,107.977 195.600 C 107.637 195.600,107.580 194.852,107.770 192.900 C 107.915 191.415,108.086 189.120,108.149 187.800 C 108.316 184.287,108.263 184.400,109.668 184.563 C 110.628 184.675,111.494 185.331,113.225 187.255 M199.036 189.258 C 199.207 189.535,197.998 190.169,197.500 190.064 C 197.335 190.029,197.245 190.144,197.300 190.321 C 197.355 190.497,196.590 191.442,195.600 192.421 L 193.800 194.200 193.918 197.593 C 194.012 200.309,194.192 201.153,194.821 201.823 C 195.254 202.283,195.516 202.781,195.404 202.930 C 195.292 203.078,195.318 203.112,195.463 203.003 C 195.896 202.680,196.800 203.644,196.800 204.429 C 196.800 204.830,196.199 205.618,195.465 206.178 C 193.375 207.772,192.831 210.423,193.658 214.984 C 193.736 215.415,194.642 216.523,195.671 217.446 C 196.700 218.369,197.420 219.247,197.271 219.396 C 197.122 219.545,197.180 219.623,197.400 219.570 C 197.620 219.517,198.070 219.585,198.400 219.721 C 200.540 220.607,205.950 220.197,206.597 219.100 C 206.953 218.495,207.426 218.000,207.646 218.000 C 207.867 218.000,207.949 217.840,207.828 217.645 C 207.431 217.003,208.673 216.289,209.159 216.880 C 209.395 217.166,210.063 217.993,210.644 218.718 C 211.658 219.981,211.802 220.031,214.151 219.918 L 216.600 219.800 216.640 218.513 C 216.662 217.806,216.559 217.302,216.412 217.393 C 216.130 217.567,213.483 213.431,213.591 212.985 C 213.625 212.843,213.344 212.501,212.966 212.224 C 212.537 211.911,212.400 211.524,212.601 211.199 C 212.814 210.854,212.767 210.773,212.462 210.962 C 212.170 211.142,212.000 210.944,212.000 210.424 C 212.000 209.971,212.191 209.600,212.424 209.600 C 212.657 209.600,212.745 209.435,212.620 209.232 C 212.495 209.030,212.677 208.580,213.025 208.232 C 213.373 207.885,213.534 207.600,213.383 207.600 C 213.232 207.600,213.399 207.156,213.754 206.614 C 214.594 205.332,214.607 203.600,213.776 203.600 C 213.433 203.600,213.236 203.465,213.338 203.300 C 213.440 203.135,212.911 203.000,212.162 203.000 C 211.413 203.000,210.800 203.113,210.800 203.251 C 210.800 203.390,210.260 203.727,209.600 204.000 C 207.184 205.001,206.278 202.375,208.300 200.238 C 209.551 198.916,209.717 194.456,208.564 193.168 C 208.253 192.820,208.134 192.386,208.299 192.203 C 208.465 192.021,208.387 191.994,208.128 192.142 C 207.657 192.412,207.018 191.761,207.006 191.000 C 207.003 190.780,206.730 190.592,206.400 190.582 C 206.070 190.572,205.845 190.347,205.900 190.082 C 205.955 189.817,205.865 189.621,205.700 189.647 C 204.984 189.760,204.367 189.576,204.538 189.300 C 204.640 189.135,203.408 189.000,201.800 189.000 C 200.192 189.000,198.948 189.116,199.036 189.258 M221.006 189.982 C 220.869 190.412,220.796 191.727,220.844 192.905 L 220.931 195.045 222.346 195.141 C 224.890 195.312,224.826 194.988,224.788 207.489 C 224.764 215.312,224.892 219.029,225.199 219.399 C 225.733 220.043,231.172 220.415,231.068 219.800 C 231.030 219.580,231.180 219.430,231.400 219.467 C 231.661 219.511,231.761 215.503,231.688 207.922 C 231.570 195.636,231.629 195.200,233.416 195.200 C 234.751 195.200,235.600 194.794,235.600 194.157 C 235.600 193.851,235.735 193.600,235.900 193.600 C 236.065 193.600,236.200 192.970,236.200 192.200 C 236.200 191.430,236.086 190.800,235.947 190.800 C 235.807 190.800,235.599 190.440,235.484 190.000 C 235.163 188.772,221.395 188.755,221.006 189.982 M238.461 189.726 C 238.114 190.144,238.018 194.178,238.095 205.047 L 238.200 219.800 240.888 219.918 C 244.122 220.060,243.961 220.395,244.102 213.200 L 244.200 208.200 245.728 208.074 C 248.235 207.868,248.400 208.235,248.400 214.025 C 248.400 217.067,248.565 219.255,248.807 219.404 C 249.030 219.542,249.137 219.778,249.045 219.928 C 248.952 220.077,250.115 220.200,251.628 220.200 C 254.933 220.200,254.879 220.310,254.807 213.721 C 254.749 208.348,254.695 207.618,254.368 207.820 C 254.013 208.039,252.747 206.603,252.999 206.268 C 253.110 206.120,253.082 206.088,252.937 206.197 C 252.517 206.510,251.600 205.567,251.600 204.821 C 251.600 203.987,253.342 202.275,253.763 202.696 C 253.930 202.863,254.030 202.820,253.986 202.600 C 253.832 201.836,254.002 201.154,254.300 201.339 C 254.465 201.442,254.510 199.851,254.400 197.803 C 254.200 194.087,253.752 192.936,252.092 191.875 C 251.812 191.697,251.705 191.354,251.853 191.114 C 252.005 190.868,251.941 190.789,251.707 190.934 C 251.274 191.201,250.257 190.276,250.603 189.930 C 250.927 189.606,250.055 189.523,244.366 189.337 C 239.999 189.193,238.840 189.270,238.461 189.726 M260.893 189.534 C 260.122 190.023,259.534 192.353,259.580 194.731 C 259.603 195.902,259.482 196.774,259.311 196.669 C 259.140 196.563,258.964 196.864,258.920 197.338 C 258.876 197.812,258.718 199.685,258.569 201.500 C 258.419 203.315,258.165 204.800,258.004 204.800 C 257.843 204.800,257.802 205.277,257.913 205.859 C 258.025 206.442,257.955 206.820,257.758 206.700 C 257.561 206.579,257.368 207.138,257.330 207.940 C 257.117 212.351,256.701 215.186,256.304 214.941 C 256.054 214.786,255.993 214.865,256.156 215.129 C 256.310 215.378,256.237 216.319,255.994 217.221 C 255.372 219.532,255.873 220.000,258.969 220.000 C 261.630 220.000,262.400 219.578,262.400 218.120 C 262.400 217.614,262.592 217.200,262.827 217.200 C 263.075 217.200,263.145 216.857,262.994 216.381 C 262.597 215.131,263.485 214.400,265.400 214.400 C 267.374 214.400,267.749 214.750,268.400 217.200 C 268.663 218.190,269.039 219.197,269.236 219.437 C 269.432 219.677,269.519 219.947,269.429 220.037 C 269.339 220.127,270.465 220.110,271.932 220.000 L 274.600 219.800 274.729 218.216 C 274.800 217.345,274.567 215.593,274.210 214.323 C 273.854 213.053,273.564 211.246,273.566 210.307 C 273.572 207.504,273.421 206.464,273.042 206.698 C 272.845 206.819,272.774 206.448,272.884 205.872 C 272.994 205.296,272.934 204.917,272.750 205.031 C 272.566 205.145,272.404 204.464,272.389 203.519 C 272.336 200.060,272.192 198.800,271.853 198.800 C 271.663 198.800,271.601 198.440,271.716 197.999 C 271.845 197.505,271.766 197.297,271.509 197.456 C 271.241 197.622,271.158 197.265,271.277 196.457 C 271.378 195.766,271.295 195.200,271.092 195.200 C 270.889 195.200,270.785 194.300,270.861 193.200 C 270.938 192.100,270.865 191.200,270.700 191.200 C 270.535 191.200,270.400 190.936,270.400 190.614 C 270.400 189.358,262.571 188.469,260.893 189.534 M276.406 189.990 C 275.903 190.929,275.812 218.987,276.310 219.753 C 276.620 220.231,282.451 220.402,282.154 219.925 C 282.060 219.773,282.212 219.503,282.492 219.325 C 283.088 218.944,283.251 190.400,282.657 190.400 C 282.469 190.400,282.408 190.156,282.523 189.857 C 282.916 188.831,276.956 188.960,276.406 189.990 M285.687 189.900 C 285.413 190.570,285.334 218.357,285.603 219.600 C 285.712 220.104,286.784 220.200,292.267 220.200 L 298.801 220.200 298.983 219.000 C 299.633 214.711,299.414 214.404,295.705 214.394 C 293.021 214.387,292.257 214.038,292.654 213.002 C 292.849 212.495,292.791 212.358,292.468 212.558 C 292.115 212.776,292.000 210.063,292.000 201.504 C 292.000 193.214,291.871 190.031,291.520 189.680 C 290.718 188.878,286.035 189.055,285.687 189.900 M301.724 189.700 C 301.331 190.306,300.886 219.595,301.272 219.356 C 301.422 219.263,301.658 219.370,301.796 219.593 C 302.085 220.061,313.174 220.154,313.800 219.694 C 314.020 219.532,314.200 218.500,314.200 217.400 C 314.200 214.602,313.651 214.168,310.318 214.332 C 307.151 214.488,307.082 214.384,307.280 209.792 L 307.400 207.000 309.077 207.124 C 311.700 207.319,312.698 206.438,312.864 203.784 C 313.020 201.291,312.422 200.790,309.135 200.666 L 307.400 200.600 307.283 198.163 C 307.136 195.122,307.414 194.871,311.046 194.765 L 313.868 194.683 313.956 192.509 C 314.005 191.297,313.835 190.084,313.573 189.767 C 312.934 188.998,302.217 188.937,301.724 189.700 M316.859 189.729 C 315.928 190.851,316.063 219.606,317.000 219.804 C 318.456 220.112,322.329 220.205,322.156 219.928 C 322.063 219.778,322.170 219.542,322.393 219.404 C 322.634 219.255,322.800 217.077,322.800 214.056 C 322.800 208.354,322.944 208.000,325.272 208.000 C 327.142 208.000,327.171 208.098,327.302 214.800 L 327.400 219.800 330.096 220.000 C 332.204 220.156,332.840 220.075,333.012 219.626 C 333.286 218.911,333.199 207.067,332.922 207.344 C 332.622 207.645,330.400 205.258,330.400 204.635 C 330.400 204.340,330.705 203.851,331.077 203.549 C 331.660 203.076,331.707 203.083,331.413 203.600 C 331.209 203.958,331.219 204.065,331.436 203.867 C 331.636 203.683,331.808 203.323,331.818 203.067 C 331.828 202.810,332.032 202.638,332.272 202.685 C 332.562 202.741,332.730 201.280,332.774 198.314 C 332.810 195.864,332.950 193.666,333.084 193.429 C 333.218 193.193,333.207 193.107,333.059 193.239 C 332.688 193.567,329.286 190.289,329.529 189.838 C 329.636 189.639,329.528 189.597,329.289 189.745 C 329.051 189.892,328.742 189.830,328.604 189.607 C 328.205 188.961,317.403 189.074,316.859 189.729 M339.302 189.436 C 339.398 189.532,338.469 190.643,337.238 191.905 L 335.000 194.200 335.000 198.301 C 335.000 200.556,335.154 202.401,335.343 202.401 C 335.531 202.400,335.583 202.668,335.457 202.995 C 335.325 203.339,335.434 203.550,335.714 203.495 C 335.981 203.443,336.151 203.638,336.090 203.930 C 336.030 204.221,336.141 204.360,336.337 204.239 C 336.723 204.001,337.925 205.148,337.971 205.800 C 337.987 206.020,338.135 206.206,338.300 206.214 C 338.465 206.222,338.974 206.437,339.431 206.691 C 339.888 206.946,341.193 207.278,342.331 207.429 C 343.469 207.580,344.400 207.870,344.400 208.075 C 344.400 208.280,344.600 208.324,344.845 208.172 C 345.900 207.520,346.498 211.921,345.586 213.626 C 344.627 215.417,340.986 214.317,341.269 212.322 C 341.536 210.441,337.503 209.419,335.681 210.906 C 335.029 211.438,335.104 216.398,335.762 216.279 C 336.003 216.236,336.140 216.470,336.067 216.800 C 335.993 217.130,336.069 217.265,336.234 217.099 C 336.648 216.686,338.043 218.008,337.729 218.515 C 337.590 218.740,337.670 218.804,337.906 218.658 C 338.143 218.512,338.686 218.838,339.115 219.383 C 339.543 219.927,339.968 220.299,340.059 220.208 C 340.149 220.117,341.977 220.011,344.120 219.971 C 346.272 219.930,348.130 219.714,348.270 219.487 C 348.431 219.227,348.318 219.201,347.962 219.416 C 347.653 219.602,348.300 218.862,349.400 217.770 C 350.500 216.678,351.563 215.861,351.762 215.954 C 351.961 216.047,352.014 215.947,351.881 215.730 C 351.747 215.514,351.610 213.057,351.576 210.271 C 351.542 207.485,351.374 205.292,351.203 205.398 C 350.758 205.673,349.947 204.592,350.303 204.199 C 350.467 204.019,350.399 203.986,350.153 204.126 C 349.692 204.390,348.242 203.091,348.599 202.734 C 348.710 202.624,348.575 202.508,348.300 202.476 C 346.377 202.255,343.200 201.404,343.200 201.110 C 343.200 200.913,343.012 200.869,342.782 201.011 C 341.444 201.838,340.424 196.536,341.680 195.280 C 342.896 194.064,346.012 195.149,345.457 196.595 C 345.330 196.928,345.380 197.200,345.569 197.200 C 345.758 197.200,346.015 197.607,346.140 198.104 C 346.368 199.013,348.976 199.242,350.800 198.513 C 351.130 198.381,351.490 198.287,351.600 198.304 C 352.984 198.519,351.317 193.448,349.412 191.646 C 348.246 190.544,347.377 189.556,347.482 189.452 C 347.586 189.347,345.749 189.262,343.400 189.262 C 341.051 189.262,339.207 189.340,339.302 189.436 M203.520 195.280 C 204.143 195.903,204.143 200.097,203.520 200.720 C 201.170 203.070,198.276 198.821,200.014 195.574 C 200.489 194.687,202.738 194.498,203.520 195.280 M247.745 195.696 C 247.715 196.078,247.850 196.293,248.045 196.172 C 248.240 196.051,248.400 197.054,248.400 198.400 C 248.400 199.746,248.240 200.749,248.045 200.628 C 247.850 200.507,247.715 200.722,247.745 201.104 C 247.775 201.487,247.530 201.800,247.200 201.800 C 246.870 201.800,246.495 201.942,246.367 202.116 C 246.239 202.289,245.654 202.248,245.067 202.025 C 243.857 201.565,243.418 196.342,244.498 195.262 C 245.265 194.495,247.813 194.835,247.745 195.696 M326.786 195.574 C 327.260 196.460,327.336 200.767,326.890 201.468 C 326.435 202.183,324.400 202.599,324.400 201.977 C 324.400 201.696,324.282 201.585,324.137 201.730 C 323.449 202.417,322.800 200.958,322.800 198.725 C 322.800 195.608,323.253 194.800,325.000 194.800 C 325.947 194.800,326.500 195.040,326.786 195.574 M333.324 197.800 C 333.326 199.120,333.401 199.612,333.490 198.893 C 333.579 198.174,333.577 197.094,333.486 196.493 C 333.395 195.892,333.322 196.480,333.324 197.800 M266.011 197.029 C 266.226 197.595,266.383 199.170,266.361 200.529 C 266.338 201.888,266.513 203.720,266.750 204.600 C 267.626 207.854,266.720 209.439,264.549 208.450 C 263.627 208.029,263.192 206.141,263.864 205.469 C 264.009 205.324,264.087 203.944,264.037 202.403 C 263.976 200.526,264.096 199.600,264.400 199.600 C 264.677 199.600,264.751 199.277,264.591 198.771 C 263.945 196.736,265.278 195.101,266.011 197.029 M203.437 207.371 C 206.422 209.462,205.465 214.400,202.075 214.400 C 199.963 214.400,199.600 213.864,199.600 210.749 C 199.600 207.081,201.117 205.746,203.437 207.371 " stroke="none" fill="#070101" fill-rule="evenodd"></path></g></svg>