<?xml version="1.0" encoding="UTF-8" standalone="no"?>
<svg
   xmlns="http://www.w3.org/2000/svg"
   version="1.1"
   viewBox="0, 0, 400,400"
   height="400"
   width="400"
   id="svg">
  <g
     id="svgg">
    <path
       style="fill-rule:evenodd;stroke:none;stroke-width:2.12721777"
       d="m 138.68241,104.0227 c -0.67858,0.4297 -1.53585,0.59562 -1.90386,0.36801 -0.36801,-0.22761 -0.44246,0.18081 -0.16379,0.90619 0.27866,0.72751 0.17868,1.32101 -0.22123,1.32101 -0.40205,0 -0.59988,6.50928 -0.44247,14.46508 0.15742,7.95579 -0.034,14.46508 -0.42544,14.46295 -0.39141,0 -0.59137,3.86728 -0.44246,8.59609 0.15103,4.72668 -0.0404,8.40251 -0.42544,8.16639 -0.79133,-0.49139 -0.95512,6.89431 -0.97427,43.95683 -0.009,18.38767 -0.28505,26.0882 -0.92108,25.69466 -0.52968,-0.32759 -0.72326,-0.0766 -0.46161,0.602 0.6254,1.62945 -3.6184,6.01152 -5.22232,5.39676 -0.83387,-0.32121 -1.07425,-0.14891 -0.67858,0.49138 0.4063,0.65731 0.13827,0.80409 -0.80622,0.44246 -0.78494,-0.30206 -1.41673,-0.13188 -1.41673,0.37865 0,0.5084 -0.76579,0.72325 -1.70177,0.47862 -0.93598,-0.24463 -1.70177,-0.0978 -1.70177,0.32547 0,0.45522 -23.154771,0.77218 -56.158555,0.77218 -38.957868,0 -56.1585512,0.27654 -56.1585512,0.90194 0,0.49564 -0.2871744,0.72113 -0.6381654,0.50415 -0.3509909,-0.2191 -0.5190411,4.19913 -0.3743903,9.81711 0.1446508,5.61585 -0.046799,10.02132 -0.4254436,9.7852 -0.3786447,-0.23399 -0.7594167,2.50374 -0.8423782,6.0881 -0.085089,3.58223 -0.4105531,13.70779 -0.7211269,22.50171 L 4.8889195,296.43381 72.83013,296.03602 c 71.25116,-0.41694 75.27373,-0.50415 76.12462,-1.66774 0.2893,-0.39779 1.49756,-0.78069 2.68242,-0.85089 1.18699,-0.0723 1.98044,-0.41693 1.76346,-0.76792 -0.21697,-0.35099 0.29781,-0.6403 1.14445,-0.64242 0.84663,-0.004 2.63349,-0.57648 3.96938,-1.27208 1.3359,-0.69773 2.73773,-1.07637 3.11638,-0.84025 0.38077,0.23399 0.81898,0.12125 0.97639,-0.25101 0.40843,-0.96789 9.44485,-6.40718 10.66162,-6.41782 0.55946,-0.004 0.94448,-0.22974 0.85727,-0.50415 -0.3042,-0.95512 8.50249,-8.55567 9.18958,-7.93239 0.3829,0.34673 0.44033,0.18081 0.1255,-0.36589 -0.31483,-0.55307 0.40205,-1.7592 1.61031,-2.71007 1.19762,-0.94236 2.25485,-2.02511 2.34845,-2.40801 0.0915,-0.38077 0.3914,-0.61902 0.66369,-0.52755 0.27441,0.0915 0.50415,-0.29143 0.51266,-0.85089 0.0106,-0.55946 1.14444,-2.93131 2.525,-5.27124 1.37844,-2.33994 3.01214,-5.49886 3.63116,-7.01982 1.88047,-4.62458 3.47162,-3.52906 3.47162,2.39099 0,2.83558 -0.28717,4.97769 -0.63816,4.76071 -0.35099,-0.21697 -0.68496,2.7271 -0.74027,6.54332 -0.0553,3.81623 -0.2574,10.51059 -0.44672,14.87777 -0.18932,4.36717 -0.0213,8.13873 0.37226,8.38123 0.39567,0.24463 0.50416,0.9998 0.24463,1.67838 -0.26164,0.67858 -0.12125,1.01681 0.30845,0.75091 0.4297,-0.2659 1.0317,-0.0787 1.33589,0.4148 0.7658,1.23592 134.85498,1.06149 134.85498,-0.17655 0,-0.50415 1.43374,-0.73602 3.39717,-0.54883 1.86769,0.17869 3.50565,-0.009 3.64179,-0.4148 0.13614,-0.4063 1.25081,-0.79771 2.47821,-0.87216 1.22741,-0.0745 2.05489,-0.42119 1.83792,-0.77218 -0.21698,-0.35099 0.29781,-0.6403 1.14444,-0.64242 0.84663,-0.004 2.6335,-0.57648 3.96939,-1.27208 1.33589,-0.69773 2.77176,-1.0551 3.19083,-0.79558 0.41906,0.25952 0.76154,0.0915 0.76154,-0.37226 0,-0.87216 3.28868,-2.29314 4.53097,-1.95704 0.38503,0.10423 0.47437,-0.17656 0.19996,-0.62115 -0.49138,-0.79558 2.67604,-2.3059 4.05448,-1.93151 0.38503,0.10423 0.48288,-0.1638 0.21698,-0.5935 -0.51905,-0.84025 1.92726,-2.21656 3.33547,-1.8762 0.46799,0.11274 0.58499,-0.0596 0.25952,-0.38503 -0.69347,-0.69347 4.41611,-5.19254 5.50737,-4.84793 0.40843,0.12763 0.52542,-0.11487 0.26165,-0.54244 -0.62115,-1.00405 1.5869,-2.8526 2.41652,-2.02511 0.34673,0.34886 0.5084,0.24888 0.3595,-0.2191 -0.34036,-1.07212 3.60138,-6.43909 4.37781,-5.96047 0.31483,0.1957 0.57648,-0.10636 0.58073,-0.6722 0.002,-0.56371 1.29548,-3.30357 2.86962,-6.08597 3.80985,-6.73264 6.49227,-14.92881 7.18574,-21.95502 0.3127,-3.15891 0.82323,-5.74348 1.13806,-5.74348 0.6403,0 0.73177,-4.92664 0.82749,-44.11425 0.0362,-15.13728 0.37652,-27.33262 0.75516,-27.0965 0.37865,0.234 0.55946,-3.94173 0.39992,-9.27892 -0.15954,-5.33719 0.0319,-9.70437 0.42544,-9.70224 0.39354,0 0.58924,-3.10361 0.43396,-6.89857 -0.15316,-3.79708 0.0532,-6.69648 0.45735,-6.44547 0.4063,0.25101 0.67007,-0.76154 0.58498,-2.24847 -0.0851,-1.48692 -0.1957,-7.17511 -0.24675,-12.63993 -0.12551,-13.88435 3.19933,-12.61227 -32.9655,-12.61227 -30.36178,0 -33.49304,0.28505 -33.49304,3.05894 0,0.71262 -0.28718,1.11891 -0.63817,0.90194 -0.35099,-0.21698 -0.50415,4.16296 -0.34035,9.73415 0.16166,5.57118 -0.0298,10.12981 -0.42545,10.12768 -0.39779,0 -0.59987,3.67583 -0.45097,8.17064 0.15103,4.49482 -0.0404,7.9792 -0.42544,7.74095 -0.3829,-0.23825 -0.74666,11.30616 -0.80409,25.65212 -0.0596,14.34596 -0.12976,32.1529 -0.15741,39.57051 -0.0319,8.50461 -0.35525,13.29723 -0.87642,12.9739 -0.46373,-0.28505 -0.65305,0.15954 -0.4297,1.01255 0.51905,1.98895 -3.5801,6.46462 -5.31379,5.80093 -0.71049,-0.27442 -1.06148,-0.12976 -0.78281,0.32121 0.60625,0.98064 -3.34612,2.1102 -4.62245,1.321 -0.49564,-0.30632 -0.89981,-0.15103 -0.89981,0.34461 0,0.98277 -105.98012,1.32313 -109.60064,0.35312 -1.19975,-0.32121 -1.78899,-0.97852 -1.51458,-1.69114 0.24463,-0.6403 0.034,-1.16359 -0.47012,-1.16359 -0.63816,0 -0.76154,-4.93727 -0.40842,-16.37958 0.27866,-9.00877 0.50202,-21.35727 0.49351,-27.44111 -0.006,-6.08384 0.63178,-20.25111 1.4146,-31.48282 2.08255,-29.78531 2.06766,-44.5482 -0.0447,-47.01152 l -1.64221,-1.91449 -30.26606,0.0128 c -16.90287,0.009 -30.81062,0.3595 -31.50197,0.79558 m 96.7799,0.4297 c -2.67391,0.58711 -6.16893,2.06127 -7.76647,3.28017 -1.59754,1.21889 -3.1419,2.04 -3.43545,1.82728 -0.29143,-0.21485 -0.36376,-0.15954 -0.16167,0.12125 0.20421,0.28079 -0.75304,2.06127 -2.12722,3.95663 -1.37206,1.89535 -2.49523,4.15445 -2.49523,5.02023 0,0.86578 -0.37013,1.57414 -0.82323,1.57414 -0.45523,0 -0.58073,0.63817 -0.28079,1.41673 0.34248,0.89556 0.20634,1.20613 -0.37439,0.84876 -0.58286,-0.3595 -0.75304,0.0532 -0.47012,1.13593 0.24463,0.9381 0.11274,1.7039 -0.29143,1.7039 -1.04021,-0.002 -0.69772,5.88389 0.52117,8.93432 3.42269,8.56205 2.1804,18.39831 -2.02086,16.00519 -0.51691,-0.29569 -0.67858,-0.24463 -0.3595,0.11061 0.32121,0.35525 -0.54031,2.19742 -1.91449,4.09277 -1.39758,1.93151 -2.49523,4.5331 -2.49523,5.92217 0,1.65285 -0.32546,2.274 -0.98277,1.8677 -0.59137,-0.36588 -0.75091,-0.23399 -0.40205,0.33185 0.69986,1.12955 -0.35312,24.07797 -1.08275,23.62488 -1.25081,-0.77431 0.10423,16.35192 1.62094,20.48936 0.88279,2.40375 1.33802,4.63733 1.01255,4.9628 -0.32546,0.32546 -0.034,0.46373 0.64668,0.30632 0.68071,-0.15529 1.25506,0.1957 1.27633,0.78069 0.0213,0.58498 0.42119,1.1104 0.88918,1.16997 0.46798,0.0574 1.76346,0.82323 2.88025,1.70177 1.11679,0.87641 2.93556,1.59541 4.04171,1.59541 1.10616,0 2.01235,0.28718 2.01235,0.63817 0,0.35099 11.67843,0.63816 25.95206,0.63816 14.27363,0 25.95206,-0.32971 25.95206,-0.73389 0,-0.40417 1.14019,-0.56796 2.53139,-0.36375 1.39332,0.20421 2.63775,0.13189 2.76538,-0.15954 0.12976,-0.29356 7.92389,-0.32121 17.32406,-0.0638 l 17.09007,0.47012 -0.002,-2.7271 c 0,-1.50181 -0.27654,-2.55691 -0.61476,-2.34844 -0.71475,0.44033 -5.5797,-5.67542 -5.26912,-6.62416 0.11699,-0.35099 -0.117,-0.54244 -0.51479,-0.42544 -0.84663,0.24675 -7.91112,-7.42187 -9.3555,-10.15534 -1.23166,-2.33356 -1.27846,-6.22424 -0.0723,-6.22424 0.53606,0 0.67433,-0.73389 0.34036,-1.78686 -0.79984,-2.52289 0.49776,-26.36474 1.40609,-25.80316 0.41268,0.25314 0.74878,0.0787 0.74878,-0.38928 0,-0.46799 -0.40843,-1.10402 -0.90832,-1.41247 -0.4999,-0.30845 -0.719,-1.05723 -0.48714,-1.66348 0.57648,-1.50182 -21.14667,-1.8443 -22.93353,-0.36163 -0.65944,0.54669 -1.19763,2.31016 -1.19763,3.91833 0,1.71029 -0.34886,2.70795 -0.84025,2.40376 -0.47011,-0.29143 -0.63391,0.0255 -0.36801,0.71474 0.25952,0.67859 0.0404,1.50182 -0.49138,1.82941 -1.16359,0.72113 -9.47889,-8.05364 -8.75138,-9.23425 0.27654,-0.44672 0.10424,-0.56584 -0.3829,-0.26378 -0.91257,0.56372 -9.00664,-8.24084 -8.25998,-8.98536 0.22761,-0.22974 -0.26378,-0.95087 -1.09339,-1.6018 -1.39546,-1.09339 -1.41886,-1.0551 -0.32972,0.51692 0.6488,0.93597 -0.94023,-0.59563 -3.53118,-3.40355 -2.59096,-2.80793 -4.49482,-5.48823 -4.23317,-5.95621 0.26165,-0.46799 0.15529,-0.56159 -0.23612,-0.20634 -0.83387,0.75729 -3.80346,-3.43971 -3.80985,-5.38825 -0.0106,-2.13785 3.73965,-5.18403 5.53077,-4.49481 1.06786,0.40843 1.35717,0.28505 0.93385,-0.40204 -0.46586,-0.75304 6.84964,-0.99554 30.03632,-0.99554 28.33454,0 30.71064,-0.11274 31.41688,-1.48905 1.20613,-2.35058 1.97618,-17.05178 0.92746,-17.69845 -0.49351,-0.30632 -0.68283,-1.11041 -0.42331,-1.78899 0.26164,-0.67859 0.12125,-1.01681 -0.30845,-0.75091 -0.4297,0.2659 -1.02319,0.0936 -1.31675,-0.38077 -0.81898,-1.32526 -68.43685,-0.98491 -74.64195,0.37226 m 10.44464,68.6517 c 2.67817,2.9781 4.66074,5.76051 4.40335,6.18382 -0.25527,0.42332 -0.066,0.5233 0.42118,0.22123 0.94662,-0.58498 7.6197,6.98791 7.22616,8.20043 -0.12763,0.39566 0.117,0.50415 0.54457,0.23825 0.4297,-0.26378 1.39546,0.45947 2.14849,1.60817 1.53373,2.33994 1.81877,4.23104 0.51904,3.42695 -0.46799,-0.2893 -0.85088,-0.12125 -0.85088,0.37439 0,0.58711 -3.70136,0.90194 -10.58079,0.90194 -10.45527,0 -15.5457,-0.89343 -14.52039,-2.55053 0.28931,-0.47012 0.0766,-0.85302 -0.47436,-0.85302 -0.72326,0 -0.84451,-1.59116 -0.44034,-5.74349 0.30845,-3.15891 0.6722,-8.04088 0.80622,-10.84881 0.35524,-7.47291 0.2425,-7.23254 3.23124,-6.8858 2.04213,0.23825 3.8843,1.6337 7.56651,5.72647"
       id="path0" />
  </g>
</svg>
