<svg id="svg" xmlns="http://www.w3.org/2000/svg"  width="400" height="400" viewBox="0, 0, 400,400"><g id="svgg"><path id="path0" d="M175.667 100.381 C 18.869 111.569,-53.281 201.121,44.481 263.209 C 113.179 306.838,244.316 313.196,328.966 277.002 C 434.439 231.905,420.332 149.401,301.000 113.441 C 264.497 102.441,216.657 97.456,175.667 100.381 M220.333 104.028 C 358.689 111.581,437.720 183.861,374.171 244.724 C 296.112 319.484,71.321 311.725,15.181 232.333 C -32.160 165.387,78.344 96.276,220.333 104.028 M177.000 109.368 C 33.447 118.648,-38.611 197.049,45.000 252.986 C 140.595 316.942,347.279 297.468,385.902 220.866 C 416.480 160.218,305.627 101.052,177.000 109.368 M117.320 147.500 C 125.278 151.566,125.006 155.653,114.692 187.000 C 110.228 200.567,105.218 215.803,103.558 220.857 C 100.350 230.628,98.568 233.552,94.886 235.091 C 91.966 236.311,49.333 236.436,49.333 235.225 C 49.333 234.389,50.169 231.775,63.760 190.097 C 68.704 174.934,72.622 162.400,72.465 162.243 C 72.309 162.087,70.683 161.781,68.853 161.564 L 65.526 161.170 67.820 154.096 C 69.081 150.206,70.256 146.792,70.429 146.511 C 71.329 145.056,114.311 145.963,117.320 147.500 M225.619 165.579 C 228.593 168.383,228.593 168.779,225.626 181.229 C 223.041 192.080,221.237 195.791,217.592 197.753 C 215.600 198.826,215.506 199.021,216.383 200.273 C 217.977 202.549,217.458 206.566,214.267 216.667 C 211.366 225.846,211.232 226.610,211.610 231.833 L 212.008 237.333 202.748 237.333 C 192.069 237.333,192.684 237.782,192.686 230.000 C 192.686 226.710,193.329 223.756,195.355 217.734 C 198.408 208.661,198.469 209.052,194.110 209.651 L 190.802 210.106 185.835 223.887 L 180.868 237.667 171.688 237.853 C 163.120 238.026,162.540 237.960,162.971 236.853 C 163.964 234.305,184.000 177.242,184.000 176.963 C 184.000 176.800,182.650 176.667,181.000 176.667 C 179.350 176.667,178.000 176.493,178.000 176.280 C 178.000 175.742,181.934 164.646,182.381 163.922 C 182.582 163.598,191.856 163.333,202.992 163.333 L 223.238 163.333 225.619 165.579 M174.392 166.204 C 177.261 169.541,176.743 172.369,169.038 195.465 C 165.208 206.942,160.970 219.926,159.620 224.317 C 157.730 230.463,156.686 232.781,155.083 234.384 L 153.000 236.465 135.265 236.949 C 108.188 237.689,105.705 235.092,113.325 214.000 C 114.849 209.783,118.726 198.533,121.942 189.000 C 128.490 169.590,129.085 168.222,132.061 165.718 L 134.170 163.943 153.477 164.138 L 172.784 164.333 174.392 166.204 M278.476 164.921 C 278.680 165.124,277.883 167.959,276.707 171.222 L 274.568 177.154 270.520 177.577 C 268.293 177.810,264.490 178.003,262.069 178.007 C 254.088 178.021,252.663 178.497,251.323 181.601 C 248.192 188.851,249.136 190.000,258.230 190.000 C 265.526 190.000,267.057 190.926,266.865 195.223 C 266.696 199.003,254.899 236.182,253.557 237.162 C 252.064 238.255,214.667 238.387,214.667 237.300 C 214.667 236.915,215.604 233.915,216.750 230.633 L 218.834 224.667 229.920 224.667 L 241.006 224.667 243.544 217.151 C 247.169 206.413,246.276 204.667,237.160 204.667 C 227.885 204.667,227.480 202.728,232.968 184.620 C 239.657 162.549,237.981 163.759,261.220 164.218 C 270.508 164.401,278.273 164.718,278.476 164.921 M318.623 164.500 C 318.599 164.775,317.624 167.700,316.457 171.000 L 314.333 177.000 306.248 177.187 L 298.163 177.373 296.839 180.853 L 295.515 184.333 303.678 184.667 L 311.842 185.000 309.391 193.000 L 306.941 201.000 299.010 201.333 L 291.078 201.667 286.917 212.333 C 284.628 218.200,282.735 223.375,282.711 223.833 C 282.678 224.455,284.631 224.667,290.386 224.667 L 298.106 224.667 297.663 226.682 C 297.420 227.790,296.717 230.565,296.101 232.848 L 294.981 237.000 277.490 237.178 C 267.871 237.275,260.000 237.272,260.000 237.171 C 260.000 236.655,283.925 165.327,284.303 164.716 C 284.813 163.890,318.695 163.677,318.623 164.500 M335.522 164.865 C 335.705 165.340,336.236 170.149,336.702 175.551 C 337.168 180.953,337.780 185.289,338.062 185.186 C 338.344 185.084,341.829 180.500,345.807 175.000 L 353.038 165.000 360.853 164.812 C 365.866 164.692,368.667 164.869,368.667 165.308 C 368.667 165.683,362.601 175.208,355.187 186.474 L 341.707 206.957 336.248 221.645 L 330.789 236.333 322.070 236.519 L 313.352 236.705 314.068 234.853 C 323.830 209.596,324.008 207.693,320.286 168.167 L 319.894 164.000 327.542 164.000 C 333.194 164.000,335.277 164.226,335.522 164.865 M92.707 165.961 C 92.179 166.295,87.648 179.025,82.639 194.249 L 73.531 221.929 77.087 222.373 C 84.089 223.248,85.825 221.884,88.305 213.558 C 89.271 210.318,92.747 199.203,96.030 188.858 C 102.385 168.835,102.739 167.109,100.710 166.023 C 99.124 165.175,94.013 165.135,92.707 165.961 M145.054 177.545 C 143.038 179.019,129.734 219.152,130.129 222.566 C 130.405 224.954,138.901 225.653,140.894 223.450 C 142.059 222.163,156.000 181.327,156.000 179.202 C 156.000 176.791,147.785 175.548,145.054 177.545 M199.506 184.167 L 197.505 189.667 200.471 189.872 C 204.113 190.124,204.962 189.463,206.346 185.295 C 207.600 181.520,207.237 179.642,205.145 179.081 C 201.905 178.213,201.558 178.525,199.506 184.167 " stroke="none" fill-rule="evenodd"></path></g></svg>