<svg id="svg" version="1.1" xmlns="http://www.w3.org/2000/svg"  width="400" height="400" viewBox="0, 0, 400,400"><g id="svgg"><path id="path0" d="M145.069 164.986 C 145.031 165.024,145.000 173.932,145.000 184.781 L 145.000 204.506 148.708 204.462 L 152.417 204.417 152.500 190.167 L 152.583 175.917 153.436 176.750 C 153.906 177.208,155.218 178.558,156.353 179.750 C 160.758 184.374,165.320 189.155,166.848 190.750 C 167.727 191.666,169.227 193.235,170.181 194.235 C 174.332 198.583,176.331 200.663,177.500 201.852 C 178.188 202.551,178.998 203.433,179.301 203.812 L 179.852 204.500 183.843 204.500 L 187.833 204.500 187.833 184.753 L 187.833 165.006 187.458 164.921 C 187.252 164.873,186.933 164.866,186.750 164.905 C 186.567 164.943,185.010 164.980,183.292 164.987 L 180.167 165.000 180.167 179.000 C 180.167 186.700,180.107 193.000,180.035 193.000 C 179.862 193.000,178.500 191.611,178.500 191.435 C 178.500 191.361,177.956 190.764,177.291 190.108 C 176.627 189.453,175.070 187.836,173.833 186.514 C 172.596 185.193,171.246 183.763,170.833 183.336 C 169.706 182.169,167.760 180.125,165.914 178.167 C 165.006 177.204,163.585 175.701,162.757 174.827 C 161.928 173.953,160.087 172.006,158.667 170.501 C 157.246 168.995,155.483 167.144,154.750 166.388 L 153.417 165.011 149.277 164.964 C 147.001 164.938,145.107 164.948,145.069 164.986 M194.569 164.986 C 194.531 165.024,194.500 173.931,194.500 184.778 L 194.500 204.500 198.417 204.500 L 202.333 204.500 202.333 184.750 L 202.333 165.000 201.875 164.998 C 201.623 164.997,199.892 164.979,198.028 164.957 C 196.164 164.935,194.607 164.948,194.569 164.986 M209.319 165.101 C 209.227 165.212,209.182 173.121,209.208 184.851 L 209.250 204.417 213.208 204.461 L 217.167 204.506 217.167 202.109 L 217.167 199.713 218.526 198.481 C 219.273 197.804,220.454 196.739,221.151 196.115 C 221.847 195.490,222.942 194.498,223.583 193.909 C 224.225 193.321,225.387 192.273,226.167 191.581 C 226.946 190.889,227.861 190.067,228.199 189.754 L 228.816 189.184 232.975 193.301 C 235.263 195.564,237.367 197.603,237.651 197.832 C 237.934 198.060,238.167 198.309,238.167 198.385 C 238.167 198.461,238.516 198.837,238.943 199.220 C 239.370 199.603,240.743 200.948,241.994 202.208 L 244.268 204.500 249.717 204.500 C 254.455 204.500,255.167 204.467,255.167 204.249 C 255.167 203.970,254.628 203.419,251.173 200.167 C 249.859 198.929,248.221 197.335,247.533 196.625 C 246.845 195.915,246.207 195.333,246.114 195.333 C 246.021 195.333,245.413 194.790,244.764 194.125 C 243.275 192.601,238.716 188.167,238.638 188.167 C 238.606 188.167,237.643 187.262,236.498 186.156 L 234.417 184.145 235.014 183.614 C 237.753 181.179,240.181 179.010,240.667 178.565 C 240.987 178.272,241.962 177.406,242.832 176.641 C 243.703 175.876,244.715 174.941,245.082 174.564 C 245.450 174.187,245.875 173.812,246.027 173.731 C 246.299 173.586,248.197 171.897,249.563 170.583 C 249.944 170.217,250.688 169.550,251.216 169.101 C 251.744 168.652,252.460 168.015,252.808 167.684 C 253.156 167.354,253.871 166.719,254.396 166.274 C 255.951 164.954,256.052 164.982,249.671 164.977 L 244.092 164.972 243.254 165.818 C 242.794 166.284,241.742 167.271,240.917 168.011 C 238.445 170.227,237.328 171.238,235.736 172.696 C 234.903 173.459,233.675 174.571,233.007 175.167 C 232.339 175.762,231.520 176.512,231.188 176.833 C 230.855 177.154,230.204 177.754,229.740 178.167 C 225.194 182.209,220.923 186.096,219.712 187.292 C 219.225 187.773,218.768 188.167,218.697 188.167 C 218.626 188.167,218.271 188.470,217.909 188.841 L 217.250 189.516 217.167 177.246 L 217.083 164.976 213.278 164.946 C 210.664 164.926,209.424 164.974,209.319 165.101 M309.233 165.002 L 308.750 165.087 308.750 184.752 L 308.750 204.417 327.417 204.417 L 346.083 204.417 346.083 200.500 L 346.083 196.583 331.376 196.541 L 316.668 196.498 316.626 180.791 L 316.583 165.083 313.150 165.000 C 311.261 164.954,309.499 164.955,309.233 165.002 M370.225 165.145 C 370.056 165.329,369.506 166.291,369.003 167.282 C 368.501 168.273,368.035 169.124,367.967 169.173 C 367.899 169.223,367.418 170.085,366.899 171.090 C 366.379 172.095,365.627 173.459,365.227 174.122 C 364.827 174.785,364.500 175.408,364.500 175.506 C 364.500 175.686,363.701 177.097,362.595 178.871 C 362.268 179.396,362.000 179.921,361.999 180.038 C 361.999 180.155,361.834 180.512,361.632 180.833 C 360.849 182.078,359.806 183.945,359.405 184.823 C 359.174 185.328,358.885 185.855,358.763 185.995 C 358.641 186.135,358.038 187.223,357.423 188.411 C 356.808 189.600,356.170 190.763,356.006 190.995 C 355.842 191.227,355.351 192.129,354.916 193.000 C 354.480 193.871,353.918 194.883,353.667 195.250 C 353.416 195.617,352.940 196.464,352.611 197.132 C 352.281 197.801,351.596 199.053,351.089 199.915 C 350.582 200.776,350.167 201.588,350.167 201.718 C 350.167 201.848,350.027 202.134,349.856 202.353 C 349.483 202.830,348.833 204.084,348.833 204.327 C 348.833 204.442,350.330 204.500,353.333 204.500 C 355.808 204.500,357.833 204.441,357.833 204.368 C 357.833 204.295,358.194 203.602,358.635 202.826 C 359.076 202.051,359.538 201.154,359.662 200.833 C 359.787 200.512,359.977 200.137,360.087 200.000 C 360.196 199.862,360.500 199.338,360.762 198.833 C 361.025 198.329,361.373 197.738,361.536 197.519 C 361.700 197.301,361.834 197.001,361.834 196.853 C 361.834 196.704,362.106 196.133,362.439 195.583 C 362.772 195.033,363.497 193.683,364.050 192.583 C 364.603 191.483,365.106 190.546,365.169 190.500 C 365.275 190.423,366.275 188.533,368.961 183.333 C 369.553 182.188,370.130 181.137,370.243 181.000 C 370.356 180.862,370.941 179.775,371.541 178.583 C 372.142 177.392,372.904 175.971,373.233 175.426 C 373.563 174.882,373.836 174.319,373.839 174.176 C 373.842 174.034,373.959 173.767,374.099 173.583 L 374.354 173.250 374.607 173.583 C 374.747 173.767,375.117 174.404,375.431 175.000 C 375.745 175.596,376.071 176.196,376.154 176.333 C 376.238 176.471,376.399 176.835,376.513 177.142 C 376.628 177.449,376.901 177.966,377.122 178.291 C 377.342 178.616,378.089 179.977,378.781 181.316 C 379.473 182.655,380.524 184.688,381.118 185.833 C 381.711 186.979,382.290 188.029,382.404 188.167 C 382.518 188.304,382.937 189.092,383.334 189.917 C 383.731 190.742,384.362 191.942,384.736 192.583 C 385.110 193.225,385.520 193.975,385.647 194.250 C 385.993 195.002,386.423 195.840,386.844 196.583 C 387.052 196.950,387.687 198.150,388.255 199.250 C 388.824 200.350,389.448 201.512,389.643 201.833 C 389.837 202.154,390.157 202.754,390.353 203.167 C 390.549 203.579,390.764 204.029,390.831 204.167 C 391.017 204.549,400.000 204.630,400.000 204.250 C 400.000 204.109,399.673 203.452,399.272 202.789 C 398.872 202.126,398.135 200.796,397.634 199.833 C 397.134 198.871,396.535 197.783,396.304 197.417 C 396.073 197.050,395.452 195.925,394.924 194.917 C 394.396 193.908,393.869 192.971,393.752 192.833 C 393.636 192.696,393.199 191.897,392.782 191.058 C 392.365 190.219,391.680 188.968,391.262 188.278 C 390.843 187.588,390.500 186.916,390.500 186.785 C 390.500 186.654,390.317 186.409,390.093 186.241 C 389.870 186.073,389.724 185.875,389.770 185.801 C 389.816 185.727,389.774 185.667,389.677 185.667 C 389.579 185.667,389.517 185.610,389.537 185.542 C 389.558 185.473,389.262 184.886,388.880 184.238 C 388.499 183.589,388.163 182.952,388.135 182.821 C 388.106 182.690,388.015 182.534,387.932 182.474 C 387.848 182.413,387.770 182.226,387.757 182.057 C 387.744 181.888,387.368 181.112,386.921 180.333 C 386.474 179.554,385.851 178.392,385.536 177.751 C 385.222 177.110,384.833 176.397,384.672 176.168 C 384.510 175.938,383.909 174.850,383.336 173.750 C 382.762 172.650,382.197 171.637,382.081 171.500 C 381.964 171.362,381.555 170.612,381.173 169.833 C 380.790 169.054,380.016 167.648,379.451 166.708 L 378.425 165.000 374.726 165.000 C 372.692 165.000,370.916 164.957,370.781 164.905 C 370.645 164.853,370.395 164.961,370.225 165.145 M264.185 165.341 C 261.545 165.869,259.818 166.857,258.661 168.500 C 258.435 168.821,258.207 169.121,258.154 169.167 C 257.034 170.135,256.667 173.961,256.667 184.665 C 256.667 197.810,256.979 199.636,259.641 202.029 C 262.222 204.350,262.483 204.384,278.167 204.459 C 294.160 204.535,295.716 204.407,297.944 202.826 C 298.326 202.555,298.705 202.333,298.788 202.333 C 299.441 202.333,300.919 199.789,301.520 197.632 C 302.453 194.277,302.451 175.226,301.518 171.856 C 300.873 169.532,299.193 166.833,298.390 166.833 C 298.275 166.833,297.920 166.656,297.600 166.439 C 296.861 165.937,295.695 165.557,293.956 165.249 C 291.628 164.837,266.312 164.916,264.185 165.341 M291.909 173.313 C 294.031 174.026,294.083 174.302,294.083 184.833 C 294.083 195.394,294.059 195.513,291.784 196.204 C 290.572 196.572,267.616 196.507,266.792 196.134 C 264.489 195.090,264.500 195.143,264.502 184.711 C 264.504 174.095,264.501 174.110,267.250 173.231 C 268.231 172.917,290.957 172.993,291.909 173.313 " stroke="none" fill="#2c2c2c" fill-rule="evenodd"></path><path id="path1" d="M66.167 122.781 C 65.479 123.205,64.467 123.774,63.917 124.046 C 63.367 124.317,62.692 124.704,62.417 124.905 C 62.142 125.106,61.055 125.748,60.002 126.331 C 58.949 126.914,57.644 127.678,57.101 128.029 C 56.559 128.380,56.029 128.667,55.925 128.667 C 55.752 128.667,54.806 129.236,52.627 130.653 C 52.192 130.936,51.735 131.167,51.610 131.167 C 51.485 131.167,51.091 131.376,50.733 131.633 C 50.033 132.136,48.025 133.294,47.311 133.608 C 47.069 133.714,46.356 134.138,45.727 134.549 C 45.098 134.960,44.171 135.516,43.667 135.785 C 42.015 136.665,40.752 137.397,40.661 137.527 C 40.612 137.597,40.199 137.816,39.744 138.014 C 39.289 138.212,38.692 138.538,38.417 138.740 C 38.142 138.941,37.467 139.359,36.917 139.667 C 36.367 139.976,35.879 140.279,35.833 140.340 C 35.787 140.402,35.396 140.608,34.964 140.798 C 34.532 140.988,33.857 141.364,33.464 141.634 C 33.071 141.904,32.075 142.482,31.250 142.919 C 30.425 143.356,29.180 144.078,28.483 144.524 C 27.787 144.969,27.169 145.333,27.111 145.333 C 27.053 145.333,26.516 145.633,25.917 146.000 C 25.318 146.367,24.789 146.667,24.743 146.667 C 24.697 146.667,24.277 146.929,23.811 147.250 C 23.344 147.571,22.891 147.833,22.803 147.833 C 22.716 147.833,21.787 148.358,20.738 149.000 C 19.690 149.642,18.769 150.167,18.692 150.167 C 18.614 150.167,17.921 150.562,17.150 151.046 C 16.380 151.529,15.106 152.273,14.318 152.699 C 13.530 153.125,12.412 153.779,11.834 154.153 C 11.255 154.527,10.704 154.833,10.608 154.833 C 10.513 154.833,10.168 155.008,9.842 155.221 C 8.723 155.953,7.415 156.728,6.333 157.299 C 5.737 157.613,4.612 158.262,3.833 158.739 C 3.054 159.217,2.286 159.656,2.125 159.715 C 1.965 159.774,1.421 160.087,0.917 160.409 L -0.000 160.996 0.003 199.873 C 0.004 221.255,0.060 238.830,0.128 238.927 C 0.274 239.139,1.911 240.126,3.121 240.732 C 3.600 240.972,4.566 241.543,5.268 242.001 C 5.969 242.459,6.623 242.833,6.721 242.833 C 6.819 242.833,7.165 243.008,7.491 243.221 C 8.660 243.986,9.933 244.740,10.833 245.203 C 11.338 245.462,12.313 246.021,13.000 246.445 C 13.688 246.869,14.813 247.513,15.500 247.876 C 16.188 248.238,16.862 248.629,17.000 248.745 C 17.137 248.860,18.112 249.429,19.167 250.009 C 20.221 250.588,21.312 251.233,21.592 251.442 C 21.872 251.651,22.509 252.012,23.009 252.244 C 23.508 252.476,24.704 253.152,25.667 253.747 C 26.629 254.341,27.479 254.829,27.555 254.830 C 27.631 254.832,28.081 255.085,28.555 255.392 C 29.603 256.071,31.102 256.939,32.333 257.580 C 32.837 257.843,33.475 258.222,33.750 258.422 C 34.025 258.623,34.775 259.070,35.417 259.415 C 37.146 260.346,38.073 260.886,38.167 261.017 C 38.212 261.082,38.754 261.375,39.370 261.669 C 39.986 261.963,40.577 262.308,40.682 262.435 C 40.788 262.563,40.941 262.667,41.023 262.667 C 41.105 262.667,41.777 263.042,42.516 263.500 C 43.255 263.958,43.933 264.333,44.022 264.333 C 44.111 264.333,44.687 264.661,45.301 265.061 C 45.914 265.461,47.092 266.148,47.917 266.587 C 48.742 267.026,49.646 267.554,49.926 267.760 C 50.206 267.966,50.994 268.428,51.676 268.787 C 52.358 269.145,53.479 269.793,54.167 270.225 C 54.854 270.658,55.867 271.234,56.417 271.506 C 56.967 271.778,58.083 272.413,58.897 272.917 C 59.711 273.421,60.435 273.833,60.505 273.833 C 60.575 273.833,61.004 274.083,61.456 274.387 C 62.233 274.910,63.082 275.398,65.417 276.666 C 65.967 276.965,66.529 277.301,66.667 277.413 C 67.338 277.958,67.629 277.888,69.334 276.765 C 69.833 276.436,70.339 276.167,70.457 276.167 C 70.639 276.167,71.945 275.380,73.500 274.333 C 73.729 274.178,74.270 273.896,74.703 273.705 C 75.135 273.513,75.810 273.136,76.203 272.867 C 76.595 272.597,77.479 272.076,78.167 271.709 C 78.854 271.342,79.792 270.811,80.250 270.528 C 80.708 270.246,81.571 269.738,82.167 269.399 C 82.762 269.061,83.813 268.443,84.500 268.026 C 85.188 267.610,86.237 267.020,86.833 266.716 C 87.429 266.412,88.584 265.752,89.400 265.248 C 90.215 264.745,90.930 264.333,90.988 264.333 C 91.046 264.333,92.012 263.771,93.134 263.083 C 94.256 262.396,95.236 261.833,95.312 261.833 C 95.387 261.833,96.117 261.413,96.933 260.900 C 97.749 260.386,98.949 259.678,99.600 259.326 C 100.251 258.974,101.151 258.458,101.600 258.180 C 102.049 257.902,102.886 257.442,103.459 257.158 C 104.032 256.874,104.595 256.547,104.711 256.432 C 104.918 256.224,105.523 255.871,107.667 254.703 C 108.263 254.379,109.050 253.910,109.417 253.662 C 109.783 253.414,110.758 252.851,111.583 252.412 C 112.408 251.972,113.571 251.295,114.167 250.907 C 114.763 250.519,115.515 250.092,115.838 249.958 C 116.162 249.824,117.125 249.282,117.978 248.754 C 118.832 248.226,119.918 247.593,120.390 247.347 C 120.863 247.101,121.863 246.516,122.612 246.048 C 123.362 245.580,124.123 245.150,124.304 245.093 C 124.485 245.035,125.091 244.692,125.650 244.331 C 126.209 243.970,127.239 243.365,127.940 242.988 C 128.640 242.610,129.672 242.007,130.232 241.649 C 130.792 241.290,131.549 240.852,131.915 240.674 C 132.281 240.496,133.123 240.028,133.786 239.634 L 134.990 238.917 134.995 199.960 L 135.000 161.004 134.369 160.606 C 134.022 160.387,133.253 159.965,132.661 159.669 C 132.068 159.372,131.358 158.961,131.082 158.754 C 130.806 158.547,129.981 158.055,129.248 157.660 C 128.516 157.265,127.429 156.642,126.833 156.274 C 126.237 155.906,125.330 155.376,124.817 155.094 C 122.726 153.949,121.566 153.266,121.250 152.994 C 121.067 152.837,120.640 152.619,120.302 152.511 C 119.964 152.403,119.514 152.179,119.302 152.015 C 118.827 151.645,116.509 150.253,116.166 150.131 C 116.028 150.082,115.103 149.545,114.111 148.937 C 113.119 148.330,112.226 147.833,112.125 147.833 C 112.025 147.833,111.825 147.734,111.680 147.612 C 111.328 147.316,108.055 145.333,107.919 145.333 C 107.766 145.333,104.995 143.686,104.519 143.312 C 104.301 143.140,104.015 143.000,103.885 143.000 C 103.755 143.000,103.147 142.672,102.533 142.272 C 101.919 141.871,100.827 141.229,100.107 140.845 C 99.386 140.462,98.486 139.947,98.107 139.703 C 97.239 139.144,96.967 138.985,95.833 138.371 C 94.339 137.562,92.833 136.689,92.359 136.356 C 92.116 136.185,91.579 135.885,91.167 135.688 C 90.754 135.491,89.892 134.994,89.250 134.583 C 88.608 134.171,87.754 133.683,87.351 133.496 C 86.948 133.310,86.273 132.924,85.851 132.638 C 85.429 132.352,84.541 131.831,83.878 131.481 C 82.610 130.812,82.295 130.626,80.873 129.711 C 80.391 129.400,79.678 128.997,79.290 128.815 C 78.901 128.633,78.058 128.151,77.417 127.744 C 76.775 127.336,75.837 126.801,75.333 126.554 C 74.829 126.307,73.927 125.788,73.328 125.401 C 72.729 125.014,71.604 124.361,70.828 123.951 C 70.052 123.541,69.015 122.934,68.525 122.602 C 67.441 121.870,67.669 121.853,66.167 122.781 M69.259 127.602 C 69.539 127.816,70.139 128.153,70.593 128.352 C 71.046 128.551,71.454 128.763,71.500 128.823 C 71.546 128.883,71.958 129.145,72.417 129.405 C 72.875 129.664,73.638 130.130,74.112 130.438 C 74.585 130.747,75.048 131.000,75.140 131.000 C 75.384 131.000,76.331 131.562,76.332 131.708 C 76.333 131.777,76.407 131.833,76.497 131.833 C 76.587 131.833,77.131 132.118,77.705 132.466 C 78.280 132.815,79.162 133.312,79.667 133.572 C 80.171 133.832,80.883 134.249,81.250 134.499 C 81.617 134.748,82.517 135.274,83.250 135.667 C 83.983 136.060,85.090 136.711,85.709 137.113 C 86.328 137.516,87.153 137.990,87.542 138.167 C 87.932 138.343,88.850 138.863,89.583 139.322 C 90.317 139.781,91.309 140.341,91.790 140.568 C 92.270 140.794,92.907 141.163,93.206 141.386 C 93.505 141.610,94.612 142.260,95.667 142.829 C 96.721 143.399,97.696 143.962,97.833 144.079 C 97.971 144.197,98.571 144.555,99.167 144.876 C 99.763 145.196,100.813 145.806,101.500 146.231 C 102.188 146.656,103.162 147.201,103.667 147.442 C 104.171 147.683,104.696 147.976,104.833 148.093 C 105.190 148.397,107.075 149.475,108.250 150.047 C 108.800 150.314,109.400 150.662,109.583 150.820 C 109.982 151.163,111.969 152.333,112.153 152.333 C 112.224 152.333,112.936 152.743,113.734 153.245 C 114.532 153.746,115.500 154.318,115.885 154.516 C 117.077 155.129,118.112 155.736,119.445 156.605 C 119.919 156.914,120.419 157.167,120.557 157.167 C 120.695 157.167,121.031 157.354,121.303 157.583 C 121.575 157.813,121.842 158.000,121.896 158.000 C 121.950 158.000,122.464 158.285,123.039 158.633 C 123.613 158.981,124.471 159.466,124.944 159.711 C 125.418 159.955,126.330 160.494,126.971 160.909 C 127.612 161.324,128.328 161.736,128.562 161.825 C 128.796 161.914,129.478 162.297,130.077 162.675 L 131.167 163.363 131.163 199.973 L 131.160 236.583 130.045 237.235 C 129.432 237.594,128.553 238.087,128.090 238.331 C 126.896 238.962,126.474 239.215,126.143 239.500 C 125.984 239.637,125.155 240.116,124.301 240.564 C 123.448 241.012,122.375 241.618,121.917 241.910 C 120.416 242.868,120.181 243.000,119.980 243.000 C 119.871 243.000,119.536 243.187,119.235 243.417 C 118.935 243.646,118.641 243.833,118.582 243.833 C 118.523 243.833,117.953 244.171,117.316 244.583 C 116.678 244.996,116.065 245.339,115.953 245.346 C 115.841 245.354,115.412 245.575,115.000 245.839 C 113.868 246.562,112.259 247.508,110.936 248.229 C 110.284 248.584,109.712 248.930,109.667 248.999 C 109.621 249.068,108.908 249.487,108.083 249.931 C 107.258 250.374,106.003 251.093,105.293 251.527 C 104.584 251.961,103.684 252.471,103.293 252.660 C 102.903 252.848,102.058 253.336,101.417 253.744 C 100.775 254.151,99.791 254.712,99.230 254.990 C 98.669 255.269,97.769 255.788,97.230 256.145 C 96.691 256.503,95.837 257.013,95.333 257.280 C 94.829 257.547,93.704 258.187,92.833 258.702 C 88.744 261.119,88.033 261.527,87.333 261.861 C 86.921 262.058,86.236 262.451,85.810 262.734 C 85.385 263.018,84.673 263.456,84.227 263.708 C 83.781 263.959,83.304 264.230,83.167 264.309 C 83.029 264.388,82.654 264.586,82.333 264.749 C 82.012 264.913,81.375 265.290,80.917 265.588 C 80.458 265.886,79.483 266.448,78.750 266.838 C 78.017 267.228,77.079 267.774,76.667 268.051 C 76.254 268.329,75.467 268.794,74.917 269.084 C 73.367 269.903,71.849 270.797,71.380 271.165 C 71.146 271.349,70.847 271.500,70.714 271.500 C 70.582 271.500,70.085 271.753,69.612 272.063 C 69.138 272.372,68.442 272.799,68.066 273.011 L 67.382 273.396 66.233 272.639 C 65.601 272.222,64.783 271.736,64.417 271.558 C 64.050 271.379,63.204 270.900,62.537 270.492 C 61.870 270.084,60.970 269.562,60.537 269.332 C 60.104 269.102,59.128 268.540,58.367 268.082 C 57.606 267.624,56.501 266.987,55.910 266.667 C 54.792 266.060,52.949 264.994,50.614 263.605 C 49.864 263.158,48.762 262.527,48.167 262.202 C 47.571 261.877,46.558 261.283,45.917 260.882 C 45.275 260.481,44.375 259.969,43.917 259.744 C 43.458 259.519,42.408 258.915,41.583 258.402 C 40.758 257.889,39.907 257.400,39.691 257.316 C 39.476 257.231,38.913 256.908,38.441 256.597 C 37.969 256.286,36.799 255.605,35.841 255.084 C 34.883 254.563,33.775 253.913,33.378 253.640 C 32.981 253.367,32.265 252.960,31.786 252.737 C 31.308 252.513,30.392 251.993,29.750 251.580 C 29.108 251.167,28.133 250.612,27.583 250.347 C 27.033 250.083,26.396 249.722,26.167 249.546 C 25.733 249.214,24.843 248.695,23.000 247.702 C 22.404 247.381,21.617 246.916,21.250 246.668 C 20.883 246.420,19.721 245.744,18.667 245.166 C 17.612 244.588,16.712 244.064,16.667 244.003 C 16.621 243.941,16.171 243.678,15.667 243.418 C 15.162 243.159,14.637 242.887,14.500 242.815 C 13.911 242.506,11.910 241.268,11.833 241.166 C 11.787 241.105,11.338 240.865,10.833 240.634 C 10.329 240.402,9.533 239.959,9.064 239.648 C 8.059 238.982,7.441 238.625,6.071 237.918 C 5.515 237.630,4.783 237.185,4.446 236.928 L 3.833 236.460 3.833 199.919 L 3.833 163.378 4.984 162.606 C 5.617 162.181,6.228 161.833,6.342 161.833 C 6.456 161.833,6.932 161.584,7.399 161.280 C 8.926 160.286,9.403 160.008,10.333 159.570 C 10.838 159.332,11.475 158.971,11.750 158.767 C 12.250 158.395,13.475 157.677,14.417 157.202 C 14.692 157.064,15.590 156.538,16.412 156.035 C 17.234 155.531,18.134 155.013,18.412 154.883 C 18.690 154.753,19.068 154.557,19.252 154.448 C 20.182 153.899,20.999 153.395,21.778 152.891 C 22.252 152.584,22.696 152.333,22.764 152.333 C 22.914 152.333,26.049 150.484,26.167 150.326 C 26.212 150.264,26.620 150.051,27.073 149.853 C 27.525 149.654,28.275 149.242,28.739 148.938 C 29.203 148.634,30.108 148.100,30.750 147.751 C 32.031 147.055,32.343 146.870,33.599 146.062 C 34.067 145.762,34.667 145.422,34.933 145.306 C 35.411 145.098,36.888 144.226,38.320 143.307 C 38.726 143.046,39.168 142.833,39.305 142.833 C 39.441 142.833,39.784 142.658,40.068 142.444 C 40.612 142.034,42.437 140.960,43.469 140.442 C 43.807 140.273,44.646 139.779,45.333 139.345 C 46.021 138.911,47.296 138.163,48.167 137.683 C 49.038 137.204,50.087 136.599,50.500 136.340 C 51.236 135.877,54.091 134.239,55.302 133.584 C 55.640 133.401,56.663 132.810,57.575 132.270 C 58.487 131.730,59.612 131.089,60.075 130.845 C 61.117 130.297,61.724 129.945,61.833 129.826 C 61.946 129.703,62.986 129.102,64.500 128.283 C 65.188 127.911,66.112 127.359,66.555 127.057 L 67.360 126.507 68.055 126.861 C 68.437 127.056,68.979 127.389,69.259 127.602 M93.163 151.458 C 93.161 151.527,93.154 163.246,93.149 177.500 C 93.143 191.754,93.102 203.679,93.056 204.000 L 92.973 204.584 67.028 178.626 C 38.392 149.975,40.574 152.072,39.706 152.370 C 39.169 152.554,38.582 152.887,36.000 154.475 C 35.771 154.616,35.208 154.929,34.750 155.172 C 33.489 155.840,30.211 157.734,29.083 158.447 C 28.533 158.794,27.708 159.275,27.250 159.515 C 25.970 160.187,25.147 160.661,24.417 161.149 C 24.050 161.393,23.450 161.733,23.083 161.903 C 22.426 162.207,21.268 162.897,19.634 163.958 C 19.175 164.256,18.712 164.500,18.604 164.500 C 18.497 164.500,18.036 164.745,17.580 165.045 C 17.123 165.345,15.756 166.146,14.542 166.824 L 12.333 168.056 12.333 199.929 L 12.333 231.802 13.125 232.274 C 13.560 232.533,14.067 232.835,14.250 232.944 C 14.433 233.053,14.917 233.299,15.324 233.492 C 15.732 233.685,16.294 234.015,16.574 234.225 C 16.854 234.434,17.758 234.971,18.583 235.418 C 19.408 235.864,20.233 236.312,20.417 236.413 C 20.600 236.513,21.183 236.877,21.712 237.222 C 22.241 237.567,22.991 237.993,23.379 238.169 C 23.766 238.346,24.608 238.831,25.250 239.248 C 25.892 239.665,26.867 240.232,27.417 240.508 C 27.967 240.783,28.942 241.343,29.583 241.751 C 30.225 242.158,31.059 242.640,31.437 242.820 C 31.815 243.001,32.861 243.602,33.762 244.157 C 34.664 244.713,35.455 245.167,35.522 245.167 C 35.652 245.167,37.883 246.515,38.933 247.228 C 39.287 247.469,39.676 247.667,39.798 247.667 C 39.919 247.667,40.294 247.854,40.631 248.083 C 41.960 248.987,41.833 251.752,41.833 221.834 L 41.833 195.167 68.078 221.417 C 90.124 243.467,94.395 247.667,94.776 247.667 C 95.215 247.667,96.446 247.008,98.338 245.762 C 98.835 245.435,99.330 245.167,99.438 245.167 C 99.545 245.167,100.011 244.923,100.472 244.625 C 102.294 243.448,103.334 242.833,103.503 242.833 C 103.601 242.833,104.120 242.552,104.657 242.208 C 106.428 241.073,107.245 240.589,107.676 240.419 C 107.911 240.326,108.856 239.781,109.777 239.208 C 110.698 238.635,111.497 238.167,111.553 238.167 C 111.608 238.167,112.350 237.741,113.202 237.221 C 114.053 236.701,115.178 236.045,115.701 235.763 C 117.401 234.846,118.915 233.965,119.000 233.844 C 119.046 233.779,119.533 233.501,120.083 233.227 C 120.633 232.954,121.402 232.527,121.792 232.279 L 122.500 231.829 122.500 199.932 L 122.500 168.035 121.708 167.528 C 121.273 167.249,120.716 166.945,120.470 166.853 C 120.225 166.760,119.437 166.316,118.718 165.866 C 118.000 165.416,116.738 164.687,115.915 164.248 C 115.091 163.808,114.379 163.400,114.333 163.340 C 114.213 163.185,113.279 162.638,111.762 161.835 C 110.314 161.069,109.631 160.657,109.494 160.468 C 109.444 160.400,108.919 160.114,108.327 159.832 C 107.735 159.550,106.725 158.988,106.083 158.583 C 105.442 158.178,104.402 157.579,103.773 157.252 C 103.145 156.925,102.320 156.445,101.940 156.184 C 101.561 155.924,100.575 155.348,99.750 154.904 C 98.925 154.461,97.763 153.773,97.167 153.375 C 96.571 152.978,95.896 152.606,95.667 152.550 C 95.438 152.494,95.212 152.400,95.167 152.341 C 94.838 151.917,93.171 151.183,93.163 151.458 M387.675 181.917 C 387.670 182.164,387.968 182.588,388.073 182.483 C 388.122 182.433,388.054 182.248,387.920 182.071 C 387.787 181.895,387.676 181.825,387.675 181.917 M388.774 184.079 C 389.006 184.494,389.228 184.833,389.268 184.833 C 389.385 184.833,388.687 183.532,388.512 183.424 C 388.424 183.370,388.542 183.665,388.774 184.079 M175.083 213.914 C 172.565 214.499,170.355 216.124,169.565 217.973 C 168.099 221.401,167.789 226.432,168.907 228.660 C 169.023 228.893,169.169 229.346,169.229 229.667 C 169.350 230.306,170.021 231.338,171.071 232.500 C 173.408 235.087,178.602 235.709,180.795 233.666 C 180.992 233.483,181.220 233.333,181.301 233.333 C 182.165 233.333,184.331 229.624,184.854 227.250 C 186.568 219.464,181.424 212.442,175.083 213.914 M215.833 213.911 C 214.788 214.116,214.040 214.347,213.171 214.733 C 210.049 216.123,207.908 223.207,209.236 227.750 C 209.397 228.300,209.586 228.975,209.655 229.250 C 210.823 233.871,217.926 236.591,221.335 233.723 C 221.590 233.509,221.870 233.333,221.958 233.333 C 222.205 233.333,223.833 231.551,223.833 231.280 C 223.833 231.149,223.936 230.955,224.062 230.851 C 224.188 230.746,224.521 230.043,224.802 229.289 C 226.994 223.402,224.871 215.949,220.569 214.427 C 218.400 213.660,217.574 213.570,215.833 213.911 M268.419 213.847 C 264.977 214.412,262.802 216.297,261.735 219.640 C 260.020 225.009,261.565 231.495,265.044 233.526 C 268.615 235.611,271.955 235.331,275.016 232.689 C 275.744 232.061,275.804 231.843,275.362 231.442 C 274.893 231.018,274.535 231.107,273.692 231.857 C 267.981 236.937,260.814 229.728,263.013 221.114 C 264.294 216.098,268.919 213.654,272.599 216.047 C 274.229 217.108,275.000 217.175,275.000 216.257 C 275.000 215.958,273.561 214.662,273.047 214.499 C 272.792 214.418,272.250 214.231,271.842 214.082 C 270.949 213.757,269.551 213.661,268.419 213.847 M287.277 213.914 C 286.264 214.135,286.076 214.204,284.832 214.806 C 281.220 216.556,279.617 222.645,281.137 228.839 C 282.445 234.165,288.607 236.486,293.361 233.445 C 298.333 230.265,298.714 219.308,293.984 215.507 C 292.138 214.024,289.568 213.413,287.277 213.914 M145.080 214.367 C 145.034 214.486,145.016 219.046,145.040 224.500 L 145.083 234.417 145.725 234.417 L 146.366 234.417 146.348 225.375 C 146.337 220.402,146.360 216.333,146.398 216.333 C 146.435 216.333,146.674 216.915,146.928 217.625 C 147.182 218.335,147.443 218.992,147.509 219.083 C 147.575 219.175,147.680 219.512,147.744 219.833 C 147.807 220.154,148.369 221.767,148.991 223.417 C 149.613 225.067,150.238 226.792,150.380 227.250 C 150.646 228.111,151.162 229.512,151.853 231.250 C 152.226 232.190,152.286 232.253,152.848 232.300 C 153.673 232.369,153.696 232.326,155.299 227.583 C 155.577 226.758,156.111 225.296,156.483 224.333 C 156.856 223.371,157.163 222.484,157.164 222.362 C 157.166 222.240,157.347 221.677,157.567 221.112 C 157.980 220.051,158.801 217.878,159.193 216.808 C 159.384 216.289,159.408 217.555,159.360 225.349 L 159.304 234.500 160.069 234.500 L 160.833 234.500 160.833 224.333 L 160.833 214.167 159.756 214.167 C 158.503 214.167,158.623 214.027,157.838 216.417 C 157.112 218.629,156.693 219.809,155.680 222.500 C 155.214 223.738,154.833 224.860,154.833 224.992 C 154.833 225.125,154.563 225.950,154.232 226.825 C 153.672 228.310,153.492 228.768,153.050 229.833 L 152.878 230.250 152.606 229.605 C 152.456 229.250,152.333 228.875,152.333 228.771 C 152.332 228.572,152.010 227.660,150.798 224.417 C 150.387 223.317,149.843 221.779,149.589 221.000 C 149.335 220.221,149.027 219.358,148.906 219.083 C 148.582 218.352,148.003 216.718,147.458 215.000 L 147.220 214.250 146.191 214.200 C 145.464 214.165,145.138 214.214,145.080 214.367 M189.732 214.403 C 189.682 214.535,189.665 214.817,189.695 215.030 L 189.750 215.417 192.958 215.462 L 196.167 215.507 196.167 225.004 L 196.167 234.500 196.917 234.500 L 197.667 234.500 197.667 225.004 L 197.667 215.507 200.958 215.462 L 204.250 215.417 204.250 214.833 L 204.250 214.250 197.037 214.207 C 190.890 214.170,189.811 214.199,189.732 214.403 M233.167 224.343 L 233.167 234.519 233.875 234.468 L 234.583 234.417 234.667 229.833 L 234.750 225.250 236.735 225.250 L 238.720 225.250 239.344 226.167 C 239.687 226.671,240.286 227.683,240.676 228.417 C 241.066 229.150,241.679 230.184,242.037 230.715 C 242.395 231.246,242.779 231.884,242.890 232.132 C 243.001 232.380,243.340 233.015,243.645 233.542 L 244.198 234.500 245.016 234.500 C 245.810 234.500,246.193 234.075,245.683 233.760 C 245.600 233.709,245.256 233.124,244.919 232.460 C 244.582 231.796,244.252 231.215,244.187 231.168 C 244.065 231.081,243.562 230.260,242.909 229.083 C 241.898 227.262,241.562 226.698,241.133 226.100 C 240.493 225.208,240.535 225.082,241.552 224.855 C 242.039 224.746,242.710 224.472,243.043 224.245 C 243.376 224.019,243.703 223.833,243.768 223.833 C 244.910 223.833,245.933 220.211,245.429 217.950 C 244.748 214.886,243.102 214.167,236.782 214.167 L 233.167 214.167 233.167 224.343 M304.743 214.375 C 304.699 214.490,304.683 219.046,304.707 224.500 L 304.750 234.417 305.417 234.417 L 306.083 234.417 306.083 225.326 C 306.083 219.097,306.136 216.342,306.251 216.576 C 306.344 216.763,306.561 217.329,306.735 217.833 C 306.908 218.338,307.103 218.825,307.168 218.917 C 307.234 219.008,307.328 219.346,307.378 219.667 C 307.427 219.987,307.879 221.300,308.382 222.583 C 308.885 223.867,309.491 225.538,309.730 226.298 C 309.969 227.058,310.315 228.010,310.499 228.414 C 310.683 228.818,310.833 229.212,310.833 229.290 C 310.833 230.258,312.032 232.254,312.641 232.300 L 313.298 232.351 313.815 230.994 C 314.100 230.249,314.333 229.527,314.333 229.392 C 314.333 229.256,314.489 228.756,314.680 228.281 C 314.871 227.806,315.238 226.892,315.496 226.250 C 316.277 224.310,316.492 223.694,316.672 222.892 C 316.767 222.470,316.984 221.815,317.154 221.437 C 317.325 221.059,317.579 220.412,317.719 220.000 C 317.860 219.588,318.105 218.950,318.265 218.583 C 318.425 218.217,318.689 217.467,318.852 216.917 C 319.145 215.930,319.148 216.037,319.147 225.167 L 319.145 234.417 319.864 234.417 L 320.583 234.417 320.583 224.333 L 320.583 214.250 319.568 214.201 C 318.885 214.168,318.498 214.223,318.384 214.368 C 318.187 214.619,316.910 218.052,316.784 218.667 C 316.702 219.072,316.534 219.527,315.249 222.833 C 314.911 223.704,314.572 224.717,314.496 225.083 C 314.420 225.450,313.963 226.786,313.481 228.052 L 312.604 230.353 312.373 229.718 C 312.246 229.369,312.072 228.953,311.988 228.794 C 311.903 228.635,311.833 228.368,311.833 228.201 C 311.833 228.033,311.641 227.414,311.406 226.823 C 310.695 225.037,309.500 221.720,309.500 221.531 C 309.500 221.433,309.083 220.280,308.573 218.968 C 308.063 217.657,307.531 216.208,307.390 215.750 C 306.881 214.094,306.952 214.167,305.832 214.167 C 305.178 214.167,304.795 214.240,304.743 214.375 M329.243 214.375 C 329.199 214.490,329.183 219.046,329.207 224.500 L 329.250 234.417 330.042 234.467 L 330.833 234.518 330.855 230.801 C 330.867 228.756,330.876 226.810,330.874 226.475 L 330.872 225.867 334.144 225.791 C 338.026 225.701,339.060 225.411,340.514 224.002 C 343.048 221.547,342.561 216.413,339.652 214.909 C 338.352 214.237,329.470 213.781,329.243 214.375 M352.031 214.450 C 351.792 214.909,350.377 218.830,350.179 219.583 C 350.082 219.950,349.586 221.338,349.077 222.667 C 348.568 223.996,348.002 225.608,347.819 226.250 C 347.636 226.892,347.239 228.054,346.937 228.833 C 344.818 234.284,344.777 234.500,345.849 234.500 C 346.590 234.500,346.805 234.169,347.424 232.065 C 347.583 231.525,347.974 230.333,348.294 229.417 C 348.614 228.500,349.131 227.000,349.444 226.083 C 350.122 224.097,350.439 223.177,351.517 220.056 C 351.966 218.757,352.333 217.562,352.333 217.401 C 352.333 217.021,352.702 216.000,352.839 216.000 C 352.897 216.000,353.141 216.619,353.381 217.375 C 353.621 218.131,354.018 219.313,354.264 220.000 C 354.510 220.688,354.807 221.625,354.923 222.083 C 355.160 223.022,356.910 227.927,357.167 228.373 C 357.258 228.532,357.333 228.807,357.333 228.984 C 357.333 229.312,358.004 231.337,358.787 233.375 L 359.219 234.500 359.933 234.500 C 360.783 234.500,360.926 234.334,360.613 233.713 C 360.484 233.458,360.171 232.612,359.918 231.833 C 359.666 231.054,359.348 230.079,359.214 229.667 C 358.966 228.910,358.603 227.915,357.905 226.083 C 357.696 225.533,357.328 224.451,357.089 223.679 C 356.850 222.906,356.551 222.044,356.425 221.762 C 356.136 221.116,355.379 219.010,355.044 217.917 C 354.903 217.458,354.552 216.446,354.265 215.667 L 353.741 214.250 352.964 214.200 C 352.352 214.160,352.155 214.213,352.031 214.450 M366.833 224.334 L 366.833 234.519 367.542 234.468 L 368.250 234.417 368.237 225.542 C 368.230 220.660,368.248 216.667,368.277 216.667 C 368.382 216.667,369.167 217.998,369.167 218.176 C 369.167 218.396,371.135 221.627,371.350 221.760 C 371.432 221.811,371.500 221.964,371.500 222.100 C 371.500 222.236,372.010 223.151,372.633 224.132 C 373.256 225.114,374.048 226.424,374.393 227.045 C 374.738 227.665,375.315 228.618,375.677 229.162 C 376.038 229.706,376.333 230.262,376.333 230.399 C 376.333 230.535,376.407 230.693,376.497 230.748 C 376.588 230.804,376.975 231.390,377.358 232.050 C 377.741 232.710,378.107 233.287,378.171 233.333 C 378.235 233.379,378.412 233.660,378.564 233.958 C 378.821 234.460,378.904 234.500,379.671 234.500 L 380.500 234.500 380.500 224.324 L 380.500 214.148 379.708 214.199 L 378.917 214.250 378.870 220.083 C 378.845 223.292,378.891 227.304,378.973 229.000 C 379.055 230.696,379.103 232.106,379.080 232.134 C 379.057 232.161,378.643 231.449,378.160 230.550 C 377.677 229.652,377.114 228.692,376.909 228.417 C 376.705 228.142,376.342 227.542,376.103 227.083 C 375.865 226.625,375.330 225.725,374.916 225.083 C 374.501 224.442,374.019 223.606,373.845 223.227 C 373.670 222.847,373.232 222.097,372.870 221.560 C 372.509 221.023,371.989 220.171,371.714 219.667 C 370.971 218.300,370.161 216.949,369.917 216.667 C 369.798 216.529,369.439 215.929,369.119 215.333 L 368.538 214.250 367.685 214.200 L 366.833 214.149 366.833 224.334 M386.333 214.341 C 386.333 214.447,386.746 215.309,387.250 216.257 C 387.754 217.206,388.167 218.050,388.167 218.133 C 388.167 218.215,388.553 218.988,389.025 219.850 C 389.496 220.712,390.051 221.754,390.257 222.167 C 390.463 222.579,390.996 223.629,391.441 224.500 L 392.250 226.083 392.333 230.250 L 392.417 234.417 393.125 234.468 L 393.833 234.519 393.846 233.801 C 393.853 233.406,393.847 231.603,393.834 229.795 L 393.811 226.506 394.312 225.545 C 394.587 225.016,395.157 223.871,395.578 223.000 C 395.999 222.129,396.565 221.004,396.836 220.500 C 397.106 219.996,397.581 219.058,397.891 218.417 C 398.200 217.775,398.801 216.606,399.226 215.819 C 400.083 214.231,400.077 214.167,399.076 214.167 C 398.287 214.167,398.135 214.299,397.829 215.250 C 397.712 215.617,397.458 216.179,397.265 216.500 C 397.072 216.821,396.552 217.833,396.110 218.750 C 393.500 224.159,393.076 224.888,392.863 224.328 C 392.704 223.913,392.142 222.756,391.206 220.917 C 390.927 220.367,390.487 219.429,390.229 218.833 C 389.972 218.237,389.609 217.488,389.422 217.169 C 389.236 216.849,388.843 216.062,388.549 215.419 L 388.015 214.250 387.174 214.200 C 386.622 214.167,386.333 214.215,386.333 214.341 M178.800 215.594 C 182.304 217.058,184.104 221.447,183.273 226.500 C 181.750 235.761,171.580 235.736,170.055 226.468 C 169.604 223.725,170.121 220.135,171.183 218.644 C 171.357 218.399,171.500 218.126,171.500 218.038 C 171.500 216.269,176.449 214.611,178.800 215.594 M218.511 215.335 C 223.301 216.244,225.661 223.778,222.930 229.445 C 222.525 230.286,222.038 231.057,221.847 231.159 C 221.656 231.262,221.500 231.436,221.500 231.548 C 221.499 231.760,220.330 232.596,219.333 233.097 C 217.287 234.125,213.208 232.702,212.124 230.583 C 208.147 222.806,211.809 214.064,218.511 215.335 M291.352 215.754 C 294.616 217.389,296.029 220.860,295.506 225.954 C 294.950 231.362,291.073 234.559,286.841 233.098 C 285.813 232.743,283.464 230.587,283.284 229.833 C 283.229 229.604,282.978 228.854,282.728 228.167 C 282.130 226.528,282.039 222.441,282.563 220.750 C 283.189 218.725,284.380 216.667,284.924 216.667 C 285.035 216.667,285.224 216.549,285.343 216.404 C 286.359 215.181,289.524 214.839,291.352 215.754 M241.257 215.836 C 243.304 216.540,243.907 217.374,243.909 219.500 C 243.912 222.720,242.347 223.792,237.532 223.871 L 234.750 223.917 234.705 219.708 L 234.661 215.500 237.471 215.500 C 239.853 215.500,240.430 215.551,241.257 215.836 M337.250 215.732 C 339.796 216.430,340.966 218.207,340.500 220.667 C 339.956 223.537,338.474 224.317,333.542 224.327 L 330.833 224.333 330.833 220.028 C 330.833 217.660,330.883 215.672,330.944 215.611 C 331.161 215.395,336.385 215.495,337.250 215.732 " stroke="none" fill="#64a4cc" fill-rule="evenodd"></path></g></svg>