<?xml version="1.0" encoding="UTF-8" standalone="no"?>
<svg
   xmlns="http://www.w3.org/2000/svg"
   version="1.1"
   viewBox="0, 0, 400,400"
   height="400"
   width="400"
   id="svg">
  <g
     id="svgg">
    <path
       style="fill-rule:evenodd;stroke:none;stroke-width:3.10639691"
       d="M 16.497344,70.48301 C 9.4489299,72.92153 4.7241002,77.83275 2.8260917,84.69478 1.8258319,88.30752 1.7233208,309.02944 2.7173678,313.92823 c 1.6898799,8.30961 7.5702892,14.25215 15.8177732,15.97931 1.860732,0.3914 47.953449,0.4877 182.994739,0.38519 l 180.51272,-0.13668 2.15273,-1.00337 c 5.79965,-2.70256 6.52965,-3.45742 9.76962,-10.06783 l 2.98836,-6.09786 V 199.12201 85.26014 l -1.02512,-2.53482 c -2.19001,-5.41134 -3.18405,-6.39918 -9.96221,-9.88455 l -6.1662,-3.17163 -180.51894,0.0155 C 29.208721,69.70014 18.631439,69.74674 16.497344,70.48298 M 125.43558,93.57594 c -0.42869,0.47217 -3.55993,2.3329 -6.96144,4.13461 -23.245166,12.31997 -32.350015,20.69171 -43.371512,39.8706 -4.237125,7.37459 -6.414709,10.1952 -8.884295,11.48746 -9.822427,5.15041 -23.701808,28.88017 -23.726659,40.56954 -0.0093,4.9516 -0.298214,5.69403 -4.283722,11.08984 -8.0611,10.91588 -10.583494,19.74115 -9.076891,31.78776 0.42247,3.38908 1.136941,2.82993 4.053848,-3.16542 3.789804,-7.79084 7.063946,-12.66788 7.821907,-11.65831 4.221593,5.64122 6.455093,14.61871 6.622838,26.61561 0.142894,10.21073 -0.848046,9.30987 16.541564,15.04428 22.29461,7.35595 24.1833,7.32489 28.234041,-0.42557 2.367075,-4.52913 3.432569,-5.84003 6.451987,-7.94927 4.361384,-3.04117 5.470364,-2.88585 6.442664,0.91949 4.0756,15.93892 6.90863,19.43051 14.20866,17.52008 5.73752,-1.5035 6.05437,-1.42273 5.61015,1.40098 -0.57778,3.64691 -2.30805,6.61663 -6.83717,11.71112 -2.29874,2.59074 -5.27156,5.98292 -6.6042,7.53612 -1.97567,2.30495 -3.22444,3.23686 -6.77816,5.06343 -4.21228,2.16515 -4.50428,2.41677 -8.614041,7.45224 l -4.255764,5.20943 H 57.918041 23.809803 l 0.30132,-52.26202 c 0.164639,-28.74349 0.298214,-77.13805 0.298214,-107.53725 V 92.71546 h 50.90142 c 50.025413,0 50.888993,0.0124 50.124823,0.86048 m 113.74072,3.78359 c 3.89232,9.67021 10.55554,13.89802 26.18693,16.60058 11.32281,1.96014 30.72537,4.04142 41.89908,4.49496 18.744,0.76417 31.42741,4.99508 33.46521,11.1706 4.96402,15.04739 -15.20271,31.53614 -40.33346,32.98062 -5.7344,0.32617 -9.02097,-0.32617 -15.69662,-3.12504 -19.79085,-8.29097 -19.766,-8.28476 -34.59284,-10.73881 -28.62234,-4.73726 -43.98968,-10.96869 -73.87633,-29.95809 -8.47114,-5.38028 -33.43725,-24.68033 -33.43725,-25.84833 0,-0.12426 21.28813,-0.17396 47.30421,-0.11183 l 47.3011,0.11493 1.77997,4.42041 m 135.86138,102.89318 v 107.53725 h -14.30186 -14.30185 l 0.27958,-6.66322 c 0.30753,-7.41186 1.2643,-12.14601 3.3984,-16.83357 3.14678,-6.91794 2.92933,-8.66995 -1.52214,-12.21124 -6.38054,-5.07896 -8.4028,-8.58298 -11.04635,-19.15094 -2.31426,-9.26017 -2.9635,-10.42196 -6.46441,-11.54337 -2.4292,-0.78281 -2.55656,-1.05928 -8.30961,-17.96119 -14.36708,-42.20972 -13.44449,-38.69638 -11.64588,-44.39041 1.3109,-4.15325 1.33575,-4.1781 7.42739,-6.81854 21.20116,-9.19493 31.50508,-19.0826 35.28557,-33.8473 1.73337,-6.77195 0.17085,-12.22678 -4.74968,-16.57884 -5.75926,-5.09449 -9.6112,-6.15688 -34.14241,-9.41549 -20.28477,-2.69325 -35.73289,-6.3122 -43.35598,-10.16102 -3.94202,-1.9912 -4.55088,-3.24619 -3.79913,-7.80638 l 0.27958,-1.69299 h 53.48594 53.48284 V 200.25271 M 300.97496,250.07 c 0.64302,0.55915 2.26767,2.32048 3.61274,3.92027 2.87963,3.41704 8.03625,7.79706 15.55373,13.2053 7.25033,5.21874 7.00492,4.87704 9.60808,13.48486 2.54104,8.39659 2.56589,8.08285 -0.90396,10.8289 -5.87109,4.64096 -10.73881,10.23248 -12.37899,14.22109 l -0.84494,2.05643 -17.62259,-0.003 c -15.90786,-0.003 -25.8825,-0.32617 -36.05595,-1.17733 l -3.52576,-0.292 0.29822,-1.4103 c 1.20528,-5.71267 14.14963,-17.23429 26.84548,-23.89751 5.84313,-3.06602 5.60705,-2.44784 5.95186,-15.60965 0.16153,-6.13203 0.40383,-11.5558 0.54051,-12.05282 0.13668,-0.49702 0.36966,-1.66813 0.51877,-2.60005 l 0.27025,-1.69299 3.48227,0.003 c 2.95729,0 3.65623,0.15221 4.65028,1.01579 m -53.57603,0.95988 c 0.3883,0.59021 0.90707,2.37018 1.15248,3.95444 1.26741,8.16361 2.84546,8.33136 10.90656,1.14005 5.19078,-4.63164 5.58219,-4.67824 7.5268,-0.90396 2.46958,4.79627 1.27983,8.17603 -6.02641,17.10071 -8.80975,10.76056 -11.51231,13.43206 -17.85868,17.64123 -8.07042,5.34921 -10.21383,8.14497 -12.19571,15.90786 l -0.49082,1.91975 -13.19908,-0.0342 c -12.27648,-0.0311 -13.45069,-0.10562 -16.81182,-1.05618 l -3.61584,-1.022 0.10562,-2.04712 c 0.30132,-5.98292 6.17551,-13.04376 13.05618,-15.6873 1.46001,-0.56226 4.48253,-1.80171 6.71914,-2.75537 l 4.06627,-1.73337 0.13979,-1.82035 c 0.0777,-1.03443 -0.45975,-4.04764 -1.24256,-6.96144 -2.42299,-9.01476 -1.94771,-10.34119 4.63164,-12.94125 5.09449,-2.01605 7.02977,-3.07222 14.03781,-7.66658 6.62283,-4.34275 7.95237,-4.78696 9.09863,-3.03495 m -81.10181,23.30419 c 2.85167,0.73621 8.03314,1.76132 11.51231,2.27698 8.85012,1.31401 8.44008,1.18665 8.27544,2.55036 -0.12426,1.01889 -0.56536,1.29536 -3.60031,2.24903 -6.93348,2.18069 -9.372,4.88325 -10.33809,11.46881 -0.87601,5.96118 -2.69325,12.93194 -3.64381,13.95083 -1.42273,1.52524 -36.59335,1.50661 -38.2211,-0.0217 -2.82372,-2.65597 0.27957,-7.64174 8.04867,-12.93193 5.32747,-3.62517 9.20736,-7.07016 10.61145,-9.42792 1.53146,-2.56899 10.41886,-11.45018 11.45639,-11.45018 0.39141,0 3.04738,0.60265 5.89905,1.33576"
       id="path0" />
  </g>
</svg>
