<svg id="svg" xmlns="http://www.w3.org/2000/svg"  width="400" height="400" viewBox="0, 0, 400,400"><g id="svgg"><path id="path0" d="M184.344 115.748 C 183.340 115.797,179.876 115.961,176.647 116.111 C 60.977 121.514,-19.487 168.526,4.038 216.960 C 31.363 273.216,182.069 301.877,299.712 273.190 C 417.821 244.390,434.760 175.187,333.072 136.904 C 302.533 125.407,267.688 118.757,224.005 116.089 C 219.788 115.831,188.203 115.560,184.344 115.748 M215.786 120.551 C 327.758 124.516,408.182 165.294,393.459 210.638 C 379.621 253.257,282.983 284.067,178.474 279.180 C 56.451 273.474,-22.586 224.241,13.460 176.390 C 40.160 140.946,125.626 117.359,215.786 120.551 M182.779 126.210 C 109.486 128.554,44.157 148.945,20.969 176.714 C -15.205 220.036,55.440 265.785,169.733 273.052 C 276.658 279.850,376.678 249.785,387.466 207.604 C 399.365 161.080,302.079 122.394,182.779 126.210 M99.056 150.361 C 112.846 154.005,117.209 175.399,106.937 189.010 C 97.521 201.489,84.492 203.915,74.449 195.061 C 72.757 193.569,71.431 193.272,69.937 194.050 C 66.373 195.906,65.722 216.056,68.784 229.787 C 69.751 234.126,69.780 234.083,64.609 236.110 C 58.455 238.523,58.443 238.517,57.189 232.484 C 52.628 210.528,54.380 190.899,62.346 174.690 C 71.800 155.455,85.065 146.664,99.056 150.361 M240.854 156.038 C 244.708 156.768,246.222 162.281,244.867 170.646 C 243.455 179.356,233.442 200.081,225.294 211.154 C 224.411 212.354,224.629 213.834,226.131 216.835 C 228.308 221.187,231.236 221.159,234.329 216.754 C 237.371 212.423,238.078 209.359,237.862 201.432 C 237.616 192.361,239.286 190.757,245.793 193.816 C 250.019 195.804,254.339 195.982,259.738 194.392 C 267.026 192.246,268.254 194.273,264.570 202.363 C 260.770 210.709,260.541 213.393,263.260 217.678 C 265.852 221.763,269.162 220.717,277.618 213.143 L 279.258 211.675 278.899 208.968 C 277.078 195.215,280.621 179.512,288.053 168.392 C 299.324 151.527,312.358 154.266,309.613 172.922 C 308.136 182.955,301.085 196.374,290.209 209.849 C 288.548 211.906,288.547 211.827,290.292 215.395 C 297.323 229.767,309.577 219.509,321.709 189.096 C 323.043 185.750,323.290 186.074,319.635 186.371 C 313.545 186.865,311.290 185.823,311.295 182.518 C 311.300 178.497,314.439 176.232,318.513 177.307 C 319.345 177.527,321.332 177.779,322.927 177.867 L 325.828 178.028 327.852 171.923 C 328.965 168.566,329.975 165.710,330.097 165.578 C 330.301 165.356,338.720 164.073,338.885 164.239 C 338.965 164.318,336.784 171.354,335.693 174.539 C 335.329 175.603,335.082 176.526,335.146 176.590 C 335.315 176.759,337.751 175.869,342.403 173.940 C 358.095 167.432,367.123 166.886,367.123 172.446 C 367.123 176.488,364.835 177.698,356.686 177.966 C 349.005 178.219,346.396 178.743,339.856 181.342 C 338.134 182.027,335.762 182.905,334.584 183.294 L 332.443 184.001 330.886 187.956 C 330.030 190.132,328.220 194.729,326.866 198.174 C 323.592 206.495,322.835 210.108,323.511 214.171 C 324.473 219.947,328.386 222.424,334.749 221.287 C 339.620 220.417,340.013 225.756,335.224 227.742 C 328.591 230.493,322.289 228.975,316.215 223.161 L 315.013 222.011 312.431 223.702 C 299.728 232.024,288.678 230.893,282.744 220.663 C 281.535 218.578,281.884 218.620,279.764 220.313 C 270.847 227.434,262.790 229.144,258.476 224.830 C 254.807 221.161,253.873 214.700,255.963 207.437 C 257.507 202.071,256.905 200.390,253.442 200.393 C 249.450 200.397,247.543 202.158,246.696 206.625 C 243.776 222.016,236.065 230.162,226.541 227.916 C 223.014 227.085,218.522 223.340,217.548 220.420 C 217.496 220.263,216.532 220.907,215.406 221.850 C 203.786 231.588,193.579 229.067,193.499 216.438 L 193.477 213.046 195.260 206.654 C 197.221 199.626,197.256 199.059,195.817 197.620 C 193.717 195.520,192.526 197.128,188.445 207.572 C 184.775 216.964,184.139 218.220,181.398 221.478 C 175.287 228.741,165.395 230.573,158.074 225.798 C 157.388 225.350,157.335 225.359,155.334 226.292 C 147.347 230.016,140.378 228.760,135.140 222.651 C 133.723 220.997,134.153 220.961,131.376 222.964 C 121.574 230.033,112.017 231.214,104.799 226.249 L 103.629 225.444 100.412 227.162 C 95.028 230.038,91.835 229.298,91.850 225.179 C 91.858 223.224,92.041 223.073,96.487 221.347 L 99.694 220.103 99.488 218.271 C 97.777 203.025,111.770 186.931,122.160 192.196 C 130.467 196.405,126.383 210.874,114.527 219.234 C 112.748 220.489,112.762 220.607,114.741 221.018 C 118.441 221.786,121.949 220.449,125.375 216.967 C 128.525 213.764,129.484 211.960,136.220 196.557 C 140.364 187.080,140.142 187.760,139.037 187.949 C 129.794 189.524,127.363 188.787,127.338 184.401 C 127.321 181.453,128.225 180.944,133.864 180.732 C 138.016 180.575,142.319 180.022,143.212 179.530 C 143.448 179.401,145.162 175.646,147.021 171.187 L 150.403 163.079 154.523 163.079 C 156.789 163.079,158.643 163.135,158.643 163.204 C 158.643 163.272,157.753 165.866,156.665 168.967 C 155.578 172.068,154.737 174.655,154.798 174.715 C 154.858 174.776,155.660 174.486,156.580 174.071 C 170.092 167.979,191.128 165.896,193.553 170.410 C 194.327 171.850,193.403 174.583,191.670 175.981 L 190.682 176.778 183.599 176.689 C 174.262 176.571,169.277 177.055,165.241 178.470 C 161.862 179.655,151.348 184.329,151.195 184.715 C 149.183 189.776,142.920 208.404,142.696 209.989 C 142.207 213.462,142.908 217.756,144.278 219.680 C 145.510 221.410,147.560 221.684,150.554 220.517 C 152.773 219.653,152.707 219.780,152.002 217.732 C 147.674 205.165,156.774 188.346,167.906 188.338 C 174.986 188.333,178.336 192.780,177.184 200.654 C 176.240 207.115,173.882 211.230,167.543 217.477 C 164.812 220.168,164.855 220.076,166.145 220.513 C 173.030 222.845,177.284 218.143,183.170 201.696 C 187.177 190.499,187.771 189.748,191.911 190.639 C 196.741 191.679,196.705 191.678,199.928 190.880 C 203.280 190.050,204.706 190.095,206.164 191.077 C 208.714 192.796,208.680 195.271,205.985 203.993 C 200.960 220.251,203.663 223.846,214.031 214.698 L 215.015 213.829 214.615 212.003 C 213.306 206.025,214.166 194.996,216.691 185.388 C 221.227 168.126,229.026 157.364,237.952 156.050 C 238.748 155.933,239.413 155.822,239.429 155.805 C 239.446 155.787,240.087 155.892,240.854 156.038 M91.324 158.715 C 87.465 160.036,82.467 164.027,79.030 168.531 C 74.702 174.204,74.009 182.806,77.488 187.665 C 82.342 194.443,91.776 192.559,98.692 183.431 C 107.342 172.013,102.262 154.972,91.324 158.715 M234.760 164.374 C 229.048 167.996,222.054 188.780,222.641 200.384 C 222.865 204.809,222.942 204.858,225.007 201.896 C 231.533 192.536,236.423 181.358,238.598 170.831 C 239.808 164.970,238.169 162.212,234.760 164.374 M299.648 166.430 C 292.865 171.373,287.266 186.542,287.284 199.924 C 287.289 203.850,287.404 203.966,289.131 201.780 C 293.687 196.014,298.891 186.849,301.253 180.431 C 305.048 170.118,304.242 163.082,299.648 166.430 M274.068 174.137 C 278.380 175.938,275.269 184.101,269.464 186.216 C 264.616 187.983,262.954 180.287,267.347 176.415 C 269.899 174.165,272.238 173.372,274.068 174.137 M164.775 196.959 C 161.058 199.234,158.432 207.023,159.416 212.854 C 159.819 215.246,159.923 215.237,162.474 212.580 C 167.237 207.618,170.013 201.506,169.078 198.036 C 168.647 196.434,166.507 195.898,164.775 196.959 M114.099 198.854 C 109.946 200.055,106.487 208.299,107.665 214.188 C 107.889 215.311,107.912 215.299,110.714 212.648 C 116.506 207.166,118.830 202.019,116.639 199.523 C 115.762 198.525,115.489 198.453,114.099 198.854 " stroke="none" fill-rule="evenodd"></path></g></svg>