<svg id="svg" xmlns="http://www.w3.org/2000/svg"  width="400" height="400" viewBox="0, 0, 400,400"><g id="svgg"><path id="path0" d="M38.225 157.252 C 30.747 158.711,28.179 159.544,23.332 162.081 C 13.418 167.271,5.523 177.002,2.441 187.831 C 0.629 194.194,0.180 202.696,1.425 207.042 C 1.588 207.608,1.900 209.025,2.119 210.192 C 3.086 215.332,7.097 223.336,8.707 223.336 C 9.648 223.336,11.553 220.782,16.289 213.171 C 16.583 212.699,17.696 210.959,18.761 209.306 C 19.826 207.652,20.987 205.848,21.339 205.297 C 21.692 204.746,23.196 202.427,24.680 200.143 C 26.165 197.860,27.887 195.186,28.507 194.201 C 29.127 193.216,30.865 190.510,32.369 188.188 C 33.872 185.866,35.547 183.230,36.091 182.331 C 37.447 180.087,35.704 180.259,58.759 180.100 C 83.446 179.930,81.950 180.262,78.951 175.632 C 70.810 163.063,51.984 154.567,38.225 157.252 M49.691 166.497 C 51.662 166.889,53.625 167.386,54.053 167.602 C 54.481 167.818,55.171 168.075,55.586 168.175 C 57.153 168.549,60.129 170.063,60.129 170.485 C 60.129 170.861,58.472 170.926,47.151 170.998 L 34.174 171.081 32.979 171.872 C 31.813 172.644,30.408 174.413,28.316 177.741 C 27.107 179.665,25.435 182.274,22.858 186.256 C 21.839 187.831,20.112 190.514,19.021 192.217 C 17.929 193.921,16.392 196.320,15.605 197.547 C 14.817 198.775,13.593 200.711,12.885 201.850 C 10.308 205.990,10.103 205.971,9.854 201.561 C 9.179 189.653,14.704 178.576,24.816 171.561 C 26.140 170.643,31.198 168.074,31.683 168.074 C 31.911 168.074,32.469 167.882,32.924 167.647 C 36.221 165.942,44.165 165.397,49.691 166.497 M104.441 179.475 C 102.745 179.670,102.792 179.119,102.792 198.744 C 102.792 215.984,102.813 216.713,103.339 217.363 C 103.885 218.037,103.901 218.039,110.379 218.039 L 116.871 218.039 117.562 217.235 C 118.244 216.443,118.253 216.352,118.253 210.599 C 118.253 205.677,118.324 204.695,118.703 204.315 C 119.095 203.924,120.441 203.865,129.123 203.865 C 141.475 203.865,140.414 204.312,140.429 199.105 C 140.447 192.805,141.381 193.271,128.743 193.271 C 118.228 193.271,118.253 193.275,118.253 191.799 C 118.253 190.562,118.287 190.559,131.806 190.408 C 147.133 190.237,145.455 190.913,145.455 184.913 C 145.455 180.044,145.246 179.536,143.236 179.518 C 134.812 179.440,105.026 179.407,104.441 179.475 M165.015 179.458 L 148.642 179.532 148.050 180.284 C 147.158 181.419,147.116 216.550,148.006 217.649 L 148.553 218.325 169.409 218.406 C 180.880 218.450,190.546 218.418,190.889 218.334 C 192.293 217.990,192.412 217.573,192.412 213.028 L 192.412 208.775 191.658 208.181 C 190.919 207.600,190.626 207.588,177.520 207.588 C 162.791 207.588,163.368 207.661,163.545 205.823 C 163.702 204.205,164.062 204.147,173.801 204.161 C 178.604 204.169,182.959 204.170,183.478 204.163 C 185.433 204.139,185.827 203.278,185.827 199.030 C 185.827 192.920,186.579 193.275,173.621 193.273 C 163.175 193.271,163.371 193.305,163.545 191.511 C 163.677 190.148,164.117 190.103,176.807 190.155 C 190.694 190.212,190.001 190.243,190.694 189.549 C 191.614 188.629,191.558 181.312,190.623 180.280 C 189.818 179.393,188.546 179.352,165.015 179.458 M197.777 179.472 C 195.405 179.624,195.539 178.408,195.627 198.983 L 195.705 217.087 196.381 217.635 C 197.002 218.138,197.585 218.182,203.579 218.182 C 212.213 218.182,211.431 218.877,211.527 211.121 C 211.626 203.149,211.325 203.865,214.576 203.865 C 218.207 203.865,217.523 203.147,224.326 214.090 C 227.276 218.835,226.377 218.469,235.067 218.464 C 245.336 218.458,245.297 218.498,241.335 212.044 C 235.411 202.395,235.487 202.555,236.722 202.250 C 241.604 201.044,243.808 197.805,243.808 191.840 C 243.808 184.603,239.364 180.211,231.469 179.647 C 229.250 179.488,199.900 179.336,197.777 179.472 M248.749 179.541 C 246.527 179.796,246.681 178.497,246.587 197.795 C 246.477 220.747,245.495 218.182,254.389 218.182 C 263.358 218.182,262.849 218.663,262.849 210.179 C 262.849 203.514,262.671 203.865,266.056 203.865 C 269.156 203.865,268.676 203.420,272.991 210.314 C 277.634 217.733,277.765 217.920,278.532 218.212 C 279.851 218.713,293.557 218.530,294.313 218.001 C 295.230 217.358,294.995 216.113,293.553 213.973 C 292.937 213.059,291.939 211.410,291.334 210.308 C 290.729 209.205,289.874 207.769,289.433 207.116 C 287.108 203.672,286.642 202.147,287.914 202.147 C 288.631 202.147,291.687 200.396,292.515 199.510 C 294.618 197.262,294.775 196.731,294.775 191.840 L 294.775 187.402 293.729 185.827 C 290.474 180.922,287.436 179.766,277.452 179.629 C 262.700 179.427,250.072 179.388,248.749 179.541 M347.991 179.471 C 345.589 179.646,345.741 178.327,345.741 199.054 L 345.741 217.374 346.417 217.921 C 347.489 218.789,388.368 218.773,389.472 217.905 C 390.255 217.289,390.811 210.644,390.214 209.043 C 389.670 207.583,389.904 207.607,375.601 207.597 C 360.790 207.587,361.632 207.696,361.632 205.780 C 361.632 204.393,361.840 204.364,372.439 204.255 C 384.547 204.130,383.492 204.578,383.633 199.497 C 383.816 192.923,384.468 193.271,371.978 193.271 C 361.467 193.271,361.632 193.298,361.632 191.632 C 361.632 190.099,361.895 190.071,375.376 190.160 C 390.236 190.258,388.816 190.706,388.886 185.888 C 388.954 181.126,388.905 180.620,388.322 180.047 C 387.868 179.600,353.034 179.103,347.991 179.471 M298.194 179.934 C 297.323 180.571,297.323 217.425,298.194 218.062 C 298.662 218.404,302.085 218.468,319.896 218.468 L 341.042 218.468 341.745 217.765 C 342.540 216.971,342.802 210.979,342.127 209.042 C 341.630 207.617,341.334 207.588,327.264 207.588 C 312.472 207.588,313.228 207.708,313.656 205.426 C 313.908 204.080,313.883 204.083,324.558 204.195 L 334.098 204.295 334.837 203.601 C 335.562 202.920,335.576 202.832,335.576 198.971 C 335.576 192.811,336.532 193.271,323.738 193.271 C 312.905 193.271,313.529 193.378,313.529 191.523 C 313.529 190.137,313.977 190.092,327.483 190.140 C 338.982 190.181,339.941 190.147,340.458 189.679 C 341.317 188.902,341.305 180.962,340.444 180.100 C 339.687 179.344,299.219 179.184,298.194 179.934 M41.594 184.714 C 40.322 185.082,38.774 186.702,37.105 189.413 C 36.332 190.669,34.773 193.114,33.640 194.846 C 27.017 204.975,26.788 205.457,28.027 206.695 L 28.633 207.301 56.335 207.297 C 86.326 207.293,85.073 207.359,85.894 205.718 C 86.509 204.490,86.466 194.969,85.835 192.555 C 85.587 191.611,85.301 190.260,85.198 189.553 C 84.915 187.611,83.631 184.962,82.822 184.655 C 81.911 184.309,42.804 184.365,41.594 184.714 M226.856 190.486 C 227.728 191.057,227.853 191.863,227.176 192.540 C 226.780 192.936,225.759 192.985,219.230 192.918 L 211.739 192.842 211.647 191.708 C 211.492 189.812,211.638 189.777,219.340 189.885 C 225.210 189.966,226.182 190.044,226.856 190.486 M277.810 190.348 C 278.411 190.602,278.597 190.876,278.597 191.511 C 278.597 192.967,278.399 193.001,270.401 192.918 L 262.992 192.842 262.992 191.566 C 262.992 190.453,263.083 190.264,263.708 190.078 C 264.855 189.737,276.908 189.968,277.810 190.348 M76.721 193.829 C 77.374 194.242,77.503 197.618,76.889 198.231 C 76.162 198.958,43.031 198.971,42.752 198.244 C 42.543 197.701,43.608 195.626,44.723 194.403 L 45.494 193.558 60.900 193.562 C 69.731 193.565,76.483 193.678,76.721 193.829 M22.702 212.732 C 22.195 213.041,21.437 213.846,21.016 214.521 C 20.173 215.871,18.932 217.792,15.689 222.763 C 11.817 228.699,11.838 228.489,14.806 231.292 C 21.080 237.215,30.014 241.275,38.941 242.260 C 43.985 242.816,49.930 242.456,53.400 241.383 C 54.345 241.091,55.505 240.769,55.977 240.667 C 59.464 239.917,65.783 236.657,69.680 233.598 C 77.625 227.364,85.869 214.531,83.189 212.571 C 82.180 211.833,23.921 211.989,22.702 212.732 M69.197 221.212 C 69.514 222.038,64.238 226.950,61.017 228.829 C 50.576 234.918,38.336 235.264,27.865 229.765 C 23.680 227.566,23.443 227.148,25.054 224.806 C 25.605 224.005,26.056 223.233,26.056 223.090 C 26.056 222.947,26.572 222.364,27.202 221.794 L 28.348 220.759 48.686 220.759 C 66.981 220.759,69.040 220.804,69.197 221.212 " stroke="none" fill="#B42016" fill-rule="evenodd"></path></g></svg>