<?xml version="1.0" encoding="UTF-8" standalone="no"?>
<svg
   xmlns="http://www.w3.org/2000/svg"
   version="1.1"
   viewBox="0, 0, 400,400"
   height="400"
   width="400"
   id="svg">
  <g
     id="svgg">
    <path
       style="fill-rule:evenodd;stroke:none;stroke-width:4.5712142"
       d="M 175.76366,5.8852759 C 141.58011,12.554678 129.84123,16.3625 107.68456,27.959671 62.365537,51.684274 26.2758,96.166758 12.187317,145.66844 c -8.2830417,29.08664 -10.3355162,67.9511 -4.6443543,87.8176 0.7451073,2.58732 2.1713266,9.06473 3.1724223,14.39933 4.420364,23.49605 22.755506,60.08405 30.115161,60.08405 4.301513,0 13.009676,-11.67488 34.658948,-46.4664 1.343937,-2.15762 6.431699,-10.11152 11.300043,-17.66775 4.868343,-7.56079 10.175523,-15.80726 11.784594,-18.326 1.613639,-2.51873 8.488739,-13.11938 15.272429,-23.56003 6.78825,-10.43609 14.65988,-22.65952 17.49403,-27.16216 2.83415,-4.50264 10.77893,-16.87236 17.65404,-27.48671 6.87053,-10.61436 14.52731,-22.66408 17.01405,-26.77361 6.19857,-10.2578 -1.76906,-9.47156 103.6203,-10.19837 112.84957,-0.77711 106.01103,0.74054 92.30196,-20.424192 C 324.71668,32.448604 238.659,-6.3884349 175.76366,5.8852759 m 52.41355,42.2608781 c 9.00986,1.791916 17.98315,4.06381 19.93962,5.051192 1.95649,0.987383 5.11063,2.162185 7.00768,2.619305 7.16309,1.709635 20.76703,8.630453 20.76703,10.559506 0,1.718777 -7.5745,2.015906 -59.32522,2.345034 l -59.32066,0.37941 -5.46259,3.61583 c -5.33004,3.528979 -11.7526,11.615457 -21.31558,26.828458 -5.5266,8.795011 -13.16966,20.721311 -24.94969,38.923891 -4.65806,7.19966 -12.552553,19.46423 -17.539748,27.24901 -4.991765,7.78935 -12.017723,18.75569 -15.615269,24.36457 -3.602116,5.61345 -9.197283,14.46333 -12.433703,19.66994 -11.78002,18.92483 -12.717118,18.83797 -13.855351,-1.32108 -3.085569,-54.43403 22.17039,-105.06936 68.394511,-137.136436 6.05228,-4.196375 29.1735,-15.939825 31.39053,-15.939825 1.04223,0 3.59298,-0.877673 5.67288,-1.951909 15.07129,-7.79392 51.38502,-10.285232 76.64556,-5.256896 m -37.01313,83.273816 c -5.81459,1.68221 -12.89083,9.08757 -20.52019,21.48014 -3.53354,5.74144 -10.66007,16.91805 -15.83925,24.8354 -30.27516,46.30183 -31.32197,48.50516 -25.65823,54.16432 l 2.77015,2.77016 126.63179,-0.0183 c 137.09529,-0.0183 131.36756,0.28341 135.12053,-7.21795 2.81129,-5.61345 2.61473,-49.13599 -0.2697,-60.17089 -1.13366,-4.31524 -2.44103,-10.49094 -2.91186,-13.7228 -1.29366,-8.87729 -7.1631,-20.98644 -10.86121,-22.38981 -4.16438,-1.58163 -182.93086,-1.32565 -188.46203,0.26971 m 160.57305,41.66662 c 2.98501,1.88791 3.57469,17.32033 0.76796,20.12248 -3.32327,3.32327 -154.77217,3.3827 -156.04754,0.0594 -0.95539,-2.48217 3.91295,-11.96743 9.00986,-17.55803 l 3.5244,-3.86268 70.42413,0.0183 c 40.36839,0.0138 71.23324,0.53026 72.32119,1.22052 m -246.93244,86.40968 c -2.3176,1.4125 -5.782585,5.09233 -7.707066,8.17789 -3.853532,6.17115 -9.52641,14.95245 -24.350858,37.67596 -17.699743,27.13473 -17.603747,26.17477 -4.036382,38.98789 28.679804,27.0753 69.519036,45.63443 110.326266,50.13708 23.05721,2.54159 50.23307,0.89596 66.09519,-4.00896 4.31979,-1.33479 9.6224,-2.80673 11.78001,-3.27299 15.93984,-3.42841 44.82533,-18.33057 62.63936,-32.31391 36.3183,-28.49695 74.00339,-87.15935 61.75253,-96.11893 -4.61235,-3.37356 -270.92674,-2.66044 -276.49905,0.73597 m 212.53862,38.76389 c 1.44907,3.77583 -22.66865,26.22963 -37.39253,34.81894 -47.72806,27.83413 -103.67972,29.41577 -151.54491,4.27866 -19.13053,-10.0521 -20.2139,-11.96287 -12.84968,-22.66865 2.51874,-3.66154 4.58035,-7.19053 4.58035,-7.8442 0,-0.65369 2.35876,-3.31871 5.23862,-5.9243 l 5.23861,-4.7312 h 92.96936 c 83.63037,0 93.0425,0.2057 93.76018,2.07075"
       id="path0" />
  </g>
</svg>
