<svg id="svg" version="1.1" xmlns="http://www.w3.org/2000/svg"  width="400" height="400" viewBox="0, 0, 400,400"><g id="svgg"><path id="path0" d="M42.600 128.271 C 42.160 128.839,41.125 129.949,40.300 130.736 C 39.475 131.523,38.800 132.450,38.800 132.795 C 38.800 133.141,38.415 133.688,37.945 134.012 C 36.654 134.900,34.400 137.320,34.400 137.818 C 34.400 137.956,33.410 139.036,32.200 140.217 C 30.990 141.399,30.000 142.551,30.000 142.778 C 30.000 143.005,28.920 144.260,27.600 145.568 C 26.280 146.876,25.200 148.122,25.200 148.338 C 25.200 148.554,24.231 149.706,23.048 150.899 C 21.864 152.093,20.785 153.418,20.649 153.845 C 20.514 154.272,20.017 154.887,19.546 155.211 C 18.277 156.084,16.000 158.518,16.000 159.001 C 16.000 159.131,15.595 159.670,15.100 160.199 C 14.605 160.728,13.999 161.395,13.754 161.681 C 13.508 161.966,12.923 162.465,12.454 162.788 C 11.984 163.112,11.600 163.625,11.600 163.928 C 11.600 164.231,10.700 165.361,9.600 166.438 C 8.500 167.515,7.600 168.572,7.600 168.786 C 7.600 169.001,6.430 170.364,5.000 171.815 C 3.570 173.266,2.400 174.620,2.400 174.823 C 2.400 175.027,1.860 175.709,1.200 176.340 C 0.459 177.048,0.000 177.891,0.000 178.543 L 0.000 179.600 34.600 179.600 L 69.200 179.600 69.200 180.600 C 69.200 181.150,69.020 181.600,68.800 181.600 C 68.580 181.600,68.400 182.050,68.400 182.600 C 68.400 183.150,68.220 183.600,68.000 183.600 C 67.780 183.600,67.600 184.230,67.600 185.000 C 67.600 185.770,67.434 186.400,67.232 186.400 C 67.029 186.400,66.738 187.570,66.585 189.000 C 66.432 190.430,66.148 191.600,65.953 191.600 C 65.759 191.600,65.600 192.050,65.600 192.600 C 65.600 193.150,65.420 193.600,65.200 193.600 C 64.980 193.600,64.800 194.230,64.800 195.000 C 64.800 195.770,64.641 196.400,64.446 196.400 C 64.251 196.400,63.968 197.390,63.817 198.600 C 63.666 199.810,63.375 200.800,63.171 200.800 C 62.967 200.800,62.800 201.430,62.800 202.200 C 62.800 202.970,62.620 203.600,62.400 203.600 C 62.180 203.600,62.000 204.050,62.000 204.600 C 62.000 205.150,61.820 205.600,61.600 205.600 C 61.380 205.600,61.200 206.230,61.200 207.000 C 61.200 207.770,61.034 208.400,60.832 208.400 C 60.629 208.400,60.338 209.570,60.185 211.000 C 60.032 212.430,59.748 213.600,59.553 213.600 C 59.359 213.600,59.200 214.050,59.200 214.600 C 59.200 215.150,59.020 215.600,58.800 215.600 C 58.580 215.600,58.400 216.215,58.400 216.967 C 58.400 217.718,58.222 218.393,58.004 218.467 C 57.786 218.540,57.490 219.725,57.347 221.100 C 57.203 222.475,56.932 223.600,56.743 223.600 C 56.554 223.600,56.400 224.050,56.400 224.600 C 56.400 225.150,56.220 225.600,56.000 225.600 C 55.780 225.600,55.600 226.230,55.600 227.000 C 55.600 227.770,55.429 228.400,55.220 228.400 C 55.011 228.400,54.718 229.480,54.568 230.800 C 54.419 232.120,54.140 233.200,53.948 233.200 C 53.757 233.200,53.600 233.740,53.600 234.400 C 53.600 235.060,53.420 235.600,53.200 235.600 C 52.980 235.600,52.800 236.230,52.800 237.000 C 52.800 237.770,52.620 238.400,52.400 238.400 C 52.180 238.400,52.000 238.850,52.000 239.400 C 52.000 239.950,51.843 240.400,51.652 240.400 C 51.460 240.400,51.181 241.480,51.032 242.800 C 50.882 244.120,50.589 245.200,50.380 245.200 C 50.171 245.200,50.000 245.740,50.000 246.400 C 50.000 247.060,49.820 247.600,49.600 247.600 C 49.380 247.600,49.200 248.230,49.200 249.000 C 49.200 249.770,49.029 250.400,48.820 250.400 C 48.611 250.400,48.318 251.480,48.168 252.800 C 48.019 254.120,47.740 255.200,47.548 255.200 C 47.357 255.200,47.200 255.650,47.200 256.200 C 47.200 256.750,47.020 257.200,46.800 257.200 C 46.580 257.200,46.400 257.920,46.400 258.800 C 46.400 259.680,46.229 260.400,46.020 260.400 C 45.811 260.400,45.518 261.480,45.368 262.800 C 45.219 264.120,44.940 265.200,44.748 265.200 C 44.557 265.200,44.400 265.650,44.400 266.200 C 44.400 266.750,44.220 267.200,44.000 267.200 C 43.780 267.200,43.600 267.830,43.600 268.600 C 43.600 269.370,43.420 270.000,43.200 270.000 C 42.980 270.000,42.800 270.360,42.800 270.800 C 42.800 271.597,43.067 271.600,105.435 271.600 L 168.070 271.600 167.788 269.900 C 167.633 268.965,167.347 268.140,167.153 268.067 C 166.959 267.993,166.800 267.318,166.800 266.567 C 166.800 265.815,166.620 265.200,166.400 265.200 C 166.180 265.200,166.000 264.570,166.000 263.800 C 166.000 263.030,165.829 262.400,165.620 262.400 C 165.411 262.400,165.117 261.316,164.967 259.991 C 164.817 258.666,164.538 257.486,164.347 257.367 C 164.156 257.249,164.000 256.533,164.000 255.776 C 164.000 255.019,163.820 254.400,163.600 254.400 C 163.380 254.400,163.200 253.950,163.200 253.400 C 163.200 252.850,163.020 252.400,162.800 252.400 C 162.580 252.400,162.400 251.770,162.400 251.000 C 162.400 250.230,162.243 249.600,162.052 249.600 C 161.860 249.600,161.581 248.520,161.432 247.200 C 161.282 245.880,160.989 244.800,160.780 244.800 C 160.571 244.800,160.400 244.170,160.400 243.400 C 160.400 242.630,160.220 242.000,160.000 242.000 C 159.780 242.000,159.600 241.280,159.600 240.400 C 159.600 239.520,159.429 238.800,159.220 238.800 C 159.011 238.800,158.718 237.720,158.568 236.400 C 158.419 235.080,158.140 234.000,157.948 234.000 C 157.757 234.000,157.600 233.370,157.600 232.600 C 157.600 231.830,157.420 231.200,157.200 231.200 C 156.980 231.200,156.800 230.750,156.800 230.200 C 156.800 229.650,156.620 229.200,156.400 229.200 C 156.180 229.200,156.000 228.570,156.000 227.800 C 156.000 227.030,155.841 226.400,155.647 226.400 C 155.452 226.400,155.168 225.230,155.015 223.800 C 154.862 222.370,154.571 221.200,154.368 221.200 C 154.166 221.200,154.000 220.570,154.000 219.800 C 154.000 219.030,153.820 218.400,153.600 218.400 C 153.380 218.400,153.200 217.770,153.200 217.000 C 153.200 216.230,153.029 215.600,152.820 215.600 C 152.611 215.600,152.318 214.520,152.168 213.200 C 152.019 211.880,151.740 210.800,151.548 210.800 C 151.357 210.800,151.200 210.170,151.200 209.400 C 151.200 208.630,151.020 208.000,150.800 208.000 C 150.580 208.000,150.400 207.460,150.400 206.800 C 150.400 206.140,150.241 205.600,150.047 205.600 C 149.852 205.600,149.568 204.432,149.415 203.004 C 149.262 201.577,148.971 200.306,148.769 200.181 C 148.566 200.055,148.400 199.513,148.400 198.976 C 148.400 198.439,148.220 198.000,148.000 198.000 C 147.780 198.000,147.600 197.370,147.600 196.600 C 147.600 195.830,147.420 195.200,147.200 195.200 C 146.980 195.200,146.800 194.570,146.800 193.800 C 146.800 193.030,146.634 192.400,146.432 192.400 C 146.229 192.400,145.938 191.230,145.785 189.800 C 145.632 188.370,145.348 187.200,145.153 187.200 C 144.959 187.200,144.800 186.570,144.800 185.800 C 144.800 185.030,144.620 184.400,144.400 184.400 C 144.180 184.400,144.000 183.950,144.000 183.400 C 144.000 182.850,143.820 182.400,143.600 182.400 C 143.380 182.400,143.200 181.770,143.200 181.000 L 143.200 179.600 177.600 179.600 C 211.733 179.600,212.000 179.594,212.000 178.800 C 212.000 178.360,211.820 178.000,211.600 178.000 C 211.380 178.000,211.200 177.736,211.200 177.413 C 211.200 176.780,208.605 174.000,208.014 174.000 C 207.816 174.000,207.531 173.595,207.381 173.100 C 207.230 172.605,206.543 171.644,205.854 170.964 C 205.164 170.285,204.335 169.339,204.011 168.863 C 203.687 168.387,203.102 167.896,202.711 167.772 C 202.320 167.648,202.000 167.205,202.000 166.789 C 202.000 166.372,201.722 165.799,201.383 165.516 C 199.516 163.954,197.200 161.547,197.200 161.168 C 197.200 160.927,196.210 159.764,195.000 158.583 C 193.790 157.401,192.800 156.253,192.800 156.031 C 192.800 155.685,191.832 154.648,189.522 152.519 C 188.506 151.583,188.000 150.827,188.000 150.244 C 188.000 149.919,187.640 149.540,187.200 149.400 C 186.760 149.260,186.400 148.986,186.400 148.791 C 186.400 148.464,185.333 147.345,183.819 146.084 C 183.479 145.801,183.200 145.216,183.200 144.784 C 183.200 144.353,183.026 144.000,182.813 144.000 C 182.285 144.000,178.800 140.351,178.800 139.797 C 178.800 139.667,177.720 138.484,176.400 137.168 C 175.080 135.852,174.000 134.593,174.000 134.370 C 174.000 134.147,172.830 132.817,171.400 131.415 C 169.970 130.013,168.800 128.748,168.800 128.604 C 168.800 127.180,169.675 127.199,105.529 127.218 L 43.400 127.237 42.600 128.271 M327.600 188.000 L 327.600 195.600 340.600 195.600 L 353.600 195.600 353.600 188.000 L 353.600 180.400 340.600 180.400 L 327.600 180.400 327.600 188.000 M202.200 196.000 C 202.064 196.220,201.333 196.400,200.576 196.400 C 199.819 196.400,199.200 196.580,199.200 196.800 C 199.200 197.020,198.930 197.200,198.600 197.200 C 198.270 197.200,198.000 197.380,198.000 197.600 C 198.000 197.820,197.717 198.000,197.371 198.000 C 197.026 198.000,196.473 198.270,196.143 198.600 C 195.220 199.523,194.400 199.335,194.400 198.200 L 194.400 197.200 182.400 197.200 L 170.400 197.200 170.400 222.400 L 170.400 247.600 183.000 247.600 L 195.600 247.600 195.600 235.400 C 195.600 227.533,195.742 223.200,196.000 223.200 C 196.220 223.200,196.400 222.930,196.400 222.600 C 196.400 222.270,196.580 222.000,196.800 222.000 C 197.020 222.000,197.200 221.730,197.200 221.400 C 197.200 220.625,198.625 219.200,199.400 219.200 C 199.730 219.200,200.000 219.020,200.000 218.800 C 200.000 218.580,200.360 218.400,200.800 218.400 C 201.240 218.400,201.600 218.220,201.600 218.000 C 201.600 217.765,203.000 217.600,205.000 217.600 C 207.000 217.600,208.400 217.765,208.400 218.000 C 208.400 218.220,209.006 218.400,209.747 218.400 L 211.094 218.400 210.900 213.700 C 210.794 211.115,210.547 208.829,210.353 208.620 C 210.159 208.411,210.000 206.746,210.000 204.920 C 210.000 202.973,209.835 201.600,209.600 201.600 C 209.374 201.600,209.200 200.467,209.200 199.000 L 209.200 196.400 207.400 196.400 C 206.410 196.400,205.600 196.220,205.600 196.000 C 205.600 195.780,204.891 195.600,204.024 195.600 C 203.157 195.600,202.336 195.780,202.200 196.000 M240.400 196.000 C 240.400 196.243,238.600 196.400,235.800 196.400 C 233.000 196.400,231.200 196.557,231.200 196.800 C 231.200 197.029,230.000 197.200,228.400 197.200 C 226.800 197.200,225.600 197.371,225.600 197.600 C 225.600 197.820,224.610 198.000,223.400 198.000 C 222.190 198.000,221.200 198.180,221.200 198.400 C 221.200 198.620,220.615 198.802,219.900 198.804 C 217.223 198.813,215.600 199.272,215.600 200.019 C 215.600 200.412,215.438 200.793,215.240 200.867 C 215.042 200.940,214.749 204.285,214.589 208.300 L 214.298 215.600 215.549 215.600 C 216.237 215.600,216.800 215.420,216.800 215.200 C 216.800 214.980,217.340 214.800,218.000 214.800 C 218.660 214.800,219.200 214.629,219.200 214.420 C 219.200 214.211,220.280 213.918,221.600 213.768 C 222.920 213.619,224.000 213.340,224.000 213.148 C 224.000 212.957,224.810 212.800,225.800 212.800 C 226.790 212.800,227.600 212.620,227.600 212.400 C 227.600 212.178,228.667 212.000,230.000 212.000 C 231.333 212.000,232.400 211.822,232.400 211.600 C 232.400 211.374,233.533 211.200,235.000 211.200 C 236.467 211.200,237.600 211.374,237.600 211.600 C 237.600 211.820,237.870 212.000,238.200 212.000 C 238.867 212.000,238.987 213.084,238.421 213.980 C 238.155 214.400,236.994 214.607,234.227 214.728 C 232.122 214.820,230.400 215.054,230.400 215.248 C 230.400 215.441,228.960 215.600,227.200 215.600 C 225.333 215.600,224.000 215.767,224.000 216.000 C 224.000 216.220,223.370 216.400,222.600 216.400 C 221.830 216.400,221.200 216.563,221.200 216.762 C 221.200 216.962,220.300 217.249,219.200 217.400 C 218.100 217.551,217.200 217.838,217.200 218.038 C 217.200 218.237,216.883 218.400,216.495 218.400 C 216.107 218.400,215.452 218.850,215.039 219.400 C 214.626 219.950,214.035 220.400,213.726 220.400 C 212.964 220.400,211.200 222.212,211.200 222.994 C 211.200 223.341,210.930 223.729,210.600 223.855 C 210.270 223.982,210.000 224.426,210.000 224.843 C 210.000 225.259,209.820 225.600,209.600 225.600 C 209.380 225.600,209.200 226.035,209.200 226.567 C 209.200 227.098,208.988 227.604,208.729 227.690 C 208.399 227.800,208.257 229.400,208.257 233.000 C 208.257 236.600,208.399 238.200,208.729 238.310 C 208.988 238.396,209.200 238.722,209.200 239.033 C 209.200 239.345,209.380 239.600,209.600 239.600 C 209.820 239.600,210.000 239.960,210.000 240.400 C 210.000 240.840,210.180 241.200,210.400 241.200 C 210.620 241.200,210.800 241.464,210.800 241.787 C 210.800 242.109,211.436 243.009,212.213 243.787 C 212.991 244.564,213.891 245.200,214.213 245.200 C 214.536 245.200,214.800 245.380,214.800 245.600 C 214.800 245.820,215.160 246.000,215.600 246.000 C 216.040 246.000,216.400 246.180,216.400 246.400 C 216.400 246.620,216.835 246.800,217.367 246.800 C 217.898 246.800,218.404 247.011,218.489 247.268 C 218.600 247.599,221.196 247.790,227.323 247.921 L 236.000 248.106 236.000 246.653 C 236.000 245.854,236.180 245.200,236.400 245.200 C 236.620 245.200,236.800 244.750,236.800 244.200 C 236.800 243.650,236.980 243.200,237.200 243.200 C 237.420 243.200,237.600 242.570,237.600 241.800 C 237.600 241.030,237.767 240.400,237.971 240.400 C 238.175 240.400,238.466 239.410,238.617 238.200 C 239.121 234.172,239.600 235.929,239.600 241.800 L 239.600 247.600 252.000 247.600 L 264.400 247.600 264.400 227.400 C 264.400 216.242,264.245 207.200,264.053 207.200 C 263.862 207.200,263.608 206.478,263.490 205.595 C 263.288 204.085,262.917 203.596,260.200 201.252 C 259.980 201.063,259.546 200.538,259.235 200.086 C 258.924 199.634,258.069 199.152,257.335 199.014 C 256.601 198.876,256.000 198.592,256.000 198.382 C 256.000 198.172,255.550 198.000,255.000 198.000 C 254.450 198.000,254.000 197.820,254.000 197.600 C 254.000 197.380,253.280 197.200,252.400 197.200 C 251.520 197.200,250.800 197.020,250.800 196.800 C 250.800 196.578,249.733 196.400,248.400 196.400 C 247.067 196.400,246.000 196.222,246.000 196.000 C 246.000 195.771,244.800 195.600,243.200 195.600 C 241.600 195.600,240.400 195.771,240.400 196.000 M377.200 196.000 C 377.200 196.231,375.933 196.400,374.200 196.400 C 372.467 196.400,371.200 196.569,371.200 196.800 C 371.200 197.020,370.570 197.200,369.800 197.200 C 369.030 197.200,368.400 197.380,368.400 197.600 C 368.400 197.820,367.950 198.000,367.400 198.000 C 366.850 198.000,366.400 198.160,366.400 198.355 C 366.400 198.551,365.770 198.829,365.000 198.974 C 364.230 199.118,363.600 199.408,363.600 199.618 C 363.600 199.828,363.252 200.000,362.827 200.000 C 362.402 200.000,361.940 200.360,361.800 200.800 C 361.660 201.240,361.406 201.600,361.234 201.600 C 360.511 201.600,359.287 203.095,359.022 204.300 C 358.865 205.015,358.571 205.600,358.368 205.600 C 358.166 205.600,358.000 206.140,358.000 206.800 C 358.000 207.460,357.820 208.000,357.600 208.000 C 357.371 208.000,357.200 209.200,357.200 210.800 C 357.200 212.400,357.371 213.600,357.600 213.600 C 357.820 213.600,358.000 214.230,358.000 215.000 C 358.000 215.770,358.172 216.400,358.382 216.400 C 358.592 216.400,358.882 217.030,359.026 217.800 C 359.171 218.570,359.449 219.200,359.645 219.200 C 359.840 219.200,360.000 219.388,360.000 219.618 C 360.000 220.263,364.387 224.800,365.010 224.800 C 365.146 224.800,365.527 225.070,365.857 225.400 C 366.187 225.730,366.792 226.000,367.202 226.000 C 367.611 226.000,368.060 226.360,368.200 226.800 C 368.340 227.240,368.802 227.600,369.227 227.600 C 369.652 227.600,370.000 227.743,370.000 227.918 C 370.000 228.093,370.810 228.570,371.800 228.978 C 374.540 230.108,374.007 230.400,369.200 230.400 C 366.780 230.400,364.800 230.243,364.800 230.052 C 364.800 229.860,363.720 229.581,362.400 229.432 C 361.080 229.282,360.000 228.989,360.000 228.780 C 360.000 228.571,359.550 228.400,359.000 228.400 C 358.450 228.400,358.000 228.220,358.000 228.000 C 358.000 227.780,357.640 227.600,357.200 227.600 C 356.760 227.600,356.400 227.420,356.400 227.200 C 356.400 226.980,356.113 226.800,355.763 226.800 C 355.053 226.800,355.331 234.459,356.050 234.733 C 356.243 234.807,356.400 235.831,356.400 237.010 C 356.400 238.188,356.580 239.264,356.800 239.400 C 357.020 239.536,357.200 240.627,357.200 241.824 C 357.200 243.021,357.380 244.000,357.600 244.000 C 357.820 244.000,358.000 244.270,358.000 244.600 C 358.000 244.930,358.168 245.200,358.373 245.200 C 358.578 245.200,358.860 245.560,359.000 246.000 C 359.194 246.612,359.605 246.800,360.747 246.800 C 361.568 246.800,362.465 247.025,362.740 247.300 C 363.118 247.678,366.182 247.800,375.286 247.800 C 384.568 247.800,387.371 247.685,387.500 247.300 C 387.592 247.025,388.102 246.800,388.633 246.800 C 389.165 246.800,389.600 246.620,389.600 246.400 C 389.600 246.180,390.140 246.000,390.800 246.000 C 391.460 246.000,392.000 245.820,392.000 245.600 C 392.000 245.380,392.262 245.200,392.582 245.200 C 392.902 245.200,393.577 244.752,394.082 244.204 C 396.355 241.740,396.734 241.367,397.511 240.835 C 397.964 240.524,398.446 239.682,398.580 238.964 C 398.715 238.246,399.032 237.589,399.285 237.505 C 399.933 237.289,399.921 229.507,399.273 229.291 C 399.013 229.204,398.800 228.603,398.800 227.954 C 398.800 227.275,398.546 226.677,398.200 226.545 C 397.870 226.418,397.600 226.013,397.600 225.646 C 397.600 225.278,397.216 224.712,396.746 224.388 C 396.277 224.065,395.692 223.565,395.446 223.278 C 393.883 221.451,392.303 220.000,391.875 220.000 C 391.601 220.000,391.117 219.640,390.800 219.200 C 390.483 218.760,390.070 218.400,389.883 218.400 C 389.696 218.400,389.273 218.130,388.943 217.800 C 388.613 217.470,387.996 217.200,387.571 217.200 C 387.147 217.200,386.800 217.020,386.800 216.800 C 386.800 216.580,386.570 216.400,386.288 216.400 C 386.007 216.400,385.517 216.040,385.200 215.600 C 384.883 215.160,384.303 214.800,383.912 214.800 C 383.520 214.800,383.200 214.620,383.200 214.400 C 383.200 214.155,385.133 214.000,388.200 214.000 C 391.267 214.000,393.200 214.155,393.200 214.400 C 393.200 214.620,394.190 214.800,395.400 214.800 C 396.610 214.800,397.600 214.980,397.600 215.200 C 397.600 215.420,398.141 215.600,398.802 215.600 L 400.004 215.600 399.741 211.500 C 399.597 209.245,399.326 207.340,399.139 207.267 C 398.953 207.193,398.799 206.293,398.797 205.267 C 398.796 204.240,398.680 202.185,398.539 200.700 L 398.284 198.000 396.742 198.000 C 395.894 198.000,395.200 197.820,395.200 197.600 C 395.200 197.378,394.141 197.200,392.824 197.200 C 391.517 197.200,390.336 197.020,390.200 196.800 C 390.060 196.573,388.063 196.400,385.576 196.400 C 382.925 196.400,381.200 196.242,381.200 196.000 C 381.200 195.780,380.300 195.600,379.200 195.600 C 378.100 195.600,377.200 195.780,377.200 196.000 M262.400 198.600 C 262.400 199.370,262.560 200.000,262.755 200.000 C 262.950 200.000,263.231 200.810,263.379 201.800 C 263.528 202.790,263.818 203.600,264.025 203.600 C 264.231 203.600,264.400 204.050,264.400 204.600 C 264.400 205.150,264.580 205.600,264.800 205.600 C 265.020 205.600,265.200 206.050,265.200 206.600 C 265.200 207.150,265.369 207.600,265.575 207.600 C 265.782 207.600,266.072 208.410,266.221 209.400 C 266.369 210.390,266.650 211.200,266.845 211.200 C 267.040 211.200,267.200 211.560,267.200 212.000 C 267.200 212.440,267.380 212.800,267.600 212.800 C 267.820 212.800,268.000 213.250,268.000 213.800 C 268.000 214.350,268.180 214.800,268.400 214.800 C 268.620 214.800,268.800 215.160,268.800 215.600 C 268.800 216.040,268.960 216.400,269.155 216.400 C 269.350 216.400,269.631 217.210,269.779 218.200 C 269.928 219.190,270.218 220.000,270.425 220.000 C 270.631 220.000,270.800 220.450,270.800 221.000 C 270.800 221.550,270.980 222.000,271.200 222.000 C 271.420 222.000,271.600 222.270,271.600 222.600 C 271.600 222.930,271.756 223.200,271.947 223.200 C 272.138 223.200,272.397 223.961,272.522 224.891 C 272.646 225.822,272.940 226.647,273.174 226.725 C 273.408 226.803,273.600 227.392,273.600 228.033 C 273.600 228.675,273.780 229.200,274.000 229.200 C 274.220 229.200,274.400 229.470,274.400 229.800 C 274.400 230.130,274.560 230.400,274.755 230.400 C 274.950 230.400,275.231 231.210,275.379 232.200 C 275.528 233.190,275.818 234.000,276.025 234.000 C 276.231 234.000,276.400 234.450,276.400 235.000 C 276.400 235.550,276.580 236.000,276.800 236.000 C 277.020 236.000,277.200 236.540,277.200 237.200 C 277.200 237.860,277.380 238.400,277.600 238.400 C 277.820 238.400,278.000 238.670,278.000 239.000 C 278.000 239.330,278.160 239.600,278.355 239.600 C 278.550 239.600,278.831 240.410,278.979 241.400 C 279.128 242.390,279.418 243.200,279.625 243.200 C 279.831 243.200,280.000 243.650,280.000 244.200 C 280.000 244.750,280.180 245.200,280.400 245.200 C 280.620 245.200,280.800 245.483,280.800 245.829 C 280.800 247.540,281.288 247.600,295.171 247.600 C 308.133 247.600,308.400 247.584,308.400 246.800 C 308.400 246.360,308.567 246.000,308.771 246.000 C 308.975 246.000,309.266 245.010,309.417 243.800 C 309.568 242.590,309.851 241.600,310.046 241.600 C 310.241 241.600,310.400 241.330,310.400 241.000 C 310.400 240.670,310.580 240.400,310.800 240.400 C 311.020 240.400,311.200 239.950,311.200 239.400 C 311.200 238.850,311.369 238.400,311.575 238.400 C 311.782 238.400,312.072 237.590,312.221 236.600 C 312.369 235.610,312.650 234.800,312.845 234.800 C 313.040 234.800,313.200 234.260,313.200 233.600 C 313.200 232.940,313.380 232.400,313.600 232.400 C 313.820 232.400,314.000 232.130,314.000 231.800 C 314.000 231.470,314.167 231.200,314.371 231.200 C 314.575 231.200,314.866 230.210,315.017 229.000 C 315.168 227.790,315.451 226.800,315.646 226.800 C 315.841 226.800,316.000 226.530,316.000 226.200 C 316.000 225.870,316.180 225.600,316.400 225.600 C 316.620 225.600,316.800 225.060,316.800 224.400 C 316.800 223.740,316.980 223.200,317.200 223.200 C 317.420 223.200,317.600 222.930,317.600 222.600 C 317.600 222.270,317.767 222.000,317.971 222.000 C 318.175 222.000,318.466 221.010,318.617 219.800 C 318.768 218.590,319.051 217.600,319.246 217.600 C 319.441 217.600,319.600 217.330,319.600 217.000 C 319.600 216.670,319.780 216.400,320.000 216.400 C 320.220 216.400,320.400 215.860,320.400 215.200 C 320.400 214.540,320.557 214.000,320.749 214.000 C 320.941 214.000,321.213 213.280,321.354 212.400 C 321.494 211.520,321.787 210.800,322.005 210.800 C 322.222 210.800,322.400 210.260,322.400 209.600 C 322.400 208.940,322.580 208.400,322.800 208.400 C 323.020 208.400,323.200 208.130,323.200 207.800 C 323.200 207.470,323.380 207.200,323.600 207.200 C 323.820 207.200,324.000 206.660,324.000 206.000 C 324.000 205.340,324.157 204.800,324.349 204.800 C 324.541 204.800,324.813 204.080,324.954 203.200 C 325.094 202.320,325.387 201.600,325.605 201.600 C 325.822 201.600,326.000 201.060,326.000 200.400 C 326.000 199.740,326.180 199.200,326.400 199.200 C 326.620 199.200,326.800 198.750,326.800 198.200 L 326.800 197.200 313.643 197.200 C 299.198 197.200,300.000 197.057,300.000 199.633 C 300.000 200.275,299.820 200.800,299.600 200.800 C 299.380 200.800,299.200 201.250,299.200 201.800 C 299.200 202.350,299.020 202.800,298.800 202.800 C 298.580 202.800,298.400 203.430,298.400 204.200 C 298.400 204.970,298.241 205.600,298.047 205.600 C 297.852 205.600,297.568 206.770,297.415 208.200 C 297.262 209.630,296.971 210.800,296.768 210.800 C 296.566 210.800,296.400 211.430,296.400 212.200 C 296.400 212.970,296.220 213.600,296.000 213.600 C 295.780 213.600,295.600 214.230,295.600 215.000 C 295.600 215.770,295.420 216.400,295.200 216.400 C 294.980 216.400,294.797 216.985,294.794 217.700 C 294.782 220.123,294.120 220.219,293.822 217.841 C 293.668 216.608,293.375 215.600,293.171 215.600 C 292.967 215.600,292.800 215.150,292.800 214.600 C 292.800 214.050,292.620 213.600,292.400 213.600 C 292.180 213.600,292.000 212.970,292.000 212.200 C 292.000 211.430,291.841 210.800,291.646 210.800 C 291.451 210.800,291.168 209.810,291.017 208.600 C 290.866 207.390,290.575 206.400,290.371 206.400 C 290.167 206.400,290.000 205.770,290.000 205.000 C 290.000 204.230,289.820 203.600,289.600 203.600 C 289.380 203.600,289.200 203.150,289.200 202.600 C 289.200 202.050,289.020 201.600,288.800 201.600 C 288.580 201.600,288.400 201.060,288.400 200.400 C 288.400 199.740,288.220 199.200,288.000 199.200 C 287.780 199.200,287.600 198.750,287.600 198.200 L 287.600 197.200 275.000 197.200 L 262.400 197.200 262.400 198.600 M327.600 222.400 L 327.600 247.600 340.600 247.600 L 353.600 247.600 353.600 222.971 C 353.600 202.160,353.511 198.254,353.029 197.771 C 352.558 197.301,350.267 197.200,340.029 197.200 L 327.600 197.200 327.600 222.400 M239.600 230.582 C 239.600 233.032,238.583 233.624,235.400 233.026 C 234.112 232.785,233.221 231.200,234.373 231.200 C 234.578 231.200,234.860 230.840,235.000 230.400 C 235.140 229.960,235.557 229.597,235.927 229.594 C 236.297 229.591,237.050 229.339,237.600 229.033 C 239.367 228.053,239.600 228.233,239.600 230.582 " stroke="none" fill="#e42c1c" fill-rule="evenodd"></path><path id="path1" d="M170.400 252.400 L 170.400 254.400 284.400 254.400 L 398.400 254.400 398.400 252.400 L 398.400 250.400 284.400 250.400 L 170.400 250.400 170.400 252.400 M174.491 265.100 L 174.600 272.200 177.800 272.140 C 183.175 272.040,185.200 271.407,185.200 269.829 C 185.200 269.483,185.380 269.200,185.600 269.200 C 186.418 269.200,186.030 266.320,185.100 265.493 C 184.490 264.950,184.361 264.635,184.700 264.513 C 185.379 264.269,185.367 260.095,184.685 259.471 C 183.360 258.260,182.249 258.000,178.396 258.000 L 174.382 258.000 174.491 265.100 M192.400 258.400 C 192.400 258.620,192.106 258.800,191.747 258.800 C 190.838 258.800,189.600 260.334,189.600 261.461 C 189.600 261.978,189.420 262.400,189.200 262.400 C 188.971 262.400,188.800 263.600,188.800 265.200 C 188.800 266.740,188.966 268.000,189.168 268.000 C 189.371 268.000,189.663 268.575,189.817 269.277 C 190.156 270.823,190.869 271.600,191.948 271.600 C 192.391 271.600,192.864 271.780,193.000 272.000 C 193.136 272.220,194.317 272.400,195.624 272.400 C 196.941 272.400,198.000 272.222,198.000 272.000 C 198.000 271.780,198.186 271.600,198.413 271.600 C 198.641 271.600,199.474 270.953,200.265 270.162 L 201.703 268.723 201.690 264.874 C 201.682 262.333,201.521 260.974,201.216 260.872 C 200.962 260.787,200.323 260.287,199.795 259.759 C 199.268 259.232,198.648 258.800,198.418 258.800 C 198.188 258.800,198.000 258.620,198.000 258.400 C 198.000 258.171,196.800 258.000,195.200 258.000 C 193.600 258.000,192.400 258.171,192.400 258.400 M205.200 265.200 L 205.200 272.400 208.376 272.400 C 210.123 272.400,211.664 272.220,211.800 272.000 C 211.936 271.780,212.405 271.600,212.842 271.600 C 213.675 271.600,215.600 269.937,215.600 269.218 C 215.600 268.988,215.780 268.800,216.000 268.800 C 216.238 268.800,216.400 267.299,216.400 265.097 L 216.400 261.394 214.987 260.097 C 214.209 259.384,213.399 258.800,213.187 258.800 C 212.974 258.800,212.800 258.620,212.800 258.400 C 212.800 258.161,211.267 258.000,209.000 258.000 L 205.200 258.000 205.200 265.200 M218.400 258.800 C 218.400 259.240,218.580 259.600,218.800 259.600 C 219.020 259.600,219.200 259.870,219.200 260.200 C 219.200 260.530,219.360 260.800,219.555 260.800 C 219.751 260.800,220.029 261.430,220.174 262.200 C 220.318 262.970,220.608 263.600,220.818 263.600 C 221.028 263.600,221.200 263.960,221.200 264.400 C 221.200 264.840,221.380 265.200,221.600 265.200 C 221.820 265.200,222.000 265.470,222.000 265.800 C 222.000 266.130,222.180 266.400,222.400 266.400 C 222.631 266.400,222.800 267.667,222.800 269.400 L 222.800 272.400 224.157 272.400 C 225.794 272.400,226.000 271.982,226.000 268.656 C 226.000 266.635,226.148 266.070,226.800 265.600 C 227.240 265.283,227.600 264.703,227.600 264.312 C 227.600 263.920,227.780 263.600,228.000 263.600 C 228.220 263.600,228.400 263.330,228.400 263.000 C 228.400 262.670,228.560 262.400,228.755 262.400 C 228.951 262.400,229.229 261.770,229.374 261.000 C 229.518 260.230,229.808 259.600,230.018 259.600 C 230.228 259.600,230.400 259.240,230.400 258.800 C 230.400 257.292,226.848 257.660,226.540 259.200 C 226.408 259.860,226.143 260.400,225.950 260.400 C 225.757 260.400,225.600 260.670,225.600 261.000 C 225.600 261.330,225.420 261.600,225.200 261.600 C 224.980 261.600,224.800 261.960,224.800 262.400 C 224.800 262.840,224.620 263.200,224.400 263.200 C 224.180 263.200,224.000 262.840,224.000 262.400 C 224.000 261.960,223.834 261.600,223.632 261.600 C 223.429 261.600,223.137 261.025,222.983 260.323 C 222.477 258.020,218.400 256.666,218.400 258.800 M242.400 258.400 C 242.400 258.620,242.130 258.800,241.800 258.800 C 241.467 258.800,241.200 259.156,241.200 259.600 C 241.200 260.040,241.020 260.400,240.800 260.400 C 240.580 260.400,240.400 261.030,240.400 261.800 C 240.400 262.570,240.580 263.200,240.800 263.200 C 241.552 263.200,241.201 264.078,240.000 265.200 C 238.786 266.334,238.175 270.000,239.200 270.000 C 239.420 270.000,239.600 270.360,239.600 270.800 C 239.600 271.333,239.867 271.600,240.400 271.600 C 240.840 271.600,241.200 271.780,241.200 272.000 C 241.200 272.222,242.267 272.400,243.600 272.400 C 244.933 272.400,246.000 272.222,246.000 272.000 C 246.000 271.780,246.360 271.600,246.800 271.600 C 247.240 271.600,247.600 271.780,247.600 272.000 C 247.600 272.220,248.343 272.400,249.250 272.400 C 250.898 272.400,250.900 272.398,250.641 271.100 C 250.498 270.385,250.206 269.740,249.991 269.667 C 249.475 269.491,249.484 267.200,250.000 267.200 C 250.220 267.200,250.400 266.570,250.400 265.800 C 250.400 264.467,250.333 264.400,249.000 264.400 C 247.867 264.400,247.600 264.552,247.600 265.200 C 247.600 266.160,247.347 266.204,246.528 265.385 C 245.974 264.831,245.997 264.696,246.756 264.038 C 248.350 262.656,247.667 258.800,245.829 258.800 C 245.483 258.800,245.200 258.620,245.200 258.400 C 245.200 258.180,244.570 258.000,243.800 258.000 C 243.030 258.000,242.400 258.180,242.400 258.400 M258.000 259.400 C 258.000 260.793,258.010 260.800,259.800 260.800 L 261.600 260.800 261.600 266.600 L 261.600 272.400 262.829 272.400 C 264.983 272.400,265.200 271.817,265.200 266.029 L 265.200 260.800 267.000 260.800 C 268.790 260.800,268.800 260.793,268.800 259.400 L 268.800 258.000 263.400 258.000 L 258.000 258.000 258.000 259.400 M271.600 265.200 L 271.600 272.400 273.000 272.400 L 274.400 272.400 274.400 269.971 C 274.400 264.884,278.743 264.884,279.200 269.971 L 279.400 272.200 281.100 272.323 C 282.746 272.442,283.850 270.422,282.406 269.933 C 281.818 269.734,281.744 263.885,282.327 263.691 C 282.872 263.509,282.981 260.800,282.443 260.800 C 282.247 260.800,281.974 260.350,281.836 259.800 C 281.674 259.154,281.304 258.800,280.792 258.800 C 280.357 258.800,280.000 258.620,280.000 258.400 C 280.000 258.159,278.333 258.000,275.800 258.000 L 271.600 258.000 271.600 265.200 M289.200 259.200 C 289.200 259.860,289.037 260.400,288.838 260.400 C 288.638 260.400,288.351 261.300,288.200 262.400 C 288.049 263.500,287.762 264.400,287.562 264.400 C 287.363 264.400,287.200 264.760,287.200 265.200 C 287.200 265.640,287.020 266.000,286.800 266.000 C 286.580 266.000,286.400 266.435,286.400 266.967 C 286.400 267.498,286.231 267.993,286.025 268.067 C 285.818 268.140,285.525 269.145,285.373 270.300 L 285.097 272.400 286.748 272.400 C 288.256 272.400,288.400 272.310,288.400 271.371 C 288.400 268.316,293.776 268.257,294.540 271.304 C 295.011 273.178,297.600 272.921,297.600 271.000 C 297.600 270.230,297.431 269.600,297.225 269.600 C 297.018 269.600,296.728 268.790,296.579 267.800 C 296.431 266.810,296.150 266.000,295.955 266.000 C 295.760 266.000,295.600 265.460,295.600 264.800 C 295.600 264.140,295.420 263.600,295.200 263.600 C 294.980 263.600,294.800 263.150,294.800 262.600 C 294.800 262.050,294.640 261.600,294.445 261.600 C 294.250 261.600,293.969 260.790,293.821 259.800 L 293.551 258.000 291.375 258.000 C 289.225 258.000,289.200 258.014,289.200 259.200 M300.491 265.100 L 300.600 272.200 301.702 272.327 C 303.803 272.568,304.000 271.908,304.000 264.629 L 304.000 258.000 302.191 258.000 L 300.382 258.000 300.491 265.100 M307.300 258.598 C 306.538 259.464,306.601 271.058,307.371 271.829 C 307.798 272.255,309.067 272.400,312.371 272.400 L 316.800 272.400 316.800 270.600 L 316.800 268.800 313.600 268.800 L 310.400 268.800 310.400 263.400 L 310.400 258.000 309.100 258.015 C 308.385 258.024,307.575 258.286,307.300 258.598 M318.891 265.100 L 319.000 272.200 324.300 272.312 L 329.600 272.423 329.600 271.012 L 329.600 269.600 326.000 269.600 L 322.400 269.600 322.400 267.800 L 322.400 266.000 325.600 266.000 L 328.800 266.000 328.800 264.843 C 328.800 263.421,328.285 263.200,324.967 263.200 L 322.400 263.200 322.400 262.000 L 322.400 260.800 325.600 260.800 L 328.800 260.800 328.800 259.400 L 328.800 258.000 323.791 258.000 L 318.782 258.000 318.891 265.100 M332.100 258.598 C 331.747 258.999,331.600 260.945,331.600 265.212 C 331.600 271.885,331.770 272.400,333.971 272.400 L 335.200 272.400 335.200 269.400 L 335.200 266.400 336.829 266.400 C 338.951 266.400,339.600 267.103,339.600 269.400 C 339.600 271.583,340.326 272.508,341.898 272.327 C 343.091 272.190,343.827 267.667,342.821 266.661 C 342.286 266.126,342.270 264.400,342.800 264.400 C 343.020 264.400,343.200 263.500,343.200 262.400 C 343.200 261.300,343.020 260.400,342.800 260.400 C 342.580 260.400,342.400 260.040,342.400 259.600 C 342.400 258.978,342.133 258.800,341.200 258.800 C 340.540 258.800,340.000 258.620,340.000 258.400 C 340.000 257.737,332.697 257.920,332.100 258.598 M356.400 264.629 C 356.400 271.934,356.542 272.400,358.771 272.400 L 360.000 272.400 360.000 265.200 L 360.000 258.000 358.200 258.000 L 356.400 258.000 356.400 264.629 M362.800 265.200 L 362.800 272.400 364.029 272.400 C 366.025 272.400,366.400 271.678,366.400 267.829 C 366.400 265.810,366.564 264.400,366.800 264.400 C 367.020 264.400,367.200 264.760,367.200 265.200 C 367.200 265.640,367.372 266.000,367.582 266.000 C 367.792 266.000,368.081 266.624,368.224 267.386 C 368.385 268.245,368.772 268.864,369.242 269.013 C 369.659 269.146,370.000 269.510,370.000 269.824 C 370.000 270.881,371.693 272.400,372.872 272.400 L 374.000 272.400 374.000 265.200 L 374.000 258.000 372.600 258.000 L 371.200 258.000 371.154 262.300 C 371.128 264.665,371.025 266.285,370.924 265.900 C 370.824 265.515,370.575 265.200,370.371 265.200 C 370.167 265.200,370.000 264.840,370.000 264.400 C 370.000 263.960,369.820 263.600,369.600 263.600 C 369.380 263.600,369.200 263.370,369.200 263.088 C 369.200 262.807,368.847 262.322,368.415 262.011 C 367.983 261.699,367.511 260.905,367.366 260.245 C 366.991 258.537,366.288 258.000,364.429 258.000 L 362.800 258.000 362.800 265.200 M380.400 258.400 C 380.400 258.620,380.207 258.800,379.971 258.800 C 379.433 258.800,378.400 259.811,378.400 260.338 C 378.400 260.555,378.181 260.806,377.914 260.895 C 377.219 261.127,377.206 268.868,377.900 269.100 C 378.175 269.192,378.400 269.612,378.400 270.033 C 378.400 270.498,378.677 270.800,379.104 270.800 C 379.491 270.800,380.032 271.160,380.307 271.600 C 380.852 272.473,386.000 272.834,386.000 272.000 C 386.000 271.780,386.283 271.600,386.629 271.600 C 387.437 271.600,388.400 270.637,388.400 269.829 C 388.400 269.483,388.591 269.200,388.825 269.200 C 389.064 269.200,389.196 268.630,389.125 267.900 C 388.947 266.055,386.858 265.777,385.978 267.480 C 384.657 270.040,383.768 270.195,381.787 268.213 C 380.404 266.830,379.689 263.200,380.800 263.200 C 381.020 263.200,381.200 262.840,381.200 262.400 C 381.200 261.867,381.467 261.600,382.000 261.600 C 382.440 261.600,382.800 261.420,382.800 261.200 C 382.800 260.350,384.533 260.858,385.626 262.028 C 387.129 263.637,388.934 263.575,389.126 261.908 C 389.264 260.712,387.721 258.800,386.618 258.800 C 386.278 258.800,386.000 258.620,386.000 258.400 C 386.000 258.171,384.800 258.000,383.200 258.000 C 381.600 258.000,380.400 258.171,380.400 258.400 M181.829 261.371 C 182.897 262.440,182.495 263.095,180.595 263.380 C 177.649 263.822,176.349 262.932,177.700 261.398 C 178.353 260.657,181.096 260.639,181.829 261.371 M197.018 261.782 C 197.558 262.322,198.000 262.952,198.000 263.182 C 198.000 263.412,198.180 263.600,198.400 263.600 C 198.620 263.600,198.800 264.230,198.800 265.000 C 198.800 265.770,198.620 266.400,198.400 266.400 C 198.180 266.400,198.000 266.678,198.000 267.018 C 198.000 267.910,196.179 269.600,195.218 269.600 C 194.768 269.600,194.400 269.420,194.400 269.200 C 194.400 268.980,194.063 268.800,193.650 268.800 C 192.795 268.800,192.400 267.421,192.400 264.431 C 192.400 261.054,194.872 259.636,197.018 261.782 M211.818 261.782 C 212.358 262.322,212.800 262.952,212.800 263.182 C 212.800 263.412,212.980 263.600,213.200 263.600 C 213.420 263.600,213.600 264.140,213.600 264.800 C 213.600 265.460,213.420 266.000,213.200 266.000 C 212.980 266.000,212.800 266.373,212.800 266.829 C 212.800 267.714,211.934 268.800,211.229 268.800 C 210.993 268.800,210.800 268.980,210.800 269.200 C 210.800 269.807,208.821 269.678,208.171 269.029 C 207.427 268.284,207.371 262.227,208.100 261.398 C 208.893 260.498,210.723 260.687,211.818 261.782 M244.800 261.600 C 244.800 262.040,244.620 262.400,244.400 262.400 C 244.180 262.400,244.000 262.040,244.000 261.600 C 244.000 261.160,244.180 260.800,244.400 260.800 C 244.620 260.800,244.800 261.160,244.800 261.600 M278.957 261.433 C 279.657 263.255,279.313 263.600,276.800 263.600 C 274.260 263.600,273.617 262.855,274.900 261.398 C 275.608 260.594,278.645 260.620,278.957 261.433 M339.477 261.840 C 340.792 263.156,340.259 263.585,337.300 263.594 L 335.200 263.600 335.200 262.200 C 335.200 260.327,337.749 260.113,339.477 261.840 M292.000 264.767 C 292.000 265.408,292.225 266.024,292.500 266.135 C 292.775 266.246,292.289 266.351,291.420 266.368 C 290.191 266.393,289.947 266.293,290.320 265.920 C 290.584 265.656,290.800 265.026,290.800 264.520 C 290.800 263.969,291.041 263.600,291.400 263.600 C 291.796 263.600,292.000 263.996,292.000 264.767 M181.150 266.250 C 182.683 266.557,183.079 268.800,181.600 268.800 C 181.160 268.800,180.800 268.980,180.800 269.200 C 180.800 269.811,178.419 269.676,177.771 269.029 C 175.848 267.105,177.722 265.564,181.150 266.250 M243.818 267.382 C 245.115 268.679,245.096 269.600,243.771 269.600 C 242.605 269.600,241.079 268.374,241.904 268.099 C 242.177 268.008,242.400 267.588,242.400 267.167 C 242.400 266.163,242.636 266.199,243.818 267.382 M345.200 270.029 C 345.200 270.704,345.457 271.514,345.771 271.829 C 347.162 273.219,348.800 272.555,348.800 270.600 L 348.800 268.800 347.000 268.800 C 345.257 268.800,345.200 268.839,345.200 270.029 M390.400 270.029 C 390.400 270.704,390.657 271.514,390.971 271.829 C 392.362 273.219,394.000 272.555,394.000 270.600 L 394.000 268.800 392.200 268.800 C 390.457 268.800,390.400 268.839,390.400 270.029 " stroke="none" fill="#241c24" fill-rule="evenodd"></path></g></svg>