<svg id="svg" version="1.1" xmlns="http://www.w3.org/2000/svg"  width="400" height="400" viewBox="0, 0, 400,400"><g id="svgg"><path id="path0" d="M21.947 152.651 C 10.071 166.467,0.248 178.073,0.118 178.443 C -0.029 178.861,12.994 179.115,34.631 179.115 C 57.865 179.115,69.381 179.355,69.381 179.840 C 69.381 180.432,44.544 267.326,43.534 270.265 C 43.293 270.969,55.974 271.150,105.399 271.150 L 167.567 271.150 155.061 225.310 L 142.555 179.469 177.244 179.115 L 211.934 178.761 189.684 153.121 L 167.434 127.482 105.487 127.507 L 43.540 127.532 21.947 152.651 M327.788 187.965 L 327.788 195.398 340.531 195.398 L 353.274 195.398 353.274 187.965 L 353.274 180.531 340.531 180.531 L 327.788 180.531 327.788 187.965 M200.895 196.796 C 199.830 197.125,197.838 198.086,196.470 198.932 L 193.982 200.469 193.982 198.996 C 193.982 197.562,193.663 197.522,182.301 197.522 L 170.619 197.522 170.619 222.301 L 170.619 247.080 183.009 247.080 L 195.398 247.080 195.398 235.363 C 195.398 219.226,196.928 216.763,206.469 217.528 L 210.904 217.885 210.609 216.022 C 210.446 214.997,209.955 210.336,209.516 205.664 C 209.077 200.991,208.668 197.125,208.607 197.072 C 207.982 196.532,202.394 196.332,200.895 196.796 M234.357 196.861 C 225.415 197.701,216.504 199.423,215.881 200.433 C 215.265 201.429,214.232 214.468,214.729 214.965 C 214.925 215.161,217.143 214.685,219.658 213.908 C 229.311 210.926,239.292 210.329,239.292 212.732 C 239.292 214.344,237.272 215.020,230.796 215.577 C 215.691 216.875,208.614 222.407,208.614 232.916 C 208.614 243.066,215.281 247.792,229.592 247.785 L 235.398 247.782 237.360 240.882 C 239.710 232.618,239.697 233.039,237.601 233.440 C 232.914 234.336,232.184 231.238,236.550 228.980 C 239.940 227.227,240.000 227.376,240.000 237.522 L 240.000 247.080 252.035 247.080 L 264.071 247.080 264.071 227.588 C 264.071 205.922,263.925 205.069,259.571 201.247 C 254.991 197.225,246.397 195.730,234.357 196.861 M373.604 196.884 C 353.918 199.735,351.839 217.119,369.961 227.346 C 372.075 228.539,373.983 229.804,374.201 230.156 C 375.033 231.503,364.980 230.768,360.177 229.131 C 357.549 228.236,355.405 227.686,355.413 227.911 C 355.541 231.385,358.261 244.581,359.002 245.317 C 360.586 246.892,369.890 247.985,378.407 247.597 C 402.075 246.518,407.327 229.596,387.687 217.699 C 385.116 216.142,383.011 214.628,383.011 214.336 C 383.008 213.567,391.384 213.685,395.770 214.517 C 397.833 214.908,399.608 215.142,399.713 215.036 C 399.921 214.828,397.892 198.718,397.624 198.450 C 396.505 197.331,378.587 196.163,373.604 196.884 M262.680 198.407 C 262.694 198.894,266.932 209.965,272.098 223.009 L 281.491 246.726 294.592 246.918 L 307.692 247.110 316.782 223.201 C 321.782 210.051,326.022 198.886,326.204 198.391 C 326.467 197.677,323.832 197.530,313.569 197.683 L 300.602 197.876 297.711 208.638 C 296.120 214.557,294.641 219.577,294.424 219.794 C 294.207 220.011,292.496 215.089,290.621 208.855 L 287.213 197.522 274.934 197.522 C 265.569 197.522,262.661 197.732,262.680 198.407 M327.788 222.285 L 327.788 247.080 340.540 247.080 L 353.293 247.080 353.107 222.478 L 352.920 197.876 340.354 197.683 L 327.788 197.489 327.788 222.285 M170.619 252.389 L 170.619 254.159 284.248 254.159 L 397.876 254.159 397.876 252.389 L 397.876 250.619 284.248 250.619 L 170.619 250.619 170.619 252.389 M174.867 265.133 L 174.867 271.858 177.257 271.858 C 183.471 271.858,186.933 269.382,185.014 266.309 C 184.603 265.651,184.426 264.030,184.620 262.706 C 185.086 259.531,183.520 258.407,178.626 258.407 L 174.867 258.407 174.867 265.133 M191.207 259.646 C 188.004 262.265,188.764 269.840,192.369 271.210 C 197.406 273.125,201.180 270.522,201.180 265.133 C 201.180 259.394,195.404 256.216,191.207 259.646 M205.310 265.220 L 205.310 272.034 209.321 271.701 C 219.152 270.886,218.620 258.407,208.754 258.407 L 205.310 258.407 205.310 265.220 M220.875 262.635 C 222.071 265.004,223.009 267.983,223.009 269.412 C 223.009 273.181,225.352 272.563,225.841 268.666 C 226.035 267.112,227.076 264.168,228.154 262.124 C 230.049 258.528,230.065 258.407,228.650 258.407 C 227.618 258.407,226.800 259.272,225.873 261.342 L 224.559 264.278 223.062 261.342 C 222.062 259.383,221.095 258.407,220.152 258.407 C 218.823 258.407,218.865 258.653,220.875 262.635 M241.783 259.557 C 241.015 260.325,240.774 261.344,241.056 262.630 C 241.339 263.916,241.117 264.854,240.385 265.461 C 238.974 266.632,238.984 269.325,240.405 270.746 C 241.683 272.024,245.016 272.223,246.150 271.089 C 246.704 270.535,247.053 270.535,247.396 271.089 C 247.657 271.512,248.526 271.858,249.327 271.858 C 250.689 271.858,250.713 271.752,249.701 270.208 C 249.000 269.138,248.843 268.203,249.254 267.553 C 249.604 267.000,249.895 266.150,249.901 265.664 C 249.917 264.326,248.007 264.603,247.462 266.018 C 247.013 267.182,246.940 267.178,246.251 265.949 C 245.736 265.033,245.751 264.409,246.298 263.861 C 247.540 262.619,247.206 259.941,245.710 259.140 C 243.840 258.139,243.125 258.215,241.783 259.557 M258.407 259.469 C 258.407 260.130,259.076 260.531,260.177 260.531 C 261.919 260.531,261.947 260.622,261.947 266.247 C 261.947 274.623,264.314 274.415,264.632 266.010 C 264.831 260.719,264.898 260.531,266.578 260.531 C 267.653 260.531,268.319 260.125,268.319 259.469 C 268.319 258.626,267.296 258.407,263.363 258.407 C 259.430 258.407,258.407 258.626,258.407 259.469 M271.858 265.133 C 271.858 272.204,273.607 275.356,274.117 269.204 C 274.488 264.713,279.646 265.289,279.646 269.821 C 279.646 271.393,279.973 271.858,281.075 271.858 C 282.202 271.858,282.422 271.520,282.114 270.265 C 281.538 267.914,281.534 264.634,282.106 262.897 C 282.974 260.261,280.350 258.407,275.752 258.407 L 271.858 258.407 271.858 265.133 M287.862 264.250 C 286.734 267.461,285.665 270.487,285.485 270.973 C 285.293 271.494,285.738 271.858,286.567 271.858 C 287.381 271.858,288.133 271.260,288.347 270.442 C 288.629 269.361,289.312 269.027,291.236 269.027 C 293.031 269.027,293.973 269.434,294.513 270.442 C 295.185 271.697,297.345 272.480,297.345 271.469 C 297.345 271.255,296.349 268.228,295.132 264.743 C 292.111 256.091,290.758 255.999,287.862 264.250 M300.885 265.185 C 300.885 271.258,301.014 271.938,302.124 271.725 C 304.177 271.332,304.375 258.407,302.327 258.407 C 300.977 258.407,300.885 258.837,300.885 265.185 M307.557 259.355 C 307.357 259.876,307.287 262.823,307.402 265.903 L 307.611 271.504 312.035 271.715 C 316.091 271.908,316.460 271.805,316.460 270.476 C 316.460 269.230,316.013 269.027,313.274 269.027 L 310.088 269.027 310.088 263.717 C 310.088 258.589,308.741 256.268,307.557 259.355 M319.292 265.133 L 319.292 271.858 324.248 271.858 C 328.181 271.858,329.204 271.639,329.204 270.796 C 329.204 269.994,328.338 269.735,325.664 269.735 C 322.203 269.735,322.124 269.687,322.124 267.611 C 322.124 265.560,322.235 265.487,325.369 265.487 C 329.547 265.487,329.302 263.810,325.078 263.499 C 320.549 263.165,320.755 260.531,325.310 260.531 C 327.670 260.531,328.496 260.256,328.496 259.469 C 328.496 258.634,327.512 258.407,323.894 258.407 L 319.292 258.407 319.292 265.133 M332.335 259.355 C 331.377 261.851,332.385 271.488,333.628 271.726 C 334.647 271.920,334.867 271.441,334.867 269.034 C 334.867 264.873,339.227 264.859,339.823 269.019 C 340.318 272.473,342.659 272.963,342.644 269.609 C 342.638 268.315,342.349 266.807,342.001 266.258 C 341.617 265.651,341.662 264.790,342.115 264.064 C 343.217 262.300,342.225 259.355,340.362 258.855 C 337.424 258.068,332.717 258.361,332.335 259.355 M356.965 264.948 C 357.138 270.518,357.352 271.523,358.407 271.725 C 359.517 271.938,359.646 271.258,359.646 265.185 C 359.646 258.837,359.554 258.407,358.204 258.407 C 356.842 258.407,356.772 258.772,356.965 264.948 M363.186 265.185 C 363.186 273.560,365.355 275.166,366.018 267.282 L 366.372 263.072 368.850 267.282 C 372.740 273.893,373.805 273.442,373.805 265.185 C 373.805 259.632,373.613 258.407,372.743 258.407 C 371.917 258.407,371.681 259.351,371.681 262.655 C 371.681 267.956,371.207 267.955,368.291 262.646 C 364.576 255.883,363.186 256.574,363.186 265.185 M380.053 259.142 C 377.042 260.899,376.806 267.809,379.666 270.474 C 382.503 273.117,388.673 271.399,388.673 267.965 C 388.673 266.420,386.726 266.664,385.841 268.319 C 384.208 271.370,380.177 268.973,380.177 264.951 C 380.177 261.242,383.778 259.107,385.841 261.593 C 386.962 262.945,388.673 262.969,388.673 261.633 C 388.673 259.129,382.923 257.467,380.053 259.142 M182.511 262.059 C 182.667 262.879,182.059 263.381,180.500 263.724 C 177.985 264.276,176.572 263.352,177.246 261.595 C 177.848 260.027,182.199 260.410,182.511 262.059 M197.836 262.104 C 200.798 266.334,196.475 272.126,192.971 268.622 C 191.660 267.311,191.489 262.600,192.708 261.381 C 194.060 260.029,196.637 260.393,197.836 262.104 M212.790 262.272 C 215.025 265.684,212.001 270.824,208.541 269.496 C 207.404 269.060,206.878 262.030,207.906 261.003 C 208.991 259.918,211.710 260.624,212.790 262.272 M244.956 261.551 C 244.956 262.112,244.671 262.748,244.322 262.963 C 243.593 263.413,242.714 261.592,243.353 260.954 C 244.112 260.195,244.956 260.509,244.956 261.551 M279.518 262.478 C 279.721 263.906,279.446 264.071,276.863 264.071 C 274.542 264.071,273.982 263.819,273.982 262.773 C 273.982 259.883,279.111 259.610,279.518 262.478 M339.797 261.562 C 341.055 263.078,340.069 264.071,337.303 264.071 C 335.177 264.071,334.867 263.846,334.867 262.301 C 334.867 260.235,338.273 259.725,339.797 261.562 M292.705 265.310 C 293.123 266.675,292.932 266.903,291.375 266.903 C 289.266 266.903,289.326 267.069,290.365 264.089 C 291.199 261.696,291.676 261.945,292.705 265.310 M181.535 265.916 C 182.151 266.153,182.655 266.915,182.655 267.611 C 182.655 269.747,178.009 270.659,177.247 268.673 C 176.280 266.152,178.474 264.742,181.535 265.916 M244.494 267.491 C 245.781 268.914,245.405 269.735,243.464 269.735 C 241.905 269.735,241.276 268.798,241.843 267.321 C 242.405 265.858,243.053 265.899,244.494 267.491 M345.620 270.257 C 345.975 272.103,348.319 272.309,348.319 270.494 C 348.319 269.481,347.864 269.027,346.851 269.027 C 345.838 269.027,345.456 269.408,345.620 270.257 M390.930 270.257 C 391.285 272.103,393.628 272.309,393.628 270.494 C 393.628 269.481,393.174 269.027,392.160 269.027 C 391.147 269.027,390.766 269.408,390.930 270.257 " stroke="none" fill-rule="evenodd"></path></g></svg>