<svg id="svg" version="1.1" xmlns="http://www.w3.org/2000/svg"  width="400" height="400" viewBox="0, 0, 400,400"><g id="svgg"><path id="path0" d="M42.600 160.065 C 38.944 160.979,38.617 161.254,36.529 165.178 C 34.302 169.366,33.426 170.962,31.723 173.938 C 29.079 178.559,28.868 178.940,27.379 181.768 C 26.578 183.290,25.714 184.745,25.461 185.001 C 25.207 185.257,24.460 186.621,23.800 188.033 C 23.140 189.445,22.399 190.731,22.152 190.891 C 21.906 191.050,21.465 191.770,21.171 192.491 C 20.878 193.211,19.999 194.880,19.219 196.200 C 18.438 197.520,17.350 199.446,16.800 200.481 C 15.262 203.374,12.840 207.732,12.398 208.400 C 11.826 209.266,7.340 217.257,4.762 222.000 C 3.865 223.650,2.439 226.260,1.592 227.800 C 0.085 230.542,0.052 230.688,0.026 234.880 L 0.000 239.159 1.338 240.180 L 2.676 241.200 179.329 241.200 L 355.983 241.200 358.573 240.350 C 362.078 239.199,366.800 233.764,366.800 230.880 C 366.800 230.638,367.032 230.296,367.316 230.120 C 367.600 229.944,368.343 228.630,368.967 227.200 C 369.591 225.770,370.436 224.231,370.844 223.781 C 371.253 223.330,371.703 222.385,371.844 221.681 C 371.985 220.976,372.244 220.400,372.419 220.400 C 372.594 220.400,372.946 219.770,373.200 219.000 C 373.454 218.230,373.794 217.600,373.955 217.600 C 374.116 217.600,374.952 216.070,375.812 214.200 C 376.672 212.330,377.489 210.800,377.627 210.800 C 377.766 210.800,378.312 209.707,378.840 208.371 C 379.368 207.036,380.096 205.623,380.459 205.232 C 380.821 204.842,381.698 203.200,382.407 201.584 C 383.116 199.969,383.955 198.388,384.271 198.072 C 384.587 197.756,384.751 197.250,384.636 196.948 C 384.520 196.647,384.610 196.400,384.835 196.400 C 385.061 196.400,385.620 195.552,386.079 194.515 C 386.537 193.479,387.136 192.407,387.410 192.133 C 387.683 191.860,388.233 190.728,388.632 189.618 C 389.031 188.508,389.502 187.600,389.679 187.600 C 389.856 187.600,390.000 187.330,390.000 187.000 C 390.000 186.670,390.147 186.400,390.328 186.400 C 390.508 186.400,391.266 185.005,392.013 183.300 C 392.760 181.595,393.690 179.853,394.081 179.429 C 394.471 179.006,394.895 178.286,395.023 177.829 C 395.385 176.536,396.548 174.400,396.891 174.400 C 397.061 174.400,397.200 174.219,397.200 173.998 C 397.200 173.777,397.631 172.702,398.158 171.610 C 398.701 170.485,399.235 168.443,399.390 166.904 L 399.663 164.184 398.004 162.299 C 394.993 158.878,413.535 159.196,219.027 159.232 C 47.200 159.265,45.774 159.271,42.600 160.065 M393.339 165.149 C 394.313 165.958,393.798 170.800,392.737 170.800 C 392.552 170.800,392.400 170.993,392.400 171.228 C 392.400 171.463,391.885 172.408,391.255 173.328 C 390.625 174.248,389.718 175.720,389.239 176.600 C 388.761 177.480,387.747 179.280,386.987 180.600 C 386.226 181.920,385.198 183.810,384.702 184.800 C 384.207 185.790,383.711 186.690,383.600 186.800 C 383.490 186.910,382.517 188.710,381.438 190.800 C 377.413 198.598,374.687 203.711,374.400 203.999 C 374.290 204.109,373.843 204.920,373.406 205.800 C 372.970 206.680,372.115 208.263,371.506 209.318 C 370.898 210.372,370.400 211.424,370.400 211.656 C 370.400 211.887,370.052 212.566,369.626 213.164 C 369.200 213.762,368.153 215.589,367.299 217.225 C 363.367 224.761,361.941 227.586,360.852 230.000 C 359.374 233.276,357.077 236.000,355.792 236.000 C 355.273 236.000,354.736 236.180,354.600 236.400 C 354.202 237.045,6.472 236.945,5.083 236.300 C 3.354 235.497,3.584 233.386,5.800 229.736 C 6.790 228.106,7.600 226.607,7.600 226.406 C 7.600 226.204,7.846 225.896,8.147 225.720 C 8.448 225.544,9.274 224.320,9.983 223.000 C 12.223 218.829,12.593 218.203,12.900 218.067 C 13.065 217.993,13.200 217.623,13.200 217.244 C 13.200 216.865,13.662 215.935,14.227 215.178 C 14.792 214.420,15.699 212.868,16.243 211.728 C 16.787 210.589,17.359 209.599,17.516 209.528 C 17.672 209.458,18.333 208.320,18.985 207.000 C 19.636 205.680,20.470 204.150,20.838 203.600 C 21.706 202.300,24.169 197.892,25.307 195.600 C 25.798 194.610,26.294 193.710,26.408 193.600 C 26.523 193.490,26.831 192.950,27.094 192.400 C 27.717 191.094,29.905 187.273,30.758 186.000 C 31.127 185.450,31.833 184.190,32.329 183.200 C 32.825 182.210,33.448 181.047,33.715 180.615 C 35.307 178.038,35.931 176.837,36.370 175.500 C 36.640 174.675,37.028 174.000,37.231 174.000 C 37.434 174.000,37.600 173.755,37.600 173.456 C 37.600 170.949,42.044 165.361,44.342 164.978 C 45.144 164.844,45.980 164.673,46.200 164.598 C 47.659 164.099,392.734 164.647,393.339 165.149 M197.000 177.200 C 196.560 177.389,195.778 177.556,195.262 177.572 C 191.807 177.675,185.247 182.571,183.613 186.264 C 181.996 189.919,182.633 196.010,184.908 198.646 C 186.820 200.862,192.563 203.942,194.868 203.987 C 195.235 203.994,196.045 204.262,196.668 204.583 C 197.290 204.904,199.240 205.462,201.000 205.823 C 207.324 207.123,209.498 208.822,207.691 211.053 C 204.712 214.731,194.000 212.306,194.000 207.953 C 194.000 207.017,194.458 206.996,188.400 208.198 C 186.530 208.569,184.010 209.068,182.800 209.306 C 181.590 209.543,180.545 209.777,180.477 209.825 C 179.726 210.357,182.097 214.518,184.573 217.013 C 187.107 219.567,188.382 220.402,192.200 222.009 C 194.606 223.022,206.276 223.571,209.000 222.799 C 209.880 222.550,211.230 222.162,212.000 221.937 C 213.758 221.423,217.966 218.921,218.915 217.826 C 219.309 217.372,220.046 216.550,220.554 216.000 C 223.916 212.359,223.994 204.247,220.705 200.400 C 218.098 197.351,213.984 195.740,202.200 193.152 C 197.407 192.100,195.898 189.517,198.968 187.620 C 201.484 186.065,206.888 186.966,208.400 189.193 C 209.953 191.480,209.795 191.392,211.453 190.894 C 212.304 190.638,214.350 190.132,216.000 189.769 C 221.956 188.458,222.386 187.920,220.165 184.574 C 217.838 181.068,214.151 178.622,209.280 177.352 C 206.944 176.743,198.312 176.636,197.000 177.200 M44.400 200.000 L 44.400 222.400 51.600 222.400 L 58.800 222.400 58.800 214.400 L 58.800 206.400 64.175 206.400 C 71.469 206.400,76.268 205.204,78.975 202.714 C 79.402 202.321,79.987 202.000,80.275 202.000 C 80.564 202.000,80.800 201.801,80.800 201.558 C 80.800 201.314,81.301 200.459,81.912 199.658 C 83.937 197.004,84.201 196.120,84.186 192.038 C 84.171 188.051,82.819 183.889,81.357 183.328 C 81.051 183.211,80.798 182.909,80.795 182.657 C 80.792 182.406,80.117 181.751,79.295 181.201 C 74.578 178.049,71.735 177.600,56.500 177.600 L 44.400 177.600 44.400 200.000 M89.297 199.900 L 89.400 222.200 96.651 222.309 C 103.895 222.418,103.902 222.417,104.146 221.509 C 104.472 220.292,104.469 183.181,104.143 180.059 L 103.886 177.600 96.540 177.600 L 89.193 177.600 89.297 199.900 M108.400 182.787 L 108.400 187.975 113.100 188.087 L 117.800 188.200 117.904 205.300 L 118.009 222.400 125.200 222.400 L 132.391 222.400 132.496 205.300 L 132.600 188.200 137.262 188.088 L 141.924 187.975 142.062 186.088 C 142.138 185.049,142.141 182.715,142.070 180.900 L 141.939 177.600 125.170 177.600 L 108.400 177.600 108.400 182.787 M145.452 178.500 C 145.138 179.671,145.141 183.250,145.458 185.887 L 145.708 187.975 150.154 188.087 L 154.600 188.200 154.800 205.200 L 155.000 222.200 162.300 222.309 L 169.600 222.418 169.605 206.109 C 169.612 185.912,169.054 188.000,174.447 188.000 L 178.800 188.000 178.800 182.800 L 178.800 177.600 162.247 177.600 L 145.693 177.600 145.452 178.500 M234.834 180.473 C 234.256 182.131,234.669 182.386,237.944 182.394 L 240.488 182.400 240.266 183.700 C 240.144 184.415,239.846 185.900,239.604 187.000 C 239.362 188.100,239.007 189.810,238.815 190.800 C 238.623 191.790,238.276 193.320,238.043 194.200 C 237.134 197.631,237.323 198.058,239.692 197.921 L 241.785 197.800 242.238 195.749 C 242.488 194.621,242.817 193.495,242.970 193.248 C 243.123 193.000,243.410 191.943,243.608 190.899 C 245.364 181.615,244.917 182.400,248.443 182.400 C 251.216 182.400,251.243 182.390,251.784 181.104 C 252.589 179.190,252.633 179.200,243.616 179.200 L 235.278 179.200 234.834 180.473 M286.267 179.467 C 285.205 180.528,286.037 182.400,287.571 182.400 C 289.373 182.400,290.400 181.591,290.400 180.171 C 290.400 179.207,287.090 178.643,286.267 179.467 M295.698 179.700 C 295.289 180.211,294.205 184.254,293.591 187.559 C 292.861 191.487,292.050 195.047,291.647 196.093 C 291.158 197.361,291.911 198.005,293.874 197.994 C 295.865 197.983,296.027 197.633,297.199 190.800 C 297.369 189.810,297.694 188.460,297.921 187.800 C 298.608 185.806,299.600 181.336,299.600 180.234 C 299.600 179.074,296.535 178.654,295.698 179.700 M252.542 184.026 C 251.947 184.246,251.639 184.822,251.452 186.066 C 251.148 188.076,250.559 190.707,249.573 194.457 C 248.776 197.488,248.993 198.000,251.071 198.000 C 252.667 198.000,253.452 196.969,253.812 194.400 C 254.420 190.071,255.751 188.227,258.983 187.238 C 261.312 186.526,261.405 186.446,261.524 185.050 C 261.691 183.100,259.465 183.159,257.069 185.167 C 256.405 185.724,256.278 185.703,255.669 184.943 C 254.876 183.951,253.687 183.602,252.542 184.026 M267.385 184.148 C 265.908 184.697,264.000 186.158,264.000 186.739 C 264.000 187.665,266.824 187.736,268.479 186.852 C 270.599 185.721,272.685 185.752,274.167 186.938 C 276.110 188.492,275.399 189.200,271.897 189.200 C 263.596 189.200,258.917 193.392,263.284 196.917 C 265.557 198.751,272.000 198.595,272.000 196.706 C 272.000 196.088,273.022 196.424,273.507 197.200 C 274.796 199.263,277.355 198.052,277.735 195.200 C 277.866 194.210,278.175 192.590,278.420 191.600 C 279.372 187.752,279.345 187.034,278.200 185.672 C 277.611 184.973,276.796 184.400,276.388 184.400 C 275.981 184.400,275.536 184.220,275.400 184.000 C 275.069 183.464,268.917 183.578,267.385 184.148 M285.494 184.397 C 284.787 184.953,284.418 185.709,284.274 186.897 C 283.924 189.777,282.900 194.941,282.451 196.093 C 281.952 197.374,282.706 198.000,284.750 198.000 C 286.413 198.000,286.929 196.799,287.845 190.800 C 287.996 189.810,288.362 188.645,288.660 188.211 C 290.665 185.283,288.178 182.286,285.494 184.397 M306.487 184.172 C 302.659 185.562,299.871 190.743,301.158 194.074 C 302.478 197.492,308.363 199.562,311.746 197.798 C 312.376 197.469,313.108 197.200,313.374 197.200 C 314.133 197.200,316.400 195.000,316.400 194.264 C 316.400 193.078,313.468 193.401,311.537 194.800 C 308.724 196.837,305.200 195.602,305.200 192.580 L 305.200 191.200 311.600 191.200 L 318.000 191.200 317.997 189.700 C 317.994 187.679,315.728 184.400,314.335 184.400 C 313.957 184.400,313.536 184.220,313.400 184.000 C 313.065 183.457,308.116 183.581,306.487 184.172 M324.134 183.880 C 323.134 184.073,322.803 184.700,322.384 187.200 C 321.497 192.495,321.080 194.319,320.496 195.469 C 319.682 197.072,320.296 198.000,322.173 198.000 C 323.868 198.000,324.678 197.295,324.931 195.600 C 325.874 189.281,326.645 188.191,331.000 187.027 C 333.013 186.490,333.760 183.600,331.886 183.600 C 330.764 183.600,328.699 184.558,327.997 185.404 C 327.396 186.128,326.800 185.816,326.800 184.776 C 326.800 184.349,326.635 184.000,326.433 184.000 C 326.231 184.000,325.826 183.935,325.533 183.856 C 325.240 183.777,324.610 183.788,324.134 183.880 M338.200 184.000 C 338.064 184.220,337.654 184.400,337.289 184.400 C 335.109 184.400,333.875 188.857,335.605 190.485 C 336.355 191.189,340.675 192.800,341.816 192.800 C 343.507 192.800,344.018 194.434,342.614 195.354 C 340.863 196.501,336.000 195.476,336.000 193.960 C 336.000 193.762,335.648 193.600,335.219 193.600 C 334.099 193.600,332.400 194.445,332.400 195.002 C 332.400 197.215,340.704 199.304,343.653 197.834 C 344.351 197.485,345.120 197.194,345.361 197.187 C 346.353 197.157,348.400 194.666,348.400 193.490 C 348.400 191.749,344.117 189.200,341.191 189.200 C 340.198 189.200,338.800 188.155,338.800 187.413 C 338.800 185.708,344.055 185.652,345.256 187.345 C 345.557 187.769,348.270 187.333,348.595 186.809 C 348.898 186.318,346.774 184.400,345.928 184.400 C 345.553 184.400,345.136 184.220,345.000 184.000 C 344.864 183.780,343.334 183.600,341.600 183.600 C 339.866 183.600,338.336 183.780,338.200 184.000 M313.005 187.059 C 314.336 188.830,314.092 188.991,309.900 189.114 C 306.926 189.202,306.001 189.107,306.006 188.714 C 306.036 186.218,311.418 184.945,313.005 187.059 M66.844 188.690 C 68.765 189.824,69.129 192.903,67.598 195.053 C 66.808 196.162,63.118 196.998,60.649 196.628 L 58.800 196.351 58.800 192.442 C 58.800 190.292,58.920 188.413,59.067 188.267 C 59.666 187.667,65.666 187.994,66.844 188.690 M274.399 191.543 C 274.390 193.027,270.791 196.000,269.002 196.000 C 266.675 196.000,265.707 193.529,267.513 192.200 C 268.970 191.128,274.404 190.609,274.399 191.543 M233.467 202.267 C 233.097 202.637,233.143 205.291,233.531 205.901 C 233.784 206.300,246.268 206.382,294.624 206.301 L 355.400 206.200 355.521 204.100 L 355.642 202.000 294.688 202.000 C 261.163 202.000,233.613 202.120,233.467 202.267 M243.910 209.459 C 239.757 211.182,241.181 216.800,245.770 216.800 C 249.402 216.800,249.846 221.686,246.268 222.266 C 244.753 222.512,242.301 221.360,241.852 220.192 C 241.526 219.342,240.400 219.461,240.400 220.345 C 240.400 223.167,246.821 224.683,249.341 222.456 C 252.337 219.810,251.127 216.179,247.000 215.431 C 244.528 214.983,243.600 214.212,243.600 212.605 C 243.600 210.257,246.624 209.534,248.638 211.400 C 249.763 212.443,251.482 212.812,250.963 211.900 C 249.444 209.231,246.727 208.291,243.910 209.459 M310.528 209.422 C 306.357 211.249,306.269 217.318,310.400 218.238 C 312.483 218.702,313.200 218.730,313.200 218.345 C 313.200 218.155,313.669 218.000,314.243 218.000 C 315.029 218.000,315.226 218.155,315.043 218.633 C 314.909 218.981,314.800 219.404,314.800 219.573 C 314.800 221.647,310.580 223.084,308.960 221.562 C 307.956 220.619,305.929 220.797,306.899 221.744 C 311.542 226.274,317.204 222.415,317.199 214.723 C 317.195 210.431,314.008 207.898,310.528 209.422 M333.300 209.664 C 332.365 210.118,331.600 210.711,331.600 210.982 C 331.600 211.254,331.240 211.802,330.800 212.200 C 330.360 212.598,330.000 213.245,330.000 213.638 C 330.000 214.031,329.820 214.464,329.600 214.600 C 328.996 214.973,329.120 219.489,329.768 220.720 C 331.573 224.149,337.191 224.517,338.700 221.305 C 339.296 220.037,339.370 216.400,338.800 216.400 C 338.580 216.400,338.400 216.163,338.400 215.874 C 338.400 214.519,334.341 213.555,332.976 214.587 C 330.986 216.092,331.109 214.150,333.138 212.017 C 334.945 210.118,336.229 209.940,337.600 211.400 C 338.694 212.564,339.603 212.701,339.594 211.700 C 339.574 209.384,336.156 208.279,333.300 209.664 M301.300 209.688 C 300.805 209.927,300.400 210.275,300.400 210.461 C 300.400 210.648,300.060 210.800,299.644 210.800 C 298.633 210.800,297.003 212.157,297.347 212.714 C 297.544 213.034,298.037 213.010,299.115 212.630 L 300.610 212.103 300.294 214.751 C 300.121 216.208,299.849 218.390,299.690 219.600 L 299.400 221.800 297.490 222.000 C 293.934 222.372,295.475 222.997,300.236 223.113 C 303.870 223.202,304.839 223.115,304.707 222.713 C 304.614 222.431,303.770 222.144,302.831 222.075 L 301.123 221.950 301.347 220.275 C 301.470 219.354,301.766 217.430,302.005 216.000 C 302.691 211.898,302.903 209.198,302.537 209.227 C 302.352 209.242,301.795 209.449,301.300 209.688 M254.600 210.000 C 254.464 210.220,254.464 210.580,254.600 210.800 C 255.018 211.476,255.895 211.244,256.116 210.400 C 256.340 209.543,255.087 209.212,254.600 210.000 M319.455 210.200 C 319.262 210.704,319.766 210.800,322.613 210.800 C 326.396 210.800,326.597 210.992,324.900 212.990 C 322.865 215.387,322.532 215.853,322.298 216.628 C 322.171 217.053,321.611 218.614,321.055 220.098 C 320.125 222.580,320.098 222.823,320.722 223.144 C 321.797 223.696,322.400 223.236,322.400 221.867 C 322.401 220.517,323.629 216.902,324.236 216.463 C 324.436 216.318,324.948 215.576,325.373 214.814 C 325.799 214.052,326.834 212.775,327.673 211.976 C 330.019 209.745,329.821 209.600,324.443 209.600 C 320.583 209.600,319.642 209.713,319.455 210.200 M314.881 211.690 C 316.302 213.535,315.420 216.113,313.200 216.600 C 309.104 217.500,307.433 213.585,310.753 210.871 C 311.676 210.117,314.031 210.584,314.881 211.690 M261.683 213.408 C 260.942 213.943,260.651 213.974,260.166 213.572 C 259.177 212.751,258.694 213.691,258.152 217.494 C 257.877 219.422,257.529 221.495,257.379 222.100 C 257.173 222.935,257.252 223.200,257.711 223.200 C 258.408 223.200,258.785 222.446,259.211 220.200 C 259.918 216.470,261.550 214.000,263.307 214.000 C 265.034 214.000,265.286 216.190,264.193 221.700 C 263.820 223.579,264.686 223.778,265.708 222.048 C 266.531 220.654,266.862 214.302,266.148 213.588 C 265.350 212.790,262.689 212.683,261.683 213.408 M271.724 213.079 C 271.166 213.188,270.535 213.894,269.989 215.022 C 269.517 215.998,268.966 216.897,268.765 217.021 C 268.167 217.391,268.345 220.256,269.000 220.800 C 269.330 221.074,269.600 221.480,269.600 221.702 C 269.600 223.807,274.136 224.096,275.853 222.100 C 277.703 219.949,276.575 219.139,274.600 221.200 C 272.399 223.498,270.800 222.478,270.800 218.778 C 270.800 214.706,273.364 212.621,275.200 215.200 C 276.077 216.431,277.600 216.839,277.600 215.842 C 277.600 213.839,274.739 212.493,271.724 213.079 M281.828 213.090 C 281.027 213.294,280.000 214.147,280.000 214.608 C 280.000 214.754,279.640 215.331,279.200 215.891 C 277.111 218.547,278.911 223.030,282.244 223.472 C 284.898 223.824,287.663 222.196,286.795 220.792 C 286.535 220.371,286.163 220.486,285.059 221.328 C 282.850 223.013,280.805 222.411,280.237 219.909 C 279.939 218.598,280.355 218.451,284.800 218.301 C 288.257 218.185,288.672 217.620,287.390 214.778 C 286.556 212.929,284.686 212.361,281.828 213.090 M253.807 215.900 C 253.649 217.385,253.268 219.207,252.960 219.949 C 252.152 221.895,252.229 223.200,253.153 223.200 C 254.005 223.200,254.338 222.399,254.815 219.200 C 255.781 212.720,255.774 213.200,254.899 213.200 C 254.199 213.200,254.056 213.555,253.807 215.900 M285.300 214.557 C 287.000 215.847,286.193 216.800,283.400 216.800 C 280.543 216.800,280.229 216.460,281.670 214.926 C 282.634 213.900,284.222 213.738,285.300 214.557 M336.654 216.621 C 339.268 219.441,335.343 224.152,332.461 221.653 C 331.217 220.574,331.240 217.428,332.500 216.377 C 333.796 215.296,335.520 215.397,336.654 216.621 " stroke="none" fill="#fbf9f8" fill-rule="evenodd"></path><path id="path1" d="M46.200 164.598 C 45.980 164.673,45.144 164.844,44.342 164.978 C 42.044 165.361,37.600 170.949,37.600 173.456 C 37.600 173.755,37.434 174.000,37.231 174.000 C 37.028 174.000,36.640 174.675,36.370 175.500 C 35.931 176.837,35.307 178.038,33.715 180.615 C 33.448 181.047,32.825 182.210,32.329 183.200 C 31.833 184.190,31.127 185.450,30.758 186.000 C 29.905 187.273,27.717 191.094,27.094 192.400 C 26.831 192.950,26.523 193.490,26.408 193.600 C 26.294 193.710,25.798 194.610,25.307 195.600 C 24.169 197.892,21.706 202.300,20.838 203.600 C 20.470 204.150,19.636 205.680,18.985 207.000 C 18.333 208.320,17.672 209.458,17.516 209.528 C 17.359 209.599,16.787 210.589,16.243 211.728 C 15.699 212.868,14.792 214.420,14.227 215.178 C 13.662 215.935,13.200 216.865,13.200 217.244 C 13.200 217.623,13.065 217.993,12.900 218.067 C 12.593 218.203,12.223 218.829,9.983 223.000 C 9.274 224.320,8.448 225.544,8.147 225.720 C 7.846 225.896,7.600 226.204,7.600 226.406 C 7.600 226.607,6.790 228.106,5.800 229.736 C 3.584 233.386,3.354 235.497,5.083 236.300 C 6.472 236.945,354.202 237.045,354.600 236.400 C 354.736 236.180,355.273 236.000,355.792 236.000 C 357.077 236.000,359.374 233.276,360.852 230.000 C 361.941 227.586,363.367 224.761,367.299 217.225 C 368.153 215.589,369.200 213.762,369.626 213.164 C 370.052 212.566,370.400 211.887,370.400 211.656 C 370.400 211.424,370.898 210.372,371.506 209.318 C 372.115 208.263,372.970 206.680,373.406 205.800 C 373.843 204.920,374.290 204.109,374.400 203.999 C 374.687 203.711,377.413 198.598,381.438 190.800 C 382.517 188.710,383.490 186.910,383.600 186.800 C 383.711 186.690,384.207 185.790,384.702 184.800 C 385.198 183.810,386.226 181.920,386.987 180.600 C 387.747 179.280,388.761 177.480,389.239 176.600 C 389.718 175.720,390.625 174.248,391.255 173.328 C 391.885 172.408,392.400 171.463,392.400 171.228 C 392.400 170.993,392.552 170.800,392.737 170.800 C 393.798 170.800,394.313 165.958,393.339 165.149 C 392.734 164.647,47.659 164.099,46.200 164.598 M209.280 177.352 C 214.151 178.622,217.838 181.068,220.165 184.574 C 222.386 187.920,221.956 188.458,216.000 189.769 C 214.350 190.132,212.304 190.638,211.453 190.894 C 209.795 191.392,209.953 191.480,208.400 189.193 C 206.888 186.966,201.484 186.065,198.968 187.620 C 195.898 189.517,197.407 192.100,202.200 193.152 C 213.984 195.740,218.098 197.351,220.705 200.400 C 223.994 204.247,223.916 212.359,220.554 216.000 C 220.046 216.550,219.309 217.372,218.915 217.826 C 217.966 218.921,213.758 221.423,212.000 221.937 C 211.230 222.162,209.880 222.550,209.000 222.799 C 206.276 223.571,194.606 223.022,192.200 222.009 C 188.382 220.402,187.107 219.567,184.573 217.013 C 182.097 214.518,179.726 210.357,180.477 209.825 C 180.545 209.777,181.590 209.543,182.800 209.306 C 184.010 209.068,186.530 208.569,188.400 208.198 C 194.458 206.996,194.000 207.017,194.000 207.953 C 194.000 212.306,204.712 214.731,207.691 211.053 C 209.498 208.822,207.324 207.123,201.000 205.823 C 199.240 205.462,197.290 204.904,196.668 204.583 C 196.045 204.262,195.235 203.994,194.868 203.987 C 192.563 203.942,186.820 200.862,184.908 198.646 C 182.633 196.010,181.996 189.919,183.613 186.264 C 185.247 182.571,191.807 177.675,195.262 177.572 C 195.778 177.556,196.560 177.389,197.000 177.200 C 198.312 176.636,206.944 176.743,209.280 177.352 M71.718 178.197 C 75.811 178.980,80.782 181.422,80.795 182.657 C 80.798 182.909,81.051 183.211,81.357 183.328 C 82.819 183.889,84.171 188.051,84.186 192.038 C 84.201 196.120,83.937 197.004,81.912 199.658 C 81.301 200.459,80.800 201.314,80.800 201.558 C 80.800 201.801,80.564 202.000,80.275 202.000 C 79.987 202.000,79.402 202.321,78.975 202.714 C 76.268 205.204,71.469 206.400,64.175 206.400 L 58.800 206.400 58.800 214.400 L 58.800 222.400 51.600 222.400 L 44.400 222.400 44.400 200.000 L 44.400 177.600 56.500 177.600 C 65.565 177.600,69.382 177.750,71.718 178.197 M104.143 180.059 C 104.469 183.181,104.472 220.292,104.146 221.509 C 103.902 222.417,103.895 222.418,96.651 222.309 L 89.400 222.200 89.297 199.900 L 89.193 177.600 96.540 177.600 L 103.886 177.600 104.143 180.059 M142.070 180.900 C 142.141 182.715,142.138 185.049,142.062 186.088 L 141.924 187.975 137.262 188.088 L 132.600 188.200 132.496 205.300 L 132.391 222.400 125.200 222.400 L 118.009 222.400 117.904 205.300 L 117.800 188.200 113.100 188.087 L 108.400 187.975 108.400 182.787 L 108.400 177.600 125.170 177.600 L 141.939 177.600 142.070 180.900 M178.800 182.800 L 178.800 188.000 174.447 188.000 C 169.054 188.000,169.612 185.912,169.605 206.109 L 169.600 222.418 162.300 222.309 L 155.000 222.200 154.800 205.200 L 154.600 188.200 150.154 188.087 L 145.708 187.975 145.458 185.887 C 145.141 183.250,145.138 179.671,145.452 178.500 L 145.693 177.600 162.247 177.600 L 178.800 177.600 178.800 182.800 M252.141 179.504 C 253.038 180.955,251.193 182.400,248.443 182.400 C 244.917 182.400,245.364 181.615,243.608 190.899 C 243.410 191.943,243.123 193.000,242.970 193.248 C 242.817 193.495,242.488 194.621,242.238 195.749 L 241.785 197.800 239.692 197.921 C 237.323 198.058,237.134 197.631,238.043 194.200 C 238.276 193.320,238.623 191.790,238.815 190.800 C 239.007 189.810,239.362 188.100,239.604 187.000 C 239.846 185.900,240.144 184.415,240.266 183.700 L 240.488 182.400 237.944 182.394 C 234.669 182.386,234.256 182.131,234.834 180.473 L 235.278 179.200 243.616 179.200 C 248.201 179.200,252.037 179.337,252.141 179.504 M290.400 180.171 C 290.400 181.591,289.373 182.400,287.571 182.400 C 286.037 182.400,285.205 180.528,286.267 179.467 C 287.090 178.643,290.400 179.207,290.400 180.171 M299.600 180.234 C 299.600 181.336,298.608 185.806,297.921 187.800 C 297.694 188.460,297.369 189.810,297.199 190.800 C 296.027 197.633,295.865 197.983,293.874 197.994 C 291.911 198.005,291.158 197.361,291.647 196.093 C 292.050 195.047,292.861 191.487,293.591 187.559 C 294.956 180.213,295.472 179.200,297.849 179.200 C 299.466 179.200,299.600 179.279,299.600 180.234 M255.669 184.943 C 256.278 185.703,256.405 185.724,257.069 185.167 C 259.465 183.159,261.691 183.100,261.524 185.050 C 261.405 186.446,261.312 186.526,258.983 187.238 C 255.751 188.227,254.420 190.071,253.812 194.400 C 253.452 196.969,252.667 198.000,251.071 198.000 C 248.993 198.000,248.776 197.488,249.573 194.457 C 250.559 190.707,251.148 188.076,251.452 186.066 C 251.829 183.562,254.084 182.962,255.669 184.943 M275.400 184.000 C 275.536 184.220,275.981 184.400,276.388 184.400 C 276.796 184.400,277.611 184.973,278.200 185.672 C 279.345 187.034,279.372 187.752,278.420 191.600 C 278.175 192.590,277.866 194.210,277.735 195.200 C 277.355 198.052,274.796 199.263,273.507 197.200 C 273.022 196.424,272.000 196.088,272.000 196.706 C 272.000 198.595,265.557 198.751,263.284 196.917 C 258.917 193.392,263.596 189.200,271.897 189.200 C 275.399 189.200,276.110 188.492,274.167 186.938 C 272.685 185.752,270.599 185.721,268.479 186.852 C 265.582 188.399,262.807 187.258,265.085 185.458 C 267.139 183.834,274.642 182.774,275.400 184.000 M288.567 183.843 C 289.369 184.150,289.431 187.085,288.660 188.211 C 288.362 188.645,287.996 189.810,287.845 190.800 C 286.929 196.799,286.413 198.000,284.750 198.000 C 282.706 198.000,281.952 197.374,282.451 196.093 C 282.900 194.941,283.924 189.777,284.274 186.897 C 284.573 184.435,286.514 183.055,288.567 183.843 M313.400 184.000 C 313.536 184.220,313.957 184.400,314.335 184.400 C 315.728 184.400,317.994 187.679,317.997 189.700 L 318.000 191.200 311.600 191.200 L 305.200 191.200 305.200 192.580 C 305.200 195.602,308.724 196.837,311.537 194.800 C 313.468 193.401,316.400 193.078,316.400 194.264 C 316.400 195.000,314.133 197.200,313.374 197.200 C 313.108 197.200,312.376 197.469,311.746 197.798 C 308.363 199.562,302.478 197.492,301.158 194.074 C 299.871 190.743,302.659 185.562,306.487 184.172 C 308.116 183.581,313.065 183.457,313.400 184.000 M326.433 184.000 C 326.635 184.000,326.800 184.349,326.800 184.776 C 326.800 185.816,327.396 186.128,327.997 185.404 C 328.699 184.558,330.764 183.600,331.886 183.600 C 333.760 183.600,333.013 186.490,331.000 187.027 C 326.645 188.191,325.874 189.281,324.931 195.600 C 324.678 197.295,323.868 198.000,322.173 198.000 C 320.296 198.000,319.682 197.072,320.496 195.469 C 321.080 194.319,321.497 192.495,322.384 187.200 C 322.888 184.198,323.680 183.356,325.533 183.856 C 325.826 183.935,326.231 184.000,326.433 184.000 M345.000 184.000 C 345.136 184.220,345.553 184.400,345.928 184.400 C 346.774 184.400,348.898 186.318,348.595 186.809 C 348.270 187.333,345.557 187.769,345.256 187.345 C 344.055 185.652,338.800 185.708,338.800 187.413 C 338.800 188.155,340.198 189.200,341.191 189.200 C 344.117 189.200,348.400 191.749,348.400 193.490 C 348.400 194.666,346.353 197.157,345.361 197.187 C 345.120 197.194,344.351 197.485,343.653 197.834 C 340.704 199.304,332.400 197.215,332.400 195.002 C 332.400 194.445,334.099 193.600,335.219 193.600 C 335.648 193.600,336.000 193.762,336.000 193.960 C 336.000 195.476,340.863 196.501,342.614 195.354 C 344.018 194.434,343.507 192.800,341.816 192.800 C 340.675 192.800,336.355 191.189,335.605 190.485 C 333.875 188.857,335.109 184.400,337.289 184.400 C 337.654 184.400,338.064 184.220,338.200 184.000 C 338.336 183.780,339.866 183.600,341.600 183.600 C 343.334 183.600,344.864 183.780,345.000 184.000 M307.589 186.677 C 304.755 188.616,305.355 189.248,309.900 189.114 C 314.092 188.991,314.336 188.830,313.005 187.059 C 312.039 185.772,309.203 185.572,307.589 186.677 M59.067 188.267 C 58.920 188.413,58.800 190.292,58.800 192.442 L 58.800 196.351 60.649 196.628 C 65.941 197.422,69.476 194.683,68.363 190.652 C 67.771 188.508,60.652 186.681,59.067 188.267 M271.000 191.189 C 267.043 191.537,265.056 193.827,267.386 195.354 C 269.155 196.513,272.200 195.403,273.614 193.084 C 274.873 191.019,274.663 190.867,271.000 191.189 M355.521 204.100 L 355.400 206.200 294.624 206.301 C 246.268 206.382,233.784 206.300,233.531 205.901 C 233.143 205.291,233.097 202.637,233.467 202.267 C 233.613 202.120,261.163 202.000,294.688 202.000 L 355.642 202.000 355.521 204.100 M248.059 209.367 C 249.335 209.900,250.308 210.749,250.963 211.900 C 251.482 212.812,249.763 212.443,248.638 211.400 C 246.624 209.534,243.600 210.257,243.600 212.605 C 243.600 214.212,244.528 214.983,247.000 215.431 C 251.127 216.179,252.337 219.810,249.341 222.456 C 246.821 224.683,240.400 223.167,240.400 220.345 C 240.400 219.461,241.526 219.342,241.852 220.192 C 242.301 221.360,244.753 222.512,246.268 222.266 C 249.846 221.686,249.402 216.800,245.770 216.800 C 244.539 216.800,242.137 215.426,241.682 214.461 C 240.074 211.055,244.204 207.756,248.059 209.367 M314.163 209.410 C 316.932 210.567,317.909 214.032,316.756 218.610 C 315.522 223.510,310.384 225.144,306.899 221.744 C 305.929 220.797,307.956 220.619,308.960 221.562 C 310.580 223.084,314.800 221.647,314.800 219.573 C 314.800 219.404,314.909 218.981,315.043 218.633 C 315.226 218.155,315.029 218.000,314.243 218.000 C 313.669 218.000,313.200 218.155,313.200 218.345 C 313.200 218.730,312.483 218.702,310.400 218.238 C 307.511 217.594,306.326 213.822,308.228 211.327 C 309.931 209.096,311.893 208.462,314.163 209.410 M337.451 209.445 C 339.133 210.145,339.584 210.621,339.594 211.700 C 339.603 212.701,338.694 212.564,337.600 211.400 C 336.229 209.940,334.945 210.118,333.138 212.017 C 331.109 214.150,330.986 216.092,332.976 214.587 C 334.341 213.555,338.400 214.519,338.400 215.874 C 338.400 216.163,338.580 216.400,338.800 216.400 C 339.370 216.400,339.296 220.037,338.700 221.305 C 337.191 224.517,331.573 224.149,329.768 220.720 C 329.120 219.489,328.996 214.973,329.600 214.600 C 329.820 214.464,330.000 214.031,330.000 213.638 C 330.000 213.245,330.360 212.598,330.800 212.200 C 331.240 211.802,331.600 211.254,331.600 210.982 C 331.600 209.579,335.384 208.584,337.451 209.445 M302.657 211.300 C 302.538 212.455,302.244 214.570,302.005 216.000 C 301.766 217.430,301.470 219.354,301.347 220.275 L 301.123 221.950 302.831 222.075 C 303.770 222.144,304.614 222.431,304.707 222.713 C 304.839 223.115,303.870 223.202,300.236 223.113 C 295.475 222.997,293.934 222.372,297.490 222.000 L 299.400 221.800 299.690 219.600 C 299.849 218.390,300.121 216.208,300.294 214.751 L 300.610 212.103 299.115 212.630 C 298.037 213.010,297.544 213.034,297.347 212.714 C 297.003 212.157,298.633 210.800,299.644 210.800 C 300.060 210.800,300.400 210.648,300.400 210.461 C 300.400 210.129,301.870 209.281,302.537 209.227 C 302.722 209.212,302.776 210.145,302.657 211.300 M256.116 210.400 C 255.895 211.244,255.018 211.476,254.600 210.800 C 254.237 210.212,254.740 209.600,255.586 209.600 C 256.128 209.600,256.269 209.813,256.116 210.400 M329.200 210.062 C 329.200 210.316,328.513 211.177,327.673 211.976 C 326.834 212.775,325.799 214.052,325.373 214.814 C 324.948 215.576,324.436 216.318,324.236 216.463 C 323.629 216.902,322.401 220.517,322.400 221.867 C 322.400 223.236,321.797 223.696,320.722 223.144 C 320.098 222.823,320.125 222.580,321.055 220.098 C 321.611 218.614,322.171 217.053,322.298 216.628 C 322.532 215.853,322.865 215.387,324.900 212.990 C 326.597 210.992,326.396 210.800,322.613 210.800 C 319.766 210.800,319.262 210.704,319.455 210.200 C 319.751 209.429,329.200 209.295,329.200 210.062 M310.753 210.871 C 307.433 213.585,309.104 217.500,313.200 216.600 C 315.420 216.113,316.302 213.535,314.881 211.690 C 314.031 210.584,311.676 210.117,310.753 210.871 M266.148 213.588 C 266.862 214.302,266.531 220.654,265.708 222.048 C 264.686 223.778,263.820 223.579,264.193 221.700 C 265.286 216.190,265.034 214.000,263.307 214.000 C 261.550 214.000,259.918 216.470,259.211 220.200 C 258.785 222.446,258.408 223.200,257.711 223.200 C 257.252 223.200,257.173 222.935,257.379 222.100 C 257.529 221.495,257.877 219.422,258.152 217.494 C 258.694 213.691,259.177 212.751,260.166 213.572 C 260.651 213.974,260.942 213.943,261.683 213.408 C 262.689 212.683,265.350 212.790,266.148 213.588 M276.440 214.042 C 277.078 214.726,277.600 215.536,277.600 215.842 C 277.600 216.839,276.077 216.431,275.200 215.200 C 273.364 212.621,270.800 214.706,270.800 218.778 C 270.800 222.478,272.399 223.498,274.600 221.200 C 276.575 219.139,277.703 219.949,275.853 222.100 C 274.136 224.096,269.600 223.807,269.600 221.702 C 269.600 221.480,269.330 221.074,269.000 220.800 C 268.345 220.256,268.167 217.391,268.765 217.021 C 268.966 216.897,269.517 215.998,269.989 215.022 C 270.869 213.205,271.313 212.961,273.940 212.854 C 274.963 212.813,275.553 213.093,276.440 214.042 M285.855 213.040 C 286.864 213.311,288.130 215.868,287.935 217.243 C 287.808 218.144,287.626 218.206,284.800 218.301 C 280.355 218.451,279.939 218.598,280.237 219.909 C 280.805 222.411,282.850 223.013,285.059 221.328 C 286.163 220.486,286.535 220.371,286.795 220.792 C 287.663 222.196,284.898 223.824,282.244 223.472 C 278.911 223.030,277.111 218.547,279.200 215.891 C 279.640 215.331,280.000 214.754,280.000 214.608 C 280.000 213.328,283.466 212.399,285.855 213.040 M255.423 215.100 C 255.269 216.145,254.995 217.990,254.815 219.200 C 254.338 222.399,254.005 223.200,253.153 223.200 C 252.229 223.200,252.152 221.895,252.960 219.949 C 253.268 219.207,253.649 217.385,253.807 215.900 C 254.056 213.555,254.199 213.200,254.899 213.200 C 255.632 213.200,255.679 213.369,255.423 215.100 M281.670 214.926 C 280.229 216.460,280.543 216.800,283.400 216.800 C 285.790 216.800,286.000 216.731,286.000 215.944 C 286.000 214.028,283.144 213.356,281.670 214.926 M332.500 216.377 C 331.800 216.962,331.600 217.547,331.600 219.017 C 331.600 222.304,334.177 223.485,336.431 221.231 C 339.380 218.281,335.686 213.720,332.500 216.377 " stroke="none" fill="#e40c24" fill-rule="evenodd"></path></g></svg>