<?xml version="1.0" encoding="UTF-8" standalone="no"?>
<svg
   xmlns="http://www.w3.org/2000/svg"
   version="1.1"
   viewBox="0, 0, 400,400"
   height="400"
   width="400"
   id="svg">
  <g
     id="svgg">
    <path
       style="fill:#000000;fill-rule:evenodd;stroke:none"
       d="m 194.92,158.686 c -0.22,0.015 -1.948,0.066 -3.84,0.112 -1.892,0.046 -4.952,0.137 -6.8,0.202 -1.848,0.066 -5.466,0.192 -8.04,0.282 -8.289,0.29 -18.823,0.718 -24.52,0.997 -1.32,0.064 -3.57,0.172 -5,0.238 -1.43,0.067 -3.284,0.158 -4.12,0.203 -0.836,0.045 -2.888,0.154 -4.56,0.242 -1.672,0.088 -4.282,0.231 -5.8,0.318 -1.518,0.087 -3.714,0.213 -4.88,0.28 -2.135,0.123 -5.744,0.347 -9,0.56 -0.968,0.063 -2.624,0.171 -3.68,0.239 -36.18,2.342 -63.34,5.072 -78.04,7.843 -17.376,3.277 -26.49,8.556 -32.044,18.56 -9.546,17.196 -3.5,38.778 13.124,46.843 8.118,3.939 15.17,5.331 31.56,6.23 1.606,0.088 3.28,0.18 3.72,0.204 4.28,0.236 17.438,0.614 26.48,0.761 25.604,0.416 52.912,0.542 132.52,0.611 78.766,0.069 102.446,-0.085 125,-0.814 3.628,-0.117 10.277,-0.387 11.76,-0.477 18.686,-1.135 25.527,-2.48 33.762,-6.638 13.467,-6.801 20.156,-22.327 16.314,-37.869 -1.949,-7.885 -6.278,-14.607 -11.996,-18.627 -7.202,-5.064 -15.331,-7.686 -31.32,-10.101 -25.39,-3.834 -80.525,-7.818 -134,-9.682 -6.85,-0.239 -9.65,-0.334 -12.08,-0.409 -2.592,-0.081 -13.708,-0.163 -14.52,-0.108 m 11.32,3.835 c 21.913,0.519 48.033,1.71 73.64,3.358 9.603,0.618 20.076,1.31 20.6,1.361 0.242,0.024 1.952,0.151 3.8,0.282 18.717,1.332 32.856,2.614 43.68,3.961 27.047,3.368 37.927,8.069 44.048,19.037 7.302,13.083 4.513,29.606 -6.488,38.427 -0.506,0.406 -1.051,0.843 -1.211,0.972 -2.582,2.081 -9.21,4.959 -14.189,6.162 -4.251,1.026 -9.913,1.79 -15.69,2.116 -1.182,0.066 -2.348,0.14 -2.59,0.163 -0.836,0.08 -4.931,0.277 -8.24,0.396 -1.826,0.066 -3.806,0.139 -4.4,0.163 -13.886,0.565 -47.892,0.758 -133.08,0.756 C 118.016,239.673 77.149,239.499 66.36,239.08 65.744,239.056 63.908,239 62.28,238.956 38.579,238.31 30.114,237.046 20.615,232.732 12.64,229.11 6.821,222.064 4.727,213.495 c -0.231,-0.945 -0.362,-1.7 -0.616,-3.535 -1.201,-8.698 2.117,-19.021 8.084,-25.151 8.657,-8.892 23.902,-12.564 66.285,-15.966 1.914,-0.153 3.894,-0.317 4.4,-0.363 2.392,-0.216 16.642,-1.248 23.72,-1.718 2.992,-0.198 6.52,-0.433 7.84,-0.521 3.627,-0.243 11.841,-0.763 15.72,-0.996 6.576,-0.393 12.284,-0.715 15.68,-0.884 1.342,-0.067 3.124,-0.157 3.96,-0.201 5.442,-0.286 17.08,-0.801 21.64,-0.958 1.298,-0.044 3.224,-0.118 4.28,-0.164 2.069,-0.089 10.879,-0.345 16.52,-0.48 1.914,-0.045 3.858,-0.092 4.32,-0.103 2.435,-0.061 5.097,-0.042 9.68,0.066 m -14.64,6.124 c -10.644,0.135 -25.866,0.655 -40.92,1.397 -8.677,0.427 -22.187,1.195 -26.04,1.479 -0.594,0.044 -2.214,0.153 -3.6,0.242 -35.794,2.301 -66.796,5.668 -75.422,8.19 -9.857,2.883 -16.896,10.128 -18.856,19.412 -2.988,14.152 5.887,27.882 19.9,30.788 4.957,1.028 15.912,1.896 30.858,2.445 1.782,0.066 3.744,0.139 4.36,0.162 11.536,0.443 36.221,0.867 55.64,0.957 4.95,0.024 11.448,0.06 14.44,0.082 24.56,0.182 90.385,0.114 115.48,-0.119 46.814,-0.433 74.409,-1.513 85,-3.326 12.23,-2.094 21.359,-12.889 21.34,-25.234 -0.018,-12.331 -7.85,-22.131 -20.297,-25.398 -8.718,-2.288 -34.564,-5.149 -67.563,-7.48 -4.059,-0.286 -6.199,-0.43 -12.48,-0.84 -5.709,-0.373 -17.814,-1.054 -24.16,-1.359 -8.664,-0.417 -11.22,-0.529 -16.48,-0.722 -18.49,-0.678 -28.339,-0.839 -41.2,-0.676"
       id="path0" />
  </g>
</svg>
