<?xml version="1.0" encoding="UTF-8" standalone="no"?>
<svg
   xmlns="http://www.w3.org/2000/svg"
   version="1.1"
   viewBox="0, 0, 400,400"
   height="400"
   width="400"
   id="svg">
  <g
     id="svgg">
    <path
       style="fill-rule:evenodd;stroke:none;stroke-width:2.65117288"
       d="m 298.11312,2.0041877 c -1.78954,0.625677 -26.1114,9.4222683 -34.57129,12.5002803 -6.14542,2.23759 -5.34476,2.301218 -13.42024,-1.073725 -7.99063,-3.337826 -7.47896,-3.420013 -9.0564,1.466099 -1.25666,3.897224 -1.19038,4.056294 3.16815,7.518726 4.30285,3.420013 4.29755,3.393501 1.31763,6.431745 -3.51015,3.581735 -3.17345,3.576432 -11.17204,0.206792 -7.81036,-3.292757 -7.55054,-2.985221 -6.16398,-7.245656 0.45865,-1.410424 1.65168,-5.074345 2.65117,-8.141752 2.53187,-7.7758893 2.7095,-7.2456553 -3.20526,-9.6900363 -5.48793,-2.266753 -5.65496,-2.224334 -6.95668,1.824007 -0.42684,1.328237 -2.08117,6.3760703 -3.67453,11.2171123 -3.71164,11.267485 -3.66657,9.257896 -0.48251,21.198778 3.01173,11.30195 3.18936,8.693196 -1.56684,23.23488 -3.96351,12.113208 -10.52516,32.182587 -11.59358,35.462088 -1.17712,3.608244 -1.30703,3.669224 -7.68045,3.669224 -5.10616,0 -5.43491,0.0689 -6.07119,1.25665 -0.228,0.42684 -4.24983,22.56678 -4.24983,23.3966 0,0.29693 0.18293,0.76354 0.40563,1.03926 l 0.40563,0.50107 19.79631,0.0636 c 10.88837,0.0345 20.18603,0.008 20.66059,-0.061 1.94066,-0.27837 1.81871,-0.0132 6.04733,-12.94037 3.64801,-11.15613 3.84685,-11.69432 4.58387,-12.35446 l 0.7715,-0.68931 16.02899,0.005 c 18.43625,0.005 16.28085,-0.2333 22.9512,2.55838 6.80026,2.85002 7.06803,2.87918 9.23669,0.98624 1.15061,-1.00479 15.0454,-13.741027 17.88481,-16.3922 0.64158,-0.599165 2.55043,-2.359544 4.24188,-3.91048 4.49904,-4.122574 4.49904,-4.074853 0.10604,-5.890906 -1.16651,-0.479863 -4.84104,-2.017543 -8.16561,-3.41206 -3.32457,-1.394517 -8.8125,-3.690433 -12.1954,-5.103508 -6.44235,-2.69094 -7.45775,-3.306012 -7.81565,-4.740297 -0.114,-0.466606 -1.94331,-11.93558 -3.42002,-21.447988 -1.0313,-6.659747 -1.80279,-6.423792 7.80241,-2.378103 3.98736,1.680844 8.77803,3.695735 10.64445,4.47518 1.86643,0.782096 5.0823,2.126241 7.14757,2.990523 3.78322,1.582751 4.5388,1.781588 5.00541,1.314982 0.38972,-0.389722 0.40828,-0.246559 -2.09177,-16.013084 -2.8235,-17.837092 -2.84206,-16.07141 0.20148,-19.242213 1.1294,-1.17447 2.71746,-2.831453 3.52872,-3.679828 2.17926,-2.2747063 2.29061,-3.0647563 0.58591,-4.1464343 -7.00971,-4.440715 -9.56013,-5.487928 -11.6201,-4.764158 m 18.87636,11.8268823 c -0.69991,0.29428 -2.82085,2.598149 -3.17081,3.443874 -0.47986,1.155911 -0.41358,2.383404 0.41889,7.627424 1.04986,6.619979 0.7927,6.495374 6.72602,3.218524 6.36017,-3.512804 6.445,-3.637409 4.35058,-6.243512 -6.76314,-8.417474 -6.97259,-8.618963 -8.32468,-8.04631 m 28.10243,9.517711 c -0.99154,0.559397 -4.80923,2.669731 -8.48376,4.687273 -6.43174,3.531363 -8.20272,4.512297 -15.55708,8.595103 -4.48048,2.489451 -4.59448,2.698894 -3.8442,7.216493 0.17498,1.049864 0.60447,3.75406 0.95707,6.010209 0.95443,6.134814 -0.30753,5.10881 13.35661,10.853901 13.32215,5.596626 12.07079,4.705832 14.19438,10.116876 1.60661,4.093411 1.85848,4.244528 6.48742,3.918434 2.9375,-0.204141 3.81239,-0.479863 4.40095,-1.373308 0.58591,-0.896096 7.36496,-21.824455 7.36496,-22.73911 -0.003,-1.442238 -0.56205,-1.993682 -6.6677,-6.569606 -7.85808,-5.890906 -7.07333,-4.530855 -8.06222,-14.003496 -0.9173,-8.767428 -0.80861,-8.595102 -4.14643,-6.712769 m 14.50456,5.888255 c -0.23065,0.912003 0.31284,5.363323 0.7821,6.426443 0.65219,1.474052 -0.10074,0.824515 9.63436,8.274311 5.88826,4.506993 5.63905,3.958201 4.03774,8.902638 -6.23556,19.218352 -9.52036,29.059506 -9.84381,29.502252 -0.89609,1.222191 -0.66014,1.190377 -14.44889,2.009589 -23.50795,1.397168 -21.86157,1.272563 -22.80008,1.752425 -1.20629,0.617723 -0.74498,-0.07158 -9.94455,14.891638 -8.94771,14.55759 -9.00604,14.66894 -8.00655,15.57299 0.2174,0.19884 2.18722,1.11614 4.37709,2.0414 4.2843,1.81075 4.67667,2.05201 4.88346,2.99318 0.19619,0.89874 -7.16082,22.95915 -7.81301,23.4125 -0.66544,0.46661 -1.13205,0.40033 -3.12043,-0.4454 -5.75834,-2.44703 -18.00411,-7.56114 -18.83923,-7.86868 -1.28317,-0.47191 -10.19111,-0.684 -10.97851,-0.26246 -1.03396,0.55409 -1.07372,0.19618 2.40462,22.3812 3.79117,24.184 3.36168,22.56413 6.44235,24.28209 10.42971,5.81667 27.30708,15.37415 27.55098,15.60746 0.57266,0.53818 0.0239,0.59386 -12.65669,1.31233 -6.86124,0.38707 -12.83433,0.79535 -13.27443,0.9067 -1.64372,0.41888 -1.7047,0.53553 -9.2632,17.69658 -3.89987,8.85757 -8.42012,19.1123 -10.04529,22.78683 -8.33794,18.85249 -7.59826,16.89327 -9.58134,25.34521 -0.76619,3.26625 -1.53238,6.51128 -1.6994,7.21119 -0.16968,0.69991 -1.60396,6.80821 -3.18936,13.57401 -1.5854,6.76579 -3.97146,16.93039 -5.29704,22.58799 -1.32824,5.6576 -4.2843,18.25598 -6.56696,27.99638 -2.28266,9.74041 -4.2896,18.28249 -4.45927,18.9824 -2.08382,8.66138 -3.5022,15.07457 -3.4969,15.8275 0.005,1.30438 0.40563,2.06527 3.58969,6.85859 l 2.81024,4.23127 -0.46926,0.38177 c -0.81391,0.66014 -6.34955,0.55409 -7.75733,-0.14847 -1.49791,-0.74498 -6.01551,-7.41268 -6.3257,-9.33478 -0.10604,-0.65218 0.76884,-5.29439 3.78058,-20.04286 2.1554,-10.55697 5.40839,-26.49582 7.22974,-35.41967 1.82136,-8.92385 3.74081,-18.32491 4.26309,-20.89124 0.52493,-2.56634 1.46875,-7.19529 2.09973,-10.28656 0.62833,-3.09126 2.05466,-10.08506 3.1708,-15.54382 2.0255,-9.92599 2.26676,-11.69698 1.78159,-13.09149 -0.13521,-0.38442 -2.71215,-5.51444 -5.72918,-11.3974 -3.01439,-5.88295 -5.5383,-10.92548 -5.60989,-11.20916 -0.34995,-1.39451 -0.19883,-1.61986 5.8644,-8.58714 1.4608,-1.68085 7.19263,-8.30613 12.73358,-14.72197 5.54095,-6.41584 10.77702,-12.47642 11.636,-13.46796 8.16826,-9.44082 7.58235,-8.02775 6.37342,-15.3768 -0.23065,-1.39982 -1.99368,-12.59572 -3.91843,-24.8786 -3.65597,-23.34358 -3.59499,-23.04135 -4.73235,-23.57158 -0.88549,-0.41093 -78.61788,-0.30754 -79.25151,0.10604 -0.70786,0.46396 -0.96237,1.36006 -0.96237,3.3882 0,2.80229 -0.10605,2.94015 -7.74143,9.99493 -3.6162,3.34047 -7.72021,7.14225 -9.12003,8.44663 -1.39982,1.30703 -11.18265,10.37934 -21.73962,20.15952 -10.55697,9.78283 -21.67599,20.08794 -24.70893,22.90083 -3.03294,2.8129 -12.76805,11.83219 -21.63357,20.04552 -8.865527,8.21068 -16.691787,15.46694 -17.391697,16.12708 -0.69991,0.6575 -4.70848,4.37709 -8.90794,8.26371 -8.09403,7.48956 -11.978,11.08986 -14.43298,13.38577 -2.52657,2.35955 -1.56685,2.18192 -12.39689,2.30387 l -9.43817,0.10605 -1.16652,0.58061 c -1.17977,0.5859 -9.23403,7.85542 -10.01878,9.04049 -0.91466,1.38127 -0.99949,1.20099 7.5744,16.01574 4.37178,7.55584 8.05426,14.1175 8.17887,14.58675 0.31284,1.15591 0.36851,0.95708 -3.34048,11.63335 -1.80545,5.191 -4.79067,13.7808 -6.63323,19.08844 -4.78007,13.75429 -8.4758,24.3908 -10.3979,29.90524 -0.91466,2.62466 -2.7095,7.77854 -3.99002,11.45306 -1.27787,3.67453 -2.88448,8.25575 -3.56583,10.18051 -1.8081,5.1035 -1.78954,5.52769 0.43214,9.40636 1.87969,3.2848 2.46559,3.97411 3.67983,4.33997 1.67819,0.50107 58.5379,0.3473 59.37567,-0.16172 1.05517,-0.64424 1.26196,-1.15061 1.95922,-4.79863 1.05516,-5.52769 1.18507,-5.0929 -3.3882,-11.34967 -10.08506,-13.79405 -9.51771,-12.91121 -8.73827,-13.61642 0.20414,-0.18558 4.95239,-1.71796 10.55167,-3.40411 12.98279,-3.91313 35.212877,-10.60469 50.581727,-15.23099 12.29349,-3.69838 12.8953,-3.93169 12.6567,-4.88081 -0.11135,-0.43479 -21.33134,-21.41087 -22.4846,-22.22213 -1.41308,-0.99684 0.30223,-1.93535 -33.386217,18.23742 -17.00197,10.18316 -31.43761,18.88165 -32.07919,19.3297 -1.54299,1.08168 -2.09708,1.87173 -4.66872,6.64119 -1.19568,2.21638 -2.38075,4.41155 -2.63792,4.87816 -0.25716,0.46661 -1.86907,3.42531 -3.58173,6.57491 -3.86541,7.10514 -3.48099,6.75784 -7.58501,6.85593 -3.21322,0.0769 -3.79648,-0.0689 -3.79648,-0.93851 0,-0.48517 1.7975,-4.69258 9.92334,-23.20307 1.51117,-3.44122 4.42216,-10.07446 6.46622,-14.74052 5.40574,-12.3253 7.78119,-17.72574 8.14705,-18.49989 0.39237,-0.83246 1.93005,-1.89028 2.99317,-2.05731 0.43215,-0.0689 5.46142,-0.88549 11.17735,-1.81605 5.71593,-0.93321 17.42351,-2.8341 26.01596,-4.22597 16.363037,-2.65117 16.434617,-2.66708 17.047037,-3.85215 0.16702,-0.32345 0.7874,-3.57909 1.37861,-7.2324 0.59121,-3.65332 1.97247,-12.17949 3.07006,-18.94528 5.27053,-32.48217 5.05313,-30.88617 4.4036,-32.24622 -0.24391,-0.51168 -2.31448,-2.4868 -6.28859,-5.99695 -7.33844,-6.47947 -6.92486,-5.70002 -5.89355,-11.1747 0.82451,-4.37178 1.10023,-4.76415 2.4921,-3.54461 4.70318,4.12257 19.16533,16.99932 19.45431,17.32541 1.15326,1.29112 1.28847,1.94861 4.80657,23.01748 11.30991,67.72952 10.29716,62.02154 10.98381,61.89163 0.40298,-0.0769 0.93321,-1.02865 5.22281,-9.3984 16.25699,-31.71333 15.43778,-30.22337 16.80579,-30.56803 0.342,-0.0848 3.42266,0.37647 7.90314,1.18773 19.04073,3.44652 17.90337,3.31396 18.90021,2.19252 0.75824,-0.85368 8.26636,-18.89491 8.54739,-20.54659 0.19353,-1.12145 0.14581,-1.77894 -0.32345,-4.57327 -1.67819,-9.96311 -13.12595,-78.33951 -14.28452,-85.32005 -1.33884,-8.05426 -1.42368,-8.83371 -0.88284,-8.1338 0.14317,0.18823 4.279,5.52505 9.18632,11.86135 21.30747,27.51122 26.47196,34.2558 26.76094,34.94776 0.46395,1.11084 0.27307,1.83991 -1.8028,6.79761 -1.04721,2.50801 -4.08281,9.76162 -6.74193,16.11913 -5.99431,14.32429 -5.73714,12.3306 -2.47885,19.30054 0.4613,0.99154 3.01969,6.52718 5.68411,12.30144 l 4.84105,10.49864 v 1.59071 c -0.003,1.16651 -0.63894,4.81983 -2.38871,13.68005 -1.31233,6.64914 -3.3776,17.19551 -4.58918,23.43637 -1.20894,6.24086 -2.9269,15.06926 -3.81504,19.61868 -0.88549,4.54941 -2.13684,10.99176 -2.78108,14.31633 -1.15326,5.97309 -2.99317,15.39536 -3.59234,18.423 -0.60447,3.03825 -0.42684,3.79118 1.75773,7.51608 1.81605,3.09391 2.41257,3.78057 3.60559,4.13848 1.3415,0.40032 57.49599,0.36056 58.46102,-0.0424 1.84256,-0.77149 4.47518,-8.20803 3.79913,-10.7346 -0.12461,-0.46926 -2.9375,-4.02713 -17.853,-22.58799 -2.1554,-2.68299 -4.10402,-5.191 -4.33202,-5.57542 -0.79005,-1.33619 -0.59386,-1.87438 4.88346,-13.30093 14.93936,-31.16189 21.2465,-44.43631 21.56995,-45.38808 0.20944,-0.61508 1.15856,-7.47896 2.2588,-16.33123 1.04456,-8.39891 2.22168,-17.853 2.61405,-21.01054 0.54614,-4.37974 0.83247,-6.01021 1.21159,-6.89305 0.35526,-0.82717 5.98635,-8.0198 20.0137,-25.54405 22.31758,-27.88769 20.75073,-25.62359 20.71096,-29.95296 -0.0371,-4.14113 -0.83246,-36.94144 -0.95707,-39.4521 -0.1193,-2.45233 -0.53288,-3.40145 -2.79433,-6.41849 -3.15225,-4.21006 -3.2583,-2.83675 1.31498,-16.8535 4.78271,-14.64773 4.66606,-12.78926 1.18242,-18.89226 -2.72541,-4.77741 -2.61406,-4.5176 -2.27471,-5.32356 0.33935,-0.80595 -3.56582,0.97829 36.82214,-16.840245 6.02082,-2.656475 11.34437,-5.031926 11.82954,-5.281137 1.41572,-0.721119 2.0308,-1.816053 3.3988,-6.044674 1.18242,-3.655967 6.81882,-20.86473 10.85125,-33.13701 2.79699,-8.504962 3.20262,-7.529331 -5.10351,-12.335907 -3.20792,-1.855821 -8.88673,-5.151229 -12.61958,-7.325191 -7.10779,-4.138449 -7.82361,-4.438031 -8.08343,-3.39612 M 243.01115,108.82525 c -0.32875,0.21474 -0.72112,0.57265 -0.87224,0.7927 -0.228,0.33404 -4.34792,12.6779 -5.04518,15.12228 -0.25982,0.90935 0.0451,1.64903 0.79535,1.93536 1.04456,0.39502 35.54162,0.27042 36.11693,-0.13256 0.94382,-0.66014 0.93321,-0.93852 -0.29958,-8.83105 -1.35475,-8.69055 -1.20894,-8.05427 -2.0255,-8.74092 l -0.64158,-0.54084 -13.71717,0.003 c -12.9881,0 -13.74898,0.0212 -14.31103,0.39237"
       id="path0" />
  </g>
</svg>
