<svg id="svg" version="1.1" xmlns="http://www.w3.org/2000/svg"  width="400" height="400" viewBox="0, 0, 400,400"><g id="svgg"><path id="path0" d="M135.742 123.369 C 134.610 124.544,133.566 125.877,133.422 126.332 C 133.277 126.787,132.817 127.267,132.400 127.400 C 131.983 127.533,131.533 127.983,131.400 128.400 C 131.267 128.817,130.817 129.267,130.400 129.400 C 129.983 129.533,129.530 129.992,129.394 130.420 C 129.257 130.849,128.978 131.200,128.773 131.200 C 128.568 131.200,128.400 131.399,128.400 131.642 C 128.400 131.885,127.320 133.140,126.000 134.432 C 124.680 135.723,123.600 136.961,123.600 137.182 C 123.600 137.402,122.610 138.557,121.400 139.748 C 120.190 140.939,119.200 142.191,119.200 142.530 C 119.200 142.869,118.849 143.257,118.420 143.394 C 117.992 143.530,117.533 143.983,117.400 144.400 C 117.267 144.817,116.817 145.267,116.400 145.400 C 115.983 145.533,115.533 145.983,115.400 146.400 C 115.267 146.817,114.808 147.270,114.380 147.406 C 113.951 147.543,113.600 147.931,113.600 148.270 C 113.600 148.609,112.610 149.861,111.400 151.052 C 110.190 152.243,109.200 153.398,109.200 153.618 C 109.200 153.839,108.120 155.077,106.800 156.368 C 105.480 157.660,104.400 158.915,104.400 159.158 C 104.400 159.401,104.232 159.600,104.027 159.600 C 103.822 159.600,103.543 159.951,103.406 160.380 C 103.270 160.808,102.817 161.267,102.400 161.400 C 101.983 161.533,101.533 161.983,101.400 162.400 C 101.267 162.817,100.817 163.267,100.400 163.400 C 99.983 163.533,99.518 164.027,99.369 164.499 C 99.219 164.971,98.040 166.404,96.748 167.683 C 95.457 168.963,94.400 170.185,94.400 170.400 C 94.400 170.615,93.343 171.837,92.052 173.117 C 90.760 174.396,89.581 175.829,89.431 176.301 C 89.282 176.773,88.817 177.267,88.400 177.400 C 87.983 177.533,87.533 177.983,87.400 178.400 C 87.267 178.817,86.817 179.267,86.400 179.400 C 85.983 179.533,85.530 179.992,85.394 180.420 C 85.257 180.849,84.978 181.200,84.773 181.200 C 84.568 181.200,84.400 181.399,84.400 181.642 C 84.400 181.885,83.320 183.140,82.000 184.432 C 80.680 185.723,79.600 186.948,79.600 187.153 C 79.600 187.781,76.070 191.200,75.423 191.200 C 75.089 191.200,74.702 190.750,74.564 190.200 C 74.426 189.650,74.153 189.200,73.957 189.200 C 73.760 189.200,73.600 188.840,73.600 188.400 C 73.600 187.960,73.434 187.600,73.232 187.600 C 73.029 187.600,72.745 187.060,72.600 186.400 C 72.455 185.740,72.171 185.200,71.968 185.200 C 71.766 185.200,71.600 184.859,71.600 184.443 C 71.600 184.026,71.330 183.582,71.000 183.455 C 70.670 183.329,70.400 182.859,70.400 182.413 C 70.400 181.966,70.220 181.600,70.000 181.600 C 69.780 181.600,69.600 181.330,69.600 181.000 C 69.600 180.670,69.428 180.400,69.218 180.400 C 69.008 180.400,68.718 179.770,68.574 179.000 C 68.429 178.230,68.151 177.600,67.955 177.600 C 67.760 177.600,67.600 177.330,67.600 177.000 C 67.600 176.670,67.420 176.400,67.200 176.400 C 66.980 176.400,66.800 176.130,66.800 175.800 C 66.800 175.276,64.622 175.200,49.600 175.200 C 34.578 175.200,32.400 175.276,32.400 175.800 C 32.400 176.130,32.560 176.400,32.757 176.400 C 32.953 176.400,33.226 176.850,33.364 177.400 C 33.502 177.950,33.792 178.400,34.008 178.400 C 34.223 178.400,34.400 178.670,34.400 179.000 C 34.400 179.330,34.572 179.600,34.782 179.600 C 34.992 179.600,35.282 180.230,35.426 181.000 C 35.571 181.770,35.849 182.400,36.045 182.400 C 36.240 182.400,36.400 182.670,36.400 183.000 C 36.400 183.330,36.572 183.600,36.782 183.600 C 36.992 183.600,37.281 184.224,37.424 184.986 C 37.578 185.809,37.975 186.465,38.400 186.600 C 38.825 186.735,39.222 187.391,39.376 188.214 C 39.519 188.976,39.808 189.600,40.018 189.600 C 40.228 189.600,40.400 189.870,40.400 190.200 C 40.400 190.530,40.560 190.800,40.755 190.800 C 40.951 190.800,41.229 191.430,41.374 192.200 C 41.518 192.970,41.808 193.600,42.018 193.600 C 42.228 193.600,42.400 193.870,42.400 194.200 C 42.400 194.530,42.577 194.800,42.792 194.800 C 43.008 194.800,43.298 195.250,43.436 195.800 C 43.574 196.350,43.847 196.800,44.043 196.800 C 44.240 196.800,44.400 197.160,44.400 197.600 C 44.400 198.040,44.566 198.400,44.768 198.400 C 44.971 198.400,45.255 198.940,45.400 199.600 C 45.545 200.260,45.829 200.800,46.032 200.800 C 46.234 200.800,46.400 201.141,46.400 201.557 C 46.400 201.974,46.670 202.418,47.000 202.545 C 47.330 202.671,47.600 203.141,47.600 203.587 C 47.600 204.034,47.780 204.400,48.000 204.400 C 48.220 204.400,48.400 204.670,48.400 205.000 C 48.400 205.330,48.572 205.600,48.782 205.600 C 48.992 205.600,49.282 206.230,49.426 207.000 C 49.571 207.770,49.849 208.400,50.045 208.400 C 50.240 208.400,50.400 208.670,50.400 209.000 C 50.400 209.330,50.560 209.600,50.757 209.600 C 50.953 209.600,51.226 210.050,51.364 210.600 C 51.502 211.150,51.792 211.600,52.008 211.600 C 52.223 211.600,52.400 211.870,52.400 212.200 C 52.400 212.530,52.560 212.800,52.755 212.800 C 52.951 212.800,53.227 213.417,53.368 214.171 C 53.510 214.925,53.845 215.620,54.113 215.715 C 54.422 215.825,54.198 216.267,53.500 216.925 C 52.895 217.495,52.400 218.148,52.400 218.376 C 52.400 218.604,51.343 219.837,50.052 221.117 C 48.760 222.396,47.581 223.829,47.431 224.301 C 47.282 224.773,46.817 225.267,46.400 225.400 C 45.983 225.533,45.533 225.983,45.400 226.400 C 45.267 226.817,44.817 227.267,44.400 227.400 C 43.983 227.533,43.518 228.027,43.369 228.499 C 43.219 228.971,42.040 230.404,40.748 231.683 C 39.457 232.963,38.400 234.185,38.400 234.400 C 38.400 234.615,37.343 235.837,36.052 237.117 C 34.760 238.396,33.581 239.829,33.431 240.301 C 33.282 240.773,32.817 241.267,32.400 241.400 C 31.983 241.533,31.533 241.983,31.400 242.400 C 31.267 242.817,30.817 243.267,30.400 243.400 C 29.983 243.533,29.518 244.027,29.369 244.499 C 29.219 244.971,28.040 246.404,26.748 247.683 C 25.457 248.963,24.400 250.185,24.400 250.400 C 24.400 250.615,23.343 251.837,22.052 253.117 C 20.760 254.396,19.581 255.829,19.431 256.301 C 19.282 256.773,18.817 257.267,18.400 257.400 C 17.983 257.533,17.533 257.983,17.400 258.400 C 17.267 258.817,16.817 259.267,16.400 259.400 C 15.983 259.533,15.518 260.027,15.369 260.499 C 15.219 260.971,14.040 262.404,12.748 263.683 C 11.457 264.963,10.400 266.185,10.400 266.400 C 10.400 266.615,9.343 267.837,8.052 269.117 C 6.760 270.396,5.581 271.829,5.431 272.301 C 5.282 272.773,4.817 273.267,4.400 273.400 C 3.983 273.533,3.533 273.983,3.400 274.400 C 3.267 274.817,2.809 275.270,2.380 275.406 C 1.952 275.542,1.492 276.091,1.358 276.627 C 1.223 277.162,0.953 277.600,0.757 277.600 C 0.560 277.600,0.400 277.870,0.400 278.200 C 0.400 278.720,2.022 278.800,12.600 278.800 C 20.665 278.800,24.800 278.661,24.800 278.390 C 24.800 278.165,25.880 276.923,27.200 275.632 C 28.520 274.340,29.600 273.085,29.600 272.842 C 29.600 272.599,29.768 272.400,29.973 272.400 C 30.178 272.400,30.457 272.049,30.594 271.620 C 30.730 271.192,31.183 270.733,31.600 270.600 C 32.017 270.467,32.467 270.017,32.600 269.600 C 32.733 269.183,33.192 268.730,33.620 268.594 C 34.049 268.457,34.400 268.067,34.400 267.726 C 34.400 267.384,35.570 265.958,37.000 264.556 C 38.430 263.154,39.600 261.827,39.600 261.608 C 39.600 261.389,40.657 260.163,41.948 258.883 C 43.240 257.604,44.419 256.171,44.569 255.699 C 44.718 255.227,45.183 254.733,45.600 254.600 C 46.017 254.467,46.467 254.017,46.600 253.600 C 46.733 253.183,47.183 252.733,47.600 252.600 C 48.017 252.467,48.482 251.973,48.631 251.501 C 48.781 251.029,49.960 249.596,51.252 248.317 C 52.543 247.037,53.600 245.815,53.600 245.600 C 53.600 245.385,54.657 244.163,55.948 242.883 C 57.240 241.604,58.419 240.171,58.569 239.699 C 58.718 239.227,59.183 238.733,59.600 238.600 C 60.017 238.467,60.467 238.017,60.600 237.600 C 60.733 237.183,61.183 236.733,61.600 236.600 C 62.017 236.467,62.470 236.008,62.606 235.580 C 62.743 235.151,63.022 234.800,63.227 234.800 C 63.432 234.800,63.600 234.530,63.600 234.200 C 63.600 233.870,63.780 233.600,64.000 233.600 C 64.220 233.600,64.400 233.870,64.400 234.200 C 64.400 234.530,64.558 234.800,64.750 234.800 C 64.943 234.800,65.213 235.364,65.351 236.054 C 65.489 236.743,65.949 237.609,66.374 237.977 C 66.799 238.346,67.268 239.132,67.417 239.724 C 67.565 240.316,67.847 240.800,68.043 240.800 C 68.240 240.800,68.400 241.160,68.400 241.600 C 68.400 242.040,68.560 242.400,68.757 242.400 C 68.953 242.400,69.226 242.850,69.364 243.400 C 69.502 243.950,69.792 244.400,70.008 244.400 C 70.223 244.400,70.400 244.670,70.400 245.000 C 70.400 245.330,70.572 245.600,70.782 245.600 C 70.992 245.600,71.282 246.230,71.426 247.000 C 71.571 247.770,71.849 248.400,72.045 248.400 C 72.240 248.400,72.400 248.578,72.400 248.795 C 72.400 250.772,72.651 250.800,90.289 250.800 L 106.800 250.800 106.800 249.629 C 106.800 248.984,106.530 248.187,106.200 247.857 C 105.870 247.527,105.600 247.064,105.600 246.829 C 105.600 246.593,105.428 246.400,105.218 246.400 C 105.008 246.400,104.718 245.770,104.574 245.000 C 104.429 244.230,104.151 243.600,103.955 243.600 C 103.760 243.600,103.600 243.330,103.600 243.000 C 103.600 242.670,103.440 242.400,103.243 242.400 C 103.047 242.400,102.774 241.950,102.636 241.400 C 102.498 240.850,102.208 240.400,101.992 240.400 C 101.777 240.400,101.600 240.130,101.600 239.800 C 101.600 239.470,101.440 239.200,101.245 239.200 C 101.049 239.200,100.771 238.570,100.626 237.800 C 100.482 237.030,100.192 236.400,99.982 236.400 C 99.772 236.400,99.600 236.130,99.600 235.800 C 99.600 235.470,99.420 235.200,99.200 235.200 C 98.980 235.200,98.800 234.834,98.800 234.387 C 98.800 233.941,98.530 233.471,98.200 233.345 C 97.870 233.218,97.600 232.774,97.600 232.357 C 97.600 231.941,97.434 231.600,97.232 231.600 C 97.029 231.600,96.745 231.060,96.600 230.400 C 96.455 229.740,96.171 229.200,95.968 229.200 C 95.766 229.200,95.600 228.840,95.600 228.400 C 95.600 227.960,95.440 227.600,95.243 227.600 C 95.047 227.600,94.774 227.150,94.636 226.600 C 94.498 226.050,94.208 225.600,93.992 225.600 C 93.777 225.600,93.600 225.330,93.600 225.000 C 93.600 224.670,93.428 224.400,93.218 224.400 C 93.008 224.400,92.718 223.770,92.574 223.000 C 92.429 222.230,92.151 221.600,91.955 221.600 C 91.760 221.600,91.600 221.330,91.600 221.000 C 91.600 220.670,91.423 220.400,91.208 220.400 C 90.992 220.400,90.702 219.950,90.564 219.400 C 90.426 218.850,90.153 218.400,89.957 218.400 C 89.760 218.400,89.600 218.130,89.600 217.800 C 89.600 217.470,89.440 217.200,89.245 217.200 C 89.049 217.200,88.771 216.570,88.626 215.800 C 88.482 215.030,88.192 214.400,87.982 214.400 C 87.772 214.400,87.600 214.130,87.600 213.800 C 87.600 213.470,87.423 213.200,87.208 213.200 C 86.992 213.200,86.702 212.750,86.564 212.200 C 86.426 211.650,86.153 211.200,85.957 211.200 C 85.342 211.200,85.562 208.900,86.200 208.655 C 86.530 208.529,86.800 208.072,86.800 207.640 C 86.800 207.207,87.151 206.743,87.580 206.606 C 88.008 206.470,88.467 206.017,88.600 205.600 C 88.733 205.183,89.183 204.733,89.600 204.600 C 90.017 204.467,90.470 204.008,90.606 203.580 C 90.743 203.151,91.022 202.800,91.227 202.800 C 91.432 202.800,91.600 202.607,91.600 202.371 C 91.600 202.136,92.770 200.779,94.200 199.356 C 95.630 197.933,96.800 196.591,96.800 196.374 C 96.800 196.157,97.880 194.923,99.200 193.632 C 100.520 192.340,101.600 191.085,101.600 190.842 C 101.600 190.599,101.768 190.400,101.973 190.400 C 102.178 190.400,102.457 190.049,102.594 189.620 C 102.730 189.192,103.183 188.733,103.600 188.600 C 104.017 188.467,104.467 188.017,104.600 187.600 C 104.733 187.183,105.192 186.730,105.620 186.594 C 106.049 186.457,106.400 186.069,106.400 185.730 C 106.400 185.391,107.390 184.139,108.600 182.948 C 109.810 181.757,110.800 180.606,110.800 180.389 C 110.800 180.172,112.036 178.773,113.547 177.280 C 115.057 175.787,116.417 174.178,116.567 173.703 C 116.718 173.229,117.183 172.733,117.600 172.600 C 118.017 172.467,118.467 172.017,118.600 171.600 C 118.733 171.183,119.183 170.733,119.600 170.600 C 120.017 170.467,120.482 169.973,120.631 169.501 C 120.781 169.029,121.960 167.596,123.252 166.317 C 124.543 165.037,125.600 163.811,125.600 163.592 C 125.600 163.373,126.770 162.046,128.200 160.644 C 129.630 159.242,130.800 157.816,130.800 157.474 C 130.800 157.133,131.151 156.743,131.580 156.606 C 132.008 156.470,132.467 156.017,132.600 155.600 C 132.733 155.183,133.183 154.733,133.600 154.600 C 134.017 154.467,134.470 154.008,134.606 153.580 C 134.743 153.151,135.022 152.800,135.227 152.800 C 135.432 152.800,135.600 152.601,135.600 152.358 C 135.600 152.115,136.680 150.860,138.000 149.568 C 139.320 148.277,140.400 147.039,140.400 146.818 C 140.400 146.598,141.390 145.443,142.600 144.252 C 143.810 143.061,144.800 141.809,144.800 141.470 C 144.800 141.131,145.151 140.743,145.580 140.606 C 146.008 140.470,146.467 140.017,146.600 139.600 C 146.733 139.183,147.183 138.733,147.600 138.600 C 148.017 138.467,148.467 138.017,148.600 137.600 C 148.733 137.183,149.192 136.730,149.620 136.594 C 150.049 136.457,150.400 136.069,150.400 135.730 C 150.400 135.391,151.390 134.139,152.600 132.948 C 153.810 131.757,154.800 130.602,154.800 130.382 C 154.800 130.161,155.880 128.923,157.200 127.632 C 158.520 126.340,159.600 125.162,159.600 125.013 C 159.600 124.864,159.825 124.492,160.100 124.185 C 162.876 121.090,163.254 121.198,149.700 121.216 L 137.800 121.232 135.742 123.369 M147.500 143.594 C 146.895 144.229,146.400 144.940,146.400 145.174 C 146.400 145.409,146.232 145.600,146.027 145.600 C 145.822 145.600,145.543 145.951,145.406 146.380 C 145.270 146.808,144.817 147.267,144.400 147.400 C 143.983 147.533,143.533 147.983,143.400 148.400 C 143.267 148.817,142.817 149.267,142.400 149.400 C 141.983 149.533,141.518 150.029,141.367 150.503 C 141.217 150.978,139.857 152.587,138.347 154.080 C 136.836 155.573,135.600 156.967,135.600 157.178 C 135.600 157.389,134.272 158.889,132.648 160.513 C 131.025 162.136,129.576 163.846,129.428 164.312 C 129.280 164.778,128.817 165.267,128.400 165.400 C 127.983 165.533,127.533 165.983,127.400 166.400 C 127.267 166.817,126.817 167.267,126.400 167.400 C 125.983 167.533,125.530 167.992,125.394 168.420 C 125.257 168.849,124.978 169.200,124.773 169.200 C 124.568 169.200,124.400 169.393,124.400 169.629 C 124.400 169.864,123.230 171.221,121.800 172.644 C 119.297 175.135,119.200 175.306,119.200 177.216 C 119.200 178.307,119.020 179.200,118.800 179.200 C 118.574 179.200,118.400 180.333,118.400 181.800 C 118.400 183.230,118.242 184.400,118.048 184.400 C 117.855 184.400,117.566 186.650,117.408 189.400 C 117.249 192.150,116.958 194.400,116.760 194.400 C 116.562 194.400,116.400 195.570,116.400 197.000 C 116.400 198.430,116.245 199.600,116.057 199.600 C 115.868 199.600,115.586 201.805,115.429 204.500 C 115.273 207.195,114.978 209.460,114.773 209.533 C 114.568 209.607,114.400 210.897,114.400 212.400 C 114.400 213.903,114.232 215.193,114.027 215.267 C 113.822 215.340,113.527 217.605,113.371 220.300 C 113.214 222.995,112.932 225.200,112.743 225.200 C 112.555 225.200,112.400 226.370,112.400 227.800 C 112.400 229.230,112.238 230.400,112.040 230.400 C 111.842 230.400,111.551 232.650,111.392 235.400 C 111.234 238.150,110.945 240.400,110.752 240.400 C 110.558 240.400,110.400 241.570,110.400 243.000 C 110.400 244.467,110.226 245.600,110.000 245.600 C 109.774 245.600,109.600 246.733,109.600 248.200 L 109.600 250.800 149.500 250.794 C 171.445 250.791,189.610 250.654,189.867 250.491 C 190.142 250.315,190.451 248.434,190.621 245.897 C 190.780 243.534,191.065 241.600,191.255 241.600 C 191.445 241.600,191.600 240.520,191.600 239.200 C 191.600 237.867,191.778 236.800,192.000 236.800 C 192.220 236.800,192.400 235.990,192.400 235.000 L 192.400 233.200 166.000 233.200 L 139.600 233.200 139.600 231.000 C 139.600 229.790,139.760 228.800,139.955 228.800 C 140.150 228.800,140.440 226.100,140.600 222.800 C 140.760 219.500,141.050 216.800,141.245 216.800 C 141.440 216.800,141.600 215.450,141.600 213.800 C 141.600 212.150,141.760 210.800,141.955 210.800 C 142.150 210.800,142.440 208.100,142.600 204.800 C 142.760 201.500,143.050 198.800,143.245 198.800 C 143.440 198.800,143.600 197.450,143.600 195.800 C 143.600 194.150,143.763 192.800,143.963 192.800 C 144.162 192.800,144.455 190.280,144.614 187.200 C 144.773 184.120,145.059 181.600,145.251 181.600 C 145.443 181.600,145.600 180.250,145.600 178.600 C 145.600 176.950,145.760 175.600,145.955 175.600 C 146.150 175.600,146.440 172.900,146.600 169.600 C 146.760 166.300,147.050 163.600,147.245 163.600 C 147.440 163.600,147.600 162.250,147.600 160.600 C 147.600 158.950,147.760 157.600,147.955 157.600 C 148.150 157.600,148.440 154.900,148.600 151.600 C 148.760 148.300,149.050 145.600,149.245 145.600 C 149.440 145.600,149.600 144.880,149.600 144.000 C 149.600 142.080,149.044 141.972,147.500 143.594 M313.459 236.260 C 313.316 237.944,313.200 240.284,313.200 241.460 C 313.200 242.637,313.020 243.600,312.800 243.600 C 312.563 243.600,312.400 245.067,312.400 247.200 L 312.400 250.800 351.367 250.800 C 392.599 250.800,391.600 250.836,391.600 249.357 C 391.600 248.831,391.760 248.400,391.956 248.400 C 392.151 248.400,392.441 246.240,392.600 243.600 C 392.759 240.960,393.049 238.800,393.244 238.800 C 393.440 238.800,393.600 237.540,393.600 236.000 L 393.600 233.200 353.659 233.200 L 313.717 233.200 313.459 236.260 " stroke="none" fill="#e41c34" fill-rule="evenodd"></path><path id="path1" d="M160.400 196.748 C 160.400 196.939,159.615 197.184,158.655 197.293 C 157.263 197.450,156.557 197.843,155.155 199.245 L 153.400 201.000 153.400 204.767 C 153.400 207.424,153.547 208.582,153.900 208.700 C 154.175 208.792,154.400 209.122,154.400 209.433 C 154.400 210.162,155.832 211.600,156.557 211.600 C 156.864 211.600,157.218 211.870,157.345 212.200 C 157.471 212.530,157.928 212.800,158.360 212.800 C 158.793 212.800,159.257 213.151,159.394 213.580 C 159.530 214.008,159.991 214.470,160.420 214.606 C 160.848 214.742,161.308 215.291,161.442 215.827 C 161.577 216.362,161.892 216.803,162.143 216.806 C 162.476 216.811,162.479 216.892,162.154 217.106 C 161.909 217.268,161.588 217.785,161.441 218.256 C 161.063 219.470,155.600 219.930,155.600 218.748 C 155.600 218.557,155.345 218.400,155.033 218.400 C 154.722 218.400,154.407 218.235,154.333 218.033 C 153.899 216.839,151.200 217.117,151.200 218.355 C 151.200 219.040,151.020 219.600,150.800 219.600 C 149.829 219.600,150.378 222.379,151.400 222.636 C 151.950 222.774,152.400 223.047,152.400 223.243 C 152.400 223.440,152.835 223.600,153.367 223.600 C 153.898 223.600,154.404 223.813,154.491 224.074 C 154.721 224.762,163.270 224.787,163.500 224.100 C 163.592 223.825,163.839 223.600,164.050 223.600 C 164.443 223.600,165.266 222.998,166.119 222.086 C 167.362 220.758,167.600 220.427,167.600 220.029 C 167.600 219.793,167.780 219.600,168.000 219.600 C 168.233 219.600,168.400 218.267,168.400 216.400 C 168.400 214.533,168.233 213.200,168.000 213.200 C 167.780 213.200,167.600 212.935,167.600 212.611 C 167.600 211.868,164.167 208.400,163.432 208.400 C 163.132 208.400,162.782 208.130,162.655 207.800 C 162.529 207.470,162.072 207.200,161.640 207.200 C 161.205 207.200,160.740 206.842,160.600 206.400 C 160.460 205.960,160.178 205.600,159.973 205.600 C 159.768 205.600,159.600 204.989,159.600 204.243 C 159.600 202.865,160.104 202.400,161.599 202.400 C 162.003 202.400,162.425 202.175,162.536 201.900 C 162.687 201.528,162.824 201.518,163.070 201.861 C 163.251 202.114,164.249 202.449,165.287 202.604 C 166.631 202.806,167.243 203.105,167.414 203.643 C 167.733 204.649,168.800 204.615,168.800 203.600 C 168.800 203.160,168.980 202.800,169.200 202.800 C 169.420 202.800,169.600 201.990,169.600 201.000 C 169.600 199.667,169.444 199.200,169.000 199.200 C 168.670 199.200,168.400 199.020,168.400 198.800 C 168.400 198.580,168.040 198.400,167.600 198.400 C 167.160 198.400,166.800 198.222,166.800 198.005 C 166.800 197.787,166.080 197.494,165.200 197.354 C 164.320 197.213,163.600 196.941,163.600 196.749 C 163.600 196.557,162.880 196.400,162.000 196.400 C 161.120 196.400,160.400 196.557,160.400 196.748 M233.600 196.743 C 233.600 196.932,232.475 197.203,231.100 197.347 C 229.725 197.490,228.540 197.786,228.467 198.004 C 228.393 198.222,228.078 198.400,227.767 198.400 C 227.455 198.400,227.200 198.568,227.200 198.773 C 227.200 198.978,226.812 199.269,226.337 199.420 C 225.335 199.738,222.400 202.533,222.400 203.169 C 222.400 203.406,222.223 203.600,222.008 203.600 C 221.792 203.600,221.502 204.050,221.364 204.600 C 221.226 205.150,220.953 205.600,220.757 205.600 C 220.560 205.600,220.400 206.050,220.400 206.600 C 220.400 207.150,220.220 207.600,220.000 207.600 C 219.757 207.600,219.600 209.400,219.600 212.200 C 219.600 215.000,219.757 216.800,220.000 216.800 C 220.220 216.800,220.400 217.250,220.400 217.800 C 220.400 218.350,220.568 218.800,220.773 218.800 C 220.978 218.800,221.267 219.181,221.415 219.648 C 221.783 220.806,223.745 222.800,224.516 222.800 C 224.863 222.800,225.258 223.152,225.394 223.583 C 225.590 224.198,226.150 224.423,228.021 224.634 C 229.330 224.782,230.400 225.060,230.400 225.252 C 230.400 225.443,231.300 225.600,232.400 225.600 C 233.500 225.600,234.400 225.446,234.400 225.259 C 234.400 225.071,235.795 224.800,237.500 224.656 C 239.205 224.512,240.660 224.215,240.733 223.997 C 240.807 223.779,241.192 223.600,241.591 223.600 C 242.580 223.600,242.800 222.829,242.800 219.367 C 242.800 216.667,242.728 216.400,242.000 216.400 C 241.560 216.400,241.200 216.577,241.200 216.792 C 241.200 217.008,240.750 217.298,240.200 217.436 C 239.650 217.574,239.200 217.847,239.200 218.043 C 239.200 218.240,238.765 218.400,238.233 218.400 C 237.702 218.400,237.199 218.604,237.115 218.854 C 236.894 219.519,229.921 219.562,229.700 218.900 C 229.608 218.625,229.355 218.400,229.138 218.400 C 228.921 218.400,228.489 218.146,228.179 217.836 C 227.868 217.525,227.386 217.195,227.107 217.103 C 226.129 216.777,226.422 208.223,227.443 207.334 C 227.906 206.930,228.413 206.195,228.569 205.701 C 228.726 205.206,229.291 204.692,229.827 204.558 C 230.362 204.423,230.800 204.153,230.800 203.957 C 230.800 203.760,231.145 203.600,231.567 203.600 C 231.988 203.600,232.409 203.375,232.501 203.100 C 232.626 202.728,234.064 202.619,238.134 202.674 L 243.600 202.748 243.600 201.174 C 243.600 200.308,243.780 199.600,244.000 199.600 C 244.657 199.600,244.452 197.706,243.767 197.443 C 243.419 197.309,242.519 197.200,241.767 197.200 C 241.015 197.200,240.400 197.020,240.400 196.800 C 240.400 196.565,239.000 196.400,237.000 196.400 C 235.130 196.400,233.600 196.554,233.600 196.743 M270.400 197.000 C 270.400 197.330,270.240 197.600,270.045 197.600 C 269.849 197.600,269.571 198.230,269.426 199.000 C 269.282 199.770,268.992 200.400,268.782 200.400 C 268.572 200.400,268.400 200.850,268.400 201.400 C 268.400 201.950,268.228 202.400,268.018 202.400 C 267.808 202.400,267.518 203.030,267.374 203.800 C 267.229 204.570,266.951 205.200,266.755 205.200 C 266.560 205.200,266.400 205.470,266.400 205.800 C 266.400 206.130,266.228 206.400,266.018 206.400 C 265.808 206.400,265.518 207.030,265.374 207.800 C 265.229 208.570,264.951 209.200,264.755 209.200 C 264.560 209.200,264.400 209.650,264.400 210.200 C 264.400 210.750,264.234 211.200,264.032 211.200 C 263.829 211.200,263.545 211.740,263.400 212.400 C 263.255 213.060,262.971 213.600,262.768 213.600 C 262.566 213.600,262.400 213.960,262.400 214.400 C 262.400 214.840,262.222 215.200,262.005 215.200 C 261.787 215.200,261.494 215.920,261.354 216.800 C 261.213 217.680,260.941 218.400,260.749 218.400 C 260.557 218.400,260.400 218.670,260.400 219.000 C 260.400 219.330,260.240 219.600,260.045 219.600 C 259.849 219.600,259.571 220.230,259.426 221.000 C 259.282 221.770,258.992 222.400,258.782 222.400 C 258.572 222.400,258.400 222.670,258.400 223.000 C 258.400 223.330,258.220 223.600,258.000 223.600 C 257.780 223.600,257.600 223.870,257.600 224.200 C 257.600 224.689,258.267 224.800,261.200 224.800 C 264.133 224.800,264.800 224.689,264.800 224.200 C 264.800 223.870,264.980 223.600,265.200 223.600 C 265.420 223.600,265.600 223.330,265.600 223.000 C 265.600 222.670,265.760 222.400,265.955 222.400 C 266.150 222.400,266.431 221.590,266.579 220.600 L 266.849 218.800 270.625 218.800 C 274.133 218.800,274.400 218.857,274.400 219.600 C 274.400 220.040,274.580 220.400,274.800 220.400 C 275.020 220.400,275.200 221.390,275.200 222.600 L 275.200 224.800 278.400 224.800 L 281.600 224.800 281.600 223.200 C 281.600 222.320,281.442 221.600,281.248 221.600 C 281.054 221.600,280.767 219.710,280.609 217.400 C 280.452 215.090,280.160 213.200,279.962 213.200 C 279.763 213.200,279.600 212.300,279.600 211.200 C 279.600 210.100,279.439 209.200,279.243 209.200 C 279.047 209.200,278.757 207.400,278.600 205.200 C 278.443 203.000,278.153 201.200,277.957 201.200 C 277.761 201.200,277.600 200.377,277.600 199.371 C 277.600 196.789,277.053 196.400,273.429 196.400 C 271.003 196.400,270.400 196.519,270.400 197.000 M176.400 197.800 C 176.400 198.130,176.238 198.400,176.040 198.400 C 175.842 198.400,175.551 200.650,175.392 203.400 C 175.234 206.150,174.945 208.400,174.752 208.400 C 174.558 208.400,174.400 209.570,174.400 211.000 C 174.400 212.430,174.238 213.600,174.040 213.600 C 173.842 213.600,173.551 215.850,173.392 218.600 C 173.234 221.350,172.945 223.600,172.752 223.600 C 172.558 223.600,172.400 223.870,172.400 224.200 C 172.400 224.683,173.022 224.800,175.600 224.800 L 178.800 224.800 178.800 223.600 C 178.800 222.940,178.980 222.400,179.200 222.400 C 179.422 222.400,179.600 221.333,179.600 220.000 C 179.600 218.667,179.778 217.600,180.000 217.600 C 180.220 217.600,180.400 216.996,180.400 216.258 L 180.400 214.916 184.489 214.691 C 186.871 214.560,188.638 214.285,188.722 214.033 C 188.802 213.795,189.125 213.600,189.440 213.600 C 190.172 213.600,192.800 210.914,192.800 210.166 C 192.800 209.855,192.980 209.600,193.200 209.600 C 193.420 209.600,193.600 208.970,193.600 208.200 C 193.600 207.430,193.780 206.800,194.000 206.800 C 194.220 206.800,194.400 206.080,194.400 205.200 C 194.400 204.320,194.220 203.600,194.000 203.600 C 193.780 203.600,193.600 203.150,193.600 202.600 C 193.600 202.050,193.440 201.600,193.243 201.600 C 193.047 201.600,192.777 201.162,192.642 200.627 C 192.508 200.091,192.048 199.542,191.620 199.406 C 191.191 199.270,190.736 198.830,190.609 198.427 C 190.177 197.068,176.400 196.460,176.400 197.800 M199.200 198.400 C 199.200 199.060,199.020 199.600,198.800 199.600 C 198.578 199.600,198.400 200.667,198.400 202.000 C 198.400 203.320,198.242 204.400,198.048 204.400 C 197.855 204.400,197.566 206.650,197.408 209.400 C 197.249 212.150,196.958 214.400,196.760 214.400 C 196.562 214.400,196.400 215.570,196.400 217.000 C 196.400 218.467,196.226 219.600,196.000 219.600 C 195.769 219.600,195.600 220.867,195.600 222.600 L 195.600 225.600 205.200 225.600 C 213.467 225.600,214.800 225.517,214.800 225.000 C 214.800 224.670,214.980 224.400,215.200 224.400 C 215.420 224.400,215.600 223.950,215.600 223.400 C 215.600 222.850,215.780 222.400,216.000 222.400 C 216.220 222.400,216.400 221.770,216.400 221.000 L 216.400 219.600 209.353 219.600 L 202.307 219.600 202.548 218.700 C 202.681 218.205,202.792 216.855,202.795 215.700 L 202.800 213.600 207.800 213.600 L 212.800 213.600 212.800 211.000 L 212.800 208.400 208.600 208.400 L 204.400 208.400 204.406 206.100 C 204.415 202.751,204.251 202.838,210.817 202.711 C 216.471 202.602,216.603 202.580,216.728 201.700 C 216.798 201.205,217.023 200.800,217.228 200.800 C 217.433 200.800,217.600 200.350,217.600 199.800 C 217.600 199.250,217.780 198.800,218.000 198.800 C 218.220 198.800,218.400 198.440,218.400 198.000 C 218.400 197.222,218.133 197.200,208.800 197.200 L 199.200 197.200 199.200 198.400 M251.200 198.800 C 251.200 199.680,251.020 200.400,250.800 200.400 C 250.578 200.400,250.400 201.467,250.400 202.800 C 250.400 204.120,250.242 205.200,250.048 205.200 C 249.855 205.200,249.566 207.450,249.408 210.200 C 249.249 212.950,248.958 215.200,248.760 215.200 C 248.562 215.200,248.400 216.370,248.400 217.800 C 248.400 219.267,248.226 220.400,248.000 220.400 C 247.780 220.400,247.600 221.390,247.600 222.600 L 247.600 224.800 250.500 224.794 C 254.353 224.786,254.245 224.929,254.576 219.400 C 254.734 216.760,255.029 214.540,255.232 214.467 C 255.434 214.393,255.600 213.103,255.600 211.600 C 255.600 210.097,255.768 208.807,255.973 208.733 C 256.178 208.660,256.473 206.395,256.629 203.700 C 256.786 201.005,257.068 198.800,257.257 198.800 C 257.445 198.800,257.600 198.440,257.600 198.000 C 257.600 197.267,257.333 197.200,254.400 197.200 L 251.200 197.200 251.200 198.800 M288.400 199.400 C 288.400 200.610,288.238 201.600,288.040 201.600 C 287.842 201.600,287.551 203.850,287.392 206.600 C 287.234 209.350,286.945 211.600,286.752 211.600 C 286.558 211.600,286.400 212.665,286.400 213.967 C 286.400 215.268,286.246 216.393,286.058 216.467 C 285.870 216.540,285.592 218.445,285.440 220.700 L 285.163 224.800 293.777 224.800 L 302.391 224.800 302.646 223.200 C 302.787 222.320,303.059 221.600,303.251 221.600 C 303.443 221.600,303.600 221.150,303.600 220.600 L 303.600 219.600 297.966 219.600 L 292.333 219.600 292.619 215.100 C 292.776 212.625,293.062 210.540,293.253 210.467 C 293.444 210.393,293.600 209.283,293.600 208.000 C 293.600 206.717,293.754 205.607,293.942 205.533 C 294.130 205.460,294.408 203.555,294.560 201.300 L 294.837 197.200 291.618 197.200 L 288.400 197.200 288.400 199.400 M309.391 201.400 C 309.233 203.710,308.946 205.600,308.752 205.600 C 308.558 205.600,308.400 206.845,308.400 208.367 C 308.400 209.888,308.232 211.193,308.027 211.267 C 307.822 211.340,307.527 213.605,307.371 216.300 C 307.214 218.995,306.932 221.200,306.743 221.200 C 306.555 221.200,306.400 222.010,306.400 223.000 L 306.400 224.800 309.600 224.800 L 312.800 224.800 312.800 222.200 C 312.800 220.733,312.974 219.600,313.200 219.600 C 313.422 219.600,313.600 218.533,313.600 217.200 C 313.600 215.880,313.758 214.800,313.952 214.800 C 314.145 214.800,314.434 212.550,314.592 209.800 C 314.751 207.050,315.042 204.800,315.240 204.800 C 315.438 204.800,315.600 203.630,315.600 202.200 C 315.600 200.733,315.774 199.600,316.000 199.600 C 316.220 199.600,316.400 199.060,316.400 198.400 L 316.400 197.200 313.038 197.200 L 309.677 197.200 309.391 201.400 M322.900 197.465 C 322.625 197.576,322.400 198.282,322.400 199.033 C 322.400 199.785,322.220 200.400,322.000 200.400 C 321.780 200.400,321.600 200.850,321.600 201.400 L 321.600 202.400 327.400 202.400 C 331.000 202.400,333.200 202.552,333.200 202.800 C 333.200 203.020,333.020 203.200,332.800 203.200 C 332.580 203.200,332.400 203.404,332.400 203.654 C 332.400 203.904,331.950 204.525,331.400 205.035 C 330.850 205.545,330.400 206.159,330.400 206.400 C 330.400 206.641,329.950 207.255,329.400 207.765 C 328.850 208.275,328.400 208.814,328.400 208.963 C 328.400 209.221,328.007 209.751,326.900 210.985 C 326.625 211.292,326.400 211.670,326.400 211.826 C 326.400 211.981,325.950 212.525,325.400 213.035 C 324.850 213.545,324.400 214.159,324.400 214.400 C 324.400 214.641,323.950 215.255,323.400 215.765 C 322.850 216.275,322.400 216.814,322.400 216.963 C 322.400 217.221,322.007 217.751,320.900 218.985 C 320.625 219.292,320.400 219.670,320.400 219.826 C 320.400 219.981,319.950 220.525,319.400 221.035 C 318.850 221.545,318.400 222.221,318.400 222.538 C 318.400 222.855,318.130 223.218,317.800 223.345 C 317.470 223.471,317.200 223.851,317.200 224.187 C 317.200 224.723,318.647 224.800,328.767 224.800 C 341.333 224.800,341.600 224.770,341.600 223.357 C 341.600 222.831,341.780 222.400,342.000 222.400 C 342.220 222.400,342.400 221.770,342.400 221.000 L 342.400 219.600 335.600 219.600 C 329.324 219.600,327.439 219.286,329.600 218.600 C 330.040 218.460,330.400 218.023,330.400 217.629 C 330.400 217.235,330.850 216.574,331.400 216.161 C 331.950 215.748,332.400 215.191,332.400 214.923 C 332.400 214.655,332.828 214.008,333.352 213.484 C 333.876 212.961,334.425 212.152,334.573 211.687 C 334.720 211.221,335.192 210.730,335.620 210.594 C 336.049 210.457,336.400 210.023,336.400 209.629 C 336.400 209.235,336.850 208.574,337.400 208.161 C 337.950 207.748,338.400 207.191,338.400 206.923 C 338.400 206.655,338.828 206.008,339.352 205.484 C 339.876 204.961,340.425 204.152,340.573 203.687 C 340.720 203.221,341.192 202.730,341.620 202.594 C 342.049 202.457,342.400 202.049,342.400 201.686 C 342.400 201.323,342.838 200.649,343.373 200.189 C 343.908 199.729,344.468 198.869,344.617 198.277 L 344.887 197.200 334.143 197.232 C 328.235 197.249,323.175 197.354,322.900 197.465 M350.900 197.465 C 350.579 197.594,350.400 198.514,350.400 200.033 C 350.400 201.335,350.242 202.400,350.048 202.400 C 349.855 202.400,349.566 204.650,349.408 207.400 C 349.249 210.150,348.958 212.400,348.760 212.400 C 348.562 212.400,348.400 213.555,348.400 214.967 C 348.400 216.378,348.247 217.593,348.061 217.667 C 347.874 217.740,347.603 219.375,347.458 221.300 L 347.195 224.800 356.998 224.800 C 365.444 224.800,366.800 224.717,366.800 224.200 C 366.800 223.870,366.980 223.600,367.200 223.600 C 367.420 223.600,367.600 222.970,367.600 222.200 C 367.600 221.430,367.780 220.800,368.000 220.800 C 368.220 220.800,368.400 220.530,368.400 220.200 C 368.400 219.690,367.356 219.600,361.400 219.600 C 353.420 219.600,354.141 220.017,354.659 215.700 L 354.911 213.600 359.603 213.600 L 364.295 213.600 364.543 212.100 C 364.680 211.275,364.793 209.925,364.796 209.100 L 364.800 207.600 360.200 207.600 C 356.378 207.600,355.600 207.499,355.600 207.000 C 355.600 206.670,355.780 206.400,356.000 206.400 C 356.220 206.400,356.400 205.500,356.400 204.400 L 356.400 202.400 362.600 202.400 L 368.800 202.400 368.800 201.400 C 368.800 200.850,368.980 200.400,369.200 200.400 C 369.420 200.400,369.600 199.680,369.600 198.800 L 369.600 197.200 360.500 197.232 C 355.495 197.249,351.175 197.354,350.900 197.465 M375.200 198.162 C 375.200 198.733,375.020 199.200,374.800 199.200 C 374.580 199.200,374.400 200.190,374.400 201.400 C 374.400 202.610,374.245 203.600,374.057 203.600 C 373.868 203.600,373.586 205.805,373.429 208.500 C 373.273 211.195,372.978 213.460,372.773 213.533 C 372.568 213.607,372.400 214.897,372.400 216.400 C 372.400 217.903,372.246 219.193,372.057 219.267 C 371.868 219.340,371.618 220.629,371.501 222.132 L 371.287 224.863 380.711 224.732 C 387.798 224.633,390.175 224.476,390.300 224.100 C 390.392 223.825,390.643 223.600,390.859 223.600 C 391.391 223.600,395.600 219.362,395.600 218.826 C 395.600 218.592,395.769 218.400,395.975 218.400 C 396.182 218.400,396.472 217.590,396.621 216.600 C 396.769 215.610,397.050 214.800,397.245 214.800 C 397.440 214.800,397.600 212.910,397.600 210.600 C 397.600 208.290,397.443 206.400,397.251 206.400 C 397.059 206.400,396.787 205.680,396.646 204.800 C 396.506 203.920,396.213 203.200,395.995 203.200 C 395.778 203.200,395.600 202.927,395.600 202.593 C 395.600 201.836,392.932 199.200,392.166 199.200 C 391.855 199.200,391.600 199.020,391.600 198.800 C 391.600 198.580,391.345 198.400,391.033 198.400 C 390.722 198.400,390.392 198.175,390.300 197.900 C 390.177 197.531,388.184 197.364,382.667 197.262 L 375.200 197.124 375.200 198.162 M186.430 203.226 C 188.939 205.402,186.839 209.198,182.947 209.521 C 180.851 209.695,180.800 209.674,180.800 208.650 C 180.800 208.072,180.980 207.600,181.200 207.600 C 181.426 207.600,181.600 206.467,181.600 205.000 L 181.600 202.400 183.539 202.400 C 184.924 202.400,185.750 202.636,186.430 203.226 M387.125 203.176 C 387.203 203.409,387.430 203.600,387.629 203.600 C 388.304 203.600,389.600 204.974,389.600 205.689 C 389.600 206.080,389.780 206.400,390.000 206.400 C 390.220 206.400,390.400 206.670,390.400 207.000 C 390.400 207.330,390.580 207.600,390.800 207.600 C 391.031 207.600,391.200 208.867,391.200 210.600 C 391.200 212.333,391.031 213.600,390.800 213.600 C 390.580 213.600,390.400 213.960,390.400 214.400 C 390.400 214.840,390.240 215.200,390.043 215.200 C 389.847 215.200,389.577 215.638,389.442 216.173 C 389.308 216.709,388.839 217.261,388.399 217.400 C 387.960 217.540,387.600 217.822,387.600 218.027 C 387.600 218.232,387.345 218.400,387.033 218.400 C 386.722 218.400,386.392 218.625,386.300 218.900 C 386.187 219.240,384.903 219.444,382.276 219.538 L 378.419 219.677 378.670 216.338 C 378.809 214.502,379.074 212.940,379.261 212.867 C 379.447 212.793,379.600 211.578,379.600 210.167 C 379.600 208.722,379.775 207.600,380.000 207.600 C 380.221 207.600,380.400 206.556,380.400 205.267 C 380.400 203.983,380.535 202.793,380.700 202.622 C 381.135 202.171,386.958 202.673,387.125 203.176 M273.548 212.300 L 273.600 214.400 271.200 214.400 C 269.867 214.400,268.800 214.222,268.800 214.000 C 268.800 213.780,268.980 213.600,269.200 213.600 C 269.420 213.600,269.600 213.330,269.600 213.000 C 269.600 212.670,269.760 212.400,269.955 212.400 C 270.150 212.400,270.431 211.590,270.579 210.600 C 270.728 209.610,271.018 208.800,271.225 208.800 C 271.431 208.800,271.600 208.350,271.600 207.800 C 271.600 207.250,271.780 206.800,272.000 206.800 C 272.220 206.800,272.400 206.380,272.400 205.867 C 272.400 205.353,272.535 204.797,272.700 204.630 C 273.001 204.325,273.450 208.386,273.548 212.300 M200.100 233.465 C 199.825 233.576,199.600 234.282,199.600 235.033 L 199.600 236.400 201.613 236.400 L 203.625 236.400 203.353 240.700 C 203.204 243.065,202.928 245.060,202.741 245.133 C 202.553 245.207,202.400 246.512,202.400 248.033 L 202.400 250.800 203.600 250.800 C 204.667 250.800,204.800 250.667,204.800 249.600 C 204.800 248.940,204.980 248.400,205.200 248.400 C 205.422 248.400,205.600 247.333,205.600 246.000 C 205.600 244.667,205.778 243.600,206.000 243.600 C 206.220 243.600,206.402 242.655,206.404 241.500 C 206.414 236.979,206.672 236.400,208.681 236.400 C 211.148 236.400,212.870 234.173,210.967 233.443 C 210.216 233.155,200.822 233.174,200.100 233.465 M216.140 233.477 C 215.867 233.669,215.563 235.785,215.389 238.700 C 215.229 241.395,214.940 243.600,214.749 243.600 C 214.557 243.600,214.400 244.860,214.400 246.400 C 214.400 248.000,214.229 249.200,214.000 249.200 C 213.152 249.200,213.651 250.398,214.599 250.636 C 216.187 251.034,216.800 250.582,216.800 249.013 C 216.800 248.236,216.980 247.600,217.200 247.600 C 217.420 247.600,217.600 246.700,217.600 245.600 C 217.600 243.733,217.667 243.600,218.600 243.600 C 219.222 243.600,219.600 243.827,219.600 244.200 C 219.600 244.530,219.780 244.800,220.000 244.800 C 220.220 244.800,220.400 245.160,220.400 245.600 C 220.400 246.040,220.566 246.400,220.768 246.400 C 220.971 246.400,221.255 246.940,221.400 247.600 C 221.545 248.260,221.829 248.800,222.032 248.800 C 222.234 248.800,222.400 249.141,222.400 249.557 C 222.400 250.387,223.141 250.800,224.633 250.800 C 225.333 250.800,225.600 250.579,225.600 250.000 C 225.600 249.560,225.431 249.200,225.225 249.200 C 225.018 249.200,224.728 248.390,224.579 247.400 C 224.431 246.410,224.150 245.600,223.955 245.600 C 223.760 245.600,223.600 245.345,223.600 245.033 C 223.600 244.722,223.444 244.407,223.253 244.333 C 222.216 243.935,222.402 242.405,223.630 241.231 C 225.313 239.623,225.229 236.393,223.458 234.621 C 222.327 233.491,217.251 232.697,216.140 233.477 M235.089 234.005 C 234.710 234.447,234.400 235.167,234.400 235.605 C 234.400 236.042,234.222 236.400,234.005 236.400 C 233.787 236.400,233.494 237.120,233.354 238.000 C 233.213 238.880,232.941 239.600,232.749 239.600 C 232.557 239.600,232.400 239.960,232.400 240.400 C 232.400 240.840,232.243 241.200,232.051 241.200 C 231.859 241.200,231.587 241.920,231.446 242.800 C 231.306 243.680,231.013 244.400,230.795 244.400 C 230.578 244.400,230.400 244.850,230.400 245.400 C 230.400 245.950,230.228 246.400,230.018 246.400 C 229.808 246.400,229.518 247.030,229.374 247.800 C 229.229 248.570,228.951 249.200,228.755 249.200 C 228.052 249.200,228.418 250.352,229.200 250.600 C 230.383 250.975,231.600 250.455,231.600 249.573 C 231.600 249.148,231.757 248.800,231.949 248.800 C 232.141 248.800,232.413 248.080,232.554 247.200 L 232.809 245.600 235.205 245.600 L 237.600 245.600 237.600 247.600 C 237.600 248.700,237.780 249.600,238.000 249.600 C 238.220 249.600,238.400 249.882,238.400 250.227 C 238.400 250.674,238.714 250.817,239.500 250.727 L 240.600 250.600 240.458 247.600 C 240.379 245.950,240.154 244.540,239.958 244.467 C 239.761 244.393,239.600 243.448,239.600 242.367 C 239.600 241.285,239.439 240.400,239.242 240.400 C 239.045 240.400,238.753 238.915,238.594 237.100 C 238.435 235.285,238.101 233.668,237.852 233.506 C 237.023 232.968,235.786 233.191,235.089 234.005 M247.200 233.800 C 247.200 234.130,247.020 234.400,246.800 234.400 C 246.578 234.400,246.400 235.456,246.400 236.767 C 246.400 238.068,246.234 239.193,246.030 239.267 C 245.827 239.340,245.532 241.965,245.374 245.100 L 245.088 250.800 246.344 250.800 C 247.473 250.800,247.600 250.679,247.600 249.600 C 247.600 248.940,247.758 248.400,247.952 248.400 C 248.145 248.400,248.434 245.970,248.593 243.000 C 248.752 240.030,249.044 237.600,249.241 237.600 C 249.438 237.600,249.600 236.610,249.600 235.400 C 249.600 233.222,249.588 233.200,248.400 233.200 C 247.600 233.200,247.200 233.400,247.200 233.800 M256.400 234.400 C 256.400 235.060,256.238 235.600,256.040 235.600 C 255.842 235.600,255.551 237.850,255.392 240.600 C 255.234 243.350,254.945 245.600,254.752 245.600 C 254.558 245.600,254.400 246.776,254.400 248.214 L 254.400 250.828 258.500 250.714 L 262.600 250.600 262.724 249.100 L 262.848 247.600 260.224 247.600 L 257.600 247.600 257.600 245.233 C 257.600 243.932,257.766 242.807,257.968 242.733 C 258.171 242.660,258.465 240.485,258.623 237.900 L 258.909 233.200 257.654 233.200 C 256.527 233.200,256.400 233.322,256.400 234.400 M268.900 233.465 C 268.595 233.588,268.400 234.434,268.400 235.633 C 268.400 236.715,268.245 237.600,268.057 237.600 C 267.868 237.600,267.586 239.805,267.429 242.500 C 267.273 245.195,266.978 247.460,266.773 247.533 C 266.125 247.765,266.342 250.292,267.033 250.557 C 268.788 251.231,276.215 250.808,276.911 249.995 C 278.381 248.279,277.281 247.600,273.029 247.600 C 269.638 247.600,269.600 247.589,269.600 246.600 C 269.600 246.050,269.780 245.600,270.000 245.600 C 270.220 245.600,270.400 245.150,270.400 244.600 C 270.400 243.636,270.493 243.600,273.000 243.600 L 275.600 243.600 275.600 242.000 L 275.600 240.400 273.200 240.400 L 270.800 240.400 270.800 238.400 L 270.800 236.400 274.200 236.400 C 277.333 236.400,277.600 236.337,277.600 235.600 C 277.600 235.160,277.780 234.800,278.000 234.800 C 278.646 234.800,278.458 233.708,277.767 233.443 C 277.018 233.155,269.622 233.174,268.900 233.465 M283.466 234.047 C 283.326 234.571,283.208 236.035,283.205 237.300 C 283.202 238.565,283.020 239.600,282.800 239.600 C 282.578 239.600,282.400 240.667,282.400 242.000 C 282.400 243.333,282.222 244.400,282.000 244.400 C 281.767 244.400,281.600 245.733,281.600 247.600 L 281.600 250.800 282.946 250.800 C 284.420 250.800,284.800 249.682,284.800 245.344 C 284.800 243.214,286.866 242.615,287.364 244.600 C 287.502 245.150,287.792 245.600,288.008 245.600 C 288.223 245.600,288.400 246.050,288.400 246.600 C 288.400 247.150,288.566 247.600,288.768 247.600 C 288.971 247.600,289.263 248.185,289.418 248.900 C 290.004 251.597,293.038 251.791,292.678 249.109 C 292.554 248.178,292.260 247.353,292.026 247.275 C 291.792 247.197,291.600 246.788,291.600 246.367 C 291.600 245.945,291.434 245.600,291.232 245.600 C 291.029 245.600,290.745 245.060,290.600 244.400 C 290.455 243.740,290.171 243.200,289.968 243.200 C 289.766 243.200,289.600 243.020,289.600 242.800 C 289.600 242.580,289.793 242.400,290.029 242.400 C 290.264 242.400,290.714 242.143,291.029 241.829 C 291.343 241.514,291.600 241.064,291.600 240.829 C 291.600 240.593,291.780 240.400,292.000 240.400 C 292.220 240.400,292.400 239.500,292.400 238.400 C 292.400 237.300,292.220 236.400,292.000 236.400 C 291.780 236.400,291.600 236.207,291.600 235.971 C 291.600 235.736,291.346 235.289,291.036 234.979 C 290.725 234.668,290.406 234.217,290.325 233.975 C 289.981 232.943,283.744 233.008,283.466 234.047 M300.023 233.491 C 296.605 234.838,296.348 239.186,299.500 242.338 C 300.655 243.493,301.600 244.685,301.600 244.986 C 301.600 245.287,301.825 245.638,302.100 245.767 C 302.500 245.953,302.500 246.047,302.100 246.233 C 301.825 246.362,301.600 246.745,301.600 247.085 C 301.600 247.823,297.931 247.593,297.680 246.839 C 297.317 245.750,296.400 246.458,296.400 247.829 C 296.400 249.999,297.235 250.565,300.435 250.565 C 304.108 250.565,304.800 249.832,304.800 245.947 L 304.800 243.217 302.600 241.052 C 300.202 238.692,299.840 237.457,301.205 236.289 C 302.089 235.532,303.200 235.371,303.200 236.000 C 303.200 236.220,303.740 236.400,304.400 236.400 C 305.786 236.400,306.258 233.938,304.967 233.443 C 304.193 233.146,300.815 233.178,300.023 233.491 M221.533 237.541 C 221.816 239.537,221.290 240.400,219.792 240.400 C 218.420 240.400,217.626 237.707,218.686 236.648 C 219.374 235.960,221.399 236.595,221.533 237.541 M288.567 236.643 C 289.366 236.949,289.407 239.051,288.629 239.829 C 287.605 240.852,285.600 240.569,285.600 239.400 C 285.600 238.850,285.780 238.400,286.000 238.400 C 286.220 238.400,286.400 237.950,286.400 237.400 C 286.400 236.375,287.169 236.106,288.567 236.643 M236.400 240.600 C 236.400 241.590,236.580 242.400,236.800 242.400 C 237.020 242.400,237.200 242.580,237.200 242.800 C 237.200 243.020,236.575 243.200,235.810 243.200 C 234.461 243.200,234.014 240.962,235.263 240.467 C 235.449 240.393,235.600 239.988,235.600 239.567 C 235.600 239.145,235.780 238.800,236.000 238.800 C 236.220 238.800,236.400 239.610,236.400 240.600 " stroke="none" fill="#040404" fill-rule="evenodd"></path></g></svg>