<svg id="svg" xmlns="http://www.w3.org/2000/svg"  width="400" height="400" viewBox="0, 0, 400,400"><g id="svgg"><path id="path0" d="M222.269 108.716 C 186.504 149.346,156.689 182.247,156.012 181.829 C 155.335 181.410,150.844 173.578,146.032 164.424 L 137.282 147.781 102.032 147.758 L 66.781 147.735 70.160 153.659 C 94.726 196.723,112.997 233.123,111.141 235.296 C 110.044 236.580,85.032 265.226,55.559 298.955 C 26.085 332.683,1.490 361.063,0.903 362.021 C 0.064 363.391,5.140 363.742,24.656 363.667 L 49.477 363.570 90.592 316.362 C 113.206 290.398,132.021 269.126,132.404 269.092 C 132.787 269.057,137.503 277.017,142.883 286.779 L 152.666 304.530 187.134 304.902 C 206.590 305.113,221.603 304.736,221.603 304.036 C 221.603 303.141,180.294 226.714,176.229 220.090 C 175.954 219.641,211.764 178.281,255.808 128.180 C 299.852 78.078,335.889 36.581,335.889 35.964 C 335.889 35.348,324.955 34.843,311.592 34.843 L 287.295 34.843 222.269 108.716 M279.239 114.138 L 248.426 148.654 238.496 224.501 C 233.035 266.217,228.567 301.451,228.569 302.798 C 228.571 305.113,233.189 305.228,311.847 304.889 L 395.122 304.530 397.470 289.199 C 398.762 280.767,399.860 272.770,399.909 271.429 C 399.994 269.145,396.484 268.990,344.948 268.990 C 298.251 268.990,289.895 268.688,289.895 267.005 C 289.895 265.914,294.575 223.451,300.295 172.643 C 306.015 121.835,310.550 80.121,310.373 79.944 C 310.196 79.767,296.186 95.154,279.239 114.138 " stroke="none" fill-rule="evenodd"></path></g></svg>