<?xml version="1.0" encoding="UTF-8" standalone="no"?>
<svg
   xmlns="http://www.w3.org/2000/svg"
   version="1.1"
   viewBox="0, 0, 400,400"
   height="400"
   width="400"
   id="svg">
  <g
     id="svgg">
    <path
       style="fill-rule:evenodd;stroke:none;stroke-width:1.25820649"
       d="m 119.78173,105.73493 v 2.09743 h 81.15432 81.15431 v -2.09743 -2.09617 h -81.15431 -81.15432 v 2.09617 m 0,11.53398 v 2.09743 h 81.15432 81.15431 v -2.09743 -2.09743 h -81.15431 -81.15432 v 2.09743 m -0.21012,11.60318 v 1.95777 l 60.86574,0.13966 c 33.47584,0.0768 70.04309,0.13966 81.25875,0.13966 h 20.39426 v -2.09743 -2.09617 h -81.26 -81.25875 v 1.95651 m 0,10.72999 v 2.20186 h 81.25875 81.26 v -2.20186 -2.20187 h -81.26 -81.25875 v 2.20187 m 0,11.11373 v 1.993 H 81.196305 c -21.106414,0 -38.376556,0.0705 -38.379073,0.15728 -0.0013,0.0856 0.446664,1.02921 0.995242,2.09617 l 0.997758,1.94016 154.341678,-0.001 154.34167,-0.001 0.40892,-0.68069 c 0.97008,-1.61554 2.21193,-3.77462 2.21193,-3.85011 0,-0.044 -16.79706,-0.0805 -37.32722,-0.0805 h -37.32595 v -1.78162 -1.78288 H 200.5158 119.57161 v 1.99174 m 0,10.80045 V 163.194 H 84.027269 c -22.070199,0 -35.544333,0.0742 -35.544333,0.19754 0,0.1082 0.09185,0.25415 0.205088,0.32335 0.11198,0.0692 0.607714,0.97134 1.100931,2.00433 l 0.895843,1.87598 148.600482,0.001 148.60173,10e-4 0.56368,-1.20536 c 0.30952,-0.66308 0.69831,-1.457 0.86313,-1.76275 0.16483,-0.30574 0.29945,-0.66056 0.29945,-0.78638 0,-0.16608 -9.5133,-0.23025 -34.076,-0.23025 h -34.07601 v -1.88731 -1.88731 H 200.5158 119.57161 v 1.67845 m 0.13966,9.99519 c -0.0767,0.0768 -0.13966,0.78512 -0.13966,1.57276 v 1.4331 H 86.858234 c -17.992353,0 -32.713369,0.0629 -32.713369,0.14091 0,0.0768 0.129596,0.28939 0.289388,0.47183 0.158534,0.18244 0.626587,0.96253 1.03802,1.73381 0.412692,0.77128 0.871937,1.59792 1.020406,1.83447 l 0.269256,0.43282 142.576185,-0.0528 142.57493,-0.0528 0.80903,-1.33118 c 0.4454,-0.73228 0.81028,-1.37774 0.81028,-1.43436 0,-0.0579 0.18873,-0.34349 0.41898,-0.63665 0.23151,-0.29316 0.42025,-0.61526 0.42025,-0.71466 0,-0.10192 -13.8906,-0.18118 -31.44636,-0.18118 h -31.44635 l -0.0617,-1.62561 -0.0616,-1.6256 -80.75169,-0.0528 c -44.41343,-0.0289 -80.8146,0.0113 -80.89261,0.0881 m -0.13966,12.86139 v 1.2582 H 89.986135 c -16.272384,0 -29.551495,0.0717 -29.509975,0.15728 1.479651,3.11406 1.847048,3.95328 1.847048,4.21751 0,0.28687 23.455485,0.30071 171.082112,0.0994 l 102.57906,-0.13966 0.94366,-1.88606 c 0.51838,-1.03802 0.94239,-1.96657 0.94239,-2.0622 0,-0.0969 -12.69278,-0.17615 -28.20521,-0.17615 h -28.20396 v -1.36263 -1.3639 H 200.5158 119.57161 v 1.25821 m 0.21012,11.53272 v 1.46707 l -26.631205,0.0541 -26.631199,0.0528 1.112255,2.20187 1.110996,2.20186 130.678583,0.0528 130.67859,0.0529 0.94994,-1.99174 c 0.52216,-1.0959 0.94869,-2.08611 0.94869,-2.20187 0,-0.13966 -8.49792,-0.21137 -25.26856,-0.21137 h -25.26856 v -1.57276 -1.57276 h -80.83977 -80.83976 v 1.46707 m -0.21012,11.0093 v 1.57276 l -23.693294,0.0529 -23.693286,0.0528 0.285613,0.52467 c 0.157276,0.28813 0.520897,0.95247 0.80651,1.47588 0.286871,0.52341 0.621554,1.13742 0.744859,1.36264 0.123304,0.22648 0.274289,0.57751 0.337199,0.77883 0.108206,0.34978 6.195409,0.36488 125.022949,0.31455 l 124.90971,-0.0529 0.83167,-1.67718 c 0.45799,-0.92227 0.91849,-1.84202 1.02292,-2.04207 0.10444,-0.20006 0.18999,-0.45925 0.18999,-0.57626 0,-0.14218 -7.41838,-0.21264 -22.43759,-0.21264 h -22.4376 v -1.57276 -1.57276 H 200.5158 119.57161 v 1.5715 m 0,11.22069 v 1.67719 H 98.811196 c -11.418224,0 -20.760407,0.0264 -20.760407,0.0579 0,0.0327 0.372429,0.78763 0.8279,1.67844 l 0.827899,1.61932 H 41.586706 c -20.965494,0 -38.1827915,0.0629 -38.2608003,0.14092 -0.078009,0.078 0.1799236,0.33719 0.572484,0.57625 0.6064555,0.36992 1.4041584,0.87949 3.3065666,2.11379 1.382769,0.89584 2.1842465,1.44442 2.2735792,1.55514 0.5133482,0.63791 1.2355585,0.64672 55.6857025,0.64672 h 54.407372 v 1.78162 1.78288 h -17.40477 c -17.671518,0 -17.953356,0.0113 -17.27015,0.69453 0.113239,0.11324 1.118546,2.45099 1.12232,2.60826 0,0.0289 -14.450501,0.0529 -32.111946,0.0529 -35.443676,0 -32.694495,-0.10192 -30.483826,1.12987 0.346006,0.1925 0.912199,0.53348 1.258206,0.75744 0.684464,0.44289 1.735067,1.07325 2.726534,1.63441 0.346006,0.19628 0.660558,0.42779 0.699562,0.5146 0.03775,0.0868 20.633329,0.15728 45.767261,0.15728 h 45.696809 v 1.88731 1.88731 H 105.2117 90.85304 l 0.129595,0.68195 c 0.07172,0.37494 0.307002,1.0355 0.523414,1.46707 l 0.393818,0.78638 -26.374524,0.005 -26.374524,0.005 0.524672,0.4215 c 0.288129,0.23151 0.854322,0.61023 1.258206,0.84048 0.403885,0.229 1.016631,0.60142 1.362638,0.82539 0.346007,0.22396 1.006565,0.61148 1.468327,0.86061 0.461762,0.25038 0.885777,0.51964 0.943655,0.5989 0.629103,0.87446 -0.598907,0.84678 38.197891,0.84678 h 36.665402 v 1.67845 1.67718 h -11.53398 c -12.675178,0 -12.057399,-0.0679 -11.13765,1.2255 0.21767,0.307 0.542287,0.91094 0.722211,1.3425 l 0.328391,0.78512 -20.447113,0.0541 -20.447114,0.0528 1.420515,0.94366 c 0.781347,0.51838 1.517397,0.9814 1.636927,1.02921 0.11953,0.0465 0.500766,0.28184 0.846773,0.52467 0.346007,0.24158 0.780088,0.53348 0.963786,0.64798 0.184956,0.11575 0.725985,0.46931 1.201587,0.78638 l 0.866905,0.57626 h 27.788748 27.790014 v 1.78287 1.78288 h -8.70302 c -4.78622,0 -8.7005,0.0705 -8.69798,0.15728 0.003,0.0856 0.18999,0.39256 0.41521,0.68069 0.22522,0.28939 0.41269,0.63665 0.41521,0.77505 0.003,0.13715 0.20257,0.58507 0.44414,0.99525 l 0.44038,0.74611 H 89.70933 c -7.795847,0 -14.174954,0.0717 -14.174954,0.15979 0,0.14218 1.674673,1.2796 2.201861,1.49475 0.115755,0.0478 0.256674,0.15225 0.314552,0.23277 0.05788,0.0818 0.519639,0.4215 1.027954,0.75493 0.507058,0.33468 1.064443,0.70333 1.238076,0.81783 0.173632,0.11575 0.793928,0.51712 1.378994,0.89207 l 1.063184,0.68069 h 18.406303 18.40631 v 1.57276 1.57275 h -5.5575 c -3.05618,0 -5.55624,0.0554 -5.55624,0.12331 0,0.0679 0.32965,0.87445 0.73353,1.79294 0.40389,0.91849 0.73354,1.71242 0.73354,1.76401 0,0.0516 -3.53808,0.0944 -7.86379,0.0944 -7.753075,0 -8.426216,0.0604 -7.286281,0.64546 0.317068,0.16231 1.171391,0.69831 1.899892,1.18901 0.728502,0.4907 1.362638,0.89207 1.407933,0.89207 0.04655,0 0.530963,0.28309 1.077025,0.6291 l 0.991471,0.6291 h 9.71084 9.70958 v 1.67719 1.67845 h -2.72654 c -1.49852,0 -2.72527,0.0428 -2.72527,0.0944 0,0.0528 0.37746,0.81154 0.83796,1.68725 0.46177,0.87697 0.83923,1.63567 0.83923,1.68851 0,0.0516 -1.01412,0.0944 -2.25471,0.0956 l -2.25345,0.001 0.62911,0.51586 c 0.346,0.2831 0.70333,0.51838 0.79392,0.52216 0.0919,0.005 0.4215,0.18495 0.7348,0.40011 1.20033,0.82915 3.60098,2.33397 3.72051,2.33397 0.0692,0 0.43534,0.23654 0.81281,0.52467 l 0.68698,0.52341 22.41872,0.008 c 36.42256,0.0126 142.50195,-0.64797 143.10086,-0.89206 0.28938,-0.11702 0.66559,-0.29694 0.83922,-0.40137 0.17237,-0.10443 0.55109,-0.30826 0.83922,-0.45296 0.28813,-0.14469 1.072,-0.59135 1.74262,-0.99146 0.67062,-0.40137 1.41548,-0.83923 1.65454,-0.9726 1.23933,-0.69453 0.89836,-0.80147 -2.88381,-0.90968 l -3.66641,-0.10569 0.73731,-1.11855 c 0.4064,-0.61526 0.73731,-1.19403 0.73731,-1.28462 0,-0.0918 0.14217,-0.28436 0.31455,-0.42779 0.73731,-0.61149 0.36991,-0.83797 -1.36264,-0.83797 h -1.67719 v -1.57276 -1.57276 h 10.14492 c 8.76089,0 10.18015,-0.0428 10.40537,-0.31455 0.14343,-0.17363 0.33971,-0.31455 0.43408,-0.31455 0.24409,0 1.96658,-1.1802 2.28742,-1.56772 0.14595,-0.17615 0.33971,-0.31959 0.4303,-0.31959 0.0919,0 0.5511,-0.2529 1.02293,-0.56242 1.70235,-1.11351 1.68851,-1.11603 -8.45893,-1.11603 h -9.31701 l 0.56241,-0.96378 c 0.30826,-0.52971 0.72347,-1.21417 0.92101,-1.51992 0.91975,-1.42051 1.30476,-1.29092 -3.81237,-1.29092 h -4.62013 v -2.09617 -2.09743 h 19.39022 19.39148 l 0.79267,-0.45421 c 0.82664,-0.47434 1.61805,-0.91094 3.72807,-2.05591 0.69201,-0.3762 1.68348,-0.93233 2.20186,-1.23556 l 0.94365,-0.55361 -16.41456,-0.10443 -16.41582,-0.10443 0.73982,-1.46833 c 0.40641,-0.80777 0.73983,-1.58534 0.73983,-1.73003 0.001,-0.20509 -1.65454,-0.26171 -7.57818,-0.26171 h -7.57943 l 0.13462,-1.28966 c 0.0742,-0.70837 0.13463,-1.51111 0.13463,-1.78162 v -0.49448 h 28.81922 c 22.76725,0 28.8771,-0.0541 29.09603,-0.2617 0.30574,-0.28939 2.44847,-1.62561 2.607,-1.62561 0.0541,0 0.2139,-0.0956 0.3523,-0.21263 0.13966,-0.11702 0.79644,-0.56116 1.45952,-0.9877 0.66307,-0.42653 1.20536,-0.85054 1.20536,-0.94113 0,-0.0906 -9.95493,-0.16483 -22.12304,-0.16483 -12.55187,0 -22.12305,-0.0793 -22.12305,-0.1837 0,-0.10191 0.13715,-0.29819 0.30575,-0.43911 0.1686,-0.13966 0.36991,-0.45799 0.44792,-0.70711 0.078,-0.24913 0.31832,-0.67818 0.53348,-0.95247 0.21389,-0.27554 0.39004,-0.58255 0.39004,-0.68194 0,-0.0994 -4.76609,-0.18119 -10.59032,-0.18119 h -10.58907 v -1.67718 -1.67845 h 37.41906 c 24.71998,0 37.4631,-0.0705 37.54866,-0.20886 0.0717,-0.11576 0.28939,-0.21264 0.48441,-0.21516 0.19502,-0.003 0.5901,-0.18873 0.87823,-0.41395 0.28938,-0.22647 0.65678,-0.41269 0.81909,-0.41521 0.16231,-0.003 0.60394,-0.24031 0.98266,-0.52844 0.37746,-0.28813 0.76624,-0.52467 0.86313,-0.52467 0.35229,0 2.44721,-1.1802 2.52899,-1.42555 0.0654,-0.19502 -6.21302,-0.25164 -28.02403,-0.25164 h -28.10708 l 0.2831,-0.57752 c 0.15602,-0.31707 0.48189,-0.9663 0.72473,-1.44316 0.24157,-0.47812 0.44037,-1.06696 0.44037,-1.31105 v -0.44289 h -13.45149 -13.45148 l 0.13463,-1.41549 c 0.073,-0.77883 0.13337,-1.61679 0.13462,-1.86214 l 0.001,-0.44541 46.30074,-0.15727 46.29949,-0.15602 0.83041,-0.49322 c 0.45673,-0.27177 1.20788,-0.69704 1.66964,-0.94617 0.46051,-0.24912 0.88578,-0.52215 0.94366,-0.60645 0.0566,-0.0843 0.48818,-0.34727 0.95749,-0.58507 2.29749,-1.1651 4.4465,-1.09212 -32.38749,-1.09212 -18.58245,0 -33.78788,-0.0503 -33.78788,-0.11198 0,-0.13966 0.67692,-1.21291 0.85558,-1.35635 0.0717,-0.0579 0.38124,-0.5058 0.6895,-0.99524 l 0.55738,-0.89207 H 298.02906 281.461 v -1.67719 -1.67719 h 55.12706 55.12832 l 1.12483,-0.76499 c 0.61778,-0.42024 1.29344,-0.93862 1.49853,-1.15251 0.20634,-0.2139 0.45798,-0.39005 0.5599,-0.39005 0.10066,0 0.40388,-0.18621 0.67314,-0.41521 0.26926,-0.22773 0.72598,-0.60268 1.01411,-0.83167 0.52342,-0.41521 0.47435,-0.41647 -38.94526,-0.42276 l -39.46868,-0.008 0.39256,-0.91471 c 0.21515,-0.50203 0.63665,-1.43184 0.93611,-2.06472 0.29945,-0.63288 0.54354,-1.21165 0.54354,-1.28715 0,-0.0755 -8.68162,-0.13714 -19.29208,-0.13714 H 281.461 v -1.67719 -1.67845 h -80.94546 -80.94419 v 1.67845"
       id="path1" />
  </g>
</svg>
