<?xml version="1.0" encoding="UTF-8" standalone="no"?>
<svg
   xmlns="http://www.w3.org/2000/svg"
   version="1.1"
   viewBox="0, 0, 400,400"
   height="400"
   width="400"
   id="svg">
  <g
     id="svgg">
    <path
       style="fill-rule:evenodd;stroke:none;stroke-width:4.39882326"
       d="m 146.88777,42.417241 c 0,0.545454 2.15982,17.080631 4.79912,36.747769 2.63929,19.66274 9.51905,70.95302 15.28591,113.97351 5.76686,43.02049 10.65395,78.97647 10.85629,79.90462 l 0.3783,1.68915 21.40028,-0.19795 21.40027,-0.19794 1.31085,-9.68621 c 3.65542,-26.94719 7.98387,-56.42811 14.32697,-97.5835 10.62756,-68.969144 18.53664,-124.658246 17.81523,-125.441237 -0.25953,-0.281524 -26.96918,25.187662 -32.33575,30.831352 -1.43401,1.508796 -6.88415,6.774188 -12.10996,11.705269 L 200.51383,93.122476 178.47132,71.61663 C 152.50067,46.270611 146.88337,41.079999 146.88777,42.417241 M 91.38782,73.499326 C 47.826274,91.723651 12.129823,132.09165 5.3556357,170.7881 c -1.7463328,9.99852 -0.6642223,38.90759 1.7595293,46.86066 9.936942,32.63487 33.373872,61.15684 66.439826,80.85477 l 7.878292,4.69355 13.170077,-12.94134 c 7.24486,-7.1173 13.24046,-13.27565 13.32404,-13.68474 0.0792,-0.40909 -2.56012,-2.92522 -5.87243,-5.58651 -25.790304,-20.75364 -38.098212,-52.17884 -31.121678,-79.45594 7.117296,-27.82696 36.356278,-55.82546 72.228678,-69.1627 3.07038,-1.14369 5.74046,-2.20821 5.92521,-2.37096 0.62904,-0.54106 -48.74336,-49.398787 -49.873854,-49.3504 -0.615835,0.02639 -4.139292,1.310849 -7.825506,2.854836 m 183.65527,22.024908 c -13.70674,13.706736 -24.76538,25.046896 -24.58063,25.200856 0.18915,0.14956 3.022,1.20968 6.29912,2.35337 29.07622,10.13489 54.79174,31.35481 65.93836,54.41345 15.47506,32.00143 5.80644,65.79319 -27.09235,94.68906 l -5.10704,4.4868 11.54251,11.88562 c 15.95014,16.42961 12.89296,15.80058 29.21259,6.02199 53.0718,-31.79469 77.60404,-93.23305 56.96036,-142.65383 -13.8255,-33.10555 -43.71111,-62.964759 -77.81958,-77.758002 -4.5044,-1.957476 -8.69647,-3.558648 -9.31231,-3.563046 -0.62023,0 -12.3387,11.2126 -26.04103,24.923732 M 52.651783,330.79529 c -13.112892,12.78738 -23.837223,23.74925 -23.837223,24.36508 0,0.98974 19.4384,1.1393 169.7198,1.30646 101.82396,0.10997 169.62302,-0.0836 169.47346,-0.49267 -0.29033,-0.78299 -5.59091,-6.3695 -29.23898,-30.79616 l -17.12902,-17.69207 -122.57321,0.0308 -122.577604,0.0308 -23.837223,23.24778"
       id="path0" />
  </g>
</svg>
