<svg id="svg" xmlns="http://www.w3.org/2000/svg"  width="400" height="400" viewBox="0, 0, 400,400"><g id="svgg"><path id="path0" d="M173.996 158.624 C 153.300 160.748,137.907 178.407,137.928 200.000 C 137.959 231.957,170.942 251.741,197.591 235.786 C 201.492 233.450,206.101 229.331,208.434 226.096 C 208.918 225.425,208.838 225.392,209.827 226.652 C 211.041 228.199,214.763 231.866,216.430 233.158 C 235.559 247.982,262.662 242.191,274.622 220.723 L 275.293 219.518 286.566 219.518 L 297.838 219.518 297.838 228.907 L 297.838 238.295 310.006 238.295 L 322.175 238.295 322.143 199.784 L 322.112 161.272 300.012 161.272 L 277.912 161.272 277.122 162.755 C 276.688 163.570,275.939 164.988,275.458 165.905 C 274.977 166.822,274.374 167.962,274.119 168.437 C 273.864 168.913,272.864 170.803,271.896 172.637 C 270.928 174.472,269.899 176.418,269.610 176.961 C 269.321 177.505,268.043 179.923,266.770 182.335 C 265.497 184.747,263.968 187.637,263.373 188.758 C 262.777 189.880,260.218 194.716,257.686 199.506 C 252.533 209.255,252.343 209.572,250.598 211.311 C 241.041 220.837,225.294 213.844,225.267 200.062 C 225.234 183.228,246.974 178.070,253.871 193.276 L 254.398 194.439 254.675 193.951 C 254.827 193.683,255.631 192.168,256.462 190.586 C 257.788 188.059,260.079 183.718,261.891 180.296 C 262.215 179.685,263.271 177.684,264.237 175.849 C 265.203 174.015,266.321 171.896,266.723 171.140 L 267.452 169.767 266.679 169.023 C 252.778 155.661,230.717 154.949,215.627 167.374 C 210.502 171.594,207.928 175.098,202.782 184.863 C 195.821 198.070,193.324 202.804,191.552 206.150 C 188.540 211.841,185.011 214.663,179.861 215.498 C 167.839 217.447,158.594 204.029,164.204 192.773 C 169.980 181.185,185.658 181.443,191.218 193.218 L 191.803 194.459 192.894 192.381 C 193.493 191.238,194.440 189.441,194.998 188.388 C 196.386 185.768,196.882 184.828,199.689 179.494 C 201.029 176.946,202.363 174.416,202.653 173.873 C 202.943 173.329,203.546 172.188,203.995 171.337 L 204.810 169.790 204.536 169.473 C 203.288 168.028,199.308 165.041,196.541 163.474 C 189.833 159.673,181.414 157.863,173.996 158.624 M0.124 199.748 L 0.124 238.295 12.415 238.295 L 24.707 238.295 24.707 228.975 L 24.707 219.654 34.188 219.607 C 44.522 219.556,44.559 219.553,47.437 218.765 C 62.410 214.665,71.367 198.846,67.560 183.226 C 64.997 172.706,56.867 164.411,46.771 162.013 C 43.534 161.244,44.972 161.288,21.526 161.242 L 0.124 161.201 0.124 199.748 M90.695 161.426 C 90.634 161.546,81.518 178.792,70.438 199.753 C 59.358 220.713,50.255 237.960,50.210 238.079 C 50.132 238.284,50.838 238.295,63.959 238.295 L 77.789 238.295 82.735 228.938 L 87.682 219.580 99.245 219.548 L 110.809 219.517 110.809 228.906 L 110.809 238.295 122.916 238.295 L 135.022 238.295 134.991 199.784 L 134.960 161.272 112.883 161.241 C 91.950 161.212,90.800 161.221,90.695 161.426 M329.920 161.288 C 329.872 161.336,329.833 178.682,329.833 199.835 L 329.833 238.295 342.187 238.295 L 354.540 238.295 354.540 228.967 L 354.540 219.638 358.518 219.671 L 362.496 219.704 367.402 228.968 L 372.308 238.233 386.154 238.265 C 393.769 238.282,399.998 238.254,399.994 238.203 C 399.991 238.152,396.777 232.055,392.852 224.653 L 385.715 211.197 386.773 210.308 C 398.560 200.410,400.020 182.218,389.965 170.537 C 385.669 165.548,380.411 162.584,373.935 161.500 C 372.581 161.274,330.139 161.070,329.920 161.288 M110.809 188.141 L 110.809 200.124 104.386 200.124 L 97.963 200.124 98.734 198.667 C 99.159 197.865,102.007 192.474,105.065 186.686 C 108.122 180.897,110.666 176.161,110.716 176.160 C 110.767 176.159,110.809 181.550,110.809 188.141 M298.085 188.141 L 298.085 200.124 291.713 200.124 C 288.208 200.124,285.359 200.080,285.382 200.027 C 285.434 199.903,286.792 197.327,289.562 192.094 C 290.767 189.818,292.573 186.399,293.576 184.497 C 294.580 182.594,295.580 180.704,295.800 180.296 C 296.020 179.889,296.601 178.791,297.091 177.857 C 297.582 176.922,298.006 176.158,298.034 176.158 C 298.062 176.158,298.085 181.550,298.085 188.141 M35.763 180.713 C 44.384 183.057,45.647 195.189,37.678 199.104 C 35.694 200.079,35.339 200.124,29.591 200.124 L 24.707 200.124 24.707 190.228 L 24.707 180.333 29.741 180.389 C 34.425 180.440,34.843 180.463,35.763 180.713 M365.551 180.703 C 374.901 183.240,375.251 196.667,366.048 199.731 C 365.104 200.045,365.092 200.046,359.821 200.093 L 354.540 200.140 354.540 190.236 L 354.540 180.331 359.574 180.389 C 364.173 180.442,364.689 180.469,365.551 180.703 " stroke="none" fill-rule="evenodd"></path></g></svg>