<svg id="svg" xmlns="http://www.w3.org/2000/svg"  width="400" height="400" viewBox="0, 0, 400,400"><g id="svgg"><path id="path0" d="M181.867 122.805 C 145.686 124.437,118.337 128.149,90.664 135.186 C 69.329 140.610,52.896 146.688,37.882 154.706 C -20.808 186.047,-9.513 230.856,63.555 256.554 C 65.628 257.284,67.899 258.093,68.601 258.352 C 104.700 271.710,170.948 279.621,223.878 276.894 C 379.287 268.888,452.895 200.096,357.291 152.211 C 316.797 131.929,245.304 119.945,181.867 122.805 M227.828 130.686 C 266.136 133.061,303.390 139.852,328.007 148.948 C 358.775 160.316,376.523 172.519,383.675 187.222 C 407.234 235.654,294.067 277.916,165.350 268.755 C 30.664 259.169,-31.401 200.452,49.013 158.693 C 52.432 156.917,62.860 152.244,63.404 152.244 C 63.509 152.244,64.272 151.939,65.100 151.567 C 67.818 150.344,75.478 147.683,82.053 145.676 C 108.409 137.633,141.192 132.264,173.429 130.711 C 177.873 130.497,182.478 130.265,183.662 130.195 C 187.976 129.941,221.887 130.317,227.828 130.686 M177.917 135.354 C 89.964 139.378,23.328 168.280,25.608 201.415 C 27.445 228.122,69.923 250.402,138.600 260.679 C 145.668 261.737,159.395 263.119,171.454 263.987 C 180.229 264.619,218.965 264.620,228.007 263.989 C 285.702 259.961,330.708 247.486,356.014 228.505 C 382.381 208.728,379.508 185.044,348.435 166.019 C 333.974 157.166,311.993 149.091,288.510 144.004 C 286.535 143.577,284.273 143.076,283.483 142.892 C 276.545 141.273,258.544 138.542,246.858 137.334 C 228.117 135.397,196.700 134.495,177.917 135.354 M101.670 171.993 L 102.045 173.070 121.687 173.070 C 142.164 173.070,142.190 173.068,142.190 171.562 C 142.190 171.083,142.470 170.916,143.268 170.916 L 144.345 170.916 144.345 177.917 L 144.345 184.919 143.346 184.919 C 142.567 184.919,142.259 184.683,141.941 183.842 L 141.535 182.765 134.540 182.765 C 128.493 182.765,127.516 182.842,127.327 183.333 C 127.039 184.084,127.050 216.017,127.340 219.085 C 127.534 221.135,127.686 221.528,128.415 221.860 C 129.037 222.143,129.264 222.539,129.264 223.339 L 129.264 224.431 121.813 224.334 L 114.363 224.237 114.252 223.279 C 114.165 222.528,114.359 222.217,115.150 221.838 L 116.158 221.355 116.251 202.052 L 116.344 182.750 109.254 182.847 L 102.163 182.944 101.691 183.932 C 101.333 184.678,100.960 184.919,100.160 184.919 L 99.102 184.919 99.102 177.917 L 99.102 170.916 100.198 170.916 C 101.093 170.916,101.363 171.113,101.670 171.993 M74.385 172.867 C 77.576 173.491,79.902 174.292,84.333 176.294 C 87.248 177.611,87.805 177.756,88.509 177.379 C 89.431 176.886,90.844 177.194,90.844 177.889 C 90.844 178.346,85.665 189.858,85.292 190.232 C 84.864 190.660,83.303 189.435,83.303 188.671 C 83.303 187.541,81.369 185.797,78.549 184.386 C 70.435 180.327,59.695 181.779,58.991 187.031 C 58.515 190.581,59.783 191.174,70.557 192.441 C 83.777 193.996,88.273 196.744,90.293 204.501 C 94.706 221.443,73.894 231.101,53.750 221.458 C 50.442 219.875,49.767 219.665,49.172 220.037 C 48.410 220.513,47.038 219.962,47.038 219.181 C 47.038 218.963,48.058 216.215,49.306 213.073 C 50.554 209.931,51.679 207.079,51.807 206.735 C 52.230 205.598,53.741 206.655,53.999 208.267 C 55.145 215.430,75.442 218.180,79.389 211.707 C 81.981 207.457,79.711 205.606,70.557 204.504 C 59.533 203.177,57.598 202.737,54.787 200.919 C 46.039 195.260,46.660 180.762,55.883 175.357 C 60.575 172.607,67.967 171.612,74.385 172.867 M269.270 172.760 C 272.558 173.329,276.638 174.952,280.148 177.088 C 281.785 178.085,283.655 179.224,284.304 179.619 C 285.415 180.296,285.524 180.302,286.155 179.732 C 286.724 179.216,286.939 179.196,287.578 179.595 C 288.717 180.306,288.633 180.521,284.591 187.228 C 283.291 189.387,282.226 191.285,282.226 191.447 C 282.226 191.949,281.678 191.774,280.858 191.009 C 280.403 190.586,280.072 189.844,280.072 189.251 C 280.072 186.344,272.375 182.488,265.889 182.145 C 254.769 181.559,247.582 188.803,248.210 199.966 C 248.805 210.535,256.298 216.573,267.389 215.422 C 272.867 214.854,280.072 211.016,280.072 208.667 C 280.072 207.575,280.966 206.104,281.629 206.104 C 282.069 206.104,286.102 212.604,288.042 216.441 C 288.632 217.606,287.598 218.700,286.534 218.036 C 285.420 217.340,284.973 217.478,282.089 219.407 C 263.425 231.891,240.533 223.937,237.329 203.856 C 234.160 183.996,249.255 169.301,269.270 172.760 M186.535 173.425 C 197.446 174.584,202.913 182.019,200.576 192.524 C 199.353 198.019,194.315 203.232,190.226 203.232 C 189.206 203.232,189.373 203.586,193.663 210.493 C 200.062 220.794,200.782 221.728,202.513 221.961 C 203.245 222.060,203.411 222.282,203.411 223.160 L 203.411 224.237 194.998 224.334 C 190.370 224.387,186.443 224.289,186.271 224.116 C 185.759 223.604,186.358 221.986,187.135 221.783 C 188.168 221.513,188.115 221.403,182.585 212.268 L 177.558 203.964 172.083 203.957 L 166.607 203.950 166.607 212.558 L 166.607 221.166 167.706 221.735 C 168.582 222.188,168.782 222.499,168.693 223.270 L 168.582 224.237 161.131 224.334 L 153.680 224.431 153.680 223.356 C 153.680 222.524,153.925 222.154,154.758 221.724 L 155.835 221.166 155.835 199.093 C 155.835 175.347,155.853 175.583,154.039 175.583 C 153.641 175.583,153.542 173.688,153.920 173.309 C 154.291 172.938,182.900 173.040,186.535 173.425 M227.581 174.417 C 227.663 175.267,227.547 175.583,227.153 175.583 C 225.514 175.583,225.493 175.865,225.499 198.554 C 225.504 221.551,225.488 221.263,226.781 221.852 C 227.419 222.142,227.648 222.533,227.648 223.332 L 227.648 224.417 220.108 224.417 L 212.567 224.417 212.567 223.359 C 212.567 222.559,212.808 222.186,213.555 221.828 L 214.542 221.355 214.641 199.457 C 214.749 175.686,214.768 176.058,213.460 175.730 C 212.583 175.509,212.167 173.949,212.814 173.302 C 212.950 173.167,216.302 173.099,220.265 173.153 L 227.469 173.250 227.581 174.417 M312.095 173.698 C 312.341 174.728,312.027 175.536,311.288 175.770 C 310.269 176.094,310.200 176.782,310.312 185.569 L 310.413 193.580 311.490 192.554 C 312.083 191.989,314.506 189.761,316.876 187.603 C 319.246 185.445,321.266 183.594,321.364 183.491 C 321.463 183.387,323.119 181.869,325.045 180.117 C 328.720 176.773,329.119 176.100,327.648 175.731 C 326.910 175.546,326.750 175.288,326.750 174.282 L 326.750 173.058 336.355 173.154 L 345.961 173.250 346.069 174.368 C 346.164 175.337,346.044 175.516,345.172 175.711 C 344.618 175.834,343.115 176.916,341.831 178.115 C 339.791 180.021,329.702 189.177,325.594 192.852 L 324.153 194.141 329.339 201.110 C 332.192 204.943,335.953 210.018,337.697 212.388 C 343.017 219.616,344.668 221.514,345.912 221.834 C 346.842 222.074,347.057 222.325,347.151 223.276 L 347.264 224.429 337.994 224.333 L 328.725 224.237 328.612 223.250 C 328.521 222.459,328.689 222.190,329.456 221.898 C 330.754 221.405,330.960 221.759,323.107 210.944 C 315.263 200.141,316.480 200.862,312.533 204.674 L 310.219 206.908 310.316 214.136 C 310.411 221.244,310.426 221.370,311.221 221.719 C 311.821 221.982,312.029 222.374,312.029 223.245 L 312.029 224.417 304.668 224.417 L 297.307 224.417 297.307 223.443 C 297.307 222.810,297.653 222.192,298.294 221.681 L 299.282 220.894 299.394 200.483 C 299.519 177.617,299.461 176.450,298.176 175.864 C 297.509 175.560,297.307 175.189,297.307 174.269 L 297.307 173.070 304.626 173.070 C 311.300 173.070,311.958 173.125,312.095 173.698 M166.607 188.711 L 166.607 194.656 176.391 194.545 C 189.064 194.402,190.120 193.915,189.872 188.330 C 189.640 183.130,188.736 182.765,176.115 182.765 L 166.607 182.765 166.607 188.711 " stroke="none" fill-rule="evenodd"></path></g></svg>