<?xml version="1.0" encoding="UTF-8" standalone="no"?>
<svg

   xmlns="http://www.w3.org/2000/svg"
   version="1.1"
   viewBox="0, 0, 400,400"
   height="400"
   width="400"
   id="svg">
  <g
     id="svgg">
    <path
       style="fill-rule:evenodd;stroke:none;stroke-width:7.05618"
       d="M 186.75202,12.4506 C 98.987254,42.31941 56.883028,105.75447 56.883028,208.13964 v 47.13528 l 9.208315,-11.4804 c 23.179551,-28.90917 55.313397,-53.13304 84.518927,-63.70319 15.90463,-5.75785 17.95798,-7.52895 25.27523,-21.75421 19.27043,-37.48948 39.26765,-45.72404 111.15601,-45.75932 l 55.5533,-0.0282 0.26814,-6.49169 C 343.10286,100.32124 342.95465,10.594855 342.6936,5.0486971 342.6372,3.8562026 313.69976,2.9388992 278.38358,3.0024048 L 214.16528,3.1223299 186.75202,12.4506 M 189.638,195.00103 C 111.75894,215.61919 56.883028,288.84823 56.883028,372.13232 v 23.24306 h 53.083642 c 59.23663,0 56.56234,1.00198 56.61173,-21.16148 0.0565,-23.74405 21.38023,-56.92221 44.43277,-69.1294 10.64777,-5.64494 17.55578,-6.40701 70.01847,-7.76885 32.01389,-0.82558 58.91205,-2.20859 59.76585,-3.06944 0.8538,-0.8538 1.72171,-24.23093 1.93339,-51.9476 l 0.38809,-50.38113 -68.80481,-0.55743 c -52.49798,-0.43043 -72.56576,0.43748 -84.67416,3.64098"
       id="path0" />
  </g>
</svg>
