<svg id="svg" version="1.1" xmlns="http://www.w3.org/2000/svg"  width="400" height="400" viewBox="0, 0, 400,400"><g id="svgg"><path id="path0" d="M56.979 125.500 C 56.632 126.325,56.247 127.495,56.124 128.100 C 56.001 128.705,55.742 129.200,55.550 129.200 C 55.357 129.200,55.237 129.335,55.282 129.500 C 55.392 129.904,54.427 132.758,53.760 134.000 C 53.465 134.550,53.031 135.765,52.796 136.700 C 52.561 137.635,52.185 138.400,51.961 138.400 C 51.736 138.400,51.644 138.548,51.756 138.729 C 51.868 138.909,51.732 139.494,51.455 140.029 C 51.178 140.563,50.949 141.090,50.947 141.200 C 50.935 141.751,49.394 145.432,49.086 145.645 C 48.891 145.779,48.766 146.008,48.809 146.153 C 48.971 146.706,48.349 149.200,48.049 149.200 C 47.875 149.200,47.719 149.425,47.701 149.700 C 47.644 150.586,45.032 157.792,44.676 158.045 C 44.487 158.179,44.358 158.449,44.389 158.645 C 44.445 158.991,43.383 161.930,41.296 167.200 C 40.081 170.270,37.248 178.008,35.584 182.800 C 34.935 184.670,34.231 186.560,34.020 187.000 C 32.958 189.211,31.600 192.859,31.600 193.499 C 31.600 193.897,31.356 194.577,31.057 195.011 C 30.758 195.445,30.294 196.475,30.026 197.300 C 29.758 198.125,29.342 198.800,29.102 198.800 C 28.863 198.800,28.772 198.906,28.901 199.035 C 29.166 199.300,28.149 202.977,27.472 204.200 C 27.229 204.640,27.070 205.139,27.118 205.310 C 27.167 205.480,26.810 206.380,26.326 207.310 C 25.841 208.239,25.425 209.180,25.401 209.400 C 25.299 210.332,24.693 212.000,24.457 212.000 C 24.315 212.000,24.171 212.405,24.136 212.900 C 24.101 213.395,23.661 214.700,23.158 215.800 C 22.655 216.900,22.195 217.980,22.135 218.200 C 21.597 220.190,20.269 223.600,20.031 223.600 C 19.674 223.600,19.592 224.628,19.839 226.000 L 20.019 227.000 43.910 226.899 C 57.049 226.843,68.070 226.679,68.400 226.535 C 68.730 226.391,69.118 226.296,69.263 226.324 C 69.408 226.352,69.746 225.436,70.015 224.288 C 70.285 223.139,70.629 222.020,70.782 221.800 C 71.288 221.068,73.600 214.850,73.600 214.220 C 73.600 213.879,73.742 213.600,73.915 213.600 C 74.088 213.600,74.257 213.235,74.291 212.788 C 74.325 212.342,74.795 211.010,75.335 209.829 C 75.876 208.648,76.441 207.123,76.591 206.441 C 76.741 205.758,77.059 205.200,77.298 205.200 C 77.538 205.200,77.630 205.096,77.503 204.970 C 77.194 204.661,77.654 203.255,79.393 199.200 C 80.195 197.330,80.916 195.350,80.995 194.800 C 81.075 194.250,81.422 193.260,81.767 192.600 C 82.113 191.940,82.396 191.175,82.398 190.900 C 82.399 190.625,82.591 190.400,82.824 190.400 C 83.057 190.400,83.136 190.220,83.000 190.000 C 82.864 189.780,82.954 189.600,83.200 189.600 C 83.446 189.600,83.568 189.465,83.471 189.300 C 83.373 189.135,83.476 188.550,83.699 188.000 C 83.922 187.450,84.161 186.566,84.231 186.036 C 84.302 185.506,84.503 184.966,84.680 184.836 C 84.856 184.706,85.048 184.330,85.106 184.000 C 85.241 183.229,87.091 178.222,87.913 176.400 C 88.260 175.630,88.510 174.861,88.469 174.690 C 88.427 174.520,88.790 173.620,89.274 172.690 C 89.758 171.761,90.202 170.820,90.261 170.600 C 91.026 167.759,93.304 161.842,93.702 161.666 C 93.869 161.592,93.903 161.367,93.779 161.166 C 93.655 160.965,93.704 160.800,93.889 160.800 C 94.074 160.800,94.265 160.323,94.313 159.740 C 94.361 159.158,94.579 158.466,94.797 158.204 C 95.015 157.941,95.102 157.636,94.992 157.525 C 94.803 157.336,95.608 155.244,97.117 152.000 C 97.475 151.230,97.728 150.458,97.679 150.285 C 97.586 149.957,98.953 146.383,99.701 145.000 C 100.098 144.265,100.699 142.623,104.382 132.200 C 105.082 130.220,105.912 128.033,106.227 127.340 C 106.542 126.646,106.800 125.611,106.800 125.040 L 106.800 124.000 82.205 124.000 L 57.611 124.000 56.979 125.500 M112.618 125.443 C 112.469 126.237,112.018 127.632,111.616 128.543 C 110.360 131.389,109.301 134.134,108.777 135.900 C 108.499 136.835,108.159 137.600,108.021 137.600 C 107.883 137.600,107.741 137.989,107.705 138.464 C 107.669 138.939,107.436 139.454,107.186 139.609 C 106.936 139.763,106.760 140.009,106.795 140.155 C 106.946 140.779,103.912 149.253,102.175 153.060 C 101.859 153.754,101.601 154.564,101.603 154.860 C 101.605 155.157,100.990 156.840,100.236 158.600 C 98.564 162.501,98.257 163.320,98.329 163.677 C 98.360 163.830,97.841 165.270,97.176 166.877 C 96.511 168.485,95.434 171.377,94.784 173.305 C 94.133 175.232,93.429 177.122,93.219 177.505 C 92.473 178.861,91.278 181.935,90.995 183.224 C 90.837 183.943,90.185 185.697,89.546 187.121 C 88.906 188.546,88.186 190.496,87.944 191.456 C 87.703 192.415,87.346 193.200,87.153 193.200 C 86.959 193.200,86.834 193.335,86.876 193.500 C 87.040 194.144,86.315 196.400,85.945 196.400 C 85.729 196.400,85.664 196.580,85.800 196.800 C 85.936 197.020,85.895 197.200,85.709 197.200 C 85.523 197.200,85.346 197.518,85.317 197.906 C 85.251 198.783,83.751 203.255,82.803 205.400 C 80.700 210.160,80.242 211.291,80.169 211.915 C 80.124 212.292,79.606 213.770,79.018 215.200 C 78.429 216.630,77.613 218.790,77.205 220.000 C 76.796 221.210,76.168 222.994,75.810 223.965 C 74.710 226.948,73.262 226.779,100.160 226.809 C 127.464 226.840,125.423 227.115,126.390 223.272 C 126.648 222.248,126.995 221.228,127.161 221.005 C 127.327 220.782,127.778 219.745,128.164 218.700 C 128.550 217.655,128.992 216.800,129.146 216.800 C 129.300 216.800,129.466 216.305,129.516 215.700 C 129.653 214.025,130.409 212.000,130.898 212.000 C 131.137 212.000,131.220 211.887,131.083 211.749 C 130.945 211.611,131.107 210.846,131.444 210.049 C 131.780 209.252,132.589 206.941,133.242 204.914 C 133.894 202.887,134.647 200.997,134.914 200.714 C 135.181 200.431,135.455 199.840,135.523 199.400 C 135.646 198.595,136.000 197.608,138.534 191.000 C 139.293 189.020,140.052 187.040,140.221 186.600 C 140.389 186.160,140.502 185.675,140.471 185.521 C 140.440 185.368,140.922 184.108,141.542 182.721 C 142.162 181.335,143.181 178.625,143.805 176.700 C 144.430 174.775,145.100 173.200,145.294 173.200 C 145.488 173.200,145.545 173.035,145.420 172.832 C 145.295 172.630,145.419 172.225,145.696 171.932 C 145.973 171.640,146.263 170.950,146.341 170.400 C 146.418 169.850,146.657 169.071,146.872 168.669 C 147.086 168.266,147.525 167.051,147.846 165.969 C 148.168 164.886,148.566 164.000,148.730 164.000 C 148.895 164.000,149.056 163.658,149.087 163.239 C 149.119 162.821,149.517 161.660,149.972 160.661 C 150.427 159.662,150.800 158.609,150.800 158.322 C 150.800 158.035,151.520 156.044,152.400 153.898 C 153.280 151.752,154.000 149.823,154.000 149.611 C 154.000 149.284,156.778 141.976,158.110 138.800 C 158.340 138.250,158.504 137.678,158.474 137.529 C 158.444 137.380,159.022 135.936,159.758 134.321 C 160.494 132.705,161.231 130.757,161.396 129.992 C 161.561 129.226,161.923 128.150,162.200 127.600 C 162.477 127.050,162.830 126.015,162.984 125.300 L 163.264 124.000 138.076 124.000 L 112.889 124.000 112.618 125.443 M101.523 128.858 C 101.631 129.797,100.732 132.408,98.975 136.260 C 98.659 136.954,98.400 137.713,98.400 137.948 C 98.400 138.183,97.609 140.405,96.643 142.887 C 95.676 145.369,94.591 148.300,94.231 149.400 C 93.872 150.500,93.326 151.940,93.019 152.600 C 92.011 154.767,90.800 157.939,90.800 158.414 C 90.800 158.670,90.541 159.446,90.225 160.140 C 89.129 162.543,88.331 164.618,87.126 168.200 C 86.461 170.180,85.779 171.980,85.612 172.200 C 85.445 172.420,84.910 173.860,84.424 175.400 C 83.937 176.940,83.084 179.280,82.528 180.600 C 81.971 181.920,81.286 183.630,81.006 184.400 C 80.725 185.170,79.767 187.690,78.876 190.000 C 77.986 192.310,77.084 194.830,76.872 195.600 C 76.660 196.370,75.927 198.295,75.243 199.878 C 74.559 201.461,74.000 202.953,74.000 203.193 C 74.000 203.434,73.043 206.098,71.873 209.115 C 70.703 212.132,69.514 215.230,69.230 216.000 C 67.638 220.319,66.993 221.707,66.158 222.608 L 65.231 223.607 45.116 223.504 L 25.000 223.400 24.868 222.249 C 24.752 221.232,25.252 219.809,27.435 214.940 C 27.746 214.246,28.000 213.485,28.000 213.248 C 28.000 212.848,29.842 207.902,33.605 198.200 C 34.458 196.000,35.284 193.660,35.441 193.000 C 35.597 192.340,36.327 190.473,37.062 188.850 C 37.798 187.228,38.400 185.647,38.400 185.338 C 38.400 184.836,39.489 181.989,40.977 178.600 C 41.267 177.940,41.895 176.199,42.374 174.732 C 42.852 173.265,43.864 170.572,44.622 168.747 C 45.380 166.923,46.000 165.181,46.000 164.876 C 46.000 164.570,46.259 163.754,46.575 163.060 C 47.894 160.170,49.200 156.787,49.200 156.262 C 49.200 155.953,49.677 154.642,50.260 153.350 C 50.843 152.057,51.995 149.110,52.821 146.800 C 54.203 142.934,55.224 140.201,57.901 133.200 C 58.448 131.770,59.239 129.923,59.658 129.096 L 60.420 127.593 80.910 127.696 L 101.400 127.800 101.523 128.858 M157.926 128.513 C 158.002 128.906,157.426 130.796,156.647 132.713 C 155.249 136.156,153.196 141.584,150.639 148.600 C 149.917 150.580,148.866 153.370,148.303 154.800 C 146.942 158.256,143.288 167.924,140.215 176.200 C 137.523 183.450,136.312 186.657,135.306 189.200 C 134.740 190.630,133.595 193.690,132.763 196.000 C 131.102 200.607,128.577 207.362,127.230 210.800 C 126.756 212.010,126.003 214.067,125.556 215.371 C 124.183 219.380,122.523 222.706,121.668 223.164 C 120.650 223.708,81.683 223.767,80.827 223.225 C 80.143 222.792,80.493 221.344,82.576 216.000 C 84.773 210.364,86.386 206.012,87.818 201.854 C 88.566 199.684,89.344 197.704,89.547 197.454 C 89.750 197.204,90.460 195.380,91.125 193.400 C 91.790 191.420,92.889 188.450,93.566 186.800 C 94.243 185.150,94.798 183.667,94.799 183.504 C 94.800 183.207,96.395 178.956,100.015 169.600 C 101.079 166.850,102.081 164.060,102.242 163.400 C 102.403 162.740,102.979 161.210,103.521 160.000 C 104.064 158.790,104.827 156.810,105.219 155.600 C 105.610 154.390,106.322 152.410,106.801 151.200 C 107.280 149.990,108.267 147.380,108.994 145.400 C 109.721 143.420,110.874 140.450,111.556 138.800 C 112.239 137.150,112.798 135.587,112.799 135.327 C 112.801 134.439,115.066 129.211,115.799 128.401 C 116.873 127.214,157.697 127.323,157.926 128.513 M155.496 201.198 C 153.372 201.590,153.482 200.920,153.547 213.033 C 153.614 225.555,153.469 224.800,155.810 224.800 C 158.105 224.800,158.339 224.321,158.430 219.436 C 158.522 214.525,158.124 214.713,168.103 214.877 C 176.853 215.020,176.190 214.618,176.327 219.859 C 176.443 224.270,176.705 224.800,178.769 224.800 C 181.223 224.800,181.200 224.910,181.200 213.000 C 181.200 201.090,181.223 201.200,178.769 201.200 C 176.666 201.200,176.388 201.772,176.364 206.144 C 176.352 208.394,176.168 210.096,175.920 210.249 C 175.357 210.597,159.224 210.557,158.873 210.207 C 158.516 209.849,158.509 209.771,158.450 205.844 C 158.388 201.675,157.813 200.771,155.496 201.198 M199.589 201.200 C 191.345 201.355,188.847 201.523,188.389 201.951 C 187.668 202.625,187.685 222.665,188.408 224.016 C 188.809 224.765,189.309 224.800,199.620 224.800 C 211.292 224.800,212.005 224.685,211.688 222.845 C 211.353 220.903,210.859 220.800,201.938 220.800 C 192.571 220.800,192.800 220.879,192.800 217.649 C 192.800 214.960,193.333 214.800,202.275 214.800 C 210.677 214.800,211.070 214.683,210.725 212.289 C 210.488 210.639,209.131 210.376,201.330 210.465 C 195.833 210.527,193.906 210.420,193.430 210.025 C 192.482 209.238,192.684 205.234,193.642 205.826 C 193.839 205.948,194.000 205.869,194.000 205.652 C 194.000 205.407,197.045 205.242,202.048 205.217 C 210.752 205.173,211.600 204.998,211.600 203.248 C 211.600 201.046,211.216 200.981,199.589 201.200 M227.832 201.107 C 221.594 201.177,218.079 201.368,217.732 201.656 C 217.000 202.264,216.951 223.591,217.680 224.320 C 218.300 224.940,220.500 224.940,221.120 224.320 C 221.415 224.025,221.600 222.583,221.600 220.582 C 221.600 215.832,221.438 215.917,230.120 216.074 C 238.815 216.231,238.800 216.223,238.800 220.782 C 238.800 222.627,238.990 224.030,239.280 224.320 C 239.914 224.954,242.589 224.936,243.122 224.294 C 243.871 223.391,243.802 217.950,243.022 216.442 C 242.295 215.036,242.334 214.478,243.355 211.730 C 244.354 209.041,243.818 205.020,242.235 203.322 C 240.285 201.232,238.683 200.986,227.832 201.107 M253.194 201.941 C 250.050 203.614,249.416 205.286,249.271 212.299 C 249.096 220.746,250.331 223.631,254.600 224.753 C 256.266 225.190,272.296 225.437,272.702 225.031 C 272.829 224.904,273.250 224.800,273.636 224.800 C 275.977 224.800,278.894 219.209,277.617 217.168 C 276.557 215.474,273.017 216.213,273.492 218.029 C 273.586 218.389,273.214 219.204,272.666 219.841 L 271.669 221.000 264.043 221.000 L 256.418 221.000 255.309 219.891 L 254.200 218.782 254.200 212.956 L 254.200 207.131 255.322 206.165 C 256.738 204.947,271.403 204.621,271.854 205.798 C 271.981 206.126,272.236 206.301,272.422 206.186 C 272.609 206.071,272.981 206.713,273.251 207.612 C 274.232 210.887,277.200 210.458,277.200 207.041 C 277.200 201.613,276.249 201.200,263.737 201.200 C 255.597 201.200,254.434 201.282,253.194 201.941 M284.480 201.680 C 284.134 202.026,284.000 204.813,284.000 211.700 C 284.000 225.469,283.445 224.881,296.739 225.192 C 301.656 225.306,305.749 225.285,305.835 225.145 C 305.921 225.005,306.592 224.778,307.326 224.640 C 308.663 224.389,310.311 222.962,311.151 221.326 C 311.798 220.067,311.770 202.330,311.120 201.680 C 310.856 201.416,309.992 201.200,309.200 201.200 C 306.828 201.200,306.800 201.310,306.800 210.610 L 306.800 219.061 305.767 220.030 C 304.750 220.984,304.614 221.000,297.332 221.000 L 289.930 221.000 288.929 219.835 L 287.927 218.671 288.050 210.580 C 288.183 201.771,288.061 201.200,286.031 201.200 C 285.442 201.200,284.744 201.416,284.480 201.680 M318.629 201.829 C 318.283 202.174,317.996 202.939,317.991 203.529 C 317.851 219.694,317.953 223.352,318.560 224.061 C 319.144 224.743,319.967 224.800,329.316 224.800 C 340.213 224.800,340.400 224.765,340.400 222.710 C 340.400 221.026,339.285 220.800,330.988 220.800 C 321.964 220.800,322.800 221.830,322.800 210.706 C 322.800 204.593,322.663 202.023,322.320 201.680 C 321.635 200.995,319.371 201.086,318.629 201.829 M344.883 201.540 C 343.597 202.356,343.520 223.601,344.800 224.409 C 345.140 224.623,350.223 224.790,356.510 224.794 L 367.620 224.800 368.010 223.774 C 369.031 221.089,368.078 220.800,358.196 220.800 C 348.805 220.800,348.727 220.774,348.898 217.680 C 349.050 214.909,349.519 214.771,358.440 214.853 C 366.818 214.930,366.800 214.935,366.800 212.790 C 366.800 210.499,366.270 210.353,358.087 210.393 C 348.794 210.439,348.800 210.440,348.800 208.038 C 348.800 205.302,349.148 205.200,358.531 205.200 C 366.335 205.200,366.846 205.154,367.620 204.380 C 368.466 203.534,368.380 202.122,367.446 201.506 C 366.831 201.101,345.524 201.133,344.883 201.540 M376.162 201.962 C 373.807 203.031,372.613 205.127,372.551 208.300 C 372.521 209.796,372.668 210.800,372.917 210.800 C 373.146 210.800,373.236 210.897,373.117 211.016 C 372.802 211.331,374.886 213.600,375.489 213.600 C 375.770 213.600,376.000 213.810,376.000 214.067 C 376.000 214.323,376.113 214.421,376.251 214.283 C 376.389 214.145,377.010 214.295,377.631 214.616 C 378.483 215.057,380.458 215.210,385.680 215.240 C 394.895 215.293,396.865 216.093,395.186 219.100 C 393.386 222.323,377.600 222.038,377.600 218.782 C 377.600 216.926,374.506 215.550,373.050 216.758 C 372.302 217.379,372.208 219.043,372.828 220.674 C 373.064 221.293,373.241 221.848,373.222 221.907 C 373.203 221.966,373.787 222.540,374.519 223.182 C 376.579 224.991,378.564 225.290,387.458 225.134 C 395.852 224.986,396.046 224.946,398.700 222.835 L 400.000 221.800 400.000 217.700 C 400.000 215.002,399.851 213.600,399.563 213.600 C 399.323 213.600,398.672 213.243,398.117 212.806 C 396.352 211.418,394.385 211.083,386.561 210.839 C 377.882 210.568,377.518 210.447,377.667 207.907 C 377.817 205.367,378.348 205.200,386.269 205.200 C 392.410 205.200,393.205 205.276,393.568 205.900 C 393.792 206.285,393.982 206.420,393.990 206.200 C 393.999 205.980,394.354 206.329,394.780 206.975 C 395.206 207.621,395.483 208.266,395.395 208.408 C 395.218 208.694,395.811 208.798,398.200 208.903 L 399.800 208.973 399.923 207.294 C 400.015 206.036,399.839 205.394,399.223 204.732 C 398.770 204.246,398.400 203.716,398.400 203.554 C 398.400 201.335,380.382 200.045,376.162 201.962 M238.000 206.000 C 239.026 207.026,239.109 210.196,238.138 211.269 C 237.317 212.175,222.960 212.400,222.080 211.520 C 221.213 210.653,221.555 205.278,222.442 205.826 C 222.639 205.948,222.800 205.857,222.800 205.624 C 222.800 204.727,237.081 205.081,238.000 206.000 M17.348 232.112 C 16.850 232.504,16.217 233.449,15.941 234.212 C 15.665 234.975,15.285 235.600,15.096 235.600 C 14.907 235.600,14.850 235.758,14.969 235.950 C 15.241 236.390,13.267 242.112,12.728 242.444 C 12.510 242.579,12.346 242.849,12.364 243.045 C 12.410 243.556,11.606 245.897,10.959 247.139 C 10.654 247.722,10.404 248.592,10.402 249.071 C 10.401 249.551,10.117 250.226,9.771 250.571 C 9.426 250.917,9.230 251.200,9.337 251.200 C 9.444 251.200,9.175 252.145,8.740 253.300 C 8.305 254.455,7.488 256.750,6.925 258.400 C 6.362 260.050,5.666 261.861,5.379 262.425 C 5.092 262.989,4.319 265.082,3.662 267.077 C 3.004 269.072,2.276 271.041,2.043 271.452 C 1.811 271.864,1.310 272.920,0.931 273.800 C 0.552 274.680,0.173 275.535,0.088 275.700 C 0.003 275.865,11.252 276.000,25.086 276.000 L 50.239 276.000 50.746 274.600 C 51.024 273.830,51.382 273.200,51.541 273.200 C 51.700 273.200,51.856 272.851,51.888 272.424 C 51.987 271.107,54.069 265.188,54.631 264.626 C 54.923 264.334,55.079 264.012,54.977 263.910 C 54.875 263.809,55.131 262.842,55.544 261.763 C 55.958 260.683,56.706 258.720,57.206 257.400 C 57.707 256.080,58.469 254.202,58.901 253.227 C 59.333 252.252,59.735 251.016,59.793 250.482 C 59.852 249.947,60.147 249.352,60.450 249.161 C 60.752 248.969,60.866 248.809,60.702 248.806 C 60.538 248.803,60.775 247.855,61.229 246.700 C 61.683 245.545,62.417 243.520,62.860 242.200 C 63.574 240.074,64.376 238.049,66.207 233.750 C 67.123 231.598,67.105 231.597,41.494 231.493 C 19.733 231.406,18.196 231.445,17.348 232.112 M133.038 231.495 C 132.986 231.547,119.472 231.597,103.007 231.605 L 73.071 231.620 72.135 232.888 C 71.621 233.585,71.200 234.570,71.200 235.078 C 71.200 235.585,71.020 236.000,70.800 236.000 C 70.580 236.000,70.430 236.135,70.466 236.300 C 70.583 236.839,69.907 238.938,68.498 242.400 C 67.738 244.270,66.884 246.610,66.601 247.600 C 66.100 249.350,65.353 251.278,64.175 253.860 C 63.859 254.554,63.600 255.486,63.600 255.932 C 63.600 256.378,63.375 256.981,63.100 257.271 C 62.825 257.562,62.543 258.160,62.472 258.600 C 62.402 259.040,62.007 260.120,61.595 261.000 C 60.868 262.554,60.130 264.505,59.026 267.800 C 58.731 268.680,57.959 270.660,57.310 272.200 C 56.661 273.740,56.206 275.225,56.299 275.500 C 56.431 275.893,61.805 276.000,81.379 276.000 L 106.291 276.000 106.979 274.200 C 107.357 273.210,107.842 272.400,108.057 272.400 C 108.271 272.400,108.353 272.248,108.239 272.062 C 107.969 271.627,108.745 268.800,109.134 268.800 C 109.297 268.800,109.459 268.409,109.495 267.930 C 109.591 266.654,110.433 264.800,110.915 264.800 C 111.145 264.800,111.232 264.699,111.108 264.575 C 110.870 264.337,112.653 258.823,113.825 256.168 C 114.206 255.305,114.559 254.420,114.609 254.200 C 115.059 252.227,117.543 245.749,118.285 244.611 C 118.568 244.177,118.804 243.457,118.809 243.011 C 118.814 242.565,119.201 241.390,119.671 240.400 C 120.488 238.675,120.602 238.350,120.739 237.358 C 120.773 237.116,121.239 236.443,121.775 235.865 L 122.750 234.813 260.140 234.803 C 335.704 234.798,398.086 234.683,398.765 234.547 C 400.355 234.229,400.607 232.161,399.100 231.799 C 398.251 231.596,133.241 231.293,133.038 231.495 M61.064 235.821 C 61.195 236.163,60.839 237.558,60.274 238.921 C 59.709 240.285,59.073 242.030,58.862 242.800 C 58.651 243.570,57.937 245.550,57.276 247.200 C 55.132 252.549,52.867 258.566,52.459 260.000 C 52.133 261.141,49.735 267.318,47.996 271.493 L 47.624 272.386 27.387 272.493 C 6.661 272.603,5.299 272.527,5.801 271.297 C 5.958 270.914,6.680 268.980,7.405 267.000 C 8.698 263.473,9.620 261.033,12.089 254.600 C 12.765 252.840,13.910 249.780,14.634 247.800 C 17.995 238.606,19.095 235.911,19.627 235.575 C 20.743 234.869,60.789 235.107,61.064 235.821 M117.042 235.766 C 117.240 236.282,115.452 242.044,114.180 244.987 C 113.892 245.654,113.294 247.190,112.851 248.400 C 112.408 249.610,111.415 252.220,110.643 254.200 C 109.871 256.180,108.702 259.330,108.045 261.200 C 106.521 265.540,104.295 271.253,103.876 271.900 C 103.624 272.290,98.909 272.400,82.531 272.400 L 61.509 272.400 61.719 271.300 C 61.835 270.695,62.676 268.220,63.588 265.800 C 64.500 263.380,65.786 259.870,66.446 258.000 C 67.105 256.130,67.884 254.060,68.175 253.400 C 68.467 252.740,69.087 251.340,69.553 250.289 C 70.019 249.238,70.400 248.104,70.400 247.767 C 70.400 247.431,70.958 245.861,71.640 244.278 C 72.322 242.695,73.239 240.320,73.677 239.000 C 75.062 234.829,72.855 235.200,96.275 235.200 C 113.623 235.200,116.859 235.288,117.042 235.766 M137.200 241.451 C 136.430 241.729,135.575 241.881,135.300 241.791 C 135.025 241.700,134.800 241.796,134.800 242.005 C 134.800 242.214,134.373 242.492,133.850 242.623 C 133.328 242.754,132.699 243.303,132.454 243.842 C 132.208 244.381,131.736 244.926,131.406 245.053 C 131.075 245.180,130.904 245.445,131.026 245.642 C 131.148 245.839,131.095 246.000,130.909 246.000 C 130.491 246.000,130.483 246.121,130.404 253.035 C 130.321 260.311,130.507 261.199,132.601 263.513 L 134.309 265.400 144.176 265.600 C 157.130 265.863,158.250 265.419,158.697 259.843 C 158.892 257.418,158.848 257.250,157.849 256.595 C 156.421 255.660,154.429 256.372,154.688 257.725 C 155.355 261.218,153.275 262.082,144.579 261.925 L 137.616 261.800 136.508 260.691 C 135.439 259.621,135.395 259.410,135.256 254.727 C 134.995 245.938,135.355 245.600,144.961 245.600 C 152.538 245.600,154.349 246.180,154.387 248.620 C 154.405 249.738,155.154 250.400,156.400 250.400 C 159.922 250.400,158.639 243.078,154.955 242.153 C 154.430 242.021,154.000 241.781,154.000 241.619 C 154.000 241.457,150.633 241.285,146.517 241.235 C 142.402 241.186,138.937 241.100,138.817 241.045 C 138.698 240.990,137.970 241.173,137.200 241.451 M237.976 241.475 C 232.985 242.584,231.600 244.166,231.600 248.757 C 231.600 254.368,233.141 255.201,244.200 255.572 C 253.165 255.873,254.000 256.162,254.000 258.963 C 254.000 261.270,252.518 261.788,245.520 261.928 C 238.124 262.076,234.979 261.176,236.168 259.252 C 236.508 258.702,234.831 257.200,233.884 257.205 C 230.098 257.229,230.423 261.996,234.396 264.700 C 236.455 266.102,253.549 266.094,255.631 264.690 C 259.134 262.330,260.141 256.353,257.437 253.979 C 255.034 251.870,253.753 251.607,245.391 251.499 C 236.521 251.385,235.781 251.140,236.145 248.437 C 236.488 245.895,238.085 245.458,246.259 245.667 L 251.479 245.800 253.247 247.700 C 255.221 249.821,256.895 250.216,258.074 248.839 C 259.393 247.298,256.512 242.947,253.600 242.083 C 249.982 241.009,241.549 240.681,237.976 241.475 M269.878 241.708 C 265.328 242.826,264.200 244.192,264.200 248.584 C 264.200 254.550,265.200 255.101,276.800 255.538 C 285.121 255.851,286.205 256.114,286.666 257.931 C 287.460 261.059,284.912 262.090,276.789 261.927 C 269.713 261.785,269.189 261.591,268.358 258.817 C 267.878 257.216,266.268 256.708,264.565 257.619 C 262.678 258.628,264.487 263.440,267.302 264.901 C 269.252 265.913,285.712 265.976,287.641 264.979 C 288.274 264.652,288.880 264.432,288.988 264.492 C 289.470 264.757,290.616 262.410,291.062 260.244 C 292.409 253.709,289.533 251.605,279.228 251.590 C 269.034 251.576,265.938 250.052,269.432 246.770 C 271.024 245.274,284.114 245.253,285.146 246.744 C 287.226 249.748,289.319 250.515,290.487 248.700 C 293.887 243.417,280.877 239.003,269.878 241.708 M319.800 241.223 C 312.314 241.520,308.400 243.031,308.400 245.624 C 308.400 246.025,308.254 246.443,308.076 246.553 C 307.898 246.663,307.873 247.798,308.021 249.076 C 308.169 250.354,308.220 251.525,308.135 251.677 C 307.856 252.179,310.694 254.685,311.859 254.966 C 312.486 255.118,316.431 255.370,320.625 255.526 C 330.424 255.891,332.504 257.107,329.436 260.678 L 328.471 261.800 321.986 261.928 C 314.272 262.081,313.541 261.878,312.282 259.244 C 310.095 254.671,306.715 257.573,308.636 262.374 C 309.823 265.339,311.127 265.649,321.856 265.515 C 332.305 265.384,331.758 265.478,333.448 263.505 C 335.504 261.105,335.749 256.515,333.944 254.220 C 332.225 252.034,331.274 251.820,322.341 251.602 C 312.541 251.362,310.963 250.633,312.805 247.191 C 314.110 244.753,328.158 244.893,329.618 247.358 C 330.825 249.398,331.188 249.651,332.729 249.522 C 334.861 249.343,335.276 247.922,333.955 245.327 C 332.238 241.953,328.522 240.876,319.800 241.223 M209.027 242.874 C 208.197 243.713,207.624 244.400,207.753 244.400 C 207.882 244.400,207.612 245.120,207.153 246.000 C 206.695 246.880,206.147 247.600,205.936 247.600 C 205.725 247.600,205.657 247.769,205.785 247.975 C 205.912 248.182,205.698 248.536,205.308 248.763 C 204.919 248.990,204.725 249.181,204.878 249.188 C 205.196 249.202,203.529 252.164,200.259 257.400 C 195.673 264.744,195.499 265.600,198.591 265.600 C 200.063 265.600,200.645 265.373,201.663 264.400 C 202.354 263.740,202.771 263.200,202.590 263.200 C 202.409 263.200,202.683 262.750,203.200 262.200 L 204.139 261.200 211.993 261.200 C 220.470 261.200,220.377 261.179,221.970 263.506 C 224.077 266.586,229.138 266.604,227.491 263.526 C 227.101 262.796,226.798 262.049,226.818 261.864 C 226.837 261.679,226.596 261.319,226.282 261.064 C 225.670 260.567,218.028 247.818,217.885 247.056 C 217.838 246.805,217.698 246.510,217.574 246.400 C 217.449 246.290,216.772 245.354,216.068 244.320 C 213.809 240.999,211.373 240.499,209.027 242.874 M300.360 241.373 C 300.272 241.461,299.586 241.603,298.835 241.689 C 297.114 241.885,297.202 241.232,297.229 253.600 C 297.255 265.239,297.253 265.177,297.567 265.093 C 297.695 265.058,298.217 265.261,298.727 265.543 C 299.504 265.974,299.811 265.954,300.627 265.419 L 301.600 264.782 301.587 253.691 C 301.575 243.235,301.297 240.438,300.360 241.373 M165.077 242.180 C 163.978 243.279,163.560 262.048,164.581 264.472 C 164.934 265.311,166.902 266.031,167.623 265.586 C 167.920 265.403,168.286 265.329,168.437 265.423 C 168.856 265.682,169.169 263.382,169.242 259.504 C 169.327 255.035,168.835 255.266,178.200 255.294 C 187.723 255.322,187.200 255.059,187.200 259.816 C 187.200 265.130,188.662 267.155,191.154 265.295 L 192.200 264.514 192.307 253.997 C 192.427 242.121,192.324 241.600,189.853 241.600 C 187.623 241.600,187.159 242.522,187.252 246.761 C 187.357 251.523,187.974 251.234,177.972 251.108 L 169.400 251.000 169.130 246.800 C 168.982 244.490,168.817 242.408,168.763 242.174 C 168.608 241.491,165.762 241.496,165.077 242.180 M213.269 248.662 C 213.671 249.026,214.000 249.538,214.000 249.800 C 214.000 250.062,214.729 251.404,215.621 252.783 C 218.019 256.494,217.924 256.600,212.195 256.600 C 206.593 256.600,206.182 256.230,208.319 253.111 C 208.963 252.170,209.879 250.635,210.353 249.700 C 211.279 247.877,212.084 247.590,213.269 248.662 " stroke="none" fill="#040404" fill-rule="evenodd"></path><path id="path1" d="M56.596 125.472 C 56.258 126.281,56.033 127.100,56.097 127.291 C 56.161 127.482,56.516 126.820,56.887 125.819 C 57.693 123.645,57.470 123.379,56.596 125.472 M106.860 124.867 C 106.827 125.454,106.696 126.264,106.570 126.667 C 106.352 127.360,106.365 127.361,106.795 126.690 C 107.046 126.299,107.177 125.489,107.086 124.890 L 106.920 123.800 106.860 124.867 M112.382 124.700 C 112.373 125.085,112.127 126.030,111.836 126.800 C 110.811 129.517,110.761 129.786,111.542 128.385 C 112.348 126.942,113.087 124.000,112.645 124.000 C 112.510 124.000,112.392 124.315,112.382 124.700 M162.482 126.675 C 161.555 129.401,161.524 129.835,162.385 128.024 C 162.849 127.047,163.178 126.000,163.115 125.698 C 163.052 125.396,162.767 125.836,162.482 126.675 M59.658 129.096 C 59.239 129.923,58.448 131.770,57.901 133.200 C 55.224 140.201,54.203 142.934,52.821 146.800 C 51.995 149.110,50.843 152.057,50.260 153.350 C 49.677 154.642,49.200 155.953,49.200 156.262 C 49.200 156.787,47.894 160.170,46.575 163.060 C 46.259 163.754,46.000 164.570,46.000 164.876 C 46.000 165.181,45.380 166.923,44.622 168.747 C 43.864 170.572,42.852 173.265,42.374 174.732 C 41.895 176.199,41.267 177.940,40.977 178.600 C 39.489 181.989,38.400 184.836,38.400 185.338 C 38.400 185.647,37.798 187.228,37.062 188.850 C 36.327 190.473,35.597 192.340,35.441 193.000 C 35.284 193.660,34.458 196.000,33.605 198.200 C 29.842 207.902,28.000 212.848,28.000 213.248 C 28.000 213.485,27.746 214.246,27.435 214.940 C 25.252 219.809,24.752 221.232,24.868 222.249 L 25.000 223.400 45.116 223.504 L 65.231 223.607 66.158 222.608 C 66.993 221.707,67.638 220.319,69.230 216.000 C 69.514 215.230,70.703 212.132,71.873 209.115 C 73.043 206.098,74.000 203.434,74.000 203.193 C 74.000 202.953,74.559 201.461,75.243 199.878 C 75.927 198.295,76.660 196.370,76.872 195.600 C 77.084 194.830,77.986 192.310,78.876 190.000 C 79.767 187.690,80.725 185.170,81.006 184.400 C 81.286 183.630,81.971 181.920,82.528 180.600 C 83.084 179.280,83.937 176.940,84.424 175.400 C 84.910 173.860,85.445 172.420,85.612 172.200 C 85.779 171.980,86.461 170.180,87.126 168.200 C 88.331 164.618,89.129 162.543,90.225 160.140 C 90.541 159.446,90.800 158.670,90.800 158.414 C 90.800 157.939,92.011 154.767,93.019 152.600 C 93.326 151.940,93.872 150.500,94.231 149.400 C 94.591 148.300,95.676 145.369,96.643 142.887 C 97.609 140.405,98.400 138.183,98.400 137.948 C 98.400 137.713,98.659 136.954,98.975 136.260 C 100.732 132.408,101.631 129.797,101.523 128.858 L 101.400 127.800 80.910 127.696 L 60.420 127.593 59.658 129.096 M115.799 128.401 C 115.066 129.211,112.801 134.439,112.799 135.327 C 112.798 135.587,112.239 137.150,111.556 138.800 C 110.874 140.450,109.721 143.420,108.994 145.400 C 108.267 147.380,107.280 149.990,106.801 151.200 C 106.322 152.410,105.610 154.390,105.219 155.600 C 104.827 156.810,104.064 158.790,103.521 160.000 C 102.979 161.210,102.403 162.740,102.242 163.400 C 102.081 164.060,101.079 166.850,100.015 169.600 C 96.395 178.956,94.800 183.207,94.799 183.504 C 94.798 183.667,94.243 185.150,93.566 186.800 C 92.889 188.450,91.790 191.420,91.125 193.400 C 90.460 195.380,89.750 197.204,89.547 197.454 C 89.344 197.704,88.566 199.684,87.818 201.854 C 86.386 206.012,84.773 210.364,82.576 216.000 C 80.493 221.344,80.143 222.792,80.827 223.225 C 81.683 223.767,120.650 223.708,121.668 223.164 C 122.523 222.706,124.183 219.380,125.556 215.371 C 126.003 214.067,126.756 212.010,127.230 210.800 C 128.577 207.362,131.102 200.607,132.763 196.000 C 133.595 193.690,134.740 190.630,135.306 189.200 C 136.312 186.657,137.523 183.450,140.215 176.200 C 143.288 167.924,146.942 158.256,148.303 154.800 C 148.866 153.370,149.917 150.580,150.639 148.600 C 153.196 141.584,155.249 136.156,156.647 132.713 C 158.865 127.254,161.051 127.816,137.160 127.696 C 116.903 127.595,116.517 127.607,115.799 128.401 M55.057 129.908 C 54.590 130.664,53.263 134.496,53.583 134.167 C 53.967 133.771,55.614 129.600,55.385 129.600 C 55.309 129.600,55.162 129.738,55.057 129.908 M109.993 131.472 C 109.093 133.807,109.095 133.929,110.007 132.272 C 110.470 131.431,110.788 130.564,110.715 130.344 C 110.641 130.124,110.316 130.631,109.993 131.472 M104.715 131.410 C 104.592 131.845,104.369 132.560,104.220 133.000 C 104.071 133.440,104.242 133.294,104.600 132.676 C 104.958 132.058,105.181 131.342,105.095 131.086 C 105.010 130.830,104.839 130.976,104.715 131.410 M160.465 132.617 C 159.795 134.088,159.923 134.402,160.647 133.065 C 160.986 132.440,161.188 131.854,161.096 131.763 C 161.005 131.671,160.721 132.056,160.465 132.617 M108.712 134.800 C 108.576 135.350,108.350 136.250,108.210 136.800 C 108.052 137.422,108.197 137.279,108.592 136.421 C 108.942 135.662,109.168 134.762,109.094 134.421 C 109.010 134.031,108.868 134.172,108.712 134.800 M159.072 135.819 C 158.132 137.789,158.264 138.124,159.247 136.262 C 159.693 135.416,159.987 134.654,159.901 134.567 C 159.814 134.481,159.441 135.044,159.072 135.819 M102.865 136.217 C 102.195 137.688,102.323 138.002,103.047 136.665 C 103.386 136.040,103.588 135.454,103.496 135.363 C 103.405 135.271,103.121 135.656,102.865 136.217 M157.915 139.010 C 157.792 139.445,157.569 140.160,157.420 140.600 C 157.271 141.040,157.442 140.894,157.800 140.276 C 158.158 139.658,158.381 138.942,158.295 138.686 C 158.210 138.430,158.039 138.576,157.915 139.010 M101.515 140.210 C 101.392 140.645,101.169 141.360,101.020 141.800 C 100.871 142.240,101.042 142.094,101.400 141.476 C 101.758 140.858,101.981 140.142,101.895 139.886 C 101.810 139.630,101.639 139.776,101.515 140.210 M50.186 142.427 C 49.837 143.102,49.607 143.814,49.676 144.009 C 49.744 144.204,50.102 143.651,50.470 142.782 C 51.265 140.906,51.087 140.684,50.186 142.427 M155.466 145.469 C 154.643 147.581,154.052 149.509,154.153 149.754 C 154.273 150.045,154.348 150.025,154.368 149.697 C 154.386 149.421,155.046 147.562,155.835 145.566 C 156.624 143.570,157.201 141.867,157.116 141.783 C 157.032 141.698,156.289 143.357,155.466 145.469 M105.045 144.650 C 104.690 145.691,104.413 146.735,104.429 146.971 C 104.445 147.207,104.805 146.424,105.228 145.232 C 105.651 144.040,105.928 142.995,105.844 142.910 C 105.759 142.826,105.400 143.608,105.045 144.650 M99.685 144.813 C 99.418 145.240,99.201 145.817,99.202 146.095 C 99.204 146.373,99.477 146.078,99.810 145.440 C 100.503 144.111,100.411 143.650,99.685 144.813 M48.229 147.829 C 48.081 148.415,48.038 148.972,48.132 149.066 C 48.227 149.160,48.424 148.758,48.571 148.171 C 48.719 147.585,48.762 147.028,48.668 146.934 C 48.573 146.840,48.376 147.242,48.229 147.829 M98.465 147.817 C 97.795 149.288,97.923 149.602,98.647 148.265 C 98.986 147.640,99.188 147.054,99.096 146.963 C 99.005 146.871,98.721 147.256,98.465 147.817 M103.472 149.019 C 103.102 149.793,102.804 150.646,102.809 150.914 C 102.814 151.181,103.177 150.608,103.616 149.640 C 104.567 147.544,104.439 146.991,103.472 149.019 M47.452 149.917 C 46.966 150.702,45.201 155.762,45.208 156.348 C 45.212 156.706,45.737 155.523,46.374 153.717 C 47.010 151.912,47.647 150.247,47.789 150.017 C 47.931 149.788,47.957 149.600,47.847 149.600 C 47.737 149.600,47.559 149.742,47.452 149.917 M153.193 151.872 C 152.293 154.207,152.295 154.329,153.207 152.672 C 153.670 151.831,153.988 150.964,153.915 150.744 C 153.841 150.524,153.516 151.031,153.193 151.872 M102.085 152.413 C 101.818 152.840,101.601 153.417,101.602 153.695 C 101.604 153.973,101.877 153.678,102.210 153.040 C 102.903 151.711,102.811 151.250,102.085 152.413 M95.593 155.472 C 94.693 157.807,94.695 157.929,95.607 156.272 C 96.070 155.431,96.388 154.564,96.315 154.344 C 96.241 154.124,95.916 154.631,95.593 155.472 M151.464 156.199 C 151.059 157.180,150.820 158.212,150.932 158.492 C 151.056 158.798,151.149 158.714,151.168 158.280 C 151.186 157.884,151.481 157.017,151.824 156.353 C 152.168 155.689,152.393 154.981,152.324 154.780 C 152.256 154.579,151.869 155.217,151.464 156.199 M100.793 156.272 C 99.893 158.607,99.895 158.729,100.807 157.072 C 101.270 156.231,101.588 155.364,101.515 155.144 C 101.441 154.924,101.116 155.431,100.793 156.272 M43.369 160.700 C 42.807 161.965,42.265 163.540,42.165 164.200 C 42.022 165.143,42.103 165.057,42.540 163.800 C 42.847 162.920,43.474 161.345,43.935 160.300 C 44.395 159.255,44.686 158.400,44.581 158.400 C 44.476 158.400,43.930 159.435,43.369 160.700 M96.944 166.472 C 95.528 170.086,95.433 170.391,96.030 169.441 C 96.698 168.376,98.427 163.894,98.241 163.708 C 98.157 163.623,97.573 164.867,96.944 166.472 M92.065 165.017 C 91.809 165.578,91.607 166.254,91.616 166.519 C 91.624 166.783,91.897 166.388,92.222 165.639 C 92.905 164.065,92.761 163.490,92.065 165.017 M41.265 166.617 C 40.595 168.088,40.723 168.402,41.447 167.065 C 41.786 166.440,41.988 165.854,41.896 165.763 C 41.805 165.671,41.521 166.056,41.265 166.617 M91.246 167.720 C 91.221 168.116,90.925 168.971,90.590 169.620 C 90.254 170.269,90.069 170.800,90.179 170.800 C 90.610 170.800,91.638 168.309,91.471 167.673 C 91.314 167.081,91.287 167.087,91.246 167.720 M146.865 168.617 C 146.609 169.178,146.407 169.854,146.416 170.119 C 146.424 170.383,146.697 169.988,147.022 169.239 C 147.705 167.665,147.561 167.090,146.865 168.617 M39.588 170.422 C 39.346 170.874,39.207 171.422,39.280 171.639 C 39.352 171.857,39.618 171.487,39.871 170.817 C 40.397 169.425,40.239 169.205,39.588 170.422 M94.880 171.880 C 94.288 173.809,94.575 174.095,95.200 172.200 C 95.464 171.401,95.602 170.669,95.507 170.574 C 95.412 170.478,95.130 171.066,94.880 171.880 M89.072 173.019 C 88.132 174.989,88.264 175.324,89.247 173.462 C 89.693 172.616,89.987 171.854,89.901 171.767 C 89.814 171.681,89.441 172.244,89.072 173.019 M144.257 175.257 C 143.863 176.366,143.626 177.359,143.730 177.463 C 143.834 177.567,144.225 176.729,144.600 175.600 C 145.488 172.927,145.190 172.630,144.257 175.257 M38.046 174.839 C 37.801 175.543,37.613 176.318,37.628 176.560 C 37.644 176.802,37.914 176.296,38.230 175.435 C 38.545 174.574,38.733 173.800,38.648 173.715 C 38.562 173.629,38.292 174.135,38.046 174.839 M93.300 176.500 C 92.870 177.675,92.880 177.726,93.412 177.024 C 93.921 176.352,94.221 175.200,93.888 175.200 C 93.826 175.200,93.561 175.785,93.300 176.500 M87.665 176.617 C 87.409 177.178,87.207 177.854,87.216 178.119 C 87.224 178.383,87.497 177.988,87.822 177.239 C 88.505 175.665,88.361 175.090,87.665 176.617 M36.865 178.217 C 36.195 179.688,36.323 180.002,37.047 178.665 C 37.386 178.040,37.588 177.454,37.496 177.363 C 37.405 177.271,37.121 177.656,36.865 178.217 M143.232 178.340 C 143.214 178.637,142.571 180.332,141.801 182.108 C 141.032 183.883,140.468 185.401,140.548 185.481 C 140.822 185.755,143.649 178.748,143.456 178.274 C 143.324 177.950,143.253 177.972,143.232 178.340 M86.393 180.272 C 85.493 182.607,85.495 182.729,86.407 181.072 C 86.870 180.231,87.188 179.364,87.115 179.144 C 87.041 178.924,86.716 179.431,86.393 180.272 M91.665 180.217 C 90.995 181.688,91.123 182.002,91.847 180.665 C 92.186 180.040,92.388 179.454,92.296 179.363 C 92.205 179.271,91.921 179.656,91.665 180.217 M35.045 183.050 C 34.690 184.091,34.413 185.135,34.429 185.371 C 34.445 185.607,34.805 184.824,35.228 183.632 C 35.651 182.440,35.928 181.395,35.844 181.310 C 35.759 181.226,35.400 182.008,35.045 183.050 M89.096 187.287 C 88.320 189.109,87.580 191.230,87.453 192.000 C 87.299 192.926,87.469 192.655,87.954 191.200 C 88.358 189.990,89.166 187.937,89.749 186.639 C 90.333 185.340,90.742 184.209,90.658 184.125 C 90.575 184.042,89.872 185.464,89.096 187.287 M139.759 187.675 C 139.517 188.404,139.191 189.360,139.036 189.800 C 138.880 190.240,139.134 189.912,139.600 189.072 C 140.067 188.232,140.392 187.275,140.324 186.947 C 140.256 186.618,140.002 186.946,139.759 187.675 M31.988 190.822 C 31.746 191.274,31.607 191.822,31.680 192.039 C 31.752 192.257,32.018 191.887,32.271 191.217 C 32.797 189.825,32.639 189.605,31.988 190.822 M138.100 192.100 C 137.670 193.275,137.680 193.326,138.212 192.624 C 138.721 191.952,139.021 190.800,138.688 190.800 C 138.626 190.800,138.361 191.385,138.100 192.100 M30.928 194.300 C 30.514 195.628,30.525 195.711,31.030 195.024 C 31.508 194.373,31.839 192.800,31.498 192.800 C 31.442 192.800,31.185 193.475,30.928 194.300 M81.211 193.771 C 80.617 195.334,80.734 195.580,81.447 194.265 C 81.786 193.640,81.964 193.030,81.842 192.909 C 81.721 192.788,81.437 193.176,81.211 193.771 M86.377 194.661 C 86.155 195.244,86.032 195.897,86.104 196.112 C 86.176 196.327,86.435 195.850,86.680 195.051 C 87.194 193.374,86.974 193.090,86.377 194.661 M136.300 196.911 C 135.338 199.244,135.432 199.810,136.420 197.632 C 136.861 196.660,137.172 195.718,137.111 195.539 C 137.050 195.360,136.685 195.978,136.300 196.911 M80.065 197.417 C 79.395 198.888,79.523 199.202,80.247 197.865 C 80.586 197.240,80.788 196.654,80.696 196.563 C 80.605 196.471,80.321 196.856,80.065 197.417 M85.002 198.100 C 84.907 198.375,84.349 200.040,83.761 201.800 C 83.174 203.560,82.538 205.171,82.347 205.380 C 82.156 205.589,82.000 205.944,82.000 206.169 C 82.000 207.504,83.514 204.025,84.991 199.300 C 85.454 197.817,85.464 196.764,85.002 198.100 M78.498 201.330 C 77.267 204.153,77.363 204.726,78.616 202.035 C 79.170 200.844,79.573 199.733,79.512 199.565 C 79.450 199.398,78.994 200.192,78.498 201.330 M134.607 201.083 C 133.860 202.921,132.402 207.385,132.424 207.770 C 132.436 208.007,133.053 206.491,133.793 204.403 C 134.534 202.315,135.085 200.552,135.019 200.486 C 134.953 200.420,134.768 200.688,134.607 201.083 M153.821 201.335 C 153.419 201.629,153.190 202.124,153.313 202.435 C 153.479 202.855,153.545 202.822,153.568 202.308 C 153.586 201.927,154.005 201.529,154.500 201.423 C 154.995 201.318,155.760 201.155,156.200 201.062 C 156.708 200.955,156.554 200.876,155.776 200.846 C 155.104 200.821,154.224 201.041,153.821 201.335 M178.798 201.097 C 181.261 201.394,181.200 201.094,181.200 212.969 C 181.200 224.893,181.219 224.800,178.800 224.800 C 176.803 224.800,176.412 224.234,176.323 221.220 L 176.246 218.600 176.103 221.146 C 175.927 224.268,176.555 225.200,178.833 225.200 C 181.612 225.200,181.600 225.252,181.600 213.000 C 181.600 200.737,181.602 200.745,178.871 200.864 L 177.400 200.928 178.798 201.097 M188.700 201.232 C 188.315 201.456,188.003 201.856,188.006 202.120 C 188.010 202.412,188.161 202.365,188.391 202.000 C 188.707 201.500,190.557 201.364,199.485 201.187 L 210.200 200.974 199.800 200.899 C 193.320 200.853,189.136 200.978,188.700 201.232 M217.462 201.531 C 216.488 202.608,216.458 223.600,217.429 224.571 C 219.716 226.859,222.000 224.816,222.000 220.483 C 222.000 216.318,221.846 216.398,229.874 216.406 C 238.161 216.414,238.163 216.414,238.318 220.599 C 238.458 224.353,238.989 225.200,241.200 225.200 C 243.513 225.200,244.065 224.289,243.898 220.748 L 243.759 217.800 243.679 220.820 C 243.589 224.250,243.247 224.800,241.200 224.800 C 239.119 224.800,238.800 224.266,238.800 220.782 C 238.800 216.223,238.815 216.231,230.120 216.074 C 221.438 215.917,221.600 215.832,221.600 220.582 C 221.600 222.583,221.415 224.025,221.120 224.320 C 220.500 224.940,218.300 224.940,217.680 224.320 C 216.951 223.591,217.000 202.264,217.732 201.656 C 218.078 201.369,221.605 201.175,227.832 201.100 L 237.400 200.985 227.762 200.892 C 218.865 200.807,218.073 200.856,217.462 201.531 M264.219 201.183 C 272.636 201.373,273.978 201.491,274.954 202.132 C 275.567 202.535,276.153 202.780,276.256 202.678 C 277.440 201.493,272.638 200.803,263.774 200.883 L 254.600 200.966 264.219 201.183 M284.229 201.429 C 283.686 201.971,283.613 203.387,283.692 211.729 L 283.785 221.400 283.900 211.832 C 284.022 201.633,284.108 201.200,286.000 201.200 C 288.063 201.200,288.184 201.751,288.050 210.545 C 287.920 219.167,288.295 220.852,290.329 220.775 C 290.822 220.756,290.768 220.656,290.126 220.397 C 288.471 219.731,288.318 218.782,288.460 210.122 C 288.587 202.401,288.550 201.899,287.821 201.366 C 286.795 200.616,285.010 200.647,284.229 201.429 M307.062 201.531 C 306.490 202.164,306.400 203.411,306.400 210.702 L 306.400 219.142 305.346 219.971 C 304.766 220.427,304.465 220.800,304.676 220.800 C 306.483 220.800,306.800 219.268,306.800 210.523 C 306.800 201.309,306.780 201.389,309.202 201.097 L 310.600 200.928 309.162 200.864 C 308.214 200.822,307.498 201.050,307.062 201.531 M318.400 201.600 C 317.899 202.101,317.617 202.885,317.646 203.700 L 317.692 205.000 317.984 203.496 C 318.344 201.636,318.436 201.544,320.296 201.184 L 321.800 200.892 320.500 200.846 C 319.685 200.817,318.901 201.099,318.400 201.600 M344.400 201.600 C 343.960 202.040,343.615 202.805,343.634 203.300 C 343.663 204.060,343.723 204.018,344.017 203.034 C 344.555 201.236,344.713 201.212,356.200 201.212 C 367.006 201.212,367.682 201.280,368.108 202.400 C 368.293 202.885,368.343 202.868,368.368 202.314 C 368.430 200.970,367.044 200.800,356.026 200.800 C 345.733 200.800,345.161 200.839,344.400 201.600 M381.900 201.098 C 384.155 201.170,387.845 201.170,390.100 201.098 C 392.355 201.027,390.510 200.969,386.000 200.969 C 381.490 200.969,379.645 201.027,381.900 201.098 M176.480 201.680 C 176.193 201.967,176.030 203.133,176.076 204.580 L 176.151 207.000 176.298 204.614 C 176.379 203.301,176.637 201.996,176.872 201.714 C 177.410 201.065,177.120 201.040,176.480 201.680 M211.062 201.600 C 211.316 201.930,211.606 202.650,211.707 203.200 L 211.891 204.200 211.946 203.149 C 211.976 202.570,211.686 201.852,211.300 201.549 C 210.691 201.071,210.660 201.078,211.062 201.600 M239.815 201.625 C 241.848 202.217,243.344 204.133,243.634 206.516 L 243.887 208.600 243.942 206.800 C 244.030 203.916,241.705 201.117,239.320 201.236 C 238.924 201.256,239.147 201.431,239.815 201.625 M252.053 202.217 C 250.560 203.473,249.065 205.830,249.335 206.501 C 249.465 206.823,249.548 206.773,249.568 206.360 C 249.622 205.267,251.829 202.583,253.248 201.884 C 253.992 201.518,254.299 201.214,253.931 201.209 C 253.563 201.204,252.718 201.658,252.053 202.217 M311.100 201.599 C 311.768 202.349,311.814 220.036,311.151 221.326 C 310.904 221.807,310.229 222.739,309.651 223.399 L 308.600 224.597 309.738 223.599 C 311.911 221.692,312.000 221.208,312.000 211.269 C 312.000 203.003,311.931 202.046,311.300 201.568 C 310.704 201.118,310.675 201.122,311.100 201.599 M322.300 201.599 C 322.667 202.011,322.800 204.435,322.800 210.706 C 322.800 221.854,321.941 220.820,331.114 220.710 L 338.600 220.620 331.430 220.500 C 322.344 220.349,323.200 221.358,323.200 210.800 C 323.200 202.981,323.129 202.044,322.500 201.568 C 321.904 201.118,321.875 201.122,322.300 201.599 M375.358 201.960 C 374.104 202.725,372.400 205.058,372.400 206.010 C 372.400 206.294,372.813 205.733,373.318 204.763 C 373.969 203.510,374.747 202.739,376.002 202.100 C 376.974 201.605,377.506 201.201,377.185 201.201 C 376.863 201.202,376.041 201.544,375.358 201.960 M395.704 202.000 C 397.635 203.035,398.188 203.034,396.490 201.999 C 395.770 201.559,394.963 201.200,394.696 201.200 C 394.430 201.200,394.884 201.560,395.704 202.000 M27.644 202.844 C 27.398 203.551,27.266 204.200,27.352 204.285 C 27.438 204.371,27.709 203.862,27.956 203.156 C 28.202 202.449,28.334 201.800,28.248 201.715 C 28.162 201.629,27.891 202.138,27.644 202.844 M398.664 204.000 C 399.054 204.660,399.519 205.200,399.698 205.200 C 399.877 205.200,399.625 204.660,399.137 204.000 C 398.649 203.340,398.183 202.800,398.102 202.800 C 398.021 202.800,398.274 203.340,398.664 204.000 M367.500 204.467 C 366.865 205.132,366.026 205.200,358.462 205.200 C 350.892 205.200,350.063 205.267,349.462 205.931 C 348.576 206.910,348.599 209.350,349.500 210.032 C 350.096 210.482,350.125 210.478,349.700 210.001 C 349.063 209.287,349.050 206.710,349.680 206.080 C 350.022 205.738,352.532 205.600,358.436 205.600 C 365.992 205.600,366.793 205.533,367.656 204.834 C 368.175 204.413,368.510 203.993,368.400 203.901 C 368.290 203.809,367.885 204.063,367.500 204.467 M187.772 213.400 C 187.772 218.460,187.829 220.475,187.899 217.877 C 187.969 215.280,187.968 211.140,187.898 208.677 C 187.828 206.215,187.771 208.340,187.772 213.400 M211.034 204.700 C 210.870 204.865,207.285 205.098,203.068 205.217 L 195.400 205.434 202.824 205.517 C 208.827 205.584,210.396 205.488,211.024 205.013 C 211.451 204.690,211.695 204.420,211.567 204.413 C 211.438 204.406,211.199 204.535,211.034 204.700 M343.686 213.900 C 343.574 226.541,342.075 225.200,356.320 225.200 C 367.728 225.200,368.435 225.107,368.375 223.620 C 368.359 223.240,368.209 223.348,367.988 223.900 L 367.626 224.800 356.513 224.794 C 350.221 224.790,345.140 224.623,344.800 224.409 C 344.303 224.095,344.163 222.331,343.986 214.115 L 343.773 204.200 343.686 213.900 M153.371 213.600 C 153.371 218.550,153.428 220.575,153.499 218.100 C 153.569 215.625,153.569 211.575,153.499 209.100 C 153.428 206.625,153.371 208.650,153.371 213.600 M26.272 206.619 C 25.332 208.589,25.464 208.924,26.447 207.062 C 26.893 206.216,27.187 205.454,27.101 205.367 C 27.014 205.281,26.641 205.844,26.272 206.619 M229.779 205.500 C 238.123 205.638,238.400 205.744,238.400 208.782 C 238.400 210.787,237.911 211.573,236.620 211.646 C 235.904 211.687,235.892 211.717,236.530 211.881 C 238.613 212.420,239.774 207.774,238.000 206.000 C 237.251 205.251,236.733 205.206,229.900 205.290 L 222.600 205.380 229.779 205.500 M255.454 206.029 C 254.874 206.485,254.405 207.070,254.412 207.329 C 254.419 207.588,254.617 207.469,254.852 207.064 C 255.088 206.659,255.847 206.081,256.540 205.779 C 257.233 205.478,257.509 205.224,257.154 205.216 C 256.799 205.207,256.034 205.573,255.454 206.029 M277.264 206.891 C 277.166 209.780,274.555 211.027,273.592 208.644 C 273.321 207.974,273.245 207.942,273.225 208.491 C 273.185 209.598,274.891 210.498,276.135 210.025 C 277.299 209.582,277.742 208.388,277.493 206.355 C 277.357 205.240,277.317 205.335,277.264 206.891 M378.344 206.043 L 377.400 206.887 378.436 206.276 C 379.006 205.940,379.996 205.588,380.636 205.493 L 381.800 205.320 380.544 205.260 C 379.765 205.223,378.930 205.520,378.344 206.043 M391.200 205.355 C 391.200 205.440,391.730 205.587,392.379 205.682 C 393.027 205.777,393.467 205.708,393.355 205.528 C 393.157 205.207,391.200 205.050,391.200 205.355 M193.043 206.233 C 192.370 207.986,193.015 210.400,194.156 210.400 C 194.375 210.400,194.222 210.158,193.817 209.862 C 193.224 209.428,193.122 208.965,193.292 207.462 C 193.512 205.507,193.446 205.181,193.043 206.233 M221.843 206.233 C 221.061 208.270,221.781 212.000,222.956 212.000 C 223.175 212.000,223.026 211.761,222.626 211.468 C 222.015 211.021,221.925 210.509,222.068 208.268 C 222.248 205.434,222.226 205.233,221.843 206.233 M317.769 213.800 C 317.770 218.420,317.828 220.255,317.899 217.878 C 317.970 215.501,317.969 211.721,317.898 209.478 C 317.827 207.235,317.769 209.180,317.769 213.800 M394.000 206.113 C 394.000 206.829,395.855 209.188,396.400 209.163 C 396.824 209.145,396.850 209.077,396.489 208.932 C 396.209 208.819,395.534 208.071,394.989 207.270 C 394.445 206.469,394.000 205.949,394.000 206.113 M81.193 208.272 C 80.293 210.607,80.295 210.729,81.207 209.072 C 81.670 208.231,81.988 207.364,81.915 207.144 C 81.841 206.924,81.516 207.431,81.193 208.272 M176.060 208.220 C 176.027 208.891,175.784 209.656,175.520 209.920 C 175.147 210.293,175.149 210.400,175.533 210.400 C 176.197 210.400,176.496 209.507,176.290 208.134 L 176.120 207.000 176.060 208.220 M75.620 209.098 C 74.849 210.762,73.946 213.387,74.249 213.085 C 74.610 212.723,76.406 208.273,76.252 208.119 C 76.185 208.052,75.900 208.492,75.620 209.098 M248.957 213.200 C 248.957 216.170,249.020 217.385,249.097 215.900 C 249.174 214.415,249.174 211.985,249.097 210.500 C 249.020 209.015,248.957 210.230,248.957 213.200 M131.665 209.417 C 130.995 210.888,131.123 211.202,131.847 209.865 C 132.186 209.240,132.388 208.654,132.296 208.563 C 132.205 208.471,131.921 208.856,131.665 209.417 M254.153 213.000 C 254.153 215.640,254.218 216.668,254.297 215.284 C 254.375 213.901,254.374 211.741,254.295 210.484 C 254.216 209.228,254.152 210.360,254.153 213.000 M377.612 209.051 C 377.594 209.711,378.691 210.509,379.287 210.269 C 379.617 210.137,379.558 210.052,379.120 210.032 C 378.746 210.014,378.256 209.685,378.032 209.300 C 377.808 208.915,377.619 208.803,377.612 209.051 M24.865 210.217 C 24.609 210.778,24.407 211.454,24.416 211.719 C 24.424 211.983,24.697 211.588,25.022 210.839 C 25.705 209.265,25.561 208.690,24.865 210.217 M209.600 210.916 C 210.728 211.484,211.065 212.758,210.411 213.979 C 209.992 214.763,209.627 214.800,202.275 214.800 C 193.333 214.800,192.800 214.960,192.800 217.649 C 192.800 220.891,192.563 220.812,201.914 220.709 L 210.200 220.618 202.018 220.500 C 192.986 220.371,193.216 220.444,193.206 217.714 C 193.197 215.306,193.581 215.200,202.312 215.200 C 209.132 215.200,209.941 215.128,210.538 214.469 C 211.827 213.044,211.000 210.391,209.271 210.406 C 208.812 210.410,208.916 210.571,209.600 210.916 M243.646 210.886 C 243.621 211.264,243.306 212.190,242.946 212.944 C 242.240 214.425,242.386 215.724,243.402 217.000 C 243.987 217.735,243.988 217.695,243.419 216.520 C 242.642 214.912,242.642 214.265,243.424 212.753 C 243.767 212.089,243.968 211.243,243.871 210.873 C 243.707 210.254,243.689 210.255,243.646 210.886 M366.100 210.832 C 366.577 211.110,366.800 211.736,366.800 212.800 C 366.800 213.864,366.577 214.490,366.100 214.768 C 365.715 214.992,365.589 215.181,365.820 215.188 C 366.631 215.211,367.200 214.226,367.200 212.800 C 367.200 211.374,366.631 210.389,365.820 210.412 C 365.589 210.419,365.715 210.608,366.100 210.832 M387.000 210.796 C 390.960 210.945,394.650 211.199,395.200 211.361 C 396.138 211.637,396.150 211.622,395.400 211.128 C 394.816 210.743,392.601 210.590,387.200 210.562 L 379.800 210.524 387.000 210.796 M79.472 213.019 C 79.102 213.793,78.804 214.646,78.809 214.914 C 78.814 215.181,79.177 214.608,79.616 213.640 C 80.567 211.544,80.439 210.991,79.472 213.019 M373.556 212.233 C 374.106 213.376,375.070 214.117,375.687 213.869 C 376.023 213.734,375.970 213.652,375.533 213.632 C 375.167 213.614,374.482 213.105,374.011 212.500 C 373.476 211.812,373.306 211.712,373.556 212.233 M397.762 212.600 C 398.572 213.150,399.453 213.599,399.718 213.598 C 400.252 213.596,397.212 211.632,396.644 211.612 C 396.448 211.606,396.951 212.050,397.762 212.600 M167.533 215.171 C 174.577 215.380,175.317 215.469,175.833 216.176 C 176.461 217.036,176.609 216.551,176.009 215.600 C 175.694 215.101,174.294 214.995,167.715 214.971 L 159.800 214.941 167.533 215.171 M350.004 215.316 C 349.455 215.593,348.961 216.176,348.904 216.610 C 348.817 217.273,348.863 217.256,349.188 216.500 C 349.400 216.005,349.625 215.569,349.687 215.532 C 349.749 215.494,353.130 215.350,357.200 215.210 L 364.600 214.957 357.800 214.884 C 352.995 214.833,350.708 214.960,350.004 215.316 M72.236 218.324 C 71.596 220.016,70.921 221.571,70.736 221.780 C 70.551 221.989,70.404 222.439,70.409 222.780 C 70.419 223.471,71.042 222.243,72.597 218.463 C 73.172 217.067,73.587 215.773,73.521 215.587 C 73.454 215.401,72.876 216.633,72.236 218.324 M382.080 215.498 C 383.994 215.571,387.234 215.571,389.280 215.498 C 391.326 215.426,389.760 215.366,385.800 215.365 C 381.840 215.365,380.166 215.424,382.080 215.498 M77.927 216.902 C 77.586 217.617,77.193 218.832,77.055 219.602 C 76.856 220.701,76.961 220.573,77.543 219.000 C 77.951 217.900,78.419 216.685,78.585 216.300 C 79.120 215.054,78.567 215.560,77.927 216.902 M274.300 216.032 C 273.915 216.256,273.600 216.624,273.600 216.848 C 273.600 217.073,273.896 216.961,274.258 216.600 C 274.694 216.163,275.265 216.023,275.958 216.183 C 276.741 216.365,276.851 216.324,276.400 216.018 C 275.651 215.511,275.189 215.514,274.300 216.032 M393.865 215.999 C 395.631 216.712,395.518 219.184,393.673 220.186 C 393.083 220.506,392.833 220.775,393.118 220.784 C 393.880 220.808,395.600 218.953,395.600 218.107 C 395.600 217.056,394.469 215.596,393.677 215.625 C 393.167 215.644,393.213 215.737,393.865 215.999 M128.250 218.391 C 127.347 220.647,127.487 220.983,128.437 218.842 C 128.866 217.875,129.145 217.012,129.058 216.925 C 128.971 216.838,128.608 217.498,128.250 218.391 M348.860 218.471 C 348.736 220.685,349.258 220.809,358.329 220.709 L 366.600 220.618 358.431 220.500 C 349.817 220.377,349.360 220.278,349.084 218.471 L 348.920 217.400 348.860 218.471 M21.410 219.180 C 21.075 219.829,20.815 220.684,20.834 221.080 C 20.857 221.559,20.973 221.457,21.179 220.777 C 21.350 220.214,21.701 219.359,21.959 218.877 C 22.217 218.394,22.336 218.000,22.224 218.000 C 22.112 218.000,21.746 218.531,21.410 219.180 M254.406 218.430 C 254.399 219.202,256.037 220.802,256.826 220.794 C 257.142 220.791,256.954 220.562,256.408 220.286 C 255.862 220.010,255.190 219.338,254.914 218.792 C 254.606 218.183,254.410 218.044,254.406 218.430 M277.436 220.536 C 277.011 221.999,276.388 223.076,275.568 223.765 C 274.892 224.334,274.499 224.800,274.694 224.800 C 275.868 224.800,278.989 219.255,278.238 218.504 C 278.148 218.414,277.787 219.328,277.436 220.536 M377.600 219.152 C 377.600 219.542,379.155 220.998,379.323 220.764 C 379.387 220.674,379.026 220.201,378.520 219.714 C 378.014 219.227,377.600 218.974,377.600 219.152 M249.216 219.520 C 249.085 223.856,253.494 225.621,264.200 225.519 L 272.200 225.443 263.400 225.206 C 252.844 224.922,251.606 224.483,249.838 220.400 C 249.504 219.630,249.224 219.234,249.216 219.520 M272.583 219.628 C 272.437 219.863,271.932 220.212,271.459 220.403 C 270.873 220.639,270.803 220.757,271.238 220.775 C 271.589 220.789,272.202 220.440,272.600 220.000 C 272.998 219.560,273.217 219.200,273.086 219.200 C 272.954 219.200,272.728 219.393,272.583 219.628 M210.900 221.232 C 211.285 221.456,211.625 222.126,211.654 222.720 C 211.704 223.695,211.726 223.710,211.885 222.878 C 212.072 221.903,211.408 220.792,210.651 220.812 C 210.403 220.819,210.515 221.008,210.900 221.232 M261.119 221.098 C 262.944 221.172,265.824 221.172,267.519 221.097 C 269.214 221.022,267.720 220.961,264.200 220.962 C 260.680 220.962,259.294 221.024,261.119 221.098 M294.719 221.098 C 296.544 221.172,299.424 221.172,301.119 221.097 C 302.814 221.022,301.320 220.961,297.800 220.962 C 294.280 220.962,292.894 221.024,294.719 221.098 M339.500 221.212 C 340.505 221.617,340.757 223.483,339.920 224.320 C 338.896 225.344,319.388 224.963,318.366 223.900 C 317.531 223.031,317.516 223.030,317.940 223.853 C 318.610 225.158,318.973 225.200,329.604 225.200 C 340.484 225.200,340.800 225.134,340.800 222.851 C 340.800 221.625,340.147 220.787,339.220 220.825 C 338.840 220.841,338.948 220.991,339.500 221.212 M383.318 221.098 C 385.033 221.173,387.733 221.172,389.318 221.097 C 390.903 221.021,389.500 220.959,386.200 220.960 C 382.900 220.961,381.603 221.022,383.318 221.098 M76.065 222.217 C 75.395 223.688,75.523 224.002,76.247 222.665 C 76.586 222.040,76.788 221.454,76.696 221.363 C 76.605 221.271,76.321 221.656,76.065 222.217 M284.016 221.931 C 284.007 222.223,284.526 222.988,285.169 223.631 C 285.812 224.274,286.577 224.793,286.869 224.784 C 287.161 224.775,286.909 224.501,286.308 224.176 C 285.708 223.850,284.950 223.092,284.624 222.492 C 284.299 221.891,284.025 221.639,284.016 221.931 M398.531 222.936 C 397.909 223.451,397.040 224.075,396.600 224.324 C 396.160 224.572,396.000 224.781,396.245 224.788 C 396.595 224.797,399.076 223.049,399.967 222.165 C 400.561 221.576,399.459 222.167,398.531 222.936 M153.240 223.420 C 153.180 224.648,153.974 225.200,155.800 225.200 C 157.383 225.200,158.400 224.669,158.400 223.844 C 158.400 223.625,158.168 223.764,157.885 224.151 C 157.041 225.305,153.917 224.908,153.556 223.600 C 153.325 222.763,153.273 222.734,153.240 223.420 M187.616 223.011 C 187.535 225.089,188.140 225.200,199.590 225.200 C 210.316 225.200,211.600 225.101,211.600 224.277 C 211.600 223.985,211.441 223.999,211.120 224.320 C 210.770 224.670,207.683 224.800,199.733 224.800 L 188.826 224.800 188.229 223.700 C 187.901 223.095,187.625 222.785,187.616 223.011 M70.046 224.067 C 70.021 224.434,69.896 225.064,69.770 225.467 C 69.552 226.162,69.563 226.163,69.997 225.487 C 70.248 225.096,70.373 224.466,70.273 224.087 C 70.111 223.468,70.088 223.466,70.046 224.067 M75.026 225.038 C 74.464 227.277,73.660 227.208,99.349 227.103 L 123.000 227.007 99.637 226.900 C 74.995 226.788,74.987 226.787,75.447 224.954 C 75.579 224.429,75.597 224.000,75.487 224.000 C 75.377 224.000,75.169 224.467,75.026 225.038 M126.032 224.464 C 126.014 224.830,125.446 225.595,124.769 226.164 C 124.002 226.810,123.766 227.200,124.142 227.200 C 124.898 227.200,126.532 224.960,126.263 224.294 C 126.141 223.992,126.051 224.058,126.032 224.464 M288.472 225.260 C 288.983 225.403,293.000 225.508,297.400 225.493 C 306.857 225.461,305.678 225.267,295.072 225.111 C 290.932 225.050,287.962 225.117,288.472 225.260 M377.916 225.272 C 378.786 225.618,393.490 225.607,394.726 225.260 C 395.235 225.117,391.507 225.000,386.442 225.000 C 381.377 225.000,377.540 225.122,377.916 225.272 M68.557 226.403 C 68.314 226.646,59.087 226.834,44.183 226.900 L 20.200 227.006 44.200 227.097 C 66.025 227.180,69.975 227.042,69.162 226.228 C 69.043 226.110,68.771 226.189,68.557 226.403 M30.100 231.500 C 36.425 231.562,46.775 231.562,53.100 231.500 C 59.425 231.438,54.250 231.387,41.600 231.387 C 28.950 231.387,23.775 231.438,30.100 231.500 M73.462 231.500 C 73.293 231.772,94.447 231.769,122.600 231.493 C 128.540 231.434,119.956 231.345,103.524 231.293 C 87.092 231.242,73.564 231.335,73.462 231.500 M134.905 231.487 C 135.514 231.579,136.414 231.577,136.905 231.482 C 137.397 231.387,136.900 231.311,135.800 231.314 C 134.700 231.317,134.297 231.395,134.905 231.487 M203.100 231.500 C 238.795 231.556,297.205 231.556,332.900 231.500 C 368.595 231.444,339.390 231.398,268.000 231.398 C 196.610 231.398,167.405 231.444,203.100 231.500 M16.956 231.906 C 16.390 232.281,15.195 234.597,15.216 235.280 C 15.224 235.566,15.502 235.175,15.833 234.412 C 16.165 233.648,16.725 232.703,17.080 232.312 C 17.755 231.566,17.707 231.409,16.956 231.906 M66.065 233.817 C 65.809 234.378,65.607 235.054,65.616 235.319 C 65.624 235.583,65.897 235.188,66.222 234.439 C 66.905 232.865,66.761 232.290,66.065 233.817 M267.200 234.800 L 135.800 235.002 267.000 235.061 C 339.160 235.094,398.650 234.976,399.200 234.800 C 399.909 234.573,399.967 234.497,399.400 234.539 C 398.960 234.572,339.470 234.689,267.200 234.800 M122.335 235.300 C 121.548 235.937,120.400 237.653,120.401 238.189 C 120.402 238.415,120.783 237.970,121.248 237.200 C 121.712 236.430,122.176 235.710,122.278 235.600 C 122.380 235.490,125.104 235.301,128.332 235.179 L 134.200 234.958 128.576 234.879 C 124.571 234.823,122.775 234.944,122.335 235.300 M19.627 235.575 C 19.095 235.911,17.995 238.606,14.634 247.800 C 13.910 249.780,12.765 252.840,12.089 254.600 C 9.620 261.033,8.698 263.473,7.405 267.000 C 6.680 268.980,5.958 270.914,5.801 271.297 C 5.299 272.527,6.661 272.603,27.387 272.493 L 47.624 272.386 47.996 271.493 C 49.735 267.318,52.133 261.141,52.459 260.000 C 52.867 258.566,55.132 252.549,57.276 247.200 C 57.937 245.550,58.651 243.570,58.862 242.800 C 59.073 242.030,59.709 240.285,60.274 238.921 C 61.953 234.873,63.687 235.199,40.513 235.206 C 29.063 235.210,19.950 235.371,19.627 235.575 M75.099 235.900 C 74.755 236.285,74.116 237.680,73.677 239.000 C 73.239 240.320,72.322 242.695,71.640 244.278 C 70.958 245.861,70.400 247.431,70.400 247.767 C 70.400 248.104,70.019 249.238,69.553 250.289 C 69.087 251.340,68.467 252.740,68.175 253.400 C 67.884 254.060,67.105 256.130,66.446 258.000 C 65.786 259.870,64.500 263.380,63.588 265.800 C 62.676 268.220,61.835 270.695,61.719 271.300 L 61.509 272.400 82.531 272.400 C 98.909 272.400,103.624 272.290,103.876 271.900 C 104.295 271.253,106.521 265.540,108.045 261.200 C 108.702 259.330,109.871 256.180,110.643 254.200 C 111.415 252.220,112.408 249.610,112.851 248.400 C 113.294 247.190,113.892 245.654,114.180 244.987 C 115.452 242.044,117.240 236.282,117.042 235.766 C 116.673 234.804,75.961 234.934,75.099 235.900 M14.246 237.846 C 13.892 238.885,13.672 239.805,13.756 239.890 C 13.841 239.974,14.200 239.193,14.554 238.154 C 14.908 237.115,15.128 236.195,15.044 236.110 C 14.959 236.026,14.600 236.807,14.246 237.846 M65.199 236.033 C 65.198 236.125,64.658 237.524,63.999 239.141 C 63.339 240.759,62.808 242.289,62.817 242.541 C 62.826 242.794,63.448 241.477,64.198 239.615 C 64.948 237.753,65.481 236.148,65.381 236.048 C 65.282 235.948,65.199 235.942,65.199 236.033 M69.989 237.221 C 69.747 237.672,69.606 238.314,69.675 238.646 C 69.744 238.979,69.998 238.609,70.240 237.825 C 70.735 236.223,70.642 236.000,69.989 237.221 M119.665 240.217 C 118.995 241.688,119.123 242.002,119.847 240.665 C 120.186 240.040,120.388 239.454,120.296 239.363 C 120.205 239.271,119.921 239.656,119.665 240.217 M68.672 241.019 C 68.302 241.793,68.004 242.646,68.009 242.914 C 68.014 243.181,68.377 242.608,68.816 241.640 C 69.767 239.544,69.639 238.991,68.672 241.019 M136.456 241.259 C 135.717 241.472,135.187 241.720,135.279 241.812 C 135.481 242.014,138.400 241.237,138.400 240.981 C 138.400 240.746,138.082 240.791,136.456 241.259 M140.000 241.057 C 143.065 241.325,153.533 241.383,152.888 241.128 C 152.510 240.979,149.140 240.874,145.400 240.895 C 141.660 240.917,139.230 240.990,140.000 241.057 M242.515 241.096 C 243.788 241.176,245.768 241.175,246.915 241.094 C 248.062 241.014,247.020 240.949,244.600 240.950 C 242.180 240.951,241.242 241.016,242.515 241.096 M250.000 241.157 C 250.550 241.339,251.900 241.704,253.000 241.968 C 255.182 242.491,256.871 243.839,257.625 245.660 C 257.890 246.301,258.186 246.747,258.282 246.652 C 259.167 245.766,256.018 242.432,253.600 241.694 C 251.858 241.163,248.508 240.663,250.000 241.157 M275.100 241.095 C 276.255 241.176,278.145 241.176,279.300 241.095 C 280.455 241.014,279.510 240.948,277.200 240.948 C 274.890 240.948,273.945 241.014,275.100 241.095 M313.297 241.419 C 310.843 242.080,309.346 242.975,308.722 244.157 C 308.406 244.753,308.649 244.637,309.554 243.758 C 311.370 241.995,313.425 241.480,319.800 241.193 L 325.400 240.940 320.400 240.896 C 317.212 240.869,314.638 241.058,313.297 241.419 M164.662 241.931 C 164.258 242.378,164.019 243.273,164.050 244.231 L 164.100 245.800 164.381 244.066 C 164.797 241.505,167.244 240.586,168.577 242.489 C 168.920 242.978,169.194 243.203,169.187 242.989 C 169.131 241.277,165.931 240.529,164.662 241.931 M187.600 242.000 C 186.939 242.661,186.813 243.269,186.877 245.500 L 186.954 248.200 187.099 245.608 C 187.311 241.795,190.024 239.986,191.777 242.489 C 192.739 243.862,192.704 263.801,191.738 264.869 C 191.365 265.281,191.271 265.600,191.524 265.600 C 192.606 265.600,192.800 263.754,192.800 253.426 C 192.800 241.432,192.743 241.200,189.800 241.200 C 188.933 241.200,188.095 241.505,187.600 242.000 M212.200 241.564 C 214.320 241.914,214.581 242.107,216.209 244.524 C 216.974 245.660,217.600 246.440,217.600 246.256 C 217.600 245.811,216.113 243.663,214.861 242.300 C 214.054 241.421,213.523 241.210,212.225 241.250 L 210.600 241.300 212.200 241.564 M234.840 242.016 C 233.873 242.455,233.193 242.927,233.331 243.064 C 233.468 243.202,233.865 243.078,234.213 242.789 C 234.560 242.501,235.690 242.038,236.722 241.759 C 237.926 241.436,238.241 241.247,237.600 241.236 C 237.050 241.226,235.808 241.577,234.840 242.016 M268.200 241.786 C 266.659 242.491,266.926 242.496,269.400 241.809 C 270.611 241.473,271.006 241.250,270.400 241.245 C 269.850 241.240,268.860 241.483,268.200 241.786 M283.233 241.347 C 283.325 241.428,284.120 241.604,285.000 241.738 C 286.115 241.907,286.358 241.871,285.800 241.619 C 285.032 241.271,282.890 241.044,283.233 241.347 M297.637 242.161 C 297.053 242.782,296.797 243.453,296.913 244.061 C 297.084 244.962,297.093 244.958,297.146 243.962 C 297.210 242.742,298.198 241.746,299.600 241.491 L 300.600 241.309 299.570 241.254 C 298.947 241.222,298.183 241.580,297.637 242.161 M329.195 241.842 C 332.109 242.625,332.926 243.216,333.945 245.273 C 334.415 246.223,334.800 246.712,334.800 246.360 C 334.801 244.184,330.663 241.136,327.829 241.226 C 327.373 241.241,327.988 241.518,329.195 241.842 M155.020 242.163 C 155.691 242.455,156.726 243.272,157.320 243.978 C 157.914 244.684,158.400 245.089,158.400 244.877 C 158.400 244.236,155.246 241.599,154.499 241.616 C 154.077 241.625,154.283 241.842,155.020 242.163 M208.801 242.598 C 208.286 243.148,207.939 243.648,208.032 243.711 C 208.124 243.774,208.684 243.324,209.274 242.712 C 209.865 242.101,210.212 241.600,210.044 241.600 C 209.877 241.600,209.317 242.049,208.801 242.598 M301.100 241.999 C 301.474 242.419,301.600 245.334,301.600 253.600 C 301.600 261.866,301.474 264.781,301.100 265.201 C 300.675 265.678,300.704 265.682,301.300 265.232 C 301.937 264.750,302.000 263.705,302.000 253.600 C 302.000 243.495,301.937 242.450,301.300 241.968 C 300.704 241.518,300.675 241.522,301.100 241.999 M287.800 242.744 C 289.116 243.557,290.174 244.669,290.516 245.600 C 290.700 246.100,290.742 246.091,290.768 245.547 C 290.804 244.820,287.883 241.999,287.099 242.001 C 286.824 242.002,287.140 242.337,287.800 242.744 M265.276 243.647 C 264.564 244.344,264.020 245.271,264.046 245.747 C 264.090 246.555,264.103 246.558,264.284 245.800 C 264.390 245.360,265.034 244.415,265.717 243.700 C 267.300 242.040,266.961 242.000,265.276 243.647 M11.988 243.622 C 11.746 244.074,11.607 244.622,11.680 244.839 C 11.752 245.057,12.018 244.687,12.271 244.017 C 12.797 242.625,12.639 242.405,11.988 243.622 M62.283 243.884 C 62.164 244.278,61.677 245.590,61.202 246.800 C 60.728 248.010,60.497 248.820,60.690 248.600 C 61.232 247.981,62.918 243.584,62.697 243.364 C 62.590 243.256,62.403 243.490,62.283 243.884 M67.265 244.617 C 66.595 246.088,66.723 246.402,67.447 245.065 C 67.786 244.440,67.988 243.854,67.896 243.763 C 67.805 243.671,67.521 244.056,67.265 244.617 M231.879 244.774 C 229.780 248.327,232.097 255.264,235.354 255.177 C 235.943 255.162,235.779 255.010,234.814 254.677 C 231.914 253.679,230.321 247.604,232.241 244.863 C 232.593 244.360,232.809 243.875,232.720 243.786 C 232.631 243.697,232.252 244.142,231.879 244.774 M296.970 253.800 C 296.971 258.640,297.029 260.565,297.099 258.078 C 297.169 255.591,297.169 251.631,297.098 249.278 C 297.028 246.925,296.970 248.960,296.970 253.800 M10.885 246.413 C 10.618 246.840,10.401 247.417,10.402 247.695 C 10.404 247.973,10.677 247.678,11.010 247.040 C 11.703 245.711,11.611 245.250,10.885 246.413 M141.720 245.898 C 143.655 245.972,146.715 245.971,148.520 245.897 C 150.324 245.823,148.740 245.763,145.000 245.764 C 141.260 245.764,139.784 245.825,141.720 245.898 M158.472 247.420 C 158.351 250.826,154.400 251.966,154.400 248.595 C 154.400 247.734,153.066 246.000,152.403 246.000 C 152.201 246.000,152.478 246.442,153.018 246.982 C 153.558 247.522,154.000 248.304,154.000 248.720 C 154.000 250.618,157.527 251.631,158.407 249.986 C 158.647 249.539,158.776 248.324,158.693 247.286 L 158.544 245.400 158.472 247.420 M242.118 245.898 C 243.833 245.973,246.533 245.972,248.118 245.897 C 249.703 245.821,248.300 245.759,245.000 245.760 C 241.700 245.761,240.403 245.822,242.118 245.898 M274.518 245.898 C 276.233 245.973,278.933 245.972,280.518 245.897 C 282.103 245.821,280.700 245.759,277.400 245.760 C 274.100 245.761,272.803 245.822,274.518 245.898 M318.518 245.898 C 320.233 245.973,322.933 245.972,324.518 245.897 C 326.103 245.821,324.700 245.759,321.400 245.760 C 318.100 245.761,316.803 245.822,318.518 245.898 M136.400 246.800 C 135.960 247.240,135.612 247.825,135.627 248.100 C 135.642 248.375,135.841 248.214,136.069 247.742 C 136.298 247.271,136.871 246.698,137.342 246.469 C 137.814 246.241,137.975 246.042,137.700 246.027 C 137.425 246.012,136.840 246.360,136.400 246.800 M237.295 246.266 C 237.018 246.378,236.603 246.859,236.373 247.335 C 236.017 248.073,236.033 248.107,236.478 247.571 C 236.765 247.225,237.360 246.735,237.800 246.483 C 238.597 246.026,238.256 245.880,237.295 246.266 M269.270 246.926 C 267.896 248.389,268.674 251.200,270.454 251.200 C 270.704 251.200,270.434 250.827,269.854 250.371 C 268.538 249.336,268.514 248.249,269.782 246.982 C 270.322 246.442,270.623 246.000,270.452 246.000 C 270.280 246.000,269.748 246.417,269.270 246.926 M284.448 246.403 C 284.804 246.611,285.311 247.301,285.574 247.937 C 286.508 250.192,289.583 250.711,290.687 248.800 C 291.262 247.803,291.262 247.803,290.583 248.700 C 289.330 250.356,287.044 249.758,285.659 247.410 C 285.201 246.635,284.596 246.005,284.313 246.012 C 283.984 246.020,284.032 246.160,284.448 246.403 M313.200 246.800 C 312.760 247.240,312.405 247.825,312.412 248.100 C 312.419 248.384,312.597 248.304,312.824 247.914 C 313.044 247.537,313.618 246.952,314.101 246.614 C 314.583 246.276,314.758 246.000,314.489 246.000 C 314.220 246.000,313.640 246.360,313.200 246.800 M328.123 246.341 C 328.520 246.498,329.245 247.340,329.733 248.213 C 330.945 250.381,334.844 250.719,334.788 248.651 C 334.781 248.403,334.592 248.515,334.368 248.900 C 334.106 249.350,333.473 249.600,332.596 249.600 C 331.137 249.600,330.786 249.332,329.582 247.300 C 329.156 246.581,328.496 246.013,328.106 246.028 C 327.445 246.054,327.446 246.074,328.123 246.341 M116.793 247.872 C 115.893 250.207,115.895 250.329,116.807 248.672 C 117.270 247.831,117.588 246.964,117.515 246.744 C 117.441 246.524,117.116 247.031,116.793 247.872 M263.628 248.633 C 263.644 249.715,263.804 250.960,263.985 251.400 C 264.178 251.870,264.226 251.127,264.102 249.600 C 263.848 246.455,263.589 245.929,263.628 248.633 M253.356 248.252 C 254.306 250.186,256.856 250.685,258.200 249.200 C 258.598 248.760,258.735 248.400,258.505 248.400 C 258.274 248.400,257.982 248.670,257.855 249.000 C 257.408 250.165,254.976 249.745,253.799 248.300 L 252.741 247.000 253.356 248.252 M307.638 248.800 C 307.624 249.790,307.770 250.849,307.963 251.154 C 308.179 251.495,308.241 250.958,308.124 249.754 C 307.860 247.045,307.668 246.667,307.638 248.800 M220.433 251.600 C 221.803 253.910,223.362 256.565,223.896 257.500 C 224.896 259.248,225.604 259.911,224.752 258.300 C 223.522 255.978,219.009 248.534,218.506 248.000 C 218.195 247.670,219.062 249.290,220.433 251.600 M65.915 248.610 C 65.792 249.045,65.569 249.760,65.420 250.200 C 65.271 250.640,65.442 250.494,65.800 249.876 C 66.158 249.258,66.381 248.542,66.295 248.286 C 66.210 248.030,66.039 248.176,65.915 248.610 M210.756 248.900 C 210.298 249.773,210.307 249.779,211.073 249.100 C 212.117 248.175,212.627 248.217,213.377 249.289 C 213.720 249.778,214.000 249.986,214.000 249.751 C 214.000 248.212,211.466 247.547,210.756 248.900 M10.046 248.867 C 10.021 249.234,9.896 249.864,9.770 250.267 C 9.552 250.962,9.563 250.963,9.997 250.287 C 10.248 249.896,10.373 249.266,10.273 248.887 C 10.111 248.268,10.088 248.266,10.046 248.867 M236.040 249.038 C 235.996 249.963,237.142 251.203,238.031 251.194 C 238.344 251.191,238.158 250.964,237.617 250.691 C 237.077 250.417,236.510 249.745,236.357 249.197 C 236.117 248.333,236.074 248.311,236.040 249.038 M135.354 253.600 C 135.354 256.350,135.418 257.475,135.496 256.100 C 135.574 254.725,135.574 252.475,135.496 251.100 C 135.418 249.725,135.354 250.850,135.354 253.600 M204.268 250.100 C 200.596 256.100,197.528 261.408,197.999 260.949 C 198.766 260.202,205.310 249.200,204.988 249.200 C 204.895 249.200,204.571 249.605,204.268 250.100 M312.400 249.449 C 312.400 250.129,313.902 251.303,314.477 251.073 C 314.826 250.933,314.775 250.853,314.323 250.832 C 313.950 250.814,313.365 250.400,313.023 249.911 C 312.680 249.422,312.400 249.214,312.400 249.449 M169.328 250.195 C 169.375 250.662,169.738 251.025,170.205 251.072 C 170.781 251.132,170.814 251.099,170.325 250.952 C 169.953 250.842,169.558 250.447,169.448 250.075 C 169.301 249.586,169.268 249.619,169.328 250.195 M186.481 250.418 C 186.172 250.913,186.146 251.200,186.409 251.200 C 186.638 251.200,186.932 250.922,187.062 250.583 C 187.422 249.645,187.033 249.534,186.481 250.418 M209.494 251.303 L 208.788 252.600 209.594 251.656 C 210.280 250.852,210.646 249.994,210.300 250.003 C 210.245 250.004,209.882 250.589,209.494 251.303 M115.532 251.200 C 115.406 251.750,115.178 252.560,115.026 253.000 C 114.874 253.440,115.042 253.295,115.399 252.677 C 115.757 252.059,115.985 251.249,115.905 250.877 C 115.802 250.394,115.695 250.487,115.532 251.200 M130.142 253.800 C 130.141 255.780,130.208 256.640,130.292 255.712 C 130.376 254.784,130.377 253.164,130.295 252.112 C 130.212 251.060,130.143 251.820,130.142 253.800 M214.000 250.689 C 214.000 250.921,214.371 251.536,214.824 252.056 L 215.647 253.000 214.945 251.800 C 214.020 250.221,214.000 250.197,214.000 250.689 M64.450 252.250 C 64.186 252.829,64.062 253.395,64.174 253.507 C 64.286 253.619,64.568 253.211,64.800 252.600 C 65.349 251.157,65.073 250.882,64.450 252.250 M242.500 251.498 C 244.425 251.571,247.575 251.571,249.500 251.498 C 251.425 251.425,249.850 251.365,246.000 251.365 C 242.150 251.365,240.575 251.425,242.500 251.498 M253.776 251.810 C 254.204 252.134,254.782 252.400,255.063 252.400 C 255.343 252.400,256.253 252.977,257.086 253.682 L 258.600 254.964 257.473 253.732 C 256.853 253.055,255.593 252.212,254.673 251.860 C 253.304 251.336,253.141 251.327,253.776 251.810 M279.200 251.579 C 287.604 251.830,289.511 252.389,290.613 254.923 C 290.919 255.625,291.176 255.925,291.184 255.589 C 291.263 252.534,287.400 251.191,278.800 251.283 L 271.800 251.358 279.200 251.579 M322.800 251.580 C 332.084 251.842,333.765 252.442,334.789 255.857 C 335.069 256.793,335.137 256.842,335.166 256.131 C 335.304 252.642,331.504 251.201,322.400 251.289 L 315.000 251.360 322.800 251.580 M59.070 252.610 C 58.921 253.045,58.691 253.670,58.558 254.000 C 58.426 254.330,58.619 254.190,58.988 253.690 C 59.358 253.189,59.588 252.564,59.500 252.300 C 59.410 252.031,59.222 252.167,59.070 252.610 M265.578 253.700 C 266.380 254.573,267.301 255.181,267.778 255.154 C 268.582 255.108,268.582 255.103,267.800 254.916 C 267.360 254.810,266.370 254.156,265.600 253.462 L 264.200 252.200 265.578 253.700 M308.400 252.819 C 308.400 253.470,311.165 255.265,311.881 255.079 C 312.471 254.926,312.446 254.884,311.742 254.846 C 311.271 254.821,310.326 254.278,309.642 253.640 C 308.959 253.001,308.400 252.632,308.400 252.819 M7.900 254.511 C 6.938 256.844,7.032 257.410,8.020 255.232 C 8.461 254.260,8.772 253.318,8.711 253.139 C 8.650 252.960,8.285 253.578,7.900 254.511 M207.821 253.824 C 206.257 256.211,206.870 256.600,212.200 256.600 C 217.544 256.600,218.205 256.186,216.352 254.000 L 215.505 253.000 216.183 254.132 C 217.377 256.128,216.899 256.400,212.200 256.400 C 207.460 256.400,206.914 256.069,208.163 253.955 C 209.007 252.526,208.739 252.423,207.821 253.824 M57.593 256.272 C 56.693 258.607,56.695 258.729,57.607 257.072 C 58.070 256.231,58.388 255.364,58.315 255.144 C 58.241 254.924,57.916 255.431,57.593 256.272 M63.246 255.667 C 63.221 256.034,63.096 256.664,62.970 257.067 C 62.752 257.762,62.763 257.763,63.197 257.087 C 63.448 256.696,63.573 256.066,63.473 255.687 C 63.311 255.068,63.288 255.066,63.246 255.667 M113.467 256.867 C 113.105 257.788,112.874 258.607,112.954 258.688 C 113.034 258.768,113.400 258.083,113.767 257.167 C 114.133 256.250,114.364 255.431,114.279 255.346 C 114.194 255.261,113.829 255.945,113.467 256.867 M169.549 255.900 C 169.072 256.509,169.078 256.540,169.600 256.143 C 169.930 255.892,170.560 255.598,171.000 255.489 C 171.760 255.303,171.757 255.290,170.949 255.246 C 170.481 255.221,169.851 255.515,169.549 255.900 M175.500 255.496 C 176.875 255.574,179.125 255.574,180.500 255.496 C 181.875 255.418,180.750 255.354,178.000 255.354 C 175.250 255.354,174.125 255.418,175.500 255.496 M185.900 255.612 C 186.395 255.811,186.814 256.295,186.832 256.687 C 186.851 257.128,186.942 257.204,187.069 256.887 C 187.341 256.210,186.474 255.193,185.651 255.225 C 185.210 255.243,185.291 255.368,185.900 255.612 M237.273 255.659 C 237.783 255.803,240.990 255.946,244.400 255.978 C 248.560 256.016,251.127 256.220,252.200 256.597 C 253.575 257.079,253.694 257.079,253.046 256.595 C 252.631 256.286,251.551 255.939,250.646 255.824 C 248.151 255.508,236.212 255.361,237.273 255.659 M269.466 255.600 C 269.576 255.710,273.053 255.890,277.191 256.000 C 286.494 256.247,288.760 257.543,285.169 260.564 C 284.492 261.134,284.141 261.600,284.388 261.600 C 286.231 261.600,287.355 258.148,285.941 256.831 C 284.868 255.831,268.473 254.606,269.466 255.600 M314.032 255.653 C 315.810 256.012,329.153 256.284,327.703 255.932 C 327.097 255.785,323.464 255.600,319.632 255.521 C 315.799 255.442,313.279 255.502,314.032 255.653 M157.911 256.623 C 158.592 257.100,158.816 257.685,158.870 259.123 L 158.940 261.000 159.095 259.259 C 159.249 257.524,158.480 256.000,157.449 256.000 C 157.214 256.000,157.422 256.280,157.911 256.623 M258.928 258.400 C 258.928 259.830,259.001 260.415,259.089 259.700 C 259.178 258.985,259.178 257.815,259.089 257.100 C 259.001 256.385,258.928 256.970,258.928 258.400 M329.500 256.799 C 330.320 257.719,330.089 259.547,329.018 260.618 C 328.478 261.158,328.195 261.600,328.389 261.600 C 329.904 261.600,330.957 257.719,329.700 256.768 C 329.104 256.318,329.075 256.322,329.500 256.799 M231.824 257.162 C 231.697 257.367,232.270 257.434,233.142 257.317 C 234.402 257.148,234.851 257.283,235.592 258.055 C 236.424 258.922,236.462 258.929,236.060 258.147 C 235.413 256.887,232.423 256.192,231.824 257.162 M264.500 257.065 C 264.225 257.176,264.000 257.454,264.000 257.682 C 264.000 257.934,264.235 257.903,264.596 257.603 C 264.924 257.331,265.725 257.186,266.375 257.282 C 267.026 257.377,267.467 257.308,267.355 257.128 C 267.137 256.775,265.318 256.735,264.500 257.065 M310.200 257.147 C 311.115 257.340,311.600 257.816,312.242 259.155 C 313.521 261.820,314.060 261.981,321.400 261.905 L 327.800 261.838 321.140 261.619 C 313.815 261.378,313.115 261.143,312.590 258.755 C 312.308 257.470,311.338 256.775,309.926 256.847 C 309.178 256.886,309.231 256.943,310.200 257.147 M5.786 260.317 C 4.277 264.251,4.257 264.316,4.765 263.600 C 5.351 262.773,7.325 257.591,7.128 257.394 C 7.040 257.307,6.436 258.622,5.786 260.317 M154.400 258.111 C 154.400 258.685,153.966 259.660,153.436 260.278 L 152.471 261.400 145.336 261.618 L 138.200 261.836 145.000 261.917 C 152.919 262.010,154.131 261.643,154.626 259.000 C 154.775 258.210,154.784 257.451,154.648 257.315 C 154.512 257.178,154.400 257.537,154.400 258.111 M308.080 257.680 C 307.816 257.944,307.629 258.799,307.664 259.580 L 307.728 261.000 307.897 259.602 C 307.989 258.832,308.253 257.977,308.482 257.702 C 309.012 257.062,308.714 257.046,308.080 257.680 M253.660 258.671 C 253.620 259.521,253.251 260.216,252.546 260.771 C 251.966 261.227,251.665 261.600,251.876 261.600 C 252.787 261.600,254.059 259.668,253.891 258.542 C 253.720 257.403,253.720 257.404,253.660 258.671 M268.199 258.450 C 269.165 261.675,270.113 262.020,277.726 261.919 L 283.800 261.839 277.400 261.619 C 270.393 261.379,269.417 261.099,269.002 259.208 C 268.857 258.549,268.553 257.895,268.326 257.754 C 268.060 257.590,268.015 257.837,268.199 258.450 M186.947 261.517 C 186.992 263.971,187.163 264.932,187.604 265.211 C 188.551 265.810,189.035 265.660,188.176 265.033 C 187.570 264.590,187.344 263.781,187.143 261.333 L 186.886 258.200 186.947 261.517 M263.693 259.600 C 263.693 260.370,263.775 260.685,263.876 260.300 C 263.976 259.915,263.976 259.285,263.876 258.900 C 263.775 258.515,263.693 258.830,263.693 259.600 M291.051 260.301 C 290.910 261.361,290.512 262.672,290.166 263.214 L 289.536 264.200 290.346 263.283 C 291.100 262.429,291.939 259.006,291.501 258.568 C 291.394 258.461,291.192 259.241,291.051 260.301 M55.949 260.713 C 54.787 264.085,54.774 264.230,55.823 262.096 C 56.392 260.938,56.799 259.729,56.728 259.408 C 56.658 259.088,56.307 259.675,55.949 260.713 M135.625 259.230 C 135.599 259.887,137.182 261.600,137.815 261.600 C 138.015 261.600,137.765 261.311,137.260 260.957 C 136.756 260.604,136.187 259.929,135.997 259.457 C 135.766 258.885,135.642 258.809,135.625 259.230 M112.332 260.000 C 112.206 260.550,111.978 261.360,111.826 261.800 C 111.674 262.240,111.842 262.095,112.199 261.477 C 112.557 260.859,112.785 260.049,112.705 259.677 C 112.602 259.194,112.495 259.287,112.332 260.000 M236.188 259.733 C 236.304 260.136,236.400 260.536,236.400 260.622 C 236.400 261.575,239.204 261.994,245.080 261.919 L 251.400 261.838 244.800 261.613 C 237.773 261.373,237.162 261.246,236.438 259.877 C 236.139 259.310,236.050 259.259,236.188 259.733 M231.244 260.800 C 231.179 262.489,233.868 265.592,235.400 265.596 C 235.620 265.596,235.260 265.263,234.600 264.856 C 232.892 263.801,231.953 262.633,231.594 261.116 C 231.331 260.007,231.276 259.957,231.244 260.800 M334.800 261.186 C 334.800 261.618,334.237 262.653,333.549 263.486 L 332.298 265.000 333.749 263.506 C 334.966 262.253,335.712 260.400,335.000 260.400 C 334.890 260.400,334.800 260.754,334.800 261.186 M164.053 262.526 C 163.994 264.214,164.565 265.603,165.314 265.594 C 165.630 265.590,165.598 265.460,165.221 265.222 C 164.903 265.020,164.522 263.988,164.375 262.928 C 164.118 261.083,164.105 261.066,164.053 262.526 M203.170 262.300 L 202.200 263.400 203.200 262.551 C 203.750 262.084,204.470 261.603,204.800 261.482 C 205.314 261.295,205.309 261.259,204.770 261.232 C 204.423 261.214,203.703 261.695,203.170 262.300 M219.458 261.597 C 219.930 261.787,220.829 262.631,221.456 263.472 C 222.621 265.035,223.193 265.583,223.669 265.594 C 223.817 265.597,223.457 265.086,222.869 264.458 C 222.281 263.830,221.409 262.840,220.930 262.258 C 220.452 261.676,219.732 261.211,219.330 261.225 C 218.711 261.247,218.730 261.303,219.458 261.597 M257.800 262.531 C 257.360 263.213,256.388 264.182,255.641 264.685 C 254.893 265.188,254.482 265.600,254.727 265.600 C 255.316 265.600,257.919 263.299,258.448 262.311 C 259.131 261.035,258.663 261.193,257.800 262.531 M264.016 261.747 C 263.995 262.725,266.892 265.609,267.853 265.568 C 268.419 265.544,268.455 265.482,268.000 265.311 C 266.634 264.798,265.078 263.405,264.572 262.241 C 264.209 261.408,264.026 261.246,264.016 261.747 M308.035 261.600 C 308.019 263.105,310.485 265.591,312.000 265.597 C 312.330 265.598,311.850 265.228,310.933 264.774 C 309.752 264.189,309.086 263.518,308.653 262.474 C 308.317 261.663,308.038 261.270,308.035 261.600 M131.117 262.200 C 131.345 262.640,132.132 263.540,132.866 264.199 L 134.200 265.398 132.801 263.799 C 132.032 262.920,131.245 262.020,131.052 261.800 C 130.860 261.580,130.889 261.760,131.117 262.200 M227.287 263.183 C 228.195 264.761,228.196 264.769,227.399 265.405 C 226.619 266.029,226.622 266.034,227.500 265.608 C 228.613 265.069,228.623 264.656,227.567 262.947 C 226.405 261.066,226.179 261.257,227.287 263.183 M196.414 263.174 C 195.903 264.128,195.881 265.079,196.363 265.377 C 196.562 265.500,196.636 265.259,196.527 264.841 C 196.417 264.424,196.531 263.703,196.778 263.241 C 197.026 262.778,197.138 262.400,197.028 262.400 C 196.918 262.400,196.642 262.748,196.414 263.174 M157.725 263.549 C 157.480 263.941,156.677 264.559,155.940 264.922 C 155.153 265.309,154.886 265.586,155.294 265.591 C 156.052 265.601,158.732 263.399,158.385 263.051 C 158.266 262.933,157.969 263.157,157.725 263.549 M296.859 263.400 C 296.824 264.236,297.659 265.600,298.206 265.600 C 298.381 265.600,298.245 265.285,297.903 264.900 C 297.562 264.515,297.195 263.840,297.088 263.400 L 296.893 262.600 296.859 263.400 M59.915 264.210 C 59.792 264.645,59.569 265.360,59.420 265.800 C 59.271 266.240,59.442 266.094,59.800 265.476 C 60.158 264.858,60.381 264.142,60.295 263.886 C 60.210 263.630,60.039 263.776,59.915 264.210 M201.314 264.680 C 200.827 265.186,200.574 265.600,200.752 265.600 C 201.142 265.600,202.598 264.045,202.364 263.877 C 202.274 263.813,201.801 264.174,201.314 264.680 M287.800 264.827 C 287.140 265.250,286.805 265.597,287.056 265.598 C 287.306 265.599,287.936 265.246,288.456 264.813 C 289.645 263.823,289.359 263.829,287.800 264.827 M3.486 266.486 C 3.121 267.625,2.890 268.623,2.971 268.704 C 3.052 268.785,3.425 267.929,3.800 266.800 C 4.175 265.671,4.406 264.673,4.315 264.581 C 4.223 264.490,3.850 265.347,3.486 266.486 M53.850 265.991 C 53.493 266.885,53.208 267.838,53.219 268.108 C 53.229 268.379,53.585 267.711,54.009 266.624 C 54.433 265.537,54.718 264.584,54.640 264.507 C 54.563 264.430,54.208 265.098,53.850 265.991 M110.091 265.887 C 109.330 267.923,109.155 268.579,109.453 268.280 C 109.818 267.915,110.812 265.078,110.636 264.902 C 110.565 264.832,110.320 265.275,110.091 265.887 M140.300 265.899 C 142.775 265.969,146.825 265.969,149.300 265.899 C 151.775 265.828,149.750 265.771,144.800 265.771 C 139.850 265.771,137.825 265.828,140.300 265.899 M197.905 265.883 C 198.402 265.979,199.122 265.975,199.505 265.875 C 199.887 265.775,199.480 265.696,198.600 265.701 C 197.720 265.705,197.407 265.787,197.905 265.883 M240.478 265.898 C 242.831 265.969,246.791 265.969,249.278 265.899 C 251.765 265.829,249.840 265.771,245.000 265.770 C 240.160 265.770,238.125 265.828,240.478 265.898 M273.722 265.899 C 276.099 265.970,279.879 265.969,282.122 265.898 C 284.365 265.827,282.420 265.769,277.800 265.769 C 273.180 265.770,271.345 265.828,273.722 265.899 M316.878 265.898 C 319.231 265.969,323.191 265.969,325.678 265.899 C 328.165 265.829,326.240 265.771,321.400 265.770 C 316.560 265.770,314.525 265.828,316.878 265.898 M57.218 271.418 C 56.518 273.101,56.012 274.546,56.095 274.628 C 56.178 274.711,56.814 273.397,57.509 271.709 C 58.204 270.021,58.710 268.576,58.632 268.499 C 58.555 268.422,57.919 269.735,57.218 271.418 M52.446 270.039 C 52.201 270.743,52.013 271.518,52.028 271.760 C 52.044 272.002,52.314 271.496,52.630 270.635 C 52.945 269.774,53.133 269.000,53.048 268.915 C 52.962 268.829,52.692 269.335,52.446 270.039 M1.849 270.942 C 1.436 271.854,0.850 273.124,0.547 273.765 C 0.244 274.406,0.085 275.018,0.193 275.126 C 0.301 275.234,0.671 274.620,1.015 273.761 C 1.359 272.903,1.939 271.622,2.303 270.916 C 2.667 270.209,2.883 269.553,2.782 269.458 C 2.682 269.362,2.262 270.030,1.849 270.942 M107.265 273.417 C 106.595 274.888,106.723 275.202,107.447 273.865 C 107.786 273.240,107.988 272.654,107.896 272.563 C 107.805 272.471,107.521 272.856,107.265 273.417 M50.865 274.217 C 50.609 274.778,50.407 275.454,50.416 275.719 C 50.424 275.983,50.697 275.588,51.022 274.839 C 51.705 273.265,51.561 272.690,50.865 274.217 " stroke="none" fill="#ede781" fill-rule="evenodd"></path></g></svg>