<?xml version="1.0" encoding="UTF-8" standalone="no"?>
<svg
   
   
   
   
   xmlns="http://www.w3.org/2000/svg"
   viewBox="0, 0, 400,400"
   height="400"
   width="400"
   version="1.1"
   id="svg">
  <metadata
     id="metadata10">
    
  </metadata>
  <defs
     id="defs8" />
  <g
     id="svgg">
    <path
       fill-rule="evenodd"
       stroke="none"
       d="M56.979 125.500 C 56.632 126.325,56.247 127.495,56.124 128.100 C 56.001 128.705,55.742 129.200,55.550 129.200 C 55.357 129.200,55.237 129.335,55.282 129.500 C 55.392 129.904,54.427 132.758,53.760 134.000 C 53.465 134.550,53.031 135.765,52.796 136.700 C 52.561 137.635,52.185 138.400,51.961 138.400 C 51.736 138.400,51.644 138.548,51.756 138.729 C 51.868 138.909,51.732 139.494,51.455 140.029 C 51.178 140.563,50.949 141.090,50.947 141.200 C 50.935 141.751,49.394 145.432,49.086 145.645 C 48.891 145.779,48.766 146.008,48.809 146.153 C 48.971 146.706,48.349 149.200,48.049 149.200 C 47.875 149.200,47.719 149.425,47.701 149.700 C 47.644 150.586,45.032 157.792,44.676 158.045 C 44.487 158.179,44.358 158.449,44.389 158.645 C 44.445 158.991,43.383 161.930,41.296 167.200 C 40.081 170.270,37.248 178.008,35.584 182.800 C 34.935 184.670,34.231 186.560,34.020 187.000 C 32.958 189.211,31.600 192.859,31.600 193.499 C 31.600 193.897,31.356 194.577,31.057 195.011 C 30.758 195.445,30.294 196.475,30.026 197.300 C 29.758 198.125,29.342 198.800,29.102 198.800 C 28.863 198.800,28.772 198.906,28.901 199.035 C 29.166 199.300,28.149 202.977,27.472 204.200 C 27.229 204.640,27.070 205.139,27.118 205.310 C 27.167 205.480,26.810 206.380,26.326 207.310 C 25.841 208.239,25.425 209.180,25.401 209.400 C 25.299 210.332,24.693 212.000,24.457 212.000 C 24.315 212.000,24.171 212.405,24.136 212.900 C 24.101 213.395,23.661 214.700,23.158 215.800 C 22.655 216.900,22.195 217.980,22.135 218.200 C 21.597 220.190,20.269 223.600,20.031 223.600 C 19.674 223.600,19.592 224.628,19.839 226.000 L 20.019 227.000 43.910 226.899 C 57.049 226.843,68.070 226.679,68.400 226.535 C 68.730 226.391,69.118 226.296,69.263 226.324 C 69.408 226.352,69.746 225.436,70.015 224.288 C 70.285 223.139,70.629 222.020,70.782 221.800 C 71.288 221.068,73.600 214.850,73.600 214.220 C 73.600 213.879,73.742 213.600,73.915 213.600 C 74.088 213.600,74.257 213.235,74.291 212.788 C 74.325 212.342,74.795 211.010,75.335 209.829 C 75.876 208.648,76.441 207.123,76.591 206.441 C 76.741 205.758,77.059 205.200,77.298 205.200 C 77.538 205.200,77.630 205.096,77.503 204.970 C 77.194 204.661,77.654 203.255,79.393 199.200 C 80.195 197.330,80.916 195.350,80.995 194.800 C 81.075 194.250,81.422 193.260,81.767 192.600 C 82.113 191.940,82.396 191.175,82.398 190.900 C 82.399 190.625,82.591 190.400,82.824 190.400 C 83.057 190.400,83.136 190.220,83.000 190.000 C 82.864 189.780,82.954 189.600,83.200 189.600 C 83.446 189.600,83.568 189.465,83.471 189.300 C 83.373 189.135,83.476 188.550,83.699 188.000 C 83.922 187.450,84.161 186.566,84.231 186.036 C 84.302 185.506,84.503 184.966,84.680 184.836 C 84.856 184.706,85.048 184.330,85.106 184.000 C 85.241 183.229,87.091 178.222,87.913 176.400 C 88.260 175.630,88.510 174.861,88.469 174.690 C 88.427 174.520,88.790 173.620,89.274 172.690 C 89.758 171.761,90.202 170.820,90.261 170.600 C 91.026 167.759,93.304 161.842,93.702 161.666 C 93.869 161.592,93.903 161.367,93.779 161.166 C 93.655 160.965,93.704 160.800,93.889 160.800 C 94.074 160.800,94.265 160.323,94.313 159.740 C 94.361 159.158,94.579 158.466,94.797 158.204 C 95.015 157.941,95.102 157.636,94.992 157.525 C 94.803 157.336,95.608 155.244,97.117 152.000 C 97.475 151.230,97.728 150.458,97.679 150.285 C 97.586 149.957,98.953 146.383,99.701 145.000 C 100.098 144.265,100.699 142.623,104.382 132.200 C 105.082 130.220,105.912 128.033,106.227 127.340 C 106.542 126.646,106.800 125.611,106.800 125.040 L 106.800 124.000 82.205 124.000 L 57.611 124.000 56.979 125.500 M112.618 125.443 C 112.469 126.237,112.018 127.632,111.616 128.543 C 110.360 131.389,109.301 134.134,108.777 135.900 C 108.499 136.835,108.159 137.600,108.021 137.600 C 107.883 137.600,107.741 137.989,107.705 138.464 C 107.669 138.939,107.436 139.454,107.186 139.609 C 106.936 139.763,106.760 140.009,106.795 140.155 C 106.946 140.779,103.912 149.253,102.175 153.060 C 101.859 153.754,101.601 154.564,101.603 154.860 C 101.605 155.157,100.990 156.840,100.236 158.600 C 98.564 162.501,98.257 163.320,98.329 163.677 C 98.360 163.830,97.841 165.270,97.176 166.877 C 96.511 168.485,95.434 171.377,94.784 173.305 C 94.133 175.232,93.429 177.122,93.219 177.505 C 92.473 178.861,91.278 181.935,90.995 183.224 C 90.837 183.943,90.185 185.697,89.546 187.121 C 88.906 188.546,88.186 190.496,87.944 191.456 C 87.703 192.415,87.346 193.200,87.153 193.200 C 86.959 193.200,86.834 193.335,86.876 193.500 C 87.040 194.144,86.315 196.400,85.945 196.400 C 85.729 196.400,85.664 196.580,85.800 196.800 C 85.936 197.020,85.895 197.200,85.709 197.200 C 85.523 197.200,85.346 197.518,85.317 197.906 C 85.251 198.783,83.751 203.255,82.803 205.400 C 80.700 210.160,80.242 211.291,80.169 211.915 C 80.124 212.292,79.606 213.770,79.018 215.200 C 78.429 216.630,77.613 218.790,77.205 220.000 C 76.796 221.210,76.168 222.994,75.810 223.965 C 74.710 226.948,73.262 226.779,100.160 226.809 C 127.464 226.840,125.423 227.115,126.390 223.272 C 126.648 222.248,126.995 221.228,127.161 221.005 C 127.327 220.782,127.778 219.745,128.164 218.700 C 128.550 217.655,128.992 216.800,129.146 216.800 C 129.300 216.800,129.466 216.305,129.516 215.700 C 129.653 214.025,130.409 212.000,130.898 212.000 C 131.137 212.000,131.220 211.887,131.083 211.749 C 130.945 211.611,131.107 210.846,131.444 210.049 C 131.780 209.252,132.589 206.941,133.242 204.914 C 133.894 202.887,134.647 200.997,134.914 200.714 C 135.181 200.431,135.455 199.840,135.523 199.400 C 135.646 198.595,136.000 197.608,138.534 191.000 C 139.293 189.020,140.052 187.040,140.221 186.600 C 140.389 186.160,140.502 185.675,140.471 185.521 C 140.440 185.368,140.922 184.108,141.542 182.721 C 142.162 181.335,143.181 178.625,143.805 176.700 C 144.430 174.775,145.100 173.200,145.294 173.200 C 145.488 173.200,145.545 173.035,145.420 172.832 C 145.295 172.630,145.419 172.225,145.696 171.932 C 145.973 171.640,146.263 170.950,146.341 170.400 C 146.418 169.850,146.657 169.071,146.872 168.669 C 147.086 168.266,147.525 167.051,147.846 165.969 C 148.168 164.886,148.566 164.000,148.730 164.000 C 148.895 164.000,149.056 163.658,149.087 163.239 C 149.119 162.821,149.517 161.660,149.972 160.661 C 150.427 159.662,150.800 158.609,150.800 158.322 C 150.800 158.035,151.520 156.044,152.400 153.898 C 153.280 151.752,154.000 149.823,154.000 149.611 C 154.000 149.284,156.778 141.976,158.110 138.800 C 158.340 138.250,158.504 137.678,158.474 137.529 C 158.444 137.380,159.022 135.936,159.758 134.321 C 160.494 132.705,161.231 130.757,161.396 129.992 C 161.561 129.226,161.923 128.150,162.200 127.600 C 162.477 127.050,162.830 126.015,162.984 125.300 L 163.264 124.000 138.076 124.000 L 112.889 124.000 112.618 125.443 M101.523 128.858 C 101.631 129.797,100.732 132.408,98.975 136.260 C 98.659 136.954,98.400 137.713,98.400 137.948 C 98.400 138.183,97.609 140.405,96.643 142.887 C 95.676 145.369,94.591 148.300,94.231 149.400 C 93.872 150.500,93.326 151.940,93.019 152.600 C 92.011 154.767,90.800 157.939,90.800 158.414 C 90.800 158.670,90.541 159.446,90.225 160.140 C 89.129 162.543,88.331 164.618,87.126 168.200 C 86.461 170.180,85.779 171.980,85.612 172.200 C 85.445 172.420,84.910 173.860,84.424 175.400 C 83.937 176.940,83.084 179.280,82.528 180.600 C 81.971 181.920,81.286 183.630,81.006 184.400 C 80.725 185.170,79.767 187.690,78.876 190.000 C 77.986 192.310,77.084 194.830,76.872 195.600 C 76.660 196.370,75.927 198.295,75.243 199.878 C 74.559 201.461,74.000 202.953,74.000 203.193 C 74.000 203.434,73.043 206.098,71.873 209.115 C 70.703 212.132,69.514 215.230,69.230 216.000 C 67.638 220.319,66.993 221.707,66.158 222.608 L 65.231 223.607 45.116 223.504 L 25.000 223.400 24.868 222.249 C 24.752 221.232,25.252 219.809,27.435 214.940 C 27.746 214.246,28.000 213.485,28.000 213.248 C 28.000 212.848,29.842 207.902,33.605 198.200 C 34.458 196.000,35.284 193.660,35.441 193.000 C 35.597 192.340,36.327 190.473,37.062 188.850 C 37.798 187.228,38.400 185.647,38.400 185.338 C 38.400 184.836,39.489 181.989,40.977 178.600 C 41.267 177.940,41.895 176.199,42.374 174.732 C 42.852 173.265,43.864 170.572,44.622 168.747 C 45.380 166.923,46.000 165.181,46.000 164.876 C 46.000 164.570,46.259 163.754,46.575 163.060 C 47.894 160.170,49.200 156.787,49.200 156.262 C 49.200 155.953,49.677 154.642,50.260 153.350 C 50.843 152.057,51.995 149.110,52.821 146.800 C 54.203 142.934,55.224 140.201,57.901 133.200 C 58.448 131.770,59.239 129.923,59.658 129.096 L 60.420 127.593 80.910 127.696 L 101.400 127.800 101.523 128.858 M157.926 128.513 C 158.002 128.906,157.426 130.796,156.647 132.713 C 155.249 136.156,153.196 141.584,150.639 148.600 C 149.917 150.580,148.866 153.370,148.303 154.800 C 146.942 158.256,143.288 167.924,140.215 176.200 C 137.523 183.450,136.312 186.657,135.306 189.200 C 134.740 190.630,133.595 193.690,132.763 196.000 C 131.102 200.607,128.577 207.362,127.230 210.800 C 126.756 212.010,126.003 214.067,125.556 215.371 C 124.183 219.380,122.523 222.706,121.668 223.164 C 120.650 223.708,81.683 223.767,80.827 223.225 C 80.143 222.792,80.493 221.344,82.576 216.000 C 84.773 210.364,86.386 206.012,87.818 201.854 C 88.566 199.684,89.344 197.704,89.547 197.454 C 89.750 197.204,90.460 195.380,91.125 193.400 C 91.790 191.420,92.889 188.450,93.566 186.800 C 94.243 185.150,94.798 183.667,94.799 183.504 C 94.800 183.207,96.395 178.956,100.015 169.600 C 101.079 166.850,102.081 164.060,102.242 163.400 C 102.403 162.740,102.979 161.210,103.521 160.000 C 104.064 158.790,104.827 156.810,105.219 155.600 C 105.610 154.390,106.322 152.410,106.801 151.200 C 107.280 149.990,108.267 147.380,108.994 145.400 C 109.721 143.420,110.874 140.450,111.556 138.800 C 112.239 137.150,112.798 135.587,112.799 135.327 C 112.801 134.439,115.066 129.211,115.799 128.401 C 116.873 127.214,157.697 127.323,157.926 128.513 M155.496 201.198 C 153.372 201.590,153.482 200.920,153.547 213.033 C 153.614 225.555,153.469 224.800,155.810 224.800 C 158.105 224.800,158.339 224.321,158.430 219.436 C 158.522 214.525,158.124 214.713,168.103 214.877 C 176.853 215.020,176.190 214.618,176.327 219.859 C 176.443 224.270,176.705 224.800,178.769 224.800 C 181.223 224.800,181.200 224.910,181.200 213.000 C 181.200 201.090,181.223 201.200,178.769 201.200 C 176.666 201.200,176.388 201.772,176.364 206.144 C 176.352 208.394,176.168 210.096,175.920 210.249 C 175.357 210.597,159.224 210.557,158.873 210.207 C 158.516 209.849,158.509 209.771,158.450 205.844 C 158.388 201.675,157.813 200.771,155.496 201.198 M199.589 201.200 C 191.345 201.355,188.847 201.523,188.389 201.951 C 187.668 202.625,187.685 222.665,188.408 224.016 C 188.809 224.765,189.309 224.800,199.620 224.800 C 211.292 224.800,212.005 224.685,211.688 222.845 C 211.353 220.903,210.859 220.800,201.938 220.800 C 192.571 220.800,192.800 220.879,192.800 217.649 C 192.800 214.960,193.333 214.800,202.275 214.800 C 210.677 214.800,211.070 214.683,210.725 212.289 C 210.488 210.639,209.131 210.376,201.330 210.465 C 195.833 210.527,193.906 210.420,193.430 210.025 C 192.482 209.238,192.684 205.234,193.642 205.826 C 193.839 205.948,194.000 205.869,194.000 205.652 C 194.000 205.407,197.045 205.242,202.048 205.217 C 210.752 205.173,211.600 204.998,211.600 203.248 C 211.600 201.046,211.216 200.981,199.589 201.200 M227.832 201.107 C 221.594 201.177,218.079 201.368,217.732 201.656 C 217.000 202.264,216.951 223.591,217.680 224.320 C 218.300 224.940,220.500 224.940,221.120 224.320 C 221.415 224.025,221.600 222.583,221.600 220.582 C 221.600 215.832,221.438 215.917,230.120 216.074 C 238.815 216.231,238.800 216.223,238.800 220.782 C 238.800 222.627,238.990 224.030,239.280 224.320 C 239.914 224.954,242.589 224.936,243.122 224.294 C 243.871 223.391,243.802 217.950,243.022 216.442 C 242.295 215.036,242.334 214.478,243.355 211.730 C 244.354 209.041,243.818 205.020,242.235 203.322 C 240.285 201.232,238.683 200.986,227.832 201.107 M253.194 201.941 C 250.050 203.614,249.416 205.286,249.271 212.299 C 249.096 220.746,250.331 223.631,254.600 224.753 C 256.266 225.190,272.296 225.437,272.702 225.031 C 272.829 224.904,273.250 224.800,273.636 224.800 C 275.977 224.800,278.894 219.209,277.617 217.168 C 276.557 215.474,273.017 216.213,273.492 218.029 C 273.586 218.389,273.214 219.204,272.666 219.841 L 271.669 221.000 264.043 221.000 L 256.418 221.000 255.309 219.891 L 254.200 218.782 254.200 212.956 L 254.200 207.131 255.322 206.165 C 256.738 204.947,271.403 204.621,271.854 205.798 C 271.981 206.126,272.236 206.301,272.422 206.186 C 272.609 206.071,272.981 206.713,273.251 207.612 C 274.232 210.887,277.200 210.458,277.200 207.041 C 277.200 201.613,276.249 201.200,263.737 201.200 C 255.597 201.200,254.434 201.282,253.194 201.941 M284.480 201.680 C 284.134 202.026,284.000 204.813,284.000 211.700 C 284.000 225.469,283.445 224.881,296.739 225.192 C 301.656 225.306,305.749 225.285,305.835 225.145 C 305.921 225.005,306.592 224.778,307.326 224.640 C 308.663 224.389,310.311 222.962,311.151 221.326 C 311.798 220.067,311.770 202.330,311.120 201.680 C 310.856 201.416,309.992 201.200,309.200 201.200 C 306.828 201.200,306.800 201.310,306.800 210.610 L 306.800 219.061 305.767 220.030 C 304.750 220.984,304.614 221.000,297.332 221.000 L 289.930 221.000 288.929 219.835 L 287.927 218.671 288.050 210.580 C 288.183 201.771,288.061 201.200,286.031 201.200 C 285.442 201.200,284.744 201.416,284.480 201.680 M318.629 201.829 C 318.283 202.174,317.996 202.939,317.991 203.529 C 317.851 219.694,317.953 223.352,318.560 224.061 C 319.144 224.743,319.967 224.800,329.316 224.800 C 340.213 224.800,340.400 224.765,340.400 222.710 C 340.400 221.026,339.285 220.800,330.988 220.800 C 321.964 220.800,322.800 221.830,322.800 210.706 C 322.800 204.593,322.663 202.023,322.320 201.680 C 321.635 200.995,319.371 201.086,318.629 201.829 M344.883 201.540 C 343.597 202.356,343.520 223.601,344.800 224.409 C 345.140 224.623,350.223 224.790,356.510 224.794 L 367.620 224.800 368.010 223.774 C 369.031 221.089,368.078 220.800,358.196 220.800 C 348.805 220.800,348.727 220.774,348.898 217.680 C 349.050 214.909,349.519 214.771,358.440 214.853 C 366.818 214.930,366.800 214.935,366.800 212.790 C 366.800 210.499,366.270 210.353,358.087 210.393 C 348.794 210.439,348.800 210.440,348.800 208.038 C 348.800 205.302,349.148 205.200,358.531 205.200 C 366.335 205.200,366.846 205.154,367.620 204.380 C 368.466 203.534,368.380 202.122,367.446 201.506 C 366.831 201.101,345.524 201.133,344.883 201.540 M376.162 201.962 C 373.807 203.031,372.613 205.127,372.551 208.300 C 372.521 209.796,372.668 210.800,372.917 210.800 C 373.146 210.800,373.236 210.897,373.117 211.016 C 372.802 211.331,374.886 213.600,375.489 213.600 C 375.770 213.600,376.000 213.810,376.000 214.067 C 376.000 214.323,376.113 214.421,376.251 214.283 C 376.389 214.145,377.010 214.295,377.631 214.616 C 378.483 215.057,380.458 215.210,385.680 215.240 C 394.895 215.293,396.865 216.093,395.186 219.100 C 393.386 222.323,377.600 222.038,377.600 218.782 C 377.600 216.926,374.506 215.550,373.050 216.758 C 372.302 217.379,372.208 219.043,372.828 220.674 C 373.064 221.293,373.241 221.848,373.222 221.907 C 373.203 221.966,373.787 222.540,374.519 223.182 C 376.579 224.991,378.564 225.290,387.458 225.134 C 395.852 224.986,396.046 224.946,398.700 222.835 L 400.000 221.800 400.000 217.700 C 400.000 215.002,399.851 213.600,399.563 213.600 C 399.323 213.600,398.672 213.243,398.117 212.806 C 396.352 211.418,394.385 211.083,386.561 210.839 C 377.882 210.568,377.518 210.447,377.667 207.907 C 377.817 205.367,378.348 205.200,386.269 205.200 C 392.410 205.200,393.205 205.276,393.568 205.900 C 393.792 206.285,393.982 206.420,393.990 206.200 C 393.999 205.980,394.354 206.329,394.780 206.975 C 395.206 207.621,395.483 208.266,395.395 208.408 C 395.218 208.694,395.811 208.798,398.200 208.903 L 399.800 208.973 399.923 207.294 C 400.015 206.036,399.839 205.394,399.223 204.732 C 398.770 204.246,398.400 203.716,398.400 203.554 C 398.400 201.335,380.382 200.045,376.162 201.962 M238.000 206.000 C 239.026 207.026,239.109 210.196,238.138 211.269 C 237.317 212.175,222.960 212.400,222.080 211.520 C 221.213 210.653,221.555 205.278,222.442 205.826 C 222.639 205.948,222.800 205.857,222.800 205.624 C 222.800 204.727,237.081 205.081,238.000 206.000 M17.348 232.112 C 16.850 232.504,16.217 233.449,15.941 234.212 C 15.665 234.975,15.285 235.600,15.096 235.600 C 14.907 235.600,14.850 235.758,14.969 235.950 C 15.241 236.390,13.267 242.112,12.728 242.444 C 12.510 242.579,12.346 242.849,12.364 243.045 C 12.410 243.556,11.606 245.897,10.959 247.139 C 10.654 247.722,10.404 248.592,10.402 249.071 C 10.401 249.551,10.117 250.226,9.771 250.571 C 9.426 250.917,9.230 251.200,9.337 251.200 C 9.444 251.200,9.175 252.145,8.740 253.300 C 8.305 254.455,7.488 256.750,6.925 258.400 C 6.362 260.050,5.666 261.861,5.379 262.425 C 5.092 262.989,4.319 265.082,3.662 267.077 C 3.004 269.072,2.276 271.041,2.043 271.452 C 1.811 271.864,1.310 272.920,0.931 273.800 C 0.552 274.680,0.173 275.535,0.088 275.700 C 0.003 275.865,11.252 276.000,25.086 276.000 L 50.239 276.000 50.746 274.600 C 51.024 273.830,51.382 273.200,51.541 273.200 C 51.700 273.200,51.856 272.851,51.888 272.424 C 51.987 271.107,54.069 265.188,54.631 264.626 C 54.923 264.334,55.079 264.012,54.977 263.910 C 54.875 263.809,55.131 262.842,55.544 261.763 C 55.958 260.683,56.706 258.720,57.206 257.400 C 57.707 256.080,58.469 254.202,58.901 253.227 C 59.333 252.252,59.735 251.016,59.793 250.482 C 59.852 249.947,60.147 249.352,60.450 249.161 C 60.752 248.969,60.866 248.809,60.702 248.806 C 60.538 248.803,60.775 247.855,61.229 246.700 C 61.683 245.545,62.417 243.520,62.860 242.200 C 63.574 240.074,64.376 238.049,66.207 233.750 C 67.123 231.598,67.105 231.597,41.494 231.493 C 19.733 231.406,18.196 231.445,17.348 232.112 M133.038 231.495 C 132.986 231.547,119.472 231.597,103.007 231.605 L 73.071 231.620 72.135 232.888 C 71.621 233.585,71.200 234.570,71.200 235.078 C 71.200 235.585,71.020 236.000,70.800 236.000 C 70.580 236.000,70.430 236.135,70.466 236.300 C 70.583 236.839,69.907 238.938,68.498 242.400 C 67.738 244.270,66.884 246.610,66.601 247.600 C 66.100 249.350,65.353 251.278,64.175 253.860 C 63.859 254.554,63.600 255.486,63.600 255.932 C 63.600 256.378,63.375 256.981,63.100 257.271 C 62.825 257.562,62.543 258.160,62.472 258.600 C 62.402 259.040,62.007 260.120,61.595 261.000 C 60.868 262.554,60.130 264.505,59.026 267.800 C 58.731 268.680,57.959 270.660,57.310 272.200 C 56.661 273.740,56.206 275.225,56.299 275.500 C 56.431 275.893,61.805 276.000,81.379 276.000 L 106.291 276.000 106.979 274.200 C 107.357 273.210,107.842 272.400,108.057 272.400 C 108.271 272.400,108.353 272.248,108.239 272.062 C 107.969 271.627,108.745 268.800,109.134 268.800 C 109.297 268.800,109.459 268.409,109.495 267.930 C 109.591 266.654,110.433 264.800,110.915 264.800 C 111.145 264.800,111.232 264.699,111.108 264.575 C 110.870 264.337,112.653 258.823,113.825 256.168 C 114.206 255.305,114.559 254.420,114.609 254.200 C 115.059 252.227,117.543 245.749,118.285 244.611 C 118.568 244.177,118.804 243.457,118.809 243.011 C 118.814 242.565,119.201 241.390,119.671 240.400 C 120.488 238.675,120.602 238.350,120.739 237.358 C 120.773 237.116,121.239 236.443,121.775 235.865 L 122.750 234.813 260.140 234.803 C 335.704 234.798,398.086 234.683,398.765 234.547 C 400.355 234.229,400.607 232.161,399.100 231.799 C 398.251 231.596,133.241 231.293,133.038 231.495 M61.064 235.821 C 61.195 236.163,60.839 237.558,60.274 238.921 C 59.709 240.285,59.073 242.030,58.862 242.800 C 58.651 243.570,57.937 245.550,57.276 247.200 C 55.132 252.549,52.867 258.566,52.459 260.000 C 52.133 261.141,49.735 267.318,47.996 271.493 L 47.624 272.386 27.387 272.493 C 6.661 272.603,5.299 272.527,5.801 271.297 C 5.958 270.914,6.680 268.980,7.405 267.000 C 8.698 263.473,9.620 261.033,12.089 254.600 C 12.765 252.840,13.910 249.780,14.634 247.800 C 17.995 238.606,19.095 235.911,19.627 235.575 C 20.743 234.869,60.789 235.107,61.064 235.821 M117.042 235.766 C 117.240 236.282,115.452 242.044,114.180 244.987 C 113.892 245.654,113.294 247.190,112.851 248.400 C 112.408 249.610,111.415 252.220,110.643 254.200 C 109.871 256.180,108.702 259.330,108.045 261.200 C 106.521 265.540,104.295 271.253,103.876 271.900 C 103.624 272.290,98.909 272.400,82.531 272.400 L 61.509 272.400 61.719 271.300 C 61.835 270.695,62.676 268.220,63.588 265.800 C 64.500 263.380,65.786 259.870,66.446 258.000 C 67.105 256.130,67.884 254.060,68.175 253.400 C 68.467 252.740,69.087 251.340,69.553 250.289 C 70.019 249.238,70.400 248.104,70.400 247.767 C 70.400 247.431,70.958 245.861,71.640 244.278 C 72.322 242.695,73.239 240.320,73.677 239.000 C 75.062 234.829,72.855 235.200,96.275 235.200 C 113.623 235.200,116.859 235.288,117.042 235.766 M137.200 241.451 C 136.430 241.729,135.575 241.881,135.300 241.791 C 135.025 241.700,134.800 241.796,134.800 242.005 C 134.800 242.214,134.373 242.492,133.850 242.623 C 133.328 242.754,132.699 243.303,132.454 243.842 C 132.208 244.381,131.736 244.926,131.406 245.053 C 131.075 245.180,130.904 245.445,131.026 245.642 C 131.148 245.839,131.095 246.000,130.909 246.000 C 130.491 246.000,130.483 246.121,130.404 253.035 C 130.321 260.311,130.507 261.199,132.601 263.513 L 134.309 265.400 144.176 265.600 C 157.130 265.863,158.250 265.419,158.697 259.843 C 158.892 257.418,158.848 257.250,157.849 256.595 C 156.421 255.660,154.429 256.372,154.688 257.725 C 155.355 261.218,153.275 262.082,144.579 261.925 L 137.616 261.800 136.508 260.691 C 135.439 259.621,135.395 259.410,135.256 254.727 C 134.995 245.938,135.355 245.600,144.961 245.600 C 152.538 245.600,154.349 246.180,154.387 248.620 C 154.405 249.738,155.154 250.400,156.400 250.400 C 159.922 250.400,158.639 243.078,154.955 242.153 C 154.430 242.021,154.000 241.781,154.000 241.619 C 154.000 241.457,150.633 241.285,146.517 241.235 C 142.402 241.186,138.937 241.100,138.817 241.045 C 138.698 240.990,137.970 241.173,137.200 241.451 M237.976 241.475 C 232.985 242.584,231.600 244.166,231.600 248.757 C 231.600 254.368,233.141 255.201,244.200 255.572 C 253.165 255.873,254.000 256.162,254.000 258.963 C 254.000 261.270,252.518 261.788,245.520 261.928 C 238.124 262.076,234.979 261.176,236.168 259.252 C 236.508 258.702,234.831 257.200,233.884 257.205 C 230.098 257.229,230.423 261.996,234.396 264.700 C 236.455 266.102,253.549 266.094,255.631 264.690 C 259.134 262.330,260.141 256.353,257.437 253.979 C 255.034 251.870,253.753 251.607,245.391 251.499 C 236.521 251.385,235.781 251.140,236.145 248.437 C 236.488 245.895,238.085 245.458,246.259 245.667 L 251.479 245.800 253.247 247.700 C 255.221 249.821,256.895 250.216,258.074 248.839 C 259.393 247.298,256.512 242.947,253.600 242.083 C 249.982 241.009,241.549 240.681,237.976 241.475 M269.878 241.708 C 265.328 242.826,264.200 244.192,264.200 248.584 C 264.200 254.550,265.200 255.101,276.800 255.538 C 285.121 255.851,286.205 256.114,286.666 257.931 C 287.460 261.059,284.912 262.090,276.789 261.927 C 269.713 261.785,269.189 261.591,268.358 258.817 C 267.878 257.216,266.268 256.708,264.565 257.619 C 262.678 258.628,264.487 263.440,267.302 264.901 C 269.252 265.913,285.712 265.976,287.641 264.979 C 288.274 264.652,288.880 264.432,288.988 264.492 C 289.470 264.757,290.616 262.410,291.062 260.244 C 292.409 253.709,289.533 251.605,279.228 251.590 C 269.034 251.576,265.938 250.052,269.432 246.770 C 271.024 245.274,284.114 245.253,285.146 246.744 C 287.226 249.748,289.319 250.515,290.487 248.700 C 293.887 243.417,280.877 239.003,269.878 241.708 M319.800 241.223 C 312.314 241.520,308.400 243.031,308.400 245.624 C 308.400 246.025,308.254 246.443,308.076 246.553 C 307.898 246.663,307.873 247.798,308.021 249.076 C 308.169 250.354,308.220 251.525,308.135 251.677 C 307.856 252.179,310.694 254.685,311.859 254.966 C 312.486 255.118,316.431 255.370,320.625 255.526 C 330.424 255.891,332.504 257.107,329.436 260.678 L 328.471 261.800 321.986 261.928 C 314.272 262.081,313.541 261.878,312.282 259.244 C 310.095 254.671,306.715 257.573,308.636 262.374 C 309.823 265.339,311.127 265.649,321.856 265.515 C 332.305 265.384,331.758 265.478,333.448 263.505 C 335.504 261.105,335.749 256.515,333.944 254.220 C 332.225 252.034,331.274 251.820,322.341 251.602 C 312.541 251.362,310.963 250.633,312.805 247.191 C 314.110 244.753,328.158 244.893,329.618 247.358 C 330.825 249.398,331.188 249.651,332.729 249.522 C 334.861 249.343,335.276 247.922,333.955 245.327 C 332.238 241.953,328.522 240.876,319.800 241.223 M209.027 242.874 C 208.197 243.713,207.624 244.400,207.753 244.400 C 207.882 244.400,207.612 245.120,207.153 246.000 C 206.695 246.880,206.147 247.600,205.936 247.600 C 205.725 247.600,205.657 247.769,205.785 247.975 C 205.912 248.182,205.698 248.536,205.308 248.763 C 204.919 248.990,204.725 249.181,204.878 249.188 C 205.196 249.202,203.529 252.164,200.259 257.400 C 195.673 264.744,195.499 265.600,198.591 265.600 C 200.063 265.600,200.645 265.373,201.663 264.400 C 202.354 263.740,202.771 263.200,202.590 263.200 C 202.409 263.200,202.683 262.750,203.200 262.200 L 204.139 261.200 211.993 261.200 C 220.470 261.200,220.377 261.179,221.970 263.506 C 224.077 266.586,229.138 266.604,227.491 263.526 C 227.101 262.796,226.798 262.049,226.818 261.864 C 226.837 261.679,226.596 261.319,226.282 261.064 C 225.670 260.567,218.028 247.818,217.885 247.056 C 217.838 246.805,217.698 246.510,217.574 246.400 C 217.449 246.290,216.772 245.354,216.068 244.320 C 213.809 240.999,211.373 240.499,209.027 242.874 M300.360 241.373 C 300.272 241.461,299.586 241.603,298.835 241.689 C 297.114 241.885,297.202 241.232,297.229 253.600 C 297.255 265.239,297.253 265.177,297.567 265.093 C 297.695 265.058,298.217 265.261,298.727 265.543 C 299.504 265.974,299.811 265.954,300.627 265.419 L 301.600 264.782 301.587 253.691 C 301.575 243.235,301.297 240.438,300.360 241.373 M165.077 242.180 C 163.978 243.279,163.560 262.048,164.581 264.472 C 164.934 265.311,166.902 266.031,167.623 265.586 C 167.920 265.403,168.286 265.329,168.437 265.423 C 168.856 265.682,169.169 263.382,169.242 259.504 C 169.327 255.035,168.835 255.266,178.200 255.294 C 187.723 255.322,187.200 255.059,187.200 259.816 C 187.200 265.130,188.662 267.155,191.154 265.295 L 192.200 264.514 192.307 253.997 C 192.427 242.121,192.324 241.600,189.853 241.600 C 187.623 241.600,187.159 242.522,187.252 246.761 C 187.357 251.523,187.974 251.234,177.972 251.108 L 169.400 251.000 169.130 246.800 C 168.982 244.490,168.817 242.408,168.763 242.174 C 168.608 241.491,165.762 241.496,165.077 242.180 M213.269 248.662 C 213.671 249.026,214.000 249.538,214.000 249.800 C 214.000 250.062,214.729 251.404,215.621 252.783 C 218.019 256.494,217.924 256.600,212.195 256.600 C 206.593 256.600,206.182 256.230,208.319 253.111 C 208.963 252.170,209.879 250.635,210.353 249.700 C 211.279 247.877,212.084 247.590,213.269 248.662 "
       id="path0" />
  </g>
</svg>
