<svg id="svg" version="1.1" xmlns="http://www.w3.org/2000/svg"  width="400" height="400" viewBox="0, 0, 400,400"><g id="svgg"><path id="path0" d="M222.248 101.506 C 213.816 109.943,206.883 116.883,206.841 116.929 C 206.799 116.975,208.599 118.848,210.840 121.090 L 214.915 125.168 189.423 150.660 C 175.402 164.681,163.983 176.206,164.048 176.270 C 164.214 176.436,166.104 174.582,180.926 159.716 C 188.172 152.447,194.210 146.500,194.342 146.500 C 194.601 146.499,200.016 151.975,200.852 153.083 C 201.129 153.450,204.205 156.644,207.688 160.180 C 211.170 163.717,214.158 166.829,214.328 167.097 C 214.497 167.364,216.859 169.824,219.576 172.562 L 224.517 177.541 240.050 162.000 C 248.593 153.453,255.733 146.332,255.917 146.175 C 256.100 146.018,260.898 141.229,266.579 135.532 L 276.908 125.175 257.361 105.671 C 246.610 94.943,237.761 86.167,237.697 86.167 C 237.632 86.167,230.680 93.069,222.248 101.506 M117.681 222.489 C 109.056 231.116,102.000 238.210,102.000 238.254 C 102.000 238.349,129.404 265.784,131.537 267.826 L 132.992 269.218 148.691 253.524 L 164.390 237.831 161.987 235.378 C 158.881 232.209,142.778 216.106,137.468 210.860 L 133.362 206.804 117.681 222.489 " stroke="none" fill="#539bc4" fill-rule="evenodd"></path><path id="path1" d="M284.671 101.757 L 269.091 117.339 273.003 121.253 L 276.915 125.167 266.603 135.480 C 260.932 141.152,256.320 145.858,256.354 145.938 C 256.389 146.018,257.167 146.790,258.083 147.655 C 259.000 148.519,262.142 151.556,265.065 154.405 C 267.988 157.253,271.663 160.818,273.232 162.326 C 274.800 163.835,277.733 166.693,279.750 168.677 C 281.767 170.661,284.465 173.271,285.746 174.479 L 288.076 176.673 313.705 151.045 C 327.800 136.950,339.333 125.333,339.333 125.230 C 339.333 124.993,300.642 86.158,300.417 86.168 C 300.325 86.172,293.239 93.187,284.671 101.757 M179.345 222.739 C 165.748 236.336,164.296 237.838,164.508 238.093 C 165.550 239.349,195.422 269.006,195.605 268.967 C 195.735 268.939,202.589 262.168,210.836 253.920 L 225.830 238.924 210.187 223.295 C 201.584 214.700,194.515 207.667,194.480 207.667 C 194.445 207.667,187.634 214.449,179.345 222.739 " stroke="none" fill="#1383bb" fill-rule="evenodd"></path><path id="path2" d="M160.042 101.597 C 151.494 110.156,144.500 117.249,144.500 117.360 C 144.500 117.470,146.169 119.235,148.208 121.281 C 150.248 123.326,151.939 125.068,151.967 125.152 C 151.995 125.235,148.051 129.266,143.203 134.110 C 138.356 138.954,133.987 143.352,133.495 143.884 L 132.602 144.851 148.175 160.425 C 156.741 168.991,163.825 176.000,163.917 176.000 C 164.009 176.000,175.518 164.566,189.493 150.590 L 214.903 125.180 206.727 116.965 C 192.918 103.091,175.860 86.091,175.718 86.063 C 175.644 86.048,168.590 93.038,160.042 101.597 M71.491 205.800 C 54.757 222.547,40.737 236.611,40.335 237.052 L 39.605 237.854 55.177 253.427 C 63.742 261.992,70.843 269.000,70.958 269.000 C 71.072 269.000,85.192 254.974,102.336 237.832 L 133.505 206.663 117.832 190.998 C 109.212 182.383,102.105 175.337,102.038 175.342 C 101.971 175.346,88.225 189.052,71.491 205.800 " stroke="none" fill="#8bb3db" fill-rule="evenodd"></path><path id="path3" d="M345.693 101.001 C 337.429 109.252,330.667 116.096,330.667 116.211 C 330.667 116.325,332.617 118.368,335.000 120.750 C 337.383 123.132,339.333 125.157,339.333 125.249 C 339.333 125.341,327.821 136.929,313.751 150.999 C 295.997 168.753,288.195 176.661,288.254 176.845 C 288.312 177.029,278.864 186.584,257.336 208.115 C 240.284 225.168,226.333 239.221,226.333 239.345 C 226.333 239.689,255.702 268.997,256.049 268.998 C 256.366 269.000,400.000 125.495,400.000 125.177 C 400.000 124.988,361.017 86.000,360.828 86.000 C 360.769 86.000,353.958 92.750,345.693 101.001 " stroke="none" fill="#0474ac" fill-rule="evenodd"></path><path id="path4" d="M0.051 279.708 C 0.373 280.484,0.821 281.685,0.999 282.250 C 1.208 282.911,2.234 285.432,2.848 286.790 C 3.023 287.178,3.167 287.535,3.167 287.583 C 3.167 287.631,3.472 288.400,3.845 289.293 C 4.573 291.037,4.558 291.002,5.340 292.750 C 5.627 293.392,6.073 294.442,6.330 295.083 C 6.588 295.725,7.298 297.450,7.910 298.917 C 8.521 300.383,9.421 302.558,9.911 303.750 C 10.400 304.942,11.003 306.367,11.250 306.917 C 11.497 307.467,11.842 308.235,12.016 308.623 C 12.191 309.012,12.333 309.369,12.333 309.416 C 12.333 309.504,13.484 312.281,13.939 313.292 L 14.182 313.833 20.716 313.833 L 27.250 313.833 28.859 310.375 C 33.500 300.401,36.569 293.839,37.570 291.750 C 38.185 290.467,38.790 289.196,38.914 288.927 L 39.140 288.436 39.836 289.927 C 40.218 290.746,40.628 291.679,40.746 292.000 C 40.864 292.321,41.635 294.046,42.458 295.833 C 43.281 297.621,44.143 299.496,44.375 300.000 C 45.480 302.411,45.869 303.239,46.838 305.250 C 47.412 306.442,48.544 308.842,49.353 310.583 L 50.824 313.750 57.333 313.794 C 63.421 313.834,63.849 313.818,63.945 313.544 C 64.068 313.192,65.248 310.358,65.663 309.417 C 65.825 309.050,66.204 308.112,66.505 307.333 C 67.023 305.993,68.107 303.343,68.586 302.250 C 68.917 301.492,70.060 298.787,70.839 296.917 C 71.636 295.003,71.761 294.719,72.571 292.955 C 72.899 292.242,73.167 291.623,73.167 291.578 C 73.167 291.533,73.312 291.178,73.489 290.790 C 73.667 290.401,74.012 289.596,74.255 289.000 C 74.499 288.404,74.799 287.692,74.921 287.417 C 75.044 287.142,75.457 286.167,75.840 285.250 C 76.223 284.333,76.666 283.283,76.826 282.917 C 76.985 282.550,77.327 281.740,77.586 281.117 C 77.845 280.494,78.119 279.946,78.195 279.899 C 78.739 279.563,77.792 279.500,72.203 279.500 L 66.072 279.500 65.638 280.458 C 65.400 280.985,64.892 282.242,64.511 283.250 C 64.129 284.258,63.640 285.533,63.425 286.083 C 63.210 286.633,62.722 287.908,62.340 288.917 C 61.959 289.925,61.464 291.200,61.240 291.750 C 61.016 292.300,60.833 292.804,60.833 292.870 C 60.833 292.936,60.659 293.386,60.446 293.870 C 60.233 294.354,59.941 295.050,59.798 295.417 C 58.841 297.860,57.413 301.614,57.149 302.375 C 56.902 303.091,56.739 303.161,56.572 302.625 C 56.507 302.419,56.249 301.800,55.998 301.250 C 55.748 300.700,55.002 298.975,54.341 297.417 C 52.227 292.431,50.804 289.108,50.397 288.204 C 50.179 287.721,49.806 286.858,49.568 286.288 C 49.329 285.717,48.917 284.776,48.651 284.197 C 48.384 283.617,48.167 283.106,48.167 283.061 C 48.167 283.016,47.793 282.196,47.336 281.239 L 46.505 279.500 39.267 279.500 L 32.030 279.500 31.118 281.375 C 29.750 284.188,27.500 289.127,27.500 289.317 C 27.500 289.502,25.545 293.819,25.342 294.083 C 25.271 294.175,24.872 295.000,24.455 295.917 C 24.038 296.833,23.327 298.371,22.876 299.333 C 22.425 300.296,21.917 301.402,21.746 301.792 C 21.322 302.760,21.278 302.725,20.576 300.875 C 20.237 299.981,19.663 298.462,19.299 297.500 C 18.185 294.550,18.137 294.429,17.922 294.000 C 17.807 293.771,17.507 293.021,17.255 292.333 C 16.795 291.081,15.827 288.530,15.040 286.500 C 14.449 284.974,13.860 283.378,13.564 282.500 C 13.425 282.087,13.122 281.244,12.891 280.625 L 12.471 279.500 6.218 279.500 C 1.280 279.500,-0.017 279.544,0.051 279.708 M96.218 280.125 C 95.962 280.469,95.714 280.787,95.667 280.833 C 95.490 281.008,94.245 282.930,94.133 283.202 C 93.986 283.559,89.015 290.901,85.583 295.828 C 82.803 299.821,80.969 302.559,80.830 302.927 C 80.702 303.263,78.502 306.519,77.514 307.833 C 76.882 308.674,73.500 313.652,73.500 313.741 C 73.500 313.792,76.425 313.833,80.000 313.833 L 86.499 313.833 86.987 313.042 C 87.437 312.312,88.126 311.218,89.946 308.348 C 90.329 307.744,90.816 307.008,91.029 306.713 L 91.417 306.176 103.232 306.171 C 114.289 306.167,115.061 306.185,115.276 306.458 C 115.403 306.619,116.596 308.344,117.927 310.292 L 120.349 313.833 126.841 313.833 C 134.290 313.833,133.795 313.975,132.554 312.199 C 132.126 311.585,131.539 310.746,131.250 310.333 C 130.961 309.921,130.405 309.115,130.015 308.543 C 129.625 307.971,129.243 307.464,129.167 307.417 C 129.090 307.369,128.708 306.862,128.318 306.290 C 127.928 305.718,127.344 304.875,127.021 304.417 C 126.698 303.958,126.124 303.133,125.746 302.582 C 124.945 301.417,123.096 298.757,121.779 296.875 C 121.475 296.440,120.573 295.124,119.776 293.951 C 118.978 292.779,118.050 291.429,117.713 290.951 C 117.376 290.474,116.791 289.633,116.412 289.082 C 115.786 288.170,115.014 287.058,113.580 285.000 C 113.293 284.587,112.693 283.725,112.248 283.083 C 110.902 281.145,110.761 280.951,110.469 280.648 C 110.315 280.487,110.063 280.163,109.909 279.928 L 109.628 279.500 103.156 279.500 L 96.684 279.500 96.218 280.125 M139.667 296.667 L 139.667 313.833 145.750 313.833 L 151.833 313.833 151.833 306.641 L 151.833 299.449 155.292 299.545 C 161.146 299.709,163.105 300.412,167.006 303.746 C 167.330 304.023,167.927 304.512,168.333 304.833 C 168.739 305.154,169.337 305.645,169.661 305.924 C 169.985 306.203,170.438 306.551,170.667 306.697 C 171.155 307.008,172.670 308.314,174.083 309.643 C 175.044 310.547,176.046 311.425,177.990 313.067 L 178.897 313.833 186.115 313.833 C 190.085 313.833,193.333 313.770,193.333 313.693 C 193.333 313.616,192.677 312.953,191.875 312.219 C 186.615 307.410,184.109 305.145,183.242 304.417 C 182.696 303.958,182.213 303.542,182.167 303.491 C 181.753 303.034,178.922 301.188,177.656 300.550 C 176.049 299.740,175.810 299.636,174.167 299.025 C 173.662 298.837,173.325 298.680,173.417 298.675 C 177.300 298.454,182.419 296.982,184.871 295.379 C 188.587 292.950,189.662 288.254,187.230 285.069 C 186.920 284.663,186.667 284.268,186.667 284.191 C 186.667 283.670,183.279 281.524,181.792 281.103 C 176.721 279.669,173.887 279.502,154.625 279.501 L 139.667 279.500 139.667 296.667 M199.833 296.667 L 199.833 313.833 205.917 313.833 L 212.000 313.833 212.000 306.641 L 212.000 299.448 215.458 299.554 C 221.329 299.735,224.507 300.925,227.555 304.085 C 228.045 304.593,230.151 306.359,230.667 306.695 C 231.057 306.949,233.156 308.741,237.667 312.675 C 237.896 312.874,238.315 313.217,238.599 313.436 L 239.115 313.833 246.224 313.833 C 251.924 313.833,253.333 313.791,253.333 313.618 C 253.333 313.412,247.526 308.007,246.455 307.217 C 246.170 307.007,245.895 306.777,245.844 306.707 C 245.644 306.435,242.032 303.371,241.083 302.670 C 240.533 302.263,239.942 301.799,239.768 301.639 C 239.346 301.250,235.657 299.469,234.463 299.079 C 233.939 298.908,233.531 298.747,233.557 298.721 C 233.583 298.695,234.462 298.555,235.510 298.410 C 245.758 296.994,250.840 291.983,248.007 286.090 C 246.970 283.933,243.516 281.298,241.219 280.912 C 240.869 280.854,240.246 280.702,239.833 280.576 C 237.046 279.721,231.953 279.503,214.708 279.502 L 199.833 279.500 199.833 296.667 M259.833 296.667 L 259.833 313.833 282.583 313.833 L 305.333 313.833 305.333 310.834 L 305.333 307.835 288.708 307.792 L 272.083 307.750 272.083 303.250 L 272.083 298.750 287.042 298.707 L 302.000 298.665 302.000 295.749 L 302.000 292.833 287.000 292.833 L 272.000 292.833 272.000 289.083 L 272.000 285.333 288.083 285.333 L 304.167 285.333 304.167 282.417 L 304.167 279.500 282.000 279.500 L 259.833 279.500 259.833 296.667 M315.500 296.667 L 315.500 313.833 321.165 313.833 L 326.831 313.833 326.874 302.826 L 326.917 291.818 328.417 293.102 C 330.106 294.547,331.128 295.497,334.247 298.518 C 335.440 299.674,337.617 301.729,339.083 303.085 C 340.550 304.442,341.825 305.634,341.917 305.734 C 342.008 305.835,342.721 306.454,343.500 307.110 C 344.279 307.766,346.192 309.547,347.750 311.068 L 350.583 313.833 356.708 313.833 L 362.833 313.833 362.833 296.667 L 362.833 279.500 357.167 279.500 L 351.500 279.500 351.500 290.758 C 351.500 300.916,351.475 302.002,351.240 301.871 C 351.096 301.791,349.252 300.043,347.142 297.988 C 345.031 295.932,343.217 294.219,343.111 294.182 C 342.867 294.097,335.712 287.388,333.234 284.923 C 332.218 283.911,330.837 282.596,330.167 282.000 C 329.496 281.404,328.595 280.598,328.165 280.208 L 327.382 279.500 321.441 279.500 L 315.500 279.500 315.500 296.667 M169.500 285.496 C 171.757 285.663,173.528 286.111,174.181 286.682 C 174.402 286.876,174.699 287.120,174.840 287.225 C 176.276 288.295,176.323 290.519,174.939 291.903 C 173.112 293.731,171.153 293.986,158.875 293.995 L 151.833 294.000 151.833 289.667 L 151.833 285.333 159.625 285.338 C 163.910 285.341,168.354 285.412,169.500 285.496 M229.500 285.497 C 234.554 285.870,237.156 288.091,235.852 290.917 C 234.647 293.526,232.130 293.988,219.042 293.996 L 212.000 294.000 212.000 289.667 L 212.000 285.333 219.708 285.338 C 223.948 285.341,228.354 285.412,229.500 285.497 M104.917 290.582 C 105.650 291.744,106.489 292.990,106.782 293.351 C 107.074 293.712,107.366 294.175,107.430 294.379 C 107.494 294.583,107.862 295.237,108.248 295.833 C 108.635 296.429,109.374 297.569,109.892 298.366 C 110.410 299.163,110.833 299.857,110.833 299.908 C 110.833 299.959,107.309 300.000,103.002 300.000 L 95.171 300.000 95.779 299.042 C 96.113 298.515,96.699 297.596,97.081 297.000 C 97.462 296.404,98.069 295.446,98.429 294.872 C 98.789 294.297,99.346 293.461,99.667 293.013 C 99.987 292.565,100.619 291.610,101.070 290.891 C 101.521 290.172,102.154 289.180,102.476 288.686 C 103.169 287.625,102.936 287.444,104.917 290.582 " stroke="none" fill="#040404" fill-rule="evenodd"></path></g></svg>