<svg id="svg" xmlns="http://www.w3.org/2000/svg"  width="400" height="400" viewBox="0, 0, 400,400"><g id="svgg"><path id="path0" d="M161.317 102.962 L 146.915 117.365 150.230 120.699 C 154.109 124.600,154.288 124.870,153.728 125.978 C 153.628 126.176,149.406 130.486,144.345 135.556 L 135.144 144.775 149.548 159.177 L 163.951 173.580 188.148 149.382 L 212.346 125.185 194.033 106.872 L 175.720 88.560 161.317 102.962 M346.914 102.386 L 333.088 116.213 336.979 120.123 C 341.486 124.651,341.623 124.849,341.053 125.978 C 340.953 126.176,329.480 137.745,315.557 151.687 C 296.465 170.806,290.216 177.158,290.133 177.531 C 290.050 177.904,282.540 185.510,259.374 208.683 L 228.725 239.342 242.387 253.004 L 256.049 266.667 326.790 195.926 L 397.531 125.186 379.218 106.873 C 369.146 96.800,360.869 88.560,360.823 88.560 C 360.777 88.560,354.518 94.782,346.914 102.386 M223.457 102.880 L 209.302 117.036 212.699 120.452 C 216.330 124.103,216.461 124.268,216.461 125.185 C 216.461 126.145,216.535 126.064,206.365 136.253 L 196.632 146.003 197.467 146.870 C 197.926 147.347,204.169 153.829,211.340 161.276 C 218.511 168.722,224.418 174.815,224.467 174.815 C 224.516 174.815,235.766 163.657,249.468 150.020 L 274.381 125.225 256.102 107.016 C 246.049 97.001,237.776 88.788,237.718 88.765 C 237.660 88.743,231.243 95.094,223.457 102.880 M285.966 103.087 L 271.604 117.450 274.825 120.659 C 278.640 124.459,278.946 124.937,278.337 126.143 C 278.237 126.340,273.811 130.854,268.503 136.172 L 258.850 145.842 259.672 146.642 C 260.124 147.082,266.689 153.448,274.262 160.789 L 288.029 174.135 312.576 149.685 L 337.122 125.235 318.829 107.021 C 308.768 97.003,300.489 88.788,300.432 88.765 C 300.375 88.743,293.866 95.188,285.966 103.087 M72.057 207.860 L 42.140 237.778 56.533 252.171 L 70.926 266.563 100.820 236.793 C 117.262 220.419,130.758 206.952,130.811 206.867 C 130.895 206.731,102.277 177.942,102.058 177.942 C 102.012 177.942,88.512 191.405,72.057 207.860 M118.848 223.786 L 104.445 238.189 118.683 252.428 L 132.921 266.667 147.366 252.223 L 161.811 237.778 147.614 223.581 C 139.805 215.772,133.379 209.383,133.333 209.383 C 133.288 209.383,126.769 215.864,118.848 223.786 M180.658 224.033 L 166.832 237.860 181.194 252.222 L 195.556 266.584 209.383 252.757 L 223.210 238.930 208.847 224.568 L 194.485 210.206 180.658 224.033 M0.151 279.877 C 0.577 280.984,2.583 285.831,2.978 286.706 C 3.151 287.090,3.292 287.442,3.292 287.489 C 3.292 287.571,4.389 290.225,4.857 291.276 C 4.978 291.547,5.484 292.770,5.982 293.992 C 6.480 295.214,7.380 297.399,7.981 298.848 C 9.289 302.000,10.675 305.361,11.272 306.831 C 11.511 307.420,11.851 308.215,12.026 308.599 C 12.202 308.983,12.346 309.335,12.346 309.382 C 12.346 309.469,13.482 312.212,13.931 313.210 L 14.172 313.745 20.707 313.744 L 27.243 313.743 31.927 303.580 C 34.503 297.989,36.994 292.601,37.462 291.605 C 37.929 290.609,38.475 289.435,38.674 288.996 C 38.873 288.557,39.060 288.224,39.090 288.256 C 39.134 288.301,42.281 295.103,44.486 299.918 C 44.714 300.416,45.125 301.305,45.399 301.893 C 45.673 302.481,47.013 305.370,48.376 308.313 L 50.854 313.663 57.283 313.706 C 63.297 313.746,63.719 313.730,63.814 313.459 C 63.922 313.152,65.069 310.383,65.434 309.547 C 65.762 308.799,66.891 306.127,67.660 304.280 C 68.037 303.374,68.443 302.412,68.562 302.140 C 68.889 301.392,70.019 298.719,70.788 296.872 C 71.165 295.967,71.572 295.004,71.693 294.733 C 71.813 294.461,72.221 293.498,72.598 292.593 C 72.975 291.687,73.383 290.724,73.504 290.453 C 73.625 290.181,73.921 289.477,74.162 288.889 C 74.402 288.300,74.698 287.597,74.819 287.325 C 74.940 287.053,75.348 286.091,75.726 285.185 C 76.103 284.280,76.509 283.317,76.627 283.045 C 76.745 282.774,77.138 281.866,77.500 281.029 L 78.158 279.506 72.108 279.506 L 66.058 279.506 65.641 280.535 C 65.411 281.101,64.915 282.379,64.538 283.374 C 64.160 284.370,63.678 285.630,63.465 286.173 C 63.253 286.716,62.770 287.975,62.394 288.971 C 62.017 289.967,61.536 291.226,61.324 291.770 C 61.112 292.313,60.631 293.572,60.254 294.568 C 59.877 295.564,59.396 296.823,59.184 297.366 C 58.725 298.543,57.499 301.772,57.246 302.469 C 56.953 303.277,56.814 303.307,56.530 302.622 C 56.383 302.266,56.096 301.605,55.891 301.152 C 55.687 300.700,55.056 299.255,54.489 297.942 C 53.922 296.630,53.293 295.185,53.090 294.733 C 52.887 294.280,52.257 292.835,51.691 291.523 C 51.124 290.210,50.484 288.745,50.269 288.268 C 50.054 287.790,49.685 286.938,49.450 286.375 C 49.214 285.811,48.807 284.882,48.544 284.310 C 48.281 283.737,48.066 283.240,48.066 283.203 C 48.066 283.167,47.887 282.746,47.669 282.268 C 47.451 281.790,47.085 280.972,46.855 280.451 L 46.436 279.503 39.262 279.546 L 32.087 279.588 27.678 289.136 C 25.253 294.387,23.010 299.239,22.692 299.918 C 22.375 300.597,21.941 301.542,21.727 302.018 C 21.231 303.125,21.460 303.527,19.225 297.613 C 18.866 296.663,18.472 295.626,18.349 295.309 C 18.029 294.486,16.280 289.885,14.813 286.008 C 14.083 284.080,14.053 284.000,12.990 281.276 L 12.300 279.506 6.154 279.506 L 0.008 279.506 0.151 279.877 M96.597 279.794 C 96.463 279.953,95.762 280.971,95.039 282.058 C 94.317 283.144,92.920 285.218,91.937 286.667 C 90.954 288.115,89.310 290.541,88.284 292.058 C 87.259 293.574,85.580 296.056,84.555 297.572 C 83.529 299.088,81.838 301.588,80.798 303.128 C 75.829 310.480,74.960 311.759,74.281 312.716 L 73.551 313.745 79.990 313.745 L 86.428 313.745 86.876 312.993 C 87.123 312.580,87.666 311.710,88.084 311.059 C 89.246 309.248,90.259 307.653,90.793 306.796 L 91.276 306.020 103.210 306.021 L 115.144 306.022 117.695 309.822 C 119.099 311.911,120.321 313.650,120.412 313.685 C 120.503 313.720,123.449 313.729,126.959 313.706 L 133.341 313.663 132.545 312.510 C 132.107 311.877,131.489 310.988,131.173 310.535 C 130.630 309.757,129.972 308.812,128.252 306.337 C 127.843 305.749,127.249 304.897,126.932 304.444 C 126.614 303.992,126.035 303.156,125.644 302.588 C 125.253 302.019,124.690 301.204,124.391 300.777 C 123.874 300.035,123.138 298.978,121.503 296.626 C 121.095 296.037,120.515 295.204,120.215 294.774 C 119.916 294.344,119.426 293.640,119.126 293.210 C 118.827 292.780,118.220 291.909,117.777 291.276 C 117.334 290.642,116.666 289.679,116.292 289.135 C 115.672 288.233,114.894 287.111,113.495 285.103 C 113.211 284.695,112.618 283.844,112.178 283.210 C 111.738 282.576,111.120 281.687,110.805 281.235 C 110.490 280.782,110.083 280.208,109.900 279.959 L 109.568 279.506 103.204 279.506 C 97.347 279.506,96.822 279.529,96.597 279.794 M139.753 296.626 L 139.753 313.745 145.761 313.745 L 151.770 313.745 151.770 306.559 L 151.770 299.374 155.267 299.471 C 161.310 299.639,163.211 300.306,167.084 303.618 C 167.404 303.891,167.993 304.374,168.392 304.691 C 168.999 305.174,172.267 307.967,176.296 311.449 C 176.794 311.880,177.605 312.572,178.097 312.988 L 178.993 313.745 186.163 313.740 L 193.333 313.735 192.409 312.876 C 190.535 311.134,184.581 305.711,183.704 304.946 C 182.110 303.556,181.999 303.467,180.573 302.433 C 179.802 301.874,178.465 301.060,177.603 300.626 C 175.930 299.782,175.657 299.665,173.992 299.071 C 173.403 298.861,173.033 298.671,173.169 298.648 C 173.305 298.625,174.416 298.463,175.638 298.288 C 184.107 297.073,188.477 293.922,188.477 289.031 C 188.477 285.439,185.598 282.439,180.685 280.910 C 176.762 279.690,173.411 279.510,154.609 279.508 L 139.753 279.506 139.753 296.626 M199.835 296.626 L 199.835 313.745 205.844 313.745 L 211.852 313.745 211.852 306.559 L 211.852 299.373 215.432 299.477 C 222.317 299.676,223.249 300.114,230.947 306.772 C 231.173 306.968,232.284 307.925,233.416 308.898 C 235.254 310.479,236.418 311.486,237.695 312.600 C 237.922 312.798,238.337 313.137,238.619 313.354 L 239.130 313.748 246.245 313.705 L 253.360 313.663 250.095 310.668 C 248.300 309.021,246.568 307.428,246.247 307.129 C 241.558 302.759,238.220 300.520,234.418 299.193 C 233.747 298.958,233.174 298.743,233.145 298.714 C 233.116 298.685,234.221 298.501,235.600 298.304 C 239.725 297.715,242.396 296.885,244.583 295.515 C 250.284 291.943,249.839 285.342,243.680 282.110 C 239.229 279.775,236.274 279.510,214.691 279.508 L 199.835 279.506 199.835 296.626 M259.918 296.626 L 259.918 313.745 282.551 313.745 L 305.185 313.745 305.185 310.865 L 305.185 307.985 288.601 307.943 L 272.016 307.901 272.016 303.292 L 272.016 298.683 286.955 298.641 L 301.893 298.599 301.893 295.719 L 301.893 292.840 286.914 292.840 L 271.934 292.840 271.934 289.053 L 271.934 285.267 287.984 285.267 L 304.033 285.267 304.033 282.387 L 304.033 279.506 281.975 279.506 L 259.918 279.506 259.918 296.626 M315.556 296.626 L 315.556 313.745 321.152 313.745 L 326.749 313.745 326.749 302.622 L 326.749 291.499 327.173 291.832 C 327.406 292.015,328.572 293.082,329.765 294.203 C 330.958 295.323,334.156 298.303,336.872 300.825 C 339.588 303.346,342.255 305.827,342.798 306.338 C 343.342 306.849,344.416 307.849,345.185 308.559 C 345.955 309.270,346.659 309.931,346.750 310.028 C 346.841 310.126,347.777 311.002,348.831 311.975 L 350.746 313.745 356.772 313.745 L 362.798 313.745 362.798 296.626 L 362.798 279.506 357.203 279.506 L 351.607 279.506 351.565 290.896 L 351.523 302.286 343.210 294.488 C 338.638 290.199,334.416 286.235,333.827 285.677 C 333.239 285.120,332.131 284.078,331.365 283.361 C 330.600 282.644,329.378 281.485,328.649 280.785 L 327.325 279.512 321.440 279.509 L 315.556 279.506 315.556 296.626 M169.547 285.428 C 174.339 285.780,176.744 287.657,175.988 290.454 C 175.179 293.449,172.623 293.977,158.889 293.987 L 151.770 293.992 151.770 289.630 L 151.770 285.267 159.630 285.272 C 163.953 285.275,168.416 285.345,169.547 285.428 M229.630 285.429 C 234.677 285.802,237.238 288.054,235.903 290.947 C 234.707 293.538,232.261 293.977,218.971 293.987 L 211.852 293.992 211.852 289.630 L 211.852 285.267 219.712 285.272 C 224.035 285.275,228.498 285.345,229.630 285.429 M104.549 289.820 C 105.366 291.104,106.921 293.518,108.559 296.049 C 108.852 296.502,109.546 297.576,110.101 298.436 L 111.110 300.000 103.184 300.043 C 98.824 300.066,95.229 300.058,95.195 300.024 C 95.140 299.969,95.669 299.099,97.613 296.046 C 97.930 295.549,98.665 294.383,99.247 293.456 C 99.829 292.528,100.686 291.177,101.151 290.453 C 101.616 289.728,102.214 288.786,102.480 288.359 L 102.963 287.582 103.292 287.973 C 103.473 288.188,104.039 289.019,104.549 289.820 " stroke="none" fill-rule="evenodd"></path></g></svg>