<svg id="svg" xmlns="http://www.w3.org/2000/svg"  width="400" height="400" viewBox="0, 0, 400,400"><g id="svgg"><path id="path0" d="M18.814 172.726 C 6.376 176.959,0.409 185.949,0.409 200.459 L 0.409 207.139 1.714 205.512 C 4.999 201.415,9.553 197.982,13.692 196.484 C 15.946 195.668,16.237 195.417,17.274 193.401 C 20.005 188.088,22.839 186.921,33.027 186.916 L 40.900 186.912 40.938 185.992 C 40.972 185.179,40.951 172.463,40.914 171.677 C 40.906 171.508,36.805 171.378,31.800 171.387 L 22.699 171.404 18.814 172.726 M381.108 171.585 C 380.990 171.702,379.533 172.174,377.870 172.632 C 370.066 174.782,363.568 180.835,360.434 188.877 C 359.444 191.415,359.355 192.186,359.209 199.387 L 359.052 207.157 360.201 205.726 C 363.955 201.046,368.296 197.761,372.460 196.449 C 374.530 195.796,374.773 195.583,375.709 193.605 C 378.198 188.343,380.915 187.169,391.207 186.912 L 399.387 186.708 399.498 179.039 L 399.609 171.370 390.466 171.370 C 385.437 171.370,381.226 171.467,381.108 171.585 M50.162 173.287 C 50.017 173.432,49.898 185.576,49.898 200.273 L 49.898 226.994 57.464 226.994 L 65.031 226.994 65.031 217.178 L 65.031 207.362 67.204 207.362 L 69.376 207.362 71.267 211.350 C 72.307 213.543,74.337 217.914,75.778 221.063 L 78.398 226.789 87.061 226.900 L 95.723 227.010 95.161 225.673 C 94.852 224.937,92.439 220.010,89.800 214.724 L 85.001 205.112 87.320 202.735 C 96.412 193.409,92.843 178.236,80.592 174.137 C 77.919 173.242,50.960 172.489,50.162 173.287 M101.534 173.272 C 100.758 173.592,100.811 210.007,101.591 212.937 C 107.232 234.122,141.601 233.752,147.025 212.448 C 147.557 210.359,147.640 207.067,147.550 191.589 L 147.444 173.211 139.673 173.211 L 131.902 173.211 131.671 190.798 C 131.513 202.805,131.284 208.857,130.948 209.873 C 128.830 216.292,121.371 217.093,118.405 211.222 L 117.178 208.793 116.973 191.002 L 116.769 173.211 109.407 173.136 C 105.358 173.095,101.815 173.156,101.534 173.272 M157.362 173.445 C 156.692 173.838,156.646 175.562,156.646 200.429 L 156.646 226.994 175.061 226.994 L 193.476 226.994 193.364 220.143 L 193.252 213.292 182.515 213.183 L 171.779 213.074 171.779 210.021 L 171.779 206.967 182.106 206.858 L 192.434 206.748 192.434 199.796 L 192.434 192.843 182.413 192.750 C 176.902 192.700,172.255 192.654,172.086 192.648 C 171.917 192.643,171.779 191.350,171.779 189.775 L 171.779 186.912 182.627 186.912 L 193.476 186.912 193.364 180.061 L 193.252 173.211 175.665 173.118 C 164.222 173.058,157.828 173.173,157.362 173.445 M202.965 173.277 C 202.564 173.439,202.454 179.217,202.454 200.239 L 202.454 226.994 210.429 226.994 L 218.405 226.994 218.405 216.973 L 218.405 206.953 224.949 206.953 L 231.493 206.953 231.493 216.973 L 231.493 226.994 239.468 226.994 L 247.444 226.994 247.444 200.212 L 247.444 173.431 246.503 173.195 C 245.986 173.065,242.443 173.015,238.630 173.085 L 231.697 173.211 231.588 182.924 C 231.505 190.273,231.355 192.643,230.974 192.660 C 230.516 192.679,219.432 192.668,218.712 192.647 C 218.543 192.642,218.405 188.334,218.405 183.074 L 218.405 173.511 217.485 173.264 C 216.386 172.970,203.699 172.981,202.965 173.277 M271.861 173.283 C 271.363 174.091,252.753 226.714,252.910 226.871 C 253.146 227.107,268.405 227.029,268.645 226.790 C 268.794 226.643,269.382 225.018,269.951 223.180 L 270.986 219.836 277.686 219.836 L 284.386 219.836 285.457 223.313 L 286.528 226.789 294.593 226.900 C 299.029 226.961,302.658 226.944,302.658 226.862 C 302.658 226.780,302.275 225.626,301.805 224.297 C 301.336 222.968,300.243 219.857,299.377 217.382 C 298.510 214.908,296.578 209.479,295.083 205.317 C 293.588 201.155,291.196 194.438,289.768 190.389 C 284.568 175.639,283.867 173.710,283.621 173.463 C 283.232 173.072,272.096 172.902,271.861 173.283 M305.197 192.945 L 305.317 212.883 306.832 216.055 C 309.640 221.936,312.919 224.929,318.506 226.709 C 332.210 231.075,344.581 227.032,349.549 216.564 C 351.621 212.199,351.738 210.849,351.738 191.374 L 351.738 173.452 350.409 173.211 C 349.678 173.078,346.135 173.023,342.536 173.090 L 335.992 173.211 335.787 190.798 L 335.583 208.384 334.356 210.838 C 331.482 216.586,325.264 216.795,322.341 211.241 L 321.268 209.202 321.149 191.425 C 321.060 178.077,320.907 173.569,320.536 173.333 C 320.263 173.160,316.674 173.016,312.559 173.012 L 305.076 173.006 305.197 192.945 M75.479 187.916 C 78.600 191.037,76.100 193.456,69.753 193.456 L 65.031 193.456 65.031 190.184 L 65.031 186.912 69.753 186.912 C 74.221 186.912,74.529 186.966,75.479 187.916 M280.754 205.010 L 281.347 206.953 277.892 206.953 C 275.633 206.953,274.438 206.796,274.438 206.499 C 274.438 205.970,277.287 196.707,277.623 196.142 C 277.823 195.806,278.720 198.346,280.754 205.010 M19.223 198.597 C 8.186 201.519,0.409 211.897,0.409 223.700 L 0.409 226.994 7.932 226.994 C 16.327 226.994,15.948 227.136,15.955 223.995 C 15.963 220.630,18.985 215.928,22.252 214.198 C 23.761 213.398,24.740 213.290,32.175 213.097 C 36.712 212.980,40.524 212.784,40.645 212.662 C 40.766 212.541,40.889 209.228,40.919 205.300 L 40.974 198.160 31.223 198.081 C 23.783 198.020,20.939 198.143,19.223 198.597 M377.914 198.613 C 366.711 201.620,359.100 211.721,359.100 223.583 L 359.100 226.994 366.667 226.994 L 374.233 226.994 374.238 225.665 C 374.250 222.372,375.931 218.400,378.192 216.323 C 381.325 213.445,381.854 213.311,391.002 213.088 L 399.387 212.883 399.498 205.419 L 399.609 197.955 389.887 197.982 C 382.672 198.002,379.583 198.165,377.914 198.613 " stroke="none" fill="#EC1B24" fill-rule="evenodd"></path></g></svg>