<svg id="svg" version="1.1" xmlns="http://www.w3.org/2000/svg"  width="400" height="400" viewBox="0, 0, 400,400"><g id="svgg"><path id="path0" d="M16.083 166.731 C 12.211 167.676,9.912 170.708,9.249 175.750 C 9.104 176.850,8.843 178.762,8.669 180.000 C 8.494 181.237,8.162 183.637,7.930 185.333 C 7.698 187.029,7.322 189.767,7.095 191.417 C 6.868 193.067,6.492 195.804,6.259 197.500 C 6.027 199.196,5.497 203.058,5.082 206.083 C 4.667 209.108,4.137 212.971,3.906 214.667 C 3.267 219.338,2.844 222.401,2.576 224.297 C 1.983 228.486,2.706 230.849,5.046 232.374 C 6.780 233.504,3.954 233.417,38.583 233.417 L 70.083 233.417 71.333 232.817 C 72.938 232.046,74.161 231.068,75.081 229.819 C 76.352 228.092,76.453 227.672,77.577 219.417 C 78.237 214.566,78.823 210.316,79.173 207.833 C 79.348 206.596,79.720 203.858,80.000 201.750 C 80.280 199.642,80.653 196.904,80.828 195.667 C 81.137 193.488,81.521 190.693,82.418 184.083 C 82.654 182.342,82.991 179.904,83.167 178.667 C 83.791 174.262,83.880 173.316,83.776 172.206 C 83.572 170.020,82.116 168.005,80.036 167.030 L 79.083 166.583 56.383 166.539 L 33.683 166.494 33.595 167.039 C 33.467 167.825,33.085 170.542,32.500 174.833 C 32.218 176.896,31.843 179.633,31.666 180.917 C 31.489 182.200,31.115 184.938,30.835 187.000 C 30.221 191.514,30.023 192.909,29.894 193.625 L 29.796 194.167 32.648 194.167 C 34.217 194.167,35.500 194.144,35.500 194.117 C 35.500 194.089,35.801 191.895,36.169 189.242 C 36.860 184.250,37.357 180.634,38.079 175.333 C 39.146 167.493,39.205 167.159,39.488 167.379 C 40.031 167.802,51.347 177.301,54.000 179.561 C 54.779 180.225,58.304 183.198,61.833 186.167 C 65.362 189.137,69.002 192.208,69.920 192.991 C 70.839 193.775,73.110 195.688,74.967 197.241 C 78.162 199.914,78.326 200.080,78.046 200.343 C 77.883 200.497,76.438 201.507,74.833 202.590 C 71.892 204.575,70.956 205.210,63.833 210.055 C 59.456 213.033,56.438 215.084,53.042 217.388 C 47.449 221.183,45.793 222.307,43.917 223.583 C 39.875 226.333,37.684 227.820,34.833 229.747 C 33.229 230.832,31.569 231.970,31.144 232.276 C 30.209 232.951,30.155 232.957,30.250 232.375 C 30.292 232.123,30.518 230.492,30.754 228.750 C 30.989 227.008,31.363 224.271,31.583 222.667 C 32.199 218.188,32.951 212.736,33.414 209.382 C 33.645 207.713,33.833 206.232,33.833 206.090 C 33.833 205.862,32.854 205.833,25.083 205.833 C 18.385 205.833,16.333 205.786,16.333 205.633 C 16.333 205.523,16.630 203.292,16.993 200.675 C 17.356 198.058,18.031 193.142,18.493 189.750 C 18.955 186.358,19.521 182.233,19.750 180.583 C 20.913 172.223,21.667 166.729,21.667 166.621 C 21.667 166.420,16.979 166.513,16.083 166.731 M47.864 191.042 C 47.750 191.981,47.611 193.069,47.556 193.458 L 47.456 194.167 50.680 194.167 C 53.382 194.167,53.865 194.131,53.661 193.944 C 53.090 193.423,48.186 189.333,48.132 189.333 C 48.099 189.333,47.979 190.102,47.864 191.042 M45.773 206.375 C 45.587 207.409,45.306 210.028,45.374 210.096 C 45.434 210.156,51.180 206.342,51.575 205.979 C 51.666 205.895,50.482 205.833,48.802 205.833 L 45.870 205.833 45.773 206.375 " stroke="none" fill="#e30404" fill-rule="evenodd"></path><path id="path1" d="M16.333 164.106 C 16.196 164.150,15.596 164.340,15.000 164.528 C 11.322 165.691,8.095 169.007,7.326 172.417 C 7.149 173.199,6.500 177.632,6.007 181.417 C 5.816 182.883,5.476 185.396,5.251 187.000 C 5.026 188.604,4.648 191.342,4.409 193.083 C 4.171 194.825,3.797 197.525,3.578 199.083 C 3.359 200.642,3.024 203.117,2.832 204.583 C 2.641 206.050,2.304 208.525,2.084 210.083 C 1.864 211.642,1.491 214.342,1.255 216.083 C 1.020 217.825,0.640 220.487,0.411 222.000 C -0.797 229.992,0.770 233.773,6.033 235.566 L 7.316 236.003 38.700 235.960 L 70.083 235.917 71.167 235.519 C 75.568 233.901,78.718 230.174,79.096 226.135 C 79.142 225.648,79.362 223.975,79.585 222.417 C 79.808 220.858,80.179 218.214,80.410 216.541 C 81.112 211.443,81.637 207.680,81.926 205.667 C 82.077 204.612,82.263 203.112,82.338 202.333 C 82.413 201.554,82.630 200.017,82.820 198.917 C 83.010 197.817,83.163 196.729,83.162 196.500 C 83.160 196.271,83.351 194.771,83.587 193.167 C 84.163 189.244,84.737 185.145,85.162 181.917 C 85.355 180.450,85.708 177.958,85.947 176.379 C 86.568 172.280,86.328 170.382,84.898 168.083 C 84.379 167.250,82.886 165.667,82.619 165.667 C 82.541 165.667,82.239 165.495,81.947 165.285 C 81.655 165.076,81.154 164.807,80.833 164.688 C 78.931 163.983,79.717 164.004,55.067 164.002 L 31.551 164.000 31.276 165.659 C 31.124 166.572,31.001 167.528,31.002 167.784 C 31.004 168.040,30.819 169.487,30.592 171.000 C 30.094 174.317,29.111 181.418,28.156 188.583 C 27.721 191.851,27.165 195.652,27.053 196.125 L 26.964 196.500 32.298 196.500 L 37.632 196.500 37.820 195.042 C 37.923 194.240,38.192 192.271,38.417 190.667 C 38.643 189.063,39.019 186.362,39.254 184.667 C 39.488 182.971,39.829 180.571,40.010 179.333 C 40.191 178.096,40.338 176.904,40.336 176.685 C 40.335 176.467,40.492 175.292,40.686 174.074 L 41.039 171.861 42.978 173.477 C 44.044 174.366,45.095 175.241,45.312 175.422 C 45.530 175.602,45.830 175.869,45.979 176.014 C 46.128 176.159,47.487 177.312,49.000 178.575 C 50.512 179.838,51.938 181.032,52.168 181.228 C 52.398 181.423,52.998 181.919,53.502 182.329 C 54.408 183.067,54.783 183.398,55.539 184.125 C 55.753 184.331,56.020 184.500,56.131 184.500 C 56.242 184.500,56.333 184.560,56.333 184.633 C 56.333 184.707,57.097 185.400,58.031 186.175 C 58.965 186.950,60.558 188.286,61.573 189.145 C 62.587 190.004,63.717 190.961,64.083 191.271 C 64.450 191.581,64.862 191.936,65.000 192.060 C 65.137 192.184,66.412 193.246,67.833 194.419 C 69.254 195.593,70.544 196.672,70.700 196.818 C 70.856 196.964,71.081 197.162,71.200 197.259 C 72.205 198.075,74.180 199.839,74.182 199.921 C 74.184 200.023,73.018 200.923,72.463 201.248 C 72.305 201.341,71.306 202.017,70.243 202.750 C 69.180 203.483,68.132 204.196,67.913 204.333 C 67.695 204.471,66.417 205.333,65.073 206.250 C 63.729 207.167,62.019 208.333,61.273 208.841 C 60.527 209.350,58.878 210.475,57.609 211.341 C 56.339 212.208,55.125 213.029,54.911 213.167 C 54.697 213.304,53.649 214.017,52.584 214.750 C 51.518 215.483,50.520 216.158,50.365 216.250 C 49.701 216.643,48.412 217.575,48.361 217.699 C 48.331 217.773,48.245 217.833,48.172 217.833 C 48.098 217.833,47.572 218.152,47.003 218.542 C 45.821 219.350,45.508 219.561,44.485 220.233 C 44.081 220.499,43.725 220.780,43.694 220.858 C 43.664 220.936,43.579 221.000,43.505 221.000 C 43.432 221.000,42.905 221.319,42.336 221.708 C 41.767 222.098,41.127 222.529,40.914 222.667 C 40.701 222.804,39.865 223.370,39.055 223.924 C 34.831 226.814,33.476 227.699,33.396 227.618 C 33.347 227.569,33.461 226.491,33.649 225.223 C 33.837 223.954,34.182 221.529,34.416 219.833 C 35.279 213.582,35.659 210.847,36.071 207.917 C 36.303 206.267,36.515 204.598,36.542 204.208 L 36.592 203.500 27.777 203.500 L 18.961 203.500 19.056 203.042 C 19.222 202.233,20.173 195.537,21.013 189.250 C 21.197 187.875,21.501 185.737,21.689 184.500 C 21.877 183.262,22.091 181.650,22.164 180.917 C 22.238 180.183,22.458 178.496,22.655 177.167 C 22.851 175.838,23.199 173.400,23.428 171.750 C 23.658 170.100,23.993 167.737,24.175 166.500 C 24.356 165.262,24.503 164.194,24.502 164.125 C 24.500 163.991,16.750 163.973,16.333 164.106 M100.171 165.125 C 100.063 165.744,99.934 166.598,99.883 167.023 L 99.791 167.797 100.521 167.920 C 103.344 168.395,103.754 170.134,102.659 177.000 C 102.491 178.054,102.307 179.367,102.250 179.917 C 102.192 180.467,102.004 181.929,101.831 183.167 C 101.658 184.404,101.437 186.054,101.341 186.834 C 101.147 188.405,100.793 189.465,100.170 190.337 C 99.429 191.377,98.068 192.378,97.084 192.607 C 96.361 192.775,96.291 192.962,95.927 195.706 L 95.822 196.502 109.531 196.459 C 123.049 196.417,123.243 196.412,123.414 196.083 C 123.509 195.900,123.730 195.538,123.904 195.280 C 125.243 193.291,127.593 187.817,127.471 186.970 C 127.411 186.553,127.097 186.451,125.004 186.167 C 124.319 186.075,123.635 185.960,123.485 185.912 C 123.291 185.850,123.146 185.985,122.992 186.371 C 121.733 189.520,119.282 191.005,115.143 191.127 L 112.370 191.208 112.441 190.396 C 112.512 189.590,113.032 185.833,113.672 181.500 C 113.855 180.262,114.004 179.025,114.003 178.750 C 114.002 178.475,114.188 177.125,114.415 175.750 C 114.643 174.375,114.830 172.959,114.831 172.604 C 114.838 170.590,116.834 168.217,118.782 167.905 L 119.481 167.794 119.576 166.855 C 119.628 166.339,119.732 165.523,119.807 165.041 C 119.882 164.560,119.906 164.128,119.861 164.083 C 119.815 164.037,115.410 164.000,110.073 164.000 L 100.368 164.000 100.171 165.125 M141.249 164.208 C 141.167 164.441,140.833 167.091,140.833 167.511 C 140.833 167.659,141.024 167.867,141.258 167.973 C 142.571 168.571,142.732 172.049,141.518 173.568 C 141.438 173.668,140.885 174.688,140.289 175.833 C 139.692 176.979,138.924 178.442,138.581 179.083 C 138.238 179.725,137.678 180.775,137.335 181.417 C 136.993 182.058,136.468 183.033,136.168 183.583 C 135.869 184.133,135.342 185.108,134.997 185.750 C 134.652 186.392,134.100 187.393,133.769 187.974 C 133.438 188.556,133.167 189.090,133.167 189.160 C 133.167 189.925,129.924 192.289,128.229 192.760 L 127.208 193.043 127.021 194.179 C 126.918 194.803,126.833 195.581,126.833 195.907 L 126.833 196.500 134.080 196.500 L 141.327 196.500 141.412 196.125 C 141.751 194.633,141.826 194.159,141.829 193.477 L 141.833 192.705 141.121 192.598 C 139.841 192.406,139.148 191.086,139.648 189.792 L 139.825 189.333 145.246 189.333 C 150.298 189.333,150.667 189.353,150.665 189.625 C 150.655 191.229,149.724 192.415,148.330 192.599 C 147.408 192.722,147.429 192.688,147.260 194.333 C 147.209 194.838,147.119 195.531,147.061 195.875 L 146.956 196.500 157.030 196.500 L 167.103 196.500 167.320 194.965 C 167.440 194.120,167.570 193.346,167.609 193.243 C 167.651 193.135,167.223 192.927,166.578 192.742 C 164.611 192.180,162.698 189.936,162.321 187.750 C 162.196 187.025,161.835 185.549,161.241 183.333 C 161.032 182.554,160.661 181.129,160.418 180.167 C 159.729 177.447,159.185 175.382,158.741 173.800 C 158.517 173.003,158.333 172.228,158.333 172.078 C 158.333 171.928,158.177 171.230,157.987 170.527 C 157.513 168.784,156.911 166.480,156.575 165.125 L 156.296 164.000 148.810 164.000 C 142.970 164.000,141.307 164.046,141.249 164.208 M162.020 165.042 C 161.920 165.615,161.791 166.427,161.734 166.848 L 161.629 167.612 162.645 167.897 C 165.284 168.638,166.234 170.100,167.580 175.500 C 167.820 176.463,168.197 177.925,168.418 178.750 C 168.638 179.575,169.041 181.150,169.313 182.250 C 169.585 183.350,170.081 185.300,170.416 186.583 C 170.751 187.867,171.124 189.329,171.245 189.833 C 171.366 190.338,171.791 192.045,172.191 193.627 L 172.916 196.505 177.650 196.461 L 182.384 196.417 182.887 195.500 C 183.163 194.996,183.564 194.283,183.777 193.917 C 183.990 193.550,184.320 192.914,184.509 192.503 C 184.699 192.093,184.910 191.718,184.978 191.670 C 185.046 191.622,185.255 191.283,185.443 190.917 C 186.258 189.323,186.402 189.060,186.693 188.641 C 186.862 188.398,187.000 188.079,187.000 187.933 C 187.000 187.786,187.067 187.667,187.149 187.667 C 187.230 187.667,187.423 187.385,187.577 187.042 C 188.089 185.896,188.926 184.463,189.076 184.474 C 189.217 184.485,189.521 185.494,190.088 187.833 C 190.233 188.429,190.491 189.404,190.663 190.000 C 190.835 190.596,191.125 191.683,191.308 192.417 C 191.491 193.150,191.766 194.200,191.919 194.750 C 192.072 195.300,192.237 195.919,192.285 196.125 L 192.372 196.500 197.074 196.500 L 201.777 196.500 202.638 195.163 C 203.112 194.428,203.500 193.793,203.500 193.752 C 203.500 193.711,203.866 193.094,204.313 192.381 C 205.602 190.325,208.149 185.681,209.780 182.417 C 211.192 179.591,211.706 178.472,213.840 173.583 C 215.431 169.937,216.604 168.466,218.358 167.913 L 219.266 167.627 219.479 166.272 C 219.596 165.526,219.733 164.710,219.784 164.457 L 219.876 163.996 212.814 164.040 L 205.753 164.083 205.481 165.833 C 205.170 167.834,205.160 167.786,205.905 167.925 C 207.821 168.285,208.418 171.263,207.153 174.146 C 206.977 174.547,206.833 174.945,206.833 175.029 C 206.833 175.113,206.223 176.398,205.477 177.883 C 204.245 180.335,203.912 180.967,202.866 182.833 C 202.686 183.154,202.381 183.712,202.188 184.073 C 201.656 185.069,201.581 185.074,201.351 184.126 C 201.118 183.164,200.489 180.737,200.003 178.917 C 199.705 177.805,199.116 175.547,198.654 173.750 C 197.943 170.981,198.678 169.021,200.828 167.950 C 201.233 167.749,201.991 164.556,201.733 164.139 C 201.686 164.062,197.683 164.000,192.839 164.000 L 184.031 164.000 183.939 164.792 C 183.604 167.681,183.609 167.820,184.058 167.990 C 184.656 168.218,185.212 169.322,185.742 171.333 C 185.995 172.296,186.397 173.749,186.634 174.563 C 187.058 176.015,187.060 176.051,186.762 176.563 C 186.247 177.448,185.478 178.861,184.800 180.167 C 183.131 183.384,182.389 184.702,182.250 184.694 C 182.103 184.687,181.742 183.512,181.014 180.667 C 180.814 179.887,180.467 178.598,180.242 177.800 C 180.017 177.003,179.833 176.216,179.833 176.051 C 179.833 175.886,179.654 175.188,179.435 174.501 C 178.281 170.881,178.657 168.373,180.419 167.931 C 180.809 167.833,181.011 167.099,181.286 164.792 L 181.380 164.000 171.790 164.000 L 162.201 164.000 162.020 165.042 M222.362 165.118 C 221.898 167.821,221.880 167.617,222.606 167.835 C 224.522 168.410,224.979 169.883,224.440 173.750 C 224.286 174.850,223.972 177.137,223.742 178.833 C 223.511 180.529,223.173 182.929,222.990 184.167 C 222.807 185.404,222.660 186.657,222.662 186.950 C 222.686 189.850,220.307 193.000,218.093 193.000 C 217.956 193.000,217.843 193.369,217.774 194.042 C 217.715 194.615,217.619 195.402,217.561 195.792 L 217.456 196.500 227.215 196.500 L 236.974 196.500 237.067 196.042 C 237.226 195.261,237.497 193.431,237.499 193.132 C 237.500 192.941,237.270 192.778,236.806 192.639 C 234.688 192.004,233.936 189.159,234.555 184.125 L 234.693 183.000 236.625 183.000 L 238.557 183.000 239.248 183.721 C 240.020 184.527,240.317 185.565,240.661 188.667 C 240.757 189.537,240.870 190.559,240.912 190.936 C 241.155 193.135,242.272 195.136,243.700 195.927 L 244.583 196.417 250.081 196.417 L 255.578 196.417 255.688 195.583 C 256.000 193.214,256.001 192.500,255.693 192.500 C 254.659 192.500,254.036 190.909,253.596 187.140 C 253.362 185.140,253.204 184.591,252.357 182.854 C 251.948 182.015,250.686 180.749,249.804 180.292 L 249.024 179.889 250.105 179.335 C 254.585 177.037,255.927 169.833,252.471 166.631 C 251.452 165.687,250.389 165.110,248.593 164.527 L 247.250 164.091 234.903 164.039 L 222.556 163.986 222.362 165.118 M262.259 165.125 C 262.204 165.744,262.121 166.598,262.076 167.023 L 261.994 167.795 262.590 167.907 C 264.947 168.349,265.718 170.825,265.007 175.667 C 264.825 176.904,264.516 179.004,264.321 180.333 C 264.125 181.662,263.899 183.425,263.818 184.250 C 263.644 186.028,263.058 189.078,262.797 189.569 C 261.994 191.079,260.441 192.368,259.166 192.583 C 258.448 192.705,258.509 192.540,258.241 195.068 C 258.183 195.609,258.097 196.153,258.050 196.276 C 257.979 196.462,260.341 196.500,272.124 196.500 L 286.284 196.500 286.836 195.625 C 287.340 194.826,287.548 194.459,288.510 192.667 C 289.418 190.975,290.780 187.202,290.626 186.802 C 290.563 186.637,290.086 186.482,289.224 186.346 C 288.505 186.233,287.583 186.077,287.175 186.000 C 286.411 185.855,286.019 186.070,286.005 186.639 C 285.986 187.450,283.816 189.660,282.250 190.464 L 281.083 191.063 277.767 191.135 L 274.450 191.207 274.560 190.562 C 274.621 190.207,274.743 189.204,274.832 188.333 C 274.996 186.713,275.440 184.005,275.560 183.884 C 275.987 183.458,277.673 184.757,278.250 185.956 L 278.750 186.996 280.439 186.998 L 282.128 187.000 282.483 184.542 C 282.975 181.139,283.449 177.696,283.670 175.924 C 283.772 175.102,283.897 174.221,283.949 173.965 L 284.042 173.500 282.141 173.500 L 280.240 173.500 279.931 174.292 C 279.503 175.386,277.668 176.881,276.625 176.987 C 276.411 177.009,276.487 175.833,276.833 173.750 C 277.016 172.650,277.166 171.478,277.166 171.146 C 277.166 170.814,277.214 170.307,277.271 170.021 L 277.375 169.500 280.401 169.500 L 283.426 169.500 284.588 170.063 C 286.326 170.906,287.283 172.088,287.676 173.875 C 287.911 174.947,287.860 174.926,289.447 174.601 C 290.072 174.473,291.021 174.317,291.555 174.254 L 292.528 174.139 292.415 172.111 C 292.272 169.538,291.831 167.354,291.062 165.417 C 290.844 164.867,290.666 164.323,290.666 164.208 C 290.667 164.043,287.725 164.000,276.513 164.000 L 262.360 164.000 262.259 165.125 M295.358 165.458 C 295.243 166.260,295.110 167.074,295.062 167.267 C 294.989 167.566,295.092 167.649,295.780 167.839 C 298.049 168.466,298.633 169.982,298.090 173.833 C 297.954 174.796,297.650 177.008,297.414 178.750 C 297.178 180.492,296.838 182.892,296.657 184.083 C 296.477 185.275,296.330 186.528,296.331 186.867 C 296.342 189.859,294.006 193.000,291.771 193.000 C 291.604 193.000,291.155 195.434,291.164 196.292 C 291.166 196.455,292.725 196.500,298.399 196.500 L 305.631 196.500 305.721 196.125 C 305.929 195.258,306.217 192.994,306.129 192.907 C 306.077 192.855,305.654 192.712,305.188 192.589 C 304.109 192.304,303.476 191.784,303.025 190.810 C 302.495 189.666,302.481 189.852,303.758 181.083 C 303.985 179.525,304.170 178.025,304.169 177.750 L 304.168 177.250 304.578 177.750 C 304.804 178.025,304.991 178.314,304.994 178.393 C 304.997 178.471,305.169 178.743,305.375 178.997 C 305.581 179.250,305.900 179.709,306.083 180.016 C 306.267 180.322,306.567 180.806,306.750 181.091 C 306.933 181.375,307.266 181.922,307.489 182.304 C 307.712 182.687,307.956 183.000,308.031 183.000 C 308.105 183.000,308.167 183.086,308.167 183.191 C 308.167 183.393,309.251 185.098,309.617 185.470 C 309.736 185.591,309.833 185.759,309.833 185.844 C 309.833 185.928,310.162 186.476,310.563 187.063 C 310.964 187.649,311.321 188.193,311.355 188.273 C 311.389 188.352,311.836 189.054,312.348 189.833 C 312.860 190.612,313.722 191.925,314.265 192.750 C 314.807 193.575,315.280 194.325,315.318 194.417 C 315.355 194.508,315.561 194.815,315.776 195.099 C 315.991 195.383,316.167 195.690,316.167 195.782 C 316.167 196.444,316.602 196.500,321.781 196.500 L 326.785 196.500 326.984 194.958 C 327.094 194.110,327.363 192.142,327.583 190.583 C 327.803 189.025,328.139 186.588,328.331 185.167 C 329.393 177.270,330.143 172.120,330.356 171.250 C 330.737 169.697,332.221 168.335,333.963 167.941 L 334.917 167.725 335.016 166.487 C 335.070 165.807,335.172 164.969,335.243 164.625 L 335.370 164.000 328.039 164.000 L 320.708 164.000 320.432 165.773 C 320.281 166.748,320.177 167.562,320.203 167.583 C 320.229 167.605,320.639 167.749,321.115 167.904 C 323.010 168.523,323.677 169.982,323.358 172.816 C 322.945 176.490,322.433 179.506,322.274 179.206 C 321.945 178.585,318.586 173.580,318.463 173.528 C 318.392 173.497,318.333 173.404,318.333 173.321 C 318.333 173.238,317.996 172.677,317.583 172.074 C 317.171 171.472,316.833 170.955,316.833 170.925 C 316.833 170.896,316.515 170.407,316.125 169.839 C 315.735 169.272,315.341 168.682,315.248 168.529 C 315.156 168.375,314.783 167.800,314.420 167.250 C 313.678 166.125,313.633 166.056,312.861 164.861 L 312.305 164.000 303.936 164.000 L 295.567 164.000 295.358 165.458 M346.908 164.569 C 343.232 165.894,337.500 169.792,337.500 170.966 C 337.500 171.076,337.439 171.167,337.365 171.167 C 337.124 171.167,335.864 173.137,335.152 174.627 C 333.059 179.008,332.905 185.686,334.821 188.934 C 335.011 189.256,335.167 189.590,335.167 189.676 C 335.167 190.596,338.382 193.787,340.500 194.968 C 342.134 195.880,343.230 196.279,345.250 196.698 C 351.549 198.006,358.352 195.920,362.875 191.295 C 364.651 189.479,364.653 189.459,363.226 187.652 C 362.077 186.198,361.978 186.145,361.406 186.679 C 361.217 186.856,360.982 187.000,360.885 187.000 C 360.787 187.000,360.620 187.105,360.513 187.234 C 359.701 188.213,355.708 188.947,353.250 188.569 C 351.335 188.275,349.154 187.003,348.276 185.667 C 347.351 184.260,347.010 183.608,346.579 182.423 C 345.645 179.854,346.111 174.943,347.427 173.488 C 347.559 173.343,347.667 173.153,347.667 173.066 C 347.667 172.927,348.434 172.106,349.167 171.461 C 351.118 169.743,354.905 169.986,356.939 171.960 C 358.085 173.072,359.662 175.762,359.669 176.618 C 359.677 177.475,359.626 177.478,365.042 176.295 L 366.667 175.940 366.667 173.011 C 366.667 169.826,366.302 167.685,365.466 165.961 C 365.031 165.065,365.016 165.061,363.375 165.445 L 362.166 165.728 361.208 165.290 C 358.304 163.962,358.532 163.999,353.222 164.013 L 348.417 164.025 346.908 164.569 M369.941 165.041 C 369.883 165.614,369.789 166.467,369.732 166.936 L 369.629 167.789 370.204 167.897 C 370.917 168.031,372.076 169.001,372.487 169.810 C 373.189 171.189,373.207 171.539,372.745 174.750 C 372.508 176.400,372.130 179.100,371.905 180.750 C 371.074 186.838,370.663 189.153,370.298 189.795 C 369.544 191.122,368.153 192.244,366.854 192.575 L 366.083 192.771 365.980 193.927 C 365.923 194.563,365.819 195.402,365.750 195.792 L 365.624 196.500 379.781 196.500 L 393.939 196.500 394.344 195.804 C 394.567 195.422,394.916 194.840,395.119 194.513 C 395.651 193.655,396.654 191.697,396.916 191.007 C 397.616 189.165,398.333 187.082,398.333 186.895 C 398.333 186.639,397.538 186.407,395.833 186.168 C 395.146 186.072,394.453 185.952,394.293 185.902 C 394.088 185.838,393.942 185.950,393.797 186.281 C 392.992 188.115,391.700 189.511,389.961 190.427 L 388.750 191.065 385.349 191.137 C 382.344 191.201,381.959 191.180,382.046 190.955 C 382.100 190.814,382.220 190.111,382.313 189.391 C 383.126 183.121,382.980 183.512,384.252 184.184 C 385.434 184.808,386.167 185.767,386.167 186.687 C 386.167 187.148,389.595 187.169,389.729 186.708 C 389.775 186.548,389.972 185.329,390.166 184.000 C 391.164 177.166,391.327 176.001,391.419 175.030 C 391.474 174.451,391.560 173.870,391.611 173.739 C 391.687 173.540,391.383 173.500,389.799 173.500 L 387.896 173.500 387.536 174.292 C 386.997 175.477,385.934 176.486,384.974 176.723 C 384.730 176.783,384.429 176.871,384.305 176.919 C 384.015 177.030,384.114 175.757,384.676 172.115 L 385.083 169.481 388.167 169.532 C 391.584 169.589,392.342 169.786,393.690 170.969 C 394.399 171.592,395.332 173.277,395.336 173.940 C 395.341 174.865,395.482 174.922,397.028 174.619 C 397.792 174.469,398.782 174.300,399.229 174.243 L 400.041 174.140 399.952 171.778 C 399.861 169.370,399.487 167.583,398.531 165.000 L 398.192 164.083 384.119 164.041 L 370.046 163.998 369.941 165.041 M21.667 166.621 C 21.667 166.729,20.913 172.223,19.750 180.583 C 19.521 182.233,18.955 186.358,18.493 189.750 C 18.031 193.142,17.356 198.058,16.993 200.675 C 16.630 203.292,16.333 205.523,16.333 205.633 C 16.333 205.786,18.385 205.833,25.083 205.833 C 32.854 205.833,33.833 205.862,33.833 206.090 C 33.833 206.232,33.645 207.713,33.414 209.382 C 32.951 212.736,32.199 218.188,31.583 222.667 C 31.363 224.271,30.989 227.008,30.754 228.750 C 30.518 230.492,30.292 232.123,30.250 232.375 C 30.155 232.957,30.209 232.951,31.144 232.276 C 31.569 231.970,33.229 230.832,34.833 229.747 C 37.684 227.820,39.875 226.333,43.917 223.583 C 45.793 222.307,47.449 221.183,53.042 217.388 C 56.438 215.084,59.456 213.033,63.833 210.055 C 70.956 205.210,71.892 204.575,74.833 202.590 C 76.438 201.507,77.883 200.497,78.046 200.343 C 78.326 200.080,78.162 199.914,74.967 197.241 C 73.110 195.688,70.839 193.775,69.920 192.991 C 69.002 192.208,65.362 189.137,61.833 186.167 C 58.304 183.198,54.779 180.225,54.000 179.561 C 51.347 177.301,40.031 167.802,39.488 167.379 C 39.205 167.159,39.146 167.493,38.079 175.333 C 37.357 180.634,36.860 184.250,36.169 189.242 C 35.801 191.895,35.500 194.089,35.500 194.117 C 35.500 194.144,34.217 194.167,32.648 194.167 L 29.796 194.167 29.894 193.625 C 30.023 192.909,30.221 191.514,30.835 187.000 C 31.115 184.938,31.489 182.200,31.666 180.917 C 31.843 179.633,32.218 176.896,32.500 174.833 C 33.085 170.542,33.467 167.825,33.595 167.039 L 33.683 166.494 56.383 166.539 L 79.083 166.583 80.036 167.030 C 82.116 168.005,83.572 170.020,83.776 172.206 C 83.880 173.316,83.791 174.262,83.167 178.667 C 82.991 179.904,82.654 182.342,82.418 184.083 C 81.521 190.693,81.137 193.488,80.828 195.667 C 80.653 196.904,80.280 199.642,80.000 201.750 C 79.720 203.858,79.348 206.596,79.173 207.833 C 78.823 210.316,78.237 214.566,77.577 219.417 C 76.453 227.672,76.352 228.092,75.081 229.819 C 74.161 231.068,72.938 232.046,71.333 232.817 L 70.083 233.417 38.583 233.417 C 3.954 233.417,6.780 233.504,5.046 232.374 C 2.706 230.849,1.983 228.486,2.576 224.297 C 2.844 222.401,3.267 219.338,3.906 214.667 C 4.137 212.971,4.667 209.108,5.082 206.083 C 5.497 203.058,6.027 199.196,6.259 197.500 C 6.492 195.804,6.868 193.067,7.095 191.417 C 7.322 189.767,7.698 187.029,7.930 185.333 C 8.162 183.637,8.494 181.237,8.669 180.000 C 8.843 178.762,9.104 176.850,9.249 175.750 C 9.912 170.708,12.211 167.676,16.083 166.731 C 16.979 166.513,21.667 166.420,21.667 166.621 M240.976 169.411 C 242.853 170.410,242.388 175.666,240.290 177.152 C 239.335 177.829,235.503 178.360,235.498 177.816 C 235.496 177.515,235.913 174.395,236.362 171.358 L 236.715 168.966 238.566 169.039 C 239.912 169.093,240.569 169.194,240.976 169.411 M147.329 176.417 C 147.329 176.600,147.511 177.387,147.734 178.167 C 147.957 178.946,148.341 180.371,148.587 181.333 C 148.833 182.296,149.069 183.215,149.112 183.375 C 149.183 183.645,148.956 183.667,146.011 183.667 C 144.263 183.667,142.833 183.625,142.833 183.574 C 142.833 183.524,143.072 183.055,143.363 182.533 C 144.036 181.329,145.266 179.045,145.536 178.500 C 146.867 175.813,147.327 175.278,147.329 176.417 M46.267 184.805 C 46.220 184.881,46.136 185.463,46.080 186.097 C 46.024 186.731,45.801 188.450,45.583 189.917 C 45.366 191.383,45.105 193.245,45.004 194.053 C 44.903 194.861,44.777 195.742,44.723 196.011 L 44.625 196.500 52.396 196.500 C 56.713 196.500,60.167 196.435,60.167 196.354 C 60.167 196.274,59.190 195.406,57.995 194.425 C 56.801 193.445,55.657 192.473,55.454 192.267 C 55.250 192.061,53.733 190.774,52.083 189.407 C 50.433 188.041,48.988 186.831,48.871 186.719 C 48.754 186.607,48.211 186.164,47.663 185.733 C 47.115 185.303,46.667 184.887,46.667 184.809 C 46.667 184.626,46.379 184.624,46.267 184.805 M50.804 191.527 C 52.241 192.734,53.526 193.821,53.661 193.944 C 53.865 194.131,53.382 194.167,50.680 194.167 L 47.456 194.167 47.556 193.458 C 47.611 193.069,47.750 191.981,47.864 191.042 C 47.979 190.102,48.099 189.333,48.132 189.333 C 48.164 189.333,49.367 190.321,50.804 191.527 M43.669 203.875 C 43.670 204.081,43.485 205.487,43.257 207.000 C 41.864 216.234,41.856 215.645,43.368 214.547 C 44.271 213.891,44.921 213.441,45.603 213.000 C 45.816 212.862,46.859 212.150,47.922 211.417 C 48.985 210.683,49.982 210.008,50.137 209.917 C 50.672 209.601,52.917 208.086,53.000 207.985 C 53.071 207.898,53.784 207.412,54.808 206.750 C 56.418 205.710,59.333 203.661,59.333 203.569 C 59.333 203.531,55.808 203.500,51.500 203.500 L 43.667 203.500 43.669 203.875 M94.928 203.693 C 94.579 204.765,94.398 206.867,94.649 206.945 C 97.348 207.783,98.238 209.554,97.755 213.133 C 97.312 216.412,96.701 220.767,96.252 223.833 C 96.017 225.438,95.827 226.955,95.829 227.205 C 95.847 229.101,93.147 232.167,91.460 232.167 C 91.063 232.167,90.500 234.203,90.500 235.641 L 90.500 236.013 101.958 235.959 L 113.417 235.905 115.022 235.472 C 123.797 233.103,129.331 225.798,129.331 216.583 C 129.331 209.887,126.133 205.768,119.607 204.059 L 117.917 203.616 106.459 203.543 C 96.971 203.482,94.989 203.508,94.928 203.693 M138.766 204.042 C 138.720 204.340,138.638 204.996,138.582 205.500 C 138.527 206.004,138.441 206.580,138.392 206.780 C 138.323 207.063,138.419 207.203,138.831 207.416 C 140.934 208.503,140.413 210.761,136.332 218.250 C 135.869 219.099,134.737 221.215,133.702 223.167 C 133.385 223.762,132.761 224.905,132.313 225.705 C 131.866 226.506,131.500 227.198,131.500 227.244 C 131.500 228.595,127.551 231.964,125.630 232.252 C 124.963 232.352,124.839 232.431,124.763 232.809 C 124.605 233.587,124.336 235.407,124.335 235.708 C 124.333 235.982,124.792 236.000,131.640 236.000 L 138.947 236.000 139.131 234.875 C 139.571 232.192,139.571 232.167,139.083 232.167 C 137.760 232.167,136.763 230.782,137.151 229.485 L 137.347 228.833 142.757 228.833 L 148.167 228.833 148.167 229.522 C 148.167 230.793,147.057 231.978,145.725 232.128 C 145.020 232.208,145.000 232.227,144.991 232.813 C 144.986 233.145,144.885 233.959,144.767 234.623 C 144.648 235.286,144.589 235.867,144.636 235.914 C 144.684 235.961,149.236 236.000,154.754 236.000 L 164.785 236.000 164.891 234.875 C 164.949 234.256,165.044 233.439,165.101 233.060 L 165.206 232.369 164.478 232.251 C 162.628 231.952,160.000 229.149,160.000 227.476 C 160.000 227.296,159.817 226.497,159.593 225.700 C 158.572 222.064,158.434 221.543,158.323 220.917 C 158.258 220.550,157.962 219.350,157.666 218.250 C 157.370 217.150,156.992 215.650,156.826 214.917 C 156.659 214.183,156.406 213.255,156.262 212.854 C 156.118 212.453,156.000 211.970,156.000 211.781 C 156.000 211.591,155.818 210.832,155.596 210.093 C 155.182 208.713,154.791 207.172,154.412 205.417 C 154.293 204.867,154.116 204.210,154.019 203.958 L 153.842 203.500 146.345 203.500 L 138.848 203.500 138.766 204.042 M160.352 204.625 C 159.973 207.029,159.995 207.186,160.751 207.442 C 162.657 208.086,164.285 210.584,165.243 214.333 C 165.972 217.187,166.354 218.667,166.751 220.167 C 166.958 220.946,167.329 222.371,167.577 223.333 C 167.826 224.296,168.185 225.646,168.376 226.333 C 168.566 227.021,168.777 227.846,168.843 228.167 C 168.910 228.487,169.243 229.800,169.583 231.083 C 169.924 232.367,170.273 233.717,170.359 234.083 C 170.445 234.450,170.590 235.031,170.681 235.375 L 170.846 236.000 175.565 236.000 L 180.284 236.000 180.808 235.156 C 181.097 234.691,181.333 234.274,181.333 234.228 C 181.333 234.182,181.521 233.899,181.750 233.598 C 181.979 233.298,182.167 232.996,182.167 232.927 C 182.167 232.858,182.335 232.565,182.542 232.276 C 182.748 231.988,183.038 231.526,183.187 231.251 C 183.336 230.975,183.615 230.487,183.807 230.167 C 184.000 229.846,184.299 229.321,184.473 229.000 C 184.646 228.679,184.998 228.042,185.254 227.583 C 186.325 225.667,186.610 225.119,187.951 222.417 C 188.724 220.858,189.456 219.396,189.577 219.167 C 189.762 218.818,190.698 216.723,192.147 213.417 C 193.886 209.450,195.104 207.886,196.857 207.369 C 197.804 207.090,197.827 207.069,197.902 206.417 C 197.944 206.050,198.044 205.243,198.124 204.623 L 198.269 203.496 191.260 203.540 L 184.250 203.583 184.060 204.667 C 183.686 206.792,183.747 207.280,184.402 207.403 C 185.760 207.658,186.493 209.224,186.270 211.399 C 186.166 212.418,185.292 214.798,184.367 216.583 C 184.224 216.858,184.058 217.196,183.997 217.333 C 183.935 217.471,183.785 217.771,183.663 218.000 C 183.541 218.229,183.107 219.054,182.698 219.833 C 180.518 223.993,180.098 224.663,179.937 224.244 C 179.880 224.095,179.833 223.805,179.833 223.599 C 179.833 223.393,179.646 222.674,179.417 222.000 C 179.188 221.326,179.000 220.627,179.000 220.445 C 179.000 220.264,178.817 219.471,178.594 218.683 C 178.371 217.895,178.030 216.612,177.836 215.833 C 177.643 215.054,177.322 213.817,177.125 213.083 C 176.431 210.507,177.476 207.889,179.389 207.409 C 179.744 207.320,179.799 207.188,179.895 206.196 C 179.954 205.584,180.049 204.727,180.106 204.292 L 180.210 203.500 170.370 203.500 L 160.530 203.500 160.352 204.625 M200.694 204.792 C 200.379 206.866,200.387 206.901,201.230 207.126 C 203.675 207.780,204.159 209.686,203.254 215.083 C 203.023 216.458,202.835 217.808,202.836 218.083 C 202.837 218.358,202.652 219.821,202.424 221.333 C 202.196 222.846,201.890 224.946,201.743 226.000 C 201.482 227.870,201.063 229.666,200.849 229.833 C 200.790 229.879,200.612 230.122,200.452 230.373 C 199.937 231.182,198.592 232.115,197.762 232.240 C 197.163 232.329,196.984 232.431,196.922 232.718 C 196.718 233.654,196.500 235.106,196.500 235.531 L 196.500 236.000 206.308 236.000 L 216.116 236.000 216.391 234.341 C 216.759 232.125,216.764 232.167,216.145 232.167 C 215.291 232.167,213.955 231.292,213.544 230.465 C 212.958 229.283,212.949 228.965,213.407 225.796 C 213.650 224.121,214.029 221.438,214.250 219.833 C 215.407 211.426,215.548 210.586,215.936 209.833 C 216.669 208.407,217.575 207.666,219.101 207.241 L 220.119 206.959 220.323 205.521 C 220.435 204.730,220.563 203.952,220.608 203.792 C 220.685 203.516,220.138 203.500,210.790 203.500 L 200.891 203.500 200.694 204.792 M223.333 203.526 C 223.333 203.558,223.221 204.221,223.083 205.000 C 222.771 206.774,222.772 207.000,223.090 207.000 C 224.028 207.000,225.475 208.324,226.005 209.667 C 226.479 210.866,226.414 211.533,224.659 223.583 C 224.458 224.958,224.243 226.533,224.179 227.083 C 223.911 229.396,221.853 231.873,219.990 232.123 L 219.392 232.203 219.111 233.976 C 218.957 234.952,218.831 235.809,218.832 235.881 C 218.833 235.954,223.990 235.989,230.292 235.959 L 241.750 235.905 243.356 235.472 C 249.733 233.750,255.348 228.556,256.597 223.224 C 256.658 222.963,256.852 222.311,257.028 221.775 C 258.678 216.749,257.539 210.683,254.345 207.489 C 252.694 205.838,250.742 204.793,247.940 204.059 L 246.250 203.616 234.792 203.543 C 228.490 203.502,223.333 203.495,223.333 203.526 M51.575 205.979 C 51.180 206.342,45.434 210.156,45.374 210.096 C 45.306 210.028,45.587 207.409,45.773 206.375 L 45.870 205.833 48.802 205.833 C 50.482 205.833,51.666 205.895,51.575 205.979 M114.009 209.045 C 116.572 209.738,117.400 212.836,116.689 219.083 C 116.308 222.432,115.848 223.924,114.262 226.952 C 113.842 227.755,111.873 229.481,110.833 229.958 C 109.896 230.388,106.998 230.719,107.002 230.395 C 107.003 230.315,107.153 229.397,107.335 228.355 C 107.517 227.313,107.667 226.188,107.668 225.855 C 107.668 225.522,107.820 224.387,108.005 223.333 C 108.189 222.279,108.405 220.779,108.484 220.000 C 108.617 218.685,108.763 217.636,109.708 211.208 L 110.057 208.833 111.653 208.837 C 112.531 208.838,113.592 208.932,114.009 209.045 M242.342 209.045 C 244.794 209.707,245.837 213.090,245.155 218.167 C 245.063 218.854,244.917 219.979,244.831 220.667 C 244.589 222.602,243.847 224.690,242.570 227.030 C 242.166 227.771,240.145 229.509,239.167 229.958 C 237.914 230.533,235.243 230.725,235.390 230.230 C 235.441 230.057,235.600 229.054,235.744 228.000 C 235.888 226.946,236.187 224.771,236.410 223.167 C 236.632 221.563,237.007 218.825,237.243 217.083 C 237.479 215.342,237.839 212.773,238.042 211.375 L 238.412 208.833 239.998 208.837 C 240.870 208.838,241.925 208.932,242.342 209.045 M145.423 217.833 C 145.671 218.796,146.052 220.235,146.270 221.031 C 146.912 223.377,147.185 223.167,143.502 223.167 L 140.337 223.167 140.864 222.208 C 141.154 221.681,141.703 220.650,142.084 219.917 C 144.560 215.149,144.703 214.926,144.860 215.601 C 144.921 215.866,145.175 216.871,145.423 217.833 " stroke="none" fill="#040404" fill-rule="evenodd"></path></g></svg>