<?xml version="1.0" encoding="UTF-8" standalone="no"?>
<svg
   xmlns="http://www.w3.org/2000/svg"
   id="svg"
   version="1.1"
   width="400"
   height="400"
   viewBox="0, 0, 400,400">
  <g
     id="svgg">
    <path
       style="fill-rule:evenodd;stroke:none;stroke-width:4.51583338"
       id="path1"
       d="m 78.911276,37.903411 c -0.618669,0.198697 -3.328169,1.056705 -6.019606,1.905682 -16.609234,5.251914 -31.181828,20.226416 -34.654503,35.625408 -0.799303,3.531381 -3.730079,23.550069 -5.956384,40.642499 -0.862524,6.62021 -2.397908,17.9685 -3.41397,25.2119 -1.016063,7.24339 -2.723048,19.60774 -3.802332,27.46981 -1.074768,7.86658 -2.76369,20.05933 -3.752657,27.095 -0.988968,7.04018 -2.501772,18.21687 -3.368812,24.83708 -0.862524,6.62473 -2.384359,17.80141 -3.377843,24.83708 -0.993483,7.04019 -2.677889,19.23294 -3.743625,27.095 -1.0612212,7.86658 -2.7772378,19.88773 -3.8113636,26.72019 -5.4551265,36.09053 1.6211841,53.1649 25.3880136,61.26179 l 5.793814,1.97342 141.724912,-0.19418 141.72039,-0.19418 4.89516,-1.79731 c 19.87418,-7.30661 34.09906,-24.13712 35.80604,-42.37657 0.20773,-2.19922 1.20121,-9.7542 2.20824,-16.78987 1.00703,-7.04019 2.68241,-18.98005 3.72557,-26.53504 3.17011,-23.02172 5.54092,-40.0148 6.846,-49.10517 0.68189,-4.7642 1.52184,-11.53795 1.86052,-15.05579 0.33869,-3.51783 1.31863,-10.45866 2.17663,-15.42608 0.85801,-4.96742 1.54894,-9.88064 1.54442,-10.91477 -0.009,-1.03413 0.85349,-7.80788 1.91923,-15.05127 2.60112,-17.71562 5.19321,-36.22602 7.11244,-50.80312 0.87155,-6.62473 2.46564,-17.87819 3.54492,-25.008689 2.80434,-18.5104 1.72054,-27.081451 -4.7371,-37.463351 -2.34372,-3.761689 -9.08586,-10.910253 -10.29159,-10.910253 -0.35223,0 -1.71601,-0.776724 -3.03464,-1.725049 -1.31862,-0.943809 -3.58105,-2.158568 -5.03064,-2.695952 -8.58911,-3.183662 -5.03967,-3.08883 -116.35495,-3.097861 l -106.19434,-0.009 -1.24185,7.491767 c -0.68641,4.122956 -1.24185,8.440092 -1.23734,9.596146 0.009,1.156053 -0.8264,7.690463 -1.85149,14.522919 -2.24888,14.979018 -6.68795,47.045943 -11.00057,79.401893 -1.96439,14.75774 -4.47519,31.92242 -4.98096,34.05841 l -0.40191,1.69344 h 24.08745 24.08746 l 0.84897,-6.58408 c 0.46513,-3.6217 1.67989,-12.51338 2.69596,-19.75677 1.02057,-7.2434 2.71853,-19.44067 3.77975,-27.095 1.0567,-7.65886 2.5966,-18.49686 3.41397,-24.08746 0.81736,-5.58608 1.48119,-10.968954 1.47216,-11.957922 -0.005,-0.984451 0.70447,-6.290555 1.58054,-11.79084 l 1.59409,-9.993539 8.7562,7.297587 c 4.81388,4.014575 9.56002,7.965929 10.53995,8.783295 0.98446,0.81285 2.33921,2.018578 3.01207,2.673373 0.67285,0.654796 6.80987,5.861552 13.64233,11.565046 6.82794,5.7035 13.26752,11.0954 14.30616,11.98051 1.03864,0.88058 3.74814,3.12044 6.02412,4.97193 4.09134,3.33268 5.78478,4.82742 9.19875,8.11044 0.96639,0.93026 2.17212,1.69343 2.67337,1.69343 0.50126,0 0.9122,0.27095 0.9122,0.60061 0,0.33417 3.4501,3.46364 7.66789,6.96341 4.21778,3.49977 11.41151,9.53293 15.99508,13.41203 4.57905,3.8791 9.68194,8.20075 11.33474,9.60066 1.65731,1.39991 3.51783,3.00303 4.14102,3.56299 0.61867,0.55996 6.37635,5.35578 12.79335,10.65285 6.417,5.30159 12.24243,10.17417 12.9469,10.83349 0.70447,0.65931 1.72053,1.55344 2.25791,1.99148 4.53842,3.68492 13.45719,11.65085 13.46622,12.02115 0.009,0.46061 -5.25643,4.52486 -7.76272,5.99251 -0.7135,0.41997 -5.22482,3.47267 -10.02515,6.78278 -4.80033,3.3101 -9.53292,6.52989 -10.52189,7.14856 -0.98445,0.62319 -6.75569,4.51583 -12.82497,8.65685 -6.06928,4.14102 -13.79135,9.40648 -17.16016,11.70053 -3.36881,2.29856 -10.81542,7.37887 -16.54602,11.28958 -5.7351,3.91523 -11.21732,7.62273 -12.18371,8.24591 -0.96639,0.61867 -5.69898,3.83846 -10.50835,7.14857 -4.81387,3.3101 -9.32068,6.35829 -10.02063,6.77374 -2.99851,1.77473 -8.81942,5.98348 -9.04973,6.54345 -0.13548,0.33417 -0.52384,0.60512 -0.85349,0.60512 -0.33417,0 -2.7095,1.44055 -5.27901,3.20172 -5.33772,3.6488 -6.75117,4.60164 -11.37087,7.63628 -1.8244,1.20121 -3.43203,2.47016 -3.57202,2.82239 -0.13548,0.35224 -0.51932,0.64125 -0.8535,0.64125 -0.32965,0 -2.7095,1.44055 -5.279,3.19721 -2.56951,1.76118 -5.45965,3.7075 -6.42152,4.33069 -0.96187,0.61867 -4.73711,3.17463 -8.39493,5.6764 -19.07488,13.05076 -25.19384,17.04727 -25.5551,16.68149 -0.22128,-0.22128 0.29353,-5.08935 1.1425,-10.81542 0.84898,-5.7306 2.40694,-16.68149 3.46365,-24.34034 3.89716,-28.22848 5.61318,-40.57928 7.4737,-53.81067 1.04767,-7.45113 2.00503,-14.98805 2.12696,-16.74923 l 0.22579,-3.19721 H 130.59047 90.778885 l 0.429004,-2.06825 c 0.749629,-3.65331 5.044186,-33.89133 8.837481,-62.28237 0.83092,-6.20927 2.20373,-15.86412 3.05271,-21.45021 0.84897,-5.5906 1.81536,-12.87012 2.14502,-16.18023 0.33417,-3.31462 1.32765,-10.93283 2.21727,-16.93437 0.88511,-6.001542 2.45662,-17.011144 3.49074,-24.462268 1.03864,-7.451125 2.55145,-18.122039 3.37333,-23.708124 0.81737,-5.590602 1.48119,-10.413511 1.47668,-10.725104 -0.009,-0.605122 -35.006742,-0.686407 -36.889844,-0.0858 m 24.087454,11.357321 c 0,0.48771 -3.404938,25.297697 -8.656852,63.050055 -1.034126,7.45113 -3.590088,26.07894 -5.676403,41.39665 -2.086315,15.3177 -5.134502,37.51754 -6.773749,49.33547 -1.639248,11.81794 -2.98045,21.89276 -2.98045,22.3895 0,0.69093 9.266489,0.90317 39.513544,0.90317 35.09254,0 39.51354,0.13096 39.51354,1.16057 0,0.64125 -0.84898,7.3292 -1.89214,14.86612 -2.09083,15.14611 -5.48674,39.76643 -8.26849,59.99285 -0.99348,7.24339 -2.6824,19.60323 -3.74362,27.46981 -1.06574,7.86658 -2.08632,15.2319 -2.27598,16.36989 -0.42901,2.62822 -0.18515,2.60112 4.03715,-0.44706 1.91923,-1.38185 9.41551,-6.52087 16.65891,-11.42055 12.87464,-8.70201 22.76883,-15.41705 41.02183,-27.83559 8.4717,-5.7622 15.94992,-10.838 41.20697,-27.97559 15.33577,-10.40448 28.96456,-19.66645 48.73036,-33.1146 32.16628,-21.87921 36.3931,-24.74677 49.67416,-33.7107 7.24792,-4.89064 13.7733,-9.45163 14.50938,-10.14707 1.26443,-1.18767 0.52383,-1.9373 -13.90425,-14.00812 -8.38591,-7.01309 -18.64136,-15.65188 -22.79141,-19.19229 -4.14554,-3.5359 -20.58317,-17.40402 -36.51955,-30.81604 -15.93637,-13.40751 -31.85468,-26.83308 -35.37252,-29.8316 -11.9805,-10.205777 -63.08167,-53.101676 -65.53377,-55.011874 -1.27798,-0.993483 -1.54441,0.514805 -6.36281,35.918937 -3.26043,23.938427 -5.5048,40.267677 -8.62524,62.810717 -1.66182,11.98051 -3.02109,21.88825 -3.02109,22.01469 0,0.12193 -5.79381,0.22579 -12.87916,0.22579 h -12.87915 l 0.44255,-2.44758 c 0.58254,-3.23334 1.47668,-9.53292 4.2494,-29.91739 1.26443,-9.31165 2.95335,-21.676 3.75266,-27.46982 0.7993,-5.79833 2.49274,-18.15816 3.7662,-27.474324 2.64176,-19.37744 4.36681,-31.646958 4.94484,-35.196403 l 0.39739,-2.461129 102.50941,0.203212 102.50942,0.198697 4.30358,2.018577 c 9.39294,4.402938 15.96799,13.502341 16.88922,23.373953 0.46965,5.012575 0.0677,9.284553 -2.75014,29.176797 -0.79479,5.58608 -2.31662,16.59568 -3.38236,24.45775 -4.0507,29.84966 -5.78478,42.47141 -7.18018,52.31141 -0.79027,5.58609 -2.47467,17.95044 -3.73911,27.46981 -1.26443,9.51938 -2.94432,21.88373 -3.73459,27.46982 -1.58054,11.21281 -4.22682,30.4051 -7.20727,52.31141 -5.0758,37.2782 -5.53189,39.17485 -11.27152,46.97369 -4.15456,5.64028 -9.67743,10.05677 -16.92534,13.53847 l -5.64479,2.7095 H 179.38856 c -156.378783,0 -143.617038,0.39288 -151.447493,-4.71001 -10.56705,-6.88665 -13.831997,-17.55756 -11.154108,-36.47439 1.210243,-8.56202 3.120441,-22.39401 6.006058,-43.48747 1.043158,-7.65885 3.436549,-25.10352 5.31062,-38.76391 1.874071,-13.6604 4.267462,-31.10054 5.315136,-38.7594 1.052189,-7.65885 2.750142,-20.01868 3.775236,-27.46981 1.025094,-7.45112 2.723048,-19.81548 3.770721,-27.47433 1.047673,-7.65885 2.54693,-18.49685 3.337201,-24.08294 0.785754,-5.5906 1.964387,-14.224868 2.619183,-19.192285 2.993997,-22.76883 13.375898,-36.460836 30.861203,-40.728299 4.046187,-0.984451 25.216413,-1.404424 25.216413,-0.496741 m 111.0895,82.115905 c -0.21225,0.3432 -0.59158,2.97142 -0.84447,5.83446 -0.25288,2.86304 -1.25991,10.62575 -2.24436,17.25048 -0.97994,6.62021 -2.15857,15.02869 -2.61467,18.67749 -0.4561,3.64879 -1.0251,7.62724 -1.26895,8.842 l -0.44255,2.20824 h 35.09254 c 19.49485,0 35.09254,-0.29353 35.09254,-0.65931 0,-0.36127 -4.41197,-4.28101 -9.80839,-8.71104 -5.39191,-4.42552 -10.55802,-8.81491 -11.47474,-9.74517 -0.92123,-0.93026 -7.77174,-6.74214 -15.22287,-12.91528 -7.45112,-6.16863 -13.9765,-11.63279 -14.50486,-12.13856 -0.52835,-0.50578 -2.98045,-2.50629 -5.45512,-4.45262 -2.47468,-1.9418 -4.49777,-3.82039 -4.49777,-4.17263 0,-0.82639 -1.30056,-0.83542 -1.80633,-0.0181 m 20.48833,30.35543 c 6.48925,5.45061 12.2921,10.35932 12.90174,10.91477 0.92123,0.84446 -1.25992,1.00703 -13.4617,1.00703 h -14.55905 l 0.45158,-3.20172 c 0.24837,-1.75666 0.87608,-6.66989 1.39088,-10.91026 0.51932,-4.24488 1.06122,-7.71756 1.21024,-7.71756 0.14451,0 5.57706,4.46165 12.06631,9.90774 m -32.22047,55.76151 c 0.005,0.93026 -0.83091,7.27952 -1.86052,14.11198 -6.29056,41.6992 -6.32668,39.03938 0.50125,34.08099 4.0778,-2.96239 7.01309,-4.99451 10.09289,-6.98599 0.96187,-0.62319 5.67189,-3.83846 10.47222,-7.14857 4.80033,-3.31462 9.30262,-6.36281 10.00257,-6.77375 2.41597,-1.427 12.55402,-8.26849 12.92883,-8.72459 0.32062,-0.39287 3.54041,-2.58757 8.16463,-5.57705 7.27049,-4.69647 20.43414,-13.94941 20.43414,-14.36487 0,-0.1716 -15.91831,-0.31159 -35.37252,-0.31159 h -35.37252 l 0.009,1.69344 m 35.70218,9.50131 c -1.78376,1.63925 -27.73173,18.86264 -28.00268,18.59169 -0.30708,-0.30708 0.96187,-12.13405 1.80181,-16.80342 l 0.43804,-2.44758 h 13.24042 c 7.5866,0 12.93335,0.27998 12.52241,0.65931" />
  </g>
</svg>
