<?xml version="1.0" encoding="utf-8"?>
<!-- Generator: Adobe Illustrator 19.2.1, SVG Export Plug-In . SVG Version: 6.00 Build 0)  -->
<svg version="1.1" id="Layer_1" xmlns="http://www.w3.org/2000/svg"  x="0px" y="0px"
	 viewBox="0 0 61.2 61.2" style="enable-background:new 0 0 61.2 61.2;" xml:space="preserve">
<g>
	<g>
		<polygon points="3,52 3,54.2 12.2,54.2 12.2,56.7 3,56.7 3,60.9 0,60.9 0,49.3 12.7,49.3 12.7,52 		"/>
		<g>
			<path d="M61.1,58.3c-0.1,0.7-0.4,1.3-0.9,1.7c-1,1-2.6,1-6.4,1c-4.7,0-5.9,0-6.9-1.1c-0.7-0.8-0.9-1.6-0.9-4.5c0-0.6,0-1.3,0-1.9
				c0.1-1.8,0.3-2.6,1-3.3c0.9-0.8,2-1,6.2-1c0.5,0,1.6,0,3.1,0c2.2,0,2.9,0.2,3.8,0.7c1,0.6,1.3,1.7,1.3,5
				C61.2,56.6,61.2,57.7,61.1,58.3 M57.7,52.1c-0.4-0.3-2-0.4-4.1-0.4c-1.4,0-2.7,0-3.3,0.1c-0.4,0-0.6,0.1-0.9,0.3
				C49,52.4,49,52.8,49,55c0,0.4,0,0.8,0,1.2c0,1.1,0.1,1.5,0.3,1.8c0.1,0.2,0.4,0.3,0.8,0.4c0.7,0.1,2.1,0.2,3.7,0.2
				c2.4,0,3.6,0,4-0.5c0.3-0.3,0.4-0.9,0.4-3.1C58.1,54.2,58.2,52.6,57.7,52.1"/>
			<path d="M43.3,60.2C42.7,60.8,42,61,40.7,61H30.4v-2.6h9.3c0.6,0,0.8,0,1-0.1c0.2-0.1,0.3-0.3,0.3-0.9c0-0.5-0.1-0.6-0.2-0.8
				c-0.2-0.1-0.3-0.2-0.9-0.2h-5.9c-1.6,0-2.1-0.1-2.7-0.6c-0.6-0.5-0.9-1.4-0.9-3.1c0-1.2,0.1-1.8,0.5-2.3c0.2-0.3,0.5-0.5,0.8-0.6
				c0.6-0.3,0.9-0.3,2.3-0.3h9.7v2.5h-9.1c-1,0-1.1,0.2-1.1,1c0,0.7,0.2,0.9,1.1,0.9h6.1c1.8,0,2.8,0.5,3.2,1.5
				c0.2,0.5,0.3,1.1,0.3,2.1C44.1,58.8,43.8,59.5,43.3,60.2"/>
			<path d="M27.4,60c-0.6,0.9-1.6,1.2-3.8,1.2l-1.9,0l-2.4,0c-2.3,0-3.2-0.4-4-1.4c-0.4-0.6-0.6-1.4-0.6-2.8v-7.6h3v7.3
				c0,1.5,0.3,1.8,2.2,1.8l1.6,0l1.6,0c1.7,0,1.9-0.3,1.9-2.1v-6.9h3.1v6.9C28.1,58.5,28,59.2,27.4,60"/>
			<polygon class="st0" points="37.4,40.1 22,13.4 29.7,0 37.4,13.4 37.4,13.4 22,40.1 6.6,40.1 14.3,26.7 45.1,26.7 53,40.1 			"/>
		</g>
	</g>
</g>
</svg>
