<svg id="svg" xmlns="http://www.w3.org/2000/svg"  width="400" height="400" viewBox="0, 0, 400,400"><g id="svgg"><path id="path0" d="M52.507 153.055 C 36.021 153.976,3.022 159.113,1.368 161.015 C 1.122 161.298,0.791 211.011,0.935 226.195 L 1.055 238.933 4.354 239.772 C 11.582 241.611,14.308 242.179,22.164 243.485 C 58.424 249.511,98.057 248.442,131.003 240.549 L 137.731 238.937 137.731 200.005 L 137.731 161.073 136.544 160.740 C 114.576 154.576,80.713 151.479,52.507 153.055 M236.148 164.696 C 230.272 166.125,230.567 165.257,230.625 180.933 C 230.677 194.877,230.652 195.049,228.496 195.338 C 227.180 195.514,227.177 195.529,227.177 201.286 L 227.177 207.057 228.892 207.501 L 230.607 207.946 230.607 219.476 C 230.607 233.186,230.350 232.617,235.961 231.354 C 242.180 229.954,241.647 231.118,241.810 218.589 L 241.953 207.652 247.750 207.501 C 255.351 207.303,254.881 206.486,254.881 219.880 C 254.881 232.294,254.318 231.304,261.220 231.028 L 265.172 230.871 265.308 198.714 C 265.415 173.339,265.304 166.469,264.780 166.137 C 264.002 165.643,256.935 165.552,255.716 166.020 C 254.984 166.300,254.881 168.045,254.881 180.162 C 254.881 196.476,255.414 195.253,248.311 195.243 C 241.068 195.232,241.727 196.802,241.565 179.173 C 241.477 169.578,241.229 163.890,240.897 163.804 C 240.607 163.730,238.470 164.131,236.148 164.696 M146.143 164.868 C 144.530 165.222,142.927 165.687,142.581 165.901 C 141.808 166.379,141.683 211.248,142.442 215.882 C 143.984 225.291,149.592 230.052,159.745 230.569 C 164.216 230.797,165.874 231.081,166.523 231.731 C 167.512 232.722,176.045 231.252,176.873 229.948 C 177.601 228.802,177.409 167.594,176.675 166.860 C 175.825 166.009,167.711 166.009,166.860 166.860 C 166.385 167.335,166.227 173.786,166.227 192.642 L 166.227 217.790 162.665 218.118 C 158.689 218.485,156.930 218.197,155.487 216.945 C 153.051 214.832,153.034 214.643,153.034 188.681 L 153.034 164.116 151.055 164.170 C 149.967 164.200,147.757 164.514,146.143 164.868 M363.588 165.123 L 359.631 166.020 359.495 197.884 C 359.387 223.026,359.498 229.837,360.022 230.169 C 360.992 230.785,368.761 230.700,369.956 230.061 C 370.929 229.539,370.976 228.798,370.976 213.922 C 370.976 203.036,371.148 198.386,371.544 198.518 C 371.855 198.622,375.948 206.241,380.638 215.449 L 389.166 232.190 391.285 232.139 C 392.450 232.111,394.710 231.814,396.306 231.479 L 399.208 230.871 399.354 199.736 C 399.530 162.243,400.169 166.227,393.978 166.227 C 387.828 166.227,388.391 164.466,388.391 183.728 C 388.391 193.905,388.205 199.497,387.870 199.384 C 387.405 199.227,384.859 194.058,376.877 177.061 C 370.099 162.628,371.005 163.442,363.588 165.123 M93.951 166.637 C 94.518 167.343,96.157 176.777,95.851 177.574 C 95.601 178.225,94.204 178.364,87.911 178.364 C 82.380 178.364,80.156 178.546,79.847 179.024 C 79.613 179.387,79.363 191.082,79.293 205.013 C 79.187 226.195,79.043 230.433,78.415 230.895 C 77.476 231.586,68.124 232.944,67.639 232.459 C 67.443 232.263,67.164 220.071,67.018 205.365 L 66.755 178.628 59.377 178.480 C 50.565 178.304,50.878 178.534,51.954 173.014 C 53.426 165.463,51.538 166.266,68.191 166.103 C 85.166 165.938,93.528 166.111,93.951 166.637 M200.854 166.286 C 197.128 167.161,192.697 169.966,189.221 173.651 C 167.954 196.195,186.736 238.215,213.863 228.781 L 217.622 227.474 219.368 228.806 C 222.147 230.926,222.164 230.832,222.164 212.739 C 222.164 192.952,222.894 194.723,214.735 194.723 C 207.472 194.723,207.738 194.529,206.893 200.432 C 206.167 205.500,206.499 206.332,209.243 206.332 C 213.853 206.332,212.029 215.967,207.188 217.181 C 196.038 219.980,188.249 198.565,195.290 184.467 C 198.803 177.434,206.207 174.917,207.688 180.253 L 208.262 182.322 213.762 183.434 C 220.632 184.823,220.427 184.922,220.845 180.039 C 221.036 177.812,221.316 175.549,221.467 175.011 C 221.909 173.438,216.162 168.207,212.476 166.828 C 209.262 165.625,204.595 165.408,200.854 166.286 M45.541 171.966 C 46.466 175.336,46.855 177.630,46.554 177.932 C 45.588 178.897,39.346 180.027,36.783 179.700 C 34.093 179.356,21.482 181.654,20.159 182.728 C 17.676 184.745,19.124 185.605,34.565 191.286 L 46.174 195.557 46.315 209.345 L 46.455 223.134 44.181 224.998 C 34.247 233.138,19.363 232.931,8.804 224.506 C 6.504 222.671,6.480 222.412,8.148 217.508 C 9.922 212.292,9.794 212.370,12.562 214.807 C 17.771 219.392,27.792 221.068,32.718 218.177 L 34.565 217.093 34.713 210.999 C 34.893 203.580,36.342 204.835,21.120 199.222 C 14.306 196.709,8.428 194.402,8.059 194.095 C 7.105 193.304,7.094 174.395,8.047 173.778 C 8.948 173.195,41.692 166.279,42.996 166.397 C 43.852 166.474,44.308 167.472,45.541 171.966 M121.139 168.064 C 142.618 180.651,137.302 231.868,114.512 231.918 C 94.329 231.961,86.712 188.525,103.918 171.500 C 109.522 165.955,115.504 164.762,121.139 168.064 M274.499 167.771 C 273.623 170.283,272.618 177.069,272.982 178.016 C 273.273 178.774,274.311 178.892,280.722 178.892 L 288.127 178.892 288.135 205.145 C 288.139 219.584,288.340 231.710,288.581 232.090 C 289.046 232.822,297.845 231.653,298.761 230.738 C 298.990 230.509,299.334 218.809,299.527 204.739 C 299.771 186.830,300.053 179.039,300.466 178.768 C 300.790 178.555,304.307 178.377,308.280 178.372 C 312.534 178.367,315.640 178.146,315.832 177.835 C 316.238 177.178,314.522 167.791,313.831 166.887 C 313.444 166.380,308.878 166.227,294.182 166.227 L 275.037 166.227 274.499 167.771 M330.738 166.948 C 307.465 175.631,311.254 231.663,335.092 231.354 C 354.638 231.100,362.320 189.542,346.102 171.790 C 341.873 167.161,335.527 165.161,330.738 166.948 M336.509 181.036 C 344.310 183.983,347.281 201.037,341.788 211.333 C 336.512 221.223,327.561 217.026,325.547 203.717 C 323.643 191.141,329.759 178.486,336.509 181.036 M112.056 182.296 C 103.607 185.972,103.246 210.662,111.566 215.805 C 120.654 221.421,127.822 200.359,121.249 187.354 C 118.648 182.208,115.826 180.655,112.056 182.296 " stroke="none" fill="#0079C2" fill-rule="evenodd"></path></g></svg>