<svg id="svg" version="1.1" xmlns="http://www.w3.org/2000/svg"  width="400" height="400" viewBox="0, 0, 400,400"><g id="svgg"><path id="path0" d="M0.808 110.965 C 1.332 111.488,11.414 119.058,23.213 127.788 L 44.666 143.662 49.269 143.689 C 60.610 143.756,123.349 145.649,123.633 145.934 C 123.808 146.108,109.134 146.663,91.024 147.167 C 72.915 147.670,56.682 148.279,54.951 148.519 L 51.804 148.955 76.334 167.132 L 100.863 185.310 134.343 174.543 L 167.824 163.776 171.236 167.586 C 173.113 169.681,174.648 171.572,174.647 171.789 C 174.647 172.006,168.916 179.578,161.913 188.615 C 154.909 197.653,149.312 205.180,149.474 205.343 C 149.636 205.505,161.037 210.340,174.809 216.088 L 199.849 226.539 224.044 216.457 C 237.352 210.912,248.759 206.129,249.394 205.828 C 250.336 205.382,248.167 202.230,237.632 188.732 C 230.528 179.630,224.710 172.025,224.704 171.831 C 224.698 171.637,226.210 169.770,228.064 167.681 L 231.435 163.882 264.727 174.583 C 283.038 180.469,298.300 185.189,298.642 185.072 C 299.705 184.709,347.853 148.968,347.871 148.530 C 347.880 148.302,332.675 147.696,314.081 147.183 C 295.488 146.670,280.401 146.125,280.554 145.971 C 280.708 145.818,297.499 145.236,317.868 144.678 L 354.902 143.663 376.923 127.382 C 389.034 118.427,399.261 110.798,399.648 110.428 C 400.097 110.000,398.563 109.912,395.423 110.185 C 288.341 119.516,242.278 125.511,222.004 132.757 C 210.675 136.807,207.641 140.582,209.088 148.828 L 209.810 152.937 204.889 160.271 C 202.183 164.305,199.824 167.606,199.648 167.606 C 199.472 167.606,197.123 164.321,194.430 160.306 L 189.532 153.007 190.087 148.917 C 191.159 141.020,189.632 138.344,182.042 134.816 C 165.569 127.160,114.594 119.783,26.761 112.345 C 15.335 111.377,4.606 110.457,2.920 110.301 C 0.347 110.062,0.008 110.168,0.808 110.965 M151.408 268.662 L 151.408 290.141 155.986 290.141 L 160.563 290.141 160.563 268.662 L 160.563 247.183 155.986 247.183 L 151.408 247.183 151.408 268.662 M238.028 268.662 L 238.028 290.141 242.254 290.141 L 246.479 290.141 246.479 268.662 L 246.479 247.183 242.254 247.183 L 238.028 247.183 238.028 268.662 M50.704 251.056 L 50.704 254.225 57.042 254.225 L 63.380 254.225 63.380 272.183 L 63.380 290.141 67.254 290.141 L 71.127 290.141 71.127 272.183 L 71.127 254.225 77.465 254.225 L 83.803 254.225 83.803 251.056 L 83.803 247.887 67.254 247.887 L 50.704 247.887 50.704 251.056 M101.408 268.936 L 101.408 290.141 104.907 290.141 L 108.406 290.141 108.604 281.875 C 108.900 269.553,111.786 269.513,119.674 281.718 C 125.284 290.400,125.164 290.305,130.198 290.005 L 133.819 289.789 129.145 282.746 C 126.574 278.873,123.716 274.892,122.794 273.900 L 121.117 272.096 123.517 270.952 C 131.818 266.993,132.553 254.742,124.764 250.176 C 121.679 248.368,120.869 248.235,111.444 247.991 L 101.408 247.731 101.408 268.936 M181.690 269.014 L 181.690 290.141 184.845 290.141 L 188.000 290.141 188.190 275.528 L 188.380 260.915 199.877 275.528 C 211.347 290.106,211.381 290.141,214.138 290.141 L 216.901 290.141 216.901 269.014 L 216.901 247.887 213.732 247.887 L 210.563 247.887 210.563 262.366 C 210.563 270.916,210.300 276.681,209.921 276.446 C 209.567 276.228,204.309 269.713,198.237 261.968 C 187.243 247.948,187.184 247.887,184.443 247.887 L 181.690 247.887 181.690 269.014 M264.085 251.056 L 264.085 254.225 270.775 254.225 L 277.465 254.225 277.465 272.183 L 277.465 290.141 280.986 290.141 L 284.507 290.141 284.507 272.183 L 284.507 254.225 291.197 254.225 L 297.887 254.225 297.887 251.056 L 297.887 247.887 280.986 247.887 L 264.085 247.887 264.085 251.056 M310.681 248.470 C 310.810 248.790,314.322 254.768,318.486 261.755 L 326.056 274.458 326.056 282.299 L 326.056 290.141 329.577 290.141 L 333.099 290.141 333.099 282.203 L 333.099 274.265 340.820 261.252 L 348.542 248.239 344.989 248.025 C 342.984 247.903,341.001 248.170,340.440 248.636 C 339.289 249.591,330.282 265.754,330.282 266.864 C 330.282 268.881,328.855 266.867,325.000 259.405 C 319.081 247.951,319.023 247.887,314.327 247.887 C 312.192 247.887,310.552 248.149,310.681 248.470 M117.761 254.257 C 127.503 256.962,122.172 269.058,111.620 268.190 L 108.803 267.958 108.598 261.675 C 108.312 252.948,109.523 251.969,117.761 254.257 " stroke="none" fill-rule="evenodd"></path></g></svg>