<svg id="svg" version="1.1" xmlns="http://www.w3.org/2000/svg"  width="400" height="400" viewBox="0, 0, 400,400"><g id="svgg"><path id="path0" d="M0.000 110.182 C 0.000 110.770,1.797 112.800,2.318 112.800 C 2.473 112.801,3.080 113.206,3.666 113.700 C 5.693 115.410,6.205 115.803,7.400 116.567 C 8.060 116.989,8.891 117.664,9.247 118.067 C 9.603 118.470,10.090 118.800,10.329 118.800 C 10.568 118.800,11.214 119.250,11.764 119.800 C 12.314 120.350,12.909 120.800,13.086 120.800 C 13.263 120.800,13.893 121.250,14.487 121.800 C 15.080 122.350,15.687 122.800,15.836 122.800 C 15.984 122.800,16.424 123.167,16.813 123.615 C 17.202 124.064,17.930 124.509,18.431 124.606 C 18.932 124.702,19.483 125.010,19.655 125.291 C 20.536 126.719,21.037 127.200,21.646 127.200 C 22.013 127.200,22.418 127.470,22.545 127.800 C 22.671 128.130,23.054 128.400,23.395 128.400 C 23.735 128.400,24.626 129.030,25.374 129.800 C 26.121 130.570,26.920 131.200,27.148 131.200 C 27.377 131.200,27.999 131.605,28.530 132.100 C 30.427 133.866,31.675 134.800,32.139 134.800 C 32.398 134.800,32.948 135.250,33.361 135.800 C 33.774 136.350,34.407 136.800,34.768 136.800 C 35.128 136.800,35.683 137.160,36.000 137.600 C 36.317 138.040,36.817 138.400,37.112 138.400 C 37.406 138.400,37.548 138.561,37.426 138.757 C 37.305 138.954,37.654 139.227,38.203 139.365 C 38.751 139.503,39.200 139.792,39.200 140.008 C 39.200 140.223,39.398 140.400,39.640 140.400 C 39.881 140.400,40.560 140.915,41.148 141.544 C 41.735 142.173,42.617 142.815,43.108 142.971 C 43.599 143.127,44.000 143.422,44.000 143.627 C 44.000 143.847,47.670 144.000,52.920 144.000 C 58.188 144.000,62.000 144.160,62.230 144.390 C 62.468 144.628,67.982 144.792,76.310 144.810 C 84.673 144.828,90.000 144.988,90.000 145.220 C 90.000 145.451,95.226 145.635,103.300 145.690 C 110.811 145.741,113.510 145.832,109.500 145.899 C 105.226 145.971,102.400 146.174,102.400 146.409 C 102.400 146.654,98.146 146.800,90.976 146.800 C 83.463 146.800,79.637 146.937,79.800 147.200 C 79.963 147.463,76.071 147.600,68.424 147.600 C 60.941 147.600,56.800 147.743,56.800 148.000 C 56.800 148.222,55.733 148.400,54.400 148.400 C 52.655 148.400,52.000 148.547,52.000 148.939 C 52.000 149.679,53.371 151.198,54.047 151.207 C 54.351 151.211,55.024 151.661,55.542 152.207 C 56.060 152.753,56.654 153.200,56.861 153.200 C 57.068 153.200,57.680 153.676,58.219 154.258 C 58.759 154.841,59.200 155.107,59.200 154.851 C 59.200 154.595,59.815 155.019,60.567 155.793 C 61.318 156.567,62.206 157.200,62.540 157.200 C 62.873 157.200,63.260 157.560,63.400 158.000 C 63.540 158.440,63.893 158.800,64.185 158.800 C 64.477 158.800,65.140 159.247,65.658 159.793 C 66.176 160.339,66.798 160.789,67.041 160.793 C 67.283 160.797,68.046 161.340,68.737 162.000 C 69.428 162.660,70.166 163.200,70.378 163.200 C 70.590 163.200,71.214 163.650,71.764 164.200 C 72.314 164.750,72.952 165.200,73.182 165.200 C 73.412 165.200,73.600 165.368,73.600 165.573 C 73.600 165.778,74.001 166.073,74.492 166.229 C 74.983 166.385,75.865 167.027,76.452 167.656 C 77.040 168.285,77.711 168.800,77.942 168.800 C 78.174 168.800,78.777 169.205,79.282 169.701 C 79.787 170.196,80.707 170.928,81.326 171.327 C 82.386 172.010,82.855 172.375,84.895 174.100 C 85.716 174.795,86.231 174.969,87.000 174.814 C 87.220 174.770,87.276 174.857,87.124 175.009 C 86.798 175.335,88.566 177.200,89.201 177.200 C 89.441 177.200,90.055 177.650,90.565 178.200 C 91.075 178.750,91.715 179.200,91.988 179.200 C 92.261 179.200,92.836 179.647,93.265 180.192 C 93.695 180.738,94.171 181.167,94.323 181.145 C 95.127 181.030,95.570 181.277,95.788 181.961 C 95.921 182.380,96.653 183.019,97.415 183.380 C 98.177 183.742,98.801 184.164,98.803 184.319 C 98.807 184.710,100.806 185.600,101.680 185.600 C 102.076 185.600,102.400 185.420,102.400 185.200 C 102.400 184.980,102.850 184.800,103.400 184.800 C 103.950 184.800,104.400 184.641,104.400 184.446 C 104.400 184.251,105.387 183.969,106.594 183.818 C 107.800 183.667,108.891 183.377,109.017 183.172 C 109.144 182.967,109.597 182.800,110.024 182.800 C 110.451 182.800,110.800 182.620,110.800 182.400 C 110.800 182.180,111.475 181.997,112.300 181.994 C 113.274 181.990,113.613 181.869,113.266 181.649 C 112.923 181.432,113.597 181.213,115.154 181.037 C 116.486 180.886,117.682 180.591,117.811 180.382 C 117.941 180.172,118.487 180.000,119.024 180.000 C 119.561 180.000,120.000 179.820,120.000 179.600 C 120.000 179.380,120.450 179.200,121.000 179.200 C 121.550 179.200,122.000 179.041,122.000 178.846 C 122.000 178.651,122.990 178.368,124.200 178.217 C 125.410 178.066,126.400 177.775,126.400 177.571 C 126.400 177.367,126.839 177.200,127.376 177.200 C 127.913 177.200,128.464 177.020,128.600 176.800 C 128.736 176.580,129.276 176.400,129.800 176.400 C 130.324 176.400,130.864 176.220,131.000 176.000 C 131.136 175.780,131.762 175.600,132.390 175.600 C 133.019 175.600,133.593 175.421,133.667 175.202 C 133.740 174.983,134.610 174.693,135.600 174.557 C 136.590 174.421,137.460 174.150,137.533 173.955 C 137.607 173.760,138.102 173.600,138.633 173.600 C 139.165 173.600,139.600 173.420,139.600 173.200 C 139.600 172.980,140.140 172.800,140.800 172.800 C 141.460 172.800,142.000 172.637,142.000 172.438 C 142.000 172.238,142.900 171.951,144.000 171.800 C 145.100 171.649,146.000 171.362,146.000 171.162 C 146.000 170.963,146.452 170.800,147.005 170.800 C 147.558 170.800,148.368 170.620,148.805 170.400 C 149.242 170.180,149.974 169.810,150.431 169.578 C 150.887 169.345,152.147 169.050,153.231 168.922 C 154.314 168.794,155.200 168.534,155.200 168.344 C 155.200 168.155,155.650 168.000,156.200 168.000 C 156.750 168.000,157.200 167.820,157.200 167.600 C 157.200 167.380,157.740 167.200,158.400 167.200 C 159.060 167.200,159.600 167.037,159.600 166.838 C 159.600 166.638,160.500 166.351,161.600 166.200 C 162.700 166.049,163.600 165.762,163.600 165.562 C 163.600 165.363,164.140 165.200,164.800 165.200 C 165.460 165.200,166.000 165.020,166.000 164.800 C 166.000 164.118,168.401 164.338,168.673 165.045 C 168.809 165.400,169.793 166.577,170.860 167.661 C 171.927 168.745,172.800 169.829,172.800 170.069 C 172.800 170.309,173.176 170.832,173.636 171.231 L 174.472 171.956 173.636 172.854 C 173.176 173.347,172.800 173.890,172.800 174.060 C 172.800 174.230,172.406 174.736,171.925 175.184 C 171.443 175.633,171.189 176.000,171.359 176.000 C 171.529 176.000,171.023 176.627,170.234 177.393 C 169.445 178.159,168.800 178.932,168.800 179.110 C 168.800 179.288,168.170 180.101,167.400 180.918 C 166.630 181.734,166.000 182.593,166.000 182.827 C 166.000 183.060,165.480 183.689,164.844 184.225 C 164.208 184.760,163.577 185.636,163.443 186.172 C 163.308 186.708,162.839 187.261,162.399 187.400 C 161.960 187.540,161.600 187.879,161.600 188.154 C 161.600 188.430,160.970 189.362,160.200 190.227 C 159.430 191.092,158.800 191.944,158.800 192.119 C 158.800 192.295,158.350 192.855,157.800 193.365 C 157.250 193.875,156.800 194.487,156.800 194.727 C 156.800 194.966,156.170 195.773,155.400 196.521 C 154.630 197.269,154.000 198.006,154.000 198.159 C 154.000 198.311,153.550 198.886,153.000 199.436 C 152.041 200.396,151.811 200.932,151.986 201.800 C 152.030 202.020,151.943 202.076,151.791 201.924 C 151.307 201.441,148.800 204.517,148.800 205.595 C 148.800 205.818,149.160 206.000,149.600 206.000 C 150.040 206.000,150.400 206.160,150.400 206.355 C 150.400 206.550,151.210 206.831,152.200 206.979 C 153.190 207.128,154.000 207.418,154.000 207.625 C 154.000 207.831,154.270 208.000,154.600 208.000 C 154.930 208.000,155.200 208.180,155.200 208.400 C 155.200 208.620,155.740 208.800,156.400 208.800 C 157.060 208.800,157.600 208.980,157.600 209.200 C 157.600 209.420,157.855 209.600,158.167 209.600 C 158.478 209.600,158.793 209.763,158.867 209.963 C 158.940 210.163,159.712 210.438,160.583 210.574 C 161.454 210.711,162.264 210.952,162.383 211.112 C 162.785 211.648,167.316 213.600,168.160 213.600 C 168.512 213.600,168.800 213.780,168.800 214.000 C 168.800 214.220,169.250 214.400,169.800 214.400 C 170.350 214.400,170.800 214.580,170.800 214.800 C 170.800 215.020,171.160 215.200,171.600 215.200 C 172.040 215.200,172.400 215.364,172.400 215.565 C 172.400 215.766,173.120 216.051,174.000 216.200 C 174.880 216.349,175.600 216.634,175.600 216.835 C 175.600 217.036,175.960 217.200,176.400 217.200 C 176.840 217.200,177.200 217.380,177.200 217.600 C 177.200 217.820,177.650 218.000,178.200 218.000 C 178.750 218.000,179.200 218.169,179.200 218.375 C 179.200 218.582,180.010 218.872,181.000 219.021 C 181.990 219.169,182.800 219.450,182.800 219.645 C 182.800 219.840,183.070 220.000,183.400 220.000 C 183.730 220.000,184.000 220.180,184.000 220.400 C 184.000 220.620,184.551 220.800,185.224 220.800 C 185.897 220.800,186.346 220.964,186.222 221.165 C 186.098 221.365,186.717 221.651,187.598 221.800 C 188.479 221.949,189.200 222.234,189.200 222.435 C 189.200 222.636,189.549 222.800,189.976 222.800 C 190.403 222.800,190.864 222.980,191.000 223.200 C 191.136 223.420,191.582 223.600,191.990 223.600 C 192.399 223.600,192.793 223.770,192.867 223.979 C 192.940 224.187,193.630 224.467,194.400 224.600 C 195.170 224.733,195.860 225.013,195.933 225.221 C 196.007 225.430,196.412 225.600,196.833 225.600 C 197.255 225.600,197.600 225.780,197.600 226.000 C 197.600 226.220,198.050 226.400,198.600 226.400 L 199.600 226.400 199.600 196.992 L 199.600 167.584 198.600 166.000 C 198.050 165.129,197.600 164.247,197.600 164.041 C 197.600 163.835,197.465 163.607,197.300 163.533 C 196.926 163.367,194.800 160.541,194.800 160.210 C 194.800 160.076,194.485 159.626,194.100 159.210 C 193.715 158.794,193.040 157.771,192.600 156.937 C 192.160 156.102,191.530 155.113,191.200 154.738 C 189.825 153.178,189.600 152.795,189.600 152.017 C 189.600 151.568,189.780 151.200,190.000 151.200 C 190.225 151.200,190.400 150.078,190.400 148.633 C 190.400 146.943,190.571 146.005,190.900 145.886 C 191.300 145.741,191.300 145.535,190.900 144.858 C 190.625 144.392,190.400 143.218,190.400 142.248 C 190.400 141.050,190.208 140.412,189.800 140.255 C 189.470 140.129,189.200 139.699,189.200 139.301 C 189.200 138.903,188.818 138.312,188.351 137.988 C 187.884 137.665,187.267 137.175,186.980 136.900 C 186.692 136.625,186.264 136.400,186.029 136.400 C 185.793 136.400,185.600 136.220,185.600 136.000 C 185.600 135.780,185.240 135.600,184.800 135.600 C 184.360 135.600,184.000 135.420,184.000 135.200 C 184.000 134.980,183.730 134.800,183.400 134.800 C 183.070 134.800,182.800 134.631,182.800 134.425 C 182.800 134.218,181.990 133.928,181.000 133.779 C 180.010 133.631,179.200 133.350,179.200 133.155 C 179.200 132.960,178.851 132.800,178.424 132.800 C 177.997 132.800,177.536 132.620,177.400 132.400 C 177.264 132.180,176.724 132.000,176.200 132.000 C 175.676 132.000,175.146 131.837,175.023 131.637 C 174.900 131.438,173.899 131.151,172.800 131.000 C 171.700 130.849,170.800 130.562,170.800 130.362 C 170.800 130.163,170.170 130.000,169.400 130.000 C 168.630 130.000,168.000 129.820,168.000 129.600 C 168.000 129.380,167.381 129.200,166.624 129.200 C 165.867 129.200,165.146 129.036,165.022 128.836 C 164.898 128.635,163.268 128.344,161.399 128.188 C 159.529 128.033,158.000 127.747,158.000 127.553 C 158.000 127.359,157.190 127.200,156.200 127.200 C 155.210 127.200,154.400 127.020,154.400 126.800 C 154.400 126.580,153.500 126.400,152.400 126.400 C 151.300 126.400,150.400 126.239,150.400 126.043 C 150.400 125.847,148.555 125.555,146.300 125.395 C 144.045 125.236,142.106 124.957,141.991 124.777 C 141.877 124.596,140.662 124.408,139.291 124.359 C 137.921 124.309,136.800 124.118,136.800 123.934 C 136.800 123.750,135.821 123.600,134.624 123.600 C 133.427 123.600,132.346 123.436,132.222 123.236 C 132.099 123.036,129.658 122.743,126.799 122.585 C 123.939 122.427,121.600 122.140,121.600 121.949 C 121.600 121.757,120.430 121.600,119.000 121.600 C 117.533 121.600,116.400 121.426,116.400 121.200 C 116.400 120.973,115.227 120.800,113.680 120.800 C 112.184 120.800,110.789 120.633,110.580 120.430 C 110.371 120.226,107.460 119.931,104.111 119.774 C 100.761 119.617,98.117 119.334,98.234 119.145 C 98.351 118.955,97.187 118.800,95.647 118.800 C 94.107 118.800,92.736 118.620,92.600 118.400 C 92.464 118.180,90.934 118.000,89.200 118.000 C 87.466 118.000,85.936 117.820,85.800 117.600 C 85.664 117.380,84.123 117.200,82.376 117.200 C 80.629 117.200,79.200 117.041,79.200 116.846 C 79.200 116.651,76.138 116.360,72.395 116.200 C 68.653 116.039,65.492 115.749,65.372 115.554 C 65.251 115.359,63.558 115.200,61.610 115.200 C 59.661 115.200,58.007 115.031,57.933 114.825 C 57.860 114.618,56.180 114.414,54.200 114.370 C 52.220 114.326,50.510 114.157,50.400 113.994 C 50.290 113.831,46.960 113.567,43.000 113.407 C 39.040 113.247,35.740 112.955,35.667 112.758 C 35.593 112.561,33.759 112.400,31.590 112.400 C 29.393 112.400,27.538 112.223,27.400 112.000 C 27.261 111.775,25.340 111.600,23.010 111.600 C 20.731 111.600,18.807 111.439,18.733 111.243 C 18.660 111.046,14.820 110.755,10.200 110.596 C 5.580 110.436,1.740 110.147,1.667 109.953 C 1.443 109.362,0.000 109.560,0.000 110.182 " stroke="none" fill="#0c4c84" fill-rule="evenodd"></path><path id="path1" d="M151.200 268.600 L 151.200 290.400 156.000 290.400 L 160.800 290.400 160.800 268.600 L 160.800 246.800 156.000 246.800 L 151.200 246.800 151.200 268.600 M237.600 268.600 L 237.600 290.400 242.200 290.400 L 246.800 290.400 246.800 268.600 L 246.800 246.800 242.200 246.800 L 237.600 246.800 237.600 268.600 M50.400 251.000 L 50.400 254.400 56.800 254.400 L 63.200 254.400 63.200 272.400 L 63.200 290.400 67.400 290.400 L 71.600 290.400 71.600 272.400 L 71.600 254.400 77.800 254.400 L 84.000 254.400 84.000 251.000 L 84.000 247.600 67.200 247.600 L 50.400 247.600 50.400 251.000 M101.200 269.000 L 101.200 290.400 105.000 290.400 L 108.800 290.400 108.800 282.571 C 108.800 276.320,108.915 274.628,109.371 274.171 C 109.990 273.552,113.200 273.372,113.200 273.957 C 113.200 274.153,113.650 274.426,114.200 274.564 C 114.846 274.726,115.200 275.096,115.200 275.608 C 115.200 276.043,115.368 276.400,115.573 276.400 C 115.778 276.400,116.074 276.805,116.230 277.300 C 116.387 277.795,116.849 278.491,117.257 278.847 C 117.666 279.203,118.000 279.776,118.000 280.120 C 118.000 280.464,118.360 280.860,118.800 281.000 C 119.240 281.140,119.600 281.589,119.600 281.998 C 119.600 282.408,119.870 283.013,120.200 283.343 C 120.530 283.673,120.800 284.136,120.800 284.371 C 120.800 284.607,120.980 284.800,121.200 284.800 C 121.420 284.800,121.600 285.070,121.600 285.400 C 121.600 285.730,121.751 286.000,121.936 286.000 C 122.120 286.000,122.615 286.720,123.036 287.599 C 123.456 288.478,124.115 289.301,124.500 289.426 C 124.885 289.551,125.200 289.822,125.200 290.027 C 125.200 290.235,127.163 290.400,129.647 290.400 C 134.063 290.400,134.092 290.394,133.852 289.500 C 133.719 289.005,133.608 288.387,133.605 288.127 C 133.602 287.867,133.240 287.540,132.800 287.400 C 132.360 287.260,132.000 286.798,132.000 286.373 C 132.000 285.948,131.832 285.600,131.627 285.600 C 131.422 285.600,131.126 285.195,130.970 284.700 C 130.813 284.205,130.351 283.509,129.943 283.153 C 129.534 282.797,129.200 282.232,129.200 281.896 C 129.200 281.560,128.930 281.182,128.600 281.055 C 128.270 280.929,128.000 280.594,128.000 280.313 C 127.999 280.031,127.594 279.320,127.100 278.734 C 126.605 278.147,125.885 277.290,125.500 276.829 C 125.115 276.368,124.800 275.813,124.800 275.595 C 124.800 275.377,124.069 274.490,123.175 273.622 L 121.550 272.046 122.975 271.778 C 123.759 271.631,124.400 271.351,124.400 271.155 C 124.400 270.960,124.588 270.800,124.818 270.800 C 125.048 270.800,125.686 270.350,126.236 269.800 C 126.786 269.250,127.405 268.800,127.611 268.800 C 127.816 268.800,128.107 268.311,128.257 267.713 C 128.407 267.116,128.861 266.272,129.265 265.838 C 129.669 265.404,130.000 264.734,130.000 264.348 C 130.000 263.963,130.180 263.536,130.400 263.400 C 130.620 263.264,130.800 261.723,130.800 259.976 C 130.800 258.125,130.633 256.800,130.400 256.800 C 130.180 256.800,130.000 256.350,130.000 255.800 C 130.000 255.250,129.820 254.800,129.600 254.800 C 129.380 254.800,129.200 254.440,129.200 254.000 C 129.200 253.560,129.020 253.200,128.800 253.200 C 128.580 253.200,128.400 253.007,128.400 252.771 C 128.400 252.261,127.399 251.200,126.917 251.200 C 126.730 251.200,126.317 250.840,126.000 250.400 C 125.683 249.960,125.208 249.600,124.945 249.600 C 124.682 249.600,124.407 249.422,124.333 249.204 C 124.260 248.986,123.075 248.690,121.700 248.547 C 120.325 248.403,119.200 248.132,119.200 247.943 C 119.200 247.754,115.150 247.600,110.200 247.600 L 101.200 247.600 101.200 269.000 M181.200 269.000 L 181.200 290.400 184.800 290.400 L 188.400 290.400 188.400 276.400 C 188.400 268.700,188.519 262.400,188.664 262.400 C 189.109 262.400,191.200 264.911,191.200 265.445 C 191.200 265.721,191.551 266.057,191.980 266.194 C 192.408 266.330,192.860 266.758,192.983 267.146 C 193.106 267.534,193.835 268.537,194.603 269.376 C 195.371 270.214,196.000 271.076,196.000 271.290 C 196.000 271.504,196.540 272.183,197.200 272.800 C 197.860 273.417,198.400 274.100,198.400 274.319 C 198.400 274.537,199.210 275.574,200.200 276.622 C 201.190 277.670,202.000 278.670,202.000 278.845 C 202.000 279.020,202.450 279.614,203.000 280.164 C 203.550 280.714,204.000 281.275,204.000 281.410 C 204.000 281.546,204.225 281.900,204.500 282.196 C 204.775 282.493,205.360 283.205,205.800 283.779 C 206.240 284.353,207.185 285.473,207.900 286.267 C 208.615 287.062,209.200 287.840,209.200 287.998 C 209.200 289.409,211.255 290.400,214.181 290.400 L 217.200 290.400 217.200 269.000 L 217.200 247.600 213.800 247.600 L 210.400 247.600 210.400 262.048 L 210.400 276.496 208.800 274.848 C 207.920 273.941,207.200 273.042,207.200 272.850 C 207.200 272.658,206.570 271.813,205.800 270.972 C 205.030 270.131,204.400 269.321,204.400 269.172 C 204.400 269.023,203.770 268.213,203.000 267.372 C 202.230 266.531,201.600 265.707,201.600 265.540 C 201.600 265.373,201.150 264.786,200.600 264.236 C 200.050 263.686,199.600 263.128,199.600 262.996 C 199.600 262.865,199.061 262.181,198.402 261.478 C 197.743 260.775,197.203 260.080,197.202 259.934 C 197.201 259.787,196.480 258.895,195.600 257.951 C 194.720 257.008,194.000 256.084,194.000 255.899 C 194.000 255.713,193.550 255.145,193.000 254.635 C 192.450 254.125,192.000 253.414,192.000 253.054 C 192.000 252.694,191.848 252.400,191.661 252.400 C 190.983 252.400,189.647 250.926,189.387 249.891 C 189.240 249.307,188.778 248.720,188.360 248.587 C 187.942 248.455,187.600 248.178,187.600 247.973 C 187.600 247.768,186.160 247.600,184.400 247.600 L 181.200 247.600 181.200 269.000 M263.600 251.000 L 263.600 254.400 270.400 254.400 L 277.200 254.400 277.200 272.400 L 277.200 290.400 281.000 290.400 L 284.800 290.400 284.800 272.400 L 284.800 254.400 291.600 254.400 L 298.400 254.400 298.400 251.000 L 298.400 247.600 281.000 247.600 L 263.600 247.600 263.600 251.000 M310.400 248.571 C 310.400 249.106,310.670 249.813,311.000 250.143 C 311.330 250.473,311.600 250.936,311.600 251.171 C 311.600 251.407,311.780 251.600,312.000 251.600 C 312.220 251.600,312.400 251.960,312.400 252.400 C 312.400 252.840,312.577 253.200,312.792 253.200 C 313.008 253.200,313.298 253.650,313.436 254.200 C 313.574 254.750,313.847 255.200,314.043 255.200 C 314.240 255.200,314.400 255.548,314.400 255.973 C 314.400 256.398,314.741 256.854,315.158 256.987 C 315.629 257.136,316.015 257.756,316.178 258.623 C 316.322 259.390,316.791 260.237,317.220 260.505 C 317.649 260.773,318.000 261.309,318.000 261.696 C 318.000 262.083,318.180 262.400,318.400 262.400 C 318.620 262.400,318.800 262.593,318.800 262.829 C 318.800 263.064,319.070 263.527,319.400 263.857 C 319.730 264.187,320.000 264.804,320.000 265.229 C 320.000 265.653,320.180 266.000,320.400 266.000 C 320.620 266.000,320.800 266.230,320.800 266.512 C 320.800 266.793,321.153 267.278,321.585 267.589 C 322.017 267.901,322.486 268.680,322.627 269.321 C 322.868 270.421,323.406 271.261,324.800 272.715 C 325.286 273.222,325.424 274.961,325.528 281.871 L 325.657 290.400 329.600 290.400 L 333.543 290.400 333.672 281.733 C 333.768 275.248,333.926 273.024,334.300 272.900 C 334.575 272.808,334.800 272.478,334.800 272.167 C 334.800 271.855,334.940 271.600,335.110 271.600 C 335.281 271.600,335.776 270.792,336.210 269.804 C 336.645 268.816,337.135 268.006,337.300 268.004 C 337.465 268.002,337.600 267.652,337.600 267.227 C 337.600 266.802,337.941 266.346,338.358 266.213 C 338.814 266.069,339.213 265.455,339.360 264.673 C 339.494 263.959,339.963 263.115,340.402 262.799 C 340.841 262.482,341.200 261.903,341.200 261.512 C 341.200 261.120,341.380 260.800,341.600 260.800 C 341.820 260.800,342.000 260.607,342.000 260.371 C 342.000 260.136,342.270 259.673,342.600 259.343 C 342.930 259.013,343.200 258.396,343.200 257.971 C 343.200 257.547,343.380 257.200,343.600 257.200 C 343.820 257.200,344.000 256.970,344.000 256.688 C 344.000 256.407,344.353 255.922,344.785 255.611 C 345.217 255.299,345.691 254.495,345.839 253.823 C 345.987 253.151,346.443 252.309,346.854 251.953 C 347.264 251.597,347.600 251.117,347.600 250.886 C 347.600 250.656,347.758 250.407,347.951 250.333 C 348.145 250.260,348.429 249.615,348.583 248.900 L 348.864 247.600 344.846 247.600 C 340.638 247.600,338.400 248.637,338.400 250.587 C 338.400 250.924,338.234 251.200,338.032 251.200 C 337.829 251.200,337.541 251.760,337.390 252.444 C 337.139 253.587,336.619 254.426,335.300 255.816 C 335.025 256.106,334.800 256.626,334.800 256.971 C 334.800 257.317,334.628 257.600,334.418 257.600 C 334.208 257.600,333.918 258.230,333.774 259.000 C 333.629 259.770,333.351 260.400,333.155 260.400 C 332.960 260.400,332.800 260.670,332.800 261.000 C 332.800 261.330,332.620 261.600,332.400 261.600 C 332.180 261.600,332.000 261.848,332.000 262.151 C 332.000 262.454,331.730 262.926,331.400 263.200 C 331.070 263.474,330.800 264.036,330.800 264.449 C 330.800 264.862,330.620 265.200,330.400 265.200 C 330.180 265.200,330.000 265.650,330.000 266.200 C 330.000 266.750,329.820 267.200,329.600 267.200 C 329.380 267.200,329.200 266.930,329.200 266.600 C 329.200 266.270,329.040 266.000,328.845 266.000 C 328.649 266.000,328.371 265.370,328.226 264.600 C 328.082 263.830,327.792 263.200,327.582 263.200 C 327.372 263.200,327.200 262.840,327.200 262.400 C 327.200 261.960,327.020 261.600,326.800 261.600 C 326.580 261.600,326.400 261.330,326.400 261.000 C 326.400 260.670,326.220 260.400,326.000 260.400 C 325.780 260.400,325.600 260.040,325.600 259.600 C 325.600 259.160,325.440 258.800,325.243 258.800 C 325.047 258.800,324.774 258.350,324.636 257.800 C 324.498 257.250,324.208 256.800,323.992 256.800 C 323.777 256.800,323.600 256.440,323.600 256.000 C 323.600 255.560,323.420 255.200,323.200 255.200 C 322.980 255.200,322.800 254.930,322.800 254.600 C 322.800 254.270,322.640 254.000,322.445 254.000 C 322.249 254.000,321.971 253.370,321.826 252.600 C 321.682 251.830,321.422 251.200,321.249 251.200 C 321.077 251.200,320.680 250.710,320.368 250.112 C 319.152 247.782,318.720 247.600,314.400 247.600 C 310.431 247.600,310.400 247.608,310.400 248.571 M118.726 254.777 C 118.803 255.010,119.040 255.200,119.252 255.200 C 119.769 255.200,121.600 257.057,121.600 257.582 C 121.600 257.812,121.780 258.000,122.000 258.000 C 122.226 258.000,122.400 259.133,122.400 260.600 C 122.400 262.067,122.226 263.200,122.000 263.200 C 121.780 263.200,121.600 263.382,121.600 263.604 C 121.600 264.273,119.361 266.400,118.657 266.400 C 118.296 266.400,118.000 266.580,118.000 266.800 C 118.000 267.020,117.550 267.200,117.000 267.200 C 116.450 267.200,116.000 267.380,116.000 267.600 C 116.000 268.255,110.044 268.101,109.371 267.429 C 108.595 266.652,108.530 254.591,109.300 254.236 C 110.160 253.840,118.574 254.323,118.726 254.777 " stroke="none" fill="#141414" fill-rule="evenodd"></path><path id="path2" d="M395.600 109.939 C 395.600 110.126,392.405 110.406,388.500 110.562 C 384.595 110.718,380.770 110.936,380.000 111.046 C 379.230 111.156,376.800 111.341,374.600 111.457 C 372.400 111.573,370.429 111.832,370.220 112.034 C 370.011 112.235,368.177 112.400,366.144 112.400 C 364.111 112.400,362.349 112.559,362.229 112.754 C 362.108 112.948,358.723 113.238,354.705 113.398 C 350.687 113.558,347.219 113.834,346.998 114.012 C 346.777 114.190,344.977 114.441,342.998 114.571 C 333.758 115.174,332.579 115.285,332.202 115.581 C 331.812 115.887,322.119 116.571,319.900 116.448 C 319.295 116.415,318.800 116.570,318.800 116.794 C 318.800 117.037,317.435 117.200,315.400 117.200 C 313.400 117.200,312.000 117.365,312.000 117.600 C 312.000 117.833,310.675 118.000,308.824 118.000 C 307.077 118.000,305.536 118.180,305.400 118.400 C 305.264 118.620,303.813 118.800,302.176 118.800 C 300.539 118.800,299.200 118.949,299.200 119.132 C 299.200 119.315,296.545 119.678,293.300 119.940 C 290.055 120.202,286.140 120.516,284.600 120.639 C 283.060 120.762,281.629 121.028,281.420 121.231 C 281.211 121.434,280.007 121.600,278.744 121.600 C 277.481 121.600,276.349 121.758,276.230 121.952 C 276.110 122.145,273.760 122.433,271.006 122.592 C 268.253 122.751,266.000 123.042,266.000 123.240 C 266.000 123.438,264.819 123.600,263.376 123.600 C 261.729 123.600,260.845 123.749,261.000 124.000 C 261.153 124.248,260.404 124.400,259.024 124.400 C 257.801 124.400,256.800 124.554,256.800 124.743 C 256.800 124.931,254.969 125.212,252.731 125.366 C 250.492 125.520,248.344 125.816,247.957 126.023 C 247.570 126.230,246.521 126.400,245.626 126.400 C 244.732 126.400,244.000 126.580,244.000 126.800 C 244.000 127.020,243.190 127.200,242.200 127.200 C 241.210 127.200,240.400 127.348,240.400 127.528 C 240.400 127.709,238.915 128.073,237.100 128.337 C 231.189 129.199,230.800 129.280,230.800 129.642 C 230.800 129.839,230.271 130.000,229.624 130.000 C 228.977 130.000,228.351 130.156,228.233 130.347 C 228.115 130.538,227.121 130.813,226.025 130.959 C 224.930 131.104,223.925 131.398,223.793 131.612 C 223.661 131.825,223.113 132.000,222.576 132.000 C 222.039 132.000,221.600 132.180,221.600 132.400 C 221.600 132.620,221.150 132.800,220.600 132.800 C 220.050 132.800,219.600 132.935,219.600 133.100 C 219.600 133.265,218.475 133.753,217.100 134.185 C 215.725 134.616,214.309 135.291,213.953 135.685 C 213.597 136.078,213.102 136.400,212.853 136.400 C 212.604 136.400,212.400 136.568,212.400 136.773 C 212.400 136.978,212.037 137.261,211.594 137.402 C 211.151 137.543,210.871 137.792,210.973 137.956 C 211.074 138.120,210.807 138.507,210.379 138.815 C 209.950 139.124,209.600 139.607,209.600 139.888 C 209.600 140.170,209.440 140.400,209.244 140.400 C 208.551 140.400,207.743 146.703,208.357 147.317 C 208.601 147.561,208.800 148.624,208.800 149.680 C 208.800 150.736,208.950 151.600,209.133 151.600 C 209.728 151.600,209.493 152.983,208.794 153.600 C 208.420 153.930,207.987 154.605,207.830 155.100 C 207.674 155.595,207.378 156.000,207.173 156.000 C 206.968 156.000,206.800 156.341,206.800 156.757 C 206.800 157.174,206.521 157.621,206.181 157.752 C 205.841 157.883,205.373 158.532,205.142 159.195 C 204.911 159.858,204.559 160.400,204.361 160.400 C 204.162 160.400,204.000 160.604,204.000 160.853 C 204.000 161.102,203.666 161.597,203.257 161.953 C 202.849 162.309,202.387 163.005,202.230 163.500 C 202.074 163.995,201.778 164.400,201.573 164.400 C 201.368 164.400,201.200 164.717,201.200 165.104 C 201.200 165.491,200.842 166.031,200.405 166.304 C 199.625 166.791,199.608 167.355,199.505 196.770 L 199.400 226.740 200.600 226.517 C 201.260 226.395,201.971 226.138,202.180 225.947 C 202.389 225.756,202.884 225.600,203.280 225.600 C 203.676 225.600,204.000 225.428,204.000 225.218 C 204.000 225.008,204.632 224.718,205.404 224.573 C 206.177 224.428,206.907 224.150,207.028 223.955 C 207.149 223.760,207.597 223.600,208.024 223.600 C 208.451 223.600,208.800 223.420,208.800 223.200 C 208.800 222.980,209.149 222.800,209.576 222.800 C 210.003 222.800,210.451 222.640,210.572 222.445 C 210.693 222.250,211.423 221.972,212.196 221.827 C 212.968 221.682,213.600 221.392,213.600 221.182 C 213.600 220.972,213.949 220.800,214.376 220.800 C 214.803 220.800,215.264 220.620,215.400 220.400 C 215.536 220.180,215.997 220.000,216.424 220.000 C 216.851 220.000,217.200 219.820,217.200 219.600 C 217.200 219.380,217.559 219.200,217.997 219.200 C 218.983 219.200,222.000 217.923,222.000 217.506 C 222.000 217.338,222.324 217.200,222.720 217.200 C 223.116 217.200,223.611 217.057,223.820 216.882 C 224.029 216.707,225.280 216.219,226.600 215.798 C 227.920 215.376,229.090 214.934,229.200 214.815 C 229.692 214.286,231.221 213.632,232.551 213.383 C 233.348 213.233,234.000 212.951,234.000 212.755 C 234.000 212.560,234.349 212.400,234.776 212.400 C 235.203 212.400,235.664 212.220,235.800 212.000 C 235.936 211.780,236.397 211.600,236.824 211.600 C 237.251 211.600,237.600 211.440,237.600 211.245 C 237.600 211.049,238.207 210.775,238.949 210.636 C 239.691 210.497,241.162 209.945,242.219 209.411 C 243.275 208.876,244.315 208.548,244.531 208.681 C 244.750 208.816,244.797 208.719,244.638 208.462 C 244.458 208.170,244.656 208.000,245.176 208.000 C 245.629 208.000,246.000 207.843,246.000 207.650 C 246.000 207.457,246.584 207.183,247.297 207.041 C 250.767 206.347,251.444 205.480,249.800 203.836 C 249.250 203.286,248.800 202.654,248.800 202.432 C 248.800 202.209,248.170 201.397,247.400 200.627 C 246.630 199.857,246.000 199.084,246.000 198.909 C 246.000 198.735,245.550 198.107,245.000 197.513 C 244.450 196.920,244.000 196.338,244.000 196.221 C 244.000 196.014,242.731 194.444,241.700 193.375 C 241.425 193.090,241.200 192.746,241.200 192.610 C 241.200 192.475,240.750 191.914,240.200 191.364 C 239.650 190.814,239.200 190.174,239.200 189.942 C 239.200 189.711,238.660 189.017,238.000 188.400 C 237.340 187.783,236.800 187.076,236.800 186.827 C 236.800 186.579,236.170 185.797,235.400 185.090 C 234.630 184.384,234.000 183.611,234.000 183.372 C 234.000 183.134,233.550 182.517,233.000 182.000 C 232.450 181.483,232.000 180.900,232.000 180.704 C 232.000 180.507,231.372 179.684,230.603 178.873 C 229.835 178.063,229.205 177.241,229.203 177.046 C 229.202 176.851,228.750 176.275,228.200 175.765 C 227.650 175.255,227.200 174.599,227.200 174.307 C 227.200 173.816,226.664 173.302,225.232 172.419 C 224.782 172.142,224.996 171.748,226.254 170.534 C 227.129 169.690,228.189 168.415,228.609 167.699 C 229.029 166.984,229.708 166.293,230.117 166.163 C 230.526 166.033,230.765 165.832,230.649 165.716 C 230.323 165.389,231.467 164.400,232.171 164.400 C 232.517 164.400,232.800 164.580,232.800 164.800 C 232.800 165.020,233.220 165.200,233.733 165.200 C 234.247 165.200,234.799 165.332,234.960 165.494 C 235.219 165.753,237.486 166.351,240.900 167.062 C 241.505 167.188,242.000 167.450,242.000 167.645 C 242.000 167.840,242.450 168.000,243.000 168.000 C 243.550 168.000,244.000 168.167,244.000 168.371 C 244.000 168.575,244.990 168.866,246.200 169.017 C 247.410 169.168,248.400 169.451,248.400 169.646 C 248.400 169.841,248.850 170.000,249.400 170.000 C 249.950 170.000,250.400 170.180,250.400 170.400 C 250.400 170.620,250.839 170.800,251.376 170.800 C 251.913 170.800,252.454 170.963,252.577 171.163 C 252.700 171.362,253.701 171.649,254.800 171.800 C 255.900 171.951,256.800 172.238,256.800 172.438 C 256.800 172.637,257.340 172.800,258.000 172.800 C 258.660 172.800,259.200 172.980,259.200 173.200 C 259.200 173.420,259.729 173.600,260.376 173.600 C 261.023 173.600,261.661 173.775,261.793 173.988 C 261.925 174.202,262.925 174.495,264.016 174.640 C 265.107 174.785,266.000 175.060,266.000 175.252 C 266.000 175.443,266.450 175.600,267.000 175.600 C 267.550 175.600,268.000 175.780,268.000 176.000 C 268.000 176.220,268.362 176.400,268.805 176.400 C 269.248 176.400,269.923 176.558,270.305 176.752 C 271.585 177.399,274.990 178.404,275.900 178.402 C 276.395 178.401,276.800 178.541,276.800 178.713 C 276.800 178.885,277.655 179.265,278.700 179.559 C 279.745 179.852,281.371 180.342,282.314 180.646 C 283.257 180.951,284.382 181.200,284.814 181.200 C 285.246 181.200,285.600 181.380,285.600 181.600 C 285.600 181.820,286.050 182.000,286.600 182.000 C 287.150 182.000,287.600 182.180,287.600 182.400 C 287.600 182.620,288.129 182.800,288.776 182.800 C 289.423 182.800,290.061 182.975,290.193 183.188 C 290.325 183.402,291.325 183.695,292.416 183.840 C 293.507 183.985,294.400 184.216,294.400 184.354 C 294.400 185.453,299.251 185.840,300.000 184.800 C 300.317 184.360,300.799 184.000,301.070 184.000 C 301.342 184.000,302.014 183.550,302.564 183.000 C 303.114 182.450,303.670 182.000,303.799 182.000 C 303.929 182.000,304.520 181.550,305.113 181.000 C 305.707 180.450,306.379 180.000,306.608 180.000 C 306.836 180.000,307.283 179.640,307.600 179.200 C 307.917 178.760,308.409 178.400,308.692 178.400 C 308.975 178.400,309.769 177.864,310.455 177.208 C 311.141 176.552,311.887 176.130,312.113 176.270 C 312.349 176.416,312.402 176.327,312.238 176.062 C 312.073 175.794,312.196 175.600,312.534 175.600 C 312.853 175.600,313.218 175.330,313.345 175.000 C 313.471 174.670,313.874 174.400,314.241 174.400 C 314.907 174.400,316.400 172.975,316.400 172.339 C 316.400 172.152,316.747 172.000,317.171 172.000 C 317.595 172.000,318.296 171.550,318.729 171.000 C 319.161 170.450,319.739 170.000,320.012 170.000 C 320.285 170.000,320.925 169.550,321.435 169.000 C 321.945 168.450,322.598 168.000,322.886 168.000 C 323.174 168.000,323.748 167.550,324.161 167.000 C 324.574 166.450,325.202 165.998,325.556 165.996 C 325.910 165.994,326.625 165.454,327.145 164.796 C 327.665 164.138,328.297 163.600,328.549 163.600 C 328.802 163.600,329.493 163.150,330.087 162.600 C 330.680 162.050,331.353 161.600,331.583 161.600 C 331.812 161.600,332.000 161.459,332.000 161.286 C 332.000 161.114,332.585 160.631,333.300 160.215 C 334.015 159.798,334.891 159.129,335.247 158.728 C 335.603 158.328,336.021 158.000,336.175 158.000 C 336.330 158.000,336.708 157.775,337.015 157.500 C 338.216 156.423,338.776 156.000,339.001 156.000 C 339.131 156.000,339.686 155.550,340.236 155.000 C 340.786 154.450,341.576 154.000,341.991 154.000 C 342.406 154.000,342.855 153.657,342.988 153.239 C 343.121 152.820,343.808 152.201,344.515 151.864 C 345.222 151.526,346.065 150.879,346.388 150.425 C 346.712 149.971,347.196 149.600,347.465 149.600 C 348.141 149.600,348.449 148.994,348.159 148.236 C 347.943 147.676,346.587 147.600,336.757 147.600 C 329.816 147.600,325.600 147.453,325.600 147.212 C 325.600 146.975,321.196 146.746,314.300 146.624 C 308.085 146.513,301.560 146.336,299.800 146.230 C 298.040 146.124,294.905 146.029,292.833 146.019 C 290.762 146.008,289.155 145.911,289.263 145.803 C 289.372 145.695,295.425 145.598,302.715 145.589 C 310.771 145.578,316.064 145.420,316.209 145.186 C 316.354 144.950,321.733 144.800,330.000 144.800 C 338.604 144.800,343.643 144.654,343.800 144.400 C 343.947 144.163,346.422 144.000,349.878 144.000 C 355.583 144.000,355.728 143.979,356.635 143.000 C 357.145 142.450,357.768 142.000,358.020 142.000 C 358.273 142.000,358.983 141.460,359.600 140.800 C 360.217 140.140,360.876 139.600,361.065 139.600 C 361.254 139.600,361.893 139.150,362.487 138.600 C 363.080 138.050,363.753 137.600,363.983 137.600 C 364.212 137.600,364.400 137.459,364.400 137.286 C 364.400 137.114,364.985 136.631,365.700 136.215 C 366.415 135.798,367.291 135.129,367.647 134.728 C 368.003 134.328,368.490 134.000,368.729 134.000 C 368.968 134.000,369.614 133.550,370.164 133.000 C 370.714 132.450,371.275 132.000,371.410 132.000 C 371.546 132.000,371.908 131.775,372.215 131.500 C 373.436 130.404,373.978 130.000,374.223 130.000 C 374.364 130.000,374.978 129.466,375.587 128.814 C 376.196 128.162,376.820 127.753,376.972 127.906 C 377.125 128.058,377.757 127.602,378.378 126.892 C 378.998 126.181,379.663 125.600,379.857 125.600 C 380.050 125.600,380.693 125.150,381.287 124.600 C 381.880 124.050,382.631 123.600,382.956 123.600 C 383.280 123.600,383.656 123.255,383.789 122.833 C 383.923 122.412,384.568 121.880,385.222 121.652 C 385.876 121.424,386.517 120.959,386.648 120.619 C 386.779 120.279,387.110 120.000,387.384 120.000 C 387.659 120.000,388.369 119.550,388.962 119.000 C 389.556 118.450,390.220 118.000,390.439 118.000 C 390.657 118.000,391.286 117.550,391.836 117.000 C 392.386 116.450,392.971 116.000,393.135 116.000 C 393.299 116.000,394.083 115.415,394.878 114.700 C 395.673 113.985,397.150 112.794,398.161 112.053 C 400.669 110.216,400.578 109.600,397.800 109.600 C 396.590 109.600,395.600 109.753,395.600 109.939 " stroke="none" fill="#045ca4" fill-rule="evenodd"></path></g></svg>