<svg id="svg" xmlns="http://www.w3.org/2000/svg"  width="400" height="400" viewBox="0, 0, 400,400"><g id="svgg"><path id="path0" d="M0.808 142.655 C 1.332 143.178,11.414 150.748,23.213 159.479 L 44.666 175.352 49.269 175.379 C 60.610 175.446,123.349 177.340,123.633 177.624 C 123.808 177.798,109.134 178.353,91.024 178.857 C 72.915 179.361,56.682 179.969,54.951 180.209 L 51.804 180.645 76.334 198.822 L 100.863 217.000 134.343 206.233 L 167.824 195.467 171.236 199.276 C 173.113 201.371,174.648 203.262,174.647 203.479 C 174.647 203.696,168.916 211.268,161.913 220.306 C 154.909 229.343,149.315 236.874,149.481 237.040 C 150.195 237.754,198.837 257.746,199.861 257.746 C 200.483 257.746,212.159 253.094,225.808 247.408 L 250.623 237.070 247.266 232.796 C 245.419 230.445,239.549 222.897,234.221 216.024 L 224.535 203.526 227.846 199.650 C 231.874 194.935,226.309 193.929,265.031 206.373 C 283.175 212.204,298.300 216.879,298.642 216.762 C 299.705 216.399,347.853 180.658,347.871 180.220 C 347.880 179.992,332.675 179.386,314.081 178.873 C 295.488 178.360,280.401 177.815,280.554 177.662 C 280.708 177.508,297.499 176.926,317.868 176.368 L 354.902 175.353 376.923 159.072 C 389.034 150.118,399.261 142.488,399.648 142.119 C 400.097 141.690,398.563 141.602,395.423 141.875 C 288.341 151.206,242.278 157.201,222.004 164.447 C 210.675 168.497,207.641 172.272,209.088 180.518 L 209.810 184.627 204.889 191.962 C 202.183 195.995,199.824 199.296,199.648 199.296 C 199.472 199.296,197.123 196.011,194.430 191.996 L 189.532 184.697 190.087 180.608 C 191.159 172.710,189.632 170.034,182.042 166.506 C 165.569 158.850,114.594 151.473,26.761 144.035 C 15.335 143.067,4.606 142.147,2.920 141.991 C 0.347 141.752,0.008 141.859,0.808 142.655 " stroke="none" fill-rule="evenodd"></path></g></svg>