<svg id="svg" xmlns="http://www.w3.org/2000/svg"  width="400" height="400" viewBox="0, 0, 400,400" version="1.1"><g id="svgg"><path id="path0" d="M190.417 0.568 C 81.241 10.007,4.190 87.984,0.280 192.991 C -3.502 294.573,64.482 377.430,167.015 396.205 C 187.058 399.875,191.341 400.000,297.228 400.000 L 398.333 400.000 398.333 326.271 L 398.333 252.542 306.042 252.306 L 213.750 252.071 207.128 250.194 C 180.137 242.546,166.715 225.879,166.679 199.967 C 166.643 174.263,179.422 158.653,207.500 150.102 L 214.583 147.945 306.458 147.701 L 398.333 147.458 398.333 73.729 L 398.333 0.000 373.658 0.000 L 348.982 0.000 343.485 3.843 C 338.957 7.008,337.727 7.522,336.505 6.759 C 332.564 4.298,326.818 7.171,327.807 11.109 C 328.576 14.173,331.151 14.031,340.358 10.417 C 352.160 5.783,357.870 6.696,362.239 13.913 C 371.772 29.661,340.432 53.759,327.615 40.535 L 324.872 37.705 331.604 32.961 C 337.721 28.650,338.455 28.336,339.644 29.525 C 343.736 33.617,351.874 28.046,348.611 23.387 C 347.024 21.121,346.504 21.172,336.307 24.583 C 323.133 28.991,317.882 28.116,314.200 20.899 C 311.238 15.093,312.727 9.183,318.677 3.125 L 321.747 0.000 257.748 0.140 C 222.549 0.217,192.250 0.410,190.417 0.568 M305.235 21.151 C 309.065 22.794,321.204 37.974,329.421 51.394 C 329.986 52.318,317.853 61.667,316.087 61.667 C 315.679 61.667,311.799 56.559,307.464 50.317 C 296.326 34.277,293.395 32.310,288.269 37.436 C 284.072 41.633,285.007 43.779,300.502 65.493 L 304.143 70.596 297.062 75.455 C 292.750 78.415,289.693 80.009,289.244 79.532 C 288.838 79.102,283.919 72.188,278.312 64.167 C 272.705 56.146,267.041 48.217,265.725 46.547 C 262.658 42.652,262.308 43.357,269.973 37.986 C 277.539 32.684,277.529 32.687,279.092 35.191 C 280.219 36.995,280.284 36.940,281.359 33.253 C 284.164 23.632,296.475 17.392,305.235 21.151 M250.717 34.487 L 254.130 39.391 247.125 44.279 C 243.272 46.967,239.959 49.167,239.761 49.167 C 239.233 49.167,233.327 40.135,233.368 39.388 C 233.397 38.836,246.898 29.146,247.193 29.465 C 247.254 29.530,248.839 31.790,250.717 34.487 M270.567 62.917 C 276.974 72.083,282.843 80.549,283.609 81.729 L 285.000 83.875 278.395 88.604 C 274.762 91.205,271.480 93.320,271.103 93.304 C 270.306 93.271,244.983 57.136,245.034 56.106 C 245.065 55.475,258.518 45.669,258.796 46.074 C 258.863 46.171,264.160 53.750,270.567 62.917 M242.500 66.287 C 245.651 67.897,265.833 94.434,265.833 96.967 C 265.833 97.439,252.898 106.667,252.236 106.667 C 252.002 106.667,247.843 101.056,242.994 94.199 C 232.279 79.045,229.426 77.165,224.545 82.045 C 220.404 86.187,221.144 88.284,232.309 104.031 C 236.643 110.143,239.865 115.436,239.469 115.792 C 236.795 118.197,226.328 124.889,225.775 124.547 C 225.401 124.316,221.793 119.385,217.756 113.588 C 206.320 97.166,202.951 95.003,197.991 100.897 C 194.417 105.144,194.725 105.971,205.739 121.656 L 214.132 133.609 207.274 138.440 C 203.503 141.097,200.229 143.273,200.000 143.276 C 199.771 143.279,195.271 137.049,190.000 129.433 C 184.729 121.816,178.827 113.518,176.884 110.992 C 172.805 105.688,172.665 106.056,180.909 100.424 L 186.910 96.323 189.288 99.172 L 191.667 102.020 191.685 99.552 C 191.764 88.903,205.187 79.904,215.208 83.781 C 216.387 84.237,216.670 83.888,216.685 81.964 C 216.773 70.448,232.248 61.050,242.500 66.287 M169.427 116.131 C 173.186 117.701,175.440 120.296,185.450 134.571 C 195.423 148.794,195.395 146.833,185.717 153.590 L 180.183 157.453 172.180 145.888 C 161.473 130.416,159.268 128.612,154.243 131.211 C 148.172 134.350,148.916 137.913,158.493 151.584 C 162.217 156.900,165.960 162.252,166.809 163.477 L 168.354 165.704 161.759 170.352 C 153.437 176.216,154.969 176.859,145.797 163.651 C 134.600 147.526,131.740 145.632,126.500 150.872 C 122.226 155.146,123.060 156.992,139.703 180.092 L 142.471 183.933 135.610 188.637 C 131.837 191.223,128.504 193.338,128.204 193.337 C 127.904 193.335,123.433 187.240,118.269 179.792 C 113.105 172.344,107.257 164.122,105.273 161.522 C 103.290 158.921,101.667 156.608,101.667 156.383 C 101.667 155.396,115.235 146.578,115.778 147.212 C 116.110 147.600,117.196 148.998,118.191 150.321 L 120.000 152.725 120.018 149.904 C 120.087 139.285,134.631 129.510,143.388 134.196 C 144.842 134.974,145.000 134.767,145.000 132.079 C 145.000 121.167,159.235 111.873,169.427 116.131 M107.903 174.583 C 113.314 182.375,118.999 190.313,120.537 192.224 C 124.229 196.809,124.345 196.527,116.501 202.048 L 109.669 206.857 108.243 205.095 C 106.433 202.861,105.833 202.871,105.833 205.135 C 105.833 215.727,88.728 223.518,79.258 217.239 C 76.539 215.436,57.500 189.528,57.500 187.631 C 57.500 186.910,70.859 177.208,71.225 177.664 C 71.336 177.803,74.855 182.792,79.044 188.750 C 91.391 206.313,92.863 207.392,98.269 202.843 C 103.236 198.663,102.900 197.839,86.635 174.387 C 84.653 171.529,83.193 169.046,83.391 168.869 C 86.151 166.401,97.162 159.352,97.548 159.807 C 97.833 160.142,102.493 166.792,107.903 174.583 M47.432 181.765 C 50.328 185.944,52.341 189.600,51.905 189.890 C 29.977 204.476,26.411 209.337,30.734 218.750 C 32.575 222.759,34.411 224.491,38.737 226.298 C 44.767 228.818,47.543 227.694,63.831 216.140 L 68.912 212.536 74.039 219.947 C 76.859 224.023,79.167 227.546,79.167 227.775 C 79.167 228.414,60.056 241.660,56.020 243.818 C 24.686 260.577,-7.072 219.098,16.987 192.837 C 19.852 189.710,40.244 174.344,41.708 174.209 C 41.960 174.186,44.536 177.586,47.432 181.765 " stroke="none" fill-rule="evenodd"></path></g></svg>