<svg id="svg" xmlns="http://www.w3.org/2000/svg"  width="400" height="400" viewBox="0, 0, 400,400"><g id="svgg"><path id="path0" d="M200.009 82.416 C 200.004 82.456,199.772 83.382,199.493 84.473 C 199.214 85.564,198.413 88.694,197.714 91.429 C 197.014 94.163,195.881 98.596,195.195 101.281 C 194.509 103.965,193.641 107.359,193.265 108.823 C 192.890 110.288,192.012 113.723,191.314 116.457 C 190.615 119.191,189.451 123.743,188.726 126.571 C 188.002 129.400,187.008 133.283,186.518 135.200 C 183.030 148.862,180.018 160.642,178.279 167.429 C 177.450 170.666,176.345 174.986,175.824 177.029 C 174.175 183.499,170.383 198.312,170.120 199.314 L 169.985 199.829 103.284 199.886 C 59.039 199.924,36.546 199.981,36.475 200.057 C 36.415 200.120,35.969 201.071,35.484 202.171 C 34.999 203.271,33.806 205.971,32.832 208.171 C 31.858 210.371,30.481 213.483,29.772 215.086 C 26.769 221.874,25.210 225.395,22.916 230.571 C 21.579 233.589,20.189 236.726,19.829 237.543 C 19.468 238.360,18.170 241.291,16.945 244.057 C 15.720 246.823,13.546 251.734,12.114 254.971 C 10.682 258.209,8.394 263.377,7.030 266.457 C 5.665 269.537,3.776 273.806,2.831 275.943 C 1.886 278.080,0.867 280.379,0.568 281.052 L 0.024 282.274 0.612 282.393 C 0.935 282.458,3.566 282.925,6.457 283.431 C 9.349 283.937,12.846 284.553,14.229 284.800 C 15.611 285.048,18.671 285.588,21.029 286.001 C 23.386 286.413,26.446 286.953,27.829 287.201 C 29.211 287.448,32.271 287.988,34.629 288.401 C 36.986 288.813,40.046 289.353,41.429 289.601 C 43.881 290.040,69.049 294.481,77.371 295.943 C 79.666 296.346,82.700 296.882,84.114 297.134 C 85.529 297.386,88.589 297.926,90.914 298.334 C 93.240 298.742,96.300 299.282,97.714 299.534 C 99.129 299.786,102.189 300.326,104.514 300.734 C 109.413 301.595,118.409 303.182,123.029 304.002 C 124.789 304.315,142.828 307.499,163.115 311.078 L 200.002 317.586 243.687 309.878 C 267.713 305.639,288.811 301.915,290.571 301.602 C 295.243 300.773,304.226 299.188,309.086 298.334 C 311.411 297.926,314.471 297.386,315.886 297.134 C 317.300 296.882,320.334 296.346,322.629 295.943 C 330.951 294.481,356.119 290.040,358.571 289.601 C 359.954 289.353,363.014 288.813,365.371 288.401 C 367.729 287.988,370.789 287.448,372.171 287.201 C 373.554 286.953,376.614 286.413,378.971 286.001 C 381.329 285.588,384.389 285.048,385.771 284.800 C 387.154 284.553,390.806 283.910,393.886 283.371 C 396.966 282.833,399.592 282.355,399.721 282.310 C 399.982 282.220,400.634 283.754,393.348 267.314 C 391.774 263.763,389.804 259.314,388.970 257.429 C 388.136 255.543,386.337 251.480,384.972 248.400 C 383.606 245.320,381.486 240.537,380.260 237.771 C 379.034 235.006,377.452 231.431,376.743 229.829 C 376.034 228.226,374.235 224.163,372.745 220.800 C 368.644 211.545,366.326 206.312,364.873 203.029 L 363.557 200.057 361.579 199.985 C 360.490 199.946,330.457 199.907,294.837 199.900 L 230.073 199.886 229.902 199.286 C 229.808 198.956,228.978 195.729,228.058 192.114 C 226.504 186.009,225.921 183.726,224.628 178.686 C 224.354 177.617,223.561 174.506,222.865 171.771 C 222.169 169.037,221.193 165.206,220.695 163.257 C 217.862 152.162,216.838 148.153,216.286 146.000 C 215.948 144.680,215.305 142.160,214.857 140.400 C 214.409 138.640,213.715 135.914,213.313 134.343 C 212.032 129.328,209.988 121.320,207.872 113.029 C 206.742 108.597,205.514 103.789,205.144 102.343 C 204.315 99.103,203.411 95.556,201.546 88.229 C 200.118 82.619,200.026 82.274,200.009 82.416 M200.839 180.486 C 201.255 182.136,202.004 185.080,202.503 187.029 C 203.275 190.045,205.499 198.754,208.529 210.629 C 208.938 212.231,209.523 214.520,209.829 215.714 C 210.861 219.742,213.732 230.990,215.148 236.554 L 216.554 242.080 215.734 242.455 C 213.016 243.699,200.121 249.371,200.011 249.371 C 199.939 249.371,197.142 248.133,193.797 246.619 C 190.451 245.105,186.777 243.447,185.631 242.933 C 184.355 242.361,183.547 241.937,183.545 241.837 C 183.543 241.695,184.286 238.738,186.001 232.057 C 186.444 230.335,187.827 224.916,190.129 215.886 C 190.537 214.283,191.148 211.891,191.486 210.571 C 191.824 209.251,193.110 204.211,194.345 199.371 C 195.580 194.531,196.998 188.977,197.497 187.029 C 197.995 185.080,198.745 182.136,199.161 180.486 C 199.578 178.836,199.955 177.486,200.000 177.486 C 200.045 177.486,200.422 178.836,200.839 180.486 M168.114 207.059 C 168.114 207.107,167.523 209.460,166.800 212.287 C 166.078 215.115,165.001 219.331,164.407 221.657 C 163.254 226.172,162.598 228.738,160.447 237.143 C 159.698 240.066,158.559 244.528,157.915 247.058 L 156.743 251.659 149.662 251.629 L 142.581 251.600 139.252 244.114 C 137.420 239.997,134.136 232.617,131.952 227.714 C 129.769 222.811,127.510 217.733,126.934 216.430 L 125.886 214.059 112.997 214.087 L 100.108 214.114 99.499 215.486 C 99.165 216.240,98.528 217.680,98.085 218.686 C 96.696 221.834,95.168 225.299,93.546 228.971 C 92.686 230.920,91.528 233.543,90.973 234.800 C 90.419 236.057,89.170 238.886,88.198 241.086 C 87.225 243.286,86.314 245.356,86.172 245.686 C 85.861 246.410,85.794 246.423,85.549 245.810 C 85.444 245.548,85.134 244.841,84.860 244.238 C 84.586 243.636,82.937 239.954,81.194 236.057 C 79.452 232.160,77.451 227.686,76.748 226.114 C 76.045 224.543,74.548 221.188,73.421 218.658 L 71.371 214.060 58.517 214.087 L 45.662 214.114 44.363 217.029 C 43.648 218.631,40.477 225.754,37.316 232.857 C 31.824 245.196,28.988 251.566,21.759 267.800 C 19.974 271.807,18.514 275.111,18.514 275.143 C 18.514 275.175,24.303 275.188,31.377 275.172 L 44.240 275.143 46.962 269.029 C 48.459 265.666,51.650 258.491,54.054 253.086 C 56.458 247.680,58.463 243.216,58.510 243.165 C 58.557 243.115,59.344 244.761,60.258 246.822 C 61.993 250.733,67.770 263.766,70.975 271.000 L 72.836 275.200 85.818 275.199 L 98.800 275.197 99.332 273.970 C 99.624 273.295,101.674 268.680,103.886 263.714 C 106.099 258.749,109.041 252.140,110.423 249.029 C 111.806 245.917,112.974 243.332,113.019 243.284 C 113.087 243.211,116.565 250.953,126.036 272.257 L 127.344 275.201 151.179 275.172 L 175.013 275.143 176.278 270.144 C 176.974 267.394,177.580 265.144,177.625 265.144 C 177.702 265.143,178.983 265.719,189.200 270.346 C 191.463 271.371,194.800 272.883,196.616 273.705 C 198.431 274.527,199.954 275.200,200.000 275.200 C 200.046 275.200,201.543 274.538,203.327 273.729 C 205.112 272.921,208.474 271.398,210.800 270.345 C 213.126 269.293,216.662 267.692,218.658 266.787 C 220.654 265.883,222.326 265.143,222.372 265.144 C 222.419 265.144,223.026 267.394,223.722 270.144 L 224.987 275.143 303.249 275.172 C 365.846 275.194,381.499 275.172,381.453 275.057 C 381.421 274.979,379.997 271.777,378.288 267.943 C 376.579 264.109,374.255 258.886,373.123 256.337 L 371.064 251.702 370.075 251.264 C 369.531 251.023,367.260 250.004,365.029 248.999 C 359.031 246.299,357.554 245.636,356.245 245.054 C 355.169 244.576,355.081 244.514,355.274 244.371 C 355.390 244.284,357.576 242.724,360.131 240.905 L 364.777 237.597 359.549 225.856 L 354.322 214.114 314.242 214.114 L 274.162 214.114 269.015 225.657 C 266.183 232.006,263.842 237.282,263.811 237.382 C 263.747 237.586,269.197 237.638,306.600 237.789 C 316.861 237.831,325.254 237.895,325.251 237.932 C 325.248 237.970,323.088 239.488,320.452 241.306 C 317.816 243.124,315.683 244.635,315.711 244.664 C 315.759 244.712,319.015 246.194,327.627 250.089 C 330.854 251.548,331.329 251.803,330.657 251.714 C 330.484 251.692,310.749 251.669,286.800 251.665 L 243.257 251.657 241.285 243.914 C 239.084 235.276,233.948 215.145,232.697 210.255 C 232.251 208.510,231.886 207.057,231.886 207.027 C 231.886 206.996,260.466 206.984,295.398 207.000 L 358.910 207.029 359.498 208.343 C 361.373 212.540,365.406 221.589,369.454 230.686 C 376.600 246.741,389.106 274.826,390.584 278.138 C 390.875 278.789,390.869 278.805,390.286 278.839 C 390.066 278.852,386.671 279.119,382.743 279.434 C 378.814 279.748,373.054 280.208,369.943 280.457 C 366.831 280.705,362.357 281.063,360.000 281.252 C 357.643 281.441,352.474 281.854,348.514 282.171 C 341.851 282.703,338.463 282.975,327.143 283.887 C 323.451 284.185,315.337 284.835,300.029 286.059 C 297.687 286.247,293.830 286.555,291.457 286.744 C 289.084 286.933,285.883 287.190,284.343 287.314 C 282.803 287.438,279.280 287.721,276.514 287.943 C 273.749 288.165,270.226 288.448,268.686 288.572 C 264.643 288.898,245.035 290.467,240.800 290.805 C 237.123 291.098,233.381 291.398,225.886 292.000 C 223.560 292.187,219.420 292.519,216.686 292.738 C 213.951 292.957,209.079 293.349,205.857 293.608 L 200.000 294.079 194.143 293.608 C 190.921 293.349,186.049 292.957,183.314 292.738 C 180.580 292.519,177.083 292.238,175.543 292.114 C 174.003 291.990,170.814 291.734,168.457 291.546 C 166.100 291.358,162.230 291.049,159.857 290.859 C 157.484 290.670,153.627 290.361,151.286 290.174 C 148.944 289.987,143.814 289.575,139.886 289.259 C 135.957 288.942,131.149 288.556,129.200 288.401 C 127.251 288.246,118.251 287.525,109.200 286.800 C 100.149 286.074,90.840 285.328,88.514 285.142 C 86.189 284.956,79.451 284.416,73.543 283.942 C 67.634 283.468,60.871 282.927,58.514 282.739 C 56.157 282.551,52.969 282.296,51.429 282.172 C 40.836 281.318,29.458 280.406,19.314 279.597 C 10.660 278.906,9.263 278.787,9.207 278.731 C 9.175 278.699,9.435 278.032,9.786 277.250 C 10.137 276.468,12.187 271.869,14.341 267.029 C 20.916 252.261,26.893 238.836,30.395 230.971 C 32.229 226.854,35.382 219.770,37.402 215.229 L 41.074 206.971 104.594 206.971 C 139.530 206.971,168.114 207.011,168.114 207.059 " stroke="none" fill-rule="evenodd"></path></g></svg>