<?xml version="1.0" encoding="UTF-8" standalone="no"?>
<svg
   
   
   
   
   xmlns="http://www.w3.org/2000/svg"
   viewBox="0, 0, 400,400"
   height="400"
   width="400"
   version="1.1"
   id="svg">
  <metadata
     id="metadata10">
    
  </metadata>
  <defs
     id="defs8" />
  <g
     id="svgg">
    <path
       style="fill-rule:evenodd;stroke:none;stroke-width:4.36473417"
       d="m 34.830694,77.711514 c 0,0.231331 -1.492739,7.502983 -3.317198,16.153885 -1.824454,8.655261 -3.312835,15.922551 -3.312835,16.153871 L 389.53079,109.88833 392.525,96.628268 c 1.64115,-7.293464 3.01167,-14.626221 3.03786,-16.297914 l 0.048,-3.037855 -360.780172,0.419015 M 77.526515,141.46717 C 26.830093,153.91976 -4.7574912,204.6598 6.7566778,255.14231 c 4.5480552,19.95557 22.5962262,45.38014 37.7636792,53.19302 1.658599,0.85548 3.264821,1.85937 3.570352,2.23475 1.261409,1.56256 9.995241,5.33806 18.781451,8.12276 52.1542,16.53361 110.1397,-19.85081 119.82068,-75.18255 C 197.91893,179.31379 140.80203,125.92 77.526475,141.46717 m 194.230655,-0.0829 c -84.21317,21.78002 -100.15319,134.88337 -24.21554,171.82648 57.81089,28.12635 126.51618,-10.70233 134.18938,-75.83725 7.17562,-60.9055 -50.60909,-111.34 -109.97384,-95.98923"
       id="path0" />
  </g>
</svg>
