<?xml version="1.0" encoding="UTF-8" standalone="no"?>
<svg
   xmlns="http://www.w3.org/2000/svg"
   viewBox="0 0 296.27 296.26998"
   version="1.1"
   id="svg14"
   width="296.26999"
   height="296.26999">
  <g
     id="g27"
     transform="translate(0,-110.945)">
    <g
       transform="matrix(3.1400123,0,0,3.1400123,6.3320519,-554.43436)"
       id="g19">
      <path
         d="m 71.07,274.57999 a 37.23,37.23 0 1 1 0,-31 h -8.63 a 29.59,29.59 0 1 0 0,31 z"
         id="path6"
         style="fill-rule:evenodd" />
      <path
         d="m 50.21,272.60999 h 20.28 a 7.06,7.06 0 0 0 6,-3.31 l 2.13,-3.72 H 46.08 Z"
         id="path8"
         style="fill-rule:evenodd" />
      <path
         d="m 44.41,262.51999 h 31.93 a 7.09,7.09 0 0 0 6,-3.31 l 2.13,-3.72 H 40.28 Z"
         id="path10"
         style="fill-rule:evenodd" />
      <path
         d="m 31.6,245.31999 a 7,7 0 0 0 -6.13,3.56 l -13.64,23.68 h 14.25 l 10.84,-18.75 a 2.76,2.76 0 0 1 2.43,-1.44 h 42.88 a 6.93,6.93 0 0 0 6,-3.34 l 2.1,-3.66 z"
         id="path12"
         style="fill-rule:evenodd" />
    </g>
  </g>
</svg>
