<svg id="svg" xmlns="http://www.w3.org/2000/svg"  width="400" height="400" viewBox="0, 0, 400,400"><g id="svgg"><path id="path0" d="M194.920 158.686 C 194.700 158.701,192.972 158.752,191.080 158.798 C 189.188 158.844,186.128 158.935,184.280 159.000 C 182.432 159.066,178.814 159.192,176.240 159.282 C 167.951 159.572,157.417 160.000,151.720 160.279 C 150.400 160.343,148.150 160.451,146.720 160.517 C 145.290 160.584,143.436 160.675,142.600 160.720 C 141.764 160.765,139.712 160.874,138.040 160.962 C 136.368 161.050,133.758 161.193,132.240 161.280 C 130.722 161.367,128.526 161.493,127.360 161.560 C 125.225 161.683,121.616 161.907,118.360 162.120 C 117.392 162.183,115.736 162.291,114.680 162.359 C 78.500 164.701,51.340 167.431,36.640 170.202 C 19.264 173.479,10.150 178.758,4.596 188.762 C -4.950 205.958,1.096 227.540,17.720 235.605 C 25.838 239.544,32.890 240.936,49.280 241.835 C 50.886 241.923,52.560 242.015,53.000 242.039 C 57.280 242.275,70.438 242.653,79.480 242.800 C 105.084 243.216,132.392 243.342,212.000 243.411 C 290.766 243.480,314.446 243.326,337.000 242.597 C 340.628 242.480,347.277 242.210,348.760 242.120 C 367.446 240.985,374.287 239.640,382.522 235.482 C 395.989 228.681,402.678 213.155,398.836 197.613 C 396.887 189.728,392.558 183.006,386.840 178.986 C 379.638 173.922,371.509 171.300,355.520 168.885 C 330.130 165.051,274.995 161.067,221.520 159.203 C 214.670 158.964,211.870 158.869,209.440 158.794 C 206.848 158.713,195.732 158.631,194.920 158.686 M206.240 162.521 C 228.153 163.040,254.273 164.231,279.880 165.879 C 289.483 166.497,299.956 167.189,300.480 167.240 C 300.722 167.264,302.432 167.391,304.280 167.522 C 322.997 168.854,337.136 170.136,347.960 171.483 C 375.007 174.851,385.887 179.552,392.008 190.520 C 399.310 203.603,396.521 220.126,385.520 228.947 C 385.014 229.353,384.469 229.790,384.309 229.919 C 381.727 232.000,375.099 234.878,370.120 236.081 C 365.869 237.107,360.207 237.871,354.430 238.197 C 353.248 238.263,352.082 238.337,351.840 238.360 C 351.004 238.440,346.909 238.637,343.600 238.756 C 341.774 238.822,339.794 238.895,339.200 238.919 C 325.314 239.484,291.308 239.677,206.120 239.675 C 118.016 239.673,77.149 239.499,66.360 239.080 C 65.744 239.056,63.908 239.000,62.280 238.956 C 38.579 238.310,30.114 237.046,20.615 232.732 C 12.640 229.110,6.821 222.064,4.727 213.495 C 4.496 212.550,4.365 211.795,4.111 209.960 C 2.910 201.262,6.228 190.939,12.195 184.809 C 20.852 175.917,36.097 172.245,78.480 168.843 C 80.394 168.690,82.374 168.526,82.880 168.480 C 85.272 168.264,99.522 167.232,106.600 166.762 C 109.592 166.564,113.120 166.329,114.440 166.241 C 118.067 165.998,126.281 165.478,130.160 165.245 C 136.736 164.852,142.444 164.530,145.840 164.361 C 147.182 164.294,148.964 164.204,149.800 164.160 C 155.242 163.874,166.880 163.359,171.440 163.202 C 172.738 163.158,174.664 163.084,175.720 163.038 C 177.789 162.949,186.599 162.693,192.240 162.558 C 194.154 162.513,196.098 162.466,196.560 162.455 C 198.995 162.394,201.657 162.413,206.240 162.521 M191.600 168.645 C 180.956 168.780,165.734 169.300,150.680 170.042 C 142.003 170.469,128.493 171.237,124.640 171.521 C 124.046 171.565,122.426 171.674,121.040 171.763 C 85.246 174.064,54.244 177.431,45.618 179.953 C 35.761 182.836,28.722 190.081,26.762 199.365 C 23.774 213.517,32.649 227.247,46.662 230.153 C 51.619 231.181,62.574 232.049,77.520 232.598 C 79.302 232.664,81.264 232.737,81.880 232.760 C 93.416 233.203,118.101 233.627,137.520 233.717 C 142.470 233.741,148.968 233.777,151.960 233.799 C 176.520 233.981,242.345 233.913,267.440 233.680 C 314.254 233.247,341.849 232.167,352.440 230.354 C 364.670 228.260,373.799 217.465,373.780 205.120 C 373.762 192.789,365.930 182.989,353.483 179.722 C 344.765 177.434,318.919 174.573,285.920 172.242 C 281.861 171.956,279.721 171.812,273.440 171.402 C 267.731 171.029,255.626 170.348,249.280 170.043 C 240.616 169.626,238.060 169.514,232.800 169.321 C 214.310 168.643,204.461 168.482,191.600 168.645 M165.640 183.278 C 170.725 183.484,172.801 184.487,173.335 186.995 C 173.708 188.748,172.764 191.492,171.623 191.972 C 171.164 192.164,167.153 192.124,166.824 191.924 C 166.371 191.647,166.289 191.438,166.359 190.737 C 166.471 189.625,166.408 189.392,165.889 189.005 C 165.671 188.842,165.599 188.840,160.134 188.840 L 154.600 188.840 154.160 189.049 C 153.598 189.315,153.147 189.760,152.916 190.275 C 152.596 190.986,145.348 212.011,145.262 212.477 C 145.100 213.346,145.518 214.188,146.304 214.575 L 146.680 214.760 151.240 214.759 C 156.348 214.759,156.116 214.783,157.165 214.152 C 158.281 213.481,158.536 213.020,159.971 209.080 C 161.652 204.463,161.631 204.400,158.417 204.400 C 155.590 204.400,155.433 204.229,156.071 201.855 C 156.527 200.157,156.758 199.799,157.673 199.370 L 158.120 199.160 163.603 199.160 C 169.709 199.160,169.325 199.126,169.688 199.704 C 169.965 200.144,169.878 200.435,167.924 205.600 C 166.901 208.306,165.672 211.564,165.193 212.840 C 163.453 217.481,162.086 219.054,158.960 220.011 L 158.360 220.195 150.880 220.223 C 142.942 220.252,142.753 220.245,141.657 219.872 C 138.775 218.892,137.388 215.952,138.263 212.680 C 138.411 212.127,145.980 190.278,146.724 188.258 C 147.835 185.239,149.964 183.987,154.989 183.395 C 156.334 183.236,162.843 183.165,165.640 183.278 M206.865 183.360 C 207.212 183.586,207.383 183.967,207.342 184.425 C 207.307 184.817,195.734 218.044,195.352 218.850 C 194.811 219.992,194.261 220.193,191.593 220.227 C 189.211 220.256,189.014 220.223,188.722 219.745 C 188.420 219.250,188.446 219.161,190.805 212.479 C 193.407 205.108,193.398 205.149,192.478 204.707 C 191.985 204.470,182.899 204.456,182.390 204.691 C 181.309 205.191,181.458 204.868,178.798 212.454 C 176.233 219.765,176.335 219.547,175.284 220.031 C 174.851 220.230,171.039 220.337,170.468 220.166 C 169.853 219.982,169.570 219.223,169.847 218.505 C 169.895 218.381,172.559 210.760,175.768 201.569 C 182.582 182.053,181.787 184.086,182.823 183.540 L 183.240 183.320 185.360 183.295 C 187.760 183.267,187.995 183.303,188.297 183.752 C 188.657 184.287,188.663 184.265,186.200 191.232 C 183.871 197.821,183.818 198.000,184.060 198.474 C 184.386 199.113,184.088 199.077,189.226 199.104 C 194.330 199.132,194.413 199.125,195.135 198.599 C 195.724 198.170,195.808 197.965,198.246 191.072 C 200.881 183.620,200.847 183.690,202.023 183.314 C 202.529 183.152,206.605 183.191,206.865 183.360 M226.240 183.526 C 238.069 183.713,237.281 183.664,237.659 184.232 C 237.931 184.640,237.888 184.916,237.316 186.460 C 236.292 189.223,236.439 189.146,232.080 189.200 C 228.437 189.245,228.481 189.238,227.764 189.886 C 227.255 190.346,227.399 189.950,222.465 204.400 C 216.858 220.822,217.455 219.213,216.772 219.732 C 216.157 220.198,215.897 220.240,213.617 220.240 C 211.366 220.240,211.194 220.209,210.856 219.749 C 210.518 219.287,210.419 219.604,215.603 204.640 C 220.712 189.892,220.653 190.078,220.372 189.541 C 220.082 188.985,220.231 189.004,215.924 188.960 C 211.674 188.916,211.739 188.924,211.438 188.437 C 211.013 187.749,212.102 184.487,212.971 183.844 C 213.744 183.273,212.357 183.306,226.240 183.526 M248.856 184.077 C 249.215 184.296,249.386 184.662,249.341 185.113 C 249.321 185.315,247.134 191.708,244.481 199.320 C 239.553 213.458,239.484 213.674,239.736 214.157 C 240.062 214.784,239.793 214.755,245.706 214.800 L 250.972 214.840 251.246 215.139 C 251.666 215.597,251.635 215.980,251.046 217.637 C 250.431 219.365,250.063 219.833,249.092 220.121 C 248.384 220.331,231.785 220.297,231.368 220.084 C 231.034 219.913,230.800 219.526,230.800 219.143 C 230.800 218.968,240.771 190.176,242.344 185.809 C 242.691 184.844,243.259 184.217,243.981 184.000 C 244.497 183.844,248.581 183.909,248.856 184.077 M140.744 184.512 C 141.039 184.711,141.200 185.037,141.200 185.432 C 141.200 185.871,129.840 218.713,129.534 219.157 C 128.886 220.100,128.398 220.240,125.757 220.240 C 123.447 220.240,123.334 220.214,123.016 219.598 C 122.790 219.162,122.640 219.625,128.559 202.519 C 135.168 183.421,134.528 185.057,135.575 184.591 C 136.220 184.304,140.344 184.241,140.744 184.512 M270.548 184.611 C 272.545 184.684,273.045 184.954,272.927 185.895 C 272.858 186.441,261.619 218.794,261.372 219.157 C 260.733 220.096,260.236 220.240,257.622 220.240 C 255.101 220.240,254.720 220.096,254.720 219.143 C 254.720 218.724,266.109 185.891,266.384 185.516 C 266.921 184.787,267.624 184.458,268.520 184.519 C 268.828 184.540,269.741 184.582,270.548 184.611 M127.345 184.882 C 127.981 185.270,127.970 185.720,127.280 187.534 C 126.657 189.171,126.569 189.341,126.156 189.714 C 125.409 190.389,125.624 190.362,119.520 190.561 C 112.519 190.790,113.264 190.370,111.561 195.047 C 109.790 199.907,109.539 199.622,115.521 199.547 C 120.246 199.487,120.122 199.472,120.414 200.134 C 120.607 200.569,120.574 200.759,120.071 202.142 C 119.492 203.731,119.247 204.090,118.499 204.450 L 118.040 204.671 113.800 204.767 C 107.787 204.904,108.432 204.458,106.485 209.819 C 105.156 213.481,105.100 213.695,105.349 214.161 C 105.684 214.787,105.375 214.755,111.480 214.800 C 117.394 214.843,117.150 214.823,117.444 215.305 C 117.876 216.013,116.774 219.091,115.845 219.775 C 115.186 220.259,115.599 220.240,105.807 220.240 C 95.888 220.240,96.520 220.272,96.130 219.740 C 95.789 219.274,95.650 219.707,101.555 202.800 C 107.178 186.702,107.306 186.356,107.778 185.956 C 108.497 185.348,107.939 185.403,116.920 185.054 C 126.827 184.670,126.992 184.667,127.345 184.882 M285.120 185.205 C 287.464 185.320,287.837 185.467,288.191 186.412 C 288.263 186.603,289.077 190.666,289.999 195.440 C 291.932 205.440,291.870 205.200,292.534 205.200 C 293.241 205.200,293.146 205.428,296.520 195.663 C 299.608 186.725,299.570 186.818,300.279 186.354 C 300.920 185.934,301.092 185.916,303.360 186.029 C 305.940 186.157,306.203 186.269,306.188 187.232 C 306.181 187.717,295.507 218.507,295.134 219.117 C 294.545 220.084,294.025 220.240,291.383 220.240 C 288.923 220.240,288.713 220.178,288.372 219.359 C 288.308 219.206,287.386 214.731,286.323 209.416 C 285.260 204.101,284.337 199.602,284.272 199.418 C 283.927 198.438,283.244 198.426,282.684 199.388 C 282.578 199.571,281.011 204.022,279.202 209.280 C 275.779 219.227,275.770 219.251,275.134 219.735 C 274.542 220.188,274.210 220.240,271.942 220.240 C 269.380 220.240,268.926 220.052,269.061 219.047 C 269.091 218.821,279.538 188.379,280.171 186.674 C 280.575 185.584,281.500 185.017,282.760 185.086 C 283.112 185.105,284.174 185.159,285.120 185.205 M95.608 186.504 C 99.263 187.459,99.965 190.762,97.909 197.320 C 96.163 202.890,94.136 205.348,90.851 205.880 C 89.739 206.060,89.709 206.141,90.069 207.980 C 90.879 212.109,92.012 219.005,91.927 219.288 C 91.663 220.171,91.435 220.240,88.810 220.239 C 86.392 220.238,86.164 220.190,85.609 219.558 C 85.188 219.078,85.191 219.090,84.082 212.724 C 82.982 206.411,82.949 206.261,82.590 206.026 C 82.297 205.834,79.442 205.763,78.923 205.935 C 78.374 206.117,78.291 206.313,75.992 212.799 C 73.765 219.081,73.681 219.283,73.088 219.734 C 72.479 220.197,72.213 220.240,69.955 220.240 C 67.353 220.240,67.040 220.126,67.040 219.181 C 67.040 218.694,77.289 188.687,77.661 188.086 C 78.319 187.022,78.231 187.038,85.680 186.611 C 92.991 186.192,94.357 186.177,95.608 186.504 M322.760 187.322 C 332.686 188.042,331.717 187.938,332.097 188.318 C 332.532 188.753,332.516 189.099,331.994 190.574 C 331.032 193.286,331.207 193.231,324.800 192.848 C 318.948 192.498,319.033 192.500,318.508 192.761 C 317.575 193.226,317.483 193.388,316.356 196.520 C 315.420 199.125,315.344 199.486,315.653 199.900 C 316.041 200.421,315.952 200.408,320.306 200.565 C 324.510 200.716,324.574 200.724,324.907 201.119 C 325.260 201.538,325.228 201.908,324.719 203.314 C 323.743 206.013,323.945 205.944,317.616 205.755 C 313.182 205.623,313.474 205.406,311.711 210.120 C 310.471 213.437,310.395 213.736,310.676 214.211 C 311.015 214.786,310.702 214.755,316.800 214.800 C 322.757 214.843,322.510 214.823,322.804 215.305 C 323.046 215.702,322.996 216.046,322.484 217.514 C 321.843 219.354,321.433 219.883,320.440 220.152 C 319.915 220.295,302.714 220.273,302.371 220.130 C 301.962 219.959,301.760 219.646,301.760 219.185 C 301.760 218.653,312.259 188.274,312.628 187.738 C 312.985 187.218,313.768 186.737,314.280 186.722 C 314.368 186.720,318.184 186.990,322.760 187.322 M71.688 187.862 C 72.372 188.319,72.370 188.663,71.666 190.818 C 70.788 193.504,71.255 193.315,64.437 193.754 C 58.074 194.163,58.571 193.896,57.436 197.520 C 56.347 200.994,56.214 200.879,61.343 200.880 C 66.447 200.880,66.394 200.844,65.474 203.696 C 64.562 206.526,64.602 206.507,59.440 206.514 L 55.720 206.520 55.280 206.729 C 54.213 207.235,54.344 206.956,52.157 213.407 C 50.124 219.402,50.232 219.128,49.695 219.611 C 49.054 220.188,48.777 220.240,46.353 220.240 C 43.746 220.240,43.415 220.116,43.426 219.149 C 43.429 218.790,52.990 190.596,53.402 189.726 C 53.569 189.375,54.158 188.826,54.540 188.667 C 54.907 188.513,54.635 188.532,63.120 188.081 C 71.843 187.617,71.341 187.630,71.688 187.862 M344.712 188.879 C 350.983 189.317,352.063 189.428,352.960 189.734 C 356.897 191.075,357.451 194.216,354.942 200.960 C 353.632 204.482,352.225 206.147,350.317 206.431 C 349.516 206.550,349.244 206.999,349.526 207.735 C 349.574 207.859,350.405 210.444,351.373 213.480 C 353.349 219.678,353.329 219.587,352.812 220.105 L 352.557 220.360 350.260 220.384 C 347.437 220.413,346.933 220.258,346.404 219.204 C 346.278 218.951,342.647 207.873,342.519 207.349 C 342.371 206.745,340.897 206.393,338.975 206.503 C 337.883 206.566,338.079 206.189,335.556 213.089 C 332.644 221.056,333.156 220.440,329.440 220.440 C 327.105 220.440,326.987 220.418,326.691 219.917 C 326.405 219.433,326.351 219.604,331.589 204.415 C 336.991 188.753,336.688 189.550,337.477 188.949 C 338.217 188.385,337.693 188.390,344.712 188.879 M88.360 192.488 C 87.788 192.530,86.594 192.613,85.706 192.673 C 82.883 192.865,82.831 192.914,81.627 196.518 C 80.319 200.436,80.238 200.349,85.168 200.301 C 89.929 200.255,90.139 200.141,91.564 196.849 C 93.222 193.016,92.610 192.183,88.360 192.488 M342.840 194.111 C 341.677 194.477,341.481 194.774,340.454 197.714 C 339.242 201.186,339.269 201.233,342.600 201.522 C 346.744 201.882,347.114 201.730,348.362 199.165 C 350.358 195.059,350.061 194.586,345.217 194.163 C 343.085 193.976,343.257 193.980,342.840 194.111 " stroke="none" fill="#000000" fill-rule="evenodd"></path></g></svg>