<svg id="svg" xmlns="http://www.w3.org/2000/svg"  width="400" height="400" viewBox="0, 0, 400,400"><g id="svgg"><path id="path0" d="M376.685 173.471 C 362.157 176.648,356.485 194.467,366.578 205.223 C 378.701 218.142,399.716 209.829,399.666 192.134 C 399.632 179.822,388.601 170.864,376.685 173.471 M384.222 174.695 C 398.198 177.567,403.387 194.864,393.290 204.922 C 384.326 213.851,369.007 210.866,364.158 199.246 C 358.633 186.005,370.227 171.818,384.222 174.695 M376.832 177.328 L 373.168 179.203 375.162 179.265 L 377.155 179.327 377.155 183.952 L 377.155 188.578 372.629 188.578 L 368.103 188.578 368.103 186.948 C 368.103 184.870,368.074 184.896,365.863 188.980 L 364.011 192.400 365.857 195.931 C 368.152 200.319,368.103 200.272,368.103 198.103 L 368.103 196.336 369.750 196.336 L 371.396 196.336 371.213 198.006 C 370.896 200.915,370.950 201.446,371.626 202.073 C 372.303 202.701,372.274 202.708,372.583 201.832 C 372.777 201.281,372.813 201.257,372.828 201.670 C 372.876 203.055,373.231 201.860,373.359 199.882 C 373.575 196.552,373.637 196.336,374.380 196.336 C 374.944 196.336,375.000 196.404,375.000 197.082 C 375.000 197.951,375.577 198.596,376.524 198.785 C 377.261 198.933,377.485 200.751,376.832 201.293 C 376.420 201.635,376.417 202.383,376.825 202.922 C 376.999 203.152,377.145 203.701,377.148 204.141 L 377.155 204.941 375.227 205.003 L 373.298 205.065 377.005 206.985 L 380.711 208.905 384.483 206.877 L 388.254 204.849 386.261 204.787 L 384.267 204.725 384.267 200.531 L 384.267 196.336 388.901 196.336 L 393.534 196.336 393.534 197.996 C 393.534 200.030,393.503 200.061,395.672 195.932 C 397.761 191.958,397.781 192.964,395.528 188.777 L 393.642 185.272 393.579 186.925 L 393.516 188.578 391.720 188.578 C 390.386 188.578,389.854 188.494,389.655 188.254 C 389.339 187.874,388.338 187.826,387.989 188.175 C 387.547 188.617,387.135 188.204,386.126 186.307 C 384.707 183.640,384.813 183.085,386.621 183.722 C 389.284 184.662,389.383 183.907,386.952 181.207 C 385.250 179.318,385.251 179.346,386.907 179.267 L 388.254 179.203 384.539 177.317 C 380.122 175.075,381.239 175.073,376.832 177.328 M382.866 177.471 C 384.370 178.199,384.673 178.415,384.213 178.429 C 383.723 178.445,383.621 178.545,383.621 179.011 C 383.621 179.387,383.253 179.975,382.510 180.789 C 381.084 182.349,380.802 183.056,380.603 185.578 C 380.366 188.578,380.012 189.224,377.013 192.135 C 374.951 194.137,374.421 194.548,374.113 194.383 C 373.386 193.994,372.610 194.159,372.023 194.828 C 371.466 195.463,371.419 195.474,369.363 195.474 C 367.294 195.474,367.269 195.480,367.202 196.012 C 367.147 196.446,366.916 196.148,366.001 194.465 L 364.868 192.380 366.001 190.330 C 366.965 188.584,367.144 188.366,367.202 188.860 L 367.270 189.440 372.644 189.440 L 378.017 189.440 378.017 183.944 L 378.017 178.448 377.317 178.437 C 376.690 178.428,376.810 178.326,378.448 177.478 C 380.683 176.322,380.496 176.322,382.866 177.471 M369.828 184.806 L 369.828 187.716 370.690 187.716 L 371.552 187.716 371.572 186.369 L 371.592 185.022 372.011 186.369 C 372.654 188.438,373.628 188.393,374.304 186.261 L 374.766 184.806 374.650 186.261 L 374.535 187.716 375.522 187.716 L 376.509 187.716 376.509 184.795 L 376.509 181.875 375.275 181.940 L 374.042 182.004 373.584 183.621 C 373.261 184.759,373.087 185.109,372.997 184.806 C 372.927 184.569,372.711 183.817,372.518 183.136 L 372.168 181.897 370.998 181.897 L 369.828 181.897 369.828 184.806 M383.839 186.045 C 384.635 187.352,384.165 188.578,382.867 188.578 C 381.838 188.578,381.757 188.901,382.558 189.813 C 383.299 190.657,383.131 190.987,382.253 190.411 C 381.857 190.152,381.681 190.128,381.563 190.318 C 381.473 190.463,381.558 190.660,381.759 190.772 C 382.569 191.225,380.622 192.712,378.679 193.123 C 378.256 193.212,377.690 193.353,377.421 193.436 C 377.028 193.557,376.959 193.518,377.068 193.236 C 377.141 193.044,377.707 192.740,378.324 192.560 C 379.586 192.193,380.045 191.505,380.308 189.587 C 380.462 188.462,380.808 188.064,381.649 188.045 C 382.196 188.033,382.217 187.988,382.162 186.961 C 382.064 185.130,382.977 184.632,383.839 186.045 M395.696 190.616 L 396.730 192.459 395.568 194.667 C 394.560 196.582,394.405 196.782,394.401 196.175 L 394.397 195.474 389.009 195.474 L 383.621 195.474 383.621 200.526 L 383.621 205.577 384.391 205.644 C 385.127 205.708,385.062 205.760,382.933 206.816 L 380.705 207.921 378.445 206.773 C 376.201 205.633,376.192 205.625,377.089 205.614 C 377.988 205.603,377.993 205.600,378.059 204.730 L 378.125 203.856 379.345 204.945 C 380.507 205.983,381.690 206.385,382.169 205.906 C 382.365 205.709,382.100 205.172,381.807 205.172 C 381.581 205.172,380.237 203.745,379.023 202.216 C 378.633 201.725,378.639 201.702,379.544 200.269 C 380.409 198.900,380.486 198.602,380.337 197.209 C 380.215 196.077,388.188 190.696,389.499 191.025 C 390.262 191.216,390.285 191.980,389.547 192.672 C 389.121 193.073,389.010 193.385,389.017 194.165 L 389.025 195.151 389.986 194.073 C 391.242 192.664,391.562 191.576,391.027 190.529 C 390.812 190.108,390.601 189.690,390.559 189.601 C 390.516 189.512,391.362 189.440,392.439 189.440 C 394.303 189.440,394.397 189.417,394.397 188.973 C 394.397 188.348,394.494 188.471,395.696 190.616 M385.938 189.280 C 386.620 189.819,386.082 190.302,384.796 190.302 C 384.020 190.302,383.515 189.751,383.744 189.154 C 383.879 188.802,385.446 188.891,385.938 189.280 M378.109 194.312 C 378.299 194.385,378.509 194.808,378.582 195.263 C 378.673 195.834,378.843 196.117,379.141 196.195 C 379.704 196.342,379.429 196.767,378.771 196.767 C 378.093 196.767,377.586 196.009,377.586 194.995 C 377.586 194.121,377.592 194.114,378.109 194.312 M376.078 194.604 C 376.078 194.718,376.290 195.009,376.549 195.250 C 377.006 195.676,377.007 195.690,376.590 195.690 C 375.948 195.690,375.338 195.166,375.497 194.751 C 375.643 194.371,376.078 194.261,376.078 194.604 M0.216 210.127 L 0.216 225.216 6.571 225.216 L 12.926 225.216 12.983 216.375 L 13.039 207.535 17.969 216.379 L 22.900 225.223 28.502 225.165 L 34.104 225.108 39.304 216.311 L 44.504 207.513 44.612 216.311 L 44.720 225.108 51.024 225.165 L 57.328 225.222 57.328 210.130 L 57.328 195.038 48.350 195.095 L 39.372 195.151 34.172 204.283 C 31.313 209.306,28.895 213.428,28.799 213.443 C 28.703 213.458,26.326 209.348,23.517 204.310 L 18.408 195.151 9.312 195.095 L 0.216 195.038 0.216 210.127 M149.353 198.491 L 149.353 201.940 146.546 201.940 L 143.738 201.940 143.798 205.011 L 143.858 208.082 146.713 208.142 L 149.569 208.202 149.569 214.203 C 149.569 224.721,150.128 225.202,162.554 225.374 L 169.612 225.471 169.612 222.326 L 169.612 219.181 166.497 219.181 C 164.592 219.181,163.169 219.084,162.833 218.931 L 162.284 218.681 162.284 213.435 L 162.284 208.190 165.733 208.190 L 169.181 208.190 169.181 204.957 L 169.181 201.724 165.733 201.724 L 162.284 201.724 162.284 198.384 L 162.284 195.043 155.819 195.043 L 149.353 195.043 149.353 198.491 M385.345 197.845 L 385.345 198.707 386.207 198.707 L 387.069 198.707 387.069 200.970 L 387.069 203.233 388.147 203.233 L 389.224 203.233 389.224 200.970 L 389.224 198.707 390.086 198.707 L 390.948 198.707 390.948 197.845 L 390.948 196.983 388.147 196.983 L 385.345 196.983 385.345 197.845 M76.048 202.900 C 59.163 205.315,53.823 217.064,66.704 223.457 C 80.341 230.224,102.462 225.157,103.182 215.101 C 103.752 207.124,89.941 200.914,76.048 202.900 M212.069 202.824 C 203.385 203.554,199.061 205.888,198.561 210.116 L 198.431 211.207 204.161 211.207 L 209.890 211.207 210.171 210.625 C 211.048 208.811,217.311 208.045,220.996 209.302 C 222.943 209.966,221.784 210.435,217.349 210.777 C 203.479 211.846,198.193 213.451,196.538 217.097 C 195.417 219.567,196.854 222.417,200.041 224.047 C 205.331 226.751,217.356 227.039,222.182 224.577 L 222.997 224.162 223.466 224.796 L 223.935 225.431 230.179 225.431 C 233.613 225.431,236.422 225.377,236.422 225.311 C 236.422 225.244,236.107 224.798,235.722 224.319 L 235.022 223.448 234.914 216.519 C 234.790 208.563,234.771 208.477,232.738 206.575 C 229.615 203.653,220.937 202.079,212.069 202.824 M254.849 202.722 C 235.879 204.713,231.136 219.858,247.840 225.098 C 260.958 229.212,277.032 225.150,278.573 217.330 L 278.704 216.664 275.740 216.521 C 274.110 216.443,271.354 216.379,269.614 216.379 L 266.452 216.379 265.929 217.188 C 262.634 222.288,251.466 220.496,251.125 214.812 C 250.789 209.225,261.029 206.823,265.508 211.439 L 266.395 212.353 272.463 212.206 C 279.374 212.039,278.839 212.159,278.352 210.883 C 276.092 204.967,266.197 201.531,254.849 202.722 M296.306 202.900 C 279.422 205.315,274.081 217.064,286.962 223.457 C 300.596 230.222,322.721 225.155,323.440 215.102 C 324.011 207.124,310.200 200.914,296.306 202.900 M124.461 203.128 C 122.767 203.403,119.606 204.202,118.480 204.641 C 118.182 204.757,118.074 204.646,117.968 204.118 L 117.834 203.448 111.611 203.448 L 105.388 203.448 105.388 214.332 L 105.388 225.216 111.746 225.216 L 118.103 225.216 118.103 218.790 L 118.103 212.365 118.696 211.810 C 120.736 209.898,125.827 209.128,128.351 210.350 C 130.075 211.184,130.056 211.096,130.133 218.588 L 130.200 225.216 136.436 225.216 L 142.672 225.216 142.672 217.068 L 142.672 208.921 142.062 207.962 C 139.538 204.000,131.949 201.915,124.461 203.128 M190.251 203.024 C 188.919 203.248,187.214 203.812,185.945 204.448 C 184.661 205.091,184.698 205.098,184.698 204.203 L 184.698 203.448 178.448 203.448 L 172.198 203.448 172.198 214.440 L 172.198 225.431 178.546 225.431 L 184.894 225.431 184.958 219.531 L 185.022 213.631 185.584 212.842 C 187.018 210.827,189.021 210.117,193.696 209.967 L 196.983 209.861 196.983 206.469 L 196.983 203.077 195.851 202.941 C 194.379 202.765,191.544 202.807,190.251 203.024 M345.395 203.032 C 343.784 203.255,341.163 203.886,339.683 204.408 C 338.606 204.788,338.362 204.708,338.362 203.974 L 338.362 203.448 332.112 203.448 L 325.862 203.448 325.862 214.332 L 325.862 225.216 332.220 225.216 L 338.578 225.216 338.578 218.776 L 338.578 212.336 339.241 211.687 C 341.603 209.378,348.067 209.077,349.848 211.194 L 350.431 211.887 350.431 218.551 L 350.431 225.216 356.789 225.216 L 363.147 225.216 363.147 217.202 C 363.147 208.031,363.170 208.164,361.215 206.406 C 358.093 203.599,351.484 202.190,345.395 203.032 M85.517 209.705 C 93.563 212.498,90.523 220.119,81.358 220.132 C 71.796 220.146,69.217 211.868,78.039 209.479 C 80.147 208.908,83.514 209.009,85.517 209.705 M305.775 209.705 C 313.822 212.498,310.777 220.129,301.616 220.129 C 292.014 220.129,289.442 211.877,298.297 209.479 C 300.406 208.908,303.772 209.009,305.775 209.705 M222.414 216.576 C 222.414 219.463,215.887 221.207,210.578 219.739 C 206.881 218.717,208.672 217.701,215.948 216.693 C 218.141 216.389,220.420 216.009,221.013 215.848 C 221.606 215.688,222.163 215.548,222.252 215.537 C 222.341 215.526,222.414 215.994,222.414 216.576 " stroke="none" fill="#EE3B38" fill-rule="evenodd"></path></g></svg>