<?xml version="1.0" encoding="UTF-8" standalone="no"?>
<svg
   
   
   
   
   xmlns="http://www.w3.org/2000/svg"
   version="1.1"
   viewBox="0, 0, 400,400"
   height="400"
   width="400"
   id="svg">
  <g
     id="svgg">
    <path
       style="fill-rule:evenodd;stroke:none;stroke-width:10.34222031"
       d="M 159.80323,5.6719534 C 9.5514511,38.529188 -49.109619,222.81721 55.274411,334.05814 180.65315,467.66928 397.99491,381.6944 397.4778,198.68881 397.12616,71.355395 283.04113,-21.290215 159.80323,5.6719534 M 237.75255,18.330832 C 382.29542,48.033689 435.9612,226.92307 331.5358,330.94513 238.82814,423.29081 80.395661,392.41928 30.246241,272.24268 -26.894529,135.30134 93.013171,-11.423736 237.75255,18.330832 m -76.42901,27.231066 -37.8939,19.391663 20.62239,0.641218 20.61204,0.641217 v 47.832774 47.84311 H 117.85518 71.046301 v -16.85782 c 0,-21.49114 -0.29993,-21.22224 -23.16658,21.01539 l -19.15379,35.37039 19.09174,36.51838 c 23.73539,45.38167 23.22863,44.89558 23.22863,22.46331 v -18.27471 h 17.03363 17.023299 l -1.89263,17.27151 c -3.278479,30.08552 -2.72,35.57724 4.27134,42.06181 7.00168,6.49492 6.70176,6.56731 9.8975,-2.49247 2.00639,-5.69857 2.37871,-5.94678 2.53385,-1.67544 0.49642,14.32397 4.16791,1.96502 5.49172,-18.49189 2.23391,-34.4396 2.87513,-36.67352 10.5594,-36.67352 5.83301,0 6.41218,0.70327 6.41218,7.7153 0,8.98739 5.96746,15.65812 15.76154,17.6128 7.62222,1.53065 9.93888,20.33281 3.18541,25.93829 -4.261,3.53704 -4.29202,11.27302 -0.0724,16.84748 1.79955,2.37871 3.30951,8.05659 3.34054,12.60716 l 0.0724,8.27378 -19.9398,0.64122 -19.95014,0.64121 38.33861,19.85707 38.32827,19.85706 39.01085,-20.97402 39.00052,-20.97403 -20.61205,-0.64121 -20.62238,-0.64122 v -43.37527 -43.38562 h 47.92584 47.91551 v 17.16809 c 0,21.03607 -0.32061,21.35668 22.11167,-21.34634 21.6049,-41.09999 21.81174,-30.69571 -1.48928,-73.99859 l -19.50543,-36.24948 -0.65156,17.09569 -0.65156,17.09569 h -18.57463 c -13.79652,0 -19.29858,-0.86875 -21.35668,-3.35088 -3.26814,-3.93005 -13.62071,-4.42647 -17.23014,-0.81704 -4.57126,4.57126 -8.83226,0.29993 -19.26756,-19.31927 -14.67561,-27.5827 -13.57933,-33.32263 5.1194,-26.73464 27.54133,9.72169 28.56521,1.91332 3.42328,-26.010679 C 248.38436,66.142916 248.3947,66.432499 265.52142,65.615463 L 279.45238,64.953561 241.03103,45.448133 C 195.34944,22.260875 206.9017,22.240191 161.32354,45.561898 m 62.40495,1.478937 c 15.5547,7.529137 18.6884,9.763056 13.93098,9.907847 -5.06769,0.165476 -6.1226,1.199698 -6.1226,6.019173 0,3.888675 -3.80594,9.9699 -11.49021,18.388468 -14.748,16.133863 -17.66451,23.445817 -19.72261,49.528897 -2.45111,31.02666 -6.11225,37.70773 -37.12857,67.81393 -21.32566,20.70513 -26.80704,24.95578 -29.99244,23.24932 -7.51879,-4.02313 -15.54436,-2.31666 -21.61524,4.60228 -5.76062,6.56731 -6.2467,6.68108 -27.510309,6.68108 -21.39805,0 -21.65661,0.062 -22.34954,5.56411 -0.56882,4.48853 -2.95787,1.40655 -12.421,-15.99941 L 37.589211,201.233 49.306951,180.03145 c 9.9699,-18.05752 11.82116,-20.31212 12.421,-15.20307 l 0.70328,5.99849 h 55.579089 55.56875 V 113.98603 57.145185 l -7.23956,-0.113765 c -6.48457,-0.09308 -5.2435,-1.147986 11.69705,-9.918189 23.11487,-11.955607 21.18087,-11.955607 45.69193,-0.0724 M 88.886631,122.90102 v 30.09586 h 8.91499 8.914989 l 0.20685,-13.93097 0.20684,-13.93097 4.33339,13.93097 c 6.65005,21.39806 16.72337,20.93266 23.71471,-1.11696 l 4.77811,-15.04793 -1.1997,15.04793 -1.18935,15.04793 H 147.77523 157.983 V 122.78726 92.587974 l -12.7623,0.672244 -12.75196,0.661902 -4.73674,16.72337 c -3.34053,11.76945 -5.14008,15.38922 -6.07088,12.25553 -0.72395,-2.4511 -2.95787,-10.22845 -4.95392,-17.27151 l -3.61978,-12.814007 h -12.1004 -12.100389 v 30.085517 m 144.904839,12.81401 c 8.23241,13.51728 3.37157,26.19685 -10.05263,26.19685 -10.64215,0 -11.47987,3.34053 -3.19575,12.77264 7.66359,8.72883 5.92609,12.14177 -3.15438,6.18465 -4.09552,-2.67864 -5.91575,-2.92685 -7.13613,-0.96183 -0.9308,1.49962 -0.0517,3.53704 2.02708,4.69537 8.37719,4.68502 -11.75911,20.06391 -31.85404,24.31456 -4.37476,0.92046 -10.22846,2.37871 -13.01052,3.23711 -4.06449,1.25141 -4.7781,0.84807 -3.6508,-2.06844 0.75498,-1.98571 6.60868,-5.12974 12.98983,-6.99134 13.05188,-3.7956 17.79896,-10.91104 20.51896,-30.74742 1.59271,-11.635 5.17111,-15.7512 13.86892,-15.94771 5.6572,-0.1241 5.87438,-0.5895 5.30556,-11.21096 -1.01354,-18.93661 8.42891,-24.08703 17.3439,-9.47348 m 122.62771,47.27429 10.69386,19.06071 -12.01766,22.83563 c -10.42496,19.80535 -12.028,21.87379 -12.06937,15.59607 l -0.0414,-7.2499 h -55.72389 -55.72388 v 52.2489 52.23855 l 7.96351,0.69293 c 7.61187,0.6619 6.93963,1.1997 -15.07896,12.12108 l -23.04246,11.42816 -23.37342,-11.87287 c -23.20794,-11.79013 -23.30102,-11.87287 -14.02405,-11.98664 9.29765,-0.11376 9.34936,-0.14479 10.03195,-9.14252 l 0.68259,-9.0391 12.61751,11.26268 c 12.01766,10.73522 24.2525,14.8928 29.20643,9.93887 2.02707,-2.03742 -0.71362,-7.59119 -3.74389,-7.59119 -2.33734,0 -16.23728,-14.75835 -28.79274,-30.5716 -4.03346,-5.07803 -3.97141,-5.3159 5.3883,-20.1363 8.94602,-14.1585 9.74237,-17.24049 8.20138,-31.6472 -1.26175,-11.70739 81.19677,-67.35888 94.75542,-63.95629 7.89112,1.97536 8.12899,9.87682 0.49643,17.03364 -4.40579,4.14723 -5.55377,7.374 -5.48138,15.44093 l 0.0827,10.19743 9.93887,-11.14891 c 12.98983,-14.57219 16.29934,-25.82453 10.76625,-36.65283 -2.22357,-4.35408 -4.40578,-8.67712 -4.84015,-9.59758 -0.44472,-0.92046 8.3048,-1.6651 19.44337,-1.6651 19.2779,0 20.25007,-0.23787 20.25007,-4.82982 0,-6.46388 1.00319,-5.19179 13.43454,16.99227 M 255.4998,169.17212 c 7.05339,5.57445 1.48927,10.56974 -11.81082,10.56974 -8.02556,0 -13.24838,-5.69856 -10.88002,-11.87286 1.3962,-3.64047 17.60246,-2.72001 22.69084,1.30312 m -80.96925,52.04205 c 1.96502,0.75498 4.13689,5.12974 4.89187,9.83545 0.94114,5.90541 2.69932,8.83226 5.7813,9.63895 5.82267,1.52031 2.97856,5.91575 -3.82662,5.91575 -7.01202,0 -12.25553,-7.8394 -12.25553,-18.32641 0,-9.03911 0.062,-9.1115 5.40898,-7.06374 m -21.00505,3.01993 c 0,1.17901 2.19255,4.1886 4.87119,6.68107 4.72639,4.40579 4.73674,4.55058 0.42403,4.55058 -6.63971,0 -12.94846,-5.41933 -11.30405,-9.71135 1.50997,-3.93004 6.00883,-5.06768 6.00883,-1.5203 m 95.84136,33.51913 v 8.915 h 8.91499 8.915 v 23.40444 23.40445 h 11.14891 11.13857 v -23.40445 -23.40444 h 8.915 8.91499 v -8.915 -8.91499 h -28.96856 -28.9789 v 8.91499"
       id="path0" />
  </g>
</svg>
