<svg id="svg" xmlns="http://www.w3.org/2000/svg"  width="400" height="400" viewBox="0, 0, 400,400"><g id="svgg"><path id="path0" d="M191.389 29.622 C 190.856 29.665,188.918 29.803,187.083 29.930 C 115.345 34.887,53.081 82.182,31.192 148.345 L 29.443 153.632 25.647 154.328 C 4.313 158.243,3.491 158.782,1.822 169.955 C 0.286 180.231,-0.081 186.291,0.062 198.974 C 0.176 209.060,0.331 211.856,1.400 223.143 C 1.692 226.222,2.032 230.031,2.156 231.609 C 2.717 238.740,4.142 241.708,7.535 242.809 C 8.748 243.202,27.861 246.071,29.268 246.071 C 29.378 246.071,29.968 247.645,30.581 249.569 C 56.328 330.440,140.086 381.052,227.320 368.449 C 294.504 358.744,350.929 312.154,370.597 250.147 L 371.591 247.012 374.978 246.630 C 384.706 245.535,391.942 244.304,393.588 243.464 C 397.717 241.358,397.889 240.708,399.490 221.206 C 399.950 215.593,400.161 190.469,399.798 184.392 C 398.740 166.652,398.192 163.103,396.214 161.190 C 394.467 159.500,387.103 157.391,376.103 155.431 C 371.646 154.636,372.301 155.195,371.061 151.130 C 350.617 84.139,289.063 36.405,214.747 29.913 C 212.125 29.684,193.512 29.452,191.389 29.622 M206.028 72.770 C 256.972 74.887,301.715 103.665,321.953 147.335 L 322.938 149.459 321.587 149.323 C 309.029 148.055,268.194 146.151,235.414 145.305 C 207.564 144.587,148.084 144.918,116.577 145.968 C 104.003 146.387,81.478 147.483,79.727 147.760 C 79.164 147.850,79.206 147.709,80.527 145.081 C 101.895 102.582,145.766 74.806,194.726 72.779 C 200.449 72.542,200.544 72.542,206.028 72.770 M117.308 177.335 L 117.976 177.922 117.976 199.610 C 117.976 220.832,117.967 221.303,117.560 221.521 C 117.304 221.658,114.995 221.744,111.554 221.744 L 105.965 221.744 105.297 221.158 L 104.629 220.572 104.629 198.786 C 104.629 181.559,104.685 176.978,104.898 176.892 C 105.046 176.832,107.748 176.776,110.904 176.766 L 116.640 176.749 117.308 177.335 M59.752 177.415 C 62.310 177.888,63.594 179.134,66.927 184.378 C 68.218 186.409,72.255 192.668,75.898 198.287 C 79.541 203.906,82.918 209.131,83.403 209.897 L 84.284 211.290 84.392 194.442 C 84.485 179.780,84.541 177.568,84.822 177.390 C 85.002 177.277,87.394 177.185,90.205 177.183 L 95.265 177.180 95.856 177.806 L 96.448 178.433 96.448 200.094 L 96.448 221.754 95.856 221.985 C 95.011 222.314,78.131 222.099,76.974 221.745 C 75.275 221.224,74.029 219.615,67.556 209.580 C 64.196 204.370,59.755 197.518,57.688 194.353 L 53.929 188.598 53.821 205.153 C 53.762 214.258,53.633 221.789,53.534 221.887 C 53.436 221.986,51.004 222.067,48.131 222.067 L 42.907 222.067 42.340 221.529 L 41.773 220.990 41.769 199.343 C 41.766 182.790,41.826 177.636,42.024 177.438 C 42.368 177.094,57.905 177.074,59.752 177.415 M174.342 177.791 L 175.027 178.402 175.024 182.581 C 175.022 184.879,174.945 186.879,174.852 187.025 C 174.721 187.231,170.916 187.303,157.937 187.348 L 141.190 187.406 140.670 188.010 C 139.839 188.976,139.889 191.879,140.743 192.217 C 141.068 192.346,145.840 192.842,151.346 193.320 C 169.337 194.882,172.366 195.802,175.155 200.555 C 178.011 205.421,177.120 216.041,173.596 219.144 C 170.362 221.990,168.133 222.219,144.550 222.130 L 127.959 222.067 127.377 221.439 L 126.794 220.811 126.853 216.379 L 126.911 211.948 144.612 211.841 L 162.313 211.733 162.800 211.247 C 163.436 210.610,163.620 208.045,163.116 206.838 C 162.731 205.917,162.842 205.943,158.019 205.594 C 137.081 204.074,132.880 203.236,129.473 199.896 C 127.055 197.525,126.444 195.249,126.641 189.350 C 126.884 182.081,130.113 178.447,137.244 177.419 C 137.955 177.316,146.438 177.220,156.097 177.206 L 173.658 177.180 174.342 177.791 M230.764 177.766 L 231.432 178.352 231.428 182.556 C 231.427 184.868,231.349 186.879,231.257 187.025 C 231.126 187.231,227.320 187.303,214.341 187.348 L 197.594 187.406 197.075 188.010 C 196.620 188.539,196.555 188.826,196.555 190.329 C 196.555 192.337,196.526 192.312,199.139 192.549 C 200.027 192.629,204.580 193.031,209.257 193.442 C 224.425 194.774,226.472 195.275,229.777 198.465 C 232.568 201.160,233.271 203.553,233.101 209.786 C 232.934 215.941,231.550 218.814,227.930 220.526 C 224.743 222.034,221.805 222.209,200.955 222.130 L 184.363 222.067 183.786 221.443 L 183.208 220.820 183.211 216.599 C 183.213 214.278,183.290 212.261,183.381 212.116 C 183.510 211.913,187.562 211.839,201.085 211.793 C 210.731 211.760,218.779 211.655,218.970 211.560 C 219.809 211.141,220.126 208.286,219.500 206.787 C 219.140 205.927,219.203 205.942,214.532 205.601 C 193.577 204.073,189.641 203.303,186.208 200.064 C 183.527 197.536,182.831 195.171,183.050 189.346 C 183.290 182.988,185.610 179.631,190.850 178.057 C 193.455 177.275,194.533 177.233,212.518 177.206 L 230.096 177.180 230.764 177.766 M274.670 177.599 C 275.965 177.843,277.214 179.121,278.210 181.221 C 278.644 182.136,280.734 186.712,282.854 191.389 C 284.975 196.066,288.736 204.349,291.214 209.795 C 293.691 215.242,295.894 220.105,296.110 220.602 C 296.829 222.256,297.059 222.201,289.791 222.130 L 283.343 222.067 282.688 221.439 C 282.328 221.094,281.930 220.498,281.804 220.115 C 281.677 219.732,281.005 218.077,280.311 216.437 L 279.047 213.455 266.273 213.405 L 253.498 213.354 252.134 216.526 C 249.452 222.764,250.380 222.167,243.353 222.171 C 237.641 222.175,236.598 222.088,236.598 221.609 C 236.598 221.446,236.453 221.313,236.276 221.313 C 235.624 221.313,236.002 220.219,238.661 214.415 C 240.150 211.164,244.278 202.013,247.834 194.080 C 255.245 177.545,254.960 178.144,255.598 177.779 C 256.541 177.240,271.996 177.094,274.670 177.599 M321.515 177.619 C 323.778 178.430,323.959 178.680,336.700 198.493 C 341.002 205.183,344.652 210.798,344.812 210.972 C 345.056 211.237,345.102 208.594,345.102 194.492 C 345.102 181.716,345.164 177.635,345.361 177.438 C 345.547 177.252,347.036 177.180,350.704 177.180 L 355.789 177.180 356.474 177.791 L 357.158 178.402 357.158 200.078 L 357.158 221.754 356.606 221.964 C 355.932 222.221,342.875 222.230,339.817 221.976 C 336.568 221.707,335.391 220.911,333.367 217.614 C 332.404 216.047,331.986 215.400,322.086 200.162 C 318.029 193.917,314.620 188.752,314.513 188.686 C 314.395 188.613,314.316 195.262,314.316 205.235 L 314.316 221.905 313.644 222.040 C 311.448 222.479,303.122 222.138,303.122 221.609 C 303.122 221.446,302.987 221.313,302.822 221.313 C 302.274 221.313,302.260 220.764,302.260 199.244 C 302.260 179.755,302.292 177.825,302.612 177.505 C 303.095 177.022,320.135 177.124,321.515 177.619 M265.086 187.663 C 264.828 187.714,264.496 187.900,264.349 188.078 C 264.140 188.330,257.696 203.160,257.696 203.389 C 257.696 203.420,261.475 203.445,266.093 203.445 C 271.647 203.445,274.489 203.370,274.489 203.225 C 274.489 203.105,273.084 199.679,271.367 195.612 C 269.650 191.546,268.245 188.120,268.245 187.999 C 268.245 187.582,266.471 187.394,265.086 187.663 M87.944 251.126 C 150.902 254.645,247.264 254.728,315.350 251.322 C 319.175 251.130,322.354 251.023,322.414 251.083 C 322.784 251.453,316.779 262.408,313.360 267.600 C 271.344 331.389,180.995 346.549,118.837 300.239 C 102.249 287.880,87.645 270.195,79.549 252.663 L 78.567 250.536 80.457 250.674 C 81.496 250.751,84.865 250.954,87.944 251.126 " stroke="none" fill-rule="evenodd"></path></g></svg>