<svg id="svg" xmlns="http://www.w3.org/2000/svg"  width="400" height="400" viewBox="0, 0, 400,400"><g id="svgg"><path id="path0" d="M191.550 29.559 C 191.330 29.582,189.822 29.692,188.200 29.804 C 145.460 32.752,106.789 49.470,76.100 78.267 C 55.072 97.999,40.211 121.303,30.840 149.241 C 30.049 151.601,29.387 153.546,29.371 153.563 C 29.354 153.579,27.610 153.911,25.495 154.299 C 4.521 158.153,3.488 158.815,1.852 169.450 C 0.974 175.156,0.517 179.354,0.178 184.800 C 0.008 187.526,0.013 203.628,0.184 207.650 C 0.343 211.375,0.608 215.067,1.107 220.500 C 1.326 222.893,1.683 226.830,1.899 229.250 C 2.764 238.926,3.734 241.451,7.067 242.698 C 8.155 243.105,21.534 245.216,27.774 245.965 L 29.298 246.148 29.460 246.549 C 29.549 246.770,30.224 248.738,30.960 250.924 C 47.852 301.126,85.560 339.777,136.166 358.758 C 231.857 394.651,340.152 344.666,370.496 250.600 C 371.744 246.731,371.634 247.000,371.963 247.000 C 372.736 247.000,381.725 245.875,385.200 245.343 C 395.885 243.708,397.113 242.784,398.146 235.600 C 399.070 229.166,399.717 219.920,399.900 210.500 C 400.146 197.854,400.022 186.861,399.553 179.650 C 398.585 164.788,397.954 161.958,395.274 160.460 C 392.470 158.892,385.584 157.070,375.969 155.352 C 372.094 154.660,372.239 154.749,371.594 152.675 C 371.368 151.946,370.887 150.405,370.526 149.250 C 350.113 83.968,288.271 36.318,215.700 29.954 C 212.824 29.702,193.262 29.382,191.550 29.559 M205.400 72.807 C 255.053 74.707,299.049 101.875,320.045 143.600 C 321.411 146.316,322.829 149.305,322.775 149.358 C 322.759 149.374,322.117 149.325,321.348 149.249 C 314.262 148.545,298.951 147.665,277.000 146.700 C 273.079 146.527,261.621 146.081,256.450 145.900 C 234.806 145.140,226.968 145.000,202.250 144.932 C 164.106 144.827,131.982 145.277,107.900 146.253 C 96.968 146.697,83.082 147.402,80.125 147.663 L 79.399 147.728 79.544 147.317 C 79.769 146.679,81.767 142.775,83.033 140.500 C 105.058 100.908,146.667 75.410,193.350 72.898 C 198.306 72.631,200.396 72.615,205.400 72.807 M80.150 250.698 C 86.966 251.208,104.575 252.044,119.100 252.547 C 167.157 254.212,229.001 254.290,280.200 252.749 C 292.476 252.380,301.817 252.016,314.750 251.403 C 317.005 251.296,319.654 251.178,320.636 251.141 L 322.422 251.072 322.352 251.311 C 321.760 253.313,315.928 263.630,312.492 268.750 C 290.535 301.474,253.915 322.780,213.250 326.492 C 161.848 331.184,112.791 307.254,86.015 264.425 C 83.217 259.950,78.320 250.599,78.775 250.600 C 78.816 250.600,79.435 250.644,80.150 250.698 " stroke="none" fill-rule="evenodd"></path></g></svg>