<svg id="svg" version="1.1" xmlns="http://www.w3.org/2000/svg"  width="400" height="400" viewBox="0, 0, 400,400"><g id="svgg"><path id="path0" d="M7.247 153.223 C 6.932 155.565,1.953 208.359,1.953 209.351 C 1.953 210.164,2.008 210.167,13.965 210.064 L 25.977 209.961 26.634 203.516 C 26.996 199.971,27.304 196.682,27.318 196.208 L 27.344 195.345 47.559 195.231 C 70.401 195.102,69.911 195.165,74.152 191.813 C 83.395 184.506,84.999 161.356,76.681 155.316 C 71.882 151.831,69.135 151.585,34.887 151.573 L 7.470 151.563 7.247 153.223 M102.372 152.169 C 90.537 154.736,87.289 160.166,85.329 180.664 C 83.210 202.836,85.906 208.328,99.805 210.148 C 106.665 211.046,151.885 210.509,155.525 209.486 C 167.486 206.124,170.055 201.566,172.101 180.078 C 173.991 160.221,171.920 155.202,160.642 152.318 C 156.769 151.328,106.841 151.200,102.372 152.169 M180.078 151.780 C 180.078 151.899,178.848 164.897,177.344 180.664 C 175.840 196.431,174.609 209.517,174.609 209.744 C 174.609 210.029,181.657 210.156,197.384 210.156 L 220.158 210.156 224.825 202.863 C 227.392 198.852,229.551 195.424,229.622 195.246 C 229.694 195.068,223.096 194.922,214.960 194.922 L 200.167 194.922 201.997 175.684 C 203.004 165.103,203.938 155.347,204.073 154.004 L 204.319 151.563 192.198 151.563 C 185.532 151.563,180.078 151.660,180.078 151.780 M262.208 152.437 C 261.990 152.708,253.772 165.498,243.945 180.859 C 234.119 196.221,225.902 209.009,225.687 209.277 C 225.375 209.666,227.993 209.766,238.529 209.766 L 251.763 209.766 254.811 204.683 L 257.860 199.600 272.956 199.702 L 288.052 199.805 290.281 204.688 L 292.509 209.570 317.282 209.671 L 342.054 209.771 342.525 204.397 C 342.783 201.442,343.103 198.090,343.234 196.949 L 343.473 194.874 356.209 194.996 C 373.200 195.158,372.902 194.937,371.750 206.543 L 371.431 209.766 383.510 209.766 L 395.589 209.766 396.037 205.348 C 397.217 193.708,395.859 189.399,390.527 187.864 C 388.668 187.328,388.055 186.719,389.376 186.719 C 393.768 186.719,398.229 180.965,399.189 174.060 C 400.834 162.234,398.973 156.093,392.894 153.286 L 390.430 152.148 356.944 152.040 L 323.458 151.932 323.273 152.822 C 323.171 153.311,322.017 165.313,320.708 179.492 C 319.399 193.672,318.200 205.789,318.044 206.420 C 317.795 207.422,316.163 204.083,305.062 179.857 L 292.366 152.148 277.484 152.046 C 265.876 151.966,262.516 152.052,262.208 152.437 M143.150 166.927 C 147.607 168.888,148.384 172.103,147.084 183.214 C 145.691 195.124,145.069 195.508,127.148 195.508 C 109.062 195.508,108.599 195.126,109.944 181.328 C 111.356 166.854,112.581 165.998,131.641 166.161 C 140.135 166.233,141.830 166.346,143.150 166.927 M54.522 167.147 C 58.192 168.814,57.966 177.012,54.171 179.842 C 53.115 180.630,52.567 180.669,40.988 180.778 L 28.906 180.891 28.918 179.801 C 28.924 179.202,29.184 176.250,29.496 173.242 C 29.807 170.234,30.066 167.466,30.070 167.090 C 30.083 166.016,52.145 166.067,54.522 167.147 M372.762 166.875 C 375.209 167.608,375.886 169.012,375.622 172.804 C 375.112 180.118,374.826 180.242,358.105 180.390 L 344.922 180.507 344.933 179.414 C 344.940 178.812,345.200 175.859,345.511 172.852 C 345.823 169.844,346.081 167.163,346.086 166.895 C 346.097 166.211,370.487 166.193,372.762 166.875 M279.097 179.286 C 280.926 183.439,282.422 186.898,282.422 186.973 C 282.422 187.048,278.730 187.109,274.219 187.109 C 269.707 187.109,266.016 187.007,266.016 186.881 C 266.016 186.690,271.193 178.167,274.502 172.912 C 275.668 171.060,275.171 170.371,279.097 179.286 M0.385 234.473 C 0.382 234.741,0.276 235.348,0.149 235.822 C -0.071 236.642,0.048 236.688,2.628 236.798 L 5.338 236.914 4.105 242.676 L 2.871 248.438 4.919 248.438 L 6.967 248.438 7.396 246.387 C 7.632 245.259,8.201 242.629,8.661 240.543 L 9.497 236.751 12.253 236.637 L 15.009 236.523 15.268 235.254 L 15.526 233.984 7.958 233.984 C 2.167 233.984,0.389 234.099,0.385 234.473 M38.846 235.645 C 38.241 236.558,36.110 239.810,34.112 242.871 L 30.479 248.438 32.720 248.434 C 34.923 248.432,34.976 248.405,35.852 246.872 L 36.742 245.313 40.046 245.313 L 43.350 245.313 43.600 246.875 L 43.850 248.438 46.083 248.438 L 48.317 248.438 46.802 241.895 C 45.969 238.296,45.194 235.044,45.079 234.668 C 44.908 234.111,44.412 233.984,42.408 233.984 L 39.948 233.984 38.846 235.645 M70.729 239.941 C 70.037 243.218,69.322 246.470,69.141 247.168 L 68.813 248.438 70.843 248.438 L 72.873 248.438 73.784 243.997 C 74.285 241.555,74.816 239.360,74.965 239.120 C 75.117 238.873,76.426 240.770,77.964 243.462 L 80.692 248.242 82.990 248.242 L 85.288 248.242 86.769 241.406 C 87.583 237.646,88.256 234.438,88.265 234.277 C 88.303 233.597,84.431 233.972,84.237 234.668 C 84.132 235.044,83.659 237.197,83.186 239.453 C 82.713 241.709,82.280 243.608,82.222 243.674 C 82.165 243.740,80.917 241.587,79.450 238.889 L 76.782 233.984 74.385 233.984 L 71.988 233.984 70.729 239.941 M110.005 236.816 C 109.664 238.374,108.961 241.626,108.444 244.043 L 107.503 248.438 109.531 248.438 L 111.558 248.438 112.127 246.234 C 112.550 244.593,113.012 243.788,113.938 243.080 L 115.180 242.129 116.999 245.283 L 118.818 248.438 121.550 248.438 L 124.282 248.438 123.502 247.168 C 123.073 246.470,121.916 244.588,120.931 242.987 C 118.710 239.375,118.496 240.052,122.858 236.882 L 126.575 234.180 123.971 234.063 L 121.367 233.946 117.528 236.895 C 115.417 238.517,113.620 239.844,113.535 239.844 C 113.451 239.844,113.688 238.525,114.063 236.914 L 114.744 233.984 112.684 233.984 L 110.625 233.984 110.005 236.816 M173.684 234.863 C 173.211 236.627,173.324 236.719,175.977 236.719 C 177.846 236.719,178.516 236.858,178.516 237.246 C 178.516 237.681,177.149 244.232,176.364 247.559 C 176.169 248.386,176.279 248.438,178.228 248.438 L 180.299 248.438 181.421 243.066 C 182.038 240.112,182.622 237.476,182.719 237.207 C 182.837 236.882,183.780 236.719,185.543 236.719 C 188.287 236.719,188.645 236.461,188.667 234.473 C 188.678 233.429,173.965 233.813,173.684 234.863 M209.585 234.473 C 209.499 234.741,208.876 237.598,208.200 240.820 C 207.525 244.043,206.876 247.085,206.758 247.581 C 206.553 248.446,206.627 248.477,208.626 248.362 L 210.707 248.242 211.267 245.605 L 211.828 242.969 214.338 242.969 C 218.088 242.969,218.488 243.300,218.160 246.126 L 217.892 248.438 220.023 248.438 L 222.153 248.438 222.413 245.647 C 222.611 243.516,222.538 242.650,222.103 241.987 C 221.580 241.188,221.605 241.086,222.424 240.713 C 224.440 239.794,225.152 236.445,223.651 234.943 C 222.530 233.822,209.928 233.401,209.585 234.473 M247.334 240.332 C 241.444 249.151,241.710 248.438,244.311 248.438 C 246.413 248.438,246.481 248.403,247.352 246.867 L 248.242 245.296 251.549 245.402 L 254.855 245.508 255.201 246.973 L 255.546 248.438 257.656 248.438 C 258.816 248.438,259.766 248.366,259.766 248.278 C 259.766 248.190,259.063 245.032,258.203 241.259 C 257.344 237.486,256.641 234.306,256.641 234.192 C 256.641 234.078,255.501 233.984,254.107 233.984 L 251.574 233.984 247.334 240.332 M283.436 234.668 C 283.321 235.044,282.686 237.900,282.025 241.016 C 281.365 244.131,280.723 247.085,280.599 247.581 C 280.381 248.448,280.452 248.477,282.467 248.362 L 284.560 248.242 286.008 241.602 C 286.804 237.949,287.465 234.741,287.478 234.473 C 287.516 233.642,283.695 233.827,283.436 234.668 M308.348 241.211 L 306.784 248.438 313.307 248.438 C 319.742 248.438,319.834 248.426,320.066 247.559 C 320.669 245.311,320.672 245.313,315.965 245.313 L 311.617 245.313 311.835 244.043 C 311.956 243.345,312.488 240.796,313.018 238.379 L 313.981 233.984 311.947 233.984 L 309.912 233.984 308.348 241.211 M342.847 240.761 C 342.054 244.488,341.406 247.740,341.406 247.987 C 341.406 248.310,343.340 248.438,348.231 248.438 L 355.056 248.438 355.385 247.168 L 355.715 245.898 350.904 245.789 C 345.713 245.671,345.869 245.753,346.338 243.408 L 346.582 242.188 351.179 242.188 C 356.046 242.188,356.250 242.108,356.250 240.202 C 356.250 239.507,355.925 239.453,351.712 239.453 C 347.197 239.453,347.176 239.449,347.410 238.574 C 347.540 238.091,347.648 237.476,347.651 237.207 C 347.655 236.843,348.891 236.719,352.516 236.719 C 355.189 236.719,357.450 236.587,357.540 236.426 C 357.631 236.265,357.820 235.649,357.961 235.059 L 358.218 233.984 351.253 233.984 L 344.287 233.984 342.847 240.761 M378.541 240.332 C 377.805 243.823,377.126 247.075,377.032 247.559 C 376.874 248.376,376.999 248.438,378.834 248.438 C 380.998 248.438,380.825 248.648,381.645 245.020 L 382.109 242.969 384.635 242.969 C 388.387 242.969,388.764 243.280,388.443 246.116 L 388.180 248.438 390.326 248.438 L 392.471 248.438 392.688 245.801 C 392.824 244.148,392.735 242.811,392.449 242.219 C 392.042 241.377,392.131 241.136,393.262 240.012 C 394.814 238.469,395.039 236.054,393.750 234.766 C 393.031 234.047,392.448 233.984,386.424 233.984 L 379.880 233.984 378.541 240.332 M219.856 237.825 C 220.106 239.592,218.957 240.234,215.547 240.234 L 212.465 240.234 212.729 238.770 C 213.111 236.650,213.057 236.678,216.536 236.801 C 219.542 236.908,219.734 236.967,219.856 237.825 M389.971 237.558 C 390.983 239.168,389.353 240.234,385.880 240.234 L 382.715 240.234 382.959 239.014 C 383.093 238.342,383.203 237.544,383.203 237.240 C 383.203 236.382,389.415 236.674,389.971 237.558 M254.280 242.090 C 254.291 242.423,253.618 242.578,252.162 242.578 L 250.026 242.578 251.673 239.839 L 253.320 237.099 253.792 239.350 C 254.051 240.588,254.270 241.821,254.280 242.090 M42.378 240.213 L 42.872 242.578 40.772 242.578 C 38.277 242.578,38.335 242.809,40.092 239.860 C 41.736 237.100,41.729 237.099,42.378 240.213 " stroke="none" fill="#044c84" fill-rule="evenodd"></path><path id="path1" d="M0.391 218.305 C 0.391 218.919,0.279 220.238,0.142 221.235 L -0.106 223.047 197.017 223.047 L 394.141 223.047 394.141 221.930 C 394.141 221.315,394.252 219.997,394.389 219.000 L 394.637 217.188 197.514 217.188 L 0.391 217.188 0.391 218.305 " stroke="none" fill="#ec3424" fill-rule="evenodd"></path></g></svg>