<svg id="svg" version="1.1" xmlns="http://www.w3.org/2000/svg" xmlns:xlink="http://www.w3.org/1999/xlink" width="400" height="400" viewBox="0, 0, 400,400"><g id="svgg"><path id="path0" d="M337.508 170.573 C 337.399 170.705,337.326 170.949,337.347 171.115 C 337.368 171.281,337.328 171.548,337.258 171.708 C 337.188 171.869,337.174 172.113,337.228 172.252 C 337.281 172.390,337.252 172.885,337.163 173.353 C 337.074 173.820,336.963 174.775,336.915 175.476 C 336.867 176.177,336.793 176.938,336.750 177.167 C 336.678 177.554,336.351 180.278,336.000 183.417 C 335.918 184.150,335.739 185.688,335.602 186.833 C 335.465 187.979,335.157 190.556,334.918 192.560 C 334.678 194.564,334.505 196.300,334.533 196.419 C 334.563 196.546,336.572 195.198,339.417 193.142 C 342.075 191.221,345.525 188.728,347.083 187.602 C 348.642 186.476,352.242 183.881,355.083 181.835 C 357.925 179.790,360.625 177.840,361.083 177.503 C 364.312 175.130,367.370 172.981,367.431 173.042 C 367.494 173.105,367.371 174.264,367.081 176.333 C 367.000 176.908,367.006 176.904,367.431 176.102 C 368.190 174.670,369.475 173.054,370.949 171.675 L 372.382 170.333 355.045 170.333 C 340.156 170.333,337.679 170.367,337.508 170.573 M366.098 178.180 C 365.860 178.462,365.355 179.231,364.975 179.888 C 364.124 181.360,359.823 188.443,359.087 189.583 C 358.792 190.042,357.548 192.067,356.323 194.083 C 355.099 196.100,353.817 198.200,353.476 198.750 C 353.134 199.300,352.073 201.025,351.118 202.583 C 350.164 204.142,348.760 206.429,347.999 207.667 C 347.238 208.904,346.135 210.704,345.549 211.667 C 344.963 212.629,344.424 213.476,344.352 213.548 C 344.280 213.620,341.841 211.494,338.932 208.824 C 336.023 206.153,333.622 203.994,333.596 204.026 C 333.571 204.058,333.310 206.146,333.017 208.667 C 332.723 211.188,332.415 213.775,332.332 214.417 C 332.248 215.058,332.026 216.933,331.837 218.583 C 331.648 220.233,331.460 221.790,331.418 222.042 L 331.342 222.500 343.421 222.500 C 350.064 222.500,355.500 222.471,355.500 222.436 C 355.500 222.376,350.319 217.730,349.618 217.161 C 349.312 216.913,349.311 216.841,349.576 214.780 C 349.888 212.361,349.767 212.678,352.565 206.939 C 353.721 204.568,354.667 202.610,354.667 202.588 C 354.667 202.565,355.500 200.830,356.519 198.732 C 357.538 196.634,358.767 194.092,359.250 193.083 C 360.158 191.188,361.364 188.682,363.583 184.083 C 364.291 182.617,365.207 180.704,365.618 179.833 C 366.030 178.963,366.436 178.119,366.522 177.958 C 366.760 177.514,366.578 177.609,366.098 178.180 M391.250 197.666 C 388.731 198.961,388.464 199.000,382.093 199.000 C 375.771 199.000,375.182 199.098,373.574 200.416 C 372.220 201.525,372.074 201.892,371.681 205.167 C 371.489 206.771,371.220 208.965,371.083 210.042 C 370.946 211.119,370.721 212.900,370.583 214.000 C 370.446 215.100,370.218 216.919,370.078 218.042 C 369.937 219.165,369.785 220.421,369.738 220.833 C 369.692 221.246,369.613 221.790,369.564 222.042 L 369.474 222.500 379.984 222.500 L 390.494 222.500 390.572 222.125 C 390.737 221.332,391.155 217.283,391.083 217.167 C 391.042 217.099,391.152 215.821,391.329 214.326 C 391.506 212.832,391.619 211.557,391.580 211.495 C 391.542 211.432,391.611 210.489,391.735 209.399 C 391.996 207.092,391.976 207.315,392.082 205.504 C 392.128 204.727,392.277 203.237,392.414 202.193 C 392.551 201.149,392.624 200.232,392.577 200.156 C 392.530 200.080,392.574 199.332,392.676 198.495 C 392.900 196.651,393.052 196.739,391.250 197.666 " stroke="none" fill="#eb1d24" fill-rule="evenodd"></path><path id="path1" d="M381.210 166.668 C 380.271 166.843,379.357 167.065,379.179 167.160 C 379.001 167.255,378.703 167.333,378.517 167.333 C 378.330 167.333,377.932 167.440,377.631 167.569 C 377.330 167.699,376.783 167.932,376.417 168.086 C 373.383 169.362,370.672 171.490,368.709 174.135 C 368.030 175.050,363.500 183.843,363.500 184.246 C 363.500 184.269,362.667 186.004,361.649 188.102 C 360.631 190.200,359.441 192.667,359.004 193.583 C 358.567 194.500,356.897 197.987,355.292 201.333 C 350.594 211.125,350.000 212.374,350.000 212.462 C 350.000 212.507,350.169 212.690,350.375 212.868 C 350.581 213.047,351.013 213.430,351.335 213.721 C 351.657 214.012,352.557 214.813,353.335 215.500 C 354.113 216.188,354.787 216.789,354.833 216.837 C 354.943 216.951,360.542 221.917,362.252 223.417 C 362.984 224.058,363.874 224.846,364.231 225.167 C 364.588 225.487,364.963 225.825,365.066 225.917 C 365.671 226.460,365.839 226.536,366.048 226.363 C 366.209 226.229,366.262 226.262,366.262 226.497 C 366.262 226.669,366.184 226.764,366.089 226.709 C 365.994 226.654,366.055 226.768,366.225 226.961 C 366.473 227.244,366.613 227.282,366.944 227.156 C 367.529 226.934,367.593 226.955,367.622 227.375 C 367.645 227.698,367.626 227.711,367.486 227.465 C 367.389 227.295,367.218 227.222,367.058 227.283 C 366.790 227.386,367.327 227.794,367.743 227.804 C 367.832 227.807,367.958 227.945,368.023 228.113 C 368.133 228.390,368.144 228.386,368.155 228.075 C 368.161 227.887,368.091 227.644,367.999 227.535 C 367.906 227.425,367.881 227.372,367.942 227.417 C 368.003 227.461,368.153 227.414,368.276 227.311 C 368.441 227.175,368.500 227.175,368.500 227.313 C 368.500 227.416,368.427 227.500,368.339 227.500 C 368.250 227.500,368.223 227.619,368.278 227.764 C 368.352 227.956,368.414 227.973,368.503 227.828 C 368.571 227.718,368.631 227.945,368.637 228.332 C 368.642 228.719,368.698 229.083,368.761 229.143 C 368.824 229.202,368.842 229.006,368.800 228.708 C 368.758 228.410,368.786 228.167,368.862 228.167 C 369.084 228.167,369.021 227.369,368.792 227.277 C 368.625 227.210,368.625 227.190,368.792 227.180 C 369.044 227.164,369.074 226.667,368.823 226.667 C 368.726 226.667,368.686 226.729,368.733 226.806 C 368.780 226.882,368.708 226.944,368.573 226.944 C 368.383 226.944,368.403 226.864,368.658 226.593 C 368.877 226.359,369.021 225.906,369.087 225.245 C 369.141 224.698,369.291 223.537,369.421 222.667 C 369.652 221.117,369.980 218.662,370.334 215.833 C 370.431 215.054,370.849 211.754,371.263 208.500 C 371.676 205.246,372.088 201.946,372.178 201.167 C 372.663 196.942,372.897 196.502,375.337 195.238 L 376.250 194.765 382.333 194.629 C 389.180 194.477,389.561 194.422,391.775 193.254 C 394.122 192.017,396.724 189.840,397.776 188.233 C 397.919 188.015,398.103 187.877,398.185 187.928 C 398.267 187.978,398.333 187.903,398.333 187.761 C 398.333 187.532,397.416 187.498,390.208 187.460 L 382.083 187.417 381.808 186.333 C 381.017 183.222,381.825 177.703,383.428 175.256 L 383.705 174.833 391.853 174.833 L 400.000 174.833 400.000 173.911 C 400.000 172.936,399.907 172.730,398.785 171.220 C 397.890 170.015,394.801 167.833,393.989 167.833 C 393.885 167.833,393.564 167.730,393.275 167.604 C 390.813 166.531,384.547 166.044,381.210 166.668 " stroke="none" fill="#c8c8cb" fill-rule="evenodd"></path><path id="path2" d="M364.500 175.106 C 363.446 175.885,361.496 177.304,360.167 178.259 C 358.837 179.214,356.850 180.646,355.750 181.441 C 354.650 182.236,353.450 183.100,353.083 183.362 C 352.717 183.623,352.029 184.117,351.555 184.460 C 351.081 184.803,349.543 185.913,348.138 186.927 C 346.733 187.941,344.458 189.586,343.083 190.581 C 336.920 195.045,334.434 196.822,334.400 196.787 C 334.357 196.741,334.558 194.798,334.906 191.917 C 335.722 185.145,336.116 181.796,336.336 179.750 C 336.425 178.925,336.579 177.701,336.679 177.030 C 336.945 175.237,337.096 175.333,334.016 175.333 C 331.624 175.333,331.348 175.363,331.275 175.625 C 331.230 175.785,331.111 176.704,331.011 177.667 C 330.910 178.629,330.718 180.392,330.584 181.583 C 330.450 182.775,330.223 184.875,330.080 186.250 C 329.936 187.625,329.712 189.725,329.582 190.917 C 329.321 193.308,328.966 196.600,328.583 200.167 C 328.446 201.450,328.222 203.531,328.085 204.792 C 327.948 206.052,327.721 208.171,327.580 209.500 C 327.440 210.829,327.215 212.892,327.082 214.083 C 326.844 216.206,326.520 219.262,326.179 222.583 C 326.085 223.500,325.962 224.856,325.906 225.597 L 325.804 226.944 343.110 226.874 L 360.417 226.804 361.394 227.735 C 361.932 228.248,362.404 228.667,362.444 228.667 C 362.483 228.667,362.681 228.843,362.883 229.059 C 363.085 229.275,363.887 229.999,364.667 230.667 C 365.446 231.335,366.249 232.058,366.450 232.274 C 366.652 232.490,366.863 232.667,366.918 232.667 C 366.973 232.667,367.238 232.906,367.505 233.199 C 367.772 233.492,368.032 233.690,368.082 233.640 C 368.230 233.492,368.666 230.812,368.666 230.050 L 368.667 229.350 362.625 223.973 C 359.302 221.016,356.321 218.359,356.000 218.068 C 355.679 217.778,354.179 216.442,352.667 215.101 L 349.917 212.661 349.715 214.372 C 349.605 215.313,349.474 216.246,349.424 216.444 C 349.358 216.710,349.476 216.922,349.875 217.254 C 350.173 217.501,350.717 217.978,351.083 218.313 C 351.450 218.648,352.631 219.701,353.708 220.653 C 354.785 221.605,355.667 222.447,355.667 222.525 C 355.667 222.603,350.186 222.667,343.487 222.667 L 331.307 222.667 331.414 221.542 C 331.473 220.923,331.626 219.592,331.754 218.583 C 331.980 216.799,332.206 214.877,332.753 210.083 C 333.080 207.226,333.514 203.932,333.572 203.873 C 333.596 203.849,334.360 204.524,335.271 205.373 C 336.182 206.222,338.079 207.967,339.486 209.250 C 340.893 210.533,342.525 212.024,343.113 212.562 C 343.701 213.100,344.206 213.512,344.235 213.478 C 344.331 213.368,344.667 210.836,344.669 210.202 C 344.672 209.538,344.674 209.536,346.882 205.958 C 347.688 204.652,348.438 203.435,348.549 203.253 C 349.796 201.208,350.444 200.154,350.755 199.667 C 350.960 199.346,352.548 196.758,354.285 193.917 C 356.023 191.075,357.850 188.091,358.347 187.285 C 358.844 186.480,359.372 185.617,359.521 185.369 C 359.670 185.120,360.420 183.893,361.188 182.641 C 361.955 181.389,362.707 180.152,362.858 179.891 C 363.827 178.220,365.410 175.594,365.983 174.708 C 366.834 173.394,366.808 173.401,364.500 175.106 M383.467 175.375 C 382.384 177.083,380.969 183.167,381.655 183.167 C 381.811 183.167,381.903 182.704,381.878 182.042 C 381.874 181.927,381.925 181.833,381.991 181.833 C 382.057 181.833,382.097 181.665,382.080 181.458 C 382.040 180.968,382.164 180.645,382.349 180.760 C 382.430 180.810,382.453 180.738,382.400 180.599 C 382.345 180.456,382.474 180.177,382.700 179.952 L 383.096 179.555 391.025 179.448 C 399.414 179.334,399.537 179.324,399.484 178.770 C 399.466 178.576,399.507 178.285,399.576 178.125 C 399.646 177.965,399.661 177.726,399.611 177.594 C 399.560 177.463,399.586 177.331,399.668 177.302 C 399.750 177.274,399.869 176.744,399.932 176.125 L 400.046 175.000 391.876 175.000 L 383.705 175.000 383.467 175.375 M144.167 186.593 C 143.938 186.632,143.112 186.749,142.333 186.853 C 140.557 187.091,138.773 187.540,137.083 188.175 C 136.731 188.307,134.079 189.598,133.400 189.967 C 133.180 190.087,133.000 190.256,133.000 190.342 C 133.000 190.429,132.914 190.500,132.809 190.500 C 131.994 190.500,128.815 193.953,127.694 196.057 C 125.848 199.521,125.544 204.327,126.970 207.500 C 127.382 208.417,128.366 210.000,128.524 210.000 C 128.602 210.000,128.667 210.075,128.667 210.167 C 128.667 210.506,131.547 213.000,131.938 213.000 C 132.004 213.000,132.175 213.099,132.320 213.221 C 135.439 215.837,145.204 216.278,151.333 214.080 C 152.190 213.772,155.040 212.363,155.166 212.185 C 155.212 212.119,155.531 211.895,155.875 211.686 C 156.219 211.477,156.500 211.237,156.500 211.153 C 156.500 211.069,156.583 211.000,156.684 211.000 C 156.947 211.000,159.166 208.726,159.786 207.822 C 163.738 202.056,162.999 194.484,158.100 190.569 C 157.652 190.210,157.199 189.842,157.094 189.750 C 156.736 189.436,154.298 188.131,153.736 187.951 C 150.423 186.896,146.045 186.274,144.167 186.593 M3.002 187.625 C 3.003 187.969,2.894 189.075,2.760 190.083 C 2.626 191.092,2.402 192.929,2.261 194.167 C 1.847 197.819,1.528 200.609,1.260 202.917 C 1.122 204.108,0.891 206.133,0.747 207.417 C 0.603 208.700,0.375 210.575,0.241 211.583 C 0.106 212.592,-0.003 213.810,-0.002 214.292 L 0.000 215.167 5.979 215.167 L 11.958 215.167 12.065 214.631 C 12.124 214.337,12.251 213.197,12.346 212.100 C 12.441 211.002,12.551 210.052,12.590 209.988 C 12.630 209.925,12.739 208.983,12.834 207.895 C 12.929 206.807,13.047 205.787,13.097 205.628 C 13.179 205.365,13.576 205.335,17.464 205.294 L 21.741 205.250 21.871 204.500 C 22.006 203.725,22.277 201.155,22.447 199.042 L 22.544 197.833 18.250 197.833 L 13.956 197.833 14.060 197.208 C 14.117 196.865,14.164 196.302,14.165 195.958 L 14.167 195.333 19.072 195.333 C 23.601 195.333,23.984 195.311,24.061 195.042 C 24.107 194.881,24.227 194.037,24.329 193.167 C 24.430 192.296,24.623 190.757,24.757 189.747 C 24.891 188.738,25.000 187.706,25.000 187.456 L 25.000 187.000 14.000 187.000 L 3.000 187.000 3.002 187.625 M33.748 187.331 C 33.657 187.513,32.974 188.844,32.228 190.289 C 31.483 191.734,30.321 194.004,29.645 195.333 C 28.969 196.662,28.374 197.787,28.323 197.833 C 28.271 197.879,27.847 198.667,27.379 199.583 C 26.911 200.500,26.115 202.037,25.610 203.000 C 25.104 203.963,24.491 205.162,24.247 205.667 C 24.003 206.171,23.646 206.883,23.454 207.250 C 23.262 207.617,22.711 208.667,22.229 209.583 C 20.816 212.276,19.500 214.909,19.500 215.045 C 19.500 215.388,32.244 215.095,32.298 214.750 C 32.327 214.567,32.417 214.267,32.498 214.083 C 33.053 212.826,33.333 212.093,33.333 211.895 C 33.333 211.707,34.113 211.667,37.723 211.667 L 42.112 211.667 42.389 212.958 C 42.542 213.669,42.685 214.438,42.708 214.667 L 42.750 215.083 49.125 215.127 C 56.281 215.176,55.738 215.283,55.268 213.922 C 55.140 213.553,54.904 212.800,54.744 212.250 C 54.135 210.160,53.953 209.571,53.789 209.167 C 53.696 208.938,53.562 208.487,53.490 208.167 C 53.419 207.846,53.086 206.721,52.750 205.667 C 52.414 204.612,52.081 203.487,52.010 203.167 C 51.938 202.846,51.802 202.396,51.708 202.167 C 51.613 201.938,51.404 201.300,51.244 200.750 C 50.812 199.265,50.484 198.164,50.251 197.417 C 50.137 197.050,49.912 196.300,49.751 195.750 C 49.589 195.200,49.364 194.450,49.250 194.083 C 49.136 193.717,48.950 193.079,48.835 192.667 C 48.519 191.525,48.027 189.907,47.404 187.958 L 47.098 187.000 40.505 187.000 C 34.093 187.000,33.908 187.009,33.748 187.331 M51.000 187.153 C 51.000 187.359,52.208 189.401,52.372 189.472 C 52.443 189.503,52.500 189.604,52.500 189.698 C 52.500 189.792,52.710 190.179,52.966 190.559 C 53.223 190.939,53.486 191.362,53.551 191.500 C 53.617 191.637,53.819 191.975,54.000 192.250 C 54.181 192.525,54.381 192.862,54.443 193.000 C 54.538 193.210,55.195 194.285,56.125 195.754 C 56.240 195.935,56.410 196.233,56.503 196.417 C 56.596 196.600,56.820 196.975,57.001 197.250 C 57.182 197.525,57.381 197.862,57.443 198.000 C 57.506 198.137,57.870 198.737,58.253 199.333 C 58.637 199.929,59.195 200.867,59.495 201.417 C 59.795 201.967,60.107 202.488,60.187 202.575 C 60.407 202.813,60.363 204.643,60.092 206.552 C 59.960 207.486,59.769 209.150,59.668 210.250 C 59.568 211.350,59.414 212.752,59.326 213.365 C 59.036 215.396,58.314 215.167,64.982 215.167 C 69.658 215.167,70.814 215.123,70.882 214.946 C 70.929 214.824,71.014 214.205,71.071 213.571 C 71.197 212.169,71.599 208.737,71.928 206.250 C 72.061 205.242,72.170 204.146,72.169 203.814 C 72.167 203.197,72.487 202.682,73.750 201.269 C 73.842 201.167,74.215 200.708,74.580 200.250 C 74.946 199.792,75.302 199.392,75.372 199.361 C 75.442 199.331,75.500 199.199,75.500 199.069 C 75.500 198.940,75.557 198.833,75.627 198.833 C 75.697 198.833,76.090 198.402,76.500 197.875 C 77.218 196.953,77.386 196.748,78.169 195.835 C 78.365 195.607,78.797 195.063,79.130 194.627 C 79.463 194.190,79.795 193.833,79.868 193.833 C 79.940 193.833,80.000 193.721,80.000 193.583 C 80.000 193.446,80.062 193.333,80.138 193.333 C 80.215 193.333,80.531 192.979,80.842 192.547 C 81.153 192.114,81.522 191.644,81.662 191.503 C 81.802 191.362,82.217 190.872,82.583 190.415 C 82.950 189.958,83.325 189.502,83.417 189.403 C 83.608 189.195,84.639 187.929,84.949 187.523 C 85.063 187.373,85.158 187.194,85.161 187.125 C 85.164 187.056,82.144 187.000,78.450 187.000 L 71.733 187.000 71.249 187.766 C 70.983 188.187,70.686 188.674,70.591 188.848 C 70.495 189.021,70.032 189.783,69.562 190.540 C 69.091 191.297,68.430 192.460,68.092 193.125 C 67.509 194.272,67.167 194.628,67.167 194.089 C 67.167 193.955,67.059 193.598,66.927 193.297 C 66.795 192.996,66.489 192.188,66.246 191.500 C 66.003 190.813,65.703 190.025,65.578 189.750 C 65.453 189.475,65.175 188.762,64.959 188.167 L 64.567 187.083 57.784 187.040 C 53.632 187.013,51.000 187.057,51.000 187.153 M87.946 187.109 C 87.884 187.171,87.833 187.347,87.833 187.499 C 87.833 187.651,87.608 188.482,87.332 189.346 C 87.057 190.210,86.711 191.329,86.563 191.833 C 86.415 192.338,86.238 192.938,86.170 193.167 C 86.103 193.396,85.916 194.033,85.756 194.583 C 85.596 195.133,85.370 195.883,85.254 196.250 C 85.139 196.617,84.910 197.367,84.746 197.917 C 84.583 198.467,84.357 199.217,84.246 199.583 C 84.134 199.950,83.913 200.700,83.754 201.250 C 83.595 201.800,83.387 202.438,83.292 202.667 C 83.198 202.896,83.063 203.346,82.993 203.667 C 82.923 203.987,82.785 204.475,82.686 204.750 C 82.586 205.025,82.276 206.037,81.996 207.000 C 81.716 207.963,81.408 208.975,81.312 209.250 C 81.216 209.525,81.072 209.975,80.992 210.250 C 80.912 210.525,80.734 211.125,80.595 211.583 C 80.457 212.042,80.201 212.904,80.027 213.500 C 79.853 214.096,79.655 214.715,79.587 214.875 C 79.472 215.150,79.811 215.167,85.399 215.167 L 91.333 215.167 91.333 214.678 C 91.333 214.408,91.414 213.977,91.512 213.719 C 91.611 213.461,91.754 212.950,91.830 212.583 C 91.906 212.217,92.133 211.204,92.334 210.333 C 92.535 209.463,92.760 208.487,92.834 208.167 C 92.908 207.846,93.128 206.833,93.323 205.917 C 93.518 205.000,93.783 203.800,93.911 203.250 C 94.039 202.700,94.232 201.800,94.340 201.250 C 94.634 199.758,94.822 199.576,94.828 200.779 C 94.834 201.972,95.175 203.797,95.943 206.750 C 96.603 209.284,96.980 210.800,97.167 211.667 C 97.292 212.249,97.558 213.357,97.857 214.545 L 98.015 215.173 101.549 215.128 L 105.083 215.083 107.520 210.167 C 109.930 205.304,111.413 202.230,111.660 201.583 C 112.361 199.752,112.346 199.594,112.238 207.625 L 112.137 215.167 117.902 215.167 L 123.667 215.167 123.668 213.875 C 123.669 213.165,123.559 211.346,123.423 209.833 C 123.286 208.321,123.060 205.583,122.919 203.750 C 122.778 201.917,122.583 199.517,122.485 198.417 C 122.388 197.317,122.240 195.292,122.157 193.917 C 122.074 192.542,121.932 190.854,121.842 190.167 C 121.751 189.479,121.675 188.484,121.672 187.956 L 121.667 186.996 115.573 187.040 L 109.479 187.083 109.258 187.500 C 109.137 187.729,108.922 188.179,108.781 188.500 C 108.641 188.821,108.300 189.571,108.025 190.167 C 107.750 190.762,107.361 191.625,107.160 192.083 C 106.959 192.542,106.504 193.540,106.148 194.302 C 105.791 195.063,105.500 195.714,105.500 195.748 C 105.500 195.802,105.122 196.669,104.264 198.583 C 104.141 198.858,103.959 199.383,103.860 199.750 C 103.156 202.363,103.263 202.540,102.341 197.250 C 102.165 196.242,101.937 195.004,101.834 194.500 C 101.355 192.163,100.881 189.708,100.548 187.833 L 100.415 187.083 94.237 187.040 C 90.840 187.016,88.009 187.047,87.946 187.109 M166.774 187.292 C 166.670 187.665,166.393 189.903,166.161 192.250 C 166.062 193.258,165.871 195.021,165.737 196.167 C 165.399 199.066,165.062 202.008,164.753 204.750 C 164.608 206.033,164.412 207.683,164.318 208.417 C 164.224 209.150,164.078 210.500,163.995 211.417 C 163.912 212.333,163.767 213.533,163.673 214.083 C 163.579 214.633,163.501 215.103,163.501 215.127 C 163.500 215.151,166.106 215.151,169.292 215.127 L 175.083 215.083 175.186 213.917 C 175.286 212.775,175.439 211.525,175.870 208.333 C 175.987 207.463,176.083 205.351,176.083 203.641 C 176.083 201.931,176.130 200.561,176.188 200.596 C 176.246 200.632,176.420 200.906,176.575 201.206 C 176.731 201.505,176.947 201.900,177.057 202.083 C 177.358 202.586,178.056 203.720,178.292 204.090 C 178.407 204.270,178.577 204.567,178.670 204.750 C 178.762 204.933,178.986 205.308,179.167 205.583 C 179.347 205.858,179.564 206.233,179.648 206.417 C 179.731 206.600,179.995 207.035,180.233 207.382 C 180.472 207.730,180.667 208.062,180.667 208.119 C 180.667 208.177,180.770 208.342,180.895 208.487 C 181.021 208.632,181.368 209.200,181.667 209.750 C 181.965 210.300,182.301 210.862,182.413 211.000 C 182.525 211.137,182.666 211.362,182.726 211.500 C 182.787 211.637,182.973 211.975,183.141 212.250 C 183.308 212.525,183.692 213.200,183.995 213.750 C 184.297 214.300,184.618 214.844,184.709 214.958 C 184.835 215.118,186.211 215.167,190.565 215.167 L 196.256 215.167 196.545 213.292 C 196.704 212.260,196.834 211.155,196.834 210.836 C 196.833 210.517,196.943 209.429,197.076 208.419 C 197.210 207.410,197.438 205.533,197.583 204.250 C 197.728 202.967,197.953 201.017,198.082 199.917 C 198.211 198.817,198.437 196.829,198.582 195.500 C 198.728 194.171,198.954 192.221,199.083 191.167 C 199.213 190.112,199.362 188.744,199.414 188.125 L 199.509 187.000 193.793 187.000 L 188.077 187.000 187.782 189.375 C 187.620 190.681,187.369 192.635,187.223 193.717 C 187.027 195.172,186.977 196.568,187.030 199.081 L 187.101 202.478 186.551 201.564 C 186.248 201.061,186.000 200.622,186.000 200.589 C 186.000 200.555,185.675 199.978,185.278 199.305 C 184.881 198.633,184.347 197.708,184.092 197.250 C 183.836 196.792,183.024 195.367,182.287 194.083 C 181.550 192.800,180.752 191.375,180.515 190.917 C 180.278 190.458,180.044 190.046,179.995 190.000 C 179.893 189.904,178.864 188.139,178.513 187.458 L 178.277 187.000 172.566 187.000 C 167.270 187.000,166.850 187.021,166.774 187.292 M200.883 187.292 C 200.932 187.452,201.052 187.808,201.150 188.083 C 201.248 188.358,201.706 189.708,202.169 191.083 C 203.300 194.444,206.443 203.760,208.553 210.000 L 210.271 215.083 215.397 215.083 L 220.522 215.083 221.084 214.083 C 221.392 213.533,221.819 212.746,222.031 212.333 C 222.243 211.921,222.461 211.546,222.516 211.500 C 222.628 211.406,223.056 210.624,223.335 210.003 C 223.437 209.776,223.574 209.551,223.639 209.503 C 223.704 209.456,223.847 209.229,223.958 209.000 C 224.069 208.771,224.331 208.283,224.540 207.917 C 224.749 207.550,225.318 206.537,225.805 205.667 C 226.292 204.796,226.760 203.971,226.845 203.833 C 226.931 203.696,227.080 203.397,227.177 203.170 C 227.275 202.943,227.406 202.718,227.469 202.670 C 227.532 202.622,227.771 202.221,228.000 201.777 C 228.229 201.334,228.492 200.847,228.583 200.694 C 228.753 200.411,230.271 197.789,230.962 196.583 C 231.172 196.217,231.457 195.692,231.594 195.417 C 231.732 195.142,231.987 194.692,232.163 194.417 C 232.338 194.142,232.655 193.579,232.866 193.167 C 233.077 192.754,233.301 192.378,233.364 192.330 C 233.428 192.282,233.560 192.057,233.659 191.830 C 233.757 191.603,233.986 191.192,234.167 190.917 C 234.348 190.642,234.547 190.304,234.609 190.167 C 234.671 190.029,235.047 189.338,235.444 188.631 C 235.842 187.924,236.167 187.267,236.167 187.172 C 236.167 187.057,234.121 187.000,229.945 187.000 L 223.723 187.000 223.551 187.375 C 222.956 188.671,222.642 189.365,222.250 190.250 C 222.007 190.800,221.596 191.700,221.337 192.250 C 220.404 194.233,219.833 195.503,219.833 195.594 C 219.833 195.646,219.652 196.077,219.431 196.552 C 218.640 198.254,217.806 200.089,217.674 200.417 C 217.278 201.401,217.016 202.145,216.880 202.667 C 216.741 203.201,216.719 203.137,216.610 201.917 C 216.482 200.474,216.177 198.994,215.263 195.378 C 215.118 194.806,215.000 194.196,215.000 194.022 C 215.000 193.847,214.894 193.340,214.764 192.894 C 214.634 192.448,214.403 191.483,214.250 190.750 C 214.097 190.017,213.866 189.035,213.736 188.569 C 213.606 188.102,213.500 187.559,213.500 187.360 L 213.500 187.000 207.147 187.000 C 201.174 187.000,200.800 187.017,200.883 187.292 M237.693 188.375 C 237.597 189.131,237.437 190.575,237.337 191.583 C 237.238 192.592,237.048 194.354,236.916 195.500 C 236.784 196.646,236.557 198.633,236.411 199.917 C 236.266 201.200,236.042 203.150,235.915 204.250 C 235.788 205.350,235.565 207.300,235.420 208.583 C 235.275 209.867,235.046 211.743,234.911 212.753 C 234.777 213.762,234.667 214.720,234.667 214.880 C 234.667 215.152,235.053 215.168,240.708 215.127 L 246.750 215.083 246.791 214.250 C 246.813 213.792,246.940 212.554,247.073 211.500 C 247.206 210.446,247.431 208.571,247.571 207.333 C 247.976 203.772,248.301 200.929,248.581 198.500 C 248.723 197.262,248.954 195.237,249.093 194.000 C 249.233 192.762,249.456 190.924,249.590 189.914 C 249.724 188.904,249.833 187.836,249.833 187.539 L 249.833 187.000 243.851 187.000 L 237.868 187.000 237.693 188.375 M254.282 187.375 C 254.197 187.740,254.103 188.508,253.570 193.167 C 253.429 194.404,253.208 196.317,253.080 197.417 C 252.952 198.517,252.728 200.467,252.582 201.750 C 252.436 203.033,252.212 204.983,252.085 206.083 C 251.866 207.976,251.507 211.109,251.201 213.796 C 251.125 214.462,251.099 215.044,251.143 215.087 C 251.186 215.131,256.114 215.167,262.092 215.167 L 272.962 215.167 273.154 213.458 C 273.259 212.519,273.452 210.887,273.582 209.833 C 273.712 208.779,273.854 207.485,273.897 206.958 L 273.976 206.000 269.023 206.000 L 264.069 206.000 264.277 204.375 C 264.391 203.481,264.604 201.700,264.750 200.417 C 265.261 195.923,265.516 193.734,265.749 191.833 C 265.878 190.779,266.030 189.365,266.087 188.691 C 266.144 188.017,266.230 187.361,266.280 187.233 C 266.355 187.036,265.439 187.000,260.369 187.000 L 254.369 187.000 254.282 187.375 M278.114 189.042 C 277.967 190.165,277.727 192.133,277.581 193.417 C 277.130 197.365,276.828 199.996,276.583 202.083 C 276.455 203.183,276.228 205.171,276.080 206.500 C 275.932 207.829,275.706 209.779,275.579 210.833 C 275.452 211.887,275.302 213.294,275.247 213.958 L 275.146 215.167 286.056 215.167 L 296.966 215.167 297.158 214.065 C 297.263 213.459,297.417 212.203,297.499 211.273 C 297.581 210.344,297.687 209.283,297.734 208.917 C 297.782 208.550,297.863 207.744,297.915 207.125 L 298.009 206.000 293.066 206.000 L 288.123 206.000 288.226 205.375 C 288.370 204.503,288.621 202.402,288.830 200.333 C 289.032 198.329,289.405 194.989,289.753 192.083 C 289.884 190.983,290.037 189.596,290.092 189.000 C 290.147 188.404,290.233 187.710,290.284 187.458 L 290.375 187.000 284.378 187.000 L 278.382 187.000 278.114 189.042 M302.034 188.458 C 301.841 190.017,301.570 192.374,300.572 201.167 C 300.432 202.404,300.210 204.317,300.079 205.417 C 299.949 206.517,299.761 208.279,299.661 209.333 C 299.561 210.387,299.372 212.014,299.240 212.948 C 299.108 213.882,299.000 214.763,299.000 214.906 C 299.000 215.140,300.158 215.167,310.250 215.167 L 321.500 215.167 321.501 214.375 C 321.501 213.940,321.578 213.133,321.672 212.583 C 321.765 212.033,321.916 210.758,322.007 209.750 C 322.099 208.742,322.214 207.785,322.264 207.625 C 322.350 207.352,322.032 207.333,317.160 207.333 C 312.491 207.333,311.975 207.307,312.066 207.070 C 312.121 206.925,312.167 206.363,312.167 205.822 L 312.167 204.839 316.792 204.794 L 321.417 204.750 321.459 204.083 C 321.482 203.717,321.611 202.554,321.744 201.500 C 321.878 200.446,322.034 199.077,322.090 198.458 L 322.193 197.333 317.657 197.333 L 313.121 197.333 313.235 196.222 C 313.297 195.611,313.387 195.048,313.434 194.972 C 313.481 194.896,315.765 194.833,318.510 194.833 L 323.500 194.833 323.500 193.999 C 323.500 193.540,323.606 192.434,323.735 191.541 C 323.865 190.647,324.021 189.260,324.084 188.458 L 324.197 187.000 313.206 187.000 L 302.215 187.000 302.034 188.458 M397.770 188.410 C 396.704 190.037,393.628 192.522,391.285 193.651 C 389.454 194.533,388.612 194.634,382.316 194.729 C 375.779 194.828,375.588 194.865,373.820 196.345 C 372.882 197.130,372.750 197.475,372.440 199.950 L 372.227 201.650 373.137 200.747 C 374.811 199.086,375.234 199.000,381.754 198.998 C 388.454 198.996,390.105 198.671,392.459 196.892 C 392.758 196.666,393.078 196.529,393.172 196.586 C 393.265 196.644,393.321 196.592,393.296 196.471 C 393.270 196.349,393.380 196.260,393.540 196.273 C 393.699 196.285,393.792 196.234,393.745 196.159 C 393.699 196.083,393.943 195.811,394.289 195.554 C 394.634 195.297,395.291 194.711,395.749 194.251 C 396.206 193.792,396.637 193.435,396.707 193.458 C 396.776 193.481,396.833 193.392,396.833 193.260 C 396.833 193.128,396.920 192.966,397.026 192.901 C 397.156 192.820,397.173 192.857,397.077 193.016 C 396.958 193.214,396.979 193.215,397.213 193.026 C 397.365 192.902,397.483 192.752,397.475 192.692 C 397.420 192.277,397.525 191.996,397.695 192.101 C 397.829 192.184,397.854 192.128,397.775 191.923 C 397.712 191.759,397.751 191.516,397.861 191.383 C 398.018 191.194,398.015 191.112,397.847 191.008 C 397.692 190.912,397.679 190.789,397.801 190.561 C 397.893 190.388,397.930 190.041,397.882 189.790 C 397.830 189.518,397.868 189.333,397.976 189.333 C 398.091 189.333,398.120 189.142,398.055 188.816 C 397.984 188.464,398.025 188.253,398.184 188.152 C 398.319 188.067,398.337 188.004,398.228 188.003 C 398.123 188.001,397.917 188.185,397.770 188.410 M146.301 196.182 C 147.424 196.442,148.157 196.835,148.740 197.487 C 149.021 197.801,149.330 198.138,149.429 198.237 C 150.095 198.908,150.330 200.957,149.889 202.262 C 147.888 208.190,138.289 207.972,138.258 201.998 C 138.250 200.624,138.787 198.833,139.206 198.833 C 139.276 198.833,139.333 198.761,139.333 198.672 C 139.333 198.463,140.463 197.333,140.672 197.333 C 140.761 197.333,140.833 197.273,140.833 197.199 C 140.833 197.125,141.146 196.926,141.528 196.758 C 143.176 196.031,144.804 195.834,146.301 196.182 M39.732 196.764 C 39.788 196.909,39.833 197.476,39.833 198.025 C 39.833 198.947,39.925 199.572,40.595 203.212 C 40.726 203.924,40.833 204.580,40.833 204.670 C 40.833 204.769,39.934 204.833,38.564 204.833 L 36.295 204.833 36.538 204.458 C 36.672 204.252,36.823 203.896,36.874 203.667 C 36.925 203.438,37.130 202.838,37.329 202.333 C 37.529 201.829,37.760 201.192,37.843 200.917 C 37.927 200.642,38.061 200.267,38.141 200.083 C 38.722 198.758,38.834 198.456,38.839 198.203 C 38.842 198.045,38.954 197.771,39.089 197.593 C 39.223 197.415,39.333 197.096,39.333 196.885 C 39.333 196.445,39.581 196.370,39.732 196.764 M369.355 224.292 C 369.246 225.185,369.113 226.085,369.059 226.292 L 368.961 226.667 379.707 226.667 L 390.454 226.667 390.559 225.792 C 390.616 225.310,390.664 224.410,390.665 223.792 L 390.667 222.667 380.109 222.667 L 369.552 222.667 369.355 224.292 " stroke="none" fill="#241c24" fill-rule="evenodd"></path><path id="path3" d="M366.996 173.375 C 366.562 173.839,365.697 175.145,365.091 176.250 C 364.328 177.641,362.925 179.913,362.792 179.972 C 362.723 180.003,362.667 180.106,362.667 180.201 C 362.667 180.342,361.234 182.748,359.633 185.298 C 359.477 185.547,359.252 185.917,359.133 186.122 C 358.886 186.545,355.796 191.575,354.856 193.083 C 354.513 193.633,353.161 195.846,351.851 198.000 C 350.541 200.154,349.297 202.179,349.087 202.500 C 348.876 202.821,347.842 204.508,346.787 206.250 L 344.871 209.417 344.663 211.000 C 344.385 213.121,344.463 213.471,345.004 212.539 C 345.231 212.148,346.416 210.198,347.637 208.206 C 348.858 206.213,350.198 204.021,350.615 203.333 C 351.033 202.646,351.655 201.633,351.999 201.083 C 352.343 200.533,353.354 198.883,354.245 197.417 C 355.137 195.950,356.038 194.487,356.248 194.167 C 356.618 193.601,359.977 188.125,360.518 187.206 C 360.666 186.955,361.573 185.475,362.535 183.917 C 363.496 182.358,364.531 180.633,364.834 180.083 C 365.458 178.951,366.060 178.086,366.595 177.554 C 366.889 177.261,366.998 176.856,367.155 175.470 C 367.262 174.524,367.385 173.581,367.428 173.375 C 367.471 173.169,367.470 173.000,367.426 173.000 C 367.382 173.000,367.189 173.169,366.996 173.375 M383.609 174.958 C 383.566 175.027,385.043 175.064,386.891 175.041 C 393.158 174.961,393.765 174.904,388.718 174.869 C 385.951 174.849,383.651 174.890,383.609 174.958 M395.824 194.292 L 395.250 194.917 395.875 194.342 C 396.457 193.808,396.577 193.667,396.449 193.667 C 396.422 193.667,396.140 193.948,395.824 194.292 M384.792 194.624 C 385.456 194.655,386.544 194.655,387.208 194.624 C 387.873 194.592,387.329 194.566,386.000 194.566 C 384.671 194.566,384.127 194.592,384.792 194.624 M350.500 213.052 C 350.500 213.081,350.744 213.325,351.042 213.594 L 351.583 214.083 351.094 213.542 C 350.638 213.037,350.500 212.923,350.500 213.052 M352.000 214.385 C 352.000 214.414,352.244 214.658,352.542 214.927 L 353.083 215.417 352.594 214.875 C 352.138 214.370,352.000 214.257,352.000 214.385 M353.833 216.083 C 354.144 216.404,354.436 216.667,354.482 216.667 C 354.528 216.667,354.311 216.404,354.000 216.083 C 353.689 215.762,353.397 215.500,353.351 215.500 C 353.305 215.500,353.522 215.762,353.833 216.083 M355.000 217.052 C 355.000 217.081,355.244 217.325,355.542 217.594 L 356.083 218.083 355.594 217.542 C 355.138 217.037,355.000 216.923,355.000 217.052 M357.000 218.917 C 357.311 219.237,357.603 219.500,357.649 219.500 C 357.695 219.500,357.478 219.237,357.167 218.917 C 356.856 218.596,356.564 218.333,356.518 218.333 C 356.472 218.333,356.689 218.596,357.000 218.917 M358.417 220.167 C 358.775 220.533,359.105 220.833,359.151 220.833 C 359.197 220.833,358.941 220.533,358.583 220.167 C 358.225 219.800,357.895 219.500,357.849 219.500 C 357.803 219.500,358.059 219.800,358.417 220.167 M360.000 221.583 C 360.311 221.904,360.603 222.167,360.649 222.167 C 360.695 222.167,360.478 221.904,360.167 221.583 C 359.856 221.262,359.564 221.000,359.518 221.000 C 359.472 221.000,359.689 221.262,360.000 221.583 M362.250 223.545 C 362.983 224.235,363.615 224.770,363.653 224.734 C 363.691 224.697,363.691 224.645,363.653 224.617 C 363.615 224.590,362.983 224.055,362.250 223.428 L 360.917 222.289 362.250 223.545 M369.205 224.167 C 369.205 224.487,369.240 224.619,369.282 224.458 C 369.323 224.298,369.323 224.035,369.282 223.875 C 369.240 223.715,369.205 223.846,369.205 224.167 M364.369 225.419 C 364.710 225.775,365.016 226.033,365.049 225.992 C 365.082 225.950,364.803 225.659,364.429 225.344 L 363.750 224.771 364.369 225.419 M365.333 226.265 C 365.333 226.289,366.065 226.960,366.958 227.758 L 368.583 229.208 368.675 228.729 C 368.788 228.139,368.673 227.553,368.500 227.833 C 368.415 227.971,368.350 227.950,368.278 227.764 C 368.223 227.619,368.250 227.500,368.339 227.500 C 368.427 227.500,368.500 227.416,368.500 227.313 C 368.500 227.175,368.441 227.175,368.276 227.311 C 368.153 227.414,367.985 227.443,367.901 227.376 C 367.818 227.310,367.844 227.363,367.958 227.494 C 368.073 227.626,368.161 227.887,368.155 228.075 C 368.144 228.386,368.133 228.390,368.023 228.113 C 367.958 227.945,367.832 227.807,367.743 227.804 C 367.655 227.802,367.396 227.690,367.167 227.556 C 366.938 227.422,366.885 227.354,367.050 227.404 C 367.254 227.466,367.316 227.430,367.244 227.290 C 367.186 227.176,367.299 227.271,367.497 227.500 C 367.794 227.845,367.826 227.856,367.684 227.564 C 367.589 227.369,367.559 227.163,367.617 227.105 C 367.773 226.950,367.414 226.977,366.940 227.158 C 366.451 227.344,366.195 227.115,366.245 226.536 C 366.268 226.273,366.225 226.208,366.106 226.327 C 365.900 226.533,365.610 226.559,365.733 226.361 C 365.780 226.285,365.709 226.222,365.576 226.222 C 365.443 226.222,365.333 226.241,365.333 226.265 M368.609 226.638 C 368.380 226.891,368.374 226.944,368.575 226.944 C 368.709 226.944,368.784 226.888,368.742 226.820 C 368.699 226.751,368.759 226.661,368.874 226.620 C 368.989 226.579,369.039 226.497,368.985 226.438 C 368.931 226.380,368.762 226.469,368.609 226.638 " stroke="none" fill="#7c7c84" fill-rule="evenodd"></path><path id="path4" d="M395.208 174.958 C 396.102 174.988,397.565 174.988,398.458 174.958 C 399.352 174.928,398.621 174.903,396.833 174.903 C 395.046 174.903,394.315 174.928,395.208 174.958 M336.372 179.500 C 336.372 179.821,336.406 179.952,336.448 179.792 C 336.490 179.631,336.490 179.369,336.448 179.208 C 336.406 179.048,336.372 179.179,336.372 179.500 M335.872 183.833 C 335.872 184.154,335.906 184.285,335.948 184.125 C 335.990 183.965,335.990 183.702,335.948 183.542 C 335.906 183.381,335.872 183.512,335.872 183.833 M395.491 190.792 L 394.917 191.417 395.542 190.842 C 395.885 190.526,396.167 190.245,396.167 190.217 C 396.167 190.090,396.026 190.210,395.491 190.792 M377.542 194.789 C 377.977 194.824,378.690 194.824,379.125 194.789 C 379.560 194.755,379.204 194.727,378.333 194.727 C 377.462 194.727,377.106 194.755,377.542 194.789 M393.471 196.151 C 392.378 196.991,392.263 197.160,393.242 196.485 C 393.696 196.173,394.144 195.864,394.237 195.801 C 394.331 195.737,394.372 195.655,394.329 195.618 C 394.285 195.581,393.899 195.821,393.471 196.151 M334.917 205.167 C 335.275 205.533,335.605 205.833,335.651 205.833 C 335.697 205.833,335.441 205.533,335.083 205.167 C 334.725 204.800,334.395 204.500,334.349 204.500 C 334.303 204.500,334.559 204.800,334.917 205.167 M339.000 208.917 C 339.311 209.237,339.603 209.500,339.649 209.500 C 339.695 209.500,339.478 209.237,339.167 208.917 C 338.856 208.596,338.564 208.333,338.518 208.333 C 338.472 208.333,338.689 208.596,339.000 208.917 M344.705 210.000 C 344.705 210.321,344.740 210.452,344.782 210.292 C 344.823 210.131,344.823 209.869,344.782 209.708 C 344.740 209.548,344.705 209.679,344.705 210.000 M340.826 210.542 C 341.517 211.278,341.667 211.410,341.667 211.285 C 341.667 211.258,341.310 210.902,340.875 210.493 L 340.083 209.750 340.826 210.542 M342.667 212.219 C 342.667 212.248,342.910 212.491,343.208 212.760 L 343.750 213.250 343.260 212.708 C 342.804 212.203,342.667 212.090,342.667 212.219 M344.303 213.075 C 344.254 213.496,344.287 213.608,344.428 213.491 C 344.534 213.403,344.584 213.144,344.541 212.916 C 344.434 212.357,344.382 212.392,344.303 213.075 M350.667 218.083 C 350.978 218.404,351.270 218.667,351.315 218.667 C 351.361 218.667,351.144 218.404,350.833 218.083 C 350.522 217.762,350.230 217.500,350.185 217.500 C 350.139 217.500,350.356 217.762,350.667 218.083 M351.833 219.052 C 351.833 219.081,352.077 219.325,352.375 219.594 L 352.917 220.083 352.427 219.542 C 351.971 219.037,351.833 218.923,351.833 219.052 M353.667 220.750 C 353.978 221.071,354.270 221.333,354.315 221.333 C 354.361 221.333,354.144 221.071,353.833 220.750 C 353.522 220.429,353.230 220.167,353.185 220.167 C 353.139 220.167,353.356 220.429,353.667 220.750 M355.072 221.957 L 355.560 222.498 343.405 222.542 L 331.250 222.586 343.458 222.626 C 350.173 222.648,355.667 222.606,355.667 222.531 C 355.667 222.457,355.423 222.175,355.125 221.906 L 354.583 221.417 355.072 221.957 M390.500 222.306 C 390.500 222.451,387.856 222.510,379.958 222.540 L 369.417 222.581 379.907 222.625 C 389.819 222.667,391.011 222.622,390.614 222.225 C 390.551 222.162,390.500 222.199,390.500 222.306 " stroke="none" fill="#705952" fill-rule="evenodd"></path></g></svg>