<svg id="svg" xmlns="http://www.w3.org/2000/svg" xmlns:xlink="http://www.w3.org/1999/xlink" width="400" height="400" viewBox="0, 0, 400,400"><g id="svgg"><path id="path0" d="M382.706 167.795 C 375.855 168.701,370.618 172.335,367.941 178.040 C 367.733 178.485,364.677 184.840,361.152 192.162 C 357.626 199.484,354.019 206.980,353.137 208.821 L 351.532 212.168 352.158 212.750 C 352.502 213.070,353.570 214.027,354.530 214.877 C 355.490 215.727,357.506 217.518,359.009 218.855 C 363.352 222.721,366.184 225.118,366.677 225.344 C 366.928 225.459,367.169 225.669,367.214 225.809 C 367.317 226.134,367.481 226.136,367.654 225.812 C 367.728 225.673,368.456 220.284,369.270 213.837 C 371.216 198.437,371.343 197.529,371.656 196.801 C 372.048 195.890,373.291 194.810,374.743 194.117 L 375.925 193.553 378.414 193.460 C 379.782 193.408,382.442 193.361,384.323 193.355 C 389.045 193.339,389.880 193.110,393.033 190.971 C 393.820 190.438,394.713 189.745,395.018 189.433 L 395.573 188.865 388.698 188.865 C 380.797 188.865,381.271 188.930,380.841 187.782 C 379.563 184.367,380.138 178.837,382.181 174.892 C 382.832 173.636,382.178 173.730,390.918 173.628 C 395.126 173.579,398.590 173.518,398.615 173.493 C 398.850 173.264,396.949 171.095,395.852 170.340 C 393.191 168.509,386.743 167.261,382.706 167.795 M337.170 172.877 C 337.009 174.280,336.841 175.428,336.796 175.428 C 336.751 175.428,336.734 175.582,336.758 175.770 C 336.781 175.958,336.246 180.759,335.569 186.439 C 334.891 192.118,334.351 196.782,334.369 196.802 C 334.397 196.833,344.826 189.328,362.410 176.624 C 364.694 174.974,366.614 173.624,366.678 173.624 C 366.743 173.624,366.900 173.485,367.028 173.314 C 367.417 172.799,367.444 173.095,367.193 175.112 C 367.061 176.175,366.966 177.045,366.983 177.045 C 367.000 177.045,367.187 176.704,367.399 176.287 C 368.433 174.251,370.436 171.902,372.317 170.518 C 372.537 170.356,370.498 170.334,355.014 170.331 L 337.462 170.327 337.170 172.877 M366.352 177.818 C 366.105 178.106,365.211 179.491,364.364 180.897 C 359.648 188.728,344.480 213.308,344.379 213.281 C 344.314 213.264,344.261 213.336,344.261 213.440 C 344.261 213.545,341.881 211.445,338.971 208.775 C 336.061 206.104,333.638 203.919,333.585 203.919 C 333.512 203.919,331.295 222.070,331.317 222.487 C 331.320 222.538,336.862 222.594,343.633 222.612 C 350.404 222.629,355.905 222.609,355.857 222.567 C 353.169 220.190,349.744 217.148,349.586 216.998 C 349.387 216.808,349.392 216.667,349.666 214.619 L 349.958 212.442 351.764 208.699 C 352.758 206.641,356.438 198.999,359.942 191.717 C 363.446 184.434,366.447 178.210,366.611 177.885 C 366.978 177.158,366.928 177.145,366.352 177.818 M143.577 186.755 C 132.117 187.852,124.318 196.400,126.402 205.580 C 129.375 218.682,154.508 218.885,160.810 205.858 C 165.944 195.247,157.114 185.460,143.577 186.755 M3.110 187.182 C 3.110 187.214,2.411 193.386,1.555 200.899 C 0.700 208.411,0.000 214.683,0.000 214.837 L 0.000 215.117 5.972 215.117 C 9.257 215.117,11.943 215.075,11.943 215.023 C 11.940 214.823,12.954 205.831,13.009 205.569 L 13.068 205.291 17.385 205.258 L 21.703 205.226 22.105 201.742 C 22.326 199.826,22.510 198.188,22.513 198.103 C 22.518 197.981,21.578 197.947,18.209 197.947 L 13.899 197.947 13.983 197.045 C 14.029 196.549,14.100 195.933,14.141 195.677 L 14.215 195.210 19.114 195.210 C 21.808 195.210,24.017 195.196,24.022 195.179 C 24.027 195.162,24.241 193.342,24.497 191.135 L 24.962 187.123 14.036 187.123 C 8.027 187.123,3.110 187.149,3.110 187.182 M33.493 188.025 C 32.751 189.389,19.681 214.649,19.588 214.899 C 19.511 215.104,19.858 215.117,25.782 215.117 L 32.058 215.117 32.717 213.375 L 33.377 211.633 37.818 211.633 L 42.259 211.633 42.546 213.219 C 42.703 214.092,42.859 214.876,42.891 214.961 C 42.945 215.103,55.490 215.215,55.490 215.073 C 55.490 215.049,54.370 211.312,53.002 206.768 C 51.633 202.225,49.744 195.946,48.803 192.815 L 47.093 187.123 40.538 187.123 L 33.983 187.123 33.493 188.025 M55.792 195.071 L 60.563 203.020 59.895 208.789 C 59.528 211.961,59.227 214.683,59.225 214.837 L 59.222 215.117 65.002 215.117 L 70.782 215.117 70.849 214.712 C 70.919 214.295,72.162 203.371,72.162 203.175 C 72.162 203.115,72.928 202.124,73.865 200.973 C 74.802 199.822,77.638 196.333,80.167 193.219 C 82.696 190.106,84.850 187.460,84.953 187.341 C 85.130 187.134,84.809 187.123,78.433 187.126 L 71.726 187.129 70.091 189.832 C 69.191 191.319,68.252 192.941,68.005 193.437 C 67.758 193.933,67.482 194.339,67.393 194.339 C 67.294 194.339,66.693 192.927,65.869 190.762 L 64.508 187.185 57.764 187.153 L 51.021 187.121 55.792 195.071 M88.026 187.277 C 87.996 187.363,86.121 193.565,83.858 201.058 C 81.596 208.551,79.715 214.779,79.678 214.899 C 79.614 215.104,79.942 215.117,85.376 215.117 L 91.143 215.117 92.177 210.607 C 93.354 205.468,94.226 201.574,94.433 200.529 C 94.626 199.553,94.761 199.631,94.860 200.778 C 94.996 202.337,95.124 202.945,96.618 209.088 C 97.400 212.307,98.040 214.981,98.040 215.031 C 98.040 215.080,99.618 215.106,101.547 215.087 L 105.054 215.054 108.135 208.771 C 109.830 205.316,111.449 201.900,111.734 201.182 C 112.019 200.463,112.281 199.848,112.316 199.813 C 112.352 199.779,112.341 203.208,112.293 207.434 L 112.205 215.117 117.938 215.117 L 123.670 215.117 123.670 214.666 C 123.670 214.175,121.730 188.842,121.610 187.775 L 121.537 187.121 115.490 187.153 L 109.443 187.185 106.922 192.784 C 105.438 196.081,104.181 199.060,103.865 200.031 C 103.570 200.937,103.273 201.661,103.206 201.639 C 103.139 201.616,102.463 198.355,101.703 194.392 L 100.322 187.185 94.201 187.153 C 89.368 187.127,88.069 187.153,88.026 187.277 M166.787 187.403 C 166.754 187.557,166.053 193.673,165.229 200.995 C 164.406 208.317,163.702 214.490,163.664 214.712 L 163.597 215.117 169.267 215.117 C 173.692 215.117,174.950 215.082,174.992 214.961 C 175.553 213.361,176.302 202.472,175.966 200.793 C 175.765 199.791,176.580 201.025,180.579 207.781 L 184.921 215.117 190.567 215.117 C 194.974 215.117,196.224 215.083,196.263 214.961 C 196.291 214.876,196.991 208.815,197.818 201.493 C 198.645 194.171,199.355 187.942,199.395 187.650 L 199.469 187.120 193.766 187.153 L 188.064 187.185 187.584 191.229 C 187.071 195.550,186.954 198.312,187.164 201.151 C 187.229 202.024,187.224 202.551,187.150 202.551 C 187.085 202.551,185.051 199.080,182.630 194.838 L 178.227 187.125 172.537 187.124 L 166.848 187.123 166.787 187.403 M200.964 187.278 C 201.032 187.460,205.166 199.719,208.212 208.769 L 210.327 215.054 215.365 215.081 L 220.404 215.108 224.694 207.492 C 227.053 203.303,230.502 197.186,232.359 193.899 C 234.216 190.612,235.829 187.743,235.943 187.523 L 236.149 187.123 229.948 187.123 L 223.747 187.123 221.025 193.126 C 217.580 200.724,217.277 201.442,216.931 202.809 L 216.647 203.932 216.577 202.526 C 216.517 201.331,216.271 200.077,214.941 194.177 C 214.079 190.358,213.375 187.209,213.375 187.178 C 213.375 187.148,210.569 187.123,207.141 187.123 C 202.205 187.123,200.919 187.155,200.964 187.278 M237.885 187.253 C 237.885 187.324,237.634 189.578,237.328 192.260 C 237.022 194.943,236.379 200.610,235.899 204.852 C 235.419 209.095,234.970 213.009,234.901 213.550 C 234.831 214.091,234.774 214.665,234.774 214.825 L 234.774 215.117 240.679 215.117 L 246.583 215.117 246.653 214.712 C 246.692 214.490,247.393 208.373,248.212 201.120 C 249.030 193.866,249.731 187.750,249.770 187.527 L 249.840 187.123 243.863 187.123 C 239.795 187.123,237.885 187.164,237.885 187.253 M254.258 187.589 C 254.218 187.846,253.736 192.031,253.187 196.890 C 252.637 201.748,251.949 207.812,251.657 210.364 C 251.366 212.917,251.153 215.030,251.183 215.061 C 251.333 215.211,272.855 215.112,272.907 214.961 C 272.937 214.876,273.158 213.014,273.400 210.824 C 273.641 208.635,273.870 206.661,273.908 206.439 L 273.977 206.034 268.998 206.034 L 264.019 206.034 264.078 205.692 C 264.111 205.504,264.585 201.375,265.133 196.516 C 265.680 191.658,266.148 187.557,266.172 187.403 L 266.217 187.123 260.274 187.123 L 254.330 187.123 254.258 187.589 M278.320 187.316 C 278.320 187.423,277.621 193.642,276.765 201.137 C 275.910 208.632,275.210 214.844,275.210 214.941 C 275.210 215.091,276.791 215.117,286.096 215.117 C 292.084 215.117,296.983 215.086,296.983 215.049 C 296.983 215.012,297.207 213.020,297.481 210.622 C 297.754 208.224,297.978 206.211,297.978 206.148 C 297.978 206.081,295.959 206.034,293.064 206.034 C 288.533 206.034,288.149 206.018,288.149 205.824 C 288.149 205.569,290.110 188.248,290.213 187.589 L 290.286 187.123 284.303 187.123 C 278.974 187.123,278.320 187.144,278.320 187.316 M302.208 187.304 C 302.208 187.404,301.509 193.632,300.653 201.145 C 299.798 208.659,299.098 214.876,299.098 214.961 C 299.098 215.084,301.408 215.117,310.233 215.117 C 320.944 215.117,321.369 215.108,321.369 214.889 C 321.369 214.619,322.087 208.241,322.174 207.745 L 322.233 207.403 317.059 207.403 L 311.885 207.403 311.956 206.998 C 311.995 206.776,312.064 206.189,312.110 205.694 L 312.194 204.793 316.748 204.760 L 321.303 204.728 321.701 201.306 C 321.920 199.425,322.103 197.759,322.107 197.605 L 322.115 197.325 317.565 197.325 C 313.291 197.325,313.020 197.312,313.080 197.107 C 313.115 196.988,313.182 196.428,313.229 195.865 L 313.313 194.839 318.305 194.807 L 323.297 194.774 323.693 191.353 C 323.911 189.471,324.093 187.750,324.097 187.527 L 324.106 187.123 313.157 187.123 C 303.652 187.123,302.208 187.147,302.208 187.304 M146.477 196.142 C 149.383 196.899,150.874 199.612,149.925 202.419 C 148.037 208.008,138.644 208.027,138.137 202.443 C 137.764 198.324,142.145 195.014,146.477 196.142 M39.740 196.858 C 39.774 197.081,39.836 197.683,39.877 198.196 C 39.941 198.998,40.688 203.818,40.874 204.635 L 40.938 204.914 38.620 204.914 C 36.819 204.914,36.316 204.880,36.360 204.759 C 36.391 204.673,37.083 202.771,37.897 200.531 C 39.341 196.561,39.611 196.022,39.740 196.858 M392.597 196.835 C 389.895 198.680,388.670 198.921,381.649 198.986 L 376.050 199.038 375.179 199.387 C 373.883 199.906,372.006 201.576,372.006 202.210 C 372.006 202.471,369.505 222.028,369.437 222.300 L 369.367 222.579 380.005 222.611 L 390.642 222.644 390.723 221.649 C 391.313 214.378,392.808 197.400,392.890 197.045 C 392.950 196.788,392.992 196.579,392.984 196.579 C 392.977 196.580,392.802 196.695,392.597 196.835 " stroke="none" fill-rule="evenodd"></path></g></svg>