<svg id="svg" xmlns="http://www.w3.org/2000/svg"  width="400" height="400" viewBox="0, 0, 400,400" version="1.1"><g id="svgg"><path id="path0" d="M138.319 91.726 C 138.233 91.873,138.055 92.553,137.925 93.238 C 137.642 94.726,135.611 103.756,134.163 109.964 C 133.593 112.411,132.470 117.295,131.668 120.819 C 130.867 124.342,129.979 128.218,129.696 129.433 C 128.988 132.472,128.947 132.384,131.068 132.384 L 132.954 132.384 133.400 130.160 C 133.896 127.687,135.088 122.387,136.660 115.658 C 137.231 113.212,138.354 108.247,139.155 104.626 C 139.956 101.005,140.924 96.762,141.307 95.196 C 141.689 93.630,142.000 92.149,141.998 91.904 C 141.992 91.416,138.598 91.252,138.319 91.726 M142.754 96.530 C 140.824 105.068,139.854 109.275,138.958 112.989 C 137.676 118.300,135.545 127.715,135.211 129.537 C 134.687 132.401,134.678 132.384,136.626 132.384 L 138.377 132.384 138.967 129.804 C 139.291 128.385,139.847 125.863,140.203 124.199 C 140.894 120.969,141.889 116.610,143.251 110.854 C 143.714 108.897,144.429 105.774,144.839 103.915 C 145.249 102.055,145.907 99.093,146.300 97.331 C 146.694 95.569,147.150 93.528,147.314 92.794 L 147.611 91.459 145.756 91.459 L 143.901 91.459 142.754 96.530 M149.284 91.904 C 149.138 92.310,148.052 97.174,146.244 105.516 C 145.862 107.278,145.481 108.904,145.397 109.130 C 145.313 109.357,144.436 113.120,143.448 117.493 C 142.460 121.867,141.328 126.806,140.932 128.470 C 139.927 132.689,139.733 132.384,143.428 132.384 C 145.699 132.384,146.676 132.254,146.760 131.940 C 146.824 131.695,147.372 129.333,147.976 126.690 C 148.580 124.048,149.624 119.484,150.297 116.548 C 150.970 113.612,151.961 109.208,152.500 106.762 C 153.038 104.315,153.921 100.472,154.461 98.221 C 155.000 95.970,155.546 93.528,155.673 92.794 L 155.904 91.459 152.674 91.459 C 150.412 91.459,149.396 91.592,149.284 91.904 M157.159 94.039 C 156.197 97.979,153.037 111.783,152.820 112.989 C 152.715 113.577,152.227 115.738,151.735 117.794 C 149.733 126.163,148.801 130.131,148.577 131.228 L 148.342 132.384 152.601 132.384 L 156.860 132.384 157.626 129.093 C 158.047 127.282,158.775 124.119,159.244 122.064 C 159.713 120.009,160.578 116.246,161.167 113.701 C 161.755 111.157,162.497 107.874,162.816 106.406 C 163.135 104.938,163.689 102.456,164.046 100.890 C 164.404 99.324,164.966 96.842,165.295 95.374 C 165.624 93.906,165.971 92.424,166.067 92.082 C 166.225 91.514,165.868 91.459,162.014 91.459 L 157.789 91.459 157.159 94.039 M128.110 136.032 C 127.897 136.864,127.662 137.728,127.588 137.953 C 127.514 138.177,126.641 141.940,125.649 146.316 C 124.657 150.691,123.370 156.272,122.789 158.719 C 120.872 166.793,118.861 175.450,118.861 175.627 C 118.861 175.722,119.711 175.801,120.750 175.801 L 122.639 175.801 123.650 171.441 C 124.206 169.044,125.046 165.499,125.516 163.565 C 125.986 161.631,126.520 159.309,126.703 158.405 C 126.886 157.501,127.367 155.320,127.771 153.559 C 128.175 151.797,128.811 148.995,129.183 147.331 C 129.555 145.667,130.347 142.173,130.944 139.566 C 131.540 136.959,132.028 134.757,132.028 134.673 C 132.028 134.588,131.234 134.520,130.263 134.520 L 128.497 134.520 128.110 136.032 M133.514 135.854 C 133.337 136.588,132.522 140.151,131.702 143.772 C 129.373 154.058,128.609 157.381,127.076 163.879 C 125.539 170.391,124.555 174.923,124.555 175.487 C 124.555 175.686,125.352 175.792,126.403 175.730 L 128.251 175.623 128.663 173.843 C 128.890 172.865,129.241 171.263,129.442 170.285 C 129.643 169.306,130.395 166.023,131.114 162.989 C 131.832 159.956,133.137 154.190,134.012 150.178 C 134.888 146.165,136.001 141.246,136.486 139.246 C 137.674 134.339,137.708 134.520,135.601 134.520 C 133.855 134.520,133.832 134.534,133.514 135.854 M139.326 134.964 C 139.014 135.874,137.741 141.282,136.500 146.975 C 135.795 150.205,134.828 154.448,134.350 156.406 C 133.359 160.465,131.125 170.124,130.564 172.776 C 130.356 173.754,130.110 174.835,130.016 175.178 C 129.862 175.739,130.176 175.801,133.181 175.801 L 136.518 175.801 137.107 173.399 C 137.432 172.077,138.352 168.034,139.152 164.413 C 140.845 156.747,141.835 152.393,143.562 145.018 C 145.079 138.538,145.907 134.884,145.907 134.675 C 145.907 134.264,139.470 134.547,139.326 134.964 M147.357 135.854 C 147.161 136.588,146.824 138.069,146.609 139.146 C 146.393 140.222,145.752 143.025,145.184 145.374 C 144.013 150.212,142.676 156.023,141.656 160.700 C 140.401 166.457,138.497 174.544,138.248 175.178 C 138.022 175.751,138.360 175.801,142.489 175.801 C 146.757 175.801,146.975 175.766,146.975 175.080 C 146.975 174.683,147.449 172.401,148.029 170.008 C 148.963 166.154,150.584 159.118,152.681 149.822 C 153.057 148.158,153.928 144.381,154.618 141.427 C 156.390 133.840,156.668 134.520,151.793 134.520 L 147.714 134.520 147.357 135.854 M117.777 180.338 C 117.544 181.464,116.977 183.906,116.516 185.765 C 115.778 188.750,114.944 192.373,112.954 201.246 C 112.337 203.992,111.205 208.823,109.808 214.669 C 108.646 219.534,108.576 219.217,110.814 219.217 L 112.732 219.217 112.963 217.883 C 113.090 217.149,113.919 213.425,114.805 209.609 C 115.690 205.792,116.735 201.228,117.126 199.466 C 117.516 197.705,118.297 194.262,118.861 191.815 C 119.424 189.368,120.309 185.525,120.827 183.274 C 121.346 181.023,121.831 178.981,121.906 178.737 C 122.003 178.419,121.493 178.292,120.121 178.292 L 118.201 178.292 117.777 180.338 M123.378 180.160 C 122.529 183.240,120.910 190.146,118.354 201.601 C 117.830 203.950,116.844 208.274,116.162 211.210 C 115.481 214.146,114.786 217.149,114.617 217.883 L 114.311 219.217 116.189 219.217 L 118.068 219.217 118.982 215.391 C 120.747 208.005,122.462 200.589,122.779 198.968 C 122.956 198.068,123.676 194.849,124.380 191.815 C 125.850 185.477,127.402 178.598,127.402 178.416 C 127.402 178.348,126.613 178.292,125.648 178.292 L 123.894 178.292 123.378 180.160 M128.893 179.626 C 128.720 180.360,128.066 183.203,127.441 185.943 C 126.816 188.683,126.075 191.886,125.794 193.060 C 125.513 194.235,124.952 196.717,124.548 198.577 C 123.733 202.319,122.102 209.323,120.786 214.732 C 119.602 219.599,119.394 219.217,123.221 219.215 L 126.512 219.214 127.875 213.077 C 128.625 209.701,129.688 205.018,130.238 202.669 C 131.917 195.497,133.017 190.698,133.624 187.900 C 133.942 186.432,134.514 183.916,134.895 182.308 C 135.913 178.009,136.089 178.292,132.398 178.292 L 129.209 178.292 128.893 179.626 M136.330 183.541 C 135.684 186.428,134.696 190.712,134.135 193.060 C 133.574 195.409,132.462 200.214,131.663 203.737 C 130.865 207.260,129.819 211.779,129.340 213.779 C 128.862 215.779,128.470 217.821,128.470 218.317 L 128.470 219.217 132.538 219.217 C 136.106 219.217,136.631 219.140,136.805 218.592 C 136.914 218.248,137.306 216.607,137.676 214.944 C 139.555 206.491,140.984 200.211,143.422 189.680 C 144.900 183.297,145.907 178.772,145.907 178.515 C 145.907 178.392,144.017 178.292,141.706 178.292 L 137.505 178.292 136.330 183.541 M91.103 284.342 L 91.103 286.121 97.687 286.121 L 104.270 286.121 104.270 297.331 L 104.270 308.541 106.406 308.541 L 108.541 308.541 108.541 297.331 L 108.541 286.121 115.125 286.121 L 121.708 286.121 121.708 284.342 L 121.708 282.562 106.406 282.562 L 91.103 282.562 91.103 284.342 M126.599 282.772 C 126.454 282.918,126.335 288.775,126.335 295.789 L 126.335 308.541 128.470 308.541 L 130.605 308.541 130.605 303.559 L 130.605 298.577 139.982 298.577 C 152.678 298.577,152.289 298.388,152.587 304.688 L 152.770 308.541 154.677 308.541 L 156.584 308.541 156.564 304.893 C 156.540 300.541,156.098 299.050,154.515 297.987 L 153.337 297.194 154.405 296.642 C 156.313 295.655,156.584 294.902,156.582 290.579 C 156.580 282.950,156.214 282.782,139.321 282.624 C 132.470 282.560,126.744 282.627,126.599 282.772 M169.046 295.040 C 164.854 301.903,161.296 307.598,161.139 307.695 C 160.250 308.245,161.104 308.562,163.217 308.468 L 165.580 308.363 167.096 305.872 L 168.611 303.381 178.933 303.286 L 189.255 303.192 190.802 305.862 L 192.349 308.532 194.751 308.537 C 196.813 308.540,197.835 308.170,196.866 307.770 C 196.707 307.705,193.144 302.006,188.947 295.107 L 181.317 282.563 178.992 282.562 L 176.666 282.562 169.046 295.040 M202.135 295.552 L 202.135 308.541 204.093 308.541 L 206.050 308.541 206.050 295.552 L 206.050 282.562 204.093 282.562 L 202.135 282.562 202.135 295.552 M214.235 295.552 L 214.235 308.541 226.335 308.541 L 238.434 308.541 238.434 306.940 L 238.434 305.338 228.292 305.338 L 218.149 305.338 218.149 293.950 L 218.149 282.562 216.192 282.562 L 214.235 282.562 214.235 295.552 M243.060 295.552 L 243.060 308.541 256.406 308.541 L 269.751 308.541 269.751 306.940 L 269.751 305.338 258.541 305.338 L 247.331 305.338 247.331 301.157 L 247.331 296.975 257.918 296.975 L 268.505 296.975 268.614 295.285 L 268.722 293.594 258.027 293.594 L 247.331 293.594 247.331 289.858 L 247.331 286.121 258.363 286.121 L 269.395 286.121 269.395 284.342 L 269.395 282.562 256.228 282.562 L 243.060 282.562 243.060 295.552 M275.801 295.527 L 275.801 308.541 277.758 308.541 L 279.715 308.541 279.715 303.559 L 279.715 298.577 289.157 298.577 C 301.959 298.577,301.779 298.485,301.779 305.005 L 301.779 308.541 303.766 308.541 L 305.752 308.541 305.634 304.120 C 305.509 299.421,305.068 298.290,303.066 297.533 C 302.483 297.313,302.568 297.178,303.706 296.506 C 305.645 295.363,306.174 293.794,305.966 289.807 C 305.615 283.058,304.925 282.777,288.345 282.627 L 275.801 282.513 275.801 295.527 M151.093 286.691 C 152.494 287.355,152.851 288.550,152.590 291.699 C 152.299 295.206,151.683 295.374,139.096 295.374 L 130.605 295.374 130.605 290.747 L 130.605 286.121 140.249 286.121 C 148.355 286.121,150.084 286.212,151.093 286.691 M299.954 286.514 C 301.466 287.041,301.779 287.757,301.779 290.685 C 301.779 295.174,301.320 295.336,288.523 295.358 L 279.715 295.374 279.715 290.747 L 279.715 286.121 289.271 286.121 C 295.329 286.121,299.239 286.265,299.954 286.514 M183.170 293.161 L 187.159 299.822 179.114 299.918 C 174.690 299.971,171.009 299.953,170.936 299.880 C 170.862 299.806,172.353 297.201,174.249 294.090 C 176.145 290.979,177.950 287.995,178.261 287.458 C 179.039 286.112,178.745 285.771,183.170 293.161 " stroke="none" fill-rule="evenodd"></path><path id="path1" d="M167.457 95.463 C 166.934 97.665,166.365 100.107,166.192 100.890 C 165.142 105.644,164.233 109.592,163.323 113.352 C 162.753 115.705,162.140 118.347,161.961 119.224 C 161.782 120.101,161.059 123.334,160.355 126.408 C 159.651 129.482,159.075 132.085,159.075 132.191 C 159.075 132.644,251.621 132.393,251.746 131.940 C 251.813 131.695,252.378 129.253,253.002 126.512 C 253.626 123.772,254.355 120.649,254.622 119.573 C 254.888 118.496,255.523 115.694,256.033 113.345 C 257.063 108.597,257.753 105.565,259.600 97.655 C 260.290 94.702,260.854 92.099,260.854 91.872 C 260.854 91.561,249.471 91.459,214.631 91.459 L 168.409 91.459 167.457 95.463 M158.214 134.964 C 158.059 135.508,156.014 144.416,154.273 152.135 C 152.017 162.134,149.247 174.002,148.894 175.178 C 148.716 175.768,150.447 175.801,181.780 175.801 L 214.853 175.801 215.054 174.644 C 215.344 172.970,216.845 166.152,218.324 159.786 C 219.030 156.753,220.323 151.068,221.200 147.153 C 222.076 143.238,223.091 138.794,223.455 137.278 L 224.118 134.520 191.229 134.520 C 165.223 134.520,158.314 134.613,158.214 134.964 M147.202 182.651 C 146.650 185.049,145.743 188.932,145.185 191.281 C 144.627 193.630,143.593 198.114,142.886 201.246 C 142.180 204.377,141.357 207.980,141.056 209.253 C 140.756 210.525,140.201 213.007,139.823 214.769 C 139.445 216.530,139.048 218.252,138.939 218.594 C 138.753 219.182,139.794 219.217,157.436 219.217 L 176.129 219.217 176.480 217.883 C 176.674 217.149,177.073 215.507,177.368 214.235 C 179.498 205.053,180.830 199.232,181.645 195.552 C 182.164 193.203,182.917 189.920,183.317 188.256 C 184.192 184.616,185.409 178.989,185.409 178.584 C 185.409 178.423,177.038 178.292,166.806 178.292 L 148.204 178.292 147.202 182.651 M59.609 227.034 C 53.348 228.020,48.754 231.449,47.865 235.799 C 46.082 244.533,46.770 259.976,49.114 263.822 C 52.531 269.428,56.480 270.380,76.335 270.389 C 103.452 270.400,105.694 268.727,105.694 248.485 C 105.694 233.666,103.930 229.893,95.907 227.552 C 93.566 226.869,63.392 226.438,59.609 227.034 M0.000 248.396 L 0.000 269.751 6.584 269.751 L 13.167 269.751 13.167 262.633 L 13.167 255.516 27.936 255.516 L 42.705 255.516 42.705 250.356 L 42.705 245.196 27.936 245.196 L 13.167 245.196 13.167 241.459 L 13.167 237.722 28.835 237.722 L 44.503 237.722 44.405 232.473 L 44.306 227.224 22.153 227.133 L 0.000 227.041 0.000 248.396 M109.253 248.399 L 109.253 269.751 116.010 269.751 L 122.768 269.751 122.861 254.767 L 122.954 239.782 129.867 248.450 C 133.669 253.217,139.034 259.953,141.789 263.419 L 146.797 269.720 157.028 269.735 L 167.260 269.751 167.260 248.399 L 167.260 227.046 160.502 227.046 L 153.744 227.046 153.652 241.934 L 153.559 256.822 148.754 250.787 C 146.112 247.467,143.282 243.930,142.465 242.927 C 141.648 241.924,138.470 237.940,135.403 234.075 L 129.825 227.046 119.539 227.046 L 109.253 227.046 109.253 248.399 M170.187 232.649 L 170.285 238.256 179.271 238.256 L 188.257 238.256 188.256 254.004 L 188.256 269.751 195.203 269.751 L 202.149 269.751 202.128 254.075 L 202.106 238.399 211.107 238.328 L 220.107 238.256 220.107 232.740 L 220.107 227.224 195.098 227.133 L 170.089 227.041 170.187 232.649 M227.556 232.117 C 226.029 234.907,224.223 238.230,223.543 239.502 C 222.863 240.774,220.464 245.178,218.211 249.288 C 215.959 253.399,213.110 258.643,211.880 260.942 C 210.650 263.242,209.062 266.164,208.350 267.437 L 207.056 269.751 214.666 269.751 L 222.277 269.751 224.217 266.020 L 226.157 262.289 239.027 262.283 L 251.897 262.278 253.825 265.925 L 255.754 269.573 263.286 269.669 C 270.909 269.766,271.589 269.655,270.504 268.488 C 270.331 268.302,269.233 266.388,268.063 264.235 C 266.893 262.082,265.567 259.680,265.115 258.897 C 264.282 257.453,260.836 251.220,255.867 242.171 C 254.362 239.431,251.873 234.907,250.334 232.117 L 247.537 227.046 238.935 227.046 L 230.333 227.046 227.556 232.117 M273.310 248.399 L 273.310 269.751 280.071 269.751 L 286.833 269.751 286.833 248.399 L 286.833 227.046 280.071 227.046 L 273.310 227.046 273.310 248.399 M291.103 248.399 L 291.103 269.751 297.861 269.751 L 304.619 269.751 304.711 254.949 L 304.804 240.148 311.581 248.633 C 315.308 253.299,320.592 259.951,323.324 263.414 L 328.292 269.710 338.701 269.730 L 349.110 269.751 349.110 248.391 L 349.110 227.031 342.260 227.128 L 335.409 227.224 335.409 242.266 C 335.409 256.368,335.372 257.257,334.818 256.501 C 334.494 256.057,329.086 249.248,322.802 241.370 L 311.376 227.046 301.239 227.046 L 291.103 227.046 291.103 248.399 M352.313 248.399 L 352.313 269.751 376.157 269.751 L 400.000 269.751 400.000 264.413 L 400.000 259.075 383.007 259.075 L 366.014 259.075 366.014 256.050 L 366.014 253.025 381.762 253.025 L 397.509 253.025 397.509 248.221 L 397.509 243.416 381.877 243.416 L 366.244 243.416 366.129 240.391 L 366.014 237.365 382.651 237.366 L 399.288 237.367 399.288 232.206 L 399.288 227.046 375.801 227.046 L 352.313 227.046 352.313 248.399 M87.453 238.618 C 90.981 239.665,92.093 242.728,91.718 250.356 C 91.307 258.708,91.321 258.701,76.335 258.710 C 60.890 258.721,61.388 259.050,61.388 248.817 C 61.388 238.140,61.341 238.174,76.359 238.115 C 83.696 238.086,86.016 238.191,87.453 238.618 M241.865 243.521 C 242.769 245.323,244.220 248.053,245.090 249.589 C 245.959 251.124,246.603 252.448,246.519 252.532 C 246.436 252.615,242.988 252.640,238.858 252.587 L 231.349 252.491 235.119 245.271 L 238.888 238.051 239.555 239.148 C 239.922 239.751,240.961 241.719,241.865 243.521 " stroke="none" fill-rule="evenodd"></path></g></svg>