<?xml version="1.0" encoding="UTF-8" standalone="no"?>
<svg
   xmlns="http://www.w3.org/2000/svg"
   version="1.1"
   viewBox="0, 0, 400,400"
   height="400"
   width="400"
   id="svg">
  <g
     id="svgg">
    <g
       transform="matrix(2.5519297,0,0,2.5519297,-271.93529,-196.39865)"
       id="g14">
      <path
         id="path0"
         d="m 138.319,91.726 c -0.086,0.147 -0.264,0.827 -0.394,1.512 -0.283,1.488 -2.314,10.518 -3.762,16.726 -0.57,2.447 -1.693,7.331 -2.495,10.855 -0.801,3.523 -1.689,7.399 -1.972,8.614 -0.708,3.039 -0.749,2.951 1.372,2.951 h 1.886 l 0.446,-2.224 c 0.496,-2.473 1.688,-7.773 3.26,-14.502 0.571,-2.446 1.694,-7.411 2.495,-11.032 0.801,-3.621 1.769,-7.864 2.152,-9.43 0.382,-1.566 0.693,-3.047 0.691,-3.292 -0.006,-0.488 -3.4,-0.652 -3.679,-0.178 m 4.435,4.804 c -1.93,8.538 -2.9,12.745 -3.796,16.459 -1.282,5.311 -3.413,14.726 -3.747,16.548 -0.524,2.864 -0.533,2.847 1.415,2.847 h 1.751 l 0.59,-2.58 c 0.324,-1.419 0.88,-3.941 1.236,-5.605 0.691,-3.23 1.686,-7.589 3.048,-13.345 0.463,-1.957 1.178,-5.08 1.588,-6.939 0.41,-1.86 1.068,-4.822 1.461,-6.584 0.394,-1.762 0.85,-3.803 1.014,-4.537 l 0.297,-1.335 h -1.855 -1.855 l -1.147,5.071 m 6.53,-4.626 c -0.146,0.406 -1.232,5.27 -3.04,13.612 -0.382,1.762 -0.763,3.388 -0.847,3.614 -0.084,0.227 -0.961,3.99 -1.949,8.363 -0.988,4.374 -2.12,9.313 -2.516,10.977 -1.005,4.219 -1.199,3.914 2.496,3.914 2.271,0 3.248,-0.13 3.332,-0.444 0.064,-0.245 0.612,-2.607 1.216,-5.25 0.604,-2.642 1.648,-7.206 2.321,-10.142 0.673,-2.936 1.664,-7.34 2.203,-9.786 0.538,-2.447 1.421,-6.29 1.961,-8.541 0.539,-2.251 1.085,-4.693 1.212,-5.427 l 0.231,-1.335 h -3.23 c -2.262,0 -3.278,0.133 -3.39,0.445 m 7.875,2.135 c -0.962,3.94 -4.122,17.744 -4.339,18.95 -0.105,0.588 -0.593,2.749 -1.085,4.805 -2.002,8.369 -2.934,12.337 -3.158,13.434 l -0.235,1.156 h 4.259 4.259 l 0.766,-3.291 c 0.421,-1.811 1.149,-4.974 1.618,-7.029 0.469,-2.055 1.334,-5.818 1.923,-8.363 0.588,-2.544 1.33,-5.827 1.649,-7.295 0.319,-1.468 0.873,-3.95 1.23,-5.516 0.358,-1.566 0.92,-4.048 1.249,-5.516 0.329,-1.468 0.676,-2.95 0.772,-3.292 0.158,-0.568 -0.199,-0.623 -4.053,-0.623 h -4.225 l -0.63,2.58 m -29.049,41.993 c -0.213,0.832 -0.448,1.696 -0.522,1.921 -0.074,0.224 -0.947,3.987 -1.939,8.363 -0.992,4.375 -2.279,9.956 -2.86,12.403 -1.917,8.074 -3.928,16.731 -3.928,16.908 0,0.095 0.85,0.174 1.889,0.174 h 1.889 l 1.011,-4.36 c 0.556,-2.397 1.396,-5.942 1.866,-7.876 0.47,-1.934 1.004,-4.256 1.187,-5.16 0.183,-0.904 0.664,-3.085 1.068,-4.846 0.404,-1.762 1.04,-4.564 1.412,-6.228 0.372,-1.664 1.164,-5.158 1.761,-7.765 0.596,-2.607 1.084,-4.809 1.084,-4.893 0,-0.085 -0.794,-0.153 -1.765,-0.153 h -1.766 l -0.387,1.512 m 5.404,-0.178 c -0.177,0.734 -0.992,4.297 -1.812,7.918 -2.329,10.286 -3.093,13.609 -4.626,20.107 -1.537,6.512 -2.521,11.044 -2.521,11.608 0,0.199 0.797,0.305 1.848,0.243 l 1.848,-0.107 0.412,-1.78 c 0.227,-0.978 0.578,-2.58 0.779,-3.558 0.201,-0.979 0.953,-4.262 1.672,-7.296 0.718,-3.033 2.023,-8.799 2.898,-12.811 0.876,-4.013 1.989,-8.932 2.474,-10.932 1.188,-4.907 1.222,-4.726 -0.885,-4.726 -1.746,0 -1.769,0.014 -2.087,1.334 m 5.812,-0.89 c -0.312,0.91 -1.585,6.318 -2.826,12.011 -0.705,3.23 -1.672,7.473 -2.15,9.431 -0.991,4.059 -3.225,13.718 -3.786,16.37 -0.208,0.978 -0.454,2.059 -0.548,2.402 -0.154,0.561 0.16,0.623 3.165,0.623 h 3.337 l 0.589,-2.402 c 0.325,-1.322 1.245,-5.365 2.045,-8.986 1.693,-7.666 2.683,-12.02 4.41,-19.395 1.517,-6.48 2.345,-10.134 2.345,-10.343 0,-0.411 -6.437,-0.128 -6.581,0.289 m 8.031,0.89 c -0.196,0.734 -0.533,2.215 -0.748,3.292 -0.216,1.076 -0.857,3.879 -1.425,6.228 -1.171,4.838 -2.508,10.649 -3.528,15.326 -1.255,5.757 -3.159,13.844 -3.408,14.478 -0.226,0.573 0.112,0.623 4.241,0.623 4.268,0 4.486,-0.035 4.486,-0.721 0,-0.397 0.474,-2.679 1.054,-5.072 0.934,-3.854 2.555,-10.89 4.652,-20.186 0.376,-1.664 1.247,-5.441 1.937,-8.395 1.772,-7.587 2.05,-6.907 -2.825,-6.907 h -4.079 l -0.357,1.334 m -29.58,44.484 c -0.233,1.126 -0.8,3.568 -1.261,5.427 -0.738,2.985 -1.572,6.608 -3.562,15.481 -0.617,2.746 -1.749,7.577 -3.146,13.423 -1.162,4.865 -1.232,4.548 1.006,4.548 h 1.918 l 0.231,-1.334 c 0.127,-0.734 0.956,-4.458 1.842,-8.274 0.885,-3.817 1.93,-8.381 2.321,-10.143 0.39,-1.761 1.171,-5.204 1.735,-7.651 0.563,-2.447 1.448,-6.29 1.966,-8.541 0.519,-2.251 1.004,-4.293 1.079,-4.537 0.097,-0.318 -0.413,-0.445 -1.785,-0.445 h -1.92 l -0.424,2.046 m 5.601,-0.178 c -0.849,3.08 -2.468,9.986 -5.024,21.441 -0.524,2.349 -1.51,6.673 -2.192,9.609 -0.681,2.936 -1.376,5.939 -1.545,6.673 l -0.306,1.334 h 1.878 1.879 l 0.914,-3.826 c 1.765,-7.386 3.48,-14.802 3.797,-16.423 0.177,-0.9 0.897,-4.119 1.601,-7.153 1.47,-6.338 3.022,-13.217 3.022,-13.399 0,-0.068 -0.789,-0.124 -1.754,-0.124 h -1.754 l -0.516,1.868 m 5.515,-0.534 c -0.173,0.734 -0.827,3.577 -1.452,6.317 -0.625,2.74 -1.366,5.943 -1.647,7.117 -0.281,1.175 -0.842,3.657 -1.246,5.517 -0.815,3.742 -2.446,10.746 -3.762,16.155 -1.184,4.867 -1.392,4.485 2.435,4.483 l 3.291,-0.001 1.363,-6.137 c 0.75,-3.376 1.813,-8.059 2.363,-10.408 1.679,-7.172 2.779,-11.971 3.386,-14.769 0.318,-1.468 0.89,-3.984 1.271,-5.592 1.018,-4.299 1.194,-4.016 -2.497,-4.016 h -3.189 l -0.316,1.334 m 7.437,3.915 c -0.646,2.887 -1.634,7.171 -2.195,9.519 -0.561,2.349 -1.673,7.154 -2.472,10.677 -0.798,3.523 -1.844,8.042 -2.323,10.042 -0.478,2 -0.87,4.042 -0.87,4.538 v 0.9 h 4.068 c 3.568,0 4.093,-0.077 4.267,-0.625 0.109,-0.344 0.501,-1.985 0.871,-3.648 1.879,-8.453 3.308,-14.733 5.746,-25.264 1.478,-6.383 2.485,-10.908 2.485,-11.165 0,-0.123 -1.89,-0.223 -4.201,-0.223 h -4.201 l -1.175,5.249"
         style="fill-rule:evenodd;stroke:none" />
      <path
         id="path1"
         d="m 167.457,95.463 c -0.523,2.202 -1.092,4.644 -1.265,5.427 -1.05,4.754 -1.959,8.702 -2.869,12.462 -0.57,2.353 -1.183,4.995 -1.362,5.872 -0.179,0.877 -0.902,4.11 -1.606,7.184 -0.704,3.074 -1.28,5.677 -1.28,5.783 0,0.453 92.546,0.202 92.671,-0.251 0.067,-0.245 0.632,-2.687 1.256,-5.428 0.624,-2.74 1.353,-5.863 1.62,-6.939 0.266,-1.077 0.901,-3.879 1.411,-6.228 1.03,-4.748 1.72,-7.78 3.567,-15.69 0.69,-2.953 1.254,-5.556 1.254,-5.783 0,-0.311 -11.383,-0.413 -46.223,-0.413 h -46.222 l -0.952,4.004 m -9.243,39.501 c -0.155,0.544 -2.2,9.452 -3.941,17.171 -2.256,9.999 -5.026,21.867 -5.379,23.043 -0.178,0.59 1.553,0.623 32.886,0.623 h 33.073 l 0.201,-1.157 c 0.29,-1.674 1.791,-8.492 3.27,-14.858 0.706,-3.033 1.999,-8.718 2.876,-12.633 0.876,-3.915 1.891,-8.359 2.255,-9.875 l 0.663,-2.758 h -32.889 c -26.006,0 -32.915,0.093 -33.015,0.444 m -11.012,47.687 c -0.552,2.398 -1.459,6.281 -2.017,8.63 -0.558,2.349 -1.592,6.833 -2.299,9.965 -0.706,3.131 -1.529,6.734 -1.83,8.007 -0.3,1.272 -0.855,3.754 -1.233,5.516 -0.378,1.761 -0.775,3.483 -0.884,3.825 -0.186,0.588 0.855,0.623 18.497,0.623 h 18.693 l 0.351,-1.334 c 0.194,-0.734 0.593,-2.376 0.888,-3.648 2.13,-9.182 3.462,-15.003 4.277,-18.683 0.519,-2.349 1.272,-5.632 1.672,-7.296 0.875,-3.64 2.092,-9.267 2.092,-9.672 0,-0.161 -8.371,-0.292 -18.603,-0.292 h -18.602 l -1.002,4.359"
         style="fill-rule:evenodd;stroke:none" />
    </g>
  </g>
</svg>
