<svg id="svg" version="1.1" xmlns="http://www.w3.org/2000/svg"  width="400" height="400" viewBox="0, 0, 400,400"><g id="svgg"><path id="path0" d="M146.358 145.699 C 146.940 145.815,148.669 146.108,150.199 146.348 C 153.235 146.827,154.037 146.975,163.046 148.724 C 184.574 152.903,202.468 158.325,217.748 165.300 C 223.498 167.924,231.441 172.400,235.380 175.234 C 235.917 175.621,235.931 175.581,236.264 172.780 C 236.450 171.215,236.648 169.785,236.704 169.603 C 236.804 169.274,256.142 169.078,256.466 169.402 C 256.581 169.517,255.396 178.049,253.124 193.474 C 252.484 197.819,252.356 199.958,252.853 198.013 C 253.213 196.603,254.223 194.753,260.618 183.785 C 261.931 181.533,263.283 179.207,263.622 178.617 C 263.961 178.026,265.311 175.682,266.622 173.407 L 269.005 169.272 279.917 169.272 C 285.919 169.272,290.883 169.361,290.949 169.470 C 291.014 169.579,288.846 173.036,286.130 177.150 C 272.742 197.435,269.795 201.962,269.726 202.355 C 269.684 202.590,270.142 203.914,270.744 205.298 C 271.346 206.682,274.400 213.894,277.532 221.325 C 280.664 228.755,283.321 235.003,283.437 235.210 C 283.700 235.680,283.758 235.299,285.427 222.119 C 285.796 219.205,286.275 215.510,286.492 213.907 C 286.875 211.074,287.315 207.692,288.476 198.675 C 288.786 196.272,289.262 192.576,289.534 190.464 C 289.807 188.351,290.290 184.596,290.608 182.119 C 290.927 179.642,291.441 175.768,291.752 173.510 L 292.318 169.404 310.993 169.404 L 329.669 169.404 329.632 170.331 C 329.598 171.194,329.261 173.925,327.946 183.974 C 327.660 186.159,327.424 187.977,327.422 188.013 C 327.419 188.050,323.605 188.079,318.945 188.079 L 310.474 188.079 310.352 188.675 C 310.176 189.534,309.669 193.329,309.669 193.786 C 309.669 194.115,310.776 194.172,317.203 194.172 C 322.302 194.172,324.794 194.264,324.913 194.458 C 325.010 194.615,324.832 196.671,324.516 199.027 C 324.200 201.383,323.680 205.278,323.361 207.682 L 322.779 212.053 315.036 212.123 L 307.293 212.193 307.173 212.785 C 307.107 213.111,306.982 214.093,306.895 214.967 C 306.808 215.841,306.667 217.003,306.580 217.550 L 306.422 218.543 315.198 218.543 C 322.042 218.543,323.973 218.616,323.973 218.874 C 323.972 219.226,322.323 231.992,321.881 235.072 C 321.737 236.076,321.516 237.000,321.391 237.126 C 321.266 237.251,307.582 237.323,290.983 237.286 L 260.802 237.219 260.463 236.511 C 260.276 236.122,258.467 230.936,256.442 224.988 C 254.416 219.039,252.452 213.310,252.075 212.257 C 251.699 211.203,251.383 210.011,251.373 209.608 C 251.332 207.941,250.878 210.033,250.468 213.775 C 249.023 226.973,247.907 236.734,247.811 237.020 C 247.724 237.277,245.493 237.351,237.851 237.351 L 228.004 237.351 228.164 235.828 C 228.251 234.990,228.404 233.619,228.503 232.780 L 228.683 231.255 226.146 232.692 C 214.812 239.110,196.272 245.856,177.748 250.302 C 171.673 251.760,169.949 252.151,167.815 252.557 C 165.092 253.074,160.475 254.042,160.132 254.166 C 159.987 254.219,213.897 254.272,279.934 254.284 L 400.000 254.305 400.000 199.868 L 400.000 145.430 272.649 145.459 C 202.606 145.474,145.775 145.582,146.358 145.699 M361.722 169.563 C 374.103 171.066,379.944 179.738,377.903 193.584 C 376.585 202.530,372.902 207.601,365.762 210.307 C 364.814 210.666,364.826 210.727,366.199 212.562 C 366.966 213.588,368.068 215.806,369.421 219.047 C 374.238 230.590,375.943 234.638,376.448 235.733 C 377.220 237.410,377.568 237.363,365.039 237.288 L 353.554 237.219 353.351 236.556 C 353.239 236.192,352.357 233.033,351.390 229.536 C 348.721 219.889,348.419 218.804,347.925 217.086 L 347.468 215.497 347.254 216.462 C 347.136 216.992,346.494 221.761,345.827 227.058 C 345.161 232.355,344.564 236.838,344.501 237.020 C 344.373 237.392,324.893 237.522,324.690 237.152 C 324.578 236.948,324.821 234.951,326.453 222.649 C 326.975 218.715,327.706 213.053,328.077 210.066 C 328.448 207.079,328.990 202.848,329.281 200.662 C 329.573 198.477,329.928 195.795,330.071 194.702 C 330.213 193.609,330.566 190.927,330.854 188.742 C 331.142 186.556,331.802 181.430,332.320 177.351 C 332.838 173.272,333.314 169.785,333.378 169.603 C 333.530 169.166,358.172 169.131,361.722 169.563 M350.876 188.378 C 350.806 188.578,350.505 190.709,350.206 193.113 C 349.907 195.517,349.591 197.871,349.504 198.344 L 349.345 199.205 351.295 199.194 C 356.594 199.162,359.735 194.400,357.444 189.872 C 356.736 188.475,351.273 187.232,350.876 188.378 " stroke="none" fill="#d32c33" fill-rule="evenodd"></path><path id="path1" d="M0.000 199.868 L 0.000 254.305 79.708 254.305 L 159.415 254.305 162.555 253.632 C 164.282 253.262,166.649 252.778,167.815 252.557 C 175.964 251.008,189.895 247.272,199.470 244.067 C 211.618 240.002,228.874 232.213,228.874 230.795 C 228.874 230.595,229.238 227.667,229.683 224.288 C 230.128 220.910,230.959 214.510,231.529 210.066 C 232.099 205.623,232.748 200.616,232.971 198.940 C 233.194 197.265,233.915 191.662,234.574 186.490 C 235.232 181.318,235.833 176.779,235.909 176.404 C 236.069 175.621,235.300 175.020,229.934 171.734 C 216.407 163.449,193.606 155.114,171.720 150.452 C 167.881 149.634,158.735 147.815,157.219 147.567 C 154.898 147.187,147.735 145.964,146.247 145.692 C 145.325 145.524,118.961 145.430,72.406 145.430 L 0.000 145.430 0.000 199.868 M120.736 168.866 C 150.983 175.303,147.315 226.662,115.894 236.652 C 96.042 242.964,79.478 230.830,79.360 209.890 C 79.348 207.680,79.322 205.892,79.304 205.916 C 79.285 205.940,79.069 206.974,78.824 208.212 C 75.851 223.217,65.544 234.379,52.515 236.702 C 50.244 237.107,21.722 237.272,21.722 236.880 C 21.722 236.766,22.076 233.995,22.510 230.721 C 23.183 225.636,24.876 212.588,27.701 190.728 C 29.655 175.604,30.453 169.767,30.598 169.532 C 30.815 169.182,50.267 169.193,54.437 169.546 C 71.322 170.973,79.787 179.985,79.850 196.599 C 79.860 199.173,79.906 201.240,79.953 201.194 C 80.000 201.147,80.218 200.234,80.436 199.164 C 84.527 179.117,103.142 165.122,120.736 168.866 M183.699 169.521 C 183.888 169.827,181.773 186.652,181.441 187.483 L 181.203 188.079 172.858 188.079 L 164.513 188.079 164.392 188.675 C 164.106 190.086,163.731 193.994,163.862 194.206 C 163.940 194.333,167.395 194.437,171.539 194.437 C 178.541 194.437,179.073 194.470,179.073 194.901 C 179.073 195.156,178.597 198.941,178.015 203.312 C 177.434 207.682,176.957 211.407,176.956 211.589 C 176.954 211.847,175.243 211.921,169.287 211.921 C 164.859 211.921,161.557 212.024,161.469 212.166 C 161.329 212.393,160.546 217.460,160.535 218.212 C 160.531 218.470,162.452 218.543,169.272 218.543 C 175.389 218.543,178.013 218.629,178.013 218.831 C 178.013 218.989,177.592 222.417,177.078 226.447 C 175.917 235.543,175.888 235.760,175.740 236.490 L 175.619 237.086 156.684 237.086 C 140.282 237.086,137.748 237.034,137.748 236.700 C 137.748 236.488,138.046 234.074,138.410 231.336 C 138.775 228.598,140.144 218.073,141.453 207.947 C 142.763 197.821,143.963 188.583,144.121 187.417 C 144.279 186.252,144.866 181.817,145.425 177.563 C 145.985 173.309,146.520 169.703,146.614 169.550 C 146.839 169.187,183.475 169.158,183.699 169.521 M215.629 169.544 C 226.397 170.672,232.130 176.786,232.761 187.815 C 233.471 200.243,227.434 212.011,218.623 215.372 C 215.843 216.433,215.298 216.500,208.079 216.661 L 200.927 216.821 199.607 226.954 L 198.287 237.086 188.547 237.086 C 181.543 237.086,178.808 237.003,178.808 236.790 C 178.808 236.627,179.283 232.902,179.863 228.512 C 180.790 221.498,181.410 216.749,183.846 198.013 C 184.523 192.809,185.836 182.651,186.364 178.543 C 187.251 171.626,187.518 169.802,187.678 169.544 C 187.900 169.184,212.199 169.185,215.629 169.544 M204.653 188.411 C 204.408 189.232,203.213 199.311,203.336 199.511 C 203.728 200.145,208.666 199.451,210.217 198.545 C 213.974 196.348,214.371 189.922,210.834 188.557 C 209.386 187.999,204.808 187.891,204.653 188.411 M47.718 192.781 C 47.558 193.911,47.003 198.172,46.484 202.252 C 45.965 206.331,45.366 210.911,45.154 212.430 C 44.530 216.898,44.467 216.689,46.434 216.689 C 54.253 216.689,59.338 210.637,59.338 201.330 C 59.338 194.219,56.200 190.728,49.808 190.728 L 48.008 190.728 47.718 192.781 M109.215 191.113 C 98.873 194.345,96.347 213.547,105.898 216.323 C 113.715 218.596,120.662 211.600,120.662 201.457 C 120.662 193.485,115.770 189.064,109.215 191.113 " stroke="none" fill="#040404" fill-rule="evenodd"></path></g></svg>