<svg id="svg" xmlns="http://www.w3.org/2000/svg"  width="400" height="400" viewBox="0, 0, 400,400"><g id="svgg"><path id="path0" d="M0.265 199.868 L 0.265 254.305 79.852 254.305 C 157.067 254.305,159.466 254.290,160.316 253.810 C 160.798 253.538,162.623 253.043,164.371 252.711 C 167.298 252.155,171.489 251.259,176.821 250.048 C 178.843 249.589,181.184 248.991,184.371 248.120 C 185.172 247.901,186.722 247.480,187.815 247.183 C 193.897 245.535,205.817 241.535,209.451 239.922 C 210.591 239.417,212.715 238.520,214.172 237.930 C 217.549 236.563,223.289 233.821,226.351 232.113 L 228.729 230.787 229.050 228.307 C 229.226 226.944,229.620 223.921,229.925 221.589 C 230.230 219.258,230.709 215.563,230.989 213.377 C 231.564 208.897,232.371 202.678,232.966 198.146 C 233.692 192.607,234.421 186.945,234.960 182.649 C 235.253 180.318,235.558 177.919,235.638 177.318 L 235.784 176.226 233.054 174.404 C 224.035 168.388,213.095 163.235,199.868 158.773 C 194.642 157.010,184.262 153.961,181.457 153.365 C 180.947 153.256,179.338 152.866,177.881 152.496 C 171.890 150.978,169.931 150.566,155.629 147.816 C 153.472 147.401,148.321 146.546,146.802 146.351 C 145.979 146.245,145.334 146.017,145.251 145.800 C 145.130 145.485,134.429 145.430,72.687 145.430 L 0.265 145.430 0.265 199.868 M153.113 145.709 C 153.768 145.826,154.841 145.938,155.497 145.959 C 156.386 145.988,156.554 146.052,156.159 146.211 C 155.744 146.378,155.917 146.467,156.954 146.617 C 157.682 146.722,159.351 147.026,160.662 147.291 C 161.974 147.557,164.954 148.149,167.285 148.607 C 171.688 149.472,174.186 150.034,178.675 151.172 C 180.132 151.541,181.742 151.933,182.252 152.043 C 184.616 152.554,189.079 153.870,195.894 156.067 C 203.042 158.371,205.996 159.423,211.391 161.583 C 212.775 162.137,214.325 162.743,214.834 162.929 C 216.560 163.560,224.858 167.628,227.470 169.123 C 230.691 170.967,230.604 170.913,233.555 172.883 L 235.989 174.507 236.267 172.750 C 236.420 171.784,236.577 170.636,236.617 170.199 L 236.689 169.404 246.356 169.334 C 251.674 169.296,256.154 169.315,256.314 169.376 C 256.584 169.480,255.928 174.436,253.124 193.474 C 252.484 197.819,252.356 199.958,252.853 198.013 C 253.213 196.603,254.223 194.753,260.618 183.785 C 261.931 181.533,263.283 179.207,263.622 178.617 C 263.961 178.026,265.311 175.682,266.622 173.407 L 269.005 169.272 279.917 169.272 C 285.919 169.272,290.883 169.361,290.949 169.470 C 291.014 169.579,288.846 173.036,286.130 177.150 C 272.742 197.435,269.795 201.962,269.726 202.355 C 269.684 202.590,270.142 203.914,270.744 205.298 C 271.346 206.682,274.400 213.894,277.532 221.325 C 280.664 228.755,283.321 235.003,283.437 235.210 C 283.700 235.680,283.758 235.299,285.427 222.119 C 285.796 219.205,286.275 215.510,286.492 213.907 C 286.875 211.074,287.315 207.692,288.476 198.675 C 288.786 196.272,289.262 192.576,289.534 190.464 C 289.807 188.351,290.290 184.596,290.608 182.119 C 290.927 179.642,291.441 175.768,291.752 173.510 L 292.318 169.404 310.993 169.404 L 329.669 169.404 329.632 170.331 C 329.598 171.194,329.261 173.925,327.946 183.974 C 327.660 186.159,327.424 187.977,327.422 188.013 C 327.419 188.050,323.605 188.079,318.945 188.079 L 310.474 188.079 310.352 188.675 C 310.176 189.534,309.669 193.329,309.669 193.786 C 309.669 194.115,310.776 194.172,317.203 194.172 C 322.302 194.172,324.794 194.264,324.913 194.458 C 325.010 194.615,324.832 196.671,324.516 199.027 C 324.200 201.383,323.680 205.278,323.361 207.682 L 322.779 212.053 315.036 212.123 L 307.293 212.193 307.173 212.785 C 307.107 213.111,306.982 214.093,306.895 214.967 C 306.808 215.841,306.667 217.003,306.580 217.550 L 306.422 218.543 315.198 218.543 C 322.042 218.543,323.973 218.616,323.973 218.874 C 323.972 219.226,322.323 231.992,321.881 235.072 C 321.737 236.076,321.516 237.000,321.391 237.126 C 321.266 237.251,307.582 237.323,290.983 237.286 L 260.802 237.219 260.463 236.511 C 260.276 236.122,258.467 230.936,256.442 224.988 C 254.416 219.039,252.452 213.310,252.075 212.257 C 251.699 211.203,251.383 210.011,251.373 209.608 C 251.332 207.941,250.878 210.033,250.468 213.775 C 249.023 226.973,247.907 236.734,247.811 237.020 C 247.724 237.277,245.495 237.351,237.862 237.351 L 228.024 237.351 228.212 235.232 C 228.446 232.583,228.284 232.543,224.801 234.403 C 223.472 235.113,221.013 236.318,219.338 237.080 C 217.662 237.843,215.358 238.931,214.217 239.498 C 213.076 240.066,211.986 240.530,211.794 240.530 C 211.603 240.530,210.569 240.904,209.498 241.362 C 205.659 243.001,193.801 246.957,188.079 248.508 C 186.987 248.804,185.437 249.226,184.636 249.445 C 181.591 250.279,171.974 252.652,170.199 253.007 C 168.488 253.349,168.416 253.389,169.272 253.528 L 170.199 253.679 169.272 253.968 C 168.598 254.178,200.068 254.263,284.172 254.281 L 400.000 254.305 400.000 199.868 L 400.000 145.430 275.960 145.464 C 207.738 145.482,152.457 145.592,153.113 145.709 M119.109 168.499 C 137.460 171.051,146.455 190.887,139.158 212.708 C 132.948 231.277,115.186 241.911,98.049 237.321 C 86.540 234.238,79.258 223.739,79.193 210.134 L 79.181 207.550 78.434 210.377 C 74.838 224.000,66.358 233.241,54.578 236.375 L 51.523 237.187 36.556 237.203 C 21.744 237.218,21.590 237.213,21.640 236.689 C 21.699 236.075,22.705 228.295,24.380 215.497 C 24.947 211.163,25.649 205.715,27.540 190.993 C 28.130 186.404,28.789 181.397,29.006 179.868 C 29.222 178.338,29.585 175.536,29.811 173.642 C 30.038 171.748,30.285 169.990,30.361 169.735 C 30.526 169.183,51.079 169.034,55.838 169.550 C 71.584 171.258,79.931 180.559,80.022 196.499 L 80.045 200.397 80.528 198.278 C 84.878 179.214,101.868 166.101,119.109 168.499 M183.918 169.470 C 183.977 169.579,183.802 171.278,183.530 173.245 C 183.257 175.212,182.708 179.325,182.309 182.384 L 181.583 187.947 173.090 188.017 L 164.597 188.087 164.261 190.666 C 164.077 192.084,163.869 193.454,163.800 193.709 C 163.681 194.142,164.167 194.172,171.357 194.172 C 175.584 194.172,179.098 194.263,179.167 194.375 C 179.236 194.487,178.767 198.510,178.125 203.315 C 177.483 208.121,176.957 212.083,176.956 212.119 C 176.955 212.156,173.459 212.185,169.187 212.185 L 161.420 212.185 161.107 214.533 C 160.935 215.825,160.795 217.254,160.795 217.709 L 160.795 218.536 169.470 218.606 C 177.003 218.666,178.139 218.728,178.091 219.073 C 178.061 219.291,177.544 223.402,176.942 228.208 C 176.340 233.014,175.792 237.037,175.723 237.149 C 175.561 237.411,137.815 237.414,137.669 237.152 C 137.609 237.043,137.719 235.762,137.914 234.305 C 138.109 232.848,138.443 230.285,138.656 228.609 C 138.869 226.934,139.286 223.715,139.583 221.457 C 139.879 219.199,140.362 215.503,140.656 213.245 C 140.950 210.987,141.492 206.874,141.859 204.106 C 142.226 201.338,142.703 197.642,142.918 195.894 C 143.134 194.146,143.610 190.450,143.977 187.682 C 144.852 181.087,145.640 174.985,145.980 172.185 C 146.130 170.947,146.302 169.785,146.363 169.603 C 146.487 169.230,183.716 169.098,183.918 169.470 M219.993 170.160 C 228.838 172.887,232.716 178.792,232.715 189.536 C 232.714 203.464,226.667 213.312,216.281 216.303 C 215.038 216.661,213.253 216.784,207.888 216.882 L 201.074 217.006 200.940 217.841 C 200.712 219.263,200.280 222.474,199.740 226.755 C 199.456 229.013,199.040 232.224,198.817 233.890 C 198.593 235.557,198.411 237.017,198.411 237.135 C 198.411 237.254,194.000 237.351,188.609 237.351 L 178.808 237.351 178.813 236.490 C 178.816 236.017,178.998 234.318,179.218 232.715 C 179.438 231.113,179.728 228.907,179.863 227.815 C 180.098 225.911,181.078 218.336,182.236 209.470 C 182.536 207.175,183.018 203.480,183.307 201.258 C 183.596 199.036,184.074 195.371,184.370 193.113 C 184.666 190.854,185.324 185.728,185.833 181.722 C 186.806 174.060,187.239 170.867,187.445 169.850 L 187.569 169.236 202.592 169.332 L 217.616 169.427 219.993 170.160 M361.722 169.563 C 374.103 171.066,379.944 179.738,377.903 193.584 C 376.585 202.530,372.902 207.601,365.762 210.307 C 364.814 210.666,364.826 210.727,366.199 212.562 C 366.966 213.588,368.068 215.806,369.421 219.047 C 374.238 230.590,375.943 234.638,376.448 235.733 C 377.220 237.410,377.568 237.363,365.039 237.288 L 353.554 237.219 353.351 236.556 C 353.239 236.192,352.357 233.033,351.390 229.536 C 348.721 219.889,348.419 218.804,347.925 217.086 L 347.468 215.497 347.254 216.462 C 347.136 216.992,346.494 221.761,345.827 227.058 C 345.161 232.355,344.564 236.838,344.501 237.020 C 344.373 237.392,324.893 237.522,324.690 237.152 C 324.578 236.948,324.821 234.951,326.453 222.649 C 326.975 218.715,327.706 213.053,328.077 210.066 C 328.448 207.079,328.990 202.848,329.281 200.662 C 329.573 198.477,329.928 195.795,330.071 194.702 C 330.213 193.609,330.566 190.927,330.854 188.742 C 331.142 186.556,331.802 181.430,332.320 177.351 C 332.838 173.272,333.314 169.785,333.378 169.603 C 333.530 169.166,358.172 169.131,361.722 169.563 M204.663 189.036 C 204.572 189.603,204.259 191.974,203.966 194.305 C 203.673 196.636,203.368 198.752,203.288 199.007 C 203.158 199.421,203.364 199.470,205.232 199.470 C 210.532 199.470,213.081 197.165,213.076 192.378 C 213.072 189.410,211.706 188.385,207.439 188.150 L 204.827 188.006 204.663 189.036 M350.876 188.378 C 350.806 188.578,350.505 190.709,350.206 193.113 C 349.907 195.517,349.591 197.871,349.504 198.344 L 349.345 199.205 351.295 199.194 C 356.594 199.162,359.735 194.400,357.444 189.872 C 356.736 188.475,351.273 187.232,350.876 188.378 M48.098 191.021 C 48.029 191.224,47.604 194.311,47.154 197.881 C 46.465 203.347,45.489 210.943,44.883 215.563 L 44.736 216.689 46.040 216.689 C 54.104 216.689,59.160 210.782,59.193 201.325 C 59.212 195.729,57.709 192.934,53.933 191.546 C 51.940 190.813,48.282 190.484,48.098 191.021 M109.833 191.006 C 99.751 193.536,96.310 211.617,105.089 215.930 C 109.373 218.035,115.292 215.699,118.271 210.728 C 124.195 200.846,119.001 188.706,109.833 191.006 " stroke="none" fill-rule="evenodd"></path></g></svg>