<svg id="svg" version="1.1" xmlns="http://www.w3.org/2000/svg"  width="400" height="400" viewBox="0, 0, 400,400"><g id="svgg"><path id="path0" d="M195.000 83.901 C 184.880 84.697,172.466 88.888,163.983 94.371 L 161.928 95.699 160.047 95.323 C 159.013 95.116,155.863 94.415,153.048 93.765 L 147.930 92.582 144.594 95.875 C 134.207 106.124,126.878 118.835,123.184 133.006 L 122.096 137.180 124.087 139.340 C 125.183 140.528,127.352 142.884,128.907 144.576 L 131.736 147.653 131.692 151.910 C 131.427 177.572,144.845 200.957,167.050 213.528 L 171.006 215.768 172.674 220.920 C 173.591 223.754,174.509 226.736,174.713 227.547 C 175.170 229.359,175.276 229.417,180.743 230.809 C 194.083 234.208,207.760 234.324,220.500 231.146 C 226.923 229.544,226.889 229.562,227.495 227.396 C 227.786 226.353,228.719 223.289,229.569 220.588 L 231.113 215.676 234.973 213.497 C 256.976 201.078,270.333 178.085,270.333 152.628 L 270.333 147.730 273.144 144.615 C 274.690 142.902,276.839 140.533,277.920 139.352 L 279.885 137.204 279.283 134.617 C 275.771 119.536,266.206 103.014,255.881 94.192 L 254.165 92.727 249.552 93.839 C 247.015 94.450,243.913 95.134,242.660 95.358 L 240.380 95.765 237.940 94.267 C 224.783 86.187,210.320 82.696,195.000 83.901 M209.167 85.834 C 218.690 86.936,228.752 90.523,237.109 95.797 L 240.051 97.654 244.109 96.806 C 246.341 96.339,248.992 95.750,250.000 95.496 C 254.177 94.444,253.933 94.326,259.090 99.931 C 267.424 108.991,273.537 120.119,276.851 132.261 L 278.055 136.672 276.241 138.586 C 275.243 139.639,273.110 141.967,271.501 143.759 L 268.575 147.019 268.635 151.926 C 268.702 157.350,268.281 161.948,267.301 166.500 C 266.946 168.150,266.575 169.875,266.476 170.333 C 265.412 175.288,259.052 189.342,257.601 189.944 C 257.454 190.006,257.333 190.207,257.333 190.392 C 257.333 191.113,252.379 197.269,249.352 200.308 C 243.498 206.187,238.825 209.665,232.144 213.117 L 229.788 214.334 227.900 220.251 C 226.862 223.504,225.919 226.578,225.804 227.080 C 225.308 229.257,212.010 231.711,201.000 231.656 C 190.119 231.603,176.938 229.114,176.305 226.994 C 176.169 226.539,175.502 224.367,174.823 222.167 C 174.144 219.967,173.565 218.017,173.535 217.833 C 173.505 217.650,173.393 217.350,173.284 217.167 C 173.176 216.983,172.905 216.266,172.681 215.573 C 172.328 214.477,171.964 214.156,169.898 213.115 C 160.027 208.144,150.789 199.760,144.245 189.833 C 142.154 186.661,138.333 179.227,138.333 178.331 C 138.333 178.039,138.199 177.657,138.034 177.483 C 135.943 175.271,133.259 160.159,133.405 151.422 L 133.478 147.010 132.307 145.755 C 131.662 145.065,129.520 142.743,127.545 140.596 L 123.956 136.692 124.986 132.832 C 126.686 126.464,130.318 117.608,132.717 113.985 C 133.148 113.335,133.785 112.285,134.134 111.651 C 137.726 105.123,147.592 94.186,149.438 94.687 C 152.432 95.501,161.262 97.407,161.898 97.378 C 162.301 97.359,163.797 96.582,165.223 95.651 C 167.633 94.078,170.512 92.579,175.000 90.560 C 184.149 86.444,197.944 84.536,209.167 85.834 M195.167 90.013 C 187.622 90.775,178.218 93.521,172.217 96.714 C 168.294 98.800,168.170 98.697,175.725 99.636 C 188.157 101.181,205.784 101.654,216.333 100.725 C 224.010 100.049,233.000 98.913,233.000 98.620 C 233.000 98.226,226.769 95.143,223.351 93.845 C 214.946 90.654,203.809 89.139,195.167 90.013 M146.800 102.414 C 139.709 109.832,133.934 119.439,130.688 129.218 C 128.544 135.675,128.495 135.148,131.551 138.416 C 134.273 141.328,134.480 141.384,134.828 139.306 C 136.828 127.369,144.163 114.082,154.067 104.458 L 157.541 101.082 154.354 100.368 C 152.601 99.975,150.857 99.571,150.478 99.471 C 149.935 99.326,149.157 99.949,146.800 102.414 M248.605 100.307 L 244.710 101.182 248.237 104.657 C 257.793 114.073,264.062 125.236,267.001 138.069 L 267.742 141.304 270.200 138.735 C 271.551 137.323,272.750 135.830,272.864 135.418 C 273.053 134.738,271.381 129.029,269.717 124.667 C 266.959 117.440,258.334 104.552,253.298 100.133 L 252.500 99.432 248.605 100.307 M160.833 104.195 C 149.812 113.237,141.801 126.614,139.019 140.619 C 137.952 145.991,137.816 145.527,141.926 150.500 C 145.113 154.357,153.667 166.328,153.667 166.933 C 153.667 167.122,153.788 167.328,153.937 167.389 C 154.299 167.537,158.039 173.551,160.801 178.425 C 165.573 186.844,171.555 199.613,174.734 208.167 L 175.849 211.167 178.841 212.289 C 182.358 213.608,188.797 215.310,191.167 215.546 C 192.083 215.638,193.058 215.789,193.333 215.883 C 197.909 217.438,213.512 215.685,222.137 212.648 C 226.510 211.107,226.212 211.412,227.985 206.667 C 235.136 187.529,246.964 166.930,260.555 149.944 C 264.116 145.494,264.063 145.698,263.001 140.453 C 260.349 127.351,252.769 114.207,242.939 105.664 C 238.720 101.998,239.401 102.218,234.632 102.980 C 230.295 103.673,230.087 103.700,223.167 104.486 C 207.137 106.305,188.320 105.932,171.333 103.458 C 168.125 102.990,164.975 102.534,164.333 102.444 C 163.298 102.300,162.903 102.497,160.833 104.195 M203.711 113.540 C 204.862 114.582,205.156 117.083,204.261 118.229 C 204.034 118.521,204.297 118.621,205.259 118.607 C 208.431 118.564,210.283 121.604,208.683 124.229 C 207.812 125.657,206.857 126.108,205.118 125.912 C 203.302 125.707,203.309 125.864,205.210 127.978 C 208.267 131.378,211.676 131.718,214.583 128.914 C 215.883 127.660,215.936 127.333,214.839 127.333 C 213.343 127.333,211.937 125.698,211.749 123.738 C 211.466 120.795,214.491 118.657,217.022 120.012 C 217.615 120.329,217.667 120.237,217.667 118.857 C 217.667 116.980,219.078 115.203,221.033 114.617 C 222.966 114.038,222.999 113.887,219.022 123.688 C 216.993 128.687,215.377 132.822,215.431 132.875 C 215.485 132.929,216.473 132.679,217.627 132.320 C 218.928 131.915,220.680 131.667,222.233 131.667 L 224.741 131.667 224.508 132.911 C 224.220 134.443,222.569 138.029,221.300 139.878 L 220.354 141.257 221.694 142.186 C 226.497 145.514,229.643 151.692,229.661 157.830 L 229.667 159.826 228.141 157.552 C 227.001 155.852,226.266 155.121,225.232 154.659 C 223.391 153.834,223.367 153.974,225.000 156.039 C 229.836 162.158,230.744 170.296,227.336 176.973 C 225.661 180.256,225.525 180.335,225.054 178.292 C 224.535 176.044,223.296 173.923,221.938 172.956 C 220.959 172.259,220.898 172.251,221.144 172.850 C 223.349 178.236,223.547 182.660,221.753 186.449 C 220.537 189.015,217.182 192.632,214.667 194.086 C 212.171 195.530,212.216 195.570,212.304 192.000 C 212.385 188.707,212.130 187.577,210.897 185.752 C 209.849 184.201,209.835 184.241,209.815 188.917 C 209.799 192.526,209.682 193.458,209.037 195.095 C 207.123 199.952,201.420 203.626,195.744 203.659 L 194.322 203.667 195.156 202.021 C 196.769 198.839,197.038 191.293,195.710 186.500 L 195.433 185.500 194.892 186.768 C 194.042 188.765,193.333 193.133,193.333 196.382 C 193.333 199.909,193.363 199.907,189.933 196.561 C 184.310 191.074,182.354 184.364,184.595 178.250 C 185.475 175.849,185.181 175.844,183.005 178.224 C 181.132 180.274,181.011 180.264,180.305 178.000 C 179.023 173.885,179.807 169.444,182.311 166.650 L 183.612 165.198 181.514 164.670 C 177.845 163.747,176.039 161.696,175.735 158.106 L 175.588 156.378 178.627 157.356 C 182.303 158.538,183.653 158.571,185.833 157.533 C 188.948 156.050,189.013 155.892,186.841 155.061 C 184.121 154.020,181.885 154.121,176.807 155.517 C 166.477 158.356,162.179 156.633,158.513 148.180 C 157.123 144.974,157.150 144.925,159.391 146.599 C 164.002 150.042,171.341 151.492,176.667 150.011 C 181.639 148.629,189.333 151.401,189.333 154.576 C 189.333 155.224,189.846 155.087,190.974 154.137 C 192.713 152.674,192.250 152.095,188.333 150.833 C 185.629 149.961,184.304 149.217,182.722 147.682 C 179.798 144.844,176.979 145.041,171.709 148.450 L 169.356 149.972 169.558 148.903 C 171.642 137.894,176.620 133.344,184.049 135.656 L 186.158 136.313 186.875 135.413 C 187.383 134.776,187.515 134.318,187.328 133.840 C 187.182 133.470,185.399 129.291,183.365 124.554 C 179.187 114.825,179.289 115.174,180.722 115.461 C 182.931 115.903,185.133 118.638,184.535 120.196 C 184.366 120.636,184.434 120.634,185.079 120.182 C 187.294 118.631,190.662 120.999,190.665 124.109 C 190.667 125.849,189.222 127.333,187.526 127.333 C 186.093 127.333,186.041 127.601,187.250 128.733 C 190.325 131.610,194.102 131.423,196.827 128.259 C 198.819 125.946,198.834 125.815,197.097 125.953 C 194.597 126.152,193.000 124.739,193.000 122.328 C 193.000 120.123,194.424 118.685,196.619 118.674 C 197.883 118.668,198.036 118.591,197.797 118.083 C 196.046 114.365,200.685 110.801,203.711 113.540 M263.992 152.583 C 263.988 152.721,263.501 153.385,262.909 154.059 C 261.497 155.668,258.269 160.068,254.802 165.108 C 253.266 167.340,251.857 169.348,251.672 169.569 C 251.486 169.791,251.333 170.052,251.333 170.149 C 251.333 170.247,250.649 171.394,249.812 172.700 C 244.043 181.700,231.888 206.165,232.409 207.727 C 232.529 208.087,237.500 204.900,240.318 202.657 C 243.188 200.373,247.218 196.405,249.617 193.501 C 250.829 192.034,251.909 190.758,252.017 190.667 C 254.250 188.767,259.902 177.152,261.830 170.500 C 263.342 165.286,265.043 152.333,264.216 152.333 C 264.097 152.333,263.997 152.446,263.992 152.583 M137.826 155.750 C 138.257 162.076,139.665 169.346,141.460 174.500 C 144.352 182.806,151.058 192.982,157.691 199.128 C 161.516 202.673,169.388 208.390,169.832 207.946 C 170.380 207.398,160.463 186.574,155.978 178.856 C 154.707 176.669,153.667 174.848,153.667 174.810 C 153.667 174.773,151.979 172.213,149.917 169.121 C 147.854 166.029,146.107 163.350,146.033 163.167 C 145.960 162.983,145.805 162.758,145.688 162.667 C 145.571 162.575,143.831 160.288,141.821 157.585 C 137.506 151.782,137.558 151.806,137.826 155.750 M178.922 220.417 C 180.325 224.906,179.801 224.267,182.726 225.054 C 190.069 227.029,200.611 227.838,208.342 227.020 C 213.675 226.455,213.415 226.496,217.646 225.538 C 222.222 224.502,221.731 224.952,223.144 220.501 C 224.515 216.180,224.650 216.485,221.798 217.455 C 209.215 221.735,192.469 221.681,179.791 217.319 C 178.748 216.960,177.863 216.667,177.823 216.667 C 177.782 216.667,178.277 218.354,178.922 220.417 M31.167 251.691 C 12.275 253.189,3.000 259.822,3.000 271.833 C 3.000 284.557,11.359 289.598,33.642 290.314 C 47.392 290.756,51.182 292.602,49.169 297.874 C 46.028 306.098,27.040 303.708,27.002 295.083 C 27.000 294.757,24.110 294.667,13.667 294.667 L 0.333 294.667 0.333 295.930 C 0.333 309.406,18.485 317.244,45.333 315.363 C 62.861 314.134,71.241 310.223,75.487 301.287 L 76.856 298.406 78.416 300.790 C 85.223 311.192,93.975 315.181,110.859 315.577 C 123.746 315.880,129.905 314.565,136.955 310.004 C 139.585 308.303,139.571 308.283,138.195 311.692 L 137.062 314.500 148.260 314.588 C 154.419 314.636,159.573 314.560,159.714 314.419 C 159.856 314.278,160.857 312.138,161.940 309.664 L 163.908 305.167 179.019 305.167 L 194.131 305.167 196.107 309.750 L 198.083 314.333 217.705 314.333 L 237.328 314.333 237.414 296.327 L 237.500 278.320 251.362 296.410 L 265.225 314.500 279.112 314.587 L 293.000 314.674 293.000 284.004 L 293.000 253.333 281.670 253.333 L 270.340 253.333 270.253 269.801 L 270.167 286.269 257.669 269.801 L 245.171 253.333 230.252 253.333 L 215.333 253.333 215.333 276.067 C 215.333 288.570,215.206 298.657,215.051 298.483 C 214.895 298.309,210.589 288.078,205.481 275.747 L 196.194 253.327 178.865 253.414 L 161.535 253.500 154.235 271.745 L 146.935 289.991 136.097 290.079 L 125.259 290.167 124.526 292.192 C 119.826 305.174,101.417 303.537,97.844 289.819 C 96.650 285.236,97.426 277.500,99.520 273.118 C 104.516 262.663,121.152 263.749,124.533 274.750 L 125.122 276.667 137.394 276.667 L 149.667 276.667 149.667 275.529 C 149.667 260.847,134.889 251.509,111.667 251.515 C 88.756 251.522,77.396 259.708,74.680 278.167 C 73.996 282.819,74.285 282.562,71.912 280.634 C 65.956 275.794,62.455 275.067,41.831 274.387 C 30.865 274.025,28.671 273.030,28.668 268.418 C 28.665 264.596,31.746 262.822,38.333 262.852 C 44.966 262.882,47.970 265.131,47.993 270.083 L 48.000 271.667 61.000 271.667 L 74.000 271.667 73.995 270.417 C 73.942 256.950,57.193 249.627,31.167 251.691 M298.222 253.556 C 298.100 253.678,298.000 267.478,298.000 284.222 L 298.000 314.667 318.774 314.667 L 339.547 314.667 341.372 310.083 L 343.197 305.500 358.134 305.500 L 373.072 305.500 375.119 310.075 L 377.167 314.651 388.583 314.659 C 394.863 314.663,400.000 314.537,400.000 314.380 C 400.000 314.222,394.477 300.459,387.727 283.796 L 375.453 253.500 357.850 253.500 L 340.247 253.500 331.182 275.914 C 326.196 288.241,322.016 298.429,321.892 298.553 C 321.768 298.676,321.667 288.553,321.667 276.056 L 321.667 253.333 310.056 253.333 C 303.669 253.333,298.344 253.433,298.222 253.556 M183.134 279.378 C 185.627 284.994,187.667 289.682,187.667 289.795 C 187.667 289.908,183.767 290.000,179.000 290.000 C 174.233 290.000,170.333 289.938,170.333 289.862 C 170.333 289.760,176.907 272.758,178.244 269.402 C 178.479 268.812,178.109 268.057,183.134 279.378 M362.330 279.500 C 364.755 284.817,366.814 289.354,366.906 289.583 C 367.036 289.910,365.190 290.000,358.333 290.000 C 351.476 290.000,349.631 289.910,349.763 289.583 C 350.967 286.584,357.280 270.671,357.452 270.202 C 357.758 269.364,357.357 268.600,362.330 279.500 " stroke="none" fill="#142c5c" fill-rule="evenodd"></path><path id="path1" d="M217.771 134.619 C 215.817 135.294,213.911 136.480,211.993 138.213 L 210.684 139.395 209.791 138.693 L 208.898 137.990 210.699 136.330 L 212.500 134.671 201.441 134.669 L 190.382 134.667 189.358 135.909 C 187.872 137.712,187.973 137.790,191.451 137.546 C 196.256 137.208,199.994 138.683,198.505 140.328 C 198.102 140.773,197.659 140.927,197.149 140.799 C 196.525 140.643,196.291 140.823,195.816 141.823 C 193.607 146.479,187.257 145.575,186.023 140.429 C 184.814 135.390,176.852 136.684,173.973 142.387 C 172.712 144.886,172.733 145.120,174.168 144.521 C 178.343 142.776,180.999 143.130,184.029 145.833 C 185.799 147.412,188.818 149.000,190.051 149.000 C 190.868 149.000,193.616 150.790,193.961 151.547 C 194.687 153.142,194.417 153.851,192.354 155.761 C 187.972 159.817,184.263 161.236,180.568 160.270 C 178.141 159.636,178.122 159.641,178.999 160.756 C 180.480 162.639,186.006 163.176,193.333 162.150 L 194.500 161.987 193.167 162.648 C 192.433 163.012,190.546 163.907,188.974 164.637 C 184.270 166.821,182.312 169.308,182.062 173.417 C 181.916 175.809,182.148 176.125,183.198 174.965 C 184.146 173.917,186.439 172.668,188.708 171.961 C 191.752 171.014,191.864 171.126,190.049 173.306 C 184.829 179.579,184.723 187.345,189.778 193.170 L 190.933 194.500 191.152 193.167 C 192.159 187.043,193.014 184.694,195.026 182.510 C 196.860 180.521,196.806 180.481,197.619 184.417 C 199.077 191.473,199.267 197.513,198.125 200.490 C 197.522 202.059,202.565 199.755,204.613 197.525 C 207.513 194.368,208.425 189.432,207.202 183.519 C 206.908 182.095,206.667 180.804,206.667 180.651 C 206.667 180.016,209.782 181.502,211.286 182.854 C 213.155 184.535,214.331 186.924,214.633 189.652 L 214.833 191.471 216.630 189.673 C 221.435 184.865,221.937 178.430,218.014 171.935 C 216.391 169.247,216.399 169.333,217.773 169.333 C 220.167 169.333,222.417 170.322,224.301 172.203 C 226.465 174.363,226.179 174.357,226.698 172.250 C 228.195 166.173,226.084 160.010,220.683 154.682 L 218.382 152.414 220.423 151.981 C 222.178 151.609,222.745 151.622,224.481 152.076 C 226.952 152.722,226.847 152.883,225.636 150.323 C 224.328 147.556,222.682 145.572,220.489 144.116 L 218.731 142.948 217.409 143.823 C 216.159 144.650,212.684 146.141,212.498 145.931 C 211.566 144.879,212.082 143.792,213.916 142.942 C 216.774 141.618,221.667 136.256,221.667 134.448 C 221.667 133.816,219.868 133.895,217.771 134.619 M219.333 136.205 C 219.333 137.857,213.709 142.113,212.997 141.000 C 212.392 140.055,212.670 139.444,214.201 138.345 C 216.107 136.976,219.333 135.631,219.333 136.205 M192.605 140.706 C 191.506 141.885,190.883 141.913,189.803 140.833 C 188.387 139.418,187.645 140.135,189.009 141.600 C 189.899 142.555,191.124 142.834,192.295 142.349 C 193.105 142.014,193.478 141.550,194.254 139.917 C 194.549 139.296,193.412 139.840,192.605 140.706 M216.432 152.649 C 218.630 157.114,217.863 162.747,214.419 167.447 L 213.167 169.154 212.947 166.038 C 212.826 164.325,212.455 162.227,212.123 161.378 L 211.517 159.833 211.290 162.049 C 210.756 167.239,207.991 170.444,202.902 171.773 C 200.830 172.314,200.657 172.193,201.669 170.906 C 203.817 168.175,204.713 164.430,202.660 166.762 C 201.203 168.417,199.568 169.134,196.333 169.537 L 194.500 169.766 196.070 168.078 C 197.799 166.219,198.168 165.268,197.910 163.339 C 197.752 162.161,197.820 162.017,198.713 161.648 C 199.974 161.125,200.097 161.286,200.270 163.688 C 200.522 167.168,202.667 163.664,202.667 159.773 C 202.667 157.945,203.019 157.961,204.467 159.858 C 206.059 161.942,206.459 163.332,206.227 165.969 L 206.033 168.167 207.028 167.000 C 208.898 164.807,209.406 161.503,208.513 157.337 C 207.949 154.708,207.898 154.767,209.884 155.780 C 211.935 156.826,213.079 158.041,214.104 160.260 C 214.815 161.797,214.943 161.923,215.121 161.260 C 215.867 158.475,214.937 154.053,213.046 151.398 C 212.352 150.423,212.313 149.279,212.937 148.189 C 213.225 147.685,215.277 150.304,216.432 152.649 M195.765 149.053 C 196.161 149.265,197.215 150.015,198.106 150.719 C 199.199 151.583,200.064 152.000,200.763 152.000 C 202.129 152.000,201.540 152.621,199.926 152.883 C 198.842 153.059,198.570 152.917,196.707 151.204 C 195.588 150.175,194.446 149.333,194.170 149.333 C 193.893 149.333,193.667 149.183,193.667 149.000 C 193.667 148.548,194.879 148.579,195.765 149.053 M163.000 151.600 C 163.000 152.125,165.976 153.968,167.478 154.372 C 169.352 154.877,171.487 154.632,176.333 153.355 C 182.764 151.662,183.348 151.037,177.446 152.167 C 172.999 153.018,166.762 152.712,163.583 151.487 C 163.262 151.363,163.000 151.414,163.000 151.600 " stroke="none" fill="#cc0e3d" fill-rule="evenodd"></path><path id="path2" d="M197.250 85.569 C 197.662 85.648,198.338 85.648,198.750 85.569 C 199.162 85.489,198.825 85.424,198.000 85.424 C 197.175 85.424,196.838 85.489,197.250 85.569 M203.250 85.569 C 203.662 85.648,204.338 85.648,204.750 85.569 C 205.162 85.489,204.825 85.424,204.000 85.424 C 203.175 85.424,202.838 85.489,203.250 85.569 M147.490 101.417 L 145.500 103.500 147.583 101.510 C 149.519 99.662,149.819 99.333,149.573 99.333 C 149.521 99.333,148.584 100.271,147.490 101.417 M192.755 101.239 C 193.261 101.316,194.011 101.314,194.421 101.235 C 194.831 101.156,194.417 101.093,193.500 101.095 C 192.583 101.098,192.248 101.163,192.755 101.239 M208.088 101.239 C 208.595 101.316,209.345 101.314,209.755 101.235 C 210.165 101.156,209.750 101.093,208.833 101.095 C 207.917 101.098,207.581 101.163,208.088 101.239 M187.083 105.230 C 187.404 105.314,187.929 105.314,188.250 105.230 C 188.571 105.146,188.308 105.077,187.667 105.077 C 187.025 105.077,186.762 105.146,187.083 105.230 M193.923 105.575 C 194.522 105.649,195.422 105.648,195.923 105.572 C 196.424 105.495,195.933 105.435,194.833 105.437 C 193.733 105.438,193.324 105.501,193.923 105.575 M206.589 105.575 C 207.188 105.649,208.088 105.648,208.589 105.572 C 209.090 105.495,208.600 105.435,207.500 105.437 C 206.400 105.438,205.990 105.501,206.589 105.575 M200.148 112.714 C 197.988 113.290,196.808 115.984,197.797 118.083 C 198.036 118.591,197.883 118.668,196.619 118.674 C 194.424 118.685,193.000 120.123,193.000 122.328 C 193.000 124.739,194.597 126.152,197.097 125.953 C 198.834 125.815,198.819 125.946,196.827 128.259 C 194.102 131.423,190.325 131.610,187.250 128.733 C 186.041 127.601,186.093 127.333,187.526 127.333 C 189.222 127.333,190.667 125.849,190.665 124.109 C 190.662 120.999,187.294 118.631,185.079 120.182 C 184.434 120.634,184.366 120.636,184.535 120.196 C 184.872 119.318,183.983 117.355,182.862 116.499 C 181.675 115.594,179.667 115.028,179.667 115.599 C 179.667 116.005,187.327 134.039,187.667 134.431 C 187.792 134.576,193.414 134.686,200.160 134.675 C 211.206 134.657,212.382 134.706,211.996 135.172 C 211.760 135.456,212.354 135.159,213.317 134.511 C 214.279 133.863,215.211 133.333,215.387 133.333 C 215.562 133.333,215.625 133.202,215.525 133.041 C 215.426 132.880,217.002 128.665,219.027 123.674 C 222.999 113.888,222.965 114.038,221.033 114.617 C 219.078 115.203,217.667 116.980,217.667 118.857 C 217.667 120.237,217.615 120.329,217.022 120.012 C 214.491 118.657,211.466 120.795,211.749 123.738 C 211.937 125.698,213.343 127.333,214.839 127.333 C 215.936 127.333,215.883 127.660,214.583 128.914 C 211.676 131.718,208.267 131.378,205.210 127.978 C 203.309 125.864,203.302 125.707,205.118 125.912 C 206.857 126.108,207.812 125.657,208.683 124.229 C 210.283 121.604,208.431 118.564,205.259 118.607 C 204.297 118.621,204.034 118.521,204.261 118.229 C 206.227 115.709,203.356 111.859,200.148 112.714 M220.667 133.912 C 221.125 133.998,221.610 134.240,221.745 134.450 C 221.902 134.696,221.992 134.625,221.995 134.250 C 221.999 133.804,221.745 133.677,220.917 133.712 C 219.999 133.750,219.961 133.781,220.667 133.912 M192.917 137.569 C 193.329 137.648,194.004 137.648,194.417 137.569 C 194.829 137.489,194.492 137.424,193.667 137.424 C 192.842 137.424,192.504 137.489,192.917 137.569 M189.250 137.902 C 189.662 137.981,190.338 137.981,190.750 137.902 C 191.162 137.822,190.825 137.757,190.000 137.757 C 189.175 137.757,188.838 137.822,189.250 137.902 M175.812 139.417 L 174.833 140.500 175.917 139.521 C 176.512 138.983,177.000 138.495,177.000 138.438 C 177.000 138.180,176.725 138.407,175.812 139.417 M127.667 140.771 C 127.667 140.828,128.154 141.316,128.750 141.854 L 129.833 142.833 128.854 141.750 C 127.942 140.740,127.667 140.513,127.667 140.771 M178.417 143.563 C 178.737 143.647,179.262 143.647,179.583 143.563 C 179.904 143.479,179.642 143.411,179.000 143.411 C 178.358 143.411,178.096 143.479,178.417 143.563 M212.820 148.356 C 212.699 148.551,212.690 148.801,212.800 148.911 C 212.910 149.021,213.000 148.910,213.000 148.664 C 213.000 148.378,213.330 148.508,213.917 149.025 L 214.833 149.833 214.025 148.917 C 213.105 147.872,213.115 147.877,212.820 148.356 M133.433 150.333 C 133.433 151.342,133.496 151.754,133.572 151.250 C 133.648 150.746,133.648 149.921,133.572 149.417 C 133.496 148.912,133.433 149.325,133.433 150.333 M193.667 149.000 C 193.667 149.391,193.923 149.391,194.833 149.000 C 195.424 148.746,195.396 148.711,194.583 148.690 C 194.079 148.677,193.667 148.817,193.667 149.000 M181.333 152.000 C 180.955 152.245,181.102 152.324,181.936 152.328 C 182.588 152.331,182.955 152.197,182.833 152.000 C 182.575 151.581,181.981 151.581,181.333 152.000 M221.583 151.902 C 221.996 151.981,222.671 151.981,223.083 151.902 C 223.496 151.822,223.158 151.757,222.333 151.757 C 221.508 151.757,221.171 151.822,221.583 151.902 M133.429 155.833 C 133.431 156.750,133.496 157.085,133.573 156.579 C 133.649 156.072,133.647 155.322,133.568 154.912 C 133.489 154.502,133.426 154.917,133.429 155.833 M137.751 156.500 C 137.754 157.233,137.823 157.494,137.902 157.079 C 137.982 156.665,137.979 156.065,137.896 155.746 C 137.812 155.427,137.747 155.767,137.751 156.500 M212.000 157.500 C 212.622 158.142,213.206 158.667,213.297 158.667 C 213.389 158.667,212.955 158.142,212.333 157.500 C 211.711 156.858,211.128 156.333,211.036 156.333 C 210.944 156.333,211.378 156.858,212.000 157.500 M215.433 158.667 C 215.433 159.675,215.496 160.087,215.572 159.583 C 215.648 159.079,215.648 158.254,215.572 157.750 C 215.496 157.246,215.433 157.658,215.433 158.667 M202.717 159.417 C 202.765 160.466,202.771 160.471,202.908 159.554 C 203.048 158.620,203.059 158.616,203.775 159.221 L 204.500 159.833 203.865 159.083 C 202.989 158.048,202.658 158.144,202.717 159.417 M211.039 161.583 C 211.080 163.618,211.227 163.418,211.408 161.083 C 211.468 160.304,211.401 159.667,211.259 159.667 C 211.116 159.667,211.017 160.529,211.039 161.583 M182.088 160.573 C 182.595 160.649,183.345 160.647,183.755 160.568 C 184.165 160.489,183.750 160.426,182.833 160.429 C 181.917 160.431,181.581 160.496,182.088 160.573 M192.667 162.131 C 192.667 162.455,193.606 162.576,194.030 162.308 C 194.372 162.091,194.250 162.009,193.583 162.005 C 193.079 162.002,192.667 162.059,192.667 162.131 M184.259 162.911 C 185.043 162.982,186.243 162.981,186.925 162.909 C 187.608 162.837,186.967 162.780,185.500 162.781 C 184.033 162.782,183.475 162.841,184.259 162.911 M201.003 165.163 C 200.776 165.436,200.458 165.577,200.296 165.477 C 200.133 165.376,200.000 165.554,200.000 165.872 C 200.000 166.365,200.122 166.335,200.833 165.667 C 201.292 165.236,201.667 164.835,201.667 164.775 C 201.667 164.534,201.392 164.694,201.003 165.163 M203.567 165.111 C 203.474 165.356,203.608 165.556,203.865 165.556 C 204.123 165.556,204.333 165.356,204.333 165.111 C 204.333 164.867,204.199 164.667,204.036 164.667 C 203.872 164.667,203.661 164.867,203.567 165.111 M195.667 168.500 L 194.536 169.667 195.685 169.621 C 196.529 169.588,196.625 169.536,196.048 169.427 L 195.262 169.278 196.193 168.305 C 196.706 167.771,197.051 167.333,196.961 167.333 C 196.871 167.333,196.289 167.858,195.667 168.500 M216.667 169.592 C 216.667 169.734,217.267 169.794,218.000 169.724 C 218.733 169.654,219.333 169.537,219.333 169.465 C 219.333 169.393,218.733 169.333,218.000 169.333 C 217.267 169.333,216.667 169.450,216.667 169.592 M181.762 173.833 C 181.765 174.750,181.829 175.085,181.906 174.579 C 181.982 174.072,181.980 173.322,181.901 172.912 C 181.822 172.502,181.760 172.917,181.762 173.833 M220.757 180.667 C 220.757 181.492,220.822 181.829,220.902 181.417 C 220.981 181.004,220.981 180.329,220.902 179.917 C 220.822 179.504,220.757 179.842,220.757 180.667 M211.500 183.333 C 212.216 184.067,212.877 184.667,212.969 184.667 C 213.060 184.667,212.549 184.067,211.833 183.333 C 211.117 182.600,210.456 182.000,210.365 182.000 C 210.273 182.000,210.784 182.600,211.500 183.333 M185.751 183.500 C 185.754 184.233,185.823 184.494,185.902 184.079 C 185.982 183.665,185.979 183.065,185.896 182.746 C 185.812 182.427,185.747 182.767,185.751 183.500 M207.779 188.667 C 207.779 190.042,207.838 190.604,207.909 189.917 C 207.981 189.229,207.981 188.104,207.909 187.417 C 207.838 186.729,207.779 187.292,207.779 188.667 M212.433 191.333 C 212.433 192.342,212.496 192.754,212.572 192.250 C 212.648 191.746,212.648 190.921,212.572 190.417 C 212.496 189.912,212.433 190.325,212.433 191.333 M198.773 194.000 C 198.773 195.192,198.834 195.679,198.908 195.083 C 198.982 194.487,198.982 193.512,198.908 192.917 C 198.834 192.321,198.773 192.808,198.773 194.000 M191.039 193.791 C 191.005 194.329,190.920 194.355,190.417 193.976 C 189.863 193.559,189.863 193.569,190.409 194.165 C 191.061 194.877,191.470 194.685,191.235 193.776 C 191.085 193.198,191.075 193.199,191.039 193.791 M193.109 197.167 C 193.111 198.450,193.171 198.934,193.243 198.243 C 193.315 197.551,193.314 196.501,193.241 195.909 C 193.167 195.317,193.108 195.883,193.109 197.167 M204.315 197.917 L 203.167 199.167 204.417 198.018 C 205.580 196.949,205.820 196.667,205.565 196.667 C 205.510 196.667,204.947 197.229,204.315 197.917 M245.484 198.083 L 244.167 199.500 245.583 198.182 C 246.901 196.957,247.153 196.667,246.901 196.667 C 246.847 196.667,246.209 197.304,245.484 198.083 M248.667 200.833 C 247.301 202.208,246.258 203.333,246.350 203.333 C 246.442 203.333,247.634 202.208,249.000 200.833 C 250.366 199.458,251.408 198.333,251.317 198.333 C 251.225 198.333,250.032 199.458,248.667 200.833 M152.986 200.750 C 154.367 202.222,154.667 202.486,154.667 202.236 C 154.667 202.183,153.954 201.470,153.083 200.653 L 151.500 199.167 152.986 200.750 M200.421 227.573 C 200.928 227.649,201.678 227.647,202.088 227.568 C 202.498 227.489,202.083 227.426,201.167 227.429 C 200.250 227.431,199.915 227.496,200.421 227.573 " stroke="none" fill="#d2a54a" fill-rule="evenodd"></path></g></svg>