<svg id="svg" xmlns="http://www.w3.org/2000/svg"  width="400" height="400" viewBox="0, 0, 400,400"><g id="svgg"><path id="path0" d="M187.729 9.726 C 186.900 9.819,184.090 10.107,181.485 10.365 C 154.703 13.027,127.451 22.747,104.120 37.961 L 99.518 40.961 91.847 39.394 C 84.107 37.812,72.081 35.083,66.523 33.648 L 63.509 32.870 59.330 36.714 C 32.415 61.471,11.529 96.898,1.725 134.426 C -0.658 143.545,-0.878 142.573,4.947 148.615 C 9.869 153.720,19.981 164.807,22.797 168.187 L 24.274 169.958 24.332 184.979 C 24.594 252.194,61.519 312.740,120.149 342.094 C 122.861 343.452,125.225 344.781,125.402 345.048 C 126.123 346.139,131.738 363.734,135.603 377.020 C 136.456 379.952,136.569 380.110,138.108 380.527 C 138.995 380.767,142.239 381.669,145.318 382.530 C 181.408 392.631,221.040 392.621,256.405 382.502 C 263.886 380.361,263.860 380.375,264.399 378.313 C 265.423 374.392,270.084 359.305,272.448 352.259 L 274.959 344.777 280.321 341.994 C 334.359 313.955,369.694 261.629,375.483 201.076 C 376.050 195.147,376.209 177.497,375.736 173.089 L 375.435 170.291 378.296 167.061 C 384.324 160.257,387.935 156.301,393.864 150.002 C 400.925 142.501,400.586 143.492,398.692 135.913 C 389.390 98.686,371.248 66.760,344.073 39.795 L 337.531 33.303 328.850 35.374 C 324.076 36.513,315.919 38.324,310.724 39.399 L 301.279 41.353 296.064 37.968 C 273.143 23.084,249.793 14.444,222.419 10.718 C 216.259 9.879,192.433 9.198,187.729 9.726 M218.233 21.952 C 236.499 24.039,251.726 28.262,268.676 35.940 C 273.702 38.217,276.098 39.444,282.024 42.779 L 284.392 44.112 280.732 44.655 C 229.774 52.222,173.483 52.335,124.039 44.969 C 120.151 44.390,116.903 43.849,116.821 43.767 C 116.738 43.685,118.854 42.436,121.522 40.991 C 141.756 30.033,163.530 23.483,186.652 21.398 C 192.911 20.834,211.268 21.155,218.233 21.952 M75.780 47.739 C 79.925 48.689,84.044 49.597,84.935 49.755 C 87.382 50.191,87.274 50.438,83.034 54.094 C 56.025 77.378,31.987 119.548,27.323 151.826 C 27.156 152.983,26.898 154.156,26.749 154.433 C 26.517 154.868,20.296 148.504,14.078 141.469 L 12.440 139.616 13.332 136.122 C 18.956 114.093,30.301 90.356,44.331 71.259 C 51.663 61.279,66.140 45.419,67.555 45.817 C 67.935 45.923,71.636 46.788,75.780 47.739 M339.335 51.561 C 361.545 74.410,377.696 102.872,386.223 134.187 C 387.907 140.371,388.681 138.645,380.002 148.061 C 373.007 155.650,373.594 155.351,372.929 151.668 C 367.532 121.789,351.754 90.663,329.712 66.416 C 325.455 61.732,323.458 59.783,315.638 52.680 C 314.556 51.696,313.767 50.803,313.886 50.694 C 314.080 50.516,332.387 46.257,333.522 46.126 C 333.784 46.096,336.400 48.542,339.335 51.561 M109.864 54.464 C 167.404 64.557,240.711 64.398,294.956 54.062 C 298.617 53.365,298.112 53.144,304.198 58.106 C 334.828 83.078,355.602 118.841,362.313 158.153 C 363.832 167.052,364.104 165.980,358.630 172.659 C 320.273 219.456,288.228 275.475,267.344 332.242 L 265.897 336.174 260.290 338.379 C 220.942 353.855,173.781 353.340,136.910 337.030 L 134.530 335.977 132.428 330.206 C 112.694 276.029,79.533 218.927,39.517 170.217 L 36.626 166.698 37.672 160.020 C 43.979 119.737,65.315 82.992,97.420 57.123 C 102.700 52.869,101.829 53.055,109.864 54.464 M198.278 80.058 C 191.967 81.594,188.858 88.728,191.930 94.622 L 192.842 96.372 191.473 95.980 C 185.397 94.237,179.117 99.071,179.117 105.490 C 179.117 112.276,186.252 117.281,192.316 114.747 C 193.166 114.392,193.947 114.101,194.050 114.101 C 194.618 114.101,189.465 120.826,187.358 122.836 C 180.123 129.737,169.915 129.027,164.014 121.211 C 161.903 118.415,161.861 118.575,164.777 118.274 C 175.428 117.175,175.895 101.133,165.350 98.603 C 162.883 98.011,161.104 98.293,158.586 99.674 L 156.784 100.661 157.186 99.603 C 159.616 93.212,152.957 84.822,145.455 84.822 C 143.844 84.822,143.761 84.473,147.643 93.954 C 154.003 109.487,164.578 135.411,164.922 136.314 C 165.192 137.021,164.850 137.726,163.324 139.609 L 161.384 142.004 159.379 141.116 C 139.994 132.526,125.398 143.458,119.052 171.317 C 117.534 177.982,117.505 177.950,122.067 174.663 C 133.986 166.074,146.701 163.716,150.427 169.402 C 152.872 173.134,160.700 177.767,168.353 180.013 C 176.132 182.295,177.699 183.751,175.493 186.644 C 174.379 188.104,171.449 190.596,171.235 190.265 C 163.336 178.050,152.941 174.040,137.352 177.196 C 119.415 180.827,104.045 177.779,90.958 167.995 C 88.057 165.826,85.684 164.146,85.684 164.262 C 85.684 165.864,93.235 180.519,95.855 184.002 C 104.878 195.996,115.267 197.999,136.706 191.878 C 151.961 187.523,158.684 187.518,166.083 191.854 L 168.048 193.006 165.079 194.888 C 157.497 199.695,152.457 200.024,141.486 196.430 C 137.721 195.197,134.582 194.187,134.509 194.187 C 133.229 194.187,134.227 201.814,136.003 205.610 C 138.728 211.433,146.309 216.146,152.951 216.146 C 155.215 216.146,155.170 216.480,152.515 219.380 C 144.080 228.595,142.370 239.249,147.145 252.853 C 148.533 256.807,148.373 256.750,150.457 254.017 C 152.199 251.733,158.760 245.425,159.394 245.425 C 159.597 245.425,159.444 246.044,159.053 246.799 C 151.281 261.829,154.976 281.234,168.323 295.476 C 171.105 298.446,179.150 305.705,179.658 305.705 C 179.766 305.705,179.963 302.266,180.096 298.062 C 180.444 286.996,182.745 275.042,185.459 270.191 C 185.928 269.354,186.912 273.948,187.949 281.808 C 189.532 293.818,187.807 308.276,184.070 314.316 L 182.605 316.685 186.346 316.811 C 210.893 317.637,227.819 295.429,223.032 268.676 L 222.685 266.738 224.518 268.754 C 229.197 273.899,230.737 281.068,229.311 291.066 C 228.594 296.089,228.362 295.907,232.623 293.663 C 254.669 282.055,262.760 261.170,253.555 239.636 C 251.623 235.116,251.610 235.182,254.099 236.761 C 258.053 239.268,260.816 243.955,262.697 251.346 C 263.902 256.077,263.709 256.014,265.944 252.404 C 278.311 232.432,276.329 209.388,260.654 190.911 C 257.894 187.657,258.442 187.290,262.909 189.404 C 266.281 190.999,267.845 192.596,271.661 198.340 L 274.767 203.014 274.538 196.555 C 273.935 179.580,266.457 165.372,253.573 156.728 C 252.052 155.707,250.751 154.829,250.682 154.777 C 250.612 154.725,251.820 152.817,253.365 150.538 C 257.518 144.413,260.869 136.901,261.573 132.143 L 261.865 130.163 259.179 129.882 C 252.771 129.213,246.355 130.014,240.770 132.183 C 238.974 132.880,237.436 133.381,237.350 133.296 C 237.265 133.211,239.067 128.518,241.355 122.868 C 246.700 109.667,253.299 93.362,255.163 88.751 C 255.964 86.768,256.620 85.072,256.620 84.984 C 256.620 84.505,253.332 84.937,251.362 85.675 C 245.293 87.947,241.722 94.466,243.698 99.664 L 244.124 100.784 242.083 99.585 C 239.171 97.873,235.554 97.925,232.651 99.719 C 224.277 104.896,227.564 118.407,237.198 118.407 C 239.843 118.407,235.274 124.041,231.068 125.967 C 222.814 129.745,215.467 126.913,208.761 117.368 C 206.350 113.936,206.352 113.874,208.814 114.742 C 212.741 116.128,216.416 115.178,219.239 112.046 C 225.710 104.869,218.643 93.326,209.401 95.976 L 208.043 96.365 209.077 94.146 C 212.579 86.624,206.088 78.157,198.278 80.058 M254.230 136.598 C 251.112 146.840,240.651 157.624,231.184 160.358 L 228.783 161.051 229.263 163.703 C 229.526 165.161,229.967 166.430,230.242 166.521 C 231.826 167.049,240.149 163.162,245.250 159.510 C 246.923 158.313,255.322 164.648,259.867 170.536 C 262.589 174.062,266.954 182.659,266.954 184.494 C 266.954 184.599,266.125 184.329,265.111 183.894 C 259.960 181.686,254.242 181.551,247.017 183.465 L 245.380 183.899 250.582 188.884 C 266.488 204.122,271.653 220.403,266.300 238.429 C 265.501 241.117,265.299 241.176,264.093 239.071 C 260.344 232.525,253.185 228.356,244.887 227.885 C 239.956 227.605,240.075 227.344,243.011 232.031 C 255.903 252.607,253.612 272.215,236.927 284.096 L 235.652 285.004 235.565 282.026 C 235.250 271.236,228.370 261.545,218.292 257.694 C 214.439 256.221,214.520 256.077,215.841 262.101 C 221.633 288.511,213.321 306.571,193.717 310.171 L 192.170 310.455 192.933 306.941 C 195.429 295.438,194.799 282.712,190.891 265.662 C 188.895 256.955,189.306 257.345,185.672 260.711 C 179.840 266.110,176.406 274.978,174.760 288.888 L 174.228 293.385 172.113 291.041 C 157.576 274.933,157.396 254.357,171.649 237.940 C 175.628 233.357,176.300 232.466,175.601 232.699 C 175.285 232.804,172.896 233.414,170.291 234.055 C 162.968 235.856,159.069 237.833,153.583 242.525 C 150.511 245.154,150.481 245.124,150.500 239.469 C 150.546 225.474,157.384 219.090,183.375 208.780 C 184.962 208.151,184.319 208.031,181.485 208.428 C 158.205 211.688,149.011 211.223,143.920 206.530 C 141.659 204.446,140.197 202.040,141.507 202.557 C 153.494 207.293,164.154 204.435,177.361 192.946 C 186.487 185.006,183.813 178.392,169.845 174.357 C 162.821 172.328,157.706 169.292,154.507 165.253 C 150.195 159.809,139.345 159.095,129.676 163.619 C 128.161 164.328,126.855 164.909,126.774 164.909 C 126.516 164.909,128.708 159.346,129.881 157.023 C 135.843 145.219,144.878 141.710,156.928 146.520 L 160.388 147.901 160.704 150.484 C 162.563 165.671,180.605 168.994,187.002 155.328 C 188.497 152.134,188.723 151.992,190.168 153.350 L 191.156 154.278 193.268 152.302 L 195.381 150.327 194.461 149.505 C 189.994 145.512,184.203 144.164,176.207 145.255 C 171.099 145.951,167.664 145.848,166.788 144.972 C 166.435 144.620,170.234 140.238,172.175 138.757 L 174.017 137.352 202.430 137.352 L 230.842 137.352 227.692 139.881 C 220.872 145.358,220.552 145.990,223.438 148.266 L 225.347 149.772 228.389 146.939 C 235.742 140.092,244.920 135.792,252.451 135.665 C 254.409 135.632,254.509 135.684,254.230 136.598 M243.527 142.295 C 240.112 143.500,234.816 146.585,231.933 149.050 L 229.956 150.740 230.887 152.658 C 232.048 155.048,232.737 155.095,236.675 153.048 C 240.051 151.293,243.443 148.149,245.883 144.515 C 248.408 140.753,248.269 140.622,243.527 142.295 M182.319 152.069 C 180.128 158.280,174.016 160.266,169.446 156.254 C 168.170 155.134,166.196 151.368,166.676 150.970 C 167.085 150.631,169.645 151.639,169.645 152.138 C 169.645 153.311,172.130 155.100,174.062 155.318 C 177.095 155.660,179.978 153.525,179.978 150.936 C 179.978 150.462,180.410 150.269,181.466 150.269 L 182.954 150.269 182.319 152.069 M230.323 175.155 L 229.381 178.082 231.436 181.076 C 236.807 188.897,238.810 197.851,236.985 205.877 C 236.251 209.106,235.943 209.200,235.091 206.459 C 233.001 199.726,228.341 194.371,222.414 191.890 C 217.821 189.968,218.148 189.645,219.437 194.835 C 222.638 207.718,220.324 219.083,213.511 223.934 L 212.301 224.795 212.939 222.731 C 215.351 214.923,213.525 207.572,207.667 201.507 L 204.547 198.278 204.531 201.722 C 204.498 208.681,202.898 214.041,199.804 217.566 C 197.992 219.629,197.627 219.577,198.148 217.330 C 198.892 214.119,197.714 206.648,196.470 206.684 C 195.465 206.713,191.838 209.164,191.985 209.714 C 193.512 215.437,192.091 219.584,186.711 225.103 L 183.227 228.677 186.232 228.414 C 196.820 227.489,202.018 224.955,206.212 218.674 L 207.966 216.048 207.966 217.526 C 207.966 220.883,206.175 225.145,202.219 231.206 C 199.363 235.581,199.163 235.286,204.279 234.257 C 218.245 231.448,226.569 221.391,226.663 207.214 C 226.701 201.562,226.592 201.767,228.040 204.626 C 230.258 209.003,230.855 211.943,231.099 219.699 C 231.224 223.665,231.447 226.901,231.594 226.889 C 231.742 226.876,233.122 225.239,234.661 223.249 C 246.548 207.885,246.593 190.588,234.785 175.655 C 231.502 171.504,231.499 171.503,230.323 175.155 M181.593 174.276 C 180.155 174.473,180.010 175.242,181.412 175.242 C 182.842 175.242,186.049 177.494,188.159 179.978 C 191.997 184.499,195.530 185.672,200.353 184.029 C 203.181 183.065,203.112 182.780,200.046 182.760 C 196.976 182.741,195.592 182.053,191.221 178.375 C 187.164 174.961,184.591 173.865,181.593 174.276 M112.114 183.618 C 120.504 185.081,129.486 184.869,138.428 182.998 C 144.440 181.741,145.730 181.607,148.749 181.931 C 151.816 182.259,152.588 182.992,149.867 182.992 C 147.532 182.992,142.935 183.993,136.060 185.997 C 117.508 191.405,109.527 190.652,102.368 182.822 C 100.140 180.384,100.241 180.335,104.614 181.741 C 106.737 182.424,110.112 183.269,112.114 183.618 M364.542 190.635 C 362.144 247.551,332.614 297.548,284.259 326.558 C 280.730 328.675,280.745 328.808,283.697 321.597 C 300.658 280.165,321.075 242.993,346.111 207.966 C 354.013 196.910,364.021 183.854,364.594 183.854 C 364.723 183.854,364.699 186.905,364.542 190.635 M42.293 192.141 C 71.971 230.654,96.079 272.263,114.951 317.546 C 120.100 329.900,120.061 328.987,115.318 326.114 C 67.059 296.877,35.793 242.949,35.742 188.860 C 35.736 183.214,35.210 182.951,42.293 192.141 M259.192 355.867 C 258.282 358.708,256.847 363.274,256.003 366.013 L 254.469 370.993 247.256 372.784 C 216.190 380.494,183.889 380.425,153.068 372.583 C 145.494 370.656,145.800 370.842,144.901 367.617 C 144.485 366.128,143.184 361.838,142.011 358.085 C 140.837 354.332,139.947 351.190,140.033 351.104 C 140.120 351.018,142.568 351.722,145.473 352.670 C 181.655 364.470,223.901 364.067,257.912 351.597 C 261.319 350.348,261.145 349.767,259.192 355.867 " stroke="none" fill-rule="evenodd"></path></g></svg>