<svg id="svg" xmlns="http://www.w3.org/2000/svg"  width="400" height="305.1063829787234" viewBox="0, 0, 400,305.1063829787234"><g id="svgg"><path id="path0" d="M139.317 1.055 C 134.634 2.139,134.057 2.399,122.766 8.514 C 118.553 10.795,102.947 19.220,88.085 27.235 C 73.223 35.249,56.372 44.344,50.638 47.445 C 44.904 50.546,33.032 56.964,24.255 61.706 C 3.485 72.931,2.226 73.912,0.920 79.894 C 0.283 82.813,0.021 129.916,0.355 181.489 L 0.638 225.319 1.775 227.743 C 4.165 232.844,0.750 230.749,50.213 257.444 C 62.032 263.822,76.394 271.578,82.128 274.679 C 137.250 304.491,134.769 303.222,140.000 304.279 C 146.301 305.552,253.773 305.546,259.946 304.272 C 265.133 303.202,264.991 303.273,299.787 284.480 C 316.170 275.632,341.447 261.984,355.957 254.151 C 393.116 234.091,393.165 234.064,394.886 232.510 C 396.731 230.842,398.398 227.897,399.316 224.681 C 399.914 222.590,399.974 214.821,399.883 151.702 L 399.780 81.064 398.847 78.776 C 396.766 73.677,394.833 71.936,386.114 67.306 C 367.907 57.638,352.827 49.539,345.957 45.740 C 341.628 43.346,329.372 36.690,318.723 30.950 C 308.074 25.210,293.713 17.427,286.809 13.655 C 258.657 -1.726,269.652 -0.007,199.634 0.030 L 143.617 0.059 139.317 1.055 M259.005 9.858 C 262.952 11.086,263.393 11.312,292.128 26.805 C 304.460 33.454,310.797 36.883,318.723 41.196 C 322.819 43.425,327.894 46.152,330.000 47.256 C 332.106 48.360,336.511 50.748,339.787 52.563 C 343.064 54.377,348.521 57.337,351.915 59.140 C 355.309 60.943,362.872 65.007,368.723 68.171 C 374.574 71.336,381.436 75.045,383.972 76.415 C 391.021 80.223,390.378 77.802,390.684 101.702 C 391.148 138.054,390.629 223.001,389.935 224.364 C 389.170 225.866,388.541 226.248,374.043 234.036 C 359.119 242.053,358.889 242.177,352.340 245.753 C 349.415 247.350,345.011 249.734,342.553 251.049 C 337.821 253.582,329.791 257.937,321.702 262.357 C 319.011 263.827,314.128 266.454,310.851 268.193 C 307.574 269.932,301.447 273.233,297.234 275.530 C 293.021 277.827,285.745 281.760,281.064 284.271 C 276.383 286.782,270.543 289.931,268.085 291.269 C 258.319 296.585,264.086 296.171,199.867 296.164 C 134.976 296.156,142.173 296.741,130.638 290.540 C 129.117 289.723,124.043 287.000,119.362 284.491 C 114.681 281.981,108.936 278.872,106.596 277.582 C 104.255 276.291,98.606 273.222,94.043 270.761 C 89.479 268.299,81.053 263.753,75.319 260.657 C 69.585 257.561,61.064 252.966,56.383 250.445 C 51.702 247.924,44.809 244.183,41.064 242.130 C 37.319 240.078,29.660 235.958,24.043 232.974 C 12.889 227.050,11.393 226.092,10.178 224.100 C 9.386 222.801,9.365 220.924,9.363 152.333 L 9.362 81.900 10.377 80.405 C 11.109 79.328,12.746 78.186,16.228 76.320 C 18.888 74.896,27.670 70.132,35.745 65.735 C 43.819 61.337,53.394 56.179,57.021 54.272 C 60.649 52.365,68.069 48.374,73.511 45.403 C 88.095 37.439,101.561 30.140,112.128 24.473 C 117.277 21.712,124.362 17.869,127.872 15.935 C 135.182 11.906,138.698 10.355,142.332 9.556 C 146.540 8.631,255.973 8.914,259.005 9.858 M320.851 87.351 C 320.734 87.477,316.234 87.692,310.851 87.831 C 301.555 88.069,299.556 88.238,292.553 89.378 C 282.060 91.084,274.688 97.085,272.642 105.586 C 272.508 106.141,272.188 107.435,271.929 108.461 C 271.426 110.459,271.295 111.141,270.653 115.106 C 269.541 121.975,268.853 127.308,268.100 134.894 C 267.647 139.457,267.191 143.900,267.086 144.766 L 266.895 146.341 269.179 146.815 C 276.309 148.295,281.471 158.673,277.389 163.322 L 276.055 164.842 277.708 165.422 C 280.722 166.479,287.966 167.633,293.082 167.871 C 297.295 168.067,335.432 168.074,337.447 167.880 C 355.009 166.182,361.920 161.601,365.089 149.555 C 368.364 137.104,365.804 133.875,352.679 133.905 C 342.184 133.929,340.186 134.787,338.871 139.837 C 337.632 144.597,337.833 144.534,322.553 144.938 C 309.368 145.287,299.280 144.668,297.202 143.385 C 294.848 141.930,294.753 136.791,296.848 124.255 C 298.472 114.538,299.591 112.301,303.243 111.478 C 305.421 110.986,335.225 110.999,337.067 111.493 C 337.861 111.705,339.037 111.987,339.681 112.118 C 340.752 112.336,340.851 112.521,340.851 114.304 C 340.851 118.943,342.313 119.689,351.853 119.913 C 362.419 120.161,364.964 119.210,367.560 114.043 C 368.901 111.372,369.585 105.248,368.841 102.553 C 368.745 102.202,368.511 101.245,368.323 100.426 C 366.484 92.418,356.101 87.209,342.977 87.709 C 341.925 87.749,336.564 87.634,331.064 87.453 C 325.564 87.272,320.968 87.226,320.851 87.351 M44.468 88.896 C 38.723 90.364,36.288 93.844,35.359 101.915 C 35.116 104.021,34.806 106.606,34.670 107.660 C 34.534 108.713,34.330 110.628,34.218 111.915 C 34.106 113.202,33.915 114.535,33.795 114.877 C 33.565 115.527,32.313 125.023,31.284 133.913 C 30.728 138.723,30.346 141.820,28.697 154.894 C 27.478 164.554,30.030 167.227,40.479 167.232 C 47.432 167.235,48.085 167.065,48.085 165.252 C 48.085 163.556,51.941 157.716,54.307 155.828 C 55.346 154.999,55.745 154.339,55.745 153.447 C 55.745 152.769,56.217 148.652,56.794 144.298 C 57.370 139.945,57.946 135.043,58.073 133.404 C 58.369 129.579,58.662 126.852,59.146 123.404 C 59.360 121.883,59.766 118.963,60.049 116.915 C 60.762 111.744,60.750 111.735,63.434 119.519 C 64.109 121.478,64.829 123.297,65.033 123.562 C 65.238 123.826,66.217 126.436,67.210 129.362 C 68.202 132.287,69.271 135.255,69.584 135.957 C 70.113 137.141,73.147 144.741,74.104 147.282 L 74.523 148.393 79.070 147.200 C 81.571 146.544,84.670 145.711,85.957 145.349 C 87.245 144.987,88.872 144.682,89.574 144.671 C 90.277 144.660,91.330 144.377,91.915 144.043 C 92.541 143.685,94.171 143.428,95.875 143.419 C 97.469 143.411,99.575 143.229,100.556 143.014 C 104.411 142.172,108.391 141.650,112.506 141.448 C 118.683 141.145,120.284 140.903,120.284 140.271 C 120.284 139.968,120.938 138.787,121.738 137.644 C 122.537 136.502,124.915 132.764,127.021 129.337 C 129.128 125.910,131.665 121.915,132.660 120.459 C 133.654 119.003,134.468 117.722,134.468 117.613 C 134.468 117.503,135.149 116.415,135.981 115.196 L 137.495 112.979 137.241 115.532 C 137.101 116.936,136.802 119.265,136.576 120.708 C 136.350 122.151,135.986 124.927,135.766 126.878 C 135.160 132.262,134.107 139.551,133.885 139.911 C 133.776 140.088,135.648 140.159,138.046 140.070 C 149.602 139.643,154.842 145.779,151.894 156.288 C 150.388 161.656,139.992 164.979,133.993 162.010 C 132.850 161.444,131.915 161.039,131.915 161.109 C 131.915 167.145,147.080 169.661,154.162 164.800 L 155.771 163.696 157.082 165.036 C 157.803 165.774,159.090 166.582,159.941 166.832 C 161.694 167.347,177.324 167.163,179.324 166.604 C 181.720 165.934,184.821 162.984,187.599 158.731 C 188.901 156.737,190.166 154.966,190.409 154.794 C 191.239 154.207,235.504 154.406,236.248 155.000 C 236.615 155.293,237.438 156.930,238.077 158.638 C 238.716 160.347,239.713 162.307,240.291 162.994 L 241.342 164.243 242.466 162.866 C 243.867 161.151,249.460 154.939,250.503 153.940 C 255.446 149.205,259.609 146.383,261.653 146.383 C 263.023 146.383,263.889 145.907,263.486 145.376 C 263.286 145.111,262.869 144.223,262.561 143.404 C 262.252 142.585,261.722 141.245,261.382 140.426 C 260.345 137.926,260.119 137.342,258.996 134.255 C 258.400 132.617,256.732 128.404,255.289 124.894 C 253.846 121.383,252.353 117.725,251.971 116.764 C 251.589 115.803,249.676 111.016,247.721 106.126 C 240.320 87.619,241.487 88.369,220.426 88.586 L 207.021 88.723 204.595 89.915 C 201.845 91.265,199.107 94.084,196.727 98.015 C 195.854 99.458,194.987 100.830,194.800 101.064 C 194.613 101.298,192.212 104.942,189.464 109.161 C 186.716 113.381,184.085 117.340,183.617 117.959 C 182.880 118.934,180.439 122.605,176.596 128.517 C 176.011 129.417,173.736 132.992,171.542 136.460 C 169.347 139.928,167.384 142.830,167.180 142.908 C 166.976 142.986,166.809 143.250,166.809 143.495 C 166.809 143.740,166.138 144.874,165.319 146.014 C 164.500 147.154,163.830 148.177,163.830 148.286 C 163.830 148.975,159.393 154.863,159.159 154.485 C 158.857 153.996,159.121 151.636,161.202 136.170 C 161.911 130.904,162.883 123.436,163.363 119.574 C 164.646 109.256,165.573 101.827,165.939 98.936 C 166.607 93.665,164.289 89.871,159.837 88.947 C 158.319 88.631,152.377 88.513,142.282 88.597 C 120.763 88.775,123.493 86.834,108.594 112.553 C 99.263 128.660,99.044 129.030,97.806 130.770 C 96.321 132.855,96.912 134.152,90.266 114.213 C 81.052 86.567,83.537 88.759,61.277 88.647 C 52.734 88.605,45.170 88.716,44.468 88.896 M221.277 114.468 C 222.160 116.691,223.414 119.947,224.063 121.702 C 224.712 123.457,225.702 126.043,226.262 127.447 C 226.823 128.851,227.540 130.814,227.855 131.809 L 228.427 133.617 216.106 133.617 L 203.785 133.617 205.032 131.346 C 205.717 130.097,207.282 127.560,208.509 125.708 C 211.364 121.399,215.896 114.143,216.593 112.766 C 218.408 109.176,219.306 109.503,221.277 114.468 M133.830 147.693 C 132.426 147.884,126.522 148.244,120.711 148.494 C 114.901 148.744,108.869 149.135,107.307 149.362 C 89.739 151.922,83.332 153.343,73.896 156.775 C 71.593 157.612,69.336 158.298,68.882 158.298 C 68.428 158.298,67.110 158.778,65.952 159.364 C 64.795 159.951,62.894 160.635,61.729 160.885 C 57.128 161.872,53.782 166.974,56.170 169.362 C 57.523 170.715,58.672 170.409,60.811 168.127 C 62.927 165.870,63.739 165.384,68.667 163.427 C 75.957 160.531,100.854 154.468,105.454 154.468 L 107.447 154.469 101.177 160.532 C 93.170 168.276,87.870 174.070,82.204 181.277 C 79.719 184.436,77.441 187.174,77.141 187.362 C 76.841 187.549,76.596 188.237,76.596 188.891 C 76.596 189.577,76.206 190.424,75.676 190.891 C 74.244 192.153,69.787 199.231,69.787 200.243 C 69.787 200.741,69.247 201.896,68.586 202.808 C 67.278 204.615,66.519 206.547,65.148 211.559 C 64.018 215.688,64.026 215.904,65.430 218.723 C 68.506 224.900,76.708 224.053,76.044 217.627 C 75.876 215.991,76.003 214.808,76.468 213.706 C 76.835 212.838,77.467 210.772,77.875 209.116 C 78.643 205.991,79.191 204.700,80.430 203.103 C 80.830 202.586,81.991 200.049,83.010 197.465 C 84.151 194.568,85.139 192.678,85.584 192.537 C 86.035 192.393,86.504 191.476,86.834 190.090 C 87.205 188.528,87.905 187.266,89.199 185.820 C 90.210 184.691,91.624 182.741,92.342 181.486 C 93.060 180.231,94.399 178.295,95.318 177.183 C 96.237 176.072,97.097 174.668,97.229 174.065 C 97.382 173.371,98.173 172.524,99.385 171.757 C 101.137 170.649,103.830 167.440,103.830 166.461 C 103.830 166.082,110.522 160.318,112.960 158.597 C 114.083 157.804,114.329 156.649,113.647 155.375 C 112.706 153.616,113.537 153.417,122.857 153.168 C 132.627 152.907,133.798 153.037,136.115 154.642 C 139.847 157.229,145.106 155.537,145.106 151.750 C 145.106 147.491,142.422 146.525,133.830 147.693 M261.489 154.409 C 258.814 156.061,248.329 166.974,247.317 169.159 C 246.727 170.435,245.763 171.653,244.892 172.224 C 243.089 173.406,237.611 180.410,236.480 182.979 C 236.016 184.032,234.959 185.730,234.132 186.753 C 233.304 187.775,231.875 190.354,230.957 192.483 C 230.039 194.613,228.921 196.870,228.474 197.499 C 228.026 198.128,227.657 199.091,227.654 199.640 C 227.643 201.479,227.170 202.446,226.028 202.965 C 225.404 203.249,222.787 204.785,220.213 206.378 C 217.638 207.971,215.072 209.412,214.510 209.580 C 213.947 209.748,212.535 210.447,211.371 211.134 C 208.597 212.769,207.854 212.614,207.934 210.416 C 208.025 207.939,208.499 206.334,209.563 204.894 C 210.437 203.711,211.937 200.184,212.798 197.290 C 213.356 195.413,212.351 193.528,210.082 192.198 C 207.146 190.477,205.230 190.878,200.499 194.203 C 199.293 195.051,198.104 195.745,197.857 195.745 C 197.100 195.745,191.237 199.104,190.421 200.005 C 190.000 200.470,189.384 200.851,189.052 200.851 C 188.720 200.851,187.744 201.522,186.884 202.342 C 184.739 204.387,181.386 207.151,180.047 207.979 C 179.436 208.357,178.457 209.088,177.872 209.604 C 173.458 213.498,173.942 207.444,178.596 200.534 C 183.316 193.526,178.959 188.575,172.948 194.116 L 171.079 195.839 170.646 194.700 C 170.408 194.074,170.213 193.418,170.213 193.243 C 170.213 193.068,169.660 192.395,168.984 191.748 C 164.696 187.640,149.704 193.732,137.872 204.392 C 133.679 208.170,133.608 208.220,128.298 211.077 C 122.226 214.344,114.468 216.453,114.468 214.837 C 114.468 214.288,116.078 211.557,116.899 210.714 C 117.200 210.405,117.447 209.949,117.447 209.700 C 117.447 209.212,119.000 207.498,123.511 203.006 C 126.376 200.153,126.839 199.131,125.985 197.547 C 125.765 197.141,125.079 195.372,124.460 193.617 C 122.672 188.550,122.533 188.351,120.412 187.836 C 117.303 187.080,113.385 188.874,107.076 193.943 C 106.404 194.483,105.255 195.202,104.523 195.539 C 103.791 195.877,102.138 196.933,100.851 197.886 C 99.564 198.839,97.649 200.003,96.596 200.474 C 92.902 202.124,91.244 204.566,92.173 206.986 C 92.656 208.246,96.090 207.104,100.709 204.147 C 101.685 203.523,103.025 202.878,103.688 202.713 C 104.351 202.548,105.564 201.880,106.383 201.228 C 108.178 199.798,113.939 196.596,114.715 196.596 C 116.265 196.596,115.674 198.358,112.916 201.965 C 112.042 203.107,110.834 205.000,110.232 206.170 C 109.630 207.340,108.800 208.798,108.388 209.409 C 104.666 214.930,109.363 222.340,116.584 222.340 C 119.322 222.340,125.836 219.898,126.724 218.539 C 127.197 217.816,129.697 216.170,130.323 216.170 C 130.637 216.170,131.111 215.953,131.376 215.688 C 132.198 214.865,133.036 215.585,133.600 217.600 C 135.493 224.361,143.332 223.462,154.846 215.164 C 157.008 213.606,159.553 211.934,160.503 211.450 C 161.452 210.966,162.965 209.819,163.864 208.902 C 166.165 206.554,166.847 206.673,166.690 209.393 C 166.622 210.581,166.716 211.645,166.900 211.759 C 167.084 211.872,167.234 212.583,167.234 213.339 C 167.234 217.342,172.753 219.129,177.447 216.647 C 178.500 216.089,180.134 215.228,181.079 214.732 C 182.023 214.236,183.172 213.484,183.632 213.062 C 184.092 212.640,185.569 211.420,186.915 210.351 C 188.261 209.281,189.363 208.095,189.365 207.714 C 189.370 206.871,192.176 203.830,192.948 203.830 C 193.253 203.830,194.049 203.399,194.718 202.872 C 195.926 201.920,197.242 201.339,200.794 200.188 C 203.471 199.320,203.504 199.558,201.314 203.927 C 198.737 209.065,197.966 212.186,198.646 214.727 C 198.923 215.762,199.149 216.988,199.149 217.453 C 199.149 219.818,202.876 221.211,206.420 220.170 C 209.074 219.391,216.826 215.622,218.085 214.498 C 218.553 214.081,220.115 212.950,221.556 211.987 C 222.997 211.023,224.557 209.751,225.022 209.160 C 226.237 207.615,226.422 207.807,226.138 210.319 C 225.161 218.983,235.735 223.354,244.500 217.910 C 245.653 217.194,247.266 216.271,248.085 215.857 C 248.904 215.444,249.923 214.676,250.350 214.149 C 251.734 212.440,253.785 212.823,254.477 214.920 C 254.790 215.870,255.443 216.858,255.928 217.115 C 256.412 217.372,257.041 217.909,257.326 218.310 C 258.425 219.858,260.548 220.409,265.585 220.455 L 270.434 220.499 275.536 218.433 C 278.342 217.297,281.112 216.036,281.690 215.631 C 282.269 215.225,283.054 214.894,283.435 214.894 C 283.816 214.894,284.899 214.335,285.841 213.653 C 286.783 212.970,288.326 212.018,289.269 211.537 C 290.212 211.056,291.337 210.220,291.768 209.679 C 292.200 209.138,293.319 208.241,294.255 207.685 C 295.191 207.130,296.532 206.174,297.234 205.562 C 299.395 203.679,301.204 202.553,302.070 202.553 C 302.526 202.553,303.709 201.876,304.699 201.048 C 305.690 200.221,307.671 198.965,309.101 198.258 C 310.532 197.551,312.034 196.747,312.439 196.472 C 315.419 194.448,314.137 199.218,310.631 203.191 C 309.975 203.935,308.312 206.818,306.580 210.213 C 303.362 216.520,310.158 224.221,317.117 222.154 C 319.572 221.425,325.106 218.709,325.106 218.233 C 325.106 218.023,325.585 217.669,326.170 217.447 C 326.755 217.224,327.234 216.846,327.234 216.606 C 327.234 216.366,327.578 216.170,327.999 216.170 C 328.420 216.170,330.383 215.117,332.361 213.830 C 334.339 212.544,336.439 211.178,337.027 210.795 C 339.960 208.889,342.235 203.878,340.734 202.633 C 339.918 201.956,338.102 202.606,337.461 203.804 C 337.054 204.564,336.080 205.297,331.093 208.596 C 321.503 214.940,310.841 217.800,313.563 213.299 C 314.094 212.421,314.850 210.984,315.243 210.107 C 315.636 209.229,316.245 208.416,316.596 208.299 C 316.947 208.182,317.675 207.438,318.213 206.645 C 318.752 205.852,320.163 204.385,321.348 203.385 C 324.739 200.526,324.978 199.509,323.258 195.231 C 322.478 193.290,321.708 191.170,321.547 190.519 C 320.623 186.787,315.530 186.789,310.826 190.523 C 309.642 191.462,308.259 192.363,307.752 192.524 C 307.245 192.685,306.491 193.238,306.075 193.753 C 305.659 194.269,304.482 195.063,303.458 195.519 C 302.434 195.974,300.918 196.886,300.089 197.545 C 299.260 198.204,298.087 198.859,297.483 199.002 C 296.878 199.144,296.000 199.574,295.532 199.957 C 293.183 201.880,286.957 205.971,284.468 207.227 C 283.298 207.818,281.867 208.636,281.288 209.044 C 280.710 209.453,279.910 209.787,279.512 209.787 C 279.114 209.787,278.247 210.227,277.586 210.764 C 276.518 211.632,273.450 212.931,268.936 214.426 C 260.753 217.137,256.182 212.924,263.903 209.787 C 265.268 209.233,266.402 208.484,266.511 208.066 C 266.618 207.658,267.260 207.203,267.938 207.054 C 268.616 206.905,270.175 206.023,271.402 205.094 C 272.630 204.164,273.910 203.404,274.247 203.404 C 274.585 203.404,275.203 203.054,275.622 202.625 C 276.040 202.197,277.477 201.412,278.813 200.880 C 280.150 200.349,281.466 199.647,281.738 199.319 C 282.009 198.991,282.469 198.723,282.759 198.723 C 283.049 198.723,284.188 197.883,285.291 196.857 C 291.588 190.992,281.037 187.528,269.574 191.697 C 266.332 192.876,262.272 195.472,261.916 196.594 C 261.765 197.068,261.129 197.730,260.502 198.066 C 259.128 198.800,256.596 201.165,256.596 201.713 C 256.596 201.929,255.973 202.422,255.213 202.809 C 254.452 203.196,253.213 204.110,252.458 204.841 C 249.889 207.331,248.733 208.298,247.943 208.618 C 247.509 208.794,247.054 209.321,246.932 209.788 C 246.809 210.256,246.521 210.638,246.291 210.638 C 245.252 210.638,243.052 212.053,242.621 212.999 C 242.339 213.618,241.787 214.043,241.265 214.043 C 240.780 214.043,239.807 214.341,239.102 214.705 C 235.039 216.806,233.191 214.381,233.865 207.831 L 234.255 204.043 236.683 204.171 C 239.081 204.298,239.123 204.280,240.138 202.682 C 240.703 201.792,242.005 200.244,243.030 199.241 C 244.055 198.238,245.603 196.611,246.470 195.624 C 247.336 194.637,248.916 192.852,249.980 191.658 C 251.044 190.464,251.915 189.239,251.915 188.938 C 251.915 188.636,252.490 187.794,253.192 187.067 C 256.597 183.541,265.558 170.107,267.906 165.008 C 269.228 162.137,270.570 159.491,270.888 159.128 C 273.486 156.167,265.298 152.056,261.489 154.409 M263.908 163.632 C 263.834 164.326,263.068 166.098,262.206 167.569 C 261.344 169.041,260.238 170.983,259.748 171.885 C 259.258 172.787,258.170 174.129,257.330 174.866 C 256.490 175.604,255.079 177.300,254.195 178.636 C 253.310 179.971,250.999 182.569,249.059 184.408 C 247.104 186.262,245.532 188.105,245.532 188.543 C 245.532 188.979,245.068 189.580,244.500 189.880 C 243.932 190.180,242.392 191.454,241.077 192.712 C 239.762 193.969,238.591 194.903,238.475 194.787 C 238.047 194.359,239.495 191.084,241.369 188.245 C 242.431 186.636,243.432 184.888,243.594 184.362 C 243.755 183.835,244.166 183.404,244.507 183.404 C 244.848 183.404,245.303 182.941,245.519 182.375 C 246.131 180.765,248.630 177.621,253.159 172.766 C 255.451 170.309,258.549 166.904,260.043 165.201 C 262.921 161.921,264.144 161.425,263.908 163.632 M216.604 169.908 C 213.378 171.540,214.256 176.839,217.934 177.941 C 220.058 178.578,221.616 177.578,222.529 174.993 C 223.795 171.412,220.025 168.177,216.604 169.908 M278.884 194.809 C 279.087 195.138,276.506 197.447,275.935 197.447 C 275.781 197.447,274.957 197.981,274.104 198.633 C 271.098 200.932,265.690 203.830,264.405 203.830 C 263.903 203.830,264.468 202.655,265.904 200.711 C 268.378 197.362,277.811 193.073,278.884 194.809 M167.647 199.441 C 167.910 199.677,164.512 202.795,159.616 206.809 C 156.344 209.492,145.431 215.121,142.636 215.568 C 136.739 216.511,146.049 204.815,153.617 201.773 C 160.321 199.078,166.159 198.108,167.647 199.441 " stroke="none" fill-rule="evenodd"></path></g></svg>