<svg id="svg" xmlns="http://www.w3.org/2000/svg"  width="400" height="400" viewBox="0, 0, 400,400"><g id="svgg"><path id="path0" d="M63.563 180.759 C 63.561 193.805,63.498 195.640,63.132 193.274 C 62.915 191.874,62.084 188.285,61.939 188.127 C 61.853 188.033,40.066 187.577,35.393 187.571 L 33.941 187.570 33.941 178.396 L 33.941 169.222 30.927 169.300 C 16.119 169.686,4.054 179.216,0.984 192.952 C -2.429 208.216,3.836 221.390,17.789 228.289 C 36.110 237.348,58.951 226.274,62.996 206.372 C 63.185 205.439,63.384 204.784,63.448 204.883 C 63.510 204.981,63.562 211.208,63.563 218.720 L 63.565 232.378 64.384 232.378 L 65.203 232.378 65.203 199.926 L 65.203 167.473 64.384 167.473 L 63.565 167.473 63.563 180.759 M221.660 169.106 C 208.220 170.497,194.329 184.029,193.572 196.470 C 193.521 197.312,193.430 198.031,193.370 198.068 C 193.246 198.145,193.570 198.919,186.696 182.136 L 181.513 169.483 171.236 169.444 L 160.959 169.406 160.433 170.859 C 158.516 176.152,142.262 219.529,142.153 219.643 C 142.071 219.728,142.017 212.747,142.017 202.133 C 142.017 181.494,142.069 182.207,140.296 178.563 C 134.424 166.496,115.087 166.427,108.976 178.452 C 108.385 179.616,108.428 179.627,107.642 178.116 C 101.333 165.994,82.790 166.175,76.626 178.419 C 74.476 182.691,74.581 181.148,74.581 208.471 L 74.581 231.932 84.701 231.932 L 94.821 231.932 94.864 211.277 C 94.911 188.576,94.854 189.905,95.827 189.050 C 96.875 188.130,98.757 188.731,99.545 190.236 L 99.888 190.892 99.888 198.311 L 99.888 205.731 108.001 205.731 L 116.115 205.731 116.118 198.325 C 116.121 191.462,116.141 190.875,116.394 190.318 C 117.361 188.189,120.457 188.038,121.027 190.092 C 121.121 190.429,121.175 198.208,121.175 211.500 L 121.176 232.378 140.863 232.375 L 160.551 232.373 166.113 217.879 C 169.173 209.908,171.727 203.303,171.789 203.202 C 171.874 203.064,174.675 210.985,175.039 212.393 C 175.075 212.534,174.654 212.579,173.290 212.579 L 171.492 212.579 171.492 222.479 L 171.492 232.378 188.389 232.378 C 197.681 232.378,205.285 232.353,205.285 232.321 C 205.285 232.290,204.844 230.900,204.306 229.232 C 203.767 227.565,203.194 225.765,203.032 225.233 C 202.870 224.700,202.708 224.176,202.671 224.066 C 202.635 223.957,203.124 224.348,203.759 224.934 C 207.563 228.450,211.748 230.647,216.988 231.876 C 219.310 232.421,226.173 232.581,228.921 232.154 C 241.125 230.259,251.974 222.194,254.597 213.066 C 254.791 212.393,254.979 211.816,255.015 211.785 C 255.051 211.755,256.319 212.339,257.834 213.085 L 260.588 214.440 260.626 223.409 L 260.665 232.378 281.404 232.378 L 302.144 232.378 307.653 218.524 C 310.684 210.904,313.217 204.657,313.282 204.642 C 313.386 204.618,316.337 212.176,316.338 212.467 C 316.338 212.529,315.400 212.579,314.254 212.579 L 312.170 212.579 312.170 222.404 L 312.170 232.229 338.147 232.229 L 364.124 232.229 364.127 223.632 C 364.130 214.065,364.106 214.313,365.149 213.435 C 366.407 212.376,368.055 212.663,369.156 214.132 C 369.642 214.781,370.845 217.895,374.633 228.320 L 376.107 232.376 388.062 232.377 C 394.638 232.378,399.988 232.328,399.951 232.266 C 399.845 232.090,391.217 208.147,391.217 208.031 C 391.217 207.974,391.803 207.314,392.520 206.564 C 399.387 199.377,401.009 190.618,397.023 182.246 C 393.927 175.745,387.756 170.523,381.855 169.411 C 381.339 169.313,374.203 169.259,361.796 169.259 L 342.538 169.259 342.538 178.787 L 342.538 188.314 358.683 188.314 C 370.164 188.314,375.055 188.363,375.616 188.483 C 377.622 188.913,378.160 190.806,376.677 192.216 C 375.732 193.114,376.479 193.078,358.746 193.078 L 342.538 193.078 342.538 204.392 C 342.538 210.792,342.481 215.705,342.407 215.705 C 342.260 215.705,341.784 214.539,331.290 188.425 L 323.707 169.556 313.907 169.594 L 304.107 169.632 300.062 179.082 L 296.018 188.532 295.980 178.970 L 295.941 169.408 285.745 169.408 L 275.549 169.408 275.549 181.667 L 275.549 193.926 275.111 194.531 C 273.204 197.163,268.370 197.465,266.197 195.088 C 265.080 193.866,265.128 194.495,265.128 181.263 L 265.128 169.408 254.782 169.408 L 244.436 169.408 244.436 178.042 L 244.436 186.677 235.207 186.677 L 225.977 186.677 225.977 177.977 C 225.977 173.192,225.927 169.247,225.865 169.211 C 225.626 169.069,222.719 168.996,221.660 169.106 M32.119 179.271 L 32.080 187.495 30.973 187.606 C 17.354 188.964,15.172 209.050,28.284 212.353 C 34.815 213.997,41.101 210.886,43.193 204.974 L 43.610 203.796 38.775 203.796 L 33.941 203.796 33.941 196.576 L 33.941 189.356 35.616 189.361 C 38.886 189.372,60.459 189.773,60.510 189.825 C 60.827 190.147,61.588 194.685,61.779 197.399 C 63.407 220.442,39.241 236.875,18.674 226.711 C 4.580 219.746,-1.423 205.445,3.510 190.583 C 7.225 179.392,18.622 171.189,30.630 171.062 L 32.157 171.046 32.119 179.271 M225.679 196.855 L 225.679 205.991 227.875 206.082 C 229.083 206.132,231.695 206.216,233.681 206.269 C 235.666 206.322,237.291 206.413,237.291 206.472 C 237.291 207.121,234.690 210.473,233.279 211.644 C 225.450 218.138,211.851 211.684,211.837 201.468 C 211.826 193.525,217.060 187.897,224.600 187.741 L 225.679 187.719 225.679 196.855 M32.155 197.469 L 32.155 205.582 36.556 205.582 L 40.957 205.582 40.613 206.215 C 37.462 212.019,27.518 212.575,23.432 207.176 C 18.309 200.406,23.235 189.460,31.448 189.364 L 32.155 189.356 32.155 197.469 M289.096 208.547 C 289.096 208.688,281.215 228.086,281.112 228.199 C 281.080 228.234,281.072 224.858,281.093 220.698 L 281.131 213.133 285.002 210.783 C 288.937 208.394,289.096 208.307,289.096 208.547 " stroke="none" fill-rule="evenodd"></path></g></svg>