<?xml version="1.0" encoding="UTF-8" standalone="no"?>
<svg
   xmlns="http://www.w3.org/2000/svg"
   version="1.1"
   viewBox="0, 0, 400,400"
   height="400"
   width="400"
   id="svg">
  <g
     id="svgg">
    <path
       style="fill-rule:evenodd;stroke:none;stroke-width:5.75270891"
       d="m 377.91095,89.740702 c -0.0115,75.049838 -0.37392,85.606068 -2.47942,71.995158 -1.24833,-8.0538 -6.02883,-28.70027 -6.86298,-29.6092 -0.49473,-0.54075 -125.829,-3.16399 -152.71141,-3.1985 l -8.35293,-0.006 V 76.147051 23.371699 L 190.16554,23.82041 C 104.97943,26.040956 35.572991,80.864272 17.912181,159.88348 c -19.6340003,87.80935 16.40672,163.59554 96.674269,203.28348 105.39538,52.11379 236.79301,-11.59171 260.06272,-126.08212 1.08726,-5.36728 2.23205,-9.1353 2.60022,-8.56579 0.35667,0.56377 0.65581,36.38589 0.66156,79.60024 l 0.0115,78.5705 h 4.71147 4.71146 V 200.00288 13.310211 h -4.71146 -4.71147 l -0.0115,76.430491 m -180.88818,-8.560031 -0.22435,47.310279 -6.36825,0.63855 c -78.34615,7.81218 -90.898557,123.36109 -15.46904,142.36229 37.57094,9.45745 73.73247,-8.43922 85.76714,-42.44924 l 2.39888,-6.77669 H 235.3128 207.50421 V 180.7313 139.19674 l 9.63578,0.0288 c 18.81136,0.0633 142.91455,2.37011 143.20794,2.66925 1.82361,1.85238 6.20142,27.95817 7.30019,43.57102 C 377.01353,318.02545 237.99356,412.55972 119.6776,354.08919 38.598921,314.02157 4.0654107,231.75208 32.443521,146.25532 53.814831,81.876749 119.37846,34.687277 188.45699,33.956683 l 8.78438,-0.09204 -0.2186,47.316031 m 0.2071,104.687796 v 46.67173 h 25.31767 25.31767 l -1.97893,3.64146 c -18.12678,33.38873 -75.33172,36.58723 -98.83729,5.52836 -29.47113,-38.94584 -1.13329,-101.915 46.11371,-102.46726 l 4.06717,-0.046 v 46.67173"
       id="path0" />
  </g>
</svg>
