<svg id="svg" xmlns="http://www.w3.org/2000/svg"  width="400" height="400" viewBox="0, 0, 400,400"><g id="svgg"><path id="path0" d="M331.600 164.218 C 329.290 164.509,326.570 164.759,325.556 164.773 C 314.155 164.937,299.200 179.386,299.200 190.236 C 299.200 190.745,298.930 192.198,298.600 193.465 C 296.961 199.755,298.428 213.588,301.520 221.000 C 305.721 231.073,315.112 237.738,326.600 238.799 C 341.440 240.169,348.463 240.163,360.200 238.767 C 369.472 237.665,377.688 232.692,382.525 225.255 C 384.940 221.542,387.200 215.455,387.200 212.664 C 387.200 212.003,387.489 209.918,387.843 208.031 C 389.027 201.714,387.904 191.851,385.082 183.800 C 381.391 173.267,371.266 165.775,359.400 164.797 C 356.980 164.598,353.470 164.248,351.600 164.020 C 347.042 163.465,336.779 163.567,331.600 164.218 M256.200 164.793 C 238.818 165.701,229.900 171.575,223.832 186.114 C 223.484 186.946,223.200 188.261,223.200 189.035 C 223.200 189.809,222.918 191.681,222.574 193.195 C 221.418 198.278,222.313 213.935,224.004 218.205 C 227.843 227.900,236.021 235.303,245.264 237.449 C 254.146 239.512,274.328 240.083,284.661 238.564 C 286.986 238.222,287.384 237.029,287.518 230.000 C 287.706 220.114,288.144 220.401,272.874 220.396 C 258.910 220.391,256.377 219.451,253.883 213.342 C 252.675 210.385,252.363 193.793,253.457 190.749 C 255.767 184.326,258.021 183.450,272.890 183.200 C 287.842 182.948,286.544 183.726,286.738 174.904 C 286.887 168.097,286.524 165.909,285.124 165.159 C 284.063 164.591,264.736 164.347,256.200 164.793 M11.436 167.231 L 10.400 168.461 10.400 201.942 C 10.400 238.728,10.249 236.481,12.804 237.802 C 14.988 238.931,36.693 238.662,38.441 237.484 L 39.800 236.568 39.902 202.115 L 40.004 167.662 38.948 166.831 C 37.929 166.029,37.443 166.000,25.182 166.000 L 12.471 166.000 11.436 167.231 M55.381 167.058 C 54.257 168.271,54.176 169.141,54.954 171.629 C 55.259 172.603,55.820 174.570,56.200 176.000 C 56.580 177.430,57.124 179.410,57.408 180.400 C 58.101 182.811,58.989 185.965,60.000 189.600 C 60.459 191.250,61.116 193.590,61.460 194.800 C 62.184 197.344,63.060 200.545,63.814 203.400 C 64.105 204.500,64.726 206.750,65.195 208.400 C 66.654 213.534,67.265 215.723,67.877 218.000 C 68.203 219.210,68.651 220.740,68.874 221.400 C 69.096 222.060,69.415 223.230,69.582 224.000 C 71.310 231.983,74.713 235.916,81.400 237.657 C 85.415 238.703,103.535 238.743,107.534 237.715 C 113.082 236.289,118.800 230.396,118.800 226.104 C 118.800 225.776,119.062 224.673,119.381 223.654 C 119.701 222.634,120.251 220.630,120.604 219.200 C 120.957 217.770,121.507 215.700,121.826 214.600 C 122.144 213.500,122.599 211.790,122.837 210.800 C 123.668 207.336,125.063 201.815,125.817 199.000 C 126.112 197.900,126.652 195.830,127.017 194.400 C 127.382 192.970,127.941 190.932,128.258 189.872 C 128.575 188.811,128.997 187.191,129.196 186.272 C 129.700 183.936,130.575 180.556,132.257 174.445 C 134.402 166.648,133.711 166.000,123.245 166.000 C 113.066 166.000,114.002 165.244,111.600 175.400 C 111.132 177.380,110.552 179.720,110.312 180.600 C 110.071 181.480,109.746 182.920,109.590 183.800 C 109.433 184.680,109.084 186.300,108.814 187.400 C 107.865 191.260,107.244 193.832,106.400 197.400 C 105.556 200.968,104.935 203.540,103.986 207.400 C 103.716 208.500,103.361 210.120,103.198 211.000 C 102.623 214.095,101.599 217.353,101.102 217.669 C 99.194 218.880,96.795 216.536,96.802 213.467 C 96.803 212.990,96.549 211.790,96.237 210.800 C 95.925 209.810,95.465 208.190,95.214 207.200 C 94.963 206.210,94.483 204.320,94.148 203.000 C 93.813 201.680,93.350 199.700,93.119 198.600 C 92.888 197.500,92.451 195.921,92.149 195.092 C 91.847 194.262,91.600 193.188,91.600 192.705 C 91.600 192.222,91.352 191.101,91.049 190.213 C 90.517 188.657,90.170 187.348,88.922 182.200 C 88.381 179.969,87.929 178.157,86.775 173.600 C 84.661 165.255,86.307 166.000,69.981 166.000 L 56.362 166.000 55.381 167.058 M155.000 167.139 C 146.762 171.044,146.400 172.534,146.400 202.513 C 146.400 229.292,146.438 229.575,150.588 233.725 C 155.219 238.356,155.453 238.389,183.738 238.395 C 212.912 238.401,210.302 239.043,210.692 231.769 C 211.001 226.006,210.563 222.527,209.380 221.344 L 208.436 220.400 193.707 220.400 C 175.740 220.400,176.000 220.497,176.000 213.810 C 176.000 209.840,175.428 210.001,189.526 209.994 C 201.520 209.987,201.437 209.998,202.523 208.411 C 203.334 207.226,203.514 197.526,202.756 195.863 C 201.880 193.940,201.029 193.809,188.613 193.677 C 181.186 193.598,176.842 193.401,176.513 193.128 C 175.790 192.528,175.834 187.081,176.574 185.651 C 177.763 183.350,177.310 183.416,193.496 183.200 L 208.470 183.000 209.435 181.878 C 210.994 180.065,210.924 168.633,209.345 167.055 L 208.291 166.000 182.845 166.000 L 157.400 166.001 155.000 167.139 M350.153 182.784 C 356.736 185.049,358.518 189.282,358.494 202.600 C 358.467 217.377,355.220 221.217,342.767 221.194 C 335.740 221.181,329.311 217.696,329.186 213.831 C 329.178 213.594,328.912 211.960,328.594 210.200 C 327.216 202.572,328.075 190.591,330.247 187.132 C 333.151 182.510,343.064 180.345,350.153 182.784 " stroke="none" fill="#043671" fill-rule="evenodd"></path></g></svg>