<svg id="svg" xmlns="http://www.w3.org/2000/svg"  width="400" height="400" viewBox="0, 0, 400,400"><g id="svgg"><path id="path0" d="M0.000 199.843 L 0.000 259.045 60.141 259.045 L 120.282 259.045 120.282 199.843 L 120.282 140.642 60.141 140.642 L 0.000 140.642 0.000 199.843 M126.652 141.347 C 127.472 144.681,134.272 181.793,136.489 195.035 L 137.976 203.915 147.755 203.915 L 157.533 203.915 157.826 202.741 C 159.322 196.748,164.316 174.751,165.133 170.556 L 166.171 165.231 166.399 167.110 C 167.418 175.516,168.434 182.800,169.608 190.133 C 170.366 194.871,171.153 199.910,171.356 201.331 L 171.724 203.915 181.952 203.915 L 192.179 203.915 192.919 201.018 C 194.454 195.012,200.657 172.481,205.023 157.054 C 207.515 148.249,209.554 140.952,209.554 140.838 C 209.554 140.724,206.077 140.669,201.827 140.715 L 194.100 140.799 192.463 147.220 C 191.562 150.752,189.559 158.363,188.012 164.135 C 186.464 169.906,184.812 176.319,184.340 178.387 C 182.716 185.511,183.003 185.912,181.317 174.158 C 179.939 164.559,178.183 151.354,177.266 143.696 L 176.900 140.642 167.855 140.642 C 162.880 140.642,158.810 140.699,158.810 140.768 C 158.810 141.327,156.159 154.466,153.843 165.388 C 152.291 172.709,150.772 180.005,150.469 181.599 C 149.812 185.052,149.620 184.975,149.110 181.049 C 148.897 179.413,147.690 172.153,146.426 164.918 C 144.279 152.621,142.522 141.862,142.522 141.012 C 142.522 140.737,140.457 140.642,134.500 140.642 L 126.479 140.642 126.652 141.347 M212.686 145.654 L 212.686 150.666 220.360 150.666 L 228.034 150.666 228.037 147.768 C 228.038 146.175,228.129 143.919,228.239 142.756 L 228.438 140.642 220.562 140.642 L 212.686 140.642 212.686 145.654 M238.369 143.383 C 238.361 153.146,236.394 196.094,235.672 202.271 L 235.480 203.915 243.459 203.915 L 251.439 203.915 251.651 197.103 C 252.113 182.279,253.400 154.680,254.035 145.967 C 254.205 143.641,254.344 141.492,254.345 141.190 C 254.346 140.683,253.757 140.642,246.359 140.642 L 238.371 140.642 238.369 143.383 M27.716 158.418 C 38.105 170.393,41.785 174.471,41.999 174.247 C 42.128 174.112,45.121 169.561,48.651 164.135 L 55.068 154.268 59.774 154.181 L 64.479 154.095 66.617 157.403 C 73.237 167.644,77.671 174.311,77.919 174.394 C 78.073 174.445,82.136 169.904,86.946 164.303 L 95.693 154.118 100.362 154.115 C 104.778 154.111,105.005 154.141,104.562 154.659 C 104.304 154.961,101.651 158.168,98.666 161.785 C 95.681 165.403,90.787 171.288,87.789 174.863 L 82.338 181.363 77.739 181.347 L 73.140 181.331 67.032 172.096 C 63.673 167.016,60.632 162.492,60.275 162.043 L 59.627 161.225 55.914 166.987 C 53.871 170.156,50.942 174.687,49.404 177.056 L 46.607 181.363 41.973 181.363 L 37.339 181.363 30.763 173.610 C 21.767 163.004,14.722 154.522,14.722 154.298 C 14.722 154.195,16.805 154.111,19.351 154.111 L 23.979 154.111 27.716 158.418 M275.803 155.566 C 267.488 156.914,263.143 161.408,263.128 168.677 C 263.117 173.850,264.678 176.465,272.114 183.727 L 276.941 188.441 276.842 189.804 C 276.578 193.418,270.000 193.573,262.362 190.146 L 260.298 189.220 260.322 190.225 C 260.336 190.777,260.583 193.837,260.871 197.023 L 261.394 202.817 262.605 203.214 C 267.575 204.840,276.935 205.458,281.096 204.434 C 294.536 201.129,296.719 188.312,285.572 178.147 C 278.791 171.963,277.877 170.662,279.249 169.146 C 280.684 167.560,286.345 167.466,290.766 168.954 C 292.105 169.404,293.283 169.773,293.385 169.773 C 293.634 169.773,293.176 157.459,292.916 157.177 C 292.175 156.375,278.659 155.102,275.803 155.566 M319.437 155.681 C 302.925 158.301,294.408 177.138,302.317 193.545 C 308.863 207.122,330.860 209.231,340.858 197.240 C 347.356 189.447,348.407 174.436,343.076 165.561 C 338.736 158.336,328.820 154.192,319.437 155.681 M381.315 155.686 C 377.381 156.395,373.581 158.618,371.332 161.525 L 370.162 163.038 370.373 159.828 L 370.585 156.617 362.789 156.617 L 354.992 156.617 354.781 165.309 C 354.467 178.183,353.882 188.961,352.816 201.488 L 352.610 203.915 360.453 203.915 C 369.578 203.915,368.676 204.390,368.678 199.583 C 368.687 178.338,371.552 170.049,378.744 170.455 C 384.182 170.762,384.942 174.675,383.568 195.301 C 383.304 199.264,383.087 202.823,383.086 203.211 L 383.085 203.915 390.876 203.915 L 398.667 203.915 398.882 197.259 C 399.000 193.598,399.299 185.842,399.546 180.024 C 400.126 166.362,399.776 163.780,396.841 160.066 C 393.996 156.467,387.361 154.595,381.315 155.686 M212.254 158.888 C 212.160 160.137,212.009 165.599,211.920 171.026 C 211.732 182.401,211.044 195.615,210.293 202.271 L 210.108 203.915 218.445 203.915 L 226.782 203.915 226.787 196.006 C 226.796 183.479,227.618 160.861,228.187 157.478 L 228.332 156.617 220.379 156.617 L 212.426 156.617 212.254 158.888 M326.165 169.266 C 333.002 172.199,332.056 189.182,324.937 191.315 C 319.387 192.978,315.571 189.321,315.191 181.976 C 314.791 174.250,318.148 168.841,323.346 168.835 C 324.342 168.834,325.611 169.028,326.165 169.266 M92.091 189.037 L 92.091 192.952 78.152 192.952 L 64.213 192.952 64.213 215.353 L 64.213 237.753 65.388 237.279 C 69.093 235.782,70.222 232.820,70.461 223.962 L 70.634 217.541 74.670 217.453 L 78.706 217.365 78.530 223.874 C 78.329 231.292,77.921 233.664,76.267 237.024 C 70.100 249.558,49.386 249.224,43.163 236.492 C 41.326 232.731,40.853 229.247,40.987 220.439 L 41.034 217.384 44.949 217.384 L 48.865 217.384 48.870 221.848 C 48.883 232.730,50.163 236.158,54.738 237.570 L 55.442 237.787 55.442 215.370 L 55.442 192.952 41.660 192.952 L 27.878 192.952 27.878 189.037 L 27.878 185.121 59.984 185.121 L 92.091 185.121 92.091 189.037 M129.257 214.800 C 129.147 215.963,129.056 218.309,129.055 220.013 L 129.052 223.111 135.440 222.886 C 138.954 222.762,141.897 222.778,141.980 222.920 C 142.267 223.408,141.591 241.342,140.960 250.000 C 140.613 254.759,140.329 258.741,140.329 258.849 C 140.329 258.957,143.341 259.045,147.024 259.045 L 153.718 259.045 153.925 252.075 C 154.148 244.586,154.672 232.089,155.004 226.382 L 155.208 222.866 161.659 222.973 L 168.111 223.080 168.313 220.937 C 168.424 219.758,168.517 217.420,168.518 215.740 L 168.520 212.686 148.988 212.686 L 129.456 212.686 129.257 214.800 M172.479 223.571 C 172.240 235.772,171.862 244.057,171.177 252.149 C 170.921 255.161,170.713 257.945,170.713 258.335 L 170.713 259.045 177.100 259.045 L 183.488 259.045 183.666 253.641 C 183.764 250.670,183.999 243.188,184.187 237.016 C 184.376 230.844,184.612 225.101,184.713 224.252 L 184.895 222.709 189.231 222.709 C 195.748 222.709,197.158 223.516,197.171 227.251 C 197.185 231.337,194.446 233.381,188.958 233.381 C 187.537 233.381,186.374 233.437,186.374 233.505 C 186.374 233.574,187.549 237.199,188.985 241.560 C 190.420 245.922,192.211 251.641,192.965 254.268 L 194.334 259.045 201.310 259.045 L 208.285 259.045 207.987 258.260 C 207.823 257.829,206.262 254.004,204.518 249.762 C 202.774 245.519,201.089 241.295,200.772 240.376 L 200.197 238.704 202.158 237.738 C 212.937 232.432,212.558 217.105,201.566 213.755 C 198.847 212.927,194.990 212.697,183.684 212.692 L 172.692 212.686 172.479 223.571 M231.796 215.740 C 229.206 221.647,220.711 239.571,216.023 249.021 C 213.416 254.276,211.235 258.681,211.175 258.810 C 211.116 258.939,214.307 259.045,218.266 259.045 L 225.465 259.045 226.877 255.677 C 227.654 253.825,228.886 250.865,229.615 249.099 L 230.940 245.889 238.717 245.889 L 246.493 245.889 247.898 250.352 C 248.670 252.807,249.538 255.767,249.826 256.930 L 250.350 259.045 257.393 259.045 C 263.974 259.045,264.423 259.009,264.222 258.496 C 262.896 255.108,252.310 223.476,249.965 215.897 L 248.972 212.686 241.054 212.686 L 233.136 212.686 231.796 215.740 M269.690 214.330 C 269.668 222.223,268.712 244.938,267.931 256.147 L 267.729 259.045 274.663 259.045 L 281.597 259.045 281.598 254.424 C 281.599 245.958,282.239 229.043,283.056 215.897 L 283.256 212.686 276.475 212.686 L 269.695 212.686 269.690 214.330 M288.171 214.017 C 288.132 224.849,286.638 252.444,285.797 257.870 L 285.614 259.045 302.049 259.045 L 318.484 259.045 318.697 255.051 C 318.814 252.854,318.985 250.613,319.077 250.070 L 319.244 249.082 309.661 249.256 L 300.078 249.429 300.080 246.328 C 300.081 243.060,300.820 227.272,301.333 219.577 C 301.499 217.079,301.637 214.507,301.640 213.861 L 301.644 212.686 294.910 212.686 L 288.175 212.686 288.171 214.017 M324.402 216.024 C 324.289 217.859,324.196 221.489,324.195 224.089 C 324.192 231.573,323.270 248.816,322.430 257.087 L 322.231 259.045 339.456 259.045 L 356.681 259.045 356.903 254.000 C 357.025 251.225,357.069 248.899,357.002 248.832 C 356.935 248.764,353.578 248.847,349.544 249.015 C 345.509 249.184,340.834 249.324,339.154 249.328 L 336.100 249.334 336.102 247.690 C 336.103 246.785,336.195 244.883,336.305 243.461 L 336.506 240.877 345.209 240.877 C 353.229 240.877,353.925 240.834,354.069 240.329 C 354.155 240.027,354.321 237.737,354.438 235.239 L 354.649 230.697 345.797 230.785 L 336.946 230.873 337.148 228.279 C 337.259 226.852,337.350 224.993,337.351 224.147 L 337.353 222.608 347.847 222.813 L 358.340 223.018 358.341 221.376 C 358.342 220.473,358.434 218.148,358.546 216.210 L 358.749 212.686 341.677 212.686 L 324.606 212.686 324.402 216.024 M362.647 212.866 C 362.518 212.996,362.410 216.216,362.409 220.021 C 362.404 230.797,361.495 249.958,360.636 257.400 L 360.446 259.045 367.067 259.045 L 373.688 259.045 373.693 252.388 C 373.698 245.917,374.072 233.853,374.498 226.390 L 374.709 222.709 379.132 222.716 C 385.554 222.726,387.165 223.650,387.152 227.314 C 387.139 231.243,384.074 233.427,378.625 233.392 C 376.649 233.379,376.167 233.463,376.297 233.801 C 377.078 235.838,382.569 253.047,383.276 255.676 L 384.182 259.042 391.151 259.044 C 394.984 259.044,398.121 258.990,398.121 258.923 C 398.121 258.857,396.769 255.509,395.117 251.484 C 393.466 247.459,391.652 242.943,391.088 241.447 L 390.062 238.729 392.047 237.751 C 403.483 232.121,402.422 216.847,390.357 213.416 C 388.424 212.867,363.141 212.364,362.647 212.866 M242.281 229.367 C 243.232 232.598,244.009 235.452,244.009 235.710 C 244.009 236.104,243.291 236.179,239.468 236.179 C 236.463 236.179,234.926 236.066,234.926 235.845 C 234.926 235.661,235.933 233.159,237.164 230.285 C 238.395 227.411,239.613 224.565,239.871 223.962 C 240.129 223.359,240.388 223.007,240.447 223.179 C 240.505 223.352,241.331 226.136,242.281 229.367 " stroke="none" fill-rule="evenodd"></path></g></svg>