<svg id="svg" xmlns="http://www.w3.org/2000/svg"  width="400" height="400" viewBox="0, 0, 400,400"><g id="svgg"><path id="path0" d="M0.000 200.000 L 0.000 396.875 200.000 396.875 L 400.000 396.875 400.000 200.000 L 400.000 3.125 200.000 3.125 L 0.000 3.125 0.000 200.000 M92.170 62.240 C 126.720 102.061,138.957 115.623,139.668 114.879 C 140.097 114.430,150.051 99.297,161.789 81.250 L 183.129 48.438 198.778 48.150 L 214.427 47.863 221.536 58.863 C 243.550 92.921,258.297 115.092,259.120 115.367 C 259.635 115.538,273.145 100.437,289.142 81.809 L 318.229 47.940 333.755 47.928 C 348.442 47.917,349.197 48.015,347.723 49.740 C 346.866 50.742,338.043 61.406,328.117 73.438 C 318.191 85.469,301.913 105.039,291.943 116.927 L 273.817 138.542 258.523 138.490 L 243.229 138.438 222.917 107.725 C 211.745 90.833,201.633 75.788,200.447 74.293 L 198.290 71.575 185.942 90.735 C 179.151 101.274,169.408 116.341,164.293 124.219 L 154.991 138.542 139.582 138.542 L 124.172 138.542 102.304 112.760 C 72.387 77.489,48.958 49.283,48.958 48.537 C 48.958 48.196,55.885 47.917,64.351 47.917 L 79.743 47.917 92.170 62.240 M306.250 164.063 L 306.250 177.083 259.896 177.083 L 213.542 177.083 213.542 251.576 L 213.542 326.070 217.448 324.492 C 229.771 319.515,233.524 309.665,234.319 280.208 L 234.896 258.854 248.317 258.562 L 261.738 258.269 261.152 279.916 C 260.484 304.584,259.126 312.472,253.628 323.646 C 233.119 365.326,164.234 364.218,143.541 321.875 C 137.429 309.369,135.858 297.781,136.304 268.490 L 136.458 258.333 149.479 258.333 L 162.500 258.333 162.518 273.177 C 162.562 309.367,166.816 320.766,182.031 325.459 L 184.375 326.182 184.375 251.633 L 184.375 177.083 138.542 177.083 L 92.708 177.083 92.708 164.063 L 92.708 151.042 199.479 151.042 L 306.250 151.042 306.250 164.063 " stroke="none" fill-rule="evenodd"></path></g></svg>