<?xml version="1.0" encoding="UTF-8" standalone="no"?>
<svg
   xmlns="http://www.w3.org/2000/svg"
   version="1.1"
   viewBox="0, 0, 400,400"
   height="400"
   width="400"
   id="svg">
  <g
     id="svgg">
    <path
       style="fill-rule:evenodd;stroke:none;stroke-width:6.3653326"
       d="m 185.23475,5.9076323 c -1.21578,0.19096 -5.07954,0.6556293 -8.58047,1.0375492 l -6.3717,0.6938213 V 20.153247 32.667491 l -8.20491,2.908957 c -4.51302,1.604063 -8.48499,2.915322 -8.82235,2.915322 -0.34373,0 -0.76384,-6.155277 -0.93571,-13.6791 l -0.3119,-13.672734 -10.24182,3.189031 -10.24182,3.182667 v 16.524403 16.518038 l -12.46332,12.52061 C 70.595106,111.76948 74.452498,195.3463 126.95376,233.96477 l 4.51302,3.3227 0.0255,72.64118 0.0318,72.64754 9.79625,2.94078 c 5.38507,1.6168 10.12088,2.94079 10.51553,2.94079 0.40101,0 0.72564,-31.19013 0.72564,-69.31211 0,-55.0092 0.28644,-69.19116 1.38765,-68.73923 0.75747,0.3119 4.74853,1.69318 8.86054,3.07446 l 7.4729,2.51431 v 68.29365 68.29365 l 5.81791,0.69382 c 3.1954,0.38829 7.93121,0.70656 10.51553,0.71292 l 4.71035,0.006 v -67.00149 -67.00786 h 8.86054 8.86055 v 67.33885 67.33249 l 9.68803,-0.90388 c 5.32779,-0.49649 10.31184,-1.12666 11.07568,-1.40037 1.08847,-0.39465 1.38128,-15.11766 1.38128,-68.54827 v -68.0454 l 6.3717,-2.19604 c 3.50093,-1.20941 7.23738,-2.5525 8.30676,-2.98534 1.83321,-0.75111 1.93506,2.94715 1.93506,68.5419 0,54.76732 0.2928,69.32484 1.38764,69.28028 0.75747,-0.0382 5.37234,-1.4131 10.24182,-3.06173 l 8.86054,-3.00443 0.28644,-72.63481 0.28644,-72.63481 6.44172,-5.16865 c 51.84563,-41.58472 53.07414,-125.57529 2.52067,-172.53871 l -8.98148,-8.344951 V 34.354304 17.689863 l -10.24182,-3.303608 -10.24819,-3.309973 -0.30554,13.704562 c -0.17186,7.542919 -0.73201,13.710926 -1.25397,13.710926 -0.51559,0 -4.112,-1.196683 -7.99485,-2.654344 L 231.74623,33.189448 231.4407,20.439687 231.12879,7.6899254 224.2415,6.9833735 C 220.45413,6.5950882 215.48281,6.0094776 213.19765,5.672115 L 209.04746,5.0674084 V 17.282482 29.49119 l -8.58684,-0.36919 -8.58047,-0.369189 -0.3119,-11.744039 C 191.22452,4.3990485 191.53643,4.9337364 185.23475,5.9076323 M 224.24787,54.907963 C 280.16732,70.089281 308.8686,133.51346 283.15902,185.09175 243.78308,264.07279 127.08107,249.24157 109.20721,162.98495 95.305327,95.881609 158.03568,36.944994 224.24787,54.907963 m -39.82789,5.690607 c -55.24472,10.089052 -85.454586,70.48969 -60.68071,121.31051 32.96606,67.62529 131.90242,61.89013 156.70176,-9.08333 C 301.80945,111.66127 248.16242,48.962742 184.41998,60.59857 m 2.718,31.85849 0.3119,14.10558 9.12152,-14.10558 9.12153,-14.099212 h 7.22465 7.23102 l -2.62252,4.156562 c -1.44493,2.285155 -5.47419,8.561373 -8.95602,13.95281 -3.47548,5.38507 -6.09799,10.38186 -5.82428,11.10114 0.27371,0.71292 5.07317,7.76571 10.66829,15.67145 l 10.16544,14.37292 -8.0967,0.34373 c -9.31248,0.40101 -7.12281,2.23423 -20.26086,-16.91906 l -8.32585,-12.13869 v 14.6339 14.6339 h -7.19919 -7.19919 V 108.26218 78.357848 h 7.16736 7.16737 l 0.30553,14.099212 m -8.55501,75.57559 c 2.37427,9.72623 4.51939,17.48557 4.75491,17.25006 0.24188,-0.24189 1.9096,-6.32715 3.71735,-13.5327 6.05343,-24.1628 4.58304,-21.40025 11.43214,-21.40025 h 5.97068 l 1.66772,5.81155 c 0.91661,3.1954 3.00444,10.54736 4.64033,16.33344 1.63589,5.78609 3.31633,11.15843 3.73008,11.92864 0.41375,0.77657 2.19604,-6.0789 3.95924,-15.23225 3.89558,-20.24175 3.16993,-19.03234 11.27937,-18.62496 l 6.65177,0.33736 -6.73452,29.07048 -6.72816,29.07047 h -7.29467 -7.28831 l -5.01588,-17.38372 -5.01588,-17.38372 -4.28387,17.38372 -4.29023,17.38372 h -6.8682 c -6.78544,0 -6.88729,-0.0509 -8.01395,-3.60278 -1.59133,-5.04134 -14.53842,-53.42423 -14.53842,-54.34084 0,-0.41375 3.13811,-0.75111 6.97004,-0.75111 h 6.97004 l 4.32842,17.68289"
       id="path0" />
  </g>
</svg>
