<svg id="svg" xmlns="http://www.w3.org/2000/svg"  width="400" height="400" viewBox="0, 0, 400,400"><g id="svgg"><path id="path0" d="M190.391 89.143 C 88.497 95.437,9.202 171.653,0.500 271.661 C -0.322 281.107,-0.119 303.703,0.843 309.853 L 1.034 311.075 12.264 311.075 L 23.493 311.075 23.300 309.691 C 17.915 270.908,28.624 225.646,51.297 191.368 C 118.687 89.482,265.479 83.881,340.582 180.329 C 367.075 214.351,381.000 260.700,377.220 302.280 C 377.033 304.340,376.783 307.164,376.666 308.555 L 376.453 311.084 387.656 310.998 L 398.860 310.912 399.300 306.678 C 401.641 284.122,398.587 254.839,391.372 230.665 C 365.522 144.060,279.699 83.627,190.391 89.143 M37.134 279.967 L 37.134 311.075 53.583 311.075 L 70.033 311.075 70.033 299.595 L 70.033 288.115 78.990 297.068 L 87.948 306.022 96.906 297.068 L 105.863 288.115 105.863 299.595 L 105.863 311.075 122.313 311.075 L 138.762 311.075 138.762 279.967 L 138.762 248.860 123.536 248.860 L 108.310 248.860 98.129 259.037 L 87.948 269.214 77.767 259.037 L 67.586 248.860 52.360 248.860 L 37.134 248.860 37.134 279.967 M180.203 252.850 C 178.769 255.045,169.914 268.640,160.525 283.062 C 151.136 297.484,143.188 309.686,142.862 310.179 L 142.270 311.075 159.408 311.075 L 176.545 311.075 178.745 307.656 L 180.945 304.237 199.933 304.236 L 218.921 304.235 221.106 307.643 L 223.290 311.050 240.344 311.063 C 254.100 311.073,257.368 310.994,257.238 310.657 C 257.150 310.427,248.087 296.428,237.098 279.549 L 217.118 248.860 199.964 248.860 L 182.810 248.860 180.203 252.850 M260.912 279.967 L 260.912 311.075 277.362 311.075 L 293.811 311.075 293.811 297.883 C 293.811 290.627,293.898 284.691,294.005 284.691 C 294.112 284.691,302.208 290.627,311.995 297.883 L 329.791 311.075 346.003 311.075 L 362.215 311.075 362.215 279.967 L 362.215 248.860 345.769 248.860 L 329.323 248.860 329.238 262.194 L 329.153 275.528 311.238 262.209 L 293.322 248.890 277.117 248.875 L 260.912 248.860 260.912 279.967 M203.746 280.522 C 205.717 283.593,207.378 286.227,207.438 286.375 C 207.497 286.523,204.163 286.645,200.027 286.645 C 195.892 286.645,192.508 286.545,192.508 286.422 C 192.508 286.108,199.802 274.919,200.000 274.930 C 200.090 274.935,201.775 277.451,203.746 280.522 " stroke="none" fill-rule="evenodd"></path></g></svg>