<svg id="svg" version="1.1" xmlns="http://www.w3.org/2000/svg"  width="400" height="400" viewBox="0, 0, 400,400"><g id="svgg"><path id="path0" d="M194.882 70.944 C 175.566 87.854,137.371 110.930,114.829 119.311 L 110.957 120.750 112.860 122.138 C 113.907 122.902,139.744 141.016,170.276 162.392 C 200.807 183.768,225.929 201.390,226.102 201.554 C 226.276 201.717,225.279 202.592,223.889 203.498 L 221.360 205.145 212.550 199.094 C 171.648 171.000,173.621 172.217,165.574 170.110 C 152.385 166.655,137.180 168.908,121.671 176.614 C 115.131 179.863,110.755 182.574,111.266 183.059 C 111.528 183.308,186.978 235.479,197.737 242.851 L 199.607 244.133 203.445 240.740 C 222.085 224.264,258.927 201.683,282.401 192.345 C 287.059 190.493,288.125 189.931,287.716 189.547 C 287.435 189.282,268.780 176.166,246.260 160.400 C 223.740 144.634,198.140 126.710,189.370 120.568 C 180.600 114.425,173.372 109.252,173.307 109.071 C 173.197 108.763,177.546 105.906,178.125 105.906 C 178.272 105.906,188.170 112.615,200.121 120.815 C 212.072 129.015,223.268 136.432,225.000 137.298 C 240.003 144.798,257.921 143.817,277.362 134.432 C 282.384 132.008,288.286 128.437,288.112 127.929 C 287.944 127.439,200.311 66.923,199.815 66.955 C 199.592 66.969,197.372 68.764,194.882 70.944 M28.856 272.471 C 11.062 273.621,1.772 280.363,1.772 292.126 C 1.772 303.974,10.608 309.113,34.252 311.015 C 44.558 311.844,47.244 312.996,47.244 316.588 C 47.244 322.590,34.094 322.383,29.402 316.308 L 27.756 314.176 13.888 314.175 L 0.020 314.173 0.191 315.256 C 0.286 315.851,0.468 317.171,0.596 318.188 C 1.414 324.677,7.207 329.780,16.401 332.112 C 21.216 333.334,50.497 333.606,54.937 332.471 C 67.133 329.352,73.657 321.927,72.383 312.614 C 71.032 302.731,61.690 297.707,39.452 294.905 C 27.896 293.448,24.700 292.211,25.383 289.459 C 26.917 283.275,41.319 284.485,44.856 291.094 L 45.409 292.126 57.995 292.126 L 70.582 292.126 70.373 289.827 C 69.298 277.963,52.503 270.942,28.856 272.471 M78.448 296.161 C 78.605 320.288,78.586 320.078,80.945 324.412 C 82.957 328.110,87.252 331.028,92.773 332.448 C 96.973 333.529,128.899 333.361,132.537 332.239 C 139.384 330.127,142.851 327.053,144.954 321.227 C 145.861 318.714,145.866 318.582,145.985 296.358 L 146.105 274.016 135.454 274.016 L 124.803 274.016 124.803 293.183 C 124.803 311.820,124.780 312.397,123.980 314.049 C 120.187 321.886,104.214 321.887,100.565 314.051 L 99.614 312.008 99.610 293.012 L 99.606 274.016 88.955 274.016 L 78.304 274.016 78.448 296.161 M152.362 281.299 L 152.362 288.583 168.504 288.583 C 177.382 288.583,184.642 288.716,184.637 288.878 C 184.632 289.040,177.107 296.171,167.913 304.724 L 151.198 320.276 151.190 326.673 L 151.181 333.071 185.236 333.071 L 219.291 333.071 219.291 325.595 L 219.291 318.119 202.307 318.016 L 185.323 317.913 202.496 302.165 L 219.668 286.417 219.677 280.217 L 219.685 274.016 186.024 274.016 L 152.362 274.016 152.362 281.299 M225.204 295.177 C 225.212 321.379,225.498 323.212,230.267 327.673 C 235.676 332.733,237.845 333.125,259.668 332.988 L 277.756 332.874 280.616 331.829 C 291.970 327.679,292.894 324.866,292.906 294.390 L 292.913 274.016 282.298 274.016 L 271.682 274.016 271.569 293.406 L 271.457 312.795 270.352 314.674 C 266.043 322.005,250.632 321.555,247.199 313.998 C 246.527 312.518,246.473 311.002,246.465 293.209 L 246.457 274.016 235.827 274.016 L 225.197 274.016 225.204 295.177 M298.819 303.543 L 298.819 333.071 309.843 333.071 L 320.866 333.071 320.866 322.605 C 320.866 316.651,321.017 312.196,321.217 312.270 C 321.410 312.343,326.448 317.054,332.413 322.741 L 343.260 333.080 358.052 332.977 L 372.843 332.874 356.709 317.913 C 347.835 309.685,340.569 302.842,340.563 302.706 C 340.554 302.524,362.485 283.612,373.018 274.718 C 373.778 274.077,373.066 274.042,359.252 274.039 L 344.685 274.036 333.071 284.045 C 326.683 289.550,321.324 294.063,321.161 294.074 C 320.999 294.085,320.866 289.577,320.866 284.055 L 320.866 274.016 309.843 274.016 L 298.819 274.016 298.819 303.543 M377.559 303.543 L 377.559 333.071 388.780 333.071 L 400.000 333.071 400.000 303.543 L 400.000 274.016 388.780 274.016 L 377.559 274.016 377.559 303.543 " stroke="none" fill-rule="evenodd"></path></g></svg>