<svg id="svg" xmlns="http://www.w3.org/2000/svg"  width="400" height="400" viewBox="0, 0, 400,400"><g id="svgg"><path id="path0" d="M133.273 116.612 L 117.167 132.718 120.874 136.447 C 125.212 140.809,125.412 141.111,124.785 142.350 C 124.673 142.571,119.952 147.391,114.293 153.061 L 104.004 163.370 120.111 179.476 L 136.218 195.582 163.277 168.522 L 190.336 141.463 169.857 120.985 L 149.378 100.506 133.273 116.612 M340.820 115.968 L 325.358 131.430 329.710 135.803 C 334.749 140.866,334.903 141.087,334.265 142.350 C 334.154 142.571,321.324 155.509,305.754 171.100 C 284.405 192.479,277.416 199.584,277.323 200.000 C 277.230 200.417,268.832 208.923,242.926 234.837 L 208.653 269.121 223.838 284.308 C 232.190 292.660,239.107 299.494,239.208 299.494 C 239.310 299.494,274.950 263.937,318.408 220.478 L 397.423 141.463 376.944 120.985 C 365.681 109.721,356.424 100.506,356.373 100.506 C 356.322 100.506,349.323 107.464,340.820 115.968 M202.762 116.520 L 186.933 132.350 190.732 136.171 C 194.791 140.253,194.938 140.437,194.938 141.463 C 194.938 142.537,195.020 142.446,183.647 153.840 L 172.763 164.743 173.697 165.713 C 174.211 166.246,181.192 173.495,189.211 181.822 C 197.230 190.150,203.836 196.963,203.891 196.963 C 203.945 196.963,216.526 184.485,231.849 169.235 L 259.708 141.508 239.268 121.145 C 228.025 109.946,218.774 100.762,218.709 100.736 C 218.644 100.711,211.468 107.814,202.762 116.520 M272.664 116.752 L 256.602 132.814 260.205 136.402 C 264.471 140.651,264.813 141.186,264.132 142.534 C 264.020 142.755,259.071 147.802,253.135 153.750 L 242.341 164.564 243.260 165.458 C 243.765 165.950,251.107 173.069,259.575 181.278 L 274.971 196.203 302.420 168.861 L 329.870 141.519 309.413 121.151 C 298.162 109.948,288.904 100.762,288.841 100.736 C 288.777 100.711,281.497 107.918,272.664 116.752 M33.456 233.917 L -0.000 267.373 16.095 283.468 L 32.191 299.562 65.621 266.271 C 84.007 247.961,99.099 232.901,99.158 232.805 C 99.252 232.654,67.249 200.460,67.004 200.460 C 66.953 200.460,51.857 215.516,33.456 233.917 M85.780 251.726 L 69.674 267.832 85.504 283.663 C 94.210 292.370,101.417 299.494,101.519 299.494 C 101.620 299.494,108.931 292.266,117.764 283.433 L 133.824 267.372 117.947 251.495 C 109.215 242.763,102.029 235.619,101.978 235.619 C 101.927 235.619,94.638 242.867,85.780 251.726 M154.901 252.002 L 139.439 267.465 155.500 283.525 L 171.560 299.586 187.023 284.123 L 202.485 268.660 186.424 252.600 L 170.363 236.539 154.901 252.002 " stroke="none" fill-rule="evenodd"></path></g></svg>