<?xml version="1.0" encoding="UTF-8" standalone="no"?>
<svg
   
   
   
   
   xmlns="http://www.w3.org/2000/svg"
   version="1.1"
   viewBox="0 0 400 400.00001"
   height="400"
   width="400"
   id="svg">
  <metadata
     id="metadata9">
    
  </metadata>
  <defs
     id="defs7" />
  <g
     transform="translate(0,84.327914)"
     id="svgg">
    <path
       style="fill-rule:evenodd;stroke:none"
       d="m 193.957,0.379 c -12.996,1.563 -22.547,4.704 -32.339,10.635 -33.326,20.185 -45.281,63.506 -27.037,97.974 26.298,49.682 96.352,53.264 127.414,6.515 C 293,68.841 263.168,6.223 207.184,0.452 205.255,0.253 195.452,0.199 193.957,0.379 m 2.042,19.348 c -0.81,5.644 -2.693,18.778 -4.186,29.187 l -2.714,18.925 -0.764,0.642 c -0.42,0.353 -6.665,5.278 -13.877,10.944 -7.212,5.667 -13.831,10.875 -14.709,11.574 -0.878,0.699 -4.47,3.522 -7.982,6.274 -3.512,2.752 -6.996,5.492 -7.742,6.089 -1.84,1.471 -1.677,1.62 -3.864,-3.539 -16.934,-39.946 10.167,-86.19 52.883,-90.238 3.659,-0.347 4.088,-0.371 4.266,-0.239 0.088,0.066 -0.502,4.738 -1.311,10.381 M 207.298,9.579 c 17.865,1.662 35.297,11.909 46.166,27.137 13.522,18.945 15.76,44.132 5.812,65.393 -0.601,1.286 -1.18,2.338 -1.285,2.338 -0.105,0 -2.19,-1.572 -4.633,-3.494 -4.83,-3.801 -26.497,-20.803 -33.29,-26.123 -7.313,-5.729 -8.467,-6.684 -8.672,-7.183 -0.11,-0.267 -0.565,-3.103 -1.011,-6.302 -0.446,-3.198 -1.067,-7.559 -1.381,-9.692 -1.96,-13.315 -6.006,-42.172 -5.93,-42.295 0.097,-0.158 0.219,-0.152 4.224,0.221 m -3.468,79.104 c 1.844,0.737 8.895,3.57 15.668,6.296 6.773,2.725 17.549,7.057 23.946,9.625 6.396,2.569 11.672,4.712 11.722,4.763 0.153,0.151 -1.835,3.021 -3.802,5.49 -24.153,30.318 -68.896,33.21 -96.604,6.245 -3.615,-3.519 -9.902,-11.304 -9.473,-11.733 0.053,-0.053 3.843,-1.603 8.42,-3.443 4.577,-1.84 16.379,-6.583 26.225,-10.541 9.846,-3.957 18.363,-7.381 18.928,-7.608 1.399,-0.562 1.208,-0.597 4.97,0.906 m -13.636,96.856 c -1.317,0.293 -3.267,0.647 -4.333,0.786 -2.984,0.39 -3.004,0.396 -2.923,0.969 0.064,0.445 0.252,0.523 1.587,0.655 3.121,0.309 3.024,0.057 3.16,8.209 0.118,7.014 0.098,7.224 -0.573,6.199 -3.417,-5.214 -10.189,-5.584 -14.912,-0.815 -7.157,7.228 -5.601,24.005 2.612,28.166 4.976,2.522 11.013,1.035 12.936,-3.187 0.34,-0.745 0.621,-0.647 0.625,0.218 0.005,0.798 0.596,3.811 0.786,4.001 0.063,0.064 0.861,-0.105 1.772,-0.375 1.375,-0.406 5.682,-1.155 6.731,-1.17 0.164,-0.003 0.286,-0.296 0.286,-0.689 0,-0.681 -0.007,-0.684 -1.312,-0.684 -3.673,-0.001 -3.449,1.461 -3.465,-22.634 -0.01,-16.049 -0.072,-20.233 -0.298,-20.21 -0.156,0.015 -1.362,0.268 -2.679,0.561 m -188.913,0.03 c -0.028,0.027 -0.01,0.398 0.04,0.824 l 0.09,0.774 1.48,0.138 c 3.776,0.353 4.075,1.023 3.732,8.362 -0.457,9.779 -0.674,14.868 -0.928,21.779 C 5.302,228.155 5.323,228.103 1.197,228.638 0.042,228.788 0,228.818 0,229.505 v 0.712 h 6.613 6.614 v -0.742 c 0,-0.615 -0.087,-0.741 -0.513,-0.745 -1.332,-0.01 -3.719,-0.703 -4.25,-1.234 -0.911,-0.911 -0.906,-1.93 0.101,-24.507 0.181,-4.063 0.331,-8.425 0.332,-9.692 0.006,-3.488 0.177,-3.33 2.144,1.981 0.986,2.66 2.079,5.606 2.431,6.546 3.807,10.192 5.98,16.12 8.218,22.414 2.119,5.962 2.296,6.064 3.625,2.102 0.781,-2.329 2.656,-7.488 5.429,-14.937 3.156,-8.479 5.563,-15.018 6.568,-17.841 0.613,-1.723 1.176,-3.134 1.251,-3.136 0.15,-0.004 0.349,8.6 0.58,25.085 0.183,13.03 0.358,12.411 -3.685,13.055 l -1.707,0.271 v 0.768 0.768 l 2.224,-0.192 c 2.84,-0.246 9.582,-0.248 12.315,-0.004 l 2.109,0.188 v -0.774 -0.775 l -1.757,-0.273 c -3.614,-0.562 -3.531,-0.336 -3.751,-10.151 -0.099,-4.409 -0.281,-12.54 -0.406,-18.07 -0.291,-12.868 -0.227,-13.057 4.375,-13.087 0.835,-0.006 0.855,-0.026 0.855,-0.861 v -0.855 l -5.838,0.006 -5.837,0.006 -1.201,3.187 c -0.661,1.752 -3.439,9.19 -6.174,16.527 -2.734,7.338 -5.032,13.413 -5.105,13.5 -0.073,0.088 -0.716,-1.452 -1.43,-3.421 -0.714,-1.968 -1.753,-4.811 -2.308,-6.316 -0.555,-1.505 -2.158,-5.867 -3.561,-9.692 -1.404,-3.826 -3.122,-8.495 -3.819,-10.376 l -1.267,-3.421 H 7.253 c -3.257,0 -5.945,0.022 -5.972,0.05 m 271.333,0.377 c -0.406,1.057 -0.05,1.39 1.673,1.562 4.118,0.411 3.82,-1.176 3.82,20.36 0,21.626 0.32,19.872 -3.735,20.488 l -1.738,0.264 -0.072,0.753 -0.073,0.754 11.133,-0.079 c 13.586,-0.097 14.775,-0.337 18.107,-3.655 6.452,-6.425 3.958,-18.16 -4.181,-19.671 -1.15,-0.214 -1.097,-0.308 0.763,-1.355 8.164,-4.593 6.379,-16.529 -2.872,-19.204 -1.945,-0.562 -22.618,-0.759 -22.825,-0.217 m 18.335,1.97 c 4.381,0.569 6.157,2.762 6.369,7.865 0.309,7.439 -2.187,10.007 -9.747,10.025 l -3.763,0.009 -0.059,-8.779 c -0.033,-4.829 -0.011,-8.908 0.05,-9.065 0.134,-0.349 4.618,-0.384 7.15,-0.055 m -161.533,10.887 c -0.464,0.846 -0.88,1.578 -0.924,1.624 -0.044,0.047 -0.407,-0.189 -0.807,-0.525 -4.584,-3.857 -12.612,-2.09 -16.332,3.595 -3.26,4.98 -3.876,13.507 -1.399,19.361 4.641,10.966 18.577,10.911 21.625,-0.085 0.77,-2.78 0.716,-2.969 -0.828,-2.887 l -1.29,0.068 -0.536,2.026 c -1.514,5.714 -5.54,8.157 -9.845,5.975 -6.846,-3.469 -6.437,-24.213 0.545,-27.629 4.119,-2.015 8.133,0.558 9.809,6.287 0.475,1.622 0.538,1.715 1.212,1.782 l 0.711,0.072 v -5.602 -5.602 h -0.549 c -0.443,0 -0.713,0.299 -1.392,1.54 m 119.843,-0.057 c -0.28,0.69 -0.552,1.254 -0.603,1.254 -0.052,0 -0.72,-0.316 -1.485,-0.702 -6.937,-3.502 -14.835,0.26 -15.19,7.235 -0.249,4.884 1.452,6.515 11.12,10.67 6.357,2.731 7.276,8.01 1.859,10.675 -5.099,2.508 -10.815,-0.934 -11.802,-7.107 -0.14,-0.875 -0.195,-0.931 -0.918,-0.931 h -0.769 v 5.588 5.587 h 0.684 c 0.376,0 0.684,-0.104 0.684,-0.232 0,-0.127 0.316,-0.79 0.702,-1.474 l 0.701,-1.243 1.113,0.766 c 6.994,4.811 17.16,0.715 17.509,-7.053 0.199,-4.423 -1.342,-6.505 -6.487,-8.767 -8.774,-3.856 -10.114,-4.841 -10.116,-7.437 -0.003,-4.345 5.4,-7.025 9.583,-4.753 1.904,1.035 2.752,2.551 3.523,6.305 0.111,0.539 0.24,0.627 0.922,0.627 h 0.794 v -5.131 -5.132 h -0.657 c -0.584,0 -0.716,0.142 -1.167,1.255 m 97.035,-0.66 c -1.003,0.311 -2.902,0.749 -4.219,0.973 -2.305,0.392 -2.397,0.43 -2.466,1.016 -0.071,0.597 -0.047,0.609 1.254,0.622 3.679,0.036 3.524,-0.617 3.443,14.491 l -0.064,12.142 -0.532,0.566 c -0.569,0.605 -2.01,1.066 -3.332,1.066 -0.752,0 -0.811,0.051 -0.811,0.694 v 0.693 l 2.679,-0.18 c 3.103,-0.209 5.503,-0.226 9.179,-0.066 l 2.623,0.114 v -0.57 c 0,-0.521 -0.109,-0.582 -1.311,-0.732 -3.145,-0.393 -3.022,0.087 -3.022,-11.801 0,-11.066 0.055,-11.543 1.549,-13.502 2.121,-2.78 6.853,-3.386 9.286,-1.187 1.911,1.726 1.936,1.905 1.936,14.147 v 10.757 l -0.549,0.585 c -0.63,0.67 -1.035,0.827 -2.636,1.022 -1.035,0.127 -1.148,0.196 -1.148,0.711 v 0.57 l 2.622,-0.114 c 3.673,-0.16 6.313,-0.143 9.293,0.061 l 2.566,0.175 v -0.688 c 0,-0.643 -0.056,-0.689 -0.855,-0.69 -1.267,-0.002 -2.554,-0.422 -3.165,-1.033 l -0.541,-0.541 -0.004,-9.076 c -0.004,-9.749 -0.181,-12.564 -0.908,-14.472 -2.475,-6.498 -11.418,-7.861 -16.466,-2.509 l -1.467,1.555 -0.257,-2.304 c -0.26,-2.327 -0.438,-3.102 -0.706,-3.075 -0.08,0.009 -0.967,0.27 -1.971,0.58 m -281.3,-0.119 c -8.94,0.997 -13.96,12.818 -10.226,24.079 4.18,12.605 22.13,11.758 24.031,-1.135 l 0.162,-1.095 -1.322,0.069 -1.322,0.069 -0.294,1.298 c -1.094,4.833 -3.901,7.32 -8.292,7.347 -5.558,0.033 -8.661,-4.799 -8.665,-13.491 l -0.001,-1.425 h 9.92 9.92 v -0.747 c 0,-10.013 -5.479,-15.909 -13.911,-14.969 m 24.174,0.215 c -0.941,0.228 -2.768,0.541 -4.06,0.695 -2.335,0.278 -2.349,0.284 -2.281,0.873 0.066,0.568 0.141,0.597 1.842,0.718 1.425,0.101 1.872,0.225 2.28,0.633 l 0.508,0.508 v 12.873 12.874 l -0.591,0.591 c -0.627,0.627 -1.822,1.001 -3.229,1.01 -0.799,0.005 -0.855,0.051 -0.855,0.699 v 0.693 l 2.68,-0.18 c 1.474,-0.099 3.603,-0.18 4.732,-0.18 1.129,0 3.258,0.081 4.732,0.18 l 2.679,0.18 v -0.693 c 0,-0.649 -0.054,-0.694 -0.855,-0.695 -1.267,-0.002 -2.553,-0.422 -3.165,-1.033 l -0.541,-0.541 v -9.552 c 0,-10.443 0.106,-11.469 1.453,-14.128 1.997,-3.94 6.369,-4.081 5.953,-0.191 -0.188,1.753 0.433,2.663 2.018,2.961 2.732,0.512 4.276,-2.635 2.788,-5.678 -2.272,-4.643 -10.028,-3.509 -12.468,1.824 -0.23,0.501 -0.421,0.809 -0.425,0.684 -0.016,-0.559 -0.475,-4.395 -0.593,-4.96 -0.151,-0.73 -0.248,-0.736 -2.602,-0.165 m 59.065,-0.225 c -9.15,1.086 -14.338,13.9 -10.025,24.758 4.541,11.432 20.85,10.984 23.592,-0.649 0.538,-2.281 0.548,-2.259 -0.954,-2.18 l -1.298,0.068 -0.389,1.547 c -1.203,4.779 -3.841,7.065 -8.195,7.103 -5.364,0.046 -8.142,-3.944 -8.592,-12.34 l -0.138,-2.581 h 9.955 9.955 l -0.002,-0.969 c -0.011,-7.857 -4.136,-14.013 -9.817,-14.65 -0.683,-0.077 -1.55,-0.172 -1.926,-0.211 -0.376,-0.04 -1.351,0.007 -2.166,0.104 m 63.626,0.01 c -8.475,0.946 -13.392,11.308 -10.705,22.56 3.139,13.14 20.967,14.356 24.258,1.655 0.6,-2.315 0.575,-2.376 -0.94,-2.296 l -1.298,0.068 -0.377,1.499 c -1.229,4.881 -3.789,7.113 -8.207,7.151 -5.363,0.046 -8.132,-3.937 -8.591,-12.355 l -0.139,-2.566 h 9.987 9.987 l -0.14,-1.995 c -0.684,-9.728 -5.632,-14.635 -13.835,-13.721 m 110.49,-0.026 c -9.035,1.042 -14.119,12.818 -10.367,24.015 3.973,11.86 20.472,12.242 23.713,0.548 0.724,-2.612 0.695,-2.699 -0.843,-2.618 l -1.294,0.068 -0.294,1.298 c -1.21,5.343 -5.185,8.254 -9.926,7.27 -4.327,-0.898 -6.527,-4.767 -6.953,-12.23 l -0.149,-2.609 h 9.955 9.955 v -0.861 c 0,-6.519 -2.68,-11.894 -6.901,-13.845 -1.49,-0.688 -2.174,-0.847 -4.844,-1.123 -0.376,-0.039 -1.3,0 -2.052,0.087 m 55.201,0.897 c -0.112,0.181 -1.494,7.845 -1.495,8.289 -0.001,0.527 1.393,0.133 1.614,-0.457 1.256,-3.354 2.813,-5.337 4.609,-5.87 1.088,-0.323 10.88,-0.539 10.88,-0.24 0,0.057 -0.703,1.263 -1.563,2.679 -0.86,1.417 -4.743,7.81 -8.628,14.207 -3.885,6.397 -7.188,11.861 -7.338,12.144 l -0.274,0.513 h 11.473 11.473 l 0.756,-4.276 c 0.416,-2.352 0.809,-4.507 0.874,-4.789 0.259,-1.126 -1.403,-0.69 -1.741,0.456 -1.244,4.225 -3.338,6.349 -6.689,6.784 -1.792,0.233 -8.676,0.309 -8.886,0.099 -0.072,-0.072 0.924,-1.842 2.211,-3.934 1.288,-2.093 3.654,-5.96 5.259,-8.594 1.604,-2.633 3.145,-5.148 3.422,-5.587 2.789,-4.407 6.493,-10.767 6.493,-11.15 v -0.48 h -11.161 c -6.414,0 -11.215,0.087 -11.289,0.206 m -308.472,1.379 c 2.499,1.275 4.343,5.555 4.352,10.102 l 0.002,0.855 h -7.069 -7.07 l 0.004,-0.855 c 0.033,-7.201 5.136,-12.471 9.781,-10.102 m 83.236,0.003 c 2.356,1.215 3.883,4.486 4.272,9.153 l 0.15,1.801 h -7.102 -7.103 v -0.897 c 0,-7.177 5.133,-12.454 9.783,-10.057 m 63.644,0.01 c 2.342,1.207 3.913,4.55 4.261,9.063 l 0.145,1.881 h -7.136 -7.136 l 0.144,-1.539 c 0.693,-7.43 5.165,-11.755 9.722,-9.405 m 110.654,0.158 c 2.234,1.216 4.061,5.676 4.061,9.914 v 0.872 h -7.103 -7.102 l 0.144,-1.539 c 0.72,-7.683 5.223,-11.847 10,-9.247 m -144.356,0.108 c 3.962,1.187 6.225,8.564 5.427,17.691 -0.637,7.285 -2.965,10.863 -7.067,10.863 -4.779,0 -7.307,-5.127 -7.294,-14.791 0.015,-10.421 3.283,-15.456 8.934,-13.763 m 110.93,7.735 c 4.251,0.741 6.13,3.669 6.13,9.557 0,7.34 -2.97,10.262 -10.432,10.262 -5.376,0 -5.057,0.675 -5.147,-10.889 l -0.071,-9.179 h 4.044 c 2.223,0 4.688,0.112 5.476,0.249 m -36.173,4.084 v 1.824 h 7.411 7.412 v -1.824 -1.825 h -7.412 -7.411 v 1.825"
       id="path0" />
  </g>
</svg>
