<?xml version="1.0" encoding="UTF-8" standalone="no"?>
<svg
   
   
   
   
   xmlns="http://www.w3.org/2000/svg"
   id="svg"
   width="400"
   height="400"
   viewBox="0 0 400 400.00001"
   version="1.1">
  <metadata
     id="metadata9">
    
  </metadata>
  <defs
     id="defs7" />
  <g
     id="svgg"
     transform="translate(0,84.327914)">
    <path
       id="path0"
       d="m 183.70132,-78.497805 c -34.09638,4.10069 -59.15443,12.34144 -84.844779,27.90204 C 11.422265,2.3617123 -19.942939,116.01893 27.92212,206.44936 c 68.995577,130.34597 252.78964,139.74373 334.28407,17.09279 81.34489,-122.42268 3.07749,-286.707605 -143.80244,-301.848435 -5.06094,-0.5221 -30.78014,-0.66377 -34.70243,-0.19152 m 5.3574,50.761515 c -2.12512,14.807629 -7.06537,49.266063 -10.98241,76.575173 l -7.12047,49.651734 -2.00443,1.684353 c -1.10191,0.92614 -17.48633,13.84739 -36.40777,28.71274 -18.92145,14.86798 -36.287092,28.53172 -38.590617,30.36562 -2.303526,1.8339 -11.727517,9.24033 -20.941619,16.4605 -9.214103,7.22016 -18.354744,14.40884 -20.311954,15.97513 -4.827434,3.85932 -4.399786,4.25024 -10.137612,-9.28494 C -1.866297,77.60147 69.236035,-43.724542 181.30597,-54.344897 c 9.59977,-0.910392 10.7253,-0.973358 11.1923,-0.627042 0.23088,0.173158 -1.31705,12.430643 -3.43955,27.235649 m 29.64412,-26.624349 c 46.87071,4.360432 92.6054,31.244518 121.12137,71.196782 35.4764,49.704206 41.34802,115.784957 15.2484,171.565437 -1.57679,3.37396 -3.09586,6.13399 -3.37134,6.13399 -0.27547,0 -5.74569,-4.12431 -12.15516,-9.16688 -12.67202,-9.97232 -69.51768,-54.57887 -87.33983,-68.53645 -19.18642,-15.03063 -22.21407,-17.536176 -22.7519,-18.845355 -0.2886,-0.700503 -1.48234,-8.141048 -2.65247,-16.533962 -1.17013,-8.39029 -2.79939,-19.831834 -3.6232,-25.427984 -5.14227,-34.933308 -15.75737,-110.642691 -15.55798,-110.965395 0.25449,-0.41453 0.57457,-0.398788 11.08211,0.579817 m -9.09866,207.537689 c 4.83793,1.9336 23.33697,9.36628 41.10665,16.51823 17.76968,7.14932 46.04165,18.51478 62.82485,25.2522 16.78059,6.74004 30.62273,12.36243 30.75391,12.49623 0.40141,0.39617 -4.81432,7.92591 -9.97495,14.4036 -63.36794,79.54247 -180.75592,87.12993 -253.450785,16.38441 -9.484334,-9.23247 -25.978942,-29.65724 -24.853415,-30.78276 0.139051,-0.13905 10.082516,-4.20564 22.090758,-9.03308 12.008243,-4.82743 42.972032,-17.27119 68.804052,-27.65542 25.83202,-10.38161 48.17727,-19.36483 49.65961,-19.96039 3.67042,-1.47447 3.16931,-1.56629 13.03932,2.37698"
       style="fill-rule:evenodd;stroke:none;stroke-width:2.62360549" />
  </g>
</svg>
