<svg id="svg" version="1.1" xmlns="http://www.w3.org/2000/svg" xmlns:xlink="http://www.w3.org/1999/xlink" width="400" height="400" viewBox="0, 0, 400,400"><g id="svgg"><path id="path0" d="M152.800 261.600 C 152.321 261.753,152.622 261.814,153.867 261.814 C 155.112 261.814,155.412 261.753,154.933 261.600 C 154.567 261.483,154.087 261.386,153.867 261.386 C 153.647 261.386,153.167 261.483,152.800 261.600 M166.558 269.878 C 164.137 270.602,162.246 274.444,163.310 276.480 C 164.662 279.070,167.666 280.220,170.041 279.058 C 173.588 277.323,174.061 273.394,171.010 271.002 C 169.162 269.553,168.338 269.345,166.558 269.878 M259.467 270.073 C 257.325 271.233,255.921 274.327,256.679 276.219 C 258.350 280.396,263.825 280.737,265.789 276.785 C 267.743 272.854,263.212 268.044,259.467 270.073 M273.931 271.598 C 272.369 272.277,272.400 271.889,272.400 290.933 C 272.400 300.540,272.295 309.126,272.168 310.014 C 271.811 312.489,272.406 313.052,275.757 313.416 C 278.580 313.722,279.392 313.601,280.410 312.725 L 281.113 312.121 281.079 292.826 C 281.043 272.198,281.064 272.537,279.759 271.542 C 279.158 271.083,275.025 271.123,273.931 271.598 M180.127 276.906 C 178.646 277.551,178.604 277.880,178.651 288.400 C 178.735 307.337,178.996 308.520,183.693 311.293 C 189.191 314.540,194.942 314.105,194.927 310.443 C 194.913 307.027,193.966 305.557,191.574 305.238 C 188.289 304.801,187.638 303.654,187.616 298.267 C 187.595 292.952,188.319 291.735,191.507 291.732 C 193.970 291.730,195.129 290.145,194.858 287.152 C 194.626 284.597,193.979 284.027,190.823 283.599 C 189.055 283.359,188.108 282.411,187.868 280.643 C 187.384 277.074,186.785 276.529,183.364 276.544 C 181.962 276.550,180.592 276.703,180.127 276.906 M123.733 283.452 C 117.235 284.659,113.583 291.141,113.959 300.800 C 114.041 302.927,113.986 306.217,113.835 308.111 C 113.467 312.751,114.085 313.514,118.267 313.577 C 122.528 313.641,122.509 313.688,122.522 303.384 C 122.533 295.214,122.560 294.755,123.082 293.867 C 124.786 290.966,129.259 291.127,130.872 294.147 C 131.505 295.333,131.505 295.335,131.427 303.668 L 131.349 312.003 132.081 312.735 C 132.774 313.427,132.947 313.467,135.273 313.467 C 139.575 313.467,140.525 312.570,139.976 309.031 C 139.429 305.505,139.770 296.400,140.511 294.731 C 142.245 290.828,146.120 290.573,148.078 294.234 C 148.648 295.298,148.667 295.600,148.682 303.656 C 148.701 313.665,148.670 313.600,153.488 313.600 C 157.263 313.600,157.301 313.478,157.099 302.000 L 156.931 292.400 156.200 290.908 C 152.632 283.632,145.813 281.354,138.443 284.975 C 135.886 286.231,134.565 286.143,131.609 284.521 C 129.389 283.302,126.587 282.922,123.733 283.452 M232.933 283.458 C 230.979 283.683,228.584 284.555,227.104 285.578 C 226.007 286.337,225.518 286.929,223.446 290.000 C 222.852 290.880,222.083 291.994,221.737 292.476 C 220.961 293.556,220.717 295.534,220.842 299.738 L 220.933 302.800 222.386 305.333 C 226.363 312.266,231.928 314.948,238.479 313.089 C 240.420 312.538,240.641 312.525,241.812 312.897 C 244.988 313.906,248.607 313.759,249.876 312.570 L 250.625 311.867 250.399 303.467 C 250.092 292.033,249.767 290.795,246.191 287.428 C 242.414 283.871,238.779 282.783,232.933 283.458 M322.607 283.616 C 321.199 284.379,321.216 284.201,321.204 298.667 L 321.193 312.133 321.948 312.906 C 322.703 313.677,322.705 313.678,325.208 313.513 C 330.094 313.193,330.123 313.150,329.935 306.411 C 329.646 296.014,330.930 293.740,338.079 291.987 C 339.843 291.554,340.313 290.605,340.213 287.672 C 340.078 283.728,338.679 283.007,334.323 284.639 C 331.133 285.833,330.244 285.855,328.711 284.775 C 326.908 283.504,323.874 282.928,322.607 283.616 M90.814 283.908 C 82.374 285.435,77.473 294.344,80.070 303.442 C 82.574 312.218,93.973 316.562,101.733 311.699 C 104.779 309.790,105.285 309.369,107.033 307.289 C 110.417 303.264,109.704 301.006,104.851 300.377 L 103.435 300.194 101.918 301.808 C 97.789 306.199,93.665 306.837,90.178 303.623 C 86.158 299.918,87.404 292.098,92.373 289.842 C 96.942 287.767,98.450 292.447,93.986 294.847 C 91.223 296.332,90.728 297.715,92.373 299.360 C 93.632 300.619,96.578 300.371,97.467 298.932 C 97.561 298.781,98.217 298.363,98.926 298.004 C 99.634 297.645,100.776 296.864,101.464 296.269 C 102.152 295.673,103.214 294.937,103.824 294.631 C 107.523 292.782,107.834 291.083,105.018 288.118 C 101.323 284.229,96.669 282.849,90.814 283.908 M169.031 283.590 C 168.977 283.644,168.033 283.812,166.933 283.964 C 165.264 284.194,164.828 284.362,164.296 284.979 L 163.658 285.718 163.850 296.264 C 163.982 303.524,163.950 307.482,163.747 308.967 C 163.262 312.506,163.849 313.163,167.780 313.482 C 170.366 313.692,171.824 313.360,172.310 312.452 C 172.707 311.711,172.644 286.680,172.242 285.422 C 171.896 284.336,169.599 283.026,169.031 283.590 M298.753 283.747 C 289.200 285.004,283.556 296.763,288.280 305.566 C 290.014 308.796,294.497 312.613,297.422 313.350 C 300.830 314.208,307.027 313.399,308.859 311.858 C 309.306 311.482,310.165 310.928,310.769 310.626 C 314.573 308.724,317.598 303.344,315.742 301.781 C 313.328 299.750,311.318 299.924,308.655 302.394 C 303.386 307.279,298.494 306.614,295.495 300.606 C 294.025 297.661,294.049 296.998,295.727 294.133 C 298.253 289.821,301.954 288.065,303.738 290.333 C 304.942 291.863,304.329 293.028,301.296 294.973 C 298.662 296.663,298.386 297.207,299.336 298.828 C 300.053 300.052,300.682 300.533,301.566 300.533 C 302.149 300.533,308.036 297.106,308.993 296.209 C 309.319 295.903,310.577 294.981,311.787 294.158 C 315.289 291.781,315.242 290.871,311.444 287.504 C 307.662 284.151,303.974 283.060,298.753 283.747 M59.228 284.148 C 54.872 285.342,52.718 288.326,53.160 292.554 C 53.536 296.154,54.923 297.539,60.841 300.227 C 63.386 301.382,64.053 302.089,64.053 303.626 C 64.053 305.531,63.536 305.733,58.680 305.733 C 53.771 305.733,53.395 305.898,52.662 308.366 C 51.298 312.958,52.103 313.405,61.504 313.287 L 68.400 313.200 69.729 312.419 C 77.743 307.709,75.589 298.645,65.675 295.357 C 63.208 294.539,62.297 292.770,63.576 291.282 C 64.214 290.540,64.255 290.532,68.043 290.400 C 70.146 290.327,72.018 290.169,72.202 290.050 C 73.554 289.175,73.698 285.844,72.438 284.583 L 71.722 283.867 66.195 283.810 C 61.999 283.767,60.320 283.849,59.228 284.148 M201.591 284.333 C 200.289 285.213,200.274 285.390,200.308 299.256 C 200.345 314.222,200.058 312.966,203.555 313.436 C 207.844 314.013,208.501 313.055,208.332 306.473 C 208.078 296.589,209.222 294.030,214.649 292.343 C 217.728 291.386,218.402 290.716,218.394 288.621 C 218.374 283.840,217.177 283.038,212.496 284.667 C 211.022 285.180,209.524 285.600,209.168 285.600 C 208.812 285.600,207.910 285.180,207.164 284.667 C 205.434 283.477,203.068 283.335,201.591 284.333 M259.319 284.018 C 258.871 284.148,258.218 284.559,257.869 284.930 L 257.235 285.606 257.267 298.845 C 257.297 311.508,257.321 312.106,257.809 312.594 C 259.173 313.958,263.955 313.909,265.214 312.518 C 265.901 311.759,265.855 286.168,265.165 285.111 C 264.369 283.893,261.559 283.367,259.319 284.018 M237.950 292.552 C 241.295 293.481,243.156 300.131,241.191 304.133 C 239.928 306.704,232.626 304.953,230.847 301.653 C 227.947 296.273,232.115 290.932,237.950 292.552 " stroke="none" fill="#bcbbc3" fill-rule="evenodd"></path><path id="path1" d="M94.000 74.001 C 91.553 74.400,86.216 76.318,83.234 77.870 C 82.115 78.453,79.824 79.471,78.142 80.134 C 76.182 80.906,74.533 81.766,73.552 82.528 C 72.709 83.182,71.025 84.217,69.810 84.827 C 63.812 87.838,52.907 97.403,46.733 105.067 C 45.847 106.167,44.439 107.907,43.605 108.933 C 42.770 109.960,41.787 111.386,41.420 112.103 C 41.054 112.820,40.106 114.257,39.314 115.297 C 38.521 116.337,37.258 118.450,36.506 119.994 C 35.754 121.537,34.559 123.820,33.851 125.067 C 32.626 127.221,31.757 129.380,29.934 134.800 C 29.490 136.120,28.698 138.416,28.174 139.902 C 23.396 153.469,23.701 181.183,28.762 193.344 C 29.342 194.736,30.139 197.074,30.533 198.538 C 31.508 202.161,36.765 212.862,39.858 217.518 C 46.415 227.388,55.561 237.162,62.713 241.941 C 63.934 242.757,65.557 243.944,66.318 244.579 C 67.080 245.214,68.749 246.333,70.027 247.067 C 71.305 247.800,73.295 249.022,74.450 249.782 C 75.605 250.542,76.996 251.309,77.542 251.485 C 78.087 251.662,79.133 252.107,79.867 252.475 C 80.600 252.843,82.028 253.425,83.040 253.769 C 84.051 254.113,85.469 254.774,86.191 255.237 C 88.261 256.565,96.395 258.968,100.533 259.474 C 101.780 259.626,104.540 260.111,106.666 260.551 C 112.662 261.791,115.409 261.908,135.200 261.763 C 145.100 261.691,153.680 261.649,154.267 261.672 C 154.853 261.694,167.993 261.717,183.467 261.723 C 215.155 261.735,212.840 261.887,213.935 259.724 C 214.715 258.182,214.520 146.498,213.733 144.951 C 212.530 142.582,216.204 142.805,177.647 142.760 L 143.600 142.719 142.254 143.320 C 140.052 144.303,137.779 146.714,135.329 150.667 C 134.920 151.327,134.000 152.511,133.284 153.297 C 132.569 154.084,131.421 155.524,130.735 156.497 C 130.049 157.471,128.840 159.039,128.048 159.982 C 127.257 160.926,126.294 162.186,125.907 162.782 C 124.824 164.456,122.434 167.681,122.146 167.859 C 121.872 168.028,117.267 174.158,115.740 176.385 C 115.244 177.110,114.082 178.526,113.158 179.532 C 111.199 181.667,110.664 182.972,111.208 184.286 C 111.894 185.943,111.028 185.889,136.482 185.856 C 159.566 185.826,160.555 185.862,161.295 186.754 C 161.788 187.348,161.926 210.957,161.443 212.182 C 160.757 213.923,161.744 213.852,138.092 213.869 C 125.241 213.878,115.866 213.778,114.667 213.618 C 109.015 212.866,107.462 212.539,105.960 211.788 C 105.102 211.359,103.560 210.737,102.533 210.407 C 96.540 208.476,87.447 201.549,83.667 196.032 C 83.203 195.355,82.140 193.960,81.305 192.933 C 79.563 190.791,76.169 184.095,75.760 181.993 C 75.618 181.264,75.257 179.407,74.957 177.867 C 74.658 176.327,74.283 174.467,74.124 173.733 C 73.169 169.329,73.511 161.538,75.055 152.543 L 75.716 148.687 78.377 143.343 C 80.171 139.740,81.526 137.392,82.540 136.133 C 83.367 135.107,84.604 133.434,85.289 132.416 C 86.138 131.153,87.253 129.994,88.800 128.767 C 90.047 127.778,91.207 126.738,91.378 126.457 C 92.252 125.018,101.533 119.585,104.719 118.646 L 107.333 117.876 172.084 117.871 C 215.717 117.868,237.001 117.956,237.345 118.139 C 238.586 118.804,238.526 115.559,238.667 189.200 C 238.817 267.707,238.580 260.036,240.884 261.082 C 242.386 261.763,296.911 261.895,298.524 261.221 C 300.584 260.360,300.393 267.397,300.455 189.867 C 300.485 151.807,300.577 120.293,300.660 119.837 C 301.014 117.884,299.575 118.015,322.228 117.867 L 342.533 117.733 343.796 116.991 C 344.596 116.521,345.586 115.543,346.496 114.324 C 347.286 113.266,348.380 111.980,348.925 111.467 C 349.471 110.953,350.289 109.993,350.744 109.333 C 351.824 107.763,357.855 100.359,359.741 98.287 C 360.552 97.396,361.802 95.827,362.519 94.800 C 363.236 93.773,364.263 92.453,364.801 91.867 C 365.738 90.846,370.624 84.952,372.489 82.592 C 372.978 81.973,374.142 80.687,375.075 79.733 C 377.574 77.180,378.005 75.546,376.513 74.290 L 375.692 73.600 235.913 73.626 C 122.317 73.648,95.734 73.718,94.000 74.001 " stroke="none" fill="#d4041c" fill-rule="evenodd"></path></g></svg>