<svg id="svg" xmlns="http://www.w3.org/2000/svg" xmlns:xlink="http://www.w3.org/1999/xlink" width="400" height="400" viewBox="0, 0, 400,400"><g id="svgg"><path id="path0" d="M80.616 96.467 C 77.704 96.893,70.742 99.356,68.564 100.731 C 67.852 101.180,66.455 101.855,65.459 102.231 C 59.923 104.321,59.172 104.689,56.973 106.398 C 56.076 107.095,54.403 108.119,53.257 108.673 C 50.958 109.783,48.241 111.554,46.198 113.273 C 45.467 113.888,44.028 115.059,42.999 115.875 C 41.971 116.691,40.846 117.626,40.499 117.953 C 40.153 118.279,38.489 119.815,36.802 121.365 C 33.497 124.403,29.825 128.377,26.637 132.366 C 22.165 137.960,21.662 138.630,21.662 138.984 C 21.662 139.186,20.708 140.680,19.542 142.302 C 18.376 143.925,16.755 146.654,15.941 148.368 C 15.126 150.082,14.002 152.200,13.443 153.076 C 12.346 154.794,10.069 160.418,9.355 163.173 C 9.113 164.107,8.500 165.865,7.991 167.080 C 6.953 169.561,5.864 173.153,5.341 175.816 C 5.149 176.795,4.870 178.197,4.722 178.932 C 1.786 193.422,3.244 218.795,7.617 229.321 C 8.207 230.739,9.078 233.301,9.553 235.015 C 10.163 237.214,11.330 239.983,13.517 244.426 C 15.222 247.888,16.617 250.813,16.617 250.924 C 16.617 251.035,17.861 253.009,19.382 255.311 C 20.903 257.612,22.396 259.896,22.700 260.386 C 23.366 261.459,26.217 264.988,29.583 268.904 C 32.989 272.868,41.530 280.842,44.544 282.873 C 45.913 283.795,47.927 285.255,49.019 286.117 C 50.112 286.980,51.647 288.051,52.432 288.499 C 56.122 290.603,58.014 291.765,58.732 292.369 C 59.162 292.731,60.110 293.280,60.840 293.590 C 61.569 293.900,63.435 294.723,64.985 295.419 C 66.536 296.115,68.205 296.767,68.694 296.868 C 69.184 296.969,70.580 297.648,71.797 298.377 C 73.013 299.107,74.187 299.703,74.406 299.703 C 74.624 299.703,76.433 300.233,78.425 300.880 C 82.347 302.155,85.109 302.787,88.131 303.102 C 89.191 303.212,91.927 303.697,94.209 304.178 C 101.021 305.616,101.757 305.633,157.418 305.634 C 216.694 305.635,212.667 305.820,213.845 303.036 C 214.350 301.843,214.456 179.542,213.955 176.898 C 213.140 172.600,216.977 172.965,172.924 173.004 L 135.163 173.037 133.603 173.808 C 131.534 174.832,127.761 178.967,126.302 181.812 C 126.034 182.335,125.003 183.670,124.010 184.779 C 123.018 185.888,121.796 187.396,121.295 188.131 C 120.795 188.865,119.625 190.401,118.696 191.543 C 117.768 192.685,115.966 195.089,114.692 196.884 C 113.419 198.680,111.794 200.816,111.082 201.632 C 109.668 203.253,105.697 208.568,104.335 210.663 C 103.865 211.387,102.640 212.873,101.614 213.966 C 98.733 217.033,98.372 219.409,100.611 220.550 C 101.561 221.034,103.423 221.070,127.525 221.063 C 154.535 221.056,154.602 221.059,155.333 222.242 C 155.431 222.401,155.551 228.577,155.599 235.968 C 155.695 250.688,155.672 250.919,153.981 251.793 C 152.995 252.303,107.137 252.427,103.412 251.930 C 96.960 251.069,95.125 250.686,93.487 249.859 C 92.549 249.386,90.860 248.709,89.734 248.355 C 87.165 247.548,81.577 244.569,79.663 242.988 C 78.866 242.330,77.875 241.613,77.461 241.394 C 76.528 240.903,70.082 234.078,68.234 231.625 C 67.487 230.633,66.204 228.941,65.384 227.865 C 64.563 226.789,63.454 224.853,62.919 223.563 C 62.383 222.272,61.700 220.871,61.401 220.448 C 60.729 219.497,59.805 216.508,59.391 213.947 C 59.220 212.886,58.803 210.616,58.466 208.902 C 57.275 202.866,57.338 194.349,58.622 187.537 C 58.852 186.313,59.248 184.043,59.501 182.493 C 60.084 178.914,64.730 169.204,67.523 165.727 C 68.440 164.585,69.853 162.697,70.662 161.533 C 71.656 160.103,72.951 158.775,74.657 157.439 C 76.045 156.352,77.251 155.277,77.338 155.051 C 77.578 154.427,81.459 151.837,88.339 147.709 C 88.862 147.395,90.649 146.747,92.310 146.270 L 95.329 145.401 167.323 145.410 C 223.463 145.417,239.416 145.499,239.763 145.781 C 241.184 146.936,241.087 141.773,241.246 224.749 C 241.412 311.077,241.192 303.392,243.526 304.679 L 244.764 305.362 275.855 305.347 C 304.737 305.333,307.022 305.295,307.999 304.817 C 310.110 303.784,309.933 310.796,310.013 225.137 C 310.093 140.420,309.962 146.366,311.755 145.685 C 312.206 145.513,321.177 145.401,334.407 145.401 L 356.312 145.401 357.893 144.575 C 359.035 143.978,359.914 143.175,361.057 141.682 C 361.927 140.545,363.239 139.004,363.971 138.258 C 364.703 137.513,365.732 136.288,366.256 135.536 C 367.540 133.699,374.290 125.502,375.994 123.711 C 376.745 122.922,378.068 121.237,378.933 119.966 C 379.798 118.695,380.732 117.455,381.008 117.211 C 381.451 116.817,387.831 109.130,390.448 105.836 C 390.989 105.156,392.209 103.798,393.160 102.819 C 396.094 99.797,396.426 97.695,394.159 96.488 C 393.380 96.073,83.453 96.053,80.616 96.467 " stroke="none" fill-rule="evenodd"></path></g></svg>