<svg id="svg" xmlns="http://www.w3.org/2000/svg"  width="400" height="400" viewBox="0, 0, 400,400"><g id="svgg"><path id="path0" d="M177.197 25.332 C 122.973 31.873,80.542 54.277,60.878 86.748 C 57.909 91.652,57.894 91.650,72.318 88.455 C 117.252 78.503,182.376 71.706,189.312 76.244 C 193.957 79.283,194.016 80.464,193.274 155.467 L 192.585 225.178 200.307 225.178 L 208.030 225.178 207.507 153.682 C 206.931 75.003,206.668 78.832,212.848 75.800 C 220.600 71.999,277.792 78.027,323.454 87.460 C 333.349 89.504,341.586 91.035,341.758 90.863 C 342.739 89.882,331.177 74.489,324.507 67.893 C 293.300 37.036,230.525 18.899,177.197 25.332 M137.767 95.979 C 102.686 98.609,57.140 105.448,52.601 108.766 C 49.857 110.773,49.574 130.104,52.132 140.828 C 59.333 171.020,86.776 197.388,126.366 212.156 C 135.541 215.578,150.984 219.879,151.661 219.202 C 152.826 218.037,163.209 169.675,168.646 140.091 C 176.852 95.442,175.260 93.168,137.767 95.979 M236.909 96.102 C 227.994 98.103,225.950 103.986,228.488 120.339 C 232.474 146.027,247.190 217.004,248.909 218.837 C 249.963 219.960,268.554 214.400,280.288 209.453 C 328.137 189.280,355.721 151.566,349.667 114.597 C 348.558 107.825,349.217 108.489,341.902 106.782 C 311.119 99.599,249.325 93.313,236.909 96.102 M0.000 290.261 L 0.000 304.988 14.252 304.988 L 28.504 304.988 28.504 340.143 L 28.504 375.297 48.456 375.297 L 68.409 375.297 68.409 340.143 L 68.409 304.988 82.185 304.988 L 95.962 304.988 95.962 290.261 L 95.962 275.534 47.981 275.534 L 0.000 275.534 0.000 290.261 M105.509 324.228 C 95.385 351.010,86.908 373.465,86.672 374.129 C 86.331 375.086,90.254 375.283,105.543 375.079 L 124.844 374.822 134.824 345.624 C 140.509 328.990,145.108 316.919,145.512 317.572 C 145.902 318.203,150.587 331.449,155.925 347.008 L 165.629 375.297 184.952 375.297 C 195.580 375.297,204.276 375.007,204.276 374.652 C 204.276 374.297,195.666 351.851,185.143 324.771 L 166.011 275.534 144.964 275.534 L 123.917 275.534 105.509 324.228 M195.724 290.261 L 195.724 304.988 209.976 304.988 L 224.228 304.988 224.228 340.143 L 224.228 375.297 244.181 375.297 L 264.133 375.297 264.133 340.143 L 264.133 304.988 277.910 304.988 L 291.686 304.988 291.686 290.261 L 291.686 275.534 243.705 275.534 L 195.724 275.534 195.724 290.261 M301.188 324.560 C 290.998 351.523,282.518 373.969,282.344 374.440 C 282.162 374.931,290.271 375.295,301.346 375.293 L 320.665 375.289 330.641 345.893 C 336.128 329.726,340.885 316.794,341.212 317.156 C 341.539 317.518,346.242 330.743,351.664 346.544 L 361.520 375.273 380.760 375.285 C 391.546 375.292,400.000 374.921,400.000 374.441 C 400.000 373.971,391.478 351.631,381.063 324.798 L 362.125 276.010 340.920 275.773 L 319.715 275.537 301.188 324.560 " stroke="none" fill="#466AAF" fill-rule="evenodd"></path></g></svg>