<svg id="svg" version="1.1" xmlns="http://www.w3.org/2000/svg"  width="400" height="400" viewBox="0, 0, 400,400"><g id="svgg"><path id="path0" d="M12.892 175.832 C 9.508 181.327,5.208 188.284,3.335 191.294 C -0.492 197.442,-0.494 197.461,2.070 201.545 C 2.723 202.586,4.581 206.047,6.199 209.237 C 7.817 212.427,9.452 215.522,9.833 216.114 C 11.006 217.934,11.426 218.714,14.462 224.705 C 16.078 227.895,17.519 230.602,17.663 230.720 C 17.807 230.838,18.247 231.563,18.641 232.331 C 19.556 234.116,20.006 234.092,20.623 232.223 C 20.896 231.396,21.309 230.720,21.541 230.720 C 21.773 230.720,21.857 230.549,21.728 230.341 C 21.599 230.132,21.830 229.502,22.240 228.941 C 23.142 227.708,23.558 226.975,25.935 222.431 C 26.950 220.491,28.249 218.131,28.823 217.186 C 29.397 216.241,30.619 213.952,31.539 212.099 C 32.459 210.247,33.472 208.631,33.792 208.509 C 34.111 208.386,34.372 208.092,34.372 207.855 C 34.372 207.361,36.965 202.125,38.474 199.570 C 39.607 197.654,39.731 196.984,39.092 196.222 C 38.004 194.924,35.233 190.498,35.232 190.057 C 35.231 189.787,34.941 189.454,34.586 189.318 C 34.232 189.182,33.942 188.864,33.942 188.610 C 33.942 188.357,33.585 187.626,33.149 186.986 C 31.027 183.872,27.927 178.611,27.927 178.124 C 27.927 177.823,27.540 177.227,27.068 176.799 C 26.595 176.371,26.208 175.825,26.208 175.585 C 26.208 175.345,25.887 174.793,25.495 174.360 C 24.678 173.457,23.938 172.242,22.998 170.263 C 22.294 168.778,19.877 165.843,19.359 165.843 C 19.185 165.843,16.275 170.338,12.892 175.832 M24.165 179.807 C 23.991 180.719,23.724 180.881,22.388 180.881 L 20.817 180.881 20.044 184.634 C 19.619 186.698,19.091 188.604,18.870 188.870 C 18.251 189.617,16.259 189.086,16.505 188.240 C 16.842 187.081,17.615 182.497,17.615 181.661 C 17.615 181.080,17.286 180.881,16.327 180.881 C 15.363 180.881,15.038 180.682,15.038 180.093 C 15.038 178.827,15.383 178.733,19.991 178.733 L 24.371 178.733 24.165 179.807 M48.082 185.003 C 47.617 185.498,47.348 186.192,47.483 186.545 C 47.619 186.899,47.429 187.438,47.060 187.743 C 46.571 188.150,46.515 188.448,46.852 188.854 C 47.106 189.160,47.253 189.763,47.180 190.194 C 47.060 190.896,47.481 191.000,51.239 191.192 C 53.545 191.310,55.434 191.553,55.436 191.731 C 55.448 192.737,54.812 194.232,54.097 194.879 C 53.645 195.288,53.276 196.064,53.276 196.604 C 53.276 197.144,53.095 197.698,52.874 197.835 C 52.652 197.972,52.474 198.418,52.476 198.827 C 52.479 199.236,52.267 200.344,52.004 201.289 C 51.742 202.234,51.460 203.394,51.378 203.867 C 51.296 204.339,51.081 205.084,50.901 205.521 C 50.690 206.034,50.786 206.452,51.173 206.696 C 51.601 206.968,51.619 207.078,51.235 207.083 C 50.300 207.094,50.656 208.351,51.665 208.604 C 52.197 208.737,54.359 208.789,56.470 208.719 L 60.308 208.593 61.054 205.585 C 61.464 203.931,62.324 200.258,62.965 197.422 C 64.444 190.887,64.150 191.192,68.944 191.192 L 72.906 191.192 73.558 188.507 C 74.595 184.234,75.076 184.384,59.802 184.220 C 49.242 184.106,48.903 184.129,48.082 185.003 M160.575 184.492 C 160.210 184.857,159.680 186.772,159.373 188.832 C 159.072 190.860,158.664 192.619,158.467 192.741 C 158.270 192.862,158.110 193.401,158.110 193.939 C 158.110 194.476,157.979 195.046,157.820 195.205 C 157.547 195.478,157.293 196.927,157.226 198.595 C 157.209 199.004,157.015 199.450,156.793 199.587 C 156.572 199.724,156.391 200.366,156.391 201.014 C 156.391 201.661,156.197 202.386,155.959 202.623 C 155.327 203.255,155.052 207.586,155.602 208.248 C 156.109 208.859,163.536 209.055,164.363 208.479 C 164.613 208.305,165.035 206.959,165.302 205.487 C 166.195 200.563,166.297 200.468,171.003 200.180 C 178.088 199.747,182.170 196.714,182.170 191.882 C 182.170 186.687,178.822 184.885,168.636 184.597 C 165.328 184.503,162.307 184.294,161.924 184.132 C 161.523 183.963,160.951 184.116,160.575 184.492 M253.103 184.706 C 252.329 185.480,251.774 187.902,251.913 189.903 C 251.986 190.961,252.050 190.979,256.176 191.100 C 259.344 191.193,260.365 191.365,260.365 191.803 C 260.365 192.779,259.317 194.940,258.867 194.891 C 258.634 194.865,258.378 195.183,258.299 195.596 C 258.219 196.010,258.361 196.348,258.615 196.348 C 258.869 196.348,259.076 196.553,259.076 196.803 C 259.076 197.053,258.905 197.152,258.695 197.023 C 257.680 196.395,255.190 205.386,256.082 206.460 C 256.352 206.785,256.434 207.275,256.266 207.548 C 255.736 208.406,257.030 208.794,260.437 208.801 C 264.224 208.809,265.091 208.576,265.091 207.555 C 265.091 207.152,265.492 205.191,265.981 203.197 C 266.470 201.202,267.154 198.410,267.500 196.992 C 267.846 195.575,268.324 193.690,268.561 192.803 L 268.991 191.192 273.212 191.192 L 277.434 191.192 277.985 188.592 C 278.721 185.126,279.230 185.294,267.240 185.053 C 261.450 184.937,256.074 184.638,255.294 184.389 C 254.107 184.009,253.747 184.061,253.103 184.706 M319.678 184.507 C 319.396 184.847,319.117 186.067,319.059 187.217 C 319.001 188.368,318.530 190.183,318.014 191.250 C 317.497 192.317,317.021 193.987,316.956 194.961 C 316.891 195.935,316.698 196.871,316.528 197.041 C 316.358 197.211,316.219 197.887,316.219 198.542 C 316.219 199.198,316.038 199.846,315.817 199.983 C 315.596 200.120,315.411 200.566,315.406 200.975 C 315.390 202.430,314.390 206.883,313.958 207.422 C 313.192 208.376,314.030 208.593,318.491 208.593 L 322.840 208.593 323.219 206.874 C 323.427 205.929,324.258 202.423,325.064 199.084 C 327.009 191.028,327.132 191.622,323.523 191.622 C 321.136 191.622,320.516 191.489,320.516 190.977 C 320.516 190.323,320.722 190.286,325.007 190.174 L 327.135 190.118 327.696 188.185 C 328.350 185.933,328.175 185.177,326.999 185.177 C 326.533 185.177,326.026 184.975,325.873 184.727 C 325.686 184.424,325.373 184.459,324.919 184.834 C 324.408 185.256,324.200 185.267,324.070 184.879 C 323.975 184.597,323.639 184.465,323.324 184.586 C 323.009 184.707,322.623 184.600,322.467 184.347 C 322.056 183.682,320.278 183.784,319.678 184.507 M331.524 184.689 C 331.109 185.148,330.814 185.783,330.869 186.102 C 330.968 186.686,330.542 188.715,330.070 189.903 C 329.783 190.624,329.746 190.794,329.088 194.415 C 328.830 195.832,328.501 197.282,328.357 197.637 C 328.090 198.295,327.866 199.326,327.659 200.859 C 327.595 201.332,327.322 202.128,327.052 202.629 C 326.782 203.129,326.678 203.656,326.822 203.800 C 326.965 203.943,326.853 204.337,326.573 204.675 C 326.039 205.319,326.315 207.309,327.072 208.271 C 327.346 208.618,328.674 208.808,330.827 208.808 C 334.783 208.808,334.757 208.832,335.720 204.296 C 336.121 202.406,337.294 197.478,338.326 193.345 C 340.499 184.645,340.605 185.430,337.175 184.789 C 335.692 184.512,333.984 184.189,333.379 184.071 C 332.634 183.925,332.035 184.125,331.524 184.689 M233.512 185.073 C 233.040 185.170,231.493 185.789,230.075 186.449 C 228.657 187.109,227.159 187.763,226.745 187.903 C 226.332 188.043,225.994 188.530,225.994 188.985 C 225.994 190.084,225.200 190.333,221.697 190.333 C 218.432 190.333,217.401 190.589,217.401 191.400 C 217.401 191.701,217.111 192.187,216.756 192.481 C 216.228 192.919,216.112 192.890,216.112 192.319 C 216.112 191.747,215.553 191.608,212.997 191.547 C 210.753 191.493,210.423 191.425,211.815 191.305 C 215.361 190.999,214.846 190.284,211.178 190.420 L 207.751 190.548 207.173 192.911 C 206.855 194.211,206.610 195.737,206.628 196.304 C 206.646 196.870,206.488 197.546,206.276 197.807 C 206.065 198.068,205.779 199.248,205.639 200.430 C 205.321 203.131,205.211 203.577,204.475 205.122 C 204.048 206.018,204.016 206.423,204.363 206.539 C 204.631 206.628,204.753 207.069,204.635 207.520 C 204.355 208.592,205.555 208.891,209.461 208.722 L 212.460 208.593 213.404 204.831 C 214.897 198.883,216.551 196.778,219.729 196.778 C 220.873 196.778,221.224 196.497,222.112 194.871 C 223.344 192.616,223.852 192.683,223.533 195.059 C 223.315 196.687,223.362 196.778,224.433 196.778 C 225.055 196.778,225.564 196.877,225.564 196.998 C 225.564 197.323,224.578 199.030,223.903 199.874 C 223.581 200.277,223.302 201.582,223.284 202.774 C 223.266 203.966,223.095 204.941,222.904 204.941 C 222.713 204.941,222.556 205.146,222.556 205.396 C 222.556 205.646,222.752 205.730,222.990 205.583 C 223.229 205.436,223.760 205.905,224.172 206.626 C 225.408 208.794,229.205 209.777,233.231 208.971 C 234.603 208.697,234.772 208.424,235.256 205.693 L 235.541 204.082 233.717 204.082 L 231.892 204.082 232.164 202.093 C 232.771 197.666,233.257 196.778,235.069 196.778 C 238.038 196.778,239.111 191.945,236.196 191.703 C 234.425 191.557,234.460 191.751,235.485 187.755 C 235.697 186.928,235.872 186.113,235.873 185.944 C 235.877 185.425,234.420 184.888,233.512 185.073 M96.922 190.276 C 96.469 190.459,96.042 190.885,95.972 191.223 C 95.902 191.560,95.628 192.610,95.362 193.555 C 95.097 194.501,94.712 196.144,94.506 197.207 C 93.734 201.202,93.118 203.894,92.785 204.726 C 91.352 208.304,92.035 208.896,97.393 208.717 L 101.117 208.593 101.861 205.132 C 103.189 198.947,104.482 197.241,107.976 197.060 C 109.838 196.964,113.030 191.622,111.226 191.622 C 110.892 191.622,110.909 191.423,111.278 190.977 C 111.749 190.410,111.078 190.332,105.638 190.327 C 102.242 190.324,99.076 190.236,98.604 190.132 C 98.131 190.028,97.374 190.093,96.922 190.276 M75.298 191.040 C 73.901 191.728,70.892 194.732,70.892 195.437 C 70.892 196.960,78.086 197.694,79.799 196.346 C 80.939 195.450,82.719 195.237,83.729 195.877 C 84.585 196.419,83.930 197.188,82.805 196.962 C 82.278 196.855,81.461 196.948,80.988 197.167 C 78.671 198.243,77.265 198.437,74.741 198.031 C 72.030 197.594,71.321 197.730,71.321 198.687 C 71.321 199.000,70.838 199.573,70.247 199.960 C 69.656 200.348,69.173 201.035,69.173 201.488 C 69.173 201.942,69.017 202.409,68.827 202.526 C 68.140 202.951,68.794 205.800,69.577 205.800 C 69.984 205.800,70.570 206.273,70.880 206.852 C 72.102 209.137,77.616 209.969,81.088 208.393 C 82.669 207.675,82.953 207.651,83.264 208.207 C 83.544 208.708,84.363 208.819,87.031 208.720 L 90.440 208.593 90.349 207.335 C 90.299 206.643,90.637 204.373,91.101 202.291 C 92.610 195.515,92.052 192.934,88.872 191.981 C 87.894 191.688,87.315 191.375,87.585 191.285 C 87.856 191.194,88.077 190.943,88.077 190.727 C 88.077 189.996,76.857 190.271,75.298 191.040 M114.586 191.515 C 111.387 193.944,111.082 196.766,114.016 196.788 C 114.755 196.794,116.120 196.974,117.049 197.190 C 118.532 197.534,118.891 197.454,119.982 196.535 C 121.326 195.405,122.449 195.229,123.778 195.940 C 124.821 196.498,124.403 197.340,123.263 196.978 C 122.805 196.833,121.561 197.046,120.498 197.452 C 119.028 198.013,117.842 198.129,115.543 197.936 L 112.520 197.683 110.855 199.271 C 108.980 201.059,108.001 204.082,109.297 204.082 C 109.678 204.082,109.989 204.296,109.989 204.557 C 109.989 204.819,109.699 204.922,109.345 204.786 C 108.990 204.650,108.700 204.726,108.700 204.954 C 108.700 205.183,108.967 205.371,109.294 205.371 C 109.620 205.371,110.391 206.032,111.008 206.839 C 112.915 209.340,118.003 210.022,121.544 208.252 C 122.852 207.598,123.052 207.591,123.486 208.185 C 123.867 208.706,124.700 208.820,127.399 208.720 L 130.827 208.593 130.685 206.785 C 130.606 205.791,130.967 203.138,131.487 200.890 C 132.829 195.078,132.069 192.649,128.638 191.788 C 128.025 191.634,127.748 191.318,127.894 190.938 C 128.408 189.598,116.427 190.117,114.586 191.515 M138.950 191.407 C 138.263 191.997,137.566 192.480,137.400 192.481 C 137.234 192.481,136.557 193.303,135.896 194.307 C 134.663 196.181,134.308 198.281,135.226 198.281 C 135.509 198.281,136.279 198.898,136.936 199.652 C 138.133 201.025,141.261 202.363,143.274 202.363 C 144.827 202.363,146.602 203.158,146.400 203.762 C 146.301 204.056,145.912 204.299,145.536 204.302 C 145.159 204.305,144.709 204.450,144.534 204.624 C 143.817 205.341,141.998 204.901,141.118 203.797 C 140.259 202.720,139.986 202.651,136.396 202.616 L 132.586 202.579 132.482 204.200 C 132.425 205.092,132.530 205.728,132.716 205.613 C 132.902 205.498,133.693 206.063,134.474 206.869 C 137.539 210.031,147.897 210.085,151.515 206.958 C 156.055 203.034,152.764 197.637,145.830 197.637 C 144.092 197.637,142.908 196.849,143.526 196.103 C 144.182 195.313,146.485 195.335,147.551 196.142 C 148.335 196.735,151.071 196.718,154.126 196.100 C 155.742 195.774,154.193 193.151,151.804 192.171 C 150.687 191.713,150.023 191.192,150.145 190.870 C 150.597 189.679,140.390 190.168,138.950 191.407 M173.654 191.303 C 174.215 192.185,174.067 192.400,172.690 192.702 C 171.892 192.877,171.188 193.399,170.902 194.025 C 170.561 194.775,170.085 195.059,169.174 195.059 C 167.839 195.059,167.724 192.389,168.990 190.824 C 169.564 190.115,173.133 190.482,173.654 191.303 M187.111 191.563 C 184.946 192.596,182.599 194.749,182.599 195.704 C 182.599 195.841,182.228 196.477,181.774 197.117 C 180.590 198.787,180.178 201.074,181.061 201.074 C 181.490 201.074,181.740 201.452,181.740 202.099 C 181.740 208.747,193.754 211.718,200.112 206.641 C 205.306 202.494,204.677 194.331,199.000 192.204 C 197.896 191.791,196.838 191.201,196.649 190.893 C 195.953 189.759,190.019 190.176,187.111 191.563 M287.467 191.317 C 286.858 192.918,285.866 193.539,285.592 192.490 C 285.390 191.717,285.021 191.623,282.210 191.636 C 278.794 191.650,277.335 192.278,277.815 193.528 C 277.997 194.002,277.776 194.477,277.178 194.896 C 276.304 195.508,275.828 196.667,276.662 196.152 C 277.491 195.639,277.470 196.656,276.637 197.369 C 275.985 197.927,275.884 198.256,276.235 198.678 C 276.580 199.095,276.528 199.386,276.033 199.797 C 275.665 200.103,275.455 200.589,275.566 200.879 C 275.677 201.168,275.485 201.808,275.140 202.301 C 274.240 203.586,274.018 208.249,274.843 208.566 C 276.092 209.045,281.733 208.818,282.184 208.271 C 282.427 207.975,282.760 206.864,282.924 205.800 C 283.804 200.091,286.335 196.558,289.327 196.863 C 290.428 196.975,290.754 196.735,291.774 195.059 C 293.083 192.908,293.325 191.622,292.420 191.622 C 292.091 191.622,291.710 191.332,291.574 190.977 C 291.143 189.854,287.922 190.121,287.467 191.317 M297.637 190.641 C 296.987 190.739,296.455 190.990,296.455 191.197 C 296.455 191.405,295.931 191.827,295.289 192.136 C 294.065 192.724,292.971 195.645,293.719 196.330 C 294.704 197.231,300.577 197.254,301.386 196.359 C 302.550 195.074,305.908 195.259,305.908 196.609 C 305.908 196.996,305.415 197.210,304.511 197.214 C 303.743 197.217,302.257 197.519,301.209 197.884 C 299.848 198.357,298.555 198.467,296.691 198.268 C 294.155 197.996,294.037 198.029,292.546 199.436 C 290.017 201.821,290.010 202.849,292.494 206.718 C 294.220 209.406,299.643 210.054,303.141 207.990 C 304.571 207.146,304.579 207.146,304.847 207.992 C 305.091 208.761,305.449 208.830,308.620 208.717 L 312.123 208.593 311.994 206.821 C 311.923 205.846,312.264 203.366,312.753 201.309 C 314.298 194.804,313.016 191.622,308.849 191.622 C 308.413 191.622,308.056 191.332,308.056 190.977 C 308.056 190.343,301.087 190.118,297.637 190.641 M345.274 191.378 C 342.971 192.515,339.745 195.416,340.003 196.118 C 340.093 196.363,339.928 196.853,339.636 197.207 C 338.761 198.269,338.409 201.535,339.202 201.231 C 339.675 201.049,339.850 201.279,339.850 202.082 C 339.850 209.227,353.816 212.045,359.577 206.062 C 360.640 204.958,360.877 204.485,360.436 204.343 C 355.686 202.812,353.065 202.711,351.853 204.012 C 350.369 205.604,347.309 204.751,347.675 202.848 C 347.793 202.238,348.678 202.146,354.600 202.127 C 362.215 202.104,362.174 202.121,362.185 199.019 C 362.197 195.455,359.918 192.390,356.823 191.809 C 356.011 191.657,355.388 191.310,355.439 191.040 C 355.642 189.961,347.602 190.229,345.274 191.378 M365.392 191.729 C 365.204 192.497,365.077 193.445,365.111 193.835 C 365.146 194.226,364.887 194.783,364.536 195.074 C 364.052 195.476,364.016 195.744,364.387 196.190 C 364.753 196.631,364.739 196.941,364.329 197.435 C 364.029 197.796,363.751 198.917,363.710 199.926 C 363.670 200.936,363.494 201.993,363.319 202.275 C 362.408 203.750,362.111 207.777,362.868 208.405 C 363.163 208.650,364.958 208.788,366.934 208.718 L 370.472 208.593 371.484 204.382 C 372.912 198.437,373.704 197.464,377.658 196.802 C 379.555 196.484,382.008 192.652,380.867 191.789 C 380.520 191.527,380.236 191.092,380.236 190.823 C 380.236 189.191,375.549 190.406,374.667 192.266 C 374.093 193.479,374.047 193.498,373.894 192.589 C 373.748 191.718,373.469 191.615,371.076 191.550 C 369.086 191.496,368.852 191.435,370.140 191.306 C 373.408 190.980,372.786 190.333,369.205 190.333 L 365.736 190.333 365.392 191.729 M384.699 191.576 C 382.833 192.459,382.002 193.112,381.829 193.831 C 381.695 194.388,381.404 195.546,381.182 196.404 C 380.469 199.167,384.742 202.363,389.150 202.363 C 391.824 202.363,392.562 203.823,390.354 204.745 C 388.729 205.424,386.983 205.060,386.559 203.953 C 386.289 203.250,384.481 202.802,381.310 202.652 C 378.427 202.516,378.088 202.673,378.088 204.148 C 378.088 209.450,392.181 211.213,397.145 206.531 C 401.200 202.707,398.521 198.473,391.593 197.758 C 389.094 197.500,387.757 196.588,388.857 195.892 C 389.787 195.304,391.748 195.411,392.819 196.110 C 394.134 196.968,399.713 196.456,399.904 195.460 C 400.116 194.353,398.352 192.537,396.535 191.992 C 395.599 191.712,394.619 191.224,394.357 190.908 C 393.411 189.769,387.682 190.165,384.699 191.576 M105.693 191.837 C 105.693 192.191,105.403 192.481,105.048 192.481 C 104.694 192.481,104.404 192.301,104.404 192.081 C 104.404 191.862,103.969 191.598,103.437 191.495 C 102.839 191.380,103.084 191.287,104.082 191.251 C 105.253 191.208,105.693 191.368,105.693 191.837 M22.335 194.626 C 25.022 196.064,23.085 200.593,19.764 200.637 C 17.668 200.666,17.156 201.113,16.882 203.160 C 16.669 204.750,16.518 204.941,15.482 204.941 C 13.794 204.941,13.794 204.943,14.887 199.675 C 15.438 197.018,15.890 194.699,15.893 194.522 C 15.899 194.043,21.412 194.132,22.335 194.626 M353.627 195.933 C 355.178 196.764,354.522 197.429,351.606 197.982 C 348.494 198.572,348.289 198.536,348.698 197.471 C 349.284 195.943,352.039 195.084,353.627 195.933 M18.350 196.187 C 17.433 197.103,18.052 198.982,19.227 198.847 C 20.223 198.732,20.408 198.509,20.408 197.422 C 20.408 196.154,19.142 195.394,18.350 196.187 M196.270 198.450 C 196.380 199.568,196.228 199.897,195.518 200.083 C 195.018 200.213,194.629 200.667,194.629 201.121 C 194.629 201.564,194.243 202.168,193.770 202.463 C 193.298 202.758,192.911 203.361,192.911 203.802 C 192.911 204.790,190.873 204.460,190.011 203.332 C 188.584 201.464,190.192 196.913,192.486 196.325 C 194.343 195.849,196.113 196.843,196.270 198.450 M83.351 202.148 C 83.057 202.503,82.502 202.799,82.117 202.806 C 81.214 202.824,79.914 203.812,79.914 204.481 C 79.914 205.409,77.990 204.793,77.851 203.821 C 77.691 202.698,79.901 201.699,82.867 201.554 C 83.726 201.512,83.802 201.605,83.351 202.148 M123.738 201.921 C 123.738 202.151,123.110 202.498,122.342 202.694 C 121.547 202.896,120.763 203.457,120.521 203.995 C 120.024 205.104,118.257 205.283,117.865 204.263 C 117.497 203.303,118.675 202.291,120.594 201.920 C 123.003 201.454,123.738 201.454,123.738 201.921 M305.048 201.944 C 305.048 202.186,304.592 202.558,304.034 202.770 C 303.477 202.982,302.649 203.665,302.195 204.288 C 301.470 205.284,301.229 205.367,300.202 204.977 C 298.918 204.489,298.694 203.609,299.650 202.815 C 300.955 201.733,305.048 201.072,305.048 201.944 M23.981 210.419 C 23.864 211.439,23.630 211.618,22.268 211.732 C 20.778 211.856,20.674 211.963,20.396 213.665 C 19.582 218.637,19.099 219.764,17.781 219.764 C 16.363 219.764,16.387 219.914,17.133 215.777 C 17.781 212.183,17.591 211.199,16.327 211.600 C 15.373 211.903,14.769 210.987,15.193 209.882 C 15.390 209.368,16.319 209.237,19.779 209.237 L 24.117 209.237 23.981 210.419 " stroke="none" fill-rule="evenodd"></path></g></svg>