<svg id="svg" xmlns="http://www.w3.org/2000/svg"  width="400" height="400" viewBox="0, 0, 400,400"><g id="svgg"><path id="path0" d="M159.507 58.861 C 139.571 91.234,114.231 132.231,103.194 149.965 C 80.648 186.195,80.635 186.303,95.740 210.372 C 99.588 216.503,110.537 236.899,120.070 255.696 C 129.604 274.494,139.241 292.726,141.487 296.213 C 148.395 306.941,150.871 311.537,168.758 346.835 C 178.283 365.633,186.771 381.582,187.621 382.278 C 188.471 382.975,191.064 387.247,193.383 391.772 C 198.774 402.294,201.429 402.150,205.063 391.139 C 206.672 386.266,209.106 382.278,210.472 382.278 C 211.839 382.278,212.336 381.273,211.576 380.044 C 210.817 378.816,212.174 375.105,214.591 371.799 C 219.904 364.534,222.357 360.212,236.365 333.436 C 242.343 322.008,250.002 308.101,253.383 302.532 C 256.765 296.962,263.966 283.475,269.386 272.560 C 274.805 261.645,280.778 252.124,282.658 251.403 C 284.538 250.681,286.076 248.948,286.076 247.551 C 286.076 244.640,301.355 213.788,310.251 198.734 C 316.925 187.442,317.654 183.494,313.893 179.007 C 307.480 171.356,291.151 145.276,291.145 142.676 C 291.142 141.084,289.430 139.126,287.342 138.325 C 285.253 137.524,283.544 135.647,283.544 134.154 C 283.544 132.662,281.441 128.354,278.870 124.581 C 266.368 106.236,248.101 75.236,248.101 72.366 C 248.101 70.591,245.823 67.077,243.038 64.557 C 240.253 62.037,237.975 58.817,237.975 57.402 C 237.975 55.987,236.082 52.738,233.769 50.182 C 228.957 44.865,224.594 37.704,219.060 26.044 C 214.908 17.294,200.668 0.000,197.615 0.000 C 196.591 0.000,179.443 26.487,159.507 58.861 M225.936 82.278 C 224.908 87.656,223.333 88.608,215.465 88.608 L 206.204 88.608 201.652 110.722 C 199.148 122.885,196.036 134.118,194.736 135.684 C 191.086 140.083,179.351 136.955,180.799 131.969 C 182.783 125.141,187.342 98.130,187.342 93.206 C 187.342 89.784,185.398 88.608,179.747 88.608 C 174.070 88.608,172.152 87.436,172.152 83.966 C 172.152 76.509,174.188 75.949,201.337 75.949 L 227.146 75.949 225.936 82.278 M215.151 169.599 C 230.986 178.074,219.573 204.758,200.000 205.022 C 187.651 205.188,184.637 207.827,183.019 219.888 C 181.763 229.253,180.877 230.380,174.772 230.380 C 164.826 230.380,164.827 230.392,171.264 199.348 C 174.510 183.694,177.177 170.032,177.191 168.987 C 177.227 166.164,209.711 166.688,215.151 169.599 M191.668 178.796 C 186.266 184.198,189.915 195.268,196.835 194.472 C 202.705 193.797,203.797 192.479,203.797 186.076 C 203.797 178.604,196.337 174.127,191.668 178.796 M224.852 262.658 C 224.160 268.672,222.784 269.726,214.756 270.394 C 205.976 271.125,205.364 271.757,203.723 281.787 C 198.931 311.083,196.085 317.722,188.319 317.722 C 179.961 317.722,180.105 318.607,184.501 294.228 C 188.320 273.054,187.199 267.255,179.747 269.620 C 174.131 271.403,170.569 266.004,173.067 259.494 C 174.230 256.465,179.701 255.696,200.089 255.696 L 225.653 255.696 224.852 262.658 " stroke="none" fill-rule="evenodd"></path></g></svg>