<svg id="svg" xmlns="http://www.w3.org/2000/svg"  width="400" height="400" viewBox="0, 0, 400,400" version="1.1"><g id="svgg"><path id="path0" d="M349.833 180.750 C 349.833 184.004,349.890 186.667,349.959 186.667 C 350.123 186.667,361.667 175.121,361.667 174.957 C 361.667 174.889,359.004 174.833,355.750 174.833 L 349.833 174.833 349.833 180.750 M360.320 185.325 L 349.833 195.817 349.833 202.492 C 349.833 206.163,349.885 209.167,349.948 209.167 C 350.105 209.167,383.808 175.488,384.013 175.125 C 384.169 174.849,383.812 174.833,377.493 174.833 L 370.807 174.833 360.320 185.325 M382.792 207.796 C 373.465 217.126,365.833 224.813,365.833 224.879 C 365.833 224.946,368.852 225.000,372.542 225.000 L 379.251 225.000 389.626 214.625 L 400.000 204.249 400.000 197.541 C 400.000 193.852,399.944 190.833,399.875 190.834 C 399.806 190.834,392.119 198.467,382.792 207.796 M394.083 219.087 C 390.967 222.235,388.385 224.853,388.347 224.905 C 388.309 224.957,390.915 225.000,394.139 225.000 L 400.000 225.000 400.000 219.167 C 400.000 215.958,399.944 213.340,399.875 213.348 C 399.806 213.357,397.200 215.939,394.083 219.087 " stroke="none" fill="#fc0404" fill-rule="evenodd"></path><path id="path1" d="M371.625 196.508 C 359.731 208.415,350.000 218.235,350.000 218.329 C 350.000 218.440,351.137 218.500,353.250 218.500 L 356.500 218.500 356.500 221.750 C 356.500 223.537,356.541 225.000,356.590 225.000 C 356.640 225.000,366.427 215.249,378.340 203.331 L 400.000 181.662 400.000 178.248 L 400.000 174.833 396.625 174.846 L 393.250 174.859 371.625 196.508 M11.948 184.584 C 10.144 185.080,7.167 187.291,7.167 188.135 C 7.167 188.210,6.979 188.660,6.750 189.135 C 6.521 189.610,6.333 190.159,6.333 190.355 C 6.333 190.551,6.264 190.983,6.178 191.314 C 6.093 191.645,5.943 192.348,5.845 192.875 C 5.747 193.402,5.582 194.236,5.478 194.729 C 4.913 197.417,6.808 200.216,9.833 201.162 C 10.246 201.291,10.731 201.495,10.912 201.615 C 11.093 201.735,11.375 201.833,11.539 201.833 C 11.704 201.833,11.968 201.901,12.127 201.983 C 12.286 202.066,12.916 202.334,13.527 202.579 C 14.622 203.019,14.881 203.221,15.292 203.956 C 15.543 204.406,15.554 204.846,15.335 205.647 C 15.245 205.979,15.092 206.568,14.996 206.957 C 14.695 208.173,14.734 208.167,7.606 208.167 L 1.363 208.167 1.251 208.875 C 1.190 209.265,1.075 209.808,0.997 210.083 C 0.918 210.358,0.766 211.033,0.659 211.583 C 0.551 212.133,0.359 212.915,0.232 213.321 C 0.104 213.727,0.000 214.121,0.000 214.196 C 0.000 214.388,13.701 214.367,14.880 214.174 C 16.721 213.872,20.000 211.678,20.000 210.748 C 20.000 210.612,20.064 210.500,20.142 210.500 C 20.334 210.500,21.088 208.031,21.339 206.583 C 21.450 205.942,21.641 205.079,21.764 204.667 C 22.622 201.785,20.093 197.500,17.535 197.500 C 17.406 197.500,17.102 197.390,16.859 197.256 C 16.616 197.122,16.079 196.900,15.667 196.762 C 12.994 195.868,12.467 195.608,12.208 195.049 C 11.965 194.525,11.938 193.331,12.151 192.500 C 12.234 192.179,12.345 191.719,12.399 191.478 C 12.597 190.587,13.206 190.478,17.899 190.494 C 23.097 190.512,22.847 190.591,23.222 188.809 C 23.382 188.043,23.585 187.188,23.673 186.908 C 23.760 186.628,23.897 186.066,23.978 185.658 C 24.059 185.250,24.180 184.785,24.247 184.625 C 24.408 184.240,13.332 184.203,11.948 184.584 M36.417 184.518 C 36.142 184.605,35.654 184.757,35.333 184.855 C 34.603 185.078,32.707 185.977,32.636 186.133 C 32.607 186.198,32.265 186.457,31.875 186.711 C 31.485 186.964,31.167 187.245,31.167 187.336 C 31.167 187.426,31.086 187.500,30.988 187.500 C 30.788 187.500,30.333 187.912,30.333 188.094 C 30.333 188.158,30.161 188.370,29.950 188.564 C 28.848 189.578,27.954 191.409,27.417 193.750 C 27.065 195.285,26.677 196.942,26.500 197.667 C 26.422 197.987,26.270 198.700,26.161 199.250 C 26.053 199.800,25.892 200.475,25.804 200.750 C 23.828 206.919,26.314 212.465,31.750 214.013 C 33.244 214.438,43.730 214.354,43.793 213.917 C 43.819 213.733,43.949 213.171,44.081 212.667 C 44.451 211.261,44.810 209.659,44.932 208.875 L 45.043 208.167 39.277 208.167 C 33.439 208.167,32.333 208.056,32.333 207.469 C 32.333 207.394,32.234 207.333,32.111 207.333 C 31.872 207.333,31.642 206.939,31.315 205.970 C 31.107 205.353,31.444 203.099,32.084 200.833 C 32.200 200.421,32.382 199.671,32.488 199.167 C 32.670 198.297,32.920 197.266,33.321 195.731 C 33.419 195.353,33.500 194.872,33.500 194.662 C 33.500 193.863,34.573 192.406,35.833 191.494 C 37.075 190.596,37.105 190.591,42.243 190.501 L 47.070 190.417 47.269 189.833 C 47.379 189.512,47.559 188.800,47.670 188.250 C 47.781 187.700,47.970 186.912,48.091 186.500 C 48.212 186.088,48.360 185.431,48.420 185.042 L 48.529 184.333 42.723 184.346 C 39.530 184.354,36.692 184.431,36.417 184.518 M53.932 184.542 C 53.901 184.656,53.795 185.125,53.697 185.583 C 53.599 186.042,53.334 187.204,53.108 188.167 C 52.882 189.129,52.607 190.367,52.497 190.917 C 52.387 191.467,52.197 192.254,52.076 192.667 C 51.954 193.079,51.766 193.867,51.659 194.417 C 51.552 194.967,51.392 195.642,51.304 195.917 C 51.216 196.192,51.078 196.754,50.999 197.167 C 50.685 198.789,49.943 202.052,49.256 204.833 C 49.131 205.338,48.944 206.162,48.841 206.667 C 48.737 207.171,48.588 207.846,48.510 208.167 C 48.431 208.487,48.275 209.125,48.163 209.583 C 48.051 210.042,47.901 210.679,47.829 211.000 C 47.415 212.861,47.320 213.302,47.226 213.792 L 47.123 214.333 50.221 214.333 L 53.318 214.333 53.421 213.708 C 53.554 212.895,54.131 210.314,54.417 209.250 C 54.540 208.792,54.728 207.967,54.833 207.417 C 54.939 206.867,55.126 206.042,55.250 205.583 C 55.537 204.514,56.112 201.938,56.249 201.107 C 56.385 200.281,56.093 200.326,61.618 200.285 C 66.243 200.251,66.317 200.255,66.239 200.583 C 66.195 200.767,66.052 201.404,65.922 202.000 C 65.791 202.596,65.561 203.608,65.410 204.250 C 64.940 206.256,64.837 206.726,64.682 207.583 C 64.599 208.042,64.456 208.604,64.365 208.833 C 64.273 209.063,64.110 209.700,64.001 210.250 C 63.892 210.800,63.635 211.944,63.430 212.792 L 63.057 214.333 66.195 214.333 C 69.279 214.333,69.333 214.327,69.333 213.981 C 69.333 213.787,69.443 213.281,69.576 212.856 C 69.710 212.431,69.910 211.633,70.020 211.083 C 70.130 210.533,70.362 209.521,70.534 208.833 C 70.707 208.146,70.995 206.844,71.175 205.941 C 71.355 205.037,71.553 204.215,71.616 204.113 C 71.679 204.012,71.782 203.626,71.846 203.256 C 72.099 201.781,72.662 199.190,72.810 198.815 C 72.897 198.596,73.056 197.967,73.163 197.417 C 73.270 196.867,73.460 196.004,73.585 195.500 C 73.812 194.590,74.056 193.530,74.335 192.250 C 74.415 191.883,74.634 190.946,74.821 190.167 C 75.009 189.387,75.231 188.412,75.314 188.000 C 75.397 187.588,75.622 186.650,75.813 185.917 C 76.005 185.183,76.163 184.527,76.164 184.458 C 76.170 184.154,70.027 184.319,69.937 184.625 C 69.890 184.785,69.731 185.510,69.585 186.236 C 69.439 186.961,69.288 187.605,69.250 187.667 C 69.212 187.728,69.061 188.372,68.914 189.098 C 68.767 189.823,68.543 190.792,68.416 191.250 C 68.290 191.708,68.024 192.815,67.826 193.708 L 67.466 195.333 62.564 195.333 L 57.663 195.333 57.771 194.625 C 57.830 194.235,57.944 193.790,58.023 193.636 C 58.102 193.482,58.167 193.176,58.167 192.957 C 58.167 192.738,58.271 192.227,58.399 191.821 C 58.526 191.415,58.718 190.633,58.824 190.083 C 58.931 189.533,59.122 188.708,59.248 188.250 C 59.515 187.286,59.778 186.133,59.895 185.417 C 59.940 185.142,60.027 184.785,60.089 184.625 C 60.194 184.354,59.986 184.333,57.096 184.333 C 54.752 184.333,53.976 184.384,53.932 184.542 M79.399 184.597 C 79.454 184.742,79.500 191.493,79.500 199.600 L 79.500 214.340 83.274 214.295 C 86.427 214.257,87.069 214.209,87.179 214.000 C 87.622 213.158,88.667 210.824,88.667 210.677 C 88.667 210.579,88.742 210.500,88.833 210.500 C 88.925 210.500,89.000 210.399,89.000 210.276 C 89.000 210.152,89.105 209.833,89.233 209.567 C 89.599 208.810,90.296 207.292,90.490 206.833 C 90.587 206.604,90.733 206.304,90.815 206.167 C 90.897 206.029,91.115 205.579,91.300 205.167 C 91.485 204.754,91.789 204.079,91.976 203.667 C 92.163 203.254,92.395 202.729,92.491 202.500 C 92.587 202.271,92.735 201.971,92.819 201.833 C 92.903 201.696,93.101 201.283,93.257 200.917 C 93.618 200.073,94.380 198.420,95.100 196.917 L 95.659 195.750 95.663 205.042 L 95.667 214.333 99.889 214.333 L 104.110 214.333 104.305 213.917 C 104.412 213.688,104.568 213.331,104.652 213.125 C 104.872 212.581,105.471 211.234,106.006 210.083 C 107.158 207.603,107.500 206.840,107.500 206.747 C 107.500 206.692,107.791 206.033,108.147 205.282 C 109.256 202.944,110.000 201.324,110.000 201.248 C 110.000 201.208,110.199 200.742,110.441 200.213 C 110.684 199.683,111.089 198.800,111.342 198.250 C 111.594 197.700,111.966 196.875,112.167 196.417 C 112.369 195.958,112.779 195.058,113.080 194.417 C 114.034 192.376,114.454 191.433,114.674 190.833 C 114.792 190.512,114.988 190.132,115.111 189.987 C 115.233 189.842,115.333 189.650,115.333 189.560 C 115.333 189.399,115.854 188.202,116.175 187.624 C 116.265 187.462,116.568 186.750,116.850 186.040 C 117.132 185.331,117.440 184.656,117.535 184.542 C 117.672 184.376,117.074 184.333,114.633 184.333 L 111.559 184.333 111.013 185.542 C 110.713 186.206,110.406 186.900,110.330 187.083 C 110.152 187.516,108.848 190.330,108.652 190.706 C 108.568 190.865,108.500 191.109,108.500 191.248 C 108.500 191.386,108.425 191.500,108.333 191.500 C 108.242 191.500,108.167 191.587,108.167 191.692 C 108.167 191.870,107.987 192.286,106.920 194.583 C 106.707 195.042,106.420 195.679,106.281 196.000 C 106.143 196.321,105.808 197.071,105.537 197.667 C 105.266 198.262,104.875 199.125,104.669 199.583 C 104.463 200.042,104.071 200.904,103.798 201.500 C 103.526 202.096,103.134 202.958,102.928 203.417 C 102.722 203.875,102.395 204.588,102.201 205.000 L 101.850 205.750 101.842 195.038 L 101.833 184.326 98.726 184.371 C 96.170 184.409,95.595 184.461,95.482 184.667 C 95.406 184.804,95.108 185.442,94.820 186.083 C 94.532 186.725,94.034 187.813,93.713 188.500 C 93.392 189.188,92.979 190.088,92.795 190.500 C 92.611 190.912,92.207 191.794,91.897 192.458 C 90.656 195.119,90.197 196.113,89.915 196.750 C 89.753 197.117,89.287 198.129,88.879 199.000 C 88.472 199.871,87.965 200.958,87.754 201.417 C 87.542 201.875,87.034 202.963,86.625 203.833 C 86.215 204.704,85.838 205.529,85.787 205.667 C 85.735 205.804,85.687 201.060,85.680 195.125 L 85.667 184.333 82.482 184.333 C 79.647 184.333,79.309 184.362,79.399 184.597 M124.752 185.792 C 124.308 186.594,123.769 187.588,123.554 188.000 C 123.101 188.869,122.276 190.357,121.518 191.667 C 121.227 192.171,120.860 192.846,120.703 193.167 C 120.545 193.487,120.375 193.787,120.324 193.833 C 120.274 193.879,119.998 194.367,119.713 194.917 C 119.427 195.467,119.019 196.254,118.805 196.667 C 118.592 197.079,118.371 197.454,118.314 197.500 C 118.258 197.546,117.958 198.059,117.648 198.641 C 116.877 200.085,116.340 201.067,115.672 202.250 C 114.614 204.122,114.176 204.916,113.880 205.500 C 113.717 205.821,113.546 206.121,113.500 206.167 C 113.362 206.305,113.047 206.863,112.511 207.917 C 112.232 208.467,111.781 209.292,111.510 209.750 C 111.238 210.208,110.783 211.033,110.498 211.583 C 110.213 212.133,109.763 212.977,109.500 213.458 L 109.020 214.333 112.135 214.331 L 115.250 214.328 115.662 213.456 C 115.888 212.976,116.161 212.471,116.268 212.333 C 116.375 212.196,116.674 211.671,116.931 211.167 C 117.189 210.662,117.441 210.213,117.492 210.167 C 117.542 210.121,117.759 209.746,117.974 209.333 C 118.189 208.921,118.559 208.227,118.798 207.792 L 119.232 207.000 123.866 207.000 C 127.455 207.000,128.503 207.047,128.513 207.208 C 128.520 207.323,128.554 207.567,128.589 207.750 C 128.623 207.933,128.704 209.490,128.768 211.208 L 128.884 214.333 131.938 214.333 L 134.992 214.333 134.906 211.125 C 134.859 209.360,134.743 206.529,134.649 204.833 C 134.484 201.859,134.279 196.064,134.058 188.125 L 133.952 184.333 129.756 184.333 L 125.560 184.333 124.752 185.792 M145.026 184.978 C 144.920 185.332,144.833 185.769,144.833 185.948 C 144.833 186.127,144.730 186.606,144.604 187.012 C 144.478 187.418,144.287 188.162,144.179 188.667 C 143.841 190.252,143.701 190.883,143.420 192.083 C 143.270 192.725,143.072 193.588,142.980 194.000 C 142.888 194.412,142.710 195.162,142.583 195.667 C 142.372 196.510,142.237 197.088,141.827 198.917 C 141.410 200.778,140.778 203.520,140.578 204.333 C 140.296 205.484,140.069 206.493,139.829 207.667 C 139.726 208.171,139.559 208.846,139.458 209.167 C 139.283 209.723,139.221 210.005,138.855 211.917 C 138.767 212.375,138.614 212.961,138.514 213.219 C 138.074 214.360,138.008 214.333,141.327 214.333 C 144.738 214.333,144.544 214.419,144.854 212.781 C 145.257 210.651,145.376 210.097,145.811 208.333 C 146.356 206.124,146.928 203.586,147.249 201.958 L 147.340 201.500 148.981 201.500 L 150.622 201.500 150.904 202.708 C 151.060 203.373,151.365 204.517,151.583 205.250 C 151.802 205.983,152.095 207.033,152.236 207.583 C 152.377 208.133,152.612 208.996,152.759 209.500 C 152.906 210.004,153.142 210.904,153.282 211.500 C 153.899 214.109,154.090 214.233,157.617 214.306 C 160.329 214.362,160.333 214.361,160.333 213.992 C 160.333 213.635,160.432 213.196,160.914 211.417 C 161.038 210.958,161.188 210.276,161.247 209.899 L 161.354 209.216 160.519 209.117 C 159.541 209.001,158.756 208.634,158.588 208.214 C 158.470 207.922,157.792 205.482,157.509 204.333 C 157.377 203.800,157.032 202.612,156.751 201.728 C 156.654 201.423,156.717 201.361,157.194 201.285 C 158.093 201.144,158.899 200.902,159.425 200.617 C 159.695 200.471,160.077 200.277,160.274 200.186 C 160.772 199.957,162.472 198.188,162.600 197.765 C 162.658 197.573,162.796 197.304,162.907 197.167 C 163.128 196.891,163.384 196.064,163.681 194.667 C 163.788 194.162,163.978 193.418,164.104 193.012 C 165.248 189.327,163.415 185.615,160.080 184.863 C 159.624 184.760,158.898 184.599,158.468 184.505 C 158.010 184.404,155.105 184.333,151.453 184.333 L 145.219 184.333 145.026 184.978 M171.348 185.375 C 171.227 185.948,170.987 186.975,170.814 187.656 C 170.641 188.338,170.500 188.992,170.500 189.109 C 170.500 189.278,171.580 189.315,175.750 189.286 C 178.638 189.266,181.000 189.275,181.000 189.306 C 181.000 189.367,179.474 191.364,179.325 191.500 C 179.274 191.546,179.011 191.883,178.741 192.250 C 178.471 192.617,178.171 192.992,178.074 193.083 C 177.977 193.175,177.678 193.550,177.410 193.917 C 176.900 194.614,176.861 194.664,175.969 195.763 C 175.665 196.137,175.229 196.695,175.000 197.001 C 174.530 197.631,173.836 198.494,173.584 198.762 C 173.492 198.860,173.229 199.216,173.000 199.553 C 172.771 199.889,172.527 200.165,172.458 200.166 C 172.390 200.166,172.333 200.279,172.333 200.417 C 172.333 200.554,172.264 200.667,172.180 200.667 C 172.096 200.667,171.861 200.936,171.658 201.265 C 171.454 201.593,171.165 201.987,171.014 202.140 C 170.863 202.292,170.443 202.792,170.081 203.250 C 169.719 203.708,169.365 204.108,169.295 204.139 C 169.224 204.169,169.167 204.301,169.167 204.431 C 169.167 204.560,169.110 204.667,169.042 204.668 C 168.973 204.668,168.740 204.929,168.523 205.247 C 168.307 205.564,167.969 206.003,167.773 206.220 C 166.979 207.102,166.667 207.511,166.667 207.668 C 166.667 207.759,166.608 207.833,166.536 207.833 C 166.464 207.833,166.281 208.040,166.129 208.292 C 165.976 208.544,165.600 209.038,165.291 209.390 C 164.702 210.062,164.503 210.608,164.091 212.687 C 163.953 213.386,163.792 214.079,163.735 214.229 C 163.640 214.478,164.482 214.500,173.899 214.500 L 184.167 214.500 184.167 214.064 C 184.167 213.824,184.275 213.281,184.407 212.856 C 184.539 212.431,184.721 211.708,184.812 211.250 C 184.902 210.792,185.020 210.211,185.074 209.960 L 185.172 209.504 178.987 209.460 L 172.801 209.417 173.192 208.972 C 173.964 208.095,174.333 207.637,174.333 207.557 C 174.333 207.513,174.427 207.378,174.542 207.259 C 174.656 207.139,175.350 206.273,176.083 205.333 C 176.817 204.393,177.589 203.428,177.800 203.187 C 178.011 202.947,178.308 202.544,178.461 202.292 C 178.614 202.040,178.797 201.833,178.869 201.833 C 178.941 201.833,179.000 201.758,179.000 201.667 C 179.000 201.575,179.131 201.361,179.292 201.190 C 179.452 201.020,179.808 200.596,180.083 200.249 C 180.358 199.901,180.808 199.337,181.083 198.995 C 181.358 198.653,181.883 197.979,182.250 197.498 C 182.617 197.017,183.087 196.432,183.296 196.199 C 183.505 195.966,183.830 195.526,184.018 195.221 C 184.206 194.916,184.429 194.667,184.514 194.667 C 184.598 194.667,184.667 194.560,184.667 194.431 C 184.667 194.301,184.723 194.169,184.792 194.139 C 184.860 194.108,185.517 193.333,186.250 192.417 C 186.983 191.500,187.640 190.725,187.708 190.694 C 187.777 190.664,187.833 190.533,187.833 190.403 C 187.833 190.273,187.890 190.166,187.958 190.166 C 188.027 190.165,188.254 189.914,188.462 189.608 C 188.671 189.302,189.053 188.814,189.311 188.525 C 189.769 188.013,190.164 187.032,190.169 186.397 C 190.171 186.225,190.280 185.783,190.412 185.417 C 190.544 185.050,190.655 184.656,190.659 184.542 C 190.665 184.377,188.650 184.333,181.118 184.333 L 171.569 184.333 171.348 185.375 M197.691 185.375 C 197.504 185.948,197.119 187.054,196.835 187.833 C 196.551 188.612,196.101 189.887,195.833 190.667 C 195.566 191.446,195.128 192.683,194.861 193.417 C 194.593 194.150,194.243 195.125,194.081 195.583 C 193.920 196.042,193.622 196.867,193.420 197.417 C 193.217 197.967,192.920 198.792,192.759 199.250 C 192.598 199.708,192.169 200.908,191.806 201.917 C 191.443 202.925,191.103 203.938,191.050 204.167 C 190.998 204.396,190.904 204.658,190.841 204.750 C 190.778 204.842,190.631 205.254,190.514 205.667 C 190.397 206.079,190.227 206.556,190.138 206.726 C 190.048 206.897,189.836 207.470,189.667 208.000 C 189.497 208.530,189.285 209.103,189.196 209.274 C 189.106 209.444,188.937 209.921,188.821 210.333 C 188.704 210.746,188.547 211.155,188.471 211.242 C 188.395 211.329,188.333 211.516,188.333 211.658 C 188.332 211.800,188.146 212.367,187.920 212.917 C 187.290 214.445,187.111 214.347,190.452 214.296 L 193.403 214.250 193.516 213.750 C 193.653 213.141,194.140 211.735,194.410 211.167 C 194.519 210.938,194.705 210.412,194.823 210.000 C 194.941 209.588,195.098 209.100,195.172 208.917 C 195.527 208.036,196.167 206.228,196.167 206.105 C 196.167 206.029,196.275 205.731,196.407 205.442 C 196.539 205.153,196.837 204.354,197.069 203.667 C 197.719 201.737,197.928 201.183,198.052 201.059 C 198.115 200.996,198.167 200.809,198.167 200.645 C 198.167 200.480,198.290 200.061,198.440 199.714 C 198.822 198.831,198.959 198.468,199.056 198.083 C 199.144 197.731,200.177 194.874,200.472 194.167 C 200.595 193.871,200.649 196.739,200.656 204.042 L 200.667 214.333 204.209 214.333 L 207.752 214.333 208.272 212.792 C 209.073 210.421,209.364 209.610,209.531 209.280 C 209.615 209.113,209.902 208.326,210.168 207.530 C 210.435 206.734,210.884 205.446,211.167 204.667 C 211.449 203.887,211.901 202.612,212.170 201.833 C 212.440 201.054,212.893 199.779,213.178 199.000 C 213.462 198.221,213.834 197.171,214.004 196.667 C 214.173 196.162,214.538 195.150,214.815 194.417 L 215.317 193.083 215.325 203.708 L 215.333 214.333 218.333 214.333 L 221.333 214.333 221.333 199.330 L 221.333 184.328 217.235 184.372 L 213.137 184.417 212.729 185.583 C 212.505 186.225,212.177 187.162,212.000 187.667 C 211.823 188.171,211.501 189.089,211.285 189.707 C 211.069 190.324,210.842 190.881,210.780 190.943 C 210.717 191.005,210.667 191.216,210.667 191.411 C 210.667 191.607,210.595 191.838,210.508 191.925 C 210.421 192.012,210.204 192.533,210.024 193.083 C 209.683 194.133,209.372 195.024,209.153 195.583 C 209.081 195.767,208.933 196.217,208.824 196.583 C 208.715 196.950,208.554 197.389,208.467 197.560 C 208.379 197.730,208.169 198.303,208.000 198.833 C 207.831 199.363,207.618 199.937,207.527 200.107 C 207.437 200.277,207.248 200.792,207.108 201.250 C 206.873 202.022,206.853 201.428,206.844 193.208 L 206.833 184.333 202.432 184.333 L 198.031 184.333 197.691 185.375 M230.754 184.625 C 230.691 184.785,230.567 185.292,230.480 185.750 C 230.392 186.208,230.253 186.935,230.172 187.364 C 230.090 187.793,229.953 188.281,229.867 188.447 C 229.782 188.614,229.661 189.145,229.599 189.629 L 229.488 190.508 232.517 190.462 L 235.547 190.417 235.772 189.583 C 235.896 189.125,236.081 188.375,236.182 187.917 C 236.284 187.458,236.437 186.783,236.522 186.417 C 236.608 186.050,236.722 185.431,236.777 185.042 L 236.877 184.333 233.873 184.333 C 231.167 184.333,230.858 184.362,230.754 184.625 M245.778 184.444 C 245.717 184.506,245.667 184.731,245.667 184.945 C 245.667 185.159,245.481 186.066,245.254 186.959 C 244.627 189.425,244.500 189.982,244.500 190.256 C 244.500 190.473,244.921 190.501,247.538 190.462 L 250.576 190.417 250.694 190.000 C 250.868 189.384,251.504 186.685,251.655 185.917 C 251.727 185.550,251.843 185.044,251.911 184.792 L 252.036 184.333 248.963 184.333 C 247.272 184.333,245.839 184.383,245.778 184.444 M257.421 184.708 C 257.374 184.915,257.255 185.421,257.157 185.833 C 256.761 187.493,256.659 187.948,256.520 188.667 C 256.440 189.079,256.224 190.017,256.038 190.750 C 255.727 191.983,255.434 193.235,254.750 196.250 C 254.605 196.892,254.310 198.167,254.094 199.083 C 253.879 200.000,253.616 201.162,253.511 201.667 C 253.405 202.171,253.215 202.958,253.088 203.417 C 252.961 203.875,252.772 204.662,252.669 205.167 C 252.489 206.045,252.136 207.594,251.834 208.833 C 251.756 209.154,251.602 209.867,251.493 210.417 C 251.385 210.967,251.197 211.754,251.076 212.167 C 250.955 212.579,250.807 213.235,250.747 213.625 L 250.637 214.333 258.976 214.333 C 264.369 214.333,267.350 214.274,267.417 214.166 C 267.474 214.074,267.594 213.606,267.684 213.125 C 267.774 212.644,267.921 211.912,268.010 211.500 C 268.099 211.088,268.218 210.431,268.274 210.042 L 268.377 209.333 263.171 209.333 L 257.965 209.333 258.050 208.708 C 258.097 208.365,258.225 207.746,258.335 207.333 C 258.444 206.921,258.594 206.321,258.668 206.000 C 258.955 204.752,259.685 201.550,259.828 200.917 C 259.910 200.550,260.162 199.463,260.388 198.500 C 260.613 197.537,260.886 196.338,260.994 195.833 C 261.102 195.329,261.290 194.542,261.412 194.083 C 261.534 193.625,261.716 192.856,261.817 192.375 C 262.233 190.386,262.387 189.713,262.589 189.000 C 262.705 188.588,262.890 187.762,262.999 187.167 C 263.109 186.571,263.304 185.801,263.433 185.455 C 263.870 184.281,264.002 184.333,260.587 184.333 C 257.529 184.333,257.506 184.336,257.421 184.708 M277.365 184.875 C 277.277 185.173,277.117 185.867,277.010 186.417 C 276.903 186.967,276.714 187.792,276.590 188.250 C 276.373 189.048,276.176 189.936,275.811 191.750 C 275.719 192.208,275.539 192.958,275.412 193.417 C 275.285 193.875,275.096 194.662,274.992 195.167 C 274.889 195.671,274.703 196.496,274.579 197.000 C 274.455 197.504,274.279 198.254,274.188 198.667 C 273.718 200.805,272.888 204.404,272.555 205.750 C 272.120 207.505,272.029 207.895,271.820 208.917 C 271.707 209.467,271.448 210.592,271.244 211.417 C 271.040 212.242,270.826 213.236,270.768 213.627 L 270.662 214.336 279.037 214.293 C 287.269 214.251,287.413 214.244,287.460 213.917 C 287.486 213.733,287.614 213.171,287.745 212.667 C 288.226 210.807,288.441 209.740,288.374 209.539 C 288.322 209.382,287.097 209.333,283.153 209.333 C 277.165 209.333,277.764 209.633,278.424 206.965 C 278.893 205.069,279.057 204.360,279.341 203.000 C 279.446 202.496,279.631 201.708,279.753 201.250 C 279.875 200.792,280.058 200.004,280.161 199.500 C 280.263 198.996,280.451 198.208,280.579 197.750 C 280.706 197.292,280.885 196.542,280.978 196.083 C 281.343 194.269,281.540 193.381,281.756 192.583 C 281.881 192.125,282.070 191.300,282.177 190.750 C 282.284 190.200,282.467 189.412,282.583 189.000 C 282.700 188.588,282.887 187.800,282.999 187.250 C 283.111 186.700,283.270 186.033,283.351 185.767 C 283.433 185.501,283.500 185.070,283.500 184.808 L 283.500 184.333 280.513 184.333 L 277.526 184.333 277.365 184.875 M297.792 185.292 C 297.508 186.335,296.881 189.002,296.331 191.500 C 296.140 192.371,295.879 193.496,295.752 194.000 C 295.624 194.504,295.436 195.292,295.333 195.750 C 295.231 196.208,295.045 196.996,294.921 197.500 C 294.797 198.004,294.611 198.829,294.508 199.333 C 294.404 199.838,294.255 200.512,294.177 200.833 C 293.724 202.683,293.600 203.216,293.322 204.500 C 293.154 205.279,292.930 206.254,292.825 206.667 C 292.516 207.877,292.370 208.521,292.167 209.583 C 292.061 210.133,291.872 210.958,291.747 211.417 C 291.287 213.101,291.167 213.630,291.167 213.978 L 291.167 214.333 300.312 214.333 L 309.457 214.333 309.636 213.625 C 309.735 213.235,309.852 212.729,309.898 212.500 C 310.008 211.946,310.324 210.700,310.508 210.101 C 310.744 209.330,310.770 209.333,304.389 209.333 C 298.656 209.333,298.304 209.316,298.410 209.042 C 298.472 208.881,298.592 208.388,298.676 207.945 C 298.761 207.503,298.872 207.071,298.925 206.987 C 298.977 206.902,299.085 206.476,299.164 206.041 C 299.447 204.476,300.000 202.076,300.161 201.708 L 300.326 201.333 305.643 201.333 L 310.960 201.333 311.146 200.875 C 311.319 200.452,311.472 199.816,311.820 198.083 C 311.893 197.717,312.009 197.210,312.078 196.958 L 312.203 196.500 306.757 196.500 C 301.652 196.500,301.316 196.482,301.388 196.208 C 301.430 196.048,301.541 195.579,301.636 195.167 C 301.730 194.754,301.930 193.892,302.080 193.250 C 302.230 192.608,302.424 191.765,302.510 191.375 C 302.596 190.985,302.746 190.348,302.843 189.958 L 303.020 189.250 308.218 189.299 C 314.864 189.362,314.645 189.406,315.025 187.911 C 315.283 186.900,315.833 184.493,315.833 184.375 C 315.833 184.352,311.833 184.333,306.943 184.333 L 298.053 184.333 297.792 185.292 M321.355 185.208 C 321.232 185.690,321.073 186.383,321.001 186.750 C 320.732 188.116,319.891 191.743,319.318 194.000 C 319.106 194.836,318.557 197.348,318.335 198.500 C 318.255 198.912,318.118 199.475,318.029 199.750 C 317.941 200.025,317.782 200.700,317.676 201.250 C 317.569 201.800,317.408 202.475,317.318 202.750 C 317.180 203.170,316.675 205.470,316.384 207.000 C 316.340 207.229,316.207 207.754,316.088 208.167 C 315.969 208.579,315.780 209.367,315.668 209.917 C 315.481 210.836,315.360 211.334,314.848 213.269 C 314.748 213.647,314.667 214.040,314.667 214.144 C 314.667 214.278,315.562 214.333,317.747 214.333 L 320.827 214.333 320.927 213.875 C 320.981 213.623,321.201 212.667,321.414 211.750 C 321.628 210.833,321.893 209.633,322.003 209.083 C 322.113 208.533,322.303 207.746,322.424 207.333 C 322.546 206.921,322.734 206.133,322.841 205.583 C 322.948 205.033,323.141 204.251,323.268 203.845 C 323.396 203.439,323.500 202.937,323.500 202.728 C 323.500 201.667,323.760 201.500,325.402 201.501 L 326.917 201.503 327.218 202.543 C 327.384 203.115,327.591 203.846,327.677 204.167 C 327.884 204.938,328.437 206.966,328.834 208.417 C 329.010 209.058,329.243 209.921,329.353 210.333 C 330.434 214.417,330.330 214.333,334.328 214.333 L 336.614 214.333 336.813 213.375 C 337.197 211.523,337.596 209.877,337.771 209.422 C 337.828 209.274,337.548 209.177,336.819 209.095 C 335.654 208.963,334.927 208.424,334.754 207.563 C 334.701 207.299,334.537 206.671,334.389 206.167 C 334.242 205.662,334.050 204.987,333.963 204.667 C 333.876 204.346,333.729 203.858,333.635 203.583 C 333.541 203.308,333.412 202.781,333.347 202.411 C 333.283 202.041,333.174 201.647,333.105 201.536 C 333.021 201.399,333.109 201.333,333.379 201.333 C 336.118 201.333,339.168 198.552,339.917 195.371 C 340.062 194.754,340.270 193.912,340.378 193.500 C 341.051 190.932,340.540 187.666,339.267 186.406 C 337.484 184.640,335.782 184.333,327.748 184.333 L 321.579 184.333 321.355 185.208 M156.397 189.361 C 158.028 189.824,158.332 190.907,157.630 193.750 C 156.972 196.412,156.791 196.500,151.952 196.500 L 148.630 196.500 148.739 195.875 C 148.919 194.845,149.496 192.309,149.757 191.402 C 149.890 190.936,150.000 190.434,150.000 190.288 C 150.000 190.141,150.073 189.829,150.163 189.594 L 150.325 189.167 153.018 189.167 C 154.569 189.167,156.002 189.249,156.397 189.361 M333.367 189.560 C 334.523 190.129,334.694 191.243,333.987 193.595 C 333.903 193.877,333.833 194.275,333.833 194.481 C 333.833 196.121,332.811 196.500,328.392 196.500 C 324.560 196.500,324.811 196.612,325.240 195.098 C 325.372 194.632,325.637 193.500,325.829 192.583 C 326.021 191.667,326.293 190.516,326.435 190.026 L 326.694 189.135 329.722 189.196 C 332.232 189.246,332.856 189.308,333.367 189.560 M128.488 201.792 L 128.500 202.167 125.250 202.167 C 123.462 202.167,122.000 202.136,122.000 202.099 C 122.000 202.062,122.263 201.568,122.583 201.000 C 122.904 200.432,123.167 199.906,123.167 199.829 C 123.167 199.753,123.263 199.591,123.381 199.470 C 123.499 199.349,123.728 198.987,123.889 198.667 C 124.208 198.032,125.320 196.002,125.715 195.333 C 125.850 195.104,126.254 194.354,126.613 193.667 C 126.972 192.979,127.412 192.195,127.591 191.924 L 127.917 191.431 128.196 196.424 C 128.350 199.170,128.482 201.585,128.488 201.792 M228.329 194.261 C 228.240 194.496,228.167 194.808,228.167 194.955 C 228.167 195.101,228.047 195.640,227.901 196.152 C 227.571 197.309,227.413 197.974,227.161 199.250 C 227.053 199.800,226.892 200.475,226.804 200.750 C 226.650 201.229,226.538 201.745,226.188 203.583 C 226.100 204.042,225.935 204.642,225.820 204.917 C 224.774 207.423,226.248 212.063,228.439 213.163 C 228.702 213.295,229.029 213.486,229.167 213.588 C 230.495 214.576,240.265 214.565,241.500 213.573 C 241.637 213.463,241.918 213.322,242.124 213.259 C 242.489 213.148,243.996 212.044,244.505 211.515 C 245.886 210.081,246.736 208.194,247.329 205.250 C 247.527 204.270,247.794 203.059,248.085 201.833 C 248.226 201.237,248.481 200.112,248.651 199.333 C 248.822 198.554,249.047 197.579,249.152 197.167 C 249.257 196.754,249.478 195.835,249.644 195.125 L 249.945 193.833 246.833 193.833 L 243.720 193.833 243.527 194.258 C 243.420 194.491,243.333 194.803,243.333 194.952 C 243.333 195.100,243.225 195.602,243.093 196.069 C 242.961 196.535,242.695 197.667,242.503 198.583 C 242.310 199.500,242.044 200.662,241.911 201.167 C 241.778 201.671,241.555 202.646,241.415 203.333 C 240.787 206.419,240.580 206.861,239.399 207.643 L 238.610 208.167 236.136 208.167 C 233.216 208.167,232.821 208.032,232.346 206.872 C 232.121 206.322,232.150 205.863,232.512 204.250 C 232.873 202.644,233.420 200.315,233.765 198.917 C 233.901 198.367,234.084 197.579,234.172 197.167 C 234.260 196.754,234.407 196.079,234.500 195.667 C 234.593 195.254,234.716 194.673,234.773 194.375 L 234.877 193.833 231.684 193.833 L 228.492 193.833 228.329 194.261 " stroke="none" fill="#040404" fill-rule="evenodd"></path></g></svg>