<svg id="svg" xmlns="http://www.w3.org/2000/svg"  width="400" height="400.94117647058823" viewBox="0, 0, 400,400.94117647058823"><g id="svgg"><path id="path0" d="M0.627 0.627 C -0.246 1.501,-0.165 93.176,0.709 93.176 C 1.632 93.176,93.176 1.625,93.176 0.702 C 93.176 -0.167,1.496 -0.241,0.627 0.627 M83.873 83.878 L -0.000 167.756 -0.000 221.053 L 0.000 274.351 136.471 137.882 C 211.529 62.825,272.941 1.096,272.941 0.707 C 272.941 0.318,249.272 0.000,220.343 0.000 L 167.746 0.000 83.873 83.878 M174.352 173.413 C 78.976 268.790,0.941 347.143,0.941 347.530 C 0.941 347.918,12.793 348.235,27.279 348.235 L 53.617 348.235 53.867 374.142 L 54.118 400.049 226.824 227.324 L 399.529 54.598 399.779 27.299 L 400.028 0.000 373.896 0.000 L 347.763 0.000 174.352 173.413 M263.765 263.800 C 189.094 338.486,128.000 399.897,128.000 400.267 C 128.000 400.638,151.824 400.941,180.943 400.941 L 233.886 400.941 316.951 317.872 L 400.016 234.804 399.773 181.406 L 399.529 128.007 263.765 263.800 M353.412 354.824 L 307.301 400.941 353.651 400.941 L 400.000 400.941 400.000 354.824 C 400.000 329.459,399.892 308.706,399.761 308.706 C 399.630 308.706,378.773 329.459,353.412 354.824 " stroke="none" fill-rule="evenodd"></path></g></svg>