<?xml version="1.0" encoding="UTF-8" standalone="no"?>
<svg
   xmlns="http://www.w3.org/2000/svg"
   viewBox="0, 0, 400,400"
   height="400"
   width="400"
   version="1.1"
   id="svg">
  <g
     id="svgg">
    <path
       style="fill-rule:evenodd;stroke:none"
       d="m 82.167,164.02812 c 0,0.129 -0.216,0.715 -0.48,1.303 -0.263,0.587 -0.608,1.513 -0.765,2.057 -0.158,0.544 -0.344,1.064 -0.413,1.156 -0.069,0.091 -0.26,0.579 -0.424,1.083 -0.324,1 -0.406,1.214 -0.893,2.333 -0.179,0.413 -0.411,1.068 -0.515,1.456 -0.103,0.388 -0.411,1.201 -0.683,1.807 -0.272,0.606 -0.494,1.201 -0.494,1.321 0,0.121 -0.263,0.833 -0.583,1.583 -0.321,0.75 -0.584,1.461 -0.584,1.581 0,0.119 -0.232,0.763 -0.515,1.429 -0.284,0.667 -0.705,1.781 -0.937,2.476 -0.231,0.695 -0.48,1.339 -0.552,1.431 -0.072,0.091 -0.261,0.615 -0.42,1.164 -0.159,0.549 -0.35,1.112 -0.425,1.25 -0.29,0.539 -0.817,1.889 -0.817,2.092 0,0.118 -0.263,0.827 -0.584,1.577 -0.321,0.75 -0.583,1.462 -0.583,1.583 0,0.12 -0.227,0.726 -0.505,1.346 -0.278,0.619 -0.57,1.395 -0.649,1.723 -0.08,0.329 -0.37,1.161 -0.647,1.848 -0.848,2.109 -1.699,4.414 -1.699,4.6 0,0.096 -0.3,0.868 -0.667,1.713 -0.366,0.845 -0.666,1.639 -0.666,1.763 0,0.125 -0.216,0.707 -0.48,1.294 -0.263,0.588 -0.608,1.514 -0.765,2.058 -0.158,0.544 -0.344,1.064 -0.413,1.155 -0.069,0.092 -0.261,0.579 -0.425,1.084 -0.164,0.504 -0.55,1.529 -0.858,2.279 -0.307,0.749 -0.559,1.45 -0.559,1.558 0,0.108 -0.263,0.802 -0.584,1.542 -0.321,0.74 -0.583,1.451 -0.583,1.579 0,0.129 -0.251,0.847 -0.558,1.596 -0.589,1.437 -0.906,2.29 -1.561,4.196 -0.22,0.641 -0.498,1.391 -0.618,1.666 -0.12,0.275 -0.371,0.913 -0.559,1.417 -0.187,0.504 -0.62,1.667 -0.96,2.583 -0.341,0.917 -0.874,2.304 -1.184,3.084 -0.311,0.779 -0.563,1.491 -0.56,1.583 0.003,0.092 -0.248,0.804 -0.557,1.583 -0.309,0.779 -0.638,1.642 -0.732,1.917 -0.093,0.275 -0.225,0.631 -0.292,0.792 -0.115,0.276 0.546,0.291 12.54,0.291 H 79.62 l 0.337,-0.958 c 0.377,-1.071 1.192,-3.288 2.132,-5.792 0.344,-0.916 0.805,-2.191 1.025,-2.833 0.22,-0.642 0.47,-1.317 0.556,-1.5 0.232,-0.494 0.635,-1.572 1.748,-4.667 0.164,-0.458 0.55,-1.446 0.857,-2.195 0.307,-0.749 0.558,-1.45 0.558,-1.556 0,-0.106 0.3,-0.912 0.667,-1.789 0.367,-0.878 0.667,-1.68 0.667,-1.783 0,-0.103 0.25,-0.785 0.557,-1.515 0.307,-0.731 0.608,-1.535 0.67,-1.787 l 0.112,-0.458 h 11.326 11.326 l -0.106,0.542 c -0.059,0.298 -0.317,1.011 -0.574,1.586 -0.257,0.575 -0.552,1.362 -0.655,1.75 -0.185,0.689 -0.674,1.917 -0.996,2.495 -0.088,0.159 -0.16,0.441 -0.16,0.627 0,0.186 -0.073,0.468 -0.161,0.627 -0.262,0.471 -0.783,1.74 -1.008,2.456 -0.116,0.367 -0.422,1.192 -0.681,1.834 -0.259,0.641 -0.616,1.579 -0.792,2.083 -0.835,2.388 -1.245,3.508 -1.678,4.583 -0.258,0.642 -0.602,1.579 -0.766,2.084 -0.163,0.504 -0.354,0.991 -0.423,1.083 -0.07,0.092 -0.255,0.612 -0.413,1.156 -0.158,0.544 -0.502,1.469 -0.766,2.057 -0.263,0.587 -0.479,1.249 -0.479,1.469 v 0.401 h 12.472 12.472 l 0.185,-0.375 c 0.415,-0.837 0.871,-1.951 0.871,-2.127 0,-0.183 0.798,-2.309 1.939,-5.164 0.311,-0.78 0.565,-1.504 0.563,-1.611 -0.001,-0.106 0.26,-0.806 0.581,-1.556 0.321,-0.75 0.584,-1.459 0.584,-1.577 0,-0.118 0.195,-0.655 0.434,-1.194 0.239,-0.538 0.639,-1.579 0.889,-2.312 0.674,-1.973 0.999,-2.85 1.619,-4.363 0.307,-0.749 0.558,-1.45 0.558,-1.558 0,-0.108 0.262,-0.802 0.583,-1.542 0.321,-0.74 0.583,-1.431 0.583,-1.534 0,-0.104 0.273,-0.859 0.606,-1.679 0.334,-0.82 0.663,-1.716 0.733,-1.991 0.069,-0.275 0.352,-1.062 0.628,-1.75 0.275,-0.687 0.777,-2 1.114,-2.917 0.338,-0.916 0.842,-2.229 1.12,-2.916 0.278,-0.688 0.54,-1.438 0.582,-1.667 0.041,-0.229 0.141,-0.567 0.221,-0.75 0.08,-0.183 0.292,-0.671 0.471,-1.083 0.179,-0.413 0.414,-1.079 0.521,-1.481 0.108,-0.401 0.262,-0.851 0.342,-1 0.295,-0.541 0.829,-1.901 0.829,-2.109 0,-0.118 0.262,-0.827 0.583,-1.577 0.321,-0.75 0.584,-1.47 0.584,-1.6 0,-0.131 0.072,-0.368 0.161,-0.527 0.29,-0.519 1.172,-2.736 1.172,-2.944 0,-0.112 0.262,-0.809 0.583,-1.55 0.321,-0.74 0.584,-1.456 0.584,-1.592 0,-0.135 0.196,-0.686 0.435,-1.225 0.239,-0.538 0.603,-1.466 0.808,-2.062 0.793,-2.308 1.158,-3.299 1.697,-4.612 0.308,-0.749 0.56,-1.449 0.56,-1.555 0,-0.105 0.251,-0.805 0.558,-1.554 0.613,-1.498 0.933,-2.359 1.62,-4.362 0.252,-0.734 0.622,-1.709 0.823,-2.167 0.398,-0.909 1.165,-3.162 1.165,-3.423 0,-0.104 -4.494,-0.147 -12.6,-0.12 l -12.601,0.043 -0.461,1.333 c -0.819,2.367 -1.044,2.979 -1.541,4.185 -0.268,0.652 -0.549,1.439 -0.625,1.75 -0.075,0.311 -0.37,1.147 -0.654,1.857 -0.285,0.71 -0.751,1.873 -1.036,2.583 -0.285,0.711 -0.668,1.779 -0.851,2.375 -0.183,0.596 -0.389,1.159 -0.457,1.25 -0.068,0.092 -0.259,0.579 -0.424,1.084 -0.165,0.504 -0.391,1.141 -0.502,1.416 -0.111,0.275 -0.37,0.95 -0.575,1.5 -0.205,0.55 -0.598,1.563 -0.873,2.25 -0.276,0.688 -0.557,1.475 -0.626,1.75 -0.068,0.275 -0.367,1.082 -0.665,1.792 l -0.54,1.292 h -11.318 c -6.224,0 -11.317,-0.031 -11.317,-0.069 0,-0.038 0.262,-0.682 0.583,-1.431 0.321,-0.75 0.583,-1.462 0.583,-1.583 0,-0.121 0.216,-0.7 0.48,-1.288 0.263,-0.587 0.608,-1.513 0.765,-2.057 0.158,-0.544 0.344,-1.064 0.413,-1.156 0.069,-0.091 0.261,-0.579 0.426,-1.083 0.165,-0.504 0.391,-1.142 0.502,-1.417 0.111,-0.275 0.37,-0.95 0.575,-1.5 0.205,-0.55 0.598,-1.562 0.873,-2.25 0.276,-0.687 0.559,-1.487 0.629,-1.776 0.071,-0.29 0.392,-1.19 0.714,-2 1.031,-2.598 1.79,-4.642 1.79,-4.823 0,-0.096 0.257,-0.77 0.57,-1.496 0.314,-0.727 0.622,-1.603 0.685,-1.946 l 0.115,-0.625 H 94.769 c -10.72,0 -12.602,0.035 -12.602,0.234 m 81.48,0.224 c -0.097,0.252 -0.404,1.096 -0.681,1.875 -0.278,0.779 -0.727,2.017 -0.998,2.75 -0.271,0.733 -0.705,1.933 -0.964,2.667 -0.259,0.733 -0.666,1.774 -0.904,2.312 -0.238,0.539 -0.433,1.079 -0.433,1.2 0,0.122 -0.3,0.913 -0.667,1.758 -0.367,0.845 -0.667,1.675 -0.667,1.844 0,0.169 -0.072,0.437 -0.16,0.596 -0.326,0.585 -0.812,1.809 -1.002,2.52 -0.108,0.402 -0.262,0.852 -0.342,1 -0.295,0.541 -0.829,1.901 -0.829,2.109 0,0.118 -0.263,0.828 -0.583,1.577 -0.321,0.75 -0.584,1.462 -0.584,1.584 0,0.121 -0.262,0.833 -0.583,1.583 -0.321,0.75 -0.583,1.462 -0.583,1.583 0,0.12 -0.216,0.7 -0.48,1.287 -0.263,0.588 -0.608,1.514 -0.765,2.058 -0.158,0.544 -0.344,1.064 -0.413,1.155 -0.069,0.092 -0.26,0.579 -0.424,1.084 -0.163,0.504 -0.359,1.066 -0.434,1.25 -0.075,0.183 -0.338,0.82 -0.584,1.416 -0.246,0.596 -0.504,1.309 -0.573,1.584 -0.069,0.275 -0.353,1.062 -0.63,1.75 -0.278,0.687 -0.778,2 -1.112,2.916 -0.62,1.701 -1.234,3.369 -2.33,6.334 -0.34,0.916 -0.844,2.229 -1.122,2.916 -0.279,0.688 -0.54,1.438 -0.582,1.667 -0.042,0.229 -0.142,0.567 -0.221,0.75 -0.08,0.183 -0.292,0.671 -0.472,1.083 -0.179,0.413 -0.415,1.088 -0.525,1.5 -0.11,0.413 -0.253,0.825 -0.318,0.917 -0.114,0.159 -0.283,0.598 -1.636,4.25 -0.323,0.871 -0.84,2.224 -1.15,3.006 -0.309,0.783 -0.563,1.507 -0.563,1.611 0,0.103 -0.262,0.8 -0.583,1.55 -0.321,0.749 -0.583,1.452 -0.583,1.562 0,0.11 -0.252,0.807 -0.56,1.548 -0.309,0.742 -0.614,1.564 -0.68,1.828 -0.066,0.263 -0.221,0.703 -0.346,0.978 -0.125,0.275 -0.34,0.782 -0.479,1.125 l -0.252,0.625 h 32.386 32.385 l 0.273,-0.714 c 0.15,-0.392 0.273,-0.798 0.273,-0.901 0,-0.104 0.262,-0.802 0.583,-1.551 0.321,-0.75 0.583,-1.453 0.583,-1.562 0,-0.109 0.263,-0.821 0.584,-1.582 0.32,-0.76 0.583,-1.476 0.583,-1.591 0,-0.114 0.3,-0.9 0.667,-1.745 0.366,-0.845 0.666,-1.65 0.666,-1.788 0,-0.23 0.488,-1.466 0.816,-2.068 0.076,-0.138 0.268,-0.701 0.427,-1.25 0.159,-0.549 0.346,-1.073 0.415,-1.164 0.069,-0.092 0.26,-0.579 0.422,-1.084 0.163,-0.504 0.512,-1.432 0.775,-2.063 0.263,-0.63 0.479,-1.249 0.479,-1.375 0,-0.192 -3.149,-0.228 -19.851,-0.228 -15.812,0 -19.836,-0.043 -19.774,-0.209 0.043,-0.114 0.174,-0.508 0.292,-0.875 0.117,-0.366 0.466,-1.279 0.773,-2.029 0.308,-0.749 0.56,-1.445 0.56,-1.546 0,-0.179 0.594,-1.69 1.101,-2.799 l 0.247,-0.541 19.782,-0.042 19.782,-0.043 0.367,-0.75 c 0.202,-0.412 0.372,-0.877 0.377,-1.033 0.006,-0.156 0.267,-0.869 0.581,-1.584 0.314,-0.714 0.625,-1.524 0.693,-1.799 0.067,-0.275 0.372,-1.098 0.679,-1.829 0.307,-0.73 0.557,-1.418 0.557,-1.528 0,-0.11 0.263,-0.823 0.584,-1.583 0.32,-0.761 0.583,-1.473 0.583,-1.582 0,-0.109 0.262,-0.812 0.583,-1.562 0.321,-0.749 0.584,-1.473 0.584,-1.607 0,-0.22 0.21,-0.748 0.928,-2.335 0.131,-0.288 0.238,-0.607 0.238,-0.708 0,-0.132 -5.513,-0.183 -19.763,-0.183 h -19.763 l 0.113,-0.542 c 0.063,-0.298 0.342,-1.104 0.621,-1.791 0.279,-0.688 0.647,-1.663 0.819,-2.167 0.171,-0.504 0.509,-1.385 0.751,-1.958 l 0.439,-1.042 h 19.806 19.806 l 0.227,-0.543 c 0.125,-0.298 0.323,-0.842 0.442,-1.208 0.118,-0.366 0.427,-1.191 0.686,-1.832 0.259,-0.642 0.613,-1.579 0.786,-2.084 0.978,-2.842 1.136,-3.267 1.672,-4.5 0.179,-0.412 0.411,-1.067 0.514,-1.455 0.104,-0.388 0.411,-1.201 0.683,-1.807 0.272,-0.606 0.495,-1.201 0.495,-1.322 0,-0.121 0.262,-0.833 0.583,-1.582 0.321,-0.75 0.583,-1.461 0.583,-1.581 0,-0.12 0.225,-0.747 0.5,-1.393 0.275,-0.646 0.5,-1.254 0.5,-1.351 0,-0.122 -9.745,-0.175 -32.254,-0.175 h -32.254 l -0.178,0.458 m 72.527,0.313 c -0.187,0.424 -0.341,0.865 -0.341,0.979 0,0.205 -0.297,1.003 -0.745,2 -0.124,0.275 -0.314,0.837 -0.423,1.25 -0.109,0.412 -0.251,0.825 -0.317,0.916 -0.115,0.162 -0.405,0.917 -1.631,4.25 -0.321,0.871 -0.808,2.146 -1.084,2.834 -0.276,0.687 -0.559,1.475 -0.631,1.75 -0.071,0.275 -0.363,1.075 -0.649,1.777 -0.286,0.703 -0.52,1.364 -0.52,1.468 0,0.191 -0.539,1.505 -0.839,2.044 -0.446,0.803 -0.499,0.794 4.774,0.794 4.635,0 4.927,0.018 4.813,0.292 -0.067,0.16 -0.198,0.516 -0.291,0.791 -0.094,0.275 -0.422,1.141 -0.73,1.923 -0.308,0.783 -0.56,1.507 -0.56,1.611 0,0.103 -0.263,0.8 -0.583,1.55 -0.321,0.749 -0.584,1.459 -0.584,1.577 0,0.203 -0.527,1.553 -0.817,2.091 -0.075,0.139 -0.259,0.676 -0.41,1.194 -0.15,0.518 -0.498,1.443 -0.773,2.055 -0.275,0.613 -0.5,1.213 -0.5,1.333 0,0.121 -0.262,0.833 -0.583,1.583 -0.321,0.75 -0.583,1.456 -0.583,1.569 0,0.113 -0.263,0.811 -0.584,1.552 -0.321,0.74 -0.583,1.453 -0.583,1.583 0,0.131 -0.263,0.843 -0.583,1.583 -0.321,0.741 -0.584,1.459 -0.584,1.598 0,0.138 -0.227,0.757 -0.505,1.377 -0.278,0.619 -0.57,1.395 -0.649,1.724 -0.079,0.328 -0.37,1.16 -0.647,1.847 -0.277,0.688 -0.711,1.813 -0.965,2.5 -0.254,0.688 -0.523,1.322 -0.597,1.409 -0.075,0.087 -0.137,0.33 -0.137,0.541 v 0.384 h -5.079 -5.08 l -0.244,0.375 c -0.135,0.206 -0.316,0.675 -0.403,1.041 -0.087,0.367 -0.386,1.23 -0.663,1.917 -0.891,2.207 -1.7,4.411 -1.699,4.627 0.001,0.116 -0.071,0.341 -0.159,0.5 -0.321,0.578 -0.811,1.806 -0.995,2.495 -0.104,0.388 -0.411,1.201 -0.683,1.807 -0.272,0.606 -0.495,1.202 -0.495,1.323 0,0.122 -0.262,0.844 -0.583,1.605 -0.321,0.76 -0.583,1.468 -0.583,1.571 0,0.104 -0.296,0.893 -0.656,1.755 l -0.656,1.567 22.864,0.043 c 12.575,0.023 22.954,0.009 23.063,-0.033 0.109,-0.041 0.361,-0.623 0.559,-1.293 0.198,-0.669 0.417,-1.292 0.485,-1.384 0.069,-0.091 0.258,-0.579 0.422,-1.083 0.324,-1 0.406,-1.214 0.893,-2.333 0.18,-0.413 0.411,-1.068 0.515,-1.456 0.104,-0.388 0.411,-1.201 0.683,-1.807 0.272,-0.606 0.494,-1.201 0.494,-1.323 0,-0.122 0.263,-0.844 0.584,-1.604 0.32,-0.761 0.583,-1.473 0.583,-1.582 0,-0.109 0.262,-0.812 0.583,-1.562 0.321,-0.749 0.584,-1.476 0.584,-1.614 0,-0.139 0.106,-0.488 0.236,-0.777 1.391,-3.092 1.875,-2.775 -4.236,-2.775 -2.842,0 -5.167,-0.036 -5.167,-0.08 0,-0.097 0.675,-1.865 1.369,-3.587 0.277,-0.687 0.544,-1.437 0.593,-1.667 0.048,-0.229 0.377,-1.126 0.73,-1.993 0.353,-0.867 0.641,-1.666 0.641,-1.776 0,-0.11 0.228,-0.706 0.506,-1.326 0.278,-0.619 0.57,-1.395 0.649,-1.724 0.079,-0.328 0.369,-1.16 0.644,-1.847 0.275,-0.688 0.741,-1.85 1.035,-2.584 0.294,-0.733 0.591,-1.558 0.659,-1.833 0.069,-0.275 0.361,-1.052 0.65,-1.726 0.288,-0.674 0.524,-1.334 0.524,-1.467 0,-0.223 0.493,-1.467 0.816,-2.059 0.075,-0.139 0.267,-0.701 0.426,-1.25 0.159,-0.549 0.346,-1.073 0.416,-1.165 0.069,-0.091 0.26,-0.579 0.424,-1.083 0.164,-0.504 0.588,-1.616 0.941,-2.47 0.354,-0.855 0.643,-1.642 0.643,-1.75 0,-0.108 0.199,-0.665 0.442,-1.238 l 0.442,-1.042 h 4.795 4.795 l 0.114,-0.542 c 0.063,-0.298 0.357,-1.141 0.653,-1.875 0.296,-0.733 0.669,-1.708 0.829,-2.166 0.16,-0.459 0.553,-1.546 0.875,-2.417 0.321,-0.871 0.795,-2.183 1.053,-2.917 0.258,-0.733 0.665,-1.774 0.903,-2.312 0.238,-0.539 0.433,-1.074 0.433,-1.191 0,-0.215 0.876,-2.423 1.172,-2.953 0.089,-0.159 0.161,-0.441 0.161,-0.627 0,-0.186 0.073,-0.468 0.161,-0.627 0.242,-0.436 0.786,-1.739 0.903,-2.165 0.057,-0.206 0.146,-0.525 0.198,-0.708 0.094,-0.332 0.015,-0.333 -22.243,-0.333 h -22.336 l -0.342,0.771 m 53.688,0.52 c -0.292,0.711 -0.531,1.379 -0.53,1.485 0.001,0.106 -0.226,0.699 -0.504,1.319 -0.278,0.619 -0.57,1.395 -0.649,1.724 -0.079,0.328 -0.37,1.16 -0.645,1.847 -1.084,2.705 -1.569,3.996 -1.698,4.528 -0.074,0.306 -0.367,1.137 -0.652,1.847 -0.284,0.711 -0.751,1.873 -1.035,2.584 -0.285,0.71 -0.669,1.779 -0.852,2.375 -0.183,0.595 -0.389,1.158 -0.457,1.25 -0.068,0.091 -0.258,0.579 -0.422,1.083 -0.164,0.504 -0.55,1.53 -0.858,2.279 -0.308,0.749 -0.56,1.45 -0.56,1.558 0,0.108 -0.263,0.802 -0.583,1.542 -0.321,0.741 -0.584,1.451 -0.584,1.58 0,0.128 -0.251,0.846 -0.558,1.595 -0.588,1.437 -0.906,2.291 -1.56,4.196 -0.409,1.19 -0.782,2.12 -1.044,2.603 -0.08,0.148 -0.234,0.598 -0.34,1 -0.107,0.402 -0.294,0.955 -0.416,1.23 -0.647,1.463 -0.915,2.148 -0.915,2.34 0,0.118 -0.263,0.827 -0.583,1.577 -0.321,0.75 -0.584,1.462 -0.584,1.583 0,0.122 -0.262,0.834 -0.583,1.584 -0.321,0.749 -0.583,1.459 -0.583,1.577 0,0.118 -0.196,0.655 -0.435,1.194 -0.239,0.538 -0.639,1.579 -0.889,2.312 -0.673,1.972 -0.999,2.85 -1.618,4.362 -0.307,0.749 -0.558,1.451 -0.558,1.558 0,0.108 -0.263,0.802 -0.584,1.543 -0.321,0.74 -0.583,1.436 -0.583,1.545 0,0.11 -0.272,0.866 -0.604,1.679 -0.332,0.814 -0.661,1.705 -0.732,1.98 -0.071,0.275 -0.355,1.062 -0.63,1.75 -0.276,0.687 -0.778,2 -1.115,2.916 -0.338,0.917 -0.841,2.23 -1.119,2.917 -0.279,0.688 -0.542,1.438 -0.585,1.667 -0.043,0.229 -0.176,0.641 -0.295,0.916 -0.119,0.275 -0.267,0.669 -0.33,0.876 l -0.113,0.375 30.219,-0.042 30.218,-0.042 0.482,-1.25 c 0.264,-0.687 0.735,-1.888 1.045,-2.667 0.31,-0.779 0.563,-1.494 0.561,-1.588 -0.001,-0.095 0.261,-0.794 0.581,-1.555 0.321,-0.761 0.584,-1.473 0.584,-1.583 0,-0.11 0.262,-0.823 0.583,-1.584 0.321,-0.76 0.583,-1.483 0.583,-1.605 0,-0.122 0.263,-0.835 0.584,-1.585 0.32,-0.749 0.583,-1.461 0.583,-1.582 0,-0.121 0.225,-0.721 0.5,-1.333 0.274,-0.613 0.617,-1.518 0.76,-2.011 0.244,-0.838 0.548,-1.593 0.917,-2.28 0.563,-1.043 2.069,-0.96 -17.447,-0.96 -14.059,0 -17.571,-0.042 -17.442,-0.209 0.09,-0.114 0.297,-0.62 0.461,-1.125 0.164,-0.504 0.55,-1.529 0.858,-2.279 0.308,-0.749 0.56,-1.45 0.56,-1.558 0,-0.107 0.106,-0.432 0.236,-0.721 0.612,-1.36 0.93,-2.169 0.93,-2.365 0,-0.117 0.263,-0.827 0.584,-1.577 0.32,-0.749 0.583,-1.462 0.583,-1.583 0,-0.121 0.262,-0.834 0.583,-1.583 0.321,-0.75 0.584,-1.46 0.584,-1.578 0,-0.118 0.195,-0.655 0.434,-1.193 0.239,-0.539 0.639,-1.579 0.889,-2.313 0.495,-1.45 0.981,-2.807 1.194,-3.333 0.074,-0.183 0.336,-0.821 0.582,-1.417 0.246,-0.596 0.504,-1.308 0.573,-1.583 0.07,-0.275 0.351,-1.062 0.626,-1.75 0.998,-2.494 1.585,-4.067 1.708,-4.57 0.069,-0.282 0.351,-1.076 0.627,-1.763 0.275,-0.688 0.777,-2 1.114,-2.917 0.338,-0.917 0.842,-2.229 1.12,-2.917 0.278,-0.687 0.54,-1.437 0.582,-1.666 0.041,-0.229 0.141,-0.567 0.221,-0.75 0.08,-0.184 0.292,-0.671 0.471,-1.084 0.179,-0.412 0.414,-1.078 0.521,-1.48 0.108,-0.402 0.262,-0.852 0.342,-1 0.286,-0.527 0.66,-1.452 1.054,-2.603 0.66,-1.932 1.546,-4.311 1.921,-5.16 0.699,-1.58 2.042,-1.423 -12.199,-1.423 h -12.553 l -0.532,1.291"
       id="path0" />
    <path
       style="fill-rule:evenodd;stroke:none"
       d="m 45.901,138.627 c -0.577,1.444 -0.933,2.412 -1.517,4.123 -0.219,0.642 -0.465,1.317 -0.547,1.5 -0.499,1.117 -0.837,1.984 -0.837,2.146 10e-4,0.103 -0.309,0.975 -0.688,1.937 -0.38,0.963 -0.942,2.391 -1.251,3.173 -0.309,0.783 -0.561,1.507 -0.561,1.611 0,0.103 -0.263,0.8 -0.583,1.55 -0.321,0.749 -0.584,1.476 -0.584,1.614 0,0.139 -0.107,0.488 -0.239,0.777 -0.467,1.022 -0.794,1.869 -1.043,2.692 -0.138,0.458 -0.308,0.908 -0.377,1 -0.068,0.092 -0.259,0.579 -0.423,1.083 -0.164,0.504 -0.55,1.53 -0.858,2.279 -0.308,0.749 -0.56,1.445 -0.56,1.546 0,0.166 -0.387,1.2 -1.627,4.342 -0.235,0.596 -0.666,1.758 -0.958,2.583 -0.93,2.628 -1.12,3.142 -1.599,4.334 -0.259,0.641 -0.614,1.579 -0.789,2.083 -0.176,0.504 -0.6,1.667 -0.943,2.583 -0.343,0.917 -0.832,2.267 -1.087,3 -0.255,0.734 -0.659,1.774 -0.897,2.313 -0.238,0.538 -0.433,1.089 -0.433,1.225 0,0.135 -0.262,0.851 -0.583,1.592 -0.321,0.74 -0.584,1.437 -0.584,1.549 0,0.208 -0.882,2.425 -1.172,2.944 -0.088,0.159 -0.161,0.442 -0.161,0.627 0,0.186 -0.072,0.468 -0.161,0.628 -0.329,0.593 -0.813,1.813 -1.006,2.539 -0.109,0.412 -0.257,0.825 -0.329,0.917 -0.071,0.091 -0.334,0.766 -0.584,1.5 -0.249,0.733 -0.671,1.847 -0.937,2.475 -0.265,0.629 -0.483,1.241 -0.483,1.361 0,0.119 -0.263,0.831 -0.583,1.58 -0.321,0.75 -0.584,1.462 -0.584,1.583 0,0.121 -0.215,0.7 -0.479,1.288 -0.263,0.587 -0.608,1.513 -0.766,2.057 -0.157,0.544 -0.343,1.064 -0.412,1.156 -0.07,0.091 -0.261,0.579 -0.425,1.083 -0.164,0.504 -0.561,1.554 -0.883,2.333 -0.322,0.779 -0.641,1.642 -0.709,1.917 -0.068,0.275 -0.35,1.063 -0.625,1.75 -0.276,0.688 -0.778,2 -1.117,2.917 -0.338,0.916 -0.871,2.321 -1.183,3.121 -0.312,0.8 -0.567,1.555 -0.567,1.679 0,0.123 -0.263,0.83 -0.584,1.57 -0.321,0.741 -0.583,1.435 -0.583,1.543 0,0.107 -0.252,0.809 -0.56,1.558 -0.308,0.749 -0.694,1.774 -0.858,2.279 -0.164,0.504 -0.354,0.991 -0.422,1.083 -0.068,0.092 -0.274,0.654 -0.457,1.25 -0.183,0.596 -0.56,1.646 -0.837,2.333 -0.278,0.688 -0.781,2 -1.118,2.917 -0.338,0.917 -0.839,2.229 -1.115,2.917 -0.276,0.687 -0.559,1.475 -0.631,1.75 -0.071,0.275 -0.363,1.075 -0.649,1.777 -0.286,0.703 -0.52,1.378 -0.521,1.5 0,0.123 -0.1,0.412 -0.22,0.643 -0.121,0.232 -0.316,0.682 -0.434,1 -0.363,0.981 -1.114,3.036 -1.429,3.913 -0.165,0.458 -0.551,1.446 -0.858,2.196 -0.307,0.749 -0.558,1.467 -0.558,1.596 0,0.129 -0.3,0.926 -0.666,1.771 C 0.3,261.158 0,261.996 0,262.175 c 0,0.321 0.39,0.325 32.667,0.325 30.24,0 34.759,-0.058 31.875,-0.409 -0.436,-0.053 -2.067,-0.359 -3.625,-0.679 -1.559,-0.32 -2.984,-0.581 -3.167,-0.579 -0.183,0.002 -1.608,-0.253 -3.167,-0.566 -6.005,-1.209 -8.395,-1.667 -10.083,-1.935 -0.962,-0.153 -2.725,-0.473 -3.917,-0.711 -1.191,-0.239 -2.804,-0.548 -3.583,-0.688 -0.779,-0.14 -1.942,-0.371 -2.583,-0.514 -0.642,-0.143 -1.692,-0.327 -2.334,-0.41 -0.641,-0.083 -2.066,-0.35 -3.166,-0.593 -1.1,-0.244 -2.3,-0.478 -2.667,-0.521 -0.367,-0.042 -1.979,-0.331 -3.583,-0.64 -1.604,-0.309 -3.78,-0.725 -4.834,-0.925 -2.295,-0.434 -2.089,-0.254 -1.585,-1.392 0.23,-0.521 0.419,-1.051 0.419,-1.178 0,-0.127 0.262,-0.844 0.583,-1.593 0.321,-0.75 0.583,-1.453 0.583,-1.562 0,-0.109 0.263,-0.821 0.584,-1.582 0.32,-0.76 0.583,-1.483 0.583,-1.605 0,-0.122 0.262,-0.835 0.583,-1.585 0.321,-0.749 0.584,-1.461 0.584,-1.582 0,-0.121 0.224,-0.721 0.499,-1.333 0.275,-0.613 0.623,-1.538 0.774,-2.056 0.15,-0.518 0.334,-1.055 0.409,-1.193 0.29,-0.539 0.818,-1.889 0.818,-2.092 0,-0.118 0.262,-0.827 0.583,-1.577 0.321,-0.75 0.583,-1.452 0.583,-1.561 0,-0.11 0.263,-0.822 0.584,-1.582 0.321,-0.761 0.583,-1.483 0.583,-1.605 0,-0.121 0.216,-0.702 0.479,-1.289 0.264,-0.588 0.608,-1.513 0.766,-2.057 0.158,-0.544 0.343,-1.064 0.413,-1.156 0.069,-0.092 0.26,-0.579 0.423,-1.083 0.325,-1 0.407,-1.214 0.894,-2.334 0.179,-0.412 0.409,-1.061 0.511,-1.442 0.102,-0.381 0.38,-1.131 0.618,-1.667 0.238,-0.536 0.603,-1.462 0.811,-2.057 0.208,-0.596 0.642,-1.796 0.964,-2.667 0.321,-0.871 0.857,-2.333 1.189,-3.25 0.332,-0.917 0.709,-1.892 0.836,-2.167 0.128,-0.275 0.317,-0.817 0.42,-1.205 0.103,-0.388 0.41,-1.201 0.682,-1.807 0.272,-0.606 0.494,-1.201 0.494,-1.322 0,-0.121 0.262,-0.833 0.583,-1.582 0.321,-0.75 0.584,-1.453 0.584,-1.562 0,-0.109 0.262,-0.821 0.583,-1.582 0.321,-0.76 0.583,-1.471 0.583,-1.578 0,-0.107 0.31,-0.982 0.689,-1.945 0.379,-0.963 0.942,-2.39 1.25,-3.173 0.309,-0.783 0.561,-1.507 0.561,-1.61 0,-0.103 0.263,-0.801 0.584,-1.55 0.32,-0.75 0.583,-1.473 0.583,-1.608 0,-0.225 0.491,-1.466 0.816,-2.061 0.075,-0.139 0.267,-0.701 0.426,-1.25 0.159,-0.549 0.346,-1.073 0.416,-1.165 0.069,-0.091 0.26,-0.579 0.423,-1.083 0.164,-0.504 0.508,-1.442 0.766,-2.083 0.45,-1.117 0.918,-2.397 1.738,-4.75 0.208,-0.596 0.566,-1.507 0.796,-2.024 0.23,-0.518 0.546,-1.38 0.701,-1.917 0.156,-0.537 0.34,-1.051 0.409,-1.143 0.069,-0.091 0.261,-0.579 0.426,-1.083 0.165,-0.504 0.391,-1.142 0.502,-1.417 0.203,-0.502 0.359,-0.917 1.503,-4 0.341,-0.916 0.872,-2.307 1.182,-3.089 0.309,-0.783 0.563,-1.507 0.563,-1.611 0,-0.103 0.262,-0.8 0.583,-1.55 0.321,-0.749 0.583,-1.476 0.583,-1.614 0,-0.139 0.263,-0.858 0.584,-1.598 0.32,-0.741 0.583,-1.44 0.583,-1.555 0,-0.115 0.291,-0.908 0.647,-1.762 0.356,-0.855 0.74,-1.865 0.854,-2.245 l 0.208,-0.691 1.235,-0.184 c 0.68,-0.101 1.552,-0.183 1.938,-0.181 0.386,0.002 3.214,-0.295 6.285,-0.66 3.07,-0.366 8.021,-0.934 11,-1.263 7.038,-0.778 14.627,-1.619 21.124,-2.341 2.865,-0.318 7.552,-0.838 10.417,-1.156 6.794,-0.752 14.447,-1.605 20.875,-2.326 2.842,-0.319 6.386,-0.707 7.875,-0.864 1.49,-0.156 2.709,-0.346 2.709,-0.422 0,-0.076 -20.757,-0.137 -46.125,-0.135 l -46.125,0.002 -0.516,1.289 m 261.766,-1.158 c 0,0.133 4.012,0.709 4.833,0.694 0.229,-0.004 2.479,0.255 5,0.576 5.021,0.64 12.849,1.599 16.25,1.991 3.123,0.36 7.249,0.872 11.833,1.466 2.2,0.286 4.75,0.579 5.667,0.652 0.917,0.073 3.279,0.362 5.25,0.642 1.971,0.28 3.883,0.51 4.25,0.51 0.367,0.001 2.53,0.264 4.807,0.584 2.277,0.32 4.377,0.58 4.667,0.578 0.289,-0.003 2.813,0.293 5.609,0.659 2.796,0.365 5.786,0.738 6.645,0.829 0.858,0.092 1.592,0.198 1.632,0.237 0.069,0.07 -0.127,0.616 -1.343,3.734 -0.33,0.846 -0.6,1.621 -0.6,1.721 0,0.101 -0.252,0.797 -0.56,1.546 -0.308,0.749 -0.694,1.774 -0.858,2.279 -0.164,0.504 -0.355,0.991 -0.425,1.083 -0.069,0.092 -0.256,0.616 -0.415,1.165 -0.159,0.549 -0.35,1.111 -0.425,1.25 -0.29,0.538 -0.817,1.888 -0.817,2.091 0,0.118 -0.263,0.828 -0.584,1.577 -0.321,0.75 -0.583,1.453 -0.583,1.562 0,0.109 -0.262,0.821 -0.583,1.582 -0.321,0.76 -0.584,1.482 -0.584,1.604 0,0.122 -0.213,0.697 -0.473,1.278 -0.261,0.582 -0.568,1.358 -0.683,1.724 -0.115,0.367 -0.402,1.154 -0.636,1.75 -0.235,0.596 -0.63,1.646 -0.877,2.334 -0.247,0.687 -0.584,1.625 -0.748,2.083 -0.165,0.458 -0.551,1.446 -0.858,2.196 -0.307,0.749 -0.558,1.447 -0.558,1.55 0,0.104 -0.228,0.725 -0.507,1.379 -0.278,0.655 -0.57,1.457 -0.649,1.783 -0.078,0.326 -0.368,1.155 -0.644,1.842 -0.275,0.688 -0.777,2 -1.114,2.917 -0.338,0.916 -0.841,2.229 -1.118,2.916 -0.277,0.688 -0.654,1.738 -0.837,2.334 -0.184,0.595 -0.389,1.158 -0.458,1.25 -0.068,0.091 -0.259,0.579 -0.424,1.083 -0.165,0.504 -0.39,1.142 -0.501,1.417 -0.112,0.275 -0.37,0.95 -0.575,1.5 -0.205,0.55 -0.598,1.562 -0.874,2.25 -0.275,0.687 -0.565,1.519 -0.645,1.847 -0.079,0.329 -0.371,1.105 -0.649,1.724 -0.278,0.62 -0.505,1.225 -0.505,1.346 0,0.121 -0.262,0.833 -0.583,1.583 -0.321,0.749 -0.584,1.476 -0.584,1.614 0,0.139 -0.106,0.488 -0.236,0.777 -0.564,1.254 -0.93,2.162 -0.93,2.308 0,0.087 -0.309,0.958 -0.687,1.937 -1.114,2.889 -1.747,4.56 -2.064,5.447 -0.94,2.631 -1.242,3.435 -1.641,4.37 -0.243,0.57 -0.442,1.144 -0.442,1.274 0,0.131 -0.236,0.789 -0.524,1.464 -0.289,0.674 -0.581,1.45 -0.649,1.725 -0.069,0.275 -0.352,1.063 -0.628,1.75 -0.277,0.688 -0.711,1.813 -0.965,2.5 -0.254,0.688 -0.523,1.322 -0.597,1.409 -0.075,0.087 -0.137,0.318 -0.137,0.513 0,0.195 -0.3,1.046 -0.666,1.891 -0.367,0.846 -0.667,1.63 -0.667,1.742 0,0.113 -0.262,0.828 -0.583,1.589 -0.321,0.76 -0.584,1.482 -0.584,1.604 0,0.122 -0.215,0.702 -0.479,1.289 -0.263,0.588 -0.608,1.514 -0.766,2.058 -0.157,0.544 -0.343,1.064 -0.412,1.155 -0.07,0.092 -0.26,0.579 -0.424,1.084 -0.321,0.987 -0.397,1.188 -0.89,2.333 -0.177,0.412 -0.443,1.171 -0.591,1.687 -0.349,1.22 -0.419,1.266 -2.545,1.659 -0.995,0.184 -2.934,0.568 -4.309,0.853 -1.375,0.285 -2.988,0.577 -3.584,0.649 -0.596,0.072 -2.094,0.36 -3.33,0.641 -1.237,0.281 -2.399,0.51 -2.584,0.508 -0.185,-0.002 -1.611,0.254 -3.169,0.569 -1.558,0.315 -3.471,0.689 -4.25,0.83 -1.616,0.292 -3.688,0.691 -8.333,1.604 -4.755,0.934 -6.744,1.317 -8.334,1.602 -0.779,0.14 -2.657,0.512 -4.174,0.826 -1.516,0.315 -2.978,0.573 -3.25,0.574 -0.656,0.003 -1.242,0.169 -1.242,0.351 0,0.084 12.219,0.147 28.736,0.147 h 28.736 l 0.293,-0.792 c 0.16,-0.435 0.347,-0.866 0.414,-0.958 0.067,-0.092 0.253,-0.616 0.412,-1.165 0.159,-0.549 0.35,-1.111 0.424,-1.25 0.29,-0.538 0.818,-1.888 0.818,-2.091 0,-0.118 0.262,-0.828 0.583,-1.577 0.321,-0.75 0.584,-1.462 0.584,-1.583 0,-0.121 0.227,-0.726 0.505,-1.346 0.278,-0.619 0.57,-1.395 0.649,-1.724 0.079,-0.328 0.37,-1.16 0.646,-1.847 0.454,-1.127 1.373,-3.616 1.816,-4.917 0.191,-0.558 0.825,-2.194 1.584,-4.083 0.277,-0.688 0.653,-1.738 0.836,-2.334 0.183,-0.596 0.389,-1.158 0.457,-1.25 0.068,-0.091 0.258,-0.579 0.421,-1.083 0.164,-0.504 0.508,-1.442 0.766,-2.083 0.433,-1.076 0.843,-2.196 1.678,-4.584 0.176,-0.504 0.533,-1.441 0.792,-2.083 0.259,-0.642 0.605,-1.579 0.769,-2.083 0.163,-0.505 0.354,-0.992 0.423,-1.084 0.069,-0.091 0.256,-0.615 0.415,-1.164 0.159,-0.549 0.35,-1.112 0.425,-1.25 0.273,-0.508 0.818,-1.883 0.817,-2.065 0,-0.103 0.31,-0.975 0.689,-1.937 1.152,-2.925 2.064,-5.374 2.761,-7.417 0.219,-0.642 0.468,-1.317 0.554,-1.5 0.232,-0.495 0.711,-1.774 1.747,-4.667 0.164,-0.458 0.509,-1.358 0.768,-2 0.258,-0.641 0.612,-1.579 0.787,-2.083 0.785,-2.266 1.126,-3.185 1.723,-4.637 0.351,-0.854 0.638,-1.654 0.638,-1.777 0,-0.123 0.263,-0.836 0.584,-1.586 0.321,-0.75 0.583,-1.462 0.583,-1.583 0,-0.12 0.216,-0.7 0.479,-1.287 0.264,-0.588 0.608,-1.514 0.766,-2.058 0.158,-0.544 0.343,-1.064 0.413,-1.155 0.069,-0.092 0.26,-0.579 0.423,-1.084 0.325,-0.999 0.407,-1.213 0.894,-2.333 0.179,-0.412 0.411,-1.067 0.514,-1.455 0.104,-0.388 0.411,-1.201 0.683,-1.807 0.272,-0.607 0.495,-1.202 0.495,-1.324 0,-0.121 0.262,-0.843 0.583,-1.604 0.321,-0.761 0.583,-1.467 0.583,-1.57 0,-0.103 0.3,-0.905 0.667,-1.783 0.367,-0.877 0.667,-1.737 0.667,-1.91 0,-0.172 0.061,-0.385 0.136,-0.472 0.075,-0.087 0.344,-0.721 0.598,-1.408 0.253,-0.688 0.687,-1.813 0.964,-2.5 0.277,-0.688 0.559,-1.475 0.628,-1.75 0.069,-0.275 0.361,-1.052 0.649,-1.726 0.289,-0.674 0.525,-1.314 0.525,-1.422 0,-0.108 0.262,-0.818 0.583,-1.579 0.321,-0.761 0.583,-1.476 0.583,-1.591 0,-0.114 0.263,-0.813 0.584,-1.553 0.321,-0.74 0.583,-1.459 0.583,-1.598 0,-0.138 0.262,-0.865 0.583,-1.615 0.321,-0.749 0.584,-1.461 0.584,-1.582 0,-0.121 0.222,-0.716 0.494,-1.322 0.272,-0.606 0.603,-1.457 0.735,-1.891 0.225,-0.739 0.588,-1.688 0.938,-2.455 0.084,-0.183 0.331,-0.858 0.55,-1.5 0.632,-1.851 0.961,-2.738 1.558,-4.195 0.307,-0.749 0.558,-1.518 0.558,-1.709 v -0.346 h -46.167 c -25.391,0 -46.166,0.061 -46.166,0.136"
       id="path1" />
  </g>
</svg>
