<svg id="svg" version="1.1" xmlns="http://www.w3.org/2000/svg"  width="400" height="400" viewBox="0, 0, 400,400"><g id="svgg"><path id="path0" d="M0.146 165.800 C 0.062 166.020,0.040 180.960,0.097 199.000 L 0.200 231.800 180.600 231.909 C 368.914 232.023,362.800 232.060,362.800 230.792 C 362.800 230.357,362.960 230.000,363.157 230.000 C 363.353 230.000,363.624 229.505,363.760 228.900 C 364.427 225.921,366.644 218.941,367.061 218.504 C 367.322 218.231,367.654 217.421,367.800 216.704 C 368.137 215.048,368.810 212.781,369.200 211.985 C 369.365 211.646,369.630 210.608,369.787 209.677 C 369.944 208.746,370.298 207.760,370.572 207.485 C 371.031 207.026,372.767 201.600,373.667 197.810 C 373.875 196.935,374.228 196.106,374.453 195.967 C 374.678 195.828,375.188 194.469,375.588 192.946 C 375.988 191.423,376.604 189.486,376.958 188.640 C 377.311 187.794,377.600 186.764,377.600 186.351 C 377.600 185.938,377.739 185.600,377.908 185.600 C 378.078 185.600,378.636 184.205,379.149 182.500 C 379.662 180.795,380.366 178.455,380.714 177.300 C 381.062 176.145,381.493 175.200,381.673 175.200 C 381.853 175.200,382.000 174.960,382.000 174.667 C 382.000 174.374,382.545 172.439,383.210 170.368 C 383.876 168.297,384.371 166.375,384.310 166.097 C 384.168 165.446,0.394 165.150,0.146 165.800 M26.185 177.700 C 26.025 180.835,25.767 183.490,25.610 183.600 C 25.453 183.710,25.021 187.850,24.650 192.800 C 24.278 197.750,23.889 202.464,23.786 203.276 C 23.412 206.215,25.114 205.542,27.211 201.921 C 27.975 200.602,28.915 199.354,29.300 199.147 C 29.685 198.941,30.000 198.594,30.000 198.376 C 30.000 197.867,32.478 194.200,34.013 192.437 C 34.666 191.688,35.200 190.863,35.200 190.604 C 35.200 190.345,35.735 189.608,36.389 188.967 C 37.043 188.325,37.583 187.670,37.589 187.512 C 37.604 187.122,39.983 183.670,41.100 182.418 C 41.595 181.863,42.276 180.827,42.613 180.117 C 42.950 179.407,43.461 178.685,43.748 178.513 C 44.036 178.341,44.928 177.165,45.731 175.900 C 46.533 174.635,47.360 173.600,47.568 173.600 C 47.776 173.600,48.060 173.240,48.200 172.800 C 48.444 172.033,48.805 172.000,57.027 172.000 L 65.600 172.000 65.600 173.791 C 65.600 174.775,65.342 179.500,65.027 184.291 C 63.657 205.106,63.678 205.224,67.701 199.134 C 68.524 197.887,69.344 196.807,69.522 196.734 C 69.701 196.660,70.517 195.582,71.337 194.337 C 72.157 193.093,73.092 191.974,73.414 191.850 C 73.736 191.726,74.000 191.413,74.000 191.154 C 74.000 190.895,74.630 189.914,75.400 188.974 C 76.170 188.034,76.800 187.180,76.800 187.075 C 76.800 186.970,77.340 186.307,78.000 185.600 C 78.660 184.893,79.200 184.104,79.200 183.846 C 79.200 183.587,79.827 182.784,80.594 182.061 C 81.361 181.338,82.288 180.115,82.654 179.343 C 83.020 178.572,83.743 177.663,84.260 177.324 C 84.777 176.985,85.201 176.504,85.203 176.254 C 85.204 176.004,85.938 174.945,86.834 173.900 L 88.462 172.000 97.631 172.000 C 105.598 172.000,106.800 172.080,106.800 172.613 C 106.800 172.949,106.524 173.331,106.186 173.461 C 105.848 173.590,105.007 174.530,104.317 175.548 C 103.627 176.567,102.553 177.866,101.931 178.436 C 101.309 179.005,100.800 179.654,100.800 179.876 C 100.800 180.099,100.215 180.893,99.501 181.641 C 98.786 182.388,97.632 183.828,96.935 184.840 C 96.239 185.852,95.025 187.382,94.237 188.240 C 93.449 189.098,92.803 189.953,92.802 190.140 C 92.801 190.327,91.990 191.302,91.000 192.306 C 90.010 193.310,89.198 194.327,89.196 194.566 C 89.193 194.805,88.563 195.610,87.796 196.356 C 87.028 197.102,86.398 197.912,86.397 198.156 C 86.395 198.400,85.810 199.230,85.097 200.000 C 83.138 202.115,80.800 205.092,80.800 205.471 C 80.800 205.656,80.451 206.026,80.023 206.293 C 79.596 206.559,78.769 207.593,78.185 208.589 C 77.602 209.585,76.979 210.400,76.801 210.400 C 76.623 210.400,75.821 211.390,75.018 212.600 C 74.214 213.810,73.391 214.800,73.189 214.800 C 72.986 214.800,72.558 215.308,72.236 215.930 C 71.915 216.551,71.065 217.676,70.346 218.430 C 69.628 219.183,68.437 220.665,67.699 221.721 C 65.092 225.455,65.978 225.200,55.600 225.200 L 46.400 225.200 46.395 223.100 C 46.389 220.110,47.283 211.038,47.607 210.800 C 47.903 210.583,48.207 207.595,48.789 199.200 C 48.995 196.230,49.287 192.945,49.436 191.900 C 49.666 190.297,49.607 190.000,49.054 190.000 C 48.694 190.000,48.400 190.261,48.400 190.580 C 48.400 190.899,48.153 191.304,47.851 191.480 C 47.550 191.656,46.618 192.880,45.782 194.200 C 44.946 195.520,43.933 196.835,43.531 197.123 C 43.129 197.410,42.800 197.867,42.800 198.138 C 42.800 198.409,42.267 199.253,41.616 200.015 C 40.965 200.777,40.425 201.625,40.416 201.900 C 40.407 202.175,40.256 202.400,40.081 202.400 C 39.905 202.400,39.074 203.480,38.233 204.800 C 37.392 206.120,36.576 207.200,36.419 207.200 C 36.263 207.200,35.880 207.695,35.568 208.300 C 35.255 208.905,33.875 210.906,32.500 212.746 C 31.125 214.586,30.000 216.321,30.000 216.600 C 30.000 216.879,29.577 217.385,29.060 217.724 C 28.543 218.063,27.824 218.964,27.462 219.726 C 27.100 220.488,26.356 221.537,25.809 222.056 C 25.262 222.575,24.811 223.166,24.807 223.369 C 24.803 223.571,24.502 224.066,24.138 224.469 C 23.300 225.395,8.405 225.614,8.394 224.700 C 8.389 224.279,8.393 173.971,8.398 172.500 C 8.400 172.115,10.475 172.000,17.437 172.000 L 26.475 172.000 26.185 177.700 M130.950 173.100 C 131.068 173.705,131.283 175.955,131.429 178.100 C 131.576 180.245,131.824 182.000,131.982 182.000 C 132.140 182.000,132.491 184.925,132.761 188.500 C 133.032 192.075,133.508 197.700,133.819 201.000 C 134.130 204.300,134.579 209.970,134.816 213.600 C 135.054 217.230,135.402 220.487,135.589 220.838 C 135.981 221.573,136.265 224.668,135.968 224.965 C 135.492 225.442,120.700 225.285,120.400 224.800 C 120.234 224.531,119.972 221.946,119.819 219.055 C 119.666 216.165,119.444 213.395,119.327 212.900 L 119.113 212.000 109.701 212.000 L 100.290 212.000 98.554 213.900 C 97.599 214.945,96.814 216.000,96.809 216.244 C 96.804 216.488,96.215 217.330,95.500 218.114 C 94.785 218.898,93.784 220.229,93.276 221.070 C 92.768 221.912,91.832 223.178,91.196 223.884 L 90.040 225.168 82.920 225.201 C 79.004 225.219,75.653 225.226,75.473 225.217 C 75.002 225.193,76.793 222.766,78.094 221.664 C 78.703 221.150,79.200 220.488,79.200 220.193 C 79.200 219.899,79.617 219.330,80.127 218.929 C 80.637 218.528,81.748 217.210,82.596 216.000 C 83.444 214.790,84.349 213.620,84.608 213.400 C 84.867 213.180,85.691 212.121,86.439 211.047 C 87.188 209.973,88.475 208.353,89.300 207.447 C 90.125 206.541,90.800 205.582,90.800 205.314 C 90.800 205.047,91.133 204.650,91.541 204.432 C 91.948 204.214,92.974 202.947,93.821 201.618 C 94.669 200.288,95.503 199.200,95.676 199.200 C 95.849 199.200,96.423 198.525,96.952 197.700 C 97.481 196.875,98.250 195.840,98.661 195.400 C 99.817 194.161,102.000 191.313,102.000 191.043 C 102.000 190.910,102.720 190.059,103.600 189.152 C 104.480 188.245,105.200 187.257,105.200 186.955 C 105.200 186.654,105.560 186.182,106.000 185.907 C 106.439 185.633,107.451 184.461,108.248 183.304 C 109.045 182.147,109.861 181.200,110.062 181.200 C 110.262 181.200,110.555 180.850,110.713 180.423 C 110.872 179.995,112.351 177.932,114.000 175.838 L 117.000 172.032 123.868 172.016 L 130.736 172.000 130.950 173.100 M191.200 172.345 C 191.200 172.535,192.170 172.996,193.355 173.368 C 198.194 174.890,200.169 177.732,200.187 183.200 C 200.205 188.463,197.964 192.309,194.119 193.614 C 192.259 194.246,192.037 195.432,193.525 196.790 C 196.603 199.602,197.043 211.956,194.128 213.720 C 193.838 213.896,193.600 214.210,193.600 214.419 C 193.600 214.960,190.791 218.800,190.395 218.800 C 190.213 218.800,189.471 219.430,188.744 220.200 C 188.018 220.970,187.276 221.600,187.096 221.600 C 186.806 221.600,184.529 223.071,184.000 223.600 C 182.474 225.126,181.361 225.200,159.986 225.200 L 139.200 225.200 139.200 224.200 C 139.200 223.650,139.352 223.200,139.538 223.200 C 139.724 223.200,140.270 221.805,140.750 220.100 C 142.438 214.110,143.003 212.407,143.300 212.403 C 143.465 212.402,143.599 212.175,143.598 211.900 C 143.598 211.625,144.064 209.870,144.634 208.000 C 145.205 206.130,145.873 203.880,146.119 203.000 C 146.365 202.120,146.692 201.310,146.845 201.200 C 147.115 201.006,147.397 200.098,149.264 193.400 C 149.755 191.640,150.276 190.110,150.422 190.000 C 150.568 189.890,150.890 189.170,151.138 188.400 C 152.110 185.378,153.600 180.060,153.600 179.614 C 153.600 179.355,153.850 178.892,154.157 178.586 C 154.463 178.280,154.926 177.078,155.185 175.915 C 155.445 174.752,155.855 173.395,156.096 172.900 L 156.535 172.000 173.868 172.000 C 183.400 172.000,191.200 172.155,191.200 172.345 M246.148 172.900 C 246.281 173.395,246.393 174.700,246.398 175.800 C 246.403 176.900,246.664 179.780,246.978 182.200 C 247.293 184.620,247.849 189.840,248.215 193.800 C 248.580 197.760,249.015 201.090,249.181 201.200 C 249.346 201.310,249.703 203.740,249.972 206.600 C 250.628 213.552,251.583 222.294,251.863 223.900 L 252.089 225.200 243.887 225.200 C 234.565 225.200,235.200 225.465,235.200 221.567 C 235.200 220.265,235.027 219.200,234.816 219.200 C 234.604 219.200,234.379 217.625,234.316 215.700 L 234.200 212.200 224.551 212.093 L 214.901 211.986 214.186 213.093 C 213.792 213.702,213.095 214.584,212.635 215.054 C 212.176 215.523,211.170 216.917,210.400 218.150 C 209.630 219.384,208.876 220.395,208.725 220.397 C 208.573 220.399,207.787 221.473,206.977 222.784 L 205.506 225.168 197.514 225.284 C 188.350 225.417,188.656 225.527,191.032 222.957 C 192.027 221.881,193.122 220.415,193.466 219.700 C 193.810 218.985,194.296 218.400,194.546 218.399 C 194.796 218.399,195.583 217.544,196.295 216.499 C 197.007 215.454,197.952 214.373,198.395 214.096 C 198.838 213.820,199.200 213.355,199.200 213.063 C 199.200 212.772,199.920 211.753,200.800 210.800 C 201.680 209.847,202.400 209.008,202.400 208.937 C 202.400 208.685,205.045 205.381,206.512 203.800 C 207.328 202.920,207.997 201.979,207.998 201.709 C 207.999 201.439,208.445 200.927,208.990 200.570 C 209.534 200.213,210.523 199.039,211.186 197.961 C 211.850 196.882,212.544 196.000,212.729 196.000 C 212.914 196.000,213.649 195.099,214.362 193.998 C 215.076 192.897,216.006 191.811,216.430 191.584 C 216.853 191.357,217.200 190.979,217.200 190.743 C 217.200 190.278,219.037 187.860,221.098 185.615 C 221.812 184.837,222.397 183.988,222.398 183.729 C 222.399 183.470,222.913 182.840,223.539 182.329 C 224.165 181.818,225.254 180.545,225.958 179.500 C 226.662 178.455,227.404 177.600,227.606 177.600 C 227.809 177.600,228.205 177.160,228.487 176.621 C 228.769 176.083,229.720 174.830,230.600 173.838 L 232.200 172.033 239.053 172.016 C 245.829 172.000,245.909 172.010,246.148 172.900 M297.105 172.364 C 297.487 172.564,299.060 172.937,300.600 173.191 C 306.811 174.218,310.311 177.068,311.000 181.660 C 311.526 185.167,311.453 185.200,303.221 185.200 L 296.071 185.200 294.996 183.922 C 292.256 180.666,285.134 180.265,282.070 183.194 C 279.473 185.675,281.357 187.854,287.800 189.818 C 289.120 190.221,290.290 190.670,290.400 190.817 C 290.510 190.964,291.590 191.314,292.800 191.595 C 296.630 192.484,300.011 193.941,302.091 195.597 C 303.198 196.478,304.261 197.200,304.452 197.200 C 304.644 197.200,304.800 197.372,304.800 197.582 C 304.800 197.792,305.250 198.628,305.800 199.438 C 306.869 201.013,307.219 205.282,306.444 207.281 C 305.222 210.433,304.636 211.577,304.150 211.764 C 303.847 211.880,303.600 212.244,303.600 212.573 C 303.600 213.380,298.957 218.298,297.467 219.069 C 296.812 219.408,295.930 220.007,295.508 220.400 C 294.780 221.078,290.604 222.800,289.688 222.800 C 289.451 222.800,289.013 223.044,288.714 223.343 C 287.144 224.913,275.091 225.753,270.665 224.600 C 269.398 224.270,268.010 224.000,267.580 224.000 C 267.151 224.000,266.800 223.847,266.800 223.660 C 266.800 223.473,265.629 222.822,264.197 222.214 C 261.549 221.088,257.200 217.324,257.200 216.157 C 257.200 215.850,257.042 215.600,256.849 215.600 C 256.314 215.600,254.819 211.852,254.539 209.804 L 254.289 207.984 262.982 208.092 L 271.675 208.200 272.196 209.715 C 272.767 211.378,274.029 212.728,275.734 213.500 C 277.940 214.499,284.800 213.929,284.800 212.746 C 284.800 212.567,285.316 212.154,285.946 211.828 C 288.900 210.300,288.921 207.212,285.984 206.155 C 284.893 205.763,284.000 205.312,284.000 205.154 C 284.000 204.995,282.515 204.375,280.700 203.776 C 278.885 203.177,276.057 201.992,274.415 201.143 C 272.773 200.295,271.224 199.600,270.973 199.600 C 270.722 199.600,270.046 199.164,269.471 198.631 C 268.896 198.098,268.105 197.554,267.713 197.423 C 263.848 196.124,261.363 187.540,264.304 185.649 C 264.518 185.512,265.100 184.590,265.599 183.600 C 266.543 181.726,270.523 177.600,271.387 177.600 C 271.660 177.600,272.332 177.184,272.880 176.676 C 274.708 174.982,279.186 173.680,285.700 172.947 C 286.965 172.805,288.000 172.534,288.000 172.344 C 288.000 171.883,296.222 171.901,297.105 172.364 M340.526 172.600 C 340.485 172.820,340.179 173.810,339.846 174.800 C 339.512 175.790,338.826 177.994,338.320 179.698 C 337.814 181.402,337.265 182.797,337.100 182.798 C 336.935 182.799,336.797 183.115,336.794 183.500 C 336.791 183.885,336.503 185.010,336.154 186.000 C 335.348 188.286,334.400 191.864,334.400 192.620 C 334.400 193.108,335.710 193.199,342.700 193.195 C 352.417 193.188,352.663 193.147,353.022 191.459 C 353.169 190.767,353.809 188.622,354.445 186.694 C 355.080 184.766,355.600 182.831,355.600 182.394 C 355.600 181.957,355.765 181.600,355.967 181.600 C 356.168 181.600,356.722 180.295,357.196 178.700 C 359.355 171.446,358.454 172.000,368.094 172.000 L 376.064 172.000 375.804 173.300 C 375.335 175.645,374.343 178.400,373.968 178.400 C 373.766 178.400,373.600 178.661,373.600 178.979 C 373.600 179.298,373.149 181.053,372.597 182.879 C 371.078 187.907,370.711 188.982,370.434 189.200 C 370.230 189.361,368.121 196.216,367.326 199.300 C 367.227 199.685,366.998 200.000,366.817 200.000 C 366.637 200.000,366.177 201.215,365.796 202.700 C 365.414 204.185,364.764 206.352,364.351 207.515 C 363.938 208.678,363.600 209.983,363.600 210.415 C 363.600 210.847,363.435 211.200,363.233 211.200 C 362.891 211.200,362.152 213.353,360.591 218.900 C 360.235 220.165,359.792 221.200,359.607 221.200 C 359.422 221.200,359.156 221.879,359.016 222.708 C 358.586 225.250,358.887 225.165,350.051 225.216 C 340.879 225.269,341.349 225.375,342.158 223.438 C 342.491 222.641,343.151 220.552,343.626 218.795 C 344.100 217.038,344.640 215.600,344.826 215.600 C 345.012 215.600,345.285 214.925,345.434 214.100 C 345.583 213.275,346.316 210.717,347.063 208.416 C 348.894 202.777,349.480 203.200,339.831 203.200 C 328.981 203.200,329.969 202.405,327.162 213.390 C 326.938 214.265,326.619 215.075,326.453 215.190 C 326.286 215.306,325.829 216.480,325.436 217.800 C 325.043 219.120,324.355 221.325,323.907 222.700 L 323.092 225.200 314.896 225.200 L 306.700 225.200 306.940 224.002 C 307.071 223.344,307.536 222.066,307.972 221.163 C 308.408 220.261,309.426 217.155,310.235 214.261 C 311.043 211.367,311.849 208.907,312.026 208.792 C 312.315 208.606,313.599 204.290,314.909 199.100 C 315.173 198.055,315.513 197.200,315.664 197.200 C 315.973 197.200,316.270 196.296,317.832 190.600 C 318.436 188.400,319.046 186.510,319.189 186.400 C 319.332 186.290,319.848 184.850,320.337 183.200 C 322.377 176.307,322.611 175.600,322.852 175.600 C 322.991 175.600,323.310 174.786,323.560 173.792 L 324.016 171.984 332.308 172.092 C 337.561 172.160,340.573 172.347,340.526 172.600 M171.302 182.295 C 169.408 182.427,169.179 182.546,168.941 183.521 C 168.796 184.114,168.547 184.690,168.389 184.800 C 167.964 185.095,166.377 191.639,166.630 192.049 C 166.902 192.489,174.437 192.476,178.291 192.030 C 183.484 191.428,186.539 187.377,184.754 183.460 C 184.102 182.028,180.086 181.680,171.302 182.295 M115.276 191.600 C 114.593 192.700,113.846 193.600,113.617 193.600 C 113.387 193.600,113.200 193.799,113.200 194.042 C 113.200 194.286,112.660 195.167,112.000 196.000 C 111.340 196.833,110.800 197.708,110.800 197.943 C 110.800 198.179,110.472 198.547,110.071 198.762 C 109.119 199.271,107.200 202.052,107.200 202.922 C 107.200 203.640,118.107 204.004,118.535 203.300 C 118.636 203.135,118.525 199.985,118.290 196.300 C 117.800 188.614,117.461 188.085,115.276 191.600 M230.760 190.871 C 230.232 191.571,229.395 192.631,228.900 193.229 C 228.405 193.827,227.995 194.470,227.989 194.658 C 227.983 194.846,227.443 195.525,226.789 196.167 C 226.135 196.808,225.600 197.541,225.600 197.795 C 225.600 198.049,224.790 199.102,223.800 200.135 C 220.729 203.340,221.012 203.600,227.576 203.600 C 230.643 203.600,233.242 203.456,233.350 203.281 C 233.765 202.609,232.657 189.600,232.185 189.600 C 231.929 189.600,231.288 190.172,230.760 190.871 M163.004 202.252 C 162.654 203.090,162.165 204.592,161.919 205.588 C 161.672 206.585,161.365 207.490,161.235 207.600 C 160.731 208.029,159.118 213.544,159.375 213.959 C 159.753 214.571,173.317 214.494,175.260 213.869 C 176.752 213.390,179.600 210.432,179.600 209.362 C 179.600 209.053,179.744 208.800,179.920 208.800 C 180.439 208.800,181.200 206.270,181.200 204.544 C 181.200 201.365,180.282 201.023,171.321 200.864 L 163.641 200.727 163.004 202.252 " stroke="none" fill="#241c23" fill-rule="evenodd"></path><path id="path1" d="M380.800 72.976 C 380.800 73.772,380.135 74.109,378.467 74.158 C 375.695 74.240,374.356 81.213,375.974 87.132 C 376.885 90.461,375.855 94.583,373.531 96.907 C 372.469 97.969,371.600 98.969,371.600 99.129 C 371.600 99.473,366.724 102.000,366.059 102.000 C 365.807 102.000,365.600 102.180,365.600 102.400 C 365.600 102.620,364.938 102.800,364.128 102.800 C 363.319 102.800,362.014 103.005,361.228 103.256 C 357.884 104.325,355.373 105.353,354.993 105.809 C 354.769 106.079,353.881 106.676,353.021 107.138 C 347.867 109.900,344.985 115.199,345.365 121.213 L 345.641 125.570 344.552 126.485 C 343.953 126.988,343.163 127.686,342.796 128.035 C 342.000 128.794,337.448 129.996,335.318 130.010 C 333.985 130.018,332.880 130.202,329.348 130.999 C 327.498 131.416,327.795 133.622,329.831 134.588 C 332.668 135.934,330.382 139.358,321.766 146.668 C 318.132 149.751,314.605 152.887,313.986 153.585 C 313.336 154.317,308.636 155.200,305.391 155.200 C 302.454 155.200,302.451 153.484,305.383 149.038 C 308.524 144.277,307.772 137.953,303.523 133.400 C 302.908 132.740,302.403 132.065,302.402 131.900 C 302.392 130.333,298.037 132.555,297.986 134.154 C 297.945 135.410,296.033 137.004,295.366 136.337 C 294.763 135.734,294.792 135.569,295.757 134.150 C 298.542 130.051,296.735 121.194,292.685 119.092 C 286.570 115.919,282.800 117.574,282.800 123.432 C 282.800 126.421,282.681 127.160,282.167 127.357 C 281.098 127.768,280.795 127.638,280.400 126.600 C 279.567 124.408,276.861 127.070,276.744 130.196 C 276.501 136.691,276.713 139.860,277.546 142.163 C 278.016 143.462,278.400 144.932,278.400 145.429 C 278.400 145.927,278.616 146.405,278.879 146.493 C 280.960 147.187,278.657 155.857,276.091 156.995 C 275.601 157.212,275.200 157.527,275.200 157.695 C 275.200 157.863,274.750 158.000,274.200 158.000 C 273.650 158.000,273.200 157.823,273.200 157.608 C 273.200 157.392,272.745 157.101,272.189 156.962 C 270.910 156.640,270.400 155.688,270.400 153.616 C 270.400 152.716,270.031 150.950,269.579 149.690 C 268.575 146.888,268.517 141.457,269.402 133.051 C 269.726 129.975,269.911 127.377,269.813 127.279 C 269.471 126.938,268.380 127.587,268.112 128.291 C 267.694 129.386,265.812 131.243,266.176 130.200 C 266.330 129.760,266.543 128.860,266.649 128.200 C 266.951 126.322,267.700 124.000,268.003 124.000 C 268.155 124.000,268.603 123.280,269.000 122.400 C 269.653 120.952,269.862 120.800,271.199 120.800 C 272.137 120.800,272.925 120.525,273.358 120.047 C 273.732 119.633,274.840 118.988,275.820 118.614 C 276.799 118.240,277.600 117.777,277.600 117.586 C 277.600 116.951,282.703 115.656,286.500 115.328 C 290.717 114.963,289.494 111.987,284.818 111.234 C 282.813 110.911,282.062 110.589,281.413 109.775 C 280.510 108.643,278.192 108.665,277.040 109.817 C 276.753 110.104,275.097 111.016,273.360 111.845 C 271.622 112.674,270.071 113.543,269.914 113.776 C 269.438 114.481,264.247 114.304,263.500 113.557 C 263.147 113.204,261.749 112.697,260.393 112.430 C 257.674 111.896,257.567 111.599,259.027 108.639 C 259.789 107.093,259.750 106.397,258.900 106.414 C 257.915 106.435,256.219 107.957,255.418 109.538 C 254.401 111.546,250.411 115.476,248.642 116.211 C 247.785 116.568,246.827 117.116,246.513 117.430 C 246.199 117.743,245.610 118.000,245.204 118.000 C 244.798 118.000,244.218 118.095,243.915 118.211 C 243.369 118.421,242.421 117.670,241.469 116.275 C 241.005 115.595,240.803 115.650,238.193 117.175 C 235.486 118.757,233.882 119.180,233.420 118.432 C 233.134 117.970,234.272 116.800,235.008 116.800 C 235.563 116.800,237.589 114.437,237.613 113.762 C 237.620 113.563,238.250 112.779,239.013 112.019 C 239.776 111.260,240.400 110.465,240.400 110.253 C 240.400 110.041,241.862 108.444,243.650 106.704 C 245.437 104.964,246.742 103.404,246.550 103.238 C 246.357 103.073,242.600 103.051,238.200 103.190 C 230.700 103.427,226.400 103.111,226.400 102.324 C 226.400 101.567,223.487 100.667,222.383 101.084 C 221.550 101.398,220.565 101.353,218.532 100.908 C 214.726 100.075,214.039 99.754,213.602 98.605 C 213.392 98.052,213.072 97.600,212.890 97.600 C 212.709 97.600,212.333 96.970,212.054 96.200 C 211.276 94.048,210.000 94.249,210.000 96.524 C 210.000 99.156,209.450 99.612,205.781 100.019 C 201.676 100.474,188.312 101.527,182.400 101.861 C 179.781 102.008,177.677 102.310,177.515 102.560 C 177.110 103.184,115.690 103.184,115.285 102.560 C 115.118 102.302,112.848 102.010,109.800 101.853 C 97.146 101.201,75.200 99.265,75.200 98.800 C 75.200 98.640,73.535 98.402,71.500 98.272 C 69.465 98.142,66.540 97.852,65.000 97.629 C 63.460 97.405,60.580 97.034,58.600 96.804 C 51.017 95.922,48.185 95.493,47.774 95.165 C 47.539 94.978,45.696 94.637,43.677 94.409 C 41.658 94.180,39.098 93.798,37.987 93.560 C 34.856 92.888,33.729 94.293,35.439 96.735 C 37.037 99.016,34.471 110.800,32.378 110.800 C 31.308 110.800,31.067 110.125,31.777 109.112 C 34.041 105.879,32.106 101.651,27.987 100.832 C 24.212 100.081,24.074 100.030,22.913 98.954 C 21.601 97.739,20.577 97.856,20.663 99.211 C 20.835 101.906,21.349 104.800,21.656 104.800 C 21.845 104.800,22.000 107.500,22.000 110.800 C 22.000 114.533,21.849 116.800,21.600 116.800 C 21.380 116.800,21.200 117.406,21.200 118.148 C 21.200 121.091,18.635 133.600,18.031 133.600 C 17.877 133.600,17.521 134.500,17.239 135.599 C 16.957 136.699,16.563 137.699,16.363 137.823 C 16.163 137.946,16.000 138.336,16.000 138.689 C 16.000 139.570,14.721 142.400,14.323 142.400 C 14.145 142.400,14.000 142.645,14.000 142.944 C 14.000 143.243,13.588 144.098,13.085 144.844 C 12.582 145.590,11.918 146.830,11.608 147.600 C 11.299 148.370,10.855 149.128,10.623 149.286 C 10.015 149.696,10.095 157.055,10.713 157.673 C 10.981 157.941,11.200 158.412,11.200 158.720 C 11.200 159.027,11.491 159.891,11.846 160.640 L 12.491 162.000 19.846 162.000 C 24.482 162.000,27.200 161.852,27.200 161.600 C 27.200 161.361,28.733 161.200,31.000 161.200 C 33.267 161.200,34.800 161.361,34.800 161.600 C 34.800 161.859,39.867 162.000,49.200 162.000 C 58.533 162.000,63.600 161.859,63.600 161.600 C 63.600 160.988,361.372 161.051,362.352 161.663 C 363.299 162.255,364.414 161.831,364.691 160.775 C 364.841 160.200,365.099 160.039,365.553 160.235 C 365.909 160.389,366.956 160.721,367.881 160.972 C 368.805 161.223,369.679 161.546,369.823 161.690 C 370.536 162.403,371.796 160.267,372.067 157.884 C 372.222 156.518,372.471 154.485,372.619 153.366 C 372.918 151.114,372.260 149.324,370.543 147.719 C 369.300 146.558,369.354 145.900,370.800 144.535 C 371.460 143.912,372.000 143.232,372.000 143.023 C 372.000 142.481,374.063 140.400,374.600 140.400 C 374.847 140.400,375.448 139.860,375.936 139.201 C 376.423 138.542,377.717 137.549,378.811 136.994 C 379.905 136.440,380.800 135.810,380.800 135.593 C 380.800 135.377,381.125 135.200,381.522 135.200 C 382.425 135.200,384.800 132.796,384.800 131.881 C 384.800 131.506,384.935 131.185,385.100 131.167 C 385.265 131.148,385.840 131.086,386.377 131.028 C 386.914 130.970,387.611 130.535,387.926 130.061 C 388.240 129.588,388.898 129.200,389.388 129.200 C 389.877 129.200,390.710 128.821,391.239 128.358 C 391.767 127.894,392.605 127.359,393.100 127.168 C 394.728 126.538,393.876 123.322,392.174 123.672 C 391.574 123.795,391.423 124.120,391.502 125.116 C 391.620 126.619,390.906 126.822,389.800 125.600 C 389.402 125.160,388.603 124.800,388.024 124.800 C 386.764 124.800,385.600 123.101,385.600 121.262 C 385.600 120.594,385.420 119.936,385.200 119.800 C 384.980 119.664,384.800 118.033,384.800 116.176 C 384.800 114.192,384.965 112.800,385.200 112.800 C 385.420 112.800,385.600 111.925,385.600 110.855 C 385.600 108.840,386.505 107.208,388.968 104.785 C 389.536 104.227,390.000 103.464,390.000 103.091 C 390.000 100.640,390.963 98.800,392.245 98.800 C 393.989 98.800,396.599 96.585,398.500 93.494 C 400.094 90.902,400.536 88.400,399.400 88.400 C 399.070 88.400,398.800 88.261,398.800 88.091 C 398.800 87.921,398.125 87.430,397.300 86.999 C 396.475 86.569,395.404 85.808,394.919 85.308 C 394.435 84.809,393.715 84.399,393.319 84.397 C 392.588 84.395,391.822 83.312,390.137 79.900 C 389.620 78.855,389.053 78.000,388.876 78.000 C 388.699 78.000,388.241 77.290,387.858 76.421 C 386.583 73.533,385.169 72.400,382.840 72.400 C 381.330 72.400,380.800 72.550,380.800 72.976 M67.018 235.502 C 40.137 235.564,22.890 235.750,22.659 235.981 C 22.141 236.499,23.128 240.995,23.975 241.971 C 24.601 242.693,27.915 244.376,29.898 244.979 C 30.391 245.129,31.021 245.477,31.298 245.752 C 31.854 246.306,36.272 248.400,36.885 248.400 C 37.098 248.400,38.136 249.255,39.191 250.300 C 41.183 252.272,42.037 252.962,44.400 254.510 C 45.462 255.206,45.970 255.955,46.503 257.614 C 46.890 258.816,47.475 260.367,47.803 261.060 C 48.132 261.754,48.400 262.622,48.400 262.989 C 48.400 264.658,49.148 264.800,57.949 264.800 C 65.873 264.800,66.386 264.845,66.909 265.592 C 67.215 266.028,68.170 266.678,69.032 267.037 C 69.894 267.396,70.702 267.852,70.827 268.050 C 70.952 268.248,72.662 269.063,74.627 269.861 C 76.592 270.659,78.303 271.471,78.429 271.665 C 78.675 272.044,81.822 273.310,84.900 274.268 C 85.945 274.594,86.800 275.010,86.800 275.193 C 86.800 275.376,87.745 275.807,88.900 276.151 C 95.501 278.116,96.552 278.400,97.242 278.400 C 97.659 278.400,98.000 278.544,98.000 278.720 C 98.000 279.681,108.818 280.963,114.101 280.629 C 119.980 280.257,120.800 279.938,120.800 278.025 C 120.800 275.872,121.678 275.600,128.633 275.600 C 135.142 275.600,135.211 275.623,138.390 278.819 C 140.073 280.510,141.445 281.683,145.328 284.750 C 147.152 286.191,148.962 288.597,149.333 290.075 C 149.480 290.663,149.849 291.392,150.152 291.695 C 150.456 291.999,150.831 293.001,150.987 293.922 C 151.416 296.460,156.560 300.383,159.476 300.396 C 159.958 300.398,160.464 300.580,160.600 300.800 C 161.211 301.789,164.800 299.512,164.800 298.136 C 164.800 297.841,164.960 297.600,165.155 297.600 C 165.351 297.600,165.627 297.015,165.770 296.300 C 166.513 292.565,174.247 290.537,176.379 293.518 C 176.501 293.688,177.545 294.511,178.700 295.347 C 179.855 296.184,180.800 296.998,180.800 297.156 C 180.800 297.314,181.385 298.092,182.100 298.884 C 183.494 300.430,184.265 301.614,185.627 304.300 C 186.100 305.235,186.645 306.000,186.836 306.000 C 187.027 306.000,187.538 306.693,187.970 307.541 C 188.402 308.389,189.891 310.257,191.278 311.693 C 194.524 315.053,196.000 317.267,196.000 318.774 C 196.000 322.212,198.993 324.330,206.300 326.062 C 207.235 326.283,208.000 326.630,208.000 326.832 C 208.000 327.035,209.350 327.200,211.000 327.200 C 213.589 327.200,214.000 327.104,214.003 326.500 C 214.005 326.115,213.795 323.640,213.537 321.000 C 212.823 313.695,213.903 309.423,217.470 305.443 C 219.232 303.478,220.034 302.916,223.884 300.950 C 225.199 300.278,226.942 298.801,228.612 296.943 C 230.066 295.324,231.470 294.000,231.732 294.000 C 231.994 294.000,232.406 293.682,232.649 293.294 C 232.891 292.905,234.060 292.064,235.245 291.425 C 236.430 290.786,237.490 290.159,237.600 290.031 C 239.007 288.403,245.719 286.800,251.131 286.800 C 255.553 286.800,255.966 286.736,256.194 286.020 C 256.718 284.368,259.511 284.691,261.517 286.636 C 264.142 289.181,267.588 289.763,269.765 288.030 L 271.331 286.783 272.191 287.592 C 273.436 288.761,274.555 288.674,274.244 287.432 C 273.753 285.478,274.994 284.445,276.077 285.904 C 277.873 288.322,281.188 289.651,281.753 288.178 C 282.042 287.424,280.675 285.482,279.358 284.778 C 278.384 284.256,278.074 283.049,278.800 282.600 C 279.020 282.464,279.200 281.917,279.200 281.384 C 279.200 280.381,277.714 279.635,276.819 280.188 C 276.191 280.577,274.800 280.032,274.800 279.398 C 274.800 277.404,279.380 274.539,283.347 274.052 C 285.078 273.840,286.689 273.471,286.927 273.233 C 287.489 272.671,289.714 272.674,290.277 273.237 C 290.721 273.681,295.524 272.243,296.028 271.515 C 297.036 270.059,304.959 270.082,305.992 271.545 C 306.230 271.882,310.277 273.459,312.486 274.076 C 314.049 274.512,317.200 272.732,317.200 271.412 C 317.200 268.872,323.046 268.991,326.375 271.599 C 327.159 272.213,328.507 272.960,329.370 273.258 C 331.194 273.887,335.200 277.698,335.200 278.802 C 335.200 279.215,335.368 279.656,335.573 279.783 C 335.778 279.910,336.172 281.046,336.448 282.307 C 336.724 283.568,337.058 284.690,337.190 284.800 C 337.322 284.910,337.632 286.213,337.878 287.695 C 338.261 289.996,338.522 290.551,339.663 291.495 C 340.398 292.103,341.630 293.295,342.400 294.145 C 343.170 294.994,344.210 295.847,344.710 296.039 C 345.211 296.231,345.739 296.706,345.883 297.094 C 346.340 298.321,347.729 300.000,348.288 300.000 C 348.583 300.000,348.926 300.262,349.048 300.582 C 349.288 301.206,351.758 302.800,352.486 302.800 C 353.220 302.800,357.022 305.920,357.597 306.994 C 359.337 310.245,364.800 304.711,364.800 299.696 C 364.800 297.016,363.797 293.001,362.767 291.554 C 362.345 290.961,362.000 290.222,362.000 289.912 C 362.000 289.601,361.013 287.919,359.808 286.173 C 358.602 284.428,357.612 282.818,357.608 282.596 C 357.603 282.374,357.173 281.731,356.650 281.168 C 356.128 280.604,355.205 279.346,354.599 278.372 C 353.993 277.397,353.011 276.113,352.416 275.518 C 351.820 274.923,350.808 273.674,350.167 272.742 C 349.525 271.811,348.610 270.656,348.132 270.175 C 347.655 269.694,346.797 268.378,346.226 267.251 C 345.654 266.123,345.037 265.200,344.855 265.200 C 344.387 265.200,341.600 257.544,341.600 256.260 C 341.600 255.677,341.420 255.200,341.200 255.200 C 340.708 255.200,340.656 249.322,341.147 249.133 C 341.338 249.060,341.975 246.930,342.563 244.400 C 343.728 239.388,344.233 238.074,345.300 237.277 C 345.685 236.990,346.000 236.450,346.000 236.077 C 346.000 235.394,223.068 235.141,67.018 235.502 M200.200 239.961 C 207.368 242.468,204.449 255.775,196.109 258.614 C 191.927 260.037,185.867 259.087,185.023 256.875 C 184.525 255.571,183.807 254.400,183.505 254.400 C 183.048 254.400,183.137 250.486,183.600 250.200 C 183.820 250.064,184.000 249.528,184.000 249.010 C 184.000 242.732,193.288 237.545,200.200 239.961 M126.864 240.800 C 127.862 244.363,128.164 245.200,128.450 245.200 C 128.627 245.200,128.891 246.097,129.037 247.193 C 129.541 250.995,130.918 251.444,131.332 247.942 C 131.468 246.797,131.755 245.752,131.970 245.619 C 132.184 245.486,132.688 244.122,133.089 242.589 L 133.817 239.800 135.782 239.675 C 139.018 239.469,139.657 239.763,138.969 241.142 C 138.656 241.770,137.859 244.407,137.200 247.001 C 136.540 249.595,135.847 251.916,135.659 252.159 C 135.471 252.401,135.008 253.857,134.631 255.392 C 133.747 258.990,133.544 259.200,130.951 259.200 C 128.551 259.200,127.200 258.299,127.200 256.700 C 127.200 256.205,126.840 254.853,126.400 253.696 C 125.960 252.538,125.600 251.158,125.600 250.628 C 125.600 247.475,123.832 247.527,123.194 250.700 C 122.490 254.201,121.128 258.565,120.638 258.894 C 120.054 259.286,115.600 259.284,115.600 258.892 C 115.600 258.723,115.960 257.285,116.400 255.697 C 116.840 254.109,117.200 252.463,117.200 252.038 C 117.200 251.614,117.390 251.203,117.621 251.126 C 117.853 251.049,118.222 250.269,118.441 249.393 C 118.660 248.517,119.085 246.810,119.385 245.600 C 120.950 239.294,120.743 239.547,124.192 239.697 C 126.362 239.790,126.610 239.893,126.864 240.800 M154.579 240.500 C 154.920 242.083,155.649 258.398,155.396 258.807 C 155.262 259.023,154.007 259.200,152.607 259.200 L 150.062 259.200 149.600 257.800 L 149.138 256.400 146.369 256.400 C 144.846 256.400,143.600 256.573,143.600 256.784 C 143.600 258.052,141.369 259.200,138.904 259.200 C 136.372 259.200,135.907 258.907,137.000 258.000 C 137.330 257.726,137.600 257.247,137.600 256.935 C 137.600 256.462,138.891 254.309,139.600 253.600 C 139.919 253.281,140.715 251.946,141.784 249.937 C 142.329 248.913,142.925 248.013,143.108 247.937 C 143.291 247.862,144.126 246.565,144.965 245.056 C 145.803 243.546,146.784 241.984,147.144 241.584 C 147.505 241.184,148.032 240.574,148.316 240.229 C 149.223 239.123,154.329 239.344,154.579 240.500 M175.200 240.413 C 175.200 242.955,174.202 243.953,171.533 244.080 C 169.376 244.183,168.986 244.316,168.858 245.000 C 168.775 245.440,168.566 245.890,168.394 246.000 C 168.086 246.196,166.249 252.897,165.556 256.355 C 165.081 258.719,164.329 259.216,161.400 259.097 C 159.493 259.020,159.032 258.877,159.157 258.400 C 159.243 258.070,159.442 257.080,159.599 256.200 C 159.983 254.049,161.335 249.049,161.600 248.800 C 161.833 248.581,162.800 245.030,162.800 244.394 C 162.800 244.177,161.765 243.997,160.500 243.994 C 158.200 243.988,156.744 243.529,157.513 243.054 C 157.732 242.918,158.036 242.312,158.188 241.706 C 158.715 239.605,158.736 239.600,167.249 239.600 C 174.975 239.600,175.200 239.623,175.200 240.413 M183.760 241.100 C 183.609 241.925,183.341 242.694,183.165 242.810 C 182.989 242.925,182.673 243.735,182.462 244.610 C 181.211 249.815,179.905 254.218,179.578 254.333 C 179.370 254.407,179.200 254.907,179.200 255.446 C 179.200 258.222,178.239 259.200,175.520 259.194 C 173.059 259.188,171.521 258.743,172.299 258.263 C 172.703 258.013,173.349 255.998,174.819 250.400 C 175.310 248.530,175.940 246.460,176.220 245.800 C 176.499 245.140,176.943 243.790,177.205 242.800 C 178.039 239.652,178.104 239.600,181.232 239.600 L 184.036 239.600 183.760 241.100 M215.102 240.100 C 215.322 240.375,215.631 241.050,215.788 241.600 C 215.945 242.150,216.423 243.344,216.850 244.254 C 217.277 245.164,217.736 246.834,217.870 247.966 C 218.005 249.097,218.282 250.127,218.488 250.254 C 219.051 250.602,220.399 248.961,220.408 247.917 C 220.413 247.413,220.925 245.380,221.546 243.400 L 222.676 239.800 225.386 239.681 L 228.096 239.561 227.811 241.080 C 227.655 241.915,227.383 242.689,227.207 242.799 C 227.032 242.910,226.700 243.720,226.470 244.600 C 225.646 247.749,224.438 252.621,224.189 253.796 C 224.050 254.454,223.816 255.084,223.668 255.196 C 223.521 255.308,223.130 256.210,222.800 257.200 L 222.200 259.000 219.850 259.121 C 217.285 259.254,216.367 258.714,215.874 256.784 C 214.552 251.609,213.635 248.613,213.347 248.522 C 212.562 248.275,211.927 249.187,211.730 250.842 C 211.616 251.809,211.191 253.590,210.787 254.800 C 210.383 256.010,209.995 257.450,209.926 258.000 C 209.796 259.035,205.225 259.785,204.355 258.915 C 204.052 258.612,204.725 256.058,205.597 254.200 C 205.804 253.760,206.256 252.230,206.602 250.800 C 206.948 249.370,207.385 247.750,207.573 247.200 C 207.761 246.650,208.142 245.165,208.421 243.900 C 208.700 242.635,209.079 241.600,209.264 241.600 C 209.449 241.600,209.600 241.366,209.600 241.080 C 209.600 239.684,214.125 238.878,215.102 240.100 M242.595 240.100 C 242.871 240.911,243.947 258.562,243.741 258.895 C 243.500 259.285,239.143 259.284,238.562 258.894 C 238.320 258.732,238.002 258.105,237.854 257.500 C 237.403 255.656,232.988 255.847,230.918 257.800 C 229.452 259.182,224.800 259.972,224.800 258.838 C 224.800 258.316,226.449 255.302,227.179 254.490 C 228.213 253.340,230.400 249.586,230.400 248.961 C 230.400 248.639,230.676 248.269,231.014 248.139 C 231.352 248.010,231.953 247.250,232.351 246.452 C 235.311 240.514,236.289 239.600,239.686 239.600 C 241.520 239.600,242.481 239.765,242.595 240.100 M258.000 239.823 C 258.000 240.615,257.049 243.600,256.797 243.600 C 256.628 243.600,256.372 244.275,256.228 245.100 C 256.085 245.925,255.813 247.050,255.625 247.600 C 253.303 254.373,253.314 254.400,258.432 254.400 L 262.489 254.400 262.218 255.843 C 262.070 256.636,261.784 257.716,261.584 258.243 L 261.220 259.200 254.034 259.200 C 245.868 259.200,246.141 259.330,247.180 255.940 C 247.607 254.543,248.251 252.095,248.611 250.500 C 248.970 248.905,249.407 247.600,249.583 247.600 C 249.758 247.600,250.281 246.047,250.745 244.148 C 251.209 242.249,251.793 240.449,252.043 240.148 C 252.487 239.614,258.000 239.313,258.000 239.823 M191.720 245.500 C 191.104 246.325,190.356 247.191,190.058 247.425 C 189.124 248.158,189.217 253.526,190.176 254.230 C 191.634 255.300,195.658 254.659,196.170 253.275 C 196.307 252.904,196.850 251.880,197.377 251.000 C 198.597 248.963,198.777 245.374,197.700 244.557 C 196.117 243.355,192.949 243.854,191.720 245.500 M236.467 247.100 C 236.268 247.485,235.888 248.475,235.622 249.300 C 235.356 250.125,234.882 250.800,234.569 250.800 C 234.225 250.800,234.000 251.205,234.000 251.822 C 234.000 252.791,234.097 252.838,235.900 252.722 L 237.800 252.600 237.920 250.300 C 237.986 249.035,238.211 248.000,238.420 248.000 C 238.629 248.000,238.800 247.640,238.800 247.200 C 238.800 246.169,236.987 246.091,236.467 247.100 M147.816 248.481 C 147.439 249.426,146.776 250.531,146.343 250.936 C 145.186 252.018,145.626 252.585,147.731 252.722 L 149.600 252.844 149.600 250.222 C 149.600 248.780,149.610 247.465,149.621 247.300 C 149.701 246.172,148.397 247.025,147.816 248.481 " stroke="none" fill="#a41c34" fill-rule="evenodd"></path></g></svg>