<svg id="svg" version="1.1" xmlns="http://www.w3.org/2000/svg"  width="400" height="400" viewBox="0, 0, 400,400"><g id="svgg"><path id="path0" d="M380.878 73.498 C 380.580 73.971,379.809 74.275,378.886 74.284 C 375.911 74.313,374.519 80.887,376.186 87.033 C 377.948 93.527,370.910 102.806,364.224 102.806 C 359.141 102.806,350.744 108.087,347.095 113.580 L 345.455 116.049 345.455 121.147 L 345.455 126.245 343.927 127.523 C 342.368 128.826,339.683 129.581,332.762 130.663 C 328.091 131.394,327.116 132.701,329.980 134.393 C 332.973 136.160,330.774 139.416,320.992 147.701 C 319.389 149.058,317.066 151.106,315.829 152.253 C 313.473 154.436,310.415 155.331,305.310 155.331 C 302.120 155.331,302.392 152.964,306.290 146.802 C 307.876 144.295,307.620 141.047,305.528 137.149 C 302.280 131.097,300.209 130.352,298.047 134.456 C 296.791 136.840,295.888 137.383,294.987 136.296 C 294.536 135.753,294.648 135.313,295.589 133.928 C 298.906 129.047,296.192 120.165,290.909 118.612 C 284.613 116.761,282.828 117.888,282.828 123.717 C 282.828 128.021,281.256 129.773,280.106 126.749 L 279.651 125.552 278.346 127.086 C 277.548 128.023,277.035 129.143,277.028 129.966 C 277.021 130.707,276.894 132.727,276.746 134.456 C 276.529 136.975,276.665 138.177,277.433 140.516 C 279.680 147.359,280.124 151.169,278.991 153.880 C 276.666 159.446,270.258 159.342,270.258 153.740 C 270.258 152.905,269.831 151.154,269.310 149.848 C 268.187 147.037,268.120 141.317,269.111 132.884 C 269.763 127.340,269.681 126.696,268.529 128.310 C 268.122 128.881,267.319 129.891,266.744 130.555 L 265.700 131.762 266.005 130.191 C 266.783 126.182,267.046 125.326,268.172 123.120 C 269.260 120.990,269.519 120.763,270.870 120.763 C 271.758 120.763,272.671 120.423,273.123 119.924 C 274.884 117.978,281.596 115.504,286.308 115.064 C 290.264 114.695,289.100 112.083,284.667 111.382 C 283.282 111.163,281.921 110.612,281.281 110.011 C 279.980 108.789,279.453 108.913,274.429 111.620 C 268.822 114.643,267.780 114.928,265.095 114.174 C 263.861 113.827,261.689 113.223,260.269 112.833 C 257.362 112.033,257.261 111.785,258.643 108.844 C 260.372 105.167,258.545 105.607,255.826 109.523 C 251.118 116.303,244.145 120.203,241.976 117.269 L 241.011 115.964 238.124 117.497 C 235.286 119.004,233.463 119.263,233.115 118.208 C 233.019 117.914,233.552 117.356,234.301 116.969 C 235.050 116.582,236.514 115.012,237.554 113.480 C 238.594 111.949,241.035 109.040,242.978 107.016 C 244.921 104.992,246.349 103.257,246.151 103.161 C 245.953 103.065,242.155 103.108,237.710 103.256 C 229.454 103.532,228.319 103.403,225.080 101.826 C 223.633 101.122,223.025 101.029,222.318 101.408 C 221.630 101.776,220.573 101.679,217.937 101.005 C 213.860 99.962,213.614 99.792,212.382 97.171 C 211.177 94.607,210.101 94.507,210.101 96.959 C 210.101 99.582,209.189 99.986,202.017 100.541 C 198.686 100.799,195.253 101.112,194.388 101.236 C 168.790 104.920,104.301 103.300,66.218 98.017 C 63.502 97.640,59.091 97.052,56.417 96.711 C 51.347 96.063,45.353 95.123,39.341 94.032 C 34.843 93.216,33.911 93.845,35.744 96.461 C 36.900 98.111,35.437 108.107,33.747 110.101 C 32.348 111.753,30.402 110.736,31.624 108.992 C 34.049 105.529,32.065 101.985,27.063 100.844 C 25.425 100.471,23.495 99.729,22.773 99.195 C 21.074 97.938,20.514 98.516,21.220 100.799 C 23.391 107.827,20.935 128.128,16.740 137.823 C 14.843 142.206,13.483 144.945,12.436 146.487 C 10.165 149.833,9.870 156.372,11.814 160.271 L 12.354 161.355 188.332 161.229 C 340.409 161.120,364.329 161.016,364.455 160.462 C 364.631 159.685,365.176 159.652,366.461 160.340 C 369.975 162.220,371.301 161.545,371.778 157.633 C 371.948 156.243,372.230 154.268,372.404 153.243 C 372.687 151.581,372.545 151.113,371.097 148.931 C 370.204 147.585,369.473 146.336,369.473 146.155 C 369.473 144.535,376.605 137.604,380.100 135.827 C 382.315 134.701,384.269 132.941,384.788 131.604 C 385.058 130.908,385.434 130.639,385.890 130.814 C 386.304 130.973,387.000 130.630,387.619 129.962 C 388.189 129.347,388.917 128.844,389.238 128.844 C 391.751 128.844,394.531 125.591,393.061 124.371 C 392.159 123.623,391.550 124.119,391.795 125.403 C 392.090 126.943,390.887 127.217,389.644 125.893 C 389.081 125.294,388.155 124.804,387.586 124.804 C 385.361 124.804,384.388 120.387,384.954 112.846 L 385.271 108.618 387.473 105.983 C 388.684 104.534,389.675 103.098,389.675 102.792 C 389.675 100.650,390.758 98.765,391.989 98.765 C 393.593 98.765,396.446 96.268,398.502 93.063 C 400.484 89.974,400.469 88.790,398.437 88.055 C 397.578 87.744,396.282 86.897,395.557 86.173 C 394.832 85.448,393.768 84.675,393.192 84.454 C 392.528 84.201,391.095 82.287,389.281 79.232 C 385.382 72.663,382.602 70.766,380.878 73.498 M0.163 165.881 C 0.069 166.128,0.044 180.976,0.108 198.878 L 0.224 231.425 180.920 231.531 C 280.303 231.589,361.826 231.488,362.083 231.307 C 362.339 231.125,363.944 226.734,365.650 221.549 C 367.355 216.364,368.894 211.818,369.069 211.448 C 369.243 211.077,370.914 206.128,372.782 200.449 C 374.649 194.770,378.019 184.702,380.269 178.077 C 382.520 171.451,384.276 165.945,384.173 165.841 C 383.738 165.406,0.329 165.446,0.163 165.881 M26.299 176.768 C 26.046 180.708,25.089 191.937,24.080 202.813 C 23.861 205.174,24.421 205.622,25.470 203.925 C 25.906 203.219,31.185 195.734,37.201 187.292 L 48.140 171.942 57.067 171.942 C 63.881 171.942,66.005 172.074,66.045 172.503 C 66.111 173.225,66.139 172.761,65.353 184.287 C 64.083 202.937,64.114 203.987,65.856 201.235 C 66.286 200.556,67.869 198.384,69.375 196.409 C 70.881 194.433,75.310 188.575,79.216 183.389 C 83.123 178.204,86.730 173.507,87.233 172.952 C 88.128 171.963,106.045 171.290,106.965 172.210 C 107.178 172.423,103.634 177.143,101.235 179.842 C 100.988 180.119,100.255 181.031,99.606 181.868 C 97.993 183.948,88.913 195.456,82.621 203.393 C 79.772 206.988,74.714 213.390,71.380 217.620 L 65.320 225.312 55.780 225.338 L 46.240 225.365 46.240 222.967 C 46.240 221.648,46.648 216.951,47.146 212.529 C 47.644 208.107,48.242 201.964,48.475 198.878 C 48.708 195.791,49.033 192.609,49.197 191.807 C 49.652 189.581,48.925 190.071,46.501 193.622 C 45.287 195.401,43.406 198.070,42.321 199.551 C 41.236 201.033,38.051 205.477,35.243 209.428 C 32.435 213.378,29.547 217.419,28.827 218.406 C 28.106 219.394,26.673 221.364,25.641 222.783 L 23.765 225.365 15.923 225.365 C 9.955 225.365,8.078 225.231,8.069 224.804 C 8.060 224.345,8.068 173.388,8.078 172.278 C 8.079 172.093,12.250 171.942,17.345 171.942 L 26.610 171.942 26.299 176.768 M131.274 172.952 C 131.386 173.507,131.903 178.507,132.424 184.063 C 132.945 189.618,133.763 198.204,134.241 203.143 C 134.719 208.081,135.326 214.646,135.589 217.733 C 135.853 220.819,136.109 223.749,136.160 224.242 C 136.269 225.317,120.937 225.923,120.286 224.869 C 120.110 224.585,119.829 222.004,119.662 219.134 C 119.494 216.265,119.256 213.563,119.132 213.131 C 118.927 212.415,118.076 212.346,109.548 212.346 L 100.189 212.346 98.467 214.540 C 97.520 215.747,95.337 218.668,93.616 221.030 L 90.487 225.325 83.066 225.457 C 74.011 225.618,74.197 225.758,77.748 221.464 C 79.343 219.536,83.614 214.169,87.238 209.540 C 90.862 204.910,96.802 197.334,100.438 192.705 C 104.074 188.075,107.999 183.075,109.160 181.594 C 110.321 180.112,112.500 177.334,114.002 175.421 L 116.734 171.942 123.903 171.942 C 130.978 171.942,131.074 171.955,131.274 172.952 M193.321 172.938 C 202.738 176.542,203.355 189.365,194.334 193.967 C 192.501 194.902,192.198 195.456,193.195 196.050 C 196.342 197.924,197.410 207.797,195.001 212.748 C 192.778 217.318,188.388 221.604,183.292 224.181 L 180.950 225.365 160.086 225.365 C 148.611 225.365,139.137 225.213,139.033 225.028 C 138.928 224.843,140.301 220.247,142.084 214.815 C 143.867 209.383,147.191 199.181,149.472 192.144 C 151.753 185.107,154.004 178.281,154.475 176.975 C 154.946 175.670,155.331 174.246,155.331 173.810 C 155.331 171.984,155.746 171.942,173.563 171.942 C 190.202 171.942,190.795 171.972,193.321 172.938 M246.206 172.952 C 246.321 173.507,246.511 175.376,246.629 177.104 C 246.746 178.833,247.150 182.570,247.525 185.410 C 247.900 188.249,248.324 191.785,248.467 193.266 C 248.735 196.036,249.919 205.958,251.436 218.146 C 251.910 221.954,252.238 225.128,252.167 225.200 C 251.687 225.679,235.524 225.373,235.218 224.879 C 235.028 224.570,234.741 221.978,234.582 219.117 C 234.423 216.257,234.251 213.614,234.200 213.244 C 234.121 212.673,232.647 212.552,224.588 212.449 L 215.069 212.328 210.313 218.734 L 205.557 225.140 197.616 225.365 C 188.176 225.632,188.324 225.700,191.084 222.337 C 192.284 220.874,193.738 219.088,194.315 218.368 C 194.892 217.648,198.528 213.139,202.396 208.347 C 206.263 203.555,211.448 197.088,213.917 193.975 C 216.386 190.862,221.407 184.631,225.075 180.128 L 231.744 171.942 238.871 171.942 C 245.902 171.942,246.001 171.955,246.206 172.952 M298.595 172.360 C 306.338 173.629,310.629 176.727,311.356 181.575 C 311.915 185.299,311.685 185.410,303.420 185.410 L 296.210 185.410 294.210 183.650 C 291.176 180.979,286.269 180.636,282.940 182.862 C 279.176 185.379,281.614 187.793,290.685 190.528 C 306.019 195.153,310.053 200.439,305.490 209.926 C 295.599 230.491,257.071 230.449,254.251 209.871 L 253.974 207.856 262.793 207.856 L 271.612 207.856 272.336 209.665 C 274.462 214.978,284.059 215.149,287.284 209.931 C 288.872 207.361,289.009 207.470,279.347 203.558 C 265.737 198.048,261.805 194.443,263.101 188.662 C 264.904 180.616,272.719 174.485,283.277 172.835 C 285.129 172.545,286.947 172.249,287.318 172.177 C 288.928 171.863,296.288 171.982,298.595 172.360 M340.882 172.615 C 340.801 173.049,340.112 175.109,338.478 179.798 C 336.283 186.098,335.238 189.392,334.597 192.031 L 334.351 193.042 342.821 193.035 C 347.479 193.031,351.507 192.879,351.771 192.698 C 352.202 192.402,354.596 185.940,355.551 182.492 C 356.274 179.881,358.802 173.057,359.251 172.503 C 359.585 172.091,361.905 171.942,367.992 171.942 L 376.278 171.942 375.989 173.401 C 375.830 174.203,375.316 175.870,374.847 177.104 C 373.785 179.897,366.480 201.516,365.670 204.265 C 365.104 206.187,364.509 207.945,362.705 213.019 C 362.266 214.254,361.161 217.536,360.249 220.314 L 358.591 225.365 350.564 225.432 C 346.149 225.469,342.284 225.520,341.975 225.544 C 341.149 225.610,341.401 224.306,343.180 219.304 C 344.059 216.835,344.958 214.108,345.180 213.244 C 345.401 212.379,346.202 209.973,346.959 207.895 C 348.708 203.097,349.264 203.443,339.716 203.388 C 329.719 203.331,330.701 202.635,327.722 211.897 C 326.412 215.971,324.843 220.668,324.234 222.334 L 323.128 225.365 314.875 225.365 C 308.573 225.365,306.621 225.232,306.620 224.804 C 306.618 224.495,307.110 222.828,307.713 221.100 C 308.795 217.996,309.739 215.076,316.064 195.286 C 317.839 189.731,320.193 182.458,321.294 179.125 C 322.396 175.791,323.378 172.807,323.479 172.493 C 323.709 171.771,341.016 171.892,340.882 172.615 M171.073 182.654 L 169.081 182.941 168.009 186.756 C 167.419 188.855,166.901 190.875,166.858 191.246 C 166.727 192.365,179.488 192.090,181.474 190.930 C 184.426 189.206,185.843 185.443,184.324 183.363 C 183.641 182.427,175.624 181.998,171.073 182.654 M116.274 190.306 C 116.274 190.718,109.697 199.670,108.141 201.376 C 106.466 203.212,106.935 203.403,112.795 203.269 L 118.294 203.143 118.241 201.796 C 117.932 193.895,117.483 189.899,116.903 189.899 C 116.557 189.899,116.274 190.082,116.274 190.306 M227.672 195.450 C 225.423 198.503,223.277 201.255,222.903 201.565 C 221.153 203.018,222.060 203.367,227.583 203.367 C 230.531 203.367,233.034 203.215,233.143 203.030 C 233.457 202.501,232.437 189.899,232.080 189.899 C 231.904 189.899,229.921 192.397,227.672 195.450 M163.414 202.016 C 162.585 203.565,159.457 213.431,159.676 213.805 C 159.968 214.303,172.818 214.214,174.604 213.701 C 178.966 212.450,182.630 204.605,179.976 202.202 C 178.399 200.775,164.164 200.615,163.414 202.016 M66.988 235.580 C 29.997 235.676,22.827 235.795,22.628 236.313 C 22.498 236.653,22.712 238.035,23.103 239.383 C 23.896 242.109,23.183 241.618,33.670 246.671 C 36.016 247.801,38.642 249.434,39.506 250.300 C 40.370 251.166,42.189 252.633,43.547 253.559 C 46.030 255.253,48.363 259.698,48.457 262.915 C 48.498 264.327,49.112 264.422,58.148 264.422 C 65.680 264.422,66.442 264.494,66.978 265.258 C 68.149 266.927,81.842 273.243,91.544 276.589 C 105.433 281.379,120.763 281.929,120.763 277.637 C 120.763 275.459,121.624 275.196,128.766 275.196 L 135.031 275.196 137.437 277.571 C 138.760 278.877,141.390 281.198,143.280 282.728 C 148.137 286.660,150.336 289.776,151.090 293.795 C 151.563 296.319,156.335 299.787,160.334 300.512 C 162.512 300.907,164.411 299.365,165.195 296.565 C 166.567 291.666,172.273 290.529,177.579 294.097 C 180.629 296.149,182.590 298.617,187.888 307.071 C 188.584 308.182,190.196 310.101,191.469 311.336 C 193.856 313.651,194.809 315.170,196.881 319.961 C 197.545 321.496,198.518 323.033,199.044 323.377 C 200.857 324.565,208.968 326.824,211.419 326.824 L 213.818 326.824 213.527 324.467 C 211.903 311.301,214.519 304.992,223.328 300.825 C 225.154 299.961,226.665 298.800,227.959 297.263 C 233.680 290.471,242.294 286.420,251.017 286.420 C 255.401 286.420,255.906 286.335,256.341 285.522 C 257.080 284.141,258.584 284.437,262.030 286.642 C 266.314 289.383,267.351 289.542,269.552 287.792 L 271.303 286.401 272.268 287.308 C 273.494 288.460,274.449 288.498,274.094 287.381 C 273.266 284.770,274.741 284.548,277.493 286.869 C 281.152 289.954,283.380 288.782,279.864 285.622 C 278.018 283.964,277.904 283.737,278.385 282.682 C 279.215 280.861,278.638 280.038,276.778 280.387 C 275.542 280.619,275.144 280.521,274.917 279.929 C 274.085 277.762,278.195 274.517,282.313 274.088 C 283.708 273.942,285.420 273.526,286.119 273.163 C 287.585 272.402,289.627 272.298,290.281 272.952 C 290.582 273.253,292.054 272.869,294.713 271.796 C 300.121 269.616,302.746 269.745,309.229 272.510 L 313.857 274.484 316.257 271.987 C 319.614 268.493,322.472 268.283,326.340 271.247 C 326.938 271.705,328.261 272.449,329.281 272.900 C 333.773 274.887,336.204 278.630,337.530 285.601 L 338.326 289.787 341.418 292.705 C 344.489 295.603,344.850 295.965,347.985 299.283 C 348.883 300.233,350.398 301.405,351.352 301.887 C 354.154 303.304,357.122 305.579,357.785 306.817 C 359.344 309.731,364.534 304.355,364.534 299.827 C 364.534 294.226,358.721 283.345,350.536 273.625 C 344.839 266.859,341.318 259.721,340.881 254.048 C 340.561 249.901,342.791 240.131,344.629 237.628 C 345.207 236.842,345.679 236.034,345.679 235.832 C 345.679 235.489,165.136 235.326,66.988 235.580 M199.948 239.558 C 207.330 242.073,205.470 254.411,197.098 258.470 C 189.811 262.002,183.348 258.766,183.432 251.627 C 183.536 242.799,191.780 236.775,199.948 239.558 M127.004 240.292 C 128.097 243.151,129.301 247.250,129.297 248.093 C 129.293 249.117,130.305 250.241,130.793 249.753 C 130.956 249.590,131.093 249.037,131.098 248.522 C 131.103 248.008,131.677 245.769,132.374 243.547 L 133.642 239.506 136.247 239.370 C 139.499 239.199,139.816 239.511,138.926 242.006 C 138.536 243.100,137.945 245.006,137.613 246.240 C 135.920 252.528,134.088 258.425,133.665 258.943 C 132.757 260.054,128.291 259.453,127.675 258.137 C 126.731 256.122,125.586 252.563,125.304 250.766 C 124.970 248.639,124.043 248.155,123.669 249.912 C 123.521 250.609,122.851 252.997,122.180 255.219 L 120.960 259.259 118.168 259.393 C 114.720 259.558,114.728 260.318,118.057 249.158 C 118.536 247.553,119.273 245.028,119.694 243.547 C 120.914 239.253,120.886 239.282,123.931 239.282 C 126.304 239.282,126.664 239.400,127.004 240.292 M154.639 240.292 C 155.042 242.122,155.851 258.556,155.562 259.025 C 154.806 260.247,150.053 259.544,149.562 258.137 C 149.113 256.847,148.982 256.790,146.460 256.790 C 144.056 256.790,143.741 256.907,142.832 258.137 C 141.904 259.392,141.638 259.484,138.932 259.484 C 136.111 259.484,135.053 258.792,136.504 257.895 C 136.766 257.733,137.174 257.166,137.410 256.634 C 137.647 256.103,138.392 254.814,139.066 253.771 C 139.740 252.728,141.086 250.607,142.056 249.057 C 148.547 238.693,147.956 239.298,151.619 239.289 C 154.157 239.282,154.437 239.375,154.639 240.292 M175.533 240.426 C 175.533 243.053,174.413 244.163,171.614 244.310 L 169.041 244.444 167.577 249.383 C 166.772 252.099,165.899 255.222,165.637 256.323 C 164.958 259.181,164.571 259.484,161.588 259.484 C 158.636 259.484,158.334 259.251,158.910 257.417 C 159.135 256.702,159.843 254.198,160.484 251.852 C 161.125 249.506,161.844 246.967,162.082 246.208 C 162.711 244.201,162.730 244.220,160.071 244.220 C 157.233 244.220,156.958 243.959,157.646 241.915 C 158.551 239.227,158.351 239.282,167.283 239.282 L 175.533 239.282 175.533 240.426 M183.873 240.825 C 183.714 241.673,183.220 243.542,182.774 244.977 C 182.329 246.413,181.403 249.506,180.717 251.852 C 178.347 259.950,178.833 259.240,175.562 259.395 C 172.086 259.559,171.698 259.247,172.552 256.969 C 172.914 256.006,173.756 253.300,174.424 250.954 C 177.932 238.647,177.563 239.282,181.211 239.282 L 184.163 239.282 183.873 240.825 M215.357 239.843 C 215.977 240.655,218.182 247.437,218.182 248.530 C 218.182 249.040,218.315 249.590,218.477 249.753 C 219.008 250.284,219.977 249.076,219.990 247.869 C 219.996 247.220,220.578 245.073,221.281 243.098 L 222.561 239.506 225.310 239.373 C 228.522 239.216,228.563 239.305,227.216 243.572 C 226.753 245.039,225.922 247.856,225.370 249.832 C 224.817 251.807,223.933 254.736,223.406 256.341 L 222.447 259.259 219.529 259.259 L 216.611 259.259 215.097 254.545 C 214.265 251.953,213.493 249.529,213.381 249.158 C 213.085 248.171,211.897 249.899,211.897 251.318 C 211.897 251.917,211.466 253.747,210.939 255.384 C 210.412 257.022,209.913 258.614,209.830 258.923 C 209.654 259.583,204.463 259.719,204.064 259.074 C 203.925 258.848,204.310 257.080,204.919 255.145 C 205.529 253.210,206.461 250.112,206.992 248.260 C 209.669 238.911,209.439 239.282,212.570 239.282 C 213.930 239.282,215.111 239.519,215.357 239.843 M242.645 239.843 C 243.072 241.092,244.143 258.836,243.811 259.171 C 242.873 260.117,238.205 259.295,237.935 258.137 C 237.493 256.240,232.608 256.226,230.924 258.116 C 229.829 259.345,229.440 259.484,227.086 259.484 C 223.736 259.484,223.742 259.319,227.273 253.765 C 228.816 251.338,230.318 248.955,230.611 248.469 C 236.232 239.155,236.109 239.282,239.543 239.282 C 241.469 239.282,242.517 239.471,242.645 239.843 M258.137 239.811 C 258.137 240.341,257.108 243.825,255.136 249.975 C 253.808 254.117,253.790 254.097,258.671 254.097 L 262.744 254.097 262.500 255.556 C 262.366 256.358,262.041 257.570,261.779 258.249 L 261.302 259.484 253.910 259.484 C 245.302 259.484,245.599 259.673,247.044 255.096 C 247.646 253.188,248.698 249.708,249.380 247.363 C 250.940 242.004,251.443 240.548,251.982 239.843 C 252.552 239.097,258.137 239.068,258.137 239.811 M191.552 246.041 C 187.581 250.682,189.629 256.286,194.488 254.072 C 197.022 252.917,199.069 246.747,197.531 244.894 C 196.328 243.444,193.275 244.029,191.552 246.041 M148.176 248.260 C 147.667 249.371,146.948 250.673,146.577 251.152 C 145.556 252.473,145.743 252.750,147.658 252.750 L 149.412 252.750 149.594 250.168 C 149.856 246.462,149.327 245.749,148.176 248.260 M236.054 248.709 C 235.541 249.944,234.947 250.954,234.733 250.954 C 234.519 250.954,234.343 251.358,234.343 251.852 C 234.343 252.893,237.376 253.199,237.687 252.189 C 239.073 247.697,237.695 244.761,236.054 248.709 " stroke="none" fill-rule="evenodd"></path></g></svg>