<svg id="svg" xmlns="http://www.w3.org/2000/svg"  width="400" height="400" viewBox="0, 0, 400,400"><g id="svgg"><path id="path0" d="M380.878 73.498 C 380.580 73.971,379.809 74.275,378.886 74.284 C 375.911 74.313,374.519 80.887,376.186 87.033 C 377.948 93.527,370.910 102.806,364.224 102.806 C 359.141 102.806,350.744 108.087,347.095 113.580 L 345.455 116.049 345.455 121.147 L 345.455 126.245 343.927 127.523 C 342.368 128.826,339.683 129.581,332.762 130.663 C 328.091 131.394,327.116 132.701,329.980 134.393 C 332.973 136.160,330.774 139.416,320.992 147.701 C 319.389 149.058,317.066 151.106,315.829 152.253 C 313.473 154.436,310.415 155.331,305.310 155.331 C 302.120 155.331,302.392 152.964,306.290 146.802 C 307.876 144.295,307.620 141.047,305.528 137.149 C 302.280 131.097,300.209 130.352,298.047 134.456 C 296.791 136.840,295.888 137.383,294.987 136.296 C 294.536 135.753,294.648 135.313,295.589 133.928 C 298.906 129.047,296.192 120.165,290.909 118.612 C 284.613 116.761,282.828 117.888,282.828 123.717 C 282.828 128.021,281.256 129.773,280.106 126.749 L 279.651 125.552 278.346 127.086 C 277.548 128.023,277.035 129.143,277.028 129.966 C 277.021 130.707,276.894 132.727,276.746 134.456 C 276.529 136.975,276.665 138.177,277.433 140.516 C 279.680 147.359,280.124 151.169,278.991 153.880 C 276.666 159.446,270.258 159.342,270.258 153.740 C 270.258 152.905,269.831 151.154,269.310 149.848 C 268.187 147.037,268.120 141.317,269.111 132.884 C 269.763 127.340,269.681 126.696,268.529 128.310 C 268.122 128.881,267.319 129.891,266.744 130.555 L 265.700 131.762 266.005 130.191 C 266.783 126.182,267.046 125.326,268.172 123.120 C 269.260 120.990,269.519 120.763,270.870 120.763 C 271.758 120.763,272.671 120.423,273.123 119.924 C 274.884 117.978,281.596 115.504,286.308 115.064 C 290.264 114.695,289.100 112.083,284.667 111.382 C 283.282 111.163,281.921 110.612,281.281 110.011 C 279.980 108.789,279.453 108.913,274.429 111.620 C 268.822 114.643,267.780 114.928,265.095 114.174 C 263.861 113.827,261.689 113.223,260.269 112.833 C 257.362 112.033,257.261 111.785,258.643 108.844 C 260.372 105.167,258.545 105.607,255.826 109.523 C 251.118 116.303,244.145 120.203,241.976 117.269 L 241.011 115.964 238.124 117.497 C 235.286 119.004,233.463 119.263,233.115 118.208 C 233.019 117.914,233.552 117.356,234.301 116.969 C 235.050 116.582,236.514 115.012,237.554 113.480 C 238.594 111.949,241.035 109.040,242.978 107.016 C 244.921 104.992,246.349 103.257,246.151 103.161 C 245.953 103.065,242.155 103.108,237.710 103.256 C 229.454 103.532,228.319 103.403,225.080 101.826 C 223.633 101.122,223.025 101.029,222.318 101.408 C 221.630 101.776,220.573 101.679,217.937 101.005 C 213.860 99.962,213.614 99.792,212.382 97.171 C 211.177 94.607,210.101 94.507,210.101 96.959 C 210.101 99.582,209.189 99.986,202.017 100.541 C 198.686 100.799,195.253 101.112,194.388 101.236 C 168.790 104.920,104.301 103.300,66.218 98.017 C 63.502 97.640,59.091 97.052,56.417 96.711 C 51.347 96.063,45.353 95.123,39.341 94.032 C 34.843 93.216,33.911 93.845,35.744 96.461 C 36.900 98.111,35.437 108.107,33.747 110.101 C 32.348 111.753,30.402 110.736,31.624 108.992 C 34.049 105.529,32.065 101.985,27.063 100.844 C 25.425 100.471,23.495 99.729,22.773 99.195 C 21.074 97.938,20.514 98.516,21.220 100.799 C 23.391 107.827,20.935 128.128,16.740 137.823 C 14.843 142.206,13.483 144.945,12.436 146.487 C 10.165 149.833,9.870 156.372,11.814 160.271 L 12.354 161.355 188.332 161.229 C 340.409 161.120,364.329 161.016,364.455 160.462 C 364.631 159.685,365.176 159.652,366.461 160.340 C 369.975 162.220,371.301 161.545,371.778 157.633 C 371.948 156.243,372.230 154.268,372.404 153.243 C 372.687 151.581,372.545 151.113,371.097 148.931 C 370.204 147.585,369.473 146.336,369.473 146.155 C 369.473 144.535,376.605 137.604,380.100 135.827 C 382.315 134.701,384.269 132.941,384.788 131.604 C 385.058 130.908,385.434 130.639,385.890 130.814 C 386.304 130.973,387.000 130.630,387.619 129.962 C 388.189 129.347,388.917 128.844,389.238 128.844 C 391.751 128.844,394.531 125.591,393.061 124.371 C 392.159 123.623,391.550 124.119,391.795 125.403 C 392.090 126.943,390.887 127.217,389.644 125.893 C 389.081 125.294,388.155 124.804,387.586 124.804 C 385.361 124.804,384.388 120.387,384.954 112.846 L 385.271 108.618 387.473 105.983 C 388.684 104.534,389.675 103.098,389.675 102.792 C 389.675 100.650,390.758 98.765,391.989 98.765 C 393.593 98.765,396.446 96.268,398.502 93.063 C 400.484 89.974,400.469 88.790,398.437 88.055 C 397.578 87.744,396.282 86.897,395.557 86.173 C 394.832 85.448,393.768 84.675,393.192 84.454 C 392.528 84.201,391.095 82.287,389.281 79.232 C 385.382 72.663,382.602 70.766,380.878 73.498 M0.163 165.881 C 0.069 166.128,0.044 180.976,0.108 198.878 L 0.224 231.425 180.920 231.531 C 280.303 231.589,361.826 231.488,362.083 231.307 C 362.339 231.125,363.944 226.734,365.650 221.549 C 367.355 216.364,368.894 211.818,369.069 211.448 C 369.243 211.077,370.914 206.128,372.782 200.449 C 374.649 194.770,378.019 184.702,380.269 178.077 C 382.520 171.451,384.276 165.945,384.173 165.841 C 383.738 165.406,0.329 165.446,0.163 165.881 M66.988 235.580 C 29.997 235.676,22.827 235.795,22.628 236.313 C 22.498 236.653,22.712 238.035,23.103 239.383 C 23.896 242.109,23.183 241.618,33.670 246.671 C 36.016 247.801,38.642 249.434,39.506 250.300 C 40.370 251.166,42.189 252.633,43.547 253.559 C 46.030 255.253,48.363 259.698,48.457 262.915 C 48.498 264.327,49.112 264.422,58.148 264.422 C 65.680 264.422,66.442 264.494,66.978 265.258 C 68.149 266.927,81.842 273.243,91.544 276.589 C 105.433 281.379,120.763 281.929,120.763 277.637 C 120.763 275.459,121.624 275.196,128.766 275.196 L 135.031 275.196 137.437 277.571 C 138.760 278.877,141.390 281.198,143.280 282.728 C 148.137 286.660,150.336 289.776,151.090 293.795 C 151.563 296.319,156.335 299.787,160.334 300.512 C 162.512 300.907,164.411 299.365,165.195 296.565 C 166.567 291.666,172.273 290.529,177.579 294.097 C 180.629 296.149,182.590 298.617,187.888 307.071 C 188.584 308.182,190.196 310.101,191.469 311.336 C 193.856 313.651,194.809 315.170,196.881 319.961 C 197.545 321.496,198.518 323.033,199.044 323.377 C 200.857 324.565,208.968 326.824,211.419 326.824 L 213.818 326.824 213.527 324.467 C 211.903 311.301,214.519 304.992,223.328 300.825 C 225.154 299.961,226.665 298.800,227.959 297.263 C 233.680 290.471,242.294 286.420,251.017 286.420 C 255.401 286.420,255.906 286.335,256.341 285.522 C 257.080 284.141,258.584 284.437,262.030 286.642 C 266.314 289.383,267.351 289.542,269.552 287.792 L 271.303 286.401 272.268 287.308 C 273.494 288.460,274.449 288.498,274.094 287.381 C 273.266 284.770,274.741 284.548,277.493 286.869 C 281.152 289.954,283.380 288.782,279.864 285.622 C 278.018 283.964,277.904 283.737,278.385 282.682 C 279.215 280.861,278.638 280.038,276.778 280.387 C 275.542 280.619,275.144 280.521,274.917 279.929 C 274.085 277.762,278.195 274.517,282.313 274.088 C 283.708 273.942,285.420 273.526,286.119 273.163 C 287.585 272.402,289.627 272.298,290.281 272.952 C 290.582 273.253,292.054 272.869,294.713 271.796 C 300.121 269.616,302.746 269.745,309.229 272.510 L 313.857 274.484 316.257 271.987 C 319.614 268.493,322.472 268.283,326.340 271.247 C 326.938 271.705,328.261 272.449,329.281 272.900 C 333.773 274.887,336.204 278.630,337.530 285.601 L 338.326 289.787 341.418 292.705 C 344.489 295.603,344.850 295.965,347.985 299.283 C 348.883 300.233,350.398 301.405,351.352 301.887 C 354.154 303.304,357.122 305.579,357.785 306.817 C 359.344 309.731,364.534 304.355,364.534 299.827 C 364.534 294.226,358.721 283.345,350.536 273.625 C 344.839 266.859,341.318 259.721,340.881 254.048 C 340.561 249.901,342.791 240.131,344.629 237.628 C 345.207 236.842,345.679 236.034,345.679 235.832 C 345.679 235.489,165.136 235.326,66.988 235.580 " stroke="none" fill-rule="evenodd"></path></g></svg>