<svg id="svg" xmlns="http://www.w3.org/2000/svg"  width="400" height="400" viewBox="0, 0, 400,400"><g id="svgg"><path id="path0" d="M1.527 164.474 C 0.312 165.267,0.033 173.003,0.289 198.847 L 0.619 232.198 11.146 232.198 L 21.672 232.198 21.672 198.142 L 21.672 164.087 12.384 163.769 C 7.276 163.594,2.390 163.912,1.527 164.474 M53.642 164.679 C 41.234 166.094,34.726 173.007,36.355 183.044 C 37.867 192.362,42.310 195.774,61.866 202.638 C 91.604 213.076,95.356 214.525,95.356 215.574 C 95.356 216.178,82.678 216.822,67.183 217.005 L 39.009 217.337 39.009 224.768 L 39.009 232.198 67.492 232.571 C 109.129 233.117,115.077 231.773,118.662 221.007 C 122.872 208.366,117.040 202.756,89.633 193.086 C 52.515 179.989,52.518 179.740,89.820 179.282 L 117.028 178.947 117.409 172.253 C 117.666 167.737,117.263 165.225,116.170 164.532 C 114.245 163.311,64.623 163.428,53.642 164.679 M133.018 165.161 C 132.661 166.093,132.539 178.871,132.748 193.557 C 133.293 231.973,133.515 232.198,170.898 232.198 C 209.793 232.198,209.907 232.081,209.907 192.172 L 209.907 164.087 199.381 164.087 L 188.854 164.087 188.235 188.038 C 187.470 217.654,187.754 217.190,170.749 216.522 C 154.382 215.878,154.799 216.618,154.799 188.176 C 154.799 161.569,155.761 163.467,142.275 163.467 C 136.137 163.467,133.482 163.953,133.018 165.161 M226.139 165.426 C 225.725 166.504,225.387 169.245,225.387 171.517 C 225.387 179.939,224.034 179.567,254.622 179.567 C 269.874 179.567,282.353 180.051,282.353 180.644 C 282.353 181.236,272.025 186.332,259.403 191.968 C 224.180 207.696,219.736 211.677,224.549 223.197 C 228.143 231.799,230.151 232.203,269.107 232.162 C 306.891 232.123,305.826 232.344,305.863 224.559 C 305.903 216.389,307.117 216.718,277.002 216.718 C 245.391 216.718,245.483 216.802,266.873 207.456 C 301.032 192.531,307.903 187.362,306.783 177.431 C 305.377 164.957,300.218 163.467,258.408 163.467 C 230.810 163.467,226.797 163.711,226.139 165.426 M322.853 164.247 C 322.374 164.726,321.981 176.611,321.981 190.656 C 321.981 230.588,323.257 231.987,359.688 232.043 C 397.714 232.101,399.381 230.339,399.381 190.093 L 399.381 164.087 388.854 164.087 L 378.328 164.087 377.709 187.885 C 376.944 217.270,377.638 216.099,360.995 216.099 C 344.343 216.099,345.037 217.269,344.272 187.885 L 343.653 164.087 333.689 163.731 C 328.209 163.536,323.332 163.768,322.853 164.247 " stroke="none" fill-rule="evenodd"></path></g></svg>