<?xml version="1.0" encoding="UTF-8" standalone="no"?>
<svg
   
   
   xmlns="http://www.w3.org/2000/svg"
   height="200"
   width="200"
   version="1.1"
   viewBox="0 0 200 200"
   id="svg2">
  <path
	 fill="#333333"
     d="m 165.6,112.26 c 5.42,0 8.83,-2.3 10.43,-5.17 l -6.2,-0.88 a 4.52,4.52 0 0 1 -4.24,2.12 c -3.53,0 -4.7,-2.38 -4.7,-3.7 h 16.23 V 103 c 0,-4.43 -3.62,-9.29 -11.52,-9.29 -7.9,0 -11.52,4.84 -11.52,9.29 0,4.45 3.61,9.28 11.52,9.28 m 0,-14.65 c 3.53,0 4.7,2.38 4.7,3.08 h -9.4 c 0,-0.7 1.17,-3.08 4.7,-3.08 m -116,14.65 c 4.65,0 11.87,-1.85 11.87,-9.28 0,-7.43 -7.22,-9.29 -11.87,-9.29 -4.65,0 -11.9,1.82 -11.9,9.29 0,7.47 7.22,9.28 11.86,9.28 m 0,-14.65 c 2,0 5.07,1.06 5.07,5.37 0,4.31 -3.08,5.36 -5.07,5.36 -1.99,0 -5.06,-1.09 -5.06,-5.36 0,-4.27 3.09,-5.37 5.06,-5.37 m 135.73,4.05 c 0,-1.41 1.49,-2.35 3.29,-2.35 a 4.15,4.15 0 0 1 3.16,1.07 v -6.57 a 7.16,7.16 0 0 0 -6.45,2 v -1.74 h -6.35 v 17.77 h 6.35 z M 200,80 H 0 v 40 h 200 z m -4.24,36.17 H 4.26 V 83.84 h 191.49 z m -50.23,-4.33 h 6.35 V 98.66 h 1.82 v -4.83 h -1.82 V 92.75 A 1.12,1.12 0 0 1 153,91.62 h 0.69 v -4.28 a 22.43,22.43 0 0 0 -5.38,0.15 3.31,3.31 0 0 0 -2.79,3.44 v 2.9 h -1.82 v 4.83 h 1.82 z M 69.8,87.45 h -6.34 v 24.41 h 6.34 z m 61.65,24.81 c 4.64,0 11.87,-1.85 11.87,-9.28 0,-7.43 -7.23,-9.29 -11.87,-9.29 -4.64,0 -11.87,1.84 -11.87,9.31 0,7.47 7.23,9.28 11.87,9.28 m 0,-14.65 c 2,0 5.06,1.06 5.06,5.37 0,4.31 -3.08,5.36 -5.06,5.36 -1.98,0 -5.06,-1.07 -5.06,-5.36 0,-4.29 3.08,-5.37 5.06,-5.37 m -50,14.65 a 11.33,11.33 0 0 0 6.37,-1.85 v 1.45 h 6.34 V 87.45 h -6.34 v 8.09 a 11.33,11.33 0 0 0 -6.37,-1.85 c -3.85,0 -9.85,1.84 -9.85,9.29 0,7.45 6,9.28 9.85,9.28 m 1.66,-13.6 c 2.9,0 4.71,1.95 4.71,3.15 v 2.33 c 0,1.2 -1.81,3.15 -4.71,3.15 a 4.33,4.33 0 1 1 0,-8.63 m 20.22,4.82 a 4.44,4.44 0 0 1 4.5,-4.82 3.21,3.21 0 0 1 3.54,3.39 v 9.81 h 6.35 v -10.6 c 0,-4.93 -3.12,-7.57 -8,-7.57 a 10,10 0 0 0 -6.41,2.07 V 87.45 H 97 v 24.41 h 6.35 z m -80.7,8.78 a 23.14,23.14 0 0 0 13.29,-3.83 V 97.83 H 23.45 v 5.49 h 5.24 v 2.49 a 11.44,11.44 0 0 1 -5.41,1.33 c -3.25,0 -7.38,-2.05 -7.38,-7.27 0,-6.23 4,-7.78 6.66,-7.78 a 6.33,6.33 0 0 1 6.14,4.3 l 7.09,-2.34 c -2.59,-5.45 -8.81,-7 -13.16,-7 C 17,87.08 8.28,89.62 8.28,99.87 c 0,8.89 8,12.39 14.35,12.39"
     class="cls-1"
     id="path76" />
</svg>
