<svg id="svg" xmlns="http://www.w3.org/2000/svg"  width="400" height="400" viewBox="0, 0, 400,400"><g id="svgg"><path id="path0" d="M175.122 60.960 C 167.886 62.967,160.735 66.551,158.127 69.479 C 157.018 70.723,155.214 71.966,154.116 72.241 C 148.493 73.652,142.188 77.257,142.188 79.059 C 142.188 85.362,153.983 96.424,156.229 92.227 C 159.383 86.333,171.094 87.872,171.094 94.181 C 171.094 96.756,161.406 98.798,157.954 96.951 C 157.005 96.443,156.003 96.751,154.373 98.050 L 152.110 99.854 154.165 103.361 C 158.272 110.369,161.997 112.174,166.583 109.378 C 169.651 107.507,171.345 107.404,172.675 109.007 C 173.617 110.142,169.414 117.764,167.037 119.234 C 166.646 119.475,158.314 115.608,148.522 110.640 C 126.268 99.350,120.210 97.722,108.717 99.942 C 101.571 101.323,95.665 109.561,98.042 114.833 L 99.421 117.891 104.379 117.428 C 109.735 116.928,111.719 117.740,111.719 120.433 C 111.719 121.253,112.158 122.050,112.695 122.204 C 119.182 124.064,128.125 129.276,128.125 131.197 C 128.125 131.558,126.455 132.093,124.414 132.384 C 107.677 134.778,97.912 138.117,95.324 142.331 C 90.990 149.386,90.614 155.042,94.197 159.299 L 96.207 161.688 99.861 159.862 C 105.739 156.925,107.410 156.760,109.870 158.876 C 111.739 160.484,112.384 160.628,114.766 159.970 C 118.680 158.889,151.960 159.692,155.615 160.955 C 158.631 161.997,167.007 168.152,167.634 169.786 C 167.834 170.307,164.777 176.352,160.841 183.219 C 156.904 190.085,151.712 199.729,149.303 204.649 L 144.922 213.595 144.918 222.453 C 144.914 232.998,145.845 232.076,132.937 234.325 C 120.439 236.503,116.867 237.998,115.751 241.519 C 114.950 244.043,113.280 254.973,113.282 257.674 C 113.283 258.876,115.700 258.989,142.553 259.036 L 171.822 259.088 171.375 250.833 C 171.114 246.019,171.253 241.764,171.708 240.625 C 172.374 238.960,192.546 215.942,200.349 207.944 L 202.888 205.341 216.483 215.249 C 232.248 226.738,233.177 227.275,238.317 227.884 C 246.769 228.885,245.950 233.315,236.957 235.244 C 226.012 237.593,222.718 242.793,222.663 257.813 C 222.659 258.828,225.969 258.992,247.539 259.045 L 272.420 259.106 274.189 256.524 C 275.162 255.104,277.539 252.485,279.472 250.703 C 282.665 247.760,282.945 247.213,282.540 244.715 C 281.514 238.394,266.239 209.924,255.749 194.781 C 249.598 185.901,249.524 186.752,257.088 179.279 C 271.551 164.986,271.537 161.872,256.863 130.911 C 243.393 102.492,241.803 91.820,250.408 87.588 C 253.635 86.002,254.809 87.207,256.058 93.387 C 258.130 103.635,263.627 111.895,271.919 117.215 C 278.061 121.157,278.173 120.364,273.887 103.355 C 269.406 85.572,267.613 81.282,263.546 78.618 C 254.472 72.674,243.950 74.728,238.226 83.562 C 236.144 86.775,235.478 87.309,234.323 86.691 C 231.038 84.933,224.804 78.190,222.835 74.267 C 218.407 65.442,188.767 57.176,175.122 60.960 M200.391 65.977 C 213.532 70.036,216.516 71.647,217.967 75.466 C 219.981 80.767,222.555 84.157,228.962 89.942 C 235.920 96.225,236.147 96.727,237.456 108.758 C 239.751 129.848,239.703 129.944,225.106 133.513 C 207.163 137.901,207.165 138.322,225.275 160.849 C 250.877 192.695,268.376 219.313,276.879 239.342 L 279.149 244.688 276.488 247.149 C 275.025 248.502,272.773 250.898,271.484 252.474 L 269.141 255.338 258.594 254.656 C 252.793 254.281,245.119 253.959,241.539 253.940 L 235.032 253.906 235.541 251.367 C 237.209 243.039,236.859 243.256,255.343 239.080 C 269.709 235.834,269.533 236.169,262.773 224.922 C 231.436 172.784,212.028 154.137,159.375 125.577 C 129.288 109.258,124.884 107.431,113.438 106.526 C 102.876 105.691,104.941 101.824,116.047 101.640 C 123.901 101.511,128.376 103.268,158.556 118.330 C 195.193 136.615,192.584 136.420,199.722 121.414 C 207.549 104.959,207.107 102.545,193.037 84.895 C 184.808 74.572,177.484 73.916,155.553 81.536 L 147.635 84.287 146.388 82.384 C 144.528 79.545,145.401 78.522,151.698 76.162 C 155.212 74.845,158.628 72.885,160.547 71.084 C 164.261 67.598,165.195 67.091,172.731 64.464 C 180.724 61.678,187.710 62.060,200.391 65.977 M167.578 70.590 C 165.308 71.271,164.385 72.003,164.203 73.264 C 163.897 75.394,163.990 75.395,169.646 73.333 C 176.952 70.669,175.173 68.309,167.578 70.590 M249.378 138.897 C 259.191 158.866,259.042 159.947,245.534 166.709 C 237.983 170.490,237.713 170.338,225.121 155.265 C 215.611 143.882,216.069 142.316,230.078 138.308 C 240.117 135.436,241.406 134.356,241.406 128.820 C 241.406 123.118,241.981 123.844,249.378 138.897 M150.544 150.634 C 151.803 152.219,153.040 153.867,153.291 154.297 C 153.591 154.808,147.157 155.107,134.687 155.161 C 114.663 155.249,114.103 155.144,118.164 152.054 C 121.429 149.569,122.516 149.326,135.578 148.152 C 148.234 147.015,147.581 146.906,150.544 150.634 M179.739 170.830 C 183.461 173.293,183.592 172.783,176.959 181.641 C 157.889 207.106,153.475 215.723,153.733 226.978 C 153.996 238.404,154.457 237.924,140.602 240.656 C 128.344 243.074,127.656 243.473,126.830 248.641 C 126.319 251.834,124.795 253.125,121.536 253.125 C 119.252 253.125,119.188 252.753,120.412 246.658 C 121.742 240.032,122.884 239.323,136.033 236.956 C 150.263 234.395,149.278 235.382,149.032 223.921 L 148.828 214.453 153.665 204.477 C 158.329 194.856,167.344 178.950,172.031 172.070 C 174.681 168.182,175.531 168.045,179.739 170.830 M198.047 305.264 C 170.115 306.927,162.545 331.536,187.624 339.154 C 193.678 340.993,210.334 340.935,218.164 339.049 L 221.875 338.155 221.875 331.577 L 221.875 325.000 217.188 325.000 L 212.500 325.000 212.500 329.660 C 212.500 341.935,185.608 337.936,183.239 325.308 C 180.580 311.133,194.989 306.091,218.555 312.952 C 220.145 313.415,220.313 313.198,220.313 310.668 C 220.313 306.966,210.298 304.535,198.047 305.264 M312.030 305.623 C 294.940 307.355,285.230 318.151,290.664 329.378 C 298.084 344.705,336.296 344.690,344.301 329.357 C 351.301 315.945,334.211 303.376,312.030 305.623 M0.000 322.965 L 0.000 339.844 4.688 339.844 L 9.375 339.844 9.375 334.879 L 9.375 329.915 18.945 329.475 C 39.849 328.513,50.560 320.323,41.763 312.026 C 37.242 307.763,32.933 306.850,15.430 306.444 L 0.000 306.087 0.000 322.965 M59.375 319.961 C 59.375 340.394,58.745 339.844,82.148 339.844 L 97.656 339.844 97.656 337.891 L 97.656 335.938 85.988 335.938 C 70.257 335.938,68.783 335.319,68.762 328.711 L 68.750 325.000 82.031 325.000 L 95.313 325.000 95.313 322.656 L 95.313 320.313 82.031 320.313 L 68.750 320.313 68.750 315.234 L 68.750 310.156 82.813 310.156 L 96.875 310.156 96.875 308.203 L 96.875 306.250 78.125 306.250 L 59.375 306.250 59.375 319.961 M113.281 319.025 C 113.281 333.629,113.977 335.685,119.932 338.672 C 125.918 341.675,141.688 341.245,152.930 337.772 L 157.031 336.505 157.031 321.377 L 157.031 306.250 152.344 306.250 L 147.656 306.250 147.656 320.655 L 147.656 335.061 143.945 335.678 C 126.618 338.562,122.656 335.320,122.656 318.254 L 122.656 306.250 117.969 306.250 L 113.281 306.250 113.281 319.025 M238.325 318.945 C 238.399 340.023,238.196 339.841,261.523 339.843 L 277.344 339.844 277.344 337.956 L 277.344 336.069 263.992 335.808 C 248.570 335.506,247.656 335.094,247.656 328.429 L 247.656 325.000 261.328 325.000 L 275.000 325.000 275.000 322.656 L 275.000 320.313 261.328 320.313 L 247.656 320.313 247.656 315.234 L 247.656 310.156 261.719 310.156 L 275.781 310.156 275.781 308.203 L 275.781 306.250 257.031 306.250 L 238.281 306.250 238.325 318.945 M353.125 308.594 L 353.125 310.938 362.500 310.938 L 371.875 310.938 371.875 325.391 L 371.875 339.844 376.563 339.844 L 381.250 339.844 381.250 325.391 L 381.250 310.938 390.625 310.938 L 400.000 310.938 400.000 308.594 L 400.000 306.250 376.563 306.250 L 353.125 306.250 353.125 308.594 M324.690 310.527 C 331.619 312.585,335.807 318.556,334.927 325.120 C 333.071 338.958,307.819 341.667,301.098 328.750 C 294.914 316.865,309.110 305.900,324.690 310.527 M29.839 312.089 C 40.027 317.172,33.089 325.005,17.843 325.633 L 9.375 325.982 9.375 317.985 L 9.375 309.988 18.164 310.318 C 24.622 310.562,27.719 311.031,29.839 312.089 " stroke="none" fill-rule="evenodd"></path></g></svg>