<?xml version="1.0" encoding="UTF-8" standalone="no"?>
<svg
   
   
   
   
   xmlns="http://www.w3.org/2000/svg"
   version="1.1"
   viewBox="0, 0, 400,400"
   height="400"
   width="400"
   id="svg">
  <g
     id="svgg">
    <path
       style="fill-rule:evenodd;stroke:none;stroke-width:2.00032616"
       d="M 175.79056,2.7633902 C 161.3162,6.7780449 147.01187,13.947214 141.79502,19.80417 c -2.21836,2.488406 -5.82696,4.974811 -8.02332,5.5249 -11.24783,2.822461 -23.8599,10.033637 -23.8599,13.638224 0,12.608057 23.59386,34.735666 28.0866,26.340296 6.30902,-11.789922 29.73485,-8.711422 29.73485,3.908637 0,5.150841 -19.37917,9.235507 -26.2843,5.540904 -1.8983,-1.016165 -3.90262,-0.400066 -7.16316,2.198358 l -4.52674,3.608593 4.11068,7.015144 c 8.21534,14.018284 15.66654,17.628874 24.84005,12.035966 6.137,-3.742613 9.52554,-3.948647 12.18598,-0.74212 1.88431,2.270368 -6.52307,17.516858 -11.27784,20.457338 -0.78213,0.48207 -17.44885,-7.25319 -37.03604,-17.19081 C 78.066621,79.555918 65.948643,76.299382 42.958893,80.740111 28.664563,83.502562 16.850626,99.981252 21.605401,110.52697 l 2.75846,6.117 9.917618,-0.92615 c 10.713747,-1.00017 14.682395,0.6241 14.682395,6.01098 0,1.64026 0.878143,3.23453 1.952317,3.54257 12.976117,3.72062 30.865032,14.14631 30.865032,17.98895 0,0.72211 -3.340547,1.79228 -7.423209,2.37438 -33.47946,4.78878 -53.012655,11.46786 -58.189498,19.89725 -8.6694142,14.11229 -9.4215368,25.42614 -2.254369,33.94152 l 4.020656,4.77879 7.309201,-3.6526 c 11.757919,-5.87496 15.100464,-6.20501 20.021266,-1.97232 3.738609,3.21653 5.02882,3.50457 9.793598,2.18835 7.829276,-2.16235 74.400142,-0.55609 81.711332,1.97033 6.03298,2.08434 22.78771,14.39635 24.04191,17.66488 0.40007,1.04216 -5.71493,13.13414 -13.5882,26.87038 -7.8753,13.73424 -18.26099,33.02538 -23.07977,42.86699 l -8.76344,17.89492 -0.007,17.71889 c -0.007,21.09344 1.85431,19.24914 -23.965899,23.74787 -25.000084,4.35671 -32.145249,7.3472 -34.377612,14.39034 -1.602263,5.04883 -4.942807,26.9124 -4.938806,32.31528 0.002,2.40439 4.836789,2.63043 58.551547,2.72444 l 58.54755,0.10406 -0.89415,-16.5127 c -0.52208,-9.62958 -0.24403,-18.14096 0.66612,-20.41933 1.33221,-3.33054 41.68279,-49.37405 57.29133,-65.37265 l 5.07884,-5.20686 27.19442,19.81923 c 31.53516,22.98175 33.39346,24.05592 43.67513,25.27413 16.90676,2.00233 15.2685,10.86377 -2.72044,14.7224 -21.89357,4.69876 -28.48264,15.10047 -28.59267,45.14536 -0.007,2.03032 6.61309,2.35838 49.76012,2.46441 l 49.77013,0.12203 3.53856,-5.16485 c 1.94633,-2.84046 6.7011,-8.07932 10.56772,-11.6439 6.38705,-5.88695 6.94713,-6.98113 6.13701,-11.97795 -2.05233,-12.64406 -32.60732,-69.59335 -53.59075,-99.88429 -12.30399,-17.7629 -12.45202,-16.06062 2.67845,-31.00906 28.93072,-28.59066 28.90271,-34.81967 -0.45007,-96.75177 -26.94443,-56.84729 -30.12495,-78.194775 -12.91215,-86.660156 6.45506,-3.172518 8.80344,-0.762125 11.30185,11.599892 4.14467,20.499347 15.14048,37.022034 31.72718,47.663784 12.286,7.88528 12.51004,6.29902 3.93663,-27.724529 -8.96346,-35.571805 -12.55004,-44.153205 -20.68537,-49.482073 -18.15097,-11.88994 -39.19838,-7.78127 -50.64825,9.889612 -4.16468,6.427049 -5.49691,7.495224 -7.80729,6.259022 -6.57203,-3.516611 -19.04207,-17.004811 -22.98072,-24.85209 -8.85743,-17.65288 -68.1471,-34.1875761 -95.44155,-26.6183418 m 50.54625,10.0356368 c 26.28627,8.119324 32.25525,11.34185 35.15772,18.981096 4.02866,10.603729 9.1775,17.384834 21.99359,28.956722 13.91827,12.568048 14.37234,13.572213 16.99078,37.638137 4.59073,42.186898 4.49472,42.378918 -24.70403,49.518088 -35.89186,8.77743 -35.88785,9.61956 0.33805,54.68091 51.21235,63.70239 86.21606,116.94708 103.22483,157.01161 l 4.54074,10.69374 -5.32286,4.92281 c -2.92649,2.70643 -7.43122,7.49922 -10.00964,10.65173 l -4.68677,5.72893 -21.09743,-1.36422 c -11.6039,-0.75012 -26.95441,-1.39423 -34.11556,-1.43223 l -13.01613,-0.068 1.01817,-5.07882 c 3.33654,-16.65873 2.63643,-16.22466 39.61046,-24.57803 28.73669,-6.49305 28.38462,-5.82294 14.86242,-28.32062 C 288.43693,226.44788 249.6146,189.14779 144.29142,132.01848 84.107607,99.375152 75.298167,95.720554 52.402434,93.910259 31.274988,92.239986 35.405662,84.504724 57.621285,84.136664 c 15.710562,-0.258041 24.662017,3.256531 85.031875,33.385446 73.28594,36.57597 68.06709,36.18591 82.34542,6.16901 C 240.65514,90.775747 239.771,85.94696 211.62641,50.641198 195.16572,29.99183 180.51533,28.679617 136.64617,43.922103 L 120.80759,49.425 118.31318,45.618379 c -3.7206,-5.678925 -1.97432,-7.72526 10.62174,-12.44603 7.02914,-2.634429 13.86226,-6.555068 17.70088,-10.157656 7.42921,-6.973138 9.29752,-7.987302 24.37198,-13.2421593 15.98861,-5.5729093 29.96289,-4.8087846 55.32903,3.0264933 m -65.63671,9.227505 c -4.54075,1.362222 -6.38704,2.826461 -6.7511,5.348872 -0.6121,4.260695 -0.42607,4.262695 10.88778,0.138023 14.61437,-5.32887 11.05579,-10.049639 -4.13668,-5.486895 M 324.32679,158.66282 c 19.62919,39.94452 19.33114,42.10688 -7.68926,55.63307 -15.10447,7.56325 -15.64455,7.25918 -40.83266,-22.89173 -19.0231,-22.76971 -18.10695,-25.90223 9.91561,-33.91953 20.08128,-5.74493 22.6597,-7.90528 22.6597,-18.9791 0,-11.40585 1.15019,-9.95362 15.94661,20.15729 m -197.70025,23.47782 c 2.51841,3.17053 4.99282,6.46706 5.4949,7.3272 0.60009,1.02217 -12.27001,1.62027 -37.214072,1.72829 -40.054535,0.17603 -41.174717,-0.034 -33.051392,-6.21501 6.531064,-4.97081 8.705419,-5.45689 34.833683,-7.80528 25.316141,-2.27438 24.009921,-2.4924 29.936881,4.9648 m 58.39953,40.39859 c 7.4452,4.92682 7.70725,3.90665 -5.56091,21.62553 -38.14622,50.93831 -46.97566,68.17512 -46.45959,90.68879 0.52609,22.85573 1.44824,21.89558 -26.26627,27.36046 -24.519999,4.83679 -25.896223,5.63492 -27.548501,15.97261 -1.022164,6.38704 -4.070661,8.96946 -10.589723,8.96946 -4.568746,0 -4.696766,-0.74411 -2.248367,-12.93611 2.660433,-13.25416 4.944806,-14.67239 31.247097,-19.40715 28.464634,-5.12285 26.494324,-3.14852 26.002234,-26.07427 l -0.40805,-18.93909 9.67557,-19.95525 c 9.32952,-19.24513 27.36245,-51.06232 36.73798,-64.82457 5.30087,-7.77726 7.00114,-8.05131 15.41853,-2.48041"
       id="path0" />
  </g>
</svg>
