<svg id="svg" xmlns="http://www.w3.org/2000/svg"  width="400" height="400" viewBox="0, 0, 400,400"><g id="svgg"><path id="path0" d="M366.360 101.857 C 365.685 102.093,356.511 105.411,353.320 106.572 C 351.002 107.416,351.304 107.440,348.258 106.167 C 345.244 104.908,345.437 104.877,344.842 106.720 C 344.368 108.190,344.393 108.250,346.037 109.556 C 347.660 110.846,347.658 110.836,346.534 111.982 C 345.210 113.333,345.337 113.331,342.320 112.060 C 339.374 110.818,339.472 110.934,339.995 109.327 C 340.168 108.795,340.618 107.413,340.995 106.256 C 341.950 103.323,342.017 103.523,339.786 102.601 C 337.716 101.746,337.653 101.762,337.162 103.289 C 337.001 103.790,336.377 105.694,335.776 107.520 C 334.376 111.770,334.393 111.012,335.594 115.516 C 336.730 119.779,336.797 118.795,335.003 124.280 C 333.508 128.849,331.033 136.419,330.630 137.656 C 330.186 139.017,330.137 139.040,327.733 139.040 C 325.807 139.040,325.683 139.066,325.443 139.514 C 325.357 139.675,323.840 148.026,323.840 148.339 C 323.840 148.451,323.909 148.627,323.993 148.731 L 324.146 148.920 331.613 148.944 C 335.720 148.957,339.227 148.947,339.406 148.921 C 340.138 148.816,340.092 148.916,341.687 144.040 C 343.063 139.832,343.138 139.629,343.416 139.380 L 343.707 139.120 349.753 139.122 C 356.707 139.124,355.894 139.034,358.410 140.087 C 360.975 141.162,361.076 141.173,361.894 140.459 C 362.328 140.080,367.569 135.276,368.640 134.276 C 368.882 134.050,369.602 133.386,370.240 132.801 C 371.937 131.246,371.937 131.264,370.280 130.579 C 369.840 130.398,368.454 129.818,367.200 129.292 C 365.946 128.766,363.876 127.900,362.600 127.367 C 360.170 126.352,359.787 126.120,359.652 125.579 C 359.609 125.403,358.919 121.077,358.362 117.489 C 357.973 114.977,357.682 115.066,361.305 116.592 C 362.809 117.226,364.616 117.986,365.320 118.280 C 366.024 118.575,367.237 119.082,368.016 119.408 C 369.443 120.005,369.728 120.080,369.904 119.904 C 370.051 119.757,370.058 119.811,369.115 113.864 C 368.050 107.136,368.043 107.802,369.191 106.606 C 369.617 106.163,370.216 105.538,370.522 105.218 C 371.344 104.360,371.386 104.062,370.743 103.654 C 368.099 101.979,367.137 101.584,366.360 101.857 M373.480 106.318 C 373.216 106.429,372.416 107.298,372.284 107.617 C 372.103 108.053,372.128 108.516,372.442 110.494 C 372.838 112.991,372.741 112.944,374.979 111.708 C 377.378 110.383,377.410 110.336,376.620 109.353 C 374.069 106.178,373.990 106.102,373.480 106.318 M384.080 109.908 C 383.706 110.119,382.266 110.915,380.880 111.676 C 378.454 113.008,377.786 113.378,375.012 114.918 C 373.322 115.857,373.279 115.936,373.562 117.640 C 373.628 118.036,373.790 119.056,373.923 119.907 C 374.283 122.221,373.807 121.834,378.961 124.001 C 383.986 126.112,383.514 125.776,384.315 127.817 C 384.921 129.361,385.016 129.418,386.762 129.295 C 387.870 129.218,388.200 129.114,388.422 128.777 C 388.643 128.439,391.200 120.545,391.200 120.200 C 391.199 119.656,390.988 119.448,388.685 117.722 C 385.721 115.500,386.017 116.013,385.644 112.440 C 385.298 109.133,385.339 109.198,384.080 109.908 M389.551 112.129 C 389.464 112.473,389.669 114.152,389.846 114.553 C 390.092 115.109,389.808 114.864,393.480 117.674 C 395.701 119.374,395.607 119.167,395.003 121.032 C 392.651 128.281,391.412 131.993,391.290 132.160 C 390.952 132.621,391.041 132.609,385.840 132.918 C 376.973 133.445,377.594 133.398,377.240 133.579 C 376.785 133.812,376.959 133.552,373.489 139.196 C 370.114 144.687,370.092 144.729,370.469 145.070 C 370.551 145.145,371.294 145.491,372.120 145.840 C 373.736 146.523,373.884 146.614,373.962 146.969 C 374.036 147.308,371.261 155.629,371.015 155.800 C 370.764 155.976,370.588 155.951,369.838 155.632 C 367.666 154.709,363.047 152.780,362.732 152.664 C 362.248 152.486,358.888 152.406,358.591 152.565 C 358.201 152.774,358.186 152.639,359.498 161.007 C 360.928 170.129,360.766 169.518,361.928 170.166 C 365.862 172.360,372.228 175.965,372.320 176.053 C 372.536 176.256,372.329 176.277,367.546 176.548 C 364.958 176.694,362.705 176.848,362.539 176.890 C 361.919 177.048,361.896 177.092,359.045 183.565 C 357.574 186.906,355.869 190.774,355.256 192.160 C 352.111 199.271,352.390 198.532,351.642 201.720 C 351.353 202.952,351.064 204.176,351.001 204.440 C 350.937 204.704,350.396 207.008,349.798 209.560 C 349.200 212.112,348.300 215.946,347.800 218.080 C 347.299 220.214,346.184 224.966,345.323 228.640 C 344.462 232.314,343.705 235.536,343.641 235.800 C 342.855 239.067,342.320 241.486,342.322 241.770 C 342.324 242.262,342.475 242.549,343.676 244.357 L 344.736 245.953 344.559 246.097 C 344.252 246.346,342.164 246.306,341.633 246.041 C 341.068 245.760,339.364 243.245,339.247 242.520 C 339.207 242.274,339.537 240.523,340.673 234.960 C 341.486 230.978,342.713 224.966,343.400 221.600 C 344.087 218.234,344.811 214.688,345.008 213.720 C 345.206 212.752,345.562 211.006,345.800 209.840 C 346.037 208.674,346.575 206.036,346.996 203.977 C 347.760 200.233,347.851 199.565,347.668 199.039 C 347.617 198.894,346.645 196.959,345.507 194.740 C 344.370 192.521,343.418 190.619,343.391 190.512 C 343.259 189.986,343.316 189.901,345.603 187.273 C 346.154 186.639,348.316 184.140,350.406 181.720 C 352.496 179.300,354.471 177.014,354.795 176.640 C 357.876 173.079,357.655 173.612,357.199 170.840 C 357.112 170.312,356.447 166.089,355.721 161.456 C 354.342 152.651,354.365 152.765,353.936 152.565 C 353.602 152.410,324.282 152.449,324.043 152.605 C 323.776 152.780,323.680 153.118,323.680 153.883 C 323.680 154.940,323.640 154.992,320.760 157.653 C 319.396 158.913,317.848 160.347,317.320 160.839 C 316.792 161.332,313.102 164.754,309.120 168.443 C 305.138 172.133,300.944 176.020,299.800 177.081 C 298.656 178.142,294.984 181.544,291.640 184.642 C 288.296 187.739,285.344 190.476,285.080 190.725 C 284.816 190.973,283.304 192.376,281.720 193.842 C 278.667 196.667,277.202 198.025,276.276 198.891 C 275.323 199.781,275.685 199.714,271.600 199.760 L 268.040 199.800 267.600 200.019 C 267.155 200.240,264.117 202.982,263.821 203.429 C 263.476 203.950,263.444 203.882,266.678 209.470 C 268.327 212.320,269.716 214.795,269.763 214.972 C 269.881 215.408,269.902 215.333,268.503 219.360 C 267.822 221.318,266.696 224.558,266.001 226.560 C 264.198 231.748,262.804 235.760,262.079 237.840 C 261.734 238.830,261.057 240.774,260.574 242.160 C 260.092 243.546,259.486 245.274,259.229 246.000 C 258.547 247.925,258.554 248.085,259.392 249.548 C 260.101 250.787,260.322 251.047,260.780 251.185 C 261.413 251.374,282.860 251.316,283.176 251.124 C 283.574 250.881,283.652 250.690,283.915 249.314 C 284.313 247.229,284.362 247.393,282.637 245.033 C 278.833 239.830,279.047 240.163,279.341 239.897 C 279.418 239.827,281.209 239.249,283.321 238.613 C 288.218 237.137,296.603 234.613,302.400 232.868 C 307.037 231.473,307.264 231.385,307.174 231.027 C 307.132 230.863,299.128 222.951,298.693 222.645 C 298.160 222.269,298.807 221.915,286.100 229.524 C 279.687 233.365,274.242 236.646,274.000 236.815 C 273.418 237.223,273.209 237.521,272.239 239.320 C 271.788 240.156,271.341 240.984,271.244 241.160 C 271.147 241.336,270.539 242.452,269.893 243.640 C 268.435 246.320,268.580 246.189,267.032 246.226 C 265.820 246.255,265.600 246.200,265.600 245.872 C 265.600 245.689,266.278 244.102,269.343 237.120 C 269.913 235.822,271.011 233.320,271.782 231.560 C 273.821 226.911,274.717 224.874,274.855 224.582 C 275.003 224.268,275.583 223.869,275.984 223.806 C 276.147 223.780,278.044 223.472,280.200 223.121 C 282.356 222.769,286.772 222.052,290.013 221.527 C 296.185 220.527,296.212 220.521,296.443 220.074 C 296.506 219.952,296.740 218.724,296.963 217.346 C 297.186 215.968,297.707 212.752,298.121 210.200 C 300.109 197.948,300.027 198.550,299.782 198.037 C 299.690 197.844,298.909 197.099,297.410 195.775 C 294.642 193.331,294.798 193.625,295.187 191.560 C 295.498 189.911,295.602 189.763,296.127 190.223 C 297.901 191.778,303.356 196.635,303.465 196.758 C 303.900 197.245,303.951 197.493,305.278 205.440 C 309.544 230.987,309.162 228.834,309.421 228.785 C 309.573 228.756,309.773 228.397,311.391 225.240 C 317.523 213.278,317.214 213.840,317.730 213.710 C 317.859 213.678,319.021 213.852,320.711 214.158 C 327.893 215.458,327.464 215.408,327.840 214.985 C 328.126 214.663,330.958 207.858,331.064 207.235 C 331.137 206.812,331.119 206.564,330.942 205.510 C 330.309 201.752,325.991 175.961,325.554 173.328 C 325.049 170.290,325.017 169.996,325.221 170.260 C 325.275 170.331,326.835 172.344,328.686 174.734 C 336.723 185.111,338.671 187.655,338.780 187.916 C 338.955 188.335,338.883 188.610,338.100 190.480 C 337.705 191.426,336.560 194.162,335.557 196.560 C 333.296 201.963,333.393 201.211,334.622 203.840 C 334.796 204.214,335.761 206.302,336.766 208.480 L 338.592 212.440 338.592 213.040 C 338.591 213.480,338.351 214.858,337.691 218.200 C 337.196 220.708,336.417 224.686,335.960 227.040 C 335.504 229.394,334.856 232.724,334.521 234.440 C 334.187 236.156,333.715 238.586,333.472 239.840 C 333.037 242.093,332.343 245.647,332.117 246.789 C 331.889 247.935,331.956 248.219,332.780 249.624 C 333.465 250.791,333.690 251.050,334.140 251.185 C 334.646 251.336,355.827 251.321,356.191 251.169 C 356.886 250.878,357.879 248.073,357.624 247.120 C 357.577 246.943,356.516 245.601,350.890 238.600 C 350.077 237.588,349.342 236.642,349.256 236.497 C 348.958 235.993,349.032 235.790,351.098 231.480 C 356.733 219.726,359.112 214.719,359.234 214.360 C 359.313 214.128,359.671 211.539,360.086 208.200 C 360.480 205.032,360.924 201.466,361.072 200.275 C 361.278 198.623,361.386 198.008,361.529 197.675 C 361.663 197.363,363.787 194.650,369.078 188.040 C 377.496 177.521,376.905 178.375,376.890 176.742 C 376.876 175.180,376.576 162.808,376.529 161.861 C 376.484 160.936,376.328 160.578,375.475 159.440 C 374.286 157.852,374.246 158.370,375.971 153.083 C 377.775 147.558,377.731 148.259,376.417 145.957 C 375.389 144.155,375.431 144.253,375.559 143.949 C 375.687 143.645,374.214 144.318,389.448 137.597 C 391.719 136.595,393.727 135.699,393.910 135.605 C 394.444 135.333,394.676 134.920,395.192 133.325 C 395.638 131.946,397.764 125.455,399.285 120.826 C 400.340 117.618,400.493 117.986,397.360 116.173 C 396.150 115.473,394.008 114.230,392.600 113.410 C 389.919 111.849,389.649 111.736,389.551 112.129 M345.576 142.149 C 345.452 142.230,345.304 142.365,345.247 142.448 C 345.161 142.574,343.607 147.230,343.344 148.152 C 343.246 148.495,343.361 148.774,343.644 148.882 C 344.038 149.031,357.050 148.984,357.267 148.832 C 357.623 148.583,357.619 148.478,357.154 145.501 C 356.643 142.223,356.698 142.463,356.390 142.204 L 356.148 142.000 350.974 142.001 C 346.075 142.001,345.788 142.009,345.576 142.149 M0.771 261.122 C 0.493 261.206,0.261 261.408,0.112 261.696 C -0.094 262.094,-0.050 296.996,0.156 297.336 C 0.518 297.928,-0.445 297.880,11.080 297.880 C 22.605 297.880,21.642 297.928,22.004 297.336 C 22.155 297.087,22.160 296.857,22.168 288.600 C 22.176 280.013,22.184 279.741,22.419 279.695 C 22.599 279.661,22.468 279.496,27.563 286.228 C 28.573 287.563,29.978 289.417,30.684 290.348 C 31.390 291.279,32.800 293.140,33.818 294.485 C 35.877 297.205,36.009 297.353,36.638 297.663 L 37.080 297.880 45.073 297.902 C 53.898 297.926,53.507 297.946,54.286 297.421 C 54.582 297.221,55.113 296.577,56.556 294.667 C 57.592 293.296,58.887 291.586,59.433 290.867 C 59.979 290.148,61.530 288.102,62.880 286.320 C 67.787 279.839,67.880 279.721,68.052 279.696 C 68.319 279.657,68.318 279.608,68.319 288.503 C 68.320 298.129,68.268 297.406,68.983 297.752 L 69.331 297.920 79.440 297.920 L 89.549 297.920 89.904 297.748 C 90.623 297.400,90.556 299.264,90.558 279.457 C 90.560 259.625,90.630 261.563,89.897 261.208 L 89.549 261.040 76.600 261.040 C 62.177 261.040,63.130 261.003,62.352 261.589 C 62.080 261.794,61.338 262.705,59.928 264.562 C 57.845 267.308,52.648 274.167,48.291 279.920 C 45.478 283.635,45.360 283.746,44.785 283.226 C 44.611 283.069,44.334 282.705,35.013 270.400 C 33.163 267.958,31.376 265.600,31.042 265.160 C 30.707 264.720,29.992 263.777,29.451 263.065 C 28.410 261.691,28.059 261.378,27.309 261.153 C 26.879 261.023,1.200 260.994,0.771 261.122 M126.192 261.173 C 125.370 261.416,125.245 261.560,120.819 267.402 C 118.519 270.437,115.873 273.927,114.939 275.159 C 114.004 276.390,112.435 278.460,111.452 279.759 C 110.468 281.057,108.749 283.326,107.633 284.800 C 106.516 286.274,104.603 288.800,103.381 290.413 C 102.160 292.026,100.521 294.188,99.740 295.217 C 98.224 297.215,98.063 297.537,98.475 297.757 C 98.579 297.813,102.220 297.840,109.695 297.840 L 120.760 297.840 121.242 297.612 C 121.944 297.280,121.771 297.481,124.827 293.440 C 125.910 292.007,126.070 291.835,126.587 291.549 L 127.000 291.320 142.880 291.296 C 154.543 291.279,158.845 291.297,159.080 291.364 C 159.753 291.554,160.103 291.873,161.127 293.223 C 164.398 297.539,164.273 297.396,165.036 297.686 C 165.678 297.930,187.496 297.927,187.717 297.683 C 187.981 297.392,187.822 297.087,186.505 295.360 C 185.336 293.827,180.495 287.444,177.403 283.359 C 176.653 282.368,174.924 280.088,173.560 278.291 C 172.196 276.495,170.435 274.174,169.647 273.133 C 160.070 260.483,160.854 261.445,159.885 261.157 C 159.282 260.978,126.801 260.993,126.192 261.173 M198.835 261.115 C 197.959 261.325,197.718 261.554,195.993 263.811 C 194.524 265.736,194.177 266.311,194.010 267.104 C 193.883 267.704,193.883 291.256,194.010 291.856 C 194.176 292.642,194.526 293.225,195.947 295.089 C 197.555 297.197,197.679 297.332,198.304 297.649 L 198.760 297.880 233.080 297.880 C 267.257 297.880,267.401 297.879,267.668 297.720 C 268.262 297.365,268.240 297.593,268.240 291.703 C 268.240 285.891,268.258 286.110,267.734 285.726 L 267.508 285.560 242.160 285.520 L 216.812 285.480 216.586 285.312 C 216.012 284.884,216.040 285.180,216.040 279.480 C 216.040 273.780,216.012 274.076,216.586 273.648 L 216.812 273.480 242.160 273.440 L 267.508 273.400 267.734 273.234 C 268.258 272.850,268.240 273.071,268.240 267.239 C 268.240 261.256,268.274 261.579,267.599 261.222 L 267.255 261.040 233.167 261.048 C 214.419 261.053,198.970 261.083,198.835 261.115 M278.756 261.153 C 278.434 261.293,278.098 261.702,278.040 262.022 C 278.015 262.164,278.005 270.116,278.017 279.694 L 278.040 297.108 278.205 297.329 C 278.658 297.936,277.558 297.880,289.106 297.880 C 299.257 297.880,299.404 297.878,299.668 297.720 C 300.226 297.386,300.240 297.302,300.241 294.143 C 300.242 290.392,300.212 290.461,302.367 289.340 C 303.023 288.999,303.974 288.502,304.480 288.235 C 304.986 287.967,305.814 287.530,306.320 287.263 C 307.615 286.580,309.842 285.402,310.600 285.000 C 314.147 283.115,314.076 283.122,315.720 284.476 C 317.336 285.806,317.628 286.045,317.923 286.280 C 318.089 286.412,321.063 288.845,324.532 291.687 C 331.904 297.725,331.554 297.452,332.231 297.692 L 332.760 297.880 345.052 297.901 C 353.028 297.915,357.416 297.895,357.552 297.843 C 358.063 297.649,357.891 297.430,356.040 295.922 C 355.380 295.384,354.195 294.416,353.406 293.772 C 352.617 293.127,351.662 292.348,351.284 292.040 C 350.905 291.732,350.115 291.084,349.528 290.600 C 348.942 290.116,348.325 289.612,348.159 289.480 C 346.158 287.894,330.779 275.230,330.720 275.120 C 330.394 274.511,329.797 274.861,343.040 267.886 C 349.618 264.421,355.045 261.549,355.100 261.503 C 355.295 261.342,355.215 261.130,354.940 261.081 C 354.187 260.945,324.681 261.080,324.200 261.220 C 323.508 261.423,323.157 261.602,315.040 265.898 C 304.057 271.709,301.030 273.280,300.811 273.280 C 300.216 273.280,300.240 273.528,300.240 267.408 C 300.240 261.225,300.276 261.568,299.597 261.220 L 299.246 261.040 289.123 261.043 C 280.887 261.046,278.955 261.066,278.756 261.153 M145.678 271.727 C 146.630 272.010,146.537 271.907,149.950 276.429 C 152.773 280.169,152.818 280.239,152.588 280.494 C 152.397 280.704,133.856 280.724,133.646 280.514 C 133.358 280.227,133.150 280.544,136.610 275.984 C 140.197 271.257,139.657 271.621,143.085 271.608 C 144.846 271.602,145.331 271.624,145.678 271.727 " stroke="none" fill="#231F20" fill-rule="evenodd"></path></g></svg>