<svg id="svg" version="1.1" xmlns="http://www.w3.org/2000/svg"  width="400" height="400" viewBox="0, 0, 400,400"><g id="svgg"><path id="path0" d="M0.165 198.233 C 0.166 224.498,0.116 223.190,1.170 224.334 C 2.502 225.779,-0.203 225.647,28.196 225.647 L 53.350 225.647 54.007 225.292 C 54.868 224.828,55.472 224.176,55.885 223.263 C 56.217 222.530,56.220 222.315,56.223 198.315 L 56.227 174.106 53.677 174.106 L 51.126 174.106 50.738 174.969 C 49.378 177.998,45.386 177.972,44.076 174.927 L 43.723 174.106 41.019 174.106 L 38.316 174.106 37.963 174.927 C 36.648 177.983,32.567 177.983,31.252 174.927 L 30.899 174.106 27.983 174.106 L 25.067 174.106 24.782 174.909 C 23.693 177.975,19.389 177.937,18.361 174.852 L 18.139 174.188 15.293 174.188 L 12.446 174.188 12.236 174.795 C 11.140 177.959,6.523 177.944,5.573 174.774 L 5.373 174.106 2.769 174.106 L 0.164 174.106 0.165 198.233 M4.519 176.434 C 6.614 179.599,11.260 179.667,13.191 176.561 L 13.695 175.750 15.290 175.750 L 16.885 175.750 17.389 176.561 C 19.300 179.635,23.654 179.633,25.800 176.558 L 26.364 175.750 28.020 175.750 L 29.676 175.750 30.251 176.524 C 32.569 179.644,36.954 179.599,39.049 176.434 L 39.501 175.750 41.015 175.750 L 42.530 175.750 43.090 176.580 C 45.159 179.645,50.631 179.434,51.955 176.237 C 52.153 175.759,52.180 175.750,53.372 175.750 L 54.587 175.750 54.544 199.137 L 54.501 222.524 54.129 223.045 C 53.331 224.163,55.009 224.099,27.860 224.049 C 0.513 223.998,2.874 224.105,2.130 222.885 C 1.817 222.370,1.810 221.864,1.809 199.055 L 1.808 175.750 2.937 175.750 L 4.066 175.750 4.519 176.434 M255.405 183.501 C 246.521 184.629,241.982 191.951,242.823 203.797 C 243.576 214.397,248.566 219.077,259.104 219.068 C 271.403 219.057,277.284 212.485,276.458 199.671 C 275.656 187.208,268.640 181.819,255.405 183.501 M72.667 187.505 L 72.667 191.204 77.517 191.204 L 82.367 191.204 82.367 204.603 L 82.367 218.002 86.806 218.002 L 91.245 218.002 91.245 204.603 L 91.245 191.204 96.095 191.204 L 100.945 191.204 100.945 187.505 L 100.945 183.806 86.806 183.806 L 72.667 183.806 72.667 187.505 M104.891 200.904 L 104.891 218.002 109.330 218.002 L 113.769 218.002 113.769 211.180 L 113.769 204.357 118.948 204.357 L 124.127 204.357 124.127 211.180 L 124.127 218.002 128.648 218.002 L 133.169 218.002 133.169 200.904 L 133.169 183.806 128.648 183.806 L 124.127 183.806 124.127 190.464 L 124.127 197.123 118.948 197.123 L 113.769 197.123 113.769 190.464 L 113.769 183.806 109.330 183.806 L 104.891 183.806 104.891 200.904 M141.389 184.031 C 139.490 184.445,138.251 185.411,137.458 187.094 L 137.032 187.998 137.032 200.740 L 137.032 213.481 137.425 214.454 C 138.770 217.794,139.620 217.990,152.774 217.997 L 162.269 218.002 162.269 214.308 L 162.269 210.614 154.545 210.568 L 146.822 210.522 146.366 210.067 C 145.913 209.614,145.910 209.598,145.858 207.066 L 145.805 204.521 153.955 204.521 L 162.104 204.521 162.104 200.904 L 162.104 197.287 153.966 197.287 L 145.828 197.287 145.828 195.153 C 145.828 191.039,145.232 191.306,154.624 191.204 L 162.187 191.122 162.231 187.464 L 162.275 183.806 152.284 183.820 C 145.174 183.830,142.033 183.890,141.389 184.031 M166.379 200.904 L 166.379 218.002 170.818 218.002 L 175.257 218.002 175.257 211.404 L 175.257 204.806 178.175 204.894 C 184.586 205.088,185.779 206.543,185.779 214.173 L 185.779 218.002 190.225 218.002 L 194.672 218.002 194.623 211.961 L 194.575 205.919 194.141 204.733 C 193.647 203.381,192.998 202.482,192.034 201.814 L 191.366 201.351 192.164 200.586 C 195.386 197.496,195.529 190.238,192.434 186.797 C 189.979 184.066,188.534 183.806,175.820 183.806 L 166.379 183.806 166.379 200.904 M198.931 200.902 L 198.931 218.002 203.370 218.002 L 207.809 218.002 207.822 206.700 L 207.835 195.397 211.248 205.590 C 215.644 218.716,215.215 218.002,218.712 218.002 C 222.296 218.002,221.882 218.688,226.246 205.508 L 229.593 195.397 229.635 206.700 L 229.678 218.002 234.115 218.002 L 238.553 218.002 238.553 200.904 L 238.553 183.806 231.765 183.806 L 224.977 183.806 224.434 185.491 C 224.135 186.418,222.739 190.691,221.333 194.986 L 218.776 202.795 215.622 193.342 L 212.468 183.888 205.699 183.845 L 198.931 183.802 198.931 200.902 M289.519 200.904 L 289.519 218.002 293.958 218.002 L 298.397 218.002 298.397 209.844 C 298.397 203.336,298.439 201.721,298.603 201.857 C 298.716 201.952,301.212 205.620,304.151 210.009 L 309.494 217.989 314.477 217.996 C 318.420 218.001,319.435 217.960,319.341 217.797 C 319.275 217.684,316.792 213.916,313.823 209.425 C 310.854 204.933,308.382 201.145,308.329 201.008 C 308.269 200.852,310.237 197.740,313.612 192.652 C 316.571 188.194,319.101 184.379,319.235 184.176 L 319.479 183.806 314.555 183.806 L 309.631 183.806 304.055 192.150 L 298.479 200.493 298.437 192.150 L 298.394 183.806 293.957 183.806 L 289.519 183.806 289.519 200.904 M322.400 200.904 L 322.400 218.002 326.839 218.002 L 331.278 218.002 331.278 200.904 L 331.278 183.806 326.839 183.806 L 322.400 183.806 322.400 200.904 M335.553 200.902 L 335.553 218.002 339.992 218.002 L 344.431 218.002 344.431 208.631 C 344.431 203.477,344.486 199.264,344.554 199.269 C 344.622 199.274,346.860 202.943,349.527 207.423 C 356.185 218.604,355.339 217.854,361.406 217.960 L 365.310 218.029 365.310 200.917 L 365.310 183.806 360.789 183.806 L 356.268 183.806 356.268 191.739 L 356.268 199.671 351.533 191.780 L 346.798 183.888 341.175 183.845 L 335.553 183.802 335.553 200.902 M381.998 183.986 C 374.016 184.935,369.885 190.138,369.481 199.753 C 368.999 211.201,373.639 217.104,383.698 217.841 C 384.842 217.924,388.942 217.995,392.807 217.998 L 399.836 218.002 399.836 207.809 L 399.836 197.616 392.520 197.616 L 385.203 197.616 385.203 201.151 L 385.203 204.686 388.081 204.686 L 390.958 204.686 390.958 207.645 L 390.958 210.604 387.909 210.604 C 380.368 210.604,378.770 209.013,378.512 201.251 C 378.357 196.588,378.910 194.400,380.694 192.616 C 382.116 191.194,382.038 191.204,391.539 191.204 L 399.836 191.204 399.836 187.505 L 399.836 183.806 391.492 183.827 C 386.903 183.839,382.630 183.910,381.998 183.986 M5.754 188.081 L 5.754 192.191 13.393 192.191 C 20.778 192.191,21.038 192.201,21.203 192.509 C 21.316 192.720,21.373 197.103,21.373 205.579 L 21.373 218.331 28.360 218.331 L 35.347 218.331 35.347 205.353 C 35.347 196.675,35.403 192.340,35.516 192.270 C 35.608 192.213,39.159 192.174,43.407 192.184 L 51.130 192.202 51.130 188.086 L 51.130 183.970 28.442 183.970 L 5.754 183.970 5.754 188.081 M262.108 190.886 C 265.695 191.581,267.376 195.011,267.383 201.644 C 267.391 208.416,265.532 211.224,260.686 211.762 C 254.949 212.399,252.083 209.414,251.766 202.469 C 251.347 193.294,254.768 189.463,262.108 190.886 M184.645 191.577 C 186.235 192.640,186.205 196.366,184.600 197.232 C 184.122 197.490,183.498 197.534,179.655 197.587 L 175.257 197.648 175.257 194.426 L 175.257 191.204 179.672 191.204 C 183.988 191.204,184.099 191.213,184.645 191.577 M5.754 206.083 L 5.754 218.331 11.588 218.331 L 17.421 218.331 17.465 214.262 L 17.509 210.193 18.948 210.146 L 20.386 210.098 20.386 206.077 L 20.386 202.055 18.989 202.055 L 17.591 202.055 17.591 197.945 L 17.591 193.835 11.673 193.835 L 5.754 193.835 5.754 206.083 M40.814 193.963 L 39.457 194.012 39.446 196.842 C 39.428 201.495,39.217 201.977,37.223 201.925 L 36.334 201.901 36.334 206.006 L 36.334 210.111 36.967 210.111 C 39.056 210.111,39.359 210.713,39.431 215.002 L 39.487 218.331 45.144 218.331 L 50.801 218.331 50.801 216.595 C 50.801 209.425,48.685 207.140,41.800 206.873 L 39.293 206.776 39.293 206.062 L 39.293 205.347 40.485 205.448 C 42.354 205.605,45.021 205.272,46.573 204.687 C 48.931 203.799,49.978 202.296,50.559 198.965 C 50.772 197.740,50.926 194.216,50.771 194.087 C 50.685 194.015,42.268 193.911,40.814 193.963 " stroke="none" fill-rule="evenodd"></path></g></svg>