<svg id="svg" version="1.1" xmlns="http://www.w3.org/2000/svg"  width="400" height="400" viewBox="0, 0, 400,400"><g id="svgg"><path id="path0" d="M328.409 55.697 C 311.404 57.716,289.799 64.252,269.156 73.623 C 268.352 73.988,266.161 74.974,264.286 75.815 C 257.982 78.641,247.080 84.182,236.526 89.923 C 222.363 97.627,202.045 110.451,184.194 122.954 C 176.667 128.226,176.645 128.247,178.840 128.247 C 180.360 128.247,180.817 128.031,184.805 125.432 C 263.319 74.259,335.872 52.278,355.090 73.840 C 367.278 87.515,355.841 118.376,324.879 155.357 C 322.636 158.036,320.796 160.337,320.790 160.471 C 320.765 161.026,325.492 160.730,325.984 160.146 C 366.576 111.946,379.463 83.477,368.193 66.901 C 361.970 57.749,346.892 53.503,328.409 55.697 M64.123 222.420 C 60.758 223.401,37.058 249.089,26.097 263.636 C -19.812 324.570,-3.180 358.242,63.799 339.963 C 65.049 339.621,66.948 339.106,68.019 338.818 C 98.569 330.587,146.777 306.600,190.828 277.711 C 197.313 273.457,197.491 273.202,193.750 273.521 L 191.071 273.749 184.253 278.046 C 176.476 282.947,172.663 285.254,165.425 289.437 C 153.045 296.590,134.871 306.067,124.351 310.855 C 122.833 311.546,120.714 312.514,119.643 313.007 C 84.475 329.178,50.063 337.491,31.656 334.262 C -2.467 328.276,8.696 286.810,59.331 231.464 C 67.315 222.737,67.521 222.500,67.304 222.283 C 67.024 222.002,65.304 222.076,64.123 222.420 M130.411 234.957 C 130.292 235.076,130.195 238.436,130.195 242.424 C 130.195 246.412,130.099 249.675,129.983 249.675 C 129.866 249.675,128.953 249.274,127.953 248.784 C 118.832 244.312,109.382 254.317,113.312 264.286 C 115.881 270.803,124.248 273.603,129.058 269.555 C 129.965 268.792,130.041 268.778,130.149 269.351 C 130.396 270.664,130.823 270.811,134.224 270.758 C 136.026 270.730,137.683 270.559,137.906 270.379 C 138.334 270.033,138.534 236.346,138.115 235.254 C 137.910 234.721,130.917 234.451,130.411 234.957 M231.465 235.708 C 227.302 236.930,226.855 242.114,230.742 244.115 C 233.079 245.319,236.353 243.514,236.874 240.735 C 237.431 237.769,234.314 234.872,231.465 235.708 M71.507 254.292 L 71.591 270.617 75.649 270.617 L 79.708 270.617 79.708 254.383 L 79.708 238.149 75.565 238.058 L 71.423 237.968 71.507 254.292 M305.087 238.203 C 304.558 238.732,304.848 270.377,305.384 270.582 C 306.208 270.898,312.453 270.799,312.987 270.461 C 313.527 270.120,313.934 245.222,313.480 240.370 L 313.256 237.987 309.280 237.987 C 307.093 237.987,305.206 238.084,305.087 238.203 M194.382 242.090 C 194.258 242.214,194.156 243.680,194.156 245.346 L 194.156 248.377 193.054 248.377 C 191.700 248.377,191.558 248.696,191.558 251.750 C 191.558 254.010,191.997 255.319,192.707 255.179 C 194.182 254.889,194.156 254.757,194.156 262.473 C 194.156 271.599,193.774 270.779,198.022 270.779 C 202.604 270.779,202.273 271.415,202.273 262.613 L 202.273 255.226 204.302 255.129 L 206.331 255.032 206.424 251.720 L 206.516 248.408 204.475 248.311 L 202.435 248.214 202.273 245.130 L 202.110 242.045 198.359 241.955 C 196.296 241.905,194.506 241.965,194.382 242.090 M96.975 248.198 C 95.837 248.604,95.194 249.036,93.841 250.304 C 93.402 250.715,93.325 250.640,93.182 249.654 L 93.019 248.539 89.773 248.444 C 87.987 248.392,86.195 248.432,85.791 248.532 L 85.056 248.716 85.142 259.666 L 85.227 270.617 88.752 270.709 C 93.497 270.834,93.182 271.329,93.182 263.749 C 93.182 256.973,93.406 255.757,94.843 254.750 C 96.025 253.922,98.470 254.053,99.576 255.004 L 100.487 255.787 100.649 263.202 L 100.812 270.617 104.447 270.709 C 107.896 270.795,108.102 270.764,108.461 270.093 C 109.088 268.921,108.684 254.482,107.968 252.517 C 106.572 248.682,101.360 246.634,96.975 248.198 M178.161 248.059 C 174.039 249.103,171.753 251.824,171.753 255.684 C 171.753 259.306,173.215 260.717,178.206 261.910 C 181.041 262.588,182.003 263.509,181.016 264.600 C 179.855 265.882,177.362 265.663,174.083 263.990 L 172.738 263.304 171.424 265.919 C 169.927 268.895,169.941 268.965,172.201 269.961 C 180.489 273.615,189.286 270.124,189.286 263.181 C 189.286 259.248,187.212 257.219,182.305 256.351 C 179.732 255.895,178.708 254.454,180.338 253.582 C 181.104 253.172,182.218 253.211,185.123 253.751 L 186.317 253.973 187.503 251.617 C 188.803 249.036,188.793 248.995,186.688 248.361 C 185.094 247.881,179.626 247.687,178.161 248.059 M248.501 248.186 C 238.478 250.618,236.729 265.294,245.923 269.820 C 252.543 273.079,261.196 270.943,263.469 265.489 C 264.193 263.749,263.998 263.636,260.253 263.636 C 257.025 263.636,256.865 263.670,255.682 264.610 C 252.819 266.886,248.106 265.229,248.063 261.932 L 248.052 261.039 256.169 261.039 L 264.286 261.039 264.286 259.141 C 264.286 251.116,257.069 246.106,248.501 248.186 M274.787 248.044 C 266.654 249.783,265.518 259.557,273.223 261.498 C 277.332 262.532,278.513 263.345,277.566 264.486 C 276.489 265.783,273.912 265.687,271.036 264.242 C 269.250 263.345,269.103 263.426,267.750 266.062 C 266.379 268.733,266.396 268.901,268.123 269.759 C 274.401 272.877,282.930 271.197,285.102 266.414 C 287.189 261.819,284.939 257.883,279.448 256.524 C 276.671 255.837,275.974 255.430,275.974 254.498 C 275.974 253.290,278.719 252.870,281.107 253.712 C 282.114 254.067,282.497 254.086,282.733 253.793 C 283.063 253.382,285.065 249.463,285.065 249.228 C 285.065 248.344,277.473 247.469,274.787 248.044 M330.367 248.245 C 329.658 248.504,328.700 249.079,328.239 249.521 C 327.152 250.561,326.691 250.537,326.564 249.432 L 326.461 248.539 322.937 248.446 C 318.111 248.320,318.540 247.226,318.556 259.608 C 318.572 271.959,318.114 270.849,323.133 270.709 L 326.461 270.617 326.623 263.636 C 326.767 257.446,326.856 256.551,327.411 255.733 C 328.571 254.021,331.440 253.647,333.018 255.004 L 333.929 255.787 334.028 263.032 C 334.099 268.198,334.238 270.347,334.515 270.523 C 334.976 270.816,340.956 270.865,341.694 270.582 C 342.841 270.142,342.270 253.942,341.024 251.531 C 339.383 248.358,334.321 246.797,330.367 248.245 M354.293 248.231 C 341.422 251.696,343.329 270.037,356.693 271.323 C 361.663 271.801,363.312 270.696,363.312 266.887 C 363.312 263.512,363.321 263.525,361.465 264.346 C 355.434 267.014,350.935 259.018,356.251 255.079 C 357.403 254.226,360.116 254.159,361.647 254.946 C 362.249 255.256,362.870 255.430,363.026 255.333 C 363.387 255.110,363.394 249.658,363.034 249.092 C 362.286 247.911,357.303 247.421,354.293 248.231 M221.429 248.426 C 220.267 248.764,218.324 250.063,217.637 250.961 C 217.187 251.549,216.979 251.181,216.816 249.513 L 216.721 248.539 212.987 248.539 L 209.253 248.539 209.253 259.578 L 209.253 270.617 212.987 270.617 L 216.721 270.617 216.885 264.773 C 217.126 256.248,217.898 255.044,222.981 255.280 L 225.670 255.404 225.578 251.809 L 225.487 248.214 224.026 248.155 C 223.222 248.122,222.054 248.244,221.429 248.426 M143.263 248.592 C 142.743 248.802,142.692 262.511,143.204 264.448 C 144.497 269.334,147.534 271.177,154.383 271.234 C 164.602 271.319,166.396 269.118,166.396 256.494 L 166.396 248.539 162.829 248.446 C 158.158 248.324,158.442 247.841,158.442 255.922 C 158.442 264.168,158.124 264.935,154.708 264.935 C 151.279 264.935,150.974 264.187,150.974 255.763 C 150.974 251.057,150.862 249.044,150.584 248.766 C 150.198 248.380,144.145 248.236,143.263 248.592 M228.723 248.774 C 228.635 249.005,228.601 254.014,228.648 259.905 L 228.734 270.617 232.468 270.617 L 236.201 270.617 236.201 259.578 L 236.201 248.539 232.543 248.447 C 229.786 248.378,228.844 248.459,228.723 248.774 M254.339 253.370 C 255.494 253.853,256.921 255.415,256.632 255.882 C 256.370 256.307,248.377 256.249,248.377 255.823 C 248.377 253.849,251.959 252.375,254.339 253.370 M128.297 255.439 C 132.300 257.803,130.376 264.457,125.709 264.386 C 123.033 264.346,121.196 262.993,120.788 260.762 C 119.955 256.209,124.339 253.102,128.297 255.439 " stroke="none" fill="#f3a42c" fill-rule="evenodd"></path><path id="path1" d="M26.206 165.724 C 25.951 165.979,24.847 169.741,23.754 174.084 C 22.660 178.427,18.987 192.977,15.591 206.418 C 12.194 219.859,9.416 230.926,9.416 231.012 C 9.416 231.098,16.040 231.169,24.136 231.169 L 38.857 231.169 40.581 224.432 C 41.529 220.726,42.422 217.375,42.565 216.984 L 42.826 216.273 58.832 216.159 C 76.667 216.032,76.400 216.064,80.812 213.556 C 90.580 208.003,97.799 190.638,95.289 178.734 C 93.919 172.237,89.263 167.487,82.583 165.772 C 79.717 165.036,26.939 164.991,26.206 165.724 M109.159 165.665 C 108.830 166.061,92.532 229.891,92.532 230.781 C 92.532 231.086,95.863 231.156,107.209 231.091 L 121.886 231.006 124.183 221.753 L 126.480 212.500 128.070 212.500 L 129.660 212.500 133.093 221.830 L 136.526 231.160 152.679 231.165 C 161.563 231.167,168.831 231.114,168.831 231.047 C 168.831 230.981,168.479 230.287,168.048 229.505 C 166.129 226.022,154.221 203.132,154.221 202.926 C 154.221 202.799,156.011 202.607,158.198 202.498 C 169.005 201.958,174.938 197.530,177.721 187.926 C 181.031 176.504,178.227 169.607,168.938 166.321 L 166.396 165.422 137.955 165.329 C 114.696 165.253,109.450 165.315,109.159 165.665 M208.507 166.640 C 207.990 167.399,205.448 171.526,202.858 175.812 C 200.268 180.097,193.576 191.128,187.986 200.325 C 182.397 209.521,176.149 219.821,174.103 223.214 C 172.056 226.607,170.096 229.785,169.747 230.276 L 169.112 231.169 184.475 231.169 L 199.838 231.168 201.948 227.354 L 204.058 223.539 213.799 223.539 L 223.539 223.539 223.630 227.354 L 223.722 231.169 239.296 231.169 L 254.870 231.169 254.870 198.214 L 254.870 165.260 232.158 165.260 L 209.447 165.260 208.507 166.640 M269.364 165.990 C 269.020 166.540,264.137 185.012,263.850 186.851 C 263.817 187.058,266.816 187.207,272.159 187.262 C 276.757 187.310,280.519 187.424,280.519 187.517 C 280.519 187.610,279.799 190.493,278.919 193.924 C 278.039 197.355,275.620 206.883,273.543 215.097 C 271.466 223.312,269.693 230.288,269.602 230.601 C 269.446 231.136,270.299 231.169,284.321 231.169 L 299.206 231.169 300.408 226.380 C 301.070 223.746,303.562 213.920,305.947 204.545 L 310.283 187.500 319.010 187.413 C 323.811 187.366,327.857 187.208,328.001 187.064 C 328.146 186.919,329.488 181.954,330.983 176.030 L 333.701 165.260 301.760 165.260 L 269.820 165.260 269.364 165.990 M335.900 165.770 C 335.619 166.051,335.388 166.379,335.385 166.500 C 335.383 166.622,334.221 171.239,332.803 176.761 C 331.386 182.283,330.301 186.921,330.392 187.069 C 330.483 187.217,334.259 187.338,338.783 187.338 L 347.008 187.338 345.122 194.724 C 339.537 216.594,336.039 230.491,336.039 230.810 C 336.039 231.067,340.233 231.169,350.789 231.169 L 365.538 231.169 366.026 229.464 C 366.526 227.714,376.268 189.377,376.544 188.073 L 376.697 187.348 385.640 187.262 L 394.582 187.175 397.276 176.623 C 398.758 170.820,399.977 165.889,399.985 165.666 C 400.010 164.978,336.588 165.082,335.900 165.770 M150.674 185.689 C 152.633 187.648,151.604 192.180,148.904 193.487 C 147.050 194.384,131.494 194.537,131.494 193.658 C 131.494 193.385,131.944 191.266,132.494 188.950 L 133.495 184.740 141.610 184.740 L 149.725 184.740 150.674 185.689 M226.872 195.698 L 226.786 205.682 221.071 205.770 C 212.824 205.898,213.001 207.069,219.518 195.531 C 224.807 186.166,225.105 185.714,226.009 185.714 L 226.957 185.714 226.872 195.698 M66.290 187.724 C 70.460 189.591,68.679 196.982,63.726 198.357 C 62.259 198.764,47.403 198.826,47.403 198.424 C 47.403 198.126,49.075 191.535,49.873 188.691 L 50.358 186.960 57.728 187.075 C 63.685 187.168,65.326 187.292,66.290 187.724 " stroke="none" fill="#343c8c" fill-rule="evenodd"></path></g></svg>