<svg id="svg" xmlns="http://www.w3.org/2000/svg"  width="400" height="400" viewBox="0, 0, 400,400"><g id="svgg"><path id="path0" d="M329.545 55.664 C 297.941 59.065,255.626 76.863,209.430 106.186 C 200.468 111.874,188.198 120.112,182.630 124.179 C 181.380 125.092,179.824 126.164,179.172 126.562 C 177.395 127.647,177.316 128.247,178.948 128.247 C 180.097 128.247,181.120 127.703,186.486 124.240 C 189.901 122.036,194.448 119.165,196.591 117.861 C 204.929 112.786,206.069 112.094,207.955 110.971 C 209.026 110.333,210.414 109.521,211.039 109.166 C 211.664 108.811,213.125 107.977,214.286 107.311 C 215.446 106.646,217.346 105.585,218.506 104.954 C 219.667 104.323,222.005 103.044,223.701 102.111 C 241.112 92.543,257.966 84.689,276.299 77.601 C 298.220 69.125,321.242 64.459,335.335 65.635 C 371.940 68.689,367.676 103.621,324.272 156.278 C 320.517 160.833,320.546 160.714,323.192 160.714 L 325.280 160.714 327.332 158.353 C 349.986 132.282,366.476 106.254,370.611 90.041 C 376.750 65.966,360.469 52.336,329.545 55.664 M26.206 165.724 C 25.951 165.979,24.847 169.741,23.754 174.084 C 22.660 178.427,18.987 192.977,15.591 206.418 C 12.194 219.859,9.416 230.926,9.416 231.012 C 9.416 231.098,16.040 231.169,24.136 231.169 L 38.857 231.169 40.581 224.432 C 41.529 220.726,42.422 217.375,42.565 216.984 L 42.826 216.273 58.832 216.159 C 76.667 216.032,76.400 216.064,80.812 213.556 C 89.477 208.629,96.213 194.626,95.686 182.630 C 95.300 173.818,90.672 167.865,82.583 165.775 C 79.723 165.036,26.941 164.988,26.206 165.724 M109.159 165.665 C 108.830 166.061,92.532 229.891,92.532 230.781 C 92.532 231.086,95.863 231.156,107.209 231.091 L 121.886 231.006 124.183 221.753 L 126.480 212.500 128.070 212.500 L 129.660 212.500 133.093 221.830 L 136.526 231.160 152.679 231.165 C 161.563 231.167,168.831 231.114,168.831 231.047 C 168.831 230.981,168.479 230.287,168.048 229.505 C 166.129 226.022,154.221 203.132,154.221 202.926 C 154.221 202.799,156.011 202.607,158.198 202.498 C 169.005 201.958,174.938 197.530,177.721 187.926 C 181.031 176.504,178.227 169.607,168.938 166.321 L 166.396 165.422 137.955 165.329 C 114.696 165.253,109.450 165.315,109.159 165.665 M208.507 166.640 C 207.990 167.399,205.448 171.526,202.858 175.812 C 200.268 180.097,193.576 191.128,187.986 200.325 C 182.397 209.521,176.149 219.821,174.103 223.214 C 172.056 226.607,170.096 229.785,169.747 230.276 L 169.112 231.169 184.475 231.169 L 199.838 231.168 201.948 227.354 L 204.058 223.539 213.799 223.539 L 223.539 223.539 223.630 227.354 L 223.722 231.169 239.296 231.169 L 254.870 231.169 254.870 198.214 L 254.870 165.260 232.158 165.260 L 209.447 165.260 208.507 166.640 M269.364 165.990 C 269.020 166.540,264.137 185.012,263.850 186.851 C 263.817 187.058,266.816 187.207,272.159 187.262 C 276.757 187.310,280.519 187.424,280.519 187.517 C 280.519 187.610,279.799 190.493,278.919 193.924 C 278.039 197.355,275.620 206.883,273.543 215.097 C 271.466 223.312,269.693 230.288,269.602 230.601 C 269.446 231.136,270.299 231.169,284.321 231.169 L 299.206 231.169 300.408 226.380 C 301.070 223.746,303.562 213.920,305.947 204.545 L 310.283 187.500 319.010 187.413 C 323.811 187.366,327.857 187.208,328.001 187.064 C 328.146 186.919,329.488 181.954,330.983 176.030 L 333.701 165.260 301.760 165.260 L 269.820 165.260 269.364 165.990 M335.900 165.770 C 335.619 166.051,335.388 166.379,335.385 166.500 C 335.383 166.622,334.221 171.239,332.803 176.761 C 331.386 182.283,330.301 186.921,330.392 187.069 C 330.483 187.217,334.259 187.338,338.783 187.338 L 347.008 187.338 345.122 194.724 C 339.537 216.594,336.039 230.491,336.039 230.810 C 336.039 231.067,340.233 231.169,350.789 231.169 L 365.538 231.169 366.026 229.464 C 366.526 227.714,376.268 189.377,376.544 188.073 L 376.697 187.348 385.641 187.262 L 394.585 187.175 397.090 177.273 C 398.468 171.826,399.698 166.895,399.824 166.315 L 400.052 165.260 368.231 165.260 C 339.736 165.260,336.357 165.313,335.900 165.770 M150.674 185.689 C 152.633 187.648,151.604 192.180,148.904 193.487 C 147.050 194.384,131.494 194.537,131.494 193.658 C 131.494 193.385,131.944 191.266,132.494 188.950 L 133.495 184.740 141.610 184.740 L 149.725 184.740 150.674 185.689 M226.872 195.698 L 226.786 205.682 221.071 205.770 C 212.824 205.898,213.001 207.069,219.518 195.531 C 224.807 186.166,225.105 185.714,226.009 185.714 L 226.957 185.714 226.872 195.698 M66.290 187.724 C 70.460 189.591,68.679 196.982,63.726 198.357 C 62.259 198.764,47.403 198.826,47.403 198.424 C 47.403 198.126,49.075 191.535,49.873 188.691 L 50.358 186.960 57.728 187.075 C 63.685 187.168,65.326 187.292,66.290 187.724 M65.180 222.339 C 60.586 222.634,30.898 255.717,18.797 274.026 C -17.915 329.573,0.918 356.786,64.286 339.756 C 67.981 338.763,84.422 333.423,87.175 332.322 C 88.247 331.893,91.680 330.523,94.805 329.277 C 99.685 327.332,103.549 325.699,107.630 323.859 C 108.166 323.617,110.226 322.688,112.208 321.793 C 133.173 312.330,160.806 296.980,185.227 281.231 C 198.020 272.981,197.805 273.172,193.912 273.535 C 190.968 273.809,191.435 273.593,185.227 277.538 C 100.149 331.597,22.509 350.886,12.908 320.349 C 7.044 301.701,28.170 263.167,65.225 224.923 C 67.541 222.533,67.535 222.188,65.180 222.339 M130.584 235.130 C 130.305 235.410,130.195 237.561,130.195 242.760 C 130.195 246.742,130.108 250.000,130.001 250.000 C 129.895 250.000,129.420 249.733,128.946 249.407 C 121.304 244.152,110.967 251.929,112.662 261.660 C 114.038 269.563,123.431 274.191,128.846 269.635 C 130.018 268.649,130.123 268.644,130.253 269.562 C 130.348 270.225,130.583 270.310,132.792 270.484 C 137.184 270.831,137.922 270.619,138.173 268.946 C 138.430 267.232,138.100 235.510,137.820 235.057 C 137.530 234.588,131.062 234.653,130.584 235.130 M230.166 236.455 C 226.323 239.045,228.666 245.069,233.219 244.301 C 234.897 244.019,236.514 242.426,236.830 240.745 C 237.500 237.172,233.205 234.407,230.166 236.455 M71.645 238.203 C 71.526 238.323,71.429 245.628,71.429 254.437 L 71.429 270.455 75.649 270.455 L 79.870 270.455 79.870 254.418 C 79.870 240.094,79.815 238.360,79.357 238.184 C 78.658 237.916,71.916 237.933,71.645 238.203 M305.209 238.457 C 304.973 238.741,304.891 243.851,304.948 254.583 L 305.032 270.292 309.175 270.383 L 313.318 270.474 313.234 254.312 L 313.149 238.149 309.352 238.095 C 306.606 238.056,305.458 238.157,305.209 238.457 M194.371 242.127 C 194.289 242.261,194.217 243.539,194.210 244.968 C 194.203 246.396,194.188 247.738,194.177 247.950 C 194.165 248.162,193.682 248.381,193.102 248.437 C 191.849 248.558,191.662 249.173,191.829 252.633 C 191.927 254.676,191.997 254.871,192.640 254.875 C 194.141 254.886,194.163 254.996,194.198 262.770 C 194.217 266.823,194.337 270.204,194.465 270.283 C 195.111 270.682,201.714 270.509,201.982 270.086 C 202.136 269.842,202.265 266.408,202.268 262.454 C 202.273 254.359,202.095 254.870,204.908 254.870 L 206.517 254.870 206.424 251.705 L 206.331 248.539 205.032 248.497 C 201.987 248.400,202.273 248.696,202.273 245.643 C 202.273 241.674,202.500 241.883,198.199 241.883 C 196.175 241.883,194.452 241.993,194.371 242.127 M97.890 248.031 C 96.539 248.360,95.082 249.157,94.348 249.967 C 93.526 250.875,93.245 250.827,93.122 249.756 L 93.019 248.864 89.248 248.773 L 85.476 248.681 85.254 250.357 C 85.008 252.211,85.049 269.385,85.301 270.042 C 85.436 270.394,92.698 270.710,92.908 270.373 C 92.936 270.329,93.045 267.117,93.151 263.236 L 93.344 256.180 94.382 255.143 C 95.831 253.695,98.236 253.609,99.586 254.958 L 100.487 255.857 100.649 263.075 L 100.812 270.292 104.627 270.384 L 108.442 270.475 108.442 262.360 C 108.442 254.956,108.383 254.088,107.771 252.454 C 106.431 248.872,102.205 246.980,97.890 248.031 M178.247 248.151 C 173.541 249.518,171.475 252.157,171.823 256.358 C 172.073 259.372,173.669 260.756,178.142 261.834 C 180.658 262.441,181.676 263.200,181.350 264.228 C 180.842 265.827,178.317 265.911,175.031 264.436 C 172.712 263.395,172.690 263.406,171.226 266.314 L 170.066 268.618 170.827 269.192 C 176.354 273.361,187.474 271.106,188.981 265.511 C 190.269 260.726,188.070 257.605,182.630 256.498 C 180.527 256.070,179.545 255.436,179.545 254.507 C 179.545 253.267,181.971 252.957,185.416 253.756 C 186.444 253.995,189.014 249.737,188.228 249.098 C 186.942 248.049,180.652 247.453,178.247 248.151 M249.026 248.176 C 236.279 250.993,237.190 269.277,250.165 271.030 C 252.539 271.351,256.328 271.081,257.898 270.479 C 261.537 269.083,265.394 264.039,262.906 263.928 C 259.638 263.783,256.349 264.059,255.890 264.518 C 253.381 267.027,248.052 265.456,248.052 262.208 C 248.052 260.829,247.155 260.955,257.305 260.908 L 264.123 260.877 264.080 258.538 C 263.941 251.075,257.129 246.386,249.026 248.176 M275.063 248.054 C 270.412 249.036,267.845 252.228,268.257 256.515 C 268.533 259.382,269.936 260.605,274.160 261.661 C 277.748 262.558,278.680 263.554,277.212 264.922 C 276.103 265.955,272.659 265.465,270.191 263.924 C 269.338 263.391,269.226 263.499,267.712 266.325 C 266.364 268.841,266.376 268.901,268.435 269.812 C 276.412 273.340,285.113 270.282,285.636 263.766 C 285.951 259.850,284.099 257.738,279.396 256.647 C 276.514 255.979,275.974 255.673,275.974 254.708 C 275.974 253.283,278.362 252.884,281.818 253.732 C 282.708 253.951,285.057 250.319,284.673 249.318 C 284.284 248.304,277.872 247.460,275.063 248.054 M331.331 248.011 C 329.951 248.375,328.510 249.171,327.790 249.967 C 326.967 250.875,326.687 250.827,326.564 249.756 L 326.461 248.864 322.646 248.772 L 318.831 248.681 318.831 259.578 L 318.831 270.475 322.646 270.384 L 326.461 270.292 326.623 263.203 L 326.786 256.114 327.827 255.185 C 329.188 253.969,330.769 253.676,332.229 254.369 C 333.923 255.173,334.056 255.784,334.112 263.037 C 334.140 266.655,334.235 269.804,334.324 270.035 C 334.604 270.765,341.876 270.622,341.907 269.886 C 342.456 257.076,341.852 251.914,339.556 249.772 C 337.935 248.259,333.770 247.368,331.331 248.011 M354.861 248.149 C 341.082 251.264,343.484 271.232,357.630 271.164 C 362.583 271.140,363.267 270.553,363.127 266.455 C 363.035 263.782,363.070 263.824,361.497 264.481 C 357.729 266.055,353.728 263.508,353.782 259.569 C 353.836 255.607,357.299 253.328,361.231 254.668 C 362.079 254.956,362.826 255.139,362.892 255.074 C 363.153 254.812,363.211 250.117,362.961 249.451 C 362.473 248.156,358.009 247.438,354.861 248.149 M221.634 248.544 C 220.253 248.894,218.655 249.851,217.870 250.797 C 217.192 251.613,216.883 251.379,216.883 250.049 L 216.883 248.799 213.718 248.594 C 211.976 248.481,210.223 248.477,209.821 248.583 L 209.091 248.777 209.091 259.616 L 209.091 270.455 212.961 270.455 L 216.831 270.455 216.938 264.692 C 217.099 256.077,218.774 254.021,224.675 255.196 L 225.487 255.357 225.579 251.867 C 225.649 249.214,225.571 248.364,225.254 248.326 C 223.945 248.167,222.863 248.232,221.634 248.544 M143.263 248.592 C 142.715 248.813,142.692 262.360,143.236 264.548 C 144.398 269.226,147.950 271.271,154.870 271.245 C 164.441 271.210,166.340 268.849,166.506 256.785 L 166.615 248.797 165.081 248.587 C 163.147 248.322,159.955 248.315,159.280 248.574 C 158.837 248.744,158.765 249.608,158.758 254.824 C 158.747 263.688,158.251 264.935,154.733 264.935 C 151.228 264.935,151.026 264.425,150.899 255.264 C 150.827 250.118,150.725 248.947,150.325 248.694 C 149.827 248.380,143.998 248.295,143.263 248.592 M228.571 259.578 L 228.571 270.455 232.468 270.455 L 236.364 270.455 236.364 259.578 L 236.364 248.701 232.468 248.701 L 228.571 248.701 228.571 259.578 M254.659 253.420 C 255.885 254.016,256.944 255.372,256.694 256.024 C 256.467 256.616,248.556 256.721,248.194 256.136 C 247.105 254.374,252.210 252.228,254.659 253.420 M127.918 255.284 C 131.421 257.137,131.410 262.065,127.898 263.901 C 125.579 265.114,122.532 264.393,121.322 262.345 C 118.630 257.787,123.266 252.824,127.918 255.284 " stroke="none" fill-rule="evenodd"></path></g></svg>