<svg id="svg" version="1.1" xmlns="http://www.w3.org/2000/svg"  width="400" height="400" viewBox="0, 0, 400,400"><g id="svgg"><path id="path0" d="M189.875 1.786 C 190.127 1.824,190.540 1.824,190.792 1.786 C 191.044 1.748,190.838 1.717,190.333 1.717 C 189.829 1.717,189.623 1.748,189.875 1.786 M207.295 1.787 C 207.594 1.825,208.044 1.824,208.295 1.786 C 208.545 1.748,208.300 1.717,207.750 1.718 C 207.200 1.719,206.995 1.750,207.295 1.787 M177.125 1.951 C 177.331 1.991,177.669 1.991,177.875 1.951 C 178.081 1.911,177.912 1.879,177.500 1.879 C 177.088 1.879,176.919 1.911,177.125 1.951 M219.877 1.953 C 220.131 1.991,220.506 1.990,220.711 1.951 C 220.916 1.911,220.708 1.880,220.250 1.881 C 219.792 1.882,219.624 1.915,219.877 1.953 M234.730 3.067 C 234.719 3.259,234.513 4.092,234.272 4.917 C 233.861 6.324,233.852 6.427,234.125 6.583 C 235.300 7.255,237.075 9.689,240.691 15.583 C 241.196 16.408,241.934 17.608,242.330 18.250 C 248.006 27.450,259.985 47.537,266.634 59.000 C 267.139 59.871,267.904 61.183,268.334 61.917 C 268.764 62.650,270.302 65.313,271.751 67.833 C 273.200 70.354,275.086 73.630,275.943 75.112 C 276.799 76.595,277.500 77.845,277.500 77.890 C 277.500 77.935,277.848 78.560,278.273 79.278 C 278.698 79.996,280.131 82.533,281.457 84.917 C 282.783 87.300,284.265 89.962,284.751 90.833 C 285.576 92.314,287.947 96.654,289.167 98.917 C 289.463 99.467,290.175 100.779,290.747 101.833 C 291.320 102.888,292.111 104.371,292.505 105.130 C 293.375 106.806,293.304 106.826,294.500 104.583 C 295.035 103.580,295.547 102.734,295.637 102.704 C 295.727 102.674,295.628 102.335,295.418 101.950 C 295.207 101.565,293.778 98.925,292.241 96.083 C 289.001 90.093,289.130 90.330,286.949 86.417 C 286.030 84.767,285.152 83.192,285.000 82.917 C 283.468 80.159,282.031 77.612,281.362 76.469 C 280.915 75.707,280.325 74.671,280.049 74.167 C 279.773 73.662,278.677 71.738,277.612 69.889 C 276.547 68.041,275.478 66.173,275.235 65.739 C 272.270 60.428,251.296 24.926,247.721 19.167 C 247.408 18.662,246.716 17.537,246.184 16.667 C 239.159 5.181,237.901 3.583,235.333 2.877 C 234.803 2.731,234.748 2.749,234.730 3.067 M217.577 115.000 C 217.663 115.156,220.204 120.406,221.288 122.667 C 221.881 123.904,222.734 125.679,223.183 126.612 C 223.633 127.544,224.000 128.343,224.000 128.386 C 224.000 128.430,224.494 129.505,225.097 130.775 C 225.701 132.044,226.369 133.458,226.583 133.917 C 227.651 136.207,228.458 137.963,228.632 138.375 L 228.826 138.833 233.080 138.833 C 235.419 138.833,237.333 138.806,237.333 138.772 C 237.333 138.738,236.649 137.295,235.813 135.564 C 234.977 133.833,233.660 131.104,232.886 129.500 C 232.112 127.896,230.196 123.980,228.629 120.797 L 225.779 115.011 221.655 114.964 C 219.387 114.938,217.552 114.954,217.577 115.000 M150.178 155.003 C 149.423 155.648,148.326 156.152,147.089 156.421 C 146.096 156.637,146.116 156.640,148.643 156.653 C 150.912 156.665,151.191 156.637,151.101 156.403 C 151.046 156.258,151.000 155.771,151.000 155.320 C 151.000 154.368,150.945 154.347,150.178 155.003 M313.583 155.440 C 313.400 155.585,312.957 155.838,312.598 156.003 L 311.946 156.304 313.140 156.360 L 314.334 156.417 314.334 155.792 C 314.333 155.107,314.128 155.011,313.583 155.440 M316.498 155.792 C 316.497 156.044,316.391 156.644,316.263 157.125 L 316.030 158.000 318.165 158.000 L 320.299 158.000 320.483 156.945 C 320.788 155.195,320.951 155.333,318.583 155.333 L 316.500 155.333 316.498 155.792 M153.409 157.418 C 153.533 157.832,153.773 158.507,153.943 158.918 L 154.250 159.665 158.637 159.666 C 162.066 159.667,163.012 159.621,162.968 159.458 C 162.938 159.344,162.730 158.669,162.508 157.958 L 162.103 156.667 157.643 156.667 L 153.183 156.667 153.409 157.418 M254.400 157.388 C 253.793 157.858,253.094 158.686,252.333 159.835 C 249.837 163.608,247.371 165.163,243.874 165.169 L 242.417 165.171 241.968 165.985 L 241.519 166.799 242.968 166.912 C 245.810 167.132,248.533 166.357,250.200 164.852 C 250.544 164.541,250.971 164.185,251.148 164.061 C 251.539 163.787,252.671 162.300,254.109 160.169 C 255.194 158.562,256.014 157.910,257.750 157.277 L 258.917 156.852 257.000 156.856 C 255.105 156.860,255.076 156.866,254.400 157.388 M76.519 157.167 C 76.515 157.212,76.648 157.737,76.814 158.333 L 77.117 159.417 79.286 159.463 L 81.454 159.509 81.102 158.505 L 80.750 157.500 78.722 157.500 C 77.256 157.500,76.671 157.442,76.610 157.292 C 76.564 157.177,76.523 157.121,76.519 157.167 M80.500 166.927 C 80.500 167.050,89.086 184.120,90.931 187.667 C 92.478 190.639,95.720 196.814,96.794 198.833 C 99.188 203.336,100.442 205.690,100.832 206.417 C 101.079 206.875,101.640 207.925,102.080 208.750 C 102.519 209.575,103.010 210.475,103.170 210.750 C 103.330 211.025,103.722 211.737,104.041 212.333 C 104.921 213.976,105.603 215.233,106.709 217.250 C 107.262 218.258,107.940 219.496,108.216 220.000 C 108.907 221.265,114.049 230.490,115.368 232.833 C 119.600 240.352,129.348 257.140,136.029 268.417 C 136.898 269.883,138.492 272.583,139.572 274.417 C 140.651 276.250,141.820 278.200,142.169 278.750 C 142.519 279.300,143.402 280.762,144.132 282.000 C 145.895 284.989,148.507 289.301,152.736 296.202 C 157.227 303.530,158.560 305.302,160.417 306.412 C 161.826 307.255,161.849 307.245,162.887 305.333 C 163.161 304.829,163.486 304.269,163.609 304.088 C 163.924 303.626,163.896 303.554,163.362 303.447 C 162.281 303.231,160.764 301.359,157.467 296.167 C 156.506 294.653,148.556 281.542,145.997 277.250 C 144.686 275.050,143.207 272.587,142.713 271.777 C 139.659 266.777,124.025 239.948,121.331 235.083 C 121.027 234.533,120.425 233.483,119.994 232.750 C 119.218 231.429,117.861 229.021,115.624 225.000 C 114.987 223.854,114.068 222.204,113.583 221.333 C 113.098 220.463,112.554 219.485,112.374 219.162 C 112.194 218.838,111.725 217.975,111.332 217.245 C 110.939 216.514,110.264 215.279,109.833 214.500 C 109.402 213.721,108.652 212.333,108.168 211.417 C 107.683 210.500,107.156 209.525,106.997 209.250 C 106.629 208.615,105.929 207.325,104.917 205.417 C 104.480 204.592,103.915 203.542,103.663 203.083 C 103.204 202.250,97.384 191.193,95.418 187.417 C 93.161 183.084,91.405 179.649,88.241 173.375 L 84.941 166.833 82.721 166.833 C 81.499 166.833,80.500 166.876,80.500 166.927 M252.222 212.458 L 218.528 212.501 217.743 214.042 C 217.311 214.890,216.902 215.658,216.833 215.750 C 216.765 215.842,216.371 216.554,215.957 217.333 C 215.544 218.112,214.759 219.575,214.212 220.583 C 213.665 221.592,212.896 223.017,212.502 223.750 C 212.108 224.483,211.722 225.155,211.643 225.242 C 211.564 225.329,211.500 225.460,211.500 225.533 C 211.500 225.607,226.594 225.665,245.042 225.663 L 278.583 225.660 279.440 224.121 C 282.596 218.455,286.015 212.283,285.947 212.375 C 285.930 212.397,270.754 212.435,252.222 212.458 M111.479 213.213 C 111.648 213.514,112.109 214.358,112.502 215.088 C 112.896 215.819,113.563 217.024,113.984 217.767 C 114.405 218.510,115.575 220.626,116.583 222.469 L 118.417 225.820 151.708 225.827 C 170.019 225.830,185.000 225.786,185.000 225.729 C 185.000 225.672,184.405 224.490,183.678 223.104 C 182.359 220.591,180.059 216.168,178.877 213.875 L 178.254 212.667 144.713 212.667 L 111.172 212.667 111.479 213.213 M186.375 303.955 C 186.719 303.991,187.281 303.991,187.625 303.955 C 187.969 303.919,187.688 303.889,187.000 303.889 C 186.313 303.889,186.031 303.919,186.375 303.955 M209.958 303.954 C 210.256 303.991,210.744 303.991,211.042 303.954 C 211.340 303.917,211.096 303.887,210.500 303.887 C 209.904 303.887,209.660 303.917,209.958 303.954 " stroke="none" fill="#5c5c5c" fill-rule="evenodd"></path><path id="path1" d="M192.125 1.790 C 192.698 1.823,193.635 1.823,194.208 1.790 C 194.781 1.758,194.313 1.731,193.167 1.731 C 192.021 1.731,191.552 1.758,192.125 1.790 M203.368 1.790 C 203.982 1.822,205.032 1.822,205.701 1.791 C 206.370 1.759,205.867 1.733,204.583 1.732 C 203.300 1.732,202.753 1.758,203.368 1.790 M233.329 3.197 C 233.224 3.593,233.033 4.254,232.903 4.667 C 232.470 6.042,232.503 6.222,233.204 6.341 L 233.825 6.446 234.085 5.515 C 234.228 5.002,234.460 4.217,234.600 3.769 C 234.882 2.869,234.828 2.753,234.051 2.590 C 233.536 2.481,233.513 2.501,233.329 3.197 M159.372 4.114 C 158.418 4.779,155.547 8.862,152.362 14.083 C 149.432 18.885,144.494 27.083,142.624 30.250 C 141.433 32.267,139.897 34.848,139.211 35.986 C 138.525 37.124,137.831 38.287,137.670 38.569 C 137.354 39.123,136.112 41.245,134.809 43.458 C 132.612 47.192,132.201 47.893,131.121 49.750 C 130.482 50.850,129.828 51.975,129.669 52.250 C 129.510 52.525,127.507 55.975,125.217 59.917 C 122.928 63.858,120.812 67.520,120.515 68.054 C 120.218 68.589,119.467 69.901,118.846 70.971 C 117.784 72.801,112.476 82.168,110.000 86.583 C 106.087 93.561,100.428 104.101,95.503 113.583 C 94.836 114.867,93.972 116.517,93.583 117.250 C 93.193 117.983,92.067 120.158,91.081 122.083 C 90.095 124.008,89.214 125.677,89.124 125.792 C 89.013 125.932,89.020 126.000,89.146 126.000 C 89.249 126.000,89.333 126.077,89.333 126.172 C 89.333 126.558,91.058 130.674,91.168 130.551 C 91.234 130.477,92.077 128.879,93.041 127.000 C 95.401 122.403,96.878 119.553,97.834 117.750 C 98.271 116.925,98.928 115.688,99.293 115.000 C 99.657 114.313,100.426 112.850,101.000 111.750 C 101.574 110.650,102.250 109.375,102.501 108.917 C 102.752 108.458,103.352 107.333,103.836 106.417 C 104.781 104.624,108.920 96.950,109.456 95.996 C 109.634 95.677,110.292 94.479,110.917 93.334 C 112.190 90.999,112.134 91.101,114.884 86.167 C 118.154 80.302,119.499 77.937,126.501 65.750 C 129.272 60.928,134.612 51.808,136.749 48.250 C 137.685 46.692,139.110 44.292,139.916 42.917 C 140.722 41.542,141.792 39.747,142.294 38.928 C 142.796 38.109,143.337 37.209,143.497 36.928 C 143.946 36.136,147.034 30.995,149.661 26.667 C 150.968 24.512,152.422 22.113,152.892 21.333 C 153.897 19.666,153.773 19.868,155.250 17.474 C 155.892 16.434,156.492 15.450,156.583 15.288 C 156.675 15.125,157.210 14.263,157.772 13.371 C 158.334 12.480,159.002 11.375,159.256 10.917 C 159.869 9.811,160.902 8.289,161.219 8.026 C 161.445 7.838,161.431 7.718,161.097 6.949 C 160.890 6.473,160.545 5.577,160.329 4.958 C 159.901 3.725,159.914 3.737,159.372 4.114 M235.083 7.500 C 235.441 7.867,235.772 8.167,235.818 8.167 C 235.863 8.167,235.608 7.867,235.250 7.500 C 234.892 7.133,234.562 6.833,234.516 6.833 C 234.470 6.833,234.725 7.133,235.083 7.500 M295.317 103.042 C 294.474 104.661,293.591 106.284,293.461 106.451 C 293.355 106.587,293.641 107.288,294.342 108.618 C 294.913 109.699,295.754 111.296,296.212 112.167 C 296.669 113.037,297.249 114.125,297.501 114.583 C 297.978 115.453,299.032 117.468,301.292 121.833 C 302.028 123.254,303.060 125.242,303.586 126.250 C 304.112 127.258,306.506 131.983,308.905 136.750 C 315.918 150.682,316.505 152.027,316.559 154.282 L 316.583 155.332 318.625 155.333 L 320.667 155.333 320.666 154.792 C 320.665 153.633,320.142 151.115,319.579 149.553 C 318.681 147.062,308.474 126.749,300.919 112.417 C 300.533 111.683,299.707 110.108,299.083 108.917 C 298.460 107.725,297.897 106.675,297.832 106.583 C 297.766 106.492,297.276 105.573,296.743 104.542 C 295.711 102.549,295.622 102.455,295.317 103.042 M229.488 140.208 C 230.731 142.906,232.636 147.142,233.336 148.765 L 233.558 149.281 234.352 148.326 C 235.222 147.282,236.498 146.167,236.825 146.167 C 236.939 146.167,237.256 146.007,237.530 145.812 C 237.805 145.616,238.497 145.259,239.070 145.018 L 240.111 144.578 239.563 143.414 C 239.262 142.774,238.658 141.481,238.220 140.542 L 237.424 138.833 233.140 138.833 L 228.855 138.833 229.488 140.208 M76.401 156.169 C 76.587 157.572,76.460 157.500,78.756 157.500 L 80.810 157.500 80.655 156.959 C 80.570 156.662,80.500 156.175,80.500 155.876 L 80.500 155.333 78.395 155.333 L 76.290 155.333 76.401 156.169 M98.875 156.792 C 104.535 156.816,113.798 156.816,119.458 156.792 C 125.119 156.767,120.487 156.747,109.167 156.747 C 97.846 156.747,93.215 156.767,98.875 156.792 M271.542 156.792 C 278.394 156.816,289.606 156.816,296.458 156.792 C 303.310 156.768,297.704 156.748,284.000 156.748 C 270.296 156.748,264.690 156.768,271.542 156.792 M252.441 157.335 C 252.209 157.610,251.588 158.492,251.062 159.293 C 249.079 162.309,246.655 163.833,243.839 163.833 C 243.036 163.833,242.995 163.857,242.667 164.500 L 242.327 165.167 243.828 165.167 C 247.368 165.167,249.863 163.601,252.333 159.832 C 252.899 158.969,253.732 157.908,253.943 157.783 C 254.067 157.709,254.374 157.468,254.626 157.246 L 255.083 156.844 253.973 156.839 C 252.941 156.834,252.833 156.868,252.441 157.335 M154.330 159.958 C 154.421 160.119,155.123 161.600,155.889 163.250 C 156.655 164.900,157.755 167.244,158.333 168.458 L 159.383 170.667 163.682 170.667 L 167.982 170.667 167.593 169.792 C 167.379 169.310,166.963 168.392,166.668 167.750 C 166.373 167.108,165.681 165.571,165.129 164.333 C 164.578 163.096,163.958 161.708,163.753 161.250 C 163.547 160.792,163.326 160.248,163.262 160.042 L 163.144 159.667 158.654 159.667 C 154.426 159.667,154.174 159.684,154.330 159.958 M151.789 225.833 L 118.494 225.917 120.040 228.667 C 120.890 230.179,122.558 233.123,123.746 235.208 L 125.905 239.000 158.953 239.000 C 177.129 239.000,192.000 238.953,192.000 238.895 C 192.000 238.838,191.557 237.956,191.016 236.937 C 190.475 235.917,188.919 232.983,187.558 230.417 L 185.083 225.750 151.789 225.833 M210.683 226.958 C 209.792 228.631,208.893 230.292,208.090 231.750 C 206.267 235.059,204.920 237.491,204.557 238.125 L 204.153 238.833 237.618 238.833 L 271.083 238.833 271.933 237.375 C 272.401 236.573,273.432 234.773,274.225 233.375 C 275.018 231.977,276.304 229.720,277.083 228.360 C 277.862 227.000,278.500 225.837,278.500 225.777 C 278.500 225.716,263.396 225.667,244.935 225.667 L 211.370 225.667 210.683 226.958 M218.044 303.786 C 218.297 303.825,218.672 303.824,218.877 303.784 C 219.082 303.744,218.875 303.713,218.417 303.714 C 217.958 303.716,217.791 303.748,218.044 303.786 M189.132 303.957 C 189.708 303.990,190.608 303.989,191.132 303.956 C 191.655 303.923,191.183 303.897,190.083 303.897 C 188.983 303.897,188.555 303.924,189.132 303.957 M206.034 303.957 C 206.649 303.989,207.699 303.989,208.368 303.957 C 209.036 303.926,208.533 303.899,207.250 303.899 C 205.967 303.899,205.420 303.925,206.034 303.957 " stroke="none" fill="#747c74" fill-rule="evenodd"></path><path id="path2" d="M186.382 1.790 C 187.004 1.823,187.979 1.822,188.549 1.790 C 189.118 1.757,188.608 1.731,187.417 1.731 C 186.225 1.732,185.759 1.758,186.382 1.790 M209.542 1.790 C 210.069 1.823,210.931 1.823,211.458 1.790 C 211.985 1.757,211.554 1.730,210.500 1.730 C 209.446 1.730,209.015 1.757,209.542 1.790 M210.361 100.625 C 210.688 101.361,213.537 106.965,213.659 107.111 C 213.747 107.217,213.868 107.499,213.928 107.736 C 213.987 107.973,214.097 108.167,214.171 108.167 C 214.246 108.167,214.355 108.386,214.414 108.655 C 214.473 108.924,214.624 109.229,214.750 109.333 C 214.876 109.438,215.027 109.743,215.086 110.012 C 215.145 110.280,215.262 110.500,215.347 110.500 C 215.431 110.500,215.500 110.580,215.500 110.677 C 215.500 110.897,216.347 112.719,216.502 112.833 C 216.564 112.879,216.666 113.123,216.728 113.375 C 216.789 113.627,216.913 113.833,217.003 113.833 C 217.093 113.833,217.167 113.978,217.167 114.155 C 217.167 114.952,217.421 115.000,221.679 115.000 C 223.872 115.000,225.667 114.954,225.667 114.897 C 225.667 114.841,224.035 111.579,222.042 107.649 L 218.417 100.505 214.361 100.502 C 212.131 100.501,210.331 100.556,210.361 100.625 M153.002 155.456 C 153.004 155.709,153.050 156.085,153.105 156.292 L 153.206 156.667 157.697 156.667 L 162.189 156.667 162.070 156.292 C 162.004 156.085,161.943 155.729,161.933 155.500 L 161.917 155.083 157.458 155.039 L 153.000 154.995 153.002 155.456 M310.500 156.589 C 309.666 156.749,303.609 156.802,284.218 156.815 L 259.020 156.833 257.802 157.268 C 256.020 157.904,255.206 158.543,254.109 160.169 C 252.671 162.300,251.539 163.787,251.148 164.061 C 250.971 164.185,250.544 164.541,250.200 164.852 C 248.541 166.349,245.808 167.132,243.000 166.914 L 241.583 166.805 241.117 167.755 C 240.554 168.904,240.433 168.782,242.364 169.019 C 247.939 169.704,252.736 166.981,255.459 161.583 C 255.951 160.608,257.527 158.833,257.901 158.833 C 258.004 158.833,258.368 158.683,258.710 158.500 C 259.052 158.317,259.445 158.167,259.583 158.167 C 259.721 158.167,259.833 158.092,259.833 158.000 C 259.833 157.908,260.171 157.833,260.583 157.833 C 260.996 157.833,261.333 157.758,261.333 157.667 C 261.333 157.556,270.216 157.500,287.647 157.500 L 313.961 157.500 314.062 157.125 C 314.268 156.355,314.232 156.332,312.875 156.357 C 312.165 156.370,311.096 156.475,310.500 156.589 M116.250 156.832 C 85.044 156.923,86.000 156.896,86.000 157.698 C 86.000 157.772,100.746 157.833,118.768 157.833 C 149.910 157.833,151.530 157.819,151.416 157.542 C 151.350 157.381,151.258 157.119,151.212 156.958 C 151.135 156.693,150.865 156.670,148.189 156.707 C 146.573 156.729,132.200 156.785,116.250 156.832 M315.775 158.875 C 315.239 160.418,305.638 179.876,302.967 184.833 C 302.646 185.429,301.800 187.042,301.087 188.417 C 300.375 189.792,299.435 191.592,298.998 192.417 C 298.562 193.242,297.512 195.229,296.665 196.833 C 293.792 202.278,293.453 202.915,292.476 204.715 C 291.939 205.703,291.500 206.543,291.500 206.581 C 291.500 206.618,291.249 207.084,290.942 207.616 C 290.635 208.148,289.987 209.333,289.501 210.250 C 289.015 211.167,288.244 212.592,287.788 213.417 C 286.513 215.724,286.112 216.461,285.248 218.083 C 284.810 218.908,284.394 219.658,284.326 219.750 C 284.257 219.842,283.772 220.704,283.248 221.667 C 281.782 224.360,281.339 225.160,280.666 226.333 C 279.884 227.694,277.354 232.168,276.802 233.167 C 276.472 233.761,270.013 245.051,269.721 245.542 C 269.680 245.610,270.693 245.667,271.971 245.667 L 274.296 245.667 275.131 244.208 C 275.590 243.406,276.658 241.550,277.504 240.083 C 280.084 235.612,282.887 230.707,283.410 229.750 C 283.610 229.383,284.301 228.146,284.945 227.000 C 286.147 224.860,286.474 224.274,287.831 221.833 C 288.667 220.327,295.135 208.328,296.544 205.667 C 297.005 204.796,297.662 203.558,298.005 202.917 C 298.347 202.275,299.058 200.925,299.585 199.917 C 300.112 198.908,300.862 197.483,301.253 196.750 C 302.084 195.190,303.580 192.307,305.794 188.000 C 306.665 186.304,307.436 184.842,307.507 184.750 C 307.579 184.658,310.145 179.596,313.211 173.500 C 318.421 163.140,319.428 160.987,320.064 158.845 L 320.315 158.000 318.197 158.000 L 316.078 158.000 315.775 158.875 M77.351 160.167 C 77.810 161.364,78.288 162.438,79.372 164.708 L 80.387 166.833 82.667 166.833 L 84.946 166.833 83.422 163.708 C 82.583 161.990,81.800 160.344,81.682 160.050 L 81.467 159.518 79.265 159.467 L 77.063 159.417 77.351 160.167 M224.072 202.125 C 223.796 202.652,222.983 204.208,222.264 205.583 C 221.546 206.958,220.828 208.308,220.668 208.583 C 220.190 209.406,218.667 212.324,218.667 212.416 C 218.667 212.462,233.791 212.482,252.277 212.459 L 285.888 212.417 286.165 211.917 C 286.575 211.179,289.830 205.205,290.297 204.333 C 290.518 203.921,290.995 203.040,291.357 202.375 L 292.015 201.167 258.294 201.167 L 224.573 201.167 224.072 202.125 M105.167 201.438 C 105.167 201.544,108.120 207.066,110.125 210.708 L 111.203 212.667 144.685 212.667 C 163.100 212.667,178.167 212.636,178.167 212.599 C 178.167 212.561,176.896 210.030,175.342 206.974 L 172.518 201.417 138.842 201.375 C 120.321 201.351,105.167 201.380,105.167 201.438 M163.534 304.208 C 163.355 304.506,163.011 305.109,162.771 305.547 C 162.530 305.986,162.219 306.519,162.080 306.732 C 161.826 307.119,161.827 307.120,162.775 307.231 C 163.896 307.363,163.724 307.508,164.979 305.375 L 165.984 303.667 164.922 303.667 C 163.902 303.667,163.848 303.688,163.534 304.208 M176.875 303.789 C 177.310 303.824,178.023 303.824,178.458 303.789 C 178.894 303.755,178.537 303.727,177.667 303.727 C 176.796 303.727,176.440 303.755,176.875 303.789 M220.463 303.789 C 220.855 303.824,221.455 303.824,221.796 303.788 C 222.137 303.752,221.817 303.723,221.083 303.724 C 220.350 303.724,220.071 303.754,220.463 303.789 M184.960 303.951 C 185.168 303.991,185.468 303.990,185.627 303.948 C 185.786 303.906,185.617 303.874,185.250 303.875 C 184.883 303.877,184.753 303.911,184.960 303.951 M211.961 303.954 C 212.261 303.991,212.711 303.990,212.961 303.952 C 213.212 303.914,212.967 303.884,212.417 303.885 C 211.867 303.886,211.662 303.917,211.961 303.954 " stroke="none" fill="#3c443c" fill-rule="evenodd"></path><path id="path3" d="M175.250 2.017 C 164.521 2.321,161.335 2.598,160.644 3.289 C 160.544 3.389,160.749 4.115,161.201 5.265 C 161.595 6.265,161.908 7.166,161.897 7.267 C 161.887 7.369,162.209 7.267,162.612 7.041 C 164.654 5.900,203.644 5.436,226.836 6.277 L 229.755 6.382 230.143 5.066 C 230.356 4.342,230.629 3.450,230.749 3.083 L 230.968 2.417 229.442 2.304 C 223.504 1.866,187.357 1.675,175.250 2.017 M187.208 7.291 C 188.377 7.320,190.290 7.320,191.458 7.291 C 192.627 7.263,191.671 7.239,189.333 7.239 C 186.996 7.239,186.040 7.263,187.208 7.291 M204.042 7.291 C 205.210 7.320,207.123 7.320,208.292 7.291 C 209.460 7.263,208.504 7.239,206.167 7.239 C 203.829 7.239,202.873 7.263,204.042 7.291 M176.547 7.456 C 176.985 7.490,177.660 7.490,178.047 7.455 C 178.434 7.420,178.075 7.392,177.250 7.392 C 176.425 7.393,176.109 7.422,176.547 7.456 M218.542 7.457 C 219.160 7.489,220.173 7.489,220.792 7.457 C 221.410 7.425,220.904 7.399,219.667 7.399 C 218.429 7.399,217.923 7.425,218.542 7.457 M165.627 7.785 C 165.834 7.824,166.134 7.823,166.294 7.781 C 166.453 7.739,166.283 7.707,165.917 7.709 C 165.550 7.711,165.420 7.745,165.627 7.785 M150.819 24.875 C 150.231 25.815,149.675 26.719,149.583 26.885 C 149.492 27.051,148.391 28.889,147.138 30.969 C 141.920 39.626,136.667 48.472,136.667 48.600 C 136.667 48.637,152.252 48.667,171.301 48.667 L 205.936 48.667 206.466 47.625 C 206.758 47.052,207.247 46.133,207.553 45.583 C 207.860 45.033,208.622 43.646,209.248 42.500 C 209.874 41.354,210.512 40.192,210.667 39.917 C 210.821 39.642,211.439 38.517,212.040 37.417 C 212.641 36.317,214.139 33.617,215.368 31.417 C 217.876 26.930,217.659 27.315,218.908 25.142 C 219.417 24.257,219.833 23.451,219.833 23.350 C 219.833 23.217,210.440 23.167,185.860 23.167 L 151.887 23.167 150.819 24.875 M220.956 27.458 C 218.612 32.246,216.364 36.902,215.664 38.417 C 215.244 39.328,214.932 39.997,213.374 43.333 C 211.591 47.152,211.000 48.463,211.000 48.597 C 211.000 48.635,222.133 48.667,235.741 48.667 L 260.482 48.667 258.644 45.542 C 257.633 43.823,254.544 38.651,251.778 34.049 C 249.013 29.447,246.412 25.117,246.000 24.428 L 245.250 23.174 234.154 23.171 L 223.057 23.167 220.956 27.458 M239.704 148.335 C 237.735 149.320,235.334 152.135,235.333 153.458 C 235.333 153.573,235.277 153.667,235.208 153.667 C 235.140 153.667,235.083 154.210,235.082 154.875 C 235.082 155.540,235.015 156.375,234.934 156.731 L 234.788 157.379 235.325 157.065 C 235.923 156.715,237.167 155.436,237.167 155.170 C 237.167 155.077,236.848 154.989,236.458 154.975 L 235.750 154.950 236.489 154.850 C 237.114 154.765,237.246 154.680,237.348 154.299 C 237.847 152.419,239.770 150.524,241.942 149.772 L 242.486 149.583 242.052 148.625 C 241.528 147.467,241.456 147.458,239.704 148.335 M152.872 154.833 C 152.872 155.154,152.906 155.285,152.948 155.125 C 152.990 154.965,152.990 154.702,152.948 154.542 C 152.906 154.381,152.872 154.512,152.872 154.833 M254.458 156.784 C 254.665 156.824,255.002 156.824,255.208 156.784 C 255.415 156.745,255.246 156.712,254.833 156.712 C 254.421 156.712,254.252 156.745,254.458 156.784 M250.000 157.146 C 249.771 157.209,249.467 157.490,249.325 157.772 C 248.243 159.915,246.804 161.158,244.992 161.515 C 243.857 161.738,243.013 162.667,243.945 162.667 C 245.962 162.667,248.566 161.044,249.894 158.960 C 251.160 156.972,251.169 156.829,250.000 157.146 M171.933 196.333 C 175.086 202.612,178.346 209.063,179.177 210.667 C 182.457 216.995,183.747 219.475,184.463 220.833 C 190.111 231.545,190.603 232.441,190.780 232.333 C 190.855 232.287,190.897 232.190,190.872 232.116 C 190.847 232.042,190.941 231.868,191.080 231.729 C 191.219 231.590,191.336 231.350,191.339 231.196 C 191.342 231.043,191.454 230.771,191.589 230.593 C 191.723 230.415,191.833 230.166,191.833 230.040 C 191.833 229.913,191.950 229.693,192.093 229.550 C 192.236 229.407,192.313 229.188,192.265 229.062 C 192.217 228.936,192.245 228.833,192.327 228.833 C 192.456 228.833,192.725 228.249,192.711 228.000 C 192.708 227.954,192.810 227.769,192.936 227.588 C 193.063 227.407,193.167 227.158,193.167 227.034 C 193.167 226.911,193.283 226.693,193.426 226.550 C 193.569 226.407,193.649 226.194,193.603 226.076 C 193.558 225.958,193.629 225.820,193.761 225.769 C 193.892 225.718,194.000 225.496,194.000 225.276 C 194.000 225.055,194.109 224.784,194.242 224.674 C 194.447 224.503,194.319 224.159,193.378 222.362 C 189.635 215.209,179.258 194.586,176.113 188.047 L 174.652 185.011 170.427 184.964 L 166.201 184.917 171.933 196.333 M133.663 252.583 C 133.737 252.675,135.389 255.450,137.334 258.750 C 142.675 267.810,143.370 268.980,144.067 270.083 C 144.356 270.542,145.188 271.910,145.915 273.125 L 147.237 275.333 163.378 275.333 L 179.520 275.333 180.441 273.375 C 182.121 269.805,183.705 266.396,184.911 263.750 C 185.162 263.200,185.727 261.962,186.166 261.000 C 186.832 259.541,188.401 255.982,189.656 253.083 L 189.944 252.417 161.736 252.417 C 142.952 252.417,133.573 252.472,133.663 252.583 M196.072 253.208 C 195.550 254.088,193.580 257.574,192.846 258.917 C 192.545 259.467,191.866 260.667,191.336 261.583 C 190.806 262.500,189.565 264.675,188.578 266.417 C 187.591 268.158,186.653 269.808,186.494 270.083 C 184.869 272.884,183.667 275.051,183.667 275.178 C 183.667 275.273,196.410 275.333,216.647 275.333 L 249.628 275.333 249.936 274.875 C 250.106 274.623,250.329 274.267,250.432 274.083 C 250.535 273.900,251.481 272.325,252.534 270.583 C 254.455 267.406,259.249 259.374,259.596 258.750 C 259.698 258.567,260.028 258.004,260.331 257.500 C 260.897 256.555,261.244 255.956,261.851 254.875 C 262.044 254.531,262.261 254.175,262.333 254.083 C 262.514 253.854,263.167 252.675,263.167 252.578 C 263.167 252.535,248.165 252.500,229.829 252.500 L 196.492 252.500 196.072 253.208 M168.460 303.451 C 168.668 303.491,168.968 303.490,169.127 303.448 C 169.286 303.406,169.117 303.374,168.750 303.375 C 168.383 303.377,168.253 303.411,168.460 303.451 M198.296 303.956 C 198.688 303.991,199.288 303.990,199.629 303.954 C 199.971 303.919,199.650 303.890,198.917 303.890 C 198.183 303.891,197.904 303.920,198.296 303.956 " stroke="none" fill="#b4b4b4" fill-rule="evenodd"></path><path id="path4" d="M196.866 1.791 C 197.846 1.820,199.496 1.820,200.532 1.791 C 201.569 1.762,200.767 1.738,198.750 1.738 C 196.733 1.738,195.885 1.762,196.866 1.791 M179.042 1.948 C 179.202 1.990,179.465 1.990,179.625 1.948 C 179.785 1.906,179.654 1.872,179.333 1.872 C 179.012 1.872,178.881 1.906,179.042 1.948 M218.042 1.948 C 218.202 1.990,218.465 1.990,218.625 1.948 C 218.785 1.906,218.654 1.872,218.333 1.872 C 218.012 1.872,217.881 1.906,218.042 1.948 M171.796 2.122 C 172.188 2.157,172.788 2.157,173.129 2.121 C 173.471 2.085,173.150 2.057,172.417 2.057 C 171.683 2.058,171.404 2.087,171.796 2.122 M224.288 2.120 C 224.584 2.157,225.109 2.158,225.455 2.122 C 225.800 2.086,225.558 2.055,224.917 2.055 C 224.275 2.054,223.992 2.083,224.288 2.120 M167.375 2.282 C 167.535 2.323,167.798 2.323,167.958 2.282 C 168.119 2.240,167.987 2.205,167.667 2.205 C 167.346 2.205,167.215 2.240,167.375 2.282 M229.042 2.282 C 229.202 2.323,229.465 2.323,229.625 2.282 C 229.785 2.240,229.654 2.205,229.333 2.205 C 229.012 2.205,228.881 2.240,229.042 2.282 M230.926 2.525 C 230.883 2.649,230.724 3.163,230.571 3.667 C 230.418 4.171,230.189 4.905,230.063 5.297 C 229.767 6.219,229.773 6.333,230.125 6.336 C 230.610 6.340,230.063 6.620,228.750 7.041 C 227.409 7.471,229.956 7.443,199.833 7.353 C 182.837 7.301,169.596 7.487,165.251 7.838 C 162.790 8.037,161.682 8.507,160.351 9.914 C 159.872 10.420,159.410 10.833,159.324 10.833 C 159.237 10.833,159.167 10.906,159.167 10.994 C 159.167 11.083,158.623 12.019,157.958 13.073 C 157.294 14.128,156.675 15.125,156.583 15.287 C 156.405 15.604,154.267 19.084,153.995 19.500 C 153.905 19.637,153.360 20.537,152.783 21.500 L 151.736 23.250 185.895 23.209 L 220.054 23.168 220.551 22.292 C 226.072 12.562,229.299 7.625,230.487 7.089 C 231.479 6.642,231.465 6.720,230.085 9.352 C 229.393 10.671,227.881 13.625,226.726 15.917 C 225.570 18.208,224.344 20.608,224.001 21.250 C 223.658 21.892,223.325 22.585,223.261 22.792 L 223.144 23.167 234.155 23.167 C 240.212 23.167,245.167 23.130,245.167 23.085 C 245.167 22.905,239.272 13.337,237.413 10.500 C 235.682 7.858,234.123 6.333,233.151 6.333 C 232.522 6.333,232.476 6.198,232.758 5.195 C 232.891 4.721,233.110 3.943,233.244 3.466 C 233.378 2.989,233.472 2.585,233.452 2.568 C 233.230 2.376,230.990 2.338,230.926 2.525 M160.127 3.543 C 159.882 3.734,160.958 7.180,161.401 7.623 C 162.132 8.355,161.181 4.197,160.429 3.377 C 160.409 3.355,160.273 3.430,160.127 3.543 M88.119 127.876 C 85.490 132.988,78.480 147.049,78.086 148.000 C 77.102 150.380,76.344 153.251,76.337 154.625 L 76.333 155.333 78.393 155.333 L 80.452 155.333 80.548 154.042 C 80.718 151.730,81.229 150.538,87.069 138.833 L 91.101 130.750 90.222 128.583 C 89.739 127.392,89.341 126.323,89.338 126.208 C 89.326 125.706,89.021 126.123,88.119 127.876 M238.868 145.087 C 238.383 145.307,237.771 145.640,237.509 145.827 C 237.247 146.014,236.905 146.167,236.751 146.167 C 236.438 146.167,233.667 148.889,233.667 149.196 C 233.667 149.303,233.858 149.869,234.092 150.454 C 234.326 151.039,234.637 152.001,234.783 152.592 C 235.017 153.540,235.333 154.038,235.333 153.458 C 235.335 151.737,239.506 147.667,241.269 147.667 C 241.583 147.667,241.586 147.678,240.841 146.080 C 240.112 144.517,240.117 144.519,238.868 145.087 M235.055 154.917 C 235.055 155.558,235.086 155.800,235.122 155.455 C 235.158 155.109,235.157 154.584,235.120 154.288 C 235.083 153.992,235.054 154.275,235.055 154.917 M316.539 154.500 C 316.539 154.821,316.573 154.952,316.615 154.792 C 316.657 154.631,316.657 154.369,316.615 154.208 C 316.573 154.048,316.539 154.179,316.539 154.500 M133.208 156.791 C 135.202 156.818,138.465 156.818,140.458 156.791 C 142.452 156.765,140.821 156.743,136.833 156.743 C 132.846 156.743,131.215 156.765,133.208 156.791 M256.375 156.790 C 256.902 156.823,257.765 156.823,258.292 156.790 C 258.819 156.757,258.387 156.730,257.333 156.730 C 256.279 156.730,255.848 156.757,256.375 156.790 M251.709 156.983 C 251.034 157.079,250.967 157.142,250.254 158.363 C 248.780 160.885,246.191 162.660,243.974 162.668 C 243.695 162.669,243.487 162.847,243.244 163.295 L 242.905 163.920 244.078 163.807 C 247.078 163.518,249.170 162.245,250.758 159.741 C 251.103 159.196,251.711 158.319,252.108 157.792 C 252.505 157.265,252.737 156.845,252.624 156.858 C 252.510 156.872,252.098 156.928,251.709 156.983 M159.733 171.466 C 159.955 171.905,160.437 172.899,160.802 173.674 C 161.168 174.449,162.557 177.315,163.890 180.042 L 166.314 185.000 170.500 185.000 C 172.803 185.000,174.655 184.944,174.618 184.875 C 174.580 184.806,174.357 184.338,174.123 183.833 C 173.889 183.329,173.307 182.092,172.830 181.083 C 172.353 180.075,171.513 178.275,170.962 177.083 C 170.411 175.892,169.623 174.204,169.212 173.333 C 168.800 172.463,168.358 171.506,168.229 171.208 L 167.996 170.667 163.662 170.667 L 159.328 170.667 159.733 171.466 M158.975 238.959 L 125.866 239.001 129.739 245.709 L 133.613 252.417 161.756 252.417 L 189.898 252.417 191.083 249.667 C 191.734 248.154,192.663 245.933,193.148 244.732 L 194.028 242.547 193.528 241.565 C 193.252 241.025,192.815 240.208,192.555 239.750 L 192.083 238.917 158.975 238.959 M203.527 239.958 C 202.862 241.102,201.994 242.650,200.422 245.500 C 199.942 246.371,199.150 247.796,198.662 248.667 C 198.174 249.537,197.494 250.756,197.150 251.375 L 196.525 252.500 229.888 252.495 L 263.250 252.491 265.157 249.204 C 269.844 241.127,271.000 239.095,271.000 238.933 C 271.000 238.878,255.966 238.833,237.591 238.833 L 204.181 238.833 203.527 239.958 M193.375 303.957 C 194.177 303.988,195.490 303.988,196.292 303.957 C 197.094 303.927,196.438 303.902,194.833 303.902 C 193.229 303.902,192.573 303.927,193.375 303.957 M201.383 303.957 C 202.097 303.989,203.222 303.988,203.883 303.957 C 204.543 303.925,203.958 303.900,202.583 303.900 C 201.208 303.900,200.668 303.926,201.383 303.957 " stroke="none" fill="#949c94" fill-rule="evenodd"></path><path id="path5" d="M181.621 0.120 C 181.917 0.157,182.442 0.158,182.788 0.122 C 183.134 0.086,182.892 0.055,182.250 0.055 C 181.608 0.054,181.325 0.083,181.621 0.120 M189.792 0.123 C 190.365 0.156,191.302 0.156,191.875 0.123 C 192.448 0.091,191.979 0.064,190.833 0.064 C 189.688 0.064,189.219 0.091,189.792 0.123 M176.375 0.286 C 176.627 0.324,177.040 0.324,177.292 0.286 C 177.544 0.248,177.338 0.217,176.833 0.217 C 176.329 0.217,176.123 0.248,176.375 0.286 M183.213 1.789 C 183.652 1.824,184.327 1.823,184.713 1.788 C 185.100 1.754,184.742 1.725,183.917 1.726 C 183.092 1.726,182.775 1.755,183.213 1.789 M213.125 1.790 C 213.606 1.823,214.394 1.823,214.875 1.790 C 215.356 1.756,214.963 1.728,214.000 1.728 C 213.037 1.728,212.644 1.756,213.125 1.790 M174.625 1.954 C 174.923 1.991,175.410 1.991,175.708 1.954 C 176.006 1.917,175.762 1.887,175.167 1.887 C 174.571 1.887,174.327 1.917,174.625 1.954 M222.042 1.953 C 222.294 1.991,222.706 1.991,222.958 1.953 C 223.210 1.915,223.004 1.883,222.500 1.883 C 221.996 1.883,221.790 1.915,222.042 1.953 M203.333 86.844 C 203.333 86.941,203.887 88.085,204.564 89.386 C 205.917 91.985,209.618 99.197,209.904 99.790 C 210.002 99.996,210.144 100.165,210.218 100.165 C 210.292 100.166,210.307 100.242,210.250 100.333 C 210.182 100.443,211.551 100.500,214.232 100.500 L 218.317 100.500 218.112 100.042 C 217.874 99.513,216.670 97.148,215.514 94.941 C 215.075 94.103,214.058 92.142,213.254 90.583 C 212.450 89.025,211.645 87.506,211.466 87.208 L 211.139 86.667 207.236 86.667 C 204.589 86.667,203.333 86.724,203.333 86.844 M160.164 146.791 L 155.745 146.839 155.264 147.878 C 153.854 150.925,153.000 153.426,153.000 154.508 L 153.000 154.990 157.501 155.036 L 162.002 155.083 161.986 154.500 C 161.952 153.228,162.951 150.138,164.093 147.983 C 164.308 147.578,164.704 146.620,164.621 146.705 C 164.600 146.727,162.595 146.766,160.164 146.791 M76.212 154.833 C 76.212 155.246,76.245 155.415,76.284 155.208 C 76.324 155.002,76.324 154.665,76.284 154.458 C 76.245 154.252,76.212 154.421,76.212 154.833 M261.333 157.667 C 261.333 157.758,260.996 157.833,260.583 157.833 C 260.171 157.833,259.833 157.908,259.833 158.000 C 259.833 158.092,259.721 158.167,259.583 158.167 C 259.445 158.167,259.052 158.317,258.710 158.500 C 258.368 158.683,258.004 158.833,257.901 158.833 C 257.527 158.833,255.951 160.608,255.459 161.583 C 252.723 167.007,247.957 169.698,242.301 169.012 C 241.384 168.901,240.620 168.834,240.603 168.863 C 240.552 168.953,239.888 170.348,239.270 171.667 L 238.684 172.917 239.884 173.240 C 241.384 173.645,246.279 173.723,247.500 173.361 C 252.670 171.832,255.353 170.110,257.903 166.685 C 259.218 164.919,259.206 165.000,258.151 165.000 L 257.302 165.000 257.789 164.125 C 258.058 163.644,258.454 162.819,258.669 162.292 L 259.061 161.333 259.831 161.333 C 260.644 161.333,261.000 160.886,261.000 159.864 L 261.000 159.501 287.115 159.459 L 313.230 159.417 313.601 158.458 L 313.972 157.500 287.653 157.500 C 270.218 157.500,261.333 157.556,261.333 157.667 M85.562 158.259 C 85.408 158.494,85.247 159.056,85.203 159.509 L 85.124 160.333 118.801 160.333 L 152.477 160.333 151.968 159.083 L 151.459 157.833 118.650 157.833 L 85.841 157.833 85.562 158.259 M232.219 186.128 C 229.819 190.962,227.138 196.292,226.261 197.972 C 225.384 199.653,224.667 201.060,224.667 201.098 C 224.667 201.136,239.822 201.149,258.345 201.125 L 292.024 201.083 292.778 199.667 C 293.192 198.887,293.909 197.537,294.370 196.667 C 294.832 195.796,295.415 194.708,295.666 194.250 C 296.907 191.982,304.333 177.558,304.333 177.415 C 304.333 177.370,289.090 177.335,270.458 177.336 L 236.583 177.339 232.219 186.128 M93.310 179.042 C 94.087 180.516,95.086 182.433,97.460 187.000 C 98.056 188.146,98.824 189.608,99.167 190.250 C 99.510 190.892,100.186 192.167,100.669 193.083 C 101.151 194.000,101.789 195.200,102.086 195.750 C 102.935 197.325,104.186 199.676,104.636 200.542 L 105.047 201.333 138.741 201.333 L 172.435 201.333 168.945 194.292 C 165.592 187.526,162.265 180.729,161.238 178.546 L 160.750 177.508 126.624 177.504 L 92.498 177.500 93.310 179.042 M268.627 247.408 C 263.905 255.954,241.753 292.884,237.559 299.201 C 234.752 303.430,235.196 303.251,226.583 303.615 C 217.912 303.982,183.926 304.024,173.713 303.680 C 165.432 303.401,166.242 303.223,164.818 305.627 L 163.731 307.460 166.491 307.572 C 177.728 308.026,199.441 308.248,210.275 308.020 C 233.932 307.522,234.543 307.488,236.404 306.550 C 237.432 306.031,239.211 304.236,240.210 302.709 C 242.188 299.685,247.500 291.032,247.500 290.833 C 247.500 290.757,247.559 290.669,247.631 290.639 C 247.703 290.608,248.183 289.871,248.697 289.000 C 249.211 288.129,250.698 285.654,252.000 283.500 C 253.302 281.346,254.501 279.358,254.663 279.083 C 254.825 278.808,255.688 277.346,256.580 275.833 C 257.472 274.321,258.261 273.008,258.333 272.917 C 258.405 272.825,258.615 272.479,258.800 272.148 C 259.471 270.943,259.585 270.749,259.667 270.667 C 259.712 270.621,259.856 270.396,259.986 270.167 C 260.116 269.938,261.296 267.933,262.607 265.712 C 265.191 261.334,267.604 257.221,271.628 250.333 C 273.047 247.904,274.241 245.860,274.281 245.792 C 274.320 245.723,273.280 245.669,271.968 245.672 L 269.583 245.677 268.627 247.408 " stroke="none" fill="#242c24" fill-rule="evenodd"></path><path id="path6" d="M188.708 5.957 C 189.510 5.988,190.823 5.988,191.625 5.957 C 192.427 5.927,191.771 5.902,190.167 5.902 C 188.563 5.902,187.906 5.927,188.708 5.957 M205.300 5.957 C 206.060 5.988,207.260 5.988,207.966 5.957 C 208.672 5.926,208.050 5.901,206.583 5.901 C 205.117 5.901,204.539 5.927,205.300 5.957 M176.796 6.122 C 177.188 6.157,177.788 6.157,178.129 6.121 C 178.471 6.085,178.150 6.057,177.417 6.057 C 176.683 6.058,176.404 6.087,176.796 6.122 M218.795 6.121 C 219.094 6.158,219.544 6.157,219.795 6.119 C 220.045 6.081,219.800 6.051,219.250 6.052 C 218.700 6.053,218.495 6.084,218.795 6.121 M171.208 6.290 C 171.735 6.323,172.598 6.323,173.125 6.290 C 173.652 6.257,173.221 6.230,172.167 6.230 C 171.112 6.230,170.681 6.257,171.208 6.290 M223.297 6.290 C 223.782 6.324,224.532 6.323,224.964 6.289 C 225.396 6.255,225.000 6.227,224.083 6.228 C 223.167 6.228,222.813 6.256,223.297 6.290 M166.458 6.451 C 166.665 6.491,167.002 6.491,167.208 6.451 C 167.415 6.411,167.246 6.379,166.833 6.379 C 166.421 6.379,166.252 6.411,166.458 6.451 M228.794 6.451 C 229.001 6.491,229.301 6.490,229.460 6.448 C 229.620 6.406,229.450 6.374,229.083 6.375 C 228.717 6.377,228.586 6.411,228.794 6.451 M182.049 7.290 C 182.671 7.323,183.646 7.322,184.215 7.290 C 184.784 7.257,184.275 7.231,183.083 7.231 C 181.892 7.232,181.426 7.258,182.049 7.290 M211.375 7.290 C 211.994 7.322,213.006 7.322,213.625 7.290 C 214.244 7.258,213.737 7.232,212.500 7.232 C 211.262 7.232,210.756 7.258,211.375 7.290 M173.713 7.456 C 174.152 7.490,174.827 7.490,175.213 7.455 C 175.600 7.420,175.242 7.392,174.417 7.392 C 173.592 7.393,173.275 7.422,173.713 7.456 M222.875 7.457 C 223.494 7.489,224.506 7.489,225.125 7.457 C 225.744 7.425,225.237 7.399,224.000 7.399 C 222.762 7.399,222.256 7.425,222.875 7.457 M169.042 7.615 C 169.202 7.657,169.465 7.657,169.625 7.615 C 169.785 7.573,169.654 7.539,169.333 7.539 C 169.012 7.539,168.881 7.573,169.042 7.615 M135.984 49.710 C 135.655 50.282,133.048 54.742,130.192 59.621 C 127.335 64.500,124.799 68.850,124.556 69.287 C 124.313 69.725,123.345 71.414,122.404 73.041 L 120.694 75.999 155.965 76.041 L 191.236 76.083 191.675 75.250 C 193.694 71.420,196.842 65.474,197.499 64.250 C 197.844 63.608,198.444 62.483,198.834 61.750 C 199.223 61.017,200.367 58.879,201.376 57.000 C 202.385 55.121,203.451 53.133,203.746 52.583 C 204.041 52.033,204.637 50.927,205.071 50.125 L 205.860 48.667 171.222 48.668 L 136.583 48.670 135.984 49.710 M210.833 48.830 C 210.833 48.919,210.579 49.538,210.268 50.205 C 209.183 52.532,206.452 58.774,205.216 61.750 C 204.531 63.400,203.606 65.621,203.161 66.686 C 202.032 69.385,202.043 69.287,202.716 70.524 C 203.033 71.106,203.832 72.577,204.492 73.792 L 205.692 76.000 240.929 76.000 C 260.310 76.000,276.167 75.953,276.167 75.896 C 276.167 75.733,275.018 73.662,273.218 70.583 C 272.307 69.025,271.334 67.337,271.056 66.833 C 270.163 65.217,261.284 50.023,260.659 49.042 L 260.420 48.667 235.627 48.667 C 219.580 48.667,210.833 48.724,210.833 48.830 M241.050 150.156 C 239.347 150.961,237.763 152.734,237.348 154.299 C 237.246 154.680,237.114 154.765,236.489 154.850 L 235.750 154.950 236.458 154.975 C 237.502 155.012,237.050 155.876,235.391 157.018 C 234.993 157.292,234.667 157.624,234.667 157.756 C 234.667 157.977,233.266 161.352,232.283 163.500 C 232.052 164.004,231.286 165.692,230.581 167.250 C 229.876 168.808,229.036 170.646,228.714 171.333 C 228.391 172.021,227.904 173.071,227.631 173.667 C 226.922 175.210,226.246 176.661,225.313 178.639 C 224.866 179.587,224.500 180.385,224.500 180.414 C 224.500 180.443,223.838 181.843,223.028 183.525 C 222.219 185.207,221.076 187.596,220.490 188.833 C 219.098 191.769,208.849 212.275,206.598 216.625 L 204.852 220.000 208.662 220.000 L 212.471 220.000 213.299 218.458 C 214.202 216.777,215.132 215.006,216.998 211.417 C 217.665 210.133,218.565 208.408,218.998 207.583 C 219.432 206.758,220.483 204.733,221.335 203.083 C 222.187 201.433,223.258 199.371,223.715 198.500 C 226.652 192.904,238.231 169.619,239.711 166.333 C 239.979 165.737,240.416 164.789,240.683 164.226 C 241.254 163.018,241.281 162.725,240.836 162.584 C 239.201 162.065,237.059 158.965,237.788 158.174 C 238.290 157.629,239.083 155.155,238.811 154.983 C 238.630 154.868,238.641 154.838,238.862 154.836 C 239.029 154.834,239.215 154.610,239.325 154.274 C 239.709 153.113,241.909 151.333,242.961 151.333 C 243.094 151.333,243.167 151.240,243.125 151.125 C 243.082 151.010,242.946 150.635,242.823 150.292 C 242.553 149.536,242.386 149.524,241.050 150.156 M253.294 156.785 C 253.501 156.824,253.801 156.823,253.960 156.781 C 254.120 156.739,253.950 156.707,253.583 156.709 C 253.217 156.711,253.086 156.745,253.294 156.785 M248.708 157.374 C 248.410 157.470,248.167 157.621,248.167 157.711 C 248.167 158.483,246.280 160.221,245.212 160.433 C 244.861 160.503,244.560 160.720,244.346 161.057 C 243.929 161.717,243.956 161.734,245.068 161.503 C 246.810 161.141,248.133 160.002,249.251 157.899 C 249.661 157.127,249.616 157.083,248.708 157.374 M194.200 224.700 C 194.090 224.810,194.000 225.075,194.000 225.289 C 194.000 225.502,193.892 225.718,193.761 225.769 C 193.629 225.820,193.558 225.958,193.603 226.076 C 193.649 226.194,193.569 226.407,193.426 226.550 C 193.283 226.693,193.167 226.911,193.167 227.034 C 193.167 227.158,193.063 227.407,192.936 227.588 C 192.810 227.769,192.708 227.954,192.711 228.000 C 192.725 228.249,192.456 228.833,192.327 228.833 C 192.245 228.833,192.217 228.936,192.265 229.062 C 192.313 229.188,192.236 229.407,192.093 229.550 C 191.950 229.693,191.833 229.913,191.833 230.040 C 191.833 230.166,191.723 230.415,191.589 230.593 C 191.454 230.771,191.342 231.043,191.339 231.196 C 191.336 231.350,191.219 231.590,191.080 231.729 C 190.941 231.868,190.847 232.080,190.872 232.199 C 190.897 232.319,190.821 232.397,190.705 232.374 C 190.526 232.338,191.684 234.726,192.665 236.417 C 192.825 236.692,193.236 237.442,193.580 238.083 C 194.412 239.638,195.000 239.935,195.000 238.801 C 195.000 238.622,195.117 238.359,195.260 238.217 C 195.402 238.074,195.482 237.860,195.436 237.741 C 195.391 237.622,195.461 237.435,195.593 237.325 C 195.725 237.216,195.833 237.002,195.833 236.850 C 195.833 236.698,195.971 236.474,196.140 236.352 C 196.349 236.202,196.421 235.995,196.366 235.708 C 196.315 235.442,196.349 235.323,196.457 235.390 C 196.618 235.489,196.898 234.924,196.846 234.607 C 196.832 234.529,196.903 234.367,197.002 234.247 C 197.413 233.753,198.481 230.333,198.226 230.333 C 197.751 230.333,196.909 229.182,195.770 226.973 C 194.448 224.411,194.464 224.436,194.200 224.700 M147.003 275.058 C 147.001 275.135,147.141 275.398,147.312 275.641 C 147.484 275.884,148.394 277.358,149.335 278.917 C 150.797 281.338,151.391 282.310,152.340 283.833 C 152.426 283.971,153.373 285.508,154.446 287.250 C 155.519 288.992,156.851 291.153,157.406 292.053 C 157.962 292.953,158.492 293.818,158.583 293.974 C 159.256 295.121,160.763 297.427,160.869 297.472 C 160.941 297.503,161.000 297.591,161.000 297.669 C 161.000 297.746,161.302 298.265,161.672 298.822 L 162.344 299.833 164.748 299.833 L 167.153 299.833 167.559 299.125 C 168.571 297.361,170.849 292.903,175.031 284.500 C 177.517 279.504,179.571 275.379,179.593 275.333 C 179.616 275.287,172.353 275.269,163.453 275.293 C 150.584 275.328,147.244 275.294,147.138 275.127 C 147.065 275.011,147.004 274.980,147.003 275.058 M182.903 276.225 C 182.050 277.717,178.209 284.299,175.497 288.917 C 174.366 290.842,172.883 293.392,172.202 294.583 C 170.427 297.685,170.444 297.656,169.775 298.700 C 169.441 299.223,169.167 299.692,169.167 299.742 C 169.167 299.792,183.894 299.833,201.893 299.833 L 234.619 299.833 235.257 298.792 C 235.608 298.219,236.312 297.112,236.822 296.333 C 237.331 295.554,237.823 294.789,237.915 294.633 C 238.906 292.958,239.581 291.907,239.695 291.861 C 239.771 291.831,239.833 291.738,239.833 291.654 C 239.833 291.571,240.183 290.959,240.611 290.293 C 241.039 289.628,241.891 288.258,242.505 287.250 C 243.119 286.242,244.128 284.592,244.748 283.583 C 246.946 280.007,249.557 275.706,249.757 275.333 C 249.781 275.287,234.945 275.269,216.786 275.292 C 197.289 275.318,183.732 275.273,183.677 275.185 C 183.625 275.102,183.277 275.570,182.903 276.225 M169.542 303.448 C 169.702 303.490,169.965 303.490,170.125 303.448 C 170.285 303.406,170.154 303.372,169.833 303.372 C 169.512 303.372,169.381 303.406,169.542 303.448 M164.460 303.618 C 164.668 303.658,164.968 303.656,165.127 303.615 C 165.286 303.573,165.117 303.540,164.750 303.542 C 164.383 303.544,164.253 303.578,164.460 303.618 M174.625 303.622 C 175.015 303.657,175.652 303.657,176.042 303.622 C 176.431 303.587,176.112 303.558,175.333 303.558 C 174.554 303.558,174.235 303.587,174.625 303.622 M222.547 303.623 C 222.985 303.657,223.660 303.657,224.047 303.622 C 224.434 303.587,224.075 303.559,223.250 303.559 C 222.425 303.560,222.109 303.588,222.547 303.623 " stroke="none" fill="#d4d4d4" fill-rule="evenodd"></path><path id="path7" d="M184.833 6.000 C 174.021 6.160,164.583 6.470,163.751 6.691 C 162.238 7.094,160.933 8.190,160.021 9.826 L 159.625 10.536 160.673 9.520 C 162.944 7.318,163.693 7.276,201.167 7.256 L 227.917 7.241 229.042 6.857 C 229.660 6.646,230.167 6.460,230.167 6.445 C 230.167 6.429,228.873 6.396,227.292 6.371 C 225.710 6.346,222.579 6.256,220.333 6.170 C 214.596 5.950,194.652 5.855,184.833 6.000 M119.259 78.627 C 118.439 80.070,117.341 82.000,116.820 82.917 C 116.299 83.833,115.685 84.921,115.455 85.333 C 114.278 87.449,112.399 90.848,112.000 91.583 C 111.751 92.042,111.172 93.092,110.714 93.917 C 110.256 94.742,109.658 95.829,109.386 96.333 C 109.114 96.837,108.140 98.638,107.220 100.333 C 106.301 102.029,105.113 104.242,104.581 105.250 C 104.050 106.258,103.112 108.021,102.497 109.167 C 101.882 110.313,100.947 112.075,100.419 113.083 C 99.891 114.092,99.142 115.517,98.753 116.250 C 98.364 116.983,97.442 118.746,96.703 120.167 C 95.965 121.587,94.637 124.138,93.754 125.833 C 91.782 129.619,82.579 148.037,81.971 149.417 C 80.098 153.664,80.097 156.205,81.967 160.333 C 83.264 163.199,88.072 172.915,91.080 178.750 C 91.836 180.217,93.186 182.842,94.081 184.583 C 94.976 186.325,96.027 188.350,96.416 189.083 C 96.806 189.817,97.632 191.392,98.253 192.583 C 98.874 193.775,99.660 195.275,100.000 195.917 C 100.340 196.558,101.090 197.983,101.667 199.083 C 102.243 200.183,103.181 201.946,103.750 203.000 C 104.319 204.054,105.144 205.592,105.584 206.417 C 106.508 208.152,106.723 208.549,108.915 212.583 C 117.162 227.761,125.817 242.923,139.075 265.417 C 141.074 268.808,143.104 272.221,143.586 273.000 C 144.068 273.779,145.420 276.029,146.591 278.000 C 149.466 282.839,154.979 291.933,156.088 293.667 C 156.294 293.987,157.043 295.188,157.754 296.333 C 162.406 303.832,161.746 303.408,168.833 303.446 C 171.813 303.462,176.500 303.555,179.250 303.653 C 190.545 304.053,228.005 303.722,232.432 303.183 C 235.324 302.830,235.825 302.179,245.506 286.167 C 249.866 278.955,257.937 265.476,258.429 264.583 C 258.530 264.400,259.173 263.313,259.857 262.167 C 262.384 257.937,273.339 239.076,274.379 237.167 C 274.654 236.662,275.123 235.838,275.422 235.333 C 275.722 234.829,276.621 233.254,277.420 231.833 C 278.220 230.412,279.550 228.050,280.376 226.583 C 281.203 225.117,282.101 223.507,282.373 223.006 C 282.645 222.506,283.410 221.118,284.073 219.923 C 284.736 218.728,285.566 217.225,285.918 216.583 C 286.270 215.942,286.705 215.154,286.884 214.833 C 287.461 213.801,292.763 203.962,293.668 202.245 C 294.149 201.331,294.825 200.058,295.169 199.417 C 295.514 198.775,296.189 197.500,296.670 196.583 C 297.150 195.667,297.936 194.167,298.417 193.250 C 298.897 192.333,299.759 190.683,300.333 189.583 C 300.907 188.483,301.807 186.758,302.334 185.750 C 306.445 177.879,313.795 163.172,315.202 160.000 C 316.398 157.302,316.773 153.964,316.099 152.000 C 315.299 149.666,307.644 134.154,301.748 122.917 C 301.267 122.000,300.293 120.125,299.584 118.750 C 298.874 117.375,298.088 115.875,297.835 115.417 C 297.583 114.958,296.943 113.758,296.415 112.750 C 291.154 102.721,283.725 89.084,279.163 81.083 C 278.640 80.167,278.026 79.079,277.799 78.667 C 277.571 78.254,277.141 77.485,276.843 76.958 L 276.302 76.000 240.970 76.000 L 205.639 76.000 205.962 76.542 C 206.139 76.840,206.643 77.758,207.082 78.583 C 207.521 79.408,208.159 80.608,208.500 81.250 C 209.130 82.434,210.183 84.437,211.918 87.750 C 212.446 88.758,213.233 90.258,213.667 91.083 C 218.302 99.898,229.441 121.973,232.391 128.191 C 232.798 129.049,234.039 131.614,235.149 133.893 C 236.259 136.171,237.167 138.058,237.167 138.085 C 237.167 138.113,237.756 139.361,238.477 140.860 C 239.197 142.358,239.977 143.996,240.209 144.500 C 240.441 145.004,240.946 146.092,241.332 146.917 C 242.881 150.231,243.283 151.333,242.943 151.333 C 241.907 151.333,239.705 153.123,239.325 154.274 C 239.215 154.610,239.029 154.834,238.862 154.836 C 238.641 154.838,238.630 154.868,238.811 154.983 C 239.083 155.155,238.290 157.629,237.788 158.174 C 237.059 158.965,239.201 162.065,240.836 162.584 C 241.281 162.725,241.254 163.018,240.683 164.226 C 240.416 164.789,239.979 165.737,239.711 166.333 C 238.231 169.619,226.652 192.904,223.715 198.500 C 223.258 199.371,222.187 201.433,221.335 203.083 C 220.483 204.733,219.432 206.758,218.998 207.583 C 218.565 208.408,217.665 210.133,216.998 211.417 C 215.132 215.006,214.202 216.777,213.299 218.458 L 212.471 220.000 208.663 220.000 L 204.856 220.000 204.071 221.542 C 200.452 228.654,199.695 229.935,198.922 230.259 C 198.461 230.451,198.337 230.650,197.956 231.805 C 197.716 232.535,197.388 233.421,197.228 233.774 C 197.068 234.127,196.922 234.492,196.903 234.583 C 196.785 235.158,196.606 235.482,196.457 235.390 C 196.349 235.323,196.315 235.442,196.366 235.708 C 196.421 235.995,196.349 236.202,196.140 236.352 C 195.971 236.474,195.833 236.698,195.833 236.850 C 195.833 237.002,195.725 237.216,195.593 237.325 C 195.461 237.435,195.391 237.622,195.436 237.741 C 195.482 237.860,195.402 238.074,195.260 238.217 C 195.117 238.359,195.000 238.622,195.000 238.801 C 195.000 239.846,194.416 239.634,193.709 238.333 C 193.436 237.829,192.714 236.501,192.106 235.382 C 191.498 234.263,191.000 233.313,191.000 233.272 C 191.000 233.230,190.711 232.684,190.359 232.057 C 189.693 230.873,188.892 229.377,187.252 226.250 C 186.723 225.242,186.084 224.042,185.832 223.583 C 185.384 222.769,184.732 221.520,181.739 215.750 C 180.931 214.192,179.608 211.642,178.799 210.083 C 176.895 206.419,165.005 182.632,163.177 178.833 C 162.405 177.229,161.254 174.829,160.619 173.500 C 159.984 172.171,159.050 170.221,158.544 169.167 C 152.072 155.686,151.947 155.145,154.137 150.083 C 155.123 147.803,157.206 143.341,159.542 138.500 C 160.183 137.171,161.063 135.333,161.497 134.417 C 165.108 126.789,178.069 101.216,186.417 85.250 C 186.896 84.333,187.795 82.608,188.415 81.417 C 189.035 80.225,189.907 78.564,190.354 77.725 C 190.801 76.886,191.167 76.155,191.167 76.100 C 191.167 76.045,175.323 76.001,155.958 76.002 L 120.750 76.003 119.259 78.627 M151.098 155.298 C 151.186 157.045,151.888 158.843,154.884 165.000 C 155.932 167.154,156.957 169.285,157.161 169.734 C 157.365 170.184,158.275 172.088,159.183 173.966 C 160.091 175.844,160.833 177.401,160.833 177.426 C 160.833 177.789,176.349 208.814,180.083 215.917 C 180.564 216.833,181.541 218.708,182.253 220.083 C 183.584 222.654,184.682 224.750,185.920 227.083 C 186.309 227.817,187.284 229.654,188.086 231.167 C 188.889 232.679,189.863 234.517,190.252 235.250 C 191.077 236.807,191.645 237.861,193.106 240.541 L 194.173 242.498 193.401 244.374 C 192.476 246.618,189.437 253.777,188.962 254.827 C 188.777 255.236,188.080 256.811,187.412 258.327 C 185.271 263.188,184.358 265.173,180.165 274.083 C 177.879 278.942,168.862 296.854,167.559 299.125 L 167.153 299.833 164.748 299.833 L 162.344 299.833 161.672 298.822 C 161.302 298.265,161.000 297.746,161.000 297.669 C 161.000 297.591,160.941 297.503,160.869 297.472 C 160.763 297.427,159.256 295.121,158.583 293.974 C 158.492 293.818,157.962 292.953,157.406 292.053 C 156.851 291.153,155.519 288.992,154.446 287.250 C 153.373 285.508,152.426 283.971,152.340 283.833 C 151.531 282.534,150.775 281.301,149.171 278.667 C 148.140 276.971,147.173 275.377,147.023 275.125 C 146.748 274.663,141.082 265.206,138.971 261.686 C 138.345 260.643,137.833 259.755,137.833 259.712 C 137.833 259.670,137.692 259.436,137.520 259.192 C 137.347 258.949,137.047 258.469,136.853 258.125 C 136.215 256.996,135.887 256.429,135.333 255.500 C 134.763 254.544,134.406 253.925,133.816 252.875 C 133.622 252.531,133.405 252.175,133.333 252.083 C 133.261 251.992,133.044 251.635,132.851 251.292 C 132.658 250.948,132.359 250.423,132.187 250.125 C 132.015 249.827,131.615 249.133,131.299 248.583 C 130.982 248.033,129.746 245.896,128.551 243.833 C 127.356 241.771,126.191 239.746,125.961 239.333 C 125.731 238.921,124.962 237.571,124.251 236.333 C 123.541 235.096,122.643 233.521,122.256 232.833 C 117.692 224.715,113.971 218.046,112.957 216.167 C 112.451 215.228,110.781 212.176,110.038 210.833 C 109.682 210.190,106.830 204.923,104.622 200.833 C 104.251 200.146,103.651 199.021,103.289 198.333 C 102.926 197.646,102.423 196.708,102.171 196.250 C 101.918 195.792,101.203 194.442,100.582 193.250 C 99.960 192.058,99.171 190.558,98.829 189.917 C 98.114 188.574,96.612 185.706,94.380 181.417 C 84.595 162.618,83.376 158.825,86.590 157.171 L 87.408 156.750 116.829 156.658 C 143.296 156.575,146.348 156.538,147.222 156.294 C 148.473 155.946,149.435 155.472,150.167 154.844 C 150.922 154.195,151.045 154.255,151.098 155.298 M314.433 155.233 C 314.590 155.642,314.187 157.365,313.553 159.000 C 313.030 160.348,302.581 181.367,299.800 186.667 C 299.295 187.629,298.373 189.392,297.751 190.583 C 296.652 192.690,296.022 193.886,294.286 197.167 C 292.499 200.543,286.683 211.279,284.536 215.167 C 283.296 217.412,282.020 219.737,281.702 220.333 C 281.384 220.929,281.068 221.492,281.001 221.583 C 280.933 221.675,280.633 222.200,280.334 222.750 C 279.727 223.865,278.679 225.726,275.078 232.083 C 273.729 234.467,272.433 236.754,272.200 237.167 C 271.967 237.579,271.106 239.079,270.286 240.500 C 269.467 241.921,267.802 244.808,266.586 246.917 C 265.371 249.025,263.381 252.438,262.165 254.500 C 259.834 258.452,258.482 260.753,258.001 261.583 C 257.842 261.858,256.341 264.371,254.667 267.167 C 252.992 269.962,251.490 272.475,251.328 272.750 C 251.065 273.200,248.419 277.571,246.588 280.583 C 246.198 281.225,245.371 282.575,244.750 283.583 C 244.129 284.592,243.119 286.242,242.505 287.250 C 241.891 288.258,241.039 289.628,240.611 290.293 C 240.183 290.959,239.833 291.571,239.833 291.654 C 239.833 291.738,239.771 291.831,239.695 291.861 C 239.581 291.907,238.906 292.958,237.915 294.633 C 237.823 294.789,237.331 295.554,236.822 296.333 C 236.312 297.112,235.608 298.219,235.257 298.792 L 234.619 299.833 201.893 299.833 C 183.894 299.833,169.167 299.792,169.167 299.742 C 169.167 299.692,169.441 299.223,169.775 298.700 C 170.444 297.656,170.427 297.685,172.202 294.583 C 172.883 293.392,174.366 290.842,175.496 288.917 C 176.626 286.992,178.336 284.067,179.295 282.417 C 180.255 280.767,181.545 278.554,182.163 277.500 C 182.781 276.446,183.512 275.171,183.787 274.667 C 184.062 274.162,184.960 272.587,185.783 271.167 C 186.606 269.746,187.469 268.246,187.700 267.833 C 187.931 267.421,188.270 266.821,188.454 266.500 C 190.398 263.110,200.196 245.748,200.944 244.367 C 201.158 243.973,201.783 242.870,202.333 241.917 C 202.883 240.964,203.333 240.155,203.333 240.119 C 203.333 240.084,203.941 238.974,204.683 237.652 C 205.425 236.331,206.710 234.012,207.539 232.500 C 208.367 230.987,209.211 229.450,209.413 229.083 C 209.615 228.716,210.292 227.478,210.917 226.333 C 211.542 225.187,212.201 223.987,212.382 223.667 C 212.838 222.857,219.348 210.789,220.427 208.750 C 225.051 200.019,227.732 194.803,231.991 186.250 C 236.307 177.581,239.167 171.733,239.167 171.575 C 239.167 171.550,239.792 170.229,240.557 168.639 C 244.375 160.705,244.442 160.586,245.210 160.434 C 246.282 160.221,248.167 158.483,248.167 157.708 C 248.167 157.546,248.772 157.347,250.417 156.968 C 251.020 156.829,259.451 156.747,280.917 156.673 C 307.146 156.583,310.680 156.541,311.417 156.311 C 312.381 156.010,313.597 155.414,313.749 155.169 C 313.901 154.922,314.329 154.963,314.433 155.233 " stroke="none" fill="#f4f4f4" fill-rule="evenodd"></path><path id="path8" d="M182.667 0.122 C 182.254 0.144,178.654 0.241,174.667 0.338 C 163.959 0.599,163.219 0.647,161.083 1.219 C 159.032 1.768,157.090 3.461,155.075 6.457 C 154.659 7.077,154.228 7.716,154.117 7.879 C 153.413 8.915,151.794 11.485,151.625 11.833 C 151.514 12.063,151.379 12.287,151.325 12.333 C 151.270 12.379,151.175 12.529,151.114 12.667 C 151.053 12.804,150.663 13.442,150.247 14.083 C 149.832 14.725,149.443 15.362,149.383 15.500 C 149.323 15.637,149.228 15.787,149.171 15.833 C 149.114 15.879,148.699 16.554,148.248 17.333 C 147.798 18.112,147.370 18.775,147.298 18.806 C 147.226 18.836,147.167 18.943,147.167 19.043 C 147.167 19.144,146.912 19.606,146.602 20.071 C 145.844 21.204,142.597 26.696,142.529 26.958 C 142.500 27.073,142.415 27.167,142.341 27.167 C 142.266 27.167,142.163 27.298,142.110 27.458 C 142.058 27.619,141.805 28.093,141.549 28.512 C 141.293 28.931,140.641 30.018,140.101 30.928 C 138.910 32.935,136.918 36.281,136.294 37.322 C 136.044 37.741,135.791 38.215,135.733 38.375 C 135.675 38.535,135.576 38.667,135.512 38.667 C 135.448 38.667,135.293 38.929,135.167 39.250 C 135.041 39.571,134.886 39.833,134.822 39.833 C 134.758 39.833,134.664 39.965,134.613 40.125 C 134.522 40.411,133.998 41.336,133.833 41.500 C 133.787 41.546,133.637 41.808,133.500 42.083 C 133.363 42.358,133.213 42.621,133.167 42.667 C 133.053 42.780,132.658 43.475,132.362 44.083 C 132.228 44.358,132.024 44.696,131.909 44.833 C 131.696 45.088,131.188 45.954,130.636 47.000 C 130.288 47.660,129.957 48.210,129.833 48.333 C 129.787 48.379,129.637 48.642,129.500 48.917 C 129.363 49.192,129.211 49.454,129.164 49.500 C 129.116 49.546,128.985 49.771,128.873 50.000 C 128.651 50.453,128.300 51.034,128.166 51.167 C 128.120 51.212,127.971 51.475,127.833 51.750 C 127.696 52.025,127.546 52.288,127.500 52.333 C 127.399 52.434,127.044 53.046,126.630 53.833 C 126.462 54.154,126.186 54.642,126.019 54.917 C 125.851 55.192,125.544 55.717,125.337 56.083 C 125.130 56.450,124.081 58.250,123.006 60.083 C 121.931 61.917,120.852 63.773,120.609 64.208 C 120.366 64.644,119.968 65.356,119.725 65.792 C 119.482 66.227,118.620 67.720,117.808 69.110 C 116.997 70.500,116.333 71.719,116.333 71.818 C 116.333 71.918,116.276 72.000,116.206 72.000 C 116.073 72.000,115.879 72.335,115.412 73.375 C 115.257 73.719,115.064 74.000,114.982 74.000 C 114.900 74.000,114.833 74.077,114.833 74.172 C 114.833 74.266,114.271 75.319,113.583 76.511 C 112.896 77.703,112.333 78.703,112.333 78.734 C 112.333 78.765,111.846 79.629,111.250 80.654 C 110.654 81.679,110.167 82.549,110.167 82.587 C 110.167 82.625,109.792 83.291,109.333 84.067 C 108.875 84.843,108.425 85.652,108.334 85.864 C 108.164 86.259,107.816 86.851,107.667 87.000 C 107.621 87.046,107.455 87.346,107.297 87.667 C 107.140 87.987,106.778 88.658,106.492 89.157 C 106.207 89.656,105.750 90.481,105.478 90.991 C 105.205 91.500,104.691 92.442,104.336 93.083 C 103.980 93.725,103.440 94.737,103.136 95.333 C 102.832 95.929,102.546 96.454,102.500 96.500 C 102.454 96.546,102.146 97.108,101.815 97.750 C 101.484 98.392,100.989 99.329,100.715 99.833 C 99.639 101.815,98.785 103.412,98.015 104.881 C 97.573 105.726,96.911 106.979,96.543 107.667 C 96.176 108.354,95.368 109.892,94.747 111.083 C 92.001 116.352,91.393 117.519,90.532 119.167 C 90.029 120.129,89.476 121.217,89.303 121.583 C 89.129 121.950,88.903 122.400,88.799 122.583 C 88.270 123.517,81.601 136.587,79.572 140.667 C 77.565 144.703,76.614 146.727,76.244 147.750 C 76.078 148.208,75.887 148.658,75.820 148.750 C 75.648 148.983,75.203 150.629,74.805 152.500 C 74.336 154.710,74.507 157.009,75.346 159.750 C 75.665 160.791,75.815 161.198,76.330 162.417 C 78.271 167.011,88.761 187.718,95.833 200.917 C 96.226 201.650,96.901 202.925,97.334 203.750 C 97.767 204.575,98.345 205.662,98.618 206.167 C 99.184 207.208,100.275 209.234,101.131 210.833 C 101.450 211.429,101.917 212.292,102.168 212.750 C 102.419 213.208,102.827 213.958,103.074 214.417 C 103.322 214.875,103.691 215.550,103.895 215.917 C 104.237 216.529,104.684 217.349,106.306 220.333 C 106.629 220.929,107.106 221.776,107.364 222.216 C 107.622 222.655,107.833 223.053,107.833 223.100 C 107.833 223.146,108.246 223.899,108.750 224.772 C 109.254 225.645,109.667 226.389,109.667 226.425 C 109.667 226.461,110.030 227.111,110.474 227.870 C 110.919 228.629,111.457 229.606,111.671 230.042 C 111.884 230.477,112.121 230.833,112.196 230.833 C 112.272 230.833,112.333 230.914,112.333 231.013 C 112.333 231.111,112.623 231.692,112.977 232.304 C 113.618 233.412,114.093 234.257,115.054 236.000 C 115.332 236.504,115.832 237.367,116.166 237.917 C 116.500 238.467,116.992 239.329,117.260 239.833 C 117.528 240.338,117.786 240.787,117.832 240.833 C 117.879 240.879,118.072 241.217,118.262 241.583 C 118.451 241.950,119.558 243.870,120.720 245.850 C 121.882 247.830,122.833 249.530,122.833 249.628 C 122.833 249.726,122.896 249.831,122.972 249.861 C 123.126 249.923,124.500 252.235,124.500 252.433 C 124.500 252.501,124.605 252.675,124.733 252.820 C 124.960 253.076,125.401 253.815,126.035 255.000 C 126.207 255.321,126.530 255.883,126.753 256.250 C 126.976 256.617,127.207 257.048,127.265 257.208 C 127.324 257.369,127.430 257.500,127.501 257.500 C 127.572 257.500,127.676 257.682,127.732 257.905 C 127.788 258.128,127.928 258.409,128.044 258.530 C 128.159 258.651,128.346 258.938,128.459 259.167 C 128.689 259.633,129.038 260.207,129.170 260.333 C 129.218 260.379,129.350 260.604,129.465 260.833 C 129.580 261.063,129.857 261.550,130.081 261.917 C 130.305 262.283,130.585 262.771,130.703 263.000 C 130.822 263.229,131.108 263.717,131.339 264.083 C 132.032 265.182,132.160 265.398,132.373 265.833 C 132.485 266.063,132.626 266.287,132.686 266.333 C 132.799 266.420,133.678 267.936,134.038 268.667 C 134.151 268.896,134.288 269.121,134.342 269.167 C 134.419 269.231,137.796 274.937,139.177 277.333 C 139.309 277.563,139.462 277.787,139.517 277.833 C 139.572 277.879,139.647 277.992,139.683 278.083 C 139.809 278.398,143.210 284.083,143.772 284.918 C 144.081 285.377,144.333 285.812,144.333 285.883 C 144.333 285.955,144.413 286.105,144.510 286.215 C 144.708 286.440,146.775 289.873,147.065 290.457 C 147.167 290.663,147.306 290.831,147.375 290.832 C 147.444 290.833,147.500 290.899,147.500 290.979 C 147.500 291.058,148.000 291.940,148.610 292.937 C 149.221 293.934,150.061 295.313,150.478 296.000 C 150.895 296.688,151.295 297.275,151.368 297.306 C 151.440 297.336,151.500 297.440,151.500 297.537 C 151.500 297.684,153.109 300.304,154.805 302.917 C 156.893 306.135,158.831 307.925,161.000 308.638 C 164.074 309.649,190.003 310.123,217.000 309.662 C 233.545 309.380,236.167 309.122,238.131 307.585 C 239.912 306.191,241.118 304.676,243.505 300.833 C 243.989 300.054,244.636 299.041,244.943 298.582 C 245.249 298.123,245.500 297.660,245.500 297.554 C 245.500 297.448,245.558 297.336,245.628 297.306 C 245.745 297.255,247.161 294.972,247.317 294.583 C 247.353 294.492,247.428 294.379,247.483 294.333 C 247.598 294.238,247.699 294.073,248.768 292.250 C 249.198 291.517,249.595 290.879,249.650 290.833 C 249.753 290.747,250.032 290.278,250.488 289.426 C 250.632 289.157,250.809 288.857,250.882 288.760 C 251.224 288.303,253.500 284.433,253.500 284.308 C 253.500 284.230,253.570 284.167,253.654 284.167 C 253.739 284.167,253.833 284.073,253.863 283.958 C 253.924 283.720,256.586 279.191,257.435 277.878 C 257.746 277.398,258.000 276.929,258.000 276.836 C 258.000 276.743,258.075 276.667,258.167 276.667 C 258.258 276.667,258.333 276.606,258.333 276.531 C 258.333 276.456,258.998 275.275,259.810 273.906 C 261.789 270.568,266.297 262.895,266.706 262.167 C 266.886 261.846,267.128 261.471,267.243 261.333 C 267.357 261.196,267.561 260.858,267.695 260.583 C 267.991 259.977,268.386 259.280,268.500 259.167 C 268.627 259.040,268.961 258.483,269.299 257.833 C 269.700 257.065,270.063 256.437,270.167 256.333 C 270.212 256.287,270.351 256.071,270.474 255.852 C 270.597 255.633,270.841 255.202,271.016 254.894 C 271.190 254.586,271.476 254.081,271.651 253.773 C 271.826 253.465,272.069 253.033,272.193 252.815 C 272.316 252.596,272.454 252.379,272.500 252.333 C 272.586 252.247,272.746 251.972,273.460 250.680 C 273.692 250.260,275.071 247.886,276.524 245.403 C 277.978 242.921,279.167 240.802,279.167 240.695 C 279.167 240.588,279.229 240.500,279.306 240.500 C 279.383 240.500,279.652 240.106,279.904 239.625 C 280.156 239.144,280.540 238.450,280.757 238.083 C 280.973 237.717,281.206 237.304,281.273 237.167 C 281.340 237.029,281.746 236.317,282.174 235.583 C 282.603 234.850,283.141 233.912,283.370 233.500 C 284.490 231.484,285.435 229.823,285.789 229.250 C 285.903 229.067,286.120 228.635,286.273 228.292 C 286.426 227.948,286.614 227.667,286.692 227.667 C 286.770 227.667,286.833 227.586,286.833 227.487 C 286.833 227.389,287.124 226.808,287.478 226.196 C 287.833 225.584,288.425 224.521,288.795 223.833 C 289.164 223.146,289.740 222.096,290.075 221.500 C 290.410 220.904,290.795 220.192,290.931 219.917 C 291.067 219.642,291.348 219.117,291.556 218.750 C 292.432 217.204,294.844 212.730,296.227 210.083 C 296.515 209.533,296.787 209.046,296.833 209.000 C 296.879 208.954,297.206 208.354,297.559 207.667 C 297.913 206.979,298.521 205.817,298.911 205.083 C 299.301 204.350,300.170 202.700,300.842 201.417 C 301.514 200.133,302.281 198.671,302.547 198.167 C 303.373 196.598,304.882 193.701,306.410 190.750 C 307.217 189.192,308.328 187.054,308.881 186.000 C 313.254 177.650,320.592 162.911,320.913 161.833 C 320.981 161.604,321.132 161.192,321.248 160.917 C 323.157 156.398,322.776 151.713,320.037 146.000 C 316.672 138.982,307.619 121.212,301.483 109.583 C 301.144 108.942,300.504 107.704,300.060 106.833 C 299.616 105.962,299.214 105.212,299.168 105.167 C 299.121 105.121,298.793 104.521,298.437 103.833 C 297.777 102.556,297.035 101.156,295.919 99.083 C 295.573 98.442,295.019 97.392,294.687 96.750 C 294.355 96.108,294.044 95.546,293.997 95.500 C 293.949 95.454,293.821 95.229,293.712 95.000 C 293.603 94.771,293.203 94.021,292.823 93.333 C 292.443 92.646,291.825 91.521,291.451 90.833 C 291.076 90.146,290.560 89.208,290.304 88.750 C 290.047 88.292,289.784 87.804,289.719 87.667 C 289.653 87.529,289.277 86.871,288.883 86.204 C 288.489 85.536,288.167 84.958,288.167 84.918 C 288.167 84.878,287.754 84.131,287.250 83.257 C 286.746 82.384,286.333 81.636,286.333 81.594 C 286.333 81.553,285.921 80.814,285.417 79.953 C 284.912 79.092,284.500 78.300,284.500 78.194 C 284.500 78.087,284.441 78.000,284.369 78.000 C 284.296 78.000,284.015 77.569,283.744 77.042 C 283.472 76.515,282.721 75.184,282.074 74.084 C 281.427 72.983,280.790 71.840,280.658 71.542 C 280.526 71.244,280.362 71.000,280.293 71.000 C 280.223 71.000,280.167 70.928,280.167 70.840 C 280.167 70.751,279.379 69.327,278.417 67.674 C 277.454 66.022,276.667 64.594,276.667 64.502 C 276.667 64.409,276.597 64.333,276.511 64.333 C 276.425 64.333,276.260 64.071,276.144 63.750 C 276.028 63.429,275.885 63.167,275.827 63.167 C 275.769 63.167,275.518 62.773,275.270 62.292 C 275.022 61.810,274.638 61.117,274.417 60.750 C 274.197 60.383,273.961 59.971,273.895 59.833 C 273.643 59.314,261.769 39.080,261.669 39.000 C 261.612 38.954,261.466 38.673,261.345 38.375 C 261.225 38.077,261.060 37.833,260.980 37.833 C 260.899 37.833,260.833 37.732,260.833 37.608 C 260.833 37.485,260.621 37.091,260.362 36.733 C 259.919 36.121,259.639 35.649,259.137 34.667 C 259.019 34.438,258.877 34.212,258.820 34.167 C 258.763 34.121,258.687 34.008,258.650 33.917 C 258.544 33.651,255.687 28.839,255.065 27.878 C 254.754 27.398,254.500 26.929,254.500 26.836 C 254.500 26.743,254.425 26.667,254.333 26.667 C 254.242 26.667,254.167 26.606,254.167 26.531 C 254.167 26.387,251.676 22.143,251.508 22.000 C 251.454 21.954,251.315 21.729,251.200 21.500 C 250.928 20.961,250.454 20.148,250.282 19.925 C 250.207 19.829,249.675 18.962,249.100 18.000 C 247.046 14.567,246.429 13.583,246.299 13.528 C 246.226 13.497,246.167 13.408,246.167 13.329 C 246.167 13.251,245.717 12.465,245.167 11.583 C 244.617 10.701,244.167 9.916,244.167 9.837 C 244.167 9.759,244.107 9.669,244.034 9.639 C 243.961 9.608,243.455 8.871,242.910 8.000 C 241.754 6.156,241.941 6.423,240.672 4.811 C 239.508 3.332,238.201 2.127,237.349 1.745 C 237.020 1.598,236.600 1.410,236.417 1.328 C 235.149 0.758,231.171 0.484,219.667 0.171 C 214.134 0.020,185.352 -0.017,182.667 0.122 M219.833 1.834 C 238.047 2.270,237.101 1.876,243.084 11.500 C 243.796 12.646,244.545 13.846,244.749 14.167 C 246.474 16.889,254.076 29.513,257.996 36.167 C 258.941 37.771,259.992 39.533,260.330 40.083 C 260.893 40.997,263.131 44.798,268.672 54.250 C 269.801 56.175,271.432 58.987,272.297 60.500 C 273.162 62.012,274.001 63.475,274.161 63.750 C 274.322 64.025,274.885 65.000,275.412 65.917 C 275.940 66.833,276.616 67.996,276.915 68.500 C 277.213 69.004,277.644 69.754,277.872 70.167 C 278.100 70.579,278.887 71.967,279.622 73.250 C 281.365 76.294,284.952 82.654,286.532 85.500 C 288.857 89.689,290.630 92.912,291.254 94.083 C 291.596 94.725,291.930 95.325,291.996 95.417 C 292.062 95.508,292.513 96.333,293.000 97.250 C 293.486 98.167,294.144 99.404,294.463 100.000 C 294.781 100.596,295.342 101.646,295.708 102.333 C 296.075 103.021,296.656 104.108,296.999 104.750 C 297.942 106.514,299.016 108.547,300.082 110.583 C 300.610 111.592,301.398 113.092,301.834 113.917 C 302.269 114.742,303.362 116.842,304.262 118.583 C 319.982 148.996,321.078 151.515,320.656 156.275 C 320.384 159.348,318.613 163.269,309.452 181.083 C 308.415 183.100,306.679 186.475,305.594 188.583 C 304.510 190.692,303.492 192.642,303.333 192.917 C 303.174 193.192,302.498 194.467,301.831 195.750 C 299.495 200.246,296.426 206.075,295.250 208.250 C 294.953 208.800,294.314 210.000,293.831 210.917 C 293.347 211.833,292.898 212.658,292.832 212.750 C 292.766 212.842,292.354 213.592,291.915 214.417 C 290.949 216.234,290.456 217.147,289.037 219.749 C 286.484 224.434,281.354 233.568,279.163 237.333 C 278.549 238.387,277.857 239.588,277.626 240.000 C 276.120 242.681,268.359 255.969,262.607 265.712 C 261.296 267.933,260.116 269.938,259.986 270.167 C 259.856 270.396,259.712 270.621,259.667 270.667 C 259.585 270.749,259.471 270.943,258.800 272.148 C 258.615 272.479,258.405 272.825,258.333 272.917 C 258.261 273.008,257.472 274.321,256.580 275.833 C 255.688 277.346,254.825 278.808,254.663 279.083 C 254.501 279.358,253.302 281.346,252.000 283.500 C 250.698 285.654,249.211 288.129,248.697 289.000 C 248.183 289.871,247.703 290.608,247.631 290.639 C 247.559 290.669,247.500 290.757,247.500 290.833 C 247.500 290.972,245.136 294.876,242.404 299.250 C 237.260 307.484,237.471 307.377,225.720 307.661 C 198.131 308.325,194.502 308.325,170.250 307.660 C 160.205 307.385,159.643 307.152,156.213 301.855 C 155.523 300.789,154.788 299.654,154.580 299.333 C 153.780 298.098,148.825 290.014,147.992 288.583 C 147.832 288.308,146.970 286.883,146.077 285.417 C 145.185 283.950,143.517 281.175,142.372 279.250 C 141.227 277.325,139.372 274.212,138.251 272.333 C 136.509 269.415,134.057 265.254,128.333 255.500 C 126.086 251.671,122.524 245.541,121.505 243.750 C 120.931 242.742,120.328 241.685,120.165 241.401 C 116.926 235.775,111.904 226.890,109.999 223.417 C 109.698 222.867,108.910 221.442,108.248 220.250 C 107.141 218.257,105.662 215.544,104.204 212.833 C 103.884 212.237,103.492 211.525,103.334 211.250 C 103.175 210.975,102.686 210.075,102.247 209.250 C 101.807 208.425,101.246 207.375,100.999 206.917 C 99.755 204.605,99.080 203.338,97.668 200.667 C 96.821 199.063,95.808 197.150,95.418 196.417 C 89.034 184.414,79.875 166.231,77.997 161.833 C 77.704 161.146,77.400 160.433,77.322 160.250 C 74.695 154.065,75.548 151.725,91.907 120.250 C 92.717 118.692,93.866 116.479,94.460 115.333 C 96.064 112.241,97.319 109.855,97.833 108.917 C 98.085 108.458,98.722 107.258,99.250 106.250 C 101.302 102.327,103.511 98.211,107.881 90.167 C 109.499 87.188,115.866 75.937,119.671 69.333 C 120.648 67.637,121.636 65.912,121.867 65.500 C 123.013 63.450,131.263 49.255,131.770 48.462 C 131.988 48.120,132.167 47.809,132.167 47.771 C 132.167 47.732,132.474 47.196,132.849 46.578 C 133.224 45.961,133.663 45.222,133.825 44.936 C 136.098 40.931,148.925 19.452,152.301 14.000 C 159.339 2.634,159.468 2.532,167.333 2.157 C 176.899 1.701,206.643 1.518,219.833 1.834 M230.067 7.471 C 229.234 8.075,226.513 12.195,223.499 17.417 C 220.994 21.756,217.954 27.073,216.923 28.917 C 216.206 30.200,215.154 32.075,214.585 33.083 C 214.016 34.092,213.303 35.367,213.000 35.917 C 212.697 36.467,212.283 37.217,212.080 37.583 C 211.271 39.049,208.526 44.072,207.118 46.667 C 206.297 48.179,205.421 49.792,205.171 50.250 C 204.922 50.708,204.396 51.683,204.004 52.417 C 203.611 53.150,201.961 56.225,200.337 59.250 C 196.560 66.286,194.191 70.737,192.000 74.917 C 191.423 76.017,190.673 77.442,190.332 78.083 C 189.574 79.511,188.276 81.989,186.665 85.083 C 185.997 86.367,185.096 88.092,184.663 88.917 C 184.229 89.742,183.219 91.692,182.417 93.250 C 181.616 94.808,180.415 97.133,179.748 98.417 C 176.847 104.004,174.940 107.761,169.513 118.583 C 166.341 124.908,163.114 131.396,162.343 133.000 C 161.572 134.604,160.308 137.229,159.535 138.833 C 158.763 140.438,157.922 142.200,157.668 142.750 C 157.414 143.300,156.897 144.408,156.520 145.212 C 156.142 146.015,155.833 146.712,155.833 146.759 C 155.833 146.806,157.812 146.823,160.230 146.797 C 165.264 146.743,164.786 146.518,163.860 148.507 C 161.569 153.426,161.463 155.970,163.376 160.167 C 163.707 160.893,164.263 162.135,165.504 164.917 C 166.035 166.108,166.746 167.683,167.083 168.417 C 167.420 169.150,167.850 170.087,168.038 170.500 C 169.937 174.670,171.749 178.570,173.499 182.250 C 173.978 183.258,174.653 184.683,175.000 185.417 C 179.217 194.344,189.065 213.929,195.448 226.083 C 196.122 227.367,196.766 228.597,196.878 228.818 C 198.202 231.412,199.119 230.787,201.913 225.386 C 202.996 223.295,204.235 220.908,204.669 220.083 C 207.359 214.960,217.831 194.135,219.571 190.449 C 219.969 189.606,220.873 187.717,221.579 186.250 C 222.286 184.783,223.092 183.096,223.371 182.500 C 224.110 180.919,225.070 178.871,225.853 177.208 C 226.230 176.406,226.728 175.338,226.960 174.833 C 227.191 174.329,227.707 173.216,228.107 172.360 C 228.506 171.503,228.833 170.776,228.833 170.744 C 228.833 170.713,229.125 170.063,229.481 169.302 C 230.943 166.175,231.333 165.322,231.333 165.253 C 231.333 165.212,231.671 164.457,232.083 163.574 C 232.496 162.691,232.833 161.945,232.833 161.916 C 232.833 161.887,233.088 161.313,233.399 160.640 C 235.282 156.568,235.437 154.361,234.092 150.789 C 233.726 149.819,233.531 149.367,232.397 146.875 C 232.158 146.348,231.664 145.242,231.299 144.417 C 230.935 143.592,230.465 142.542,230.254 142.083 C 230.042 141.625,229.441 140.313,228.916 139.167 C 227.207 135.432,225.016 130.700,224.267 129.125 C 223.864 128.277,223.072 126.608,222.507 125.417 C 221.942 124.225,220.830 121.900,220.036 120.250 C 218.066 116.156,207.248 94.541,205.085 90.377 C 204.122 88.522,203.333 86.928,203.333 86.835 C 203.333 86.726,204.726 86.667,207.264 86.667 L 211.195 86.667 210.074 84.542 C 208.227 81.039,207.503 79.680,206.417 77.667 C 205.847 76.612,205.042 75.112,204.626 74.333 C 202.910 71.115,202.147 69.758,202.003 69.668 C 201.919 69.617,202.264 68.564,202.769 67.329 C 203.274 66.094,203.731 64.971,203.784 64.833 C 204.026 64.208,205.724 60.177,206.012 59.543 C 206.189 59.155,206.333 58.801,206.333 58.756 C 206.333 58.712,206.515 58.280,206.738 57.796 C 206.960 57.312,207.383 56.354,207.677 55.667 C 207.971 54.979,208.381 54.042,208.586 53.583 C 208.792 53.125,209.411 51.737,209.963 50.500 C 211.065 48.026,211.579 46.902,212.731 44.443 C 213.154 43.541,213.500 42.780,213.500 42.753 C 213.500 42.726,213.940 41.777,214.478 40.644 C 215.016 39.511,215.754 37.946,216.117 37.167 C 218.584 31.880,225.725 17.493,229.250 10.708 C 231.230 6.897,231.314 6.567,230.067 7.471 M199.333 83.172 C 199.333 83.248,199.427 83.409,199.542 83.531 C 199.656 83.653,200.237 84.727,200.833 85.918 C 201.429 87.109,201.954 88.121,202.000 88.167 C 202.046 88.212,202.731 89.525,203.523 91.083 C 204.314 92.642,205.543 95.042,206.252 96.417 C 207.719 99.260,216.384 116.597,217.540 119.000 C 217.958 119.871,218.953 121.933,219.750 123.583 C 221.430 127.060,222.281 128.848,222.923 130.250 C 223.175 130.800,223.820 132.178,224.357 133.312 C 224.894 134.445,225.333 135.394,225.333 135.419 C 225.333 135.445,225.746 136.340,226.250 137.409 C 226.754 138.478,227.167 139.378,227.167 139.410 C 227.167 139.461,227.548 140.295,228.919 143.250 C 230.036 145.655,230.500 146.688,230.500 146.769 C 230.500 146.819,230.755 147.397,231.067 148.055 C 231.863 149.731,232.333 150.796,232.333 150.924 C 232.333 150.984,232.440 151.269,232.570 151.558 C 233.567 153.767,233.565 156.017,232.566 158.275 C 232.438 158.564,232.333 158.858,232.333 158.929 C 232.333 158.999,232.115 159.513,231.848 160.070 C 231.581 160.627,231.198 161.458,230.997 161.917 C 230.796 162.375,230.414 163.224,230.149 163.803 C 229.884 164.383,229.667 164.881,229.667 164.911 C 229.667 164.941,229.254 165.840,228.750 166.909 C 228.246 167.978,227.833 168.893,227.833 168.943 C 227.833 168.992,227.524 169.681,227.147 170.475 C 226.770 171.268,226.288 172.292,226.077 172.750 C 225.865 173.208,225.323 174.371,224.872 175.333 C 224.421 176.296,223.880 177.458,223.671 177.917 C 223.462 178.375,222.933 179.500,222.497 180.417 C 222.060 181.333,221.313 182.908,220.837 183.917 C 220.360 184.925,219.647 186.425,219.252 187.250 C 217.945 189.979,212.998 200.051,212.048 201.917 C 211.535 202.925,209.796 206.353,208.183 209.534 C 206.570 212.715,204.871 216.052,204.408 216.951 C 198.914 227.612,198.749 227.917,198.490 227.917 C 198.285 227.917,198.136 227.658,196.055 223.675 C 194.908 221.478,194.201 220.105,190.661 213.206 C 190.062 212.038,189.412 210.783,189.215 210.417 C 188.433 208.958,182.474 197.001,179.789 191.500 C 177.407 186.622,175.162 181.935,174.000 179.417 C 173.704 178.775,173.163 177.612,172.797 176.833 C 171.487 174.044,171.190 173.403,170.749 172.417 C 170.504 171.867,170.039 170.854,169.717 170.167 C 168.870 168.356,168.462 167.465,167.580 165.500 C 167.148 164.537,166.575 163.262,166.305 162.667 C 166.036 162.071,165.748 161.433,165.666 161.250 C 163.397 156.192,163.159 154.160,164.495 151.250 C 164.580 151.067,164.811 150.542,165.010 150.083 C 165.210 149.625,165.626 148.705,165.936 148.038 C 166.246 147.371,166.500 146.784,166.500 146.733 C 166.500 146.682,166.752 146.103,167.060 145.445 C 167.368 144.788,167.734 143.987,167.875 143.667 C 168.384 142.506,169.261 140.574,170.333 138.250 C 170.587 137.700,170.984 136.837,171.214 136.333 C 171.992 134.634,172.860 132.756,173.333 131.750 C 176.251 125.537,176.701 124.597,179.116 119.667 C 182.594 112.568,188.977 99.888,192.163 93.750 C 192.829 92.467,193.632 90.892,193.947 90.250 C 194.263 89.608,194.587 88.971,194.669 88.833 C 194.751 88.696,195.140 87.946,195.534 87.167 C 195.928 86.388,196.287 85.712,196.333 85.667 C 196.379 85.621,196.751 84.908,197.160 84.083 C 197.569 83.258,198.047 82.371,198.223 82.112 L 198.542 81.640 198.937 82.337 C 199.155 82.720,199.333 83.096,199.333 83.172 M261.000 159.863 C 261.000 160.886,260.644 161.333,259.831 161.333 L 259.061 161.333 258.669 162.292 C 258.454 162.819,258.058 163.644,257.789 164.125 L 257.302 165.000 258.151 165.000 C 259.206 165.000,259.218 164.919,257.903 166.685 C 255.353 170.110,252.670 171.832,247.500 173.361 C 246.347 173.702,241.368 173.651,240.090 173.285 C 239.544 173.128,239.002 173.000,238.886 173.000 C 238.724 173.000,236.667 176.958,236.667 177.269 C 236.667 177.304,251.910 177.333,270.542 177.332 L 304.417 177.331 308.696 168.707 C 311.050 163.964,313.016 159.952,313.066 159.792 C 313.152 159.515,311.838 159.500,287.078 159.500 L 261.000 159.500 261.000 159.863 M85.224 161.084 C 85.474 162.905,86.793 166.042,90.111 172.708 L 92.496 177.500 126.582 177.500 C 145.328 177.500,160.667 177.471,160.667 177.435 C 160.667 177.399,160.394 176.818,160.060 176.143 C 159.458 174.927,158.135 172.159,157.083 169.917 C 156.782 169.275,155.957 167.550,155.249 166.083 C 154.542 164.617,153.632 162.723,153.228 161.875 L 152.492 160.333 118.807 160.333 L 85.121 160.333 85.224 161.084 M0.417 350.625 C 0.364 350.969,0.248 351.521,0.160 351.853 C -0.103 352.843,-0.039 353.092,0.875 354.620 L 1.750 356.083 1.794 377.708 L 1.837 399.333 8.335 399.333 L 14.833 399.333 14.833 391.417 L 14.833 383.500 22.733 383.500 L 30.633 383.500 30.963 384.125 C 31.145 384.469,31.583 385.313,31.938 386.000 C 32.293 386.688,32.625 387.287,32.676 387.333 C 32.726 387.379,33.013 387.893,33.313 388.475 C 33.613 389.058,34.014 389.808,34.204 390.142 C 34.394 390.476,34.791 391.200,35.086 391.750 C 35.381 392.300,35.846 393.162,36.119 393.667 C 36.590 394.535,37.624 396.453,38.412 397.917 C 38.609 398.283,38.877 398.752,39.009 398.958 L 39.247 399.333 46.290 399.333 C 50.164 399.333,53.333 399.297,53.333 399.252 C 53.333 399.207,52.857 398.364,52.274 397.377 C 50.721 394.748,49.335 392.343,48.935 391.583 C 48.741 391.217,48.546 390.879,48.500 390.833 C 48.454 390.787,48.323 390.581,48.208 390.375 C 48.094 390.169,47.906 389.831,47.792 389.625 C 47.677 389.419,47.546 389.212,47.500 389.167 C 47.454 389.121,47.304 388.858,47.167 388.583 C 47.029 388.308,46.880 388.046,46.834 388.000 C 46.788 387.954,46.649 387.738,46.526 387.519 C 46.403 387.300,46.148 386.850,45.961 386.519 C 45.773 386.188,45.450 385.617,45.244 385.250 C 45.037 384.883,44.410 383.796,43.851 382.834 C 42.672 380.807,42.709 380.944,43.270 380.688 C 45.192 379.812,48.378 376.422,49.633 373.917 C 52.028 369.136,52.225 363.238,50.146 358.543 C 49.974 358.155,49.833 357.767,49.833 357.682 C 49.833 357.597,49.776 357.503,49.705 357.472 C 49.635 357.442,49.333 357.032,49.034 356.561 C 47.836 354.675,44.743 352.396,42.410 351.679 C 42.047 351.568,41.600 351.415,41.417 351.339 C 41.233 351.263,40.596 351.082,40.000 350.938 C 38.962 350.686,38.073 350.557,34.739 350.174 C 33.790 350.065,27.142 350.000,16.871 350.000 L 0.515 350.000 0.417 350.625 M65.500 374.667 L 65.500 399.333 86.917 399.333 L 108.333 399.333 108.333 394.750 L 108.333 390.167 93.417 390.167 L 78.500 390.167 78.500 384.500 L 78.500 378.833 91.750 378.833 L 105.000 378.833 105.000 374.333 L 105.000 369.833 91.750 369.833 L 78.500 369.833 78.500 364.500 L 78.500 359.167 93.000 359.167 L 107.500 359.167 107.500 354.583 L 107.500 350.000 86.500 350.000 L 65.500 350.000 65.500 374.667 M120.093 350.375 C 120.049 350.581,119.937 351.270,119.846 351.906 L 119.679 353.062 120.509 354.500 C 121.744 356.639,121.667 355.062,121.667 378.207 L 121.667 399.333 127.500 399.333 L 133.333 399.333 133.342 383.125 C 133.350 367.827,133.367 366.940,133.634 367.330 C 133.789 367.557,134.029 367.859,134.167 368.002 C 134.304 368.144,134.988 368.971,135.686 369.839 C 136.384 370.707,137.134 371.609,137.352 371.844 C 137.571 372.079,138.125 372.715,138.583 373.257 C 139.042 373.799,139.529 374.365,139.667 374.514 C 139.804 374.664,140.479 375.410,141.167 376.172 C 141.854 376.935,142.529 377.678,142.667 377.824 C 143.109 378.294,146.228 381.716,146.917 382.487 C 147.283 382.897,147.808 383.466,148.083 383.751 C 148.358 384.036,149.071 384.823,149.667 385.500 C 150.262 386.177,150.975 386.964,151.250 387.248 C 151.525 387.533,152.350 388.435,153.083 389.254 C 153.817 390.073,154.695 391.045,155.035 391.413 C 155.376 391.782,155.855 392.308,156.101 392.583 C 156.853 393.426,159.518 396.314,160.750 397.623 C 161.392 398.304,161.977 398.968,162.050 399.097 C 162.161 399.293,163.125 399.333,167.758 399.333 L 173.333 399.333 173.333 374.667 L 173.333 350.000 167.584 350.000 L 161.835 350.000 161.792 366.188 L 161.750 382.377 160.917 381.315 C 160.458 380.730,159.971 380.132,159.833 379.985 C 159.581 379.715,158.613 378.574,157.729 377.504 C 157.465 377.186,157.137 376.806,157.000 376.660 C 156.862 376.513,156.300 375.879,155.750 375.250 C 155.200 374.620,154.600 373.939,154.417 373.736 C 154.233 373.533,153.671 372.900,153.167 372.329 C 152.662 371.758,152.052 371.089,151.809 370.842 C 151.566 370.595,151.049 370.024,150.659 369.572 C 149.783 368.557,147.480 366.026,146.583 365.091 C 145.956 364.438,143.288 361.545,142.000 360.121 C 141.679 359.767,141.117 359.160,140.750 358.773 C 140.383 358.386,139.296 357.211,138.333 356.162 C 137.371 355.113,136.129 353.767,135.574 353.169 C 135.018 352.572,134.193 351.684,133.740 351.196 C 133.287 350.708,132.892 350.239,132.861 350.154 C 132.828 350.063,130.215 350.000,126.489 350.000 L 120.173 350.000 120.093 350.375 M204.212 350.207 C 204.039 350.428,203.052 352.489,200.998 356.917 C 200.743 357.467,200.152 358.730,199.684 359.724 C 199.216 360.718,198.833 361.566,198.833 361.609 C 198.833 361.652,198.533 362.315,198.167 363.083 C 197.800 363.852,197.500 364.521,197.500 364.571 C 197.500 364.620,197.162 365.364,196.750 366.223 C 196.338 367.083,196.000 367.844,196.000 367.914 C 196.000 367.985,195.779 368.502,195.509 369.063 C 195.239 369.624,194.826 370.552,194.591 371.124 C 194.355 371.697,193.982 372.559,193.760 373.041 C 193.538 373.523,193.007 374.742,192.581 375.750 C 192.155 376.758,191.700 377.820,191.570 378.109 C 191.440 378.397,191.333 378.673,191.333 378.722 C 191.333 378.770,191.108 379.296,190.833 379.890 C 190.558 380.484,190.333 381.019,190.333 381.078 C 190.333 381.176,190.021 381.914,189.405 383.275 C 189.274 383.564,189.167 383.849,189.167 383.909 C 189.167 384.004,188.997 384.413,188.335 385.917 C 188.055 386.552,186.972 389.255,186.566 390.333 C 186.341 390.929,186.085 391.567,185.997 391.750 C 185.909 391.933,185.645 392.608,185.411 393.250 C 184.950 394.512,184.576 395.415,184.325 395.873 C 184.238 396.032,184.166 396.257,184.166 396.373 C 184.165 396.489,184.065 396.775,183.942 397.009 C 183.700 397.475,183.167 398.977,183.167 399.196 C 183.167 399.272,186.045 399.333,189.563 399.333 L 195.959 399.333 196.313 398.511 C 196.507 398.058,196.667 397.607,196.667 397.509 C 196.667 397.410,196.741 397.199,196.832 397.039 C 196.923 396.880,197.271 396.000,197.605 395.083 C 197.940 394.167,198.291 393.229,198.386 393.000 C 198.481 392.771,198.680 392.208,198.827 391.750 L 199.095 390.917 212.258 390.874 L 225.422 390.831 225.816 391.874 C 226.033 392.447,226.303 393.142,226.417 393.417 C 226.530 393.692,227.064 395.135,227.603 396.624 L 228.583 399.331 235.042 399.332 C 240.101 399.333,241.499 399.288,241.494 399.125 C 241.491 399.010,241.344 398.617,241.167 398.250 C 240.990 397.883,240.842 397.489,240.839 397.373 C 240.836 397.257,240.760 397.032,240.670 396.873 C 240.485 396.546,238.667 391.890,238.667 391.743 C 238.667 391.656,238.337 390.879,237.738 389.558 C 237.607 389.269,237.500 388.984,237.500 388.924 C 237.500 388.824,237.191 388.092,236.571 386.725 C 236.440 386.436,236.333 386.152,236.333 386.093 C 236.333 386.000,233.574 379.304,233.170 378.417 C 233.086 378.233,232.859 377.708,232.664 377.250 C 232.469 376.792,232.202 376.180,232.071 375.891 C 231.940 375.603,231.833 375.315,231.833 375.252 C 231.833 375.189,231.602 374.638,231.319 374.027 C 231.037 373.416,230.505 372.212,230.138 371.350 C 229.771 370.488,229.408 369.663,229.331 369.516 C 229.198 369.263,228.888 368.569,228.244 367.083 C 227.613 365.625,227.342 365.025,226.685 363.628 C 226.308 362.828,226.000 362.137,226.000 362.093 C 226.000 362.049,225.729 361.429,225.397 360.715 C 225.065 360.001,224.568 358.929,224.292 358.333 C 224.015 357.738,223.470 356.575,223.080 355.750 C 222.690 354.925,222.023 353.500,221.598 352.583 C 221.174 351.667,220.720 350.729,220.590 350.500 L 220.354 350.083 212.366 350.040 C 206.099 350.006,204.341 350.042,204.212 350.207 M247.260 350.208 C 247.225 350.323,247.110 350.993,247.004 351.698 L 246.812 352.979 247.365 354.031 C 247.668 354.610,247.954 355.121,248.000 355.167 C 248.756 355.922,248.744 355.709,248.843 370.667 C 248.916 381.625,248.985 384.898,249.155 385.417 C 249.275 385.783,249.524 386.608,249.708 387.250 C 249.893 387.892,250.098 388.492,250.164 388.583 C 250.231 388.675,250.370 389.003,250.475 389.313 C 251.123 391.240,253.936 394.443,256.211 395.846 C 261.346 399.013,266.620 400.117,275.833 399.952 C 285.886 399.773,291.818 397.700,295.967 392.916 C 296.469 392.337,298.167 389.620,298.167 389.395 C 298.167 389.343,298.277 389.064,298.412 388.775 C 299.728 385.954,299.822 384.456,299.828 366.208 L 299.833 350.000 293.500 350.000 L 287.167 350.000 287.163 365.708 C 287.160 380.567,287.092 383.180,286.681 384.083 C 286.598 384.267,286.375 384.755,286.186 385.168 C 284.895 387.990,281.344 389.543,275.667 389.768 C 267.990 390.071,263.899 388.352,262.138 384.083 C 261.741 383.122,261.673 380.436,261.670 365.708 L 261.667 350.000 254.495 350.000 C 248.902 350.000,247.309 350.046,247.260 350.208 M314.000 374.667 L 314.000 399.333 334.333 399.333 L 354.667 399.333 354.667 394.750 L 354.667 390.167 340.750 390.167 L 326.833 390.167 326.833 370.083 L 326.833 350.000 320.417 350.000 L 314.000 350.000 314.000 374.667 M349.167 354.583 L 349.167 359.167 358.667 359.167 L 368.167 359.167 368.167 379.250 L 368.167 399.333 374.667 399.333 L 381.167 399.333 381.167 379.250 L 381.167 359.167 390.583 359.167 L 400.000 359.167 400.000 354.583 L 400.000 350.000 374.583 350.000 L 349.167 350.000 349.167 354.583 M213.135 361.000 C 213.990 362.906,214.167 363.323,214.167 363.427 C 214.167 363.488,214.429 364.099,214.750 364.784 C 215.071 365.469,215.333 366.065,215.333 366.107 C 215.333 366.174,215.634 366.887,216.167 368.083 C 216.734 369.357,217.000 369.995,217.000 370.083 C 217.000 370.139,217.157 370.529,217.349 370.950 C 217.840 372.029,219.833 376.827,219.833 376.932 C 219.833 377.007,220.181 377.835,220.668 378.917 C 220.751 379.100,221.002 379.700,221.228 380.250 L 221.637 381.250 212.375 381.293 C 202.505 381.339,202.849 381.358,203.130 380.791 C 203.453 380.138,204.000 378.856,204.000 378.750 C 204.000 378.662,204.266 378.024,204.833 376.750 C 205.409 375.458,205.667 374.837,205.667 374.743 C 205.667 374.683,205.774 374.397,205.905 374.109 C 206.514 372.765,206.833 372.010,206.833 371.917 C 206.833 371.829,207.099 371.190,207.667 369.917 C 208.245 368.618,208.500 368.003,208.500 367.907 C 208.500 367.845,208.762 367.234,209.083 366.549 C 209.404 365.864,209.667 365.268,209.667 365.224 C 209.667 365.181,209.854 364.736,210.083 364.235 C 210.312 363.735,210.695 362.858,210.933 362.288 C 212.174 359.324,212.301 359.133,212.592 359.785 C 212.706 360.041,212.950 360.587,213.135 361.000 M32.301 359.668 C 35.850 360.129,37.611 361.611,38.242 364.667 C 39.091 368.781,37.273 373.108,34.303 374.045 C 33.481 374.304,32.443 374.333,24.110 374.333 L 14.833 374.333 14.833 366.917 L 14.833 359.500 22.958 359.505 C 27.427 359.508,31.631 359.581,32.301 359.668 " stroke="none" fill="#040404" fill-rule="evenodd"></path></g></svg>