<svg id="svg" xmlns="http://www.w3.org/2000/svg"  width="400" height="400" viewBox="0, 0, 400,400"><g id="svgg"><path id="path0" d="M187.241 96.285 C 30.531 102.719,-3.853 180.571,139.619 204.112 C 250.866 222.365,371.556 186.096,348.344 141.388 C 333.986 113.731,260.871 93.262,187.241 96.285 M237.241 100.334 C 323.342 108.976,369.710 140.829,339.708 170.725 C 292.292 217.976,107.708 217.976,60.292 170.725 C 32.955 143.484,70.936 113.066,145.517 102.470 C 155.951 100.987,162.270 100.362,180.345 99.024 C 188.323 98.434,227.235 99.329,237.241 100.334 M172.759 100.717 C 58.558 109.193,14.046 159.100,94.138 188.868 C 194.768 226.270,368.896 194.247,344.044 142.910 C 330.628 115.196,248.905 95.065,172.759 100.717 M225.862 104.837 C 262.295 107.452,293.035 114.106,313.728 123.855 C 321.819 127.667,321.475 128.242,312.670 125.628 C 245.988 105.839,157.107 105.650,116.119 125.211 C 105.251 130.398,103.674 137.850,113.007 139.918 C 118.272 141.085,124.304 141.366,159.310 142.076 C 206.369 143.031,276.577 145.127,298.621 146.235 C 334.098 148.018,339.310 149.290,339.310 156.161 C 339.310 170.596,308.330 186.934,265.517 195.077 C 206.795 206.247,127.049 199.979,87.096 181.053 C 80.311 177.839,78.778 176.382,84.203 178.303 C 133.261 195.675,227.575 199.296,269.153 185.404 C 287.162 179.387,296.039 172.841,292.830 167.943 C 290.316 164.106,286.632 163.621,253.628 162.777 C 135.503 159.755,110.702 158.933,76.827 156.913 C 62.217 156.041,57.293 151.497,61.650 142.908 C 74.497 117.586,152.275 99.554,225.862 104.837 M238.621 114.444 C 249.844 115.397,259.490 116.785,275.172 119.706 C 288.256 122.144,298.212 124.438,292.759 123.760 C 250.102 118.452,221.986 117.618,191.415 120.755 C 162.437 123.728,141.028 132.574,149.828 137.939 L 152.069 139.305 143.448 139.290 C 108.972 139.228,100.584 135.330,117.586 127.269 C 142.352 115.528,190.834 110.391,238.621 114.444 M279.895 166.226 C 294.440 167.571,294.603 171.448,280.399 178.259 C 249.496 193.080,182.074 196.042,123.793 185.138 C 98.049 180.322,92.430 178.765,110.086 181.338 C 145.184 186.455,195.744 186.745,221.379 181.977 C 244.560 177.665,257.543 170.685,250.428 166.358 C 248.140 164.967,265.440 164.889,279.895 166.226 M17.990 233.122 C 4.106 236.030,6.789 245.548,22.069 247.594 C 38.167 249.750,39.655 250.246,39.655 253.458 C 39.655 257.411,28.572 258.494,15.024 255.864 C 11.123 255.107,7.868 254.486,7.792 254.485 C 7.715 254.484,8.169 255.878,8.801 257.583 C 10.266 261.535,10.748 261.630,27.063 261.195 C 43.769 260.750,49.655 258.504,49.655 252.576 C 49.655 247.474,45.331 245.451,30.773 243.744 C 21.689 242.678,17.931 241.466,17.931 239.602 C 17.931 236.716,30.701 235.536,40.792 237.490 L 45.377 238.378 46.511 236.000 C 47.135 234.692,47.463 233.440,47.239 233.216 C 46.550 232.527,21.219 232.446,17.990 233.122 M357.867 233.083 C 347.121 234.165,341.101 237.708,338.938 244.222 C 334.519 257.524,350.340 263.906,378.904 260.344 C 388.710 259.121,387.411 260.419,387.694 251.551 L 387.931 244.136 376.141 244.137 C 365.768 244.138,364.227 244.283,363.315 245.345 C 360.628 248.474,360.990 248.636,370.129 248.391 L 378.706 248.162 378.491 251.081 C 377.880 259.379,354.603 260.317,348.732 252.281 C 341.291 242.093,359.344 232.864,377.475 237.586 C 379.659 238.155,381.711 238.621,382.034 238.621 C 382.838 238.621,385.568 233.901,384.965 233.553 C 383.922 232.952,362.803 232.585,357.867 233.083 M59.310 237.088 C 59.310 237.762,58.789 239.058,58.152 239.968 C 57.041 241.554,57.048 241.598,58.324 241.024 C 59.056 240.694,62.991 240.302,67.069 240.151 L 74.483 239.878 74.483 249.023 C 74.483 256.564,74.283 258.388,73.341 259.428 C 72.243 260.642,72.445 260.690,78.634 260.690 L 85.068 260.690 83.546 259.070 C 82.121 257.553,82.037 256.909,82.219 248.898 L 82.414 240.345 88.276 240.345 C 91.500 240.345,95.499 240.612,97.161 240.938 L 100.185 241.532 99.058 239.923 C 98.438 239.038,97.931 237.762,97.931 237.088 C 97.931 235.942,96.666 235.862,78.621 235.862 C 60.576 235.862,59.310 235.942,59.310 237.088 M160.690 236.490 C 160.690 236.927,161.155 237.463,161.724 237.682 C 163.332 238.298,163.237 257.639,161.617 259.428 C 160.519 260.642,160.720 260.690,166.897 260.690 C 173.154 260.690,173.287 260.656,172.135 259.383 C 171.280 258.439,171.012 257.150,171.166 254.728 L 171.379 251.379 177.931 251.430 C 186.110 251.494,193.103 255.296,193.103 259.679 C 193.103 260.491,194.287 260.685,199.138 260.667 L 205.172 260.644 200.477 256.151 C 197.894 253.681,194.946 251.315,193.925 250.894 L 192.069 250.130 194.493 249.682 C 203.229 248.071,205.242 240.661,197.785 237.563 C 194.109 236.035,160.690 235.069,160.690 236.490 M215.172 236.467 C 215.172 236.800,215.638 237.459,216.207 237.931 C 217.801 239.254,217.710 257.650,216.100 259.428 C 214.997 260.647,215.549 260.689,232.479 260.683 L 250.000 260.676 251.156 257.924 C 251.791 256.411,252.217 255.172,252.102 255.172 C 251.987 255.172,250.778 255.638,249.417 256.207 C 247.565 256.980,244.152 257.241,235.884 257.241 L 224.828 257.241 224.828 248.486 C 224.828 239.924,224.869 239.688,226.681 237.796 L 228.534 235.862 221.853 235.862 C 218.179 235.862,215.172 236.134,215.172 236.467 M285.517 236.467 C 285.517 236.800,285.983 237.459,286.552 237.931 C 288.146 239.254,288.055 257.650,286.445 259.428 C 285.347 260.641,285.537 260.690,291.393 260.690 L 297.482 260.690 295.982 259.093 C 294.335 257.340,293.602 240.000,295.176 240.000 C 295.557 240.000,300.600 244.651,306.383 250.335 L 316.897 260.670 322.724 260.680 C 327.257 260.687,328.368 260.506,327.724 259.862 C 326.144 258.282,326.614 239.593,328.276 237.931 C 330.338 235.869,330.141 235.780,323.793 235.920 C 317.867 236.051,317.090 236.374,318.966 237.931 C 319.786 238.612,319.999 240.593,319.994 247.498 L 319.988 256.207 309.869 246.034 L 299.751 235.862 292.634 235.862 C 288.720 235.862,285.517 236.134,285.517 236.467 M109.203 237.813 C 110.150 238.859,110.345 240.705,110.345 248.621 C 110.345 256.536,110.150 258.383,109.203 259.428 C 108.100 260.648,108.728 260.689,127.997 260.684 L 147.931 260.679 148.846 258.788 C 150.517 255.337,150.629 254.916,149.728 255.472 C 148.103 256.477,135.467 257.184,126.691 256.761 L 117.864 256.336 118.070 253.168 L 118.276 250.000 128.345 249.810 C 138.048 249.626,138.472 249.557,140.017 247.913 L 141.620 246.207 129.738 246.207 L 117.855 246.207 118.066 242.931 L 118.276 239.655 130.207 239.466 C 139.250 239.323,142.981 239.528,145.619 240.311 C 148.875 241.278,149.068 241.268,148.610 240.155 C 148.340 239.501,147.963 238.422,147.772 237.759 C 147.452 236.645,145.896 236.552,127.744 236.552 C 108.720 236.552,108.100 236.594,109.203 237.813 M262.638 238.148 C 264.018 239.616,264.138 240.456,264.138 248.621 C 264.138 256.785,264.018 257.625,262.638 259.093 L 261.139 260.690 267.918 260.690 C 274.441 260.690,274.654 260.642,273.555 259.428 C 271.802 257.491,271.859 238.323,273.621 237.297 C 274.500 236.784,272.970 236.588,267.983 236.573 L 261.139 236.552 262.638 238.148 M192.068 240.689 C 193.589 241.268,193.846 241.739,193.664 243.620 C 193.363 246.751,190.728 247.499,179.828 247.547 L 171.034 247.586 171.034 243.793 L 171.034 240.000 180.645 240.000 C 185.930 240.000,191.071 240.310,192.068 240.689 M0.000 273.793 C 0.000 275.169,0.460 275.172,200.000 275.172 C 399.540 275.172,400.000 275.169,400.000 273.793 C 400.000 272.417,399.540 272.414,200.000 272.414 C 0.460 272.414,0.000 272.417,0.000 273.793 M220.000 287.714 C 211.482 292.095,214.981 303.138,224.870 303.079 C 229.283 303.053,230.588 302.299,230.727 299.692 C 230.812 298.100,230.666 298.040,227.587 298.404 C 223.199 298.924,221.379 297.876,221.379 294.828 C 221.379 291.438,227.033 289.378,229.517 291.862 C 230.161 292.506,230.345 292.132,230.345 290.179 C 230.345 287.251,230.069 287.013,226.092 286.502 C 223.791 286.206,222.390 286.485,220.000 287.714 M313.424 286.863 C 309.353 288.513,309.275 293.223,313.276 295.804 C 317.227 298.353,315.820 300.813,311.679 298.596 C 310.481 297.955,310.345 298.123,310.345 300.234 C 310.345 302.317,310.592 302.636,312.500 303.017 C 320.900 304.697,324.872 298.331,318.262 293.783 C 316.547 292.604,315.324 291.347,315.544 290.992 C 316.074 290.134,318.427 290.163,318.966 291.034 C 319.822 292.420,321.379 291.729,321.379 289.965 C 321.379 287.311,316.761 285.511,313.424 286.863 M73.230 288.793 C 73.420 290.440,73.789 290.718,76.034 290.904 L 78.621 291.118 78.620 297.111 L 78.620 303.103 81.206 303.032 L 83.793 302.961 83.992 296.998 L 84.192 291.034 86.579 291.034 C 88.771 291.034,88.966 290.866,88.966 288.966 L 88.966 286.897 80.989 286.897 L 73.012 286.897 73.230 288.793 M120.000 295.034 L 120.000 303.171 122.756 303.137 L 125.513 303.103 125.515 299.828 C 125.518 295.128,128.021 295.082,130.424 299.739 C 131.900 302.599,132.334 302.942,134.655 303.081 C 137.720 303.264,137.761 303.048,135.494 298.575 C 133.886 295.402,133.831 295.006,134.804 293.617 C 137.719 289.456,134.457 286.897,126.238 286.897 L 120.000 286.897 120.000 295.034 M166.897 292.103 C 166.897 300.052,169.581 303.448,175.862 303.448 C 182.143 303.448,184.828 300.052,184.828 292.103 L 184.828 286.897 181.752 286.897 L 178.676 286.897 178.476 292.586 L 178.276 298.276 175.862 298.276 L 173.448 298.276 173.248 292.586 L 173.048 286.897 169.972 286.897 L 166.897 286.897 166.897 292.103 M262.219 295.000 L 262.414 303.103 265.172 303.089 L 267.931 303.075 268.276 299.467 L 268.621 295.859 271.379 299.408 C 273.985 302.760,274.319 302.960,277.414 303.030 C 281.374 303.119,281.364 303.501,277.531 298.621 C 274.022 294.155,274.040 293.690,277.872 290.043 C 280.643 287.406,280.556 286.897,277.336 286.897 C 275.032 286.897,274.239 287.359,271.474 290.315 L 268.276 293.734 268.276 290.315 L 268.276 286.897 265.151 286.897 L 262.025 286.897 262.219 295.000 M129.991 290.915 C 130.480 292.188,128.680 293.793,126.765 293.793 C 125.576 293.793,124.894 290.509,125.878 289.524 C 126.590 288.812,129.571 289.821,129.991 290.915 " stroke="none" fill-rule="evenodd"></path></g></svg>