<svg id="svg" xmlns="http://www.w3.org/2000/svg"  width="400" height="400" viewBox="0, 0, 400,400"><g id="svgg"><path id="path0" d="M157.534 126.160 C -15.593 139.782,-57.630 225.190,90.819 261.707 C 237.595 297.812,430.030 249.189,396.438 184.486 C 375.578 144.308,266.218 117.608,157.534 126.160 M249.315 130.122 C 363.330 141.566,424.730 183.746,385.001 223.335 C 322.213 285.904,77.787 285.904,14.999 223.335 C -21.201 187.263,29.093 146.983,127.854 132.951 C 141.671 130.987,150.037 130.160,173.973 128.388 C 184.537 127.606,236.064 128.792,249.315 130.122 M163.927 130.629 C 12.702 141.854,-46.240 207.941,59.817 247.360 C 193.072 296.888,423.653 254.483,390.743 186.501 C 372.978 149.803,264.760 123.145,163.927 130.629 M234.247 136.085 C 282.491 139.549,323.197 148.359,350.599 161.269 C 361.313 166.316,360.858 167.078,349.197 163.618 C 260.897 137.412,143.201 137.162,88.924 163.065 C 74.533 169.933,72.445 179.802,84.803 182.540 C 91.775 184.085,99.763 184.457,146.119 185.397 C 208.434 186.662,301.404 189.437,330.594 190.904 C 377.572 193.266,384.475 194.950,384.475 204.049 C 384.475 223.163,343.451 244.798,286.758 255.582 C 208.998 270.373,103.398 262.073,50.493 237.011 C 41.508 232.755,39.478 230.825,46.661 233.369 C 111.624 256.374,236.515 261.169,291.573 242.773 C 315.420 234.805,327.175 226.136,322.925 219.651 C 319.596 214.570,314.718 213.927,271.014 212.809 C 114.593 208.808,81.751 207.719,36.894 205.044 C 17.548 203.890,11.027 197.873,16.797 186.499 C 33.809 152.968,136.802 129.089,234.247 136.085 M251.142 148.808 C 266.004 150.069,278.777 151.907,299.543 155.776 C 316.869 159.003,330.053 162.042,322.831 161.143 C 266.345 154.114,229.114 153.010,188.632 157.164 C 150.259 161.101,121.910 172.814,133.562 179.919 L 136.530 181.728 125.114 181.708 C 79.460 181.626,68.354 176.464,90.868 165.791 C 123.663 150.243,187.863 143.440,251.142 148.808 M305.797 217.377 C 325.058 219.158,325.273 224.291,306.465 233.311 C 265.543 252.937,176.262 256.859,99.087 242.421 C 64.996 236.043,57.556 233.981,80.935 237.389 C 127.412 244.164,194.364 244.548,228.311 238.234 C 259.007 232.525,276.198 223.282,266.777 217.552 C 263.747 215.709,286.656 215.606,305.797 217.377 " stroke="none" fill-rule="evenodd"></path></g></svg>