<svg id="svg" version="1.1" xmlns="http://www.w3.org/2000/svg"  width="400" height="400" viewBox="0, 0, 400,400"><g id="svgg"><path id="path0" d="M82.167 156.401 C 82.167 156.530,81.951 157.116,81.687 157.704 C 81.424 158.291,81.079 159.217,80.922 159.761 C 80.764 160.305,80.578 160.825,80.509 160.917 C 80.440 161.008,80.249 161.496,80.085 162.000 C 79.761 163.000,79.679 163.214,79.192 164.333 C 79.013 164.746,78.781 165.401,78.677 165.789 C 78.574 166.177,78.266 166.990,77.994 167.596 C 77.722 168.202,77.500 168.797,77.500 168.917 C 77.500 169.038,77.237 169.750,76.917 170.500 C 76.596 171.250,76.333 171.961,76.333 172.081 C 76.333 172.200,76.101 172.844,75.818 173.510 C 75.534 174.177,75.113 175.291,74.881 175.986 C 74.650 176.681,74.401 177.325,74.329 177.417 C 74.257 177.508,74.068 178.032,73.909 178.581 C 73.750 179.130,73.559 179.693,73.484 179.831 C 73.194 180.370,72.667 181.720,72.667 181.923 C 72.667 182.041,72.404 182.750,72.083 183.500 C 71.762 184.250,71.500 184.962,71.500 185.083 C 71.500 185.203,71.273 185.809,70.995 186.429 C 70.717 187.048,70.425 187.824,70.346 188.152 C 70.266 188.481,69.976 189.313,69.699 190.000 C 68.851 192.109,68.000 194.414,68.000 194.600 C 68.000 194.696,67.700 195.468,67.333 196.313 C 66.967 197.158,66.667 197.952,66.667 198.076 C 66.667 198.201,66.451 198.783,66.187 199.370 C 65.924 199.958,65.579 200.884,65.422 201.428 C 65.264 201.972,65.078 202.492,65.009 202.583 C 64.940 202.675,64.748 203.162,64.584 203.667 C 64.420 204.171,64.034 205.196,63.726 205.946 C 63.419 206.695,63.167 207.396,63.167 207.504 C 63.167 207.612,62.904 208.306,62.583 209.046 C 62.262 209.786,62.000 210.497,62.000 210.625 C 62.000 210.754,61.749 211.472,61.442 212.221 C 60.853 213.658,60.536 214.511,59.881 216.417 C 59.661 217.058,59.383 217.808,59.263 218.083 C 59.143 218.358,58.892 218.996,58.704 219.500 C 58.517 220.004,58.084 221.167,57.744 222.083 C 57.403 223.000,56.870 224.387,56.560 225.167 C 56.249 225.946,55.997 226.658,56.000 226.750 C 56.003 226.842,55.752 227.554,55.443 228.333 C 55.134 229.112,54.805 229.975,54.711 230.250 C 54.618 230.525,54.486 230.881,54.419 231.042 C 54.304 231.318,54.965 231.333,66.959 231.333 L 79.620 231.333 79.957 230.375 C 80.334 229.304,81.149 227.087,82.089 224.583 C 82.433 223.667,82.894 222.392,83.114 221.750 C 83.334 221.108,83.584 220.433,83.670 220.250 C 83.902 219.756,84.305 218.678,85.418 215.583 C 85.582 215.125,85.968 214.137,86.275 213.388 C 86.582 212.639,86.833 211.938,86.833 211.832 C 86.833 211.726,87.133 210.920,87.500 210.043 C 87.867 209.165,88.167 208.363,88.167 208.260 C 88.167 208.157,88.417 207.475,88.724 206.745 C 89.031 206.014,89.332 205.210,89.394 204.958 L 89.506 204.500 100.832 204.500 L 112.158 204.500 112.052 205.042 C 111.993 205.340,111.735 206.053,111.478 206.628 C 111.221 207.203,110.926 207.990,110.823 208.378 C 110.638 209.067,110.149 210.295,109.827 210.873 C 109.739 211.032,109.667 211.314,109.667 211.500 C 109.667 211.686,109.594 211.968,109.506 212.127 C 109.244 212.598,108.723 213.867,108.498 214.583 C 108.382 214.950,108.076 215.775,107.817 216.417 C 107.558 217.058,107.201 217.996,107.025 218.500 C 106.190 220.888,105.780 222.008,105.347 223.083 C 105.089 223.725,104.745 224.662,104.581 225.167 C 104.418 225.671,104.227 226.158,104.158 226.250 C 104.088 226.342,103.903 226.862,103.745 227.406 C 103.587 227.950,103.243 228.875,102.979 229.463 C 102.716 230.050,102.500 230.712,102.500 230.932 L 102.500 231.333 114.972 231.333 L 127.444 231.333 127.629 230.958 C 128.044 230.121,128.500 229.007,128.500 228.831 C 128.500 228.648,129.298 226.522,130.439 223.667 C 130.750 222.887,131.004 222.163,131.002 222.056 C 131.001 221.950,131.262 221.250,131.583 220.500 C 131.904 219.750,132.167 219.041,132.167 218.923 C 132.167 218.805,132.362 218.268,132.601 217.729 C 132.840 217.191,133.240 216.150,133.490 215.417 C 134.164 213.444,134.489 212.567,135.109 211.054 C 135.416 210.305,135.667 209.604,135.667 209.496 C 135.667 209.388,135.929 208.694,136.250 207.954 C 136.571 207.214,136.833 206.523,136.833 206.420 C 136.833 206.316,137.106 205.561,137.439 204.741 C 137.773 203.921,138.102 203.025,138.172 202.750 C 138.241 202.475,138.524 201.688,138.800 201.000 C 139.075 200.313,139.577 199.000,139.914 198.083 C 140.252 197.167,140.756 195.854,141.034 195.167 C 141.312 194.479,141.574 193.729,141.616 193.500 C 141.657 193.271,141.757 192.933,141.837 192.750 C 141.917 192.567,142.129 192.079,142.308 191.667 C 142.487 191.254,142.722 190.588,142.829 190.186 C 142.937 189.785,143.091 189.335,143.171 189.186 C 143.466 188.645,144.000 187.285,144.000 187.077 C 144.000 186.959,144.262 186.250,144.583 185.500 C 144.904 184.750,145.167 184.030,145.167 183.900 C 145.167 183.769,145.239 183.532,145.328 183.373 C 145.618 182.854,146.500 180.637,146.500 180.429 C 146.500 180.317,146.762 179.620,147.083 178.879 C 147.404 178.139,147.667 177.423,147.667 177.287 C 147.667 177.152,147.863 176.601,148.102 176.062 C 148.341 175.524,148.705 174.596,148.910 174.000 C 149.703 171.692,150.068 170.701,150.607 169.388 C 150.915 168.639,151.167 167.939,151.167 167.833 C 151.167 167.728,151.418 167.028,151.725 166.279 C 152.338 164.781,152.658 163.920,153.345 161.917 C 153.597 161.183,153.967 160.208,154.168 159.750 C 154.566 158.841,155.333 156.588,155.333 156.327 C 155.333 156.223,150.839 156.180,142.733 156.207 L 130.132 156.250 129.671 157.583 C 128.852 159.950,128.627 160.562,128.130 161.768 C 127.862 162.420,127.581 163.207,127.505 163.518 C 127.430 163.829,127.135 164.665,126.851 165.375 C 126.566 166.085,126.100 167.248,125.815 167.958 C 125.530 168.669,125.147 169.737,124.964 170.333 C 124.781 170.929,124.575 171.492,124.507 171.583 C 124.439 171.675,124.248 172.162,124.083 172.667 C 123.918 173.171,123.692 173.808,123.581 174.083 C 123.470 174.358,123.211 175.033,123.006 175.583 C 122.801 176.133,122.408 177.146,122.133 177.833 C 121.857 178.521,121.576 179.308,121.507 179.583 C 121.439 179.858,121.140 180.665,120.842 181.375 L 120.302 182.667 108.984 182.667 C 102.760 182.667,97.667 182.636,97.667 182.598 C 97.667 182.560,97.929 181.916,98.250 181.167 C 98.571 180.417,98.833 179.705,98.833 179.584 C 98.833 179.463,99.049 178.884,99.313 178.296 C 99.576 177.709,99.921 176.783,100.078 176.239 C 100.236 175.695,100.422 175.175,100.491 175.083 C 100.560 174.992,100.752 174.504,100.917 174.000 C 101.082 173.496,101.308 172.858,101.419 172.583 C 101.530 172.308,101.789 171.633,101.994 171.083 C 102.199 170.533,102.592 169.521,102.867 168.833 C 103.143 168.146,103.426 167.346,103.496 167.057 C 103.567 166.767,103.888 165.867,104.210 165.057 C 105.241 162.459,106.000 160.415,106.000 160.234 C 106.000 160.138,106.257 159.464,106.570 158.738 C 106.884 158.011,107.192 157.135,107.255 156.792 L 107.370 156.167 94.769 156.167 C 84.049 156.167,82.167 156.202,82.167 156.401 M163.647 156.625 C 163.550 156.877,163.243 157.721,162.966 158.500 C 162.688 159.279,162.239 160.517,161.968 161.250 C 161.697 161.983,161.263 163.183,161.004 163.917 C 160.745 164.650,160.338 165.691,160.100 166.229 C 159.862 166.768,159.667 167.308,159.667 167.429 C 159.667 167.551,159.367 168.342,159.000 169.187 C 158.633 170.032,158.333 170.862,158.333 171.031 C 158.333 171.200,158.261 171.468,158.173 171.627 C 157.847 172.212,157.361 173.436,157.171 174.147 C 157.063 174.549,156.909 174.999,156.829 175.147 C 156.534 175.688,156.000 177.048,156.000 177.256 C 156.000 177.374,155.737 178.084,155.417 178.833 C 155.096 179.583,154.833 180.295,154.833 180.417 C 154.833 180.538,154.571 181.250,154.250 182.000 C 153.929 182.750,153.667 183.462,153.667 183.583 C 153.667 183.703,153.451 184.283,153.187 184.870 C 152.924 185.458,152.579 186.384,152.422 186.928 C 152.264 187.472,152.078 187.992,152.009 188.083 C 151.940 188.175,151.749 188.662,151.585 189.167 C 151.422 189.671,151.226 190.233,151.151 190.417 C 151.076 190.600,150.813 191.237,150.567 191.833 C 150.321 192.429,150.063 193.142,149.994 193.417 C 149.925 193.692,149.641 194.479,149.364 195.167 C 149.086 195.854,148.586 197.167,148.252 198.083 C 147.632 199.784,147.018 201.452,145.922 204.417 C 145.582 205.333,145.078 206.646,144.800 207.333 C 144.521 208.021,144.260 208.771,144.218 209.000 C 144.176 209.229,144.076 209.567,143.997 209.750 C 143.917 209.933,143.705 210.421,143.525 210.833 C 143.346 211.246,143.110 211.921,143.000 212.333 C 142.890 212.746,142.747 213.158,142.682 213.250 C 142.568 213.409,142.399 213.848,141.046 217.500 C 140.723 218.371,140.206 219.724,139.896 220.506 C 139.587 221.289,139.333 222.013,139.333 222.117 C 139.333 222.220,139.071 222.917,138.750 223.667 C 138.429 224.416,138.167 225.119,138.167 225.229 C 138.167 225.339,137.915 226.036,137.607 226.777 C 137.298 227.519,136.993 228.341,136.927 228.605 C 136.861 228.868,136.706 229.308,136.581 229.583 C 136.456 229.858,136.241 230.365,136.102 230.708 L 135.850 231.333 168.236 231.333 L 200.621 231.333 200.894 230.619 C 201.044 230.227,201.167 229.821,201.167 229.718 C 201.167 229.614,201.429 228.916,201.750 228.167 C 202.071 227.417,202.333 226.714,202.333 226.605 C 202.333 226.496,202.596 225.784,202.917 225.023 C 203.237 224.263,203.500 223.547,203.500 223.432 C 203.500 223.318,203.800 222.532,204.167 221.687 C 204.533 220.842,204.833 220.037,204.833 219.899 C 204.833 219.669,205.321 218.433,205.649 217.831 C 205.725 217.693,205.917 217.130,206.076 216.581 C 206.235 216.032,206.422 215.508,206.491 215.417 C 206.560 215.325,206.751 214.838,206.913 214.333 C 207.076 213.829,207.425 212.901,207.688 212.270 C 207.951 211.640,208.167 211.021,208.167 210.895 C 208.167 210.703,205.018 210.667,188.316 210.667 C 172.504 210.667,168.480 210.624,168.542 210.458 C 168.585 210.344,168.716 209.950,168.834 209.583 C 168.951 209.217,169.300 208.304,169.607 207.554 C 169.915 206.805,170.167 206.109,170.167 206.008 C 170.167 205.829,170.761 204.318,171.268 203.209 L 171.515 202.668 191.297 202.626 L 211.079 202.583 211.446 201.833 C 211.648 201.421,211.818 200.956,211.823 200.800 C 211.829 200.644,212.090 199.931,212.404 199.216 C 212.718 198.502,213.029 197.692,213.097 197.417 C 213.164 197.142,213.469 196.319,213.776 195.588 C 214.083 194.858,214.333 194.170,214.333 194.060 C 214.333 193.950,214.596 193.237,214.917 192.477 C 215.237 191.716,215.500 191.004,215.500 190.895 C 215.500 190.786,215.762 190.083,216.083 189.333 C 216.404 188.584,216.667 187.860,216.667 187.726 C 216.667 187.506,216.877 186.978,217.595 185.391 C 217.726 185.103,217.833 184.784,217.833 184.683 C 217.833 184.551,212.320 184.500,198.070 184.500 L 178.307 184.500 178.420 183.958 C 178.483 183.660,178.762 182.854,179.041 182.167 C 179.320 181.479,179.688 180.504,179.860 180.000 C 180.031 179.496,180.369 178.615,180.611 178.042 L 181.050 177.000 200.856 177.000 L 220.662 177.000 220.889 176.457 C 221.014 176.159,221.212 175.615,221.331 175.249 C 221.449 174.883,221.758 174.058,222.017 173.417 C 222.276 172.775,222.630 171.838,222.803 171.333 C 223.781 168.491,223.939 168.066,224.475 166.833 C 224.654 166.421,224.886 165.766,224.989 165.378 C 225.093 164.990,225.400 164.177,225.672 163.571 C 225.944 162.965,226.167 162.370,226.167 162.249 C 226.167 162.128,226.429 161.416,226.750 160.667 C 227.071 159.917,227.333 159.206,227.333 159.086 C 227.333 158.966,227.558 158.339,227.833 157.693 C 228.108 157.047,228.333 156.439,228.333 156.342 C 228.333 156.220,218.588 156.167,196.079 156.167 L 163.825 156.167 163.647 156.625 M236.174 156.938 C 235.987 157.362,235.833 157.803,235.833 157.917 C 235.833 158.122,235.536 158.920,235.088 159.917 C 234.964 160.192,234.774 160.754,234.665 161.167 C 234.556 161.579,234.414 161.992,234.348 162.083 C 234.233 162.245,233.943 163.000,232.717 166.333 C 232.396 167.204,231.909 168.479,231.633 169.167 C 231.357 169.854,231.074 170.642,231.002 170.917 C 230.931 171.192,230.639 171.992,230.353 172.694 C 230.067 173.397,229.833 174.058,229.833 174.162 C 229.833 174.353,229.294 175.667,228.994 176.206 C 228.548 177.009,228.495 177.000,233.768 177.000 C 238.403 177.000,238.695 177.018,238.581 177.292 C 238.514 177.452,238.383 177.808,238.290 178.083 C 238.196 178.358,237.868 179.224,237.560 180.006 C 237.252 180.789,237.000 181.513,237.000 181.617 C 237.000 181.720,236.737 182.417,236.417 183.167 C 236.096 183.916,235.833 184.626,235.833 184.744 C 235.833 184.947,235.306 186.297,235.016 186.835 C 234.941 186.974,234.757 187.511,234.606 188.029 C 234.456 188.547,234.108 189.472,233.833 190.084 C 233.558 190.697,233.333 191.297,233.333 191.417 C 233.333 191.538,233.071 192.250,232.750 193.000 C 232.429 193.750,232.167 194.456,232.167 194.569 C 232.167 194.682,231.904 195.380,231.583 196.121 C 231.262 196.861,231.000 197.574,231.000 197.704 C 231.000 197.835,230.737 198.547,230.417 199.287 C 230.096 200.028,229.833 200.746,229.833 200.885 C 229.833 201.023,229.606 201.642,229.328 202.262 C 229.050 202.881,228.758 203.657,228.679 203.986 C 228.600 204.314,228.309 205.146,228.032 205.833 C 227.755 206.521,227.321 207.646,227.067 208.333 C 226.813 209.021,226.544 209.655,226.470 209.742 C 226.395 209.829,226.333 210.072,226.333 210.283 L 226.333 210.667 221.254 210.667 L 216.174 210.667 215.930 211.042 C 215.795 211.248,215.614 211.717,215.527 212.083 C 215.440 212.450,215.141 213.313,214.864 214.000 C 213.973 216.207,213.164 218.411,213.165 218.627 C 213.166 218.743,213.094 218.968,213.006 219.127 C 212.685 219.705,212.195 220.933,212.011 221.622 C 211.907 222.010,211.600 222.823,211.328 223.429 C 211.056 224.035,210.833 224.631,210.833 224.752 C 210.833 224.874,210.571 225.596,210.250 226.357 C 209.929 227.117,209.667 227.825,209.667 227.928 C 209.667 228.032,209.371 228.821,209.011 229.683 L 208.355 231.250 231.219 231.293 C 243.794 231.316,254.173 231.302,254.282 231.260 C 254.391 231.219,254.643 230.637,254.841 229.967 C 255.039 229.298,255.258 228.675,255.326 228.583 C 255.395 228.492,255.584 228.004,255.748 227.500 C 256.072 226.500,256.154 226.286,256.641 225.167 C 256.821 224.754,257.052 224.099,257.156 223.711 C 257.260 223.323,257.567 222.510,257.839 221.904 C 258.111 221.298,258.333 220.703,258.333 220.581 C 258.333 220.459,258.596 219.737,258.917 218.977 C 259.237 218.216,259.500 217.504,259.500 217.395 C 259.500 217.286,259.762 216.583,260.083 215.833 C 260.404 215.084,260.667 214.357,260.667 214.219 C 260.667 214.080,260.773 213.731,260.903 213.442 C 262.294 210.350,262.778 210.667,256.667 210.667 C 253.825 210.667,251.500 210.631,251.500 210.587 C 251.500 210.490,252.175 208.722,252.869 207.000 C 253.146 206.313,253.413 205.563,253.462 205.333 C 253.510 205.104,253.839 204.207,254.192 203.340 C 254.545 202.473,254.833 201.674,254.833 201.564 C 254.833 201.454,255.061 200.858,255.339 200.238 C 255.617 199.619,255.909 198.843,255.988 198.514 C 256.067 198.186,256.357 197.354,256.632 196.667 C 256.907 195.979,257.373 194.817,257.667 194.083 C 257.961 193.350,258.258 192.525,258.326 192.250 C 258.395 191.975,258.687 191.198,258.976 190.524 C 259.264 189.850,259.500 189.190,259.500 189.057 C 259.500 188.834,259.993 187.590,260.316 186.998 C 260.391 186.859,260.583 186.297,260.742 185.748 C 260.901 185.199,261.088 184.675,261.158 184.583 C 261.227 184.492,261.418 184.004,261.582 183.500 C 261.746 182.996,262.170 181.884,262.523 181.030 C 262.877 180.175,263.166 179.388,263.166 179.280 C 263.166 179.172,263.365 178.615,263.608 178.042 L 264.050 177.000 268.845 177.000 L 273.640 177.000 273.754 176.458 C 273.817 176.160,274.111 175.317,274.407 174.583 C 274.703 173.850,275.076 172.875,275.236 172.417 C 275.396 171.958,275.789 170.871,276.111 170.000 C 276.432 169.129,276.906 167.817,277.164 167.083 C 277.422 166.350,277.829 165.309,278.067 164.771 C 278.305 164.232,278.500 163.697,278.500 163.580 C 278.500 163.365,279.376 161.157,279.672 160.627 C 279.761 160.468,279.833 160.186,279.833 160.000 C 279.833 159.814,279.906 159.532,279.994 159.373 C 280.236 158.937,280.780 157.634,280.897 157.208 C 280.954 157.002,281.043 156.683,281.095 156.500 C 281.189 156.168,281.110 156.167,258.852 156.167 L 236.516 156.167 236.174 156.938 M289.862 157.458 C 289.570 158.169,289.331 158.837,289.332 158.943 C 289.333 159.049,289.106 159.642,288.828 160.262 C 288.550 160.881,288.258 161.657,288.179 161.986 C 288.100 162.314,287.809 163.146,287.534 163.833 C 286.450 166.538,285.965 167.829,285.836 168.361 C 285.762 168.667,285.469 169.498,285.184 170.208 C 284.900 170.919,284.433 172.081,284.149 172.792 C 283.864 173.502,283.480 174.571,283.297 175.167 C 283.114 175.762,282.908 176.325,282.840 176.417 C 282.772 176.508,282.582 176.996,282.418 177.500 C 282.254 178.004,281.868 179.030,281.560 179.779 C 281.252 180.528,281.000 181.229,281.000 181.337 C 281.000 181.445,280.737 182.139,280.417 182.879 C 280.096 183.620,279.833 184.330,279.833 184.459 C 279.833 184.587,279.582 185.305,279.275 186.054 C 278.687 187.491,278.369 188.345,277.715 190.250 C 277.306 191.440,276.933 192.370,276.671 192.853 C 276.591 193.001,276.437 193.451,276.331 193.853 C 276.224 194.255,276.037 194.808,275.915 195.083 C 275.268 196.546,275.000 197.231,275.000 197.423 C 275.000 197.541,274.737 198.250,274.417 199.000 C 274.096 199.750,273.833 200.462,273.833 200.583 C 273.833 200.705,273.571 201.417,273.250 202.167 C 272.929 202.916,272.667 203.626,272.667 203.744 C 272.667 203.862,272.471 204.399,272.232 204.938 C 271.993 205.476,271.593 206.517,271.343 207.250 C 270.670 209.222,270.344 210.100,269.725 211.612 C 269.418 212.361,269.167 213.063,269.167 213.170 C 269.167 213.278,268.904 213.972,268.583 214.713 C 268.262 215.453,268.000 216.149,268.000 216.258 C 268.000 216.368,267.728 217.124,267.396 217.937 C 267.064 218.751,266.735 219.642,266.664 219.917 C 266.593 220.192,266.309 220.979,266.034 221.667 C 265.758 222.354,265.256 223.667,264.919 224.583 C 264.581 225.500,264.078 226.813,263.800 227.500 C 263.521 228.188,263.258 228.938,263.215 229.167 C 263.172 229.396,263.039 229.808,262.920 230.083 C 262.801 230.358,262.653 230.752,262.590 230.959 L 262.477 231.334 292.696 231.292 L 322.914 231.250 323.396 230.000 C 323.660 229.313,324.131 228.112,324.441 227.333 C 324.751 226.554,325.004 225.839,325.002 225.745 C 325.001 225.650,325.263 224.951,325.583 224.190 C 325.904 223.429,326.167 222.717,326.167 222.607 C 326.167 222.497,326.429 221.784,326.750 221.023 C 327.071 220.263,327.333 219.540,327.333 219.418 C 327.333 219.296,327.596 218.583,327.917 217.833 C 328.237 217.084,328.500 216.372,328.500 216.251 C 328.500 216.130,328.725 215.530,329.000 214.918 C 329.274 214.305,329.617 213.400,329.760 212.907 C 330.004 212.069,330.308 211.314,330.677 210.627 C 331.240 209.584,332.746 209.667,313.230 209.667 C 299.171 209.667,295.659 209.625,295.788 209.458 C 295.878 209.344,296.085 208.838,296.249 208.333 C 296.413 207.829,296.799 206.804,297.107 206.054 C 297.415 205.305,297.667 204.604,297.667 204.496 C 297.667 204.389,297.773 204.064,297.903 203.775 C 298.515 202.415,298.833 201.606,298.833 201.410 C 298.833 201.293,299.096 200.583,299.417 199.833 C 299.737 199.084,300.000 198.371,300.000 198.250 C 300.000 198.129,300.262 197.416,300.583 196.667 C 300.904 195.917,301.167 195.207,301.167 195.089 C 301.167 194.971,301.362 194.434,301.601 193.896 C 301.840 193.357,302.240 192.317,302.490 191.583 C 302.985 190.133,303.471 188.776,303.684 188.250 C 303.758 188.067,304.020 187.429,304.266 186.833 C 304.512 186.237,304.770 185.525,304.839 185.250 C 304.909 184.975,305.190 184.188,305.465 183.500 C 306.463 181.006,307.050 179.433,307.173 178.930 C 307.242 178.648,307.524 177.854,307.800 177.167 C 308.075 176.479,308.577 175.167,308.914 174.250 C 309.252 173.333,309.756 172.021,310.034 171.333 C 310.312 170.646,310.574 169.896,310.616 169.667 C 310.657 169.438,310.757 169.100,310.837 168.917 C 310.917 168.733,311.129 168.246,311.308 167.833 C 311.487 167.421,311.722 166.755,311.829 166.353 C 311.937 165.951,312.091 165.501,312.171 165.353 C 312.457 164.826,312.831 163.901,313.225 162.750 C 313.885 160.818,314.771 158.439,315.146 157.590 C 315.845 156.010,317.188 156.167,302.947 156.167 L 290.394 156.167 289.862 157.458 " stroke="none" fill-rule="evenodd"></path><path id="path1" d="M45.901 138.627 C 45.324 140.071,44.968 141.039,44.384 142.750 C 44.165 143.392,43.919 144.067,43.837 144.250 C 43.338 145.367,43.000 146.234,43.000 146.396 C 43.001 146.499,42.691 147.371,42.312 148.333 C 41.932 149.296,41.370 150.724,41.061 151.506 C 40.752 152.289,40.500 153.013,40.500 153.117 C 40.500 153.220,40.237 153.917,39.917 154.667 C 39.596 155.416,39.333 156.143,39.333 156.281 C 39.333 156.420,39.226 156.769,39.094 157.058 C 38.627 158.080,38.300 158.927,38.051 159.750 C 37.913 160.208,37.743 160.658,37.674 160.750 C 37.606 160.842,37.415 161.329,37.251 161.833 C 37.087 162.337,36.701 163.363,36.393 164.112 C 36.085 164.861,35.833 165.557,35.833 165.658 C 35.833 165.824,35.446 166.858,34.206 170.000 C 33.971 170.596,33.540 171.758,33.248 172.583 C 32.318 175.211,32.128 175.725,31.649 176.917 C 31.390 177.558,31.035 178.496,30.860 179.000 C 30.684 179.504,30.260 180.667,29.917 181.583 C 29.574 182.500,29.085 183.850,28.830 184.583 C 28.575 185.317,28.171 186.357,27.933 186.896 C 27.695 187.434,27.500 187.985,27.500 188.121 C 27.500 188.256,27.238 188.972,26.917 189.713 C 26.596 190.453,26.333 191.150,26.333 191.262 C 26.333 191.470,25.451 193.687,25.161 194.206 C 25.073 194.365,25.000 194.648,25.000 194.833 C 25.000 195.019,24.928 195.301,24.839 195.461 C 24.510 196.054,24.026 197.274,23.833 198.000 C 23.724 198.412,23.576 198.825,23.504 198.917 C 23.433 199.008,23.170 199.683,22.920 200.417 C 22.671 201.150,22.249 202.264,21.983 202.892 C 21.718 203.521,21.500 204.133,21.500 204.253 C 21.500 204.372,21.237 205.084,20.917 205.833 C 20.596 206.583,20.333 207.295,20.333 207.416 C 20.333 207.537,20.118 208.116,19.854 208.704 C 19.591 209.291,19.246 210.217,19.088 210.761 C 18.931 211.305,18.745 211.825,18.676 211.917 C 18.606 212.008,18.415 212.496,18.251 213.000 C 18.087 213.504,17.690 214.554,17.368 215.333 C 17.046 216.112,16.727 216.975,16.659 217.250 C 16.591 217.525,16.309 218.313,16.034 219.000 C 15.758 219.688,15.256 221.000,14.917 221.917 C 14.579 222.833,14.046 224.238,13.734 225.038 C 13.422 225.838,13.167 226.593,13.167 226.717 C 13.167 226.840,12.904 227.547,12.583 228.287 C 12.262 229.028,12.000 229.722,12.000 229.830 C 12.000 229.937,11.748 230.639,11.440 231.388 C 11.132 232.137,10.746 233.162,10.582 233.667 C 10.418 234.171,10.228 234.658,10.160 234.750 C 10.092 234.842,9.886 235.404,9.703 236.000 C 9.520 236.596,9.143 237.646,8.866 238.333 C 8.588 239.021,8.085 240.333,7.748 241.250 C 7.410 242.167,6.909 243.479,6.633 244.167 C 6.357 244.854,6.074 245.642,6.002 245.917 C 5.931 246.192,5.639 246.992,5.353 247.694 C 5.067 248.397,4.833 249.072,4.832 249.194 C 4.832 249.317,4.732 249.606,4.612 249.837 C 4.491 250.069,4.296 250.519,4.178 250.837 C 3.815 251.818,3.064 253.873,2.749 254.750 C 2.584 255.208,2.198 256.196,1.891 256.946 C 1.584 257.695,1.333 258.413,1.333 258.542 C 1.333 258.671,1.033 259.468,0.667 260.313 C 0.300 261.158,0.000 261.996,0.000 262.175 C 0.000 262.496,0.390 262.500,32.667 262.500 C 62.907 262.500,67.426 262.442,64.542 262.091 C 64.106 262.038,62.475 261.732,60.917 261.412 C 59.358 261.092,57.933 260.831,57.750 260.833 C 57.567 260.835,56.142 260.580,54.583 260.267 C 48.578 259.058,46.188 258.600,44.500 258.332 C 43.538 258.179,41.775 257.859,40.583 257.621 C 39.392 257.382,37.779 257.073,37.000 256.933 C 36.221 256.793,35.058 256.562,34.417 256.419 C 33.775 256.276,32.725 256.092,32.083 256.009 C 31.442 255.926,30.017 255.659,28.917 255.416 C 27.817 255.172,26.617 254.938,26.250 254.895 C 25.883 254.853,24.271 254.564,22.667 254.255 C 21.063 253.946,18.887 253.530,17.833 253.330 C 15.538 252.896,15.744 253.076,16.248 251.938 C 16.478 251.417,16.667 250.887,16.667 250.760 C 16.667 250.633,16.929 249.916,17.250 249.167 C 17.571 248.417,17.833 247.714,17.833 247.605 C 17.833 247.496,18.096 246.784,18.417 246.023 C 18.737 245.263,19.000 244.540,19.000 244.418 C 19.000 244.296,19.262 243.583,19.583 242.833 C 19.904 242.084,20.167 241.372,20.167 241.251 C 20.167 241.130,20.391 240.530,20.666 239.918 C 20.941 239.305,21.289 238.380,21.440 237.862 C 21.590 237.344,21.774 236.807,21.849 236.669 C 22.139 236.130,22.667 234.780,22.667 234.577 C 22.667 234.459,22.929 233.750,23.250 233.000 C 23.571 232.250,23.833 231.548,23.833 231.439 C 23.833 231.329,24.096 230.617,24.417 229.857 C 24.738 229.096,25.000 228.374,25.000 228.252 C 25.000 228.131,25.216 227.550,25.479 226.963 C 25.743 226.375,26.087 225.450,26.245 224.906 C 26.403 224.362,26.588 223.842,26.658 223.750 C 26.727 223.658,26.918 223.171,27.081 222.667 C 27.406 221.667,27.488 221.453,27.975 220.333 C 28.154 219.921,28.384 219.272,28.486 218.891 C 28.588 218.510,28.866 217.760,29.104 217.224 C 29.342 216.688,29.707 215.762,29.915 215.167 C 30.123 214.571,30.557 213.371,30.879 212.500 C 31.200 211.629,31.736 210.167,32.068 209.250 C 32.400 208.333,32.777 207.358,32.904 207.083 C 33.032 206.808,33.221 206.266,33.324 205.878 C 33.427 205.490,33.734 204.677,34.006 204.071 C 34.278 203.465,34.500 202.870,34.500 202.749 C 34.500 202.628,34.762 201.916,35.083 201.167 C 35.404 200.417,35.667 199.714,35.667 199.605 C 35.667 199.496,35.929 198.784,36.250 198.023 C 36.571 197.263,36.833 196.552,36.833 196.445 C 36.833 196.338,37.143 195.463,37.522 194.500 C 37.901 193.537,38.464 192.110,38.772 191.327 C 39.081 190.544,39.333 189.820,39.333 189.717 C 39.333 189.614,39.596 188.916,39.917 188.167 C 40.237 187.417,40.500 186.694,40.500 186.559 C 40.500 186.334,40.991 185.093,41.316 184.498 C 41.391 184.359,41.583 183.797,41.742 183.248 C 41.901 182.699,42.088 182.175,42.158 182.083 C 42.227 181.992,42.418 181.504,42.581 181.000 C 42.745 180.496,43.089 179.558,43.347 178.917 C 43.797 177.800,44.265 176.520,45.085 174.167 C 45.293 173.571,45.651 172.660,45.881 172.143 C 46.111 171.625,46.427 170.763,46.582 170.226 C 46.738 169.689,46.922 169.175,46.991 169.083 C 47.060 168.992,47.252 168.504,47.417 168.000 C 47.582 167.496,47.808 166.858,47.919 166.583 C 48.122 166.081,48.278 165.666,49.422 162.583 C 49.763 161.667,50.294 160.276,50.604 159.494 C 50.913 158.711,51.167 157.987,51.167 157.883 C 51.167 157.780,51.429 157.083,51.750 156.333 C 52.071 155.584,52.333 154.857,52.333 154.719 C 52.333 154.580,52.596 153.861,52.917 153.121 C 53.237 152.380,53.500 151.681,53.500 151.566 C 53.500 151.451,53.791 150.658,54.147 149.804 C 54.503 148.949,54.887 147.939,55.001 147.559 L 55.209 146.868 56.444 146.684 C 57.124 146.583,57.996 146.501,58.382 146.503 C 58.768 146.505,61.596 146.208,64.667 145.843 C 67.737 145.477,72.688 144.909,75.667 144.580 C 82.705 143.802,90.294 142.961,96.791 142.239 C 99.656 141.921,104.343 141.401,107.208 141.083 C 114.002 140.331,121.655 139.478,128.083 138.757 C 130.925 138.438,134.469 138.050,135.958 137.893 C 137.448 137.737,138.667 137.547,138.667 137.471 C 138.667 137.395,117.910 137.334,92.542 137.336 L 46.417 137.338 45.901 138.627 M307.667 137.469 C 307.667 137.602,311.679 138.178,312.500 138.163 C 312.729 138.159,314.979 138.418,317.500 138.739 C 322.521 139.379,330.349 140.338,333.750 140.730 C 336.873 141.090,340.999 141.602,345.583 142.196 C 347.783 142.482,350.333 142.775,351.250 142.848 C 352.167 142.921,354.529 143.210,356.500 143.490 C 358.471 143.770,360.383 144.000,360.750 144.000 C 361.117 144.001,363.280 144.264,365.557 144.584 C 367.834 144.904,369.934 145.164,370.224 145.162 C 370.513 145.159,373.037 145.455,375.833 145.821 C 378.629 146.186,381.619 146.559,382.478 146.650 C 383.336 146.742,384.070 146.848,384.110 146.887 C 384.179 146.957,383.983 147.503,382.767 150.621 C 382.437 151.467,382.167 152.242,382.167 152.342 C 382.167 152.443,381.915 153.139,381.607 153.888 C 381.299 154.637,380.913 155.662,380.749 156.167 C 380.585 156.671,380.394 157.158,380.324 157.250 C 380.255 157.342,380.068 157.866,379.909 158.415 C 379.750 158.964,379.559 159.526,379.484 159.665 C 379.194 160.203,378.667 161.553,378.667 161.756 C 378.667 161.874,378.404 162.584,378.083 163.333 C 377.762 164.083,377.500 164.786,377.500 164.895 C 377.500 165.004,377.238 165.716,376.917 166.477 C 376.596 167.237,376.333 167.959,376.333 168.081 C 376.333 168.203,376.120 168.778,375.860 169.359 C 375.599 169.941,375.292 170.717,375.177 171.083 C 375.062 171.450,374.775 172.237,374.541 172.833 C 374.306 173.429,373.911 174.479,373.664 175.167 C 373.417 175.854,373.080 176.792,372.916 177.250 C 372.751 177.708,372.365 178.696,372.058 179.446 C 371.751 180.195,371.500 180.893,371.500 180.996 C 371.500 181.100,371.272 181.721,370.993 182.375 C 370.715 183.030,370.423 183.832,370.344 184.158 C 370.266 184.484,369.976 185.313,369.700 186.000 C 369.425 186.688,368.923 188.000,368.586 188.917 C 368.248 189.833,367.745 191.146,367.468 191.833 C 367.191 192.521,366.814 193.571,366.631 194.167 C 366.447 194.762,366.242 195.325,366.173 195.417 C 366.105 195.508,365.914 195.996,365.749 196.500 C 365.584 197.004,365.359 197.642,365.248 197.917 C 365.136 198.192,364.878 198.867,364.673 199.417 C 364.468 199.967,364.075 200.979,363.799 201.667 C 363.524 202.354,363.234 203.186,363.154 203.514 C 363.075 203.843,362.783 204.619,362.505 205.238 C 362.227 205.858,362.000 206.463,362.000 206.584 C 362.000 206.705,361.738 207.417,361.417 208.167 C 361.096 208.916,360.833 209.643,360.833 209.781 C 360.833 209.920,360.727 210.269,360.597 210.558 C 360.033 211.812,359.667 212.720,359.667 212.866 C 359.667 212.953,359.358 213.824,358.980 214.803 C 357.866 217.692,357.233 219.363,356.916 220.250 C 355.976 222.881,355.674 223.685,355.275 224.620 C 355.032 225.190,354.833 225.764,354.833 225.894 C 354.833 226.025,354.597 226.683,354.309 227.358 C 354.020 228.032,353.728 228.808,353.660 229.083 C 353.591 229.358,353.308 230.146,353.032 230.833 C 352.755 231.521,352.321 232.646,352.067 233.333 C 351.813 234.021,351.544 234.655,351.470 234.742 C 351.395 234.829,351.333 235.060,351.333 235.255 C 351.333 235.450,351.033 236.301,350.667 237.146 C 350.300 237.992,350.000 238.776,350.000 238.888 C 350.000 239.001,349.738 239.716,349.417 240.477 C 349.096 241.237,348.833 241.959,348.833 242.081 C 348.833 242.203,348.618 242.783,348.354 243.370 C 348.091 243.958,347.746 244.884,347.588 245.428 C 347.431 245.972,347.245 246.492,347.176 246.583 C 347.106 246.675,346.916 247.162,346.752 247.667 C 346.431 248.654,346.355 248.855,345.862 250.000 C 345.685 250.412,345.419 251.171,345.271 251.687 C 344.922 252.907,344.852 252.953,342.726 253.346 C 341.731 253.530,339.792 253.914,338.417 254.199 C 337.042 254.484,335.429 254.776,334.833 254.848 C 334.237 254.920,332.739 255.208,331.503 255.489 C 330.266 255.770,329.104 255.999,328.919 255.997 C 328.734 255.995,327.308 256.251,325.750 256.566 C 324.192 256.881,322.279 257.255,321.500 257.396 C 319.884 257.688,317.812 258.087,313.167 259.000 C 308.412 259.934,306.423 260.317,304.833 260.602 C 304.054 260.742,302.176 261.114,300.659 261.428 C 299.143 261.743,297.681 262.001,297.409 262.002 C 296.753 262.005,296.167 262.171,296.167 262.353 C 296.167 262.437,308.386 262.500,324.903 262.500 L 353.639 262.500 353.932 261.708 C 354.092 261.273,354.279 260.842,354.346 260.750 C 354.413 260.658,354.599 260.134,354.758 259.585 C 354.917 259.036,355.108 258.474,355.182 258.335 C 355.472 257.797,356.000 256.447,356.000 256.244 C 356.000 256.126,356.262 255.416,356.583 254.667 C 356.904 253.917,357.167 253.205,357.167 253.084 C 357.167 252.963,357.394 252.358,357.672 251.738 C 357.950 251.119,358.242 250.343,358.321 250.014 C 358.400 249.686,358.691 248.854,358.967 248.167 C 359.421 247.040,360.340 244.551,360.783 243.250 C 360.974 242.692,361.608 241.056,362.367 239.167 C 362.644 238.479,363.020 237.429,363.203 236.833 C 363.386 236.237,363.592 235.675,363.660 235.583 C 363.728 235.492,363.918 235.004,364.081 234.500 C 364.245 233.996,364.589 233.058,364.847 232.417 C 365.280 231.341,365.690 230.221,366.525 227.833 C 366.701 227.329,367.058 226.392,367.317 225.750 C 367.576 225.108,367.922 224.171,368.086 223.667 C 368.249 223.162,368.440 222.675,368.509 222.583 C 368.578 222.492,368.765 221.968,368.924 221.419 C 369.083 220.870,369.274 220.307,369.349 220.169 C 369.622 219.661,370.167 218.286,370.166 218.104 C 370.166 218.001,370.476 217.129,370.855 216.167 C 372.007 213.242,372.919 210.793,373.616 208.750 C 373.835 208.108,374.084 207.433,374.170 207.250 C 374.402 206.755,374.881 205.476,375.917 202.583 C 376.081 202.125,376.426 201.225,376.685 200.583 C 376.943 199.942,377.297 199.004,377.472 198.500 C 378.257 196.234,378.598 195.315,379.195 193.863 C 379.546 193.009,379.833 192.209,379.833 192.086 C 379.833 191.963,380.096 191.250,380.417 190.500 C 380.738 189.750,381.000 189.038,381.000 188.917 C 381.000 188.797,381.216 188.217,381.479 187.630 C 381.743 187.042,382.087 186.116,382.245 185.572 C 382.403 185.028,382.588 184.508,382.658 184.417 C 382.727 184.325,382.918 183.838,383.081 183.333 C 383.406 182.334,383.488 182.120,383.975 181.000 C 384.154 180.588,384.386 179.933,384.489 179.545 C 384.593 179.157,384.900 178.344,385.172 177.738 C 385.444 177.131,385.667 176.536,385.667 176.414 C 385.667 176.293,385.929 175.571,386.250 174.810 C 386.571 174.049,386.833 173.343,386.833 173.240 C 386.833 173.137,387.133 172.335,387.500 171.457 C 387.867 170.580,388.167 169.720,388.167 169.547 C 388.167 169.375,388.228 169.162,388.303 169.075 C 388.378 168.988,388.647 168.354,388.901 167.667 C 389.154 166.979,389.588 165.854,389.865 165.167 C 390.142 164.479,390.424 163.692,390.493 163.417 C 390.562 163.142,390.854 162.365,391.142 161.691 C 391.431 161.017,391.667 160.377,391.667 160.269 C 391.667 160.161,391.929 159.451,392.250 158.690 C 392.571 157.929,392.833 157.214,392.833 157.099 C 392.833 156.985,393.096 156.286,393.417 155.546 C 393.738 154.806,394.000 154.087,394.000 153.948 C 394.000 153.810,394.262 153.083,394.583 152.333 C 394.904 151.584,395.167 150.872,395.167 150.751 C 395.167 150.630,395.389 150.035,395.661 149.429 C 395.933 148.823,396.264 147.972,396.396 147.538 C 396.621 146.799,396.984 145.850,397.334 145.083 C 397.418 144.900,397.665 144.225,397.884 143.583 C 398.516 141.732,398.845 140.845,399.442 139.388 C 399.749 138.639,400.000 137.870,400.000 137.679 L 400.000 137.333 353.833 137.333 C 328.442 137.333,307.667 137.394,307.667 137.469 M154.878 241.963 C 153.936 243.155,153.908 243.189,153.177 244.019 C 152.805 244.441,152.500 244.869,152.500 244.969 C 152.500 245.068,152.403 245.210,152.284 245.283 C 152.082 245.408,150.882 246.877,150.056 248.011 C 149.715 248.479,149.283 249.004,148.154 250.318 C 147.886 250.630,147.667 250.986,147.667 251.109 C 147.667 251.233,147.601 251.333,147.521 251.333 C 147.441 251.333,146.976 251.858,146.488 252.500 C 146.000 253.142,145.541 253.667,145.467 253.667 C 145.394 253.667,145.333 253.764,145.333 253.884 C 145.333 254.003,145.071 254.356,144.750 254.667 C 144.429 254.978,144.167 255.315,144.167 255.417 C 144.167 255.518,143.904 255.856,143.583 256.167 C 143.262 256.478,143.000 256.830,143.000 256.949 C 143.000 257.069,142.944 257.167,142.875 257.167 C 142.806 257.167,142.188 257.892,141.500 258.778 C 140.813 259.664,140.124 260.521,139.969 260.683 C 139.815 260.845,139.554 261.189,139.390 261.447 C 139.226 261.705,138.996 261.977,138.879 262.050 C 138.295 262.416,138.857 262.500,141.875 262.493 L 145.083 262.487 145.695 261.702 C 146.031 261.270,146.614 260.523,146.990 260.042 L 147.674 259.167 151.754 259.167 L 155.833 259.167 155.833 259.809 C 155.833 260.162,155.882 260.912,155.940 261.476 L 156.047 262.500 159.190 262.500 L 162.333 262.500 162.339 262.042 C 162.342 261.790,162.227 259.146,162.085 256.167 C 161.942 253.188,161.749 249.025,161.655 246.917 C 161.561 244.808,161.441 242.652,161.387 242.125 L 161.290 241.167 158.399 241.167 L 155.508 241.167 154.878 241.963 M77.378 241.542 C 77.288 241.656,77.010 242.313,76.760 243.000 C 76.510 243.688,76.091 244.794,75.830 245.458 L 75.355 246.667 78.596 246.667 L 81.838 246.667 81.563 247.292 C 81.412 247.635,81.192 248.254,81.075 248.667 C 80.958 249.079,80.630 249.971,80.348 250.648 C 80.065 251.325,79.833 251.964,79.833 252.068 C 79.833 252.171,79.597 252.817,79.308 253.503 C 79.019 254.189,78.727 254.975,78.659 255.250 C 78.591 255.525,78.308 256.313,78.030 257.000 C 77.053 259.421,76.331 261.420,76.332 261.698 C 76.333 261.854,76.258 262.027,76.167 262.083 C 75.637 262.411,76.262 262.500,79.083 262.500 C 81.725 262.500,82.167 262.464,82.167 262.248 C 82.167 262.109,82.239 261.865,82.327 261.706 C 82.653 261.121,83.139 259.897,83.329 259.186 C 83.437 258.785,83.591 258.335,83.671 258.186 C 83.966 257.645,84.500 256.285,84.500 256.077 C 84.500 255.959,84.762 255.250,85.083 254.500 C 85.404 253.750,85.667 253.038,85.667 252.917 C 85.667 252.795,85.929 252.083,86.250 251.333 C 86.571 250.584,86.833 249.884,86.833 249.779 C 86.833 249.674,87.112 248.930,87.452 248.127 L 88.070 246.667 91.254 246.667 L 94.439 246.667 94.803 245.788 C 95.003 245.305,95.167 244.825,95.167 244.720 C 95.167 244.615,95.429 243.916,95.750 243.167 C 96.071 242.417,96.333 241.698,96.333 241.569 C 96.333 241.240,77.635 241.213,77.378 241.542 M112.238 241.520 C 112.175 241.622,112.065 241.941,111.995 242.228 C 111.925 242.515,111.643 243.313,111.367 244.000 C 111.091 244.688,110.589 246.000,110.251 246.917 C 109.912 247.833,109.342 249.333,108.983 250.250 C 108.624 251.167,108.331 252.004,108.332 252.110 C 108.333 252.217,108.071 252.917,107.750 253.667 C 107.429 254.416,107.167 255.128,107.167 255.249 C 107.167 255.370,106.951 255.950,106.687 256.537 C 106.424 257.125,106.079 258.050,105.922 258.594 C 105.764 259.138,105.578 259.658,105.509 259.750 C 105.440 259.842,105.250 260.329,105.088 260.833 C 104.926 261.337,104.727 261.880,104.647 262.039 C 104.566 262.199,104.500 262.367,104.500 262.414 C 104.500 262.461,105.873 262.500,107.550 262.500 L 110.601 262.500 110.908 261.625 C 111.078 261.144,111.273 260.675,111.342 260.583 C 111.412 260.492,111.593 259.987,111.745 259.463 C 111.897 258.938,112.119 258.301,112.240 258.046 C 112.360 257.792,112.562 257.337,112.688 257.036 L 112.917 256.489 114.167 256.536 C 115.361 256.581,115.419 256.602,115.467 257.000 C 115.495 257.229,115.776 258.192,116.092 259.141 C 116.408 260.089,116.667 260.984,116.667 261.129 C 116.667 261.274,116.757 261.642,116.867 261.947 L 117.067 262.500 120.541 262.500 L 124.015 262.500 123.909 261.875 C 123.850 261.531,123.576 260.612,123.299 259.833 C 123.022 259.054,122.733 258.103,122.655 257.720 C 122.578 257.338,122.399 256.747,122.257 256.408 C 121.896 255.543,121.868 255.585,123.258 254.908 C 123.949 254.570,124.710 254.134,124.948 253.939 C 125.791 253.246,127.333 251.755,127.333 251.633 C 127.333 251.565,127.563 251.183,127.845 250.785 C 129.610 248.281,129.793 244.258,128.197 243.035 C 128.043 242.917,127.746 242.671,127.536 242.490 C 126.468 241.562,124.518 241.334,117.635 241.334 C 113.921 241.333,112.319 241.389,112.238 241.520 M184.768 241.597 C 184.712 241.742,184.667 241.971,184.667 242.106 C 184.667 242.321,184.334 243.168,183.825 244.250 C 183.739 244.433,183.490 245.108,183.272 245.750 C 182.696 247.450,181.757 249.962,181.352 250.889 C 181.158 251.332,181.000 251.794,181.000 251.916 C 181.000 252.037,180.737 252.750,180.417 253.500 C 180.096 254.250,179.833 254.962,179.833 255.083 C 179.833 255.203,179.618 255.783,179.354 256.370 C 179.091 256.958,178.746 257.884,178.588 258.428 C 178.431 258.972,178.245 259.492,178.176 259.583 C 178.106 259.675,177.917 260.162,177.755 260.667 C 177.592 261.171,177.394 261.714,177.313 261.873 C 177.008 262.475,177.124 262.500,180.250 262.500 C 183.108 262.500,183.333 262.478,183.333 262.200 C 183.333 262.035,183.395 261.829,183.470 261.742 C 183.544 261.655,183.813 261.021,184.067 260.333 C 184.321 259.646,184.755 258.521,185.032 257.833 C 185.309 257.146,185.600 256.314,185.679 255.986 C 185.758 255.657,186.050 254.881,186.328 254.262 C 186.606 253.642,186.833 253.038,186.833 252.919 C 186.833 252.700,187.706 250.497,188.005 249.961 C 188.094 249.801,188.167 249.519,188.167 249.333 C 188.167 249.148,188.238 248.865,188.325 248.706 C 188.619 248.170,188.990 247.257,189.391 246.083 C 189.611 245.442,190.062 244.172,190.395 243.262 C 190.728 242.353,191.000 241.546,191.000 241.471 C 191.000 241.183,184.879 241.307,184.768 241.597 M206.081 241.708 C 205.926 242.247,205.285 243.887,205.153 244.083 C 205.091 244.175,204.912 244.700,204.754 245.250 C 204.597 245.800,204.412 246.325,204.342 246.417 C 204.273 246.508,204.082 246.996,203.919 247.500 C 203.755 248.004,203.410 248.942,203.150 249.583 C 202.891 250.225,202.521 251.200,202.328 251.750 C 201.338 254.569,200.983 255.519,200.514 256.616 C 200.231 257.275,200.000 257.902,200.000 258.009 C 200.000 258.116,199.749 258.852,199.441 259.643 C 198.861 261.139,198.500 262.192,198.500 262.387 C 198.500 262.449,202.206 262.500,206.736 262.500 L 214.972 262.500 215.248 261.708 C 215.400 261.273,215.753 260.354,216.032 259.667 C 216.311 258.979,216.577 258.248,216.622 258.042 L 216.706 257.667 211.519 257.667 C 208.667 257.667,206.333 257.638,206.333 257.604 C 206.333 257.570,206.521 257.118,206.750 256.599 C 206.979 256.081,207.167 255.553,207.167 255.427 C 207.167 255.300,207.429 254.583,207.750 253.833 C 208.071 253.084,208.333 252.389,208.333 252.290 C 208.333 252.191,208.533 251.616,208.777 251.013 C 209.176 250.025,209.430 249.340,210.417 246.583 C 210.581 246.125,210.929 245.225,211.191 244.583 C 211.695 243.346,212.162 241.888,212.165 241.542 C 212.169 241.097,206.210 241.260,206.081 241.708 M236.114 241.922 C 235.960 242.246,235.833 242.615,235.833 242.741 C 235.833 242.867,235.571 243.584,235.250 244.333 C 234.929 245.083,234.667 245.783,234.667 245.890 C 234.667 245.996,234.379 246.796,234.026 247.667 C 233.339 249.364,233.012 250.244,232.384 252.083 C 232.165 252.725,231.916 253.400,231.830 253.583 C 231.598 254.077,231.195 255.155,230.082 258.250 C 229.918 258.708,229.532 259.696,229.225 260.446 C 228.918 261.195,228.667 261.964,228.667 262.155 L 228.667 262.503 237.451 262.460 L 246.235 262.417 246.449 261.667 C 246.567 261.254,246.734 260.767,246.821 260.583 C 247.336 259.495,247.667 258.574,247.667 258.229 L 247.667 257.833 242.008 257.833 L 236.349 257.833 236.615 257.042 C 237.016 255.844,237.379 254.940,237.552 254.708 C 237.670 254.550,238.913 254.500,242.763 254.500 L 247.818 254.500 248.142 253.768 C 248.320 253.365,248.559 252.746,248.673 252.393 C 248.786 252.039,249.057 251.314,249.273 250.781 C 249.490 250.248,249.667 249.779,249.667 249.739 C 249.667 249.699,247.334 249.667,244.482 249.667 C 240.398 249.667,239.317 249.622,239.388 249.458 C 239.437 249.344,239.726 248.633,240.030 247.879 L 240.583 246.508 246.265 246.504 L 251.946 246.500 252.140 246.075 C 252.246 245.842,252.333 245.549,252.333 245.424 C 252.333 245.299,252.584 244.608,252.891 243.890 C 253.198 243.171,253.502 242.302,253.566 241.958 L 253.682 241.333 245.038 241.333 L 236.395 241.333 236.114 241.922 M269.754 242.225 C 269.537 242.715,269.276 243.427,269.174 243.805 C 269.072 244.184,268.766 244.990,268.494 245.596 C 268.222 246.202,268.000 246.788,268.000 246.898 C 268.000 247.007,267.700 247.832,267.333 248.729 C 266.967 249.627,266.667 250.458,266.667 250.577 C 266.667 250.695,266.471 251.232,266.231 251.771 C 265.992 252.309,265.627 253.237,265.420 253.833 C 265.213 254.429,264.760 255.667,264.414 256.583 C 264.068 257.500,263.605 258.775,263.385 259.417 C 263.164 260.058,262.838 260.935,262.659 261.364 C 262.480 261.794,262.333 262.225,262.333 262.323 C 262.333 262.442,263.335 262.500,265.375 262.499 L 268.417 262.499 268.708 261.789 C 268.869 261.399,269.000 260.981,269.000 260.860 C 269.000 260.740,269.254 260.028,269.563 259.279 C 269.873 258.530,270.224 257.595,270.342 257.202 L 270.558 256.487 271.798 256.535 L 273.038 256.583 273.433 257.667 C 273.650 258.262,273.829 258.862,273.830 259.000 C 273.831 259.137,274.068 259.981,274.356 260.875 L 274.880 262.500 278.357 262.500 C 280.269 262.500,281.834 262.444,281.834 262.375 C 281.835 262.222,281.153 260.006,280.397 257.702 C 279.663 255.468,279.643 255.565,280.941 254.977 C 281.551 254.700,282.153 254.370,282.280 254.243 C 282.407 254.117,282.853 253.767,283.272 253.467 C 286.214 251.354,288.020 246.012,286.568 243.716 C 285.303 241.715,283.561 241.342,275.449 241.337 L 270.148 241.333 269.754 242.225 M121.917 247.049 C 123.643 248.023,122.196 250.956,119.740 251.460 C 118.841 251.644,114.667 251.763,114.667 251.604 C 114.667 251.570,114.854 251.118,115.083 250.599 C 115.313 250.081,115.499 249.566,115.499 249.454 C 115.498 249.342,115.737 248.669,116.029 247.958 L 116.561 246.667 118.905 246.669 C 121.029 246.672,121.313 246.708,121.917 247.049 M279.990 247.240 C 280.619 247.843,280.645 248.392,280.095 249.477 C 279.247 251.150,277.998 251.648,274.622 251.660 L 272.494 251.667 272.602 251.208 C 272.661 250.956,272.913 250.262,273.161 249.667 C 273.410 249.071,273.749 248.147,273.916 247.614 L 274.219 246.644 276.849 246.697 L 279.479 246.750 279.990 247.240 M155.724 250.458 C 155.783 251.352,155.832 252.590,155.832 253.208 L 155.833 254.333 153.583 254.333 C 151.153 254.333,151.082 254.303,151.833 253.583 C 152.108 253.320,152.333 253.021,152.333 252.918 C 152.333 252.816,152.596 252.478,152.917 252.167 C 153.237 251.856,153.500 251.542,153.500 251.469 C 153.500 251.337,153.977 250.728,154.542 250.138 C 154.702 249.970,154.833 249.791,154.833 249.740 C 154.833 249.596,155.403 248.845,155.517 248.839 C 155.571 248.836,155.665 249.565,155.724 250.458 " stroke="none" fill-rule="evenodd"></path></g></svg>