<svg id="svg" xmlns="http://www.w3.org/2000/svg"  width="400" height="400" viewBox="0, 0, 400,400" version="1.1"><g id="svgg"><path id="path0" d="M35.714 176.458 C 35.521 177.010,35.011 178.629,34.495 180.333 C 34.286 181.021,33.988 181.958,33.832 182.417 C 33.676 182.875,33.379 183.813,33.172 184.500 C 32.965 185.188,32.659 186.125,32.493 186.583 C 32.327 187.042,32.141 187.665,32.080 187.970 C 32.019 188.274,31.864 188.724,31.735 188.970 C 31.607 189.215,31.500 189.567,31.497 189.750 C 31.495 189.933,31.344 190.410,31.163 190.810 C 30.982 191.209,30.833 191.668,30.833 191.829 C 30.833 191.990,30.695 192.488,30.526 192.936 C 30.357 193.384,30.069 194.237,29.885 194.833 C 28.947 197.878,28.756 198.482,28.489 199.250 C 27.893 200.966,27.497 202.257,27.498 202.475 C 27.499 202.598,27.388 202.936,27.251 203.225 C 27.114 203.514,26.898 204.125,26.770 204.583 C 26.642 205.042,26.461 205.642,26.368 205.917 C 26.274 206.192,26.069 206.792,25.913 207.250 C 25.756 207.708,25.572 208.346,25.504 208.667 C 25.435 208.987,25.266 209.550,25.126 209.917 C 24.987 210.283,24.703 211.146,24.494 211.833 C 24.286 212.521,23.989 213.458,23.833 213.917 C 23.678 214.375,23.379 215.313,23.170 216.000 C 22.686 217.589,21.581 221.021,21.237 222.000 C 21.092 222.412,20.915 223.031,20.843 223.375 L 20.711 224.000 102.501 224.000 L 184.290 224.000 184.503 223.208 C 184.619 222.773,184.977 221.629,185.297 220.667 C 185.617 219.704,185.902 218.767,185.932 218.583 C 185.981 218.274,186.598 216.349,187.079 215.000 C 187.194 214.679,187.458 213.854,187.667 213.167 C 187.876 212.479,188.186 211.550,188.357 211.103 C 188.527 210.655,188.667 210.159,188.667 210.000 C 188.667 209.841,188.808 209.345,188.982 208.897 C 189.155 208.450,189.466 207.521,189.674 206.833 C 189.881 206.146,190.179 205.208,190.336 204.750 C 190.493 204.292,190.941 202.904,191.332 201.667 C 191.723 200.429,192.175 199.004,192.337 198.500 C 192.498 197.996,192.800 197.021,193.006 196.333 C 193.213 195.646,193.521 194.717,193.691 194.269 C 193.861 193.822,194.000 193.336,194.000 193.189 C 194.000 193.043,194.142 192.547,194.316 192.087 C 194.490 191.626,194.952 190.237,195.342 189.000 C 195.733 187.762,196.341 185.850,196.693 184.750 C 197.595 181.930,197.909 180.928,198.340 179.500 C 198.548 178.813,198.856 177.899,199.026 177.469 C 199.195 177.040,199.333 176.533,199.333 176.344 L 199.333 176.000 117.604 176.000 L 35.874 176.000 35.714 176.458 M65.289 179.083 C 65.310 179.633,65.475 181.658,65.656 183.583 C 65.836 185.508,66.070 188.096,66.176 189.333 C 66.282 190.571,66.435 192.033,66.516 192.583 C 66.598 193.133,66.666 194.108,66.667 194.750 C 66.671 196.055,66.819 197.167,66.989 197.167 C 67.115 197.167,68.294 194.730,70.498 189.917 C 71.005 188.811,71.873 186.953,72.835 184.917 C 73.410 183.698,74.321 181.759,75.595 179.042 L 76.083 178.000 85.041 178.000 L 94.000 178.000 93.990 179.708 C 93.985 180.648,93.915 182.467,93.835 183.750 C 93.755 185.033,93.607 187.921,93.507 190.167 C 93.406 192.412,93.251 195.487,93.162 197.000 C 92.737 204.272,92.668 205.595,92.595 208.000 C 92.520 210.463,92.530 210.565,92.800 210.192 C 93.171 209.680,94.266 207.742,94.605 207.000 C 94.751 206.679,94.924 206.379,94.989 206.333 C 95.054 206.287,95.432 205.650,95.830 204.917 C 96.227 204.183,96.738 203.246,96.965 202.833 C 97.663 201.565,98.364 200.282,98.739 199.583 C 98.937 199.217,99.526 198.148,100.049 197.208 C 101.131 195.264,102.534 192.721,103.336 191.250 C 103.636 190.700,104.346 189.425,104.914 188.417 C 105.482 187.408,106.271 185.983,106.668 185.250 C 107.065 184.517,107.537 183.654,107.718 183.333 C 108.093 182.665,108.822 181.332,109.539 180.000 C 109.811 179.496,110.182 178.840,110.363 178.542 L 110.694 178.000 120.230 178.000 L 129.767 178.000 129.955 179.208 C 130.058 179.873,130.302 181.617,130.497 183.083 C 130.691 184.550,130.992 186.725,131.165 187.917 C 131.338 189.108,131.636 191.283,131.826 192.750 C 132.182 195.490,132.395 197.004,132.671 198.750 C 132.757 199.300,132.902 200.350,132.993 201.083 C 133.344 203.921,133.539 205.320,133.847 207.201 C 134.023 208.275,134.168 209.400,134.169 209.701 C 134.171 210.003,134.244 210.362,134.332 210.500 C 134.511 210.780,134.382 210.899,136.417 208.581 C 137.058 207.850,137.706 207.139,137.855 207.001 C 138.005 206.863,139.201 205.512,140.514 204.000 C 141.827 202.487,143.293 200.838,143.772 200.333 C 145.544 198.468,145.531 198.506,144.855 197.283 C 144.592 196.806,144.018 195.742,143.581 194.917 C 143.143 194.092,142.524 192.929,142.205 192.333 C 141.887 191.737,141.251 190.537,140.794 189.667 C 140.336 188.796,139.906 188.008,139.839 187.917 C 139.771 187.825,139.170 186.700,138.503 185.417 C 137.836 184.133,137.233 183.008,137.164 182.917 C 137.042 182.758,136.372 181.503,135.219 179.275 C 134.927 178.711,134.684 178.194,134.678 178.125 C 134.672 178.056,139.246 178.000,144.843 178.000 L 155.019 178.000 155.349 178.792 C 155.530 179.227,155.782 179.808,155.907 180.083 C 156.481 181.344,156.844 182.175,157.327 183.333 C 158.181 185.383,158.241 185.501,158.416 185.487 C 158.508 185.480,158.986 184.861,159.478 184.112 C 159.970 183.363,161.133 181.681,162.062 180.375 L 163.750 178.000 174.984 178.000 L 186.218 178.000 185.902 178.375 C 185.728 178.581,185.059 179.350,184.416 180.083 C 182.781 181.947,181.514 183.412,179.601 185.652 C 178.694 186.714,177.409 188.183,176.747 188.917 C 175.312 190.505,173.084 193.062,170.938 195.583 C 170.080 196.592,168.806 198.054,168.106 198.833 C 166.639 200.468,166.678 200.326,167.351 201.602 C 169.300 205.299,169.789 206.222,170.384 207.333 C 170.752 208.021,171.423 209.296,171.874 210.167 C 173.078 212.489,173.813 213.881,174.822 215.750 C 176.658 219.149,178.000 221.750,178.000 221.910 C 178.000 221.961,173.422 221.983,167.826 221.960 L 157.652 221.917 156.892 220.167 C 155.897 217.876,155.758 217.550,154.941 215.605 C 154.122 213.657,154.120 213.656,153.257 214.848 C 152.296 216.176,150.622 218.402,150.510 218.500 C 150.458 218.546,150.196 218.883,149.928 219.250 C 149.661 219.617,149.067 220.385,148.609 220.958 L 147.775 222.000 132.829 222.000 L 117.883 222.000 117.770 220.375 C 117.708 219.481,117.611 218.243,117.555 217.622 L 117.452 216.495 112.970 216.539 L 108.488 216.583 107.338 219.250 L 106.189 221.917 90.577 221.959 L 74.965 222.002 75.072 220.709 C 75.131 219.998,75.255 218.367,75.346 217.083 C 75.438 215.800,75.582 214.075,75.666 213.250 C 75.750 212.425,75.896 210.737,75.990 209.500 C 76.084 208.262,76.208 206.762,76.266 206.167 C 76.338 205.419,76.317 205.135,76.197 205.250 C 76.023 205.418,74.864 207.701,74.166 209.250 C 73.690 210.308,72.638 212.525,71.004 215.917 C 70.298 217.383,69.359 219.352,68.918 220.292 L 68.116 222.000 62.728 222.000 L 57.340 222.000 57.269 221.625 C 57.199 221.257,57.060 220.002,56.586 215.500 C 56.456 214.262,56.270 212.688,56.174 212.000 C 56.078 211.313,55.919 209.850,55.822 208.750 C 55.725 207.650,55.568 206.452,55.473 206.087 L 55.300 205.424 55.066 206.087 C 54.937 206.452,54.684 207.313,54.502 208.000 C 54.321 208.688,54.021 209.775,53.836 210.417 C 53.651 211.058,53.304 212.296,53.065 213.167 C 51.849 217.604,50.864 221.066,50.681 221.545 L 50.508 222.000 41.921 222.000 C 37.198 222.000,33.333 221.978,33.333 221.952 C 33.333 221.925,33.549 221.231,33.812 220.410 C 34.357 218.709,35.481 215.135,36.509 211.833 C 36.895 210.596,37.454 208.833,37.752 207.917 C 38.050 207.000,38.535 205.463,38.830 204.500 C 39.124 203.537,39.463 202.487,39.582 202.167 C 39.701 201.846,40.111 200.571,40.493 199.333 C 40.875 198.096,41.322 196.671,41.487 196.167 C 41.652 195.662,41.958 194.688,42.168 194.000 C 42.377 193.313,42.688 192.384,42.858 191.936 C 43.028 191.488,43.167 191.043,43.167 190.945 C 43.167 190.704,44.652 186.043,44.937 185.391 C 45.063 185.103,45.167 184.753,45.167 184.615 C 45.167 184.476,45.311 183.963,45.487 183.473 C 45.663 182.984,46.132 181.552,46.529 180.291 L 47.250 177.999 56.250 178.041 L 65.250 178.083 65.289 179.083 M116.226 198.625 C 116.086 199.047,115.032 201.599,114.566 202.645 C 113.865 204.217,113.931 204.333,115.522 204.333 L 116.877 204.333 116.774 203.708 C 116.717 203.365,116.670 202.015,116.669 200.708 C 116.667 198.495,116.512 197.764,116.226 198.625 " stroke="none" fill="#e30414" fill-rule="evenodd"></path><path id="path1" d="M18.518 170.459 C 18.299 171.169,17.971 172.237,17.789 172.833 C 17.606 173.429,17.323 174.292,17.160 174.750 C 16.997 175.208,16.828 175.771,16.785 176.000 C 16.742 176.229,16.585 176.773,16.436 177.208 C 16.288 177.644,16.046 178.356,15.898 178.792 C 15.750 179.227,15.563 179.913,15.482 180.316 C 15.401 180.718,15.263 181.134,15.176 181.239 C 15.088 181.344,14.937 181.802,14.840 182.257 C 14.742 182.711,14.561 183.346,14.438 183.667 C 14.315 183.987,14.045 184.813,13.839 185.500 C 13.346 187.141,12.877 188.647,12.411 190.083 C 12.204 190.725,11.865 191.813,11.660 192.500 C 11.454 193.188,11.187 194.012,11.066 194.333 C 10.945 194.654,10.765 195.254,10.667 195.667 C 10.568 196.079,10.389 196.679,10.268 197.000 C 10.147 197.321,9.879 198.146,9.672 198.833 C 9.285 200.121,8.786 201.747,8.418 202.917 C 8.302 203.283,8.003 204.258,7.752 205.083 C 7.502 205.908,7.163 206.996,6.999 207.500 C 6.835 208.004,6.542 208.942,6.349 209.583 C 5.755 211.548,5.299 213.040,4.999 214.000 C 4.841 214.504,4.544 215.479,4.337 216.167 C 4.131 216.854,3.820 217.793,3.648 218.253 C 3.475 218.713,3.333 219.187,3.333 219.305 C 3.333 219.549,2.769 221.340,2.307 222.564 C 2.138 223.012,2.000 223.515,2.000 223.683 C 2.000 223.851,1.894 224.235,1.765 224.536 C 1.636 224.837,1.330 225.758,1.087 226.583 C 0.843 227.408,0.525 228.421,0.380 228.833 C 0.235 229.246,0.082 229.865,0.040 230.208 L -0.035 230.833 190.548 230.833 C 364.181 230.833,381.140 230.810,381.232 230.570 C 381.288 230.425,381.333 230.129,381.333 229.913 C 381.333 229.697,381.401 229.478,381.483 229.427 C 381.566 229.376,381.726 228.940,381.839 228.459 C 381.952 227.977,382.139 227.321,382.254 227.000 C 382.368 226.679,382.667 225.742,382.918 224.917 C 383.168 224.092,383.524 222.929,383.708 222.333 C 383.892 221.737,384.192 220.762,384.375 220.167 C 384.558 219.571,384.840 218.671,385.001 218.167 C 385.162 217.662,385.497 216.575,385.745 215.750 C 385.994 214.925,386.302 214.004,386.432 213.703 C 386.561 213.402,386.667 213.018,386.667 212.850 C 386.667 212.682,386.807 212.178,386.979 211.731 C 387.150 211.283,387.367 210.617,387.460 210.250 C 387.554 209.883,387.707 209.358,387.800 209.083 C 387.894 208.808,388.135 208.021,388.337 207.333 C 388.539 206.646,388.839 205.708,389.004 205.250 C 389.168 204.792,389.338 204.229,389.382 204.000 C 389.425 203.771,389.582 203.227,389.730 202.792 C 389.879 202.356,390.121 201.644,390.270 201.208 C 390.418 200.773,390.575 200.229,390.618 200.000 C 390.662 199.771,390.832 199.208,390.996 198.750 C 391.161 198.292,391.464 197.354,391.671 196.667 C 392.297 194.584,392.691 193.296,392.996 192.333 C 393.156 191.829,393.458 190.854,393.667 190.167 C 393.877 189.479,394.182 188.504,394.346 188.000 C 394.510 187.496,394.879 186.296,395.167 185.333 C 395.455 184.371,395.755 183.433,395.833 183.250 C 395.911 183.067,396.012 182.729,396.058 182.500 C 396.155 182.016,397.425 177.860,397.739 177.000 C 397.856 176.679,398.118 175.854,398.320 175.167 C 398.522 174.479,398.804 173.579,398.946 173.167 C 399.089 172.754,399.260 172.154,399.327 171.833 C 399.395 171.512,399.574 170.960,399.725 170.605 C 399.876 170.250,400.000 169.781,400.000 169.563 L 400.000 169.167 209.458 169.167 L 18.917 169.168 18.518 170.459 M397.667 170.992 C 397.667 171.080,397.601 171.323,397.520 171.534 C 397.366 171.934,396.964 173.217,396.328 175.333 C 396.121 176.021,395.822 176.996,395.663 177.500 C 395.195 178.985,394.729 180.498,394.328 181.833 C 394.121 182.521,393.853 183.346,393.732 183.667 C 393.611 183.987,393.432 184.588,393.333 185.000 C 393.235 185.412,393.055 186.012,392.934 186.333 C 392.813 186.654,392.543 187.479,392.333 188.167 C 392.124 188.854,391.815 189.867,391.647 190.417 C 391.478 190.967,391.034 192.429,390.658 193.667 C 390.283 194.904,389.842 196.329,389.679 196.833 C 389.516 197.338,389.213 198.313,389.005 199.000 C 388.798 199.688,388.498 200.662,388.337 201.167 C 388.177 201.671,387.877 202.646,387.671 203.333 C 387.464 204.021,387.161 204.958,386.996 205.417 C 386.832 205.875,386.662 206.438,386.618 206.667 C 386.575 206.896,386.418 207.440,386.270 207.875 C 386.121 208.310,385.879 209.023,385.731 209.458 C 385.583 209.894,385.400 210.512,385.325 210.833 C 385.193 211.399,384.836 212.558,384.479 213.583 C 384.383 213.858,384.197 214.496,384.066 215.000 C 383.935 215.504,383.751 216.052,383.657 216.217 C 383.563 216.382,383.423 216.832,383.346 217.217 C 383.268 217.602,383.083 218.273,382.936 218.708 C 382.788 219.144,382.545 219.856,382.397 220.292 C 382.249 220.727,382.072 221.346,382.004 221.667 C 381.936 221.987,381.802 222.438,381.706 222.667 C 381.611 222.896,381.329 223.758,381.080 224.583 C 380.378 226.907,379.972 228.208,379.791 228.708 L 379.626 229.167 190.917 229.167 L 2.208 229.167 2.459 228.375 C 2.597 227.940,2.839 227.208,2.997 226.750 C 3.155 226.292,3.362 225.617,3.457 225.250 C 3.628 224.592,3.693 224.388,4.255 222.750 C 4.413 222.292,4.596 221.617,4.662 221.250 C 4.728 220.883,4.897 220.321,5.038 220.000 C 5.180 219.679,5.370 219.117,5.463 218.750 C 5.555 218.383,5.705 217.858,5.798 217.583 C 5.890 217.308,6.091 216.708,6.245 216.250 C 6.400 215.792,6.586 215.154,6.660 214.833 C 6.734 214.512,6.916 213.894,7.064 213.458 C 7.212 213.023,7.455 212.310,7.603 211.875 C 7.751 211.440,7.928 210.821,7.996 210.500 C 8.064 210.179,8.198 209.729,8.294 209.500 C 8.389 209.271,8.670 208.408,8.919 207.583 C 9.167 206.758,9.501 205.671,9.661 205.167 C 9.821 204.662,10.123 203.688,10.333 203.000 C 10.543 202.313,10.846 201.338,11.006 200.833 C 11.166 200.329,11.499 199.242,11.747 198.417 C 11.994 197.592,12.302 196.670,12.432 196.369 C 12.561 196.068,12.667 195.685,12.667 195.517 C 12.667 195.349,12.808 194.845,12.980 194.397 C 13.153 193.950,13.466 192.983,13.676 192.250 C 13.886 191.517,14.342 190.017,14.690 188.917 C 15.038 187.817,15.479 186.392,15.671 185.750 C 15.863 185.108,16.137 184.246,16.280 183.833 C 16.423 183.421,16.575 182.896,16.618 182.667 C 16.662 182.438,16.832 181.875,16.996 181.417 C 17.161 180.958,17.462 180.021,17.667 179.333 C 17.871 178.646,18.180 177.707,18.352 177.247 C 18.525 176.787,18.667 176.307,18.667 176.181 C 18.667 176.054,18.808 175.531,18.981 175.017 C 19.577 173.244,19.981 171.915,20.087 171.375 L 20.193 170.833 208.930 170.833 C 328.431 170.833,397.667 170.892,397.667 170.992 M46.529 180.291 C 46.132 181.552,45.663 182.984,45.487 183.473 C 45.311 183.963,45.167 184.476,45.167 184.615 C 45.167 184.753,45.063 185.103,44.937 185.391 C 44.652 186.043,43.167 190.704,43.167 190.945 C 43.167 191.043,43.028 191.488,42.858 191.936 C 42.688 192.384,42.377 193.313,42.168 194.000 C 41.958 194.688,41.652 195.662,41.487 196.167 C 41.322 196.671,40.875 198.096,40.493 199.333 C 40.111 200.571,39.701 201.846,39.582 202.167 C 39.463 202.487,39.124 203.537,38.830 204.500 C 38.535 205.463,38.050 207.000,37.752 207.917 C 37.454 208.833,36.895 210.596,36.509 211.833 C 35.481 215.135,34.357 218.709,33.812 220.410 C 33.549 221.231,33.333 221.925,33.333 221.952 C 33.333 221.978,37.198 222.000,41.921 222.000 L 50.508 222.000 50.681 221.545 C 50.864 221.066,51.849 217.604,53.065 213.167 C 53.304 212.296,53.651 211.058,53.836 210.417 C 54.021 209.775,54.321 208.688,54.502 208.000 C 54.684 207.313,54.937 206.452,55.066 206.087 L 55.300 205.424 55.473 206.087 C 55.568 206.452,55.725 207.650,55.822 208.750 C 55.919 209.850,56.078 211.313,56.174 212.000 C 56.270 212.688,56.456 214.262,56.586 215.500 C 57.060 220.002,57.199 221.257,57.269 221.625 L 57.340 222.000 62.728 222.000 L 68.116 222.000 68.918 220.292 C 69.359 219.352,70.298 217.383,71.004 215.917 C 72.638 212.525,73.690 210.308,74.166 209.250 C 74.864 207.701,76.023 205.418,76.197 205.250 C 76.317 205.135,76.338 205.419,76.266 206.167 C 76.208 206.762,76.084 208.262,75.990 209.500 C 75.896 210.737,75.750 212.425,75.666 213.250 C 75.582 214.075,75.438 215.800,75.346 217.083 C 75.255 218.367,75.131 219.998,75.072 220.709 L 74.965 222.002 90.577 221.959 L 106.189 221.917 107.338 219.250 L 108.488 216.583 112.970 216.539 L 117.452 216.495 117.555 217.622 C 117.611 218.243,117.708 219.481,117.770 220.375 L 117.883 222.000 132.829 222.000 L 147.775 222.000 148.609 220.958 C 149.067 220.385,149.661 219.617,149.928 219.250 C 150.196 218.883,150.458 218.546,150.510 218.500 C 150.622 218.402,152.296 216.176,153.257 214.848 C 154.120 213.656,154.122 213.657,154.941 215.605 C 155.758 217.550,155.897 217.876,156.892 220.167 L 157.652 221.917 167.826 221.960 C 173.422 221.983,178.000 221.961,178.000 221.910 C 178.000 221.750,176.658 219.149,174.822 215.750 C 173.813 213.881,173.078 212.489,171.874 210.167 C 171.423 209.296,170.752 208.021,170.384 207.333 C 169.789 206.222,169.300 205.299,167.351 201.602 C 166.678 200.326,166.639 200.468,168.106 198.833 C 168.806 198.054,170.080 196.592,170.938 195.583 C 173.084 193.062,175.312 190.505,176.747 188.917 C 177.409 188.183,178.694 186.714,179.601 185.652 C 181.514 183.412,182.781 181.947,184.416 180.083 C 185.059 179.350,185.728 178.581,185.902 178.375 L 186.218 178.000 174.984 178.000 L 163.750 178.000 162.062 180.375 C 161.133 181.681,159.970 183.363,159.478 184.112 C 158.986 184.861,158.508 185.480,158.416 185.487 C 158.241 185.501,158.181 185.383,157.327 183.333 C 156.844 182.175,156.481 181.344,155.907 180.083 C 155.782 179.808,155.530 179.227,155.349 178.792 L 155.019 178.000 144.843 178.000 C 139.246 178.000,134.672 178.056,134.678 178.125 C 134.684 178.194,134.927 178.711,135.219 179.275 C 136.372 181.503,137.042 182.758,137.164 182.917 C 137.233 183.008,137.836 184.133,138.503 185.417 C 139.170 186.700,139.771 187.825,139.839 187.917 C 139.906 188.008,140.336 188.796,140.794 189.667 C 141.251 190.537,141.887 191.737,142.205 192.333 C 142.524 192.929,143.143 194.092,143.581 194.917 C 144.018 195.742,144.592 196.806,144.855 197.283 C 145.531 198.506,145.544 198.468,143.772 200.333 C 143.293 200.838,141.827 202.487,140.514 204.000 C 139.201 205.512,138.005 206.863,137.855 207.001 C 137.706 207.139,137.058 207.850,136.417 208.581 C 134.382 210.899,134.511 210.780,134.332 210.500 C 134.244 210.362,134.171 210.003,134.169 209.701 C 134.168 209.400,134.023 208.275,133.847 207.201 C 133.539 205.320,133.344 203.921,132.993 201.083 C 132.902 200.350,132.757 199.300,132.671 198.750 C 132.395 197.004,132.182 195.490,131.826 192.750 C 131.636 191.283,131.338 189.108,131.165 187.917 C 130.992 186.725,130.691 184.550,130.497 183.083 C 130.302 181.617,130.058 179.873,129.955 179.208 L 129.767 178.000 120.230 178.000 L 110.694 178.000 110.363 178.542 C 110.182 178.840,109.811 179.496,109.539 180.000 C 108.822 181.332,108.093 182.665,107.718 183.333 C 107.537 183.654,107.065 184.517,106.668 185.250 C 106.271 185.983,105.482 187.408,104.914 188.417 C 104.346 189.425,103.636 190.700,103.336 191.250 C 102.534 192.721,101.131 195.264,100.049 197.208 C 99.526 198.148,98.937 199.217,98.739 199.583 C 98.364 200.282,97.663 201.565,96.965 202.833 C 96.738 203.246,96.227 204.183,95.830 204.917 C 95.432 205.650,95.054 206.287,94.989 206.333 C 94.924 206.379,94.751 206.679,94.605 207.000 C 94.266 207.742,93.171 209.680,92.800 210.192 C 92.530 210.565,92.520 210.463,92.595 208.000 C 92.668 205.595,92.737 204.272,93.162 197.000 C 93.251 195.487,93.406 192.412,93.507 190.167 C 93.607 187.921,93.755 185.033,93.835 183.750 C 93.915 182.467,93.985 180.648,93.990 179.708 L 94.000 178.000 85.041 178.000 L 76.083 178.000 75.595 179.042 C 74.321 181.759,73.410 183.698,72.835 184.917 C 71.873 186.953,71.005 188.811,70.498 189.917 C 68.294 194.730,67.115 197.167,66.989 197.167 C 66.819 197.167,66.671 196.055,66.667 194.750 C 66.666 194.108,66.598 193.133,66.516 192.583 C 66.435 192.033,66.282 190.571,66.176 189.333 C 66.070 188.096,65.836 185.508,65.656 183.583 C 65.475 181.658,65.310 179.633,65.289 179.083 L 65.250 178.083 56.250 178.041 L 47.250 177.999 46.529 180.291 M64.229 179.688 C 64.286 179.974,64.333 180.593,64.332 181.063 C 64.332 181.532,64.478 183.417,64.657 185.250 C 65.016 188.929,65.553 195.160,65.858 199.195 C 66.053 201.773,66.060 201.802,66.361 201.419 C 66.529 201.206,66.667 200.975,66.667 200.907 C 66.667 200.802,67.178 199.661,67.689 198.625 C 67.769 198.465,67.898 198.202,67.976 198.042 C 68.208 197.567,69.500 194.805,69.827 194.083 C 70.326 192.983,71.525 190.459,71.856 189.811 C 72.027 189.477,72.167 189.114,72.167 189.003 C 72.167 188.892,72.306 188.602,72.476 188.359 C 72.646 188.116,72.833 187.716,72.893 187.470 C 72.952 187.224,73.113 186.911,73.250 186.774 C 73.388 186.636,73.500 186.435,73.500 186.326 C 73.500 186.218,73.640 185.856,73.812 185.523 C 73.984 185.189,74.314 184.504,74.547 184.000 C 74.779 183.496,75.391 182.202,75.907 181.125 L 76.845 179.167 84.926 179.167 L 93.006 179.167 92.928 179.542 C 92.885 179.748,92.732 182.242,92.590 185.083 C 92.447 187.925,92.178 193.025,91.992 196.417 C 91.807 199.808,91.657 203.146,91.659 203.833 C 91.661 204.521,91.515 207.333,91.335 210.083 C 91.154 212.833,91.005 215.140,91.003 215.208 C 90.995 215.536,91.488 215.280,91.645 214.875 C 91.743 214.623,92.052 214.042,92.332 213.583 C 92.612 213.125,92.877 212.656,92.920 212.542 C 92.964 212.427,93.036 212.240,93.080 212.125 C 93.124 212.010,93.349 211.617,93.581 211.250 C 93.813 210.883,94.123 210.321,94.270 210.000 C 94.417 209.679,94.596 209.379,94.667 209.333 C 94.738 209.287,94.917 208.987,95.066 208.667 C 95.214 208.346,95.519 207.783,95.743 207.417 C 95.967 207.050,96.197 206.637,96.254 206.500 C 96.369 206.223,96.533 205.914,97.038 205.019 C 97.226 204.688,97.640 203.929,97.960 203.333 C 98.280 202.737,98.606 202.169,98.684 202.070 C 98.762 201.972,99.078 201.409,99.385 200.820 C 100.023 199.598,100.907 197.984,101.339 197.250 C 101.501 196.975,101.856 196.338,102.128 195.833 C 102.399 195.329,102.795 194.617,103.007 194.250 C 103.219 193.883,103.644 193.102,103.950 192.513 C 104.256 191.924,104.571 191.362,104.649 191.263 C 104.778 191.100,105.579 189.653,106.364 188.167 C 106.533 187.846,106.740 187.471,106.824 187.333 C 106.907 187.196,107.022 186.971,107.079 186.833 C 107.136 186.696,107.366 186.283,107.590 185.917 C 107.814 185.550,108.119 184.987,108.268 184.667 C 108.416 184.346,108.596 184.046,108.667 184.000 C 108.738 183.954,108.917 183.654,109.066 183.333 C 109.214 183.012,109.519 182.450,109.743 182.083 C 110.118 181.470,110.256 181.201,110.429 180.750 C 110.464 180.658,110.670 180.283,110.886 179.917 L 111.280 179.250 120.033 179.207 L 128.786 179.164 128.972 180.374 C 129.075 181.039,129.204 182.033,129.260 182.583 C 129.316 183.133,129.468 184.094,129.598 184.719 C 129.727 185.344,129.832 186.131,129.831 186.469 C 129.830 186.807,129.977 188.058,130.158 189.250 C 130.338 190.442,130.637 192.504,130.821 193.833 C 131.005 195.162,131.281 197.075,131.434 198.083 C 131.588 199.092,131.742 200.217,131.777 200.583 C 131.812 200.950,131.993 202.338,132.180 203.667 C 132.367 204.996,132.670 207.171,132.854 208.500 C 133.454 212.849,133.514 213.236,133.593 213.315 C 133.671 213.393,135.167 211.862,135.167 211.704 C 135.167 211.659,135.335 211.455,135.542 211.252 C 136.025 210.775,136.810 209.908,138.255 208.256 C 138.894 207.525,139.660 206.679,139.958 206.375 C 140.256 206.071,140.501 205.768,140.502 205.703 C 140.503 205.637,140.802 205.321,141.167 205.000 C 141.532 204.679,141.831 204.323,141.832 204.208 C 141.833 204.094,141.890 204.000,141.958 204.000 C 142.027 203.999,142.646 203.346,143.333 202.547 C 144.021 201.749,144.865 200.805,145.208 200.451 C 145.552 200.097,145.833 199.765,145.833 199.714 C 145.833 199.663,146.021 199.448,146.250 199.235 C 146.903 198.630,146.896 198.607,145.334 195.750 C 145.033 195.200,144.512 194.225,144.176 193.583 C 143.628 192.537,143.466 192.232,142.980 191.333 C 142.905 191.196,142.627 190.671,142.361 190.167 C 142.095 189.662,141.629 188.800,141.326 188.250 C 141.023 187.700,140.483 186.688,140.126 186.000 C 139.770 185.313,139.299 184.450,139.080 184.083 C 138.861 183.717,138.636 183.304,138.579 183.167 C 138.522 183.029,138.392 182.767,138.289 182.583 C 138.186 182.400,137.810 181.688,137.454 181.000 C 137.098 180.313,136.737 179.679,136.653 179.592 C 136.569 179.505,136.500 179.373,136.500 179.300 C 136.500 178.987,154.337 179.145,154.437 179.458 C 154.489 179.619,154.716 180.200,154.944 180.750 C 155.490 182.074,155.569 182.259,156.045 183.333 C 156.268 183.838,156.620 184.662,156.826 185.167 C 157.033 185.671,157.344 186.404,157.518 186.796 C 157.691 187.188,157.833 187.619,157.833 187.754 C 157.833 188.098,158.320 188.062,158.456 187.708 C 158.517 187.548,158.796 187.090,159.075 186.690 C 159.355 186.291,159.696 185.793,159.833 185.583 C 159.971 185.374,160.327 184.853,160.625 184.426 C 160.923 183.999,161.167 183.579,161.167 183.492 C 161.167 183.405,161.237 183.333,161.323 183.333 C 161.408 183.333,161.647 183.033,161.853 182.667 C 162.059 182.300,162.280 182.000,162.345 182.000 C 162.409 182.000,162.506 181.869,162.561 181.708 C 162.616 181.548,163.023 180.929,163.467 180.333 L 164.273 179.250 174.011 179.221 C 179.368 179.205,183.656 179.230,183.542 179.276 C 183.427 179.323,183.333 179.440,183.333 179.536 C 183.333 179.633,183.165 179.877,182.958 180.079 C 182.511 180.517,181.897 181.208,180.665 182.664 C 180.162 183.258,179.506 183.992,179.208 184.294 C 178.910 184.597,178.667 184.914,178.667 185.000 C 178.667 185.085,178.517 185.235,178.333 185.333 C 178.150 185.431,178.000 185.583,178.000 185.671 C 178.000 185.759,177.789 186.037,177.530 186.290 C 177.272 186.543,176.621 187.275,176.084 187.917 C 174.962 189.256,174.244 190.064,173.708 190.588 C 173.502 190.790,173.333 191.040,173.333 191.144 C 173.333 191.248,173.275 191.333,173.203 191.333 C 173.132 191.333,172.616 191.877,172.056 192.542 C 171.497 193.206,170.787 194.032,170.478 194.376 C 170.169 194.720,169.654 195.303,169.333 195.670 C 169.012 196.038,168.563 196.546,168.333 196.800 C 168.104 197.054,167.579 197.665,167.167 198.159 C 166.395 199.080,166.349 199.135,165.703 199.857 L 165.323 200.283 165.926 201.350 C 166.258 201.937,166.636 202.642,166.766 202.917 C 166.895 203.192,167.489 204.317,168.084 205.417 C 168.680 206.517,169.288 207.698,169.435 208.042 C 169.582 208.385,169.770 208.667,169.851 208.667 C 169.933 208.667,170.002 208.798,170.004 208.958 C 170.006 209.119,170.154 209.438,170.333 209.667 C 170.513 209.896,170.661 210.200,170.663 210.342 C 170.665 210.484,170.740 210.673,170.829 210.762 C 170.987 210.920,171.768 212.370,172.978 214.750 C 173.304 215.392,173.617 215.954,173.674 216.000 C 173.731 216.046,174.056 216.646,174.396 217.333 C 174.736 218.021,175.230 218.984,175.495 219.473 C 175.759 219.963,176.016 220.469,176.066 220.598 C 176.143 220.799,174.848 220.833,167.270 220.833 L 158.384 220.833 158.089 220.125 C 157.927 219.735,157.496 218.704,157.130 217.833 C 156.765 216.963,156.313 215.875,156.127 215.417 C 155.941 214.958,155.654 214.283,155.490 213.917 C 155.325 213.550,155.108 212.987,155.006 212.667 C 154.905 212.346,154.721 211.902,154.598 211.679 L 154.374 211.276 153.939 211.929 C 153.136 213.136,152.924 213.416,152.711 213.550 C 152.595 213.623,152.500 213.792,152.500 213.925 C 152.500 214.058,152.444 214.170,152.375 214.174 C 152.306 214.179,151.987 214.563,151.667 215.028 C 151.346 215.494,150.952 215.994,150.792 216.141 C 150.631 216.288,150.500 216.471,150.500 216.548 C 150.500 216.683,149.271 218.299,148.750 218.847 C 148.613 218.993,148.500 219.193,148.500 219.292 C 148.500 219.391,148.441 219.497,148.368 219.528 C 148.296 219.558,148.024 219.865,147.765 220.208 L 147.294 220.833 133.162 220.833 L 119.029 220.833 118.937 220.208 C 118.887 219.865,118.796 218.627,118.736 217.458 L 118.627 215.333 113.147 215.333 C 108.874 215.333,107.667 215.379,107.667 215.542 C 107.667 215.656,107.524 216.050,107.348 216.417 C 106.604 217.969,105.755 219.924,105.592 220.458 L 105.478 220.833 90.863 220.833 L 76.248 220.833 76.300 219.458 C 76.328 218.702,76.498 216.720,76.676 215.053 C 76.854 213.386,77.000 211.623,77.000 211.135 C 77.000 210.647,77.116 209.273,77.259 208.082 C 77.401 206.891,77.587 204.867,77.671 203.583 C 77.756 202.300,77.876 200.706,77.937 200.042 C 78.016 199.180,77.994 198.833,77.858 198.833 C 77.753 198.833,77.667 198.906,77.667 198.994 C 77.667 199.083,77.300 199.927,76.852 200.869 C 76.404 201.812,75.798 203.108,75.506 203.750 C 75.213 204.392,74.669 205.554,74.296 206.333 C 73.924 207.112,73.566 207.862,73.502 208.000 C 73.438 208.137,73.309 208.400,73.217 208.583 C 72.924 209.161,71.724 211.694,71.045 213.167 C 70.074 215.273,70.015 215.395,69.853 215.667 C 69.771 215.804,69.516 216.329,69.286 216.833 C 69.056 217.338,68.542 218.443,68.143 219.291 L 67.417 220.832 62.833 220.791 L 58.250 220.750 58.141 219.167 C 58.082 218.296,57.913 216.853,57.766 215.960 C 57.620 215.067,57.500 214.017,57.500 213.627 C 57.500 213.236,57.354 211.792,57.175 210.417 C 56.865 208.035,56.320 203.338,56.045 200.679 C 55.918 199.452,55.500 198.765,55.500 199.784 C 55.500 200.046,55.350 200.688,55.167 201.210 C 54.983 201.732,54.833 202.286,54.833 202.442 C 54.833 202.599,54.674 203.257,54.479 203.905 C 54.285 204.553,53.991 205.571,53.826 206.167 C 53.661 206.762,53.360 207.850,53.156 208.583 C 52.953 209.317,52.642 210.442,52.464 211.083 C 52.286 211.725,52.000 212.737,51.827 213.333 C 51.189 215.537,50.852 216.761,50.772 217.167 C 50.727 217.396,50.580 217.921,50.447 218.333 C 50.313 218.746,50.097 219.458,49.968 219.917 L 49.734 220.750 42.283 220.793 C 38.186 220.817,34.833 220.794,34.833 220.741 C 34.833 220.688,34.972 220.294,35.141 219.864 C 35.310 219.435,35.619 218.521,35.827 217.833 C 36.242 216.461,36.468 215.759,36.658 215.250 C 36.727 215.067,36.953 214.354,37.162 213.667 C 37.661 212.019,38.028 210.849,38.835 208.333 C 39.203 207.188,39.663 205.725,39.858 205.083 C 40.053 204.442,40.353 203.550,40.523 203.103 C 40.694 202.655,40.833 202.145,40.833 201.970 C 40.833 201.794,40.983 201.340,41.167 200.961 C 41.350 200.581,41.500 200.094,41.500 199.879 C 41.500 199.663,41.650 199.193,41.833 198.833 C 42.017 198.474,42.167 198.047,42.167 197.885 C 42.167 197.723,42.308 197.213,42.481 196.753 C 42.654 196.293,42.962 195.354,43.167 194.667 C 43.371 193.979,43.674 193.042,43.840 192.583 C 44.006 192.125,44.195 191.488,44.260 191.167 C 44.325 190.847,44.472 190.359,44.587 190.084 C 44.788 189.603,45.015 188.895,45.842 186.167 C 46.051 185.479,46.352 184.542,46.513 184.083 C 46.673 183.625,47.047 182.463,47.344 181.500 C 47.641 180.537,47.950 179.619,48.031 179.458 C 48.168 179.187,48.725 179.167,56.152 179.167 L 64.125 179.167 64.229 179.688 M117.238 193.125 C 117.182 193.377,117.000 193.883,116.833 194.250 C 116.543 194.889,116.177 195.780,115.465 197.583 C 115.284 198.042,114.993 198.717,114.818 199.083 C 114.642 199.450,114.499 199.817,114.500 199.898 C 114.500 200.042,114.148 200.856,113.484 202.250 C 113.309 202.617,113.164 202.992,113.161 203.083 C 113.158 203.175,112.972 203.625,112.746 204.083 C 112.023 205.554,111.929 205.500,115.192 205.500 L 118.050 205.500 117.943 203.375 C 117.884 202.206,117.786 199.319,117.725 196.958 C 117.622 192.984,117.494 191.972,117.238 193.125 M116.669 200.708 C 116.670 202.015,116.717 203.365,116.774 203.708 L 116.877 204.333 115.522 204.333 C 113.931 204.333,113.865 204.217,114.566 202.645 C 115.032 201.599,116.086 199.047,116.226 198.625 C 116.512 197.764,116.667 198.495,116.669 200.708 M202.849 199.208 C 202.770 199.415,202.389 200.596,202.003 201.833 C 201.617 203.071,201.233 204.256,201.151 204.466 C 200.811 205.329,200.790 205.322,203.905 205.371 L 206.809 205.417 206.382 206.750 C 205.949 208.104,205.619 209.082,205.089 210.583 C 204.927 211.042,204.739 211.679,204.670 212.000 C 204.602 212.321,204.432 212.883,204.293 213.250 C 204.154 213.617,203.869 214.479,203.661 215.167 C 203.452 215.854,203.173 216.717,203.040 217.083 C 202.907 217.450,202.704 218.088,202.589 218.500 C 202.474 218.912,202.324 219.381,202.256 219.542 C 202.138 219.816,202.443 219.833,207.357 219.831 L 212.583 219.829 212.883 218.956 C 213.048 218.476,213.246 217.821,213.322 217.500 C 213.467 216.895,213.824 215.838,214.357 214.436 C 214.527 213.988,214.667 213.460,214.667 213.261 C 214.667 213.062,214.738 212.829,214.825 212.742 C 214.912 212.655,215.093 212.171,215.227 211.667 C 215.362 211.162,215.602 210.375,215.761 209.917 C 216.125 208.866,216.520 207.697,216.943 206.417 L 217.274 205.417 220.208 205.371 L 223.142 205.326 223.250 204.788 C 223.310 204.492,223.496 203.875,223.663 203.417 C 224.014 202.458,224.781 199.968,224.933 199.292 L 225.036 198.833 214.014 198.833 L 202.993 198.833 202.849 199.208 M227.858 199.325 C 227.734 199.612,227.535 200.199,227.414 200.631 C 227.169 201.510,226.941 202.189,226.480 203.420 C 226.308 203.880,226.167 204.376,226.167 204.523 C 226.167 204.669,226.025 205.155,225.852 205.603 C 225.678 206.050,225.367 206.979,225.160 207.667 C 224.952 208.354,224.653 209.292,224.494 209.750 C 224.335 210.208,224.035 211.146,223.827 211.833 C 223.619 212.521,223.322 213.458,223.166 213.917 C 223.010 214.375,222.710 215.313,222.500 216.000 C 222.290 216.688,221.989 217.588,221.831 218.000 C 221.673 218.412,221.498 218.994,221.443 219.292 L 221.342 219.833 226.382 219.833 L 231.422 219.833 231.781 218.875 C 231.978 218.348,232.495 216.792,232.930 215.417 C 233.802 212.660,233.936 212.391,234.079 213.101 C 234.132 213.366,234.258 213.808,234.357 214.083 C 234.457 214.358,234.624 214.883,234.729 215.250 C 234.833 215.617,234.973 216.001,235.039 216.103 C 235.105 216.206,235.273 216.694,235.411 217.187 C 235.549 217.680,235.794 218.476,235.956 218.956 L 236.250 219.829 241.542 219.831 C 244.452 219.832,246.833 219.800,246.833 219.760 C 246.833 219.719,246.533 219.049,246.167 218.270 C 245.800 217.491,245.500 216.793,245.500 216.719 C 245.501 216.644,245.356 216.283,245.178 215.917 C 245.000 215.550,244.657 214.800,244.416 214.250 C 244.174 213.700,243.870 213.051,243.738 212.808 C 243.436 212.247,243.433 211.833,243.731 211.833 C 247.959 211.833,251.999 206.452,250.370 202.991 C 248.868 199.797,245.918 199.013,234.917 198.884 L 228.083 198.804 227.858 199.325 M262.922 199.962 C 262.467 200.579,261.979 201.205,261.839 201.355 C 261.698 201.504,261.433 201.836,261.250 202.093 C 261.067 202.350,260.462 203.128,259.907 203.822 C 259.351 204.516,258.570 205.533,258.172 206.083 C 257.773 206.633,257.328 207.205,257.182 207.355 C 257.036 207.504,256.767 207.836,256.583 208.093 C 256.400 208.350,255.931 208.955,255.542 209.436 C 255.152 209.917,254.833 210.344,254.833 210.384 C 254.833 210.425,254.646 210.674,254.418 210.937 C 254.190 211.201,253.289 212.354,252.416 213.500 C 251.544 214.646,250.680 215.758,250.498 215.972 C 250.316 216.187,250.167 216.414,250.167 216.477 C 250.167 216.541,250.035 216.711,249.875 216.856 C 249.715 217.000,249.433 217.329,249.250 217.586 C 248.875 218.113,248.091 219.146,247.835 219.451 C 247.743 219.562,247.667 219.693,247.667 219.743 C 247.667 219.793,250.133 219.833,253.147 219.833 L 258.628 219.833 258.929 219.375 C 259.094 219.123,259.313 218.767,259.415 218.583 C 259.518 218.400,259.773 217.969,259.984 217.625 L 260.366 217.000 263.683 217.000 L 267.000 217.000 267.000 218.417 L 267.000 219.833 272.000 219.833 L 277.000 219.833 277.000 219.292 C 277.000 218.994,276.850 217.588,276.667 216.167 C 276.484 214.746,276.335 213.283,276.336 212.917 C 276.338 212.550,276.187 210.862,276.002 209.167 C 275.313 202.859,274.977 199.902,274.888 199.375 L 274.796 198.833 269.273 198.837 L 263.750 198.842 262.922 199.962 M285.103 199.042 C 285.074 199.156,284.916 199.625,284.753 200.083 C 284.590 200.542,284.419 201.142,284.374 201.417 C 284.328 201.692,284.229 201.996,284.152 202.093 C 284.075 202.190,283.901 202.677,283.764 203.176 C 283.627 203.675,283.403 204.383,283.265 204.750 C 283.127 205.117,283.011 205.518,283.007 205.641 C 283.003 205.765,282.897 206.103,282.771 206.391 C 282.644 206.680,282.337 207.592,282.088 208.417 C 281.839 209.242,281.503 210.292,281.341 210.750 C 281.178 211.208,280.840 212.258,280.589 213.083 C 280.338 213.908,280.039 214.846,279.925 215.167 C 279.351 216.780,279.130 217.468,279.015 218.000 C 278.946 218.321,278.764 218.823,278.611 219.117 C 278.458 219.410,278.333 219.691,278.333 219.742 C 278.333 219.792,280.733 219.833,283.667 219.833 C 288.773 219.833,289.000 219.820,289.000 219.520 C 289.000 219.348,289.124 218.917,289.275 218.562 C 289.426 218.207,289.608 217.654,289.679 217.333 C 289.750 217.012,289.938 216.375,290.097 215.917 C 290.803 213.886,290.984 213.343,291.341 212.167 C 291.550 211.479,291.851 210.542,292.010 210.083 C 292.169 209.625,292.614 208.237,293.000 207.000 C 293.386 205.762,293.836 204.375,293.999 203.917 C 294.163 203.458,294.391 202.725,294.505 202.287 C 294.619 201.850,294.777 201.451,294.856 201.403 C 294.935 201.354,295.000 201.140,295.000 200.927 C 295.000 200.715,295.112 200.271,295.250 199.942 C 295.743 198.761,296.063 198.833,290.328 198.833 C 286.330 198.833,285.144 198.881,285.103 199.042 M300.643 199.208 C 300.532 199.415,300.386 199.846,300.317 200.167 C 300.249 200.487,300.061 201.125,299.901 201.583 C 299.740 202.042,299.478 202.792,299.317 203.250 C 299.157 203.708,298.713 205.096,298.330 206.333 C 297.947 207.571,297.492 208.960,297.317 209.420 C 297.143 209.880,297.000 210.389,297.000 210.552 C 297.000 210.714,296.850 211.141,296.667 211.500 C 296.483 211.859,296.333 212.311,296.333 212.504 C 296.333 212.697,296.195 213.206,296.026 213.636 C 295.856 214.065,295.548 214.979,295.339 215.667 C 295.131 216.354,294.831 217.292,294.672 217.750 C 294.119 219.347,294.037 219.648,294.129 219.740 C 294.180 219.791,298.430 219.833,303.572 219.833 L 312.922 219.833 313.274 218.875 C 313.836 217.342,315.000 213.734,315.000 213.525 C 315.000 213.386,313.859 213.333,310.833 213.333 C 307.367 213.333,306.667 213.294,306.667 213.099 C 306.667 212.971,306.861 212.314,307.098 211.641 C 307.335 210.968,307.588 210.154,307.661 209.833 C 307.734 209.512,307.915 208.971,308.063 208.630 C 308.212 208.290,308.336 207.877,308.339 207.714 C 308.342 207.550,308.490 207.117,308.667 206.750 C 308.844 206.383,308.990 206.008,308.991 205.917 C 308.994 205.681,310.493 201.024,310.770 200.391 C 310.897 200.103,311.000 199.634,311.000 199.350 L 311.000 198.833 305.923 198.833 L 300.845 198.833 300.643 199.208 M322.045 199.292 C 321.956 199.544,321.750 200.125,321.589 200.583 C 321.427 201.042,321.241 201.683,321.176 202.009 C 321.110 202.336,320.931 202.853,320.778 203.160 C 320.625 203.467,320.500 203.880,320.500 204.078 C 320.500 204.276,320.350 204.748,320.167 205.127 C 319.983 205.507,319.833 205.951,319.833 206.114 C 319.833 206.277,319.691 206.787,319.517 207.247 C 319.344 207.707,318.884 209.096,318.496 210.333 C 318.108 211.571,317.695 212.846,317.577 213.167 C 317.459 213.487,317.125 214.537,316.833 215.500 C 316.542 216.463,316.203 217.512,316.080 217.833 C 315.958 218.154,315.815 218.616,315.763 218.860 C 315.711 219.103,315.622 219.422,315.566 219.568 C 315.474 219.809,316.390 219.833,325.524 219.833 L 335.583 219.832 336.060 218.291 C 336.323 217.444,336.673 216.375,336.838 215.917 C 337.004 215.458,337.184 214.877,337.239 214.625 L 337.340 214.167 332.444 214.167 L 327.549 214.167 327.759 213.375 C 328.161 211.859,327.672 212.000,332.518 212.000 C 336.678 212.000,336.833 211.988,336.833 211.677 C 336.833 211.499,336.908 211.307,337.000 211.250 C 337.092 211.193,337.167 210.974,337.167 210.762 C 337.167 210.551,337.305 210.012,337.473 209.564 C 337.642 209.116,337.937 208.281,338.129 207.708 L 338.477 206.667 334.167 206.667 L 329.856 206.667 330.219 205.669 L 330.583 204.672 335.166 204.628 L 339.750 204.583 339.800 204.167 C 339.827 203.938,339.986 203.375,340.153 202.917 C 340.621 201.631,341.136 199.974,341.253 199.375 L 341.360 198.833 331.783 198.833 L 322.207 198.833 322.045 199.292 M346.082 199.395 C 345.945 199.722,345.833 200.078,345.833 200.186 C 345.833 200.366,344.866 203.417,344.175 205.417 C 343.908 206.189,342.924 209.275,342.128 211.833 C 341.943 212.429,341.651 213.283,341.479 213.731 C 341.307 214.178,341.167 214.670,341.167 214.824 C 341.167 214.978,341.017 215.415,340.833 215.794 C 340.650 216.173,340.500 216.661,340.500 216.877 C 340.500 217.094,340.360 217.566,340.190 217.927 C 340.019 218.288,339.836 218.865,339.783 219.208 L 339.688 219.833 344.728 219.833 L 349.768 219.833 350.485 217.625 C 350.879 216.410,351.338 215.042,351.505 214.583 C 351.672 214.125,351.857 213.506,351.917 213.208 C 352.060 212.502,352.269 212.519,352.405 213.248 C 352.465 213.567,352.659 214.149,352.837 214.539 C 353.014 214.930,353.161 215.389,353.163 215.558 C 353.165 215.728,353.270 216.103,353.396 216.391 C 353.522 216.680,353.836 217.573,354.092 218.375 L 354.559 219.833 359.877 219.833 C 364.072 219.833,365.174 219.789,365.097 219.625 C 365.044 219.510,364.954 219.285,364.897 219.125 C 364.841 218.965,364.728 218.833,364.647 218.833 C 364.566 218.833,364.500 218.710,364.500 218.560 C 364.500 218.410,364.342 217.941,364.149 217.518 C 363.955 217.096,363.699 216.525,363.579 216.250 C 363.459 215.975,363.017 214.968,362.597 214.013 C 361.641 211.839,361.622 211.970,362.958 211.608 C 366.789 210.569,369.000 208.092,369.000 204.839 C 369.000 203.423,368.037 201.333,367.385 201.333 C 367.265 201.333,367.167 201.260,367.167 201.170 C 367.167 200.951,365.998 200.346,364.667 199.876 C 362.596 199.144,360.595 198.970,353.207 198.882 L 346.330 198.800 346.082 199.395 M239.314 204.512 C 240.272 204.801,240.606 205.472,240.275 206.444 C 239.946 207.409,238.867 207.928,236.884 208.076 L 235.350 208.190 235.448 207.554 C 235.502 207.203,235.597 206.842,235.660 206.750 C 235.722 206.658,235.870 206.246,235.989 205.833 C 236.505 204.044,236.435 204.116,237.570 204.209 C 238.128 204.254,238.912 204.391,239.314 204.512 M357.641 204.510 C 358.468 204.760,358.749 205.238,358.603 206.149 C 358.415 207.333,357.351 207.908,355.020 208.086 L 353.624 208.193 353.730 207.722 C 353.855 207.165,354.482 205.088,354.697 204.519 C 354.867 204.068,356.164 204.064,357.641 204.510 M267.000 209.250 L 267.000 212.000 265.333 212.000 C 263.689 212.000,263.426 211.907,263.917 211.500 C 264.054 211.386,264.167 211.230,264.167 211.155 C 264.167 211.024,265.129 209.511,265.325 209.333 C 265.495 209.179,266.014 208.254,266.191 207.792 C 266.287 207.540,266.425 207.333,266.498 207.333 C 266.571 207.333,266.678 207.146,266.735 206.917 C 266.946 206.078,267.000 206.557,267.000 209.250 " stroke="none" fill="#1c1c1c" fill-rule="evenodd"></path></g></svg>