<svg id="svg" xmlns="http://www.w3.org/2000/svg"  width="400" height="400" viewBox="0, 0, 400,400" version="1.1"><g id="svgg"><path id="path0" d="M18.538 170.547 C 18.307 171.299,17.521 173.836,16.792 176.184 C 16.063 178.532,15.291 181.024,15.077 181.721 C 14.863 182.418,14.148 184.730,13.488 186.858 C 12.829 188.986,11.594 192.979,10.746 195.730 C 9.897 198.482,9.059 201.184,8.882 201.734 C 8.706 202.285,8.378 203.336,8.154 204.069 C 7.930 204.803,6.238 210.267,4.394 216.211 C 0.550 228.603,0.000 230.411,0.000 230.649 C 0.000 230.789,35.076 230.820,190.494 230.820 L 380.987 230.819 382.172 226.984 C 383.331 223.234,386.751 212.189,387.656 209.273 C 388.404 206.864,390.487 200.141,391.459 196.998 C 391.958 195.384,393.008 191.991,393.792 189.460 C 394.576 186.928,395.449 184.106,395.733 183.189 C 396.017 182.272,397.071 178.879,398.077 175.650 C 399.082 172.422,399.933 169.645,399.968 169.480 L 400.031 169.179 209.494 169.179 L 18.957 169.179 18.538 170.547 M397.732 170.918 C 397.732 170.994,397.458 171.940,397.124 173.020 C 396.789 174.100,396.303 175.674,396.044 176.518 C 395.785 177.362,395.002 179.883,394.305 182.121 C 393.607 184.360,392.797 186.971,392.505 187.925 C 392.213 188.879,391.823 190.140,391.639 190.727 C 391.455 191.314,391.226 192.065,391.132 192.395 C 391.038 192.725,390.836 193.386,390.683 193.863 C 390.529 194.340,389.466 197.762,388.319 201.468 C 387.172 205.173,385.786 209.646,385.238 211.408 C 384.691 213.169,384.068 215.180,383.855 215.877 C 383.262 217.814,380.978 225.180,380.307 227.318 L 379.710 229.219 190.908 229.219 C 29.863 229.219,2.117 229.192,2.177 229.034 C 2.216 228.932,2.558 227.837,2.937 226.599 C 3.316 225.362,3.824 223.719,4.067 222.949 C 4.309 222.178,4.692 220.947,4.917 220.213 C 5.599 217.991,11.431 199.196,12.369 196.197 C 12.851 194.656,13.334 193.095,13.441 192.728 C 13.548 192.362,14.075 190.650,14.611 188.926 C 16.923 181.496,19.105 174.446,19.639 172.684 L 20.213 170.785 208.973 170.783 C 338.737 170.781,397.732 170.824,397.732 170.918 M34.893 179.286 C 34.320 181.102,33.745 182.919,33.616 183.322 C 32.566 186.600,31.124 191.133,28.905 198.132 C 27.474 202.645,25.720 208.169,25.006 210.407 C 24.292 212.645,23.571 214.927,23.403 215.477 C 23.147 216.320,20.919 223.336,20.745 223.849 C 20.700 223.983,37.056 224.010,102.431 223.983 L 184.174 223.949 184.398 223.215 C 184.521 222.812,185.174 220.740,185.850 218.612 C 186.525 216.484,187.248 214.203,187.456 213.542 C 188.250 211.023,190.414 204.207,191.374 201.201 C 192.265 198.410,193.677 193.963,198.055 180.162 C 198.758 177.946,199.333 176.100,199.333 176.059 C 199.333 176.018,162.568 175.984,117.634 175.984 L 35.935 175.984 34.893 179.286 M64.231 179.686 C 64.429 181.254,66.044 200.456,66.044 201.243 C 66.044 201.993,66.146 201.829,67.481 198.933 C 68.073 197.648,69.109 195.427,69.782 193.996 C 70.456 192.565,71.324 190.704,71.712 189.860 C 72.099 189.016,72.702 187.725,73.051 186.991 C 73.399 186.258,74.116 184.726,74.644 183.589 C 75.172 182.452,75.864 180.966,76.182 180.287 L 76.761 179.053 84.868 179.053 L 92.975 179.053 92.910 180.020 C 92.754 182.329,91.145 215.272,91.185 215.312 C 91.232 215.359,91.307 215.226,95.325 207.939 C 96.700 205.444,98.112 202.892,98.462 202.268 C 98.812 201.644,99.777 199.903,100.606 198.399 C 101.435 196.895,102.993 194.073,104.069 192.128 C 105.145 190.183,107.213 186.446,108.664 183.823 L 111.301 179.053 120.071 179.053 L 128.841 179.053 129.411 183.155 C 129.724 185.412,130.244 189.149,130.567 191.461 C 130.890 193.773,131.244 196.384,131.354 197.265 C 131.464 198.145,131.614 199.226,131.687 199.666 C 131.760 200.107,132.033 202.028,132.293 203.936 C 133.603 213.526,133.580 213.384,133.806 213.133 C 133.867 213.065,134.659 212.168,135.566 211.141 C 136.472 210.113,137.246 209.243,137.286 209.206 C 137.326 209.169,137.594 208.869,137.882 208.539 C 138.500 207.830,140.174 205.955,141.036 205.006 C 143.344 202.464,146.631 198.656,146.631 198.523 C 146.631 198.435,145.403 196.067,143.903 193.261 C 142.402 190.454,140.893 187.625,140.549 186.974 C 140.205 186.323,139.549 185.100,139.090 184.256 C 137.670 181.642,136.358 179.170,136.358 179.110 C 136.358 179.079,140.398 179.053,145.335 179.053 L 154.313 179.053 155.875 182.707 C 156.734 184.717,157.565 186.699,157.723 187.110 C 158.095 188.082,158.055 188.102,159.211 186.358 C 160.266 184.766,162.074 182.152,163.456 180.220 L 164.292 179.053 174.095 179.053 C 183.418 179.053,183.887 179.064,183.697 179.286 C 183.133 179.943,180.430 183.050,180.069 183.456 C 179.840 183.712,179.317 184.313,178.906 184.790 C 178.496 185.267,176.845 187.163,175.237 189.004 C 173.630 190.844,171.204 193.630,169.847 195.194 C 168.489 196.757,167.318 198.103,167.244 198.185 C 167.171 198.266,166.733 198.773,166.273 199.312 L 165.435 200.292 166.026 201.380 C 166.351 201.979,167.215 203.609,167.947 205.003 C 170.158 209.218,171.996 212.704,172.380 213.409 C 173.316 215.130,176.251 220.778,176.251 220.859 C 176.251 220.908,172.214 220.934,167.280 220.915 L 158.310 220.881 157.755 219.546 C 156.329 216.115,154.922 212.681,154.697 212.085 L 154.449 211.429 154.176 211.801 C 153.092 213.278,148.834 218.952,148.139 219.847 L 147.284 220.947 133.094 220.947 L 118.904 220.947 118.830 220.314 C 118.788 219.965,118.716 218.704,118.668 217.512 L 118.582 215.344 113.224 215.344 L 107.866 215.344 106.747 217.912 C 106.132 219.325,105.601 220.585,105.567 220.714 C 105.509 220.934,104.692 220.947,90.774 220.947 L 76.042 220.947 76.117 220.314 C 76.267 219.043,77.918 199.655,77.909 199.266 C 77.899 198.847,77.572 199.477,75.586 203.736 C 75.125 204.726,74.432 206.197,74.047 207.005 C 72.862 209.488,70.709 214.016,70.146 215.210 C 69.851 215.834,69.113 217.380,68.504 218.646 L 67.398 220.947 62.854 220.947 L 58.311 220.947 58.246 220.647 C 58.210 220.482,57.910 217.915,57.578 214.943 C 55.849 199.433,55.814 199.144,55.701 199.533 C 55.679 199.606,55.479 200.357,55.255 201.201 C 54.251 204.988,52.079 212.817,50.573 218.079 C 50.363 218.813,50.094 219.758,49.975 220.180 L 49.759 220.947 42.291 220.947 C 36.814 220.947,34.823 220.907,34.823 220.796 C 34.823 220.660,36.076 216.643,36.690 214.810 C 36.825 214.406,37.208 213.205,37.542 212.141 C 37.875 211.077,38.844 208.015,39.694 205.337 C 40.545 202.658,41.379 200.017,41.548 199.466 C 41.970 198.090,47.757 179.836,47.967 179.219 C 48.011 179.089,49.756 179.053,56.087 179.053 L 64.151 179.053 64.231 179.686 M117.391 193.062 C 117.277 193.319,116.716 194.670,116.145 196.064 C 115.573 197.458,114.484 200.095,113.724 201.924 C 112.963 203.753,112.342 205.299,112.342 205.360 C 112.342 205.420,113.607 205.470,115.155 205.470 L 117.967 205.470 117.874 202.635 C 117.822 201.076,117.739 198.179,117.689 196.197 C 117.603 192.788,117.587 192.620,117.391 193.062 M202.946 199.237 C 202.684 199.928,201.067 205.041,201.067 205.180 C 201.067 205.288,201.916 205.342,203.975 205.368 L 206.882 205.404 204.907 211.541 C 203.821 214.917,202.788 218.144,202.611 218.712 L 202.290 219.746 207.400 219.746 L 212.511 219.746 212.916 218.512 C 213.139 217.834,213.991 215.207,214.809 212.675 C 215.627 210.143,216.494 207.472,216.735 206.738 L 217.173 205.404 220.084 205.337 L 222.994 205.270 223.900 202.468 C 224.399 200.927,224.844 199.501,224.889 199.300 L 224.971 198.933 214.017 198.933 L 203.062 198.933 202.946 199.237 M227.186 201.620 C 226.702 203.114,225.786 205.957,225.150 207.939 C 224.024 211.447,221.715 218.643,221.479 219.380 L 221.361 219.746 226.398 219.746 L 231.434 219.746 232.621 216.077 C 233.274 214.058,233.846 212.452,233.893 212.508 C 233.939 212.563,234.502 214.214,235.143 216.177 L 236.309 219.746 241.502 219.746 L 246.694 219.746 246.437 219.113 C 246.296 218.764,245.901 217.849,245.559 217.078 C 243.022 211.357,243.151 211.803,243.996 211.678 C 249.494 210.867,252.624 204.975,249.314 201.665 C 247.185 199.536,244.670 199.064,234.947 198.970 L 228.066 198.904 227.186 201.620 M263.756 199.099 C 263.644 199.191,262.321 200.857,260.818 202.802 C 257.275 207.384,252.228 213.901,251.111 215.337 C 250.628 215.957,249.682 217.188,249.008 218.072 L 247.783 219.680 253.078 219.715 C 259.309 219.756,258.480 219.940,259.499 218.290 L 260.331 216.945 263.654 216.945 L 266.978 216.945 266.978 218.346 L 266.978 219.746 271.955 219.746 L 276.931 219.746 276.888 219.313 C 276.353 213.913,275.075 201.241,274.980 200.400 C 274.910 199.777,274.852 199.191,274.851 199.099 C 274.850 198.969,273.671 198.933,269.405 198.933 C 265.247 198.933,263.912 198.972,263.756 199.099 M285.217 199.033 C 285.186 199.088,284.978 199.703,284.754 200.400 C 284.531 201.097,284.069 202.538,283.728 203.602 C 283.388 204.666,282.786 206.528,282.391 207.738 C 281.996 208.949,281.124 211.651,280.452 213.742 C 279.780 215.834,279.065 218.040,278.863 218.646 L 278.496 219.746 283.650 219.746 L 288.804 219.746 289.175 218.579 C 289.378 217.937,289.896 216.331,290.325 215.010 C 291.131 212.527,291.665 210.869,293.525 205.070 C 294.126 203.199,294.793 201.132,295.007 200.477 C 295.221 199.822,295.397 199.207,295.397 199.110 C 295.397 198.913,285.326 198.837,285.217 199.033 M300.805 199.060 C 300.726 199.186,299.762 202.141,297.927 207.872 C 297.399 209.523,296.827 211.294,296.656 211.808 C 295.844 214.253,294.196 219.471,294.196 219.601 C 294.196 219.705,296.883 219.746,303.575 219.746 L 312.953 219.746 313.932 216.711 C 314.471 215.042,314.940 213.601,314.975 213.509 C 315.025 213.378,314.127 213.342,310.755 213.342 C 308.399 213.342,306.471 213.321,306.471 213.295 C 306.471 213.269,306.705 212.534,306.992 211.661 C 307.278 210.788,308.092 208.272,308.801 206.071 C 309.510 203.869,310.296 201.438,310.548 200.667 C 310.801 199.896,311.007 199.191,311.007 199.099 C 311.007 198.892,300.932 198.853,300.805 199.060 M321.340 201.701 C 320.850 203.224,320.310 204.890,320.139 205.404 C 319.719 206.669,317.777 212.732,316.614 216.411 C 316.092 218.062,315.639 219.488,315.608 219.580 C 315.564 219.712,317.606 219.746,325.528 219.746 L 335.503 219.746 336.353 217.111 C 336.820 215.662,337.229 214.401,337.261 214.310 C 337.308 214.178,336.269 214.143,332.355 214.143 C 328.438 214.143,327.403 214.108,327.453 213.976 C 327.488 213.884,327.656 213.374,327.827 212.842 L 328.138 211.875 332.419 211.875 L 336.700 211.875 336.867 211.306 C 336.960 210.993,337.323 209.838,337.675 208.738 L 338.314 206.738 334.053 206.703 C 330.643 206.674,329.806 206.633,329.859 206.495 C 329.895 206.401,330.029 205.951,330.157 205.497 L 330.389 204.670 334.969 204.670 L 339.549 204.670 339.687 204.169 C 339.763 203.894,340.152 202.653,340.552 201.410 C 340.953 200.168,341.250 199.102,341.213 199.042 C 341.175 198.982,336.889 198.933,331.687 198.933 L 322.230 198.933 321.340 201.701 M346.301 199.099 C 346.271 199.191,345.668 201.067,344.961 203.269 C 344.254 205.470,343.383 208.172,343.027 209.273 C 342.670 210.374,341.948 212.625,341.423 214.276 C 340.897 215.927,340.331 217.668,340.166 218.145 C 340.000 218.622,339.825 219.179,339.776 219.381 L 339.687 219.750 344.722 219.715 L 349.756 219.680 350.918 216.099 C 351.557 214.130,352.109 212.489,352.145 212.453 C 352.181 212.418,352.734 213.999,353.374 215.967 C 354.014 217.936,354.579 219.592,354.629 219.648 C 354.679 219.704,357.035 219.734,359.864 219.715 L 365.008 219.680 364.706 219.013 C 364.540 218.646,364.030 217.475,363.573 216.411 C 363.116 215.347,362.635 214.236,362.504 213.943 C 361.634 211.989,361.588 211.861,361.746 211.817 C 361.835 211.792,362.409 211.644,363.022 211.488 C 366.694 210.556,368.913 208.062,368.913 204.865 C 368.913 201.437,365.872 199.538,359.640 199.073 C 356.851 198.865,346.371 198.886,346.301 199.099 M239.495 204.494 C 240.280 204.842,240.471 205.097,240.471 205.794 C 240.471 207.343,238.726 208.272,235.814 208.272 C 235.081 208.272,235.081 208.368,235.835 206.012 L 236.447 204.101 237.672 204.165 C 238.486 204.208,239.096 204.318,239.495 204.494 M357.882 204.512 C 359.121 205.061,359.078 206.775,357.806 207.534 C 356.848 208.106,353.569 208.521,353.569 208.070 C 353.569 207.852,354.601 204.453,354.739 204.218 C 354.864 204.004,357.236 204.226,357.882 204.512 M267.084 208.936 C 267.017 210.585,266.945 211.952,266.922 211.975 C 266.899 211.998,266.123 211.999,265.197 211.979 L 263.514 211.941 264.720 210.073 C 265.383 209.046,266.203 207.681,266.542 207.039 C 266.881 206.397,267.168 205.887,267.181 205.905 C 267.194 205.923,267.150 207.287,267.084 208.936 " stroke="none" fill-rule="evenodd"></path></g></svg>