<?xml version="1.0" encoding="UTF-8" standalone="no"?>
<svg
   xmlns="http://www.w3.org/2000/svg"
   version="1.1"
   viewBox="0, 0, 400,400"
   height="400"
   width="400"
   id="svg">
  <g
     id="svgg">
    <path
       style="fill-rule:evenodd;stroke:none;stroke-width:2.21735859"
       d="m 33.374464,154.09578 c -1.270547,4.02672 -2.545528,8.05566 -2.831567,8.94925 -2.328227,7.2685 -5.525659,17.31979 -10.445977,32.83908 -3.17304,10.00695 -7.062288,22.25564 -8.645482,27.21808 -1.5831933,4.96246 -3.1819095,10.02246 -3.5544257,11.24201 -0.5676439,1.86924 -5.507919,17.42623 -5.8937392,18.56373 -0.099781,0.29713 36.1673379,0.357 181.1271669,0.29713 l 181.25354,-0.0754 0.49669,-1.62754 c 0.27274,-0.89359 1.72067,-5.48796 3.21961,-10.2065 1.49672,-4.71853 3.09986,-9.77634 3.56108,-11.24201 1.76058,-5.58552 6.55894,-20.69904 8.6876,-27.36442 1.97567,-6.18865 5.10658,-16.04924 14.81418,-46.65101 1.5588,-4.91366 2.83379,-9.00691 2.83379,-9.09783 0,-0.0909 -81.5212,-0.16629 -181.156,-0.16629 H 35.684951 l -2.310487,7.32172 m 65.052869,0.88694 c 0.439038,3.47681 4.020077,46.05454 4.020077,47.7996 0,1.66302 0.22617,1.29937 3.18634,-5.1221 1.31268,-2.8493 3.60986,-7.77406 5.10214,-10.9471 1.4945,-3.17304 3.41917,-7.29954 4.2795,-9.17099 0.85812,-1.87145 2.19519,-4.73406 2.96904,-6.3616 0.77165,-1.62533 2.36149,-5.02233 3.53225,-7.54346 1.17077,-2.52114 2.70518,-5.81613 3.41031,-7.32172 l 1.28385,-2.73622 h 17.97612 17.97613 l -0.14413,2.14418 c -0.3459,5.11989 -3.91364,78.16633 -3.82494,78.25503 0.10421,0.10421 0.27051,-0.1907 9.17986,-16.34859 3.04887,-5.53231 6.17978,-11.191 6.95586,-12.57464 0.77607,-1.38363 2.91582,-5.24405 4.75402,-8.57896 1.83819,-3.33491 5.29283,-9.59229 7.67871,-13.90506 2.38588,-4.31276 6.97137,-12.59903 10.18876,-18.41516 l 5.84717,-10.5768 h 19.44624 19.44623 l 1.2639,9.09561 c 0.69403,5.00457 1.84706,13.29084 2.56327,18.41738 0.7162,5.12652 1.50115,10.91605 1.74506,12.86954 0.24391,1.95128 0.57651,4.34825 0.73838,5.32389 0.16187,0.97785 0.7672,5.23739 1.34372,9.46811 2.90474,21.26448 2.85374,20.94961 3.35486,20.39305 0.13526,-0.15078 1.89141,-2.13975 3.90255,-4.41698 2.00893,-2.27944 3.72516,-4.20854 3.81386,-4.29058 0.0887,-0.0821 0.68295,-0.74726 1.32155,-1.47898 1.37032,-1.57211 5.08218,-5.72966 6.99355,-7.83393 5.11766,-5.63653 12.40611,-14.08022 12.40611,-14.37513 0,-0.19514 -2.72291,-5.44584 -6.04895,-11.66775 -3.32825,-6.22413 -6.67425,-12.49703 -7.43702,-13.94053 -0.76277,-1.4435 -2.21736,-4.15534 -3.23512,-6.02678 -3.14866,-5.79618 -6.05783,-11.27749 -6.05783,-11.41053 0,-0.0687 8.95813,-0.12639 19.90523,-0.12639 h 19.90744 l 3.46352,8.10223 c 1.90471,4.45689 3.74734,8.85169 4.09768,9.76303 0.82485,2.15527 0.73617,2.19962 3.29943,-1.66745 2.33931,-3.53004 6.34829,-9.32622 9.41269,-13.61015 l 1.85371,-2.58766 h 21.73677 c 20.67243,0 21.71237,0.0244 21.29107,0.51665 -1.25059,1.4568 -7.24411,8.34613 -8.04457,9.24638 -0.50778,0.56764 -1.66746,1.90028 -2.57879,2.95796 -0.90912,1.05768 -4.56998,5.26179 -8.13549,9.34394 -3.56329,4.07994 -8.94261,10.2575 -11.95157,13.72545 -3.01117,3.46574 -5.6077,6.4503 -5.77178,6.63213 -0.16187,0.17961 -1.13307,1.3038 -2.15306,2.49896 l -1.85814,2.17301 1.31046,2.41249 c 0.72064,1.3282 2.63644,4.94249 4.25954,8.03349 4.90258,9.34616 8.97809,17.07588 9.82955,18.63911 2.07545,3.81607 8.5834,16.33972 8.5834,16.51933 0,0.10865 -8.95148,0.1663 -19.89192,0.12417 l -19.88971,-0.0754 -1.23064,-2.96017 c -3.16195,-7.60777 -6.28177,-15.22217 -6.78068,-16.54372 l -0.5499,-1.45459 -0.60535,0.82486 c -2.40361,3.27504 -11.84512,15.85633 -13.38618,17.84086 l -1.89585,2.4391 H 251.1213 219.65698 l -0.16408,-1.40359 c -0.0932,-0.77385 -0.25278,-3.56995 -0.35921,-6.21303 l -0.1907,-4.80724 h -11.88061 -11.8806 l -2.48123,5.69418 c -1.36367,3.13313 -2.54109,5.927 -2.61648,6.21304 -0.12861,0.48781 -1.94019,0.51664 -32.80139,0.51664 h -32.66613 l 0.1663,-1.40359 c 0.33261,-2.81826 3.99347,-45.80841 3.97352,-46.67097 -0.0222,-0.92907 -0.74726,0.46787 -5.15093,9.91161 -1.0222,2.19517 -2.55883,5.45691 -3.41252,7.24854 -2.62757,5.5057 -7.40154,15.5459 -8.64991,18.19343 -0.65412,1.38363 -2.29053,4.81167 -3.6409,7.61884 l -2.4524,5.10214 H 95.374031 85.30057 l -0.144129,-0.6652 c -0.07983,-0.36587 -0.745032,-6.05783 -1.481194,-12.64782 -3.833814,-34.39123 -3.911421,-35.03205 -4.161983,-34.16949 -0.04878,0.16186 -0.492253,1.8271 -0.988942,3.69855 -2.226228,8.39713 -7.042331,25.75683 -10.381673,37.42458 -0.465646,1.62754 -1.062115,3.72294 -1.325981,4.65867 l -0.478949,1.70071 H 49.778484 c -12.144474,0 -16.559235,-0.0887 -16.559235,-0.33482 0,-0.30155 2.778351,-9.20869 4.139809,-13.27311 0.299343,-0.89581 1.148591,-3.55886 1.889189,-5.91813 0.738381,-2.35927 2.887002,-9.14882 4.771756,-15.08691 1.886972,-5.9403 3.73625,-11.79635 4.110983,-13.01811 0.935726,-3.05109 13.76758,-43.52675 14.233226,-44.89486 0.09756,-0.28825 3.966854,-0.36808 18.004953,-0.36808 h 17.88078 l 0.177388,1.40359 m 117.874777,29.65932 c -0.25278,0.56986 -1.49671,3.56551 -2.76282,6.65651 -1.26833,3.09099 -3.68303,8.93817 -5.36823,12.99372 -1.68741,4.05555 -3.06439,7.48359 -3.06439,7.61884 0,0.13305 2.80496,0.24391 6.23743,0.24391 h 6.23522 l -0.20621,-6.2862 c -0.11531,-3.45687 -0.29935,-9.88055 -0.41022,-14.27536 -0.19069,-7.55898 -0.22617,-7.9315 -0.66078,-6.95142"
       id="path0" />
  </g>
</svg>
