<svg id="svg" xmlns="http://www.w3.org/2000/svg"  width="400" height="400" viewBox="0, 0, 400,400"><g id="svgg"><path id="path0" d="M0.669 198.997 L 0.669 229.431 5.551 229.431 L 10.432 229.431 15.082 212.733 L 19.732 196.034 19.911 212.733 L 20.090 229.431 24.403 229.431 L 28.717 229.431 31.176 221.572 C 32.528 217.249,36.105 205.736,39.123 195.987 L 44.612 178.261 122.139 177.926 L 199.666 177.592 200.118 174.582 C 200.366 172.926,200.592 170.893,200.619 170.064 L 200.669 168.557 119.308 168.726 L 37.946 168.896 33.522 184.797 L 29.097 200.697 28.918 184.630 L 28.739 168.562 23.567 168.564 L 18.395 168.565 14.381 184.342 L 10.368 200.119 10.189 184.341 L 10.009 168.562 5.339 168.562 L 0.669 168.562 0.669 198.997 M208.404 170.067 C 208.230 170.895,207.809 173.002,207.469 174.749 L 206.851 177.926 212.121 177.926 C 215.894 177.926,217.390 178.164,217.387 178.763 C 217.385 179.222,215.880 190.251,214.043 203.271 C 212.205 216.290,210.702 227.502,210.702 228.187 C 210.702 229.279,211.263 229.431,215.273 229.431 L 219.843 229.431 223.483 203.846 L 227.123 178.261 312.487 178.091 C 383.085 177.951,397.912 177.766,398.196 177.025 C 398.385 176.533,398.752 174.427,399.012 172.346 L 399.485 168.562 304.103 168.562 L 208.721 168.562 208.404 170.067 M78.285 182.704 C 71.729 184.644,68.562 190.099,68.562 199.453 C 68.562 207.305,69.568 208.774,76.931 211.662 C 81.878 213.603,82.916 214.925,81.542 217.533 C 79.183 222.011,73.579 220.876,73.579 215.920 L 73.579 213.378 69.596 213.378 L 65.612 213.378 65.186 215.651 C 61.976 232.759,84.458 236.479,89.351 219.649 C 92.262 209.634,89.826 204.157,80.952 200.762 C 76.539 199.074,75.866 198.292,76.535 195.628 C 77.654 191.170,83.612 192.023,83.612 196.641 L 83.612 199.331 87.572 199.331 C 92.116 199.331,92.891 198.114,91.949 192.460 C 90.647 184.636,85.112 180.685,78.285 182.704 M380.268 182.915 C 374.350 185.075,370.566 191.855,370.571 200.289 C 370.575 206.324,371.989 208.202,378.953 211.419 C 385.156 214.286,386.110 215.897,383.278 218.729 C 380.244 221.762,375.920 220.111,375.920 215.920 L 375.920 213.378 371.906 213.378 L 367.893 213.378 367.908 217.893 C 367.968 236.578,389.356 234.869,392.657 215.915 C 394.046 207.941,391.916 204.297,383.946 201.004 C 378.622 198.803,378.317 198.526,378.856 196.379 C 380.076 191.515,385.953 191.759,385.953 196.673 L 385.953 199.395 390.134 199.196 L 394.314 198.997 394.225 194.174 C 394.051 184.853,388.103 180.054,380.268 182.915 M42.233 205.184 C 40.638 217.232,39.193 227.617,39.020 228.261 C 38.730 229.343,39.588 229.431,50.382 229.431 L 62.058 229.431 62.434 227.258 C 62.640 226.062,63.009 223.654,63.253 221.906 L 63.697 218.729 56.177 218.729 L 48.657 218.729 49.118 215.256 C 49.744 210.534,49.472 210.702,56.490 210.702 C 63.579 210.702,63.189 211.031,63.892 204.464 L 64.370 200.000 57.937 200.000 C 51.710 200.000,51.505 199.952,51.514 198.495 C 51.541 194.062,51.686 193.980,59.490 193.980 L 66.649 193.980 67.283 188.629 L 67.917 183.278 56.524 183.278 L 45.131 183.278 42.233 205.184 M93.992 187.742 C 93.729 190.197,93.361 192.605,93.174 193.093 C 92.914 193.770,93.801 193.980,96.918 193.980 C 101.884 193.980,101.706 192.088,98.752 213.545 L 96.565 229.431 100.709 229.431 L 104.854 229.431 105.565 224.582 C 105.957 221.915,107.097 213.938,108.100 206.856 L 109.923 193.980 114.081 193.980 L 118.239 193.980 118.717 189.516 C 118.980 187.060,119.348 184.652,119.535 184.164 C 119.811 183.447,117.447 183.278,107.173 183.278 L 94.470 183.278 93.992 187.742 M118.477 204.849 C 116.891 216.714,115.439 227.099,115.250 227.926 L 114.905 229.431 126.609 229.431 L 138.313 229.431 138.688 227.258 C 138.894 226.062,139.263 223.654,139.507 221.906 L 139.951 218.729 132.427 218.729 L 124.902 218.729 125.327 215.626 C 125.561 213.919,125.753 212.113,125.753 211.612 C 125.753 210.906,127.235 210.702,132.370 210.702 C 139.879 210.702,139.440 211.054,140.146 204.464 L 140.624 200.000 134.192 200.000 L 127.759 200.000 127.769 197.826 C 127.786 194.263,128.223 194.046,135.806 193.838 L 142.801 193.645 143.517 188.462 L 144.232 183.278 132.796 183.278 L 121.359 183.278 118.477 204.849 M146.177 185.452 C 145.454 189.675,140.468 227.031,140.468 228.223 C 140.468 229.252,141.054 229.431,144.405 229.431 L 148.341 229.431 149.088 224.247 C 149.499 221.396,150.026 217.634,150.259 215.886 L 150.684 212.709 153.958 212.709 C 156.314 212.709,157.345 213.003,157.635 213.757 C 158.007 214.728,156.854 225.599,156.096 228.261 C 155.803 229.289,156.287 229.431,160.079 229.431 L 164.395 229.431 165.124 224.247 C 166.622 213.597,166.702 212.172,165.934 209.845 C 165.243 207.750,165.335 207.245,166.793 205.096 C 170.047 200.301,170.720 192.111,168.252 187.338 C 166.498 183.947,164.298 183.278,154.913 183.278 L 146.549 183.278 146.177 185.452 M173.859 183.445 C 173.830 183.537,172.390 193.846,170.659 206.355 L 167.513 229.097 171.123 229.300 C 175.718 229.558,175.226 230.507,177.043 217.891 C 177.903 211.914,178.702 206.730,178.819 206.372 C 179.013 205.772,179.856 209.172,183.127 223.746 L 184.328 229.097 188.346 229.293 L 192.363 229.488 195.255 208.557 C 196.845 197.045,198.302 186.647,198.492 185.452 L 198.837 183.278 194.811 183.278 C 190.134 183.278,190.764 181.917,188.923 195.987 C 187.410 207.545,187.380 207.550,184.981 196.656 C 183.807 191.321,182.636 186.129,182.380 185.117 C 181.979 183.535,174.313 182.030,173.859 183.445 M226.838 204.849 C 225.253 216.714,223.797 227.114,223.602 227.960 C 223.259 229.457,223.366 229.494,227.500 229.298 L 231.750 229.097 232.581 223.077 C 234.124 211.901,233.774 212.709,237.072 212.709 C 241.234 212.709,241.472 213.301,240.428 221.070 C 239.934 224.749,239.515 228.150,239.497 228.627 C 239.473 229.270,240.550 229.444,243.642 229.296 L 247.820 229.097 248.609 223.746 C 249.602 217.007,249.700 210.322,248.828 208.692 C 248.365 207.827,248.386 207.297,248.896 206.982 C 252.616 204.683,254.226 191.549,251.318 187.232 C 248.973 183.752,247.452 183.298,238.104 183.287 L 229.720 183.278 226.838 204.849 M257.239 205.526 C 252.851 217.754,249.132 228.135,248.974 228.595 C 248.763 229.208,249.853 229.431,253.058 229.431 L 257.429 229.431 258.815 225.727 C 259.577 223.690,260.201 221.734,260.201 221.380 C 260.201 221.025,261.972 220.736,264.136 220.736 C 268.563 220.736,268.870 221.114,268.887 226.589 L 268.896 229.431 273.244 229.431 C 278.468 229.431,278.132 232.382,275.914 206.020 C 275.001 195.167,274.253 185.610,274.251 184.783 C 274.248 183.370,273.970 183.278,269.732 183.285 L 265.217 183.292 257.239 205.526 M284.626 184.783 C 284.433 185.610,282.978 195.920,281.392 207.692 L 278.508 229.097 282.476 229.298 C 284.658 229.409,286.542 229.400,286.663 229.279 C 286.930 229.012,292.977 186.062,292.977 184.431 C 292.977 182.434,285.094 182.765,284.626 184.783 M295.652 183.833 C 295.652 184.139,294.298 194.290,292.642 206.392 C 290.987 218.493,289.632 228.628,289.632 228.913 C 289.632 229.198,294.564 229.431,300.591 229.431 L 311.550 229.431 312.028 224.967 C 312.291 222.512,312.659 220.104,312.846 219.616 C 313.115 218.915,311.766 218.729,306.426 218.729 C 300.962 218.729,299.666 218.543,299.666 217.758 C 299.666 216.724,303.397 189.117,304.032 185.452 L 304.408 183.278 300.030 183.278 C 297.622 183.278,295.652 183.528,295.652 183.833 M319.435 184.783 C 318.846 187.521,313.712 226.099,313.712 227.781 L 313.712 229.431 325.012 229.431 C 337.781 229.431,336.747 229.949,337.470 223.193 L 337.948 218.729 330.472 218.729 L 322.995 218.729 323.420 215.552 C 324.102 210.457,323.718 210.702,331.005 210.702 L 337.637 210.702 338.115 206.238 C 338.378 203.783,338.746 201.375,338.933 200.887 C 339.202 200.186,337.853 200.000,332.513 200.000 C 325.197 200.000,325.364 200.104,326.171 196.070 L 326.589 193.980 333.786 193.980 L 340.983 193.980 341.444 190.134 C 341.698 188.018,342.066 185.610,342.263 184.783 L 342.620 183.278 331.189 183.278 C 319.876 183.278,319.755 183.293,319.435 184.783 M345.509 184.783 C 345.324 185.610,343.957 195.468,342.471 206.689 C 340.985 217.910,339.653 227.617,339.512 228.261 C 339.289 229.279,339.804 229.431,343.450 229.431 L 347.644 229.431 348.069 226.254 C 348.302 224.507,348.829 220.744,349.240 217.893 L 349.987 212.709 353.275 212.709 C 357.649 212.709,357.856 214.103,355.435 227.258 L 355.035 229.431 359.457 229.431 C 362.546 229.431,363.881 229.179,363.885 228.595 C 363.888 228.135,364.342 224.340,364.894 220.160 C 365.631 214.584,365.715 211.882,365.211 210.008 C 364.603 207.751,364.716 207.170,366.190 204.998 C 370.675 198.389,369.486 186.441,364.120 184.199 C 360.016 182.484,345.923 182.926,345.509 184.783 M161.077 196.813 C 161.365 200.294,158.983 202.676,155.214 202.676 C 152.218 202.676,152.009 202.106,152.943 196.458 L 153.362 193.919 157.116 194.117 L 160.870 194.314 161.077 196.813 M243.086 195.073 C 244.464 198.665,241.593 202.676,237.644 202.676 C 235.213 202.676,235.141 202.450,235.877 197.083 L 236.302 193.980 239.484 193.980 C 241.812 193.980,242.779 194.273,243.086 195.073 M360.205 195.333 C 361.440 199.224,358.695 202.676,354.366 202.676 C 351.559 202.676,351.515 202.557,352.265 197.083 L 352.690 193.980 356.233 193.980 C 359.202 193.980,359.846 194.199,360.205 195.333 M268.544 203.512 L 269.021 210.033 266.283 210.033 C 264.777 210.033,263.545 209.808,263.545 209.533 C 263.545 208.714,267.681 196.553,267.882 196.780 C 267.984 196.896,268.282 199.925,268.544 203.512 " stroke="none" fill-rule="evenodd"></path></g></svg>