<svg id="svg" xmlns="http://www.w3.org/2000/svg"  width="400" height="400" viewBox="0, 0, 400,400"><g id="svgg"><path id="path0" d="M180.841 5.591 C 180.803 5.985,180.702 6.005,178.076 6.147 C 177.056 6.203,175.693 6.291,175.049 6.343 C 174.404 6.396,172.053 6.506,169.824 6.589 C 163.141 6.835,162.676 6.885,162.445 7.372 C 162.347 7.578,162.156 7.759,161.931 7.860 C 161.223 8.178,161.158 8.226,160.999 8.559 C 160.897 8.773,160.715 8.949,160.506 9.036 C 160.258 9.140,160.119 9.297,159.954 9.662 C 159.778 10.051,159.649 10.190,159.314 10.347 C 158.975 10.506,158.876 10.614,158.796 10.912 C 158.656 11.428,158.444 11.693,158.114 11.766 C 157.866 11.820,157.814 11.894,157.710 12.335 C 157.523 13.128,157.243 13.648,156.930 13.787 C 156.617 13.925,156.504 14.109,156.344 14.737 C 156.272 15.020,156.097 15.303,155.835 15.563 C 155.556 15.839,155.382 16.132,155.257 16.533 C 155.017 17.305,154.964 17.384,154.532 17.626 C 154.257 17.780,154.139 17.922,154.082 18.170 C 153.828 19.269,153.702 19.534,153.319 19.776 C 153.025 19.962,152.913 20.112,152.830 20.433 C 152.771 20.662,152.701 20.925,152.674 21.017 C 152.648 21.108,152.454 21.320,152.243 21.487 C 151.938 21.728,151.819 21.921,151.665 22.420 C 151.397 23.286,151.318 23.409,150.885 23.630 C 150.561 23.795,150.496 23.883,150.437 24.241 C 150.339 24.828,149.940 25.573,149.654 25.703 C 149.470 25.787,149.366 25.971,149.213 26.486 C 149.022 27.124,148.790 27.403,148.312 27.564 C 148.269 27.579,148.152 27.910,148.052 28.301 C 147.832 29.155,147.638 29.475,147.260 29.607 C 147.039 29.683,146.951 29.797,146.866 30.112 C 146.630 30.996,146.462 31.337,146.098 31.673 C 145.829 31.922,145.674 32.180,145.564 32.559 C 145.412 33.081,145.058 33.496,144.764 33.496 C 144.692 33.496,144.606 33.617,144.573 33.765 C 144.290 35.052,144.184 35.260,143.638 35.604 C 143.340 35.793,143.262 35.915,143.173 36.329 C 143.034 36.977,142.851 37.320,142.474 37.637 C 142.255 37.821,142.112 38.078,141.976 38.533 C 141.795 39.134,141.553 39.418,141.085 39.576 C 141.043 39.590,140.926 39.922,140.825 40.313 C 140.606 41.164,140.444 41.434,140.053 41.596 C 139.771 41.712,139.552 42.094,139.550 42.471 C 139.548 42.796,139.068 43.654,138.826 43.764 C 138.639 43.849,138.528 44.041,138.358 44.570 C 138.162 45.180,138.092 45.285,137.780 45.437 C 137.460 45.594,137.409 45.675,137.263 46.256 C 137.041 47.139,136.866 47.440,136.467 47.631 C 136.248 47.735,136.107 47.882,136.072 48.042 C 135.824 49.179,135.546 49.730,135.156 49.854 C 135.022 49.896,134.906 50.114,134.766 50.585 C 134.605 51.126,134.494 51.313,134.198 51.548 C 133.918 51.770,133.788 51.976,133.657 52.409 C 133.358 53.397,133.288 53.518,132.898 53.717 C 132.644 53.847,132.503 53.995,132.462 54.176 C 132.186 55.405,132.056 55.670,131.599 55.940 C 131.379 56.070,131.236 56.240,131.200 56.416 C 131.045 57.167,130.926 57.422,130.525 57.858 C 130.215 58.196,130.056 58.475,129.971 58.829 C 129.815 59.484,129.707 59.649,129.294 59.862 C 128.984 60.023,128.936 60.103,128.822 60.656 C 128.653 61.475,128.487 61.771,128.034 62.056 C 127.720 62.255,127.644 62.367,127.589 62.715 C 127.489 63.339,127.105 64.130,126.864 64.206 C 126.621 64.283,126.412 64.653,126.313 65.178 C 126.266 65.428,126.087 65.727,125.781 66.065 C 125.434 66.448,125.288 66.706,125.197 67.101 C 125.041 67.779,124.873 68.037,124.462 68.233 C 124.169 68.373,124.115 68.459,124.018 68.937 C 123.845 69.788,123.603 70.261,123.268 70.399 C 122.939 70.536,122.797 70.770,122.704 71.335 C 122.614 71.874,122.400 72.265,122.007 72.607 C 121.754 72.828,121.634 73.045,121.522 73.486 C 121.407 73.935,121.272 74.175,120.947 74.512 C 120.611 74.859,120.488 75.085,120.360 75.586 C 120.207 76.190,119.913 76.658,119.685 76.662 C 119.437 76.665,119.314 76.866,119.171 77.500 C 118.968 78.397,118.825 78.653,118.413 78.848 C 118.210 78.945,118.050 79.101,118.024 79.228 C 117.775 80.448,117.745 80.518,117.278 80.980 C 116.901 81.353,116.791 81.542,116.703 81.964 C 116.623 82.347,116.491 82.600,116.201 82.918 C 115.800 83.359,115.527 83.852,115.527 84.137 C 115.527 84.468,115.211 84.950,114.896 85.099 C 114.605 85.237,114.555 85.325,114.402 85.961 C 114.175 86.902,114.062 87.102,113.612 87.354 C 113.268 87.546,113.226 87.615,113.158 88.083 C 113.050 88.835,112.766 89.412,112.414 89.594 C 112.076 89.768,111.914 90.016,111.914 90.357 C 111.914 90.851,111.604 91.509,111.227 91.811 C 110.936 92.045,110.828 92.222,110.736 92.613 C 110.585 93.259,110.500 93.419,110.051 93.912 C 109.836 94.148,109.635 94.496,109.572 94.742 C 109.380 95.494,109.254 95.716,108.887 95.947 C 108.558 96.155,108.514 96.238,108.361 96.939 C 108.171 97.809,108.087 97.952,107.613 98.217 C 107.299 98.392,107.264 98.462,107.107 99.227 C 106.937 100.053,106.773 100.310,106.210 100.635 C 106.104 100.696,105.989 100.978,105.902 101.395 C 105.727 102.229,105.539 102.595,105.193 102.774 C 104.900 102.926,104.688 103.293,104.688 103.648 C 104.687 103.988,104.200 104.887,103.955 104.998 C 103.742 105.095,103.636 105.336,103.421 106.207 C 103.361 106.449,103.153 106.789,102.889 107.077 C 102.541 107.456,102.423 107.682,102.291 108.221 C 102.148 108.804,102.072 108.937,101.710 109.233 C 101.345 109.532,101.280 109.647,101.176 110.182 C 101.005 111.058,100.819 111.399,100.438 111.537 C 100.136 111.646,100.105 111.699,99.995 112.297 C 99.809 113.302,99.635 113.655,99.223 113.865 C 98.880 114.040,98.855 114.086,98.735 114.764 C 98.577 115.660,98.420 115.970,98.021 116.173 C 97.847 116.261,97.690 116.347,97.671 116.364 C 97.652 116.380,97.578 116.729,97.507 117.139 C 97.362 117.971,97.188 118.302,96.769 118.540 C 96.482 118.703,96.359 118.968,96.240 119.678 C 96.141 120.276,95.913 120.675,95.551 120.889 C 95.369 120.996,95.199 121.185,95.173 121.308 C 95.147 121.432,95.074 121.797,95.012 122.118 C 94.914 122.620,94.832 122.768,94.436 123.151 C 94.028 123.547,93.960 123.674,93.853 124.240 C 93.713 124.980,93.462 125.446,93.118 125.602 C 92.873 125.714,92.746 125.998,92.627 126.706 C 92.540 127.217,92.355 127.561,92.008 127.852 C 91.651 128.153,91.545 128.355,91.455 128.906 C 91.359 129.494,91.077 130.027,90.726 130.286 C 90.495 130.457,90.407 130.635,90.281 131.191 C 90.107 131.955,89.845 132.450,89.492 132.682 C 89.364 132.766,89.218 132.994,89.168 133.189 C 89.118 133.385,89.031 133.724,88.974 133.942 C 88.914 134.170,88.699 134.524,88.469 134.772 C 88.153 135.114,88.032 135.353,87.893 135.908 C 87.713 136.624,87.518 136.977,87.074 137.391 C 86.907 137.547,86.789 137.804,86.717 138.172 C 86.562 138.966,86.446 139.215,86.038 139.625 C 85.677 139.987,85.523 140.331,85.403 141.045 C 85.361 141.298,85.191 141.581,84.872 141.934 C 84.469 142.379,84.385 142.544,84.280 143.102 C 84.161 143.730,83.970 144.068,83.435 144.595 C 83.309 144.720,83.166 145.079,83.068 145.521 C 82.936 146.115,82.835 146.322,82.506 146.682 C 82.046 147.185,81.986 147.315,81.834 148.154 C 81.696 148.914,81.414 149.486,81.106 149.626 C 80.841 149.747,80.711 150.200,80.623 151.318 C 80.502 152.839,79.944 154.102,79.393 154.102 L 79.102 154.102 79.102 156.836 L 79.102 159.570 79.403 159.570 C 79.748 159.570,79.997 159.809,80.270 160.400 C 80.450 160.792,80.545 161.212,80.767 162.620 C 80.878 163.325,80.909 163.389,81.219 163.572 C 81.612 163.804,81.771 164.149,81.932 165.115 C 82.033 165.726,82.086 165.843,82.309 165.959 C 82.739 166.182,82.896 166.430,83.055 167.143 C 83.138 167.516,83.227 167.917,83.253 168.032 C 83.279 168.147,83.454 168.333,83.643 168.445 C 84.034 168.675,84.134 168.887,84.345 169.934 C 84.483 170.615,84.522 170.690,84.810 170.828 C 85.196 171.012,85.389 171.405,85.553 172.342 C 85.666 172.989,85.704 173.066,85.979 173.196 C 86.390 173.392,86.505 173.608,86.720 174.592 C 86.822 175.056,86.956 175.454,87.019 175.474 C 87.437 175.614,87.706 176.049,87.911 176.919 C 88.108 177.756,88.142 177.822,88.451 177.970 C 88.839 178.155,88.990 178.472,89.166 179.474 C 89.272 180.079,89.330 180.208,89.543 180.318 C 89.974 180.541,90.123 180.791,90.320 181.616 C 90.545 182.555,90.556 182.576,90.910 182.760 C 91.212 182.916,91.321 183.141,91.550 184.082 C 91.678 184.609,91.776 184.783,92.126 185.107 C 92.498 185.452,92.567 185.585,92.712 186.239 C 92.848 186.847,92.939 187.039,93.224 187.313 C 93.663 187.736,93.744 187.888,93.913 188.616 C 94.018 189.064,94.143 189.305,94.426 189.600 C 94.887 190.080,94.968 190.236,95.110 190.925 C 95.198 191.353,95.314 191.567,95.653 191.926 C 96.055 192.351,96.282 192.845,96.292 193.311 C 96.298 193.587,96.483 193.880,96.844 194.180 C 97.161 194.445,97.401 194.970,97.510 195.639 C 97.555 195.915,97.695 196.134,98.041 196.470 C 98.446 196.862,98.527 197.007,98.625 197.511 C 98.687 197.832,98.760 198.197,98.786 198.321 C 98.813 198.444,98.983 198.633,99.164 198.740 C 99.510 198.944,99.739 199.331,99.851 199.902 C 100.030 200.814,100.095 200.952,100.404 201.080 C 100.776 201.234,101.040 201.775,101.135 202.579 C 101.194 203.088,101.234 203.162,101.554 203.364 C 102.072 203.691,102.136 203.802,102.329 204.701 C 102.479 205.401,102.540 205.535,102.761 205.643 C 103.185 205.849,103.382 206.199,103.566 207.072 C 103.723 207.823,103.765 207.910,104.011 207.996 C 104.371 208.121,104.574 208.452,104.748 209.198 C 104.863 209.696,104.974 209.899,105.321 210.254 C 105.670 210.612,105.781 210.817,105.916 211.360 C 106.038 211.849,106.173 212.123,106.420 212.386 C 106.819 212.808,106.983 213.107,107.074 213.574 C 107.188 214.156,107.328 214.423,107.579 214.538 C 107.835 214.655,108.298 215.516,108.300 215.879 C 108.301 216.239,108.506 216.689,108.695 216.749 C 109.028 216.855,109.357 217.363,109.469 217.943 C 109.529 218.253,109.597 218.596,109.620 218.706 C 109.643 218.816,109.815 218.979,110.002 219.069 C 110.419 219.267,110.598 219.596,110.756 220.455 C 110.868 221.063,110.907 221.134,111.257 221.354 C 111.655 221.606,111.805 221.877,112.020 222.738 C 112.120 223.138,112.233 223.323,112.508 223.541 C 112.865 223.824,112.971 224.018,113.169 224.756 C 113.231 224.985,113.454 225.336,113.710 225.607 C 114.054 225.971,114.170 226.186,114.266 226.633 C 114.424 227.367,114.500 227.508,114.833 227.680 C 115.172 227.855,115.406 228.326,115.543 229.106 C 115.640 229.655,115.673 229.708,116.034 229.892 C 116.468 230.114,116.613 230.383,116.809 231.332 C 116.926 231.896,116.969 231.968,117.294 232.134 C 117.657 232.319,117.863 232.675,118.016 233.384 C 118.055 233.567,118.291 233.937,118.551 234.225 C 118.869 234.575,119.037 234.858,119.082 235.118 C 119.188 235.723,119.320 235.975,119.624 236.149 C 119.980 236.352,120.187 236.747,120.344 237.523 C 120.455 238.072,120.501 238.147,120.825 238.318 C 121.233 238.533,121.418 238.864,121.625 239.755 C 121.705 240.098,121.805 240.390,121.847 240.405 C 122.325 240.566,122.558 240.845,122.747 241.482 C 122.893 241.970,123.053 242.265,123.335 242.561 C 123.562 242.800,123.769 243.141,123.835 243.384 C 124.043 244.149,124.147 244.344,124.426 244.489 C 124.772 244.668,124.982 245.065,125.138 245.837 C 125.250 246.388,125.291 246.453,125.657 246.657 C 126.101 246.905,126.275 247.240,126.467 248.214 C 126.565 248.713,126.623 248.822,126.815 248.870 C 127.164 248.958,127.414 249.285,127.543 249.822 C 127.628 250.176,127.772 250.417,128.079 250.720 C 128.397 251.033,128.538 251.276,128.659 251.715 C 128.890 252.550,128.919 252.603,129.297 252.855 C 129.705 253.128,129.844 253.392,130.010 254.210 C 130.125 254.780,130.162 254.839,130.521 255.025 C 130.864 255.202,130.933 255.300,131.123 255.887 C 131.268 256.333,131.482 256.717,131.777 257.064 C 132.077 257.414,132.251 257.729,132.323 258.050 C 132.454 258.636,132.585 258.887,132.758 258.887 C 133.037 258.887,133.384 259.468,133.550 260.215 C 133.704 260.905,133.739 260.967,134.043 261.095 C 134.453 261.266,134.605 261.503,134.821 262.305 C 134.961 262.826,135.074 263.018,135.451 263.379 C 135.817 263.728,135.925 263.906,135.977 264.248 C 136.026 264.574,136.133 264.762,136.419 265.029 C 136.876 265.456,137.093 265.867,137.174 266.461 C 137.227 266.845,137.289 266.944,137.604 267.142 C 138.106 267.459,138.244 267.686,138.438 268.510 C 138.589 269.148,138.637 269.232,138.932 269.373 C 139.258 269.528,139.479 269.883,139.597 270.440 C 139.629 270.591,139.823 270.899,140.029 271.124 C 140.479 271.615,140.682 271.994,140.775 272.513 C 140.848 272.918,141.063 273.242,141.258 273.242 C 141.503 273.242,141.799 273.719,141.955 274.368 C 142.045 274.743,142.132 275.102,142.149 275.168 C 142.165 275.233,142.334 275.352,142.524 275.431 C 142.875 275.578,143.008 275.791,143.261 276.611 C 143.327 276.826,143.547 277.178,143.750 277.393 C 144.186 277.855,144.287 278.043,144.380 278.564 C 144.454 278.976,144.673 279.297,144.881 279.297 C 145.177 279.297,145.499 279.960,145.745 281.078 C 145.784 281.256,145.885 281.365,146.048 281.406 C 146.383 281.490,146.641 281.847,146.825 282.481 C 146.928 282.834,147.108 283.147,147.355 283.402 C 147.742 283.800,147.868 284.043,148.041 284.723 C 148.120 285.033,148.216 285.154,148.481 285.280 C 148.878 285.470,149.053 285.772,149.273 286.650 C 149.412 287.202,149.474 287.306,149.710 287.389 C 150.040 287.504,150.243 287.793,150.430 288.412 C 150.518 288.704,150.711 289.012,150.957 289.250 C 151.331 289.614,151.433 289.822,151.655 290.687 C 151.734 290.992,151.828 291.119,152.044 291.208 C 152.464 291.382,152.596 291.574,152.831 292.353 C 153.010 292.948,153.109 293.110,153.471 293.406 C 153.787 293.666,153.916 293.851,153.964 294.120 C 154.057 294.632,154.163 294.800,154.504 294.977 C 154.834 295.148,155.108 295.671,155.276 296.452 C 155.369 296.886,155.421 296.957,155.761 297.107 C 156.113 297.263,156.543 297.994,156.543 298.439 C 156.543 298.489,156.657 298.606,156.797 298.697 C 157.153 298.931,157.503 299.521,157.627 300.100 C 157.719 300.532,157.779 300.615,158.121 300.789 C 158.436 300.950,158.561 301.103,158.785 301.602 C 158.937 301.940,159.126 302.242,159.206 302.273 C 159.287 302.304,159.555 302.592,159.803 302.914 C 160.462 303.772,160.798 304.078,161.428 304.396 C 161.738 304.552,162.084 304.803,162.196 304.952 C 162.308 305.102,162.443 305.276,162.495 305.338 C 162.547 305.400,162.932 305.479,163.350 305.513 C 168.212 305.904,171.745 306.235,173.096 306.427 C 173.558 306.492,173.586 306.513,173.615 306.812 L 173.645 307.129 197.803 307.129 L 221.960 307.129 221.991 306.812 C 222.028 306.422,222.100 306.406,224.463 306.255 C 225.376 306.197,226.650 306.109,227.295 306.059 C 227.939 306.009,229.478 305.921,230.713 305.863 C 233.360 305.740,237.215 305.475,237.322 305.409 C 237.363 305.384,237.468 305.214,237.554 305.033 C 237.667 304.795,237.856 304.634,238.236 304.455 C 238.573 304.295,238.814 304.103,238.909 303.919 C 238.991 303.761,239.214 303.535,239.405 303.417 C 239.615 303.288,239.850 303.012,239.995 302.724 C 240.169 302.382,240.341 302.197,240.602 302.075 C 240.879 301.944,240.997 301.810,241.093 301.516 C 241.250 301.038,241.454 300.805,241.868 300.632 C 242.079 300.544,242.188 300.431,242.188 300.302 C 242.187 299.842,242.597 299.018,242.977 298.712 C 243.245 298.497,243.391 298.283,243.461 298.005 C 243.625 297.356,243.729 297.178,244.065 296.975 C 244.332 296.814,244.433 296.641,244.678 295.925 C 244.949 295.133,245.001 295.052,245.378 294.846 C 245.728 294.654,245.794 294.566,245.851 294.211 C 245.956 293.566,246.235 293.020,246.607 292.736 C 246.868 292.537,246.986 292.343,247.108 291.906 C 247.273 291.318,247.451 291.086,247.825 290.972 C 247.970 290.928,248.073 290.787,248.136 290.546 C 248.187 290.348,248.280 289.992,248.341 289.755 C 248.456 289.313,248.901 288.770,249.147 288.770 C 249.295 288.770,249.510 288.380,249.514 288.106 C 249.518 287.793,249.911 287.061,250.237 286.759 C 250.452 286.559,250.616 286.275,250.719 285.921 C 250.883 285.358,251.061 285.133,251.468 284.978 C 251.668 284.902,251.737 284.778,251.837 284.312 C 252.021 283.454,252.191 283.142,252.628 282.867 C 252.881 282.707,253.045 282.520,253.083 282.349 C 253.230 281.683,253.365 281.406,253.726 281.027 C 253.981 280.759,254.179 280.416,254.307 280.020 C 254.502 279.416,254.766 279.077,255.127 278.967 C 255.275 278.921,255.364 278.735,255.493 278.199 C 255.679 277.425,255.890 277.068,256.271 276.880 C 256.521 276.758,256.625 276.557,256.826 275.817 C 256.890 275.578,257.097 275.245,257.334 275.002 C 257.614 274.713,257.795 274.398,257.943 273.941 C 258.130 273.367,258.201 273.266,258.556 273.072 C 258.917 272.874,258.968 272.799,259.063 272.324 C 259.232 271.482,259.422 271.128,259.848 270.859 C 260.189 270.644,260.253 270.545,260.350 270.076 C 260.436 269.664,260.564 269.425,260.899 269.052 C 261.206 268.711,261.401 268.367,261.552 267.901 C 261.742 267.314,261.812 267.213,262.149 267.039 C 262.503 266.856,262.542 266.793,262.692 266.160 C 262.900 265.285,263.012 265.088,263.469 264.800 C 263.760 264.616,263.858 264.481,263.912 264.191 C 264.019 263.609,264.298 263.054,264.621 262.782 C 264.784 262.645,264.970 262.361,265.036 262.150 C 265.258 261.441,265.476 261.085,265.780 260.938 C 266.041 260.812,266.106 260.699,266.256 260.108 C 266.490 259.190,266.606 258.989,267.049 258.742 C 267.393 258.549,267.437 258.477,267.550 257.915 C 267.691 257.221,267.983 256.680,268.268 256.590 C 268.496 256.517,268.698 256.147,268.792 255.628 C 268.838 255.374,269.004 255.097,269.302 254.779 C 269.617 254.442,269.798 254.132,269.934 253.695 C 270.140 253.034,270.312 252.790,270.720 252.579 C 270.930 252.471,271.005 252.332,271.097 251.881 C 271.274 251.019,271.434 250.718,271.858 250.450 C 272.189 250.241,272.263 250.130,272.354 249.708 C 272.492 249.065,272.794 248.480,273.087 248.288 C 273.325 248.132,273.428 247.923,273.624 247.199 C 273.701 246.915,273.851 246.698,274.117 246.488 C 274.418 246.249,274.533 246.066,274.654 245.626 C 274.895 244.757,275.064 244.456,275.411 244.278 C 275.812 244.073,275.847 244.018,275.926 243.465 C 276.020 242.806,276.331 242.220,276.664 242.073 C 276.957 241.943,277.089 241.707,277.201 241.113 C 277.286 240.660,277.669 240.007,277.961 239.815 C 278.111 239.717,278.238 239.494,278.312 239.201 C 278.483 238.522,278.666 238.226,278.999 238.088 C 279.222 237.996,279.320 237.871,279.394 237.586 C 279.448 237.378,279.540 237.020,279.598 236.792 C 279.743 236.221,279.929 235.962,280.304 235.805 C 280.594 235.684,280.635 235.614,280.735 235.076 C 280.882 234.288,281.093 233.866,281.446 233.658 C 281.786 233.457,281.882 233.295,281.978 232.768 C 282.076 232.226,282.374 231.682,282.708 231.435 C 282.919 231.279,283.036 231.064,283.160 230.606 C 283.252 230.267,283.409 229.910,283.508 229.814 C 283.608 229.717,283.794 229.536,283.922 229.410 C 284.055 229.279,284.243 228.879,284.360 228.475 C 284.561 227.784,284.746 227.518,285.177 227.303 C 285.339 227.222,285.423 227.043,285.517 226.580 C 285.695 225.698,285.912 225.293,286.294 225.134 C 286.515 225.042,286.637 224.914,286.678 224.731 C 286.931 223.594,287.043 223.341,287.459 222.963 C 287.691 222.751,287.910 222.453,287.945 222.300 C 288.134 221.463,288.218 221.284,288.616 220.862 C 288.962 220.497,289.074 220.289,289.164 219.845 C 289.259 219.382,289.353 219.218,289.713 218.880 C 290.075 218.540,290.181 218.353,290.349 217.757 C 290.611 216.825,290.652 216.755,291.060 216.561 C 291.261 216.466,291.424 216.308,291.450 216.182 C 291.476 216.064,291.547 215.705,291.609 215.384 C 291.721 214.807,292.021 214.386,292.518 214.109 C 292.638 214.042,292.726 213.831,292.782 213.474 C 292.900 212.719,293.141 212.240,293.514 212.020 C 293.816 211.841,294.041 211.381,294.042 210.936 C 294.043 210.685,294.439 210.025,294.775 209.714 C 295.014 209.493,295.123 209.279,295.209 208.866 C 295.315 208.355,295.663 207.774,296.038 207.481 C 296.114 207.422,296.272 207.043,296.389 206.641 C 296.628 205.822,296.693 205.715,297.058 205.541 C 297.276 205.438,297.346 205.289,297.526 204.556 C 297.745 203.661,297.980 203.285,298.384 203.184 C 298.573 203.136,298.623 203.023,298.732 202.386 C 298.871 201.573,299.115 201.124,299.552 200.883 C 299.801 200.745,299.854 200.632,299.992 199.942 C 300.169 199.057,300.381 198.663,300.729 198.576 C 300.985 198.512,301.107 198.238,301.225 197.461 C 301.319 196.849,301.518 196.504,301.911 196.272 C 302.096 196.163,302.267 195.979,302.291 195.864 C 302.315 195.749,302.381 195.421,302.437 195.137 C 302.574 194.444,302.777 194.077,303.120 193.899 C 303.488 193.709,303.508 193.671,303.624 192.948 C 303.754 192.141,303.953 191.749,304.352 191.513 C 304.533 191.406,304.703 191.218,304.729 191.094 C 304.756 190.970,304.828 190.606,304.891 190.284 C 304.988 189.783,305.070 189.635,305.466 189.251 C 305.875 188.855,305.943 188.729,306.049 188.163 C 306.189 187.423,306.440 186.957,306.784 186.800 C 307.029 186.688,307.156 186.404,307.276 185.697 C 307.362 185.186,307.547 184.842,307.894 184.550 C 308.220 184.276,308.398 183.981,308.398 183.716 C 308.398 183.205,308.722 182.483,309.126 182.090 C 309.448 181.777,309.563 181.580,309.619 181.246 C 309.730 180.581,309.950 180.108,310.288 179.810 C 310.607 179.528,310.839 179.116,310.840 178.828 C 310.842 178.403,311.081 177.891,311.471 177.478 C 311.822 177.106,311.925 176.907,312.048 176.365 C 312.214 175.627,312.438 175.202,312.818 174.904 C 313.013 174.750,313.112 174.530,313.236 173.974 C 313.391 173.276,313.836 172.461,314.062 172.461 C 314.190 172.461,314.453 171.817,314.453 171.503 C 314.453 171.152,314.809 170.457,315.124 170.192 C 315.483 169.889,315.516 169.824,315.636 169.171 C 315.753 168.528,316.021 168.022,316.415 167.699 C 316.620 167.531,316.722 167.310,316.845 166.772 C 317.021 165.996,317.265 165.529,317.614 165.301 C 317.758 165.207,317.885 164.978,317.960 164.680 C 318.025 164.421,318.121 164.044,318.174 163.843 C 318.226 163.641,318.439 163.298,318.647 163.080 C 319.123 162.580,319.209 162.347,319.280 161.366 C 319.394 159.810,319.888 158.691,320.463 158.691 L 320.801 158.691 320.801 155.615 L 320.801 152.539 320.468 152.539 C 319.857 152.539,319.482 151.851,319.197 150.213 C 319.068 149.470,319.019 149.360,318.622 148.935 C 318.288 148.578,318.161 148.348,318.075 147.941 C 317.839 146.836,317.775 146.686,317.479 146.532 C 317.150 146.362,316.951 146.023,316.851 145.459 C 316.664 144.409,316.580 144.141,316.439 144.141 C 316.069 144.141,315.760 143.623,315.581 142.700 C 315.429 141.916,315.372 141.780,315.158 141.674 C 314.750 141.474,314.558 141.110,314.385 140.214 C 314.237 139.447,314.195 139.353,313.951 139.252 C 313.562 139.091,313.393 138.773,313.183 137.814 C 313.081 137.348,312.946 136.949,312.883 136.928 C 312.465 136.789,312.197 136.353,311.992 135.483 C 311.795 134.646,311.761 134.580,311.452 134.433 C 311.064 134.248,310.913 133.930,310.737 132.928 C 310.630 132.323,310.573 132.194,310.359 132.084 C 309.937 131.865,309.790 131.625,309.583 130.811 C 309.420 130.170,309.324 129.977,309.049 129.736 C 308.641 129.381,308.564 129.233,308.356 128.418 C 308.231 127.926,308.106 127.692,307.799 127.379 C 307.484 127.058,307.363 126.828,307.211 126.256 C 307.105 125.861,306.919 125.427,306.797 125.293 C 306.675 125.159,306.483 124.945,306.371 124.819 C 306.259 124.692,306.097 124.271,306.010 123.883 C 305.883 123.310,305.788 123.114,305.506 122.843 C 305.069 122.423,304.934 122.163,304.790 121.462 C 304.700 121.025,304.611 120.857,304.386 120.697 C 304.035 120.447,303.739 119.891,303.651 119.320 C 303.566 118.765,303.458 118.562,303.071 118.237 C 302.744 117.963,302.503 117.438,302.393 116.764 C 302.348 116.487,302.208 116.268,301.861 115.933 C 301.457 115.541,301.375 115.395,301.278 114.892 C 301.215 114.570,301.143 114.205,301.116 114.082 C 301.090 113.958,300.920 113.769,300.738 113.662 C 300.376 113.448,300.148 113.049,300.049 112.451 C 299.920 111.681,299.807 111.451,299.494 111.321 C 299.126 111.168,298.862 110.624,298.768 109.823 C 298.708 109.314,298.669 109.241,298.348 109.039 C 297.822 108.707,297.750 108.579,297.574 107.671 C 297.428 106.922,297.385 106.829,297.140 106.727 C 296.711 106.549,296.524 106.222,296.335 105.324 C 296.183 104.598,296.130 104.480,295.930 104.430 C 295.573 104.341,295.343 103.965,295.153 103.161 C 295.007 102.538,294.923 102.374,294.623 102.114 C 294.200 101.749,294.108 101.582,293.947 100.899 C 293.866 100.550,293.715 100.264,293.485 100.020 C 293.084 99.595,292.919 99.296,292.828 98.828 C 292.714 98.246,292.574 97.979,292.323 97.864 C 292.067 97.748,291.604 96.886,291.603 96.523 C 291.601 96.164,291.396 95.713,291.207 95.653 C 290.874 95.547,290.545 95.040,290.433 94.459 C 290.373 94.150,290.305 93.803,290.281 93.689 C 290.256 93.573,290.104 93.427,289.935 93.357 C 289.521 93.185,289.344 92.876,289.159 92.004 C 289.009 91.297,288.983 91.251,288.635 91.085 C 288.231 90.893,288.086 90.628,287.886 89.720 C 287.781 89.247,287.696 89.104,287.348 88.819 C 287.014 88.545,286.911 88.381,286.814 87.966 C 286.660 87.313,286.623 87.244,286.154 86.751 C 285.871 86.455,285.733 86.203,285.648 85.824 C 285.583 85.537,285.510 85.229,285.485 85.139 C 285.461 85.049,285.291 84.887,285.109 84.780 C 284.749 84.567,284.535 84.225,284.428 83.691 C 284.270 82.907,284.165 82.617,284.037 82.617 C 283.682 82.617,283.322 82.131,283.151 81.421 C 282.952 80.593,282.852 80.371,282.680 80.371 C 282.436 80.371,282.124 79.909,281.947 79.289 C 281.817 78.830,281.660 78.546,281.362 78.230 C 280.991 77.835,280.905 77.647,280.721 76.831 C 280.683 76.663,280.519 76.474,280.285 76.326 C 279.878 76.068,279.653 75.635,279.541 74.890 C 279.459 74.342,279.423 74.286,279.030 74.084 C 278.660 73.895,278.509 73.626,278.273 72.738 C 278.126 72.182,278.049 72.054,277.747 71.859 C 277.452 71.669,277.355 71.514,277.169 70.934 C 277.011 70.444,276.832 70.119,276.562 69.836 C 276.338 69.600,276.134 69.262,276.069 69.019 C 275.894 68.363,275.699 67.969,275.547 67.969 C 275.265 67.969,274.918 67.392,274.752 66.648 C 274.601 65.968,274.564 65.902,274.265 65.777 C 273.850 65.603,273.700 65.354,273.476 64.461 C 273.317 63.831,273.251 63.711,272.971 63.545 C 272.611 63.333,272.422 63.020,272.323 62.476 C 272.278 62.225,272.122 61.977,271.830 61.689 C 271.506 61.369,271.365 61.129,271.243 60.688 C 271.012 59.852,270.983 59.799,270.605 59.547 C 270.199 59.276,270.058 59.009,269.896 58.208 C 269.785 57.659,269.742 57.591,269.385 57.392 C 269.042 57.202,268.968 57.093,268.779 56.514 C 268.635 56.070,268.420 55.684,268.125 55.339 C 267.824 54.987,267.652 54.674,267.579 54.349 C 267.445 53.754,267.374 53.627,267.091 53.484 C 266.737 53.304,266.519 52.937,266.343 52.218 C 266.198 51.625,266.139 51.528,265.781 51.289 C 265.430 51.055,265.351 50.929,265.137 50.267 C 264.941 49.662,264.811 49.437,264.484 49.138 C 264.259 48.932,264.046 48.636,264.011 48.479 C 263.852 47.765,263.746 47.564,263.433 47.379 C 263.109 47.188,262.695 46.359,262.695 45.903 C 262.695 45.569,262.578 45.404,262.207 45.215 C 261.808 45.011,261.640 44.696,261.414 43.726 C 261.342 43.417,261.231 43.164,261.167 43.164 C 260.880 43.164,260.466 42.663,260.348 42.175 C 260.261 41.809,260.116 41.561,259.810 41.250 C 259.405 40.839,259.309 40.643,259.084 39.771 C 258.997 39.435,258.905 39.319,258.602 39.165 C 258.188 38.953,258.013 38.619,257.817 37.671 C 257.722 37.212,257.659 37.099,257.473 37.052 C 257.124 36.965,256.874 36.629,256.698 36.011 C 256.592 35.640,256.458 35.398,256.301 35.295 C 256.003 35.100,255.704 34.598,255.565 34.059 C 255.506 33.830,255.435 33.566,255.408 33.473 C 255.381 33.380,255.217 33.237,255.043 33.154 C 254.643 32.965,254.464 32.650,254.251 31.763 C 254.146 31.329,254.031 31.055,253.952 31.055 C 253.651 31.055,253.256 30.571,253.100 30.009 C 252.984 29.593,252.862 29.381,252.643 29.220 C 252.287 28.956,252.002 28.427,251.907 27.852 C 251.849 27.505,251.771 27.391,251.458 27.193 C 250.969 26.884,250.841 26.668,250.636 25.806 C 250.532 25.371,250.418 25.098,250.339 25.098 C 250.036 25.098,249.643 24.614,249.486 24.049 C 249.366 23.619,249.262 23.441,249.068 23.338 C 248.762 23.174,248.371 22.447,248.279 21.870 C 248.227 21.547,248.150 21.425,247.919 21.301 C 247.428 21.036,247.282 20.837,247.070 20.139 C 246.909 19.609,246.778 19.386,246.437 19.065 C 246.133 18.779,245.987 18.552,245.940 18.290 C 245.846 17.773,245.741 17.603,245.408 17.431 C 245.067 17.254,244.796 16.760,244.630 16.014 C 244.522 15.528,244.475 15.461,244.144 15.319 C 243.821 15.182,243.745 15.080,243.513 14.471 C 243.341 14.022,243.182 13.757,243.060 13.719 C 242.805 13.638,242.415 12.948,242.271 12.323 C 242.163 11.857,242.116 11.794,241.748 11.631 C 241.465 11.506,241.309 11.360,241.228 11.146 C 241.165 10.978,241.066 10.714,241.009 10.560 C 240.952 10.405,240.799 10.231,240.671 10.173 C 240.542 10.114,240.331 9.900,240.201 9.696 C 239.776 9.029,238.884 8.200,238.328 7.954 C 237.950 7.787,237.730 7.610,237.557 7.338 L 237.316 6.956 236.212 6.889 C 235.604 6.852,234.624 6.780,234.033 6.730 C 233.442 6.679,231.926 6.572,230.664 6.492 C 228.105 6.330,224.962 6.070,224.365 5.969 C 224.013 5.910,223.972 5.873,223.944 5.589 L 223.913 5.273 202.393 5.273 L 180.872 5.273 180.841 5.591 M231.539 12.058 C 232.278 12.440,232.253 13.585,231.497 14.007 C 231.126 14.214,231.104 14.254,230.956 14.997 C 230.780 15.887,230.634 16.159,230.248 16.319 C 229.906 16.461,229.829 16.608,229.743 17.284 C 229.652 17.998,229.442 18.412,229.047 18.656 C 228.696 18.873,228.684 18.897,228.512 19.775 C 228.370 20.499,228.205 20.791,227.781 21.069 C 227.532 21.231,227.437 21.375,227.394 21.653 C 227.272 22.450,227.043 23.039,226.779 23.237 C 226.218 23.657,226.286 23.521,226.066 24.657 C 225.970 25.157,225.886 25.307,225.498 25.684 C 225.089 26.080,225.030 26.194,224.917 26.807 C 224.779 27.556,224.509 28.082,224.214 28.175 C 223.962 28.255,223.835 28.511,223.732 29.140 C 223.610 29.892,223.388 30.353,223.056 30.543 C 222.740 30.724,222.559 31.031,222.559 31.383 C 222.559 31.939,222.260 32.605,221.865 32.934 C 221.500 33.237,221.456 33.326,221.322 34.037 C 221.155 34.922,220.987 35.257,220.596 35.488 C 220.326 35.648,220.119 36.121,220.118 36.582 C 220.117 37.016,219.888 37.466,219.478 37.843 C 219.082 38.207,219.044 38.287,218.939 38.966 C 218.800 39.867,218.640 40.191,218.207 40.446 C 218.022 40.555,217.870 40.695,217.868 40.757 C 217.837 41.784,217.447 42.780,217.004 42.964 C 216.755 43.067,216.720 43.150,216.575 43.969 C 216.410 44.900,216.217 45.278,215.806 45.480 C 215.597 45.583,215.541 45.724,215.386 46.549 C 215.220 47.428,215.175 47.533,214.786 47.949 C 214.491 48.264,214.330 48.544,214.249 48.882 C 213.921 50.248,213.859 50.399,213.468 50.778 C 213.125 51.112,213.057 51.253,212.922 51.922 C 212.737 52.841,212.590 53.150,212.205 53.435 C 211.914 53.650,211.720 54.113,211.719 54.597 C 211.718 55.212,211.428 55.856,211.041 56.100 C 210.688 56.323,210.661 56.375,210.594 56.953 C 210.484 57.897,210.306 58.369,209.885 58.825 C 209.546 59.193,209.482 59.343,209.343 60.088 C 209.161 61.074,208.994 61.438,208.591 61.736 C 208.282 61.965,208.170 62.269,208.060 63.182 C 207.974 63.893,207.766 64.306,207.379 64.534 C 207.098 64.700,207.054 64.785,206.997 65.269 C 206.860 66.431,206.735 66.794,206.302 67.282 C 205.930 67.700,205.868 67.843,205.729 68.591 C 205.547 69.570,205.381 69.935,204.977 70.233 C 204.211 70.799,204.216 74.458,204.983 74.855 C 205.389 75.065,205.550 75.355,205.719 76.183 C 205.808 76.619,205.929 76.943,206.025 77.002 C 206.553 77.325,206.743 77.603,206.894 78.271 C 207.095 79.163,207.192 79.395,207.362 79.395 C 207.640 79.395,207.988 79.968,208.165 80.717 C 208.310 81.334,208.390 81.495,208.638 81.669 C 209.072 81.973,209.150 82.106,209.334 82.851 C 209.469 83.397,209.588 83.621,209.959 84.031 C 210.336 84.447,210.438 84.643,210.535 85.133 C 210.631 85.624,210.729 85.811,211.088 86.191 C 211.362 86.481,211.561 86.802,211.623 87.052 C 211.860 88.016,211.925 88.174,212.109 88.232 C 212.420 88.331,212.685 88.803,212.888 89.616 C 213.050 90.266,213.131 90.423,213.428 90.662 C 213.823 90.980,214.029 91.401,214.118 92.074 C 214.187 92.587,214.282 92.747,214.671 92.995 C 215.001 93.207,215.210 93.599,215.289 94.155 C 215.400 94.938,215.518 95.187,215.838 95.320 C 216.204 95.471,216.458 95.996,216.556 96.808 C 216.621 97.334,216.654 97.394,217.012 97.620 C 217.451 97.897,217.616 98.226,217.776 99.142 C 217.876 99.720,217.922 99.805,218.244 100.013 C 218.684 100.298,218.840 100.611,218.975 101.484 C 219.066 102.073,219.115 102.181,219.346 102.300 C 219.755 102.512,219.998 102.888,220.116 103.497 C 220.176 103.803,220.248 104.175,220.277 104.323 C 220.313 104.514,220.426 104.635,220.656 104.731 C 221.072 104.905,221.237 105.231,221.390 106.182 C 221.508 106.915,221.526 106.951,221.870 107.126 C 222.279 107.335,222.394 107.542,222.551 108.355 C 222.613 108.674,222.682 109.023,222.705 109.131 C 222.727 109.238,222.899 109.409,223.086 109.509 C 223.475 109.719,223.643 110.070,223.827 111.063 C 223.933 111.636,223.987 111.746,224.230 111.871 C 224.639 112.083,224.816 112.415,224.995 113.311 C 225.122 113.945,225.199 114.132,225.369 114.217 C 225.908 114.485,225.981 114.643,226.312 116.262 C 226.354 116.467,226.464 116.597,226.674 116.690 C 227.035 116.850,227.268 117.335,227.443 118.293 C 227.538 118.818,227.608 118.977,227.771 119.040 C 228.218 119.213,228.424 119.576,228.592 120.488 C 228.746 121.324,228.772 121.380,229.070 121.522 C 229.451 121.703,229.628 122.025,229.778 122.803 C 229.840 123.125,229.910 123.482,229.934 123.596 C 229.959 123.712,230.110 123.858,230.277 123.927 C 230.665 124.088,230.849 124.461,231.017 125.423 C 231.092 125.854,231.165 126.211,231.178 126.218 C 231.191 126.225,231.320 126.281,231.465 126.343 C 231.853 126.510,232.025 126.842,232.210 127.780 C 232.350 128.490,232.413 128.640,232.615 128.741 C 233.020 128.942,233.267 129.427,233.399 130.277 C 233.515 131.026,233.540 131.079,233.837 131.220 C 234.247 131.416,234.431 131.745,234.564 132.520 C 234.737 133.534,234.749 133.563,235.039 133.683 C 235.428 133.844,235.647 134.275,235.781 135.139 C 235.888 135.828,235.923 135.904,236.234 136.114 C 236.673 136.408,236.810 136.684,236.966 137.586 C 237.082 138.250,237.131 138.355,237.448 138.609 C 237.895 138.968,238.059 139.287,238.137 139.951 C 238.218 140.645,238.358 140.996,238.582 141.067 C 238.865 141.157,239.149 141.628,239.265 142.202 C 239.480 143.269,239.548 143.432,239.884 143.688 C 240.244 143.962,240.450 144.421,240.630 145.349 C 240.715 145.787,240.829 146.019,241.109 146.326 C 241.596 146.860,241.649 146.977,241.846 147.948 C 242.000 148.704,242.051 148.811,242.432 149.168 C 242.815 149.529,242.858 149.619,242.963 150.293 C 243.149 151.484,243.157 151.506,243.451 151.675 C 243.937 151.953,244.056 152.255,244.207 153.589 C 244.321 154.601,244.402 154.938,244.635 155.392 C 244.994 156.089,244.994 156.314,244.634 157.011 C 244.404 157.457,244.324 157.782,244.237 158.643 C 244.098 160.002,243.933 160.478,243.511 160.739 C 243.205 160.928,243.177 160.994,243.017 161.891 C 242.856 162.797,242.829 162.860,242.431 163.234 C 242.050 163.592,242.000 163.697,241.848 164.455 C 241.673 165.329,241.390 165.926,240.985 166.276 C 240.814 166.423,240.706 166.661,240.629 167.057 C 240.451 167.974,240.244 168.435,239.871 168.742 C 239.564 168.996,239.504 169.124,239.345 169.871 C 239.161 170.737,238.902 171.234,238.582 171.335 C 238.359 171.406,238.218 171.758,238.138 172.442 C 238.060 173.113,237.840 173.563,237.490 173.770 C 237.132 173.981,237.052 174.142,236.970 174.805 C 236.881 175.533,236.639 176.022,236.234 176.291 C 235.922 176.499,235.888 176.573,235.781 177.263 C 235.647 178.127,235.428 178.558,235.039 178.719 C 234.750 178.839,234.737 178.869,234.565 179.879 C 234.427 180.681,234.269 180.983,233.857 181.226 C 233.553 181.405,233.518 181.478,233.399 182.173 C 233.260 182.988,233.000 183.475,232.604 183.665 C 232.390 183.768,232.337 183.888,232.239 184.480 C 232.081 185.436,231.907 185.805,231.499 186.045 C 231.308 186.158,231.152 186.264,231.152 186.280 C 231.152 187.117,230.677 188.310,230.277 188.475 C 230.109 188.545,229.960 188.690,229.936 188.806 C 229.574 190.587,229.522 190.703,228.951 190.996 C 228.798 191.075,228.715 191.292,228.588 191.951 C 228.419 192.829,228.207 193.194,227.771 193.363 C 227.608 193.426,227.538 193.584,227.443 194.109 C 227.268 195.067,227.035 195.553,226.674 195.713 C 226.464 195.806,226.354 195.935,226.312 196.141 C 225.981 197.759,225.908 197.917,225.369 198.186 C 225.199 198.271,225.122 198.457,224.995 199.092 C 224.816 199.987,224.639 200.320,224.231 200.531 C 223.996 200.653,223.935 200.769,223.836 201.289 C 223.627 202.394,223.356 202.876,222.848 203.045 C 222.788 203.065,222.677 203.409,222.601 203.811 C 222.409 204.827,222.293 205.060,221.875 205.273 C 221.525 205.452,221.509 205.484,221.390 206.220 C 221.237 207.171,221.072 207.498,220.656 207.672 C 220.426 207.768,220.313 207.888,220.277 208.079 C 220.248 208.228,220.176 208.600,220.116 208.905 C 219.997 209.516,219.755 209.891,219.340 210.105 C 219.113 210.223,219.059 210.328,219.004 210.762 C 218.882 211.721,218.547 212.402,218.198 212.402 C 217.994 212.402,217.801 212.801,217.730 213.371 C 217.635 214.141,217.449 214.507,217.012 214.783 C 216.654 215.008,216.621 215.068,216.556 215.594 C 216.458 216.406,216.204 216.931,215.838 217.083 C 215.525 217.212,215.412 217.442,215.283 218.213 C 215.184 218.811,214.956 219.210,214.594 219.424 C 214.389 219.545,214.241 219.722,214.204 219.892 C 213.983 220.892,213.845 221.202,213.442 221.611 C 213.094 221.964,212.999 222.143,212.904 222.629 C 212.810 223.108,212.701 223.317,212.317 223.756 C 211.927 224.202,211.826 224.399,211.724 224.913 C 211.621 225.440,211.537 225.598,211.164 225.971 C 210.792 226.344,210.698 226.520,210.542 227.143 C 210.384 227.774,210.300 227.931,209.935 228.269 C 209.580 228.598,209.491 228.757,209.388 229.248 C 209.199 230.154,209.087 230.364,208.689 230.568 C 208.347 230.742,208.317 230.795,208.203 231.417 C 208.037 232.329,207.850 232.691,207.438 232.902 C 207.111 233.070,207.080 233.129,206.916 233.889 C 206.736 234.726,206.585 234.982,206.130 235.217 C 205.983 235.293,205.841 235.453,205.816 235.573 C 205.790 235.693,205.719 236.053,205.657 236.374 C 205.547 236.941,205.388 237.169,204.753 237.671 C 204.668 237.738,204.571 237.957,204.536 238.159 C 204.381 239.067,204.273 239.312,203.850 239.707 C 203.504 240.031,203.401 240.208,203.313 240.635 C 203.183 241.261,202.833 241.905,202.508 242.118 C 202.338 242.230,202.228 242.455,202.107 242.938 C 201.973 243.477,201.860 243.687,201.515 244.043 C 201.177 244.391,201.055 244.614,200.928 245.117 C 200.731 245.894,200.589 246.126,200.214 246.281 C 199.962 246.386,199.910 246.477,199.807 247.000 C 199.616 247.970,199.435 248.325,199.023 248.535 C 198.679 248.711,198.649 248.764,198.534 249.386 C 198.375 250.246,198.221 250.536,197.770 250.820 C 197.432 251.033,197.391 251.109,197.279 251.713 C 197.127 252.540,196.951 252.886,196.583 253.076 C 196.240 253.253,196.142 253.423,196.056 253.988 C 195.969 254.558,195.672 255.115,195.325 255.363 C 195.115 255.512,195.007 255.702,194.919 256.079 C 194.764 256.739,194.674 256.904,194.235 257.339 C 193.949 257.622,193.837 257.842,193.703 258.390 C 193.536 259.071,193.169 259.570,192.835 259.570 C 192.766 259.570,192.648 259.902,192.549 260.370 C 192.352 261.308,192.192 261.588,191.751 261.773 C 191.451 261.898,191.419 261.956,191.314 262.561 C 191.169 263.391,190.990 263.733,190.574 263.979 C 190.224 264.186,190.205 264.222,190.038 264.990 C 189.914 265.560,189.544 266.169,189.268 266.257 C 189.083 266.315,189.028 266.439,188.783 267.341 C 188.723 267.561,188.497 267.930,188.277 268.169 C 187.979 268.491,187.832 268.770,187.692 269.275 C 187.489 270.008,187.316 270.264,186.967 270.352 C 186.775 270.400,186.709 270.539,186.524 271.289 C 186.304 272.176,185.976 272.656,185.590 272.656 C 185.450 272.656,185.436 272.698,185.255 273.635 C 185.127 274.303,184.846 274.781,184.537 274.858 C 184.260 274.928,184.119 275.184,184.038 275.766 C 183.956 276.357,183.645 276.922,183.304 277.098 C 183.036 277.237,182.815 277.695,182.813 278.116 C 182.812 278.325,182.375 279.025,182.095 279.267 C 181.959 279.385,181.798 279.670,181.737 279.902 C 181.552 280.609,181.319 280.997,180.992 281.141 C 180.720 281.261,180.671 281.346,180.568 281.870 C 180.378 282.833,180.196 283.189,179.785 283.399 C 179.441 283.574,179.410 283.627,179.296 284.249 C 179.136 285.112,178.982 285.399,178.525 285.687 C 178.184 285.903,178.139 285.982,178.031 286.555 C 177.894 287.280,177.641 287.751,177.306 287.903 C 177.052 288.019,176.855 288.364,176.855 288.694 C 176.855 289.008,176.484 289.712,176.186 289.964 C 175.918 290.189,175.794 290.446,175.595 291.181 C 175.486 291.582,175.106 291.992,174.844 291.992 C 174.725 291.992,174.641 292.215,174.455 293.018 C 174.335 293.532,174.126 293.842,173.730 294.092 C 173.485 294.247,173.322 294.434,173.284 294.605 C 173.138 295.264,173.010 295.522,172.641 295.902 C 172.415 296.136,172.186 296.501,172.102 296.763 C 171.866 297.502,171.769 297.638,171.337 297.842 C 170.982 298.009,170.917 298.087,170.864 298.416 C 170.762 299.057,170.213 299.660,169.028 300.433 L 168.671 300.665 168.330 300.353 C 167.636 299.718,167.684 298.832,168.433 298.450 C 168.803 298.261,168.819 298.231,168.972 297.454 C 169.128 296.661,169.466 296.094,169.782 296.094 C 169.926 296.094,170.084 295.696,170.171 295.117 C 170.271 294.445,170.446 294.108,170.867 293.775 C 171.200 293.511,171.267 293.391,171.362 292.882 C 171.506 292.107,171.744 291.624,172.064 291.458 C 172.348 291.312,172.559 290.941,172.559 290.589 C 172.559 290.148,172.872 289.451,173.189 289.184 C 173.577 288.858,173.684 288.657,173.770 288.086 C 173.860 287.491,174.170 286.876,174.457 286.722 C 174.730 286.576,174.863 286.293,174.997 285.571 C 175.117 284.926,175.325 284.520,175.642 284.313 C 175.933 284.122,176.172 283.698,176.172 283.372 C 176.172 282.929,176.481 282.231,176.791 281.972 C 177.195 281.635,177.243 281.541,177.400 280.793 C 177.546 280.092,177.845 279.532,178.119 279.445 C 178.333 279.377,178.464 279.068,178.618 278.271 C 178.747 277.603,179.023 277.089,179.302 277.000 C 179.564 276.917,179.662 276.700,179.785 275.930 C 179.914 275.121,180.101 274.741,180.474 274.528 C 180.795 274.344,180.914 274.090,181.008 273.389 C 181.099 272.706,181.285 272.309,181.608 272.109 C 181.999 271.867,182.129 271.683,182.129 271.373 C 182.129 270.504,182.580 269.590,183.091 269.421 C 183.175 269.394,183.270 269.062,183.351 268.513 C 183.483 267.620,183.670 267.233,184.069 267.031 C 184.372 266.877,184.358 266.909,184.528 266.014 C 184.710 265.052,184.855 264.737,185.245 264.459 C 185.417 264.337,185.558 264.129,185.597 263.939 C 185.903 262.453,185.944 262.342,186.384 261.839 C 186.765 261.404,186.843 261.237,186.966 260.597 C 187.135 259.710,187.275 259.423,187.728 259.023 C 187.971 258.809,188.089 258.610,188.130 258.340 C 188.332 257.034,188.638 256.348,189.019 256.348 C 189.166 256.348,189.302 255.898,189.400 255.087 C 189.480 254.429,189.655 254.083,190.070 253.767 C 190.364 253.543,190.406 253.445,190.522 252.712 C 190.680 251.714,190.807 251.399,191.203 251.025 C 191.582 250.667,191.667 250.469,191.799 249.645 C 191.923 248.867,192.210 248.272,192.530 248.126 C 192.805 248.001,192.926 247.666,193.016 246.785 C 193.089 246.067,193.363 245.453,193.651 245.362 C 193.931 245.273,194.010 245.076,194.143 244.139 C 194.276 243.193,194.552 242.549,194.941 242.271 C 195.698 241.733,195.677 237.911,194.916 237.595 C 194.559 237.448,194.285 236.952,194.185 236.277 C 194.081 235.569,194.025 235.464,193.651 235.277 C 193.276 235.088,193.050 234.626,192.870 233.683 C 192.778 233.198,192.729 233.120,192.423 232.974 C 192.032 232.788,191.876 232.484,191.694 231.559 C 191.586 231.010,191.532 230.914,191.206 230.698 C 190.827 230.447,190.733 230.277,190.518 229.445 C 190.439 229.142,190.256 228.810,190.034 228.566 C 189.596 228.086,189.512 227.925,189.357 227.263 C 189.269 226.889,189.133 226.642,188.873 226.384 C 188.507 226.022,188.246 225.452,188.137 224.780 C 188.104 224.578,188.008 224.359,187.923 224.292 C 187.477 223.939,187.224 223.599,187.126 223.222 C 187.065 222.992,186.971 222.620,186.915 222.397 C 186.838 222.089,186.730 221.941,186.468 221.787 C 186.094 221.566,185.899 221.195,185.796 220.508 C 185.699 219.859,185.562 219.570,185.296 219.448 C 184.946 219.289,184.695 218.806,184.567 218.046 C 184.461 217.420,184.427 217.357,184.077 217.135 C 183.596 216.832,183.499 216.642,183.359 215.732 C 183.260 215.095,183.210 214.974,183.001 214.873 C 182.506 214.635,182.323 214.321,182.160 213.437 C 182.009 212.612,181.994 212.583,181.641 212.403 C 181.224 212.190,181.107 211.955,180.917 210.956 C 180.843 210.563,180.767 210.231,180.747 210.219 C 180.728 210.206,180.594 210.145,180.450 210.083 C 180.060 209.916,179.890 209.586,179.721 208.665 C 179.577 207.882,179.552 207.831,179.242 207.683 C 178.824 207.484,178.665 207.167,178.506 206.218 C 178.385 205.497,178.360 205.447,178.062 205.323 C 177.642 205.147,177.148 203.936,177.148 203.079 C 177.148 203.064,177.011 202.994,176.842 202.924 C 176.477 202.773,176.250 202.304,176.074 201.339 C 175.973 200.784,175.912 200.655,175.696 200.544 C 175.253 200.314,175.114 200.071,174.913 199.170 C 174.806 198.689,174.670 198.279,174.611 198.259 C 174.161 198.109,173.930 197.726,173.715 196.772 C 173.568 196.119,173.452 195.801,173.362 195.801 C 173.001 195.801,172.692 195.273,172.513 194.353 C 172.368 193.607,172.299 193.427,172.130 193.362 C 171.684 193.190,171.478 192.825,171.310 191.914 C 171.156 191.078,171.130 191.023,170.832 190.880 C 170.423 190.685,170.240 190.316,170.097 189.397 C 169.988 188.693,169.961 188.637,169.623 188.424 C 169.201 188.158,168.988 187.693,168.889 186.823 C 168.825 186.251,168.799 186.202,168.436 185.973 C 168.002 185.699,167.825 185.349,167.728 184.570 C 167.630 183.779,167.597 183.710,167.238 183.539 C 166.857 183.359,166.646 182.968,166.553 182.275 C 166.444 181.459,166.333 181.211,166.014 181.070 C 165.628 180.899,165.478 180.588,165.327 179.651 C 165.212 178.934,165.181 178.868,164.874 178.687 C 164.463 178.444,164.304 178.144,164.163 177.340 C 164.004 176.432,163.981 176.380,163.667 176.218 C 163.291 176.024,163.092 175.614,162.936 174.717 C 162.821 174.054,162.771 173.950,162.454 173.695 C 162.066 173.384,161.874 173.006,161.771 172.353 C 161.661 171.659,161.515 171.336,161.236 171.176 C 160.913 170.991,160.661 170.479,160.546 169.773 C 160.444 169.143,160.333 168.917,159.837 168.331 C 159.536 167.974,159.438 167.746,159.291 167.056 C 159.131 166.304,159.066 166.165,158.671 165.743 C 158.282 165.327,158.216 165.191,158.116 164.594 C 157.918 163.409,157.908 163.383,157.600 163.224 C 157.231 163.033,156.970 162.457,156.877 161.627 C 156.810 161.029,156.525 160.547,156.238 160.547 C 156.075 160.547,155.857 159.953,155.765 159.258 C 155.714 158.866,155.631 158.236,155.581 157.858 C 155.519 157.387,155.411 157.052,155.236 156.794 C 155.095 156.587,154.980 156.320,154.980 156.201 C 154.980 156.082,155.095 155.815,155.236 155.608 C 155.411 155.351,155.519 155.016,155.581 154.545 C 155.631 154.167,155.714 153.536,155.765 153.144 C 155.855 152.468,156.073 151.858,156.228 151.853 C 156.544 151.844,156.767 151.455,156.887 150.707 C 157.041 149.742,157.185 149.427,157.586 149.172 C 157.871 148.990,157.909 148.902,158.064 148.051 C 158.222 147.188,158.262 147.096,158.673 146.657 C 159.066 146.237,159.132 146.098,159.291 145.347 C 159.438 144.657,159.536 144.428,159.837 144.071 C 160.333 143.485,160.444 143.259,160.546 142.629 C 160.661 141.923,160.913 141.411,161.236 141.226 C 161.524 141.060,161.666 140.731,161.768 139.990 C 161.867 139.268,162.059 138.890,162.442 138.664 C 162.811 138.447,162.841 138.386,162.939 137.646 C 163.035 136.931,163.312 136.368,163.656 136.190 C 163.981 136.022,164.003 135.973,164.163 135.063 C 164.304 134.259,164.463 133.958,164.874 133.716 C 165.181 133.534,165.212 133.468,165.327 132.752 C 165.478 131.814,165.628 131.503,166.014 131.333 C 166.333 131.191,166.444 130.943,166.553 130.127 C 166.646 129.435,166.857 129.044,167.238 128.863 C 167.597 128.693,167.630 128.623,167.728 127.832 C 167.825 127.053,168.002 126.704,168.436 126.429 C 168.799 126.200,168.825 126.151,168.889 125.579 C 168.988 124.710,169.201 124.245,169.623 123.978 C 169.961 123.765,169.988 123.709,170.097 123.006 C 170.240 122.084,170.423 121.717,170.837 121.520 C 171.136 121.377,171.165 121.319,171.282 120.620 C 171.429 119.744,171.563 119.451,171.977 119.103 C 172.238 118.884,172.307 118.722,172.463 117.958 C 172.649 117.050,172.799 116.782,173.250 116.549 C 173.463 116.438,173.521 116.309,173.627 115.704 C 173.807 114.683,173.956 114.374,174.349 114.210 C 174.671 114.075,174.687 114.042,174.857 113.163 C 175.039 112.231,175.346 111.719,175.723 111.719 C 175.807 111.719,175.896 111.620,175.920 111.499 C 176.296 109.676,176.325 109.609,176.876 109.334 C 177.049 109.248,177.125 109.056,177.266 108.355 C 177.435 107.517,177.692 107.034,177.971 107.030 C 178.225 107.026,178.332 106.823,178.459 106.096 C 178.637 105.088,178.755 104.848,179.183 104.622 C 179.522 104.444,179.542 104.404,179.664 103.659 C 179.820 102.706,180.051 102.359,180.686 102.126 C 180.724 102.111,180.806 101.763,180.867 101.351 C 181.000 100.458,181.221 100.055,181.686 99.861 C 181.964 99.745,182.031 99.664,182.032 99.443 C 182.035 98.812,182.450 97.921,182.874 97.636 C 183.248 97.386,183.283 97.324,183.347 96.803 C 183.440 96.038,183.695 95.491,184.042 95.313 C 184.422 95.117,184.442 95.080,184.569 94.350 C 184.703 93.583,184.880 93.220,185.232 92.995 C 185.620 92.747,185.716 92.587,185.784 92.074 C 185.873 91.401,186.079 90.980,186.474 90.662 C 186.771 90.423,186.852 90.266,187.014 89.616 C 187.215 88.810,187.482 88.331,187.785 88.235 C 187.966 88.178,188.028 88.051,188.291 87.210 C 188.387 86.904,188.530 86.706,188.770 86.545 C 189.073 86.341,189.135 86.223,189.321 85.486 C 189.537 84.633,189.707 84.353,190.143 84.128 C 190.351 84.020,190.414 83.885,190.516 83.332 C 190.681 82.439,190.868 82.077,191.261 81.891 C 191.608 81.726,191.645 81.656,191.753 80.957 C 191.871 80.186,192.081 79.794,192.484 79.588 C 192.834 79.410,192.858 79.365,192.967 78.723 C 193.106 77.899,193.302 77.521,193.746 77.225 C 194.036 77.032,194.101 76.914,194.206 76.392 C 194.357 75.647,194.555 75.248,194.880 75.035 C 195.167 74.847,195.409 74.423,195.412 74.102 C 195.416 73.735,195.785 73.020,196.143 72.689 C 196.326 72.520,196.504 72.256,196.539 72.103 C 196.726 71.274,196.812 71.089,197.215 70.651 C 197.575 70.258,197.675 70.065,197.767 69.583 C 197.864 69.075,197.942 68.934,198.340 68.555 C 198.736 68.176,198.823 68.020,198.967 67.432 C 199.168 66.608,199.306 66.377,199.695 66.216 C 199.951 66.110,200.004 66.021,200.095 65.542 C 200.272 64.617,200.498 64.154,200.874 63.953 C 201.284 63.734,201.324 63.663,201.407 63.008 C 201.497 62.299,201.725 61.865,202.117 61.654 C 202.449 61.475,202.535 61.292,202.688 60.436 C 202.772 59.967,203.068 59.494,203.362 59.360 C 203.617 59.244,203.763 58.959,203.864 58.374 C 203.927 58.014,204.513 57.129,204.688 57.129 C 204.737 57.129,204.827 56.942,204.889 56.714 C 205.151 55.737,205.296 55.449,205.626 55.254 C 205.868 55.111,205.982 54.954,206.060 54.654 C 206.118 54.431,206.210 54.076,206.264 53.866 C 206.372 53.454,206.824 52.930,207.073 52.930 C 207.157 52.930,207.227 52.897,207.228 52.856 C 207.248 51.990,207.721 50.907,208.159 50.724 C 208.367 50.637,208.509 50.502,208.535 50.366 C 208.809 48.943,208.919 48.718,209.508 48.389 C 209.616 48.328,209.738 48.054,209.826 47.671 C 209.988 46.972,210.154 46.665,210.604 46.238 C 210.835 46.018,210.945 45.794,211.034 45.365 C 211.133 44.891,211.232 44.709,211.588 44.353 C 211.932 44.010,212.054 43.795,212.172 43.322 C 212.362 42.568,212.531 42.303,212.929 42.137 C 213.220 42.015,213.255 41.951,213.368 41.340 C 213.533 40.442,213.711 40.104,214.136 39.881 C 214.463 39.708,214.505 39.637,214.620 39.060 C 214.803 38.145,214.927 37.902,215.346 37.638 C 215.583 37.488,215.739 37.304,215.775 37.134 C 215.961 36.248,216.075 35.981,216.432 35.607 C 216.894 35.122,216.934 35.049,217.083 34.414 C 217.171 34.039,217.306 33.811,217.626 33.497 C 217.978 33.152,218.080 32.964,218.214 32.418 C 218.382 31.734,218.606 31.397,218.995 31.249 C 219.174 31.182,219.247 31.043,219.337 30.596 C 219.526 29.667,219.767 29.213,220.160 29.049 C 220.377 28.958,220.520 28.824,220.547 28.686 C 220.827 27.232,220.797 27.290,221.582 26.632 C 221.678 26.551,221.805 26.260,221.864 25.984 C 222.008 25.315,222.320 24.723,222.595 24.597 C 222.817 24.496,222.969 24.178,223.099 23.543 C 223.139 23.348,223.347 23.018,223.598 22.749 C 223.929 22.396,224.072 22.135,224.210 21.636 C 224.402 20.946,224.678 20.561,225.048 20.468 C 225.237 20.420,225.299 20.295,225.436 19.678 C 225.600 18.940,225.949 18.359,226.227 18.359 C 226.409 18.359,226.624 17.999,226.699 17.571 C 226.761 17.218,226.929 16.984,227.367 16.639 C 227.500 16.535,227.684 16.213,227.781 15.916 C 228.054 15.082,228.201 14.856,228.588 14.672 C 228.885 14.531,228.973 14.417,229.098 14.012 C 229.307 13.330,230.688 11.943,231.182 11.918 C 231.225 11.916,231.385 11.979,231.539 12.058 M0.552 350.074 C 0.526 350.115,0.391 350.793,0.251 351.580 L -0.003 353.011 0.648 354.118 C 1.005 354.727,1.434 355.510,1.601 355.859 L 1.904 356.494 1.930 377.856 L 1.955 399.219 8.351 399.219 L 14.746 399.219 14.746 391.357 L 14.746 383.495 22.727 383.520 L 30.708 383.545 34.952 391.382 L 39.196 399.219 46.220 399.219 C 51.799 399.219,53.234 399.194,53.196 399.097 C 53.171 399.030,50.810 394.954,47.950 390.039 C 45.090 385.125,42.733 381.074,42.712 381.038 C 42.691 381.002,42.949 380.807,43.285 380.606 C 48.566 377.440,51.882 371.168,51.515 365.039 C 50.915 355.022,45.313 350.628,32.471 350.097 C 29.810 349.987,0.618 349.966,0.552 350.074 M65.625 374.609 L 65.625 399.219 86.963 399.219 L 108.301 399.219 108.301 394.678 L 108.301 390.137 93.359 390.137 L 78.418 390.137 78.418 384.473 L 78.418 378.809 91.699 378.809 L 104.980 378.809 104.980 374.365 L 104.980 369.922 91.699 369.922 L 78.418 369.922 78.418 364.551 L 78.418 359.180 92.969 359.180 L 107.520 359.180 107.520 354.590 L 107.520 350.000 86.572 350.000 L 65.625 350.000 65.625 374.609 M120.215 350.071 C 120.215 350.109,120.103 350.786,119.965 351.575 L 119.716 353.008 120.506 354.373 C 120.940 355.124,121.382 355.984,121.488 356.284 C 121.676 356.822,121.680 357.199,121.680 378.025 L 121.680 399.219 127.441 399.219 L 133.203 399.219 133.227 382.962 L 133.252 366.706 133.984 367.647 C 135.968 370.197,139.634 374.435,143.467 378.613 C 144.675 379.929,148.601 384.236,152.193 388.184 C 155.784 392.131,159.518 396.227,160.489 397.286 L 162.256 399.210 167.798 399.214 L 173.340 399.219 173.340 374.609 L 173.340 350.000 167.627 350.000 L 161.915 350.000 161.890 366.310 L 161.865 382.620 161.426 382.057 C 158.433 378.221,153.515 372.703,141.213 359.380 C 138.016 355.918,134.763 352.392,133.984 351.545 L 132.568 350.005 126.392 350.002 C 122.994 350.001,120.215 350.032,120.215 350.071 M203.710 351.294 C 197.627 364.070,192.013 376.874,186.914 389.600 C 185.038 394.283,183.203 398.995,183.203 399.130 C 183.203 399.182,185.838 399.219,189.593 399.219 L 195.982 399.219 196.189 398.657 C 196.303 398.348,197.019 396.437,197.782 394.409 L 199.168 390.723 212.307 390.723 L 225.445 390.723 225.568 391.040 C 225.635 391.215,226.355 393.126,227.167 395.288 L 228.645 399.219 235.065 399.219 L 241.486 399.219 240.951 397.827 C 235.293 383.113,228.151 366.494,221.414 352.368 L 220.285 350.000 212.305 350.000 L 204.326 350.000 203.710 351.294 M247.328 350.170 C 247.301 350.265,247.180 350.939,247.058 351.668 L 246.836 352.994 247.633 354.402 C 248.071 355.177,248.508 356.008,248.604 356.250 C 248.767 356.662,248.781 357.528,248.832 370.020 C 248.891 384.543,248.866 383.888,249.456 386.219 C 251.767 395.355,260.199 399.996,274.491 400.000 C 288.756 400.003,296.749 395.591,299.070 386.433 C 299.683 384.017,299.647 385.163,299.681 366.772 L 299.712 349.999 293.484 350.024 L 287.256 350.049 287.203 366.260 C 287.145 384.099,287.187 382.892,286.561 384.565 C 285.245 388.076,281.181 389.846,274.446 389.843 C 267.539 389.839,263.457 388.028,262.200 384.408 C 261.649 382.822,261.685 383.953,261.626 366.309 L 261.572 350.049 254.475 350.024 C 247.776 350.000,247.374 350.008,247.328 350.170 M314.063 374.609 L 314.063 399.219 334.375 399.219 L 354.688 399.219 354.688 394.678 L 354.688 390.137 340.772 390.137 L 326.856 390.137 326.831 370.093 L 326.807 350.049 320.435 350.024 L 314.063 349.999 314.063 374.609 M349.284 350.065 C 349.248 350.101,349.219 352.166,349.219 354.655 L 349.219 359.180 358.740 359.180 L 368.262 359.180 368.262 379.199 L 368.262 399.219 374.658 399.219 L 381.055 399.219 381.055 379.199 L 381.055 359.180 390.527 359.180 L 400.000 359.180 400.000 354.590 L 400.000 350.000 374.674 350.000 C 360.745 350.000,349.320 350.029,349.284 350.065 M212.811 360.132 C 213.059 360.709,214.105 363.137,215.135 365.527 C 217.151 370.200,218.993 374.600,220.698 378.809 L 221.765 381.445 212.305 381.445 L 202.845 381.445 203.727 379.272 C 205.322 375.345,208.157 368.570,209.745 364.893 C 212.199 359.206,212.253 359.084,212.308 359.083 C 212.337 359.083,212.564 359.554,212.811 360.132 M32.080 359.564 C 36.802 360.245,38.640 362.433,38.443 367.139 C 38.335 369.710,37.685 371.421,36.290 372.811 C 34.627 374.468,35.050 374.414,23.820 374.414 L 14.746 374.414 14.746 366.960 C 14.746 362.860,14.779 359.472,14.819 359.431 C 14.939 359.309,31.182 359.435,32.080 359.564 " stroke="none" fill-rule="evenodd"></path></g></svg>