<svg id="svg" xmlns="http://www.w3.org/2000/svg"  width="400" height="400" viewBox="0, 0, 400,400"><g id="svgg"><path id="path0" d="M170.967 1.398 C 145.771 2.585,150.206 -1.050,126.982 37.450 C 81.743 112.448,41.205 188.944,41.044 199.618 C 40.858 211.913,111.894 343.868,142.482 388.048 L 149.102 397.610 166.583 398.683 C 200.203 400.749,248.733 398.425,252.587 394.565 C 265.456 381.680,356.630 217.158,359.243 202.106 C 360.862 192.782,327.023 127.582,276.763 43.185 C 251.157 0.187,252.581 1.594,234.665 1.594 C 226.825 1.594,214.025 1.327,206.221 1.000 C 198.417 0.674,182.553 0.853,170.967 1.398 M229.725 35.257 C 222.776 49.611,214.422 67.612,211.161 75.260 L 205.233 89.166 213.469 104.742 C 234.632 144.765,258.754 195.550,258.779 200.133 C 258.833 210.415,162.015 395.215,158.444 391.645 C 158.065 391.266,163.728 378.469,171.028 363.207 C 178.328 347.945,186.680 329.964,189.587 323.249 L 194.874 311.041 186.582 295.361 C 173.226 270.104,142.102 206.416,141.075 202.241 C 139.494 195.818,168.909 136.393,215.544 51.793 C 243.601 0.896,249.941 -6.497,229.725 35.257 " stroke="none" fill-rule="evenodd"></path></g></svg>