<svg id="svg" xmlns="http://www.w3.org/2000/svg"  width="400" height="400" viewBox="0, 0, 400,400"><g id="svgg"><path id="path0" d="M16.911 161.300 C 16.319 162.065,14.801 167.947,14.800 169.481 C 14.800 169.526,19.564 169.616,25.386 169.681 C 34.635 169.785,36.057 169.884,36.639 170.467 C 37.211 171.040,29.314 196.887,27.695 199.741 C 27.589 199.929,25.653 205.556,23.394 212.245 C 21.136 218.934,18.993 224.856,18.634 225.405 C 16.921 228.018,12.167 229.642,8.466 228.878 C 3.836 227.922,3.197 228.185,2.640 231.272 C 2.249 233.437,4.719 235.278,10.200 236.907 C 11.300 237.234,13.010 237.749,14.000 238.051 C 16.426 238.791,27.132 238.795,29.600 238.057 C 42.532 234.191,45.348 231.186,50.571 215.682 C 54.458 204.143,54.029 204.621,57.062 208.444 C 58.128 209.789,60.213 212.354,61.694 214.144 C 63.176 215.935,65.786 219.088,67.494 221.151 C 75.291 230.568,81.338 234.609,91.956 237.498 C 96.546 238.746,107.691 239.064,111.400 238.051 C 125.036 234.329,133.684 228.473,130.274 225.270 C 129.106 224.172,129.184 224.167,124.800 225.600 C 114.058 229.110,104.438 224.572,94.541 211.327 C 93.913 210.487,92.500 208.693,91.400 207.341 C 89.467 204.964,86.954 201.785,82.791 196.449 C 80.036 192.919,79.821 193.259,86.443 190.680 C 95.158 187.285,98.873 185.087,108.968 177.349 C 111.033 175.766,118.384 168.086,120.948 164.834 C 124.217 160.685,125.441 161.016,106.400 160.889 C 90.096 160.780,88.000 160.857,88.000 161.572 C 88.000 161.994,85.166 167.118,83.670 169.400 C 78.509 177.274,70.256 185.915,62.182 191.900 C 57.080 195.682,56.883 196.659,67.444 165.804 C 68.196 163.606,68.725 161.581,68.618 161.304 C 68.337 160.569,17.479 160.565,16.911 161.300 M167.357 188.687 C 167.204 189.505,167.061 190.618,167.039 191.161 C 167.006 191.993,166.703 192.224,165.110 192.630 C 157.010 194.695,152.498 207.145,158.519 210.816 C 160.413 211.971,166.482 211.931,169.235 210.747 C 171.076 209.955,171.271 209.940,171.941 210.547 C 172.787 211.312,182.151 211.527,182.605 210.791 C 182.744 210.566,183.578 207.461,184.457 203.891 C 185.337 200.321,186.300 196.415,186.597 195.210 C 187.312 192.309,187.468 192.400,181.787 192.400 L 176.821 192.400 176.200 193.599 L 175.580 194.798 174.090 193.824 C 173.271 193.287,172.105 192.728,171.500 192.581 C 170.082 192.236,170.123 191.939,171.691 191.200 C 172.531 190.805,173.073 190.190,173.281 189.400 C 173.798 187.434,173.495 187.200,170.431 187.200 L 167.636 187.200 167.357 188.687 M174.749 188.813 C 174.138 190.852,174.457 191.189,177.243 191.443 C 179.950 191.691,180.436 191.354,180.696 189.049 L 180.904 187.200 178.068 187.200 L 175.232 187.200 174.749 188.813 M241.475 188.300 C 240.963 189.190,235.971 210.147,236.156 210.628 C 236.484 211.483,246.088 211.458,246.800 210.600 C 247.455 209.811,247.921 209.842,249.800 210.800 C 255.243 213.575,262.403 211.080,265.294 205.400 C 266.625 202.785,266.633 202.787,267.559 206.245 C 269.299 212.743,285.660 213.839,291.949 207.878 C 296.691 203.383,296.852 195.234,292.242 193.047 C 283.601 188.946,270.520 192.626,267.564 199.989 C 267.434 200.313,267.225 199.451,267.100 198.075 C 266.593 192.483,260.916 190.245,254.221 192.997 C 251.336 194.183,251.349 194.193,251.917 191.137 C 252.168 189.786,252.279 188.528,252.163 188.340 C 251.904 187.921,241.715 187.883,241.475 188.300 M300.944 188.306 C 300.546 188.563,299.091 193.866,295.814 207.000 C 294.697 211.475,294.418 211.246,300.832 211.112 L 306.200 211.000 307.053 208.200 C 307.523 206.660,308.227 204.273,308.618 202.895 C 309.435 200.021,309.937 199.465,311.675 199.514 C 314.139 199.585,314.275 200.188,313.039 205.572 C 312.433 208.214,312.052 210.561,312.192 210.787 C 312.578 211.412,322.197 211.332,322.700 210.700 C 323.465 209.738,326.099 197.563,325.860 196.092 C 325.224 192.172,318.002 190.512,312.818 193.094 C 310.689 194.154,310.401 193.872,310.937 191.253 C 311.593 188.052,311.514 187.999,306.113 188.006 C 303.521 188.009,301.195 188.144,300.944 188.306 M130.099 189.130 C 129.652 189.414,128.552 193.336,125.331 206.134 C 123.978 211.510,123.713 211.244,130.292 211.111 L 135.800 211.000 136.354 209.200 C 137.704 204.820,137.927 204.746,139.870 208.031 C 141.854 211.387,141.373 211.200,148.016 211.200 C 155.201 211.200,154.983 211.549,151.600 205.466 C 148.573 200.023,148.494 200.459,153.295 196.200 C 162.268 188.240,162.218 188.800,153.950 188.800 C 147.012 188.800,147.250 188.714,143.613 192.526 C 140.464 195.825,140.058 195.782,140.766 192.219 C 141.047 190.805,141.159 189.458,141.015 189.224 C 140.707 188.726,130.870 188.641,130.099 189.130 M194.400 192.610 C 189.914 193.845,187.656 196.382,187.619 200.230 C 187.587 203.605,189.512 204.800,194.977 204.800 C 197.433 204.800,198.431 204.956,198.796 205.395 C 199.627 206.396,198.312 206.555,192.649 206.138 C 186.660 205.696,186.660 205.696,186.251 208.680 C 185.882 211.374,185.912 211.384,194.231 211.525 C 205.822 211.721,209.458 210.069,210.256 204.246 C 210.760 200.569,209.287 199.606,203.149 199.602 C 200.584 199.601,199.571 199.447,199.204 199.005 C 198.474 198.125,199.047 198.023,205.360 197.904 L 210.919 197.800 211.606 195.290 C 212.098 193.491,212.166 192.702,211.846 192.504 C 210.867 191.897,196.679 191.983,194.400 192.610 M221.000 192.264 C 215.641 193.413,212.831 196.151,212.809 200.246 C 212.791 203.530,214.914 204.794,220.451 204.798 C 222.587 204.799,223.642 204.969,223.970 205.364 C 224.793 206.356,223.759 206.500,218.269 206.158 C 215.371 205.977,212.828 205.823,212.618 205.815 C 211.962 205.789,211.020 210.380,211.569 210.930 C 212.359 211.722,226.604 211.795,229.269 211.021 C 233.231 209.869,235.600 207.049,235.600 203.484 C 235.600 200.360,234.939 199.944,229.509 199.651 C 226.955 199.513,224.743 199.277,224.593 199.127 C 223.752 198.284,225.224 198.000,230.434 198.000 L 236.020 198.000 236.427 196.928 C 236.652 196.338,236.938 195.106,237.064 194.189 L 237.292 192.522 235.146 192.265 C 232.820 191.985,222.303 191.985,221.000 192.264 M342.266 192.985 C 340.449 193.952,340.404 193.956,339.992 193.185 C 339.612 192.476,339.138 192.401,335.086 192.406 C 329.739 192.413,329.785 192.390,329.052 195.414 C 328.734 196.726,327.994 199.600,327.408 201.800 C 324.621 212.256,324.243 211.200,330.775 211.200 C 336.602 211.200,336.592 211.205,337.188 208.063 C 337.928 204.162,339.497 202.800,343.254 202.800 C 345.003 202.800,345.953 202.604,346.469 202.138 C 347.320 201.368,347.292 201.269,347.376 205.351 C 347.487 210.716,349.918 211.842,360.653 211.501 C 368.202 211.261,370.063 210.706,371.926 208.143 C 373.630 205.796,373.717 205.834,367.858 206.410 C 362.596 206.927,360.399 206.762,359.591 205.789 C 358.362 204.308,359.675 204.000,367.218 204.000 L 374.338 204.000 374.815 202.555 C 376.834 196.437,373.256 192.791,364.921 192.472 C 357.445 192.186,353.333 193.430,350.076 196.964 C 347.731 199.508,347.387 199.049,348.612 195.010 C 349.445 192.265,349.256 192.000,346.472 192.000 C 344.740 192.000,343.630 192.260,342.266 192.985 M392.148 192.576 C 391.459 192.876,390.774 193.319,390.624 193.560 C 390.186 194.270,389.310 194.065,389.084 193.200 C 388.818 192.181,380.066 191.957,379.243 192.949 C 378.415 193.946,374.234 209.791,374.569 210.663 C 374.854 211.406,384.918 211.440,385.485 210.700 C 385.696 210.425,386.100 209.120,386.385 207.800 C 387.154 204.229,388.791 202.802,392.128 202.794 C 393.488 202.791,394.840 202.636,395.134 202.450 C 395.738 202.066,398.497 192.880,398.167 192.347 C 397.833 191.806,393.542 191.970,392.148 192.576 M365.606 197.525 C 367.394 198.972,366.393 200.000,363.197 200.000 C 360.346 200.000,359.816 199.746,360.259 198.592 C 360.859 197.026,364.174 196.365,365.606 197.525 M284.400 199.200 C 286.559 201.359,283.945 206.000,280.570 206.000 C 277.591 206.000,277.003 202.503,279.553 199.953 C 281.346 198.160,283.089 197.889,284.400 199.200 M173.111 199.423 C 175.359 200.997,173.025 206.000,170.042 206.000 C 167.852 206.000,166.942 203.633,168.198 201.204 C 169.360 198.958,171.394 198.220,173.111 199.423 M254.426 199.214 C 255.963 200.036,255.125 203.966,253.113 205.376 C 251.192 206.722,248.800 205.692,248.800 203.518 C 248.800 200.370,252.005 197.918,254.426 199.214 M347.638 200.922 C 347.115 201.445,347.042 200.866,347.488 199.733 C 347.766 199.026,347.782 199.026,347.926 199.742 C 348.008 200.151,347.878 200.682,347.638 200.922 " stroke="none" fill-rule="evenodd"></path></g></svg>