<?xml version="1.0" encoding="UTF-8" standalone="no"?>
<svg
   xmlns="http://www.w3.org/2000/svg"
   version="1.1"
   viewBox="0, 0, 400,400"
   height="400"
   width="400"
   id="svg">
  <g
     id="svgg">
    <path
       style="fill-rule:evenodd;stroke:none;stroke-width:3.06150818"
       d="m 47.235977,82.133725 c -1.812413,2.342054 -6.459782,20.349845 -6.462844,25.046195 0,0.13777 14.585026,0.41331 32.409127,0.61231 28.31589,0.31839 32.66935,0.62148 34.45115,2.40634 1.75118,1.75425 -22.425546,80.88505 -27.382128,89.62259 -0.324519,0.57557 -6.251599,17.80267 -13.167547,38.2811 -6.912885,20.47843 -13.473697,38.60868 -14.572779,40.28945 -5.244364,7.99972 -19.798774,12.97161 -31.129416,10.63262 -14.1747831,-2.9268 -16.1310868,-2.12163 -17.8363469,7.32925 -1.1970498,6.62817 6.3648756,12.2644 23.1450019,17.2516 3.36766,1.00111 8.602839,2.57779 11.633732,3.50237 7.427219,2.26551 40.203726,2.27776 47.759529,0.0184 39.591424,-11.83579 48.212634,-21.03562 64.202894,-68.50124 11.90008,-35.32675 10.58669,-33.86335 19.87225,-22.1592 3.26356,4.11773 9.64681,11.9705 14.1809,17.4506 4.53716,5.48316 12.52769,15.13609 17.75675,21.45199 23.87058,28.83022 42.38352,41.20177 74.89061,50.04647 14.05233,3.82076 48.17284,4.79432 59.52797,1.69302 41.74673,-11.39494 68.22265,-29.32313 57.78291,-39.12914 -3.57584,-3.36154 -3.33705,-3.37685 -16.7587,1.0103 -32.88672,10.74589 -62.33843,-3.14723 -92.63818,-43.69691 -1.92262,-2.57167 -6.24854,-8.06401 -9.61619,-12.20317 -5.9179,-7.27721 -13.61147,-17.00974 -26.35653,-33.34595 -8.43445,-10.80713 -9.09268,-9.76621 11.18063,-17.66184 26.68104,-10.39382 38.05455,-17.12302 68.96047,-40.81297 6.32202,-4.84637 28.82716,-28.35875 36.67687,-38.314775 10.00807,-12.702197 13.75536,-11.688838 -44.53882,-12.07765 -49.91483,-0.333704 -56.33175,-0.09797 -56.33175,2.09101 0,1.291957 -8.67632,16.979125 -13.25633,23.965485 -15.80045,24.10632 -41.06707,50.56081 -65.78569,68.88394 -15.61982,11.57862 -16.22293,14.56972 16.10965,-79.893122 2.30226,-6.729195 3.9218,-12.928749 3.59421,-13.776787 C 204.6771,79.895763 48.974914,79.883517 47.235977,82.133725"
       id="path0" />
  </g>
</svg>
