<?xml version="1.0" encoding="UTF-8" standalone="no"?>
<svg
   xmlns="http://www.w3.org/2000/svg"
   version="1.1"
   viewBox="0, 0, 400,400"
   height="400"
   width="400"
   id="svg">
  <g
     id="svgg">
    <path
       style="fill-rule:evenodd;stroke:none"
       d="M 72.305,4.429 C 71.923,4.652 71.427,5.177 71.202,5.595 70.531755,143.97006 70.790248,235.56078 70.787,392.2 l 1.029,0.9 1.029,0.9 h 51.108 51.108 l 0.869,-0.926 0.87,-0.926 0.006,-75.774 c 0.006,-81.217 -0.106,-76.88 2.036,-78.47 0.942,-0.7 1.795,-0.777 8.947,-0.813 6.541,-0.033 8.037,-0.148 8.664,-0.665 0.906,-0.748 1.253,-91.534 0.356,-93.21 -0.536,-1 0.164,-0.926 -9.209,-0.983 -8.215,-0.051 -9.108,-0.223 -10.091,-1.942 -0.641,-1.122 -0.619,1.267 -0.691,-72.652 C 176.754,2.957 176.811,4.95 174.982,4.248 173.834,3.808 73.067,3.985 72.305,4.429 M 221.955,4.6 c -0.574,0.312 -1.25,1.07 -1.5,1.684 -0.34,0.831 -0.431,50.233 -0.356,193.451 l 0.101,192.334 1.122,0.966 1.123,0.965 h 50.923 c 50.913,0 50.924,0 51.978,-0.829 l 1.054,-0.829 V 199.153 5.964 L 325.418,4.982 324.436,4 273.718,4.016 C 230.692,4.03 222.842,4.118 221.955,4.6"
       id="path0" />
  </g>
</svg>
