<svg id="svg" xmlns="http://www.w3.org/2000/svg"  width="400" height="400" viewBox="0, 0, 400,400"><g id="svgg"><path id="path0" d="M46.575 159.689 C 45.696 159.789,43.642 160.266,42.009 160.749 L 39.041 161.628 19.521 196.555 L 0.000 231.482 0.000 234.832 C 0.000 238.323,0.289 239.025,2.272 240.345 C 3.318 241.042,16.646 241.096,179.669 241.066 L 355.936 241.034 358.324 240.094 C 361.769 238.738,363.560 236.869,366.117 231.963 C 367.361 229.578,369.407 225.674,370.663 223.288 C 375.681 213.760,382.232 201.263,385.382 195.205 C 387.211 191.689,389.062 188.196,389.497 187.443 C 389.932 186.689,392.088 182.580,394.289 178.311 C 396.490 174.041,398.470 170.353,398.689 170.114 C 400.991 167.606,397.982 161.588,393.664 160.065 C 391.793 159.406,52.304 159.037,46.575 159.689 M393.309 165.239 C 394.403 166.147,393.812 170.776,392.602 170.776 C 392.402 170.776,392.237 171.005,392.237 171.285 C 392.237 171.565,391.261 173.359,390.068 175.273 C 387.702 179.070,386.420 181.320,384.828 184.475 C 384.258 185.605,383.688 186.632,383.562 186.758 C 383.436 186.884,382.557 188.527,381.608 190.411 C 380.659 192.295,379.084 195.318,378.109 197.131 C 377.133 198.943,375.649 201.717,374.811 203.295 C 373.973 204.873,373.185 206.267,373.059 206.393 C 372.847 206.605,371.875 208.451,367.290 217.352 C 366.319 219.235,365.418 220.879,365.287 221.005 C 365.157 221.130,364.260 222.877,363.294 224.886 C 362.328 226.895,361.107 229.425,360.582 230.509 C 359.292 233.168,356.743 236.073,355.699 236.073 C 355.231 236.073,354.721 236.279,354.566 236.530 C 354.134 237.229,6.808 237.156,5.273 236.456 C 3.192 235.509,3.656 233.316,7.148 227.587 C 8.819 224.846,10.720 221.575,11.372 220.320 C 12.024 219.064,12.660 217.934,12.785 217.808 C 12.911 217.682,13.400 216.860,13.871 215.981 C 15.237 213.437,16.959 210.405,18.022 208.676 C 18.561 207.797,19.356 206.358,19.788 205.479 C 20.625 203.775,21.544 202.200,21.918 201.826 C 22.044 201.701,22.611 200.674,23.177 199.543 C 23.744 198.413,24.845 196.358,25.624 194.977 C 27.016 192.511,29.342 188.329,30.324 186.530 C 30.598 186.027,30.925 185.514,31.050 185.388 C 31.287 185.151,32.014 183.865,33.887 180.365 C 34.492 179.235,35.217 177.900,35.498 177.397 C 35.779 176.895,36.878 174.635,37.941 172.374 C 39.966 168.068,42.193 165.470,44.244 165.021 C 44.898 164.877,45.639 164.691,45.890 164.607 C 47.576 164.040,392.621 164.667,393.309 165.239 M196.575 177.141 C 196.073 177.343,194.532 177.876,193.151 178.326 C 178.272 183.167,179.203 200.593,194.521 203.980 C 195.148 204.119,195.868 204.384,196.119 204.570 C 196.370 204.756,197.578 205.053,198.804 205.230 C 200.029 205.408,201.468 205.716,202.000 205.915 C 202.532 206.113,203.790 206.538,204.795 206.859 C 208.534 208.052,209.265 210.615,206.304 212.146 C 202.331 214.201,194.064 211.383,194.064 207.975 C 194.064 207.187,193.210 207.150,190.411 207.820 C 189.281 208.090,187.226 208.488,185.845 208.704 C 179.567 209.686,179.829 209.425,181.527 213.015 C 183.721 217.653,188.734 221.256,195.098 222.770 C 205.893 225.339,218.257 221.172,222.182 213.643 C 223.787 210.563,222.842 200.913,220.935 200.913 C 220.722 200.913,220.545 200.656,220.542 200.342 C 220.537 199.838,217.891 197.774,216.667 197.319 C 216.416 197.226,215.594 196.890,214.840 196.573 C 212.483 195.582,210.841 195.084,207.306 194.287 C 198.543 192.310,196.118 190.935,197.610 188.786 C 199.997 185.349,206.819 186.421,209.361 190.634 C 209.782 191.332,210.103 191.312,213.470 190.385 C 215.479 189.832,217.637 189.287,218.265 189.176 C 220.773 188.729,223.145 185.845,221.005 185.845 C 220.753 185.845,220.548 185.546,220.548 185.182 C 220.548 184.319,216.138 179.909,215.275 179.909 C 214.910 179.909,214.612 179.723,214.612 179.497 C 214.612 179.035,212.826 178.328,209.224 177.361 C 206.634 176.667,198.124 176.519,196.575 177.141 M44.292 200.000 L 44.292 222.374 51.598 222.374 L 58.904 222.374 58.904 214.384 L 58.904 206.393 64.529 206.393 C 77.505 206.393,84.292 201.444,84.217 192.038 C 84.126 180.606,78.414 177.626,56.591 177.626 L 44.292 177.626 44.292 200.000 M89.250 178.196 C 89.130 178.510,89.085 188.527,89.150 200.457 L 89.269 222.146 96.656 222.271 C 104.035 222.397,104.043 222.396,104.191 221.358 C 104.272 220.787,104.283 210.713,104.215 198.973 L 104.092 177.626 96.781 177.626 C 91.352 177.626,89.413 177.773,89.250 178.196 M108.219 182.877 L 108.219 188.128 113.008 188.128 L 117.797 188.128 117.917 205.137 L 118.037 222.146 125.228 222.272 L 132.420 222.398 132.420 205.263 L 132.420 188.128 137.215 188.128 L 142.009 188.128 142.009 182.877 L 142.009 177.626 125.114 177.626 L 108.219 177.626 108.219 182.877 M145.483 178.348 C 145.083 179.390,145.155 186.884,145.570 187.539 C 145.794 187.890,147.493 188.139,150.244 188.224 L 154.566 188.356 154.686 205.365 L 154.806 222.374 162.057 222.374 C 168.248 222.374,169.349 222.269,169.586 221.652 C 169.738 221.255,169.863 213.549,169.863 204.529 L 169.863 188.128 174.429 188.128 L 178.995 188.128 178.995 182.877 L 178.995 177.626 162.378 177.626 C 147.646 177.626,145.728 177.708,145.483 178.348 M234.785 180.326 C 234.178 182.069,234.362 182.192,237.578 182.192 L 240.301 182.192 239.980 185.023 C 239.804 186.581,239.469 188.211,239.236 188.646 C 239.003 189.082,238.813 190.129,238.813 190.975 C 238.813 191.820,238.620 192.707,238.384 192.945 C 238.149 193.184,237.814 194.458,237.641 195.776 L 237.325 198.174 239.421 198.174 L 241.517 198.174 242.248 195.776 C 242.650 194.458,243.163 192.454,243.389 191.324 C 245.332 181.588,244.987 182.192,248.612 182.192 C 251.401 182.192,251.526 182.142,251.973 180.861 C 252.632 178.970,252.747 178.995,243.576 178.995 L 235.249 178.995 234.785 180.326 M286.149 179.300 C 285.348 180.101,285.869 182.099,286.950 182.370 C 288.970 182.877,290.391 181.911,290.404 180.023 C 290.411 178.998,287.026 178.423,286.149 179.300 M295.525 179.543 C 295.224 179.845,294.977 180.551,294.977 181.112 C 294.977 181.673,294.773 182.669,294.523 183.326 C 294.274 183.982,293.879 185.588,293.646 186.894 C 293.242 189.160,292.218 193.825,291.557 196.416 C 291.282 197.494,291.402 197.661,292.646 197.935 C 295.208 198.497,295.650 198.042,296.516 193.946 C 297.330 190.097,297.565 189.100,298.822 184.139 C 299.981 179.565,299.869 178.995,297.808 178.995 C 296.854 178.995,295.826 179.242,295.525 179.543 M252.116 184.176 C 251.876 184.466,251.539 185.525,251.367 186.530 C 251.196 187.534,250.873 188.973,250.652 189.726 C 248.528 196.939,248.607 198.151,251.200 198.167 C 252.778 198.176,253.270 197.500,253.678 194.756 C 254.424 189.745,257.079 186.758,260.786 186.758 C 261.462 186.758,261.644 186.419,261.644 185.160 C 261.644 183.236,260.493 183.014,258.094 184.477 C 256.308 185.566,255.708 185.623,255.708 184.703 C 255.708 184.326,255.348 184.003,254.909 183.983 C 254.469 183.964,253.759 183.881,253.330 183.798 C 252.902 183.716,252.355 183.886,252.116 184.176 M267.352 184.196 C 264.276 185.377,263.080 186.792,264.649 187.394 C 265.907 187.877,267.047 187.698,268.721 186.758 C 270.883 185.544,272.553 185.607,274.129 186.962 C 275.962 188.538,275.457 188.881,270.903 189.151 C 265.188 189.491,261.644 191.408,261.644 194.158 C 261.644 197.629,267.443 199.506,271.162 197.239 L 272.690 196.308 273.499 197.241 C 274.994 198.965,277.626 198.205,277.626 196.050 C 277.626 195.484,277.934 193.838,278.311 192.392 C 279.609 187.405,279.191 185.961,275.919 184.132 C 274.669 183.433,269.234 183.474,267.352 184.196 M285.502 184.257 C 284.738 184.798,284.475 185.437,284.475 186.757 C 284.475 187.732,284.269 188.658,284.018 188.813 C 283.767 188.968,283.562 189.635,283.562 190.295 C 283.562 190.954,283.230 192.816,282.825 194.432 C 282.207 196.896,282.189 197.434,282.711 197.765 C 283.639 198.353,285.740 198.254,286.152 197.603 C 286.678 196.770,288.071 191.291,288.102 189.932 C 288.116 189.291,288.347 188.548,288.614 188.281 C 290.711 186.184,287.907 182.558,285.502 184.257 M307.078 184.018 C 306.922 184.269,306.436 184.475,305.996 184.475 C 304.032 184.475,300.913 188.931,300.913 191.736 C 300.913 194.355,302.751 197.260,304.408 197.260 C 304.746 197.260,305.023 197.466,305.023 197.717 C 305.023 197.980,306.460 198.174,308.421 198.174 C 310.289 198.174,311.945 197.968,312.100 197.717 C 312.256 197.466,312.719 197.260,313.130 197.260 C 314.035 197.260,316.438 195.043,316.438 194.207 C 316.438 193.171,313.429 193.508,311.600 194.749 C 308.707 196.712,305.023 195.446,305.023 192.488 L 305.023 191.324 311.416 191.324 L 317.808 191.324 317.808 189.599 C 317.808 187.359,315.914 184.475,314.443 184.475 C 314.063 184.475,313.626 184.269,313.470 184.018 C 313.315 183.767,311.877 183.562,310.274 183.562 C 308.671 183.562,307.233 183.767,307.078 184.018 M324.153 183.865 C 323.292 184.094,322.522 185.521,322.224 187.443 C 321.606 191.424,320.852 194.798,320.495 195.183 C 319.835 195.892,320.036 197.598,320.814 197.896 C 322.927 198.707,324.658 197.863,324.658 196.021 C 324.658 195.440,324.852 194.608,325.089 194.172 C 325.327 193.736,325.639 192.660,325.784 191.781 C 326.174 189.411,327.395 188.149,330.167 187.248 C 332.412 186.519,332.662 186.305,332.791 185.002 C 332.977 183.135,331.193 182.996,328.955 184.703 C 327.147 186.082,326.941 186.106,326.941 184.932 C 326.941 184.429,326.752 184.018,326.521 184.018 C 326.291 184.018,325.828 183.940,325.494 183.844 C 325.159 183.749,324.556 183.758,324.153 183.865 M338.128 184.018 C 337.973 184.269,337.531 184.475,337.147 184.475 C 335.119 184.475,333.862 189.032,335.502 190.435 C 336.542 191.326,338.589 192.121,340.856 192.517 C 343.474 192.974,344.119 193.764,342.844 194.952 C 341.305 196.386,336.073 195.674,336.073 194.030 C 336.073 193.374,334.066 193.532,333.078 194.266 C 331.001 195.809,335.601 198.155,340.726 198.167 C 342.407 198.170,343.909 197.968,344.064 197.717 C 344.219 197.466,344.735 197.260,345.209 197.260 C 346.132 197.260,348.402 194.631,348.401 193.564 C 348.400 191.771,344.420 189.319,340.914 188.952 C 338.184 188.665,338.521 185.905,341.292 185.859 C 342.474 185.840,345.205 186.850,345.205 187.306 C 345.205 187.808,346.273 187.764,347.754 187.201 L 348.991 186.730 347.932 185.602 C 347.349 184.982,346.510 184.475,346.066 184.475 C 345.622 184.475,345.132 184.269,344.977 184.018 C 344.822 183.767,343.281 183.562,341.553 183.562 C 339.824 183.562,338.283 183.767,338.128 184.018 M312.518 186.425 C 314.783 188.691,314.454 189.041,310.062 189.041 C 306.061 189.041,305.578 188.892,306.286 187.873 C 307.542 186.063,311.286 185.193,312.518 186.425 M66.787 188.699 C 71.757 191.477,67.217 197.538,60.877 196.587 L 58.904 196.291 58.904 192.209 L 58.904 188.128 62.335 188.128 C 64.231 188.128,66.223 188.383,66.787 188.699 M273.763 192.658 C 272.528 195.045,269.704 196.313,267.580 195.434 C 264.553 194.180,266.428 191.769,270.776 191.323 C 274.222 190.970,274.558 191.120,273.763 192.658 M233.333 204.110 L 233.333 206.396 294.406 206.280 L 355.479 206.164 355.479 204.110 L 355.479 202.055 294.406 201.939 L 233.333 201.823 233.333 204.110 M244.042 209.318 C 240.007 211.075,240.550 215.757,244.896 216.693 C 248.529 217.475,249.747 219.110,248.208 221.140 C 246.943 222.807,244.551 222.669,242.647 220.820 C 240.748 218.976,239.543 219.185,240.607 221.173 C 242.426 224.572,248.700 224.401,250.509 220.903 C 251.276 219.420,250.570 216.438,249.452 216.438 C 249.125 216.438,248.858 216.233,248.858 215.982 C 248.858 215.731,248.452 215.525,247.954 215.525 C 245.718 215.525,243.379 214.105,243.379 212.748 C 243.379 210.141,246.705 209.635,249.094 211.879 C 250.364 213.072,251.388 212.427,250.419 211.044 C 249.053 209.094,246.280 208.343,244.042 209.318 M310.410 209.424 C 307.539 210.938,306.547 213.872,308.047 216.411 C 309.011 218.041,313.242 219.595,313.242 218.318 C 313.242 218.096,313.731 217.821,314.329 217.707 C 315.408 217.501,315.411 217.512,314.737 219.127 C 313.417 222.285,311.050 223.231,308.833 221.487 C 306.962 220.015,306.096 220.850,307.803 222.481 C 311.609 226.119,317.339 221.615,317.349 214.976 C 317.353 212.290,315.896 209.589,314.443 209.589 C 314.063 209.589,313.626 209.384,313.470 209.132 C 313.092 208.520,311.910 208.632,310.410 209.424 M333.245 209.674 C 327.756 212.857,327.947 222.693,333.516 223.597 C 335.266 223.881,338.356 222.630,338.356 221.637 C 338.356 221.289,338.562 221.005,338.813 221.005 C 339.460 221.005,339.353 216.814,338.684 215.942 C 337.280 214.113,333.841 213.554,332.342 214.911 C 330.747 216.355,331.364 213.915,333.045 212.133 C 334.792 210.280,335.900 210.104,337.568 211.416 C 339.321 212.795,340.468 212.329,339.377 210.680 C 338.148 208.823,335.471 208.384,333.245 209.674 M300.859 209.991 C 300.259 210.463,299.380 210.925,298.905 211.018 C 297.966 211.202,296.895 212.572,297.341 213.019 C 297.494 213.171,298.308 213.007,299.152 212.655 L 300.685 212.014 300.547 214.112 C 300.471 215.266,300.220 216.621,299.988 217.123 C 299.757 217.626,299.511 218.858,299.441 219.863 C 299.317 221.666,299.289 221.692,297.260 221.918 C 293.528 222.332,295.273 223.059,300.000 223.059 C 304.581 223.059,306.289 222.376,302.869 221.912 C 301.919 221.783,301.184 221.450,301.235 221.174 C 301.498 219.765,302.408 213.199,302.604 211.301 C 302.850 208.921,302.527 208.678,300.859 209.991 M254.566 210.046 C 254.184 210.664,254.700 211.416,255.506 211.416 C 255.868 211.416,256.164 211.005,256.164 210.502 C 256.164 209.557,255.063 209.242,254.566 210.046 M319.482 209.893 C 318.681 210.695,319.453 210.959,322.603 210.959 C 326.510 210.959,326.504 210.952,324.642 213.182 C 322.437 215.820,322.023 216.585,320.704 220.466 C 320.199 221.953,320.161 222.593,320.552 223.065 C 321.306 223.973,322.374 223.375,322.374 222.044 C 322.374 220.644,323.825 216.438,324.308 216.438 C 324.500 216.438,324.658 216.162,324.658 215.825 C 324.658 215.487,325.685 214.139,326.941 212.830 C 328.196 211.520,329.224 210.255,329.224 210.019 C 329.224 209.535,319.960 209.416,319.482 209.893 M314.874 211.737 C 316.804 214.281,314.055 217.531,310.730 216.637 C 308.609 216.067,308.577 212.317,310.680 210.828 C 311.490 210.255,314.195 210.841,314.874 211.737 M261.530 213.423 C 260.839 213.796,260.274 213.908,260.274 213.672 C 260.274 213.435,259.970 213.242,259.598 213.242 C 258.877 213.242,258.750 213.637,257.988 218.265 C 257.271 222.620,257.258 222.950,257.798 223.139 C 258.382 223.343,259.361 221.370,259.361 219.988 C 259.361 216.985,261.439 214.017,263.384 214.242 C 264.695 214.393,265.042 217.801,264.153 221.804 C 263.725 223.732,264.939 223.885,265.719 222.001 C 266.289 220.624,266.628 213.966,266.152 213.489 C 265.487 212.823,262.716 212.783,261.530 213.423 M271.698 213.123 C 266.915 215.000,268.080 224.245,273.011 223.544 C 274.643 223.312,276.712 221.720,276.712 220.697 C 276.712 219.733,275.726 219.990,274.346 221.313 C 272.280 223.292,270.776 222.201,270.776 218.724 C 270.776 214.807,274.604 212.196,275.473 215.520 C 275.683 216.320,277.626 216.922,277.626 216.187 C 277.626 213.779,274.346 212.084,271.698 213.123 M281.743 213.123 C 278.687 214.323,277.449 219.687,279.641 222.235 C 281.142 223.980,284.805 224.100,286.234 222.452 C 287.749 220.706,286.964 219.826,285.136 221.220 C 283.327 222.600,282.154 222.681,281.084 221.499 C 280.159 220.477,280.284 218.513,281.279 218.449 C 281.655 218.424,283.254 218.373,284.832 218.334 C 287.906 218.260,288.460 217.823,287.966 215.857 C 287.335 213.342,284.433 212.067,281.743 213.123 M253.457 216.781 C 253.146 218.727,252.784 220.987,252.652 221.804 C 252.471 222.921,252.579 223.288,253.091 223.288 C 253.912 223.288,254.642 221.502,254.958 218.721 C 255.087 217.591,255.335 215.896,255.510 214.954 C 255.789 213.446,255.720 213.242,254.924 213.242 C 254.151 213.242,253.940 213.750,253.457 216.781 M285.122 214.432 C 287.143 215.208,285.918 216.895,283.333 216.895 C 280.655 216.895,280.251 216.457,281.578 214.990 C 282.339 214.149,283.789 213.921,285.122 214.432 M336.590 216.508 C 337.786 217.887,337.672 219.903,336.322 221.254 C 334.193 223.383,331.507 222.188,331.507 219.111 C 331.507 215.990,334.716 214.347,336.590 216.508 " stroke="none" fill-rule="evenodd"></path></g></svg>