<svg id="svg" xmlns="http://www.w3.org/2000/svg"  width="400" height="400" viewBox="0, 0, 400,400"><g id="svgg"><path id="path0" d="M137.526 71.606 C 132.205 75.016,118.489 97.980,79.893 168.098 C 52.035 218.708,23.065 270.520,15.515 283.237 C -0.587 310.359,-3.226 321.177,4.877 326.853 C 12.518 332.205,245.071 332.637,257.789 327.322 C 268.527 322.836,270.290 320.001,330.498 210.405 C 359.491 157.630,386.989 108.269,391.606 100.714 C 401.193 85.025,402.668 73.267,395.528 69.446 C 386.104 64.402,145.623 66.416,137.526 71.606 M390.751 80.483 C 390.751 82.783,387.006 90.847,382.428 98.402 C 374.587 111.341,305.750 235.344,276.349 289.492 C 257.351 324.480,271.130 321.547,129.117 320.830 C -10.023 320.128,1.988 324.250,25.006 285.099 C 33.833 270.086,62.115 219.306,87.857 172.254 C 113.598 125.202,137.194 84.364,140.291 81.503 L 145.923 76.301 268.337 76.301 C 384.897 76.301,390.751 76.501,390.751 80.483 M145.665 196.532 L 145.665 275.145 171.098 275.145 L 196.532 275.145 196.532 246.442 L 196.532 217.739 222.621 216.962 C 272.849 215.466,297.984 187.426,283.378 149.181 C 273.607 123.596,257.130 117.919,192.644 117.919 L 145.665 117.919 145.665 196.532 M223.196 155.951 C 240.907 163.352,231.855 182.352,210.175 183.280 L 197.688 183.815 197.004 168.208 L 196.321 152.601 205.749 152.601 C 210.935 152.601,218.786 154.109,223.196 155.951 " stroke="none" fill-rule="evenodd"></path></g></svg>