<svg id="svg" xmlns="http://www.w3.org/2000/svg"  width="400" height="400" viewBox="0, 0, 400,400"><g id="svgg"><path id="path0" d="M189.771 0.103 C 164.079 1.109,145.823 3.342,120.977 8.517 C 111.766 10.435,96.563 14.439,87.021 17.459 C 77.696 20.410,59.581 26.845,59.021 27.406 C 58.738 27.689,65.907 42.685,66.871 43.824 C 66.890 43.847,67.736 43.509,68.750 43.073 C 103.876 27.960,139.828 19.780,181.248 17.478 C 186.169 17.205,213.292 17.205,218.520 17.479 C 259.265 19.612,296.870 28.200,331.571 43.299 C 332.250 43.595,332.856 43.805,332.919 43.766 C 333.552 43.375,340.798 28.439,340.798 27.524 C 340.798 27.044,323.278 20.756,312.902 17.512 C 273.026 5.046,227.592 -1.378,189.771 0.103 M167.299 27.373 C 166.959 27.401,165.633 27.499,164.355 27.591 C 133.815 29.796,98.215 38.734,72.792 50.580 L 71.272 51.288 71.883 52.188 C 77.273 60.125,87.026 68.450,98.024 74.502 C 101.627 76.485,108.635 79.814,109.205 79.814 C 109.289 79.814,109.505 78.925,109.684 77.838 C 111.898 64.411,121.563 59.926,150.174 59.049 C 158.025 58.809,160.056 58.832,160.147 59.163 C 160.188 59.312,169.136 109.209,180.031 170.045 C 190.927 230.880,199.884 280.605,199.938 280.544 C 199.991 280.484,208.882 230.653,219.695 169.810 C 230.509 108.967,239.402 59.112,239.458 59.021 C 239.572 58.836,252.184 59.086,256.645 59.361 C 277.200 60.631,286.011 64.604,289.163 74.022 C 289.651 75.480,290.275 78.390,290.275 79.207 C 290.275 79.913,290.534 79.892,292.613 79.020 C 306.390 73.243,319.942 63.096,327.221 53.108 C 328.588 51.232,328.579 51.264,327.819 50.948 C 327.499 50.816,325.878 50.103,324.215 49.364 C 300.983 39.044,271.807 31.414,243.936 28.371 C 238.240 27.749,230.879 27.204,229.484 27.302 L 228.747 27.354 214.374 44.861 C 206.468 54.490,199.930 62.350,199.845 62.327 C 199.760 62.305,193.238 54.426,185.351 44.820 L 171.012 27.354 169.466 27.339 C 168.615 27.330,167.640 27.346,167.299 27.373 M45.152 360.597 C 45.533 362.956,48.199 366.116,50.976 367.501 L 52.281 368.152 59.112 368.229 C 62.869 368.272,66.065 368.367,66.215 368.440 C 66.470 368.565,66.486 369.475,66.486 384.286 L 66.486 400.000 70.515 400.000 L 74.545 400.000 74.545 384.266 L 74.545 368.532 74.942 368.381 C 75.177 368.291,77.987 368.228,81.800 368.226 C 89.043 368.222,88.749 368.262,90.929 366.965 C 93.140 365.649,95.932 361.844,95.932 360.146 C 95.932 360.074,84.485 360.015,70.495 360.015 L 45.058 360.015 45.152 360.597 M115.056 360.519 C 115.621 363.350,118.794 366.801,121.810 367.866 L 122.821 368.223 138.178 368.226 C 155.357 368.230,154.095 368.307,156.193 367.121 C 158.398 365.874,161.333 361.946,161.333 360.242 C 161.333 360.044,158.389 360.015,138.144 360.015 L 114.955 360.015 115.056 360.519 M308.336 360.364 C 309.367 363.813,311.785 366.520,315.025 367.852 L 315.924 368.222 331.436 368.226 C 348.782 368.230,347.525 368.306,349.584 367.127 C 351.801 365.859,354.733 361.973,354.744 360.287 C 354.746 360.030,353.536 360.015,331.489 360.015 L 308.232 360.015 308.336 360.364 M183.805 372.104 L 183.805 384.037 201.782 384.037 L 219.760 384.037 219.760 388.144 L 219.760 392.251 205.657 392.251 C 189.778 392.251,191.136 392.156,188.532 393.456 C 185.771 394.835,181.790 398.615,181.790 399.858 C 181.790 399.943,190.937 400.000,204.727 400.000 L 227.664 400.000 227.664 387.989 L 227.664 375.978 209.686 375.978 L 191.709 375.978 191.709 372.104 L 191.709 368.229 205.477 368.229 C 218.518 368.229,219.291 368.214,220.088 367.940 C 223.804 366.661,226.967 363.653,227.892 360.519 L 227.995 360.170 205.900 360.170 L 183.805 360.170 183.805 372.104 M249.826 380.085 L 249.826 400.000 268.518 400.000 L 287.211 400.000 288.271 399.295 C 290.399 397.881,292.910 394.223,292.910 392.537 C 292.910 392.465,285.029 392.406,275.397 392.406 L 257.885 392.406 257.885 376.288 L 257.885 360.170 253.855 360.170 L 249.826 360.170 249.826 380.085 M115.055 376.476 C 115.651 379.454,119.070 382.994,122.268 383.942 C 123.540 384.320,152.776 384.322,154.059 383.945 C 157.286 382.996,160.669 379.495,161.271 376.482 L 161.372 375.978 138.164 375.978 L 114.955 375.978 115.055 376.476 M309.492 387.989 L 309.492 400.000 313.522 400.000 L 317.551 400.000 317.551 392.174 L 317.551 384.347 331.654 384.347 L 345.757 384.347 345.757 392.174 L 345.757 400.000 349.709 400.000 L 353.661 400.000 353.661 388.092 L 353.661 376.183 348.663 376.081 C 345.914 376.025,335.976 375.979,326.579 375.979 L 309.492 375.978 309.492 387.989 M115.051 392.755 C 115.456 394.888,118.186 398.355,120.363 399.500 L 121.314 400.000 138.153 400.000 L 154.991 400.000 155.644 399.669 C 158.267 398.337,161.305 394.560,161.329 392.600 L 161.333 392.251 138.144 392.251 L 114.955 392.251 115.051 392.755 " stroke="none" fill-rule="evenodd"></path></g></svg>