<svg id="svg" xmlns="http://www.w3.org/2000/svg"  width="400" height="400" viewBox="0, 0, 400,400"><g id="svgg"><path id="path0" d="M185.589 1.027 C 149.113 2.455,123.195 5.625,87.921 12.971 C 62.829 18.197,32.197 27.350,5.207 37.687 L -0.037 39.696 0.085 40.304 C 0.446 42.111,9.883 61.623,11.108 63.096 C 11.136 63.130,12.336 62.650,13.775 62.031 C 63.644 40.574,114.685 28.961,173.487 25.694 C 180.475 25.305,218.980 25.306,226.403 25.695 C 284.248 28.723,337.635 40.916,386.901 62.352 C 387.864 62.771,388.725 63.069,388.813 63.015 C 389.713 62.459,400.000 41.254,400.000 39.956 C 400.000 39.274,375.127 30.347,360.396 25.741 C 303.784 8.043,239.282 -1.076,185.589 1.027 M153.685 39.742 C 153.201 39.781,151.320 39.920,149.505 40.051 C 106.148 43.181,55.607 55.870,19.514 72.688 L 17.356 73.694 18.223 74.971 C 25.876 86.239,39.721 98.058,55.336 106.650 C 60.450 109.465,70.399 114.191,71.209 114.191 C 71.329 114.191,71.635 112.929,71.889 111.386 C 75.033 92.324,88.753 85.957,129.373 84.712 C 141.323 84.346,143.423 84.386,143.558 84.983 C 143.620 85.256,156.295 155.966,171.727 242.118 C 198.197 389.901,199.864 399.113,200.090 398.882 C 200.139 398.831,212.735 328.166,228.081 241.848 C 243.428 155.530,256.049 84.801,256.128 84.672 C 256.291 84.409,274.197 84.764,280.528 85.155 C 309.710 86.958,322.219 92.598,326.694 105.969 C 327.387 108.038,328.273 112.170,328.273 113.329 C 328.273 114.332,328.641 114.302,331.592 113.065 C 351.151 104.862,370.391 90.457,380.724 76.278 C 382.665 73.614,382.653 73.660,381.573 73.211 C 381.119 73.022,378.817 72.010,376.458 70.962 C 343.474 56.310,302.054 45.478,262.486 41.158 C 254.399 40.275,243.948 39.502,241.968 39.641 L 240.922 39.714 220.516 64.569 C 209.293 78.239,200.011 89.398,199.890 89.366 C 199.769 89.334,190.509 78.149,179.313 64.511 L 158.957 39.714 156.761 39.692 C 155.553 39.681,154.169 39.703,153.685 39.742 " stroke="none" fill-rule="evenodd"></path></g></svg>