<svg xmlns="http://www.w3.org/2000/svg" viewBox="0 0 512 512">
  <path fill="currentColor" d="m 404.774,325.909 c -17.728,0 -33.191,-9.865 -41.201,-24.39 -10.769,62.263 -65.167,109.773 -130.46,109.773 -73.008,0 -132.404,-59.396 -132.404,-132.403 0,-65.294 47.509,-119.692 109.773,-130.461 -14.525,-8.01 -24.39,-23.474 -24.39,-41.201 V 50.504 C 81.441,71.828 0,164.646 0,278.888 0,407.725 104.265,512 233.113,512 347.374,512 440.176,430.54 461.496,325.909 Z M 233.113,177.832 c -55.723,0 -101.057,45.334 -101.057,101.056 0,55.722 45.334,101.056 101.057,101.056 55.722,0 101.056,-45.334 101.056,-101.056 0,-55.722 -45.334,-101.056 -101.056,-101.056 z M 233.113,0 C 224.457,0 217.44,7.018 217.44,15.673 v 91.553 c 0,8.656 7.018,15.673 15.673,15.673 86.012,0 155.988,69.976 155.988,155.989 0,8.656 7.018,15.673 15.674,15.673 h 91.553 c 8.656,0 15.673,-7.018 15.673,-15.673 C 512,124.728 387.258,0 233.113,0 Z" />
</svg>
