<svg viewBox="0 0 600 600" version="1.1" xmlns="http://www.w3.org/2000/svg" style="fill-rule:evenodd;clip-rule:evenodd;stroke-linejoin:round;stroke-miterlimit:2;">
	<path fill="currentColor" d="M300,0c165.575,0 300,134.425 300,300c0,165.575 -134.425,300 -300,300c-165.575,0 -300,-134.425 -300,-300c0,-165.575 134.425,-300 300,-300Zm0,19.05c155.061,0 280.95,125.889 280.95,280.95c0,155.061 -125.889,280.95 -280.95,280.95c-155.061,0 -280.95,-125.889 -280.95,-280.95c0,-155.061 125.889,-280.95 280.95,-280.95Z"/><path fill="currentColor" d="M213,114.351c-69.691,32.741 -118,103.598 -118,185.649c0,82.051 48.309,152.908 118,185.649l0,70.004c-106.382,-36.231 -183,-137.065 -183,-255.653c0,-118.588 76.618,-219.422 183,-255.653l0,70.004Zm173,-0.467l0,-69.537c106.382,36.231 183,137.065 183,255.653c0,118.588 -76.618,219.422 -183,255.653l0,-69.537c70.237,-32.544 119,-103.68 119,-186.116c0,-82.436 -48.763,-153.572 -119,-186.116Z"/><path fill="currentColor" d="M189.367,133.47l0,26.481c-41.325,32.697 -67.867,83.298 -67.867,140.049c0,56.751 26.542,107.352 67.867,140.049l0,26.481c-53.844,-35.814 -89.367,-97.056 -89.367,-166.53c0,-69.474 35.523,-130.716 89.367,-166.53Zm221.266,0.669c53.292,35.919 88.367,96.826 88.367,165.861c0,69.035 -35.075,129.942 -88.367,165.861l0,-25.814c41.334,-32.711 67.867,-83.305 67.867,-140.047c0,-56.742 -26.533,-107.336 -67.867,-140.047l0,-25.814Z"/>
</svg>