<svg viewBox="0 0 512 512" version="1.1" xmlns="http://www.w3.org/2000/svg" style="fill-rule:evenodd;clip-rule:evenodd;stroke-linejoin:round;stroke-miterlimit:2;">
	<path fill="currentColor" d="M256,0c141.29,0 256,114.71 256,256c0,141.29 -114.71,256 -256,256c-141.29,0 -256,-114.71 -256,-256c0,-141.29 114.71,-256 256,-256Zm0,120c75.06,0 136,60.94 136,136c0,75.06 -60.94,136 -136,136c-75.06,0 -136,-60.94 -136,-136c0,-75.06 60.94,-136 136,-136Zm0,33.706c56.458,0 102.294,45.836 102.294,102.294c0,56.458 -45.836,102.294 -102.294,102.294c-56.458,0 -102.294,-45.836 -102.294,-102.294c0,-56.458 45.836,-102.294 102.294,-102.294Z"/>
</svg>