<svg xmlns="http://www.w3.org/2000/svg" viewBox="0 0 512 512">
   <path fill="currentColor" d="M 504.978,58.104 C 493.643,35.427 470.837,21.333 445.468,21.333 h -206.7 c -39.579,0 -77.356,16.958 -103.652,46.542 L 34.954,180.542 C 12.357,205.948 -0.083,238.667 0,274.042 l 17.847,137.667 c 2.552,19.729 11.71,38.354 25.785,52.417 17.117,17.115 39.871,26.542 64.083,26.542 H 469.326 C 492.862,490.667 512,471.531 512,448 V 87.854 c 0,-10.271 -2.427,-20.562 -7.022,-29.75 z M 82.854,223.052 183,110.396 C 197.167,94.469 217.51,85.333 238.813,85.333 H 445.48 c 0.99,0 1.813,0.5 2.521,2.521 V 256 H 64.854 c 1.959,-11.292 7.427,-21.031 18,-32.948 z m 375.813,118.281 h -64 c -5.896,0 -10.667,-4.771 -10.667,-10.667 0,-5.896 4.771,-10.667 10.667,-10.667 h 64 c 5.896,0 10.667,4.771 10.667,10.667 -10e-4,5.897 -4.771,10.667 -10.667,10.667 z" />
</svg>
