<svg xmlns="http://www.w3.org/2000/svg" style="enable-background:new 0 0 512 512;" viewBox="0 0 512 512" y="0px" x="0px" version="1.1">
   <path fill="currentColor" d="M 505.32,273.51996 420,217.97296 v -81.973 C 420,94.646962 386.353,60.999962 345,60.999962 H 107.109 c -25.137,0 -48.457,12.48 -62.402,33.398 L 12.598,142.56196 C 4.351,154.91096 0,169.29596 0,184.16396 v 101.836 c 0,41.353 33.647,75 75,75 h 295.005 l 118.001,86.997 c 4.398,3.323 10.463,4.023 15.703,1.421 5.083,-2.549 8.291,-7.734 8.291,-13.418 v -150 c 0,-5.01 -2.505,-9.697 -6.68,-12.48 z m -145.32,12.48 c 0,8.291 -6.709,15 -15,15 H 75 c -8.291,0 -15,-6.709 -15,-15 v -101.836 c 0,-2.959 0.879,-5.859 2.52,-8.32 l 32.109,-48.164 c 2.783,-4.175 7.471,-6.68 12.48,-6.68 H 345 c 8.291,0 15,6.709 15,15 z" />
</svg>