<svg xmlns="http://www.w3.org/2000/svg" viewBox="-61 0 512 512">
  <path fill="currentColor" d="m 270,121 v 271 h 62.30078 l 23.30469,-164.18359 c 3.32422,-23.23047 -4.59766,-47.01954 -21.21094,-63.63282 L 291.21094,121 Z m 0,0 M 34.394531,227.81641 57.699219,392 H 120 V 121 H 98.789062 l -43.183593,43.18359 c -16.613281,16.61328 -24.535157,40.40235 -21.210938,63.63282 z m 0,0 M 150,121 h 90 v 181 h -90 z m 0,0 m 0,211 h 90 v 60 h -90 z m 0,0 M 0,482 v 30 h 390 v -30 c 0,-33.13672 -26.86328,-60 -60,-60 H 60 C 26.863281,422 0,448.86328 0,482 Z m 0,0 M 270,0 H 120 C 103.42969,0 90,13.429688 90,30 v 31 c 0,16.566406 13.42969,30 30,30 h 150 c 16.57031,0 30,-13.433594 30,-30 V 30 C 300,13.429688 286.57031,0 270,0 Z m 0,0" />
</svg>
