<svg viewBox="0 0 512 512" version="1.1" xmlns="http://www.w3.org/2000/svg" style="fill-rule:evenodd;clip-rule:evenodd;stroke-linejoin:round;stroke-miterlimit:2;">
    <g transform="matrix(1.37729,0,0,1.37729,-96.7746,-28.0771)">
        <path fill="currentColor" d="M442,126L442,78L394,78L394,94L378,94.008L378,78L362,78L362,94.016L171.04,95.056C160.36,95.944 152,105.04 152,115.752C152,126.928 160.744,136.04 171.904,136.504L343.672,144.344L167.664,155.382C158.88,155.75 152,162.918 152,171.71C152,180.502 158.88,187.67 167.664,188.038L343.68,196.054L167.664,204.188C158.88,204.556 152,211.724 152,220.516C152,229.308 158.88,236.476 167.664,236.844L343.68,244.86L167.664,252.188C158.88,252.556 152,259.724 152,268.516C152,277.308 158.88,284.476 167.664,284.844L339.44,292.004C341.992,292.108 344,294.204 344,296.764C344,299.26 342.12,301.308 339.624,301.524L151,302.516L151,286.516L135,286.516L135,302.516L119,302.516L119,286.516L71,286.516L71,334.516L119,334.516L119,318.516L135,318.508L135,334.516L151,334.516L151,318.5L340.96,317.46C351.64,316.572 360,307.476 360,296.764C360,285.588 351.256,276.476 340.096,276.012L168.328,268.172L344.344,260.844C353.12,260.476 360,253.308 360,244.516C360,235.724 353.12,228.556 344.336,228.188L168.32,220.172L344.336,212.038C353.12,211.67 360,204.502 360,195.71C360,186.918 353.12,179.75 344.336,179.382L168.32,171.366L344.336,160.328C353.12,159.96 360,152.792 360,144C360,135.208 353.12,128.04 344.336,127.672L172.56,120.512C170.008,120.408 168,118.312 168,115.752C168,113.256 169.88,111.208 172.376,110.992L362,110L362,126L378,126L378,110L394,110L394,126L442,126Z" style="fill-rule:nonzero;"/>
    </g>
</svg>
