<svg viewBox="0 0 800 800" version="1.1" xmlns="http://www.w3.org/2000/svg" style="fill-rule:evenodd;clip-rule:evenodd;stroke-linejoin:round;stroke-miterlimit:2;">
    <g transform="matrix(1.1065,0,0,1.1065,-42.6003,-52.0055)">
        <path fill="currentColor" d="M290.182,124C289.937,122.619 289.81,121.199 289.81,119.75L289.81,71.25C289.81,57.866 300.676,47 314.06,47L357.75,47C357.75,70.318 376.682,89.25 400,89.25C423.318,89.25 442.25,70.318 442.25,47L485.94,47C499.324,47 510.19,57.866 510.19,71.25L510.19,119.75C510.19,121.199 510.063,122.619 509.818,124L521.095,124C587.929,124 642.19,178.261 642.19,245.095L642.19,621.905C642.19,674.316 608.821,718.995 562.19,735.837L562.19,745.75C562.19,759.134 551.324,770 537.94,770L262.06,770C248.676,770 237.81,759.134 237.81,745.75L237.81,735.837C191.179,718.995 157.81,674.316 157.81,621.905L157.81,245.095C157.81,178.261 212.071,124 278.905,124L290.182,124ZM384.778,529.23L384.778,557.977C384.778,566.32 391.643,573.185 399.986,573.185C408.329,573.185 415.194,566.32 415.194,557.977L415.194,529.23L455.061,569.097C456.487,570.523 458.424,571.324 460.441,571.324C464.616,571.324 468.051,567.889 468.051,563.714C468.051,561.696 467.249,559.759 465.822,558.333L416.341,508.872C415.991,508.518 415.607,508.2 415.194,507.923L415.194,425.407L486.672,466.664C486.697,467.161 486.775,467.655 486.904,468.136L505.017,535.709C505.937,538.977 508.94,541.252 512.336,541.252C516.507,541.252 519.94,537.819 519.94,533.648C519.94,533.019 519.862,532.392 519.708,531.782L505.108,477.309L526.095,489.427C528.344,490.667 530.871,491.318 533.439,491.318C541.782,491.318 548.647,484.453 548.647,476.11C548.647,470.79 545.856,465.844 541.303,463.093L520.316,450.984L574.761,436.384C578.078,435.513 580.408,432.491 580.408,429.062C580.408,428.391 580.318,427.722 580.142,427.074C579.254,423.758 576.226,421.436 572.793,421.438C572.132,421.434 571.472,421.516 570.831,421.681L503.259,439.782C502.78,439.914 502.315,440.09 501.868,440.308L430.39,399.051L501.868,357.794C502.314,358.013 502.78,358.189 503.259,358.321L570.831,376.434C571.472,376.605 572.132,376.692 572.795,376.692C576.229,376.692 579.256,374.367 580.142,371.05C581.218,367.024 578.795,362.825 574.77,361.742L520.307,347.143L541.294,335.022C546.139,332.35 549.158,327.237 549.158,321.704C549.158,313.361 542.293,306.496 533.95,306.496C531.178,306.496 528.459,307.254 526.086,308.687L505.099,320.796L519.699,266.351C519.871,265.707 519.959,265.044 519.959,264.378C519.959,260.944 517.633,257.916 514.315,257.031C510.288,255.961 506.093,258.39 505.017,262.415L486.894,329.988C486.765,330.47 486.688,330.964 486.663,331.463L415.185,372.72L415.185,290.203C415.595,289.923 415.979,289.605 416.332,289.254L465.825,239.794C467.248,238.369 468.049,236.435 468.049,234.42C468.049,230.248 464.616,226.815 460.444,226.815C458.426,226.815 456.49,227.618 455.064,229.045L415.197,268.912L415.197,244.67C415.197,236.327 408.332,229.462 399.989,229.462C391.646,229.462 384.781,236.327 384.781,244.67L384.781,268.9L344.935,229.054C343.509,227.626 341.572,226.823 339.554,226.823C335.382,226.823 331.949,230.256 331.949,234.428C331.949,236.443 332.75,238.378 334.174,239.803L383.646,289.278C383.999,289.629 384.383,289.946 384.793,290.227L384.793,372.744L313.333,331.487C313.3,330.988 313.215,330.494 313.08,330.012L294.989,262.448C294.102,259.13 291.073,256.804 287.638,256.804C283.464,256.804 280.03,260.238 280.03,264.412C280.03,265.076 280.117,265.737 280.288,266.378L294.873,320.823L269.989,306.458C267.678,305.123 265.055,304.42 262.386,304.42C256.957,304.42 251.924,307.327 249.212,312.03C245.047,319.254 247.561,328.625 254.781,332.795L279.665,347.158L225.219,361.758C221.195,362.84 218.771,367.039 219.848,371.065C220.735,374.382 223.763,376.705 227.197,376.704C227.857,376.708 228.516,376.626 229.155,376.461L296.728,358.348C297.211,358.218 297.679,358.042 298.127,357.822L369.588,399.079L298.127,440.335C297.679,440.115 297.211,439.938 296.728,439.809L229.155,421.708C228.55,421.556 227.928,421.48 227.304,421.48C223.133,421.48 219.7,424.912 219.7,429.084C219.7,432.47 221.963,435.468 225.219,436.396L279.665,450.996L254.781,465.359C250.08,468.073 247.174,473.105 247.174,478.533C247.174,486.878 254.041,493.745 262.386,493.745C265.055,493.745 267.678,493.042 269.989,491.709L294.873,477.331L280.285,531.803C279.748,533.745 280.018,535.824 281.033,537.564C282.388,539.922 284.908,541.38 287.627,541.38C291.06,541.38 294.087,539.056 294.973,535.739L313.065,468.166C313.2,467.686 313.284,467.192 313.317,466.694L384.778,425.437L384.778,507.954C384.362,508.227 383.977,508.546 383.631,508.903L334.159,558.363C332.731,559.79 331.928,561.728 331.928,563.746C331.928,567.921 335.364,571.356 339.539,571.356C341.556,571.356 343.493,570.554 344.92,569.127L384.765,529.264L384.778,529.23Z"/>
    </g>
</svg>
