<svg viewBox="0 0 600 600" version="1.1" xmlns="http://www.w3.org/2000/svg" style="fill-rule:evenodd;clip-rule:evenodd;stroke-linejoin:round;stroke-miterlimit:2;">
	<path fill="currentColor" d="M221.284,355.261l0,22.739l-208.073,0l0,222l-13.211,0l0,-600l13.211,0l0,222l208.073,0l0,22.739l89.198,-80.177c3.788,-3.405 8.901,-5.314 14.23,-5.314l255.058,0c11.173,0 20.23,8.226 20.23,18.375l0,244.754c0,10.149 -9.057,18.375 -20.23,18.375l-255.058,0c-5.329,0 -10.442,-1.909 -14.23,-5.314l-89.198,-80.177Zm0,-51.704l111.745,100.445l226.511,0l0,-208.004l-226.511,0l-111.745,100.445l0,7.114Z"/>
</svg>