<svg viewBox="0 0 800 800" version="1.1" xmlns="http://www.w3.org/2000/svg" style="fill-rule:evenodd;clip-rule:evenodd;stroke-linejoin:round;stroke-miterlimit:2;">
    <g transform="matrix(1.17647,0,0,1.17647,0,-58.8235)">
        <path fill="currentColor" d="M520,430L520,475C520,521.913 481.913,560 435,560L85,560C38.087,560 0,521.913 0,475L0,305C0,258.087 38.087,220 85,220L435,220C481.913,220 520,258.087 520,305L520,370L620,370L620,235C620,226.721 626.721,220 635,220L665,220C673.279,220 680,226.721 680,235L680,545C680,553.279 673.279,560 665,560L635,560C626.721,560 620,553.279 620,545L620,430L520,430ZM303.498,403.553L200,403.553C197.001,403.553 194.216,402.001 192.639,399.449C191.062,396.898 190.919,393.713 192.26,391.03L251.01,265.03C253.146,260.758 266.848,259.024 271.12,261.16C275.392,263.296 285.626,268.498 283.49,272.77L231.002,377.747L334.5,377.747C337.499,377.747 340.284,379.299 341.861,381.851C343.438,384.402 343.581,387.587 342.24,390.27L284.34,516.27C282.204,520.542 268.502,522.276 264.23,520.14C259.958,518.004 248.874,512.802 251.01,508.53L303.498,403.553Z"/>
    </g>
</svg>
