<svg xmlns="http://www.w3.org/2000/svg" viewBox="0 0 512 512">
	<path fill="currentColor" d="m 482,181 h -15 c -8.284,0 -15,6.717 -15,15 v 180 c 0,8.284 6.716,15 15,15 h 15 c 16.569,0 30,-13.431 30,-30 V 211 c 0,-16.569 -13.431,-30 -30,-30 z m -407,0 c -8.291,0 -15,6.709 -15,15 v 60 H 30 v -60 c 0,-8.291 -6.709,-15 -15,-15 -8.291,0 -15,6.709 -15,15 v 150 c 0,8.291 6.709,15 15,15 8.291,0 15,-6.709 15,-15 v -60 h 30 v 60 c 0,8.291 6.709,15 15,15 H 90 V 181 Z m 315,30 v -15 c 0,-8.291 -6.709,-15 -15,-15 H 351.211 L 325.606,155.395 C 322.793,152.582 318.984,151 315,151 h -15 v -30 h 15 c 8.291,0 15,-6.709 15,-15 0,-8.291 -6.709,-15 -15,-15 H 165 c -8.291,0 -15,6.709 -15,15 0,8.291 6.709,15 15,15 h 15 v 30 h -15 c -3.984,0 -7.793,1.582 -10.605,4.395 l -30,30 C 121.582,188.207 120,192.016 120,196 v 150 c 0,3.984 1.582,7.793 4.395,10.605 l 60,60 C 187.207,419.418 191.016,421 195,421 h 150 c 5.684,0 10.869,-3.208 13.418,-8.291 l 30,-60 c 1.04,-2.08 1.582,-4.38 1.582,-6.709 h 32 V 211 Z" />
</svg>
