<svg xmlns="http://www.w3.org/2000/svg" viewBox="0 0 135.46666 135.46667">
  <path fill="currentColor" d="m 135.31547,47.55194 c 0.16161,18.65638 -16.23951,86.45731 -22.52108,80.44741 L 95.82284,120.34942 76.245021,68.8863 c 0,0 0.01266,-3.04488 -0.136997,-15.12285 -0.0648,-5.22918 -2.836206,-10.00377 -8.355795,-9.94113 -0.04557,5.2e-4 -0.09088,0.002 -0.135989,0.003 -5.479974,0.0644 -7.741576,4.57633 -7.952537,10.13908 -0.457764,12.0706 -0.229081,14.7692 -0.229081,14.7692 l -19.588509,50.45565 -17.136045,8.81063 C 12.64926,133.17272 0.1889886,66.20902 0.18898773,47.55194 0.18898662,23.84493 30.43808,0.15119 67.752228,0.15119 c 37.314152,0 67.374252,25.58362 67.563242,47.40075 z" />
</svg>
