<svg width="100%" height="100%" viewBox="0 0 800 800" version="1.1" xmlns="http://www.w3.org/2000/svg" style="fill-rule:evenodd;clip-rule:evenodd;stroke-linejoin:round;stroke-miterlimit:2;">
    <g transform="matrix(1.59359,0,0,1.59359,-237.438,-273.293)">
        <path fill="currentColor" d="M458,400L522.418,400C528.81,400 534,405.19 534,411.582L534,544L535.001,544C543.279,544 550,550.721 550,558.999L550,658.506C550,666.784 543.279,673.505 535.001,673.505L264.999,673.505C256.721,673.505 250,666.784 250,658.506L250,558.999C250,550.721 256.721,544 264.999,544L266,544L266,411.582C266,405.19 271.19,400 277.582,400L332,400L332,380.976C330.705,363.947 324.223,351.253 318.196,336.983C311.103,320.192 304.36,301.599 304.001,274.353C304,274.3 304,274.248 304,274.195L304,244.495L250.543,244.495C248.753,244.495 247.3,243.042 247.3,241.252L247.3,219.738C247.3,217.948 248.753,216.495 250.543,216.495L304,216.495L304,195.495L251.08,195.495C249.546,195.495 248.3,194.25 248.3,192.715L248.3,174.275C248.3,172.741 249.546,171.495 251.08,171.495L325.22,171.495C326.754,171.495 328,172.741 328,174.275L328,216.495L356,216.495L356,206.21C356,205.443 356.623,204.82 357.39,204.82L366.61,204.82C367.377,204.82 368,205.443 368,206.21L368,216.495L549.457,216.495C551.247,216.495 552.7,217.948 552.7,219.738L552.7,241.252C552.7,243.042 551.247,244.495 549.457,244.495L534,244.495L534,300.964C534,306.059 529.864,310.195 524.769,310.195L443.231,310.195C438.136,310.195 434,306.059 434,300.964L434,300.947C428.989,300.619 421.825,300.206 414,299.464L414,321.337C417.084,322.768 420.139,324.106 423.095,325.406C432.131,329.382 440.365,333.072 446.371,337.6C453.663,343.096 458,349.802 458,359L452,359L458,359L458,400ZM446,359C446,353.841 443.238,350.265 439.148,347.182C433.774,343.131 426.347,339.947 418.262,336.39C416.858,335.772 415.436,335.145 414,334.503L414,544L434,544L434,411.582C434,405.19 439.19,400 445.582,400L446,400L446,359ZM356,246.977L356,244.495L328,244.495L328,271.415C328,271.432 328,271.45 327.999,271.467C327.999,273.068 327.999,274.07 327.999,274.037C328.372,302.363 337,319.822 344.227,336.822C349.894,350.15 354.799,363.249 355.97,379.64C355.99,379.925 356,380.21 356,380.495L356,400.107C361.645,400.879 366,405.726 366,411.582L366,544L386,544L386,319.051C369.616,306.942 356.524,288.648 356.002,256.374C356.002,256.331 356.001,256.295 356.001,256.266L356.001,256.261C355.952,253.07 355.996,247.418 356,246.977ZM377.43,292.333C379.931,296.419 382.828,299.993 386,303.16L386,295.054C382.907,294.265 380.012,293.364 377.43,292.333ZM434,288.923L434,244.495L414,244.495L414,287.498C421.708,288.225 428.9,288.603 434,288.923ZM386,282.642L386,244.495L368,244.495L368,254.78L368,254.781L368,256.12L368.004,256.344C368.035,257.517 368.337,263.956 371.174,270.302C373.06,274.519 376.106,278.774 381.32,280.96C382.772,281.568 384.339,282.127 386,282.642Z"/>
    </g>
</svg>
