<svg xmlns="http://www.w3.org/2000/svg" viewBox="0 0 511.886 511.886">
  <path fill="currentColor" d="M 457.2,56.012 405.582,4.394 c -5.857,-5.858 -15.355,-5.858 -21.213,0 l -13.609,13.609 72.831,72.832 13.61,-13.61 C 463.058,71.367 463.058,61.87 457.2,56.012 Z M 198.969,232.97691 v 66.846 h 95.882 c 0.04,-0.034 0.077,-0.073 0.118,-0.107 v -66.893 H 199.14 c -0.057,0.052 -0.114,0.102 -0.171,0.154 z M 334.501,24.203 c -2.813,-2.813 -6.628,-4.394 -10.606,-4.394 H 323.89 L 95.351,19.886 C 70.506,19.895 50.292,40.11 50.292,64.95 v 401.871 c 0,12.004 4.698,23.312 13.228,31.841 8.528,8.528 19.83,13.224 31.829,13.223 h 0.011 l 303.723,-0.077 c 24.847,-0.006 45.061,-20.222 45.061,-45.064 V 140.059 c 0,-3.978 -1.581,-7.793 -4.394,-10.606 z m 29.074,321.0138 c 5.858,5.858 5.858,15.355 0,21.213 -2.929,2.929 -6.768,4.394 -10.606,4.394 -3.838,0 -7.678,-1.464 -10.606,-4.394 l -40.606,-40.606 H 191.681 l -40.606,40.606 c -2.929,2.929 -6.768,4.394 -10.606,4.394 -3.838,0 -7.678,-1.464 -10.606,-4.394 -5.858,-5.858 -5.858,-15.355 0,-21.213 l 39.107,-39.107 v -87.073 l -39.107,-39.107 c -5.858,-5.858 -5.858,-15.355 0,-21.213 5.857,-5.858 15.355,-5.858 21.213,0 l 40.106,40.106 h 112.074 l 40.106,-40.106 c 5.857,-5.858 15.355,-5.858 21.213,0 5.858,5.858 5.858,15.355 0,21.213 l -39.606,39.606 v 87.074 z" />
</svg>
