<svg xmlns="http://www.w3.org/2000/svg" viewBox="0 0 512 512">
  <path fill="currentColor" d="M 51.239518,371.1207 V 136.45202 C 25.164565,127.60231 6.3981872,102.93808 6.3981872,73.869758 c 0,-36.49545 29.5840118,-66.0853965 66.0853918,-66.0853965 36.501381,0 66.091331,29.5899465 66.091331,66.0853965 0,29.068322 -18.7723,53.732552 -44.847269,62.582262 v 98.15304 H 236.12335 v -98.5976 c -25.39331,-9.21722 -43.5373,-33.55542 -43.5373,-62.137702 0,-36.49545 29.58995,-66.0853965 66.0854,-66.0853965 36.50138,0 66.09133,29.5899465 66.09133,66.0853965 0,29.554382 -19.3947,54.568322 -46.15131,63.020892 v 97.71441 h 142.39569 v -97.69662 c -26.78033,-8.44072 -46.20466,-33.46652 -46.20466,-63.038682 0,-36.49545 29.58995,-66.0853965 66.09134,-66.0853965 36.50137,0 66.09133,29.5899465 66.09133,66.0853965 0,28.564502 -18.1203,52.890842 -43.48988,62.125852 V 277.09318 H 278.61147 v 93.58887 c 26.75661,8.4526 46.15131,33.46653 46.15131,63.01499 0,36.50138 -29.58995,66.09133 -66.09133,66.09133 -36.50138,0 -66.0854,-29.58995 -66.0854,-66.09133 0,-28.57635 18.14399,-52.92049 43.5373,-62.13178 V 277.09318 H 93.727641 v 94.02752 c 26.074969,8.84972 44.847269,33.51392 44.847269,62.57634 0,36.50138 -29.58995,66.09133 -66.091331,66.09133 -36.50138,0 -66.0853918,-29.58995 -66.0853918,-66.09133 0,-29.06242 18.7663778,-53.72662 44.8413308,-62.57634 z m 0,0" />
</svg>
