<svg width="100%" height="100%" viewBox="0 0 800 800" version="1.1" xmlns="http://www.w3.org/2000/svg" style="fill-rule:evenodd;clip-rule:evenodd;stroke-linejoin:round;stroke-miterlimit:2;">
    <path fill="currentColor" d="M306.5,182.227L306.5,93.5C306.5,41.896 348.396,0 400,0C451.604,0 493.5,41.896 493.5,93.5L493.5,182.227L550.175,244.192C696.611,303.614 800,447.328 800,615L800,981C800,1201.77 620.766,1381 400,1381C179.234,1381 0,1201.77 0,981L0,615C0,447.328 103.389,303.614 249.825,244.192L306.5,182.227ZM400,367C574.681,367 716.5,420.005 716.5,800C716.5,985.995 574.681,1137 400,1137C225.319,1137 83.5,985.995 83.5,800C83.5,428.005 225.319,367 400,367ZM400,27C436.702,27 466.5,56.798 466.5,93.5C466.5,130.202 436.702,160 400,160C363.298,160 333.5,130.202 333.5,93.5C333.5,56.798 363.298,27 400,27Z"/>
</svg>
