<svg width="100%" height="100%" viewBox="0 0 800 800" version="1.1" xmlns="http://www.w3.org/2000/svg" style="fill-rule:evenodd;clip-rule:evenodd;stroke-linejoin:round;stroke-miterlimit:2;">
    <path fill="currentColor" d="M49,529L49,550.75C49,557.511 43.511,563 36.75,563L12.25,563C5.489,563 0,557.511 0,550.75L0,249.25C0,242.489 5.489,237 12.25,237L36.75,237C43.511,237 49,242.489 49,249.25L49,271L71.75,271C78.511,271 84,276.489 84,283.25L84,378L99,378L99,274.75C99,272.68 100.68,271 102.75,271L110.25,271C112.32,271 114,272.68 114,274.75L114,378L129,378L129,297.75C129,295.68 130.68,294 132.75,294L140.25,294C142.32,294 144,295.68 144,297.75L144,378L159,378L159,320.75C159,318.68 160.68,317 162.75,317L170.25,317C172.32,317 174,318.68 174,320.75L174,378L626,378L626,320.75C626,318.68 627.68,317 629.75,317L637.25,317C639.32,317 641,318.68 641,320.75L641,378L656,378L656,297.75C656,295.68 657.68,294 659.75,294L667.25,294C669.32,294 671,295.68 671,297.75L671,378L686,378L686,274.75C686,272.68 687.68,271 689.75,271L697.25,271C699.32,271 701,272.68 701,274.75L701,378L716,378L716,283.25C716,276.489 721.489,271 728.25,271L751,271L751,249.25C751,242.489 756.489,237 763.25,237L787.75,237C794.511,237 800,242.489 800,249.25L800,550.75C800,557.511 794.511,563 787.75,563L763.25,563C756.489,563 751,557.511 751,550.75L751,529L728.25,529C721.489,529 716,523.511 716,516.75L716,422L701,422L701,525.25C701,527.32 699.32,529 697.25,529L689.75,529C687.68,529 686,527.32 686,525.25L686,422L671,422L671,502.25C671,504.32 669.32,506 667.25,506L659.75,506C657.68,506 656,504.32 656,502.25L656,422L641,422L641,479.25C641,481.32 639.32,483 637.25,483L629.75,483C627.68,483 626,481.32 626,479.25L626,422L174,422L174,479.25C174,481.32 172.32,483 170.25,483L162.75,483C160.68,483 159,481.32 159,479.25L159,422L144,422L144,502.25C144,504.32 142.32,506 140.25,506L132.75,506C130.68,506 129,504.32 129,502.25L129,422L114,422L114,525.25C114,527.32 112.32,529 110.25,529L102.75,529C100.68,529 99,527.32 99,525.25L99,422L84,422L84,516.75C84,523.511 78.511,529 71.75,529L49,529Z"/>
</svg>
