<svg width="100%" height="100%" viewBox="0 0 600 600" version="1.1" xmlns="http://www.w3.org/2000/svg" style="fill-rule:evenodd;clip-rule:evenodd;stroke-linejoin:round;stroke-miterlimit:2;">
	<path fill="currentColor" d="M8.616,338.77l0,-64.617l241.236,0l0,64.617l267.084,0l0,241.237l-516.936,0l0,-241.237l8.616,0Zm450.595,156.804c15.692,0 28.432,12.74 28.432,28.431c0,15.692 -12.74,28.432 -28.432,28.432c-15.692,0 -28.431,-12.74 -28.431,-28.432c0,-15.691 12.739,-28.431 28.431,-28.431Zm-401.487,0c15.692,0 28.432,12.74 28.432,28.431c0,15.692 -12.74,28.432 -28.432,28.432c-15.691,0 -28.431,-12.74 -28.431,-28.432c0,-15.691 12.74,-28.431 28.431,-28.431Zm200.744,-115.449c15.692,0 28.431,12.74 28.431,28.431c0,15.692 -12.739,28.432 -28.431,28.432c-15.692,0 -28.432,-12.74 -28.432,-28.432c0,-15.691 12.74,-28.431 28.432,-28.431Zm8.615,-118.895l-267.083,0l83.064,-241.237l516.936,0l-83.064,241.237l-8.616,0l0,64.617l-241.237,0l0,-64.617Zm5.624,-41.355c15.692,0 32.818,-12.74 38.222,-28.431c5.403,-15.692 -2.95,-28.432 -18.642,-28.432c-15.692,0 -32.818,12.74 -38.221,28.432c-5.403,15.691 2.95,28.431 18.641,28.431Zm240.496,-115.449c15.692,0 32.818,-12.74 38.221,-28.431c5.403,-15.692 -2.95,-28.432 -18.642,-28.432c-15.691,0 -32.818,12.74 -38.221,28.432c-5.403,15.691 2.95,28.431 18.642,28.431Zm-401.487,0c15.692,0 32.818,-12.74 38.222,-28.431c5.403,-15.692 -2.95,-28.432 -18.642,-28.432c-15.692,0 -32.818,12.74 -38.221,28.432c-5.403,15.691 2.95,28.431 18.641,28.431Z"/></svg>