<svg width="100%" height="100%" viewBox="0 0 800 800" version="1.1" xmlns="http://www.w3.org/2000/svg" style="fill-rule:evenodd;clip-rule:evenodd;stroke-linejoin:round;stroke-miterlimit:2;">
    <g transform="matrix(1.06525,0,0,1.06525,-26.0985,-4.79361)">
        <path fill="currentColor" d="M184.5,540C184.5,540 184.5,320 184.501,319.871C184.564,312.222 188.2,303.181 196.301,293.807C208.759,279.39 233.505,261.861 261.694,242.569C295.293,219.574 334.01,193.674 359.573,166.439C373.991,151.079 384.434,135.752 384.5,120L384.5,20C384.5,11.445 398.016,4.5 406.571,4.5C415.126,4.5 429.581,11.445 429.581,20L429.581,120.065C429.487,142.654 410.279,173.226 389.686,195.165C362.741,223.872 322.127,251.424 286.712,275.661C264.541,290.835 247.334,299.902 234.885,311.879C232.146,314.513 229.823,317.015 228.049,319.422C227.088,320.725 226.021,322.877 225.826,323.275L224.887,540C224.887,641.828 298.172,715.113 400,715.113C501.828,715.113 575.113,641.828 575.113,540C575.113,531.445 582.058,524.5 590.613,524.5C599.168,524.5 615.5,531.445 615.5,540C615.5,658.938 518.938,755.5 400,755.5C281.062,755.5 184.5,658.938 184.5,540Z"/>
    </g>
</svg>
