<svg width="100%" height="100%" viewBox="0 0 512 512" version="1.1" xmlns="http://www.w3.org/2000/svg" style="fill-rule:evenodd;clip-rule:evenodd;stroke-linejoin:round;stroke-miterlimit:2;"><g><path fill="currentColor" d="M199.89,0l-81.456,0l0,81.456l27.152,0l0.014,27.152l-27.166,0l0,27.152l27.18,0l1.764,264.918c1.507,18.124 16.943,32.311 35.122,32.311c18.965,0 34.428,-14.839 35.216,-33.778l103.707,-284.309c0.176,-4.33 3.733,-7.738 8.077,-7.738c4.236,0 7.712,3.19 8.078,7.426l1.684,264.65l-27.152,0l0,27.152l27.152,0l0,27.152l-27.152,0l0,81.456l81.456,0l0,-81.456l-27.152,0l-0.014,-27.152l27.166,0l0,-27.152l-27.18,0l-1.764,-266.917c-1.507,-18.124 -16.943,-32.311 -35.122,-32.311c-18.965,0 -34.428,14.839 -35.216,33.777l-103.707,284.309c-0.176,4.331 -3.733,7.739 -8.077,7.739c-4.236,0 -7.712,-3.191 -8.078,-7.427l-1.684,-262.65l27.152,0l0,-27.152l-27.152,0l0,-27.152l27.152,0l0,-81.456Z" style="fill-rule:nonzero;"/></g></svg>