<svg width="100%" height="100%" viewBox="0 0 800 800" version="1.1" xmlns="http://www.w3.org/2000/svg" style="fill-rule:evenodd;clip-rule:evenodd;stroke-linejoin:round;stroke-miterlimit:2;">
    <g transform="matrix(0.438819,0,0,0.8,231.713,0)">
        <rect fill="currentColor" x="265" y="0" width="237" height="690"/>
    </g>
    <g transform="matrix(0.236287,0,0,0.123188,309.384,552)">
        <rect fill="currentColor" x="265" y="0" width="237" height="690"/>
    </g>
    <g transform="matrix(0.145202,0.153052,-0.189326,0.179615,492.157,16.3512)">
        <rect fill="currentColor" x="265" y="0" width="237" height="690"/>
    </g>
    <g transform="matrix(0.0843882,-6.099e-18,-9.4928e-18,0.181159,367.637,678.704)">
        <rect fill="currentColor" x="265" y="0" width="237" height="690"/>
    </g>
    <g transform="matrix(0.0747758,-0.0391145,0.094045,0.179787,420.184,686.312)">
        <rect fill="currentColor" x="265" y="0" width="237" height="690"/>
    </g>
    <g transform="matrix(-0.0747758,-0.0391145,-0.094045,0.179787,379.816,686.312)">
        <rect fill="currentColor" x="265" y="0" width="237" height="690"/>
    </g>
</svg>
