<svg width="100%" height="100%" viewBox="0 0 600 600" version="1.1" xmlns="http://www.w3.org/2000/svg" style="fill-rule:evenodd;clip-rule:evenodd;stroke-linejoin:round;stroke-miterlimit:2;"><g><path fill="currentColor" d="M34.551,235.135l0.851,-113.513l114.049,0l0.495,113.513l170.278,0l0,-48.648l16.216,0l0,-113.514c0,-16.208 32.554,-48.689 48.649,-48.649l56.757,0l0,-24.324l8.108,0l0,24.324l48.649,0c16.216,0 48.681,32.36 48.648,48.649l0,165.902l18.099,0.135l0.055,22.996l30.012,-0.093l0.046,6.082l-29.921,0.437l-0.08,60.312l29.967,0.137l0.563,7.988l-30.663,-0.184l0.308,22.734l-21.982,0.125l3.596,167.483c0.033,16.289 -32.432,48.649 -48.648,48.649l-48.649,0l0,24.324l-8.108,0l0,-24.324l-56.757,0c-16.095,0.04 -48.649,-32.441 -48.649,-48.649l0,-113.513l-16.216,0l0,-48.649l-316.216,0l0,-129.73l30.543,0Zm29.789,56.757c10.93,0 19.8,9.081 19.8,20.27c0,11.189 -8.87,20.271 -19.8,20.271c-10.921,0 -19.792,-9.082 -19.792,-20.271c0,-11.189 8.871,-20.27 19.792,-20.27Zm154.054,0c10.93,0 19.8,9.081 19.8,20.27c0,11.189 -8.87,20.271 -19.8,20.271c-10.921,0 -19.791,-9.082 -19.791,-20.271c0,-11.189 8.87,-20.27 19.791,-20.27Zm-93.097,-56.757l0.008,-8.4l-65.319,0.138l-0.113,8.262l65.424,0Z"/></g></svg>