<svg width="100%" height="100%" viewBox="0 0 800 800" version="1.1" xmlns="http://www.w3.org/2000/svg" style="fill-rule:evenodd;clip-rule:evenodd;stroke-linejoin:round;stroke-miterlimit:2;">
    <g>
        <path fill="currentColor" d="M400.001,241.483L400.001,558.521L765.742,558.521C777.225,558.521 788.08,552.141 794.566,541.16C800.701,530.769 802.052,517.544 798.116,505.809C776.804,442.259 737.546,325.196 720.013,272.917C713.594,253.778 697.444,241.483 679.722,241.483L400.001,241.483ZM399.999,241.483L120.278,241.483C102.556,241.483 86.406,253.778 79.987,272.917C62.454,325.196 23.196,442.259 1.884,505.809C-2.052,517.544 -0.701,530.769 5.434,541.16C11.92,552.141 22.775,558.521 34.258,558.521L399.999,558.521L399.999,241.483ZM451.002,490.616L416.002,490.616L416.002,514.113L451.002,514.113L451.002,490.616ZM652.002,490.616L617.002,490.616L617.002,514.113L652.002,514.113L652.002,490.616ZM518.002,490.616L483.002,490.616L483.002,514.113L518.002,514.113L518.002,490.616ZM585.002,490.616L550.002,490.616L550.002,514.113L585.002,514.113L585.002,490.616ZM348.998,490.616L383.998,490.616L383.998,514.113L348.998,514.113L348.998,490.616ZM147.998,490.616L182.998,490.616L182.998,514.113L147.998,514.113L147.998,490.616ZM281.998,490.616L316.998,490.616L316.998,514.113L281.998,514.113L281.998,490.616ZM214.998,490.616L249.998,490.616L249.998,514.113L214.998,514.113L214.998,490.616ZM639.006,388.253L429.006,388.253L429.006,411.75L639.006,411.75L639.006,388.253ZM160.994,388.253L370.994,388.253L370.994,411.75L160.994,411.75L160.994,388.253ZM451.002,285.89L416.002,285.89L416.002,309.388L451.002,309.388L451.002,285.89ZM652.002,285.89L617.002,285.89L617.002,309.388L652.002,309.388L652.002,285.89ZM518.002,285.89L483.002,285.89L483.002,309.388L518.002,309.388L518.002,285.89ZM585.002,285.89L550.002,285.89L550.002,309.388L585.002,309.388L585.002,285.89ZM348.998,285.89L383.998,285.89L383.998,309.388L348.998,309.388L348.998,285.89ZM147.998,285.89L182.998,285.89L182.998,309.388L147.998,309.388L147.998,285.89ZM281.998,285.89L316.998,285.89L316.998,309.388L281.998,309.388L281.998,285.89ZM214.998,285.89L249.998,285.89L249.998,309.388L214.998,309.388L214.998,285.89Z"/>
    </g>
</svg>
