<svg width="100%" height="100%" viewBox="0 0 512 512" version="1.1" xmlns="http://www.w3.org/2000/svg" style="fill-rule:evenodd;clip-rule:evenodd;stroke-linejoin:round;stroke-miterlimit:2;">
    <path fill="currentColor" d="M256,64C361.968,64 448,150.032 448,256C448,361.968 361.968,448 256,448C150.032,448 64,361.968 64,256C64,150.032 150.032,64 256,64ZM280,331.93L280,413.58C332.1,405.68 375.55,372.91 398.42,327.51L321,302.36C311.04,316.29 296.69,326.65 280,331.93ZM191,302.36L113.58,327.51C136.44,372.91 179.9,405.68 232,413.58L232,331.93C215.31,326.65 200.96,316.29 191,302.36ZM256,224C238.33,224 224,238.33 224,256C224,273.67 238.33,288 256,288C273.67,288 288,273.67 288,256C288,238.33 273.67,224 256,224ZM368.35,142.21L320.12,208.59C329.97,221.88 336,238.18 336,256C336,256.25 335.93,256.48 335.93,256.73L413.39,281.9C414.78,273.42 416,264.88 416,256.01C416,211.45 397.73,171.22 368.35,142.21ZM176,256C176,238.18 182.03,221.88 191.88,208.59L143.65,142.21C114.27,171.22 96,211.45 96,256C96,264.87 97.22,273.42 98.61,281.89L176.07,256.72C176.07,256.48 176,256.25 176,256ZM256,176C264.87,176 273.25,177.79 281.22,180.45L329.15,114.48C307.14,103.06 282.51,96 256,96C229.49,96 204.86,103.06 182.85,114.48L230.78,180.45C238.75,177.79 247.13,176 256,176Z"/>
</svg>
