<svg width="100%" height="100%" viewBox="0 0 800 800" version="1.1" xmlns="http://www.w3.org/2000/svg" style="fill-rule:evenodd;clip-rule:evenodd;stroke-linejoin:round;stroke-miterlimit:2;">
    <g transform="matrix(0.423077,0,0,1,230.769,0)">
        <path fill="currentColor" d="M270,732.933L530,646.844L530,776.131L457.912,800L270,800L270,732.933ZM530,800L521.54,800L530,797.199L530,800ZM530,625.776L270,711.865L270,582.578L530,496.49L530,625.776ZM530,475.422L270,561.51L270,432.224L530,346.135L530,475.422ZM530,325.067L270,411.156L270,282.224L530,196.135L530,325.067ZM530,175.067L270,261.156L270,132.224L530,46.135L530,175.067ZM530,25.067L270,111.156L270,0L530,0L530,25.067Z"/>
    </g>
</svg>
