<svg width="100%" height="100%" viewBox="0 0 800 800" version="1.1" xmlns="http://www.w3.org/2000/svg" style="fill-rule:evenodd;clip-rule:evenodd;stroke-linejoin:round;stroke-miterlimit:2;">
    <path fill="currentColor" d="M300,12.624L300,47.708C146.475,91.253 33.861,232.579 33.861,400C33.861,567.421 146.475,708.747 300,752.292L300,787.376C127.554,742.92 0,586.238 0,400C0,213.762 127.554,57.08 300,12.624ZM500,12.624C672.446,57.08 800,213.762 800,400C800,586.238 672.446,742.92 500,787.376L500,752.292C653.525,708.747 766.139,567.421 766.139,400C766.139,232.579 653.525,91.253 500,47.708L500,12.624ZM500,130.397C609.444,171.061 687.5,276.487 687.5,400C687.5,523.513 609.444,628.939 500,669.603L500,633.133C590.322,594.301 653.639,504.486 653.639,400C653.639,295.514 590.322,205.699 500,166.867L500,130.397ZM300,130.397L300,166.867C209.678,205.699 146.361,295.514 146.361,400C146.361,504.486 209.678,594.301 300,633.133L300,669.603C190.556,628.939 112.5,523.513 112.5,400C112.5,276.487 190.556,171.061 300,130.397ZM400,225.001C496.585,225.001 575,303.416 575,400.001C575,496.586 496.585,575.001 400,575.001C303.415,575.001 225,496.586 225,400.001C225,303.416 303.415,225.001 400,225.001Z"/>
</svg>
