<svg width="100%" height="100%" viewBox="0 0 800 800" version="1.1" xmlns="http://www.w3.org/2000/svg" style="fill-rule:evenodd;clip-rule:evenodd;stroke-linejoin:round;stroke-miterlimit:2;">
    <g transform="matrix(2.08333,0,0,2.08333,-410.417,-435.937)">
        <path fill="currentColor" d="M581,367.5L571,367.5L571,437.5L581,437.5L581,367.5ZM423.5,406.187C422.542,404.333 422,402.229 422,400C422,397.771 422.542,395.667 423.5,393.813L423.5,370L400,370L400,365L440.5,365L440.5,386.5L566,386.5L566,413.5L440.5,413.5L440.5,435L400,435L400,430L423.5,430L423.5,406.187ZM207,365L197,365L197,435L207,435L207,365ZM400,365L400,435L390,435L374.029,413.5L217,413.5L217,386.5L374.029,386.5L390,365L400,365ZM431.968,394.5L431.926,394.5L431.889,394.501L431.854,394.502L431.822,394.503L431.782,394.504L431.749,394.506L431.715,394.507L431.677,394.509L431.645,394.511L431.607,394.514L431.573,394.516L431.542,394.519L431.502,394.522L431.47,394.525L431.434,394.529L431.399,394.533L431.367,394.536L431.329,394.541L431.296,394.545L431.265,394.549L431.226,394.554L431.194,394.559L431.158,394.564L431.124,394.57L431.093,394.575L431.055,394.581L431.023,394.587L430.991,394.592L430.954,394.6L430.923,394.606L430.887,394.613L430.854,394.62L430.824,394.626L430.786,394.635L430.755,394.642L430.721,394.65L430.687,394.658L430.657,394.665L430.62,394.675L430.589,394.683L430.559,394.691L430.521,394.701L430.492,394.71L430.456,394.72L430.424,394.729L430.395,394.738L430.358,394.75L430.328,394.759L430.296,394.769L430.262,394.781L430.233,394.79L430.197,394.803L430.167,394.813L430.139,394.823L430.102,394.837L430.074,394.847L430.039,394.86L430.008,394.872L429.981,394.883L429.944,394.898L429.916,394.909L429.884,394.923L429.852,394.936L429.824,394.948L429.788,394.963L429.747,394.982L429.711,394.998L429.671,395.017L429.634,395.034L429.596,395.052L429.559,395.071L429.519,395.091L429.494,395.104L429.447,395.128L429.409,395.148L429.362,395.174L429.324,395.195L429.301,395.208L429.261,395.23C429.254,395.234 429.247,395.238 429.241,395.242L429.217,395.256L429.199,395.267L429.178,395.279L429.157,395.292L429.135,395.306L429.117,395.316C429.11,395.321 429.103,395.325 429.096,395.329L429.075,395.343L429.055,395.355L429.035,395.368C429.029,395.372 429.022,395.376 429.015,395.381L428.994,395.395C428.968,395.412 428.941,395.429 428.915,395.447L428.895,395.461C428.889,395.465 428.882,395.47 428.876,395.474L428.856,395.488C428.069,396.037 427.433,396.787 427.021,397.663C426.687,398.372 426.5,399.164 426.5,400C426.5,400.836 426.687,401.628 427.021,402.337C427.433,403.213 428.069,403.963 428.856,404.512L428.876,404.526C428.882,404.53 428.889,404.535 428.895,404.539L428.915,404.553C428.941,404.571 428.967,404.588 428.994,404.605L429.015,404.619C429.022,404.624 429.029,404.628 429.035,404.632L429.056,404.645L429.078,404.659L429.096,404.671C429.103,404.675 429.11,404.679 429.117,404.684L429.139,404.697L429.16,404.71L429.178,404.721L429.199,404.733L429.223,404.747L429.241,404.758C429.247,404.762 429.254,404.766 429.261,404.77L429.284,404.783L429.324,404.805L429.37,404.831L429.409,404.852L429.447,404.872L429.478,404.888L429.519,404.909L429.559,404.929L429.596,404.948L429.634,404.966L429.671,404.983L429.711,405.002L429.747,405.018L429.774,405.03L429.807,405.045L429.838,405.058L429.865,405.069L429.9,405.084L429.929,405.096L429.956,405.107L429.993,405.122L430.021,405.133L430.053,405.145L430.085,405.157L430.114,405.167L430.149,405.18L430.179,405.191L430.207,405.201L430.244,405.213L430.273,405.223L430.306,405.234L430.339,405.244L430.368,405.253L430.404,405.265L430.435,405.274L430.464,405.282L430.501,405.293L430.531,405.301L430.565,405.311L430.599,405.32L430.629,405.327L430.665,405.337L430.697,405.344L430.726,405.351L430.764,405.36L430.795,405.367L430.83,405.375L430.864,405.382L430.894,405.389L430.931,405.396L430.963,405.402L430.993,405.408L431.032,405.415L431.064,405.42L431.099,405.426L431.133,405.432L431.164,405.437L431.203,405.442L431.235,405.447L431.267,405.452L431.305,405.456L431.337,405.46L431.374,405.465L431.408,405.468L431.439,405.472L431.478,405.475L431.511,405.478L431.545,405.481L431.582,405.484L431.614,405.487L431.652,405.489L431.686,405.491L431.718,405.493L431.758,405.495L431.79,405.496L431.827,405.497L431.863,405.498L431.895,405.499L431.934,405.5L431.968,405.5L432,405.5L432.041,405.5L432.074,405.5L432.111,405.499L432.146,405.498L432.178,405.497L432.218,405.496L432.251,405.494L432.285,405.493L432.323,405.491L432.355,405.489L432.393,405.486L432.427,405.484L432.458,405.481L432.498,405.478L432.53,405.475L432.566,405.471L432.601,405.467L432.633,405.464L432.671,405.459L432.704,405.455L432.735,405.451L432.774,405.446L432.806,405.441L432.842,405.436L432.876,405.43L432.907,405.425L432.945,405.419L432.977,405.413L433.009,405.408L433.046,405.4L433.077,405.394L433.113,405.387L433.146,405.38L433.176,405.374L433.214,405.365L433.245,405.358L433.279,405.35L433.313,405.342L433.343,405.335L433.38,405.325L433.411,405.317L433.441,405.309L433.479,405.299L433.508,405.29L433.544,405.28L433.576,405.271L433.605,405.262L433.642,405.25L433.672,405.241L433.704,405.231L433.738,405.219L433.767,405.21L433.803,405.197L433.833,405.187L433.861,405.177L433.898,405.163L433.926,405.153L433.961,405.14L433.992,405.128L434.019,405.117L434.056,405.102L434.084,405.091L434.116,405.077L434.148,405.064L434.176,405.052L434.212,405.037L434.253,405.018L434.289,405.002L434.329,404.983L434.366,404.966L434.404,404.948L434.441,404.929L434.481,404.909L434.506,404.896L434.553,404.872L434.591,404.852L434.638,404.826L434.676,404.805L434.699,404.792L434.739,404.77C434.746,404.766 434.753,404.762 434.759,404.758L434.783,404.744L434.801,404.733L434.822,404.721L434.843,404.708L434.865,404.694L434.883,404.684C434.89,404.679 434.897,404.675 434.904,404.671L434.925,404.657L434.945,404.645L434.965,404.632C434.971,404.628 434.978,404.624 434.985,404.619L435.006,404.605C435.032,404.588 435.059,404.571 435.085,404.553L435.105,404.539C435.111,404.535 435.118,404.53 435.124,404.526L435.144,404.512C435.931,403.963 436.567,403.213 436.979,402.337C437.313,401.628 437.5,400.836 437.5,400C437.5,399.164 437.313,398.372 436.979,397.663C436.567,396.787 435.931,396.037 435.144,395.488L435.124,395.474C435.118,395.47 435.111,395.465 435.105,395.461L435.085,395.447C435.059,395.429 435.033,395.412 435.006,395.395L434.985,395.381C434.978,395.376 434.971,395.372 434.965,395.368L434.944,395.355L434.922,395.341L434.904,395.329C434.897,395.325 434.89,395.321 434.883,395.316L434.861,395.303L434.84,395.29L434.822,395.279L434.801,395.267L434.777,395.253L434.759,395.242C434.753,395.238 434.746,395.234 434.739,395.23L434.716,395.217L434.676,395.195L434.63,395.169L434.591,395.148L434.553,395.128L434.522,395.112L434.481,395.091L434.441,395.071L434.404,395.052L434.366,395.034L434.329,395.017L434.289,394.998L434.253,394.982L434.226,394.97L434.193,394.955L434.162,394.942L434.135,394.931L434.1,394.916L434.071,394.904L434.044,394.893L434.007,394.878L433.979,394.867L433.947,394.855L433.915,394.843L433.886,394.833L433.851,394.82L433.821,394.809L433.793,394.799L433.756,394.787L433.727,394.777L433.694,394.766L433.661,394.756L433.632,394.747L433.596,394.735L433.565,394.726L433.536,394.718L433.499,394.707L433.469,394.699L433.435,394.689L433.401,394.68L433.371,394.673L433.335,394.663L433.303,394.656L433.274,394.649L433.236,394.64L433.205,394.633L433.17,394.625L433.136,394.618L433.106,394.611L433.069,394.604L433.037,394.598L433.007,394.592L432.968,394.585L432.936,394.58L432.901,394.574L432.867,394.568L432.836,394.563L432.797,394.558L432.765,394.553L432.733,394.548L432.695,394.544L432.663,394.54L432.626,394.535L432.592,394.532L432.561,394.528L432.522,394.525L432.489,394.522L432.455,394.519L432.418,394.516L432.386,394.513L432.348,394.511L432.314,394.509L432.282,394.507L432.242,394.505L432.21,394.504L432.173,394.503L432.137,394.502L432.105,394.501L432.066,394.5L432.032,394.5L432,394.5L431.968,394.5Z"/>
    </g>
</svg>
