<svg width="100%" height="100%" viewBox="0 0 80 80" version="1.1" xmlns="http://www.w3.org/2000/svg" style="fill-rule:evenodd;clip-rule:evenodd;stroke-linejoin:round;stroke-miterlimit:2;">
    <g id="g10">
        <path fill="currentColor" d="M9.755,78.165C4.371,78.165 0,73.793 0,68.41C0,63.026 4.371,58.655 9.755,58.655C15.139,58.655 19.51,63.026 19.51,68.41C19.51,73.793 15.139,78.165 9.755,78.165ZM9.755,75.91C5.616,75.91 2.255,72.549 2.255,68.41C2.255,64.27 5.616,60.91 9.755,60.91C13.894,60.91 17.255,64.27 17.255,68.41C17.255,72.549 13.894,75.91 9.755,75.91ZM28.732,39.4L26.597,37.19L61.962,3.037L61.963,3.039C59.841,5.067 58.639,7.878 58.639,10.813C58.639,16.713 63.494,21.568 69.394,21.568C72.16,21.568 74.823,20.501 76.823,18.591L41.537,52.662L39.406,50.455L20.504,68.706C20.507,68.608 20.508,68.511 20.508,68.414C20.508,62.543 15.702,57.701 9.831,57.657L28.732,39.4ZM69.433,20.534C64.049,20.534 59.678,16.162 59.678,10.779C59.678,5.395 64.049,1.024 69.433,1.024C74.817,1.024 79.188,5.395 79.188,10.779C79.188,16.162 74.817,20.534 69.433,20.534ZM69.433,18.279C65.294,18.279 61.933,14.918 61.933,10.779C61.933,6.639 65.294,3.279 69.433,3.279C73.572,3.279 76.933,6.639 76.933,10.779C76.933,14.918 73.572,18.279 69.433,18.279Z"/>
    </g>
</svg>
