<svg width="100%" height="100%" viewBox="0 0 800 800" version="1.1" xmlns="http://www.w3.org/2000/svg" style="fill-rule:evenodd;clip-rule:evenodd;stroke-linejoin:round;stroke-miterlimit:2;">
    <path fill="currentColor" d="M400,0C620.766,0 800,179.234 800,400C800,620.766 620.766,800 400,800C179.234,800 0,620.766 0,400C0,179.234 179.234,0 400,0ZM400,50C593.17,50 750,206.83 750,400C750,593.17 593.17,750 400,750C206.83,750 50,593.17 50,400C50,206.83 206.83,50 400,50ZM400,175C524.181,175 625,275.819 625,400C625,524.181 524.181,625 400,625C275.819,625 175,524.181 175,400C175,275.819 275.819,175 400,175Z"/>
</svg>
