<svg xmlns="http://www.w3.org/2000/svg" viewBox="-76 0 512 512">
  <path fill="currentColor" d="m 30,420 h 75 L 330,375 V 315 L 30,375 Z m 0,0 m 0,-105 73.51563,14.70312 150.0039,-30 L 180,285 330,255 V 195 L 30,255 Z m 0,0 M 330,90 H 255 L 30,135 v 60 l 73.51563,14.70312 150.0039,-30 L 180,165 330,135 Z m 0,0 m 0,360 H 30 C 13.429688,450 0,463.42969 0,480 v 32 h 360 v -32 c 0,-16.57031 -13.42969,-30 -30,-30 z m 0,0 M 0,30 c 0,16.566406 13.429688,30 30,30 h 300 c 16.57031,0 30,-13.433594 30,-30 V 0 H 0 Z m 0,0" />
</svg>
