<?xml version="1.0" encoding="UTF-8" standalone="no"?>
<svg
   xmlns="http://www.w3.org/2000/svg"
   id="svg8"
   version="1.1"
   viewBox="0 0 73 73"
   height="73"
   width="73">
  <g
     id="g6"
     transform="translate(-352.166,-586.762)">
    <path fill="currentColor"
       id="path2"
       transform="translate(376,586.762)"
       d="M 0,57 V 0 h 26 v 57 0 0 z M 13.686,32.57 a 2.715,2.715 0 1 0 2.734,2.717 2.731,2.731 0 0 0 -2.734,-2.717 z m 0,-13.572 A 2.715,2.715 0 1 0 16.42,21.711 2.727,2.727 0 0 0 13.686,19 Z m 0,-13.568 A 2.715,2.715 0 1 0 16.42,8.143 2.727,2.727 0 0 0 13.686,5.43 Z" />
    <path fill="currentColor"
       id="path4"
       transform="translate(360.874,653.216)"
       d="M 0,-1.719 28.212,-21.047 55.584,-1.719 V 6.545 H 0 Z" />
  </g>
</svg>
