<svg width="100%" height="100%" viewBox="0 0 800 800" version="1.1" xmlns="http://www.w3.org/2000/svg" style="fill-rule:evenodd;clip-rule:evenodd;stroke-linejoin:round;stroke-miterlimit:2;">
    <g transform="matrix(1.06171,0,0,1.06171,-10.6171,-47.2462)">
        <path fill="currentColor" d="M693,70L693,63L750,63L750,140L693,140L693,134L680,134L680,190L763.5,710L763.5,760L744,779.5L660,779.5L625,744.5L625,700L560,400L400,300L87,220L50,220L10,180L10,100L40,70L693,70ZM693,657C721.976,657 745.5,680.524 745.5,709.5C745.5,738.476 721.976,762 693,762C664.024,762 640.5,738.476 640.5,709.5C640.5,680.524 664.024,657 693,657ZM693,679.5C709.557,679.5 723,692.943 723,709.5C723,726.057 709.557,739.5 693,739.5C676.443,739.5 663,726.057 663,709.5C663,692.943 676.443,679.5 693,679.5ZM690,540C695.519,540 700,544.481 700,550C700,555.519 695.519,560 690,560C684.481,560 680,555.519 680,550C680,544.481 684.481,540 690,540ZM400,200C422.077,200 440,217.923 440,240C440,262.077 422.077,280 400,280C377.923,280 360,262.077 360,240C360,217.923 377.923,200 400,200ZM87,93.5C115.976,93.5 139.5,117.024 139.5,146C139.5,174.976 115.976,198.5 87,198.5C58.024,198.5 34.5,174.976 34.5,146C34.5,117.024 58.024,93.5 87,93.5ZM87,116C103.557,116 117,129.443 117,146C117,162.557 103.557,176 87,176C70.443,176 57,162.557 57,146C57,129.443 70.443,116 87,116ZM232,146C238.623,146 244,151.377 244,158C244,164.623 238.623,170 232,170C225.377,170 220,164.623 220,158C220,151.377 225.377,146 232,146ZM430,100C435.519,100 440,104.481 440,110C440,115.519 435.519,120 430,120C424.481,120 420,115.519 420,110C420,104.481 424.481,100 430,100Z"/>
    </g>
</svg>
