<svg width="100%" height="100%" viewBox="0 0 800 800" version="1.1" xmlns="http://www.w3.org/2000/svg" style="fill-rule:evenodd;clip-rule:evenodd;stroke-linejoin:round;stroke-miterlimit:2;">
    <g transform="matrix(1.0989,0,0,1.0989,-39.5604,-39.3002)">
        <path fill="currentColor" d="M548.651,472.647L553.013,493.774C502.037,503.749 440.804,513.737 400,513.737C359.196,513.737 297.963,503.749 246.987,493.774L251.349,472.647C301.014,482.39 360.352,492.073 400,492.073C439.648,492.073 498.986,482.39 548.651,472.647ZM541.601,407.608L562.365,508.171L596.399,501.143L575.635,400.581L541.601,407.608ZM203.601,501.143L237.635,508.171L258.399,407.608L224.365,400.581L203.601,501.143ZM543.598,448.176L547.953,469.267C496.072,479.813 439.641,488.961 400,488.961C360.359,488.961 303.928,479.813 252.047,469.267L256.402,448.176C306.86,458.448 361.506,467.297 400,467.297C438.494,467.297 493.14,458.448 543.598,448.176ZM594.912,463.044C621.614,457.211 639.421,452.833 639.421,452.833C645.227,451.41 651.097,454.968 652.52,460.774C653.944,466.58 650.385,472.45 644.579,473.873C644.579,473.873 626.459,478.303 599.282,484.209L594.912,463.044ZM200.718,484.209C173.541,478.303 155.421,473.873 155.421,473.873C149.615,472.45 146.056,466.58 147.48,460.774C148.903,454.968 154.773,451.41 160.579,452.833C160.579,452.833 178.386,457.211 205.088,463.044L200.718,484.209ZM538.555,423.756L542.906,444.823C491.72,455.444 438.567,463.985 400,463.985C361.433,463.985 308.28,455.444 257.094,444.823L261.445,423.756C311.161,434.077 362.58,442.321 400,442.321C437.42,442.321 488.839,434.077 538.555,423.756ZM589.78,438.192C638.506,427.088 675.146,417.051 675.146,417.051C680.912,415.476 686.873,418.879 688.449,424.646C690.024,430.412 686.621,436.373 680.854,437.949C680.854,437.949 643.658,448.082 594.142,459.314L589.78,438.192ZM205.858,459.314C156.342,448.082 119.146,437.949 119.146,437.949C113.379,436.373 109.976,430.412 111.551,424.646C113.127,418.879 119.088,415.476 124.854,417.051C124.854,417.051 161.494,427.088 210.22,438.192L205.858,459.314ZM584.69,413.541C617.745,405.802 647.49,398.005 668.482,392.288C652.493,381.288 642,362.86 642,342C642,308.333 669.333,281 703,281C736.667,281 764,308.333 764,342C764,373.549 739.997,399.536 709.271,402.681C708.317,403.359 707.236,403.892 706.051,404.24C706.051,404.24 653.852,419.524 589.046,434.634L584.69,413.541ZM210.954,434.634C146.148,419.524 93.949,404.24 93.949,404.24C92.764,403.892 91.683,403.359 90.729,402.681C60.003,399.536 36,373.549 36,342C36,308.333 63.333,281 97,281C130.667,281 158,308.333 158,342C158,362.86 147.507,381.288 131.518,392.288C152.512,398.006 182.255,405.802 215.31,413.541L210.954,434.634ZM707.157,383.847C730.187,382.122 745,365.974 745,342C745,316.612 728.388,300 703,300C677.612,300 661,316.612 661,342C661,365.908 675.731,382.033 698.653,383.832C699.507,383.584 699.949,383.454 699.949,383.454C702.421,382.728 704.948,382.926 707.157,383.847ZM101.347,383.832C124.269,382.033 139,365.908 139,342C139,316.612 122.388,300 97,300C71.612,300 55,316.612 55,342C55,365.974 69.813,382.122 92.843,383.847C95.052,382.926 97.579,382.728 100.051,383.454C100.051,383.454 100.493,383.584 101.347,383.832Z"/>
    </g>
</svg>
