<svg width="100%" height="100%" viewBox="0 0 600 600" version="1.1" xmlns="http://www.w3.org/2000/svg" style="fill-rule:evenodd;clip-rule:evenodd;stroke-linejoin:round;stroke-miterlimit:2;">
	<path fill="currentColor" d="M381.5,11.224c23.441,6.625 46.446,16.236 68.5,28.968c143.392,82.788 192.595,266.416 109.808,409.808c-82.788,143.392 -266.416,192.595 -409.808,109.808c-143.392,-82.788 -192.595,-266.416 -109.808,-409.808c40.674,-70.448 105.688,-118.162 178.308,-138.656l0,30.656l163,0l0,-30.776Zm-81.5,437.776c19.593,0 35.5,15.907 35.5,35.5c0,19.593 -15.907,35.5 -35.5,35.5c-19.593,0 -35.5,-15.907 -35.5,-35.5c0,-19.593 15.907,-35.5 35.5,-35.5Zm-190.526,-39c-9.796,-16.968 -3.974,-38.697 12.994,-48.494c16.968,-9.796 38.698,-3.974 48.494,12.994c9.797,16.968 3.974,38.697 -12.994,48.494c-16.968,9.796 -38.697,3.974 -48.494,-12.994Zm381.052,0c-9.797,16.968 -31.526,22.79 -48.494,12.994c-16.968,-9.797 -22.791,-31.526 -12.994,-48.494c9.796,-16.968 31.526,-22.79 48.494,-12.994c16.968,9.797 22.79,31.526 12.994,48.494Zm-61.488,-184.5c-9.797,-16.968 -3.974,-38.697 12.994,-48.494c16.968,-9.796 38.697,-3.974 48.494,12.994c9.796,16.968 3.974,38.697 -12.994,48.494c-16.968,9.796 -38.698,3.974 -48.494,-12.994Zm-258.076,0c-9.796,16.968 -31.526,22.79 -48.494,12.994c-16.968,-9.797 -22.79,-31.526 -12.994,-48.494c9.797,-16.968 31.526,-22.79 48.494,-12.994c16.968,9.797 22.791,31.526 12.994,48.494Zm129.038,-145.5c19.593,0 35.5,15.907 35.5,35.5c0,19.593 -15.907,35.5 -35.5,35.5c-19.593,0 -35.5,-15.907 -35.5,-35.5c0,-19.593 15.907,-35.5 35.5,-35.5Zm-1.254,-80c0.542,-0.003 1.085,-0.004 1.627,-0.004c0.543,0 1.085,0.001 1.628,0.004l-3.255,0Z"/>
	<path fill="currentColor" d="M381.5,11.224c23.441,6.625 46.446,16.236 68.5,28.968c143.392,82.788 192.595,266.416 109.808,409.808c-82.788,143.392 -266.416,192.595 -409.808,109.808c-143.392,-82.788 -192.595,-266.416 -109.808,-409.808c40.674,-70.448 105.688,-118.162 178.308,-138.656l0,30.656l163,0l0,-30.776Zm13.822,18.899l0,11.877c0,7.634 -6.188,13.822 -13.822,13.822l-163,0c-7.634,0 -13.822,-6.188 -13.822,-13.822l0,-11.776c-62.121,21.904 -117.03,65.224 -152.516,126.687c-78.973,136.785 -32.036,311.954 104.749,390.927c136.785,78.973 311.954,32.036 390.927,-104.749c78.973,-136.785 32.036,-311.954 -104.749,-390.927c-15.495,-8.946 -31.483,-16.277 -47.767,-22.039Zm-95.322,405.055c-27.221,0 -49.322,22.101 -49.322,49.322c0,27.221 22.101,49.322 49.322,49.322c27.221,0 49.322,-22.101 49.322,-49.322c0,-27.221 -22.101,-49.322 -49.322,-49.322Zm0,13.822c19.593,0 35.5,15.907 35.5,35.5c0,19.593 -15.907,35.5 -35.5,35.5c-19.593,0 -35.5,-15.907 -35.5,-35.5c0,-19.593 15.907,-35.5 35.5,-35.5Zm-202.496,-32.089c13.611,23.574 43.801,31.664 67.375,18.053c23.575,-13.611 31.664,-43.8 18.053,-67.375c-13.61,-23.574 -43.8,-31.664 -67.375,-18.053c-23.574,13.611 -31.663,43.8 -18.053,67.375Zm404.992,0c13.61,-23.575 5.521,-53.764 -18.053,-67.375c-23.575,-13.611 -53.765,-5.521 -67.375,18.053c-13.611,23.575 -5.522,53.764 18.053,67.375c23.574,13.611 53.764,5.521 67.375,-18.053Zm-393.022,-6.911c-9.796,-16.968 -3.974,-38.697 12.994,-48.494c16.968,-9.796 38.698,-3.974 48.494,12.994c9.797,16.968 3.974,38.697 -12.994,48.494c-16.968,9.796 -38.697,3.974 -48.494,-12.994Zm381.052,0c-9.797,16.968 -31.526,22.79 -48.494,12.994c-16.968,-9.797 -22.791,-31.526 -12.994,-48.494c9.796,-16.968 31.526,-22.79 48.494,-12.994c16.968,9.797 22.79,31.526 12.994,48.494Zm-73.458,-177.589c13.61,23.574 43.8,31.664 67.375,18.053c23.574,-13.611 31.663,-43.8 18.053,-67.375c-13.611,-23.574 -43.801,-31.664 -67.375,-18.053c-23.575,13.611 -31.664,43.8 -18.053,67.375Zm-234.136,0c13.611,-23.575 5.522,-53.764 -18.053,-67.375c-23.574,-13.611 -53.764,-5.521 -67.375,18.053c-13.61,23.575 -5.521,53.764 18.053,67.375c23.575,13.611 53.765,5.521 67.375,-18.053Zm246.106,-6.911c-9.797,-16.968 -3.974,-38.697 12.994,-48.494c16.968,-9.796 38.697,-3.974 48.494,12.994c9.796,16.968 3.974,38.697 -12.994,48.494c-16.968,9.796 -38.698,3.974 -48.494,-12.994Zm-258.076,0c-9.796,16.968 -31.526,22.79 -48.494,12.994c-16.968,-9.797 -22.79,-31.526 -12.994,-48.494c9.797,-16.968 31.526,-22.79 48.494,-12.994c16.968,9.797 22.791,31.526 12.994,48.494Zm129.038,-159.322c-27.221,0 -49.322,22.101 -49.322,49.322c0,27.221 22.101,49.322 49.322,49.322c27.221,0 49.322,-22.101 49.322,-49.322c0,-27.221 -22.101,-49.322 -49.322,-49.322Zm0,13.822c19.593,0 35.5,15.907 35.5,35.5c0,19.593 -15.907,35.5 -35.5,35.5c-19.593,0 -35.5,-15.907 -35.5,-35.5c0,-19.593 15.907,-35.5 35.5,-35.5Zm-1.254,-80c0.542,-0.003 1.085,-0.004 1.627,-0.004c0.543,0 1.085,0.001 1.628,0.004l-3.255,0Z"/></svg>