<?xml version="1.0" encoding="UTF-8" standalone="no"?>
<svg
   xmlns="http://www.w3.org/2000/svg"
   id="svg16"
   version="1.1"
   viewBox="0 0 97 97.000004"
   height="97"
   width="97">
  <g
     id="g14"
     transform="translate(-373,-757.481)">
    <circle fill="currentColor"
       id="circle2"
       transform="translate(415.905,759.714)"
       r="22.652"
       cy="22.652"
       cx="22.652" />
    <path fill="currentColor"
       id="path4"
       transform="translate(407,820.748)"
       d="M 4.231,0 H 52 a 11,11 0 0 1 11,11 v 0 A 11,11 0 0 1 52,22 H 4.231 A 4.231,4.231 0 0 1 0,17.769 V 4.231 A 4.231,4.231 0 0 1 4.231,0 Z" />
    <path fill="currentColor"
       id="path6"
       transform="rotate(-90,639.475,212.773)"
       d="m 0,0 h 30.542 a 11.708,11.708 0 0 1 11.707,11.708 v 0 A 11.708,11.708 0 0 1 30.542,23.415 H 0 Z" />
    <path fill="currentColor"
       id="path8"
       transform="translate(373,796.748)"
       d="m 0,0 h 14 a 5,5 0 0 1 5,5 v 11 a 5,5 0 0 1 -5,5 H 0 Z" />
    <rect fill="currentColor"
       y="0"
       x="0"
       id="rect10"
       transform="translate(432,800.748)"
       height="21"
       width="14" />
    <rect fill="currentColor"
       y="0"
       x="0"
       id="rect12"
       transform="rotate(43,-815.21217,892.03401)"
       rx="5"
       height="21.379"
       width="47.34" />
  </g>
</svg>
