<?xml version="1.0" encoding="UTF-8" standalone="no"?>
<svg
   xmlns="http://www.w3.org/2000/svg"
   height="336"
   viewBox="0 0 336 336.00001"
   version="1.1"
   id="svg28">
  <g
     transform="translate(-929,-390.4505)"
     id="g26">
    <path fill="currentColor"
       d="M 20.833,0 V 0 A 4.167,4.167 0 0 1 25,4.167 V 131.833 A 4.167,4.167 0 0 1 20.833,136 v 0 A 20.833,20.833 0 0 1 0,115.167 V 20.833 A 20.833,20.833 0 0 1 20.833,0 Z"
       transform="translate(929,454)"
       id="path2" />
    <path fill="currentColor"
       d="M 4.167,0 V 0 A 20.833,20.833 0 0 1 25,20.833 v 94.333 A 20.833,20.833 0 0 1 4.167,136 v 0 A 4.167,4.167 0 0 1 0,131.833 V 4.167 A 4.167,4.167 0 0 1 4.167,0 Z"
       transform="translate(1240,454)"
       id="path4" />
    <rect fill="currentColor"
       width="53"
       height="219"
       rx="25"
       transform="translate(965,413)"
       id="rect6"
       x="0"
       y="0" />
    <rect fill="currentColor"
       width="53"
       height="219"
       rx="25"
       transform="translate(1176,413)"
       id="rect8"
       x="0"
       y="0" />
    <rect fill="currentColor"
       width="12"
       height="165"
       rx="6"
       transform="translate(1042,440)"
       id="rect10"
       x="0"
       y="0" />
    <path fill="currentColor"
       d="M 5,0 H 16 V 134 H 5 A 5,5 0 0 1 0,129 V 5 A 5,5 0 0 1 5,0 Z"
       transform="translate(1028,455)"
       id="path12" />
    <rect fill="currentColor"
       width="12"
       height="187"
       rx="6"
       transform="translate(1091,440)"
       id="rect14"
       x="0"
       y="0" />
    <path fill="currentColor"
       d="M 5,0 H 32 V 134 H 5 A 5,5 0 0 1 0,129 V 5 A 5,5 0 0 1 5,0 Z"
       transform="translate(1065,455)"
       id="path16" />
    <rect fill="currentColor"
       width="12"
       height="165"
       rx="6"
       transform="translate(1139,440)"
       id="rect18"
       x="0"
       y="0" />
    <path fill="currentColor"
       d="M 5,0 H 25 V 134 H 5 A 5,5 0 0 1 0,129 V 5 A 5,5 0 0 1 5,0 Z"
       transform="translate(1114,455)"
       id="path20" />
    <circle fill="currentColor"
       cx="13.5"
       cy="13.5"
       r="13.5"
       transform="translate(1084,620)"
       id="circle22" />
    <path fill="currentColor"
       id="path24"
       d="m 1098.3027,635.18 a 5.0005,5.0005 0 0 0 -4.9238,5.072 c 0,10.801 6.8481,17.876 12.377,23.078 2.7644,2.601 5.2886,4.9 6.9101,6.981 1.6215,2.08 2.3203,3.678 2.3203,5.623 -0.01,9.808 -7.7306,17.712 -17.5273,17.961 -3.7901,-0.018 -8.5161,-2.516 -12.2031,-6.354 -3.6997,-3.852 -6.0638,-8.951 -6.209,-11.857 a 5.0005,5.0005 0 1 0 -9.9883,0.5 c 0.3328,6.66 3.9508,13.045 8.9844,18.285 5.0335,5.24 11.7706,9.431 19.457,9.431 h 0.055 0.053 c 15.1546,-0.328 27.3713,-12.804 27.3789,-27.962 v -0.002 -0.002 c 0,-4.668 -2.0036,-8.652 -4.4336,-11.77 -2.43,-3.118 -5.3077,-5.636 -7.9453,-8.117 -5.2751,-4.963 -9.2285,-9.114 -9.2285,-15.795 a 5.0005,5.0005 0 0 0 -5.0762,-5.072 z" />
  </g>
</svg>
