<svg xmlns="http://www.w3.org/2000/svg" style="enable-background:new 0 0 512 512;" viewBox="0 0 512 512" y="0px" x="0px" version="1.1">
	<path fill="currentColor" d="M 505.792,129.519 416.883,104.337 C 312.196,78.984 200.947,78.984 94.801,104.422 L 6.208,129.519 c -4.233,1.195 -6.861,5.419 -6.067,9.745 l 51.2,280.397 c 0.452,2.466 1.954,4.608 4.122,5.854 1.314,0.76 2.79,1.152 4.275,1.152 0.956,0 1.92,-0.162 2.85,-0.495 39.834,-14.123 80.785,-23.765 122.052,-28.971 l 17.322,-1.851 c 28.092,-2.688 56.26,-3.345 84.292,-1.92 l 17.927,1.152 c 29.389,2.423 58.522,7.219 87.168,14.191 l 17.851,4.634 c 13.517,3.772 26.931,7.945 40.158,12.749 2.355,0.845 4.975,0.623 7.159,-0.623 2.167,-1.254 3.686,-3.396 4.139,-5.871 l 51.2,-280.397 c 0.797,-4.327 -1.831,-8.551 -6.064,-9.746 z" />
</svg>