<svg id="svg" xmlns="http://www.w3.org/2000/svg"  width="400" height="400" viewBox="0, 0, 400,400"><g id="svgg"><path id="path0" d="M82.859 0.786 C 81.943 3.174,82.804 4.038,87.308 5.248 C 94.071 7.065,94.987 8.162,94.485 13.836 C 94.155 17.561,94.216 18.246,94.840 17.858 C 102.848 12.879,105.525 12.458,109.542 15.545 C 111.841 17.312,111.846 17.323,111.846 21.008 L 111.846 24.701 108.580 27.640 C 106.784 29.256,97.083 35.909,87.023 42.424 C 66.758 55.548,60.812 60.277,56.027 67.074 C 39.053 91.187,42.418 116.217,66.057 141.687 C 71.532 147.586,71.466 147.658,60.556 147.658 C 43.280 147.658,29.158 141.792,20.025 130.823 C 10.540 119.432,14.520 130.143,25.008 144.235 C 29.957 150.884,32.398 152.794,42.998 158.302 L 51.010 162.466 62.006 164.668 C 70.152 166.299,76.145 167.116,85.124 167.817 C 97.782 168.806,101.954 169.993,101.093 172.359 C 100.947 172.763,100.826 173.640,100.826 174.309 C 100.826 175.074,98.929 177.595,95.703 181.117 C 86.414 191.258,86.019 190.834,105.510 191.652 C 129.357 192.652,128.993 192.541,135.846 200.955 L 140.095 206.172 140.540 222.507 C 140.785 231.492,141.000 241.472,141.016 244.686 L 141.047 250.529 144.766 250.877 C 146.811 251.068,152.824 251.498,158.127 251.832 C 170.893 252.637,170.370 252.509,169.953 254.729 C 169.682 256.176,173.165 267.140,187.586 310.222 L 205.556 363.912 205.387 373.003 C 205.227 381.591,205.099 382.528,203.069 389.946 C 201.887 394.265,201.028 397.906,201.160 398.038 C 201.470 398.348,246.743 399.628,248.245 399.370 C 249.327 399.183,248.993 397.700,241.235 368.320 C 231.657 332.044,230.418 324.171,233.271 317.719 C 234.979 313.857,235.150 313.809,246.743 313.979 C 255.488 314.107,256.768 314.257,261.894 315.759 C 264.974 316.661,278.402 320.489,291.736 324.266 L 315.978 331.133 322.104 335.256 C 329.345 340.129,331.079 342.338,334.437 350.964 L 336.689 356.749 336.142 364.738 C 335.417 375.304,334.601 378.776,330.373 389.256 C 325.592 401.110,324.072 400.054,345.645 399.870 L 362.731 399.725 363.150 398.156 C 363.667 396.224,364.487 373.296,365.800 324.082 C 366.863 284.225,366.757 285.642,368.634 286.238 C 369.841 286.621,369.853 286.729,369.514 293.864 C 368.696 311.048,367.904 343.708,368.258 345.598 C 368.618 347.515,368.780 347.658,370.585 347.658 C 374.816 347.658,374.656 348.283,374.656 331.821 L 374.656 317.125 378.489 298.094 C 386.959 256.044,386.934 236.681,378.380 212.672 C 371.927 194.560,355.311 174.540,340.771 167.358 C 318.910 156.560,306.225 153.740,277.607 153.316 C 253.020 152.952,253.306 152.917,252.408 156.423 C 252.032 157.889,250.941 160.670,249.984 162.602 L 248.243 166.116 248.049 163.947 C 247.942 162.754,248.134 158.911,248.474 155.407 C 248.814 151.903,249.241 139.552,249.422 127.961 L 249.751 106.887 245.399 106.889 C 235.706 106.892,181.304 105.723,170.200 105.273 L 158.306 104.791 152.073 100.329 L 145.841 95.868 142.034 95.868 C 138.680 95.868,136.839 96.367,126.552 100.066 C 114.928 104.246,114.842 104.268,107.163 104.793 C 82.579 106.476,74.931 101.983,74.931 85.859 L 74.931 79.111 77.922 74.099 C 81.465 68.163,88.330 62.089,107.163 48.230 C 120.123 38.692,122.200 36.796,125.215 31.752 C 132.284 19.923,126.370 6.820,111.738 1.892 L 106.120 -0.000 94.640 -0.000 C 85.205 -0.000,83.107 0.140,82.859 0.786 " stroke="none" fill-rule="evenodd"></path></g></svg>