<svg id="svg" version="1.1" xmlns="http://www.w3.org/2000/svg"  width="400" height="400" viewBox="0, 0, 400,400"><g id="svgg"><path id="path0" d="M32.749 166.261 C 32.334 166.760,32.177 168.768,32.108 174.461 C 32.002 183.182,32.101 183.364,35.217 180.176 C 38.521 176.796,38.622 176.766,46.263 176.890 L 53.000 177.000 53.103 200.777 C 53.171 216.359,53.067 224.693,52.803 224.957 C 52.581 225.179,52.400 225.943,52.400 226.656 C 52.400 227.369,52.220 228.064,52.000 228.200 C 51.780 228.336,51.596 228.842,51.591 229.324 C 51.586 229.806,51.230 230.650,50.800 231.200 C 48.943 233.575,49.036 233.600,59.600 233.600 C 69.907 233.600,70.582 233.439,68.600 231.457 C 68.270 231.127,68.000 230.574,68.000 230.229 C 68.000 229.883,67.820 229.600,67.600 229.600 C 67.380 229.600,67.200 229.180,67.200 228.667 C 67.200 228.153,67.065 227.599,66.901 227.434 C 65.760 226.294,64.870 178.971,65.957 177.256 C 66.230 176.825,67.578 176.743,72.451 176.862 C 79.268 177.028,79.464 177.095,83.187 180.540 C 86.001 183.143,86.054 183.027,85.977 174.500 C 85.940 170.375,85.743 166.685,85.540 166.300 C 84.988 165.250,33.620 165.212,32.749 166.261 M96.143 166.203 C 96.016 166.535,96.211 167.436,96.576 168.205 C 98.416 172.084,98.409 171.956,98.411 199.714 C 98.412 216.778,98.270 226.295,98.007 226.788 C 97.783 227.206,97.600 227.838,97.600 228.193 C 97.600 228.548,97.240 229.584,96.800 230.494 C 95.224 233.757,94.790 233.600,105.400 233.600 C 116.056 233.600,115.458 233.850,113.641 230.156 C 111.573 225.953,111.538 225.374,111.724 198.800 C 111.890 175.195,112.054 171.061,112.842 170.574 C 113.039 170.452,113.200 170.003,113.200 169.576 C 113.200 169.149,113.380 168.800,113.600 168.800 C 113.820 168.800,114.000 168.080,114.000 167.200 L 114.000 165.600 105.187 165.600 C 97.702 165.600,96.340 165.691,96.143 166.203 M126.000 166.150 C 126.000 166.453,126.450 167.718,127.000 168.962 C 127.550 170.205,128.000 171.657,128.000 172.188 C 128.000 172.719,128.180 173.264,128.400 173.400 C 128.660 173.561,128.800 182.730,128.800 199.600 C 128.800 216.470,128.660 225.639,128.400 225.800 C 128.180 225.936,128.000 226.481,128.000 227.012 C 128.000 227.542,127.550 228.960,127.000 230.163 C 125.317 233.843,124.724 233.600,135.400 233.600 C 141.726 233.600,144.800 233.462,144.800 233.178 C 144.800 232.707,143.472 229.640,142.470 227.800 C 141.904 226.759,141.810 224.692,141.761 212.200 C 141.730 204.280,141.782 198.192,141.877 198.671 C 141.971 199.150,142.307 199.757,142.624 200.020 C 142.941 200.283,143.201 200.881,143.202 201.349 C 143.204 201.817,143.474 202.716,143.802 203.346 C 144.131 203.976,144.400 204.801,144.400 205.179 C 144.400 205.557,144.523 205.990,144.674 206.141 C 145.073 206.539,145.987 209.282,145.994 210.100 C 145.997 210.485,146.180 210.800,146.400 210.800 C 146.620 210.800,146.800 211.072,146.800 211.405 C 146.800 211.738,146.980 212.368,147.200 212.805 C 147.420 213.242,147.780 213.958,148.000 214.395 C 148.220 214.832,148.400 215.541,148.400 215.971 C 148.400 216.401,148.580 216.864,148.800 217.000 C 149.020 217.136,149.200 217.597,149.200 218.024 C 149.200 218.451,149.380 218.800,149.600 218.800 C 149.820 218.800,150.000 219.239,150.000 219.776 C 150.000 220.313,150.180 220.864,150.400 221.000 C 150.620 221.136,150.800 221.597,150.800 222.024 C 150.800 222.451,150.980 222.800,151.200 222.800 C 151.420 222.800,151.600 223.239,151.600 223.776 C 151.600 224.313,151.780 224.864,152.000 225.000 C 152.220 225.136,152.400 225.591,152.400 226.011 C 152.400 226.432,152.760 227.417,153.200 228.200 C 153.640 228.983,154.000 229.968,154.000 230.389 C 154.000 230.809,154.180 231.264,154.400 231.400 C 154.620 231.536,154.800 231.977,154.800 232.381 C 154.800 234.164,164.350 234.274,165.179 232.500 C 165.462 231.895,165.852 231.087,166.047 230.705 C 166.241 230.323,166.400 229.659,166.400 229.229 C 166.400 228.799,166.580 228.336,166.800 228.200 C 167.020 228.064,167.200 227.609,167.200 227.189 C 167.200 226.768,167.560 225.783,168.000 225.000 C 168.440 224.217,168.800 223.309,168.800 222.982 C 168.800 222.656,168.959 222.077,169.153 221.695 C 169.348 221.313,169.729 220.460,170.000 219.800 C 170.271 219.140,170.652 218.287,170.847 217.905 C 171.041 217.523,171.200 216.848,171.200 216.405 C 171.200 215.962,171.380 215.600,171.600 215.600 C 171.820 215.600,172.000 215.238,172.000 214.795 C 172.000 214.352,172.159 213.677,172.353 213.295 C 172.673 212.667,173.050 211.795,174.037 209.400 C 174.218 208.960,174.572 207.790,174.822 206.800 C 175.073 205.810,175.424 204.820,175.603 204.600 C 175.782 204.380,176.349 202.940,176.864 201.400 L 177.800 198.600 177.914 212.000 C 178.035 226.266,177.874 227.813,175.934 231.000 C 174.322 233.647,174.168 233.600,184.576 233.600 C 194.575 233.600,194.943 233.523,193.710 231.697 C 192.810 230.364,191.833 227.426,191.216 224.200 C 190.632 221.145,190.877 177.359,191.498 173.800 C 191.946 171.232,192.094 170.759,193.291 168.052 C 194.370 165.612,194.236 165.567,186.176 165.690 L 179.011 165.800 178.174 167.400 C 177.713 168.280,177.202 169.540,177.037 170.200 C 176.873 170.860,176.495 171.940,176.197 172.600 C 175.900 173.260,175.177 175.060,174.592 176.600 C 174.007 178.140,173.184 180.163,172.764 181.096 C 172.344 182.028,172.000 182.968,172.000 183.183 C 172.000 183.399,171.640 184.217,171.200 185.000 C 170.760 185.783,170.400 186.691,170.400 187.018 C 170.400 187.344,170.248 187.923,170.063 188.305 C 169.878 188.687,169.320 189.900,168.823 191.000 C 168.326 192.100,167.757 193.313,167.560 193.695 C 167.362 194.077,167.200 194.664,167.200 195.000 C 167.200 195.336,167.041 195.923,166.847 196.305 C 166.652 196.687,166.292 197.495,166.047 198.100 C 165.801 198.705,165.399 199.695,165.153 200.300 C 164.908 200.905,164.548 201.713,164.353 202.095 C 164.159 202.477,164.000 203.062,164.000 203.395 C 164.000 203.728,163.820 204.000,163.600 204.000 C 163.380 204.000,163.200 204.439,163.200 204.976 C 163.200 205.513,163.020 206.064,162.800 206.200 C 162.580 206.336,162.400 206.693,162.400 206.992 C 162.400 207.292,161.809 208.794,161.086 210.331 L 159.772 213.124 159.266 211.662 C 158.987 210.858,158.566 209.525,158.331 208.700 C 158.095 207.875,157.745 207.200,157.551 207.200 C 157.358 207.200,157.200 206.857,157.200 206.438 C 157.200 206.019,156.864 204.984,156.453 204.138 C 156.043 203.292,155.323 201.818,154.853 200.862 C 154.384 199.906,154.000 198.800,154.000 198.403 C 154.000 198.006,153.460 196.655,152.800 195.400 C 152.140 194.145,151.600 192.873,151.600 192.572 C 151.600 192.271,151.240 191.383,150.800 190.600 C 150.360 189.817,150.000 188.917,150.000 188.600 C 150.000 188.283,149.640 187.383,149.200 186.600 C 148.760 185.817,148.400 184.917,148.400 184.600 C 148.400 184.283,148.040 183.383,147.600 182.600 C 147.160 181.817,146.800 180.821,146.800 180.388 C 146.800 179.955,146.664 179.600,146.498 179.600 C 146.332 179.600,145.993 179.015,145.746 178.300 C 144.521 174.763,143.553 172.325,142.360 169.774 C 141.942 168.879,141.600 167.872,141.600 167.536 C 141.600 167.199,141.271 166.626,140.869 166.262 C 139.868 165.357,126.000 165.252,126.000 166.150 M206.400 166.605 C 206.400 167.158,206.563 167.923,206.763 168.305 C 208.539 171.703,208.575 172.240,208.726 197.600 C 208.866 221.271,208.608 227.977,207.533 228.642 C 207.350 228.755,207.200 229.276,207.200 229.800 C 207.200 230.324,207.020 230.864,206.800 231.000 C 206.580 231.136,206.400 231.777,206.400 232.424 L 206.400 233.600 214.976 233.600 C 224.086 233.600,224.279 233.559,223.380 231.826 C 223.061 231.211,222.800 230.380,222.800 229.978 C 222.800 229.576,222.620 229.136,222.400 229.000 C 222.180 228.864,222.000 228.144,222.000 227.400 C 222.000 226.656,221.820 225.936,221.600 225.800 C 221.348 225.644,221.200 221.266,221.200 213.988 L 221.200 202.423 233.100 202.274 C 245.677 202.116,247.142 201.969,248.238 200.758 C 248.615 200.341,249.166 200.000,249.462 200.000 C 249.758 200.000,250.000 199.758,250.000 199.462 C 250.000 199.166,250.344 198.613,250.765 198.232 C 252.742 196.443,252.729 172.346,250.751 170.555 C 250.338 170.182,250.000 169.700,250.000 169.485 C 250.000 168.882,247.884 167.201,247.124 167.200 C 246.752 167.200,246.336 167.020,246.200 166.800 C 246.064 166.580,244.804 166.400,243.400 166.400 C 241.996 166.400,240.736 166.220,240.600 166.000 C 240.441 165.743,234.263 165.600,223.376 165.600 L 206.400 165.600 206.400 166.605 M259.595 172.700 C 259.592 176.605,259.481 180.203,259.349 180.695 C 258.815 182.689,260.366 182.210,263.044 179.556 L 265.621 177.000 272.560 176.875 L 279.499 176.750 279.659 196.875 C 279.872 223.758,279.730 227.110,278.249 230.095 C 276.453 233.716,276.172 233.600,286.787 233.600 C 297.013 233.600,296.859 233.647,295.282 231.000 C 294.889 230.340,294.331 228.990,294.042 228.000 C 293.753 227.010,293.355 225.787,293.158 225.281 C 292.754 224.244,292.659 180.006,293.057 178.017 L 293.313 176.733 299.757 176.867 L 306.200 177.000 307.994 178.400 C 308.981 179.170,310.268 180.295,310.855 180.900 C 311.441 181.505,312.029 182.000,312.160 182.000 C 312.292 182.000,312.400 178.310,312.400 173.800 L 312.400 165.600 286.000 165.600 L 259.600 165.600 259.595 172.700 M322.000 166.581 C 322.000 167.121,322.202 168.066,322.450 168.681 C 324.388 173.502,324.400 173.693,324.400 200.029 C 324.400 224.116,324.241 227.775,323.146 228.980 C 322.956 229.189,322.800 229.650,322.800 230.005 C 322.800 230.359,322.440 231.036,322.000 231.508 C 319.986 233.670,319.256 233.600,343.938 233.600 C 365.458 233.600,366.711 233.561,367.338 232.869 C 368.318 231.786,368.340 218.000,367.362 218.000 C 366.818 218.000,364.632 219.288,364.000 219.981 C 363.519 220.508,360.257 222.000,359.586 222.000 C 359.180 222.000,358.736 222.180,358.600 222.400 C 358.445 222.650,354.463 222.800,347.976 222.800 L 337.600 222.800 337.600 214.200 L 337.600 205.600 343.139 205.600 C 348.788 205.600,350.390 205.942,351.607 207.408 C 351.877 207.734,352.326 208.000,352.604 208.000 C 352.882 208.000,353.529 208.527,354.042 209.170 C 354.554 209.814,355.114 210.253,355.287 210.147 C 355.673 209.907,355.708 189.200,355.322 189.200 C 355.169 189.200,354.550 189.673,353.947 190.250 C 352.797 191.353,352.313 191.656,348.898 193.414 C 347.403 194.183,346.653 194.377,346.298 194.084 C 346.009 193.846,344.077 193.717,341.700 193.777 L 337.600 193.880 337.600 185.312 L 337.600 176.744 348.900 176.879 C 360.022 177.011,362.400 177.290,362.400 178.464 C 362.400 178.649,362.636 178.800,362.925 178.800 C 363.213 178.800,363.807 179.115,364.245 179.500 C 365.373 180.493,366.687 181.200,367.401 181.200 C 368.253 181.200,368.113 167.297,367.251 166.261 C 366.753 165.661,364.642 165.600,344.351 165.600 L 322.000 165.600 322.000 166.581 M238.725 178.128 C 241.523 180.808,241.520 188.250,238.720 190.606 C 237.546 191.594,237.487 191.600,229.369 191.600 L 221.200 191.600 221.200 184.154 L 221.200 176.708 229.382 176.862 L 237.565 177.017 238.725 178.128 " stroke="none" fill="#ea6b2b" fill-rule="evenodd"></path><path id="path1" d="M17.000 143.200 C 16.864 143.420,16.106 143.600,15.316 143.600 C 13.744 143.600,9.781 145.340,8.753 146.481 C 8.397 146.877,7.896 147.200,7.640 147.200 C 7.015 147.200,4.740 149.535,4.032 150.903 C 3.720 151.506,3.315 152.000,3.132 152.000 C 2.950 152.000,2.800 152.360,2.800 152.800 C 2.800 153.240,2.620 153.600,2.400 153.600 C 2.180 153.600,2.000 153.960,2.000 154.400 C 2.000 154.840,1.820 155.200,1.600 155.200 C 1.380 155.200,1.200 155.545,1.200 155.967 C 1.200 156.388,0.975 156.808,0.700 156.900 C -0.034 157.145,-0.034 242.055,0.700 242.300 C 0.975 242.392,1.200 242.812,1.200 243.233 C 1.200 243.655,1.380 244.000,1.600 244.000 C 1.820 244.000,2.000 244.360,2.000 244.800 C 2.000 245.240,2.180 245.600,2.400 245.600 C 2.620 245.600,2.800 245.920,2.800 246.312 C 2.800 246.703,3.160 247.283,3.600 247.600 C 4.040 247.917,4.400 248.413,4.400 248.702 C 4.400 249.384,7.016 252.000,7.698 252.000 C 7.987 252.000,8.483 252.360,8.800 252.800 C 9.117 253.240,9.607 253.600,9.888 253.600 C 10.170 253.600,10.400 253.780,10.400 254.000 C 10.400 254.220,10.760 254.400,11.200 254.400 C 11.640 254.400,12.000 254.580,12.000 254.800 C 12.000 255.020,12.349 255.200,12.776 255.200 C 13.203 255.200,13.652 255.361,13.774 255.558 C 14.326 256.451,27.719 256.520,200.000 256.520 C 372.281 256.520,385.674 256.451,386.226 255.558 C 386.348 255.361,386.797 255.200,387.224 255.200 C 387.651 255.200,388.000 255.020,388.000 254.800 C 388.000 254.580,388.360 254.400,388.800 254.400 C 389.240 254.400,389.600 254.220,389.600 254.000 C 389.600 253.780,389.948 253.600,390.373 253.600 C 390.798 253.600,391.260 253.240,391.400 252.800 C 391.540 252.360,391.918 252.000,392.240 252.000 C 392.969 252.000,395.600 249.417,395.600 248.702 C 395.600 248.413,395.960 247.917,396.400 247.600 C 396.840 247.283,397.200 246.703,397.200 246.312 C 397.200 245.920,397.380 245.600,397.600 245.600 C 397.820 245.600,398.000 245.240,398.000 244.800 C 398.000 244.360,398.180 244.000,398.400 244.000 C 398.620 244.000,398.800 243.655,398.800 243.233 C 398.800 242.812,399.025 242.392,399.300 242.300 C 400.034 242.055,400.034 157.145,399.300 156.900 C 399.025 156.808,398.800 156.388,398.800 155.967 C 398.800 155.545,398.620 155.200,398.400 155.200 C 398.180 155.200,398.000 154.840,398.000 154.400 C 398.000 153.960,397.820 153.600,397.600 153.600 C 397.380 153.600,397.200 153.280,397.200 152.888 C 397.200 152.497,396.840 151.917,396.400 151.600 C 395.960 151.283,395.600 150.787,395.600 150.498 C 395.600 149.820,392.986 147.200,392.310 147.200 C 392.025 147.200,391.568 146.840,391.293 146.400 C 391.018 145.960,390.525 145.600,390.197 145.600 C 389.868 145.600,389.600 145.420,389.600 145.200 C 389.600 144.980,389.255 144.800,388.833 144.800 C 388.412 144.800,388.004 144.611,387.927 144.381 C 387.850 144.150,386.755 143.855,385.494 143.725 C 384.232 143.595,383.200 143.333,383.200 143.144 C 383.200 142.641,17.311 142.697,17.000 143.200 M380.200 150.000 C 380.336 150.220,381.056 150.400,381.800 150.400 C 382.544 150.400,383.264 150.580,383.400 150.800 C 383.536 151.020,384.047 151.200,384.535 151.200 C 385.024 151.200,385.683 151.560,386.000 152.000 C 386.317 152.440,386.813 152.800,387.102 152.800 C 387.784 152.800,390.400 155.416,390.400 156.098 C 390.400 156.387,390.760 156.883,391.200 157.200 C 391.640 157.517,392.000 158.187,392.000 158.688 C 392.000 159.190,392.180 159.600,392.400 159.600 C 392.620 159.600,392.800 160.320,392.800 161.200 C 392.800 162.080,392.980 162.800,393.200 162.800 C 393.464 162.800,393.600 175.333,393.600 199.600 C 393.600 223.867,393.464 236.400,393.200 236.400 C 392.980 236.400,392.800 237.120,392.800 238.000 C 392.800 238.880,392.620 239.600,392.400 239.600 C 392.180 239.600,392.000 240.100,392.000 240.712 C 392.000 241.365,391.670 242.061,391.200 242.400 C 390.760 242.717,390.400 243.123,390.400 243.302 C 390.400 243.835,387.669 246.400,387.102 246.400 C 386.813 246.400,386.317 246.760,386.000 247.200 C 385.661 247.670,384.965 248.000,384.312 248.000 C 383.700 248.000,383.200 248.180,383.200 248.400 C 383.200 248.620,382.581 248.800,381.824 248.800 C 381.067 248.800,380.336 248.980,380.200 249.200 C 379.857 249.755,20.000 249.755,20.000 249.200 C 20.000 248.980,19.100 248.800,18.000 248.800 C 16.900 248.800,16.000 248.620,16.000 248.400 C 16.000 248.180,15.680 248.000,15.288 248.000 C 14.897 248.000,14.317 247.640,14.000 247.200 C 13.683 246.760,13.187 246.400,12.898 246.400 C 12.382 246.400,9.600 243.857,9.600 243.385 C 9.600 243.252,9.330 242.873,9.000 242.543 C 8.670 242.213,8.400 241.516,8.400 240.995 C 8.400 240.474,8.220 239.936,8.000 239.800 C 7.780 239.664,7.600 238.944,7.600 238.200 C 7.600 237.456,7.420 236.736,7.200 236.600 C 6.938 236.438,6.800 223.670,6.800 199.600 C 6.800 175.530,6.938 162.762,7.200 162.600 C 7.420 162.464,7.600 161.874,7.600 161.290 C 7.600 159.993,8.777 156.800,9.254 156.800 C 9.444 156.800,9.600 156.524,9.600 156.187 C 9.600 155.438,12.169 152.800,12.898 152.800 C 13.187 152.800,13.683 152.440,14.000 152.000 C 14.317 151.560,14.886 151.200,15.265 151.200 C 15.643 151.200,16.064 151.020,16.200 150.800 C 16.336 150.580,17.247 150.400,18.224 150.400 C 19.201 150.400,20.000 150.220,20.000 150.000 C 20.000 149.734,80.259 149.600,199.976 149.600 C 319.529 149.600,380.036 149.734,380.200 150.000 M18.000 158.400 C 17.683 158.840,17.103 159.200,16.712 159.200 C 16.320 159.200,16.000 159.470,16.000 159.800 C 16.000 160.130,15.820 160.400,15.600 160.400 C 15.380 160.400,15.200 160.760,15.200 161.200 C 15.200 161.640,15.020 162.000,14.800 162.000 C 14.536 162.000,14.400 174.707,14.400 199.320 C 14.400 236.557,14.473 238.784,15.700 238.797 C 15.865 238.799,16.000 239.160,16.000 239.600 C 16.000 240.061,16.267 240.400,16.629 240.400 C 16.974 240.400,17.527 240.670,17.857 241.000 C 18.771 241.914,381.229 241.914,382.143 241.000 C 382.473 240.670,383.026 240.400,383.371 240.400 C 383.733 240.400,384.000 240.061,384.000 239.600 C 384.000 239.160,384.180 238.800,384.400 238.800 C 384.620 238.800,384.800 238.530,384.800 238.200 C 384.800 237.870,384.980 237.600,385.200 237.600 C 385.464 237.600,385.600 224.733,385.600 199.800 C 385.600 174.867,385.464 162.000,385.200 162.000 C 384.980 162.000,384.800 161.640,384.800 161.200 C 384.800 160.760,384.620 160.400,384.400 160.400 C 384.180 160.400,384.000 160.130,384.000 159.800 C 384.000 159.470,383.680 159.200,383.288 159.200 C 382.897 159.200,382.317 158.840,382.000 158.400 C 381.425 157.602,380.965 157.600,200.000 157.600 C 19.035 157.600,18.575 157.602,18.000 158.400 M85.540 166.300 C 85.743 166.685,85.940 170.375,85.977 174.500 C 86.054 183.027,86.001 183.143,83.187 180.540 C 79.464 177.095,79.268 177.028,72.451 176.862 C 67.578 176.743,66.230 176.825,65.957 177.256 C 64.870 178.971,65.760 226.294,66.901 227.434 C 67.065 227.599,67.200 228.153,67.200 228.667 C 67.200 229.180,67.380 229.600,67.600 229.600 C 67.820 229.600,68.000 229.883,68.000 230.229 C 68.000 230.574,68.270 231.127,68.600 231.457 C 70.582 233.439,69.907 233.600,59.600 233.600 C 49.036 233.600,48.943 233.575,50.800 231.200 C 51.230 230.650,51.586 229.806,51.591 229.324 C 51.596 228.842,51.780 228.336,52.000 228.200 C 52.220 228.064,52.400 227.369,52.400 226.656 C 52.400 225.943,52.581 225.179,52.803 224.957 C 53.067 224.693,53.171 216.359,53.103 200.777 L 53.000 177.000 46.263 176.890 C 38.622 176.766,38.521 176.796,35.217 180.176 C 32.101 183.364,32.002 183.182,32.108 174.461 C 32.177 168.768,32.334 166.760,32.749 166.261 C 33.620 165.212,84.988 165.250,85.540 166.300 M114.000 167.200 C 114.000 168.080,113.820 168.800,113.600 168.800 C 113.380 168.800,113.200 169.149,113.200 169.576 C 113.200 170.003,113.039 170.452,112.842 170.574 C 112.054 171.061,111.890 175.195,111.724 198.800 C 111.538 225.374,111.573 225.953,113.641 230.156 C 115.458 233.850,116.056 233.600,105.400 233.600 C 94.790 233.600,95.224 233.757,96.800 230.494 C 97.240 229.584,97.600 228.548,97.600 228.193 C 97.600 227.838,97.783 227.206,98.007 226.788 C 98.270 226.295,98.412 216.778,98.411 199.714 C 98.409 171.956,98.416 172.084,96.576 168.205 C 95.343 165.607,95.367 165.600,105.187 165.600 L 114.000 165.600 114.000 167.200 M140.869 166.262 C 141.271 166.626,141.600 167.199,141.600 167.536 C 141.600 167.872,141.942 168.879,142.360 169.774 C 143.553 172.325,144.521 174.763,145.746 178.300 C 145.993 179.015,146.332 179.600,146.498 179.600 C 146.664 179.600,146.800 179.955,146.800 180.388 C 146.800 180.821,147.160 181.817,147.600 182.600 C 148.040 183.383,148.400 184.283,148.400 184.600 C 148.400 184.917,148.760 185.817,149.200 186.600 C 149.640 187.383,150.000 188.283,150.000 188.600 C 150.000 188.917,150.360 189.817,150.800 190.600 C 151.240 191.383,151.600 192.271,151.600 192.572 C 151.600 192.873,152.140 194.145,152.800 195.400 C 153.460 196.655,154.000 198.006,154.000 198.403 C 154.000 198.800,154.384 199.906,154.853 200.862 C 155.323 201.818,156.043 203.292,156.453 204.138 C 156.864 204.984,157.200 206.019,157.200 206.438 C 157.200 206.857,157.358 207.200,157.551 207.200 C 157.745 207.200,158.095 207.875,158.331 208.700 C 158.566 209.525,158.987 210.858,159.266 211.662 L 159.772 213.124 161.086 210.331 C 161.809 208.794,162.400 207.292,162.400 206.992 C 162.400 206.693,162.580 206.336,162.800 206.200 C 163.020 206.064,163.200 205.513,163.200 204.976 C 163.200 204.439,163.380 204.000,163.600 204.000 C 163.820 204.000,164.000 203.728,164.000 203.395 C 164.000 203.062,164.159 202.477,164.353 202.095 C 164.548 201.713,164.908 200.905,165.153 200.300 C 165.399 199.695,165.801 198.705,166.047 198.100 C 166.292 197.495,166.652 196.687,166.847 196.305 C 167.041 195.923,167.200 195.336,167.200 195.000 C 167.200 194.664,167.362 194.077,167.560 193.695 C 167.757 193.313,168.326 192.100,168.823 191.000 C 169.320 189.900,169.878 188.687,170.063 188.305 C 170.248 187.923,170.400 187.344,170.400 187.018 C 170.400 186.691,170.760 185.783,171.200 185.000 C 171.640 184.217,172.000 183.399,172.000 183.183 C 172.000 182.968,172.344 182.028,172.764 181.096 C 173.184 180.163,174.007 178.140,174.592 176.600 C 175.177 175.060,175.900 173.260,176.197 172.600 C 176.495 171.940,176.873 170.860,177.037 170.200 C 177.202 169.540,177.713 168.280,178.174 167.400 L 179.011 165.800 186.176 165.690 C 194.236 165.567,194.370 165.612,193.291 168.052 C 192.094 170.759,191.946 171.232,191.498 173.800 C 190.877 177.359,190.632 221.145,191.216 224.200 C 191.833 227.426,192.810 230.364,193.710 231.697 C 194.943 233.523,194.575 233.600,184.576 233.600 C 174.168 233.600,174.322 233.647,175.934 231.000 C 177.874 227.813,178.035 226.266,177.914 212.000 L 177.800 198.600 176.864 201.400 C 176.349 202.940,175.782 204.380,175.603 204.600 C 175.424 204.820,175.073 205.810,174.822 206.800 C 174.572 207.790,174.218 208.960,174.037 209.400 C 173.050 211.795,172.673 212.667,172.353 213.295 C 172.159 213.677,172.000 214.352,172.000 214.795 C 172.000 215.238,171.820 215.600,171.600 215.600 C 171.380 215.600,171.200 215.962,171.200 216.405 C 171.200 216.848,171.041 217.523,170.847 217.905 C 170.652 218.287,170.271 219.140,170.000 219.800 C 169.729 220.460,169.348 221.313,169.153 221.695 C 168.959 222.077,168.800 222.656,168.800 222.982 C 168.800 223.309,168.440 224.217,168.000 225.000 C 167.560 225.783,167.200 226.768,167.200 227.189 C 167.200 227.609,167.020 228.064,166.800 228.200 C 166.580 228.336,166.400 228.799,166.400 229.229 C 166.400 229.659,166.241 230.323,166.047 230.705 C 165.852 231.087,165.462 231.895,165.179 232.500 C 164.350 234.274,154.800 234.164,154.800 232.381 C 154.800 231.977,154.620 231.536,154.400 231.400 C 154.180 231.264,154.000 230.809,154.000 230.389 C 154.000 229.968,153.640 228.983,153.200 228.200 C 152.760 227.417,152.400 226.432,152.400 226.011 C 152.400 225.591,152.220 225.136,152.000 225.000 C 151.780 224.864,151.600 224.313,151.600 223.776 C 151.600 223.239,151.420 222.800,151.200 222.800 C 150.980 222.800,150.800 222.451,150.800 222.024 C 150.800 221.597,150.620 221.136,150.400 221.000 C 150.180 220.864,150.000 220.313,150.000 219.776 C 150.000 219.239,149.820 218.800,149.600 218.800 C 149.380 218.800,149.200 218.451,149.200 218.024 C 149.200 217.597,149.020 217.136,148.800 217.000 C 148.580 216.864,148.400 216.401,148.400 215.971 C 148.400 215.541,148.220 214.832,148.000 214.395 C 147.780 213.958,147.420 213.242,147.200 212.805 C 146.980 212.368,146.800 211.738,146.800 211.405 C 146.800 211.072,146.620 210.800,146.400 210.800 C 146.180 210.800,145.997 210.485,145.994 210.100 C 145.987 209.282,145.073 206.539,144.674 206.141 C 144.523 205.990,144.400 205.557,144.400 205.179 C 144.400 204.801,144.131 203.976,143.802 203.346 C 143.474 202.716,143.204 201.817,143.202 201.349 C 143.201 200.881,142.941 200.283,142.624 200.020 C 142.307 199.757,141.971 199.150,141.877 198.671 C 141.782 198.192,141.730 204.280,141.761 212.200 C 141.810 224.692,141.904 226.759,142.470 227.800 C 143.472 229.640,144.800 232.707,144.800 233.178 C 144.800 233.462,141.726 233.600,135.400 233.600 C 124.724 233.600,125.317 233.843,127.000 230.163 C 127.550 228.960,128.000 227.542,128.000 227.012 C 128.000 226.481,128.180 225.936,128.400 225.800 C 128.660 225.639,128.800 216.470,128.800 199.600 C 128.800 182.730,128.660 173.561,128.400 173.400 C 128.180 173.264,128.000 172.719,128.000 172.188 C 128.000 171.657,127.550 170.205,127.000 168.962 C 125.423 165.396,125.056 165.600,133.069 165.600 C 139.084 165.600,140.246 165.699,140.869 166.262 M240.600 166.000 C 240.736 166.220,241.996 166.400,243.400 166.400 C 244.804 166.400,246.064 166.580,246.200 166.800 C 246.336 167.020,246.752 167.200,247.124 167.200 C 247.884 167.201,250.000 168.882,250.000 169.485 C 250.000 169.700,250.338 170.182,250.751 170.555 C 252.729 172.346,252.742 196.443,250.765 198.232 C 250.344 198.613,250.000 199.166,250.000 199.462 C 250.000 199.758,249.758 200.000,249.462 200.000 C 249.166 200.000,248.615 200.341,248.238 200.758 C 247.142 201.969,245.677 202.116,233.100 202.274 L 221.200 202.423 221.200 213.988 C 221.200 221.266,221.348 225.644,221.600 225.800 C 221.820 225.936,222.000 226.656,222.000 227.400 C 222.000 228.144,222.180 228.864,222.400 229.000 C 222.620 229.136,222.800 229.576,222.800 229.978 C 222.800 230.380,223.061 231.211,223.380 231.826 C 224.279 233.559,224.086 233.600,214.976 233.600 L 206.400 233.600 206.400 232.424 C 206.400 231.777,206.580 231.136,206.800 231.000 C 207.020 230.864,207.200 230.324,207.200 229.800 C 207.200 229.276,207.350 228.755,207.533 228.642 C 208.608 227.977,208.866 221.271,208.726 197.600 C 208.575 172.240,208.539 171.703,206.763 168.305 C 206.563 167.923,206.400 167.158,206.400 166.605 L 206.400 165.600 223.376 165.600 C 234.263 165.600,240.441 165.743,240.600 166.000 M312.400 173.800 C 312.400 178.310,312.292 182.000,312.160 182.000 C 312.029 182.000,311.441 181.505,310.855 180.900 C 310.268 180.295,308.981 179.170,307.994 178.400 L 306.200 177.000 299.757 176.867 L 293.313 176.733 293.057 178.017 C 292.659 180.006,292.754 224.244,293.158 225.281 C 293.355 225.787,293.753 227.010,294.042 228.000 C 294.331 228.990,294.889 230.340,295.282 231.000 C 296.859 233.647,297.013 233.600,286.787 233.600 C 276.172 233.600,276.453 233.716,278.249 230.095 C 279.730 227.110,279.872 223.758,279.659 196.875 L 279.499 176.750 272.560 176.875 L 265.621 177.000 263.044 179.556 C 260.366 182.210,258.815 182.689,259.349 180.695 C 259.481 180.203,259.592 176.605,259.595 172.700 L 259.600 165.600 286.000 165.600 L 312.400 165.600 312.400 173.800 M367.251 166.261 C 368.113 167.297,368.253 181.200,367.401 181.200 C 366.687 181.200,365.373 180.493,364.245 179.500 C 363.807 179.115,363.213 178.800,362.925 178.800 C 362.636 178.800,362.400 178.649,362.400 178.464 C 362.400 177.290,360.022 177.011,348.900 176.879 L 337.600 176.744 337.600 185.312 L 337.600 193.880 341.700 193.777 C 344.077 193.717,346.009 193.846,346.298 194.084 C 346.653 194.377,347.403 194.183,348.898 193.414 C 352.313 191.656,352.797 191.353,353.947 190.250 C 354.550 189.673,355.169 189.200,355.322 189.200 C 355.708 189.200,355.673 209.907,355.287 210.147 C 355.114 210.253,354.554 209.814,354.042 209.170 C 353.529 208.527,352.882 208.000,352.604 208.000 C 352.326 208.000,351.877 207.734,351.607 207.408 C 350.390 205.942,348.788 205.600,343.139 205.600 L 337.600 205.600 337.600 214.200 L 337.600 222.800 347.976 222.800 C 354.463 222.800,358.445 222.650,358.600 222.400 C 358.736 222.180,359.180 222.000,359.586 222.000 C 360.257 222.000,363.519 220.508,364.000 219.981 C 364.632 219.288,366.818 218.000,367.362 218.000 C 368.340 218.000,368.318 231.786,367.338 232.869 C 366.711 233.561,365.458 233.600,343.938 233.600 C 319.256 233.600,319.986 233.670,322.000 231.508 C 322.440 231.036,322.800 230.359,322.800 230.005 C 322.800 229.650,322.956 229.189,323.146 228.980 C 324.241 227.775,324.400 224.116,324.400 200.029 C 324.400 173.693,324.388 173.502,322.450 168.681 C 322.202 168.066,322.000 167.121,322.000 166.581 L 322.000 165.600 344.351 165.600 C 364.642 165.600,366.753 165.661,367.251 166.261 M221.200 184.154 L 221.200 191.600 229.369 191.600 C 237.487 191.600,237.546 191.594,238.720 190.606 C 241.520 188.250,241.523 180.808,238.725 178.128 L 237.565 177.017 229.382 176.862 L 221.200 176.708 221.200 184.154 " stroke="none" fill="#040404" fill-rule="evenodd"></path></g></svg>