<svg id="svg" xmlns="http://www.w3.org/2000/svg"  width="400" height="400" viewBox="0, 0, 400,400"><g id="svgg"><path id="path0" d="M14.322 144.415 C 8.527 146.417,5.127 149.339,2.600 154.486 L 0.391 158.984 0.391 199.609 L 0.391 240.234 2.624 244.783 C 5.205 250.039,9.191 253.327,15.113 255.086 C 21.047 256.848,378.953 256.848,384.887 255.086 C 390.809 253.327,394.795 250.039,397.376 244.783 L 399.609 240.234 399.609 199.609 L 399.609 158.984 397.376 154.435 C 394.795 149.180,390.809 145.892,384.887 144.133 C 378.285 142.172,20.023 142.445,14.322 144.415 M383.186 150.090 C 393.225 152.877,393.741 155.301,393.741 199.609 C 393.741 243.918,393.225 246.342,383.186 249.129 C 378.773 250.354,21.227 250.354,16.814 249.129 C 6.775 246.342,6.259 243.918,6.259 199.609 C 6.259 155.517,6.616 153.716,16.016 150.392 C 20.104 148.947,378.006 148.652,383.186 150.090 M18.253 158.726 C 14.962 160.320,14.844 161.740,14.844 199.609 C 14.844 237.905,14.934 238.922,18.482 240.539 C 21.195 241.775,378.805 241.775,381.518 240.539 C 385.066 238.922,385.156 237.905,385.156 199.609 C 385.156 161.314,385.066 160.297,381.518 158.680 C 378.923 157.498,20.696 157.543,18.253 158.726 M85.938 173.828 C 85.938 183.138,86.121 182.881,81.907 179.492 C 78.924 177.094,78.398 176.953,72.383 176.953 L 66.016 176.953 66.016 201.563 C 66.016 227.440,65.891 226.269,69.360 233.008 C 69.526 233.330,65.200 233.594,59.747 233.594 C 50.609 233.594,49.877 233.487,50.401 232.227 C 52.894 226.227,53.125 223.518,53.125 200.266 L 53.125 176.563 46.234 176.563 C 39.489 176.563,39.277 176.620,36.149 179.297 C 34.392 180.801,32.747 182.031,32.493 182.031 C 31.853 182.031,31.909 166.789,32.552 166.146 C 32.839 165.859,44.967 165.625,59.505 165.625 L 85.938 165.625 85.938 173.828 M113.817 167.383 C 113.582 168.350,113.022 170.547,112.573 172.266 C 112.085 174.133,111.762 185.454,111.772 200.391 C 111.787 225.091,111.881 226.212,114.431 232.227 C 114.965 233.485,114.261 233.594,105.552 233.594 C 95.109 233.594,95.177 233.634,97.266 228.636 C 98.228 226.333,98.438 221.164,98.438 199.733 C 98.438 178.531,98.218 173.011,97.266 170.313 C 96.621 168.486,96.094 166.684,96.094 166.308 C 96.094 165.932,100.178 165.625,105.169 165.625 C 114.187 165.625,114.242 165.636,113.817 167.383 M141.450 167.269 C 141.934 168.174,143.125 171.074,144.097 173.715 C 148.782 186.448,159.731 212.448,160.187 211.922 C 160.469 211.595,162.291 207.285,164.233 202.344 C 166.176 197.402,167.977 192.832,168.235 192.188 C 168.493 191.543,170.936 185.391,173.665 178.516 L 178.627 166.016 186.547 165.793 L 194.467 165.571 192.741 169.309 C 190.037 175.166,190.063 224.293,192.773 229.639 C 193.740 231.546,194.531 233.216,194.531 233.350 C 194.531 233.484,190.137 233.594,184.766 233.594 C 179.395 233.594,175.000 233.463,175.000 233.302 C 175.000 233.142,175.712 231.403,176.581 229.437 C 178.003 226.223,178.141 224.498,177.948 212.345 L 177.734 198.828 176.418 202.344 C 175.695 204.277,172.814 212.012,170.018 219.531 L 164.934 233.203 160.006 233.419 L 155.078 233.636 148.518 216.037 C 144.910 206.357,141.860 198.438,141.740 198.438 C 140.313 198.438,141.657 225.170,143.282 229.102 L 145.138 233.594 135.460 233.594 C 130.137 233.594,125.781 233.506,125.782 233.398 C 125.782 233.291,126.485 231.354,127.344 229.093 C 128.790 225.290,128.906 223.090,128.906 199.609 C 128.906 176.129,128.790 173.929,127.344 170.126 C 126.485 167.865,125.782 165.928,125.782 165.820 C 125.779 164.483,140.697 165.863,141.450 167.269 M247.029 167.001 C 251.320 168.829,251.953 171.018,251.953 184.027 C 251.953 201.846,251.435 202.344,232.890 202.344 L 221.094 202.344 221.094 213.691 C 221.094 222.888,221.379 225.850,222.597 229.316 L 224.100 233.594 215.175 233.594 C 210.266 233.594,206.254 233.330,206.258 233.008 C 206.263 232.686,206.790 230.696,207.430 228.587 C 208.357 225.532,208.594 219.639,208.594 199.609 C 208.594 179.580,208.357 173.687,207.430 170.632 C 206.790 168.523,206.263 166.502,206.258 166.141 C 206.245 165.132,244.539 165.940,247.029 167.001 M312.500 173.865 L 312.500 182.105 309.295 179.529 C 306.337 177.151,305.586 176.932,299.530 176.678 L 292.969 176.402 292.969 200.693 C 292.969 223.090,293.091 225.304,294.531 229.093 C 295.390 231.354,296.093 233.291,296.093 233.398 C 296.094 233.506,291.875 233.594,286.719 233.594 C 281.563 233.594,277.344 233.285,277.344 232.908 C 277.344 232.531,277.871 230.960,278.516 229.417 C 279.475 227.122,279.688 222.065,279.688 201.588 L 279.688 176.563 273.049 176.563 C 266.560 176.563,266.343 176.624,263.384 179.297 C 259.290 182.996,259.375 183.111,259.375 173.828 L 259.375 165.625 285.938 165.625 L 312.500 165.625 312.500 173.865 M367.802 173.633 C 367.925 177.822,367.873 181.250,367.686 181.250 C 367.499 181.250,365.341 180.195,362.891 178.906 C 358.583 176.640,358.087 176.563,347.968 176.563 L 337.500 176.563 337.500 185.156 L 337.500 193.750 341.342 193.750 C 343.456 193.750,345.683 193.941,346.291 194.175 C 346.900 194.408,349.214 193.377,351.433 191.884 L 355.469 189.168 355.469 199.667 L 355.469 210.166 352.227 207.817 C 349.323 205.714,348.385 205.469,343.242 205.469 L 337.500 205.469 337.500 214.063 L 337.500 222.656 347.968 222.656 C 358.087 222.656,358.583 222.578,362.891 220.313 C 365.341 219.023,367.499 217.969,367.686 217.969 C 367.873 217.969,367.925 221.396,367.802 225.586 L 367.578 233.203 344.336 233.410 C 331.553 233.524,321.094 233.490,321.094 233.335 C 321.094 233.180,321.709 231.856,322.461 230.393 C 324.431 226.561,324.949 176.681,323.077 170.960 C 322.416 168.938,321.875 166.906,321.875 166.443 C 321.875 165.856,328.793 165.664,344.727 165.809 L 367.578 166.016 367.802 173.633 M221.094 183.896 L 221.094 191.406 229.643 191.406 C 239.588 191.406,240.625 190.734,240.625 184.288 C 240.625 178.009,239.214 177.056,229.385 176.692 L 221.094 176.385 221.094 183.896 " stroke="none" fill-rule="evenodd"></path></g></svg>