<?xml version="1.0" encoding="UTF-8" standalone="no"?>
<svg
   xmlns="http://www.w3.org/2000/svg"
   id="svg"
   version="1.1"
   width="400"
   height="400"
   viewBox="0, 0, 400,400">
  <g
     id="svgg">
    <path
       style="fill-rule:evenodd;stroke:none;stroke-width:2.43222094"
       id="path0"
       d="m 139.93202,18.799533 c -0.84398,2.006583 -1.78039,4.852281 -2.07955,6.323775 -0.29916,1.471494 -0.92911,2.675443 -1.39609,2.675443 -0.46942,0 -0.76129,0.32835 -0.65184,0.729667 0.26755,0.982617 -2.07955,7.924176 -3.70184,10.944994 -0.7175,1.337722 -1.77309,4.29287 -2.34466,6.566997 -0.57157,2.274127 -1.48609,4.134776 -2.03091,4.134776 -0.54724,0 -0.77101,0.359968 -0.4986,0.8002 0.27241,0.4378 -0.0584,1.86065 -0.7321,3.161888 -0.67372,1.298806 -1.2307,2.580586 -1.23557,2.848131 -0.0292,1.340153 -3.77724,10.293159 -4.52636,10.811222 -0.47428,0.325918 -0.77831,0.882896 -0.67373,1.235568 0.39402,1.345019 -1.11882,7.410978 -1.84848,7.410978 -0.42321,0 -0.80264,0.54725 -0.84642,1.21611 -0.13863,2.154948 -6.49159,19.681533 -7.35747,20.296885 -0.45969,0.325917 -0.77344,0.982617 -0.69804,1.459332 0.1362,0.841551 -2.44682,7.989851 -7.52286,20.807651 -2.955151,7.46692 -9.845633,26.28745 -13.892849,37.94265 -1.578511,4.54825 -3.290795,9.14515 -3.803994,10.21533 -2.583018,5.37764 -5.885974,14.25038 -5.885974,15.807 0,0.96803 -0.593462,2.62194 -1.320696,3.67752 -0.727235,1.05558 -1.855785,3.56077 -2.50762,5.56735 -0.651836,2.00659 -1.66364,3.64833 -2.247373,3.64833 -0.5813,0 -0.802633,0.25782 -0.488876,0.57158 0.644539,0.64454 -1.82903,9.58781 -3.475644,12.56242 -0.59103,1.07018 -0.977753,2.28385 -0.861006,2.69976 0.119179,0.41348 -0.749124,2.60248 -1.926319,4.86445 -1.179627,2.25953 -2.191431,4.54825 -2.249805,5.08334 -0.248086,2.26683 -1.722012,6.32377 -2.296016,6.32377 -0.345376,0 -0.695615,0.98505 -0.780743,2.189 -0.08513,1.20395 -1.155305,4.378 -2.378712,7.05344 -1.223408,2.67545 -2.342229,5.30224 -2.488163,5.83733 -1.308534,4.84012 -4.538524,13.134 -5.117393,13.134 -0.868302,0 -1.067745,2.50032 -0.466986,5.83733 l 0.4378,2.43222 58.108189,-0.24566 c 31.95696,-0.1362 58.76246,-0.53509 59.5651,-0.88533 0.80263,-0.35023 1.74633,-0.5813 2.099,-0.51319 0.35268,0.0681 1.17477,-2.15982 1.82903,-4.95201 0.6567,-2.79462 1.49339,-5.51627 1.86552,-6.05136 1.2307,-1.78039 6.854,-16.90394 6.854,-18.43624 0,-0.82938 0.34537,-1.50797 0.76615,-1.50797 0.42077,0 0.83181,-0.88776 0.91451,-1.97497 0.0827,-1.08477 1.22584,-4.32449 2.53924,-7.19694 1.31583,-2.87245 2.69004,-6.58159 3.05487,-8.24036 0.36483,-1.66121 1.13828,-3.01839 1.71958,-3.01839 0.58373,0 0.8075,-0.25295 0.4986,-0.55941 -0.75155,-0.75156 0.36727,-4.17126 4.5969,-14.03392 1.95064,-4.54825 3.70427,-9.36405 3.89642,-10.70177 0.19458,-1.33772 1.03856,-3.74562 1.87767,-5.35089 0.84155,-1.60526 1.52987,-3.46591 1.53474,-4.13477 0.002,-0.66886 0.46941,-1.21611 1.03612,-1.21611 0.56671,0 0.75886,-0.4378 0.42807,-0.97289 -0.33078,-0.53509 -0.11188,-0.97289 0.48645,-0.97289 0.59832,0 0.89505,-0.32835 0.65913,-0.72966 -0.23836,-0.40132 0.0122,-1.82417 0.55455,-3.16189 0.54238,-1.33772 1.12368,-3.48781 1.29394,-4.77688 0.17269,-1.28908 0.66156,-2.60248 1.09206,-2.91867 0.42808,-0.31619 0.89506,-1.2307 1.03613,-2.03334 0.32835,-1.87524 4.82796,-14.05337 6.82725,-18.48488 0.84398,-1.87281 1.45203,-3.74318 1.35231,-4.15909 -0.10215,-0.41348 0.78074,-2.60248 1.95794,-4.86445 1.17719,-2.25953 2.2571,-4.54825 2.4006,-5.08334 1.86065,-6.90994 7.40125,-21.30139 8.36927,-21.72946 0.40618,-0.17999 0.48888,-0.72723 0.18728,-1.21611 -0.30159,-0.48888 -0.18241,-0.89019 0.26755,-0.89019 0.44996,0 0.91451,-1.16017 1.03126,-2.57816 0.11675,-1.41555 0.64697,-3.098648 1.17719,-3.73589 0.53023,-0.639674 0.74183,-1.381502 0.47429,-1.651478 -0.45969,-0.45969 1.49825,-5.547896 5.16847,-13.438021 0.87073,-1.872811 1.48608,-3.750485 1.36691,-4.171259 -0.2262,-0.797769 3.09865,-9.490527 4.91795,-12.854289 0.96559,-1.787682 2.42735,-5.781389 11.38522,-31.132429 1.70256,-4.815797 3.7213,-10.135065 4.48745,-11.820594 0.76615,-1.687961 1.39366,-4.20531 1.39366,-5.594108 v -2.52951 h -59.82047 -59.81805 l -1.53716,3.648331 m 135.32635,-0.138636 c -0.36241,1.931183 -1.45934,5.324132 -2.43709,7.539885 -3.05487,6.922101 -5.63059,13.598548 -6.90508,17.89385 -0.67615,2.274127 -1.50311,4.134776 -1.83875,4.134776 -0.33565,0 -0.68103,0.946134 -0.76859,2.101439 -0.0876,1.155305 -0.65426,2.407899 -1.26232,2.784893 -0.60805,0.374562 -1.03613,0.972888 -0.951,1.327993 0.36727,1.517706 -7.01209,22.128347 -11.23686,31.387812 -0.76858,1.687961 -1.39609,3.65806 -1.39123,4.377998 0.005,0.722369 -1.49095,4.815797 -3.32485,9.096506 -4.06667,9.488091 -4.81336,11.480081 -4.63824,12.348391 0.0754,0.37213 -1.18692,3.87452 -2.80435,7.7831 -1.61743,3.91101 -4.23693,10.945 -5.81787,15.63432 -1.58338,4.68689 -3.29566,9.28379 -3.80643,10.21533 -1.81444,3.29809 -4.72094,10.77474 -5.40926,13.90987 -0.38429,1.74877 -1.9701,6.01488 -3.52429,9.47837 -1.55662,3.46591 -3.30782,8.20874 -3.89642,10.54367 -0.58616,2.3325 -1.45446,4.2418 -1.92388,4.2418 -0.47185,0 -0.77588,0.32835 -0.67373,0.72966 0.39889,1.56635 -1.36447,7.05344 -2.2644,7.05344 -0.52536,0 -0.68345,0.4378 -0.35267,0.97289 0.33078,0.53509 0.23106,0.97289 -0.22133,0.97289 -0.45239,0 -0.8829,0.77345 -0.95343,1.71715 -0.16053,2.13306 -3.80886,13.00995 -6.1146,18.22706 -5.11497,11.57738 -6.22892,14.32822 -6.40647,15.84592 -0.10945,0.91695 -1.36934,4.51177 -2.79949,7.98985 -1.43258,3.47808 -3.41727,8.73167 -4.40962,11.67466 -0.99478,2.94299 -2.52221,7.28207 -3.39295,9.64376 -2.67544,7.25531 -6.1973,6.84427 59.22459,6.91723 66.40936,0.0754 61.4452,0.74426 63.79715,-8.60276 0.62752,-2.4906 1.4715,-4.97146 1.87525,-5.51385 0.40374,-0.54238 1.50068,-3.0646 2.43951,-5.60627 0.93884,-2.54167 2.01388,-4.62122 2.38844,-4.62122 0.37457,0 0.77832,-1.20395 0.89993,-2.67544 0.33321,-4.07397 2.17197,-8.99922 3.36133,-8.99922 0.5813,0 0.78317,-0.27484 0.44996,-0.61049 -0.33565,-0.33564 0.0584,-2.19629 0.87803,-4.13477 0.81723,-1.93848 2.78489,-7.55934 4.37313,-12.48946 1.58581,-4.93011 3.41727,-9.52701 4.06668,-10.21532 0.6494,-0.68832 1.31583,-2.12577 1.48122,-3.19594 0.29916,-1.95794 1.16017,-4.35854 7.32342,-20.43066 1.84605,-4.8158 3.69211,-9.63159 4.10315,-10.70177 0.40862,-1.07018 0.68346,-2.24981 0.60806,-2.62437 -0.0754,-0.37213 1.09693,-3.43673 2.60491,-6.81022 1.50797,-3.37106 3.98641,-9.96237 5.50411,-14.6444 1.52014,-4.68203 3.14973,-8.51277 3.62158,-8.51277 0.47185,0 0.61049,-0.40132 0.30646,-0.89506 -0.30403,-0.49131 -0.002,-1.47636 0.67129,-2.189 0.67373,-0.71021 1.37907,-2.38844 1.56879,-3.72616 0.18728,-1.33772 0.76858,-3.23242 1.2915,-4.21018 0.5205,-0.98018 1.58825,-3.93533 2.36899,-6.56699 0.78317,-2.6341 1.7512,-4.78905 2.15008,-4.78905 0.40132,0 0.79291,-0.83182 0.8683,-1.85092 0.0778,-1.01667 1.04586,-3.84047 2.15252,-6.27026 1.10666,-2.42979 2.01388,-4.990921 2.01388,-5.688968 0,-0.698047 1.7512,-5.540599 3.89155,-10.760146 2.14036,-5.219546 3.89156,-9.911301 3.89156,-10.426931 0,-0.795337 6.75671,-18.570008 9.99642,-26.294742 0.55942,-1.337721 0.9583,-2.728952 0.88533,-3.091353 -0.073,-0.362401 1.33286,-3.874528 3.12297,-7.802565 1.79012,-3.930469 3.58267,-8.668436 3.98398,-10.529085 0.40132,-1.863081 1.28178,-4.480151 1.95551,-5.817872 0.67372,-1.337722 1.5323,-3.855071 1.90686,-5.594109 l 0.68102,-3.161887 H 337.17785 275.9175 l -0.65913,3.509695 M 43.540668,278.10348 c -1.211246,0.95343 -2.750842,3.25188 -3.422135,5.10767 -0.671293,1.85578 -1.595537,3.37592 -2.055226,3.37592 -0.45969,0 -0.598327,0.38429 -0.308892,0.85128 0.661564,1.07017 -4.139641,14.98734 -5.450608,15.79484 -0.530224,0.32835 -0.929108,0.98505 -0.885328,1.46176 0.111882,1.24287 -1.843624,6.9367 -3.417271,9.95752 -0.741827,1.41798 -1.349882,3.53401 -1.354747,4.69905 -0.0024,1.16746 -0.693183,2.80921 -1.534731,3.64833 -0.839117,0.84155 -1.315832,1.52987 -1.055584,1.52987 0.260247,0 -0.39402,2.29845 -1.452036,5.10766 -1.058016,2.80922 -3.045141,8.39116 -4.414481,12.40433 -1.369341,4.01316 -3.062167,8.41791 -3.760214,9.78969 -0.698047,1.37177 -2.578154,6.46241 -4.176124,11.31469 -1.600401,4.85228 -3.3710579,9.64132 -3.9377654,10.64097 -0.5642753,1.00207 -1.782818,3.5705 -2.7046298,5.71085 -0.9218117,2.14036 -1.8436235,4.21991 -2.0503623,4.62122 -0.2067388,0.40132 27.1533155,0.72967 60.8006615,0.72967 h 61.177655 l 1.23314,-3.40511 c 0.67615,-1.87281 1.54689,-3.40511 1.93361,-3.40511 0.38673,0 0.76615,-0.84885 0.84398,-1.8874 0.24079,-3.20324 5.30468,-17.59956 6.67159,-18.96646 0.7102,-0.71021 1.08963,-1.49339 0.84154,-1.74147 -0.24808,-0.24566 0.37457,-2.59762 1.37907,-5.22198 1.00694,-2.6268 2.82624,-7.40125 4.04235,-10.61178 1.21855,-3.21053 3.0719,-7.77825 4.12262,-10.14966 1.05072,-2.37142 2.02847,-5.37764 2.16954,-6.67645 0.1435,-1.30124 0.86101,-2.74841 1.59797,-3.21296 0.73453,-0.46699 1.0118,-0.85614 0.61292,-0.86344 -0.39889,-0.007 0.17755,-2.31304 1.28178,-5.12226 1.10423,-2.80921 2.88948,-7.73446 3.96695,-10.94499 1.73661,-5.1709 3.68725,-10.09615 8.14065,-20.55227 2.22791,-5.23414 2.18413,-5.23657 -60.10748,-5.48952 -52.927564,-0.21161 -56.665888,-0.11675 -58.728412,1.50554 m 208.341622,-1.23313 -72.81097,0.0365 -2.27656,3.08406 c -1.25016,1.69525 -2.27412,4.09099 -2.27412,5.32656 0,1.23314 -0.4378,2.24251 -0.97289,2.24251 -0.53509,0 -0.89992,0.32835 -0.81237,0.72966 0.28457,1.31097 -1.35961,6.4162 -4.78661,14.83655 -1.84848,4.54825 -3.9256,10.23965 -4.61392,12.64755 -1.21854,4.25639 -3.03541,8.94571 -5.90057,15.2257 -0.76858,1.68797 -1.39852,3.9548 -1.39852,5.03957 0,1.08477 -0.54725,2.5514 -1.21612,3.25674 -0.66886,0.70778 -1.35474,2.16224 -1.52743,3.23242 -0.17026,1.07018 -1.13098,3.69698 -2.13306,5.83733 -1.76822,3.77967 -3.5632,8.52494 -6.24837,16.53911 -0.71751,2.14035 -2.59518,6.95615 -4.17369,10.70177 -1.57852,3.74562 -2.68518,7.35747 -2.45898,8.02633 0.32105,0.95586 13.39181,1.21611 61.0001,1.21611 h 60.59149 l 1.67337,-4.378 c 0.91938,-2.4079 2.09901,-4.378 2.62194,-4.378 0.52049,0 0.71993,-0.3697 0.44266,-0.82209 -0.6567,-1.05801 1.2307,-7.9339 2.17684,-7.9339 0.39645,0 0.79047,-0.951 0.87803,-2.11604 0.23349,-3.10351 2.28142,-7.61285 3.45375,-7.61285 0.55941,0 0.77102,-0.24565 0.46942,-0.54725 -0.57887,-0.57887 3.75778,-13.99013 6.60835,-20.44768 0.92667,-2.09901 1.78525,-4.25152 1.90686,-4.78661 1.0945,-4.79877 7.13613,-20.5547 8.94084,-23.32257 0.68832,-1.05558 1.26233,-2.80678 1.27449,-3.89155 0.0122,-1.08477 0.95343,-3.94263 2.09657,-6.35053 1.98713,-4.19558 2.2644,-4.98605 2.59761,-7.39882 0.0827,-0.58859 1.60884,-3.8135 1.60884,-3.8135 l 4.28439,-9.84614" />
  </g>
</svg>
