<svg id="svg" xmlns="http://www.w3.org/2000/svg"  width="400" height="400" viewBox="0, 0, 400,400"><g id="svgg"><path id="path0" d="M50.000 152.590 C 3.312 159.254,-16.135 205.222,16.386 232.047 C 48.465 258.508,105.340 249.195,120.411 215.015 C 135.621 180.520,96.613 145.937,50.000 152.590 M73.741 155.736 C 124.913 164.065,137.800 215.183,94.245 237.068 C 58.730 254.913,10.250 238.617,3.663 206.619 C -2.671 175.853,33.954 149.260,73.741 155.736 M39.388 163.065 C 38.054 163.768,37.410 164.680,37.410 165.867 C 37.410 166.920,36.994 167.626,36.372 167.626 C 35.800 167.626,34.760 168.595,34.061 169.780 C 33.193 171.249,32.017 172.079,30.365 172.389 C 27.390 172.947,26.898 174.041,28.357 176.862 C 29.695 179.449,31.483 180.159,34.124 179.155 C 40.311 176.803,41.579 179.717,39.115 190.627 C 38.189 194.727,38.110 196.379,38.740 198.480 C 39.178 199.943,39.754 206.187,40.020 212.354 L 40.504 223.568 38.192 225.634 C 34.919 228.558,37.645 232.374,43.006 232.374 C 45.168 232.374,47.955 226.444,48.078 221.583 C 48.286 213.308,51.377 205.756,54.555 205.755 C 55.611 205.755,58.178 205.107,60.260 204.316 C 64.277 202.789,69.065 202.398,69.065 203.597 C 69.065 203.993,69.631 204.325,70.324 204.335 C 71.085 204.346,72.115 205.507,72.929 207.272 C 73.706 208.956,75.530 211.059,77.246 212.247 C 83.832 216.811,84.173 217.203,84.173 220.206 C 84.173 222.145,83.720 223.423,82.734 224.268 C 81.107 225.661,80.883 227.358,82.158 228.633 C 84.496 230.971,88.489 227.479,88.489 223.097 C 88.489 219.570,89.714 218.643,91.483 220.829 C 93.259 223.021,93.151 225.799,91.211 227.864 C 89.295 229.904,90.095 231.887,92.975 232.234 C 95.943 232.592,98.099 229.251,97.527 225.180 C 97.277 223.399,96.874 220.537,96.631 218.819 C 96.212 215.854,96.277 215.704,97.915 215.841 C 103.033 216.272,102.665 214.309,97.258 212.337 C 91.161 210.114,89.967 208.527,89.267 201.710 C 87.986 189.246,85.870 187.661,69.538 186.932 C 55.734 186.316,53.336 185.304,51.868 179.475 C 50.314 173.304,42.938 160.868,41.471 161.947 C 41.414 161.989,40.477 162.492,39.388 163.065 M151.103 178.867 C 148.290 181.234,147.562 182.675,139.986 200.877 C 133.912 215.470,132.965 219.009,134.676 220.719 C 135.870 221.913,152.619 221.913,153.813 220.719 C 154.484 220.048,154.676 220.048,154.676 220.719 C 154.676 221.292,156.069 221.579,158.813 221.571 L 162.950 221.559 168.144 208.801 C 171.001 201.784,173.545 195.477,173.797 194.784 C 174.215 193.634,173.572 193.525,166.334 193.525 L 158.414 193.525 157.698 195.504 C 157.304 196.592,156.752 198.049,156.471 198.741 C 156.033 199.822,156.391 200.000,158.994 200.000 C 162.602 200.000,162.603 199.986,158.572 209.614 L 155.971 215.827 150.647 215.827 C 144.154 215.827,144.108 217.292,151.142 200.150 C 159.077 180.816,157.183 182.734,168.343 182.734 L 177.661 182.734 178.759 180.611 C 180.649 176.956,180.724 176.978,166.602 176.978 L 153.348 176.978 151.103 178.867 M288.634 179.368 C 287.484 182.546,287.521 182.734,289.286 182.734 C 291.089 182.734,291.675 180.895,283.612 200.532 C 277.682 214.975,277.234 215.813,275.438 215.820 C 273.771 215.826,271.223 219.536,271.223 221.957 C 271.223 222.643,298.267 222.276,300.864 221.555 C 305.365 220.305,307.741 216.603,313.839 201.339 C 316.901 193.678,319.447 186.763,319.498 185.971 C 319.712 182.641,319.325 181.287,317.562 179.192 L 315.699 176.978 302.599 176.978 L 289.498 176.978 288.634 179.368 M308.713 183.633 C 308.939 186.185,308.169 188.806,304.602 197.633 C 297.597 214.970,296.944 215.827,290.741 215.827 L 286.518 215.827 293.366 199.281 L 300.214 182.734 304.423 182.734 C 307.269 182.734,308.659 183.025,308.713 183.633 M263.035 187.290 C 259.031 187.925,258.742 188.110,257.640 190.736 C 256.715 192.937,256.090 193.512,254.612 193.518 C 253.318 193.523,252.494 194.085,251.914 195.358 C 250.678 198.070,250.889 199.281,252.595 199.281 C 253.533 199.281,253.964 199.623,253.726 200.180 C 244.716 221.262,244.849 222.302,256.558 222.302 L 261.944 222.302 262.986 219.807 C 264.396 216.433,264.484 216.547,260.474 216.547 C 255.712 216.547,255.710 216.528,259.490 207.322 L 262.793 199.281 266.279 199.281 C 269.550 199.281,271.942 196.964,271.942 193.797 C 271.942 193.648,270.486 193.525,268.705 193.525 C 264.990 193.525,265.109 193.732,266.637 189.913 C 268.060 186.356,268.214 186.468,263.035 187.290 M172.179 207.554 L 166.373 221.583 170.776 221.570 L 175.180 221.558 179.387 211.171 L 183.595 200.784 188.017 200.572 C 192.487 200.357,194.780 198.318,194.929 194.424 C 194.983 193.031,188.530 193.266,186.927 194.716 C 185.703 195.824,185.612 195.824,185.612 194.716 C 185.612 193.758,184.867 193.525,181.798 193.525 L 177.984 193.525 172.179 207.554 M200.269 194.234 C 197.914 195.185,196.091 198.241,192.130 207.877 C 186.470 221.648,186.431 221.583,200.370 221.583 L 210.525 221.583 211.726 219.065 L 212.926 216.547 205.786 216.547 C 197.918 216.547,197.501 216.340,198.742 213.055 L 199.596 210.791 207.631 210.791 L 215.666 210.791 217.909 205.216 C 220.609 198.503,220.653 197.566,218.378 195.291 C 216.503 193.416,204.089 192.692,200.269 194.234 M225.558 195.648 C 223.743 199.158,223.949 199.281,231.707 199.281 C 238.221 199.281,238.930 199.408,238.714 200.540 C 238.508 201.613,237.483 201.829,231.758 202.006 C 222.180 202.303,217.246 207.500,216.997 217.556 L 216.906 221.223 222.955 221.434 C 226.486 221.557,229.315 221.332,229.753 220.894 C 230.711 219.937,231.882 219.913,231.295 220.863 C 231.012 221.321,233.042 221.583,236.875 221.583 L 242.899 221.583 244.100 219.065 C 245.291 216.566,245.288 216.547,243.633 216.547 C 240.948 216.547,240.984 216.095,244.311 208.153 C 249.856 194.920,249.013 193.525,235.470 193.525 L 226.656 193.525 225.558 195.648 M319.495 195.791 C 319.060 197.037,318.705 198.332,318.705 198.669 C 318.705 199.005,321.977 199.281,325.976 199.281 C 332.311 199.281,333.191 199.427,332.811 200.419 C 332.571 201.044,332.374 201.692,332.374 201.857 C 332.374 202.023,329.267 202.158,325.468 202.158 C 318.713 202.158,318.519 202.206,316.534 204.330 C 313.863 207.190,310.610 215.531,310.915 218.739 L 311.151 221.223 317.199 221.434 C 320.731 221.557,323.560 221.332,323.998 220.894 C 324.955 219.937,326.127 219.913,325.540 220.863 C 325.257 221.321,327.307 221.583,331.182 221.583 L 337.269 221.583 338.059 219.317 C 339.063 216.437,339.084 216.547,337.530 216.547 C 335.248 216.547,335.323 215.920,338.549 208.047 C 344.024 194.685,343.294 193.525,329.407 193.525 L 320.285 193.525 319.495 195.791 M350.139 194.424 C 349.933 194.919,347.321 201.247,344.335 208.487 L 338.905 221.650 343.331 221.436 L 347.757 221.223 352.216 210.432 L 356.676 199.640 359.992 199.421 C 364.094 199.150,364.154 198.434,359.038 210.853 L 354.767 221.223 358.783 221.442 C 363.753 221.713,363.003 222.670,368.428 209.134 C 374.154 194.846,373.986 193.871,365.796 193.906 C 363.044 193.918,360.172 194.216,359.414 194.568 C 358.424 195.029,358.184 194.972,358.558 194.367 C 358.932 193.760,357.882 193.525,354.796 193.525 C 352.050 193.525,350.379 193.848,350.139 194.424 M379.779 194.602 C 377.173 196.019,376.120 197.844,371.970 208.135 C 366.444 221.839,366.285 221.583,380.358 221.583 L 390.643 221.583 391.599 219.245 L 392.555 216.906 385.674 216.698 C 377.832 216.461,377.380 216.234,378.478 213.084 L 379.277 210.791 387.400 210.791 L 395.522 210.791 397.765 205.216 C 400.495 198.428,400.545 196.936,398.104 195.016 C 395.734 193.152,382.978 192.864,379.779 194.602 M210.441 201.886 C 209.842 203.320,209.353 204.615,209.353 204.764 C 209.353 204.914,207.734 205.036,205.755 205.036 C 203.777 205.036,202.158 204.914,202.158 204.764 C 202.158 201.547,204.545 199.281,207.933 199.281 L 211.530 199.281 210.441 201.886 M391.367 199.616 C 391.367 202.604,388.725 205.036,385.478 205.036 C 381.522 205.036,381.625 205.183,383.227 201.823 C 384.308 199.557,391.367 197.643,391.367 199.616 M235.488 207.734 C 237.403 210.958,230.030 217.734,226.204 216.266 C 225.188 215.876,226.999 210.416,228.906 208.118 C 229.723 207.133,234.950 206.829,235.488 207.734 M329.467 208.453 C 329.345 213.605,322.859 218.867,320.095 216.056 C 319.462 215.413,322.128 208.598,323.346 207.745 C 324.973 206.606,329.498 207.129,329.467 208.453 " stroke="none" fill-rule="evenodd"></path></g></svg>