<svg id="svg" xmlns="http://www.w3.org/2000/svg"  width="400" height="400" viewBox="0, 0, 400,400"><g id="svgg"><path id="path0" d="M55.842 130.715 C 53.772 131.921,53.040 134.233,52.978 139.766 C 52.840 151.862,46.973 156.636,39.249 150.938 C 37.855 149.909,36.170 149.333,34.553 149.333 C 30.478 149.333,30.091 150.535,30.159 163.000 C 30.223 174.955,29.987 175.931,25.966 180.293 C 23.273 183.215,23.236 183.322,23.683 186.899 C 24.481 193.284,20.532 196.664,10.351 198.312 C 0.031 199.983,-1.794 202.837,1.768 211.736 C 4.499 218.558,9.709 219.900,18.000 215.917 C 20.383 214.772,25.483 212.703,29.333 211.319 C 33.183 209.936,38.433 207.990,41.000 206.995 C 43.567 206.001,47.017 204.784,48.667 204.292 C 50.317 203.799,52.898 202.948,54.403 202.401 C 55.909 201.854,59.509 201.228,62.403 201.009 C 71.589 200.317,80.188 198.563,82.000 197.013 C 87.020 192.719,87.584 199.839,82.920 208.626 C 80.535 213.118,68.011 228.000,66.615 228.000 C 65.715 228.000,58.868 237.489,56.723 241.710 C 51.348 252.287,50.387 267.580,54.988 269.329 C 59.253 270.950,60.825 268.312,62.942 255.980 C 64.853 244.852,69.297 237.067,80.447 225.318 C 87.835 217.533,91.314 212.966,91.668 210.589 C 91.798 209.715,92.409 207.650,93.027 206.000 C 98.845 190.453,91.535 178.953,80.899 186.921 C 76.285 190.378,63.403 194.842,55.620 195.680 C 50.479 196.234,40.214 198.001,34.053 199.393 C 28.118 200.733,27.206 200.635,28.537 198.801 C 30.794 195.690,31.482 192.991,31.063 188.899 L 30.642 184.784 33.111 182.749 L 35.581 180.713 37.975 183.307 C 40.888 186.462,43.135 187.148,45.888 185.725 C 52.353 182.381,51.272 174.183,44.259 173.371 L 41.000 172.994 41.140 169.997 C 41.381 164.811,41.782 164.000,44.102 164.000 C 50.118 164.000,56.235 159.629,59.935 152.688 L 62.100 148.625 64.550 149.146 C 73.552 151.060,79.302 148.258,76.628 143.261 C 76.069 142.216,75.323 141.974,73.029 142.092 C 69.231 142.289,67.174 140.879,64.597 136.312 C 61.489 130.805,58.723 129.037,55.842 130.715 M111.079 197.962 L 104.491 198.333 101.485 202.627 C 95.034 211.843,76.885 239.058,76.505 240.085 C 75.712 242.233,77.388 242.667,86.495 242.667 L 95.390 242.667 98.775 239.500 L 102.159 236.333 108.095 236.100 C 114.312 235.855,117.333 236.809,117.333 239.015 C 117.333 242.459,118.605 242.667,139.698 242.667 L 159.397 242.667 161.046 240.887 C 161.953 239.909,163.160 237.508,163.729 235.552 C 165.639 228.981,168.059 229.253,171.275 236.398 C 174.267 243.047,172.147 242.666,206.210 242.668 C 244.727 242.670,251.387 241.430,261.805 232.317 C 266.432 228.269,269.333 228.635,269.333 233.266 C 269.333 246.058,309.254 247.260,323.739 234.905 C 328.587 230.769,331.332 231.743,329.370 236.903 C 327.329 242.273,328.625 242.930,340.528 242.561 C 348.709 242.307,350.211 241.622,351.044 237.764 C 352.896 229.175,357.405 228.698,360.117 236.804 C 361.806 241.855,362.224 242.000,375.116 242.000 C 388.798 242.000,388.204 242.632,383.554 233.014 C 379.754 225.154,379.923 223.523,384.678 222.115 C 398.167 218.121,404.290 203.977,394.682 199.008 C 392.712 197.989,346.362 197.387,343.866 198.348 C 343.242 198.588,342.239 200.183,341.635 201.892 C 339.485 207.987,339.475 208.000,337.399 208.000 C 335.764 208.000,335.314 207.627,334.699 205.765 C 332.597 199.397,327.917 197.713,311.585 197.452 C 294.285 197.175,289.200 198.600,279.439 206.464 C 277.480 208.042,275.663 209.333,275.400 209.333 C 274.222 209.333,272.380 207.320,271.080 204.612 C 269.959 202.276,268.917 201.287,266.047 199.833 L 262.428 198.000 239.567 198.000 L 216.707 198.000 215.228 200.000 C 213.756 201.991,211.171 202.689,210.327 201.324 C 208.552 198.450,205.715 198.090,181.679 197.682 C 152.972 197.195,154.826 196.745,152.111 204.857 C 145.882 223.472,144.503 226.667,142.690 226.667 C 141.066 226.667,141.185 227.955,141.326 211.886 C 141.437 199.359,141.382 198.739,140.098 198.052 C 138.710 197.310,123.514 197.262,111.079 197.962 M14.003 207.995 C 13.170 209.552,11.679 210.079,10.748 209.148 C 9.018 207.418,10.650 205.862,13.484 206.539 C 14.360 206.748,14.484 207.096,14.003 207.995 M185.841 209.555 C 187.666 211.380,187.021 214.749,184.383 217.167 C 181.589 219.728,173.087 220.446,171.283 218.272 C 169.986 216.710,172.379 210.019,174.667 208.813 C 176.879 207.646,184.434 208.148,185.841 209.555 M374.364 209.636 C 379.530 214.802,367.859 223.183,360.777 219.392 C 358.032 217.923,359.147 211.604,362.636 208.855 C 364.657 207.262,372.513 207.786,374.364 209.636 M309.983 211.983 C 316.113 218.113,305.195 234.634,296.696 232.087 C 289.351 229.887,291.181 217.066,299.570 211.950 C 302.482 210.174,308.193 210.193,309.983 211.983 M245.167 213.326 C 253.262 218.262,239.227 234.236,230.673 229.823 C 228.343 228.621,228.307 227.422,230.410 220.820 C 233.229 211.967,238.526 209.277,245.167 213.326 M119.310 213.956 C 120.560 216.292,120.162 222.504,118.667 224.000 C 117.036 225.630,111.287 225.884,110.040 224.381 C 108.380 222.381,114.870 213.035,118.143 212.714 C 118.405 212.688,118.930 213.247,119.310 213.956 M206.929 219.691 C 208.015 220.777,203.720 235.069,201.651 237.253 C 199.401 239.628,192.667 230.999,192.667 225.741 C 192.667 224.466,195.822 222.000,197.454 222.000 C 198.154 222.000,200.137 221.250,201.859 220.333 C 205.542 218.372,205.603 218.365,206.929 219.691 " stroke="none" fill-rule="evenodd"></path></g></svg>