<svg id="svg" version="1.1" xmlns="http://www.w3.org/2000/svg"  width="400" height="400" viewBox="0, 0, 400,400"><g id="svgg"><path id="path0" d="M204.162 107.079 C 204.928 107.148,206.100 107.147,206.768 107.077 C 207.435 107.007,206.808 106.951,205.375 106.952 C 203.941 106.953,203.396 107.011,204.162 107.079 M208.469 108.434 L 208.469 109.703 211.482 109.919 C 215.927 110.239,223.541 111.027,226.764 111.501 L 229.587 111.915 229.696 110.544 C 229.780 109.494,229.691 109.173,229.316 109.173 C 229.047 109.173,227.435 108.947,225.733 108.671 C 221.646 108.008,213.142 107.166,210.541 107.166 L 208.469 107.166 208.469 108.434 M195.690 109.682 C 196.275 109.755,197.155 109.753,197.644 109.679 C 198.134 109.605,197.655 109.545,196.580 109.547 C 195.505 109.549,195.104 109.610,195.690 109.682 M203.669 109.680 C 204.164 109.755,204.897 109.753,205.298 109.676 C 205.698 109.598,205.293 109.537,204.397 109.539 C 203.502 109.542,203.174 109.605,203.669 109.680 M98.534 118.336 C 94.755 120.650,87.220 125.655,84.089 127.931 L 80.719 130.381 81.744 131.396 C 82.679 132.322,82.798 132.360,83.098 131.834 C 83.279 131.516,83.565 131.342,83.733 131.446 C 83.902 131.550,84.039 131.487,84.039 131.307 C 84.039 131.127,84.400 130.789,84.841 130.555 C 85.282 130.322,87.810 128.651,90.460 126.843 C 93.109 125.035,97.072 122.487,99.267 121.182 C 101.462 119.877,103.257 118.747,103.257 118.672 C 103.257 118.596,103.001 118.679,102.687 118.857 C 102.244 119.107,101.901 118.975,101.140 118.259 L 100.163 117.339 98.534 118.336 M36.628 207.525 C 35.987 208.798,35.516 209.892,35.581 209.957 C 35.646 210.022,36.241 208.981,36.902 207.643 C 37.564 206.306,38.035 205.212,37.949 205.212 C 37.863 205.212,37.269 206.253,36.628 207.525 M383.574 221.824 C 383.694 222.272,383.928 222.858,384.094 223.127 C 384.304 223.467,384.329 223.367,384.178 222.801 C 384.058 222.353,383.824 221.767,383.658 221.498 C 383.449 221.159,383.423 221.258,383.574 221.824 M13.718 228.827 C 9.119 243.319,6.133 258.188,5.034 272.068 L 4.809 274.919 11.340 274.919 C 18.770 274.919,18.188 275.169,18.424 271.876 C 18.676 268.357,19.388 262.750,20.033 259.202 C 20.122 258.709,20.260 257.903,20.339 257.410 C 20.494 256.449,20.727 255.215,21.002 253.908 C 21.096 253.461,21.239 252.765,21.320 252.362 C 21.401 251.958,21.546 251.262,21.643 250.814 C 21.740 250.366,21.881 249.707,21.957 249.349 C 23.041 244.258,26.164 233.642,28.474 227.199 C 29.116 225.407,29.642 223.910,29.642 223.872 C 29.642 223.834,26.431 223.761,22.507 223.709 L 15.373 223.616 13.718 228.827 M371.281 226.710 C 376.442 240.821,380.005 256.720,381.593 272.720 L 381.811 274.919 388.300 274.919 L 394.788 274.919 394.846 273.860 C 394.908 272.728,394.886 272.320,394.634 270.033 C 394.546 269.226,394.399 267.834,394.307 266.938 C 394.150 265.398,394.020 264.387,393.640 261.727 C 393.551 261.100,393.412 260.111,393.332 259.528 C 393.252 258.946,393.114 258.029,393.025 257.492 C 392.936 256.954,392.795 256.075,392.712 255.537 C 392.629 255.000,392.463 254.047,392.343 253.420 C 392.224 252.793,392.061 251.914,391.982 251.466 C 391.819 250.538,391.648 249.706,391.380 248.534 C 391.277 248.086,391.114 247.207,391.017 246.580 C 390.656 244.242,388.200 235.152,386.422 229.572 L 384.584 223.802 377.366 223.709 L 370.149 223.616 371.281 226.710 M41.445 280.049 C 41.514 303.946,41.539 305.085,41.689 291.154 L 41.857 275.630 50.695 290.991 L 59.532 306.352 62.584 306.515 L 65.635 306.678 65.547 292.101 C 65.499 284.084,65.571 277.524,65.708 277.524 C 65.844 277.524,69.536 281.079,73.912 285.423 C 78.287 289.768,81.650 292.956,81.385 292.508 C 81.120 292.060,75.951 283.082,69.899 272.557 L 58.894 253.420 50.131 253.420 L 41.368 253.420 41.445 280.049 M337.215 259.256 L 333.876 265.071 333.876 274.718 C 333.876 280.024,333.766 284.361,333.632 284.357 C 333.498 284.353,331.702 283.122,329.643 281.622 L 325.898 278.895 324.641 281.060 C 316.467 295.136,315.643 296.729,316.955 295.918 C 317.113 295.820,317.429 296.039,317.657 296.404 C 317.885 296.770,318.220 297.071,318.401 297.074 C 318.582 297.076,319.191 297.480,319.755 297.969 C 320.319 298.459,321.106 299.080,321.505 299.349 C 321.904 299.617,322.395 299.993,322.597 300.184 C 322.799 300.375,324.791 301.877,327.023 303.523 L 331.082 306.515 335.381 306.515 L 339.680 306.515 348.667 290.968 L 357.655 275.420 357.655 264.420 L 357.655 253.420 349.104 253.431 L 340.554 253.441 337.215 259.256 M110.255 292.182 L 110.261 306.678 122.313 306.683 L 134.365 306.689 122.398 306.598 L 110.430 306.507 110.340 292.097 L 110.250 277.687 110.255 292.182 M17.672 284.202 C 17.675 284.919,17.742 285.173,17.820 284.768 C 17.898 284.363,17.895 283.777,17.813 283.465 C 17.732 283.154,17.668 283.485,17.672 284.202 M395.533 284.853 C 395.535 285.749,395.599 286.077,395.673 285.582 C 395.748 285.087,395.746 284.354,395.669 283.953 C 395.592 283.553,395.530 283.958,395.533 284.853 M395.522 293.648 C 395.525 294.365,395.592 294.620,395.670 294.214 C 395.748 293.809,395.745 293.223,395.664 292.912 C 395.582 292.600,395.518 292.932,395.522 293.648 M271.254 306.758 C 274.524 306.812,279.874 306.812,283.143 306.758 C 286.413 306.705,283.738 306.662,277.199 306.662 C 270.660 306.662,267.985 306.705,271.254 306.758 M358.944 307.899 C 360.294 309.337,360.586 309.596,360.586 309.351 C 360.586 309.299,359.890 308.603,359.039 307.804 L 357.492 306.352 358.944 307.899 " stroke="none" fill="#9c9494" fill-rule="evenodd"></path><path id="path1" d="M199.430 109.684 C 200.102 109.754,201.201 109.754,201.873 109.684 C 202.545 109.613,201.995 109.556,200.651 109.556 C 199.308 109.556,198.758 109.613,199.430 109.684 M229.642 110.734 C 229.642 111.968,229.694 112.032,230.863 112.236 C 236.663 113.249,249.735 116.283,251.873 117.112 C 252.363 117.303,252.443 117.132,252.443 115.899 L 252.443 114.465 247.964 113.265 C 241.900 111.641,231.612 109.448,230.049 109.447 C 229.792 109.446,229.642 109.921,229.642 110.734 M76.873 133.270 C 72.755 136.585,68.306 140.453,63.844 144.597 L 61.401 146.865 62.297 147.774 L 63.192 148.682 60.668 151.280 C 59.279 152.708,60.638 151.465,63.686 148.518 C 68.944 143.435,77.309 136.177,80.804 133.666 C 82.660 132.333,82.676 132.285,81.606 131.280 C 81.164 130.864,80.879 130.399,80.974 130.246 C 81.289 129.736,80.970 129.971,76.873 133.270 M38.762 250.422 C 38.762 250.565,39.385 251.262,40.147 251.970 L 41.531 253.257 40.247 251.877 L 38.963 250.496 52.950 250.407 L 66.938 250.319 52.850 250.241 C 45.102 250.198,38.762 250.280,38.762 250.422 M116.042 250.407 C 119.939 250.459,126.315 250.459,130.212 250.407 C 134.108 250.355,130.920 250.312,123.127 250.312 C 115.334 250.312,112.146 250.355,116.042 250.407 M183.713 250.407 C 183.713 250.542,191.102 250.651,200.132 250.651 C 209.162 250.651,216.482 250.542,216.399 250.407 C 216.316 250.273,208.928 250.163,199.981 250.163 C 191.034 250.163,183.713 250.273,183.713 250.407 M269.951 250.407 C 274.116 250.458,280.932 250.458,285.098 250.407 C 289.263 250.355,285.855 250.313,277.524 250.313 C 269.194 250.313,265.786 250.355,269.951 250.407 M330.945 250.422 C 330.945 250.565,331.568 251.262,332.329 251.970 L 333.713 253.257 332.429 251.876 L 331.145 250.495 345.947 250.407 L 360.749 250.319 345.847 250.241 C 337.651 250.198,330.945 250.280,330.945 250.422 M77.199 260.749 C 82.840 266.393,87.529 271.010,87.618 271.010 C 87.708 271.010,83.166 266.393,77.524 260.749 C 71.883 255.106,67.194 250.489,67.105 250.489 C 67.015 250.489,71.558 255.106,77.199 260.749 M98.858 264.251 L 87.785 275.407 98.941 264.334 C 105.077 258.244,110.098 253.223,110.098 253.178 C 110.098 252.948,109.149 253.882,98.858 264.251 M394.788 273.887 L 394.788 274.919 388.355 274.919 L 381.921 274.919 381.922 287.541 C 381.922 294.483,381.809 301.592,381.671 303.339 L 381.420 306.515 388.078 306.515 L 394.737 306.515 394.923 305.619 C 395.690 301.930,395.697 273.764,394.930 272.998 C 394.852 272.920,394.788 273.320,394.788 273.887 M17.915 274.539 C 17.915 274.816,16.117 274.919,11.273 274.919 L 4.631 274.919 4.387 281.352 C 4.152 287.525,4.327 297.655,4.772 303.664 L 4.983 306.515 11.813 306.515 L 18.643 306.515 18.450 305.782 C 17.894 303.666,17.500 287.800,17.842 281.277 C 18.038 277.518,18.136 274.379,18.057 274.301 C 17.979 274.222,17.915 274.330,17.915 274.539 M41.707 291.124 L 41.694 306.840 53.664 306.778 C 60.248 306.744,64.262 306.634,62.584 306.534 L 59.533 306.352 51.084 291.694 C 46.437 283.632,42.429 276.669,42.177 276.221 C 41.779 275.513,41.718 277.454,41.707 291.124 M348.592 291.046 L 339.691 306.496 335.399 306.597 C 333.039 306.653,337.081 306.730,344.381 306.769 L 357.655 306.840 357.655 291.205 C 357.655 282.606,357.618 275.576,357.573 275.583 C 357.529 275.590,353.487 282.548,348.592 291.046 M194.707 288.192 C 197.618 288.246,202.382 288.246,205.293 288.192 C 208.204 288.138,205.822 288.093,200.000 288.093 C 194.178 288.093,191.796 288.138,194.707 288.192 M156.455 306.759 C 159.825 306.812,165.249 306.811,168.507 306.758 C 171.764 306.705,169.007 306.662,162.378 306.662 C 155.749 306.662,153.084 306.706,156.455 306.759 M231.699 306.759 C 235.070 306.812,240.493 306.811,243.751 306.758 C 247.009 306.705,244.251 306.662,237.622 306.662 C 230.993 306.662,228.328 306.706,231.699 306.759 M66.775 307.980 C 67.383 308.607,67.954 309.121,68.043 309.121 C 68.133 309.121,67.709 308.607,67.101 307.980 C 66.493 307.353,65.923 306.840,65.833 306.840 C 65.744 306.840,66.167 307.353,66.775 307.980 " stroke="none" fill="#847c7c" fill-rule="evenodd"></path><path id="path2" d="M190.391 89.143 C 88.497 95.437,9.202 171.653,0.500 271.661 C -0.322 281.107,-0.119 303.703,0.843 309.853 L 1.034 311.075 12.264 311.075 L 23.493 311.075 23.300 309.691 C 17.915 270.908,28.624 225.646,51.297 191.368 C 118.687 89.482,265.479 83.881,340.582 180.329 C 367.075 214.351,381.000 260.700,377.220 302.280 C 377.033 304.340,376.783 307.164,376.666 308.555 L 376.453 311.084 387.656 310.998 L 398.860 310.912 399.300 306.678 C 401.641 284.122,398.587 254.839,391.372 230.665 C 365.522 144.060,279.699 83.627,190.391 89.143 M214.007 90.914 C 322.548 97.749,406.362 194.584,398.078 303.583 C 397.573 310.234,397.674 309.996,396.102 308.231 L 394.875 306.854 388.072 306.766 L 381.270 306.678 381.318 305.863 C 382.512 285.537,382.080 274.610,379.450 258.632 C 371.505 210.357,342.686 165.609,301.954 138.302 L 298.208 135.790 298.113 136.706 C 297.928 138.480,297.834 138.499,295.693 137.191 C 212.270 86.204,106.712 108.243,51.701 188.133 C 28.401 221.971,16.998 266.730,21.485 306.739 C 21.834 309.847,21.874 309.805,20.102 308.173 L 18.657 306.840 11.704 306.840 L 4.751 306.840 3.556 308.007 L 2.362 309.173 2.150 305.971 C 2.033 304.210,1.852 301.669,1.747 300.326 L 1.557 297.883 2.896 299.170 C 3.731 299.973,4.235 300.274,4.235 299.969 C 4.235 299.701,3.648 298.908,2.932 298.208 C 2.215 297.509,1.629 296.790,1.629 296.610 C 1.629 296.431,2.225 296.864,2.954 297.572 L 4.280 298.860 4.058 293.485 C 2.705 260.679,12.237 222.840,29.579 192.182 L 31.513 188.762 30.667 187.853 L 29.820 186.944 30.627 185.419 C 36.326 174.646,51.902 155.419,64.132 144.059 C 105.410 105.718,157.241 87.339,214.007 90.914 M37.134 279.967 L 37.134 311.075 53.583 311.075 L 70.033 311.075 70.033 299.595 L 70.033 288.115 78.990 297.068 L 87.948 306.022 96.906 297.068 L 105.863 288.115 105.863 299.595 L 105.863 311.075 122.313 311.075 L 138.762 311.075 138.762 279.967 L 138.762 248.860 123.536 248.860 L 108.310 248.860 98.129 259.037 L 87.948 269.214 77.767 259.037 L 67.586 248.860 52.360 248.860 L 37.134 248.860 37.134 279.967 M180.203 252.850 C 178.769 255.045,169.914 268.640,160.525 283.062 C 151.136 297.484,143.188 309.686,142.862 310.179 L 142.270 311.075 159.408 311.075 L 176.545 311.075 178.745 307.656 L 180.945 304.237 199.933 304.236 L 218.921 304.235 221.106 307.643 L 223.290 311.050 240.344 311.063 C 254.100 311.073,257.368 310.994,257.238 310.657 C 257.150 310.427,248.087 296.428,237.098 279.549 L 217.118 248.860 199.964 248.860 L 182.810 248.860 180.203 252.850 M260.912 279.967 L 260.912 311.075 277.362 311.075 L 293.811 311.075 293.811 297.883 C 293.811 290.627,293.898 284.691,294.005 284.691 C 294.112 284.691,302.208 290.627,311.995 297.883 L 329.791 311.075 346.003 311.075 L 362.215 311.075 362.215 279.967 L 362.215 248.860 345.769 248.860 L 329.323 248.860 329.238 262.194 L 329.153 275.528 311.238 262.209 L 293.322 248.890 277.117 248.875 L 260.912 248.860 260.912 279.967 M77.432 260.668 L 87.922 271.173 88.016 273.050 L 88.111 274.927 98.986 264.046 C 110.944 252.081,110.009 253.330,108.956 250.733 C 108.738 250.195,109.538 250.163,123.092 250.163 L 137.459 250.163 137.459 279.805 C 137.459 296.107,137.342 309.446,137.200 309.446 C 137.057 309.446,136.368 308.860,135.668 308.143 L 134.395 306.840 122.247 306.840 L 110.098 306.840 110.098 292.429 L 110.098 278.017 99.023 289.088 L 87.948 300.159 77.020 289.249 L 66.093 278.339 67.248 281.098 L 68.404 283.856 68.404 296.719 L 68.404 309.582 67.007 308.211 L 65.611 306.840 53.489 306.840 L 41.368 306.840 41.368 280.060 L 41.368 253.280 39.833 251.721 L 38.298 250.163 52.620 250.163 L 66.942 250.163 77.432 260.668 M235.535 279.781 C 246.084 295.982,254.657 309.295,254.586 309.366 C 254.515 309.437,253.368 308.898,252.038 308.168 L 249.619 306.840 237.661 306.840 L 225.704 306.840 223.520 303.432 L 221.336 300.024 199.989 300.012 L 178.642 300.000 176.423 303.420 L 174.204 306.840 162.346 306.840 C 155.631 306.840,150.489 306.715,150.489 306.550 C 150.489 306.391,156.248 297.413,163.287 286.599 C 170.326 275.786,178.103 263.834,180.570 260.040 L 185.054 253.142 184.384 251.828 C 184.015 251.106,183.713 250.434,183.713 250.336 C 183.713 250.237,191.057 250.195,200.034 250.241 L 216.354 250.326 235.535 279.781 M311.641 264.358 L 330.782 278.552 332.150 281.214 L 333.518 283.876 333.534 268.578 L 333.550 253.280 332.016 251.721 L 330.481 250.163 345.533 250.163 L 360.586 250.163 360.586 279.872 L 360.586 309.582 359.190 308.211 L 357.793 306.840 344.527 306.840 L 331.261 306.840 311.803 292.457 C 301.101 284.547,291.783 277.635,291.095 277.098 L 289.844 276.121 291.176 278.770 L 292.508 281.419 292.508 295.433 C 292.508 303.140,292.391 309.446,292.249 309.446 C 292.106 309.446,291.416 308.860,290.717 308.143 L 289.444 306.840 277.295 306.840 L 265.147 306.840 265.147 280.034 L 265.147 253.227 263.844 251.954 C 263.127 251.255,262.541 250.565,262.541 250.422 C 262.541 250.280,269.281 250.163,277.520 250.163 L 292.500 250.163 311.641 264.358 M200.006 269.486 L 200.000 272.034 194.951 279.836 C 192.174 284.127,189.902 287.707,189.902 287.793 C 189.902 287.878,194.538 287.948,200.204 287.948 L 210.506 287.948 212.903 289.271 L 215.301 290.595 208.581 280.232 C 204.885 274.533,201.445 269.210,200.937 268.404 L 200.012 266.938 200.006 269.486 M203.746 280.522 C 205.717 283.593,207.378 286.227,207.438 286.375 C 207.497 286.523,204.163 286.645,200.027 286.645 C 195.892 286.645,192.508 286.545,192.508 286.422 C 192.508 286.108,199.802 274.919,200.000 274.930 C 200.090 274.935,201.775 277.451,203.746 280.522 " stroke="none" fill="#25251d" fill-rule="evenodd"></path><path id="path3" d="M198.139 93.401 C 199.176 93.466,200.788 93.465,201.722 93.399 C 202.656 93.334,201.808 93.281,199.837 93.281 C 197.866 93.282,197.102 93.336,198.139 93.401 M188.522 93.716 C 188.927 93.794,189.513 93.791,189.825 93.709 C 190.136 93.628,189.805 93.564,189.088 93.567 C 188.371 93.571,188.117 93.638,188.522 93.716 M210.020 93.716 C 210.425 93.794,211.012 93.791,211.323 93.709 C 211.634 93.628,211.303 93.564,210.586 93.567 C 209.870 93.571,209.615 93.638,210.020 93.716 M119.381 107.614 C 113.403 110.324,106.906 113.607,103.012 115.887 L 100.324 117.460 101.514 118.584 C 102.168 119.201,102.600 119.524,102.473 119.300 C 102.265 118.934,102.636 118.743,103.339 118.854 C 103.473 118.875,103.583 118.737,103.583 118.548 C 103.583 118.358,103.730 118.293,103.909 118.404 C 104.088 118.515,104.235 118.426,104.235 118.206 C 104.235 117.986,104.323 117.896,104.432 118.004 C 104.541 118.113,104.929 117.923,105.296 117.581 C 105.662 117.240,106.086 117.038,106.238 117.131 C 106.390 117.225,106.515 117.138,106.515 116.938 C 106.515 116.738,106.661 116.665,106.840 116.775 C 107.020 116.886,107.166 116.813,107.166 116.612 C 107.166 116.412,107.313 116.339,107.492 116.450 C 107.671 116.560,107.818 116.487,107.818 116.287 C 107.818 116.086,107.964 116.013,108.143 116.124 C 108.322 116.235,108.469 116.161,108.469 115.961 C 108.469 115.761,108.603 115.680,108.767 115.781 C 108.931 115.882,109.114 115.844,109.174 115.696 C 109.338 115.293,116.534 111.757,116.751 111.973 C 116.854 112.076,116.938 112.014,116.938 111.835 C 116.938 111.656,117.121 111.502,117.345 111.493 C 117.569 111.484,118.890 110.950,120.280 110.306 C 121.670 109.661,122.883 109.137,122.975 109.141 C 123.068 109.145,123.616 108.901,124.194 108.599 C 126.131 107.587,126.456 107.441,126.991 107.337 C 127.285 107.281,128.037 107.001,128.664 106.715 C 129.292 106.429,129.438 106.299,128.990 106.426 C 127.598 106.820,126.392 106.635,125.619 105.909 C 124.709 105.054,125.515 104.834,119.381 107.614 M130.782 105.712 C 129.967 106.104,129.940 106.149,130.619 105.983 C 131.542 105.758,132.579 105.229,132.085 105.236 C 131.906 105.239,131.319 105.453,130.782 105.712 M186.482 107.211 C 181.938 107.543,180.859 107.707,182.818 107.769 C 184.363 107.818,184.365 107.819,184.365 108.971 L 184.365 110.124 189.495 109.867 C 192.317 109.725,197.740 109.614,201.547 109.620 L 208.469 109.632 208.469 108.422 C 208.469 107.415,208.592 107.194,209.202 107.107 C 210.849 106.873,189.794 106.970,186.482 107.211 M178.750 108.048 C 179.155 108.126,179.741 108.123,180.053 108.041 C 180.364 107.960,180.033 107.896,179.316 107.900 C 178.599 107.903,178.345 107.970,178.750 108.048 M176.303 108.368 C 176.616 108.450,177.129 108.450,177.443 108.368 C 177.757 108.286,177.500 108.219,176.873 108.219 C 176.246 108.219,175.989 108.286,176.303 108.368 M118.160 125.917 C 117.309 126.360,116.612 126.796,116.612 126.885 C 116.612 127.030,119.837 125.507,120.168 125.205 C 120.572 124.838,119.512 125.213,118.160 125.917 M328.664 141.857 C 329.272 142.484,329.843 142.997,329.932 142.997 C 330.022 142.997,329.598 142.484,328.990 141.857 C 328.382 141.230,327.812 140.717,327.722 140.717 C 327.633 140.717,328.057 141.230,328.664 141.857 M331.759 144.625 C 332.641 145.521,333.436 146.254,333.526 146.254 C 333.616 146.254,332.967 145.521,332.085 144.625 C 331.202 143.730,330.407 142.997,330.318 142.997 C 330.228 142.997,330.877 143.730,331.759 144.625 M87.459 145.475 L 86.156 146.641 87.541 145.606 C 88.732 144.715,89.162 144.286,88.844 144.305 C 88.799 144.307,88.176 144.834,87.459 145.475 M64.821 147.394 C 64.030 148.200,63.456 148.860,63.545 148.860 C 63.635 148.860,64.355 148.200,65.147 147.394 C 65.938 146.588,66.512 145.928,66.422 145.928 C 66.333 145.928,65.612 146.588,64.821 147.394 M84.202 148.085 L 82.573 149.577 84.283 148.211 C 85.764 147.028,86.233 146.560,85.912 146.587 C 85.867 146.590,85.098 147.265,84.202 148.085 M338.274 150.814 C 340.418 152.964,342.246 154.723,342.335 154.723 C 342.425 154.723,340.744 152.964,338.599 150.814 C 336.455 148.664,334.627 146.906,334.538 146.906 C 334.448 146.906,336.129 148.664,338.274 150.814 M81.250 150.570 L 80.293 151.629 81.352 150.672 C 82.339 149.780,82.560 149.511,82.308 149.511 C 82.252 149.511,81.776 149.988,81.250 150.570 M75.586 155.619 C 73.183 157.903,70.114 160.912,68.766 162.306 L 66.315 164.840 57.543 164.810 C 51.750 164.791,48.652 164.898,48.424 165.126 C 48.180 165.370,50.659 165.472,56.840 165.472 C 62.582 165.472,65.492 165.583,65.282 165.793 C 65.093 165.982,61.384 166.148,56.199 166.200 L 47.436 166.287 44.217 170.521 C 33.156 185.072,23.559 202.368,17.112 219.367 C 16.300 221.510,15.635 223.379,15.635 223.521 C 15.635 223.662,18.855 223.779,22.791 223.779 C 28.719 223.779,29.918 223.702,29.776 223.332 C 29.681 223.086,29.808 222.682,30.056 222.433 C 30.305 222.185,30.453 221.816,30.386 221.615 C 30.319 221.413,30.454 221.048,30.686 220.803 C 30.918 220.559,31.159 220.065,31.221 219.707 C 31.284 219.349,31.504 218.948,31.710 218.816 C 31.916 218.684,31.982 218.575,31.857 218.572 C 31.506 218.564,32.270 216.612,32.624 216.612 C 32.797 216.612,32.847 216.466,32.736 216.287 C 32.625 216.107,32.715 215.961,32.934 215.961 C 33.154 215.961,33.248 215.875,33.143 215.770 C 32.870 215.498,33.553 213.681,33.927 213.681 C 34.100 213.681,34.150 213.534,34.039 213.355 C 33.928 213.176,33.969 213.029,34.128 213.029 C 34.288 213.029,34.419 212.818,34.419 212.560 C 34.419 211.868,39.126 202.606,39.478 202.606 C 39.643 202.606,39.687 202.459,39.577 202.280 C 39.466 202.101,39.530 201.954,39.720 201.954 C 39.910 201.954,40.040 201.844,40.008 201.710 C 39.914 201.305,40.800 199.674,41.114 199.674 C 41.275 199.674,41.316 199.528,41.205 199.349 C 41.094 199.169,41.159 199.023,41.349 199.023 C 41.539 199.023,41.694 198.813,41.694 198.557 C 41.694 198.302,41.924 197.862,42.206 197.580 C 42.487 197.299,42.630 197.068,42.524 197.068 C 42.346 197.068,43.248 195.489,43.641 195.114 C 43.734 195.024,44.091 194.401,44.432 193.730 C 44.774 193.058,45.177 192.508,45.328 192.508 C 45.479 192.508,45.603 192.323,45.603 192.097 C 45.603 191.628,47.852 188.168,48.264 188.002 C 48.413 187.942,48.534 187.686,48.534 187.432 C 48.534 187.178,48.681 186.971,48.860 186.971 C 49.039 186.971,49.186 186.786,49.186 186.560 C 49.186 186.334,49.552 185.754,50.000 185.271 C 50.448 184.788,50.814 184.307,50.814 184.202 C 50.814 184.019,51.159 183.563,52.036 182.585 C 52.260 182.336,52.443 182.037,52.443 181.922 C 52.443 181.807,52.626 181.521,52.850 181.287 C 53.074 181.053,53.477 180.528,53.746 180.120 C 54.015 179.711,54.491 179.148,54.805 178.867 C 55.118 178.586,55.375 178.202,55.375 178.013 C 55.375 177.824,55.631 177.433,55.945 177.145 C 56.258 176.857,56.808 176.240,57.166 175.773 C 60.911 170.897,64.151 167.370,72.540 159.039 C 76.734 154.874,80.117 151.466,80.059 151.466 C 80.001 151.466,77.988 153.335,75.586 155.619 M57.963 154.316 L 56.840 155.537 58.062 154.415 C 59.199 153.370,59.433 153.094,59.184 153.094 C 59.130 153.094,58.580 153.644,57.963 154.316 M344.894 157.818 C 346.325 159.430,348.255 161.665,349.183 162.785 L 350.871 164.821 342.191 164.821 C 336.488 164.821,333.581 164.933,333.713 165.147 C 333.839 165.351,337.185 165.472,342.671 165.472 C 348.157 165.472,351.503 165.594,351.629 165.798 C 351.761 166.012,348.918 166.124,343.342 166.124 C 338.673 166.124,334.853 166.205,334.853 166.303 C 334.853 166.402,335.922 167.685,337.229 169.153 C 349.577 183.035,361.315 201.878,368.517 219.381 L 370.259 223.616 377.298 223.703 L 384.337 223.791 383.852 222.630 C 383.585 221.992,383.446 221.342,383.542 221.186 C 383.639 221.030,383.563 220.851,383.375 220.788 C 383.187 220.726,383.008 220.347,382.978 219.946 C 382.948 219.546,382.792 219.218,382.632 219.218 C 382.472 219.218,382.421 219.008,382.520 218.751 C 382.619 218.494,382.575 218.237,382.422 218.181 C 382.269 218.124,382.094 217.785,382.033 217.427 C 381.972 217.068,381.827 216.702,381.710 216.612 C 381.594 216.523,381.447 216.156,381.384 215.798 C 381.322 215.440,381.153 215.060,381.010 214.954 C 380.866 214.849,380.725 214.446,380.696 214.059 C 380.667 213.672,380.519 213.355,380.367 213.355 C 380.216 213.355,380.182 213.208,380.293 213.029 C 380.404 212.850,380.355 212.704,380.185 212.704 C 379.887 212.704,379.315 211.171,379.425 210.668 C 379.455 210.533,379.348 210.423,379.188 210.423 C 378.905 210.423,378.342 208.874,378.448 208.388 C 378.478 208.253,378.346 208.143,378.157 208.143 C 377.967 208.143,377.902 207.997,378.013 207.818 C 378.124 207.638,378.050 207.492,377.850 207.492 C 377.650 207.492,377.569 207.358,377.670 207.194 C 377.771 207.030,377.743 206.847,377.608 206.787 C 377.270 206.637,374.410 200.625,374.511 200.279 C 374.556 200.125,374.471 200.000,374.323 200.000 C 374.174 200.000,373.698 199.230,373.264 198.290 C 372.830 197.349,372.365 196.531,372.229 196.471 C 372.094 196.410,372.066 196.227,372.167 196.063 C 372.268 195.900,372.187 195.765,371.987 195.765 C 371.787 195.765,371.713 195.619,371.824 195.440 C 371.935 195.261,371.880 195.114,371.702 195.114 C 371.523 195.114,371.192 194.601,370.965 193.974 C 370.739 193.347,370.427 192.834,370.274 192.834 C 370.120 192.834,370.085 192.687,370.195 192.508 C 370.306 192.329,370.244 192.182,370.058 192.182 C 369.872 192.182,369.627 191.816,369.515 191.368 C 369.402 190.920,369.190 190.554,369.042 190.554 C 368.894 190.554,368.671 190.231,368.546 189.836 C 368.420 189.441,368.117 188.918,367.872 188.673 C 367.627 188.428,367.427 188.018,367.427 187.762 C 367.427 187.506,367.290 187.296,367.123 187.296 C 366.956 187.296,366.716 186.967,366.590 186.564 C 366.465 186.160,366.272 185.757,366.161 185.668 C 365.839 185.406,365.144 184.250,364.936 183.632 C 364.831 183.318,364.615 183.062,364.457 183.062 C 364.299 183.062,364.169 182.842,364.169 182.573 C 364.169 182.305,364.023 182.085,363.844 182.085 C 363.664 182.085,363.518 181.865,363.518 181.596 C 363.518 181.327,363.371 181.107,363.192 181.107 C 363.013 181.107,362.866 180.888,362.866 180.619 C 362.866 180.350,362.720 180.130,362.541 180.130 C 362.362 180.130,362.215 179.910,362.215 179.642 C 362.215 179.373,362.068 179.153,361.889 179.153 C 361.710 179.153,361.564 178.933,361.564 178.664 C 361.564 178.396,361.440 178.176,361.289 178.176 C 361.138 178.176,360.738 177.663,360.401 177.036 C 360.063 176.409,359.673 175.896,359.535 175.896 C 359.397 175.896,359.283 175.743,359.283 175.556 C 359.283 175.370,359.134 175.040,358.952 174.823 C 357.750 173.398,357.328 172.841,357.324 172.670 C 357.321 172.563,356.918 172.014,356.428 171.450 C 355.938 170.886,355.318 170.094,355.049 169.690 C 353.889 167.946,347.383 160.193,344.948 157.655 L 342.292 154.886 344.894 157.818 M329.310 160.668 C 332.481 163.920,332.899 164.317,332.899 164.082 C 332.899 164.034,331.323 162.458,329.397 160.580 L 325.896 157.166 329.310 160.668 M72.467 162.622 L 70.195 164.984 72.557 162.712 C 73.856 161.463,74.919 160.400,74.919 160.351 C 74.919 160.112,74.577 160.429,72.467 162.622 M50.053 253.338 L 58.900 253.431 69.902 272.562 C 75.952 283.085,81.120 292.060,81.385 292.508 C 81.650 292.956,78.287 289.768,73.912 285.423 C 69.536 281.079,65.879 277.524,65.785 277.524 C 65.690 277.524,70.641 282.544,76.786 288.679 L 87.958 299.834 95.852 291.915 C 100.194 287.560,104.607 283.046,105.659 281.884 L 107.572 279.773 103.422 272.541 C 101.140 268.564,99.145 265.172,98.988 265.003 C 98.817 264.819,96.615 266.772,93.478 269.889 C 90.604 272.745,88.147 275.118,88.018 275.163 C 87.888 275.208,82.800 270.261,76.711 264.170 L 65.639 253.094 53.422 253.170 C 42.355 253.239,42.038 253.255,50.053 253.338 M333.627 268.811 C 333.682 280.143,333.729 281.811,333.795 274.791 L 333.886 265.054 337.220 259.252 L 340.554 253.450 349.186 253.348 C 357.045 253.255,356.732 253.239,345.684 253.170 L 333.550 253.094 333.627 268.811 M301.520 261.960 C 297.252 268.805,292.203 278.176,292.784 278.176 C 293.026 278.176,293.438 278.474,294.989 279.771 C 295.189 279.938,298.707 282.551,302.807 285.576 C 306.906 288.602,311.690 292.134,313.438 293.425 C 315.185 294.716,316.578 295.652,316.532 295.504 C 316.487 295.357,318.549 291.603,321.114 287.163 C 323.680 282.723,325.713 278.921,325.633 278.715 C 325.516 278.414,303.830 262.316,302.376 261.451 C 302.143 261.312,301.794 261.520,301.520 261.960 M297.691 269.840 C 295.141 274.248,293.005 277.804,292.944 277.743 C 292.883 277.682,294.915 274.022,297.461 269.611 C 300.007 265.199,302.143 261.643,302.208 261.708 C 302.273 261.773,300.240 265.433,297.691 269.840 M265.300 285.016 C 265.300 296.930,265.341 301.804,265.391 295.847 C 265.440 289.890,265.440 280.143,265.391 274.186 C 265.341 268.229,265.300 273.103,265.300 285.016 M99.349 264.621 C 99.349 265.015,107.219 278.631,107.748 279.153 C 108.036 279.437,107.964 279.164,107.575 278.502 C 107.207 277.875,105.265 274.503,103.259 271.010 C 99.522 264.502,99.349 264.218,99.349 264.621 M199.089 268.160 C 198.570 268.921,195.539 273.575,192.354 278.502 C 189.168 283.428,186.407 287.606,186.218 287.785 C 186.029 287.964,186.132 287.695,186.448 287.187 C 186.764 286.679,186.942 286.182,186.843 286.083 C 186.314 285.554,163.844 285.580,163.844 286.110 C 163.844 286.404,163.697 286.645,163.518 286.645 C 163.339 286.645,163.192 286.853,163.192 287.106 C 163.192 287.360,163.081 287.617,162.945 287.676 C 162.809 287.736,159.958 291.999,156.610 297.150 L 150.523 306.515 162.361 306.515 L 174.198 306.515 176.269 303.275 L 178.339 300.036 199.894 300.018 L 221.450 300.000 223.584 303.257 L 225.718 306.515 237.478 306.515 L 249.239 306.515 248.489 305.293 C 248.077 304.621,245.063 300.004,241.792 295.033 L 235.845 285.993 224.274 285.993 C 216.778 285.993,212.704 286.108,212.704 286.319 C 212.704 286.498,212.850 286.645,213.029 286.645 C 213.208 286.645,213.355 286.865,213.355 287.134 C 213.355 287.402,213.502 287.622,213.681 287.622 C 213.860 287.622,214.007 287.832,214.007 288.087 C 214.007 288.343,214.190 288.752,214.414 288.996 C 214.863 289.485,215.635 290.775,215.635 291.038 C 215.635 291.130,208.599 291.205,200.000 291.205 C 187.188 291.205,184.365 291.127,184.365 290.771 C 184.365 290.532,184.564 290.337,184.806 290.337 C 185.049 290.337,186.207 289.800,187.379 289.145 L 189.510 287.953 194.727 279.870 L 199.944 271.786 200.054 269.280 C 200.114 267.901,200.133 266.774,200.097 266.774 C 200.061 266.775,199.607 267.398,199.089 268.160 M282.573 294.680 C 278.990 300.886,276.013 306.076,275.958 306.214 C 275.903 306.353,278.876 306.482,282.565 306.501 L 289.272 306.537 289.238 294.962 C 289.220 288.596,289.179 283.390,289.147 283.392 C 289.114 283.395,286.156 288.475,282.573 294.680 M110.436 295.066 L 110.403 306.515 116.602 306.515 C 120.012 306.515,122.801 306.445,122.801 306.359 C 122.801 306.274,120.085 301.491,116.765 295.729 C 113.444 289.968,110.780 285.202,110.844 285.138 C 110.908 285.074,113.735 289.845,117.125 295.740 C 120.516 301.636,123.343 306.407,123.407 306.342 C 123.501 306.249,113.328 288.329,111.042 284.561 C 110.489 283.648,110.469 283.994,110.436 295.066 M282.835 295.535 C 279.466 301.360,276.658 306.076,276.594 306.015 C 276.531 305.953,279.235 301.135,282.603 295.307 C 285.972 289.479,288.781 284.763,288.844 284.827 C 288.908 284.891,286.204 289.710,282.835 295.535 M17.714 289.088 C 17.715 291.238,17.767 292.075,17.831 290.948 C 17.895 289.821,17.894 288.062,17.830 287.039 C 17.765 286.016,17.713 286.938,17.714 289.088 " stroke="none" fill="#bcb4b4" fill-rule="evenodd"></path><path id="path4" d="M193.893 93.393 C 194.385 93.468,195.191 93.468,195.684 93.393 C 196.177 93.318,195.774 93.257,194.788 93.257 C 193.803 93.257,193.400 93.318,193.893 93.393 M203.990 93.393 C 204.483 93.468,205.289 93.468,205.782 93.393 C 206.274 93.318,205.871 93.257,204.886 93.257 C 203.901 93.257,203.498 93.318,203.990 93.393 M190.635 93.710 C 190.949 93.792,191.462 93.792,191.775 93.710 C 192.089 93.628,191.832 93.561,191.205 93.561 C 190.578 93.561,190.322 93.628,190.635 93.710 M221.746 94.693 C 222.152 94.771,222.738 94.768,223.049 94.686 C 223.361 94.605,223.029 94.541,222.313 94.545 C 221.596 94.548,221.341 94.615,221.746 94.693 M152.606 96.255 C 152.427 96.317,150.081 96.957,147.394 97.678 C 135.945 100.751,124.747 104.954,125.574 105.867 C 126.292 106.661,127.455 106.913,128.524 106.506 C 131.415 105.407,128.869 106.679,124.984 108.275 C 100.023 118.527,75.038 135.903,57.027 155.537 C 52.363 160.621,49.186 164.299,49.186 164.613 C 49.186 164.727,53.033 164.819,57.736 164.817 L 66.287 164.813 71.147 159.946 C 73.821 157.270,76.113 155.144,76.241 155.224 C 76.369 155.303,76.673 155.113,76.917 154.801 C 77.327 154.279,77.311 154.271,76.710 154.707 C 75.865 155.321,76.303 154.874,78.478 152.904 C 79.450 152.023,80.122 151.523,79.971 151.792 C 79.819 152.060,80.317 151.621,81.076 150.814 C 81.835 150.008,82.358 149.568,82.237 149.837 C 82.117 150.106,82.412 149.848,82.892 149.264 C 83.388 148.661,83.930 148.297,84.147 148.420 C 84.356 148.540,84.423 148.522,84.294 148.380 C 84.093 148.158,85.207 147.014,85.668 146.971 C 85.757 146.963,86.478 146.358,87.269 145.628 C 88.060 144.897,88.775 144.367,88.857 144.449 C 88.939 144.531,89.276 144.274,89.606 143.879 C 89.936 143.483,90.211 143.286,90.217 143.440 C 90.223 143.594,90.516 143.374,90.869 142.951 C 91.221 142.528,91.514 142.325,91.520 142.499 C 91.526 142.673,91.761 142.488,92.042 142.087 C 92.323 141.685,92.674 141.432,92.822 141.524 C 92.970 141.615,93.183 141.450,93.296 141.157 C 93.409 140.863,93.594 140.717,93.708 140.831 C 93.822 140.945,94.122 140.744,94.374 140.383 C 94.626 140.023,94.954 139.803,95.102 139.895 C 95.250 139.987,95.459 139.833,95.566 139.554 C 95.673 139.275,95.893 139.128,96.055 139.228 C 96.216 139.328,96.436 139.182,96.543 138.903 C 96.650 138.624,96.886 138.486,97.066 138.598 C 97.247 138.709,97.394 138.665,97.394 138.499 C 97.394 138.135,99.996 136.367,100.010 136.722 C 100.015 136.859,100.171 136.711,100.356 136.394 C 100.540 136.077,100.814 135.892,100.963 135.985 C 101.112 136.077,101.322 135.924,101.429 135.645 C 101.536 135.366,101.756 135.220,101.918 135.320 C 102.080 135.419,102.304 135.261,102.417 134.968 C 102.529 134.674,102.703 134.517,102.804 134.617 C 102.904 134.718,103.231 134.591,103.529 134.335 C 103.828 134.080,104.145 133.902,104.235 133.940 C 104.324 133.978,104.691 133.758,105.049 133.451 C 105.407 133.145,105.847 132.862,106.026 132.823 C 106.205 132.785,106.613 132.529,106.932 132.256 C 107.252 131.983,107.584 131.799,107.672 131.847 C 107.759 131.896,108.143 131.644,108.525 131.288 C 108.907 130.933,109.344 130.718,109.496 130.812 C 109.648 130.906,109.772 130.819,109.772 130.619 C 109.772 130.419,109.919 130.345,110.098 130.456 C 110.277 130.567,110.423 130.535,110.423 130.386 C 110.423 130.082,112.731 128.767,112.967 128.937 C 113.051 128.997,113.214 128.893,113.330 128.705 C 113.645 128.195,123.187 123.452,123.504 123.648 C 123.655 123.741,123.779 123.653,123.779 123.453 C 123.779 123.252,123.925 123.179,124.104 123.290 C 124.283 123.401,124.430 123.347,124.430 123.172 C 124.430 122.854,126.649 121.955,127.117 122.083 C 127.252 122.120,127.362 122.003,127.362 121.824 C 127.362 121.645,127.471 121.530,127.606 121.568 C 127.740 121.606,128.180 121.454,128.583 121.230 C 128.986 121.007,129.318 120.939,129.321 121.080 C 129.324 121.220,129.434 121.167,129.565 120.961 C 129.697 120.755,130.098 120.535,130.456 120.472 C 130.814 120.410,131.181 120.263,131.270 120.147 C 131.360 120.030,131.726 119.884,132.085 119.821 C 132.443 119.758,132.809 119.612,132.899 119.495 C 132.989 119.379,133.355 119.232,133.713 119.169 C 134.072 119.107,134.444 118.949,134.542 118.819 C 134.639 118.689,135.079 118.517,135.519 118.436 C 135.959 118.356,136.393 118.261,136.482 118.227 C 136.572 118.192,136.755 118.181,136.889 118.202 C 137.024 118.224,137.134 118.106,137.134 117.941 C 137.134 117.776,137.610 117.528,138.192 117.390 C 138.774 117.251,139.361 117.111,139.495 117.079 C 139.629 117.046,139.813 116.983,139.902 116.938 C 139.992 116.893,140.212 116.820,140.391 116.775 C 140.570 116.730,140.790 116.657,140.879 116.612 C 140.969 116.568,141.189 116.494,141.368 116.450 C 141.547 116.405,141.767 116.331,141.857 116.287 C 141.946 116.242,142.166 116.169,142.345 116.124 C 142.524 116.079,142.744 116.006,142.834 115.961 C 142.923 115.916,143.143 115.843,143.322 115.798 C 143.502 115.753,143.721 115.680,143.811 115.635 C 143.901 115.590,144.084 115.523,144.218 115.486 C 144.353 115.448,144.878 115.246,145.386 115.036 C 145.893 114.825,146.443 114.736,146.607 114.838 C 146.771 114.939,146.906 114.851,146.906 114.642 C 146.906 114.433,147.121 114.345,147.384 114.446 C 147.647 114.547,147.955 114.479,148.068 114.296 C 148.182 114.112,148.479 114.041,148.730 114.137 C 148.981 114.233,149.186 114.154,149.186 113.961 C 149.186 113.769,149.406 113.695,149.674 113.799 C 149.943 113.902,150.163 113.857,150.163 113.699 C 150.163 113.459,152.118 112.934,153.257 112.868 C 153.436 112.858,153.766 112.735,153.990 112.594 C 154.214 112.454,154.534 112.424,154.701 112.527 C 154.867 112.630,155.102 112.555,155.222 112.361 C 155.342 112.167,155.641 112.085,155.886 112.179 C 156.131 112.273,156.424 112.199,156.537 112.016 C 156.651 111.832,156.944 111.759,157.189 111.853 C 157.434 111.947,157.728 111.871,157.844 111.684 C 157.959 111.497,158.324 111.414,158.653 111.501 C 158.983 111.587,159.305 111.500,159.369 111.307 C 159.692 110.339,160.650 111.449,160.535 112.657 L 160.416 113.908 163.073 113.327 C 167.056 112.457,174.963 111.169,178.827 110.761 C 184.619 110.149,184.365 110.233,184.365 108.943 C 184.365 107.824,184.356 107.817,182.818 107.774 C 176.633 107.601,188.727 107.060,199.349 107.034 C 249.559 106.914,293.743 125.156,329.603 160.811 L 333.636 164.821 342.196 164.821 C 350.164 164.821,350.751 164.781,350.673 164.251 C 350.627 163.937,350.433 163.681,350.243 163.681 C 349.751 163.681,348.508 162.024,348.789 161.743 C 348.918 161.614,348.869 161.558,348.680 161.618 C 348.331 161.728,346.383 159.714,346.265 159.121 C 346.229 158.941,346.115 158.721,346.012 158.632 C 345.908 158.542,345.944 158.689,346.091 158.958 C 346.238 159.226,346.291 159.373,346.208 159.283 C 343.299 156.131,342.341 155.012,342.997 155.531 C 343.445 155.886,342.612 155.040,341.147 153.651 C 339.681 152.262,337.275 149.846,335.800 148.283 C 334.325 146.719,333.227 145.660,333.361 145.928 C 333.494 146.197,332.681 145.464,331.553 144.300 C 330.426 143.135,329.619 142.402,329.759 142.671 C 329.900 142.940,329.318 142.427,328.466 141.531 C 327.615 140.635,327.030 140.122,327.167 140.391 C 327.305 140.660,326.933 140.366,326.342 139.739 C 325.751 139.112,325.162 138.633,325.034 138.673 C 324.906 138.714,324.441 138.319,324.000 137.796 C 323.560 137.272,323.122 136.922,323.026 137.017 C 322.931 137.112,322.606 136.812,322.303 136.350 C 322.000 135.888,321.629 135.587,321.477 135.681 C 321.325 135.775,320.959 135.482,320.663 135.029 C 320.367 134.577,320.004 134.282,319.856 134.373 C 319.709 134.464,319.359 134.210,319.078 133.809 C 318.797 133.408,318.562 133.222,318.556 133.397 C 318.550 133.571,318.257 133.367,317.904 132.944 C 317.552 132.521,317.259 132.302,317.253 132.456 C 317.247 132.610,316.972 132.413,316.642 132.017 C 316.312 131.622,315.979 131.361,315.902 131.438 C 315.824 131.515,315.307 131.164,314.752 130.657 C 314.197 130.150,313.509 129.646,313.223 129.536 C 312.937 129.426,312.704 129.177,312.704 128.981 C 312.704 128.786,312.556 128.717,312.376 128.829 C 312.195 128.940,311.960 128.803,311.853 128.524 C 311.746 128.245,311.526 128.099,311.364 128.198 C 311.203 128.298,310.982 128.151,310.875 127.871 C 310.767 127.591,310.475 127.362,310.226 127.362 C 309.976 127.362,309.772 127.215,309.772 127.036 C 309.772 126.857,309.635 126.710,309.468 126.710 C 308.973 126.710,305.863 124.684,305.863 124.362 C 305.863 124.199,305.716 124.157,305.535 124.269 C 305.355 124.380,305.120 124.243,305.012 123.964 C 304.905 123.685,304.709 123.524,304.575 123.606 C 304.442 123.689,304.024 123.468,303.646 123.116 C 303.268 122.764,302.806 122.476,302.619 122.476 C 302.433 122.476,302.280 122.320,302.280 122.131 C 302.280 121.941,302.156 121.863,302.004 121.956 C 301.852 122.050,301.415 121.836,301.033 121.480 C 300.651 121.124,300.267 120.873,300.180 120.922 C 300.093 120.970,299.687 120.723,299.278 120.373 C 298.869 120.023,298.502 119.803,298.463 119.885 C 298.424 119.966,298.107 119.788,297.758 119.489 C 297.409 119.190,297.038 119.032,296.933 119.136 C 296.828 119.241,296.743 119.156,296.743 118.947 C 296.743 118.738,296.633 118.592,296.498 118.624 C 296.093 118.718,294.463 117.832,294.463 117.518 C 294.463 117.357,294.316 117.316,294.137 117.427 C 293.958 117.537,293.811 117.464,293.811 117.264 C 293.811 117.064,293.677 116.983,293.513 117.084 C 293.349 117.185,293.166 117.157,293.106 117.022 C 293.046 116.886,292.081 116.345,290.961 115.820 C 289.841 115.294,288.925 114.736,288.925 114.579 C 288.925 114.422,288.779 114.384,288.599 114.495 C 288.420 114.606,288.274 114.533,288.274 114.332 C 288.274 114.132,288.127 114.059,287.948 114.169 C 287.769 114.280,287.622 114.207,287.622 114.007 C 287.622 113.806,287.476 113.733,287.296 113.844 C 287.117 113.954,286.971 113.881,286.971 113.681 C 286.971 113.480,286.824 113.407,286.645 113.518 C 286.466 113.629,286.319 113.555,286.319 113.355 C 286.319 113.155,286.173 113.081,285.993 113.192 C 285.814 113.303,285.668 113.214,285.668 112.994 C 285.668 112.775,285.577 112.686,285.466 112.797 C 285.355 112.908,284.365 112.537,283.267 111.972 C 282.169 111.408,281.160 110.975,281.026 111.010 C 280.892 111.046,280.782 110.928,280.782 110.749 C 280.782 110.570,280.672 110.453,280.537 110.490 C 280.086 110.612,277.850 109.644,277.850 109.327 C 277.850 109.154,277.758 109.105,277.644 109.218 C 277.531 109.331,277.128 109.251,276.749 109.040 C 276.369 108.829,275.949 108.688,275.814 108.726 C 275.680 108.764,275.570 108.624,275.570 108.415 C 275.570 108.206,275.474 108.131,275.356 108.249 C 275.238 108.367,274.957 108.311,274.732 108.124 C 274.508 107.937,273.911 107.710,273.407 107.618 C 272.902 107.527,272.413 107.351,272.320 107.228 C 272.226 107.104,271.857 106.952,271.498 106.889 C 271.140 106.827,270.757 106.631,270.648 106.454 C 270.538 106.278,270.355 106.146,270.240 106.161 C 270.126 106.176,269.923 106.188,269.788 106.187 C 269.654 106.186,238.103 106.181,199.674 106.177 C 161.242 106.173,130.024 106.045,130.293 105.893 C 131.108 105.432,132.501 105.105,131.922 105.511 C 131.580 105.751,152.002 105.855,199.973 105.858 C 257.397 105.862,270.838 105.758,267.725 105.334 C 267.561 105.311,267.390 105.264,267.345 105.228 C 267.300 105.193,266.902 105.097,266.460 105.016 C 266.019 104.935,265.322 104.649,264.913 104.381 C 264.504 104.113,264.169 103.988,264.169 104.104 C 264.169 104.220,263.921 104.113,263.618 103.867 C 263.244 103.563,263.146 103.551,263.312 103.827 C 263.507 104.153,250.762 104.235,200.019 104.235 C 153.784 104.235,136.482 104.136,136.482 103.874 C 136.482 103.676,136.710 103.601,136.988 103.707 C 137.318 103.834,137.412 103.771,137.260 103.524 C 137.104 103.272,137.207 103.216,137.569 103.355 C 137.867 103.469,138.111 103.411,138.111 103.225 C 138.111 103.029,138.401 102.980,138.803 103.107 C 139.313 103.269,139.428 103.219,139.241 102.915 C 139.055 102.615,139.177 102.553,139.688 102.687 C 140.075 102.788,140.391 102.742,140.391 102.586 C 140.391 102.429,140.611 102.385,140.879 102.488 C 141.148 102.591,141.368 102.498,141.368 102.280 C 141.368 102.062,141.588 101.969,141.857 102.072 C 142.125 102.175,142.345 102.102,142.345 101.909 C 142.345 101.717,142.565 101.643,142.834 101.746 C 143.103 101.850,143.322 101.782,143.322 101.596 C 143.322 101.407,143.609 101.350,143.974 101.466 C 144.373 101.592,144.625 101.524,144.625 101.290 C 144.625 101.080,144.845 100.992,145.114 101.095 C 145.383 101.198,145.603 101.131,145.603 100.945 C 145.603 100.756,145.889 100.698,146.254 100.814 C 146.653 100.941,146.906 100.873,146.906 100.639 C 146.906 100.428,147.125 100.340,147.394 100.444 C 147.663 100.547,147.883 100.472,147.883 100.278 C 147.883 100.083,148.176 100.001,148.534 100.094 C 148.893 100.188,149.186 100.116,149.186 99.935 C 149.186 99.753,149.401 99.687,149.664 99.788 C 149.927 99.889,150.235 99.821,150.348 99.638 C 150.462 99.454,150.755 99.381,151.000 99.475 C 151.245 99.569,151.538 99.496,151.651 99.312 C 151.765 99.129,152.058 99.055,152.303 99.149 C 152.548 99.243,152.841 99.170,152.954 98.986 C 153.068 98.803,153.348 98.724,153.576 98.812 C 154.569 99.193,154.723 98.244,153.827 97.264 L 152.932 96.285 154.104 97.247 C 154.750 97.776,155.203 98.341,155.113 98.503 C 155.022 98.665,155.130 98.685,155.353 98.548 C 155.643 98.368,155.456 97.988,154.688 97.195 C 153.669 96.144,153.348 95.999,152.606 96.255 M180.053 108.041 C 179.741 108.123,179.155 108.126,178.750 108.048 C 178.345 107.970,178.599 107.903,179.316 107.900 C 180.033 107.896,180.364 107.960,180.053 108.041 M177.443 108.368 C 177.129 108.450,176.616 108.450,176.303 108.368 C 175.989 108.286,176.246 108.219,176.873 108.219 C 177.500 108.219,177.757 108.286,177.443 108.368 M339.902 148.534 C 340.966 149.609,341.910 150.489,341.999 150.489 C 342.089 150.489,341.292 149.609,340.228 148.534 C 339.164 147.459,338.221 146.580,338.131 146.580 C 338.042 146.580,338.839 147.459,339.902 148.534 M48.052 165.788 C 47.867 166.087,65.358 166.457,65.654 166.160 C 66.194 165.618,64.329 165.472,56.840 165.472 C 51.649 165.472,48.170 165.597,48.052 165.788 M334.359 165.789 C 334.627 166.223,351.675 166.250,351.942 165.817 C 352.059 165.629,348.668 165.500,343.142 165.483 C 337.063 165.463,334.219 165.563,334.359 165.789 M104.472 258.852 C 100.881 262.467,98.796 264.797,98.979 264.994 C 99.141 265.167,101.148 268.577,103.439 272.570 L 107.605 279.830 106.004 281.528 C 105.123 282.461,105.757 281.909,107.413 280.300 L 110.423 277.375 110.472 280.626 C 110.498 282.413,110.535 284.125,110.553 284.430 C 110.589 285.024,122.871 306.554,123.064 306.361 C 123.128 306.297,120.375 301.378,116.947 295.430 C 113.520 289.482,110.771 284.560,110.839 284.493 C 110.906 284.425,113.809 289.347,117.289 295.430 L 123.616 306.491 129.108 306.503 L 134.600 306.515 134.407 296.987 C 134.301 291.747,134.205 282.048,134.194 275.435 L 134.173 263.411 131.337 258.436 C 129.133 254.569,128.357 253.465,127.850 253.480 C 127.492 253.491,123.388 253.394,118.730 253.264 L 110.261 253.027 104.472 258.852 M279.085 253.271 C 279.016 253.341,277.207 253.418,275.066 253.442 L 271.173 253.487 268.404 258.321 L 265.635 263.155 265.447 258.369 L 265.259 253.583 265.320 259.121 C 265.354 262.166,265.400 274.076,265.422 285.586 L 265.463 306.515 270.609 306.515 L 275.756 306.515 280.786 297.801 C 287.640 285.932,289.327 283.112,289.118 283.876 C 289.020 284.235,289.079 284.748,289.249 285.016 C 289.449 285.331,289.501 283.866,289.395 280.888 C 289.212 275.716,289.286 275.537,291.086 276.861 L 292.368 277.803 297.060 269.664 C 299.641 265.188,301.889 261.441,302.056 261.338 C 302.222 261.235,301.985 261.793,301.528 262.579 C 296.130 271.852,292.849 277.648,292.942 277.742 C 293.005 277.805,294.941 274.593,297.243 270.606 C 299.546 266.618,301.698 262.896,302.027 262.335 L 302.625 261.315 296.996 257.196 L 291.368 253.077 285.290 253.111 C 281.947 253.129,279.155 253.201,279.085 253.271 M357.810 279.967 C 357.810 294.658,357.850 300.620,357.899 293.217 C 357.948 285.813,357.948 273.794,357.899 266.507 C 357.850 259.220,357.810 265.277,357.810 279.967 M181.935 258.306 C 181.835 258.575,177.816 264.805,173.005 272.150 L 164.257 285.505 175.465 285.709 C 187.724 285.931,187.267 285.870,186.448 287.187 C 186.132 287.695,186.029 287.964,186.217 287.785 C 186.406 287.606,189.452 282.989,192.985 277.524 C 196.519 272.060,199.579 267.418,199.786 267.209 C 200.072 266.921,201.654 269.138,206.352 276.410 L 212.541 285.991 224.121 285.992 C 232.941 285.993,235.801 286.091,236.122 286.401 C 236.595 286.858,233.149 281.529,223.906 267.514 L 217.627 257.991 199.872 257.905 C 184.335 257.828,182.095 257.879,181.935 258.306 M103.259 271.010 C 105.265 274.503,107.207 277.875,107.575 278.502 C 107.964 279.164,108.036 279.437,107.748 279.153 C 107.219 278.631,99.349 265.015,99.349 264.621 C 99.349 264.218,99.522 264.502,103.259 271.010 M65.472 292.182 C 65.472 300.125,65.543 306.553,65.629 306.467 C 65.846 306.249,65.866 278.135,65.648 277.918 C 65.552 277.821,65.472 284.240,65.472 292.182 M283.043 294.521 C 277.157 304.688,275.925 306.906,276.467 306.352 C 276.973 305.836,288.977 284.959,288.844 284.827 C 288.778 284.761,286.168 289.123,283.043 294.521 M289.396 296.580 C 289.396 302.134,289.440 304.451,289.494 301.730 C 289.549 299.010,289.549 294.466,289.495 291.633 C 289.440 288.800,289.396 291.026,289.396 296.580 M184.391 290.635 C 184.366 291.171,185.319 291.205,200.054 291.205 C 208.683 291.205,215.665 291.126,215.568 291.030 C 215.472 290.933,208.498 290.863,200.071 290.873 C 187.985 290.888,184.714 290.804,184.583 290.478 C 184.480 290.224,184.406 290.285,184.391 290.635 " stroke="none" fill="#d4d4d4" fill-rule="evenodd"></path><path id="path5" d="M192.508 90.742 C 191.523 90.807,188.225 91.021,185.179 91.218 C 176.087 91.805,159.106 94.408,154.925 95.855 L 153.722 96.272 154.692 97.201 L 155.662 98.131 159.834 97.269 C 162.129 96.795,164.226 96.422,164.495 96.439 C 164.764 96.457,162.638 96.971,159.772 97.582 C 152.642 99.101,140.652 102.427,137.134 103.861 C 136.577 104.088,156.440 104.192,200.000 104.188 L 263.681 104.183 261.075 103.257 C 259.642 102.748,258.641 102.320,258.852 102.306 C 259.063 102.292,261.408 103.050,264.064 103.990 L 268.893 105.700 200.000 105.866 L 131.107 106.031 200.676 106.104 L 270.244 106.177 274.129 107.776 C 351.270 139.519,400.226 216.915,395.461 299.595 L 395.062 306.519 396.147 307.890 L 397.231 309.261 397.444 307.644 C 398.656 298.419,398.484 279.056,397.083 266.867 C 386.231 172.504,311.295 99.564,216.775 91.361 C 211.392 90.894,196.118 90.504,192.508 90.742 M203.356 93.402 C 201.530 93.460,198.452 93.461,196.516 93.403 C 194.580 93.345,196.075 93.298,199.837 93.297 C 203.599 93.297,205.183 93.344,203.356 93.402 M190.971 93.723 C 190.215 93.792,188.896 93.792,188.039 93.725 C 187.183 93.658,187.801 93.602,189.414 93.601 C 191.026 93.600,191.727 93.655,190.971 93.723 M211.808 93.724 C 211.046 93.792,209.800 93.792,209.039 93.724 C 208.278 93.655,208.901 93.599,210.423 93.599 C 211.946 93.599,212.569 93.655,211.808 93.724 M185.266 94.044 C 184.777 94.118,183.897 94.120,183.312 94.047 C 182.727 93.975,183.127 93.914,184.202 93.912 C 185.277 93.910,185.756 93.969,185.266 94.044 M216.531 94.044 C 216.038 94.119,215.232 94.119,214.739 94.044 C 214.247 93.970,214.650 93.909,215.635 93.909 C 216.621 93.909,217.024 93.970,216.531 94.044 M181.519 94.366 C 181.119 94.443,180.386 94.445,179.890 94.371 C 179.395 94.296,179.723 94.232,180.619 94.230 C 181.515 94.228,181.920 94.289,181.519 94.366 M219.951 94.367 C 219.548 94.444,218.888 94.444,218.485 94.367 C 218.082 94.289,218.412 94.226,219.218 94.226 C 220.024 94.226,220.354 94.289,219.951 94.367 M178.098 94.686 C 177.787 94.768,177.201 94.771,176.795 94.693 C 176.390 94.615,176.645 94.548,177.362 94.545 C 178.078 94.541,178.410 94.605,178.098 94.686 M223.049 94.686 C 222.738 94.768,222.152 94.771,221.746 94.693 C 221.341 94.615,221.596 94.548,222.313 94.545 C 223.029 94.541,223.361 94.605,223.049 94.686 M175.492 95.012 C 175.181 95.094,174.595 95.097,174.189 95.019 C 173.784 94.941,174.039 94.874,174.756 94.870 C 175.472 94.867,175.804 94.931,175.492 95.012 M225.655 95.012 C 225.344 95.094,224.758 95.097,224.352 95.019 C 223.947 94.941,224.202 94.874,224.919 94.870 C 225.635 94.867,225.967 94.931,225.655 95.012 M172.883 95.339 C 172.569 95.420,172.056 95.420,171.743 95.339 C 171.429 95.257,171.686 95.190,172.313 95.190 C 172.940 95.190,173.196 95.257,172.883 95.339 M229.479 95.421 C 231.194 95.776,229.653 95.806,227.687 95.456 C 226.588 95.261,226.466 95.190,227.199 95.174 C 227.736 95.161,228.762 95.273,229.479 95.421 M170.603 95.664 C 170.289 95.746,169.776 95.746,169.463 95.664 C 169.149 95.582,169.406 95.515,170.033 95.515 C 170.660 95.515,170.916 95.582,170.603 95.664 M167.915 96.091 C 167.378 96.228,166.498 96.338,165.961 96.336 C 165.019 96.331,165.025 96.323,166.124 96.091 C 167.758 95.747,169.267 95.747,167.915 96.091 M153.980 97.401 C 154.556 98.006,155.083 98.435,155.151 98.355 C 155.218 98.274,154.746 97.779,154.102 97.255 L 152.932 96.301 153.980 97.401 M240.391 97.394 C 241.486 97.745,240.303 97.745,238.925 97.394 C 238.047 97.171,238.031 97.145,238.762 97.139 C 239.210 97.136,239.943 97.251,240.391 97.394 M243.322 98.046 C 243.967 98.252,244.001 98.306,243.485 98.306 C 243.127 98.306,242.467 98.189,242.020 98.046 C 241.375 97.839,241.341 97.785,241.857 97.785 C 242.215 97.785,242.875 97.902,243.322 98.046 M247.154 98.918 C 248.350 99.218,249.187 99.508,249.013 99.561 C 248.839 99.615,247.671 99.382,246.417 99.044 C 245.163 98.707,244.327 98.417,244.558 98.401 C 244.790 98.385,245.959 98.617,247.154 98.918 M254.814 101.020 C 256.745 101.583,258.266 102.103,258.194 102.175 C 258.068 102.301,251.117 100.356,250.841 100.118 C 250.512 99.832,251.537 100.065,254.814 101.020 M155.614 112.393 C 70.295 133.607,11.417 214.871,18.259 301.971 L 18.604 306.352 20.080 307.818 L 21.557 309.283 21.363 307.980 C 19.910 298.243,20.304 276.963,22.184 263.528 C 32.171 192.187,85.371 132.948,155.537 115.037 L 160.423 113.790 160.525 112.595 C 160.649 111.125,160.704 111.127,155.614 112.393 M40.228 251.792 L 41.500 253.094 53.566 253.094 L 65.632 253.094 76.790 264.249 L 87.948 275.404 87.948 273.449 L 87.948 271.495 77.441 260.992 L 66.934 250.489 52.945 250.489 L 38.956 250.489 40.228 251.792 M109.605 251.668 C 109.876 252.317,110.098 252.881,110.098 252.921 C 110.098 252.994,126.660 253.516,127.850 253.480 C 128.357 253.465,129.133 254.569,131.337 258.436 L 134.173 263.411 134.194 275.435 C 134.205 282.048,134.297 291.783,134.398 297.068 L 134.581 306.678 135.857 307.976 L 137.134 309.274 137.134 279.881 L 137.134 250.489 123.123 250.489 L 109.112 250.489 109.605 251.668 M184.039 250.633 C 184.039 250.712,184.350 251.304,184.730 251.948 L 185.421 253.119 183.916 255.383 C 183.088 256.628,182.410 257.722,182.410 257.814 C 182.410 257.905,190.332 257.980,200.014 257.980 L 217.618 257.980 224.863 268.974 C 228.848 275.020,235.987 285.918,240.728 293.190 L 249.349 306.412 251.570 307.635 C 252.792 308.308,253.843 308.807,253.905 308.744 C 253.967 308.682,245.501 295.549,235.091 279.560 L 216.164 250.489 200.102 250.489 C 191.267 250.489,184.039 250.554,184.039 250.633 M264.093 251.876 L 265.455 253.264 265.545 258.209 L 265.635 263.153 268.404 258.303 C 270.553 254.539,271.318 253.457,271.824 253.473 C 272.182 253.484,276.726 253.388,281.922 253.259 L 291.368 253.025 294.788 255.556 C 325.702 278.432,332.876 283.713,333.039 283.713 C 333.146 283.713,332.681 282.622,332.007 281.289 L 330.782 278.864 311.651 264.676 L 292.520 250.489 277.625 250.489 L 262.731 250.489 264.093 251.876 M332.407 251.788 L 333.675 253.087 345.746 253.172 L 357.818 253.257 357.901 279.985 L 357.984 306.712 359.285 307.982 L 360.586 309.253 360.586 279.871 L 360.586 250.489 345.862 250.489 L 331.138 250.489 332.407 251.788 M289.494 291.450 L 289.632 306.678 290.907 307.976 L 292.182 309.274 292.182 295.346 L 292.182 281.419 290.876 278.820 C 290.157 277.391,289.521 276.221,289.463 276.221 C 289.405 276.221,289.419 283.074,289.494 291.450 M65.798 292.768 L 65.798 306.708 67.101 307.980 L 68.404 309.253 68.404 296.974 L 68.404 284.695 67.230 281.761 C 66.584 280.148,65.998 278.827,65.927 278.827 C 65.856 278.827,65.798 285.101,65.798 292.768 M186.869 289.502 L 184.650 290.717 192.140 290.804 C 196.259 290.852,203.120 290.852,207.385 290.804 L 215.142 290.717 212.816 289.495 L 210.491 288.274 199.790 288.281 L 189.088 288.288 186.869 289.502 " stroke="none" fill="#f4f4f4" fill-rule="evenodd"></path><path id="path6" d="M198.947 90.464 C 199.533 90.537,200.412 90.535,200.902 90.461 C 201.391 90.386,200.912 90.327,199.837 90.329 C 198.762 90.331,198.362 90.392,198.947 90.464 M190.640 110.006 C 191.135 110.081,191.868 110.079,192.268 110.001 C 192.669 109.924,192.264 109.863,191.368 109.865 C 190.472 109.868,190.145 109.931,190.640 110.006 M207.573 110.005 C 208.066 110.080,208.872 110.080,209.365 110.005 C 209.857 109.931,209.454 109.870,208.469 109.870 C 207.484 109.870,207.081 109.931,207.573 110.005 M213.436 110.322 C 213.750 110.404,214.263 110.404,214.577 110.322 C 214.890 110.240,214.634 110.173,214.007 110.173 C 213.379 110.173,213.123 110.240,213.436 110.322 M252.393 116.108 L 252.280 117.513 254.980 118.369 C 268.084 122.519,282.862 129.349,295.653 137.166 C 297.867 138.520,298.046 138.500,298.046 136.897 C 298.046 136.243,298.179 135.874,298.371 135.993 C 298.550 136.104,298.697 136.138,298.697 136.070 C 298.697 135.531,286.988 128.859,280.293 125.583 C 270.971 121.022,263.235 117.983,252.881 114.817 C 252.648 114.746,252.462 115.236,252.393 116.108 M248.046 116.287 C 248.404 116.441,248.917 116.567,249.186 116.567 C 249.494 116.567,249.433 116.463,249.023 116.287 C 248.664 116.133,248.151 116.007,247.883 116.007 C 247.575 116.007,247.635 116.110,248.046 116.287 M250.326 116.938 C 250.684 117.092,251.197 117.218,251.466 117.218 C 251.774 117.218,251.714 117.115,251.303 116.938 C 250.945 116.784,250.432 116.658,250.163 116.658 C 249.855 116.658,249.915 116.762,250.326 116.938 M69.198 139.495 L 68.241 140.554 69.300 139.597 C 69.882 139.071,70.358 138.594,70.358 138.538 C 70.358 138.287,70.090 138.508,69.198 139.495 M62.541 145.561 C 50.550 157.054,36.055 175.157,30.622 185.428 L 29.810 186.962 30.733 187.862 C 31.607 188.714,31.676 188.730,32.033 188.158 C 40.675 174.320,48.303 164.384,58.975 153.066 L 63.149 148.639 62.276 147.766 L 61.402 146.892 64.659 143.821 C 66.450 142.131,67.842 140.743,67.752 140.735 C 67.663 140.728,65.318 142.900,62.541 145.561 M333.225 141.796 C 333.225 141.852,333.701 142.328,334.283 142.854 L 335.342 143.811 334.385 142.752 C 333.494 141.766,333.225 141.544,333.225 141.796 M328.502 160.261 C 330.825 162.590,332.800 164.495,332.890 164.495 C 332.979 164.495,331.151 162.590,328.827 160.261 C 326.504 157.932,324.529 156.026,324.439 156.026 C 324.350 156.026,326.178 157.932,328.502 160.261 M77.341 158.062 L 76.384 159.121 77.443 158.164 C 78.430 157.272,78.651 157.003,78.400 157.003 C 78.344 157.003,77.867 157.480,77.341 158.062 M68.546 166.857 L 67.590 167.915 68.648 166.959 C 69.230 166.432,69.707 165.956,69.707 165.900 C 69.707 165.648,69.438 165.870,68.546 166.857 M137.213 279.626 L 137.134 309.253 135.749 307.971 L 134.365 306.688 135.738 308.133 C 136.493 308.927,137.190 309.498,137.287 309.401 C 137.384 309.305,137.425 295.900,137.378 279.613 L 137.293 250.000 137.213 279.626 M263.681 251.792 C 264.381 252.508,265.026 253.094,265.116 253.094 C 265.206 253.094,264.706 252.508,264.007 251.792 C 263.307 251.075,262.661 250.489,262.571 250.489 C 262.482 250.489,262.981 251.075,263.681 251.792 M5.287 266.775 C 5.287 267.402,5.354 267.659,5.436 267.345 C 5.518 267.032,5.518 266.519,5.436 266.205 C 5.354 265.892,5.287 266.148,5.287 266.775 M4.968 269.870 C 4.972 270.586,5.038 270.841,5.116 270.436 C 5.194 270.031,5.191 269.444,5.110 269.133 C 5.028 268.822,4.965 269.153,4.968 269.870 M381.183 271.661 C 381.183 272.288,381.250 272.545,381.332 272.231 C 381.414 271.918,381.414 271.405,381.332 271.091 C 381.250 270.778,381.183 271.034,381.183 271.661 M4.649 273.616 C 4.649 274.422,4.713 274.752,4.790 274.349 C 4.868 273.945,4.868 273.286,4.790 272.883 C 4.713 272.480,4.649 272.809,4.649 273.616 M381.522 275.570 C 381.522 276.376,381.585 276.706,381.663 276.303 C 381.741 275.900,381.741 275.240,381.663 274.837 C 381.585 274.434,381.522 274.764,381.522 275.570 M4.341 278.990 C 4.343 280.244,4.402 280.717,4.472 280.042 C 4.543 279.366,4.542 278.340,4.470 277.761 C 4.398 277.183,4.340 277.736,4.341 278.990 M66.062 278.206 C 66.272 278.491,66.335 278.858,66.202 279.020 C 66.070 279.183,66.101 279.200,66.272 279.059 C 66.449 278.913,71.209 283.426,77.266 289.481 L 87.949 300.160 99.105 288.924 L 110.261 277.688 99.104 288.761 L 87.948 299.834 76.814 288.760 C 70.690 282.670,65.852 277.921,66.062 278.206 M381.868 281.433 C 381.868 282.777,381.926 283.327,381.996 282.655 C 382.067 281.983,382.067 280.884,381.996 280.212 C 381.926 279.540,381.868 280.090,381.868 281.433 M292.332 295.277 C 292.332 303.160,292.375 306.338,292.426 302.339 C 292.478 298.341,292.478 291.892,292.426 288.007 C 292.374 284.123,292.332 287.394,292.332 295.277 M20.603 283.225 C 20.607 283.941,20.674 284.196,20.752 283.791 C 20.829 283.386,20.827 282.799,20.745 282.488 C 20.663 282.177,20.600 282.508,20.603 283.225 M4.041 289.088 C 4.041 291.954,4.091 293.083,4.151 291.597 C 4.212 290.110,4.212 287.765,4.151 286.385 C 4.090 285.005,4.040 286.221,4.041 289.088 M398.503 289.088 C 398.504 291.954,398.553 293.083,398.614 291.597 C 398.674 290.110,398.674 287.765,398.613 286.385 C 398.552 285.005,398.503 286.221,398.503 289.088 M20.610 294.788 C 20.610 295.594,20.673 295.924,20.751 295.521 C 20.829 295.118,20.829 294.458,20.751 294.055 C 20.673 293.652,20.610 293.982,20.610 294.788 M381.871 296.906 C 381.872 298.339,381.929 298.885,381.998 298.118 C 382.067 297.352,382.066 296.180,381.996 295.513 C 381.926 294.845,381.869 295.472,381.871 296.906 M1.629 296.610 C 1.629 296.790,2.215 297.509,2.932 298.208 C 3.648 298.908,4.235 299.701,4.235 299.969 C 4.235 300.274,3.731 299.973,2.896 299.170 L 1.557 297.883 1.747 300.326 C 1.852 301.669,2.033 304.210,2.150 305.971 L 2.362 309.173 3.549 308.014 L 4.737 306.854 11.733 306.759 L 18.730 306.664 11.857 306.589 L 4.984 306.515 4.772 303.533 C 4.655 301.893,4.537 299.658,4.508 298.566 C 4.476 297.341,4.404 297.002,4.321 297.681 L 4.187 298.783 2.908 297.534 C 2.204 296.847,1.629 296.431,1.629 296.610 M381.526 302.769 C 381.529 303.664,381.592 303.992,381.667 303.497 C 381.742 303.002,381.740 302.269,381.663 301.868 C 381.585 301.468,381.524 301.873,381.526 302.769 M381.212 306.026 C 381.276 306.654,381.522 306.678,387.952 306.687 L 394.625 306.697 388.052 306.599 C 382.152 306.512,381.461 306.444,381.312 305.938 C 381.185 305.511,381.161 305.532,381.212 306.026 M290.554 307.980 C 291.161 308.607,291.732 309.121,291.822 309.121 C 291.911 309.121,291.487 308.607,290.879 307.980 C 290.272 307.353,289.701 306.840,289.612 306.840 C 289.522 306.840,289.946 307.353,290.554 307.980 " stroke="none" fill="#5c5c5c" fill-rule="evenodd"></path></g></svg>