<?xml version="1.0" encoding="UTF-8" standalone="no"?>
<svg
   xmlns="http://www.w3.org/2000/svg"
   version="1.1"
   id="Livello_1"
   x="0px"
   y="0px"
   viewBox="0 0 9454.1 9454.0996"
   xml:space="preserve"
   width="9454.0996"
   height="9454.0996">
<g
   id="g8"
   transform="translate(0,1363.7808)">
	
	<path
   class="st0"
   d="M 9058.5637,7076.1262 C 8253.6511,6385.9867 5862.2684,4422.1669 4727.0498,4422.1669 c -1135.7191,0 -3525.2667,1962.4852 -4330.67975,2653.1252 -4.83781,-163.1512 -9.34199,-262.243 -9.34199,-407.5443 0,0 -19.6849,-239.889 192.51173,-479.9447 C 2325.491,4605.8371 4156.0206,3831.7865 4212.2394,3808.0979 c 545.8392,-230.7138 515.144,-187.3403 514.6436,-1113.1983 0,0 24.3559,-1.5013 39.8703,0.1669 768.7123,69.5644 2835.4608,2075.4232 4058.5942,3431.5132 2.1687,2.3355 241.3904,279.2587 241.3904,571.1959 0.3336,136.7935 -3.6701,271.7519 -8.1742,378.3506 m -32.8638,-1132.049 C 8895.7461,5799.9436 5835.0766,2421.4796 4727.0498,2421.4796 c -1107.6931,0 -4168.52949,3378.464 -4298.31642,3522.4308 l -0.16682,0.1668 c -12.67842,14.1798 -311.45528,355.6629 -311.45528,753.8653 0,309.9538 20.51901,621.9096 20.85265,624.9124 0.66729,14.3466 7.8406,146.1354 81.07513,182.002 11.84431,5.8387 24.68955,8.8415 37.86843,8.8415 27.19186,0 57.55333,-12.178 90.41712,-36.2002 33.0306,-29.1938 3151.08669,-2783.2458 4379.72519,-2783.2458 1228.8054,0 4347.0282,2754.052 4378.2238,2781.9112 34.0315,25.0232 64.7266,37.5348 92.2522,37.5348 13.3457,0 25.8573,-3.0028 37.8684,-8.6747 73.0677,-35.6998 80.241,-167.6554 80.9083,-182.5025 0.1668,-2.3355 20.6858,-314.2912 20.6858,-624.2451 0,-398.536 -298.7768,-740.0191 -311.2884,-754.1989 m 28.5264,-2081.262 C 8250.1479,3173.5098 5861.1007,1211.6919 4727.2166,1211.6919 c -1134.5513,0 -3521.7635,1960.6502 -4326.34237,2650.4561 -4.83782,-162.8176 -9.34199,-262.0762 -9.34199,-407.0439 0,0 -19.68491,-239.7221 192.3449,-479.4443 C 2328.1602,1395.1953 4156.8548,621.97875 4212.9067,598.29013 c 545.3387,-230.54697 514.6436,-187.17345 514.1431,-1112.03048 0,0 24.1891,-1.50139 39.8703,0.16682 767.8782,69.56447 2832.6249,2073.42133 4054.4237,3428.00993 2.1687,2.3355 241.2236,278.9252 241.2236,570.6955 0.1668,136.4598 -4.0037,271.2514 -8.3411,377.6833 M 9021.3625,2731.934 C 8891.4088,2587.9672 5833.9088,-787.16038 4727.0498,-787.16038 c -1106.5254,0 -4164.35896,3375.12758 -4293.97907,3518.92748 l -0.16682,0.1669 c -12.67842,14.1798 -311.28846,355.3292 -311.28846,753.1979 0,309.6203 20.68583,621.2424 20.85266,624.2452 0.66728,14.3466 7.84059,145.9686 80.9083,181.8351 11.84431,5.8388 24.68955,8.6747 37.86843,8.6747 27.19186,0 57.38651,-12.1779 90.2503,-36.2002 33.19743,-29.1937 3148.08386,-2780.4098 4375.55466,-2780.4098 1227.6376,0 4342.6909,2751.2161 4373.8865,2779.0752 33.8647,25.0232 64.5598,37.368 92.0853,37.368 13.3457,0 25.8573,-2.836 37.8684,-8.6747 72.9009,-35.6997 80.241,-167.4885 80.7415,-182.3356 0.1668,-2.3355 20.6858,-313.9576 20.6858,-623.5779 0.1669,-397.8687 -298.2764,-739.0181 -310.9548,-753.1979"
   id="path6"
   style="clip-rule:evenodd;fill-rule:evenodd;stroke-width:1.66821253" />
</g>
</svg>