<svg id="svg" xmlns="http://www.w3.org/2000/svg"  width="400" height="400" viewBox="0, 0, 400,400" version="1.1"><g id="svgg"><path id="path0" d="M335.667 267.583 L 335.667 270.500 337.500 270.500 L 339.333 270.500 339.333 283.833 L 339.333 297.167 337.333 297.167 L 335.333 297.167 335.333 300.000 L 335.333 302.833 343.500 302.833 L 351.667 302.833 351.667 300.000 L 351.667 297.167 349.750 297.167 L 347.833 297.167 347.833 283.833 L 347.833 270.500 349.917 270.500 L 352.000 270.500 352.000 267.583 L 352.000 264.667 343.833 264.667 L 335.667 264.667 335.667 267.583 M-0.000 267.740 L 0.000 270.667 2.583 270.667 L 5.167 270.667 5.167 283.833 L 5.167 297.000 2.583 297.000 L 0.000 297.000 -0.000 300.008 L -0.000 303.017 12.958 302.953 C 24.177 302.897,26.051 302.853,26.917 302.622 C 27.467 302.475,28.189 302.285,28.522 302.199 C 29.252 302.012,32.091 300.600,32.441 300.249 C 32.578 300.112,32.752 300.000,32.828 300.000 C 33.251 300.000,36.833 296.433,36.833 296.012 C 36.833 295.942,36.983 295.749,37.167 295.583 C 37.350 295.417,37.502 295.200,37.504 295.099 C 37.506 294.999,37.654 294.729,37.833 294.500 C 38.013 294.271,38.161 293.988,38.163 293.872 C 38.165 293.755,38.354 293.363,38.583 293.000 C 38.812 292.637,39.000 292.256,39.000 292.154 C 39.000 292.051,39.107 291.731,39.239 291.442 C 39.480 290.911,39.850 289.577,40.263 287.750 C 40.638 286.088,40.569 280.736,40.152 279.083 C 39.966 278.350,39.757 277.487,39.686 277.167 C 39.472 276.192,37.876 272.838,37.625 272.835 C 37.556 272.834,37.500 272.755,37.500 272.660 C 37.500 272.081,34.728 269.213,33.250 268.264 C 32.700 267.911,32.047 267.482,31.798 267.311 C 31.550 267.140,31.262 267.000,31.157 267.000 C 31.053 267.000,30.766 266.856,30.520 266.681 C 29.944 266.270,28.318 265.683,27.250 265.500 C 26.792 265.421,26.042 265.265,25.583 265.153 C 24.980 265.006,21.341 264.931,12.375 264.882 L -0.000 264.814 -0.000 267.740 M41.000 267.667 L 41.000 270.500 43.667 270.500 L 46.333 270.500 46.333 283.833 L 46.333 297.167 44.000 297.167 L 41.667 297.167 41.667 300.000 L 41.667 302.833 50.667 302.833 L 59.667 302.833 59.667 300.000 L 59.667 297.167 57.333 297.167 L 55.000 297.167 55.000 291.917 L 55.000 286.667 62.417 286.667 L 69.833 286.667 69.833 291.917 L 69.833 297.167 66.917 297.167 L 64.000 297.167 64.000 300.000 L 64.000 302.833 73.917 302.833 L 83.833 302.833 83.833 300.000 L 83.833 297.167 81.500 297.167 L 79.167 297.167 79.167 283.833 L 79.167 270.500 81.500 270.500 L 83.833 270.500 83.833 267.667 L 83.833 264.833 73.917 264.833 L 64.000 264.833 64.000 267.667 L 64.000 270.500 66.917 270.500 L 69.833 270.500 69.833 275.500 L 69.833 280.500 62.417 280.500 L 55.000 280.500 55.000 275.500 L 55.000 270.500 57.333 270.500 L 59.667 270.500 59.667 267.667 L 59.667 264.833 50.333 264.833 L 41.000 264.833 41.000 267.667 M126.000 267.667 L 126.000 270.500 128.500 270.500 L 131.000 270.500 131.000 283.833 L 131.000 297.167 128.500 297.167 L 126.000 297.167 126.000 300.000 L 126.000 302.833 142.583 302.833 L 159.167 302.833 159.167 295.583 L 159.167 288.333 155.250 288.333 L 151.333 288.333 151.333 292.750 L 151.333 297.167 145.250 297.167 L 139.167 297.167 139.167 283.833 L 139.167 270.500 141.667 270.500 L 144.167 270.500 144.167 267.667 L 144.167 264.833 135.083 264.833 L 126.000 264.833 126.000 267.667 M161.833 267.667 L 161.833 270.500 164.333 270.500 L 166.833 270.500 166.833 283.833 L 166.833 297.167 164.333 297.167 L 161.833 297.167 161.833 300.000 L 161.833 302.833 178.333 302.833 L 194.833 302.833 194.833 295.583 L 194.833 288.333 190.917 288.333 L 187.000 288.333 187.000 292.750 L 187.000 297.167 181.000 297.167 L 175.000 297.167 175.000 283.833 L 175.000 270.500 177.500 270.500 L 180.000 270.500 180.000 267.667 L 180.000 264.833 170.917 264.833 L 161.833 264.833 161.833 267.667 M207.333 267.667 L 207.333 270.500 209.649 270.500 L 211.965 270.500 211.836 271.042 C 211.765 271.340,211.547 271.946,211.353 272.389 C 211.159 272.832,210.997 273.282,210.994 273.389 C 210.991 273.496,210.844 273.883,210.667 274.250 C 210.490 274.617,210.342 275.034,210.339 275.177 C 210.336 275.320,210.183 275.748,210.000 276.127 C 209.817 276.507,209.667 276.905,209.667 277.013 C 209.667 277.120,209.490 277.630,209.275 278.146 C 208.873 279.107,208.724 279.513,208.138 281.250 C 207.953 281.800,207.741 282.325,207.668 282.417 C 207.595 282.508,207.458 282.846,207.365 283.167 C 207.271 283.487,206.959 284.387,206.671 285.167 C 206.382 285.946,206.106 286.733,206.057 286.917 C 206.007 287.100,205.857 287.496,205.723 287.797 C 205.589 288.097,205.343 288.735,205.175 289.213 C 204.654 290.705,204.463 291.219,204.059 292.219 C 203.843 292.752,203.664 293.277,203.661 293.386 C 203.658 293.495,203.510 293.883,203.333 294.250 C 203.156 294.617,203.009 295.024,203.006 295.155 C 203.003 295.286,202.837 295.755,202.637 296.197 L 202.274 297.000 199.470 297.000 L 196.667 297.000 196.667 299.917 L 196.667 302.833 205.500 302.833 L 214.333 302.833 214.333 299.917 L 214.333 297.000 212.664 297.000 L 210.996 297.000 211.267 296.375 C 211.417 296.031,211.617 295.525,211.712 295.250 C 212.151 293.973,212.549 292.847,212.829 292.083 C 212.998 291.625,213.181 291.044,213.238 290.792 L 213.340 290.333 219.508 290.333 C 225.238 290.333,225.684 290.354,225.768 290.625 C 225.818 290.785,225.994 291.254,226.157 291.667 C 226.431 292.356,226.627 292.900,227.175 294.500 C 227.285 294.821,227.516 295.404,227.688 295.796 C 228.202 296.969,228.176 297.000,226.667 297.000 L 225.333 297.000 225.333 299.917 L 225.333 302.833 234.250 302.833 L 243.167 302.833 243.167 299.917 L 243.167 297.000 240.425 297.000 L 237.682 297.000 237.524 296.458 C 237.436 296.160,237.165 295.392,236.920 294.750 C 235.959 292.230,235.465 290.899,235.341 290.500 C 235.269 290.271,235.058 289.746,234.872 289.333 C 234.686 288.921,234.493 288.433,234.443 288.250 C 234.394 288.067,234.154 287.392,233.910 286.750 C 233.667 286.108,233.359 285.283,233.226 284.917 C 233.093 284.550,232.838 283.932,232.659 283.543 C 232.480 283.155,232.331 282.742,232.328 282.627 C 232.325 282.511,232.177 282.117,232.000 281.750 C 231.823 281.383,231.675 280.992,231.672 280.880 C 231.669 280.768,231.479 280.267,231.250 279.766 C 231.021 279.265,230.833 278.774,230.833 278.676 C 230.833 278.577,230.696 278.178,230.528 277.790 C 230.359 277.401,230.126 276.821,230.009 276.500 C 229.891 276.179,229.618 275.429,229.401 274.833 C 229.184 274.237,228.942 273.600,228.862 273.417 C 228.681 273.001,228.372 272.134,228.076 271.208 L 227.849 270.500 230.175 270.500 L 232.500 270.500 232.500 267.667 L 232.500 264.833 219.917 264.833 L 207.333 264.833 207.333 267.667 M245.667 267.667 L 245.667 270.500 248.000 270.500 L 250.333 270.500 250.333 283.833 L 250.333 297.167 248.250 297.167 L 246.167 297.167 246.167 300.000 L 246.167 302.833 254.917 302.833 L 263.667 302.833 263.667 299.917 L 263.667 297.000 261.333 297.000 L 259.000 297.000 259.000 287.228 L 259.000 277.455 259.333 277.879 C 259.517 278.112,259.667 278.384,259.667 278.485 C 259.667 278.585,259.723 278.667,259.792 278.668 C 259.860 278.669,260.215 279.138,260.579 279.710 C 260.943 280.282,261.289 280.787,261.349 280.833 C 261.408 280.879,261.804 281.442,262.229 282.083 C 262.653 282.725,263.319 283.710,263.709 284.273 C 265.520 286.891,266.167 287.872,266.167 288.000 C 266.167 288.076,266.224 288.164,266.294 288.194 C 266.433 288.255,267.667 289.951,267.667 290.082 C 267.667 290.126,267.992 290.595,268.389 291.123 C 268.786 291.651,269.161 292.196,269.222 292.333 C 269.283 292.471,269.596 292.921,269.916 293.333 C 270.236 293.746,270.566 294.236,270.649 294.424 C 270.731 294.611,270.919 294.864,271.066 294.986 C 271.213 295.108,271.333 295.298,271.333 295.408 C 271.333 295.518,271.521 295.785,271.750 296.000 C 271.979 296.215,272.167 296.479,272.167 296.587 C 272.167 296.694,272.317 296.917,272.500 297.083 C 272.683 297.249,272.833 297.455,272.833 297.542 C 272.833 297.628,273.171 298.142,273.583 298.684 C 273.996 299.227,274.333 299.714,274.333 299.768 C 274.333 299.821,274.671 300.308,275.083 300.851 C 275.496 301.393,275.833 301.877,275.833 301.925 C 275.833 301.974,275.997 302.235,276.198 302.507 L 276.563 303.000 281.448 303.000 L 286.333 303.000 286.333 286.750 L 286.333 270.500 289.167 270.500 L 292.000 270.500 292.000 267.667 L 292.000 264.833 282.917 264.833 L 273.833 264.833 273.833 267.667 L 273.833 270.500 276.083 270.500 L 278.333 270.500 278.333 280.417 C 278.333 285.871,278.301 290.333,278.261 290.333 C 278.221 290.333,278.019 290.033,277.813 289.667 C 277.607 289.300,277.377 289.000,277.303 289.000 C 277.228 289.000,277.167 288.926,277.167 288.835 C 277.167 288.744,276.829 288.177,276.417 287.574 C 276.004 286.972,275.667 286.450,275.667 286.414 C 275.667 286.285,274.593 284.748,274.465 284.694 C 274.393 284.664,274.333 284.538,274.333 284.415 C 274.333 284.291,274.237 284.091,274.119 283.970 C 273.884 283.728,272.833 282.189,272.833 282.086 C 272.833 282.050,272.496 281.528,272.083 280.926 C 271.671 280.323,271.333 279.762,271.333 279.679 C 271.333 279.596,271.270 279.503,271.192 279.472 C 271.070 279.425,270.746 278.972,269.917 277.693 C 269.516 277.075,268.569 275.601,268.413 275.354 C 267.882 274.509,267.274 273.586,267.144 273.430 C 266.831 273.052,266.167 271.979,266.167 271.852 C 266.167 271.778,266.017 271.583,265.833 271.417 C 265.650 271.251,265.500 271.054,265.500 270.979 C 265.500 270.843,264.507 269.324,264.315 269.167 C 264.259 269.121,264.092 268.847,263.944 268.557 C 263.796 268.268,263.579 267.928,263.462 267.800 C 263.345 267.673,263.160 267.422,263.050 267.243 C 262.940 267.063,262.565 266.449,262.216 265.878 L 261.583 264.839 253.625 264.836 L 245.667 264.833 245.667 267.667 M294.333 267.741 L 294.333 270.667 296.944 270.667 L 299.555 270.667 299.444 280.444 C 299.383 285.822,299.333 291.709,299.333 293.527 L 299.333 296.833 296.833 296.833 L 294.333 296.833 294.333 299.812 L 294.333 302.791 305.875 302.869 C 320.225 302.967,321.799 302.855,324.420 301.552 C 328.054 299.746,330.483 297.507,332.186 294.391 C 333.103 292.713,333.165 292.588,333.166 292.391 C 333.166 292.285,333.307 291.910,333.479 291.557 C 333.765 290.972,333.978 290.259,334.346 288.667 C 335.049 285.627,334.996 281.024,334.227 278.167 C 334.091 277.662,333.922 276.987,333.851 276.667 C 333.685 275.917,332.483 273.408,331.797 272.380 C 330.993 271.174,329.153 269.167,328.853 269.167 C 328.750 269.167,328.667 269.095,328.667 269.008 C 328.667 268.595,325.356 266.654,323.500 265.979 C 320.792 264.994,320.129 264.951,306.708 264.881 L 294.333 264.816 294.333 267.741 M364.333 267.750 L 364.333 270.667 366.654 270.667 L 368.975 270.667 368.645 271.625 C 368.464 272.152,368.169 272.901,367.991 273.290 C 367.813 273.678,367.664 274.091,367.661 274.207 C 367.658 274.322,367.510 274.717,367.333 275.083 C 367.156 275.450,367.009 275.842,367.006 275.953 C 367.003 276.065,366.813 276.567,366.583 277.068 C 366.354 277.569,366.167 278.059,366.167 278.158 C 366.167 278.256,366.024 278.655,365.850 279.043 C 365.676 279.432,365.493 279.900,365.443 280.083 C 365.394 280.267,365.166 280.904,364.938 281.500 C 363.988 283.979,363.616 284.961,363.323 285.750 C 363.154 286.208,362.831 287.071,362.607 287.667 C 362.382 288.262,362.107 289.012,361.996 289.333 C 361.884 289.654,361.614 290.312,361.396 290.795 C 361.178 291.279,361.000 291.765,361.000 291.875 C 361.000 292.063,360.718 292.847,359.995 294.667 C 359.832 295.079,359.572 295.773,359.418 296.208 L 359.139 297.000 356.403 297.000 L 353.667 297.000 353.667 300.000 L 353.667 303.000 362.500 303.000 L 371.333 303.000 371.333 300.000 L 371.333 297.000 369.683 297.000 L 368.033 297.000 368.257 296.292 C 368.380 295.902,368.686 295.021,368.936 294.333 C 369.186 293.646,369.590 292.521,369.833 291.833 L 370.276 290.583 376.445 290.540 L 382.614 290.496 382.869 291.123 C 383.010 291.468,383.291 292.200,383.494 292.750 C 383.697 293.300,384.044 294.172,384.265 294.688 C 384.486 295.203,384.667 295.701,384.667 295.793 C 384.667 295.886,384.778 296.177,384.915 296.439 L 385.163 296.917 383.665 296.965 L 382.167 297.013 382.167 300.006 L 382.167 303.000 391.083 303.000 L 400.000 303.000 400.000 300.000 L 400.000 297.000 397.364 297.000 L 394.728 297.000 394.448 296.411 C 394.293 296.087,394.167 295.714,394.167 295.581 C 394.167 295.449,393.987 294.945,393.768 294.462 C 393.248 293.317,392.667 291.790,392.667 291.570 C 392.667 291.474,392.479 291.007,392.250 290.532 C 392.021 290.057,391.833 289.589,391.833 289.493 C 391.833 289.396,391.683 289.007,391.500 288.627 C 391.317 288.248,391.167 287.859,391.167 287.764 C 391.167 287.559,390.614 286.117,390.059 284.870 C 389.843 284.387,389.667 283.858,389.667 283.695 C 389.667 283.533,389.601 283.329,389.520 283.242 C 389.440 283.155,389.223 282.671,389.039 282.167 C 388.854 281.662,388.463 280.612,388.170 279.833 C 387.877 279.054,387.572 278.229,387.493 278.000 C 387.415 277.771,387.150 277.058,386.906 276.417 C 386.662 275.775,386.334 274.912,386.177 274.500 C 386.021 274.087,385.767 273.460,385.613 273.105 C 385.459 272.750,385.331 272.375,385.328 272.271 C 385.325 272.168,385.180 271.783,385.007 271.417 L 384.691 270.750 387.096 270.704 L 389.500 270.658 389.500 267.746 L 389.500 264.833 376.917 264.833 L 364.333 264.833 364.333 267.750 M102.083 265.163 C 101.717 265.229,100.783 265.375,100.010 265.488 C 99.236 265.600,98.396 265.798,98.143 265.929 C 97.890 266.060,97.527 266.167,97.336 266.167 C 97.145 266.167,96.619 266.354,96.167 266.583 C 95.714 266.813,95.248 267.002,95.131 267.004 C 95.013 267.006,94.729 267.154,94.500 267.333 C 94.271 267.513,93.978 267.661,93.849 267.663 C 93.720 267.665,93.369 267.854,93.069 268.083 C 92.768 268.313,92.454 268.500,92.370 268.500 C 92.287 268.500,92.083 268.650,91.917 268.833 C 91.751 269.017,91.539 269.167,91.446 269.167 C 91.235 269.167,87.500 272.950,87.500 273.163 C 87.500 273.248,87.307 273.602,87.072 273.949 C 84.983 277.028,83.666 283.828,84.497 287.250 C 84.586 287.617,84.661 288.140,84.663 288.412 C 84.670 289.320,85.760 292.564,86.428 293.667 C 86.622 293.987,86.812 294.325,86.849 294.417 C 87.038 294.879,88.048 296.333,88.181 296.333 C 88.265 296.333,88.333 296.421,88.333 296.528 C 88.333 296.736,88.457 296.887,89.478 297.917 C 90.800 299.250,91.752 299.990,93.250 300.853 C 94.156 301.375,95.779 302.167,95.943 302.167 C 96.032 302.167,96.399 302.309,96.760 302.483 C 100.410 304.244,109.381 304.280,114.000 302.552 C 115.826 301.870,117.667 300.987,117.667 300.795 C 117.667 300.725,117.736 300.667,117.822 300.667 C 118.718 300.667,123.204 296.410,123.574 295.208 C 123.637 295.002,123.745 294.833,123.814 294.833 C 124.104 294.833,125.283 292.127,125.955 289.917 C 126.613 287.755,126.654 281.389,126.024 279.250 C 125.303 276.804,124.568 275.031,123.861 274.039 C 123.663 273.760,123.500 273.477,123.500 273.409 C 123.500 273.225,122.125 271.651,121.039 270.591 C 119.633 269.219,119.572 269.167,119.375 269.167 C 119.276 269.167,119.169 269.106,119.139 269.032 C 119.057 268.833,117.335 267.752,116.708 267.506 C 116.410 267.389,116.167 267.227,116.167 267.146 C 116.167 267.066,116.045 267.000,115.896 267.000 C 115.747 267.000,115.203 266.822,114.688 266.604 C 111.617 265.308,105.279 264.583,102.083 265.163 M21.931 271.092 C 22.690 271.329,23.401 271.630,23.509 271.761 C 23.618 271.893,23.809 272.000,23.932 272.000 C 24.196 272.000,25.689 272.989,25.883 273.292 C 25.957 273.406,26.080 273.500,26.157 273.500 C 26.467 273.500,28.667 275.927,28.667 276.269 C 28.667 276.333,28.854 276.631,29.083 276.931 C 29.313 277.232,29.500 277.551,29.500 277.640 C 29.500 277.729,29.643 278.090,29.819 278.443 C 31.147 281.115,31.146 286.396,29.816 289.920 C 29.642 290.380,29.500 290.823,29.500 290.904 C 29.500 290.985,29.312 291.298,29.083 291.598 C 28.854 291.899,28.667 292.222,28.667 292.316 C 28.667 292.572,26.359 294.833,26.098 294.833 C 25.975 294.833,25.787 294.939,25.680 295.067 C 25.459 295.334,23.984 296.057,22.750 296.504 C 21.209 297.063,20.173 297.167,16.158 297.167 L 12.167 297.167 12.167 283.807 L 12.167 270.447 16.358 270.554 C 20.228 270.654,20.656 270.695,21.931 271.092 M316.255 271.072 C 319.208 272.115,323.500 275.514,323.500 276.809 C 323.500 276.903,323.650 277.236,323.834 277.548 C 325.515 280.396,325.559 287.948,323.910 290.583 C 323.795 290.767,323.646 291.103,323.577 291.330 C 323.400 291.921,321.760 293.926,321.167 294.276 C 320.892 294.439,320.667 294.631,320.667 294.703 C 320.667 294.775,320.560 294.833,320.429 294.833 C 320.298 294.833,320.076 294.948,319.936 295.088 C 318.537 296.486,315.467 297.167,310.557 297.167 L 306.500 297.167 306.500 283.807 L 306.500 270.447 310.797 270.554 C 314.785 270.654,315.177 270.691,316.255 271.072 M108.500 271.000 C 109.002 271.183,109.537 271.333,109.690 271.333 C 110.859 271.333,115.500 275.141,115.500 276.100 C 115.500 276.154,115.650 276.388,115.833 276.621 C 116.017 276.854,116.167 277.167,116.167 277.317 C 116.167 277.467,116.354 277.865,116.583 278.202 C 116.813 278.540,117.001 278.988,117.002 279.199 C 117.003 279.411,117.153 280.059,117.335 280.640 C 117.819 282.183,117.819 286.984,117.335 288.527 C 117.153 289.108,117.002 289.733,117.000 289.917 C 116.998 290.100,116.784 290.667,116.526 291.177 C 116.267 291.687,116.007 292.249,115.949 292.427 C 115.843 292.749,115.499 293.342,115.325 293.500 C 115.275 293.546,115.051 293.846,114.828 294.167 C 114.096 295.219,111.930 297.157,111.479 297.163 C 111.330 297.165,111.122 297.270,111.017 297.396 C 109.543 299.172,101.826 299.212,99.338 297.457 C 99.111 297.297,98.841 297.167,98.737 297.167 C 98.634 297.167,98.346 296.979,98.099 296.750 C 97.852 296.521,97.603 296.333,97.546 296.333 C 97.416 296.333,95.667 294.549,95.667 294.417 C 95.667 294.363,95.486 294.124,95.265 293.886 C 94.894 293.485,94.396 292.563,93.663 290.917 C 92.663 288.671,92.294 283.120,92.993 280.820 C 93.180 280.203,93.332 279.560,93.331 279.391 C 93.329 279.222,93.509 278.708,93.730 278.250 C 93.952 277.792,94.218 277.229,94.323 277.000 C 94.996 275.525,96.487 273.730,97.750 272.871 C 98.117 272.622,98.454 272.377,98.500 272.327 C 98.657 272.156,100.415 271.384,101.417 271.046 C 102.896 270.548,107.186 270.520,108.500 271.000 M219.937 275.208 C 220.039 275.506,220.313 276.237,220.545 276.833 C 220.778 277.429,221.062 278.179,221.176 278.500 C 221.290 278.821,221.520 279.383,221.687 279.750 C 221.966 280.365,222.085 280.675,222.671 282.333 C 222.784 282.654,222.989 283.179,223.126 283.500 C 223.263 283.821,223.435 284.290,223.509 284.542 L 223.643 285.000 219.409 285.000 L 215.174 285.000 215.358 284.542 C 215.459 284.290,215.674 283.783,215.835 283.417 C 215.997 283.050,216.331 282.262,216.579 281.667 C 216.827 281.071,217.173 280.265,217.348 279.877 C 217.523 279.488,217.666 279.113,217.666 279.043 C 217.666 278.974,217.808 278.617,217.981 278.250 C 218.499 277.154,219.106 275.785,219.330 275.208 C 219.446 274.910,219.588 274.667,219.646 274.667 C 219.704 274.667,219.835 274.910,219.937 275.208 M377.175 276.000 C 377.438 276.819,377.994 278.289,378.358 279.123 C 378.528 279.512,378.667 279.917,378.667 280.023 C 378.667 280.130,378.842 280.599,379.056 281.067 C 379.420 281.862,379.534 282.153,380.025 283.542 C 380.199 284.034,380.475 284.722,380.627 285.042 C 380.660 285.110,378.726 285.167,376.329 285.167 L 371.972 285.167 372.402 284.396 C 372.639 283.972,372.833 283.545,372.833 283.448 C 372.833 283.351,372.971 282.967,373.139 282.594 C 373.611 281.547,374.258 280.025,374.739 278.833 C 374.980 278.237,375.287 277.538,375.422 277.278 C 375.556 277.019,375.667 276.726,375.667 276.628 C 375.667 276.530,375.870 276.048,376.119 275.557 C 376.620 274.567,376.731 274.614,377.175 276.000 " stroke="none" fill="#040404" fill-rule="evenodd"></path><path id="path1" d="M136.167 97.833 L 136.167 99.500 200.667 99.500 L 265.167 99.500 265.167 97.833 L 265.167 96.167 200.667 96.167 L 136.167 96.167 136.167 97.833 M136.167 107.000 L 136.167 108.667 200.667 108.667 L 265.167 108.667 265.167 107.000 L 265.167 105.333 200.667 105.333 L 136.167 105.333 136.167 107.000 M136.000 116.222 L 136.000 117.778 184.375 117.889 C 210.981 117.950,240.044 118.000,248.958 118.000 L 265.167 118.000 265.167 116.333 L 265.167 114.667 200.583 114.667 L 136.000 114.667 136.000 116.222 M136.000 124.750 L 136.000 126.500 200.583 126.500 L 265.167 126.500 265.167 124.750 L 265.167 123.000 200.583 123.000 L 136.000 123.000 136.000 124.750 M136.000 133.583 L 136.000 135.167 105.500 135.167 C 88.725 135.167,74.999 135.223,74.997 135.292 C 74.996 135.360,75.352 136.110,75.788 136.958 L 76.581 138.500 199.249 138.499 L 321.917 138.498 322.242 137.957 C 323.013 136.673,324.000 134.957,324.000 134.897 C 324.000 134.862,310.650 134.833,294.333 134.833 L 264.667 134.833 264.667 133.417 L 264.667 132.000 200.333 132.000 L 136.000 132.000 136.000 133.583 M136.000 142.167 L 136.000 143.500 107.750 143.500 C 90.209 143.500,79.500 143.559,79.500 143.657 C 79.500 143.743,79.573 143.859,79.663 143.914 C 79.752 143.969,80.146 144.686,80.538 145.507 L 81.250 146.998 199.355 146.999 L 317.461 147.000 317.909 146.042 C 318.155 145.515,318.464 144.884,318.595 144.641 C 318.726 144.398,318.833 144.116,318.833 144.016 C 318.833 143.884,311.272 143.833,291.750 143.833 L 264.667 143.833 264.667 142.333 L 264.667 140.833 200.333 140.833 L 136.000 140.833 136.000 142.167 M136.111 150.111 C 136.050 150.172,136.000 150.735,136.000 151.361 L 136.000 152.500 110.000 152.500 C 95.700 152.500,84.000 152.550,84.000 152.612 C 84.000 152.673,84.103 152.842,84.230 152.987 C 84.356 153.132,84.728 153.752,85.055 154.365 C 85.383 154.978,85.748 155.635,85.866 155.823 L 86.080 156.167 199.397 156.125 L 312.713 156.083 313.356 155.025 C 313.710 154.443,314.000 153.930,314.000 153.885 C 314.000 153.839,314.150 153.612,314.333 153.379 C 314.517 153.146,314.667 152.890,314.667 152.811 C 314.667 152.730,303.627 152.667,289.674 152.667 L 264.681 152.667 264.632 151.375 L 264.583 150.083 200.403 150.041 C 165.104 150.018,136.173 150.050,136.111 150.111 M136.000 160.333 L 136.000 161.333 112.486 161.333 C 99.553 161.333,88.999 161.390,89.032 161.458 C 90.208 163.933,90.500 164.600,90.500 164.810 C 90.500 165.038,109.142 165.049,226.473 164.889 L 308.001 164.778 308.751 163.279 C 309.163 162.454,309.500 161.716,309.500 161.640 C 309.500 161.563,299.412 161.500,287.083 161.500 L 264.667 161.500 264.667 160.417 L 264.667 159.333 200.333 159.333 L 136.000 159.333 136.000 160.333 M136.167 169.499 L 136.167 170.665 115.001 170.708 L 93.835 170.750 94.719 172.500 L 95.602 174.250 199.463 174.292 L 303.324 174.334 304.079 172.751 C 304.494 171.880,304.833 171.093,304.833 171.001 C 304.833 170.890,298.079 170.833,284.750 170.833 L 264.667 170.833 264.667 169.583 L 264.667 168.333 200.417 168.333 L 136.167 168.333 136.167 169.499 M136.000 178.249 L 136.000 179.499 117.169 179.541 L 98.338 179.583 98.565 180.000 C 98.690 180.229,98.979 180.757,99.206 181.173 C 99.434 181.589,99.700 182.077,99.798 182.256 C 99.896 182.436,100.016 182.715,100.066 182.875 C 100.152 183.153,104.990 183.165,199.432 183.125 L 298.708 183.083 299.369 181.750 C 299.733 181.017,300.099 180.286,300.182 180.127 C 300.265 179.968,300.333 179.762,300.333 179.669 C 300.333 179.556,294.437 179.500,282.500 179.500 L 264.667 179.500 264.667 178.250 L 264.667 177.000 200.333 177.000 L 136.000 177.000 136.000 178.249 M136.000 187.167 L 136.000 188.500 119.500 188.500 C 110.425 188.500,103.000 188.521,103.000 188.546 C 103.000 188.572,103.296 189.172,103.658 189.880 L 104.316 191.167 74.019 191.167 C 57.356 191.167,43.672 191.217,43.610 191.279 C 43.548 191.341,43.753 191.547,44.065 191.737 C 44.547 192.031,45.181 192.436,46.693 193.417 C 47.792 194.129,48.429 194.565,48.500 194.653 C 48.908 195.160,49.482 195.167,92.758 195.167 L 136.000 195.167 136.000 196.583 L 136.000 198.000 122.167 198.000 C 108.122 198.000,107.898 198.009,108.441 198.552 C 108.531 198.642,109.330 200.500,109.333 200.625 C 109.333 200.648,97.848 200.667,83.811 200.667 C 55.641 200.667,57.826 200.586,59.583 201.565 C 59.858 201.718,60.308 201.989,60.583 202.167 C 61.127 202.519,61.962 203.020,62.750 203.466 C 63.025 203.622,63.275 203.806,63.306 203.875 C 63.336 203.944,79.705 204.000,99.681 204.000 L 136.000 204.000 136.000 205.500 L 136.000 207.000 124.587 207.000 L 113.175 207.000 113.278 207.542 C 113.335 207.840,113.522 208.365,113.694 208.708 L 114.007 209.333 93.045 209.337 L 72.083 209.341 72.500 209.676 C 72.729 209.860,73.179 210.161,73.500 210.344 C 73.821 210.526,74.308 210.822,74.583 211.000 C 74.858 211.178,75.383 211.486,75.750 211.684 C 76.117 211.883,76.454 212.097,76.500 212.160 C 77.000 212.855,76.024 212.833,106.859 212.833 L 136.000 212.833 136.000 214.167 L 136.000 215.500 126.833 215.500 C 116.759 215.500,117.250 215.446,117.981 216.474 C 118.154 216.718,118.412 217.198,118.555 217.541 L 118.816 218.165 102.565 218.208 L 86.314 218.250 87.443 219.000 C 88.064 219.412,88.649 219.780,88.744 219.818 C 88.839 219.855,89.142 220.042,89.417 220.235 C 89.692 220.427,90.037 220.659,90.183 220.750 C 90.330 220.842,90.760 221.123,91.138 221.375 L 91.827 221.833 113.913 221.833 L 136.000 221.833 136.000 223.250 L 136.000 224.667 129.083 224.667 C 125.279 224.667,122.168 224.723,122.170 224.792 C 122.172 224.860,122.321 225.104,122.500 225.333 C 122.679 225.563,122.828 225.839,122.830 225.949 C 122.832 226.058,122.991 226.414,123.183 226.740 L 123.533 227.333 112.266 227.333 C 106.070 227.333,101.000 227.390,101.000 227.460 C 101.000 227.573,102.331 228.477,102.750 228.648 C 102.842 228.686,102.954 228.769,103.000 228.833 C 103.046 228.898,103.413 229.168,103.817 229.433 C 104.220 229.699,104.663 229.992,104.801 230.083 C 104.939 230.175,105.432 230.494,105.897 230.792 L 106.742 231.333 121.371 231.333 L 136.000 231.333 136.000 232.583 L 136.000 233.833 131.583 233.833 C 129.154 233.833,127.167 233.877,127.167 233.931 C 127.167 233.985,127.429 234.626,127.750 235.356 C 128.071 236.086,128.333 236.717,128.333 236.758 C 128.333 236.799,125.521 236.833,122.083 236.833 C 115.921 236.833,115.386 236.881,116.292 237.346 C 116.544 237.475,117.223 237.901,117.802 238.291 C 118.381 238.681,118.885 239.000,118.921 239.000 C 118.958 239.000,119.343 239.225,119.777 239.500 L 120.565 240.000 128.283 240.000 L 136.000 240.000 136.000 241.333 L 136.000 242.667 133.833 242.667 C 132.642 242.667,131.667 242.701,131.667 242.742 C 131.667 242.784,131.967 243.387,132.333 244.083 C 132.700 244.780,133.000 245.383,133.000 245.425 C 133.000 245.466,132.194 245.500,131.208 245.501 L 129.417 245.502 129.917 245.912 C 130.192 246.137,130.476 246.324,130.548 246.327 C 130.621 246.331,130.883 246.474,131.132 246.645 C 132.086 247.304,133.994 248.500,134.089 248.500 C 134.144 248.500,134.435 248.688,134.735 248.917 L 135.281 249.333 153.099 249.339 C 182.047 249.349,266.357 248.824,266.833 248.630 C 267.063 248.537,267.362 248.394,267.500 248.311 C 267.637 248.228,267.938 248.066,268.167 247.951 C 268.396 247.836,269.019 247.481,269.552 247.163 C 270.085 246.844,270.677 246.496,270.867 246.390 C 271.852 245.838,271.581 245.753,268.575 245.667 L 265.661 245.583 266.247 244.694 C 266.570 244.205,266.833 243.745,266.833 243.673 C 266.833 243.600,266.946 243.447,267.083 243.333 C 267.669 242.847,267.377 242.667,266.000 242.667 L 264.667 242.667 264.667 241.417 L 264.667 240.167 272.730 240.167 C 279.693 240.167,280.821 240.133,281.000 239.917 C 281.114 239.779,281.270 239.667,281.345 239.667 C 281.539 239.667,282.908 238.729,283.163 238.421 C 283.279 238.281,283.433 238.167,283.505 238.167 C 283.578 238.167,283.943 237.966,284.318 237.720 C 285.671 236.835,285.660 236.833,277.595 236.833 L 270.190 236.833 270.637 236.067 C 270.882 235.646,271.212 235.102,271.369 234.859 C 272.100 233.730,272.406 233.833,268.339 233.833 L 264.667 233.833 264.667 232.167 L 264.667 230.500 280.078 230.500 L 295.490 230.500 296.120 230.139 C 296.777 229.762,297.406 229.415,299.083 228.505 C 299.633 228.206,300.421 227.764,300.833 227.523 L 301.583 227.083 288.537 227.000 L 275.490 226.917 276.078 225.750 C 276.401 225.108,276.666 224.490,276.666 224.375 C 276.667 224.212,275.351 224.167,270.643 224.167 L 264.619 224.167 264.726 223.142 C 264.785 222.579,264.833 221.941,264.833 221.726 L 264.833 221.333 287.738 221.333 C 305.833 221.333,310.689 221.290,310.863 221.125 C 311.106 220.895,312.809 219.833,312.935 219.833 C 312.978 219.833,313.105 219.757,313.215 219.664 C 313.326 219.571,313.848 219.218,314.375 218.879 C 314.902 218.540,315.333 218.203,315.333 218.131 C 315.333 218.059,307.421 218.000,297.750 218.000 C 287.774 218.000,280.167 217.937,280.167 217.854 C 280.167 217.773,280.276 217.617,280.410 217.505 C 280.544 217.394,280.704 217.141,280.766 216.943 C 280.828 216.745,281.019 216.404,281.190 216.186 C 281.360 215.967,281.500 215.723,281.500 215.644 C 281.500 215.565,277.712 215.500,273.083 215.500 L 264.667 215.500 264.667 214.167 L 264.667 212.833 294.407 212.833 C 314.054 212.833,324.182 212.777,324.250 212.667 C 324.307 212.575,324.480 212.498,324.635 212.496 C 324.790 212.494,325.104 212.346,325.333 212.167 C 325.563 211.987,325.855 211.839,325.984 211.837 C 326.113 211.835,326.464 211.646,326.765 211.417 C 327.065 211.188,327.374 211.000,327.451 211.000 C 327.731 211.000,329.396 210.062,329.461 209.867 C 329.513 209.712,324.523 209.667,307.188 209.667 L 284.849 209.667 285.074 209.208 C 285.198 208.956,285.457 208.440,285.650 208.061 C 285.842 207.681,286.000 207.213,286.000 207.019 L 286.000 206.667 275.309 206.667 L 264.618 206.667 264.725 205.542 C 264.783 204.923,264.831 204.257,264.832 204.062 L 264.833 203.708 301.632 203.583 L 338.430 203.459 339.090 203.067 C 339.453 202.851,340.050 202.513,340.417 202.315 C 340.783 202.117,341.121 201.900,341.167 201.833 C 341.212 201.766,341.555 201.557,341.928 201.368 C 343.754 200.442,345.462 200.500,316.187 200.500 C 301.418 200.500,289.333 200.460,289.333 200.411 C 289.333 200.300,289.871 199.447,290.013 199.333 C 290.070 199.287,290.316 198.931,290.561 198.542 L 291.004 197.833 277.835 197.833 L 264.667 197.833 264.667 196.500 L 264.667 195.167 308.481 195.167 L 352.296 195.167 353.190 194.559 C 353.681 194.225,354.218 193.813,354.381 193.643 C 354.545 193.473,354.745 193.333,354.826 193.333 C 354.906 193.333,355.147 193.185,355.361 193.003 C 355.575 192.822,355.938 192.524,356.167 192.342 C 356.583 192.012,356.544 192.011,325.214 192.006 L 293.845 192.000 294.157 191.273 C 294.328 190.874,294.663 190.135,294.901 189.632 C 295.139 189.129,295.333 188.669,295.333 188.609 C 295.333 188.549,288.433 188.500,280.000 188.500 L 264.667 188.500 264.667 187.167 L 264.667 185.833 200.333 185.833 L 136.000 185.833 136.000 187.167 " stroke="none" fill="#f86107" fill-rule="evenodd"></path></g></svg>