<svg id="svg" xmlns="http://www.w3.org/2000/svg"  width="400" height="400" viewBox="0, 0, 400,400"><g id="svgg"><path id="path0" d="M10.545 94.349 C 15.277 109.972,17.179 117.028,19.456 127.397 C 31.591 182.667,29.019 247.845,12.687 298.897 C 9.942 307.480,9.639 307.272,18.919 303.183 C 37.161 295.146,70.210 283.314,80.479 281.145 C 81.610 280.906,83.353 280.402,84.354 280.025 C 88.180 278.583,116.726 272.500,128.902 270.532 C 206.325 258.021,293.221 267.799,364.384 297.030 C 367.586 298.345,371.747 300.147,373.630 301.034 C 387.566 307.596,386.463 307.787,383.840 299.265 C 363.609 233.523,364.124 162.452,385.260 103.425 C 386.676 99.469,388.131 95.667,388.494 94.976 C 389.616 92.832,388.814 93.002,379.719 96.830 C 368.218 101.672,360.228 104.777,351.370 107.848 C 347.414 109.220,342.945 110.772,341.438 111.297 C 243.202 145.561,110.713 139.296,16.884 95.951 C 9.911 92.730,10.066 92.769,10.545 94.349 M26.027 105.563 C 33.701 109.106,58.175 117.584,72.945 121.815 C 102.039 130.149,128.405 135.075,161.644 138.384 C 192.178 141.425,243.037 139.003,277.740 132.855 C 310.256 127.095,352.762 115.331,371.724 106.844 C 376.262 104.813,379.464 104.483,378.432 106.153 C 376.782 108.822,369.952 137.056,368.156 148.630 C 363.947 175.750,362.467 206.903,364.431 227.055 C 366.901 252.407,369.708 268.995,374.635 287.361 C 377.088 296.506,377.233 296.360,368.925 293.103 C 269.499 254.126,166.353 248.934,70.205 278.066 C 50.547 284.022,40.623 287.400,28.752 292.173 C 20.456 295.509,20.243 295.394,22.227 288.652 C 34.441 247.148,38.080 196.649,31.823 155.479 C 29.081 137.437,25.934 122.100,22.617 110.619 C 20.500 103.288,20.642 103.076,26.027 105.563 M56.849 139.467 C 56.849 139.849,57.434 144.104,59.567 159.247 C 63.353 186.122,62.183 229.701,57.158 248.993 C 55.803 254.194,55.853 255.732,57.363 255.282 C 153.149 226.713,253.368 227.002,334.224 256.080 C 344.825 259.892,344.075 260.232,343.502 251.884 C 342.886 242.909,344.073 243.838,324.658 237.129 C 257.720 213.998,157.786 211.362,87.343 230.868 C 79.250 233.109,79.299 233.135,79.937 226.884 C 80.907 217.393,80.409 177.278,79.208 168.151 C 78.613 163.630,77.811 157.466,77.425 154.452 C 76.080 143.944,77.101 145.107,66.066 141.508 C 58.485 139.036,56.849 138.673,56.849 139.467 M197.603 171.901 L 190.068 172.260 190.068 188.699 L 190.068 205.137 199.315 205.347 C 215.004 205.702,220.590 201.151,220.533 188.061 C 220.482 176.312,213.169 171.158,197.603 171.901 M166.098 173.969 C 165.867 174.344,165.894 179.583,166.159 185.613 C 166.444 192.096,166.386 196.575,166.017 196.575 C 165.674 196.575,160.778 191.952,155.137 186.301 L 144.880 176.027 140.974 176.027 C 135.936 176.027,135.952 175.984,137.279 186.187 C 137.899 190.959,138.781 198.099,139.238 202.055 L 140.068 209.247 143.417 209.459 C 148.244 209.766,148.283 209.647,146.920 198.650 C 146.261 193.332,145.937 188.766,146.200 188.503 C 146.463 188.240,150.690 192.261,155.594 197.437 L 164.510 206.849 169.201 206.849 C 175.193 206.849,174.854 208.117,173.873 189.401 L 173.028 173.288 169.773 173.288 C 167.984 173.288,166.330 173.594,166.098 173.969 M244.359 174.655 C 228.714 179.365,229.034 204.033,244.795 208.297 C 257.084 211.620,266.121 204.461,266.074 191.438 C 266.026 178.355,256.506 170.997,244.359 174.655 M208.219 178.951 C 212.178 180.912,214.255 189.539,212.044 194.832 C 210.521 198.475,208.495 199.411,202.641 199.175 L 197.603 198.973 197.411 189.417 C 197.306 184.161,197.373 179.460,197.561 178.971 C 198.008 177.806,205.878 177.791,208.219 178.951 M282.192 178.890 C 282.192 180.194,279.248 200.263,278.318 205.299 C 276.964 212.628,276.733 212.081,281.531 212.912 C 283.590 213.268,288.202 214.248,291.781 215.089 C 301.090 217.277,300.854 217.310,301.574 213.738 C 302.331 209.983,301.712 209.406,295.707 208.269 C 293.359 207.824,290.398 207.132,289.128 206.731 L 286.817 206.002 287.259 202.487 C 287.503 200.554,288.008 196.815,288.382 194.178 C 289.983 182.890,290.040 179.453,288.626 179.445 C 287.913 179.440,286.173 179.246,284.760 179.012 C 283.348 178.779,282.192 178.724,282.192 178.890 M256.114 181.804 C 261.780 186.932,259.363 200.729,252.464 202.634 C 241.093 205.774,234.985 190.355,244.344 182.138 C 247.232 179.602,253.485 179.425,256.114 181.804 M102.744 181.809 C 98.486 182.711,98.552 182.600,97.289 191.096 C 96.420 196.940,94.373 205.830,92.423 212.230 C 90.599 218.214,90.648 218.533,93.322 218.088 C 98.503 217.226,98.681 217.119,99.993 214.058 C 101.078 211.526,101.656 210.979,103.555 210.683 C 104.802 210.489,107.963 209.990,110.581 209.574 C 115.324 208.819,117.713 209.789,117.793 212.500 C 117.824 213.547,126.712 212.653,126.712 211.603 C 126.712 211.302,125.500 209.231,124.019 207.000 C 122.537 204.770,118.795 198.507,115.702 193.082 C 112.609 187.657,109.613 182.680,109.043 182.021 C 107.893 180.690,108.005 180.694,102.744 181.809 M320.930 189.142 C 320.730 190.028,319.934 195.377,319.162 201.027 C 318.390 206.678,317.299 213.281,316.738 215.701 C 315.606 220.585,315.646 220.673,319.521 221.772 C 321.027 222.199,325.497 223.554,329.452 224.783 C 333.408 226.012,337.076 227.135,337.604 227.278 C 338.376 227.487,338.480 226.833,338.136 223.924 C 337.605 219.441,337.685 219.517,331.482 217.699 C 325.374 215.909,324.428 215.285,324.975 213.404 C 325.562 211.387,328.767 192.437,328.767 190.985 C 328.767 188.296,321.507 186.589,320.930 189.142 M108.843 197.586 C 112.873 203.967,112.852 204.022,105.893 205.147 C 102.379 205.716,102.039 204.997,103.187 199.429 C 104.814 191.540,104.988 191.483,108.843 197.586 " stroke="none" fill-rule="evenodd"></path></g></svg>