<svg id="svg" version="1.1" xmlns="http://www.w3.org/2000/svg"  width="400" height="400" viewBox="0, 0, 400,400"><g id="svgg"><path id="path0" d="M144.948 160.627 L 144.948 204.181 168.859 204.176 C 196.063 204.169,193.380 204.356,193.380 202.474 C 193.380 201.795,193.458 201.192,193.554 201.132 C 193.655 201.070,193.728 200.118,193.728 198.868 C 193.728 197.617,193.801 196.665,193.902 196.603 C 194.000 196.542,194.077 195.712,194.077 194.711 C 194.077 193.730,194.150 192.852,194.240 192.761 C 194.330 192.670,194.428 192.243,194.458 191.812 L 194.512 191.028 197.213 191.028 L 199.913 191.028 199.963 192.855 C 199.991 193.860,200.089 194.758,200.181 194.850 C 200.273 194.942,200.348 195.977,200.348 197.150 C 200.348 198.384,200.422 199.328,200.523 199.390 C 200.623 199.452,200.697 200.387,200.697 201.603 C 200.697 203.403,200.741 203.741,201.002 203.939 C 201.252 204.128,205.670 204.171,225.566 204.176 L 249.826 204.181 249.826 161.098 C 249.826 128.697,249.876 117.964,250.027 117.812 C 250.744 117.096,250.382 117.073,238.349 117.073 L 226.914 117.073 226.673 117.639 C 226.540 117.951,226.227 118.476,225.977 118.807 C 225.424 119.539,223.932 121.696,221.572 125.174 C 220.597 126.611,219.435 128.258,218.990 128.833 C 218.545 129.408,217.541 130.819,216.758 131.969 C 215.975 133.118,214.941 134.608,214.460 135.279 C 213.979 135.949,213.038 137.282,212.368 138.240 C 211.699 139.199,210.601 140.767,209.930 141.725 C 209.259 142.683,208.150 144.290,207.465 145.296 C 206.781 146.302,205.781 147.710,205.244 148.423 C 204.708 149.137,203.798 150.402,203.223 151.234 C 201.082 154.331,199.629 156.379,199.082 157.070 C 198.772 157.461,198.266 158.147,197.957 158.594 C 197.184 159.712,196.936 159.651,195.812 158.074 C 195.289 157.340,194.615 156.410,194.314 156.007 C 194.014 155.605,193.132 154.343,192.355 153.204 C 191.086 151.344,190.439 150.412,187.848 146.719 C 187.441 146.139,187.108 145.592,187.108 145.504 C 187.108 145.417,186.808 145.001,186.442 144.580 C 186.075 144.160,185.451 143.345,185.055 142.770 C 184.659 142.195,184.177 141.529,183.983 141.289 C 183.790 141.050,183.628 140.775,183.624 140.679 C 183.619 140.584,183.457 140.309,183.263 140.070 C 182.892 139.612,181.615 137.787,178.571 133.362 C 177.565 131.900,176.154 129.862,175.436 128.832 C 170.481 121.737,167.596 117.475,167.596 117.252 C 167.596 117.132,163.881 117.073,156.272 117.073 L 144.948 117.073 144.948 160.627 M197.455 162.413 C 197.541 163.123,197.736 165.544,197.794 166.638 C 197.821 167.135,197.785 167.163,197.069 167.214 L 196.315 167.269 196.439 165.211 C 196.508 164.079,196.586 163.036,196.614 162.892 C 196.641 162.748,196.669 162.415,196.677 162.152 C 196.700 161.296,197.346 161.513,197.455 162.413 M197.988 169.106 C 198.053 169.362,198.176 170.558,198.264 171.763 C 198.351 172.969,198.474 174.405,198.538 174.956 L 198.655 175.958 197.150 175.958 L 195.645 175.958 195.650 175.479 C 195.658 174.728,195.970 170.570,196.095 169.556 L 196.207 168.641 197.040 168.641 C 197.796 168.641,197.882 168.683,197.988 169.106 M198.814 179.007 C 198.880 179.486,199.020 181.054,199.125 182.491 C 199.230 183.929,199.363 185.634,199.419 186.280 L 199.522 187.456 197.077 187.456 L 194.632 187.456 194.698 186.803 C 194.797 185.803,195.098 181.981,195.214 180.226 C 195.371 177.872,195.234 178.028,197.096 178.086 L 198.693 178.136 198.814 179.007 M300.049 271.905 C 300.507 271.941,301.212 271.941,301.617 271.904 C 302.021 271.868,301.646 271.838,300.784 271.839 C 299.922 271.839,299.591 271.869,300.049 271.905 M310.532 272.138 C 309.963 273.058,310.393 273.520,311.817 273.518 C 313.938 273.516,314.940 272.900,313.783 272.310 C 313.007 271.914,310.744 271.795,310.532 272.138 " stroke="none" fill="#f4b414" fill-rule="evenodd"></path><path id="path1" d="M144.859 160.540 C 144.859 184.495,144.879 194.269,144.904 182.260 C 144.929 170.251,144.929 150.651,144.904 138.706 C 144.879 126.760,144.859 136.585,144.859 160.540 M249.912 160.976 C 249.912 184.691,249.932 194.392,249.956 182.535 C 249.981 170.677,249.981 151.274,249.956 139.416 C 249.932 127.559,249.912 137.260,249.912 160.976 M194.494 191.187 C 194.440 191.328,194.432 191.585,194.477 191.758 C 194.531 191.964,194.566 191.908,194.579 191.594 L 194.599 191.115 197.206 191.115 L 199.812 191.115 199.874 192.639 L 199.936 194.164 199.924 192.596 L 199.913 191.028 197.252 190.980 C 195.043 190.940,194.575 190.975,194.494 191.187 M194.138 194.338 C 194.138 195.200,194.167 195.575,194.204 195.171 C 194.240 194.766,194.241 194.061,194.205 193.603 C 194.169 193.145,194.139 193.476,194.138 194.338 M200.239 196.777 C 200.240 197.831,200.268 198.240,200.303 197.685 C 200.338 197.131,200.338 196.268,200.302 195.769 C 200.267 195.269,200.239 195.723,200.239 196.777 M193.793 198.519 C 193.794 199.573,193.822 199.982,193.857 199.427 C 193.892 198.873,193.892 198.011,193.856 197.511 C 193.821 197.012,193.793 197.465,193.793 198.519 M200.588 201.307 C 200.588 202.361,200.617 202.769,200.652 202.215 C 200.686 201.660,200.686 200.798,200.651 200.299 C 200.616 199.799,200.587 200.253,200.588 201.307 M193.434 202.178 C 193.435 202.753,193.467 202.967,193.506 202.654 C 193.545 202.341,193.544 201.870,193.504 201.608 C 193.465 201.347,193.433 201.603,193.434 202.178 M156.925 204.312 C 163.465 204.337,174.166 204.337,180.706 204.312 C 187.245 204.287,181.895 204.266,168.815 204.266 C 155.736 204.266,150.385 204.287,156.925 204.312 M213.545 204.312 C 220.181 204.337,231.039 204.337,237.674 204.312 C 244.310 204.287,238.881 204.266,225.610 204.266 C 212.339 204.266,206.910 204.287,213.545 204.312 M191.210 210.497 C 191.172 210.616,191.104 211.420,191.059 212.282 C 191.013 213.145,190.759 217.191,190.495 221.275 C 190.231 225.359,190.064 228.828,190.124 228.984 C 190.222 229.241,190.931 229.268,197.381 229.268 L 204.530 229.268 204.530 228.855 C 204.530 228.457,204.018 222.168,203.663 218.206 C 203.569 217.152,203.450 215.270,203.400 214.024 C 203.349 212.779,203.260 211.426,203.202 211.019 L 203.096 210.279 197.187 210.279 C 192.613 210.279,191.263 210.328,191.210 210.497 M0.392 217.022 L 0.000 217.097 0.000 242.782 L 0.000 268.467 10.356 268.467 C 16.512 268.467,20.752 268.402,20.811 268.306 C 20.866 268.217,20.913 263.365,20.917 257.523 C 20.923 247.290,20.936 246.891,21.257 246.601 C 21.732 246.170,22.125 246.388,22.125 247.081 C 22.125 247.398,22.233 247.812,22.365 248.001 C 22.497 248.190,22.855 249.090,23.161 250.000 C 23.467 250.910,23.824 251.890,23.954 252.178 C 24.083 252.465,24.787 254.503,25.518 256.707 C 26.249 258.911,26.952 260.949,27.081 261.237 C 27.210 261.524,27.370 262.020,27.437 262.338 C 27.504 262.655,27.661 263.112,27.785 263.351 C 27.910 263.591,28.308 264.703,28.670 265.822 C 29.630 268.789,28.505 268.467,37.900 268.467 C 47.327 268.467,46.359 268.720,47.217 266.028 C 47.538 265.022,47.938 263.885,48.107 263.502 C 48.275 263.118,48.855 261.472,49.394 259.843 C 49.934 258.214,50.483 256.646,50.614 256.359 C 50.746 256.071,51.373 254.268,52.008 252.352 C 52.643 250.436,53.270 248.632,53.401 248.345 C 53.532 248.057,53.923 246.960,54.271 245.906 C 54.618 244.852,54.967 243.923,55.046 243.842 C 55.286 243.597,55.550 245.245,55.385 245.956 C 55.138 247.021,55.185 268.008,55.436 268.258 C 55.737 268.560,75.970 268.560,76.272 268.258 C 76.563 267.967,76.576 218.170,76.285 217.532 C 76.178 217.296,75.923 217.058,75.719 217.003 C 74.756 216.745,47.534 216.896,46.978 217.162 C 46.374 217.452,46.689 216.577,42.683 229.094 C 39.469 239.133,38.612 241.737,38.451 241.945 C 38.250 242.205,37.805 241.921,37.805 241.533 C 37.805 241.238,37.001 238.780,36.662 238.040 C 36.524 237.738,36.411 237.407,36.411 237.306 C 36.411 237.037,35.916 235.567,35.552 234.756 C 35.380 234.373,35.140 233.628,35.019 233.101 C 34.897 232.574,34.737 232.064,34.662 231.969 C 34.587 231.873,33.495 228.698,32.235 224.913 C 29.489 216.665,29.676 217.129,29.036 217.001 C 28.459 216.885,0.996 216.906,0.392 217.022 M99.652 229.727 C 94.458 230.291,91.000 231.154,87.865 232.670 C 83.320 234.867,80.904 238.385,81.269 242.274 L 81.389 243.554 82.419 243.554 C 82.986 243.554,83.449 243.495,83.449 243.423 C 83.449 243.351,87.227 243.314,91.843 243.340 C 101.115 243.391,100.515 243.469,100.520 242.210 C 100.526 240.499,101.849 239.898,105.607 239.896 C 109.394 239.895,110.061 240.290,109.843 242.406 C 109.773 243.085,109.694 244.057,109.669 244.565 C 109.614 245.658,109.739 245.514,108.447 245.967 C 106.344 246.705,103.063 247.206,97.997 247.562 C 96.751 247.650,95.457 247.765,95.122 247.819 C 94.787 247.872,93.963 248.001,93.293 248.105 C 85.422 249.325,81.844 251.415,81.338 255.090 C 80.846 258.665,80.696 263.351,81.054 263.971 C 82.228 266.003,86.085 268.228,89.520 268.856 C 91.661 269.247,101.486 269.214,103.223 268.810 C 104.085 268.609,105.301 268.330,105.923 268.189 C 106.546 268.048,107.388 267.778,107.794 267.590 C 108.200 267.401,108.605 267.247,108.692 267.247 C 108.780 267.247,109.177 267.074,109.574 266.862 C 110.348 266.449,110.687 266.519,111.051 267.165 C 111.296 267.598,111.672 268.005,111.672 267.835 C 111.672 267.761,111.767 267.794,111.882 267.909 C 112.039 268.067,114.401 268.118,121.441 268.118 L 130.791 268.118 130.914 266.681 C 131.152 263.893,131.120 263.703,130.285 262.841 C 129.917 262.463,129.617 262.025,129.617 261.869 C 129.632 240.459,129.600 239.920,128.162 237.202 C 125.007 231.236,113.515 228.223,99.652 229.727 M378.017 229.703 C 364.988 231.896,359.946 245.636,369.569 252.726 C 370.526 253.430,371.433 254.007,371.586 254.008 C 371.739 254.008,372.452 254.237,373.171 254.516 C 373.889 254.795,376.234 255.468,378.381 256.011 C 385.889 257.912,388.067 258.972,388.429 260.902 C 388.824 263.009,387.213 264.182,383.624 264.400 C 378.882 264.688,374.938 262.722,374.917 260.061 C 374.915 259.797,374.834 259.582,374.739 259.582 C 374.643 259.582,374.564 259.190,374.564 258.711 C 374.564 258.149,374.490 257.840,374.355 257.840 C 374.193 257.840,374.193 257.793,374.355 257.631 C 374.470 257.516,374.564 257.359,374.564 257.282 C 374.564 257.206,372.044 257.143,368.963 257.143 L 363.361 257.143 363.464 259.541 C 363.699 265.039,365.287 268.244,369.053 270.820 L 370.451 271.777 366.392 271.777 L 362.333 271.777 362.462 251.397 C 362.566 235.102,362.548 230.964,362.372 230.753 C 362.082 230.403,351.601 230.350,351.254 230.697 C 351.096 230.855,351.045 233.621,351.045 242.079 C 351.045 248.224,350.995 253.302,350.934 253.363 C 350.873 253.424,349.908 251.967,348.789 250.126 C 347.670 248.284,344.545 243.236,341.844 238.908 C 339.143 234.579,336.886 230.914,336.828 230.763 C 336.735 230.520,336.077 230.488,331.253 230.488 L 325.784 230.488 325.784 238.473 C 325.784 250.705,325.567 271.080,325.436 271.080 C 325.372 271.080,324.801 269.689,324.168 267.988 C 323.534 266.287,321.045 259.604,318.637 253.136 C 316.230 246.668,313.345 238.926,312.228 235.932 L 310.197 230.488 304.523 230.488 L 298.849 230.488 294.124 243.075 C 291.524 249.998,289.342 255.897,289.273 256.185 C 289.205 256.472,289.010 257.021,288.840 257.404 C 288.670 257.787,288.358 258.611,288.146 259.233 C 287.934 259.856,287.705 260.444,287.637 260.540 C 287.569 260.636,287.375 261.185,287.206 261.760 C 286.801 263.135,283.636 271.650,283.463 271.829 C 283.273 272.025,282.270 269.705,281.946 268.321 C 281.789 267.648,281.615 265.696,281.532 263.676 C 281.388 260.178,281.243 259.289,280.495 257.289 C 280.009 255.990,278.930 254.343,278.165 253.732 L 277.548 253.241 278.800 251.991 C 281.694 249.102,282.735 245.573,281.818 241.757 C 281.661 241.105,281.533 240.332,281.533 240.041 C 281.533 236.910,276.843 232.267,272.387 230.986 C 270.685 230.497,245.808 230.227,245.829 230.698 C 245.834 230.822,245.797 237.940,245.746 246.516 C 245.695 255.091,245.651 264.284,245.649 266.943 L 245.645 271.777 239.024 271.777 L 232.404 271.777 232.404 256.535 L 232.404 241.294 238.284 241.248 L 244.164 241.202 244.164 235.889 L 244.164 230.575 226.350 230.531 L 208.537 230.486 208.537 235.975 L 208.537 241.463 214.460 241.463 L 220.383 241.463 220.383 256.533 L 220.383 271.603 156.751 271.643 C 121.753 271.665,72.167 271.653,46.559 271.615 L 0.000 271.546 0.000 277.236 L 0.000 282.927 199.482 282.927 L 398.964 282.927 398.950 277.726 C 398.931 271.028,399.278 271.777,396.190 271.775 L 393.641 271.773 394.251 271.300 C 398.949 267.654,400.921 262.386,399.666 256.838 C 399.487 256.047,399.376 255.401,399.419 255.401 C 399.627 255.401,398.328 253.272,397.641 252.487 C 397.214 251.999,396.864 251.483,396.864 251.341 C 396.864 251.199,396.668 251.034,396.429 250.974 C 396.189 250.914,395.993 250.788,395.993 250.694 C 395.993 250.600,395.836 250.523,395.645 250.523 C 395.453 250.523,395.296 250.411,395.296 250.275 C 395.296 250.139,395.056 249.975,394.762 249.910 C 394.468 249.846,394.185 249.683,394.133 249.548 C 394.082 249.413,393.876 249.303,393.677 249.303 C 393.478 249.303,393.141 249.140,392.929 248.940 C 392.550 248.584,391.588 248.247,390.810 248.196 C 390.595 248.182,390.418 248.112,390.418 248.040 C 390.418 247.968,390.159 247.909,389.841 247.909 C 389.524 247.909,388.761 247.712,388.146 247.471 C 387.530 247.230,386.932 247.068,386.817 247.113 C 386.702 247.157,386.583 247.121,386.553 247.033 C 386.523 246.944,385.891 246.778,385.148 246.663 C 384.405 246.547,383.798 246.392,383.798 246.318 C 383.798 246.244,383.524 246.132,383.188 246.069 C 382.853 246.006,382.578 245.852,382.578 245.728 C 382.578 245.579,382.236 245.470,381.577 245.410 C 379.775 245.246,379.230 245.100,379.140 244.756 C 379.088 244.555,378.833 244.392,378.465 244.323 C 378.131 244.260,377.875 244.107,377.875 243.970 C 377.875 243.837,377.765 243.728,377.632 243.728 C 377.335 243.728,377.178 243.351,377.178 242.639 C 377.178 242.343,377.047 241.956,376.887 241.779 C 376.430 241.275,377.277 240.504,378.792 240.044 C 380.078 239.653,383.682 239.619,383.937 239.996 C 384.004 240.095,384.304 240.275,384.603 240.396 C 385.956 240.943,386.585 242.088,386.585 244.001 L 386.585 245.296 392.596 245.296 L 398.606 245.296 398.606 243.408 C 398.606 240.387,397.884 238.071,396.280 235.952 C 395.835 235.364,395.470 234.808,395.470 234.716 C 395.470 234.486,394.016 233.281,392.799 232.502 C 389.014 230.081,382.783 228.901,378.017 229.703 M131.882 230.666 C 131.882 230.763,133.038 232.194,134.451 233.846 C 135.865 235.497,138.667 238.802,140.679 241.190 C 142.692 243.577,145.015 246.316,145.843 247.277 L 147.349 249.023 146.169 250.339 C 142.429 254.509,141.115 256.029,141.114 256.185 C 141.114 256.280,140.506 257.001,139.764 257.785 C 139.022 258.570,138.189 259.471,137.914 259.789 C 137.421 260.357,135.463 262.532,134.016 264.120 C 133.608 264.566,133.275 264.989,133.275 265.058 C 133.275 265.128,133.007 265.512,132.680 265.912 C 132.352 266.312,132.030 266.852,131.965 267.112 C 131.900 267.372,131.796 267.578,131.733 267.569 C 131.382 267.523,131.185 267.626,131.185 267.855 C 131.185 268.080,132.619 268.119,142.429 268.160 L 153.673 268.206 156.217 264.503 C 159.074 260.344,158.846 260.543,159.617 261.552 C 160.213 262.330,162.469 265.092,164.079 267.014 L 165.004 268.118 186.431 268.118 L 207.857 268.118 207.750 267.117 C 207.691 266.566,206.989 258.181,206.189 248.483 C 205.389 238.786,204.683 230.770,204.622 230.670 C 204.503 230.477,191.012 230.403,190.312 230.591 C 189.983 230.680,189.935 230.853,189.845 232.287 C 189.121 243.836,188.451 254.844,188.141 260.279 C 187.930 263.968,187.681 267.084,187.586 267.204 C 187.310 267.553,187.093 267.455,187.199 267.030 C 187.277 266.717,187.067 266.411,186.157 265.510 C 185.530 264.890,185.017 264.319,185.017 264.241 C 185.017 264.163,181.744 260.684,177.744 256.511 C 173.743 252.337,170.450 248.867,170.424 248.800 C 170.378 248.677,170.987 247.926,179.617 237.471 C 182.252 234.279,184.590 231.441,184.812 231.165 L 185.217 230.662 174.882 230.660 C 169.198 230.658,164.385 230.614,164.188 230.561 C 163.895 230.482,163.598 230.764,162.578 232.088 C 161.890 232.980,161.200 233.868,161.044 234.059 C 160.888 234.251,160.404 234.858,159.969 235.409 C 159.534 235.960,159.127 236.411,159.065 236.411 C 158.894 236.411,155.750 231.765,155.743 231.502 C 155.740 231.375,155.590 231.095,155.411 230.880 L 155.084 230.488 143.483 230.488 C 135.711 230.488,131.882 230.546,131.882 230.666 M266.862 240.864 C 266.930 240.965,267.228 241.145,267.523 241.265 C 269.127 241.913,269.770 243.212,269.647 245.558 C 269.470 248.948,269.317 249.027,262.761 249.095 L 257.666 249.148 257.666 244.855 L 257.666 240.562 262.202 240.621 C 265.129 240.659,266.782 240.745,266.862 240.864 M305.846 251.389 C 306.539 253.356,307.162 255.102,307.230 255.270 C 307.346 255.553,307.144 255.575,304.374 255.575 C 302.735 255.575,301.394 255.545,301.394 255.508 C 301.394 255.433,303.865 248.639,304.189 247.822 C 304.333 247.462,304.426 247.379,304.491 247.557 C 304.542 247.698,305.152 249.423,305.846 251.389 M340.119 257.143 C 341.274 259.011,342.357 260.658,342.525 260.801 C 342.831 261.062,349.019 270.941,349.244 271.525 C 349.354 271.813,349.235 271.826,347.476 271.718 C 346.439 271.655,343.721 271.603,341.436 271.603 L 337.282 271.603 337.283 262.064 L 337.284 252.526 337.651 253.136 C 337.853 253.471,338.963 255.274,340.119 257.143 M109.655 253.416 C 110.405 253.704,109.723 256.662,108.688 257.613 C 106.885 259.271,101.243 259.263,100.080 257.602 C 98.853 255.851,102.369 254.131,108.624 253.422 C 108.911 253.389,109.199 253.351,109.263 253.336 C 109.327 253.322,109.503 253.358,109.655 253.416 M266.617 258.529 C 268.547 259.263,269.182 260.799,269.355 265.157 C 269.492 268.603,269.694 270.167,270.141 271.238 L 270.388 271.831 268.268 271.717 C 267.102 271.654,264.200 271.603,261.819 271.603 L 257.491 271.603 257.491 264.983 L 257.491 258.362 261.835 258.362 C 264.225 258.362,266.376 258.437,266.617 258.529 M313.419 267.639 C 314.247 270.012,314.252 270.038,313.925 270.427 C 313.705 270.689,313.551 270.755,313.462 270.627 C 313.372 270.498,313.184 270.578,312.892 270.867 C 312.652 271.105,312.563 271.241,312.693 271.168 C 312.872 271.069,312.901 271.126,312.812 271.407 C 312.743 271.623,312.772 271.786,312.880 271.799 C 313.228 271.840,313.327 271.881,314.404 272.435 C 315.729 273.117,315.800 273.225,315.222 273.679 C 314.700 274.090,295.990 274.257,294.575 273.864 C 293.421 273.543,293.394 273.242,294.475 272.730 C 295.864 272.072,296.079 271.757,297.129 268.837 C 297.652 267.382,298.202 265.956,298.351 265.667 L 298.622 265.143 304.725 265.166 C 308.081 265.178,310.858 265.158,310.896 265.121 C 310.933 265.083,311.328 265.095,311.773 265.148 L 312.583 265.244 313.419 267.639 " stroke="none" fill="#1c345c" fill-rule="evenodd"></path></g></svg>