<svg id="svg" xmlns="http://www.w3.org/2000/svg"  width="400" height="400" viewBox="0, 0, 400,400"><g id="svgg"><path id="path0" d="M42.952 185.000 C 30.154 220.103,18.180 252.926,16.342 257.941 L 13.000 267.059 162.883 267.059 L 312.766 267.059 309.920 274.321 C 308.355 278.316,307.239 281.749,307.441 281.951 C 307.839 282.348,339.651 260.698,342.044 258.402 C 343.412 257.089,327.980 233.048,325.717 232.968 C 325.303 232.953,323.749 236.382,322.265 240.588 L 319.565 248.235 179.782 248.235 C 102.902 248.235,40.006 248.103,40.014 247.941 C 40.021 247.779,48.928 223.294,59.806 193.529 L 79.585 139.412 219.204 139.113 C 295.995 138.948,358.824 139.158,358.824 139.577 C 358.824 139.997,352.409 157.867,344.569 179.288 C 336.730 200.709,329.599 220.241,328.723 222.692 L 327.131 227.149 337.234 226.810 L 347.337 226.471 363.656 181.765 C 372.632 157.176,381.294 133.485,382.904 129.118 L 385.832 121.176 226.026 121.176 L 66.220 121.176 42.952 185.000 M226.709 160.520 C 203.238 168.893,200.155 192.809,221.626 199.954 C 231.446 203.222,233.458 204.753,232.384 208.138 C 230.299 214.706,217.603 214.977,216.677 208.474 C 216.309 205.889,215.932 205.805,206.089 206.132 L 195.882 206.471 195.526 212.005 C 194.826 222.870,203.108 228.673,219.370 228.712 C 239.585 228.761,254.118 218.049,254.118 203.100 C 254.118 194.067,251.249 191.179,237.059 185.921 C 230.074 183.333,228.770 182.413,228.470 179.863 C 227.776 173.960,237.238 171.314,241.264 176.286 C 243.062 178.507,244.507 178.824,252.836 178.824 L 262.353 178.824 262.353 173.791 C 262.353 161.480,243.596 154.497,226.709 160.520 M79.551 192.064 C 73.158 209.694,67.670 224.790,67.357 225.613 C 66.906 226.798,71.838 227.041,91.173 226.789 L 115.557 226.471 118.347 218.824 C 119.882 214.618,121.146 211.044,121.157 210.882 C 121.168 210.721,115.088 210.588,107.647 210.588 C 93.046 210.588,92.869 210.497,95.265 204.194 C 96.400 201.210,96.554 201.176,109.220 201.176 L 122.028 201.176 124.940 193.235 L 127.853 185.294 115.199 184.706 L 102.546 184.118 104.157 180.294 L 105.769 176.471 119.943 176.471 C 127.739 176.471,134.118 176.218,134.118 175.909 C 134.118 175.600,135.417 171.895,137.006 167.674 L 139.895 160.000 115.536 160.005 L 91.176 160.011 79.551 192.064 M144.015 192.590 C 131.130 210.514,120.412 225.603,120.196 226.119 C 119.980 226.636,124.563 227.059,130.380 227.059 L 140.956 227.059 145.182 221.176 L 149.408 215.294 160.162 215.294 L 170.916 215.294 170.219 221.176 L 169.523 227.059 179.395 227.059 L 189.268 227.059 189.901 222.059 C 190.250 219.309,191.086 206.735,191.759 194.118 C 192.432 181.500,193.288 168.662,193.660 165.588 L 194.338 160.000 180.890 160.000 L 167.441 160.000 144.015 192.590 M271.903 162.647 C 271.365 164.103,269.797 168.338,268.420 172.059 L 265.915 178.824 275.311 178.824 C 280.478 178.824,284.706 179.249,284.706 179.770 C 284.706 180.291,281.336 189.952,277.217 201.241 C 273.097 212.529,269.356 222.956,268.902 224.412 C 268.091 227.013,268.248 227.059,278.028 227.059 L 287.979 227.059 293.020 213.235 C 295.792 205.632,299.706 194.912,301.718 189.412 L 305.375 179.412 314.899 179.072 L 324.424 178.733 327.512 170.249 C 329.210 165.583,330.597 161.368,330.594 160.882 C 330.577 158.231,272.896 159.966,271.903 162.647 M174.304 187.647 L 172.582 200.000 166.222 200.000 C 161.443 200.000,160.083 199.634,160.752 198.529 C 161.241 197.721,163.988 193.353,166.856 188.824 C 169.724 184.294,172.808 179.397,173.709 177.941 C 176.151 173.998,176.168 174.273,174.304 187.647 " stroke="none" fill="#0B58A6" fill-rule="evenodd"></path></g></svg>