<?xml version="1.0" encoding="UTF-8" standalone="no"?>
<svg
   xmlns="http://www.w3.org/2000/svg"
   version="1.1"
   viewBox="0, 0, 400,400"
   height="400"
   width="400"
   id="svg">
  <g
     id="svgg">
    <path
       style="fill-rule:evenodd;stroke:none;stroke-width:1.0610764"
       d="M 33.395743,183.9882 C 19.816087,221.23516 7.1107581,256.06287 5.1604996,261.38417 l -3.5461173,9.67489 H 160.6517 319.68901 l -3.01982,7.70554 c -1.66059,4.239 -2.84475,7.88168 -2.63041,8.09601 0.42231,0.42125 34.17727,-22.55105 36.71642,-24.98728 1.45156,-1.3932 -14.92297,-26.90253 -17.32419,-26.98742 -0.43929,-0.0159 -2.0882,3.62251 -3.66284,8.0854 l -2.8649,8.11405 H 178.58283 c -81.575557,0 -148.313018,-0.14006 -148.30453,-0.31195 0.0074,-0.1719 9.458435,-26.15235 21.000824,-57.73529 l 20.98703,-57.42227 148.146426,-0.31727 c 81.48112,-0.17507 148.14749,0.0478 148.14749,0.49234 0,0.44566 -6.80681,19.40709 -15.12565,42.13641 -8.31778,22.72932 -15.88431,43.45426 -16.81381,46.05496 l -1.68924,4.72922 10.72006,-0.35971 10.72005,-0.3597 17.31571,-47.43649 c 9.52422,-26.0908 18.71526,-51.22876 20.4236,-55.86248 l 3.10683,-8.42707 H 227.65124 58.084868 L 33.395743,183.9882"
       id="path0" />
  </g>
</svg>
