<svg id="svg" xmlns="http://www.w3.org/2000/svg"  width="400" height="400" viewBox="0, 0, 400,400"><g id="svgg"><path id="path0" d="M54.186 175.981 C 53.294 176.539,52.966 176.943,51.814 178.907 C 50.579 181.011,50.766 180.962,48.633 179.732 C 46.208 178.333,43.286 178.704,42.844 180.468 C 42.664 181.183,42.631 181.155,45.948 183.054 L 48.417 184.467 48.048 185.031 C 47.845 185.341,47.478 185.934,47.233 186.349 C 46.683 187.283,46.805 187.292,44.906 186.175 C 42.494 184.756,40.261 184.874,39.061 186.484 C 38.463 187.288,38.539 187.365,41.759 189.238 C 43.118 190.028,44.231 190.808,44.231 190.972 C 44.231 191.336,33.539 194.842,33.352 194.539 C 33.282 194.426,33.792 193.097,34.486 191.585 C 35.914 188.473,35.983 188.088,35.170 187.779 C 33.412 187.110,31.324 188.440,30.170 190.963 C 29.718 191.952,29.291 192.760,29.220 192.760 C 28.919 192.760,26.471 191.733,26.471 191.607 C 26.471 191.531,27.031 190.235,27.715 188.728 C 29.303 185.229,29.293 184.839,27.613 184.844 C 25.717 184.849,24.501 185.766,23.495 187.948 C 22.992 189.039,22.556 189.958,22.526 189.989 C 22.497 190.021,21.497 189.639,20.305 189.141 C 17.229 187.855,14.750 188.099,14.341 189.728 C 14.146 190.502,14.437 190.740,16.686 191.645 C 18.921 192.545,18.992 192.463,15.045 193.552 C 10.880 194.701,9.471 195.881,11.141 196.823 C 11.682 197.128,12.129 197.045,17.119 195.711 C 23.379 194.036,22.658 194.127,24.296 194.806 L 25.593 195.343 22.355 196.210 C 18.187 197.327,16.559 198.396,17.430 199.445 C 17.902 200.014,19.196 199.819,24.499 198.381 C 27.733 197.505,29.734 197.064,29.868 197.198 C 30.201 197.532,26.591 203.235,25.897 203.469 C 25.486 203.608,24.415 203.384,21.836 202.621 C 17.921 201.462,17.117 201.383,15.836 202.037 C 13.558 203.199,14.040 204.239,17.251 205.091 C 19.202 205.610,19.186 205.650,16.686 206.472 L 14.593 207.160 10.973 206.061 C 6.940 204.838,6.178 204.805,4.681 205.791 C 3.041 206.872,3.467 207.629,6.189 208.472 L 8.419 209.163 5.058 210.267 C 1.068 211.578,0.512 211.839,0.183 212.561 C -0.534 214.134,1.277 214.175,5.721 212.686 C 7.552 212.072,9.050 211.625,9.050 211.692 C 9.050 211.759,8.555 212.439,7.951 213.203 C 5.867 215.840,5.960 216.659,8.324 216.463 C 9.923 216.331,10.332 215.989,13.075 212.499 L 15.404 209.536 17.471 208.843 C 20.014 207.990,19.992 207.965,18.443 209.970 C 16.894 211.975,16.829 212.665,18.159 212.993 C 19.537 213.334,20.905 212.632,22.285 210.877 C 27.066 204.800,26.420 205.124,30.475 206.781 C 34.719 208.516,34.805 208.361,28.196 210.877 C 22.904 212.892,22.172 213.291,22.172 214.162 C 22.172 215.721,24.071 215.409,30.610 212.777 C 30.919 212.652,30.829 212.924,30.231 213.916 L 29.447 215.218 24.509 217.109 C 18.363 219.463,17.374 220.114,18.521 221.055 C 19.331 221.720,20.190 221.590,23.643 220.276 C 27.419 218.839,27.254 218.781,25.820 221.039 C 24.489 223.136,24.393 223.665,25.280 224.003 C 26.990 224.652,28.545 223.677,30.187 220.926 C 30.892 219.745,31.503 218.778,31.545 218.778 C 31.588 218.778,32.423 219.236,33.402 219.795 C 35.663 221.086,37.493 221.082,38.929 219.783 C 39.888 218.915,39.550 218.469,36.708 216.844 C 35.246 216.009,34.003 215.284,33.946 215.233 C 33.840 215.138,34.671 213.519,35.191 212.808 C 35.461 212.438,35.608 212.483,37.250 213.445 C 39.653 214.852,41.660 214.747,43.090 213.141 C 43.724 212.429,43.459 212.145,40.655 210.530 C 36.788 208.304,36.655 208.519,43.238 206.351 C 49.588 204.260,49.403 204.187,47.624 208.105 C 46.024 211.630,46.105 212.242,48.126 211.914 C 50.066 211.599,50.846 210.957,51.842 208.858 C 52.353 207.781,52.806 206.861,52.849 206.813 C 52.941 206.710,55.231 207.659,55.503 207.913 C 55.605 208.009,55.122 209.337,54.428 210.864 C 52.776 214.504,52.791 214.706,54.722 214.706 C 56.477 214.706,57.469 213.913,58.597 211.609 C 59.157 210.465,59.717 209.569,59.842 209.616 C 59.966 209.664,61.070 210.123,62.296 210.637 C 64.740 211.662,65.537 211.697,66.939 210.845 C 68.671 209.791,68.334 209.147,65.418 207.944 L 63.342 207.088 66.456 206.238 C 70.834 205.045,72.429 204.006,71.425 203.003 C 70.839 202.417,69.880 202.560,64.395 204.055 L 59.312 205.440 57.993 204.846 L 56.674 204.253 59.776 203.397 C 64.055 202.216,65.826 201.008,64.606 200.100 C 63.910 199.583,63.213 199.691,57.955 201.131 C 51.031 203.028,51.345 203.181,53.846 199.136 C 56.054 195.565,55.834 195.640,60.245 196.950 C 64.664 198.262,65.736 198.269,67.138 196.991 C 68.356 195.882,67.765 195.278,64.656 194.456 C 62.776 193.959,62.814 193.898,65.474 193.112 L 67.624 192.478 71.143 193.524 C 75.467 194.809,76.442 194.807,77.876 193.508 C 79.007 192.485,78.391 191.796,75.679 191.048 C 74.932 190.842,74.247 190.606,74.156 190.522 C 74.065 190.439,75.456 189.886,77.247 189.293 C 81.529 187.877,82.709 187.060,81.891 186.075 C 81.420 185.507,80.067 185.711,76.591 186.875 C 74.739 187.496,73.188 187.970,73.146 187.928 C 73.104 187.886,73.682 187.059,74.431 186.090 C 75.940 184.138,76.017 183.894,75.289 183.384 C 73.688 182.262,72.088 183.200,69.210 186.950 L 66.855 190.018 64.517 190.814 C 63.231 191.251,62.273 191.486,62.390 191.336 C 62.506 191.186,63.126 190.388,63.767 189.562 C 65.656 187.129,65.025 185.952,62.271 186.770 C 61.150 187.103,60.988 187.259,58.589 190.335 C 57.210 192.104,55.852 193.630,55.572 193.726 C 55.029 193.912,48.856 191.476,48.702 191.015 C 48.628 190.794,51.980 189.401,56.537 187.757 C 59.790 186.584,60.956 185.235,59.236 184.635 C 58.360 184.330,57.408 184.550,54.072 185.828 C 51.056 186.984,51.140 186.990,51.913 185.670 C 52.709 184.313,52.410 184.478,57.902 182.366 C 63.122 180.358,63.706 180.067,63.928 179.366 C 64.410 177.848,62.234 177.861,58.273 179.400 C 56.664 180.025,55.319 180.507,55.283 180.472 C 55.248 180.437,55.730 179.558,56.354 178.520 C 57.812 176.095,57.778 175.700,56.109 175.617 C 55.202 175.573,54.680 175.672,54.186 175.981 M94.776 187.275 C 94.578 187.617,91.993 191.816,89.031 196.606 C 86.069 201.397,82.846 206.615,81.869 208.201 L 80.093 211.086 94.539 211.086 L 108.985 211.086 110.601 208.490 C 111.490 207.062,112.217 205.841,112.217 205.777 C 112.217 205.714,108.198 205.635,103.285 205.602 L 94.353 205.543 100.118 196.208 C 103.288 191.074,105.882 186.823,105.882 186.762 C 105.882 186.701,103.464 186.652,100.509 186.653 L 95.136 186.654 94.776 187.275 M138.093 189.205 C 136.335 190.600,129.621 195.916,123.173 201.018 C 116.726 206.120,111.241 210.469,110.985 210.683 C 110.543 211.052,110.803 211.071,116.218 211.078 L 121.915 211.086 124.068 209.276 L 126.220 207.466 132.709 207.466 L 139.198 207.466 139.094 209.276 L 138.989 211.086 144.608 211.086 L 150.226 211.086 150.229 210.011 C 150.235 207.641,149.754 190.262,149.635 188.518 L 149.507 186.652 145.398 186.660 L 141.290 186.667 138.093 189.205 M166.714 191.120 C 156.298 207.917,154.525 210.804,154.525 210.960 C 154.525 211.029,156.910 211.086,159.826 211.086 L 165.128 211.086 165.565 210.464 C 165.806 210.122,167.347 207.653,168.990 204.977 C 170.634 202.302,172.052 200.037,172.143 199.944 C 172.233 199.851,172.811 201.047,173.427 202.601 L 174.548 205.428 178.100 205.429 L 181.652 205.430 185.792 202.908 C 188.069 201.522,190.160 200.238,190.438 200.057 C 190.741 199.859,189.603 201.889,187.599 205.123 C 185.760 208.092,184.178 210.648,184.083 210.803 C 183.946 211.026,185.053 211.086,189.331 211.086 L 194.752 211.086 197.799 206.165 C 206.404 192.270,209.729 186.863,209.729 186.763 C 209.729 186.702,207.361 186.653,204.468 186.655 L 199.208 186.659 191.968 191.438 C 187.986 194.066,184.350 196.456,183.888 196.749 L 183.048 197.281 182.716 196.165 C 182.534 195.551,181.850 193.160,181.195 190.850 L 180.005 186.652 174.745 186.652 L 169.484 186.652 166.714 191.120 M217.723 187.613 C 217.388 188.142,215.980 190.407,214.595 192.647 C 213.209 194.887,210.171 199.796,207.843 203.557 C 205.515 207.318,203.549 210.556,203.473 210.753 C 203.259 211.310,226.250 211.124,228.676 210.550 C 235.840 208.855,240.724 205.226,240.724 201.599 C 240.724 200.625,239.769 199.253,238.900 198.977 C 238.394 198.817,238.308 198.416,238.780 198.416 C 238.956 198.416,240.117 197.907,241.360 197.285 C 247.414 194.254,248.342 189.389,243.204 187.618 C 240.842 186.804,238.463 186.652,228.120 186.652 L 218.331 186.652 217.723 187.613 M255.420 190.441 C 254.135 192.525,252.455 195.249,251.685 196.493 C 250.916 197.738,248.588 201.505,246.513 204.864 L 242.738 210.973 257.285 211.031 C 265.286 211.064,271.944 211.047,272.081 210.995 C 272.321 210.903,274.975 206.732,275.251 206.012 C 275.374 205.692,274.463 205.656,266.201 205.656 C 261.148 205.656,257.014 205.594,257.014 205.517 C 257.014 205.441,257.548 204.527,258.201 203.487 L 259.389 201.597 267.405 201.534 L 275.420 201.471 276.959 198.982 C 277.806 197.613,278.500 196.417,278.503 196.324 C 278.505 196.230,274.994 196.154,270.701 196.154 C 266.408 196.154,262.896 196.096,262.896 196.025 C 262.896 195.955,263.380 195.093,263.971 194.110 L 265.045 192.324 274.343 192.316 C 282.911 192.308,283.667 192.277,283.982 191.912 C 284.407 191.419,287.104 187.004,287.104 186.800 C 287.104 186.719,280.501 186.652,272.430 186.652 L 257.756 186.652 255.420 190.441 M292.847 189.306 C 291.345 191.789,282.269 206.510,280.287 209.676 L 279.400 211.094 284.863 211.033 L 290.327 210.973 293.071 206.502 L 295.814 202.032 297.507 202.091 L 299.199 202.149 300.206 206.618 L 301.213 211.086 307.473 211.086 L 313.732 211.086 312.212 206.052 C 311.376 203.283,310.755 201.002,310.832 200.983 C 322.585 198.054,326.462 189.829,317.288 187.287 C 315.585 186.815,314.986 186.788,304.977 186.717 L 294.457 186.643 292.847 189.306 M333.624 187.161 C 333.446 187.441,331.444 190.673,329.175 194.344 C 326.905 198.015,323.912 202.851,322.523 205.090 C 319.210 210.432,319.005 210.775,319.005 210.943 C 319.005 211.022,325.609 211.086,333.682 211.086 L 348.360 211.086 349.915 208.551 C 350.771 207.157,351.504 205.936,351.545 205.839 C 351.586 205.741,347.443 205.635,342.338 205.602 L 333.057 205.543 334.310 203.563 L 335.564 201.584 343.548 201.584 L 351.533 201.584 353.144 198.925 L 354.756 196.267 346.838 196.208 L 338.920 196.148 340.098 194.230 L 341.275 192.313 350.650 192.254 L 360.026 192.195 361.243 190.271 C 361.912 189.214,362.662 187.967,362.909 187.500 L 363.358 186.652 348.652 186.652 L 333.947 186.652 333.624 187.161 M366.531 189.229 C 365.652 190.646,364.932 191.919,364.932 192.057 C 364.932 192.233,366.446 192.308,370.023 192.308 C 372.822 192.308,375.113 192.349,375.113 192.401 C 375.113 192.452,373.517 195.073,371.566 198.226 C 369.615 201.379,367.025 205.565,365.811 207.527 L 363.604 211.094 369.053 211.033 L 374.502 210.973 376.477 207.805 C 377.564 206.063,380.150 201.889,382.225 198.529 L 385.997 192.421 391.342 192.308 L 396.687 192.195 398.335 189.593 C 399.241 188.162,399.987 186.915,399.991 186.821 C 399.996 186.728,392.829 186.652,384.065 186.652 L 368.130 186.652 366.531 189.229 M234.129 192.556 C 235.482 193.028,234.967 194.360,233.032 195.392 C 232.171 195.851,223.386 196.194,223.561 195.762 C 223.606 195.652,224.099 194.829,224.656 193.935 L 225.670 192.308 229.543 192.308 C 231.772 192.308,233.719 192.413,234.129 192.556 M310.053 192.626 C 311.439 193.205,311.295 194.327,309.677 195.553 C 308.324 196.578,306.790 196.851,302.772 196.782 L 299.139 196.719 300.497 194.514 L 301.855 192.308 305.573 192.308 C 308.259 192.308,309.502 192.396,310.053 192.626 M47.226 195.387 C 50.293 196.650,50.258 196.553,48.605 199.248 C 47.001 201.863,46.709 202.062,42.511 203.401 C 37.550 204.983,37.821 204.967,35.116 203.844 C 31.852 202.490,31.897 202.681,34.065 199.297 C 35.324 197.333,35.575 197.179,39.803 195.778 C 44.098 194.354,44.649 194.325,47.226 195.387 M139.702 199.420 L 139.538 202.262 136.122 202.262 C 132.739 202.262,132.709 202.258,133.151 201.824 C 133.996 200.995,139.699 196.411,139.783 196.494 C 139.829 196.540,139.792 197.857,139.702 199.420 M228.959 201.876 C 230.252 202.527,229.655 203.924,227.667 204.900 C 226.384 205.530,226.265 205.545,221.877 205.623 L 217.397 205.704 218.335 204.153 C 218.852 203.300,219.420 202.373,219.597 202.093 C 219.985 201.481,227.817 201.300,228.959 201.876 " stroke="none" fill="#00458A" fill-rule="evenodd"></path></g></svg>