<?xml version="1.0" encoding="UTF-8" standalone="no"?>
<svg
   xmlns="http://www.w3.org/2000/svg"
   version="1.1"
   viewBox="0, 0, 400,400"
   height="400"
   width="400"
   id="svg">
  <g
     id="svgg">
    <path
       style="fill-rule:evenodd;stroke:none;stroke-width:4.76731205"
       d="m 262.47037,85.864258 c -4.25244,2.66016 -5.81612,4.586154 -11.30806,13.949154 -5.88764,10.030428 -4.99615,9.796828 -15.16482,3.933028 -11.56074,-6.669465 -25.49082,-4.900792 -27.59797,3.50875 -0.85812,3.40862 -1.01544,3.27514 14.79773,12.32826 l 11.7705,6.73622 -1.75914,2.68876 c -0.96777,1.47787 -2.71737,4.30488 -3.88536,6.28332 -2.62202,4.45267 -2.04041,4.49557 -11.09354,-0.82951 -11.49875,-6.76482 -22.14416,-6.20228 -27.86493,1.47309 -2.85086,3.83292 -2.48854,4.20001 12.8622,13.12918 6.47878,3.76618 11.7848,7.48468 11.7848,8.26652 0,1.7353 -50.9721,18.4495 -51.86359,17.005 -0.33371,-0.5387 2.09762,-6.87446 5.40613,-14.08264 6.80773,-14.83587 7.13667,-16.67129 3.26085,-18.14439 -8.38094,-3.18933 -18.33509,3.1512 -23.83656,15.17913 -2.15483,4.71487 -4.19047,8.56685 -4.52895,8.56685 -1.43496,0 -13.10534,-4.89602 -13.10534,-5.49671 0,-0.36231 2.66969,-6.54075 5.93053,-13.72509 7.5705,-16.68082 7.52282,-18.54007 -0.48626,-18.51624 -9.03882,0.0238 -14.83588,4.39546 -19.63179,14.79774 -2.39796,5.20114 -4.47651,9.5823 -4.61953,9.73008 -0.13825,0.15256 -4.90556,-1.66856 -10.5882,-4.04268 -14.664248,-6.13076 -26.482414,-4.96754 -28.432245,2.79841 -0.929626,3.6899 0.457662,4.82452 11.179347,9.13894 10.654942,4.29058 10.993421,3.89966 -7.823159,9.09127 -19.855854,5.47764 -26.572997,11.10307 -18.611586,15.59387 2.579116,1.45403 4.710104,1.05835 28.498991,-5.30125 29.843372,-7.98525 26.406142,-7.55142 34.215002,-4.31442 l 6.1832,2.56005 -15.43656,4.13326 c -19.870153,5.32509 -27.631337,10.42134 -23.479008,15.42225 2.250171,2.71261 8.419073,1.78298 33.700128,-5.07242 15.41749,-4.17616 24.95688,-6.27854 25.5957,-5.63973 1.58751,1.59229 -15.62248,28.78027 -18.931,29.89582 -1.95936,0.66265 -7.06515,-0.40522 -19.36005,-4.04268 -18.664028,-5.52532 -22.496947,-5.90193 -28.603874,-2.78411 -10.859936,5.53961 -8.562092,10.49762 6.745747,14.55937 9.301025,2.47423 9.224748,2.66493 -2.693531,6.58366 l -9.977984,3.27991 -17.257669,-5.23928 c -19.226569,-5.83042 -22.859261,-5.98774 -29.995927,-1.28717 -7.818392,5.15346 -5.787517,8.76232 7.189106,12.78116 l 10.631106,3.29421 -16.022936,5.26311 c -19.0215741,6.24995 -21.6721996,7.49422 -23.2406452,10.93622 -3.4181626,7.49898 5.2154392,7.69444 26.4013732,0.59591 8.728948,-2.92713 15.870382,-5.05812 15.870382,-4.73871 0,0.31941 -2.35982,3.56119 -5.239276,7.20341 -9.935078,12.5714 -9.491718,16.47583 1.778207,15.54144 7.622932,-0.62929 9.572763,-2.25971 22.649499,-18.89763 l 11.10307,-14.12554 9.854033,-3.30375 c 12.123275,-4.06651 12.018394,-4.1857 4.633828,5.37276 -7.384567,9.55846 -7.694442,12.84791 -1.353917,14.41159 6.569356,1.62565 13.091038,-1.721 19.669928,-10.08764 22.79252,-28.97095 19.71284,-27.42634 39.04429,-19.5269 20.23247,8.27128 20.64246,7.53235 -10.86471,19.5269 -25.22861,9.60614 -28.71829,11.5083 -28.71829,15.66062 0,7.43224 9.05313,5.94484 40.22658,-6.60272 1.4731,-0.59592 1.04404,0.70079 -1.80681,5.42997 l -3.73757,6.20704 -23.54099,9.01498 c -29.299896,11.22225 -34.014768,14.32578 -28.546661,18.81182 3.861523,3.17026 7.956641,2.55051 24.418171,-3.71374 18.00137,-6.85063 17.21476,-7.12713 10.37844,3.63746 -6.34529,9.99705 -6.80296,12.51896 -2.57435,14.13031 8.1521,3.09399 15.56527,-1.55414 23.3932,-14.66902 3.36095,-5.63019 6.27378,-10.24018 6.47401,-10.24018 0.20499,0 4.1857,2.18343 8.8529,4.84835 10.77889,6.1546 19.50307,6.13553 26.34893,-0.0572 4.57185,-4.13802 2.9605,-6.26424 -10.5882,-14.01112 -6.96981,-3.98071 -12.89558,-7.43701 -13.16731,-7.68014 -0.50534,-0.4529 3.4563,-8.17118 5.9353,-11.56074 1.28717,-1.7639 1.98797,-1.54937 9.81589,3.03678 11.45585,6.70761 21.02385,6.20704 27.84111,-1.44926 3.02247,-3.39433 1.75913,-4.74824 -11.60841,-12.44745 -18.43519,-10.61204 -19.06925,-9.58707 12.31397,-19.9226 30.27243,-9.96845 29.39048,-10.31646 20.90943,8.36187 -7.6277,16.80477 -7.24155,19.72237 2.39319,18.15869 9.24858,-1.50171 12.96709,-4.56232 17.71533,-14.56891 2.4361,-5.13439 4.59569,-9.52032 4.80068,-9.74915 0.4386,-0.49103 11.35574,4.03314 12.65245,5.24404 0.48626,0.45766 -1.81635,6.78865 -5.12486,14.06834 -7.8756,17.35302 -7.80409,18.31601 1.40159,18.31601 8.36663,0 13.0958,-3.78048 18.47333,-14.76436 2.6697,-5.45381 5.33939,-9.72532 5.93531,-9.50126 0.59114,0.22884 5.85425,2.41703 11.69898,4.86743 11.65131,4.88649 15.45086,5.05335 22.13463,0.9916 8.25698,-5.02475 6.6504,-8.09489 -7.25108,-13.82997 l -9.89694,-4.08082 14.84541,-4.05222 c 20.87129,-5.6874 28.47515,-10.64064 23.68877,-15.42225 -2.79365,-2.79364 -7.3655,-2.11192 -33.5142,5.01521 l -24.23225,6.60273 -6.28808,-2.83178 -6.28809,-2.82702 14.7882,-4.08082 c 20.39933,-5.63019 28.84224,-11.38911 23.02612,-15.71783 -3.31805,-2.4647 -6.64087,-1.94983 -31.70739,4.9151 -33.00887,9.04359 -31.51193,9.77299 -19.58889,-9.51078 10.52623,-17.02408 9.47742,-16.66653 30.50603,-10.42135 21.06675,6.25471 26.17731,6.28809 32.86108,0.19546 5.80659,-5.28695 2.98911,-8.1664 -11.83247,-12.08513 -8.96254,-2.36936 -8.78138,-2.66016 3.89967,-6.40727 l 10.24972,-3.02248 16.77617,4.98661 c 20.61385,6.126 25.26198,6.11646 32.09831,-0.0763 5.39183,-4.87696 2.45516,-8.16163 -10.47379,-11.72758 -3.56118,-0.98207 -6.82679,-2.10716 -7.26061,-2.50761 -0.43383,-0.39569 6.1975,-3.03201 14.73576,-5.85903 20.41363,-6.75051 26.03906,-10.6454 22.1394,-15.34121 -2.24541,-2.70783 -8.69558,-1.7353 -25.26676,3.81385 -8.82906,2.9605 -16.22316,5.22021 -16.42339,5.01998 -0.20022,-0.20022 2.55528,-4.14279 6.126,-8.76232 7.19387,-9.30579 7.56096,-10.46901 4.09035,-12.90034 -7.63246,-5.34893 -15.26016,-0.87719 -28.98049,17.00023 l -11.22702,14.62612 -11.14597,3.79478 c -6.13076,2.08331 -10.69785,3.20363 -10.14007,2.48853 0.553,-0.71509 3.50874,-4.51941 6.56458,-8.45721 9.00546,-11.59887 5.99728,-17.21 -7.13189,-13.31033 -5.34416,1.58751 -6.11647,2.33121 -17.55325,16.99546 -6.57412,8.43338 -13.04813,15.7083 -14.38298,16.16596 -2.58865,0.88672 -32.01726,-10.72645 -32.75143,-12.92418 -0.35278,-1.05358 15.62725,-7.69445 37.35189,-15.53191 15.50806,-5.59205 21.06675,-12.02316 12.86697,-14.88354 -4.17616,-1.45404 -8.71464,-0.40523 -24.61839,5.6874 -14.37822,5.51101 -13.97776,5.53961 -10.29263,-0.75324 3.79478,-6.46924 2.36935,-5.68263 28.55143,-15.7512 24.88537,-9.57276 27.66948,-10.96005 28.72782,-14.30193 2.29785,-7.236781 -8.07582,-7.174806 -26.95915,0.16209 -7.6706,2.97957 -14.08264,5.27741 -14.25426,5.11056 -0.16686,-0.16686 2.13099,-4.35733 5.10579,-9.305797 6.95074,-11.560732 6.78865,-13.44382 -1.16799,-13.839507 -4.32395,-0.209762 -6.81249,0.262202 -9.16754,1.735302 M 229.28988,178.3787 c 14.62134,6.02112 14.45449,5.55869 6.57412,18.40659 -7.64677,12.46653 -9.03882,13.41522 -29.052,19.79865 -23.65063,7.54189 -22.35869,7.46561 -35.25427,2.11192 -15.56051,-6.45494 -15.34598,-5.54438 -5.01044,-21.67697 6.00204,-9.363 7.19864,-10.09716 27.35483,-16.77617 20.47561,-6.78865 23.1024,-6.9269 35.38776,-1.86402"
       id="path0" />
  </g>
</svg>
