<svg id="svg" xmlns="http://www.w3.org/2000/svg"  width="400" height="400" viewBox="0, 0, 400,400"><g id="svgg"><path id="path0" d="M188.200 0.443 C 71.139 9.241,6.933 142.446,72.829 239.800 C 143.959 344.888,306.140 322.321,345.819 201.815 C 380.099 97.706,297.537 -7.773,188.200 0.443 M215.118 19.004 C 225.783 20.329,243.600 24.720,243.600 26.025 C 243.600 26.393,203.759 112.518,201.747 116.500 C 200.468 119.031,199.532 119.031,198.253 116.500 C 196.222 112.479,156.400 26.400,156.400 26.029 C 156.400 25.593,162.057 23.703,167.947 22.171 C 175.105 20.310,183.992 18.914,193.000 18.235 C 196.927 17.939,210.285 18.404,215.118 19.004 M159.440 88.400 C 174.645 121.246,184.192 141.413,184.863 142.100 L 185.938 143.200 200.000 143.200 L 214.062 143.200 215.141 142.100 C 215.831 141.397,224.935 121.953,240.380 88.200 C 253.668 59.160,264.598 35.326,264.669 35.235 C 265.471 34.205,283.378 47.258,291.974 55.140 C 299.985 62.483,314.423 80.339,314.394 82.866 C 314.373 84.686,245.317 217.000,244.388 217.000 C 243.484 217.000,242.419 214.805,229.787 186.911 C 222.293 170.363,215.733 156.368,215.211 155.811 L 214.261 154.800 200.000 154.800 L 185.739 154.800 184.779 155.822 C 184.251 156.385,177.690 170.380,170.200 186.922 C 157.607 214.736,156.509 217.000,155.612 217.000 C 154.730 217.000,151.531 211.023,119.700 149.891 L 84.757 82.782 87.753 78.291 C 96.805 64.718,110.428 51.108,124.580 41.500 C 130.654 37.376,134.498 35.128,134.831 35.505 C 134.975 35.667,146.049 59.470,159.440 88.400 M331.402 121.041 C 349.345 190.264,306.423 263.918,236.465 283.950 C 140.083 311.549,47.268 224.622,68.030 126.200 C 69.079 121.225,72.167 110.100,72.626 109.641 C 72.894 109.372,70.884 105.498,112.765 187.000 C 155.325 269.822,153.428 266.400,156.776 266.400 C 160.076 266.400,159.365 267.763,179.739 222.360 C 190.584 198.193,198.841 180.287,199.338 179.856 C 200.646 178.724,200.167 177.762,220.649 222.664 C 235.107 254.360,239.882 264.461,240.804 265.300 C 242.567 266.904,245.474 266.876,247.069 265.240 C 247.707 264.586,265.566 230.285,287.995 186.635 L 327.791 109.189 328.917 112.495 C 329.537 114.313,330.655 118.158,331.402 121.041 M129.606 357.884 C 129.612 374.107,129.623 374.197,131.704 375.743 C 132.875 376.612,137.050 377.125,138.990 376.638 C 139.929 376.403,140.000 376.217,140.000 373.992 L 140.000 371.600 138.405 371.600 L 136.810 371.600 136.705 357.300 L 136.600 343.000 133.100 342.884 L 129.600 342.769 129.606 357.884 M143.200 359.616 L 143.200 376.431 146.700 376.316 L 150.200 376.200 150.200 371.499 C 150.200 368.914,150.315 366.844,150.455 366.899 C 150.596 366.955,152.311 369.070,154.267 371.600 L 157.824 376.200 161.712 376.314 C 166.651 376.460,166.667 376.649,161.180 369.865 L 156.761 364.400 160.080 360.341 C 161.906 358.108,163.799 355.813,164.286 355.241 C 166.037 353.182,165.619 352.800,161.620 352.800 L 158.039 352.800 154.883 356.700 C 153.148 358.845,151.476 361.005,151.168 361.500 C 150.226 363.014,150.196 362.709,150.314 352.600 L 150.427 342.800 146.814 342.800 L 143.200 342.800 143.200 359.616 M71.600 344.116 C 71.600 344.415,72.480 347.077,73.556 350.030 C 74.632 352.984,76.803 359.000,78.380 363.400 C 79.958 367.800,81.528 372.120,81.868 373.000 C 82.209 373.880,82.644 375.005,82.835 375.500 C 83.165 376.354,83.396 376.400,87.400 376.400 C 91.400 376.400,91.636 376.354,91.976 375.500 C 92.173 375.005,93.597 371.090,95.139 366.800 C 96.682 362.510,99.126 355.747,100.572 351.772 C 103.863 342.719,103.989 343.548,99.342 343.686 C 94.808 343.820,95.489 343.028,92.885 351.200 C 91.799 354.610,90.134 359.801,89.186 362.735 L 87.462 368.070 86.766 366.135 C 86.383 365.071,84.691 359.880,83.005 354.600 C 81.320 349.320,79.800 344.730,79.628 344.400 C 79.190 343.560,71.600 343.291,71.600 344.116 M109.197 352.752 C 98.061 356.383,98.208 373.190,109.406 376.586 C 119.944 379.783,128.251 371.038,125.012 360.158 C 123.315 354.460,115.370 350.739,109.197 352.752 M172.108 353.161 C 164.658 356.653,166.314 365.294,174.800 367.206 C 178.501 368.040,179.600 368.626,179.600 369.766 C 179.600 371.849,175.182 372.192,171.066 370.428 L 169.158 369.611 168.183 371.705 C 166.594 375.119,166.735 375.314,171.720 376.601 C 179.925 378.719,186.800 375.269,186.800 369.034 C 186.800 365.535,184.058 363.154,178.481 361.809 C 174.273 360.794,173.198 359.283,175.796 358.037 C 176.938 357.490,181.090 357.997,183.657 358.997 C 184.165 359.195,184.475 358.816,185.026 357.326 C 185.417 356.267,185.876 355.214,186.046 354.987 C 187.550 352.969,175.801 351.430,172.108 353.161 M233.800 352.995 C 231.602 353.592,229.600 354.311,229.600 354.504 C 229.600 354.701,231.261 359.374,231.427 359.643 C 231.509 359.776,232.527 359.557,233.688 359.156 C 238.337 357.550,243.071 358.513,242.716 360.992 C 242.610 361.732,242.226 361.818,238.146 362.014 C 231.317 362.342,228.400 364.586,228.400 369.510 C 228.400 376.036,234.693 379.099,241.379 375.828 L 243.656 374.714 244.528 375.509 C 245.910 376.770,248.032 377.346,250.132 377.031 L 252.000 376.751 252.000 374.175 L 252.000 371.600 250.800 371.600 L 249.600 371.600 249.600 365.460 C 249.600 357.202,248.886 355.312,245.044 353.397 C 242.705 352.231,237.324 352.039,233.800 352.995 M259.656 353.283 C 251.023 357.804,252.589 374.488,261.827 376.406 C 264.391 376.938,267.800 376.485,269.472 375.390 C 270.477 374.731,270.766 375.992,270.144 378.316 C 269.586 380.399,264.647 381.081,260.498 379.648 C 258.141 378.833,258.092 378.860,257.063 381.508 C 256.134 383.901,256.205 384.194,257.900 384.930 C 263.702 387.451,271.175 386.716,274.604 383.287 C 277.375 380.516,277.400 380.361,277.400 366.000 L 277.400 353.000 274.844 353.000 C 272.308 353.000,272.130 353.088,271.338 354.729 C 271.304 354.800,270.494 354.354,269.538 353.739 C 267.072 352.151,262.243 351.929,259.656 353.283 M289.137 352.790 C 278.834 355.902,278.907 373.301,289.235 376.506 C 292.778 377.606,298.604 377.166,302.201 375.527 C 303.395 374.983,303.385 375.094,302.465 372.483 C 301.509 369.768,301.609 369.824,299.068 370.563 C 295.100 371.716,291.766 371.446,290.160 369.840 C 287.333 367.013,287.765 366.800,296.348 366.800 L 303.895 366.800 304.143 365.300 C 305.617 356.381,298.072 350.091,289.137 352.790 M318.800 352.675 C 318.470 352.813,317.508 353.360,316.662 353.892 C 315.816 354.423,315.096 354.800,315.062 354.729 C 314.262 353.071,314.110 353.000,311.356 353.000 L 308.600 353.000 308.600 364.600 L 308.600 376.200 312.100 376.316 L 315.600 376.431 315.600 368.210 L 315.600 359.988 316.900 359.196 C 317.645 358.741,318.912 358.402,319.867 358.401 C 323.734 358.398,324.000 359.067,324.000 368.796 L 324.000 376.431 327.500 376.316 L 331.000 376.200 331.000 367.600 C 331.000 357.810,330.619 356.327,327.463 353.820 C 325.920 352.595,320.657 351.899,318.800 352.675 M188.311 353.266 C 188.226 353.523,188.642 355.278,189.236 357.166 C 191.109 363.122,193.130 369.685,194.112 373.000 L 195.060 376.200 198.889 376.314 L 202.719 376.428 204.596 370.514 C 205.628 367.261,206.754 363.722,207.099 362.648 L 207.726 360.696 208.840 364.248 C 209.452 366.202,210.559 369.690,211.300 372.000 L 212.647 376.200 216.480 376.314 L 220.314 376.428 221.176 373.514 C 222.373 369.473,224.633 362.122,226.055 357.650 C 227.609 352.762,227.597 352.740,223.539 352.884 L 220.264 353.000 219.565 355.200 C 219.180 356.410,218.272 359.695,217.548 362.500 C 216.077 368.198,215.941 368.393,215.321 365.700 C 214.854 363.672,212.389 355.730,211.659 353.900 C 211.229 352.822,211.152 352.800,207.859 352.800 C 203.858 352.800,204.106 352.563,202.425 358.000 C 201.712 360.310,200.719 363.456,200.219 364.991 L 199.310 367.783 198.676 365.591 C 198.328 364.386,197.861 362.680,197.639 361.800 C 196.338 356.638,196.051 355.566,195.617 354.252 L 195.138 352.800 191.802 352.800 C 189.618 352.800,188.413 352.961,188.311 353.266 M296.178 358.500 C 296.741 358.995,297.313 359.985,297.450 360.700 L 297.700 362.000 293.087 362.000 C 288.618 362.000,288.482 361.974,288.692 361.171 C 289.508 358.048,293.888 356.485,296.178 358.500 M116.353 359.052 C 119.518 361.269,119.012 368.956,115.588 370.688 C 110.894 373.064,106.462 366.844,108.810 361.176 C 109.897 358.552,113.993 357.399,116.353 359.052 M269.140 358.839 L 270.400 359.278 270.400 364.599 L 270.400 369.920 268.389 370.403 C 263.245 371.637,260.482 368.579,261.373 362.639 C 261.916 359.017,265.135 357.443,269.140 358.839 M242.800 368.390 C 242.800 371.404,236.301 372.840,235.407 370.023 C 234.717 367.848,236.159 366.867,240.100 366.827 L 242.800 366.800 242.800 368.390 " stroke="none" fill="#001E50" fill-rule="evenodd"></path></g></svg>