<svg id="svg" xmlns="http://www.w3.org/2000/svg"  width="400" height="400" viewBox="0, 0, 400,400"><g id="svgg"><path id="path0" d="M184.635 0.577 C 32.212 12.032,-51.389 185.477,34.412 312.240 C 127.030 449.073,338.203 419.689,389.869 262.780 C 434.504 127.222,327.001 -10.122,184.635 0.577 M219.685 24.745 C 233.571 26.469,256.771 32.188,256.771 33.886 C 256.771 34.366,204.894 146.508,202.274 151.693 C 200.609 154.988,199.391 154.988,197.726 151.693 C 195.080 146.457,143.229 34.375,143.229 33.892 C 143.229 33.324,150.595 30.863,158.264 28.869 C 167.584 26.445,179.156 24.627,190.885 23.743 C 195.998 23.358,213.392 23.963,219.685 24.745 M147.188 115.104 C 166.985 157.873,179.417 184.132,180.291 185.026 L 181.691 186.458 200.000 186.458 L 218.309 186.458 219.714 185.026 C 220.613 184.110,232.468 158.793,252.578 114.844 C 269.880 77.031,284.112 45.997,284.204 45.878 C 285.249 44.537,308.565 61.534,319.758 71.796 C 330.188 81.358,348.988 104.608,348.950 107.898 C 348.923 110.268,259.007 282.552,257.797 282.552 C 256.620 282.552,255.233 279.693,238.785 243.374 C 229.027 221.826,220.486 203.604,219.806 202.879 L 218.568 201.563 200.000 201.563 L 181.432 201.563 180.181 202.894 C 179.493 203.626,170.951 221.848,161.198 243.388 C 144.800 279.604,143.371 282.552,142.204 282.552 C 141.054 282.552,136.890 274.770,95.443 195.170 L 49.945 107.789 53.845 101.941 C 65.631 84.268,83.370 66.547,101.797 54.037 C 109.706 48.666,114.710 45.740,115.145 46.231 C 115.332 46.442,129.751 77.435,147.188 115.104 M371.097 157.605 C 394.460 247.740,338.571 343.643,247.481 369.727 C 121.983 405.663,1.130 292.476,28.164 164.323 C 29.530 157.845,33.551 143.359,34.148 142.762 C 34.498 142.412,31.880 137.367,86.413 243.490 C 141.830 351.331,139.360 346.875,143.718 346.875 C 148.015 346.875,147.090 348.649,173.619 289.531 C 187.739 258.064,198.490 234.748,199.138 234.188 C 200.841 232.713,200.218 231.460,226.887 289.928 C 245.712 331.198,251.929 344.350,253.130 345.443 C 255.425 347.531,259.211 347.495,261.288 345.365 C 262.118 344.513,285.372 299.850,314.577 243.014 L 366.394 142.173 367.861 146.477 C 368.668 148.844,370.124 153.852,371.097 157.605 " stroke="none" fill-rule="evenodd"></path></g></svg>