<?xml version="1.0" encoding="UTF-8" standalone="no"?>
<svg
   
   
   
   
   xmlns="http://www.w3.org/2000/svg"
   version="1.1"
   viewBox="0 0 400 400"
   height="400"
   width="400"
   id="svg">
  <g
     transform="translate(0,143.20371)"
     id="svgg">
    <path
       style="fill-rule:evenodd;stroke:none"
       d="m 30.616,14.915 -30.49,14.887 13.148,0.041 13.149,0.04 10.543,-4.255 c 5.799,-2.341 10.567,-4.234 10.595,-4.206 0.028,0.027 -4.33,7.389 -9.684,16.36 -5.354,8.971 -9.735,16.341 -9.735,16.379 0,0.037 4.394,0.067 9.763,0.066 l 9.763,-10e-4 4.037,-7.074 4.037,-7.073 L 70.484,40 85.225,39.921 88.288,35.065 c 2.336,-3.702 3.017,-4.894 2.867,-5.019 C 91.023,29.937 86.148,29.87 76.473,29.843 L 61.989,29.802 68.33,19.605 C 71.818,13.996 74.682,9.392 74.695,9.373 74.708,9.355 108.545,8.697 149.889,7.911 191.233,7.125 239.289,6.195 256.68,5.845 L 288.3,5.209 340.731,3.158 c 28.836,-1.128 52.528,-2.056 52.648,-2.063 0.12,-0.006 0.42,-0.255 0.668,-0.553 L 394.498,0 227.802,0.014 61.107,0.028 30.616,14.915 m 336.499,-3.903 c -9.275,0.378 -9.51,0.409 -12.108,1.625 -4.71,2.204 -8.707,6.569 -13.691,14.952 -7.624,12.823 -8.984,15.93 -8.984,20.53 0,3.237 1.929,6.228 4.454,6.908 1.36,0.366 34.829,0.113 36.193,-0.274 5.763,-1.633 8.874,-5.131 14.529,-16.334 1.382,-2.739 2.83,-5.514 3.217,-6.166 0.387,-0.652 0.672,-1.239 0.632,-1.304 -0.039,-0.066 -6.132,-0.118 -13.54,-0.116 l -13.469,0.003 -2.293,4.041 c -1.261,2.222 -2.316,4.106 -2.345,4.187 -0.032,0.087 2.726,0.145 6.908,0.145 4.719,0 6.993,0.054 7.063,0.168 0.321,0.519 -1.073,2.324 -2.374,3.075 -3.235,1.866 -22.197,1.933 -23.87,0.084 -0.896,-0.99 2.281,-8.888 5.555,-13.812 4.322,-6.5 7.459,-7.388 23.372,-6.613 6.16,0.3 6.858,0.785 5.376,3.727 -0.303,0.602 -0.534,1.11 -0.513,1.128 0.021,0.019 2.577,0.06 5.681,0.091 l 5.643,0.058 0.883,-1.107 c 2.19,-2.746 3.652,-7.725 2.87,-9.773 -0.872,-2.284 -4.905,-3.932 -12.114,-4.948 -1.756,-0.248 -13.212,-0.432 -17.075,-0.275 m -257.924,0.885 c -0.219,0.348 -21.775,37.961 -23.25,40.568 -0.411,0.726 -0.711,1.355 -0.668,1.398 0.044,0.044 10.482,0.019 23.196,-0.054 l 23.116,-0.133 1.218,-2.609 c 0.67,-1.435 1.76,-3.757 2.422,-5.161 0.662,-1.404 1.25,-2.738 1.307,-2.964 l 0.103,-0.412 h -16.04 c -18.611,0 -16.966,0.164 -16.082,-1.605 0.557,-1.114 1.995,-3.338 2.516,-3.889 l 0.335,-0.356 h 15.391 15.39 l 2.406,-4.271 c 1.392,-2.47 2.368,-4.369 2.316,-4.506 -0.079,-0.206 -1.877,-0.235 -14.443,-0.236 -13.58,-0.001 -14.376,-0.016 -14.786,-0.287 l -0.434,-0.286 0.75,-1.455 c 0.412,-0.8 1.141,-1.986 1.619,-2.637 l 0.87,-1.181 16.034,-0.041 16.035,-0.041 2.744,-4.895 c 1.51,-2.692 2.709,-4.986 2.666,-5.098 -0.063,-0.166 -4.296,-0.204 -22.293,-0.204 h -22.215 l -0.223,0.355 m 93.231,19.052 c -5.925,10.239 -11.318,19.666 -11.986,20.948 l -1.215,2.332 h 20.957 20.958 l 0.639,-1.146 c 1.334,-2.391 4.767,-9.321 4.667,-9.421 -0.057,-0.058 -5.915,-0.127 -13.016,-0.155 -13.554,-0.053 -13.466,-0.048 -13.466,-0.699 0,-0.081 3.914,-6.892 8.696,-15.136 4.783,-8.243 8.696,-15.067 8.696,-15.164 0,-0.127 -1.989,-0.176 -7.079,-0.176 h -7.08 l -10.771,18.617 m 48.799,1.343 c -6.461,10.979 -12.095,20.477 -12.518,21.109 l -0.77,1.147 7.617,-0.041 7.616,-0.041 11.994,-21.014 c 6.597,-11.557 11.994,-21.037 11.994,-21.067 0,-0.029 -3.191,-0.053 -7.092,-0.053 h -7.092 l -11.749,19.96 m 32.414,-18.577 c -0.443,0.761 -5.875,10.135 -12.07,20.83 l -11.265,19.447 4.198,0.117 c 2.309,0.065 5.365,0.101 6.792,0.079 l 2.594,-0.038 7.92,-13.793 c 4.356,-7.586 7.958,-13.794 8.006,-13.795 0.072,-0.001 6.025,23.634 6.669,26.481 l 0.215,0.949 10.586,0.121 10.586,0.12 0.236,-0.348 c 0.131,-0.192 5.436,-9.566 11.79,-20.832 l 11.553,-20.484 -3.173,-0.097 c -1.745,-0.053 -4.601,-0.106 -6.345,-0.118 l -3.172,-0.022 -8.838,14.642 c -6.861,11.366 -8.865,14.576 -8.962,14.348 -0.068,-0.162 -1.513,-6.626 -3.211,-14.365 -1.698,-7.74 -3.126,-14.196 -3.174,-14.348 -0.08,-0.26 -0.701,-0.277 -10.107,-0.277 H 284.44 l -0.805,1.383 M 155.893,28.024 c -4.995,8.543 -10.454,17.875 -12.131,20.737 -1.678,2.862 -3.051,5.228 -3.051,5.257 0,0.029 9.173,0.053 20.383,0.053 h 20.382 l 0.316,-0.514 c 0.503,-0.816 3.075,-6.005 4.116,-8.3 l 0.949,-2.095 h -13.015 -13.015 l -0.095,-0.356 c -0.052,-0.195 -0.096,-0.51 -0.097,-0.7 -0.002,-0.189 2.212,-4.067 4.919,-8.617 6.38,-10.725 8.162,-13.797 11.652,-20.09 l 0.504,-0.909 h -6.368 -6.369 l -9.08,15.534 M 47.431,59.952 28.538,60.089 28.3,60.425 c -0.13,0.185 -1.256,2.317 -2.501,4.738 l -2.264,4.402 h 9.198 c 7.686,0 9.185,0.036 9.116,0.215 -0.046,0.118 -3.849,7.144 -8.453,15.613 -4.603,8.468 -9.228,17.034 -10.277,19.034 -1.05,2 -2.548,4.81 -3.331,6.245 l -1.422,2.609 4.69,0.038 c 7.525,0.061 359.626,0.321 359.689,0.266 0.032,-0.028 -0.093,-0.295 -0.278,-0.594 l -0.336,-0.543 -6.204,-0.105 c -3.412,-0.058 -47.433,-0.6 -97.824,-1.204 -50.392,-0.603 -97.49,-1.171 -104.664,-1.26 -34.018,-0.423 -130.365,-1.578 -131.679,-1.579 -1.335,0 -1.473,-0.027 -1.402,-0.276 0.043,-0.152 4.492,-8.815 9.886,-19.249 l 9.807,-18.973 10.172,-0.043 10.172,-0.044 2.648,-4.873 c 1.457,-2.68 2.649,-4.919 2.649,-4.976 0,-0.125 -13.063,-0.096 -38.261,0.086 m 329.723,9.233 c -0.261,0.035 -1.15,0.141 -1.976,0.234 -10.846,1.231 -18.444,5.934 -19.859,12.293 -1.128,5.07 2.112,7.424 13.614,9.889 8.048,1.725 9.921,2.874 8.945,5.485 -1.225,3.272 -6.478,5.238 -13.354,4.999 -6.646,-0.232 -9.359,-2.096 -8.415,-5.782 0.14,-0.546 0.255,-1.023 0.255,-1.061 0,-0.037 -2.543,-0.049 -5.65,-0.027 l -5.65,0.042 -0.275,1.02 c -2.124,7.871 3.283,11.845 16.713,12.282 14.594,0.475 25.944,-4.726 28.217,-12.931 1.617,-5.833 -1.966,-8.566 -13.751,-10.487 -6.354,-1.035 -9.352,-2.569 -8.922,-4.564 0.672,-3.115 4.934,-5.002 11.294,-5.002 5.897,10e-4 8.715,1.614 8.07,4.621 -0.225,1.05 -0.972,0.944 6.504,0.924 l 4.693,-0.013 0.267,-1.2 c 1.214,-5.459 -2.43,-9.173 -10.234,-10.43 -1.55,-0.249 -9.221,-0.463 -10.486,-0.292 m -61.459,1.166 -3.278,0.084 -11.228,18.574 c -6.176,10.216 -11.229,18.63 -11.229,18.697 0,0.068 2.647,0.105 5.882,0.082 l 5.882,-0.041 4.436,-7.273 4.436,-7.272 6.56,-0.047 c 12.482,-0.089 13.108,0.456 9.682,8.427 -1.219,2.837 -1.621,4.152 -1.621,5.312 v 0.932 h 5.771 5.771 v -0.928 c 0,-1.165 0.558,-3.376 1.421,-5.633 2.911,-7.614 2.748,-9.398 -0.981,-10.753 l -0.993,-0.36 0.79,-0.113 c 8.954,-1.278 15.299,-6.612 15.328,-12.885 0.018,-4.074 -2.635,-6.121 -8.8,-6.79 -1.564,-0.169 -21.354,-0.179 -27.829,-0.013 m -38.615,0.162 -13.909,0.08 -11.035,18.577 -11.035,18.577 20.827,0.04 c 16.534,0.032 20.863,-0.001 21.006,-0.158 0.212,-0.233 4.023,-6.561 4.023,-6.679 0,-0.044 -6.721,-0.08 -14.935,-0.08 h -14.934 l 2.73,-4.546 2.73,-4.545 13.72,-0.079 13.721,-0.079 1.881,-3.083 1.881,-3.083 -13.659,-0.08 -13.659,-0.079 2.265,-3.774 c 1.246,-2.075 2.344,-3.853 2.441,-3.95 0.126,-0.126 4.4,-0.199 14.986,-0.258 l 14.81,-0.081 1.791,-3.004 c 0.985,-1.652 1.897,-3.199 2.027,-3.438 l 0.235,-0.435 -7,0.038 c -3.85,0.021 -13.259,0.074 -20.908,0.119 m -53.204,0.314 -5.294,0.082 -10.714,18.317 c -5.893,10.075 -10.714,18.381 -10.714,18.459 0,0.084 7.849,0.126 19.008,0.102 l 19.009,-0.04 2.019,-3.374 c 1.111,-1.855 2.019,-3.403 2.019,-3.438 0,-0.036 -5.869,-0.065 -13.043,-0.065 -7.174,0 -13.043,-0.033 -13.043,-0.073 0,-0.04 3.948,-6.776 8.774,-14.97 4.826,-8.193 8.775,-14.955 8.775,-15.026 0,-0.071 -0.338,-0.113 -0.751,-0.093 -0.413,0.02 -3.133,0.074 -6.045,0.119 m -23.877,0.121 -1.661,0.05 -10.592,18.197 c -5.826,10.008 -10.615,18.294 -10.643,18.414 -0.043,0.181 0.921,0.217 5.85,0.216 h 5.901 l 10.79,-18.406 c 5.935,-10.122 10.791,-18.446 10.791,-18.497 0,-0.091 -7.19,-0.073 -10.436,0.026 m -35.458,0.159 -5.499,0.043 -20.588,18.122 c -11.324,9.967 -20.693,18.219 -20.82,18.338 -0.196,0.183 0.729,0.216 6.051,0.216 h 6.282 l 4.508,-4.111 4.509,-4.11 h 10.137 10.137 l -0.106,2.411 c -0.058,1.326 -0.151,3.176 -0.206,4.11 l -0.1,1.7 h 5.952 5.953 l 0.002,-1.304 c 0.002,-0.718 0.143,-8.028 0.314,-16.245 0.171,-8.218 0.312,-15.919 0.314,-17.115 l 0.002,-2.174 -0.672,0.038 c -0.369,0.02 -3.146,0.057 -6.17,0.081 M 95.968,71.413 85.77,71.465 75.691,89.56 c -5.543,9.952 -10.078,18.134 -10.078,18.181 0,0.047 2.65,0.084 5.889,0.083 l 5.889,-0.001 3.976,-7.074 3.976,-7.073 h 7.249 c 8.189,0 8.755,0.063 9.983,1.115 1.205,1.031 1.266,2.155 0.268,4.972 -1.932,5.454 -1.963,5.561 -1.968,6.838 l -0.005,1.225 h 5.77 5.771 l 0.003,-1.225 c 0.005,-1.569 0.39,-3.267 1.478,-6.522 1.91,-5.712 1.434,-7.897 -1.95,-8.953 -1.23,-0.383 -1.206,-0.428 0.35,-0.645 13.106,-1.831 19.143,-14.896 8.419,-18.218 -2.874,-0.891 -4.665,-0.952 -24.743,-0.85 m 239.861,5.414 c 2.92,0.479 4.033,1.421 3.888,3.292 -0.305,3.965 -4.886,6.491 -12.681,6.994 -2.886,0.186 -12.775,0.21 -12.701,0.031 0.029,-0.071 1.467,-2.454 3.196,-5.297 l 3.144,-5.167 7.133,10e-4 c 3.923,0 7.533,0.066 8.021,0.146 M 110.738,78 c 2.154,0.623 3.045,1.618 2.898,3.238 -0.327,3.613 -4.445,5.929 -11.564,6.503 -2.024,0.163 -13.376,0.236 -13.376,0.086 0,-0.082 4.854,-8.779 5.412,-9.696 l 0.32,-0.526 7.687,0.062 c 6.66,0.054 7.813,0.099 8.623,0.333 m 49.656,8.351 c -0.32,3.942 -0.6,7.185 -0.621,7.208 -0.022,0.023 -3.271,0.023 -7.221,0 l -7.18,-0.041 7.724,-7.245 c 4.248,-3.984 7.759,-7.209 7.802,-7.167 0.043,0.043 -0.184,3.303 -0.504,7.245"
       id="path0" />
  </g>
</svg>
