<svg id="svg" version="1.1" xmlns="http://www.w3.org/2000/svg"  width="400" height="400" viewBox="0, 0, 400,400"><g id="svgg"><path id="path0" d="M165.330 154.155 L 163.467 159.597 142.719 159.598 L 121.970 159.599 120.779 160.297 C 116.951 162.540,116.517 168.082,120.123 168.668 C 121.041 168.817,121.133 168.765,121.284 168.011 C 121.529 166.793,122.631 165.318,124.029 164.337 L 125.269 163.467 146.068 163.467 L 166.867 163.467 169.254 156.590 C 170.566 152.808,171.711 149.488,171.799 149.212 C 171.942 148.762,171.715 148.711,169.575 148.712 L 167.192 148.713 165.330 154.155 M197.871 149.069 C 197.813 149.266,196.458 165.867,194.859 185.960 C 193.261 206.053,191.860 223.138,191.747 223.926 L 191.542 225.358 174.787 225.501 L 158.031 225.645 157.548 227.436 L 157.065 229.226 176.097 229.226 C 192.593 229.226,195.129 229.171,195.129 228.808 C 195.129 228.578,196.547 210.881,198.280 189.481 C 200.013 168.082,201.432 150.154,201.432 149.642 L 201.433 148.711 199.704 148.711 C 198.569 148.711,197.940 148.833,197.871 149.069 M230.788 151.352 C 231.602 153.305,245.559 214.264,245.559 215.866 C 245.559 219.285,243.770 221.931,240.301 223.646 C 236.786 225.383,235.606 225.480,217.980 225.491 C 202.879 225.501,202.292 225.521,202.292 226.035 C 202.292 226.328,202.210 227.166,202.110 227.897 L 201.928 229.226 220.388 229.226 C 242.071 229.226,242.964 229.107,246.433 225.740 C 250.113 222.170,250.331 223.995,241.833 187.249 C 233.994 153.351,234.198 154.063,231.631 151.547 L 230.344 150.287 230.788 151.352 M299.785 154.585 C 300.502 155.530,302.265 157.787,303.703 159.599 L 306.317 162.894 293.130 162.968 C 285.877 163.009,279.943 163.100,279.943 163.170 C 279.943 163.239,280.533 164.141,281.254 165.173 L 282.566 167.049 296.154 167.049 C 303.627 167.049,309.740 166.952,309.738 166.834 C 309.733 166.549,300.172 154.502,299.222 153.582 C 298.815 153.188,299.068 153.639,299.785 154.585 M269.149 157.438 C 268.127 157.882,267.622 158.637,267.622 159.722 C 267.622 162.245,287.242 199.959,288.106 199.096 C 288.161 199.041,284.351 191.195,279.639 181.661 C 270.585 163.342,270.489 163.100,271.800 161.869 C 272.738 160.988,276.050 160.867,277.587 161.658 L 278.527 162.142 277.876 160.985 C 276.128 157.874,272.001 156.197,269.149 157.438 M205.502 161.676 L 205.587 163.467 207.378 163.610 C 209.855 163.808,209.872 161.694,207.405 160.435 C 205.588 159.509,205.405 159.628,205.502 161.676 M383.268 164.453 C 383.386 164.680,384.117 165.712,384.893 166.746 C 408.430 198.115,389.570 243.024,350.143 249.488 C 346.488 250.087,49.395 250.452,41.151 249.868 C 30.030 249.079,19.749 245.156,11.748 238.648 C 8.970 236.388,9.229 236.838,12.624 240.164 C 20.200 247.589,28.613 251.949,40.028 254.366 C 42.827 254.959,347.039 255.311,352.865 254.728 C 392.817 250.732,413.624 204.904,390.320 172.231 C 388.662 169.907,382.666 163.293,383.268 164.453 M158.576 176.289 C 158.590 178.252,158.220 179.484,151.884 198.567 L 145.178 218.768 143.291 220.653 C 141.124 222.818,138.838 224.058,135.413 224.927 C 133.201 225.487,132.238 225.501,95.808 225.501 L 58.470 225.501 57.431 227.126 C 56.859 228.020,56.324 228.926,56.243 229.139 C 55.998 229.777,137.092 229.537,139.158 228.893 C 142.914 227.723,146.023 225.787,147.722 223.561 C 148.757 222.207,161.582 184.348,162.039 181.301 C 162.329 179.368,161.563 177.044,160.121 175.479 C 158.598 173.828,158.558 173.849,158.576 176.289 M88.539 185.017 C 88.539 185.281,89.917 187.029,90.779 187.859 C 91.202 188.266,92.385 189.005,93.410 189.500 L 95.272 190.401 109.991 190.485 L 124.710 190.569 124.513 189.769 C 123.736 186.609,124.218 186.698,106.890 186.533 L 91.834 186.390 90.186 185.618 C 89.280 185.193,88.539 184.923,88.539 185.017 M330.382 192.066 C 330.377 192.193,333.564 196.227,337.464 201.031 C 341.365 205.834,344.852 210.397,345.213 211.172 C 347.201 215.429,346.223 220.455,342.825 223.446 C 340.329 225.643,343.077 225.501,303.018 225.501 C 264.401 225.501,265.318 225.535,262.786 224.043 C 262.254 223.729,261.766 223.525,261.702 223.589 C 261.437 223.854,263.932 226.617,265.184 227.446 C 268.297 229.508,265.343 229.370,306.160 229.370 L 342.837 229.370 344.465 228.570 C 347.870 226.898,349.427 224.040,349.427 219.463 C 349.427 215.325,349.348 215.196,339.398 202.961 C 334.828 197.342,330.932 192.539,330.740 192.289 C 330.548 192.039,330.387 191.938,330.382 192.066 " stroke="none" fill="#14140c" fill-rule="evenodd"></path><path id="path1" d="M109.599 145.280 C 105.012 145.775,101.077 147.345,98.978 149.515 C 96.422 152.159,84.517 171.739,84.162 173.882 C 83.345 178.807,85.471 183.259,89.617 185.309 L 91.802 186.390 106.874 186.533 C 123.434 186.690,122.787 186.618,123.991 188.455 C 125.412 190.624,123.353 195.264,120.228 196.937 L 119.054 197.564 94.569 197.708 L 70.084 197.851 61.548 211.461 C 56.853 218.947,53.011 225.168,53.010 225.287 C 53.006 225.872,133.065 225.522,135.413 224.927 C 138.838 224.058,141.124 222.818,143.291 220.653 L 145.178 218.768 151.850 198.567 C 155.519 187.457,158.585 177.906,158.661 177.343 C 159.094 174.175,157.330 171.237,154.100 169.746 L 152.292 168.911 135.775 168.768 C 120.151 168.632,119.225 168.596,118.665 168.089 C 116.647 166.261,117.789 162.049,120.779 160.297 L 121.970 159.599 142.719 159.597 L 163.467 159.595 165.302 154.224 C 166.311 151.271,167.227 148.725,167.339 148.567 C 167.571 148.237,168.481 145.573,168.481 145.221 C 168.481 144.927,112.346 144.983,109.599 145.280 M164.527 184.600 C 158.807 206.387,154.053 224.502,153.964 224.857 L 153.801 225.501 172.586 225.501 C 184.168 225.501,191.435 225.397,191.539 225.229 C 191.632 225.079,193.117 207.575,194.841 186.332 C 196.564 165.089,198.061 147.095,198.167 146.347 L 198.359 144.986 186.644 144.987 L 174.928 144.988 164.527 184.600 M202.482 149.928 C 202.378 152.647,202.294 155.918,202.293 157.198 L 202.292 159.525 204.354 159.728 C 209.077 160.193,208.919 159.787,209.866 173.926 C 210.284 180.150,210.824 187.811,211.068 190.949 C 211.692 198.977,211.797 198.854,204.333 198.854 L 199.765 198.854 199.601 201.218 C 199.448 203.434,198.846 222.077,198.851 224.427 L 198.854 225.501 216.261 225.491 C 238.033 225.479,240.139 225.157,243.513 221.324 C 246.513 217.917,246.694 219.261,238.411 183.467 C 230.251 148.203,230.856 150.348,228.367 147.827 C 225.525 144.950,225.718 144.986,213.175 144.986 L 202.669 144.986 202.482 149.928 M248.138 145.256 C 241.893 145.501,238.951 147.641,238.266 152.436 C 238.065 153.842,256.522 216.240,257.999 219.148 C 259.544 222.188,262.066 224.172,265.536 225.076 C 268.078 225.738,338.244 225.714,340.191 225.050 C 345.287 223.314,347.723 216.475,345.165 211.083 C 344.778 210.267,341.259 205.651,337.345 200.825 C 333.431 195.999,329.586 191.215,328.799 190.193 L 327.370 188.336 323.095 188.151 C 316.173 187.851,293.410 187.926,293.410 188.248 C 293.410 188.404,294.248 190.141,295.272 192.110 C 297.288 195.983,297.343 196.186,296.713 197.406 C 295.556 199.642,289.165 200.315,286.743 198.456 C 286.030 197.909,267.622 160.619,267.622 159.723 C 267.622 155.178,275.342 156.481,278.166 161.502 L 279.109 163.181 289.770 163.107 C 295.633 163.066,301.758 163.002,303.381 162.963 L 306.332 162.894 303.369 159.169 C 301.740 157.120,299.469 154.190,298.323 152.658 C 294.917 148.102,292.239 146.246,287.869 145.414 C 285.552 144.972,258.136 144.863,248.138 145.256 M378.223 159.445 C 378.223 159.540,378.786 160.614,379.474 161.829 C 398.561 195.575,375.656 236.737,336.390 239.255 C 330.117 239.657,36.913 239.646,31.918 239.244 C 20.117 238.292,11.014 234.458,0.931 226.191 C -0.326 225.161,-0.240 225.641,1.196 227.675 C 10.381 240.689,24.821 248.710,41.151 249.868 C 49.395 250.452,346.488 250.087,350.143 249.488 C 389.867 242.975,408.232 198.762,384.666 166.375 C 382.288 163.106,378.223 158.734,378.223 159.445 " stroke="none" fill="#dc0c14" fill-rule="evenodd"></path></g></svg>