<svg id="svg" xmlns="http://www.w3.org/2000/svg"  width="400" height="400" viewBox="0, 0, 400,400"><g id="svgg"><path id="path0" d="M110.950 147.071 C 106.307 147.572,102.323 149.161,100.198 151.359 C 97.687 153.957,85.546 173.874,85.183 175.991 C 84.356 180.818,86.477 185.375,90.566 187.560 L 92.676 188.687 107.904 188.832 C 124.442 188.990,124.165 188.962,125.401 190.631 C 127.008 192.804,124.974 197.618,121.710 199.364 L 120.522 200.000 95.735 200.145 L 70.948 200.290 62.307 214.068 C 57.554 221.646,53.665 227.944,53.664 228.064 C 53.660 228.523,134.553 228.310,136.766 227.845 C 140.607 227.038,145.114 224.177,146.729 221.520 C 147.706 219.913,160.696 180.369,160.696 179.003 C 160.696 175.673,159.130 173.284,155.999 171.838 L 154.170 170.993 137.623 170.848 C 119.177 170.687,119.831 170.764,119.259 168.690 C 118.612 166.350,120.597 162.810,123.079 161.874 C 123.627 161.668,130.746 161.566,144.738 161.566 L 165.580 161.566 166.369 159.173 C 166.803 157.857,167.923 154.652,168.858 152.050 C 169.793 149.449,170.558 147.197,170.558 147.047 C 170.558 146.719,114.000 146.742,110.950 147.071 M166.555 186.876 C 160.764 208.931,155.952 227.270,155.862 227.629 L 155.697 228.281 174.842 228.281 L 193.986 228.281 194.171 226.468 C 194.272 225.471,195.720 207.752,197.389 187.092 C 199.058 166.432,200.509 148.909,200.614 148.151 L 200.804 146.773 188.944 146.774 L 177.085 146.775 166.555 186.876 M204.978 151.777 C 204.873 154.529,204.787 157.839,204.787 159.133 L 204.786 161.486 206.709 161.683 C 211.615 162.186,211.402 161.674,212.364 175.279 C 212.807 181.537,213.382 189.484,213.643 192.938 C 214.291 201.516,214.463 201.305,206.852 201.305 L 202.228 201.305 202.062 203.698 C 201.906 205.949,201.297 224.817,201.303 227.207 L 201.305 228.309 220.087 228.207 C 236.295 228.119,239.077 228.041,240.390 227.640 C 245.684 226.021,248.586 222.857,248.586 218.704 C 248.586 216.211,234.445 154.754,233.328 152.393 C 232.399 150.430,229.661 147.871,227.815 147.242 C 226.645 146.844,224.840 146.773,215.803 146.773 L 205.167 146.773 204.978 151.777 M251.197 147.046 C 244.875 147.295,241.897 149.461,241.203 154.315 C 241.000 155.738,259.684 218.905,261.180 221.849 C 262.367 224.186,264.095 225.868,266.527 227.054 L 268.745 228.136 306.454 228.136 L 344.162 228.136 345.323 227.508 C 350.108 224.915,351.982 218.282,349.310 213.398 C 348.857 212.570,345.360 208.034,341.538 203.318 C 337.717 198.601,333.873 193.823,332.996 192.700 L 331.401 190.657 327.076 190.470 C 320.070 190.167,297.027 190.243,297.027 190.569 C 297.027 190.726,297.875 192.485,298.912 194.478 C 300.953 198.399,301.009 198.605,300.370 199.840 C 299.153 202.194,292.615 202.788,290.238 200.761 C 289.449 200.088,270.921 162.522,270.921 161.595 C 270.921 157.301,278.265 158.390,281.299 163.134 C 282.023 164.266,282.627 165.192,282.642 165.192 C 282.657 165.192,288.857 165.127,296.420 165.047 L 310.171 164.902 306.848 160.696 C 305.020 158.383,302.638 155.341,301.554 153.937 C 298.358 149.798,295.675 148.023,291.372 147.199 C 289.072 146.759,261.213 146.653,251.197 147.046 M382.886 161.410 C 382.886 161.507,383.456 162.594,384.152 163.824 C 403.474 197.986,380.287 239.655,340.537 242.204 C 334.187 242.611,37.368 242.601,32.312 242.193 C 20.646 241.252,9.972 236.821,1.478 229.392 C -0.208 227.917,-0.353 228.196,1.039 230.236 C 9.892 243.211,24.802 251.699,40.899 252.927 C 46.088 253.323,343.515 253.332,349.619 252.937 C 392.141 250.182,414.474 203.455,389.765 168.941 C 387.036 165.128,382.886 160.586,382.886 161.410 " stroke="none" fill-rule="evenodd"></path></g></svg>